<svg xmlns="http://www.w3.org/2000/svg" viewBox="0 0 349.553 36.172"><path d="M12.857 28.921c-1.407 1.095-3.034 1.953-4.821 2.19-1.577.21-3.547.235-4.833-.851-2.84-2.402 1.858-8.602 1.858-8.602l7.56 4.049L23.418 8.774c.107-1.96-1.413-2.96-3.258-2.774-1.9.19-3.316 1.473-4.584 2.797-.698.728-1.359 1.49-2.043 2.23-.657.71-1.374.805-2.201.28-.606-.384-1.443-1.201-1.325-1.966l5.11-6.001c3.198-1.858 7.898-2.663 11.032-.247 3.225 2.484 2.41 6.922.855 10.122-1.79 3.684-4.538 6.917-7.296 9.91a43.31 43.31 0 0 1-2.19 2.222s7.394 1.284 8.391 1.065c.474-.104.931-.263 1.4-.379.566-.14.726.203.722.737-.008 1.013-.448 2.094-.791 3.033-.114.31-.204.673-.45.906-.29.275-.759.378-1.137.455-1.971.401-4.24.05-6.17-.415a21.591 21.591 0 0 1-3.475-1.172c-.553-.239-1.096-.5-1.625-.79-.16-.088-.567-.441-.75-.435-.183.005-.656.475-.777.569zm-2.434-3.108S8 24.518 6.692 24.687C5.59 24.83 4.42 25.78 4.88 26.992c.44 1.158 1.842 1.361 2.922 1.133l2.62-2.312zm25.847 5.594c-6.165-.649-6.81-8.635-5.89-13.347 1.074-5.505 4.221-11.028 8.953-14.16 4.2-2.78 10.914-3.586 13.45 1.794 1.2 2.545 1.093 5.585.652 8.296-.464 2.852-1.432 5.714-2.874 8.22-1.555 2.705-3.704 5.308-6.315 7.049a12.735 12.735 0 0 1-4.018 1.787c-.712.175-1.44.285-2.173.333-.353.023-.706.03-1.06.028-.204-.001-.627-.079-.725 0zm1.995-4.558c3.643 0 5.998-3.08 7.629-5.997.969-1.733 1.684-3.592 2.219-5.502.503-1.796.91-3.716.687-5.588-.18-1.521-.903-3.012-2.51-3.38-1.703-.388-3.473.439-4.8 1.456-2.997 2.296-4.65 5.803-5.634 9.35-.768 2.77-2.395 9.661 2.409 9.661zm18.414 4.196c-.85 0 .23-1.526-.062-1.146s6.874-15.657 6.874-15.657c-.645.395-2.828 1.81-3.324.6-.257-.63-.102-1.425-.033-2.074L71.079 1.986C72.308.909 74.044.96 75.027 2.31c1.01 1.387.106 3.013-.76 4.209-.426.589-1.018 1.1-1.374 1.733-.39.693-.718 1.437-1.066 2.153-.75 1.544-1.506 3.085-2.213 4.65-1.394 3.08-2.793 6.159-4.344 9.164-.82 1.59-1.676 3.161-2.516 4.74-.344.647-.776 2.045-1.602 2.085-1.484.072-2.987 0-4.473 0zm34.73-15.514c1.153-.164 2.215.645 2.01 1.859-.177 1.05-.873 1.99-1.71 2.618-1.97 1.477-4.916 1.976-7.214 1.04-2.3-.937-5.308-6.212-3.047-5.733.53.113 2.62-7.353 2.62-7.353l13.309-6.049c2.15.573 4.062 2.087 5.096 4.06 1.064 2.032.992 4.346.614 6.547-.332 1.933-.915 3.609-1.9 5.303-1.26 2.166-2.773 4.21-4.334 6.167-3.298 4.137-7.268 8.103-11.773 10.915-.548.341-1.106.666-1.675.971-.661.355-1.043.449-1.67-.046-.785-.62-1.978-2.075-1.193-3.099l17.69-16.576-.165-7.963c-.98-1.99-3.614-2.15-5.452-1.446-2.247.862-4.137 2.908-5.19 5.034-.675 1.36-1.953 5.333.854 5.222.55-.022 1.107-.247 1.589-.498.246-.128.483-.274.71-.432.25-.173.525-.496.832-.541z"/><linearGradient id="a" gradientUnits="userSpaceOnUse" x1="50.843" y1=".306" x2="50.843" y2="35.245"><stop offset="0" stop-color="#0ff"/><stop offset=".153" stop-color="#39c6ff"/><stop offset=".357" stop-color="#7f80ff"/><stop offset=".541" stop-color="#b649ff"/><stop offset=".699" stop-color="#de21ff"/><stop offset=".824" stop-color="#f609ff"/><stop offset=".9" stop-color="#f0f"/></linearGradient><path fill="url(#a)" d="M11.204 27.994c-1.408 1.095-3.035 1.953-4.822 2.19-1.577.21-3.547.235-4.832-.851-2.842-2.402-1.513-7.464 1.857-8.602 1.674-.565 3.676-.357 5.321.203.857.29 1.59.717 2.346 1.207.59.382.823.354 1.334-.078 1.371-1.158 2.526-2.647 3.637-4.048 1.256-1.582 2.48-3.212 3.537-4.934.953-1.552 2.08-3.366 2.183-5.234.107-1.96-1.412-2.96-3.258-2.774-1.899.19-3.315 1.473-4.584 2.797-.698.728-1.358 1.49-2.043 2.23-.657.711-1.374.805-2.201.28-.606-.384-1.443-1.2-1.324-1.966.124-.798.68-1.667 1.117-2.34 1-1.544 2.41-2.743 3.992-3.661C16.663.555 21.361-.25 24.497 2.166c3.224 2.485 2.409 6.922.854 10.122-1.79 3.684-4.537 6.917-7.295 9.91a43.31 43.31 0 0 1-2.19 2.222c.527.538 1.484.71 2.187.88a15.23 15.23 0 0 0 3.204.41c1.017.025 2.003-.006 3-.225.473-.104.93-.263 1.399-.378.566-.14.727.202.722.736-.008 1.013-.448 2.094-.791 3.033-.114.31-.204.673-.45.906-.29.275-.759.378-1.136.455-1.972.401-4.24.05-6.17-.415a21.591 21.591 0 0 1-3.475-1.172c-.554-.239-1.097-.5-1.625-.79-.16-.088-.567-.441-.75-.435-.184.005-.657.475-.777.57zm-2.435-3.107c-1.09-.655-2.422-1.296-3.73-1.127-1.103.143-2.273 1.094-1.813 2.305.44 1.158 1.842 1.361 2.922 1.133 1.319-.279 2-1.404 3.087-2.052a7.234 7.234 0 0 1-.466-.26zm25.848 5.593c-6.166-.649-6.81-8.635-5.89-13.347 1.074-5.504 4.22-11.028 8.952-14.16 4.2-2.78 10.915-3.586 13.45 1.794 1.2 2.546 1.093 5.585.652 8.296-.463 2.852-1.432 5.714-2.874 8.221-1.555 2.704-3.704 5.307-6.314 7.048a12.735 12.735 0 0 1-4.019 1.787c-.712.175-1.44.285-2.172.333-.353.023-.707.03-1.06.028-.205-.001-.627-.079-.725 0zm1.994-4.558c3.643 0 5.998-3.08 7.629-5.997.969-1.733 1.684-3.592 2.22-5.502.502-1.796.909-3.716.687-5.588-.18-1.521-.904-3.012-2.511-3.38-1.703-.388-3.473.439-4.8 1.456-2.997 2.296-4.65 5.803-5.634 9.35-.768 2.77-2.394 9.661 2.41 9.661zm18.414 4.196c-.85 0-.354-.766-.062-1.146a30.168 30.168 0 0 0 1.492-2.154 58.069 58.069 0 0 0 2.602-4.53c1.557-3 3.049-6.029 4.433-9.112.09-.2.764-1.307.394-1.395-.145-.035-.845.723-.985.829-.336.256-.702.485-1.062.706-.644.394-2.828 1.81-3.324.599-.257-.63-.101-1.425-.033-2.074.059-.562.088-1.575.6-1.875.603-.354 1.355-.53 1.982-.869.782-.421 1.525-.918 2.266-1.407 1.287-.85 2.653-1.788 3.687-2.943.994-1.11 1.277-2.695 2.41-3.688 1.23-1.077 2.966-1.025 3.948.325 1.01 1.388.106 3.013-.76 4.209-.426.589-1.018 1.1-1.374 1.734-.39.693-.718 1.436-1.065 2.152-.75 1.545-1.506 3.085-2.214 4.65-1.394 3.08-2.792 6.159-4.343 9.164-.821 1.59-1.676 3.161-2.516 4.74-.345.647-.777 2.045-1.603 2.085-1.484.072-2.987 0-4.473 0zm34.731-15.514c1.152-.164 2.214.645 2.01 1.86-.178 1.05-.874 1.99-1.711 2.617-1.97 1.477-4.915 1.976-7.214 1.04-2.3-.937-3.136-3.424-3.047-5.733.1-2.611 1.116-5.23 2.62-7.353C85.303 2.96 90.581-.385 95.723.986c2.15.573 4.062 2.087 5.096 4.06 1.064 2.032.992 4.346.614 6.547-.331 1.933-.915 3.609-1.9 5.303-1.26 2.166-2.773 4.21-4.333 6.167-3.3 4.137-7.268 8.103-11.774 10.915-.548.342-1.106.666-1.675.971-.66.355-1.043.45-1.67-.046-.785-.62-1.978-2.075-1.193-3.099.336-.437.951-.693 1.401-.994.597-.4 1.178-.82 1.746-1.259a44.442 44.442 0 0 0 3.18-2.725c3.814-3.568 7.497-7.528 9.885-12.214 1.077-2.113 2.474-4.992 1.313-7.347-.98-1.99-3.614-2.15-5.452-1.446-2.247.862-4.137 2.908-5.19 5.034-.674 1.36-1.953 5.333.854 5.222.55-.022 1.107-.247 1.589-.498.246-.128.483-.274.71-.432.251-.172.526-.496.832-.541z"/><path fill="#FAB33F" d="M125.975 1.066h14.272c6.514.068 11.128.395 14.404 8.484 4.459-.801 17.81-5.6 25.893 4.109 5.03-6.576 19.787-7.96 24.876-2.21 4.691-3.688 18.272-6.982 22.932 2.122C233.054.081 257.291-6.52 262.905 9.372l.84-1.016h12.371v.707c5.351-2.962 12.576-.151 13.521 5.037 4.974-14.169 27.975-20.627 34.73-5.126h25.185v7.777l-9.19 8.483 6.363.045-2.43 10.604h-48.25c-2.06 0-4.603-1.146-7.115-5.567l-2.253 5.523-29.207.044.486-4.242c-2.003 2.113-4.556 4.242-8.483 4.33l-16.349-.088c-1.964 0-4.102-2.205-5.479-4.595-1.116 3.266-3.467 4.595-6.142 4.595h-37.248c-2.859 0-5.761-2.863-7.555-5.744l-1.591 5.744h-56.336l7.202-34.818z"/><path d="M136.392 16.292c1.535 0 2.704-.297 3.507-.891.817-.594 1.38-1.571 1.689-2.932.306-1.347.183-2.31-.367-2.892-.536-.581-1.572-.872-3.107-.872h-3.112l-1.723 7.587h3.113zm-4.31 5.27l-2.541 11.192h-7.398l6.715-29.576h11.279c3.78 0 6.397.654 7.848 1.962 1.466 1.307 1.878 3.374 1.236 6.2-.444 1.954-1.263 3.559-2.458 4.814-1.194 1.254-2.783 2.179-4.766 2.773.956.238 1.735.78 2.34 1.624.62.832 1.143 2.1 1.566 3.804l2.101 8.399h-7.867l-1.806-7.35c-.375-1.478-.864-2.489-1.465-3.03-.602-.542-1.5-.812-2.694-.812h-2.09zm31.94 1.208c-1.435 0-2.572.251-3.41.753-.84.502-1.37 1.241-1.592 2.219-.204.898-.073 1.604.393 2.12.469.501 1.222.752 2.26.752 1.293 0 2.488-.475 3.585-1.426a6.627 6.627 0 0 0 2.141-3.606l.184-.812h-3.56zm11.098-2.674l-2.875 12.658h-6.929l.747-3.288c-1.23 1.347-2.49 2.33-3.783 2.951-1.29.608-2.758.911-4.407.911-2.232 0-3.892-.666-4.982-2-1.073-1.347-1.367-3.09-.881-5.23.59-2.602 1.891-4.51 3.901-5.725 2.01-1.215 4.87-1.822 8.58-1.822h4.05l.126-.555c.255-1.123.008-1.941-.743-2.456-.732-.529-2.001-.793-3.807-.793-1.478 0-2.884.152-4.218.456-1.334.303-2.617.76-3.85 1.367l1.229-5.408a42.174 42.174 0 0 1 4.623-.832 35.377 35.377 0 0 1 4.524-.297c3.88 0 6.5.792 7.86 2.377 1.363 1.571 1.641 4.133.835 7.686zm25.757-8.835l-1.314 5.784a7.98 7.98 0 0 0-2.481-1.466 8.125 8.125 0 0 0-2.813-.475c-1.919 0-3.543.581-4.873 1.743-1.327 1.15-2.226 2.76-2.697 4.834-.47 2.073-.305 3.69.497 4.853.805 1.149 2.167 1.723 4.086 1.723 1.08 0 2.141-.165 3.183-.495 1.041-.33 2.04-.819 2.998-1.466l-1.318 5.804c-1.16.41-2.316.713-3.47.912-1.156.21-2.288.317-3.397.317-3.88 0-6.682-1.024-8.407-3.071-1.72-2.06-2.166-4.92-1.335-8.578s2.573-6.51 5.226-8.557c2.657-2.06 5.925-3.09 9.806-3.09 1.123 0 2.207.105 3.254.316 1.049.199 2.067.502 3.055.912zm25.027 10.34l-.459 2.021h-16.054c-.222 1.664.07 2.912.877 3.744.82.832 2.125 1.248 3.916 1.248 1.45 0 2.978-.218 4.583-.654 1.623-.449 3.332-1.122 5.128-2.02l-1.241 5.467c-1.765.634-3.5 1.11-5.206 1.426-1.696.33-3.354.496-4.974.496-3.894 0-6.691-1.017-8.39-3.051-1.681-2.047-2.104-4.913-1.267-8.597.822-3.619 2.527-6.465 5.116-8.538 2.588-2.074 5.737-3.11 9.447-3.11 3.383 0 5.845 1.05 7.387 3.15 1.555 2.1 1.935 4.905 1.137 8.418zm-6.522-2.357c.306-1.347.168-2.43-.413-3.249-.565-.832-1.465-1.248-2.702-1.248-1.322 0-2.49.39-3.506 1.17-.998.765-1.77 1.874-2.312 3.327h8.933zm28.205-11.073c-2.245 0-4.188.858-5.83 2.575-1.625 1.717-2.793 4.133-3.5 7.25-.705 3.104-.634 5.514.213 7.23.86 1.717 2.414 2.576 4.66 2.576 2.26 0 4.203-.859 5.83-2.575 1.64-1.717 2.813-4.127 3.517-7.23.708-3.118.631-5.534-.23-7.251-.846-1.717-2.4-2.575-4.66-2.575zm1.255-5.527c4.606 0 7.9 1.36 9.883 4.08 1.998 2.72 2.452 6.478 1.364 11.272-1.086 4.78-3.245 8.531-6.478 11.252-3.219 2.72-7.13 4.08-11.736 4.08-4.591 0-7.885-1.36-9.883-4.08-1.998-2.72-2.454-6.471-1.368-11.252 1.089-4.794 3.25-8.551 6.482-11.272 3.233-2.72 7.145-4.08 11.736-4.08zm37.87 16.6l-3.068 13.51h-6.908l.5-2.199 1.848-8.142c.435-1.914.692-3.235.772-3.961.08-.727.059-1.262-.062-1.605a2.004 2.004 0 0 0-.866-1.07c-.395-.264-.884-.396-1.466-.396-1.436 0-2.696.575-3.782 1.723-1.068 1.136-1.831 2.714-2.29 4.735l-2.479 10.915h-6.865l5.038-22.187h6.865l-.737 3.249c1.331-1.294 2.648-2.245 3.952-2.853a9.378 9.378 0 0 1 4.07-.93c2.473 0 4.171.785 5.094 2.357.936 1.571 1.064 3.856.384 6.854zM308.99 8.171c-2.246 0-4.19.858-5.83 2.575-1.626 1.717-2.793 4.133-3.5 7.25-.706 3.104-.635 5.514.212 7.23.861 1.717 2.415 2.576 4.66 2.576 2.26 0 4.203-.859 5.83-2.575 1.64-1.717 2.813-4.127 3.518-7.23.707-3.118.63-5.534-.23-7.251-.847-1.717-2.4-2.575-4.66-2.575zm1.255-5.527c4.605 0 7.9 1.36 9.883 4.08 1.997 2.72 2.452 6.478 1.363 11.272-1.085 4.78-3.245 8.531-6.478 11.252-3.219 2.72-7.13 4.08-11.736 4.08-4.59 0-7.885-1.36-9.883-4.08-1.997-2.72-2.453-6.471-1.368-11.252 1.089-4.794 3.25-8.551 6.483-11.272 3.233-2.72 7.145-4.08 11.736-4.08zm17.176 7.924h18.761l-1.124 4.952-14.083 12.163h11.321l-1.151 5.071h-19.231l1.124-4.952 14.083-12.163H326.27l1.152-5.071z"/></svg>