<?xml version="1.0" encoding="utf-8"?>
<!-- Generator: Adobe Illustrator 22.0.1, SVG Export Plug-In . SVG Version: 6.00 Build 0)  -->
<svg version="1.1" id="Layer_1" xmlns="http://www.w3.org/2000/svg" xmlns:xlink="http://www.w3.org/1999/xlink" x="0px" y="0px"
	 viewBox="0 0 74.299 11.262" enable-background="new 0 0 74.299 11.262" xml:space="preserve">
<g>
	<path d="M0.797,6.598H0V5.309h1.055L1.406,3.58H0V2.285h1.67L2.133,0h1.313L2.982,2.285h1.295L4.729,0h1.359L5.619,2.285h0.809
		V3.58H5.355L5.004,5.309h1.424v1.289H4.74L4.277,8.883H2.971l0.451-2.285H2.121L1.658,8.883H0.334L0.797,6.598z M2.725,3.58
		L2.379,5.309H3.68L4.02,3.58H2.725z"/>
	<path d="M10.307,8.736V7.008H6.791V5.566l3.727-5.455H11.9v5.449h1.066v1.447H11.9v1.729H10.307z M10.307,5.561V2.625L8.332,5.561
		H10.307z"/>
	<path d="M15.809,8.736V1.6H13.26V0.146h6.826V1.6h-2.543v7.137H15.809z"/>
	<path d="M22.594,0.146v3.158c0.531-0.621,1.166-0.932,1.904-0.932c0.379,0,0.721,0.07,1.025,0.211s0.534,0.32,0.688,0.539
		s0.26,0.461,0.316,0.727s0.085,0.678,0.085,1.236v3.65h-1.646V5.449c0-0.652-0.031-1.066-0.094-1.242s-0.173-0.315-0.331-0.419
		s-0.356-0.155-0.595-0.155c-0.273,0-0.518,0.066-0.732,0.199s-0.372,0.333-0.472,0.601s-0.149,0.663-0.149,1.187v3.117h-1.646
		v-8.59H22.594z"/>
	<path d="M31.647,6.756l1.641,0.275c-0.211,0.602-0.544,1.06-0.999,1.374s-1.024,0.472-1.708,0.472
		c-1.082,0-1.883-0.354-2.402-1.061c-0.41-0.566-0.615-1.281-0.615-2.145c0-1.031,0.27-1.839,0.809-2.423s1.221-0.876,2.045-0.876
		c0.926,0,1.656,0.306,2.191,0.917s0.791,1.548,0.768,2.81H29.25c0.012,0.488,0.145,0.868,0.398,1.14s0.57,0.407,0.949,0.407
		c0.258,0,0.475-0.07,0.65-0.211S31.557,7.068,31.647,6.756z M31.741,5.092c-0.012-0.477-0.135-0.839-0.369-1.087
		s-0.52-0.372-0.855-0.372c-0.359,0-0.656,0.131-0.891,0.393s-0.35,0.617-0.346,1.066H31.741z"/>
	<path d="M34.489,8.736v-8.59h2.783c1.055,0,1.742,0.043,2.063,0.129c0.492,0.129,0.904,0.409,1.236,0.841s0.498,0.989,0.498,1.673
		c0,0.527-0.096,0.971-0.287,1.33s-0.435,0.642-0.729,0.847s-0.595,0.341-0.899,0.407c-0.414,0.082-1.014,0.123-1.799,0.123h-1.131
		v3.24H34.489z M36.224,1.6v2.438h0.949c0.684,0,1.141-0.045,1.371-0.135s0.411-0.23,0.542-0.422s0.196-0.414,0.196-0.668
		c0-0.313-0.092-0.57-0.275-0.773s-0.416-0.33-0.697-0.381C38.103,1.619,37.687,1.6,37.062,1.6H36.224z"/>
	<path d="M42.241,8.736v-8.59h1.646v8.59H42.241z"/>
	<path d="M46.566,4.412l-1.494-0.27c0.168-0.602,0.457-1.047,0.867-1.336s1.02-0.434,1.828-0.434c0.734,0,1.281,0.087,1.641,0.261
		c0.359,0.174,0.611,0.395,0.758,0.662s0.221,0.759,0.221,1.474l-0.018,1.922c0,0.547,0.025,0.95,0.078,1.21
		s0.152,0.538,0.297,0.835h-1.629c-0.043-0.109-0.096-0.271-0.158-0.486c-0.027-0.098-0.047-0.162-0.059-0.193
		c-0.281,0.273-0.582,0.479-0.902,0.615s-0.662,0.205-1.025,0.205c-0.641,0-1.146-0.174-1.515-0.521s-0.554-0.787-0.554-1.318
		c0-0.352,0.084-0.665,0.252-0.94s0.403-0.486,0.706-0.633s0.739-0.274,1.31-0.384c0.77-0.145,1.303-0.279,1.6-0.404V4.512
		c0-0.316-0.078-0.542-0.234-0.677s-0.451-0.202-0.885-0.202c-0.293,0-0.521,0.058-0.686,0.173S46.667,4.123,46.566,4.412z
		 M48.769,5.748C48.558,5.818,48.224,5.902,47.767,6s-0.756,0.193-0.896,0.287c-0.215,0.152-0.322,0.346-0.322,0.58
		c0,0.23,0.086,0.43,0.258,0.598s0.391,0.252,0.656,0.252c0.297,0,0.58-0.098,0.85-0.293c0.199-0.148,0.33-0.33,0.393-0.545
		c0.043-0.141,0.064-0.408,0.064-0.803V5.748z"/>
	<path d="M50.99,2.514h1.752l1.488,4.418l1.453-4.418h1.705l-2.197,5.988l-0.393,1.084c-0.145,0.363-0.282,0.641-0.413,0.832
		s-0.281,0.347-0.451,0.466s-0.379,0.212-0.627,0.278s-0.528,0.1-0.841,0.1c-0.316,0-0.627-0.033-0.932-0.1l-0.146-1.289
		c0.258,0.051,0.49,0.076,0.697,0.076c0.383,0,0.666-0.112,0.85-0.337s0.324-0.511,0.422-0.858L50.99,2.514z"/>
	<path d="M61.807,6.756l1.641,0.275c-0.211,0.602-0.544,1.06-0.999,1.374s-1.024,0.472-1.708,0.472
		c-1.082,0-1.883-0.354-2.402-1.061c-0.41-0.566-0.615-1.281-0.615-2.145c0-1.031,0.27-1.839,0.809-2.423s1.221-0.876,2.045-0.876
		c0.926,0,1.656,0.306,2.191,0.917s0.791,1.548,0.768,2.81H59.41c0.012,0.488,0.145,0.868,0.398,1.14s0.57,0.407,0.949,0.407
		c0.258,0,0.475-0.07,0.65-0.211S61.717,7.068,61.807,6.756z M61.9,5.092c-0.012-0.477-0.135-0.839-0.369-1.087
		s-0.52-0.372-0.855-0.372c-0.359,0-0.656,0.131-0.891,0.393s-0.35,0.617-0.346,1.066H61.9z"/>
	<path d="M66.213,8.736h-1.646V2.514h1.529v0.885c0.262-0.418,0.497-0.693,0.706-0.826s0.446-0.199,0.712-0.199
		c0.375,0,0.736,0.104,1.084,0.311l-0.51,1.436c-0.277-0.18-0.535-0.27-0.773-0.27c-0.23,0-0.426,0.063-0.586,0.19
		s-0.286,0.356-0.378,0.688s-0.138,1.027-0.138,2.086V8.736z"/>
	<path d="M68.486,6.961l1.652-0.252c0.07,0.32,0.213,0.563,0.428,0.729s0.516,0.249,0.902,0.249c0.426,0,0.746-0.078,0.961-0.234
		c0.145-0.109,0.217-0.256,0.217-0.439c0-0.125-0.039-0.229-0.117-0.311c-0.082-0.078-0.266-0.15-0.551-0.217
		c-1.328-0.293-2.17-0.561-2.525-0.803c-0.492-0.336-0.738-0.803-0.738-1.4c0-0.539,0.213-0.992,0.639-1.359s1.086-0.551,1.98-0.551
		c0.852,0,1.484,0.139,1.898,0.416s0.699,0.688,0.855,1.23l-1.553,0.287c-0.066-0.242-0.192-0.428-0.378-0.557
		s-0.45-0.193-0.794-0.193c-0.434,0-0.744,0.061-0.932,0.182c-0.125,0.086-0.188,0.197-0.188,0.334c0,0.117,0.055,0.217,0.164,0.299
		c0.148,0.109,0.661,0.264,1.538,0.463s1.489,0.443,1.837,0.732c0.344,0.293,0.516,0.701,0.516,1.225
		c0,0.57-0.238,1.061-0.715,1.471s-1.182,0.615-2.115,0.615c-0.848,0-1.519-0.172-2.013-0.516S68.639,7.551,68.486,6.961z"/>
</g>
</svg>
