<?xml version="1.0" encoding="utf-8"?>
<!-- Generator: Adobe Illustrator 22.0.1, SVG Export Plug-In . SVG Version: 6.00 Build 0)  -->
<svg version="1.1" id="Layer_1" xmlns="http://www.w3.org/2000/svg" xmlns:xlink="http://www.w3.org/1999/xlink" x="0px" y="0px"
	 viewBox="0 0 687.6558 121.4247" enable-background="new 0 0 687.6558 121.4247" xml:space="preserve">
<path d="M626.9102,0.2778L629.7979,0l3.0206,0.2778l4.6679,0.6847l2.7507,0.6847l2.4689,1.0995l1.9251,1.2364l1.5142,1.2364
	l2.4689,2.8876l1.9251,3.4315l1.5142,3.9832l0.9547,4.394V120.74h-33.9236V37.0851l-1.2404-2.8798l-2.4689-2.199l-2.7507-1.5103
	l-3.1537-0.4148l-2.7507,0.4148l-3.1577,1.9212l-1.7881,2.3359l-1.6434,3.1615v82.8253h-34.0684V3.1615h34.0684v11.3979
	l4.394-3.7054l2.7429-2.4729l1.9251-1.7881l2.4689-1.3734l2.8915-1.5064l3.4276-1.5142l3.9832-1.2364L626.9102,0.2778
	L626.9102,0.2778z M270.7395,3.1615v91.4803h24.3139v26.0981h-58.7932V3.1615H270.7395L270.7395,3.1615z M419.2209,3.1615
	l13.0529,74.9998l14.4185-74.9998h26.6498L450.9573,120.74h-50.9637L382.8205,3.1615H419.2209z M547.1095,3.1615v26.0981h-28.2971
	v21.4302h28.2971v22.5218h-28.2971v21.4302h28.2971v26.0981h-62.5024V3.1615H547.1095z M134.1998,50.9637v22.5257H94.2271V50.9637
	L134.1998,50.9637L134.1998,50.9637z M213.8714,3.1615v26.0981h-28.8488v21.4302h28.8488v22.5218h-28.8488v21.4302h28.8488v26.0981
	h-62.7763V3.1615H213.8714z M370.0493,3.1615v26.0981h-28.7118v21.4302h28.7118v22.5218h-28.7118v21.4302h28.7118v26.0981h-62.9093
	V3.1615H370.0493L370.0493,3.1615z M0,31.1808h40.1097l9.062-10.0245l4.9496-4.6718l6.1822-4.9457l5.3527-3.7093l6.7299-4.1162H0
	V31.1808z M87.908,2.6802C65.57,8.2637,43.7603,29.9052,37.1282,45.7832c-14.1329,32.1042-11.6913,75.2032-11.6913,75.2032
	s24.4313-0.1722,34.7257-0.1722c-0.3952-30.496-0.1761-49.3829,4.1866-64.2123C68.7081,41.7687,87.908,31.9986,87.908,31.9986
	V2.6802z M662.7745,107.7496c0-6.4561,4.8675-11.3314,11.1044-11.3314c6.1665,0,11.0418,4.8714,11.0418,11.3313
	c0,6.5656-4.8753,11.3979-11.0418,11.3979C667.642,119.1474,662.7745,114.3152,662.7745,107.7496L662.7745,107.7496z
	 M673.879,121.4247c7.4342,0,13.7768-5.7752,13.7768-13.6712c0-7.8294-6.3426-13.6007-13.7768-13.6007
	c-7.5047,0-13.8473,5.7713-13.8473,13.6007C660.0317,115.6494,666.3743,121.4247,673.879,121.4247z M670.9952,108.8334h2.735
	l4.1514,6.816h2.6686l-4.4724-6.9295c2.3085-0.2856,4.0732-1.5142,4.0732-4.3236c0-3.1028-1.835-4.4762-5.5483-4.4762h-5.9904
	v15.7293h2.3828V108.8334L670.9952,108.8334z M670.9952,106.8144v-4.8714h3.2398c1.659,0,3.4315,0.3639,3.4315,2.3085
	c0,2.4181-1.8038,2.5629-3.8228,2.5629L670.9952,106.8144L670.9952,106.8144z"/>
</svg>
