<?xml version="1.0" encoding="utf-8"?>
<!-- Generator: Adobe Illustrator 22.0.1, SVG Export Plug-In . SVG Version: 6.00 Build 0)  -->
<svg version="1.1" id="Layer_1" xmlns="http://www.w3.org/2000/svg" xmlns:xlink="http://www.w3.org/1999/xlink" x="0px" y="0px"
	 viewBox="0 0 74.7285 27.9687" enable-background="new 0 0 74.7285 27.9687" xml:space="preserve">
<path d="M11.415,0.839L2.371,23.846L0,23.856V0h23.246l-0.003,9.853c0,0-1.674,0.263-3.157,2.09
	c-1.483,1.83-1.942,4.974-1.942,4.974L11.415,0.839z"/>
<path d="M5.7454,23.7916h-1.769l6.633-17.103l0.958-2.552l1.063,2.552l6.615,17.103h-1.797l-2.044-5.362h-7.615L5.7454,23.7916z
	 M14.8164,16.8776l-3.244-8.581l-3.195,8.581H14.8164z"/>
<path d="M32.9443,17.8366h-11.655c0.1,1.415,0.607,2.56,1.521,3.433c0.912,0.872,2.052,1.309,3.419,1.309
	c0.967,0,1.837-0.255,2.609-0.762c0.773-0.506,1.371-1.211,1.792-2.118h1.891c-0.595,1.436-1.43,2.54-2.506,3.307
	c-1.075,0.769-2.321,1.154-3.736,1.154c-1.878,0-3.467-0.671-4.765-2.012c-1.298-1.342-1.946-2.9529-1.946-4.836
	c0-1.969,0.635-3.597,1.908-4.884c1.272-1.286,2.899-1.929,4.879-1.929c1.943,0,3.525,0.667,4.751,2.004
	c1.226,1.336,1.838,3.074,1.838,5.213V17.8366z M31.1093,16.3976c-0.313-1.441-0.888-2.5259-1.725-3.254
	c-0.838-0.729-1.928-1.093-3.273-1.093c-1.25,0-2.311,0.392-3.181,1.174c-0.868,0.783-1.401,1.84-1.594,3.173H31.1093z"/>
<path d="M36.5263,23.7911h-1.694v-12.926h1.574v1.492c0.405-0.575,0.847-0.997,1.324-1.264c0.479-0.2679,1.038-0.409,1.675-0.426
	l0.012,1.808c-1.036,0.094-1.776,0.405-2.222,0.934c-0.446,0.528-0.669,1.389-0.669,2.578V23.7911z"/>
<path d="M40.8229,10.8657h1.638v2.126c0.469-0.731,1.141-1.317,2.013-1.755c0.873-0.435,1.803-0.654,2.791-0.654
	c1.95,0,3.563,0.648,4.845,1.945c1.281,1.297,1.921,2.917,1.921,4.86c0,1.895-0.633,3.492-1.897,4.792
	c-1.266,1.301-2.845,1.951-4.741,1.951c-1.048,0-1.994-0.205-2.837-0.614c-0.842-0.41-1.541-1.0031-2.095-1.782v0.893v1.929v3.412
	h-1.638V10.8657z M42.4609,17.2457c0,1.4691,0.483,2.725,1.453,3.769c0.97,1.043,2.113,1.564,3.427,1.564
	c1.352,0,2.514-0.495,3.485-1.483c0.97-0.989,1.456-2.202,1.456-3.638c0-1.509-0.488-2.773-1.462-3.792
	c-0.973-1.02-2.154-1.53-3.539-1.53c-1.274,0-2.397,0.512-3.367,1.536S42.4609,15.8847,42.4609,17.2457"/>
<path d="M57.709,23.7911h-1.693v-12.926h1.575v1.492c0.402-0.575,0.845-0.997,1.322-1.264c0.479-0.2679,1.036-0.409,1.674-0.426
	l0.012,1.808c-1.035,0.094-1.774,0.405-2.221,0.934c-0.447,0.528-0.669,1.389-0.669,2.578V23.7911z"/>
<path d="M61.3574,17.337c0-1.899,0.649-3.522,1.952-4.871c1.301-1.35,2.841-2.024,4.62-2.024c1.875,0,3.473,0.662,4.793,1.989
	c1.322,1.325,1.983,2.904,1.983,4.742c0,1.928-0.648,3.575-1.94,4.939c-1.294,1.365-2.862,2.047-4.704,2.047
	c-1.875,0-3.461-0.67-4.759-2.006C62.0054,20.816,61.3574,19.2111,61.3574,17.337 M63.1064,17.32c0,1.4901,0.473,2.7401,1.42,3.747
	c0.947,1.007,2.124,1.511,3.535,1.511c1.384,0,2.546-0.504,3.485-1.511c0.939-1.007,1.409-2.264,1.409-3.77
	c0-1.529-0.475-2.784-1.426-3.769c-0.951-0.9839-2.157-1.477-3.622-1.477c-1.315,0-2.444,0.506-3.386,1.518
	C63.5794,14.58,63.1064,15.8311,63.1064,17.32"/>
<path d="M72.6895,9.1412c0,0.561,0.456,1.019,1.018,1.019c0.562,0,1.021-0.458,1.021-1.019c0-0.561-0.459-1.0179-1.021-1.0179
	C73.1455,8.1232,72.6895,8.5802,72.6895,9.1412 M72.8935,9.1412c0-0.45,0.365-0.817,0.814-0.817c0.454,0,0.818,0.367,0.818,0.817
	c0,0.451-0.364,0.817-0.818,0.817C73.2585,9.9582,72.8935,9.5922,72.8935,9.1412"/>
<path d="M73.2821,9.6851v-1.039h0.44c0.112,0,0.192,0.008,0.243,0.028c0.048,0.018,0.089,0.052,0.121,0.099
	c0.028,0.048,0.044,0.102,0.044,0.164c0,0.078-0.026,0.142-0.068,0.193c-0.047,0.05-0.114,0.083-0.204,0.096
	c0.046,0.026,0.08,0.056,0.111,0.087c0.029,0.031,0.067,0.088,0.119,0.169l0.125,0.203h-0.247l-0.153-0.228
	c-0.051-0.08-0.089-0.131-0.108-0.151c-0.02-0.022-0.041-0.0359-0.065-0.044c-0.02-0.008-0.056-0.011-0.104-0.011h-0.043v0.434
	H73.2821z M73.4931,9.0851h0.152c0.103,0,0.162-0.004,0.189-0.014c0.024-0.007,0.044-0.022,0.057-0.043
	c0.014-0.02,0.023-0.047,0.023-0.079c0-0.034-0.01-0.062-0.029-0.084c-0.018-0.022-0.044-0.036-0.078-0.041
	c-0.017-0.002-0.067-0.003-0.152-0.003h-0.162V9.0851z"/>
</svg>
