<?xml version="1.0" encoding="utf-8"?>
<!-- Generator: Adobe Illustrator 22.0.1, SVG Export Plug-In . SVG Version: 6.00 Build 0)  -->
<svg version="1.1" id="Layer_1" xmlns="http://www.w3.org/2000/svg" xmlns:xlink="http://www.w3.org/1999/xlink" x="0px" y="0px"
	 viewBox="0 0 95.59 8.895" enable-background="new 0 0 95.59 8.895" xml:space="preserve">
<g>
	<path d="M3.047,0.118H4.09h1.043L8.18,8.731H7.226H6.271L5.689,6.979H2.422L1.858,8.731H0.932H0L3.047,0.118z M2.922,5.497h2.286
		L4.064,2.034h0.002L2.922,5.497z"/>
	<path d="M9.252,0.118h0.838h0.844v8.613h-0.838H9.252V0.118z"/>
	<path d="M15.064,8.895c-0.969,0-1.716-0.299-2.241-0.896s-0.788-1.449-0.788-2.555c0-1.02,0.268-1.817,0.803-2.394
		s1.277-0.864,2.227-0.864c0.973,0,1.722,0.294,2.247,0.882S18.1,4.493,18.1,5.579c0.008,0.125-0.002,0.252-0.029,0.381h-4.342
		c0.039,0.504,0.15,0.881,0.334,1.131c0.234,0.313,0.625,0.469,1.172,0.469c0.254,0,0.489-0.072,0.706-0.217s0.347-0.318,0.39-0.521
		h1.711c-0.145,0.648-0.479,1.156-1.005,1.523C16.511,8.712,15.854,8.895,15.064,8.895z M16.348,4.887
		c-0.039-0.383-0.141-0.682-0.305-0.896c-0.215-0.285-0.549-0.428-1.002-0.428c-0.434,0-0.764,0.166-0.99,0.498
		c-0.141,0.211-0.242,0.486-0.305,0.826H16.348z"/>
	<path d="M20.783,5.473l-2.08-3.117h1.015h1.014l1.074,1.884l1.067-1.884h0.979h0.985l-2.074,3.146l2.162,3.229h-1.03h-1.036
		L21.75,6.78l-1.108,1.951h-1.013h-1.014L20.783,5.473z"/>
	<path d="M27.416,8.895c-0.59,0-1.064-0.169-1.424-0.507s-0.539-0.782-0.539-1.333c0-0.582,0.162-1.048,0.486-1.397
		s0.797-0.569,1.418-0.659l1.107-0.152c0.289-0.039,0.529-0.105,0.721-0.199c0.082-0.039,0.146-0.109,0.19-0.211
		s0.062-0.205,0.05-0.311c-0.023-0.18-0.115-0.32-0.275-0.422c-0.191-0.121-0.467-0.182-0.826-0.182c-0.32,0-0.57,0.078-0.75,0.234
		s-0.275,0.377-0.287,0.662h-1.611c0.035-0.746,0.289-1.305,0.762-1.676s1.166-0.557,2.08-0.557c0.793,0,1.419,0.167,1.878,0.501
		s0.688,0.791,0.688,1.37v3.565c0,0.286,0.023,0.486,0.07,0.601c0.047,0.116,0.141,0.207,0.281,0.273v0.006v0.229h-0.908h-0.908
		V8.725c-0.074-0.258-0.123-0.51-0.146-0.756l-0.006-0.012C28.939,8.583,28.256,8.895,27.416,8.895z M29.438,6.376V5.643
		c-0.195,0.109-0.453,0.197-0.773,0.264l-0.621,0.117c-0.293,0.055-0.516,0.155-0.668,0.302s-0.229,0.331-0.229,0.554
		c0,0.254,0.068,0.453,0.205,0.598s0.328,0.217,0.574,0.217c0.539,0,0.969-0.189,1.289-0.568c0.063-0.074,0.115-0.184,0.158-0.328
		S29.438,6.512,29.438,6.376z"/>
	<path d="M32.561,2.356h0.797h0.803v0.943c0.066-0.113,0.139-0.221,0.217-0.322c0.414-0.527,1.016-0.791,1.805-0.791
		c0.672,0,1.198,0.199,1.579,0.598s0.571,0.951,0.571,1.658v4.289h-0.838H36.65V4.747c0-0.395-0.085-0.687-0.255-0.876
		c-0.17-0.189-0.431-0.284-0.782-0.284c-0.441,0-0.78,0.133-1.017,0.398s-0.354,0.648-0.354,1.148v3.598h-0.838h-0.844V2.356z"/>
	<path d="M42.234,8.895c-0.813,0-1.468-0.316-1.966-0.949s-0.747-1.467-0.747-2.502c0-0.977,0.248-1.764,0.744-2.361
		s1.148-0.896,1.957-0.896c0.723,0,1.305,0.305,1.746,0.914l0.07,0.094V0.118h0.838h0.844v8.613h-0.814h-0.814V7.917l-0.029,0.041
		C43.598,8.583,42.988,8.895,42.234,8.895z M42.686,3.639c-0.449,0-0.801,0.173-1.055,0.519S41.25,4.983,41.25,5.596
		c0,0.602,0.126,1.071,0.378,1.409s0.603,0.507,1.052,0.507c0.453,0,0.807-0.178,1.061-0.533s0.381-0.85,0.381-1.482
		c0-0.582-0.127-1.037-0.381-1.365S43.135,3.639,42.686,3.639z"/>
	<path d="M49.746,8.895c-0.969,0-1.716-0.299-2.241-0.896s-0.788-1.449-0.788-2.555c0-1.02,0.268-1.817,0.803-2.394
		s1.277-0.864,2.227-0.864c0.973,0,1.722,0.294,2.247,0.882s0.788,1.425,0.788,2.511c0.008,0.125-0.002,0.252-0.029,0.381H48.41
		c0.039,0.504,0.15,0.881,0.334,1.131c0.234,0.313,0.625,0.469,1.172,0.469c0.254,0,0.489-0.072,0.706-0.217s0.347-0.318,0.39-0.521
		h1.711c-0.145,0.648-0.479,1.156-1.005,1.523C51.192,8.712,50.535,8.895,49.746,8.895z M51.029,4.887
		c-0.039-0.383-0.141-0.682-0.305-0.896c-0.215-0.285-0.549-0.428-1.002-0.428c-0.434,0-0.764,0.166-0.99,0.498
		c-0.141,0.211-0.242,0.486-0.305,0.826H51.029z"/>
	<path d="M53.883,2.356h0.797h0.803v1.143c0.059-0.125,0.125-0.246,0.199-0.363c0.395-0.633,0.904-0.949,1.529-0.949l0.381,0.006
		v1.717c-0.148-0.016-0.316-0.023-0.504-0.023c-0.512,0-0.894,0.127-1.146,0.381s-0.378,0.639-0.378,1.154v3.311h-0.838h-0.844
		V2.356z"/>
	<path d="M62.033,0.118h0.896h3.445c0.82,0,1.481,0.22,1.983,0.659s0.753,1.019,0.753,1.737c0,0.828-0.279,1.434-0.838,1.816
		c-0.148,0.102-0.316,0.188-0.504,0.258c0.105,0.043,0.201,0.09,0.287,0.141c0.492,0.293,0.748,0.785,0.768,1.477l0.041,1.412
		c0.008,0.281,0.037,0.48,0.088,0.598s0.148,0.211,0.293,0.281v0.229h-1.987c-0.047-0.09-0.088-0.282-0.124-0.577
		c-0.035-0.295-0.055-0.612-0.059-0.952l-0.011-0.797c-0.008-0.387-0.122-0.662-0.343-0.826c-0.22-0.164-0.586-0.246-1.098-0.246
		h-1.793v3.404h-0.896h-0.902V0.118z M63.832,3.88h2.086c0.465,0,0.813-0.095,1.046-0.284s0.349-0.476,0.349-0.858
		c0-0.379-0.11-0.663-0.331-0.853S66.43,1.6,65.988,1.6h-2.156V3.88z"/>
	<path d="M71.077,7.999c-0.588-0.598-0.882-1.404-0.882-2.42c0-1.039,0.294-1.864,0.882-2.476s1.38-0.917,2.376-0.917
		c1.004,0,1.799,0.306,2.385,0.917s0.879,1.437,0.879,2.476c0,1.016-0.293,1.822-0.879,2.42s-1.381,0.896-2.385,0.896
		C72.457,8.895,71.665,8.596,71.077,7.999z M74.596,6.997c0.262-0.328,0.393-0.807,0.393-1.436c0-0.645-0.131-1.134-0.393-1.468
		s-0.643-0.501-1.143-0.501s-0.88,0.167-1.14,0.501s-0.39,0.823-0.39,1.468c0,0.629,0.13,1.107,0.39,1.436s0.64,0.492,1.14,0.492
		S74.334,7.325,74.596,6.997z"/>
	<path d="M77.941,0.118h0.838h0.844v8.613h-0.838h-0.844V0.118z"/>
	<path d="M81.741,7.999c-0.588-0.598-0.882-1.404-0.882-2.42c0-1.039,0.294-1.864,0.882-2.476s1.38-0.917,2.376-0.917
		c1.004,0,1.799,0.306,2.385,0.917s0.879,1.437,0.879,2.476c0,1.016-0.293,1.822-0.879,2.42s-1.381,0.896-2.385,0.896
		C83.121,8.895,82.329,8.596,81.741,7.999z M85.26,6.997c0.262-0.328,0.393-0.807,0.393-1.436c0-0.645-0.131-1.134-0.393-1.468
		s-0.643-0.501-1.143-0.501s-0.88,0.167-1.14,0.501s-0.39,0.823-0.39,1.468c0,0.629,0.13,1.107,0.39,1.436s0.64,0.492,1.14,0.492
		S84.998,7.325,85.26,6.997z"/>
	<path d="M90.51,3.534v5.197h-0.838h-0.844V3.534h-0.932V2.356h0.932V1.823c0-0.613,0.163-1.07,0.489-1.371s0.821-0.451,1.485-0.451
		c0.297-0.004,0.561,0.01,0.791,0.041v1.342h-0.533c-0.223,0-0.37,0.045-0.442,0.135S90.51,1.792,90.51,2.069v0.287h1.084v1.178
		H90.51z"/>
	<path d="M94.506,3.534v5.197h-0.838h-0.844V3.534h-0.932V2.356h0.932V1.823c0-0.613,0.163-1.07,0.489-1.371
		s0.821-0.451,1.485-0.451c0.297-0.004,0.561,0.01,0.791,0.041v1.342h-0.533c-0.223,0-0.37,0.045-0.442,0.135
		s-0.108,0.273-0.108,0.551v0.287h1.084v1.178H94.506z"/>
</g>
</svg>
