<svg xmlns="http://www.w3.org/2000/svg" viewBox="0 0 242.8568 75.793"><path fill="#EE2E2F" d="M107.3468 44.8384l33.0448-33.0751L128.6265 0 95.6234 33.117l11.7234 11.7214"/><path fill="#3954A5" d="M128.6435 66.1074l33.2238-32.8703-11.8008-11.7994-33.0007 33.1187 11.5777 11.551"/><path fill="#FFF" d="M128.7404 13.5229l19.6256 19.6248-19.6264 19.6251-19.6264-19.6251 19.6272-19.6248"/><path fill="#CB992C" d="M140.4071 11.782l9.7245 9.7242-6.6922 6.7193-9.8043-9.6722 6.772-6.7713M114.1179 38.0689l9.7253 9.7238-6.7727 6.7713-9.7245-9.7237 6.7719-6.7714"/><path fill="#0F090A" d="M140.3823 11.7563l-33.0611 33.0592.8809.8802 33.0619-33.0586-.8817-.8808M142.5795 13.9483l-33.0604 33.0582.8809.8804 33.0604-33.0578-.8809-.8808M144.8076 16.1772l-33.058 33.0555.8809.8806 33.058-33.0554-.8809-.8807M147.052 18.4386l-33.0495 33.0466.8809.8807 33.0495-33.0465-.8809-.8808M149.267 20.6353l-33.0627 33.0601.8809.8807 33.0627-33.0601-.8809-.8807M13.6017 58.5789h-7.631l-1.3371 3.1443c-.3296.7737-.4942 1.3516-.4942 1.7336 0 .3037.1428.5707.4287.8009.2858.2301.9036.3795 1.8533.448v.5436H.2149v-.5436c.8234-.147 1.3565-.3381 1.5989-.5729.4941-.4702 1.0414-1.4252 1.6425-2.8651l6.9332-16.3965h.5087l6.8606 16.5729c.5524 1.332 1.0539 2.1964 1.5045 2.5931.4505.3966 1.0778.6196 1.8822.6685v.5436h-7.7763v-.5436c.7849-.0391 1.3155-.1712 1.5916-.3967.2763-.2251.4143-.4996.4143-.8228 0-.4308-.1939-1.1116-.5813-2.0421l-1.1921-2.8652m-.4069-1.0872l-3.3431-8.0512-3.4303 8.0512h6.7734zm26.2425 2.2481c-.5038 1.2341-1.008 2.1376-1.5117 2.7106-.5039.5731-1.0611.9723-1.6715 1.1975-.6105.2253-1.6716.3379-3.1832.3379h-1.439c-1.2696 0-2.0253-.049-2.2675-.147-.2423-.0977-.4215-.2499-.5378-.4552-.1551-.3037-.2325-.8619-.2325-1.6751V49.1907c0-1.185.0774-1.9343.2325-2.248.1549-.3134.4434-.5729.8649-.7786.4215-.2058 1.1555-.3036 2.2021-.2938v-.5436h-8.9247v.5436h.7413c.746 0 1.3082.2155 1.6861.6463.2711.3136.407 1.0923.407 2.3362v12.8557c0 1.1364-.1016 1.8612-.3052 2.1746-.3587.5484-.9546.8226-1.7879.8226h-.7413v.5436h15.262l1.686-5.4068-.4796-.1027m19.0765 0c-.5039 1.2341-1.0079 2.1376-1.5117 2.7106-.5039.5731-1.061.9723-1.6715 1.1975-.6105.2253-1.6715.3379-3.1831.3379h-1.439c-1.2697 0-2.0255-.049-2.2675-.147-.2424-.0977-.4216-.2499-.5379-.4552-.1552-.3037-.2325-.8619-.2325-1.6751V49.1907c0-1.185.0773-1.9343.2325-2.248.1549-.3134.4433-.5729.8649-.7786.4215-.2058 1.1556-.3036 2.2021-.2938v-.5436h-8.9247v.5436h.7414c.746 0 1.3081.2155 1.686.6463.2712.3136.407 1.0923.407 2.3362v12.8557c0 1.1364-.1017 1.8612-.3053 2.1746-.3586.5484-.9544.8226-1.7877.8226h-.7414v.5436h15.262l1.686-5.4068-.4796-.1027M71.413 44.8712c2.5582 0 4.7748.9822 6.6495 2.9457 1.8756 1.9639 2.813 4.4151 2.813 7.3535 0 3.0266-.9451 5.5391-2.8347 7.5372-1.8893 1.9981-4.1764 2.9972-6.8604 2.9972-2.7133 0-4.9928-.9746-6.8388-2.9239-1.8459-1.949-2.7689-4.471-2.7689-7.5664 0-3.1636 1.0658-5.7447 3.1977-7.7429 1.8507-1.7337 4.065-2.6004 6.6426-2.6004m-.2761 1.0726c-1.7639 0-3.1785.6611-4.2444 1.9833-1.3276 1.6458-1.9913 4.0551-1.9913 7.2287 0 3.2519.6879 5.7545 2.064 7.5078 1.0561 1.3319 2.4514 1.9982 4.1862 1.9982 1.8507 0 3.3794-.7298 4.5859-2.1893 1.2062-1.4595 1.8092-3.7613 1.8092-6.9055 0-3.4084-.6635-5.9502-1.991-7.6251-1.066-1.3321-2.5389-1.9981-4.4186-1.9981zm25.9663-.6171v.5436c.5229 0 .9157.0612 1.1768.1836.2619.1227.4633.2914.6035.507.1403.2156.2108.4604.2108.7344 0 .4508-.2906 1.1365-.8724 2.0572l-3.8659 6.1411-4.1139-6.4203c-.5911-.9206-.8863-1.5576-.8863-1.9101 0-.4308.1914-.7542.5741-.9697.3827-.2153.8018-.3232 1.2574-.3232h.4362v-.5436h-8.4307v.5436c.368 0 .6492.0491.8429.1468.7174.343 1.1892.637 1.417.8817.2278.2448.6616.8571 1.3015 1.8364l5.4069 8.3451v4.7163c0 1.1166-.1069 1.8317-.3199 2.1452-.3487.5092-.9398.7639-1.7734.7639h-.6973v.5436h8.3718v-.5436h-.6391c-.7949 0-1.3759-.2057-1.7447-.6172-.2712-.3034-.4068-1.0673-.4068-2.2919v-4.9954l4.753-7.5664c.5819-.95 1.0707-1.6357 1.4682-2.0569.3974-.421.8382-.7442 1.3225-.9697.4849-.2252.853-.3379 1.1047-.3379h.3781v-.5436h-6.875m66.9628-.2959h-.5384c-.0969.4582-.2247.7624-.3851.9134-.1596.1512-.3657.2264-.6174.2264-.2232 0-.6059-.1216-1.1482-.3653-1.173-.5161-2.2824-.7745-3.3291-.7745-1.6765 0-3.0571.5139-4.1425 1.5418s-1.6277 2.253-1.6277 3.6751c0 .8184.1844 1.5686.5524 2.2506.368.6819.9088 1.3055 1.6208 1.8702.7119.5652 1.9112 1.3228 3.597 2.2724 1.6867.9498 2.7186 1.5708 3.0967 1.8633.5617.4287.9761.8914 1.2427 1.3881.2657.4969.3997.9888.3997 1.476 0 .8767-.3517 1.6365-1.0544 2.2796-.7019.6429-1.6595.9644-2.8704.9644-1.0467 0-2.0081-.2338-2.8851-.7014-.877-.4676-1.5286-1.0544-1.9547-1.7609-.4268-.7062-.7662-1.7705-1.018-3.193h-.5376v6.7951h.5376c.0682-.4578.172-.7598.313-.9059.1402-.1461.3316-.2192.5741-.2192.2518 0 .8499.1533 1.7951.4604.9444.3069 1.5672.4844 1.8671.5333.5043.0876 1.042.1314 1.6138.1314 1.8214 0 3.312-.5429 4.4694-1.6293 1.1582-1.0863 1.737-2.3793 1.737-3.8798 0-.789-.1813-1.5439-.5447-2.2649-.3641-.7209-.8824-1.3467-1.5556-1.8778-.6733-.5309-1.9307-1.2933-3.7715-2.287-2.2583-1.2176-3.6877-2.192-4.2881-2.9227-.4168-.4967-.6253-1.0471-.6253-1.6512 0-.7892.3293-1.4927.9886-2.1116.6585-.6185 1.4922-.9279 2.5001-.9279.891 0 1.754.2291 2.5868.6869.8337.4579 1.4759 1.0765 1.926 1.8558.4509.7794.7632 1.8268.9375 3.1417h.5384v-6.8535m21.0241.4533h-16.0906l-.2324 4.6467h.5524c.0674-.896.2812-1.6074.6392-2.1336.3586-.5261.7902-.8815 1.2938-1.0665.3874-.1364 1.0412-.2046 1.9624-.2046h2.3691V61.865c0 1.1108-.1069 1.8218-.3199 2.1336-.3487.5067-.9398.7598-1.7734.7598h-.6973v.5407h8.3579v-.5407h-.6833c-.7655 0-1.3326-.2046-1.7006-.6137-.2619-.3018-.3928-1.0618-.3928-2.2797V46.7261h2.7767c.8134 0 1.4704.134 1.9694.4017.4989.2682.8987.6845 1.1992 1.2495.1837.3506.3285.9353.4362 1.7535h.5516l-.2176-4.6467m8.0735 1.0812h5.4069c.9785 0 1.6618.073 2.0499.2192.4842.2047.8499.5019 1.0971.8913.2471.3898.4726 1.1057.6755 2.1482h.5671l-.2177-4.3399h-15.1895v.5405h.6973c.8142 0 1.3961.195 1.7447.5845.2518.2922.3781 1.0667.3781 2.3235v12.874c0 .9645-.0558 1.6028-.1673 1.9142-.1116.312-.3223.5459-.6323.7017-.4168.224-.8576.3359-1.3232.3359h-.6973v.5407h15.1895l1.7006-4.9684h-.5819c-.6298 1.218-1.245 2.1287-1.8462 2.7327-.4648.458-.949.7649-1.4534.9205-.5035.156-1.3132.2339-2.4272.2339h-3.343c-.5431 0-.9111-.0559-1.1048-.168-.1936-.112-.3292-.263-.4067-.4531-.0775-.19-.1162-.7233-.1162-1.6v-6.5322h4.3315c.8228 0 1.4341.0977 1.8315.2924.3975.195.6833.4627.8577.8035.1355.273.2711.8915.4067 1.8561h.5377v-6.8976h-.5377c-.0581 1.1303-.3394 1.9195-.8429 2.3675-.3781.3411-1.1288.5114-2.253.5114h-4.3315v-7.8325m19.0763 0h5.4069c.9793 0 1.6618.073 2.05.2192.4842.2047.8499.5019 1.097.8913.2471.3898.4726 1.1057.6763 2.1482h.5672l-.2185-4.3399h-15.1895v.5405h.698c.8135 0 1.3953.195 1.744.5845.2517.2922.378 1.0667.378 2.3235v12.874c0 .9645-.0558 1.6028-.1673 1.9142-.1116.312-.3223.5459-.6322.7017-.4168.224-.8576.3359-1.3225.3359h-.698v.5407h15.1895l1.7005-4.9684h-.581c-.6299 1.218-1.2458 2.1287-1.8462 2.7327-.4649.458-.9499.7649-1.4534.9205-.5044.156-1.3132.2339-2.4273.2339h-3.343c-.5431 0-.9111-.0559-1.1047-.168-.1945-.112-.3301-.263-.4076-.4531-.0774-.19-.1162-.7233-.1162-1.6v-6.5322h4.3316c.8235 0 1.434.0977 1.8315.2924.3974.195.6833.4627.8576.8035.1356.273.2711.8915.4067 1.8561h.5377v-6.8976h-.5377c-.0581 1.1303-.3393 1.9195-.8429 2.3675-.3781.3411-1.1288.5114-2.2529.5114h-4.3316v-7.8325m29.9203 13.2541c-.5043 1.2274-1.0086 2.1261-1.5114 2.696-.5045.5698-1.0614.9668-1.6719 1.191-.6105.2241-1.6719.336-3.1834.336h-1.4387c-1.2698 0-2.026-.0487-2.2677-.1461-.2425-.0971-.4214-.2484-.5376-.453-.155-.3018-.2333-.8571-.2333-1.6659V49.3272c0-1.1786.0783-1.924.2333-2.2358.1548-.3117.4431-.5698.8646-.7744.4214-.2049 1.1559-.302 2.2018-.2924v-.5405h-8.9243v.5405h.7415c.7461 0 1.3078.2142 1.6858.643.2712.3118.4068 1.0865.4068 2.3234v12.7864c0 1.1303-.1015 1.8509-.3053 2.1627-.3579.5457-.9544.8183-1.7873.8183h-.7415v.5407h15.2623l1.6859-5.3775-.4796-.1022M2.9305 75.4499h-.2471c-.1613 0-.3144-.0402-.4591-.1209-.1076-.0605-.1782-.1328-.2118-.2169-.0436-.1109-.0655-.3397-.0655-.6859v-4.4183c0-.41.0421-.6689.126-.7765.1278-.1647.3312-.2472.6104-.2472h.2471v-.1866H0v.1866h.2421c.1614 0 .3162.0403.4641.1212.1041.0602.1731.1328.2068.2167.0436.111.0655.3397.0655.6858v4.4183c0 .4103-.0404.6691-.121.7766-.1278.1649-.333.2471-.6154.2471H0v.1867h2.9305v-.1867m15.6112-6.6523v.1866c.1983 0 .3461.0152.4438.0454.1985.0639.3488.1328.4515.2066.1025.0741.2529.2273.4513.4591v4.7561c0 .3832-.037.6288-.1109.7362-.121.175-.3279.2623-.6204.2623h-.2371v.1867h2.3808v-.1867h-.2422c-.2656 0-.4623-.0705-.59-.2117-.0908-.1042-.1363-.3665-.1363-.7868V70.24l4.5093 5.5075h.1817v-5.7647c0-.3832.0368-.6287.1108-.7363.1212-.1747.3262-.2623.6154-.2623h.2422v-.1866h-2.3807v.1866h.2371c.2688 0 .4657.0706.5901.2118.0941.1044.1411.3665.1411.7868v3.9441l-4.1813-5.1293h-1.8562m27.3127 0h-5.5836l-.0807 1.6038h.1916c.0235-.3094.0975-.5547.2219-.7364.1245-.1815.2741-.304.4489-.3681.1344-.0472.3616-.0707.681-.0707h.8222v5.2252c0 .3832-.0371.6288-.1111.7362-.121.175-.3261.2623-.6152.2623h-.2422v.1867h2.9003v-.1867h-.2371c-.2656 0-.4624-.0705-.5901-.2117-.0907-.1042-.1362-.3665-.1362-.7868v-5.2252h.9634c.2825 0 .5102.0464.6835.1387.1731.0927.3118.2362.4161.4313.0639.1211.1143.3229.1514.6052h.1916l-.0757-1.6038m16.0143.3732h1.8764c.3395 0 .5766.0252.7111.0757.1682.0705.2951.1731.3809.3075.0858.1347.1639.3817.2345.7414h.1967l-.0756-1.4978h-5.271v.1866h.242c.2826 0 .4844.0674.6054.2018.0874.1008.1311.368.1311.802v4.4431c0 .3329-.0193.5532-.058.6607-.0387.1077-.1119.1886-.2194.2421-.1446.0774-.2975.116-.4591.116h-.242v.1867h5.271l.59-1.7148h-.2017c-.2186.4204-.4321.7346-.6406.9432-.1613.1582-.3296.2639-.5044.3177s-.4557.0806-.8423.0806h-1.1601c-.1884 0-.3161-.0193-.3834-.0579-.0673-.0388-.1142-.0907-.1412-.1564-.027-.0655-.0403-.2495-.0403-.5521v-2.2546h1.5032c.2857 0 .4976.0336.6354.101.1378.0672.2371.1595.2976.2772.0471.0944.0941.3078.1412.6405h.1866v-2.3805h-.1866c-.0201.39-.1176.6624-.2925.8171-.1311.1176-.3918.1766-.7817.1766h-1.5032v-2.7034m23.9396 6.4658h-1.8261l-2.3149-3.1976c-.1719.0068-.3114.01-.4191.01-.0434 0-.0906-.0008-.141-.0023-.0504-.0019-.1023-.0042-.1565-.0077v1.9872c0 .4303.0472.6975.141.802.1278.1479.32.2217.5756.2217h.2673v.1867h-2.9308v-.1867h.2572c.289 0 .4958-.0941.6206-.2822.0705-.1042.1053-.3514.1053-.7415v-4.4183c0-.4303-.0465-.6976-.141-.8016-.1309-.148-.3261-.2221-.5849-.2221h-.2572v-.1866h2.4916c.7266 0 1.262.0529 1.6067.1588.3448.1061.6369.3011.8778.5851.2402.2843.3603.6228.3603 1.0163 0 .4203-.1372.7852-.4106 1.0944-.2743.3094-.6989.5279-1.2737.6557l1.4123 1.962c.3223.4505.5997.7498.8321.8978.2317.1478.5346.242.908.2822v.1867m-4.8576-3.5154c.0635 0 .1193.0009.1666.0025.0472.0019.086.0026.1162.0026.6523 0 1.1435-.1411 1.4751-.4236.3316-.2826.4966-.6423.4966-1.0793 0-.427-.1333-.7742-.4005-1.0416-.2674-.2672-.6214-.4009-1.0622-.4009-.1953 0-.4587.0321-.7918.0959v2.8444zm18.651-3.3236v.1866c.1991 0 .3463.0152.4439.0454.1991.0639.3494.1328.4517.2066.1023.0741.2533.2273.4517.4591v4.7561c0 .3832-.0372.6288-.1108.7362-.1217.175-.3285.2623-.6206.2623h-.237v.1867h2.3807v-.1867h-.2425c-.2657 0-.4617-.0705-.5903-.2117-.0907-.1042-.1356-.3665-.1356-.7868V70.24l4.509 5.5075h.182v-5.7647c0-.3832.0365-.6287.1108-.7363.1209-.1747.3262-.2623.6152-.2623h.2425v-.1866h-2.3808v.1866h.2371c.2688 0 .4656.0706.5895.2118.0945.1044.1418.3665.1418.7868v3.9441l-4.182-5.1293h-1.8563m25.0442 4.5492h-2.6489l-.4633 1.0794c-.1146.2656-.172.4639-.172.595 0 .1045.0496.196.1488.275.0991.079.3138.1303.643.1537v.1867h-2.1538v-.1867c.2859-.0503.4711-.116.5548-.1966.172-.1615.3618-.4893.5702-.9834l2.4063-5.6287h.1767l2.3807 5.6892c.1914.4572.3657.754.5214.89.1565.1363.3742.2129.6531.2295v.1867h-2.6976v-.1867c.2719-.0133.4563-.0586.5524-.1361.0953-.0773.1433-.1713.1433-.2825 0-.1477-.0674-.3814-.2014-.7009l-.4137-.9836m-.1418-.3731l-1.1598-2.7639-1.1908 2.7639h2.3506zm21.3811-4.1761h-5.5835l-.0805 1.6038h.1921c.0232-.3094.0968-.5547.2216-.7364.1239-.1815.2742-.304.4493-.3681.1341-.0472.361-.0707.6802-.0707h.822v5.2252c0 .3832-.0364.6288-.1108.7362-.1208.175-.3261.2623-.6151.2623h-.2425v.1867h2.9006v-.1867h-.2371c-.2657 0-.4624-.0705-.5903-.2117-.0907-.1042-.1363-.3665-.1363-.7868v-5.2252h.9637c.2828 0 .5106.0464.6834.1387.1735.0927.3122.2362.416.4313.0643.1211.1146.3229.1518.6052h.1914l-.076-1.6038m17.2821 6.6523h-.2471c-.1612 0-.3146-.0402-.4587-.1209-.1077-.0605-.1782-.1328-.2122-.2169-.0434-.1109-.0651-.3397-.0651-.6859v-4.4183c0-.41.0418-.6689.1255-.7765.1278-.1647.3316-.2472.6105-.2472h.2471v-.1866h-2.93v.1866h.2417c.1611 0 .3161.0403.464.1212.1046.0602.1736.1328.2069.2167.0434.111.0651.3397.0651.6858v4.4183c0 .4103-.0403.6691-.1209.7766-.1278.1649-.3323.2471-.6151.2471h-.2417v.1867h2.93v-.1867m16.3175-6.8087c.8879 0 1.6564.3372 2.3072 1.0112.6508.6743.9762 1.5156.9762 2.5243 0 1.0391-.3277 1.9014-.9839 2.5873-.6555.6859-1.4488 1.029-2.38 1.029-.9421 0-1.7331-.3346-2.3738-1.0039-.6407-.6689-.9607-1.5347-.9607-2.5973 0-1.086.3703-1.9718 1.1102-2.6578.6415-.5952 1.41-.8928 2.3048-.8928m-.096.3681c-.6121 0-1.1033.2269-1.4728.6811-.461.5648-.6911 1.3919-.6911 2.4814 0 1.1162.2386 1.9752.7159 2.5771.3664.4574.8506.6859 1.4534.6859.6422 0 1.1722-.2503 1.5905-.7514.4192-.5009.6283-1.2912.6283-2.3704 0-1.1701-.2301-2.0427-.691-2.6177-.3696-.4571-.8809-.686-1.5332-.686zm16.2757-.2117v.1866c.1983 0 .3462.0152.4439.0454.1983.0639.3486.1328.4516.2066.1023.0741.2526.2273.4509.4591v4.7561c0 .3832-.0364.6288-.1108.7362-.1208.175-.3277.2623-.6205.2623h-.2371v.1867h2.3808v-.1867h-.2418c-.2657 0-.4625-.0705-.5903-.2117-.0906-.1042-.1363-.3665-.1363-.7868V70.24l4.5097 5.5075h.1813v-5.7647c0-.3832.0372-.6287.1108-.7363.1216-.1747.3261-.2623.6159-.2623h.2417v-.1866h-2.3808v.1866h.2371c.2688 0 .4656.0706.5903.2118.0938.1044.1411.3665.1411.7868v3.9441l-4.1813-5.1293h-1.8562m24.8697 4.5492h-2.648l-.4641 1.0794c-.1146.2656-.1712.4639-.1712.595 0 .1045.0496.196.1488.275.0991.079.313.1303.643.1537v.1867h-2.1538v-.1867c.2859-.0503.4711-.116.5548-.1966.1712-.1615.3617-.4893.5701-.9834l2.4056-5.6287h.1767l2.3807 5.6892c.1914.4572.3657.754.5222.89.1565.1363.3742.2129.6531.2295v.1867h-2.6984v-.1867c.2719-.0133.4563-.0586.5524-.1361.0961-.0773.1441-.1713.1441-.2825 0-.1477-.0674-.3814-.2022-.7009l-.4138-.9836m-.1409-.3731l-1.1606-2.7639-1.19 2.7639h2.3506zm22.2969.7717c-.1743.4236-.3494.7336-.5245.9303-.1743.197-.368.3339-.5795.4113-.2123.0773-.5803.1158-1.1048.1158h-.4997c-.44 0-.7027-.0168-.7864-.0503-.0844-.0336-.1464-.0858-.1866-.1564-.0543-.1042-.0805-.2959-.0805-.575v-4.2972c0-.4067.0262-.6639.0805-.7716.0535-.1074.1534-.1967.2999-.2673.1464-.0705.4012-.1041.7646-.1008v-.1866h-3.0974v.1866h.2572c.2589 0 .454.0741.5849.2221.0946.1076.1418.3748.1418.8016v4.4132c0 .39-.0356.6388-.1061.7466-.1247.1881-.3316.2822-.6206.2822h-.2572v.1867h5.2961l.585-1.856-.1667-.0352"/></svg>