<?xml version="1.0" encoding="utf-8"?>
<!-- Generator: Adobe Illustrator 22.0.1, SVG Export Plug-In . SVG Version: 6.00 Build 0)  -->
<svg version="1.1" id="Layer_1" xmlns="http://www.w3.org/2000/svg" xmlns:xlink="http://www.w3.org/1999/xlink" x="0px" y="0px"
	 viewBox="0 0 581.32 95.02" enable-background="new 0 0 581.32 95.02" xml:space="preserve">
<path fill="#3C4981" d="M47.21,0C30.84,0,18,22.67,9.38,44.83c-9.37,24.09-13.46,47.83-4,47.83c10.67,0,14.1-22.44,21.67-36.17
	c4.83-8.76,13.33-20.08,24.58-20.08c18.92,0,37.42,40.42,39.75,56.25C93.88,70.33,76.21,0,47.21,0L47.21,0z"/>
<radialGradient id="SVGID_1_" cx="53.2719" cy="38.3333" r="33.2737" gradientUnits="userSpaceOnUse">
	<stop  offset="0.2887" style="stop-color:#FFFFFF"/>
	<stop  offset="0.393" style="stop-color:#F1F2F6"/>
	<stop  offset="0.592" style="stop-color:#CACEDD"/>
	<stop  offset="0.8627" style="stop-color:#8E95B6"/>
	<stop  offset="1" style="stop-color:#6C76A0"/>
</radialGradient>
<path fill="url(#SVGID_1_)" d="M47.21,1.5c5.8,0,11.51,3.1,16.98,9.21C78.73,26.97,87.8,60.16,89.72,80.69
	c-2.45-7.02-6.13-15.25-10.71-22.86c-6.3-10.45-16.16-22.91-27.38-22.91c-11.9,0-20.65,11.34-25.9,20.86
	c-2.48,4.5-4.51,9.88-6.48,15.08C15.31,81.3,11.58,91.17,5.38,91.17c-1.07,0-1.85-0.41-2.46-1.3c-3.54-5.18-0.31-23.47,7.86-44.49
	C18.56,25.36,31.2,1.5,47.21,1.5"/>
<path fill="#3C4981" d="M80.71,28.5c27.67,10.67,14.33,41.73-60.33,55.33c2.86,0.12,5.67,0.18,8.43,0.18
	C105.25,84.01,141.19,38.63,80.71,28.5L80.71,28.5z"/>
<radialGradient id="SVGID_2_" cx="107.7542" cy="57.233" r="31.1261" gradientUnits="userSpaceOnUse">
	<stop  offset="0.2218" style="stop-color:#FFFFFF"/>
	<stop  offset="0.3444" style="stop-color:#EEEFF4"/>
	<stop  offset="0.5863" style="stop-color:#C3C7D8"/>
	<stop  offset="0.9215" style="stop-color:#7D86AB"/>
	<stop  offset="1" style="stop-color:#6C76A0"/>
</radialGradient>
<path fill="url(#SVGID_2_)" d="M89.84,32.04c13.32,3.74,20.42,9.88,19.8,17.42c-0.63,7.54-9.05,15.76-22.52,21.98
	c-14.15,6.53-32.66,10.38-52.62,10.99c16.96-4,31.18-9.22,41.64-15.33c11.75-6.86,18.61-14.82,19.32-22.41
	C95.9,39.9,93.92,35.54,89.84,32.04"/>
<g>
	<path fill="#8088AD" d="M141.82,45.62l-0.4-5.5h-12.7l-2.7,5.5h-7.6l18.3-35.2h10.3l2.7,35.2h-8H141.82z M140.02,17.42l-8.6,16.9
		h9.7L140.02,17.42z M177.02,45.62h-23.7l7.5-35.2h7.9l-6,28h15.7l-1.5,7.2H177.02z M205.02,45.62h-23.6l7.4-35.2h7.9l-6,28h15.8
		L205.02,45.62L205.02,45.62z M234.12,34.22l-2.4,11.4h-7.7l5.5-25.8h7.9l-1.7,8l12.2-0.4l0.9-10.2h-18.8l1.5-6.8h22
		c1.8,0,3,0.3,3.8,1c0.8,0.5,1.2,1.5,1.2,2.8l-0.1,1l-0.2,1.3l-2.4,11.6c-0.5,2-1.2,3.6-2.3,4.6s-2.8,1.5-5,1.5h-14.2L234.12,34.22z
		 M262.62,45.62c-1.8,0-3-0.3-3.8-1c-0.8-0.6-1.2-1.5-1.2-2.8c0-0.7,12.4-31.4,12.4-31.4h17.5c1.8,0,3,0.3,3.8,0.9
		c0.8,0.6,1.2,1.6,1.2,3l-0.1,1l-0.2,1.2l-4.8,23c-0.5,2-1.2,3.6-2.3,4.6c-1.1,1-2.8,1.5-5,1.5H262.62z M282.02,17.22h-9.8
		c-0.7,0-1.2,0.2-1.5,0.5c-0.3,0.2-0.5,0.8-0.7,1.6l-3.7,17.5l13,1.3C279.32,38.12,282.02,17.22,282.02,17.22z M291.72,45.62
		l7.4-35.2h8l-7.5,35.2h-8H291.72z M331.12,45.62l-13.3-23.1l-5,23h-7.3l7.5-35.1h7.4l11.6,21l4.4-21h7.4l-7.5,35.2
		C336.32,45.62,331.12,45.62,331.12,45.62z M357.02,45.62h-7.9l6-28.3h-8.5l1.4-7h25l-1.4,7h-8.6L357.02,45.62z M369.72,45.62
		l1.5-6.9l20.8-1.7l-0.2-6.4h-13.9c-1.4,0-2.5-0.3-3-1s-1-1.4-1-2.5c0-0.4,9.4-16.7,9.4-16.7h21.9l-1.4,6.7h-18.8
		c-0.6,0-1,0.1-1.2,0.3c-0.3,0.3-0.4,0.7-0.6,1.3l-1,4.7c0,0,17.7,1.7,18.3,2.4c0.6,0.6,1,1.5,1,2.6c0,0.4,0,0.9-0.2,1.4l-2,9.6
		c-0.5,2.1-1.2,3.7-2.3,4.7c-1.1,1-2.8,1.5-5,1.5H369.72L369.72,45.62z M423.62,45.62c-1.8,0-3-0.3-3.9-1c-0.7-0.6-1.1-1.5-1.1-2.8
		c0-0.7,12.4-31.4,12.4-31.4h21.7l-1.4,7h-18.3c-0.7,0-1.2,0.1-1.4,0.3c-0.3,0.3-0.5,0.8-0.7,1.6l-3.8,18l12.6,1.5l1.7-8h-7l1.2-5.7
		h14.4l-4.3,20.5H423.62L423.62,45.62z M474.92,45.62h-23.6l7.4-35.2h8l-6,28h15.7L474.92,45.62z M500.72,45.62l-0.3-5.5h-12.7
		l-2.7,5.5h-7.7l18.3-35.2h10.4l2.7,35.2H500.72L500.72,45.62z M499.02,17.42l-8.5,16.9h9.6l-1-16.9L499.02,17.42z M512.32,45.62
		l1.4-6.9l20.8-1.7l-0.2-6.4h-14c-1.3,0-2.4-0.3-3-1s-1-1.4-1-2.5c0-0.4,9.4-16.7,9.4-16.7h22l-1.5,6.7h-18.6c-0.6,0-1,0.1-1.2,0.3
		c-0.3,0.3-0.5,0.7-0.6,1.3l-1,4.7c0,0,17.6,1.7,18.3,2.4c0.6,0.6,1,1.5,1,2.6l-0.2,1.4l-2,9.6c-0.5,2.1-1.3,3.7-2.3,4.7
		c-1.1,1-2.8,1.5-5,1.5L512.32,45.62L512.32,45.62z M545.92,45.62l1.4-6.9l20.8-1.7l-0.2-6.4h-14c-1.3,0-2.4-0.3-3-1s-1-1.4-1-2.5
		c0-0.4,9.4-16.7,9.4-16.7h22l-1.5,6.7h-18.6c-0.6,0-1,0.1-1.2,0.3c-0.3,0.3-0.5,0.7-0.6,1.3l-1,4.7c0,0,17.6,1.7,18.3,2.4
		c0.6,0.6,1,1.5,1,2.6l-0.2,1.4l-2,9.6c-0.5,2.1-1.3,3.7-2.3,4.7c-1.1,1-2.8,1.5-5,1.5h-22.2L545.92,45.62z M127.72,85.52h-6.7
		l5-24.5h-7.4l1.2-6h21.7l-1.3,6h-7.2l-5.2,24.5H127.72z M157.22,85.52l3.4-16c0-0.4-0.3-1.4-1-1.4h-9.6c-0.4,0-0.7,0.1-1,0.3
		l-0.5,1l-3.3,16h-6.2l6.8-32.2h6.3l-2.6,12c0.6-0.9,14.5-2.5,14.5-2.5c1.2,0,2.1,0.2,2.7,0.6c0.5,0.5,0.8,1.2,0.8,2.1
		c0,0.6,0,1.2-0.2,1.8l-3.8,18.3H157.22z M172.52,85.52c-1.3,0-2.2-0.2-2.7-0.7c-0.6-0.4-0.9-1-0.9-2c0-0.4,4-18.3,4.8-19
		c0.8-0.7,19.1-1,19.1-1c1.3,0,2.2,0.1,2.8,0.6s0.8,1,0.8,2c0,0.4,0,1-0.2,1.8l-3,13.8c-0.3,1.6-0.8,2.7-1.6,3.4s-2,1-3.6,1h-15.5
		L172.52,85.52z M189.42,69.52v-0.6c0-0.5-0.3-0.8-1.1-0.8h-9c-0.4,0-0.8,0.1-1,0.3c-0.2,0.2-0.3,0.5-0.4,1l-2,9.3v0.6
		c0,0.4,0.3,0.6,1,0.6h8.9c0.5,0,1-0.1,1.1-0.3c0.3-0.2,0.5-0.5,0.5-1l2-9.2V69.52z M228.22,85.52l3.4-16.4c0-0.1-0.3-1-1-1h-6.8
		c-0.5,0-0.9,0.1-1,0.3c-0.3,0.2-0.4,0.5-0.5,0.9l-3.4,16.2h-6.3l3.3-16c0-0.2-0.2-1.4-1-1.4h-6.7c-0.5,0-0.8,0.1-1,0.3
		c-0.2,0.2-0.4,0.5-0.5,1l-3.4,16h-6.3l4.8-22.7c0,0,24.6,2.6,25.6,2.6l7.6-2.6c1.2,0,2.1,0.2,2.7,0.7c0.5,0.4,0.8,1.1,0.8,2.1
		c0,0.5,0,1.1-0.2,1.7l-3.8,18.3H228.22L228.22,85.52z M243.22,85.52c-1.1,0-2-0.2-2.5-0.7c-0.5-0.4-0.7-1-0.7-2
		c0-0.3,3.6-11,4.1-11.2l1.9-0.2h11.6l-0.9,4h-8.2l-1,0.1c-0.1,0.2-0.3,0.5-0.3,1l-0.5,2.4l11.3,1.1l1.3-12.5h-15.4l1-4.9h18.6
		c1.4,0,2.3,0.2,2.8,0.6s0.8,1.2,0.8,2.1c0,0.4,0,1-0.2,1.7l-3.9,18.5H243.22z M267.92,85.52l1-5.2l16.6-0.3v-4h-12.2
		c-1,0-1.7-0.2-2.2-0.6c-0.5-0.42-0.76-1.05-0.7-1.7c0-0.3,6.5-11,6.5-11h18.8l-1.1,5h-15.6c-0.5,0-0.9,0.2-1,0.4s-0.4,0.5-0.5,1
		l-0.4,1.8l13.2,1.1c1,0,1.8,0.2,2.3,0.7c0.4,0.4,0.7,1,0.7,1.6v0.5l-0.1,0.4l-1.4,6.3c-0.19,1.15-0.75,2.2-1.6,3
		c-0.7,0.7-1.9,1-3.5,1h-19L267.92,85.52z M300.22,85.52c-1.3,0-2.2-0.2-2.7-0.7c-0.6-0.4-0.8-1-0.8-2l5.4-26.4h6.3l-1.3,6.3h5.4
		l-1,5h-5.5l-2.5,11.6c0,0.3,0.3,1.2,1,1.2h4l-1,5L300.22,85.52L300.22,85.52z M315.72,85.52c-1.3,0-2.2-0.2-2.7-0.7
		c-0.6-0.4-0.9-1-0.9-2c0-0.4,8.4-20,8.4-20h15.5c1.3,0,2.2,0.1,2.8,0.6s0.8,1,0.8,2c0,0.4,0,1-0.2,1.8l-3,13.8
		c-0.18,1.27-0.74,2.45-1.6,3.4c-0.8,0.7-2,1-3.6,1h-15.5L315.72,85.52z M331.42,68.22h-8.9c-0.5,0-0.8,0-1,0.2s-0.3,0.5-0.4,1
		l-2,9.3h11.5L331.42,68.22z M362.12,85.52l-1.4-15.8l-8.6,15.8h-7.9l-1.5-22.8h6.9l0.6,16.3l8.5-16.3h7.4l1.3,16.2l7.9-16.2h6.6
		l-11.8,22.8H362.12z M398.42,85.52l2.4-17.3h-9.4c-0.5,0-0.8,0-1,0.2s-0.4,0.5-0.5,1l-3.4,16h-6.3l4.8-22.7h20.2
		c1.3,0,2.1,0.2,2.7,0.6s0.8,1.2,0.8,2.2l-0.1,1.7l-4,18.3L398.42,85.52L398.42,85.52z M431.42,75.72l-2.1,9.8h-6.9l4.8-22.3h6.8
		l-1.5,7l11.2-1.8l0.2-7.4h-16.3l1.3-6h19c1.6,0,2.7,0.3,3.3,0.8c0.7,0.6,1,1.4,1,2.6v0.9l-0.2,1l-2.1,10c-0.4,1.9-1,3.2-2,4
		c-1,1-2.4,1.4-4.3,1.4h-12.3L431.42,75.72z M455.22,85.52c-1.2,0-2.1-0.2-2.7-0.7c-0.6-0.4-0.8-1-0.8-2l5.4-26.4h6.3l-1.3,6.3h5.5
		l-1,5h-5.6l-2.6,12.6l5.2,0.2l-1,5L455.22,85.52L455.22,85.52z M465.02,95.02l1.2-5.4l16.6-1.3l0.7-2.8h-13c-1.3,0-2.2-0.2-2.7-0.7
		c-0.6-0.4-0.9-1-0.9-2l4.1-20h6.3l-3.5,16.2l10.6,1.3l3.8-17.6h6.3l-6,27.8c-0.2,1.6-0.8,2.7-1.6,3.4s-2,1.1-3.6,1.1h-18.4H465.02z
		 M527.42,85.52h-20.4l6.4-30.5h6.9l-5.3,24.3h13.6l-1.3,6.2H527.42z M535.62,85.52c-1.3,0-2.2-0.2-2.8-0.7c-0.5-0.4-0.8-1-0.8-2
		l5.5-26.4h6.3l-1.4,6.3h5.5l-1,5h-5.5l-2.7,12.8h5.2l-1,5H535.62z M551.02,85.52c-1.2,0-2.1-0.2-2.7-0.7c-0.5-0.4-0.8-1-0.8-2
		l3.9-20h15.2l-1.2,5.4h-7.5c-0.4,0-0.8,0-1,0.2s-0.3,0.5-0.4,1l-2,9.2c0,0.3,10.7,1.3,10.7,1.3l5.7-26.7h6.4l-6.9,32.3H551.02
		L551.02,85.52z"/>
	<path fill="#3C4981" d="M139.82,42.72l-0.4-5.5h-12.7l-2.7,5.5h-7.6l18.3-35.2h10.3l2.7,35.2h-8H139.82z M138.02,14.52l-8.6,16.9
		h9.7L138.02,14.52z M175.02,42.72h-23.7l7.7-35.2h7.9l-6,28h15.7l-1.5,7.2H175.02z M203.02,42.72h-23.6l7.4-35.2h7.9l-6,28h15.8
		L203.02,42.72L203.02,42.72z M232.12,31.32l-2.4,11.4h-7.7l5.5-25.8h7.9l-1.7,8h10.9c0.6,0,1-0.1,1.3-0.4s0.5-0.8,0.7-1.6l1.5-7
		v-0.6c0-0.4,0-0.7-0.2-0.8l-1.1-0.2h-18.8l1.5-6.8h22c1.8,0,3,0.3,3.8,1c0.8,0.5,1.2,1.5,1.2,2.8l-0.1,1l-0.2,1.3l-2.4,11.6
		c-0.5,2-1.2,3.6-2.3,4.6s-2.8,1.6-5,1.6h-14.2L232.12,31.32z M260.62,42.72c-1.8,0-3-0.3-3.8-1c-0.8-0.6-1.2-1.5-1.2-2.8
		c0-0.7,0-1.5,0.3-2.4l4.8-22.9c0.5-2,1.2-3.6,2.3-4.6c1-1,2.8-1.5,5-1.5h17.5c1.8,0,3,0.3,3.8,0.9c0.8,0.6,1.2,1.6,1.2,3l-0.1,1
		l-0.2,1.2l-4.8,23c-0.5,2-1.2,3.5-2.3,4.6c-1.1,1-2.8,1.5-5,1.5C278.12,42.72,260.62,42.72,260.62,42.72z M281.72,16.42l0.1-0.5
		v-0.4c0-0.8-0.6-1.2-1.8-1.2h-9.8c-0.7,0-1.2,0.2-1.5,0.4c-0.3,0.3-0.5,0.9-0.7,1.7l-3.7,17.5l-0.1,0.7c0,0.7,0.5,1,1.5,1h9.8
		c0.8,0,1.4-0.1,1.8-0.4c0.3-0.3,0.6-0.7,0.7-1.3L281.72,16.42z M289.72,42.72l7.4-35.2h8l-7.5,35.2h-8H289.72z M329.12,42.72
		l-13.3-23.1l-5,23h-7.3l7.5-35.1h7.4l11.6,21l4.4-21h7.4l-7.5,35.2H329.12z M355.02,42.72h-7.9l6-28.3h-8.5l1.4-7h25l-1.4,7h-8.6
		L355.02,42.72z M367.72,42.72l1.5-6.9h18.8c0.6,0,1.1-0.1,1.4-0.3s0.5-0.7,0.7-1.4l1-4.9v-0.6c0-0.6-0.4-0.9-1.3-0.9h-13.9
		c-1.4,0-2.5-0.3-3-1s-1-1.4-1-2.5l0.1-1.5l2-9c0.4-2.2,1.1-3.7,2.2-4.7c1-1,2.8-1.5,5-1.5h22l-1.4,6.7h-18.8c-0.6,0-1,0.1-1.2,0.3
		c-0.3,0.3-0.4,0.7-0.6,1.3l-1,4.7v0.6c0,0.6,0.3,0.8,1,0.8h14.1c1.5,0,2.5,0.3,3.2,1c0.6,0.6,1,1.4,1,2.6l-0.2,1.4l-2,9.6
		c-0.5,2.1-1.2,3.7-2.3,4.7c-1.1,1-2.8,1.5-5,1.5H367.72z M421.62,42.72c-1.8,0-3-0.3-3.9-1c-0.7-0.6-1.1-1.5-1.1-2.8
		c0-0.7,0-1.5,0.3-2.4l4.8-22.9c0.5-2,1.2-3.6,2.3-4.6c1-1,2.7-1.5,5-1.5h21.7l-1.4,7h-18.3c-0.7,0-1.2,0.1-1.4,0.3
		c-0.3,0.3-0.5,0.8-0.7,1.6l-3.8,18l-0.1,0.6c0,0.4,0.1,0.6,0.3,0.7l1.1,0.2h11.3l1.7-8h-7l1.2-5.7h14.4l-4.3,20.5H421.62z
		 M472.92,42.72h-23.6l7.4-35.2h8l-6,28h15.7L472.92,42.72z M498.72,42.72l-0.3-5.5h-12.7l-2.7,5.5h-7.7l18.3-35.2h10.4l2.7,35.2
		H498.72L498.72,42.72z M497.02,14.52l-8.5,16.9h9.6l-1-16.9H497.02z M510.32,42.72l1.4-6.9h18.8c0.6,0,1-0.1,1.4-0.3
		s0.5-0.7,0.6-1.4l1-4.9l0.1-0.6c0-0.6-0.4-0.9-1.3-0.9h-14c-1.3,0-2.4-0.3-3-1s-1-1.4-1-2.5c0-0.4,0-0.9,0.2-1.5l2-9
		c0.4-2.2,1.1-3.7,2.2-4.7c1-1,2.8-1.5,5-1.5h22l-1.5,6.7h-18.6c-0.6,0-1,0.1-1.2,0.3c-0.3,0.3-0.5,0.7-0.6,1.3l-1,4.7v0.3l-0.1,0.3
		c0,0.6,0.4,0.8,1.1,0.8h14.2c1.5,0,2.5,0.3,3.2,1c0.6,0.6,1,1.4,1,2.6l-0.2,1.4l-2,9.6c-0.5,2.1-1.3,3.7-2.3,4.7
		c-1.1,1-2.8,1.5-5,1.5h-22.3H510.32z M543.92,42.72l1.4-6.9h18.8c0.6,0,1-0.1,1.4-0.3s0.5-0.7,0.6-1.4l1-4.9l0.1-0.6
		c0-0.6-0.4-0.9-1.3-0.9h-14c-1.3,0-2.4-0.3-3-1s-1-1.4-1-2.5c0-0.4,0-0.9,0.2-1.5l2-9c0.4-2.2,1.1-3.7,2.2-4.7c1-1,2.8-1.5,5-1.5
		h22l-1.5,6.7h-18.6c-0.6,0-1,0.1-1.2,0.3c-0.3,0.3-0.5,0.7-0.6,1.3l-1,4.7v0.3l-0.1,0.3c0,0.6,0.4,0.8,1.1,0.8h14.1
		c1.5,0,2.5,0.3,3.2,1c0.6,0.6,1,1.4,1,2.6l-0.2,1.4l-2,9.6c-0.5,2.1-1.3,3.7-2.4,4.7c-1,1-2.7,1.5-5,1.5h-22.1H543.92z
		 M125.52,83.52h-6.8l5.2-24.5h-7.4l1.2-6h21.7l-1.3,6h-7.4L125.52,83.52z M155.02,83.52l3.4-16v-0.6c0-0.5-0.3-0.8-1-0.8h-9.5
		c-0.4,0-0.7,0.1-1,0.3l-0.5,1l-3.3,16h-6.3l6.8-32.2h6.3l-2.6,12c0.5-0.82,1.18-1.5,2-2c0.78-0.38,1.64-0.55,2.5-0.5h10
		c1.2,0,2.1,0.2,2.7,0.6c0.5,0.5,0.8,1.2,0.8,2.1c0,0.6,0,1.2-0.2,1.8l-3.8,18.3H155.02z M170.32,83.52c-1.3,0-2.2-0.2-2.7-0.7
		c-0.6-0.4-0.8-1-0.8-2c0-0.4,0-1,0.2-1.8l3-13.8c0.2-1.6,0.8-2.7,1.5-3.4c0.8-0.7,2-1,3.6-1h15.5c1.3,0,2.3,0.1,2.8,0.6
		s0.8,1,0.8,2c0,0.4,0,1-0.2,1.8l-3,13.8c-0.3,1.5-0.8,2.7-1.6,3.4s-2,1-3.6,1h-15.5L170.32,83.52z M187.22,67.52v-0.6
		c0-0.5-0.3-0.8-1.1-0.8h-9c-0.4,0-0.8,0.1-1,0.3c-0.2,0.2-0.3,0.5-0.4,1l-2,9.3v0.6c0,0.4,0.3,0.6,1,0.6h8.9c0.5,0,1-0.1,1.2-0.3
		c0.2-0.2,0.4-0.5,0.4-1l2-9.2L187.22,67.52z M226.02,83.52l3.3-16l0.1-0.4v-0.3c0-0.4-0.3-0.6-1-0.6h-6.8c-0.5,0-0.9,0-1,0.2
		c-0.3,0.2-0.4,0.5-0.5,0.9l-3.4,16.2h-6.3l3.3-16l0.1-0.4v-0.3c0-0.4-0.3-0.6-1-0.6h-6.8c-0.5,0-0.8,0-1,0.2s-0.4,0.5-0.5,1
		l-3.5,16.1h-6.3l4.8-22.8h6l-0.4,2.5c0.91-1.57,2.59-2.53,4.4-2.5h7.6c1.2,0,2,0.2,2.6,0.6c0.5,0.4,0.8,1,0.9,1.9
		c0.7-0.9,1.4-1.5,2-1.9c0.77-0.41,1.63-0.62,2.5-0.6h7.6c1.2,0,2,0.3,2.7,0.7c0.5,0.4,0.8,1.1,0.8,2.1c0,0.6,0,1.1-0.2,1.7
		l-3.8,18.3H226.02z M241.02,83.52c-1.1,0-2-0.2-2.5-0.7c-0.5-0.4-0.7-1-0.7-2c0-0.3,0-0.9,0.2-1.6l1.1-5.4l0.6-2.1
		c0.3-0.6,0.6-1,1-1.4s0.7-0.5,1.2-0.7l1.9-0.2h11.6l-0.9,3.9h-8.2c-0.5,0-0.8,0-1,0.2c-0.1,0.2-0.3,0.5-0.3,1l-0.5,2.3l-0.1,0.4
		v0.3c0,0.4,0.2,0.6,0.8,0.6h10.5l2.4-11.2v-0.5c0-0.2,0-0.4-0.2-0.6l-0.8-0.2h-15.5l1-5h18.7c1.3,0,2.3,0.3,2.8,0.7s0.8,1.2,0.8,2
		c0,0.5,0,1.1-0.2,1.8l-3.9,18.4L241.02,83.52L241.02,83.52z M265.72,83.52l1-5.2h15.7c0.4,0,0.8-0.1,1-0.3l0.3-0.8l0.5-2.3v-0.3
		c0-0.4-0.2-0.6-0.8-0.6h-12.2c-1,0-1.8-0.2-2.3-0.6c-0.5-0.42-0.76-1.05-0.7-1.7c0-0.3,0-0.6,0.2-1l1.2-6c0.3-1.4,0.8-2.4,1.6-3
		c0.7-0.6,1.9-1,3.5-1h18.8l-1.1,5.1h-15.5c-0.5,0-0.8,0-1,0.3s-0.4,0.5-0.5,1l-0.4,1.8v0.4c0,0.5,0.2,0.7,0.9,0.7h12.3
		c1,0,1.8,0.3,2.3,0.7c0.4,0.4,0.7,1,0.7,1.6v0.5l-0.1,0.4l-1.4,6.3c-0.16,1.14-0.69,2.19-1.5,3c-0.8,0.7-2,1-3.5,1H265.72z
		 M298.02,83.52c-1.3,0-2.2-0.2-2.7-0.7c-0.6-0.4-0.8-1-0.8-2c0-0.4,0-1,0.2-1.8l5.2-24.6h6.3l-1.3,6.3h5.5l-1,5h-5.6l-2.5,11.6v0.6
		c0,0.4,0.3,0.6,1,0.6h4l-1,5C305.32,83.52,298.02,83.52,298.02,83.52z M313.52,83.52c-1.3,0-2.2-0.2-2.7-0.7c-0.6-0.4-0.9-1-0.9-2
		l0.3-1.8l2.9-13.8c0.3-1.6,0.9-2.7,1.6-3.4c0.8-0.7,2-1,3.6-1h15.5c1.3,0,2.2,0.1,2.8,0.6s0.8,1,0.8,2c0,0.4,0,1-0.2,1.8l-3,13.8
		c-0.18,1.27-0.74,2.45-1.6,3.4c-0.8,0.7-2,1-3.6,1h-15.5L313.52,83.52z M330.42,67.52v-0.6c0-0.5-0.4-0.8-1.2-0.8h-8.9
		c-0.5,0-0.8,0.1-1,0.3c-0.2,0.2-0.3,0.5-0.4,1l-2,9.3v0.6c0,0.4,0.3,0.6,1,0.6h8.9c0.5,0,0.9-0.1,1.1-0.3c0.3-0.2,0.5-0.5,0.5-1
		l2-9.2V67.52z M359.92,83.52l-1.4-15.8l-8.6,15.8h-7.9l-1.5-22.8h6.9l0.6,16.3l8.5-16.3h7.4l1.3,16.2l7.9-16.2h6.6l-11.7,22.8h-8
		H359.92z M396.22,83.52l3.4-16l0.1-0.6c0-0.5-0.4-0.8-1.1-0.8h-9.4c-0.5,0-0.8,0.1-1,0.3s-0.4,0.5-0.5,1l-3.4,16h-6.3l4.8-22.7h6
		l-0.5,2.5c0.92-1.6,2.65-2.56,4.5-2.5h10.2c1.3,0,2.1,0.2,2.7,0.6s0.8,1.2,0.8,2.1l-0.1,1.8l-4,18.3H396.22z M429.22,73.72
		l-2.1,9.8h-6.9l4.8-22.3h6.8l-1.5,7h9.4c0.6,0,1-0.2,1.2-0.4l0.6-1.4l1.3-6v-0.6c0-0.4,0-0.6-0.2-0.7l-1-0.2h-16.2l1.3-5.9h19
		c1.6,0,2.7,0.3,3.3,0.8c0.7,0.6,1,1.4,1,2.5v1l-0.2,1l-2.1,10c-0.4,1.9-1,3.2-2,4c-1,1-2.4,1.4-4.3,1.4h-12.4L429.22,73.72z
		 M453.02,83.52c-1.2,0-2.1-0.2-2.7-0.7c-0.6-0.4-0.8-1-0.8-2c0-0.4,0-1,0.2-1.8l5.2-24.6h6.3l-1.3,6.3h5.5l-1,5h-5.6l-2.4,11.6
		l-0.1,0.6c0,0.4,0.3,0.6,1,0.6h4.1l-1,5L453.02,83.52L453.02,83.52z M462.72,93.02l1.2-5.4h15.1c0.5,0,0.9-0.1,1-0.3
		c0.3-0.2,0.4-0.5,0.5-1l0.7-2.8h-13c-1.3,0-2.2-0.3-2.7-0.7c-0.6-0.4-0.9-1.1-0.9-2l0.3-1.8l3.8-18.3h6.3l-3.4,16.3v0.3l-0.1,0.3
		c0,0.5,0.4,0.7,1,0.7h9.7l3.8-17.6h6.3l-6,27.8c-0.2,1.6-0.8,2.7-1.6,3.4s-2,1.1-3.6,1.1H462.72z M525.12,83.52h-20.4l6.3-30.5h6.9
		l-5.2,24.3h13.6l-1.3,6.2H525.12z M533.32,83.52c-1.3,0-2.2-0.2-2.8-0.7c-0.5-0.4-0.8-1-0.8-2c0-0.4,0-1,0.2-1.8l5.3-24.6h6.3
		l-1.4,6.3h5.5l-1,5h-5.6l-2.5,11.6v0.6c0,0.4,0.2,0.6,0.9,0.6h4.1l-1,5h-7.3L533.32,83.52z M548.72,83.52c-1.2,0-2.1-0.2-2.7-0.7
		c-0.5-0.4-0.8-1-0.8-2c0-0.4,0-1,0.2-1.8l3-13.8c0.3-1.6,0.9-2.7,1.7-3.4c0.9-0.7,2-1,3.5-1h10.7l-1.2,5.4h-7.5c-0.5,0-0.8,0-1,0.2
		l-0.5,1l-1.9,9.2v0.6c0,0.5,0.3,0.7,1,0.7h9.7l5.7-26.7h6.3l-6.8,32.3L548.72,83.52L548.72,83.52z"/>
</g>
</svg>
