<?xml version="1.0" encoding="utf-8"?>
<!-- Generator: Adobe Illustrator 22.0.1, SVG Export Plug-In . SVG Version: 6.00 Build 0)  -->
<svg version="1.1" id="Layer_1" xmlns="http://www.w3.org/2000/svg" xmlns:xlink="http://www.w3.org/1999/xlink" x="0px" y="0px"
	 viewBox="0 0 150 31.3294" enable-background="new 0 0 150 31.3294" xml:space="preserve">
<path d="M150,0.0414c-0.4835,2.1162-1.0145,4.1849-1.5278,6.2715h-4.8131c-2.0707,8.3223-4.0958,16.6863-6.1565,25.0145h-8.1103
	c1.9815-8.2985,4.0839-16.6684,6.1149-24.9927c-1.5575-0.0515-3.214,0-4.8111-0.0218c0.5429-2.0727,1.0066-4.2246,1.5733-6.2715
	L150,0.0414z M130.3831,0.0414c-2.5588,10.4359-5.1209,20.8646-7.6863,31.286h-8.1162c2.5145-10.3831,5.0905-20.9049,7.6783-31.286
	H130.3831z M120.2655,0.0414c-0.4617,2.0489-1.0145,4.2008-1.5277,6.2715h-5.6196c-0.5033,1.9538-0.9729,3.9412-1.4604,5.9108
	h5.0132c-0.4782,1.9947-0.9656,3.9802-1.4624,5.9564h-4.9894c-1.1275,4.3415-2.1559,8.7801-3.2576,13.1473h-8.1242
	c2.5225-10.3871,5.0984-20.9069,7.6962-31.286H120.2655z M97.4524,31.3274h-8.2847c0.2556-1.8269,0.6162-3.745,0.9214-5.5958
	c-0.9135-0.0515-1.926,0-2.8771-0.0218c-0.6559,1.8468-1.2602,3.745-1.8884,5.6196h-8.4135
	c3.9366-10.4439,7.8851-20.8732,11.8454-31.288h11.7305C99.4782,10.4721,98.467,20.9007,97.4524,31.3274z M91.2285,20.1359
	c0.5647-4.3791,1.2979-8.7186,1.932-12.9452c-1.605,4.2761-3.2616,8.5007-4.6982,12.9452H91.2285z M56.8177,31.3274
	c2.5106-10.389,5.0865-20.9108,7.6863-31.286h8.1143c-0.9135,3.7312-1.8388,7.4505-2.7424,11.1935h2.3778
	c0.9769-3.6816,1.8329-7.4861,2.786-11.1935h8.1242c-2.5284,10.4604-5.1182,20.8534-7.6684,31.286h-8.1361
	c1.0601-4.3851,2.1499-8.7444,3.214-13.1255c-0.749-0.0515-1.5951,0-2.3778-0.0218c-1.1295,4.3395-2.1598,8.7781-3.2596,13.1473
	H56.8177z M57.424,16.157c-1.7834,2.2252-5.0865,2.7602-9.2378,2.576c-1.0621,4.1731-2.041,8.4313-3.1248,12.5865h-8.1123
	c2.576-10.4287,5.0905-20.9049,7.71-31.286c3.9273,0.1427,8.2431-0.2715,11.6413,0.1982c2.576,0.3587,4.6129,1.4168,4.4505,4.4505
	c-0.0625,0.8625-0.1904,1.719-0.3824,2.5621c-0.3369,1.603-0.7332,3.1446-1.1691,4.7556
	C58.7754,13.5949,58.3078,15.0553,57.424,16.157z M52.9974,9.5943c0.1229-0.4974,0.2437-0.9749,0.3587-1.4386
	c0.1508-0.5114,0.2341-1.0403,0.2477-1.5733c-0.0297-1.1374-1.0601-1.1314-2.1361-1.1691c-0.6777,2.6196-1.3157,5.2768-1.9557,7.926
	c0.8679,0.1011,1.8071-0.0674,2.2708-0.5172C52.4822,12.1524,52.7081,10.7376,52.9974,9.5943z M31.6011,25.0579h4.9221
	c-0.4954,2.1024-1.0284,4.1612-1.5297,6.2715H21.9155c2.5509-10.4439,5.1123-20.8732,7.6843-31.288h8.1143
	C35.7067,8.4113,33.6123,16.692,31.6011,25.0579z M11.8454,0.0414h11.7107c-0.965,10.3791-2.0172,20.8633-3.0119,31.286h-8.3223
	c0.3038-1.8838,0.6189-3.7569,0.9452-5.6196h-2.8732c-0.6797,1.8289-1.2483,3.7649-1.9102,5.6196H0
	C3.926,20.8783,7.8745,10.4496,11.8454,0.0414z M14.3184,20.1339c0.5429-4.3989,1.2919-8.7285,1.93-12.967
	c-1.6129,4.282-3.2536,8.5363-4.718,12.969L14.3184,20.1339z"/>
</svg>
