<?xml version="1.0" encoding="utf-8"?>
<!-- Generator: Adobe Illustrator 22.0.1, SVG Export Plug-In . SVG Version: 6.00 Build 0)  -->
<svg version="1.1" id="Layer_1" xmlns="http://www.w3.org/2000/svg" xmlns:xlink="http://www.w3.org/1999/xlink" x="0px" y="0px"
	 viewBox="0 0 558.5833 199.3084" enable-background="new 0 0 558.5833 199.3084" xml:space="preserve">
<path fill="#00FF00" d="M66,108.0884L117.25,0H139l48.75,108.0884h-19.5l-13.5-32.7358H99.5l-15.25,32.7358H66z M104.25,63.7031h44
	l-19.2993-48.4096h-2.7013L104.25,63.7031z M208.1394,108.0884V0h50.2459c8.8436,0,15.5967,0.3442,20.2619,1.0322
	c6.542,0.8848,12.0237,2.5688,16.4458,5.0508c4.4209,2.4824,7.9801,5.9604,10.6764,10.4326
	c2.6945,4.4731,4.043,9.3892,4.043,14.7461c0,9.1919-3.6043,16.9707-10.8124,23.3359c-7.2093,6.3657-20.2318,9.5479-39.07,9.5479
	h-34.1636v43.9429H208.1394z M225.7663,51.3901h34.4361c11.3877,0,19.4742-1.7202,24.2598-5.1611
	c4.7843-3.4399,7.178-8.2822,7.178-14.5249c0-4.522-1.4086-8.3926-4.2247-11.6123c-2.8173-3.2192-6.5281-5.3457-11.1307-6.3779
	c-2.9683-0.6382-8.45-0.9585-16.4458-0.9585h-34.0727V51.3901z M325.75,62.3501l100.125,0.5v-15.25l-100.125,0.25V62.3501z
	 M425.875,17.8501v-15.75H325.75v15.75H425.875z M325.75,93.4751v14.6133h100.125V93.4751H325.75z M439.981,108.8418l49.1024-56.7
	L444.4156,0h22.1667L500.25,40.9751L534.749,0h20.5L510.25,52.1418l48.3333,55.9466H537.25l-37.1677-45.2383l-39.2962,45.2734
	L439.981,108.8418z"/>
<path fill="#FFFFFF" d="M476.2988,170.1591h-12.6931v29.1493h-11.9236v-29.1493h-12.6284v-8.7768h37.2451V170.1591z
	 M499.3127,187.3342h-6.2181v11.9743H481.171v-37.9261h18.1417c3.632,0,6.7729,0.3613,9.4227,1.0828
	c2.6498,0.7234,4.6898,1.716,6.1221,2.9803c1.4312,1.2644,2.4684,2.6191,3.1096,4.0632c0.6411,1.445,0.9617,3.0342,0.9617,4.7684
	c0,5.3093-2.6714,9.0477-8.0131,11.2153l7.3719,13.8161h-12.6931L499.3127,187.3342z M499.3763,169.7796h-6.2818v9.2649h6.2818
	c5.0006,0,7.5004-1.5344,7.5004-4.6051C506.8767,171.3332,504.377,169.7796,499.3763,169.7796z M558.4167,170.1591h-12.6932v29.1493
	H533.8v-29.1493h-12.6284v-8.7768h37.2451V170.1591z M330.0029,148.2837h-3.1045v-22.9746h10.624
	c3.7754,0,7.5508,1.3125,7.5508,6.1758c0,3.3916-1.7275,4.6396-3.1992,5.5039c1.3115,0.5439,2.623,1.1201,2.752,4.3193
	l0.1914,4.1602c0.0322,1.2793,0.1924,1.7598,1.1523,2.3037v0.5117h-3.8076c-0.4482-1.4082-0.5439-4.8955-0.5439-5.7598
	c0-1.8877-0.3848-4.0957-4.0957-4.0957h-7.5195V148.2837z M330.0029,135.7729h7.1992c2.2715,0,4.6719-0.5762,4.6719-3.9678
	c0-3.5518-2.5918-3.8398-4.1279-3.8398h-7.7432V135.7729z M375.6348,141.5962l-2.4004,6.6875h-3.1992l8.6387-22.9746h3.5205
	l8.3193,22.9746h-3.3916l-2.2725-6.6875H375.6348z M383.7295,138.8442l-3.3916-10.1113h-0.0635l-3.6797,10.1113H383.7295z
	 M430.9287,132.2212c-0.8643-4.0322-4.2236-4.7676-6.4316-4.7676c-4.1592,0-7.5195,3.0713-7.5195,9.1191
	c0,5.4072,1.9199,9.5674,7.6152,9.5674c2.0166,0,5.5039-0.96,6.5596-6.3037h3.0078c-1.2793,8.6709-8.3193,9.0557-10.0469,9.0557
	c-5.2158,0-10.335-3.3926-10.335-12.2236c0-7.0713,4.0313-11.9668,10.7188-11.9668c5.9199,0,8.9912,3.6797,9.4395,7.5195H430.9287z
	 M463.8896,148.2837h-3.1035v-22.9746h3.1035V148.2837z M506.833,125.3091h3.0078v22.9746h-3.4883l-11.6787-18.5586h-0.0645v18.5586
	h-3.0078v-22.9746h3.6797l11.4873,18.5586h0.0645V125.3091z M547.1211,135.9966h10.0791v12.2871h-2.0156l-0.7363-2.9756
	c-1.5674,2.1758-4.4473,3.584-7.583,3.584c-3.9355,0-5.8555-1.4404-7.04-2.5918c-3.5195-3.3281-3.6152-7.2637-3.6152-9.6953
	c0-5.5996,3.3916-11.9033,10.8789-11.9033c4.2881,0,9.0557,2.4316,9.7275,7.583h-3.0078c-0.9922-4-4.3516-4.8311-6.8799-4.8311
	c-4.1279,0-7.5195,3.2949-7.5195,9.3105c0,4.6719,1.5361,9.4717,7.6475,9.4717c1.1523,0,3.0078-0.1279,4.7041-1.4717
	c2.0156-1.6006,2.5273-3.6475,2.5273-6.1113h-7.167V135.9966z"/>
<polygon fill="#B90504" points="51,0 69.75,0 18.5,108.0884 0,108.0884 "/>
<polygon fill="#FFFFFF" points="84.2,0 102.95,0 51.7,108.0884 33.2,108.0884 "/>
</svg>
