<?xml version="1.0" encoding="utf-8"?>
<!-- Generator: Adobe Illustrator 22.0.1, SVG Export Plug-In . SVG Version: 6.00 Build 0)  -->
<svg version="1.1" id="Layer_1" xmlns="http://www.w3.org/2000/svg" xmlns:xlink="http://www.w3.org/1999/xlink" x="0px" y="0px"
	 viewBox="0 0 571.492 161.02" enable-background="new 0 0 571.492 161.02" xml:space="preserve">
<path d="M179.599,122.783h-37.464l0-26.863H77.387c-0.635,4.382-1.4,8.731-1.864,13.113c-0.466,4.398-0.631,8.829-0.936,13.363
	c-12.896,0-25.908,0-39.047,0c-0.047-0.305-0.15-0.646-0.143-0.985c0.073-4.075-0.019-8.164,0.287-12.223
	c0.544-7.203,1.802-14.301,3.71-21.281c8.193-29.966,26.009-52.372,53.072-67.479c13.52-7.547,28.018-12.501,43.146-15.546
	c7.489-1.507,15.067-2.684,22.657-3.547c6.814-0.775,14.475-0.919,21.33-1.335V122.783z M86.665,72.229c18.596,0,36.935,0,55.352,0
	c0-12.936,0-25.812,0-38.871c-11.212,2.121-21.399,6.364-30.774,12.572C101.016,52.703,92.835,61.404,86.665,72.229z"/>
<polygon points="345.68,28.11 345.68,48.486 410.619,48.486 410.619,71.077 345.687,71.077 345.687,94.712 436.881,94.712 
	415.523,122.358 303.571,122.358 303.571,1.078 420.679,1.078 440.083,28.11 "/>
<polygon points="468.483,59.131 426.055,1.104 472.376,1.104 496.201,38.173 519.409,1.064 565.268,1.064 523.128,59.794 
	569.243,122.33 521.993,122.33 495.374,83.553 468.719,122.372 421.75,122.372 "/>
<path d="M185.461,0.982c0,0,48.09-0.055,71.489,0.045c7.897,0.034,15.688,1.075,23.045,4.206
	c11.146,4.742,17.903,17.302,19.723,25.065c1.303,5.559,0.943,15.379-1.793,22.768c-3.519,9.504-10.3,15.902-19.569,19.745
	c-6.554,2.717-13.441,4.098-20.494,4.293c-9.551,0.264-19.11,0.207-28.666,0.287c-0.472,0.004-0.944,0.001-1.62,0.001
	c0,15.046,0,44.973,0,44.973h-42.115V0.982z M227.67,25.79c0,8.974,0,17.814,0,26.709c0.308,0.043,0.537,0.103,0.766,0.103
	c4.476-0.007,8.969,0.213,13.423-0.111c3.221-0.234,6.499-0.868,9.558-1.897c5.075-1.705,8.15-6.337,8.083-11.313
	c-0.073-5.342-3.185-10.037-8.127-11.717c-2.349-0.798-4.868-1.324-7.342-1.478c-4.62-0.289-9.263-0.219-13.896-0.294
	C229.347,25.779,228.558,25.79,227.67,25.79z"/>
<path fill="#E6BB84" d="M25.255,121.805c-8.522,0-16.781,0-25.255,0c1.919-27.159,9.228-52.233,26.568-73.962
	c5.387,3.672,10.642,7.254,16.036,10.931C31.542,78.355,25.958,99.372,25.255,121.805z"/>
<polygon fill="#E6BB84" points="18.746,25.829 24.437,11.095 30.223,26.009 44.26,26.009 33.254,35.116 36.841,49.115 
	24.414,40.689 12.018,49.197 15.759,34.988 4.47,25.829 "/>
<path d="M323.395,160.16h-6.498c0,0-4.487-7.816-6.753-11.763c-0.109,0.036-0.218,0.072-0.327,0.109c0,3.847,0,11.635,0,11.635
	h-5.794v-28.049c3.627,0.125,7.698,0.09,11.303,0.444c3.779,0.372,6.155,2.953,6.602,6.918c0.37,3.286-0.93,6.262-4.422,7.86
	c-0.355,0.162-0.706,0.331-1.156,0.541C318.674,151.915,323.395,160.16,323.395,160.16z M309.84,143.143
	c1.452-0.113,2.796-0.16,4.124-0.337c1.422-0.189,2.135-0.978,2.21-2.24c0.084-1.408-0.537-2.472-1.939-2.738
	c-1.413-0.268-2.885-0.23-4.395-0.33C309.84,139.457,309.84,141.16,309.84,143.143z"/>
<path d="M538.128,160.17h-6.165l-2.348-5.622h-12.117l-2.43,5.614h-6.171l11.64-28.018h5.978L538.128,160.17z M527.374,149.038
	l-3.82-9.114l-3.82,9.114H527.374z"/>
<path d="M494.136,137.027l-4.232,3.736c-0.814-0.633-1.53-1.276-2.327-1.795c-3.918-2.552-8.05-3.03-12.242-0.828
	c-3.544,1.862-5.28,5.558-4.731,9.455c0.537,3.816,3.342,6.84,7.251,7.693c4.034,0.881,7.685,0.078,10.835-2.683
	c0.3-0.263,0.61-0.516,0.922-0.766c0.059-0.048,0.145-0.062,0.323-0.134l3.608,4.056c-1.674,1.653-3.818,3.244-6.37,4.127
	c-4.364,1.51-8.8,1.525-13.142-0.053c-5.826-2.116-9.403-7.323-9.486-13.531c-0.08-5.979,3.299-11.106,9.212-13.46
	c6.805-2.709,13.138-1.647,18.863,2.941C493.084,136.157,493.54,136.538,494.136,137.027z"/>
<polygon points="340.476,160.125 340.476,132.164 356.97,132.164 356.97,137.501 346.367,137.501 346.367,142.292 356.938,142.292 
	356.938,147.638 346.362,147.638 346.362,154.792 356.952,154.792 356.952,160.125 "/>
<path d="M570.872,136.098l-3.978,3.263c-2.93-3.735-5.542-2.578-6.145-2.364c-1.327,0.47-1.579,1.814-0.506,2.877
	c1.048,1.038,2.227,1.943,3.36,2.894c1.775,1.49,3.643,2.879,5.318,4.473c2.537,2.414,3.233,5.433,1.924,8.661
	c-1.338,3.301-4.156,4.708-7.571,4.996c-4.941,0.417-8.588-1.565-10.974-6.139c1.633-0.919,3.24-1.824,4.874-2.743
	c0.567,0.718,1.018,1.376,1.555,1.953c1.246,1.338,2.726,2.051,4.612,1.578c2.228-0.56,2.987-2.616,1.408-4.267
	c-1.289-1.348-2.861-2.423-4.274-3.657c-1.623-1.418-3.314-2.78-4.787-4.344c-1.85-1.964-2.545-4.37-1.53-6.972
	c1.081-2.773,3.329-4.276,6.176-4.727C564.501,130.918,568.223,132.572,570.872,136.098z"/>
<path d="M380.644,148.634v11.505h-5.802V132.16c3.975,0.155,8.148,0.01,12.065,0.57c3.716,0.531,5.871,3.633,5.909,7.351
	c0.04,3.896-2.096,6.862-5.929,7.796C384.934,148.353,382.872,148.379,380.644,148.634z M380.7,143.157
	c1.561-0.124,3.002-0.142,4.404-0.381c1.109-0.189,1.796-0.949,1.895-2.162c0.104-1.27-0.329-2.359-1.548-2.647
	c-1.51-0.356-3.105-0.355-4.751-0.516C380.7,139.469,380.7,141.172,380.7,143.157z"/>
<path d="M416.732,155.032c0,0,5.486,0,8.203,0c0,1.754,0,5.125,0,5.125h-14.098v-27.999h5.895V155.032z"/>
<rect x="441.504" y="132.153" width="5.708" height="28.008"/>
<path fill="#E6BB84" d="M38.416,36.947C84.402-3.624,117.402,2.626,141.529,0.479C80.902,7.251,58.527,35.626,43.681,56.952
	C41.891,50.15,38.416,36.947,38.416,36.947z"/>
</svg>
