<svg xmlns="http://www.w3.org/2000/svg" viewBox="0 0 158.44 40.199"><path fill="#979799" d="M9.473 35.723L0 40.2l2.93-4.9 7.553-2.345zM29.755 28.608l-7.324 2.184-10.302 3.69 2.62-4.886 16.085-3.668z"/><path fill="#252021" d="M4.45 8.926L6.508 6.55 4.505 29.018l-2.6.045zM1.904 29.063L2.93 35.3 0 40.2v-8.684z"/><path fill="#979799" d="M105.527 19.913l-2.124 3.634 20.51 3.414 17.323 4.98s8.215 3.404 10.999 4.42c4.582 1.673 5.757-3.257 5.839-4.345.023-.31-3.82-.257-3.82-.257l-2.93-2.025-45.797-9.821zM91.06 22.405l9.757.862.887-2.333-8.653-1.607zM89.21 20.032l-1.378 2.373-9.446-.185 3.407-4.838zM77.23 5.809l-1.486 1.574.068-1.5z"/><path fill="#252021" d="M75.744 7.383L77.23 5.81l4.563 11.573-3.407 4.838z"/><path fill="#979799" d="M106.532 6.628l-2.665 2.266.438-2.405zM57.97 20.932l-1.017 2.597s-7.484.931-9.964 1.338c-4.369.717-5.957-1.09-6.008-2.39-.028-.698 4.37-3.458 4.37-3.458l12.618 1.913z"/><path fill="#979799" d="M40.32 26.111s-3.6.844-4.817 1.036c-4.557.715-4.626-2.855-4.626-2.855l5.026-2.028 5.432 1.172-1.015 2.675z"/><path fill="#252021" d="M11.19 27.206l.939 7.276 1.785-3.328-.982-5.223z"/><path fill="#979799" d="M11.124 27.49l.11-.939 1.698-.62z"/><path fill="#252021" d="M21.016 12.233l-.097 9.701 1.9-.553.115-11.075zM19.728 5.177l-.066 7.18 1.91-1.8.005-6.907z"/><path fill="#979799" d="M21.573 10.557l-1.911 1.8 1.354-.124 1.918-1.928z"/><path fill="#252021" d="M49.517 11.554l.056-4.628 1.189-.09-.025 2.167z"/><path fill="#979799" d="M49.564 7.715l.01-.789 1.188-.09z"/><path fill="#252021" d="M90.802 12.965l1.727 7.17-1.47 2.27-1.25-5.197zM103.403 23.547l1.886-2.276-.13-6.021h-1.846z"/><path d="M103.867 8.894v7.632l2.764-1.05-.1-8.848z"/><path fill="#979799" d="M138.103 12.155l1.414.246 1.898-1.297-1.358-.278z"/><path fill="#252021" d="M138.103 5.713v6.442l1.954-1.329-.061-6.91zM139.517 12.401v10.01l1.993.18-.095-11.487z"/><path fill="#979799" d="M121.12 9.81l1.13.69 1.81-2.235-1.368-.167z"/><path fill="#252021" d="M122.107 18.18h2.079l-.126-9.915-1.81 2.236z"/><path fill="#979799" d="M118.926 12.522l2.633.326 1.04-2.347-3.673-.462zM63.293 22.834c1.874-.078 5.642-.067 7.495-.357 4.956-.776 4.88-7.293 4.88-7.293l-11.49 2.501-2.13-1.56-4.19 3.216s.586 3.698 5.435 3.493z"/><path fill="#252021" d="M58.306 20.512l1.85-2.31 3.015-12.587V.38s-6.15.669-6.32 4.819c-.059 1.465-.311 5.858-.311 5.858l.038 1.031 1.28 7.252s.084.526.448 1.17z"/><path fill="#979799" d="M50.737 9.003l-1.22 2.551 7.023-.496 1.304-2.573zM30.874 17.182l-.018 1.547 1.282-1.8z"/><path fill="#252021" d="M39.15 7.346c-.472 2.49.343 10.184.343 10.184l1.922-.34 4.209-15.852s-5.669 1.753-6.475 6.008zM31.814 26.359l2.044-3.27-1.72-6.16-1.282 1.8.021 5.563s.014.137.041.347c.074.42.292 1.14.896 1.72zM42.179 24.31l2.805-4.805-1.96-1.135-1.96.376v4.196c.148.482.504.979 1.115 1.369z"/><path fill="#F1334E" d="M51.593 12.633l-.963.102-.011.969-.013 1.16-.01.908c-.356.044-.712.09-1.067.136l.108-8.922c.353-.028.706-.054 1.06-.08l-.011.972-.014 1.194 1.19-.096c1.661-.133 3.356-.256 5.037-.365l1.009-.065.01-1.011.052-5.13.008-.839L57.99.42l-1.147.048c-3.02.126-6.013.281-8.894.46-.993.063-1.87.203-2.606.419-.822.24-1.523.62-2.085 1.128-.573.52-1.008 1.188-1.293 1.988-.266.741-.407 1.655-.42 2.715l-.067 5.232-.06 4.714-1.234.22-.167.029.002-.089.01-.755c.017-1.374-.267-2.398-.87-3.13a2.932 2.932 0 0 0-.643-.576c.54-.506.944-1.068 1.203-1.672.25-.582.401-1.218.447-1.89a34.2 34.2 0 0 0 .073-1.9c.013-1.026-.084-1.866-.298-2.569-.245-.805-.668-1.445-1.257-1.903-.568-.442-1.294-.718-2.16-.823A9.74 9.74 0 0 0 35.376 2c-.473 0-.988.029-1.533.085a259.72 259.72 0 0 0-11.346 1.427l-.92.137-.01.93-.028 2.925-.018 1.807-.014 1.323 1.302-.24.06-.012-.114 10.949-.44.126v-.007l-.713.212-.205.06v.002l-.496.147-.294.088c-.88-5.387-1.776-10.963-2.666-16.595l-.174-1.097-1.093.194a186.88 186.88 0 0 0-9.439 1.92l-.727.168-.106.739c-.99 6.898-1.964 13.953-2.897 20.98-.342.153-.685.307-1.027.462l-.638.291v8.052l1.582-.802a130.87 130.87 0 0 1 6.49-3.066l.571-.252.072-.62c.226-1.94.453-3.866.68-5.783a143.1 143.1 0 0 1 1.697-.62l.555 4.302.179 1.384 1.299-.51a142.953 142.953 0 0 1 6.548-2.379l.613-.206.643-.21a152.683 152.683 0 0 1 7.271-2.168l.794-.216.01-.823.052-4.373.042-3.497c.372-.076.75-.152 1.135-.228l-.03 2.406-.033 2.643c-.008.639.071 1.146.242 1.55.231.551.648.943 1.205 1.132.27.091.572.137.898.137.18 0 .373-.014.574-.041.414-.057.912-.152 1.524-.29 1.374-.314 2.747-.61 4.083-.88l.863-.175.01-.88.05-3.774c.059.578.173 1.073.343 1.498.318.796.83 1.383 1.52 1.743.589.308 1.316.465 2.161.465h.08c.743-.01 1.585-.09 2.577-.247 2.92-.462 5.925-.865 8.933-1.197l.96-.107.01-.966.05-4.95.018-1.857.012-1.198-1.194.101c-1.74.148-3.535.32-5.336.513zM158.178 11.857c-.188-1.082-.537-2.017-1.036-2.78a5.567 5.567 0 0 0-2.059-1.877c-.78-.416-1.747-.755-2.876-1.01a192.716 192.716 0 0 0-10.997-2.138l-1.279-.211.011 1.296.043 4.86.008.882.865.176.493.101.058 6.99.035 4.357-1.049-.33-.03-3.26-.009-.828-.8-.214c-1.831-.49-3.704-.957-5.568-1.39l-1.351-.313.015 1.387.026 2.331.002.146-.446-.112-.123-10.45.088.014 1.276.203-.015-1.292-.052-4.547-.01-.95-.943-.119a283.604 283.604 0 0 0-8.7-.96l-1.209-.115-.977-.085a380.95 380.95 0 0 0-15.416-1.03l-.222-.011V.576l-.433-.019-.5-.024v.002l-.097-.005a504.02 504.02 0 0 0-8.77-.315L95.005.184l.008 1.128.012 1.67-.479-1.998-.196-.816-.839-.019C91.799.11 90.046.079 88.3.055l-.87-.012-.205.846-.74 3.055-.002-1-.005-1.835-.003-1.077-1.078-.01A626.937 626.937 0 0 0 76.63.01L75.55.016l-.002 1.082-.004 2.203a4.034 4.034 0 0 0-.995-1.772C74.04 1.007 73.36.622 72.524.385 71.83.188 70.966.088 69.96.088l-.288.003c-1.586.027-3.245.064-4.93.108-1.232.031-2.218.171-3.017.428-.875.281-1.572.715-2.07 1.289-.493.567-.822 1.266-.978 2.079-.132.685-.203 1.488-.211 2.387l-.085 9.205c-.009.96.12 1.747.395 2.402.304.725.79 1.295 1.443 1.695.604.37 1.34.593 2.25.678.38.036.804.055 1.258.055.472 0 .994-.02 1.553-.06 1.434-.098 2.863-.184 4.249-.252 1.327-.066 2.357-.24 3.149-.53.877-.32 1.565-.783 2.044-1.374.48-.59.786-1.304.91-2.121.104-.675.158-1.454.16-2.315l.01-4.053.011-3.828.827-.006.538-.005c.893 4.366 1.792 8.731 2.697 13.102l.18.866.883.003c2.465.01 4.947.061 7.377.154l.897.034.205-.873c.464-1.97.927-3.94 1.388-5.915l1.485 6.168.188.784.805.05c2.471.151 4.97.35 7.429.59l.993.098.184-.982c.831-4.445 1.661-8.947 2.47-13.396l.469.029.706.042.54.035.395.026.098 8.717-.185-.02-1.222-.135.013 1.23.03 2.8.013 1.097.01.95.943.12a183.69 183.69 0 0 1 15.679 2.657l.988.213.837.191a156.56 156.56 0 0 1 15.338 4.302l1.143.386v.004l.72.254a137.285 137.285 0 0 1 10.912 4.384c1.288.584 2.265.876 3.075.92.073.003.146.005.218.005 1.153 0 1.844-.517 2.22-.95.511-.594.827-1.411.967-2.5.116-.906.175-2.019.175-3.308v-12.49c0-1.437-.088-2.667-.262-3.658zm-34.105 6.235l-.973-.195-.022-1.718-.012-.906-.892-.154c-1.038-.18-2.083-.352-3.125-.516l-.008-.664-.047-3.652-.002-.175c.821.098 1.632.198 2.427.301l1.245.161-.016-1.256-.004-.343-.01-.82.94.115.422.052.094 7.41.03 2.37a8.64 8.64 0 0 1-.047-.01zm24.33 7.942l-.078-14.412c1.068.265 2.134.54 3.2.827l.053 14.81c-1.057-.423-2.115-.83-3.175-1.225z"/><path fill="#252021" d="M85.344 8.632l-.486-2.743.527.006.624.007-.665 2.73zm-18.74-2.557c.356-.012.71-.022 1.066-.032l-.023 4.246-.022 4.004c-.359.018-.719.037-1.078.057l.057-8.275zm29.83 2.787l-.65-2.716.305.012.77.03-.426 2.674zm18.093-.05l-.012-.916-.007-.586.963.088.017 1.354.002.167-.963-.106zm.094 7.637l-.013-1.107-.01-.747.966.127.008.634.016 1.24c-.322-.05-.645-.1-.967-.147zM31.036 9.032c.38-.056.76-.11 1.138-.164l-.011.934-.013 1.056c-.38.064-.76.129-1.138.195l.008-.687.016-1.334zM12.01 19.696l.102-.792.095.728-.197.064z"/><path fill="#FFF" d="M13.84 24.454c-1.205.42-2.408.856-3.61 1.31-.253 2.135-.505 4.282-.757 6.444C7.283 33.17 5.1 34.2 2.929 35.3v-5.577c.525-.239 1.05-.474 1.576-.705.978-7.38 1.97-14.569 2.976-21.575a184.8 184.8 0 0 1 9.383-1.908c.962 6.086 1.918 12.026 2.869 17.83.492-.152.985-.302 1.479-.448l-.046 4.778a143.363 143.363 0 0 0-6.599 2.398 5791.62 5791.62 0 0 1-.726-5.64zm-3.13-3.18c.898-.303 1.797-.597 2.697-.88-.429-3.265-.86-6.566-1.293-9.903-.47 3.552-.939 7.146-1.405 10.782zm24.072 2.48c-.393.054-.718.039-.975-.048a.885.885 0 0 1-.55-.523c-.111-.261-.163-.634-.157-1.113l.08-6.388c-1.108.212-2.215.432-3.321.663l-.104 8.747c-2.448.665-4.89 1.391-7.324 2.185l.047-4.732c.453-.13.905-.26 1.358-.386l.137-13.085c-.455.082-.909.165-1.363.249l.048-4.732c3.76-.56 7.527-1.028 11.298-1.42.953-.1 1.765-.105 2.437-.025.672.082 1.213.284 1.622.602.41.319.705.773.884 1.36.179.589.262 1.334.25 2.238a32.922 32.922 0 0 1-.07 1.84 4.655 4.655 0 0 1-.361 1.534c-.203.472-.519.906-.948 1.309-.43.403-1.03.782-1.8 1.143 1.137.089 1.92.399 2.347.918.429.52.636 1.327.622 2.424l-.028 2.167c.487-.09.975-.18 1.463-.266l-.054 4.18c-1.37.278-2.74.574-4.109.886-.56.127-1.036.22-1.43.273zM29.957 8.09l-.05 4.266c1.106-.2 2.213-.391 3.321-.573l.052-4.169c-1.108.15-2.216.31-3.323.476zM45.55 21.45c-.696.008-1.27-.103-1.724-.34-.454-.237-.791-.63-1.012-1.183-.222-.552-.326-1.311-.314-2.272l.134-10.464c.012-.943.131-1.731.357-2.362.225-.63.558-1.147.998-1.547.44-.398.994-.695 1.66-.89.665-.195 1.454-.32 2.368-.377 2.956-.184 5.914-.336 8.872-.46l-.06 5.969c-1.685.109-3.37.23-5.054.366l.025-2.157c-1.08.076-2.16.158-3.24.245l-.136 11.176c1.083-.147 2.166-.286 3.25-.417l.035-3.02c1.77-.19 3.54-.36 5.312-.51l-.068 6.806c-2.998.332-5.993.732-8.984 1.205-.916.145-1.723.224-2.419.233zm29.004-5.535c-.095.627-.322 1.16-.68 1.6-.356.44-.88.784-1.573 1.037-.691.254-1.634.405-2.827.464-1.424.07-2.847.156-4.27.255-1.026.071-1.904.075-2.635.006-.73-.069-1.325-.242-1.782-.522a2.478 2.478 0 0 1-1.007-1.187c-.214-.512-.318-1.17-.31-1.971l.084-9.205c.008-.837.072-1.567.192-2.191.12-.624.364-1.148.73-1.57.368-.423.895-.746 1.582-.966.686-.221 1.59-.348 2.711-.377 1.64-.043 3.28-.08 4.92-.108 1.04-.018 1.885.068 2.538.253.653.186 1.166.471 1.539.855s.626.861.76 1.433c.133.572.199 1.23.197 1.971l-.022 8.07a14.6 14.6 0 0 1-.147 2.153zM65.522 5.02l-.073 10.484c1.087-.065 2.173-.122 3.26-.173l.057-10.41c-1.081.03-2.163.062-3.244.099zm35.295 14.732a207.568 207.568 0 0 0-7.468-.595 14862.465 14862.465 0 0 0-2.215-9.198 15.1 15.1 0 0 1-.112-.539c-.032-.171-.064-.35-.097-.538l-.113-.666c-.06.287-.112.531-.152.734-.04.202-.081.4-.122.594-.04.194-.087.397-.138.607-.05.21-.107.46-.168.746a3097.22 3097.22 0 0 1-1.876 8.012c-2.471-.094-4.943-.145-7.414-.154-.966-4.664-1.925-9.32-2.877-13.976-.478.001-.956.005-1.435.009l.007-3.688c2.917-.017 5.834-.012 8.751.012l.01 3.693-1.84-.018c.398 2.259.798 4.521 1.2 6.786.064.354.111.663.143.925l.096.798c.032.27.054.566.065.886.011.32.038.717.081 1.19l.107-1.06c.03-.303.072-.605.124-.908a29.003 29.003 0 0 1 .479-2.268c.814-3.324 1.625-6.653 2.432-9.992 1.733.024 3.467.055 5.2.094.8 3.332 1.603 6.682 2.41 10.056.128.505.225.927.29 1.266.066.338.126.656.18.952.054.295.103.604.147.925.045.32.1.706.166 1.159.038-.514.066-.933.085-1.26.018-.325.042-.616.07-.873l.089-.743c.03-.24.074-.521.134-.845.358-2.236.714-4.477 1.07-6.726a414.52 414.52 0 0 0-1.996-.08l-.028-3.765c2.917.08 5.834.184 8.75.315l.04 3.878c-.477-.03-.956-.057-1.434-.084-.875 4.825-1.756 9.602-2.641 14.339zm5.445-3.285c.469.052.938.105 1.407.16l-.123-10.96-1.403-.092-.042-3.898c5.127.245 10.252.576 15.372 1.027l.086 6.628c-1.66-.214-3.32-.411-4.981-.594l-.03-2.332c-1.048-.101-2.096-.197-3.144-.287l.045 3.674c1.486.157 2.971.325 4.455.507l.047 3.653a224.73 224.73 0 0 0-4.458-.596l.05 4.034c1.05.153 2.101.313 3.151.481l-.032-2.53c1.777.26 3.553.544 5.326.851l.088 6.846c-5.24-1.13-10.5-2.01-15.772-2.674l-.042-3.898zm17.597 2.694c.456.091.912.184 1.368.279l-.153-12.08c-.456-.059-.912-.116-1.368-.172l-.055-4.284c2.891.275 5.78.59 8.667.957l.053 4.547c-.455-.073-.91-.144-1.365-.214l.148 12.582c.878.215 1.755.436 2.632.665l-.044-3.898c1.847.428 3.692.888 5.533 1.38l.083 8.855a156.812 156.812 0 0 0-15.445-4.333l-.054-4.284zm33.325 12.012c-.111.864-.348 1.505-.71 1.925-.363.42-.881.607-1.557.571-.675-.036-1.568-.318-2.682-.823a137.681 137.681 0 0 0-11-4.42l-.042-4.86c.451.143.903.286 1.353.432l-.112-13.728c-.453-.096-.906-.191-1.36-.283l-.042-4.86c3.654.604 7.3 1.305 10.935 2.126 1.048.237 1.915.542 2.602.908.687.368 1.241.871 1.661 1.514.42.64.711 1.433.875 2.37.164.936.245 2.095.245 3.47v12.49c0 1.247-.055 2.305-.166 3.168zm-8.859-19.55l.078 14.41c1.06.396 2.118.803 3.175 1.226l-.054-14.81a166.835 166.835 0 0 0-3.199-.827z"/><path fill="#F1334E" d="M148.325 11.622c1.068.265 2.134.54 3.2.827l.053 14.81c-1.057-.423-2.115-.83-3.175-1.225l-.078-14.412m-1.097-1.395l.007 1.401.036 6.62.042 7.792.004.752.706.263c1.09.406 2.15.815 3.15 1.216l1.5.6-.005-1.616-.054-14.81-.003-.832-.803-.216a168.613 168.613 0 0 0-3.22-.833l-1.36-.337z"/><path fill="#252021" d="M151.524 12.45l-1.572 1.123v13.045l1.626.64z"/><path fill="#979799" d="M148.325 13.183l1.627.39 1.572-1.124-3.199-.827zM115.471 7.398l-.953.665-.01-.753zM114.608 15.342l-.01-.747.966.127z"/></svg>