<?xml version="1.0" encoding="utf-8"?>
<!-- Generator: Adobe Illustrator 22.0.1, SVG Export Plug-In . SVG Version: 6.00 Build 0)  -->
<svg version="1.1" id="Layer_1" xmlns="http://www.w3.org/2000/svg" xmlns:xlink="http://www.w3.org/1999/xlink" x="0px" y="0px"
	 viewBox="0 0 90.8004 54.6796" enable-background="new 0 0 90.8004 54.6796" xml:space="preserve">
<path fill="#0054A4" d="M11.4012,12.4801L16.309,1.1853c0.4302-0.9466,1.3115-1.1535,2.102-1.1535
	c0.7886,0,51.6952,1.7881,51.6952,1.7881c0.8506,0,1.333,0.3062,1.76,1.3317c0.4256,1.0256,4.3013,10.4815,4.3013,10.4815
	c0.2461,0.6077,1.1522,0.2383,1.5165,0.1195c0.3623-0.1195,0.85-0.3649,1.3937-0.6639c0.5458-0.2996,2.2424-0.4341,3.3946,0.4811
	c1.1515,0.9159,5.6415,5.3295,6.7298,12.6038c1.0915,7.2775-0.079,13.0046-4.5083,17.6082
	c-4.2374,4.4038-13.7096,10.898-36.7374,10.898c-23.0311,0-35.578-4.0963-42.7289-11.2479
	c-7.1502-7.1502-5.3746-17.8993-3.8549-21.1954c2.3012-4.9463,6.2879-7.5941,8.7744-8.8357
	C11.4652,12.7439,11.4012,12.4801,11.4012,12.4801"/>
<path fill="#FFFFFF" d="M12.9181,11.1624l4.1708-9.5493c0.5503-1.2717,1.1339-1.5648,1.9212-1.5648
	C21.4509,0.0483,22.0345,0,71.1303,0c0.85,0,1.6523,0.5418,2.0792,1.5687c0.423,1.0275,4.2543,10.3398,4.2543,10.3398
	c0.2448,0.6071,0.8526,0.2207,1.2149,0.0999c0.3643-0.1175,1.0288-0.4596,1.5746-0.7605c0.5438-0.2944,2.3436-0.4602,3.4938,0.4576
	c1.1522,0.9133,5.4431,5.5195,6.6893,12.7702c1.2005,6.9629-0.5791,13.5771-5.1859,17.8125
	c-4.6101,4.2426-13.4577,10.1564-36.4868,10.1564c-23.0298,0-35.1557-4.2367-42.3085-11.3882
	c-7.1508-7.1476-5.4914-17.0618-4.1186-20.4211C5.1529,13.7332,12.0975,11.5377,12.9181,11.1624"/>
<linearGradient id="SVGID_1_" gradientUnits="userSpaceOnUse" x1="45.4676" y1="53.0995" x2="45.4676" y2="0.867">
	<stop  offset="0" style="stop-color:#5DB7E1"/>
	<stop  offset="0.0387" style="stop-color:#55AFDC"/>
	<stop  offset="0.2144" style="stop-color:#378EC8"/>
	<stop  offset="0.3957" style="stop-color:#1F75B8"/>
	<stop  offset="0.5828" style="stop-color:#0D62AD"/>
	<stop  offset="0.7792" style="stop-color:#0358A6"/>
	<stop  offset="1" style="stop-color:#0054A4"/>
</linearGradient>
<path fill="url(#SVGID_1_)" d="M19.2317,0.867c-0.7906,0-1.4531,0.4282-1.696,1.1529l-4.1205,9.5095
	c0,0-7.8781,2.1895-11.398,9.7549c-1.5197,3.2993-3.029,13.2768,4.1205,20.427c7.1515,7.1508,19.28,11.3882,42.3098,11.3882
	S80.2072,46.922,84.816,42.6813c4.6075-4.2374,6.122-10.1825,5.0338-17.4561c-1.0902-7.2781-5.5796-11.6885-6.7318-12.6038
	c-1.1502-0.9152-2.8501-0.7814-3.3939-0.4818c-0.5444,0.2996-1.0321,0.5431-1.3957,0.6607
	c-0.3643,0.1208-1.2717,0.4902-1.5152-0.1175c0,0-3.8757-9.4546-4.3013-10.4802c-0.427-1.0269-0.91-1.3357-1.76-1.3357H19.2317z"/>
<path fill="#0054A4" d="M31.7681,8.6927c-0.2918-0.6789-0.8637-1.0092-1.5445-1.0092h-3.1994c-0.6789,0-1.2599,0.4857-1.068,1.0654
	c0.1945,0.5843,0.9707,3.3966,0.9707,3.3966h5.917C32.8439,12.1454,32.0566,9.3703,31.7681,8.6927 M30.0323,22.038
	c0,0-1.8239-0.4674-2.8149-0.6776c-1.3559-0.2925-2.6171-0.6809-2.6171-0.6809L20.624,7.6835
	c-0.5836-1.4571,0.1945-3.5892,2.5198-3.5892h8.7306c1.9395,0,3.5872,0.583,4.1708,2.4246
	c0.4602,1.4623,5.2355,17.1675,5.2355,17.1675c-1.2612,0-5.0429-0.5836-5.0429-0.5836l-2.2293-7.079h-5.917L30.0323,22.038z
	 M46.1294,13.9868h2.8136c1.164,0,2.4239-0.8722,1.7449-3.298c-0.4641-1.6542-0.9701-3.0055-2.9109-3.0055h-4.1688l4.9457,16.2941
	c0,0-1.1646,0.096-2.4245,0c-1.2599-0.0973-2.6184-0.0973-2.6184-0.0973l-6.013-19.786h11.2505
	c1.5517,0,4.8497,0.2918,5.7206,3.0068c0.5353,1.6653,0.8212,2.6354,1.2619,4.0729c1.0686,3.4912-1.9395,4.2687-1.9395,4.2687
	l6.4021,7.6601l-5.7212,0.7122L46.1294,13.9868z M66.3033,21.4537c0,0-1.1646,0.3923-2.2313,0.6815
	c-0.9544,0.2585-2.3286,0.4818-2.3286,0.4818L56.1201,4.0942h4.8484L66.3033,21.4537z M65.2363,4.0942h4.7511l-0.8696,6.1442
	c1.6477-0.2918,3.0036,0.9355,3.5859,2.683c0.5816,1.7437,1.649,5.3315,1.649,5.3315c-1.3592,0.8728-4.2681,2.0368-4.2681,2.0368
	s-1.7117-5.3459-1.9362-5.8818c-0.7755-1.8409-3.879-0.9694-3.879-0.9694L65.2363,4.0942z"/>
<path fill="#FFFFFF" d="M32.8517,7.2565c-0.2905-0.6789-0.8637-1.006-1.5413-1.006H28.111c-0.6809,0-1.2645,0.4844-1.0667,1.0634
	c0.1913,0.5842,0.9662,3.3959,0.9662,3.3959h5.919C33.9295,10.7098,33.1448,7.9373,32.8517,7.2565 M31.1159,20.6011
	c0,0-1.8227-0.4641-2.8136-0.6782c-1.3552-0.2886-2.6184-0.6789-2.6184-0.6789L21.709,6.2505
	c-0.5836-1.4571,0.1919-3.5911,2.5205-3.5911h8.7287c1.9408,0,3.5885,0.5823,4.1721,2.4271
	c0.4589,1.461,5.2362,17.1636,5.2362,17.1636c-1.2619,0-5.0449-0.5803-5.0449-0.5803l-2.228-7.0804h-5.9184L31.1159,20.6011z
	 M47.2147,12.5523h2.8136c1.164,0,2.4226-0.8741,1.7443-3.2967C51.3097,7.6007,50.8032,6.25,48.8637,6.25h-4.1701l4.9457,16.2908
	c0,0-1.1627,0.0986-2.4245,0c-1.2612-0.0953-2.6184-0.0953-2.6184-0.0953L38.5833,2.659h11.2505
	c1.5517,0,4.8484,0.2938,5.7206,3.0062c0.5366,1.668,0.8225,2.6354,1.2619,4.0755c1.0667,3.4912-1.9395,4.2687-1.9395,4.2687
	l6.4021,7.6601l-5.7212,0.7122L47.2147,12.5523z M67.3884,20.0211c0,0-1.164,0.3884-2.2313,0.6796
	c-0.9544,0.2579-2.3286,0.4837-2.3286,0.4837L57.2033,2.6591h4.8517L67.3884,20.0211z M66.3217,2.6595h4.7525l-0.8709,6.1449
	c1.649-0.2911,3.0036,0.9361,3.5852,2.6804c0.5823,1.7469,1.6497,5.3341,1.6497,5.3341c-1.3592,0.8741-4.2681,2.0374-4.2681,2.0374
	s-1.7117-5.3471-1.9362-5.8811c-0.7755-1.8442-3.879-0.9708-3.879-0.9708L66.3217,2.6595z"/>
<path fill="#0054A4" d="M83.0771,17.774c-0.3453-0.4792-0.6417-0.7122-0.9635-0.7579c-0.3845-0.0542-0.6783,0.1763-0.961,0.3982
	c-8.2789,6.4909-18.7192,9.7308-31.9347,9.9233c-19.8695,0.2886-35.204-7.0908-39.4309-9.3587
	c-0.7233-0.389-1.2142-0.5862-2.1432,0.2135c-0.5745,0.4935-0.8114,0.8813-0.7749,1.2573c0.0457,0.4321,0.4589,0.6613,0.6352,0.7592
	c11.7016,6.4785,27.7019,10.377,41.7582,10.1734c13.9374-0.2024,24.9673-3.6426,33.7221-10.5154
	C83.7306,19.282,83.7547,18.7147,83.0771,17.774 M85.9011,22.6367c-0.2161-0.6208-0.4746-0.959-0.8147-1.0634
	c-0.4073-0.1247-0.7599,0.1332-0.97,0.2885c-5.2858,3.8973-16.7367,10.4502-34.012,10.5507
	C34.7589,32.502,18.1449,28.6086,5.6606,21.9976c-0.3878-0.2043-0.6946-0.3675-1.0445-0.2481
	c-0.3192,0.1091-0.5653,0.4191-0.8722,1.1039c-0.4772,1.0595-0.2402,1.4159,0.6659,1.8853
	c13.3264,6.9035,29.9874,10.8098,45.7122,10.7178c17.7315-0.1031,29.6597-6.7291,35.1922-10.6708l0.015-0.0098l0.0822-0.0712
	C85.9573,24.2316,86.3111,23.8053,85.9011,22.6367 M87.0227,28.4239c-0.0215-0.4837-0.1031-1.1529-0.5653-1.3892
	c-0.2827-0.143-0.6189-0.0868-1.0021,0.1684c-5.6827,3.7856-17.8223,10.1544-35.2901,10.285
	C28.061,37.6526,11.8845,31.1285,4.2088,27.2247c-0.4661-0.2729-0.8036-0.1952-1.0027-0.0822
	c-0.3512,0.2024-0.5216,0.6528-0.5216,1.3794c0,1.1672,0.3055,1.5113,1.2253,1.9499c14.2319,6.799,29.802,10.1832,46.2782,10.0604
	c12.9373-0.0953,25.639-3.6433,35.7693-9.9873C86.8921,29.9593,87.071,29.6009,87.0227,28.4239 M85.3476,33.9343
	c-0.1397-0.1064-0.4557-0.2396-0.9786,0.0555c-12.4177,6.9942-26.7396,8.3749-34.1725,8.5746
	c-15.279,0.4119-31.1833-2.7685-44.7807-8.9532c-0.1945-0.0888-0.6476-0.1841-0.9648,0.0849
	c-0.4472,0.3766-0.2513,1.1143-0.1873,1.3572c0.4197,1.5863,1.2129,1.9127,2.1281,2.2894l0.2246,0.0934
	c13.4622,5.6651,28.9697,8.5674,43.6624,8.1712c6.9962-0.188,20.5935-1.4277,33.0308-7.615l0.1123-0.0561
	c1.0112-0.5,1.7391-0.8624,2.1236-2.5388C85.655,34.9148,85.7549,34.2372,85.3476,33.9343 M79.1844,43.804
	c-0.4668,1.6902-0.9897,1.946-1.8011,2.2255l-0.1096,0.0385c-9.3378,3.2647-18.8727,4.8686-29.144,4.9032
	c-21.2332,0.0705-34.8469-5.6109-34.9833-5.6683c-1.1888-0.5059-1.5308-0.9302-2.0916-2.1288
	c-0.2689-0.5758-0.2768-1.0079-0.0215-1.2861c0.2768-0.3022,0.7481-0.2729,1.0673-0.156
	c11.3882,4.1518,23.507,6.2356,36.0187,6.1945c10.7335-0.0346,20.5158-1.7939,29.9084-5.3759
	c0.3009-0.1155,0.7586-0.2886,1.0673-0.0072C79.4031,42.8236,79.3137,43.3373,79.1844,43.804"/>
<path fill="#FFFFFF" d="M83.6513,16.0496c-0.3434-0.4779-0.6411-0.7122-0.9636-0.7579c-0.3845-0.0535-0.6776,0.1756-0.9603,0.3976
	c-8.2789,6.4909-18.7192,9.7314-31.9347,9.924c-19.8702,0.2886-35.2046-7.0901-39.4309-9.3593
	c-0.724-0.3884-1.2149-0.5856-2.1432,0.2135c-0.5745,0.4941-0.8121,0.8819-0.7736,1.2573c0.0437,0.4328,0.457,0.662,0.6339,0.7592
	c11.7016,6.4791,27.7019,10.377,41.7575,10.1733c13.9375-0.203,24.9679-3.6427,33.7221-10.5148
	C84.3048,17.5582,84.3295,16.9903,83.6513,16.0496 M86.4773,20.9117c-0.218-0.6202-0.4759-0.9583-0.8166-1.0628
	c-0.4074-0.1254-0.7599,0.1345-0.9694,0.2892c-5.2865,3.8972-16.7361,10.4501-34.0126,10.5507
	c-15.3449,0.0895-31.9608-3.8039-44.4438-10.4142c-0.3858-0.2056-0.6946-0.3688-1.0438-0.2487
	c-0.3192,0.109-0.5653,0.4198-0.8728,1.1032c-0.4772,1.0601-0.2396,1.4153,0.6659,1.8853
	c13.3264,6.9028,29.9881,10.8098,45.7129,10.7178c17.7309-0.1025,29.6597-6.7298,35.1922-10.6714l0.015-0.0085l0.0823-0.0718
	C86.5315,22.5071,86.8859,22.0809,86.4773,20.9117 M87.5968,26.6988c-0.0209-0.4831-0.1012-1.1529-0.5653-1.3885
	c-0.2827-0.1436-0.6182-0.0868-1.0027,0.1691c-5.6814,3.785-17.821,10.1537-35.2895,10.2843
	c-22.1021,0.1645-38.28-6.3597-45.9557-10.2634c-0.4668-0.2716-0.8043-0.1958-1.0034-0.0816
	c-0.3493,0.2017-0.5209,0.6534-0.5209,1.3781c0,1.1685,0.3055,1.5119,1.226,1.9506c14.2312,6.799,29.8026,10.1832,46.2782,10.0604
	c12.936-0.0966,25.6397-3.6433,35.768-9.9873C87.4663,28.2342,87.6458,27.8771,87.5968,26.6988 M85.9237,32.2092
	c-0.1416-0.1057-0.4576-0.2383-0.9805,0.0575c-12.4177,6.9929-26.7397,8.3729-34.1719,8.5733
	c-15.2796,0.4113-31.184-2.7685-44.7813-8.9526c-0.1945-0.0881-0.6469-0.1854-0.9636,0.0836
	c-0.4465,0.3773-0.252,1.115-0.188,1.3579c0.4191,1.5857,1.211,1.9127,2.1295,2.2907l0.2233,0.0921
	c13.4616,5.6651,28.9697,8.5674,43.6624,8.1712c6.9961-0.188,20.5928-1.4277,33.0321-7.615l0.111-0.0561
	c1.0106-0.5,1.7404-0.8624,2.1229-2.5388C86.2292,33.1897,86.3298,32.5127,85.9237,32.2092 M79.7606,42.0796
	c-0.4681,1.6902-0.9897,1.9467-1.8011,2.2261l-0.111,0.0379c-9.3384,3.2654-18.8714,4.8693-29.144,4.9026
	c-21.2319,0.0705-34.8469-5.6102-34.9827-5.6683c-1.1881-0.5053-1.5302-0.9296-2.0929-2.1282
	c-0.267-0.5758-0.2748-1.0086-0.0209-1.2867c0.2761-0.3016,0.7475-0.2716,1.0667-0.1547
	c11.3889,4.1519,23.507,6.2356,36.0187,6.1932c10.7335-0.0346,20.5158-1.7933,29.909-5.3739
	c0.3009-0.1169,0.7599-0.2905,1.0667-0.0085C79.9792,41.0985,79.8885,41.6129,79.7606,42.0796"/>
<linearGradient id="SVGID_2_" gradientUnits="userSpaceOnUse" x1="45.4316" y1="16.146" x2="45.4316" y2="50.109">
	<stop  offset="0" style="stop-color:#D0E6F4"/>
	<stop  offset="0.0738" style="stop-color:#C4E1F2"/>
	<stop  offset="0.3669" style="stop-color:#98CFEB"/>
	<stop  offset="0.6293" style="stop-color:#78C2E5"/>
	<stop  offset="0.8493" style="stop-color:#64BAE2"/>
	<stop  offset="1" style="stop-color:#5DB7E1"/>
</linearGradient>
<path fill="url(#SVGID_2_)" d="M11.6075,41.0251c-0.2539,0.2788-0.2461,0.7109,0.0215,1.2867
	c0.5627,1.1986,0.9048,1.6229,2.0929,2.1288c0.1351,0.0581,13.7508,5.7388,34.982,5.6677
	c10.2732-0.0333,19.8062-1.6372,29.1446-4.9019l0.111-0.0392c0.8114-0.2788,1.333-0.536,1.8011-2.2261
	c0.1273-0.4661,0.2187-0.9798-0.0914-1.2606c-0.3068-0.2807-0.7664-0.1071-1.0673,0.0085c-9.3926,3.582-19.1749,5.34-29.9084,5.3745
	c-12.5117,0.0418-24.6305-2.0413-36.0187-6.1938c-0.1345-0.049-0.2957-0.0823-0.4576-0.0823
	C11.9934,40.7875,11.7681,40.8509,11.6075,41.0251 M5.0266,32.8337c-0.4472,0.376-0.252,1.115-0.1887,1.3572
	c0.4198,1.5863,1.2116,1.9127,2.1301,2.29l0.2232,0.092c13.4616,5.6657,28.969,8.5675,43.6618,8.1719
	c6.9968-0.188,20.5935-1.427,33.0327-7.6157l0.1103-0.0555c1.0112-0.5007,1.7404-0.8617,2.1236-2.5381
	c0.109-0.4837,0.2095-1.1607-0.1965-1.4636c-0.141-0.1057-0.4569-0.2396-0.9799,0.0561
	c-12.4177,6.9935-26.7397,8.3742-34.1719,8.574c-15.2796,0.412-31.184-2.7679-44.7813-8.9526
	c-0.0986-0.045-0.2644-0.092-0.4446-0.092c-0.0013,0-0.0026,0-0.0033,0C5.3687,32.6575,5.1813,32.7018,5.0266,32.8337
	 M86.0283,26.3409c-5.6814,3.785-17.8203,10.1545-35.2888,10.2844c-22.1021,0.1652-38.2807-6.3583-45.9557-10.2622
	c-0.4668-0.2729-0.8043-0.1965-1.0034-0.0829c-0.3493,0.203-0.5216,0.6534-0.5216,1.3794c0,1.1672,0.3055,1.5106,1.2266,1.9499
	c14.2312,6.7983,29.8026,10.1832,46.2789,10.0604c12.9354-0.0959,25.639-3.6427,35.7673-9.9873
	c0.9348-0.5869,1.1144-0.9426,1.0654-2.1209c-0.0216-0.4837-0.1012-1.1529-0.5653-1.3892c-0.1018-0.0516-0.2102-0.077-0.3245-0.077
	C86.5023,26.0954,86.2751,26.177,86.0283,26.3409 M84.6907,21.0003c-5.2858,3.8966-16.7354,10.4501-34.0119,10.55
	C35.3339,31.6404,18.7179,27.747,6.2356,21.1361c-0.3871-0.2043-0.6952-0.3688-1.0452-0.2487
	c-0.3186,0.1097-0.5647,0.4197-0.8722,1.1039c-0.4772,1.0595-0.2396,1.4146,0.6659,1.8853
	C18.3106,30.78,34.9722,34.687,50.697,34.595c17.7309-0.1038,29.6597-6.7304,35.1916-10.6715l0.0157-0.0098l0.0823-0.0712
	c0.5451-0.4739,0.8989-0.8996,0.4902-2.0688c-0.2174-0.6195-0.4759-0.9577-0.816-1.0634c-0.0751-0.0228-0.1482-0.0333-0.2193-0.0333
	C85.1287,20.6771,84.8624,20.8736,84.6907,21.0003 M81.727,16.5527c-8.2782,6.4902-18.7186,9.7301-31.9341,9.9227
	c-19.8702,0.2892-35.2046-7.0902-39.4315-9.3587c-0.7233-0.3884-1.2142-0.5869-2.1425,0.2134
	c-0.5745,0.4942-0.8121,0.8806-0.7736,1.256c0.0437,0.4335,0.457,0.6632,0.6332,0.7599
	c11.7022,6.4791,27.7019,10.3777,41.7575,10.174c13.9381-0.203,24.968-3.6427,33.7228-10.5161
	c0.7468-0.5836,0.771-1.1522,0.0927-2.0923c-0.3434-0.4785-0.6411-0.7122-0.9636-0.7579c-0.0379-0.0059-0.0757-0.0078-0.1123-0.0078
	C82.2447,16.146,81.9816,16.3516,81.727,16.5527"/>
<linearGradient id="SVGID_3_" gradientUnits="userSpaceOnUse" x1="47.975" y1="2.736" x2="47.975" y2="48.6598">
	<stop  offset="0" style="stop-color:#FFFFFF"/>
	<stop  offset="0.1195" style="stop-color:#E1F1F9"/>
	<stop  offset="0.3269" style="stop-color:#B2DDF1"/>
	<stop  offset="0.525" style="stop-color:#8DCCEA"/>
	<stop  offset="0.7087" style="stop-color:#73C1E5"/>
	<stop  offset="0.8725" style="stop-color:#63B9E2"/>
	<stop  offset="1" style="stop-color:#5DB7E1"/>
</linearGradient>
<path fill="url(#SVGID_3_)" d="M26.536,7.8788c-0.1945-0.583,0.3897-1.0687,1.0673-1.0687h3.2014
	c0.6789,0,1.2508,0.331,1.5406,1.0105c0.2918,0.6776,1.0758,3.4514,1.0758,3.4514H27.506
	C27.506,11.2721,26.7311,8.4611,26.536,7.8788 M23.725,3.2256c-2.3286,0-3.1041,2.1314-2.5238,3.5846l3.9776,12.9974
	c0,0,1.2625,0.3871,2.6191,0.6796c0.9897,0.2128,2.8123,0.6796,2.8123,0.6796l-1.9395-6.0143h5.9151l2.2313,7.0797
	c0,0,3.7817,0.5829,5.0429,0.5829c0,0-4.7753-15.7046-5.2375-17.1682c-0.581-1.8429-2.23-2.4213-4.1708-2.4213H23.725z
	 M38.0789,3.2256l6.0124,19.7814c0,0,1.3572,0,2.6171,0.0979c1.2619,0.0973,2.4258,0,2.4258,0l-4.947-16.2947h4.1701
	c1.9415,0,2.4461,1.3533,2.9109,3.0094c0.6776,2.4239-0.5836,3.2954-1.7463,3.2954h-2.8136l8.3449,9.8313l5.7192-0.7142
	l-6.4008-7.6627c0,0,3.0068-0.7755,1.9395-4.268c-0.4407-1.4388-0.7266-2.4063-1.2599-4.0709
	c-0.8734-2.7157-4.1721-3.0049-5.7238-3.0049H38.0789z M56.699,3.2256l5.6253,18.5247c0,0,1.3741-0.2265,2.3273-0.4857
	c1.068-0.2931,2.2306-0.6815,2.2306-0.6815L61.5474,3.2256H56.699z M65.8154,3.2256l-0.9681,9.3417c0,0,3.1035-0.8734,3.8816,0.9695
	c0.2252,0.5353,1.9362,5.8824,1.9362,5.8824s2.9096-1.164,4.2681-2.0368c0,0-1.068-3.5885-1.6503-5.3334
	c-0.5803-1.7476-1.9369-2.9736-3.5872-2.6837l0.8728-6.1397H65.8154z"/>
</svg>
