<svg xmlns="http://www.w3.org/2000/svg" viewBox="0 0 133.315 53.41"><path fill="#FFF" d="M21.657 16.18c5.182.795 10.366 1.574 15.56 2.29.09-3.846.18-7.693.267-11.538-2.332-.068-4.663-.137-6.995-.21-1.569-.05-2.945.31-4.131 1.017-1.186.706-1.999 1.642-2.439 2.79a198.078 198.078 0 0 1-2.262 5.65M9.06 23.777c1.647-5.348 3.985-10.366 6.038-15.56C17.65 1.82 25.35.037 31.537.05h13.235c.606 0 1.107.242 1.501.721.396.479.59 1.03.582 1.654-.128 10.085-.277 20.17-.405 30.255-.008.657-.251 1.173-.73 1.54-.478.366-1.047.489-1.705.361a174.83 174.83 0 0 1-4.752-.979 2.875 2.875 0 0 1-1.687-1.055 2.798 2.798 0 0 1-.632-1.841c.04-1.988.083-3.976.128-5.964-5.812-1.136-11.6-2.384-17.384-3.653a73.939 73.939 0 0 0-1.726 4.93 2.065 2.065 0 0 1-1.093 1.303 2.393 2.393 0 0 1-1.743.187c-1.835-.488-2.74-.727-4.517-1.186a2.088 2.088 0 0 1-1.324-.995c-.209-.339-.328-.7-.313-1.034.007-.156.044-.336.09-.518m50.36-7.688c3.493.087 6.98.102 10.473.087 1.644-.017 3.083-.408 4.323-1.143 1.239-.736 1.836-1.868 1.816-3.396-.021-1.529-.636-2.632-1.859-3.33-1.221-.7-2.638-1.061-4.284-1.08-3.478-.093-6.963.016-10.441.032l-.027 8.83m-9.546 17.116c.099-10.241.213-20.482.312-30.724.006-.66.233-1.23.68-1.71.446-.479.988-.72 1.626-.72 6.69 0 13.382-.002 20.073 0 3.05.023 6.227.95 8.436 3.138 2.148 2.128 3.488 5.148 3.592 8.173.177 5.172-3.786 8.266-8.445 9.577.944.328 1.83.902 2.67 1.715.839.812 1.808 2.005 2.931 3.56a191.346 191.346 0 0 0 4.822 6.539c.314.44.485.84.509 1.199.01.153-.005.301-.047.448-.136.492-.534.8-1.191.91-2.01.345-4.034.647-6.057.898-.655.082-1.367-.07-2.129-.456-.763-.385-1.347-.891-1.757-1.514a211.949 211.949 0 0 1-4.244-6.473c-1.333-2.259-3.503-4.055-6.218-4.13a136.002 136.002 0 0 1-6.04-.265l-.032 11.004c-.002.661-.232 1.205-.693 1.63-.461.425-1.018.608-1.672.542-1.892-.193-2.842-.31-4.743-.577-.658-.092-1.222-.413-1.69-.956-.469-.543-.699-1.147-.693-1.808m38.76-.877c-.733-9.95-1.368-19.907-2.079-29.858-.047-.655.107-1.231.455-1.727C87.362.25 87.8 0 88.333 0h3.843c.53 0 1.01.249 1.446.738a3.07 3.07 0 0 1 .777 1.689c.46 3.625.924 7.25 1.391 10.874 1.916-.181 2.873-.277 4.792-.47 1.309-.133 2.405-.573 3.271-1.29.866-.717 1.6-1.79 2.187-3.261.793-1.965 1.494-3.957 2.18-5.961C108.694.84 109.584.017 110.954 0h5.381c.625 0 1.047.232 1.257.673.056.111.096.221.12.33.079.36.034.778-.132 1.252a152.051 152.051 0 0 1-3.233 7.69 8.86 8.86 0 0 1-1.791 2.661c-.73.743-1.783 1.352-3.153 1.823 1.047.03 2.204.378 3.48 1.004 1.276.626 2.452 1.312 3.524 2.09 2.683 2.016 5.266 4.093 7.738 6.363.36.369.577.722.651 1.051.031.14.039.28.022.419-.056.468-.378.786-.973.936-2.099.526-3.165.802-5.325 1.365-.613.16-1.326.101-2.136-.16-.809-.26-1.48-.645-2.008-1.146-1.776-1.704-3.617-3.336-5.47-4.957-1.28-1.147-2.472-1.946-3.597-2.44-1.124-.492-2.37-.632-3.756-.398-1.988.337-2.982.502-4.974.82l1.445 11.086c.083.641-.073 1.242-.475 1.797-.401.553-.931.91-1.585 1.055-1.891.42-2.84.622-4.74 1.002-.656.131-1.242-.007-1.751-.404-.509-.398-.786-.928-.834-1.584m-60.771 8.458c.455.111.755.313.9.606.144.293.158.679.04 1.16-.117.48-.307.816-.57 1.007-.263.192-.622.232-1.078.121-.455-.111-.755-.312-.901-.604-.146-.292-.16-.679-.043-1.159s.308-.816.572-1.009c.264-.192.624-.233 1.08-.122m72.888.68l.354 1.59-1.926.429.043-1.034a.83.83 0 0 1 .664-.792l.865-.192zM72.62 46.16c.225.236.353.601.384 1.094.03.494-.052.87-.246 1.133-.194.26-.525.406-.993.435-.468.029-.815-.075-1.041-.31-.226-.235-.354-.599-.385-1.093-.03-.493.052-.87.247-1.134.194-.261.526-.407.994-.436.468-.03.815.074 1.04.31m-35.277-2.942a.837.837 0 0 1 .543-.066l.87.173-.318 1.591-1.936-.383.457-.925a.83.83 0 0 1 .384-.39m12.975 1.825c.466.059.787.225.964.5.177.273.235.656.173 1.146-.062.49-.212.846-.452 1.067-.24.22-.591.301-1.057.243-.465-.059-.787-.224-.965-.498-.179-.273-.237-.654-.175-1.145s.213-.846.454-1.068c.24-.222.593-.303 1.058-.245m62.972-6.457c.268.187.466.52.593.997.128.478.123.863-.016 1.158-.138.295-.434.503-.886.624-.454.122-.814.09-1.083-.096s-.466-.518-.594-.995c-.128-.477-.122-.864.017-1.16.14-.296.435-.505.888-.626s.813-.089 1.081.098m7.567 1.263a.279.279 0 0 1-.173.139l-.983.28a.433.433 0 0 1-.26-.015.669.669 0 0 1-.25-.144l-2.37-2.106.734 2.574a.277.277 0 0 1-.028.223.297.297 0 0 1-.182.142l-.545.156a.304.304 0 0 1-.231-.023.278.278 0 0 1-.144-.175l-1.067-3.734a.288.288 0 0 1 .024-.224.28.28 0 0 1 .176-.142l.89-.254a.4.4 0 0 1 .248.02.764.764 0 0 1 .252.145l2.625 2.264-.798-2.792a.282.282 0 0 1 .023-.22.27.27 0 0 1 .168-.137l.496-.142a.268.268 0 0 1 .215.027c.068.04.114.099.137.181l1.068 3.734a.285.285 0 0 1-.025.223m-5.995 1.306c-.315.47-.869.81-1.663 1.024-.795.212-1.446.195-1.955-.055-.508-.249-.867-.765-1.076-1.547-.21-.783-.157-1.408.159-1.878.315-.47.87-.812 1.665-1.025.794-.212 1.444-.194 1.951.055.508.25.866.766 1.076 1.548.21.782.157 1.408-.157 1.878m-5.131 1.745a.294.294 0 0 1-.183.135l-.563.143a.295.295 0 0 1-.223-.028.268.268 0 0 1-.135-.176l-.96-3.77a.285.285 0 0 1 .033-.224.282.282 0 0 1 .18-.136l.563-.144a.291.291 0 0 1 .228.032c.07.043.115.103.135.181l.96 3.764a.278.278 0 0 1-.035.223m-2.78-2.989a.289.289 0 0 1-.187.13l-1.353.328.778 3.21c.02.08.007.152-.035.219a.29.29 0 0 1-.182.129l-.573.139a.291.291 0 0 1-.222-.032.27.27 0 0 1-.13-.178l-.779-3.21-1.352.327a.29.29 0 0 1-.225-.03.284.284 0 0 1-.132-.185l-.069-.285a.288.288 0 0 1 .218-.357l3.848-.933a.29.29 0 0 1 .358.218l.068.285c.02.084.01.158-.031.225m-4.371 4.744a.295.295 0 0 1-.186.126l-.572.127a.283.283 0 0 1-.35-.222l-.171-.768-2.157.48-.035.815a.366.366 0 0 1-.092.235.38.38 0 0 1-.208.13l-.604.135c-.08.018-.145.004-.198-.042a.198.198 0 0 1-.071-.115.592.592 0 0 1-.004-.076l.119-3.069c.031-.835.617-1.381 1.757-1.637l1.641-.365a.245.245 0 0 1 .206.043.298.298 0 0 1 .119.181l.847 3.803a.269.269 0 0 1-.041.219m-5.323-2.495a.29.29 0 0 1-.19.123l-1.365.277.659 3.237a.27.27 0 0 1-.044.217.283.283 0 0 1-.186.122l-.578.118a.29.29 0 0 1-.22-.04.272.272 0 0 1-.124-.183l-.659-3.237-1.363.278a.293.293 0 0 1-.224-.04.28.28 0 0 1-.125-.189l-.058-.287a.288.288 0 0 1 .231-.35l3.879-.788a.287.287 0 0 1 .35.231l.058.287a.283.283 0 0 1-.04.224m-4.553 4.563a.291.291 0 0 1-.19.124l-.57.106a.292.292 0 0 1-.345-.227l-.715-3.824a.284.284 0 0 1 .047-.221.283.283 0 0 1 .19-.124l.57-.107a.286.286 0 0 1 .226.046c.067.047.107.11.122.19l.715 3.817a.277.277 0 0 1-.05.22m-2.272.438a.297.297 0 0 1-.195.12l-.568.093a.293.293 0 0 1-.224-.05.287.287 0 0 1-.121-.196l-.496-3.007-.587 3.204a.442.442 0 0 1-.118.22.376.376 0 0 1-.214.119l-.44.072a.37.37 0 0 1-.24-.043.472.472 0 0 1-.184-.171l-1.581-2.847.496 3.007a.295.295 0 0 1-.247.345l-.566.092a.298.298 0 0 1-.347-.246l-.63-3.82a.296.296 0 0 1 .24-.346l1.262-.208a.37.37 0 0 1 .244.049.424.424 0 0 1 .18.182l1.348 2.478.483-2.78a.423.423 0 0 1 .113-.23.368.368 0 0 1 .215-.124l1.264-.209a.277.277 0 0 1 .218.053.301.301 0 0 1 .117.199l.63 3.82a.288.288 0 0 1-.052.224m-6.872 1.089a.292.292 0 0 1-.196.114l-.575.08a.291.291 0 0 1-.218-.053.265.265 0 0 1-.115-.19l-.539-3.852a.284.284 0 0 1 .058-.219.283.283 0 0 1 .195-.116l.574-.08a.286.286 0 0 1 .224.057c.065.05.103.115.114.195l.538 3.846a.276.276 0 0 1-.06.218m-4.828-2.976a.292.292 0 0 1-.203.104l-1.385.14.332 3.285a.276.276 0 0 1-.065.213.29.29 0 0 1-.198.102l-.587.06a.286.286 0 0 1-.214-.061.274.274 0 0 1-.107-.195l-.33-3.287-1.385.14a.29.29 0 0 1-.219-.062.28.28 0 0 1-.105-.2l-.03-.292a.288.288 0 0 1 .266-.324l3.938-.397a.286.286 0 0 1 .325.265l.03.292a.286.286 0 0 1-.063.217M73.65 48.99c-.401.398-1.013.623-1.833.673-.82.051-1.456-.096-1.904-.441-.449-.345-.698-.922-.748-1.73-.05-.809.126-1.412.528-1.81.402-.398 1.014-.622 1.835-.673.821-.05 1.455.097 1.902.442.448.345.697.922.747 1.73.05.808-.126 1.411-.527 1.81m-5.403.677a.275.275 0 0 1-.203.088l-1.022.011a.436.436 0 0 1-.247-.083.666.666 0 0 1-.202-.205l-1.73-2.659.028 2.676a.28.28 0 0 1-.087.209.3.3 0 0 1-.213.087l-.567.006a.304.304 0 0 1-.216-.083.275.275 0 0 1-.093-.207l-.04-3.883a.29.29 0 0 1 .083-.21.277.277 0 0 1 .207-.09l.925-.01c.074 0 .152.028.234.086.083.057.15.126.204.207l1.932 2.878-.03-2.904c0-.082.026-.15.08-.207a.27.27 0 0 1 .199-.086l.516-.005a.27.27 0 0 1 .2.082.294.294 0 0 1 .085.21l.04 3.884a.285.285 0 0 1-.082.208m-8.184-.542l-.422.918a.618.618 0 0 1-.208.245.473.473 0 0 1-.303.086l-.122-.007c-.13-.006-.216-.046-.256-.116a.314.314 0 0 1-.031-.174.796.796 0 0 1 .023-.146l.239-.992a.396.396 0 0 1 .183-.244.506.506 0 0 1 .31-.089l.255.014c.166.01.28.059.341.15a.247.247 0 0 1 .041.167.54.54 0 0 1-.05.188m-2.166.123a.281.281 0 0 1-.101.2.275.275 0 0 1-.212.068l-1.018-.087a.439.439 0 0 1-.238-.106.679.679 0 0 1-.181-.224l-1.468-2.811-.228 2.666a.28.28 0 0 1-.106.2.3.3 0 0 1-.22.066l-.566-.048a.305.305 0 0 1-.208-.104.275.275 0 0 1-.072-.214l.331-3.87a.289.289 0 0 1 .103-.2.278.278 0 0 1 .215-.07l.922.08a.408.408 0 0 1 .225.106c.077.065.138.14.183.225l1.649 3.05.247-2.894c.007-.08.04-.146.1-.198s.128-.074.205-.067l.514.044c.078.006.141.04.191.101.05.06.072.133.065.218l-.332 3.87zm-5.276-2.415c-.101.804-.386 1.364-.855 1.68-.468.316-1.11.423-1.926.32-.816-.103-1.412-.365-1.789-.788-.376-.422-.514-1.035-.413-1.838.101-.804.386-1.364.856-1.68.47-.316 1.113-.423 1.928-.32.816.103 1.412.364 1.788.787.375.423.512 1.036.411 1.839m-6.138 1.15a.276.276 0 0 1-.12.19.29.29 0 0 1-.22.055l-.573-.087a.293.293 0 0 1-.195-.112.272.272 0 0 1-.056-.215l.58-3.847a.286.286 0 0 1 .117-.193.286.286 0 0 1 .22-.056l.573.087c.085.013.151.052.199.118a.288.288 0 0 1 .054.22l-.579 3.84zm-1.343-3.824a.281.281 0 0 1-.119.193.288.288 0 0 1-.223.046l-1.371-.235-.558 3.256a.288.288 0 0 1-.338.233l-.58-.1a.29.29 0 0 1-.191-.116.274.274 0 0 1-.05-.216l.558-3.255-1.371-.236a.29.29 0 0 1-.195-.117.279.279 0 0 1-.048-.222l.05-.289a.288.288 0 0 1 .342-.242l3.902.67a.288.288 0 0 1 .241.341l-.05.289zm-5.116-1.193l-.76 3.822a.27.27 0 0 1-.125.183.293.293 0 0 1-.22.04l-.576-.114a.287.287 0 0 1-.19-.122.288.288 0 0 1-.04-.223l.152-.771-2.167-.43-.36.732a.368.368 0 0 1-.178.177.385.385 0 0 1-.245.036l-.605-.12c-.08-.017-.135-.056-.165-.12a.198.198 0 0 1-.018-.134.589.589 0 0 1 .026-.07l1.346-2.76c.366-.752 1.122-1.015 2.27-.79l1.648.327a.246.246 0 0 1 .171.123.3.3 0 0 1 .036.214m-7.595 2.707l-.439-.097c-.194-.044-.316-.18-.366-.407l-.909-4.189a.157.157 0 0 1-.003-.074.158.158 0 0 1 .066-.094.223.223 0 0 1 .192-.044l.666.147c.159.035.258.159.299.37l.597 2.887 1.76-2.364c.126-.173.268-.243.427-.21l.667.148a.219.219 0 0 1 .155.12.158.158 0 0 1-.01.18l-2.597 3.412c-.142.186-.31.258-.505.215m-2.479-2.844c-.193.787-.539 1.31-1.04 1.571-.502.26-1.152.293-1.95.098-.8-.195-1.363-.524-1.688-.988-.326-.463-.392-1.087-.2-1.874.192-.786.54-1.31 1.042-1.57s1.154-.293 1.952-.098c.8.196 1.36.524 1.686.987s.39 1.087.198 1.874m-5.246-3.294l-1.002 3.752a.283.283 0 0 1-.135.179.277.277 0 0 1-.22.03l-.988-.264a.434.434 0 0 1-.215-.146.668.668 0 0 1-.14-.252l-.953-3.026-.691 2.586a.28.28 0 0 1-.14.178.292.292 0 0 1-.228.027l-.549-.146a.297.297 0 0 1-.185-.139.273.273 0 0 1-.034-.223l1.002-3.752a.29.29 0 0 1 .137-.18.275.275 0 0 1 .223-.03l.894.238c.071.019.139.067.203.145a.762.762 0 0 1 .14.254l1.09 3.29.75-2.805a.283.283 0 0 1 .133-.178.267.267 0 0 1 .214-.03l.498.134c.076.02.133.064.171.132a.288.288 0 0 1 .025.226m-5.545-1.494l-1.078 3.732c-.022.078-.069.136-.139.175s-.144.048-.22.026l-.982-.284a.439.439 0 0 1-.212-.15.664.664 0 0 1-.135-.255l-.893-3.043-.742 2.57a.278.278 0 0 1-.143.175.295.295 0 0 1-.23.023l-.544-.157a.304.304 0 0 1-.184-.142.278.278 0 0 1-.029-.225l1.077-3.73a.287.287 0 0 1 .14-.177.28.28 0 0 1 .224-.027l.89.257c.07.02.137.07.2.149a.77.77 0 0 1 .135.256l1.024 3.312.805-2.79a.285.285 0 0 1 .137-.175.269.269 0 0 1 .215-.025l.495.143c.075.021.13.066.168.135a.29.29 0 0 1 .02.227m-6.677 2.093a.279.279 0 0 1-.145.173.292.292 0 0 1-.227.02l-.555-.167a.294.294 0 0 1-.176-.14.267.267 0 0 1-.024-.22l1.128-3.723a.283.283 0 0 1 .145-.175.284.284 0 0 1 .225-.023l.555.169c.082.025.141.073.18.145a.287.287 0 0 1 .021.225l-1.127 3.716zm120.582-4.332c-.866-2.312-1.928-4.037-2.842-5.243-1.046-1.379-2.872-1.904-4.504-1.328-7.906 2.791-33.83 11.219-58.87 11.293h-.277C41.53 40.45 15.602 32.02 7.699 29.23a3.99 3.99 0 0 0-4.511 1.337c-.955 1.259-2.069 3.082-2.953 5.548A3.997 3.997 0 0 0 2.73 41.25c11.724 3.926 39.993 12.616 62.048 12.141 29.289-.63 53.683-8.404 65.792-12.42 2.14-.71 3.285-3.057 2.494-5.169"/></svg>