<?xml version="1.0" encoding="utf-8"?>
<!-- Generator: Adobe Illustrator 22.0.1, SVG Export Plug-In . SVG Version: 6.00 Build 0)  -->
<svg version="1.1" id="Layer_1" xmlns="http://www.w3.org/2000/svg" xmlns:xlink="http://www.w3.org/1999/xlink" x="0px" y="0px"
	 viewBox="0 0 594.73 385.9526" enable-background="new 0 0 594.73 385.9526" xml:space="preserve">
<path d="M58.9531,385.9526L0,283.2607h26.71c0.1938-75.582,29.7183-146.6099,83.1836-200.0757
	C163.5361,29.5425,234.8574,0,310.7192,0c75.8623,0,147.1836,29.5425,200.8262,83.1851
	C565.188,136.8271,594.73,208.1489,594.73,284.0107c0,23.8745-2.9727,47.6089-8.8359,70.5454l-0.2168,0.8467l-60.915-25.9404
	l0.125-0.6025c3.0586-14.6797,4.6094-29.7695,4.6094-44.8491c0-120.6338-98.1436-218.7769-218.7773-218.7769
	c-120.7915,0-219.1094,97.7368-219.5166,218.0269h27.083L58.9531,385.9526z M2.5908,284.7607l56.3662,98.186l56.73-98.186H89.7012
	v-0.75c0-121.4609,99.1484-220.2769,221.0181-220.2769c58.8389,0,114.1553,22.9126,155.7598,64.5176
	c41.6045,41.6045,64.5176,96.9209,64.5176,155.7593c0,14.9761-1.5195,29.9614-4.5166,44.5532l58.1758,24.7734
	c5.6895-22.5518,8.5742-45.8721,8.5742-69.3267C593.23,128.2339,466.4966,1.5,310.7192,1.5
	C154.9424,1.5,28.209,128.2339,28.209,284.0107v0.75H2.5908z"/>
</svg>
