<svg xmlns="http://www.w3.org/2000/svg" viewBox="0 0 541.96 28.63"><path d="M18.12 11.52a544 544 0 0 0 4.76 11.22c1.25 2.84 2.06 4.63 2.44 5.38a8.12 8.12 0 0 0-2.12-.2c-.38 0-.74.01-1.1.05-.36.04-.7.1-1.02.15a58.24 58.24 0 0 0-1.8-5.06c-.75-1.86-1.52-3.74-2.32-5.66-.86-.06-1.72-.08-2.6-.08h-2.6c-.83 0-1.66.01-2.5.04-.84.02-1.65.04-2.42.04a192.3 192.3 0 0 0-2.54 6.52 59.77 59.77 0 0 0-1.34 4.2 5.36 5.36 0 0 0-2.96 0A1489.97 1489.97 0 0 0 9.54 6.78c1.1-2.5 2.1-4.75 2.98-6.78h.76l4.84 11.52zM9.44 15.6a71.06 71.06 0 0 0 5.82-.02c.41-.02.8-.02 1.14-.02L11.96 5.4 7.6 15.56c.48 0 1.1.01 1.84.04zM40.48.46c.93.3 1.8.78 2.6 1.42-.27.48-.48.97-.62 1.48A28 28 0 0 0 42 5.24h-.48c-.96-2.5-2.55-3.76-4.76-3.76-1.52 0-2.76.47-3.72 1.4a4.75 4.75 0 0 0-1.44 3.56c0 .67.1 1.27.28 1.82.19.54.51 1.06.98 1.54s1.1.93 1.88 1.36c.78.42 1.8.86 3.02 1.32 1.2.45 2.2.92 3.02 1.4.81.48 1.47 1 1.98 1.56.5.56.87 1.18 1.1 1.88a9.11 9.11 0 0 1-.36 5.9 8.16 8.16 0 0 1-2 2.86c-.87.8-1.9 1.42-3.1 1.88s-2.53.67-4 .67c-1.28 0-2.45-.17-3.5-.51a9.76 9.76 0 0 1-3.1-1.76c.19-.46.34-.94.46-1.44.12-.51.22-1.22.3-2.12h.48a7.4 7.4 0 0 0 2.54 3.06 6.56 6.56 0 0 0 3.78 1.1c.83 0 1.6-.14 2.3-.42a5.22 5.22 0 0 0 3-3.04c.28-.71.42-1.49.42-2.34 0-1.36-.4-2.46-1.22-3.28a10.44 10.44 0 0 0-3.74-2.2 38.9 38.9 0 0 1-3.18-1.38c-.95-.47-1.75-1-2.42-1.62-.67-.62-1.17-1.33-1.52-2.14s-.52-1.8-.52-2.98c0-1.15.21-2.19.64-3.12a6.84 6.84 0 0 1 1.78-2.38A8.13 8.13 0 0 1 33.64.54C34.7.18 35.88 0 37.16 0s2.38.15 3.32.46zm11.6.2a208.28 208.28 0 0 0 10.1 0l5.26-.14a4.83 4.83 0 0 0-.2 1.28c0 .37.06.79.2 1.24-.56-.08-1.19-.15-1.88-.2a93.77 93.77 0 0 0-4.46-.22l-2.22-.02-.08 3.68c-.03.75-.04 1.44-.04 2.08v9.88c0 1.28.03 2.74.1 4.4l.22 5.48-1.02-.15c-.3-.05-.62-.05-.94-.05s-.65.01-.98.05c-.33.04-.66.1-.98.15l.22-5.24c.07-1.71.1-3.24.1-4.6V8.32c0-.64-.02-1.33-.04-2.08l-.08-3.64a79.04 79.04 0 0 0-8.56.44c.13-.45.2-.88.2-1.28 0-.21-.02-.41-.06-.6L46.8.52l5.28.14zm37.44.32a13.5 13.5 0 0 1 4.74 2.82 12.44 12.44 0 0 1 3.05 4.5c.73 1.77 1.09 3.78 1.09 6.02s-.36 4.24-1.09 6.02a12.43 12.43 0 0 1-3.05 4.5 13.5 13.5 0 0 1-4.74 2.82c-1.84.65-3.88.97-6.12.97a18.2 18.2 0 0 1-6.06-.96 12.65 12.65 0 0 1-7.8-7.3c-.73-1.77-1.1-3.79-1.1-6.05 0-2.19.35-4.16 1.04-5.92a12.46 12.46 0 0 1 7.7-7.38A17.96 17.96 0 0 1 83.4 0c2.24 0 4.28.33 6.12.98zm-16.4 18.8c.5 1.58 1.24 2.92 2.2 4.02.96 1.09 2.12 1.92 3.48 2.5s2.9.86 4.6.86 3.24-.3 4.62-.87 2.54-1.4 3.5-2.5c.96-1.09 1.69-2.43 2.2-4.01.5-1.59.76-3.41.76-5.46 0-4.1-1-7.28-2.96-9.5-1.98-2.23-4.7-3.34-8.16-3.34-1.68 0-3.2.28-4.56.84S76.28 3.7 75.32 4.8s-1.7 2.44-2.2 4.04c-.5 1.6-.76 3.42-.76 5.48s.25 3.87.76 5.46zm36.8-14.4a962.57 962.57 0 0 0 15.36 16.26v-2.72a647.99 647.99 0 0 0-.18-14.68c-.04-1.47-.1-2.7-.14-3.72a4.52 4.52 0 0 0 2.64 0 350.85 350.85 0 0 0-.56 10.1 95.7 95.7 0 0 0-.08 3.66c0 1.54 0 3.12.02 4.72l.02 4.42a251.69 251.69 0 0 0 .04 5.21h-.52a626.04 626.04 0 0 0-20.2-22.11 153.12 153.12 0 0 0-.12 5.44v5.18c0 .84.01 1.78.04 2.82l.16 5.52a34.88 34.88 0 0 0 .16 2.64 2.8 2.8 0 0 0-.68-.16 6.57 6.57 0 0 0-1.44 0c-.24.02-.5.08-.76.16.05-.22.11-.71.18-1.49.07-.77.13-1.68.18-2.73l.18-3.44a180.91 180.91 0 0 0 .26-6.94c.03-1.02.04-1.82.04-2.4v-4.6c0-1.36 0-2.55-.02-3.56-.01-1.01-.05-2-.1-2.96h.64c1.55 1.73 3.17 3.53 4.88 5.38zm41.44-.16a375.76 375.76 0 0 0 5.46 10.44l3.46 6.38.8-1.52c.32-.61.68-1.3 1.08-2.02a9099.21 9099.21 0 0 1 2.72-4.98L172.16 0h.52l.86 7.74.84 7.56.81 6.94c.27 2.18.52 4.14.76 5.88a7.13 7.13 0 0 0-1.87-.2c-.38 0-.75.01-1.12.05-.38.04-.63.1-.76.15a1376.88 1376.88 0 0 0-.94-10.8 664.22 664.22 0 0 0-1.02-9.84h-.08a1475.94 1475.94 0 0 0-5 9.36 328.28 328.28 0 0 0-4.3 8.53l-1.18 2.54h-.36c-1.6-3.38-3.27-6.73-5-10.05s-3.5-6.78-5.28-10.38h-.08c-.7 5.7-1.19 10.22-1.48 13.54-.3 3.32-.44 5.68-.44 7.1a5.8 5.8 0 0 0-1.4-.2 5.07 5.07 0 0 0-1.4.2c.83-5.26 1.58-10.28 2.26-15.06A335.8 335.8 0 0 0 148.12 0h.68c.88 1.84 1.73 3.58 2.56 5.22zm45.32 6.3c1.92 4.64 3.5 8.38 4.76 11.22 1.25 2.84 2.06 4.63 2.44 5.38a8.12 8.12 0 0 0-2.12-.2c-.38 0-.74.01-1.1.05-.36.04-.7.1-1.02.15a58.08 58.08 0 0 0-1.8-5.06c-.75-1.86-1.52-3.74-2.32-5.66-.86-.06-1.72-.08-2.6-.08h-2.6c-.83 0-1.66.01-2.5.04-.84.02-1.65.04-2.42.04a192.6 192.6 0 0 0-2.54 6.52 59.77 59.77 0 0 0-1.34 4.2 5.36 5.36 0 0 0-2.96 0 1489.97 1489.97 0 0 0 9.54-21.34c1.1-2.5 2.1-4.75 2.98-6.78h.76l4.84 11.52zM188 15.6a71.02 71.02 0 0 0 5.82-.02c.41-.02.8-.02 1.14-.02L190.52 5.4l-4.36 10.16c.48 0 1.1.01 1.84.04zM210.52.66c.75.04 1.46.06 2.16.06.8 0 1.57-.03 2.32-.1.74-.07 1.5-.1 2.24-.1 2.74 0 4.82.53 6.24 1.6s2.12 2.64 2.12 4.72c0 1.95-.72 3.6-2.16 4.98-1.44 1.37-3.46 2.26-6.04 2.66l5 6.32a338.99 338.99 0 0 0 5.96 7.32 12.06 12.06 0 0 0-2.4-.2c-.38 0-.77 0-1.18.04-.42.02-.8.08-1.14.16a140.64 140.64 0 0 0-5.36-7.28c-.94-1.2-1.84-2.33-2.7-3.38a46.11 46.11 0 0 0-2.3-2.62h-1.52v3.44c0 1.36.03 2.9.1 4.62l.22 5.22-1-.15a7.24 7.24 0 0 0-1.9 0l-1.02.15.22-5.2c.07-1.7.1-3.26.1-4.64v-7.92c0-1.39-.03-2.94-.1-4.64l-.22-5.2 2.36.14zm1.44 2.76l-.08 2.3-.08 2.58c-.03.86-.04 1.55-.04 2.06v2.8c.4.08.83.13 1.28.16s.9.04 1.36.04c2.34 0 4.21-.54 5.6-1.6a5.37 5.37 0 0 0 2.08-4.52c0-1.68-.55-2.97-1.64-3.88-1.1-.9-2.68-1.36-4.76-1.36a35 35 0 0 0-3.68.2l-.04 1.22zm22.4-2.76a208.34 208.34 0 0 0 10.1 0l5.26-.14a4.9 4.9 0 0 0-.2 1.28c0 .37.06.79.2 1.24a29.4 29.4 0 0 0-1.88-.2 93.95 93.95 0 0 0-4.46-.22l-2.22-.02-.08 3.68c-.03.75-.04 1.44-.04 2.08v9.88c0 1.28.03 2.74.1 4.4l.22 5.48-1.02-.15a8.2 8.2 0 0 0-1.92 0c-.33.04-.66.1-.98.15l.22-5.24c.07-1.71.1-3.24.1-4.6V8.32c0-.64-.02-1.33-.04-2.08l-.08-3.64a79.05 79.05 0 0 0-8.56.44c.13-.45.2-.88.2-1.28 0-.21-.02-.41-.06-.6l-.14-.64 5.28.14zm20.78 0a7.26 7.26 0 0 0 1.92 0l.98-.14-.22 5.24c-.07 1.7-.1 3.24-.1 4.6v7.92c0 1.36.03 2.9.1 4.62l.22 5.22a7 7 0 0 0-1.96-.2 11 11 0 0 0-1.96.2l.22-5.2c.07-1.71.1-3.26.1-4.64v-7.92c0-1.39-.03-2.94-.1-4.64l-.22-5.2 1.02.14zm16.34 4.72a965.92 965.92 0 0 0 10.4 11.1l4.96 5.16v-2.72a623.87 623.87 0 0 0-.18-14.68c-.04-1.47-.09-2.7-.14-3.72a4.53 4.53 0 0 0 2.64 0 324.81 324.81 0 0 0-.56 10.1c-.06 1.37-.08 2.6-.08 3.66 0 1.54 0 3.12.02 4.72l.02 4.42a261.07 261.07 0 0 0 .04 5.21h-.52a625.97 625.97 0 0 0-20.2-22.11 142.94 142.94 0 0 0-.12 5.44v5.18c0 .84.01 1.78.04 2.82l.16 5.52a34.45 34.45 0 0 0 .16 2.64 2.8 2.8 0 0 0-.68-.16 6.56 6.56 0 0 0-1.44 0c-.24.02-.5.08-.76.16.05-.22.11-.71.18-1.49.07-.77.13-1.68.18-2.73l.18-3.44a184.68 184.68 0 0 0 .26-6.94c.03-1.02.04-1.82.04-2.4v-4.6c0-1.36 0-2.55-.02-3.56-.01-1.01-.05-2-.1-2.96h.64c1.55 1.73 3.17 3.53 4.88 5.38zm41.44-.16a375.64 375.64 0 0 0 5.46 10.44l3.46 6.38.8-1.52c.32-.62.68-1.3 1.08-2.02l1.3-2.38 1.42-2.6L333.72 0h.52l.86 7.74.84 7.56c.28 2.44.55 4.75.82 6.94.26 2.18.51 4.14.76 5.88a7.15 7.15 0 0 0-1.88-.2c-.38 0-.75.01-1.12.05-.38.04-.63.1-.76.15a1260.66 1260.66 0 0 0-.94-10.8 663.6 663.6 0 0 0-1.02-9.84h-.08a1483.21 1483.21 0 0 0-5 9.36 317.33 317.33 0 0 0-4.3 8.53l-1.18 2.54h-.36c-1.6-3.38-3.27-6.73-5-10.05-1.73-3.32-3.5-6.78-5.28-10.38h-.08c-.7 5.7-1.19 10.22-1.48 13.54-.3 3.32-.44 5.68-.44 7.1a5.8 5.8 0 0 0-1.4-.2 5.06 5.06 0 0 0-1.4.2c.83-5.26 1.58-10.28 2.26-15.06s1.22-9.14 1.62-13.06h.68a275.9 275.9 0 0 0 2.56 5.22zM346.7.66a99.27 99.27 0 0 0 6.98 0l3.64-.14a4.6 4.6 0 0 0-.12 1.2c0 .45.04.85.12 1.2l-2.48-.22a99.1 99.1 0 0 0-8.04-.3c-.03 1.07-.06 1.99-.1 2.76-.04.77-.06 1.57-.06 2.4l.04 5.2a142.01 142.01 0 0 0 4.8-.08l2.3-.12c.79-.05 1.66-.12 2.62-.2a5.93 5.93 0 0 0 0 2.44l-1.4-.1a141.4 141.4 0 0 0-8.32-.26l-.04 5.32a101.24 101.24 0 0 1 .04 3.52 91.05 91.05 0 0 0 .04 2.96h.96c2.58 0 4.68-.06 6.3-.16 1.61-.11 2.8-.23 3.54-.36a8.95 8.95 0 0 0-.1 1.86c.01.22.04.4.1.54l-3.68-.15a104.17 104.17 0 0 0-7.08 0l-3.72.15.22-5.22c.07-1.72.1-3.28.1-4.66v-9.5c0-.57-.01-1.24-.04-2l-.1-2.66c-.04-1.01-.1-2.2-.18-3.56l3.66.14zm17.36 0a7.26 7.26 0 0 0 1.92 0l.98-.14a508.03 508.03 0 0 0-.24 5.66 165.87 165.87 0 0 0-.08 5.22v2.28a223.01 223.01 0 0 0 .06 5.84l.04 2.86.02 2.36v1.5h1a124.4 124.4 0 0 0 5.96-.14c.77-.04 1.48-.1 2.12-.16s1.29-.14 1.96-.22l-.14.64c-.04.19-.06.37-.06.56 0 .34.06.74.2 1.2a360.55 360.55 0 0 1-3.94-.15 806 806 0 0 1-3.42-.05c-1.23 0-2.45.01-3.66.05l-3.74.15.22-5.2c.07-1.71.1-3.26.1-4.64v-7.92c0-1.39-.03-2.93-.1-4.64l-.22-5.2 1.02.14zm20.96 0c.84.04 1.58.06 2.22.06.72 0 1.43-.03 2.14-.1.7-.07 1.42-.1 2.14-.1 2.9 0 5.04.48 6.4 1.44 1.36.96 2.04 2.4 2.04 4.32 0 1.76-.56 3.23-1.66 4.42s-2.8 2.04-5.06 2.58v.08c2.77.18 4.74.83 5.92 1.94s1.76 2.78 1.76 5.02c0 1.2-.26 2.28-.78 3.24a7.52 7.52 0 0 1-2.14 2.46c-.91.68-1.98 1.2-3.2 1.56-1.23.35-2.56.54-4 .54-.64 0-1.29-.04-1.94-.1-.65-.07-1.31-.1-1.98-.1-.59 0-1.2 0-1.84.04-.64.02-1.3.08-2 .16l.22-5.22c.07-1.72.1-3.28.1-4.66v-7.92l-.04-1.48-.08-2.56a296.73 296.73 0 0 0-.2-5.76c.48.05 1.14.1 1.98.14zm1.72 5.3c-.07 1.3-.1 2.45-.1 3.44v3.4h2.32c.9 0 1.8-.1 2.7-.28.9-.19 1.7-.5 2.4-.94a5.13 5.13 0 0 0 1.72-1.78c.44-.75.66-1.67.66-2.76 0-1.63-.5-2.87-1.52-3.74-1.02-.87-2.72-1.3-5.12-1.3-.48 0-.97.01-1.46.04-.5.03-.98.08-1.46.16-.03 1.2-.07 2.45-.14 3.76zm-.02 16.18l.16 4.3a44.91 44.91 0 0 0 3.84.2c.96 0 1.84-.16 2.64-.48s1.48-.79 2.06-1.38 1.02-1.31 1.34-2.12c.32-.82.48-1.73.48-2.74 0-1.31-.31-2.39-.92-3.24-.3-.43-.66-.79-1.1-1.08-.44-.3-1-.54-1.66-.74-.67-.2-1.48-.35-2.42-.44-.95-.1-2.08-.14-3.38-.14h-1.12v4.52c0 .96.03 2.07.08 3.34zM426.64.98c1.84.65 3.42 1.6 4.74 2.82a12.44 12.44 0 0 1 3.05 4.5c.72 1.77 1.08 3.78 1.08 6.02s-.36 4.24-1.08 6.02a12.43 12.43 0 0 1-3.05 4.5 13.51 13.51 0 0 1-4.74 2.82c-1.84.65-3.88.97-6.12.97-2.22 0-4.24-.31-6.06-.96a12.64 12.64 0 0 1-7.8-7.3c-.73-1.77-1.1-3.79-1.1-6.05 0-2.19.35-4.16 1.04-5.92s1.69-3.26 2.98-4.5c1.3-1.24 2.86-2.2 4.72-2.88A17.95 17.95 0 0 1 420.52 0c2.24 0 4.28.33 6.12.98zm-16.4 18.8c.5 1.58 1.24 2.92 2.2 4.02a9.46 9.46 0 0 0 3.48 2.5c1.36.57 2.89.86 4.6.86 1.7 0 3.24-.3 4.62-.87s2.54-1.4 3.5-2.5c.96-1.09 1.69-2.43 2.2-4.01.5-1.59.76-3.41.76-5.46 0-4.1-1-7.28-2.96-9.5-1.98-2.23-4.7-3.34-8.16-3.34-1.68 0-3.2.28-4.56.84-1.36.56-2.52 1.39-3.48 2.48s-1.7 2.44-2.2 4.04-.76 3.42-.76 5.48.25 3.87.76 5.46zM442.04.66a7.05 7.05 0 0 0 2.72-.14l-.12 1.66a147.73 147.73 0 0 0-.3 7.1c-.04 1.52-.06 3.13-.06 4.84 0 1.46.04 2.86.12 4.2s.33 2.56.76 3.68c.64 1.76 1.65 2.99 3.04 3.7a10.9 10.9 0 0 0 5 1.05 9.3 9.3 0 0 0 4-.75 7.1 7.1 0 0 0 3.48-3.52c.26-.56.49-1.24.68-2.02.18-.79.33-1.71.44-2.76.1-1.06.16-2.3.16-3.74V7.88c0-3.9-.08-6.35-.24-7.36l.84.14a5.16 5.16 0 0 0 1.4 0l.6-.14c-.06.61-.12 1.47-.19 2.58l-.2 3.82-.2 4.74c-.06 1.72-.1 3.48-.13 5.3-.06 3.81-1.1 6.7-3.12 8.7s-4.8 2.97-8.32 2.97c-3.92 0-6.8-.92-8.64-2.76-1.84-1.83-2.76-4.75-2.76-8.75 0-.99.03-2.08.1-3.26.07-1.19.1-2.25.1-3.18V9.04c0-.54-.01-1.17-.04-1.9l-.08-2.66-.12-3.96 1.08.14zm32.24 0c.74.04 1.46.06 2.16.06.8 0 1.57-.03 2.32-.1.74-.07 1.49-.1 2.24-.1 2.74 0 4.82.53 6.24 1.6s2.12 2.64 2.12 4.72c0 1.95-.72 3.6-2.16 4.98-1.44 1.37-3.46 2.26-6.04 2.66l5 6.32a338.99 338.99 0 0 0 5.96 7.32 12.06 12.06 0 0 0-2.4-.2c-.38 0-.77 0-1.18.04-.42.02-.8.08-1.14.16a140.64 140.64 0 0 0-5.36-7.28c-.94-1.2-1.84-2.33-2.7-3.38a46.11 46.11 0 0 0-2.3-2.62h-1.52v3.44c0 1.36.03 2.9.1 4.62l.22 5.22-1-.15a7.24 7.24 0 0 0-1.9 0l-1.02.15.22-5.2c.07-1.7.1-3.26.1-4.64v-7.92c0-1.39-.03-2.94-.1-4.64l-.22-5.2 2.36.14zm1.44 2.76l-.08 2.3-.08 2.58c-.03.86-.04 1.55-.04 2.06v2.8c.4.08.83.13 1.28.16s.9.04 1.36.04c2.34 0 4.21-.54 5.6-1.6a5.37 5.37 0 0 0 2.08-4.52c0-1.68-.55-2.97-1.64-3.88-1.1-.9-2.68-1.36-4.76-1.36a35 35 0 0 0-3.68.2l-.04 1.22zm26.88 1.96a965.92 965.92 0 0 0 10.4 11.1l4.96 5.16v-2.72a623.87 623.87 0 0 0-.19-14.68c-.04-1.47-.08-2.7-.13-3.72a4.53 4.53 0 0 0 2.64 0 324.81 324.81 0 0 0-.56 10.1c-.06 1.37-.08 2.6-.08 3.66l.01 4.72.03 4.42a261.07 261.07 0 0 0 .04 5.21h-.53A625.97 625.97 0 0 0 499 6.52a142.94 142.94 0 0 0-.11 5.44v5.18c0 .84.01 1.78.04 2.82l.16 5.52a34.45 34.45 0 0 0 .16 2.64 2.8 2.8 0 0 0-.68-.16 6.56 6.56 0 0 0-1.44 0c-.24.02-.5.08-.76.16.05-.22.11-.71.18-1.49.07-.77.13-1.68.18-2.73l.18-3.44a184.68 184.68 0 0 0 .26-6.94l.04-2.4v-4.6c0-1.36 0-2.55-.02-3.56-.01-1.01-.05-2-.1-2.96h.64c1.55 1.73 3.17 3.53 4.88 5.38zM531.14.66a99.27 99.27 0 0 0 6.98 0l3.64-.14a4.6 4.6 0 0 0-.12 1.2c0 .45.04.85.12 1.2l-2.48-.22a99.1 99.1 0 0 0-8.04-.3c-.03 1.07-.06 1.99-.1 2.76-.04.77-.06 1.57-.06 2.4l.04 5.2a142.01 142.01 0 0 0 4.8-.08l2.3-.12c.79-.05 1.66-.12 2.62-.2a5.93 5.93 0 0 0 0 2.44l-1.4-.1a141.4 141.4 0 0 0-8.32-.26l-.04 5.32a101.24 101.24 0 0 1 .04 3.52 91.05 91.05 0 0 0 .04 2.96h.96c2.58 0 4.68-.06 6.3-.16 1.61-.11 2.79-.23 3.54-.36a8.95 8.95 0 0 0-.1 1.86c.01.22.04.4.1.54l-3.68-.15a104.17 104.17 0 0 0-7.08 0l-3.72.15.22-5.22c.07-1.72.1-3.28.1-4.66v-9.5c0-.57-.01-1.24-.04-2l-.1-2.66c-.04-1.01-.1-2.2-.18-3.56l3.66.14z"/></svg>