<svg xmlns="http://www.w3.org/2000/svg" viewBox="0 0 240.41 125.54"><path fill="#FFF" d="M.62 62.75a34.63 34.63 0 0 1 4.42-16.8 52.58 52.58 0 0 1 12.42-15.07 89.76 89.76 0 0 1 19.2-12.57A165.84 165.84 0 0 1 89.8 2.87a213.92 213.92 0 0 1 89.41 5.95 140.29 140.29 0 0 1 24.63 9.5A89.48 89.48 0 0 1 223 30.9a52.42 52.42 0 0 1 12.38 15.06 34.12 34.12 0 0 1-.03 33.61 52.54 52.54 0 0 1-12.43 15.1 89.56 89.56 0 0 1-19.2 12.56 165.75 165.75 0 0 1-53.16 15.44 213.88 213.88 0 0 1-89.4-5.95 140.37 140.37 0 0 1-24.63-9.5 89.48 89.48 0 0 1-19.15-12.58A52.39 52.39 0 0 1 5 79.58 34.6 34.6 0 0 1 .62 62.75z"/><path d="M119.25 125.54c-19.48 0-38.51-2.71-58.26-8.21a141.73 141.73 0 0 1-24.74-9.56 90.3 90.3 0 0 1-19.28-12.65A52.81 52.81 0 0 1 4.45 79.88 35.23 35.23 0 0 1 0 62.75a35.25 35.25 0 0 1 4.5-17.1A53 53 0 0 1 17.05 30.4a90.57 90.57 0 0 1 19.32-12.66A166.28 166.28 0 0 1 89.74 2.25c31-4.33 59.48-2.44 89.65 5.96 8.74 2.5 16.6 5.53 24.74 9.56a90.25 90.25 0 0 1 19.27 12.65c5.23 4.4 9.2 9.25 12.52 15.24a34.77 34.77 0 0 1-.03 34.22 52.96 52.96 0 0 1-12.57 15.26 90.38 90.38 0 0 1-19.33 12.65 166.15 166.15 0 0 1-53.36 15.5c-10.7 1.5-21.1 2.25-31.38 2.25zm-118-62.8a34 34 0 0 0 4.3 16.54 51.6 51.6 0 0 0 12.23 14.89c5.96 5.07 12 9.04 19.02 12.48 8.07 4 15.87 7 24.53 9.47 29.99 8.36 58.31 10.24 89.14 5.93a164.97 164.97 0 0 0 52.98-15.38 89.13 89.13 0 0 0 19.06-12.49 51.73 51.73 0 0 0 12.3-14.9 33.53 33.53 0 0 0 .02-33.01 51.66 51.66 0 0 0-12.24-14.9 89.04 89.04 0 0 0-19.02-12.48c-8.07-4-15.86-7-24.52-9.47-30-8.36-58.32-10.24-89.15-5.93a165.06 165.06 0 0 0-52.98 15.38 89.36 89.36 0 0 0-19.06 12.48 51.8 51.8 0 0 0-12.28 14.9 34.05 34.05 0 0 0-4.33 16.5z"/><path d="M18.38 51.97a21 21 0 0 0-7.73 9.16 5.44 5.44 0 0 0 5.92 7.31c9.19-.84 17.34-4.2 24.46-10.07a26.4 26.4 0 0 0 3.03 7.16 4.01 4.01 0 0 0 4.6 1.94 58.48 58.48 0 0 0 17.09-6.78 6.44 6.44 0 0 0 .36 5.45c.58 1 1.45 1.7 2.53 2.09s2.2.37 3.29-.03a35.64 35.64 0 0 0 13.4-7.44 6.58 6.58 0 0 0 2.74 5.12 9.66 9.66 0 0 0 11.2-.48c2.84-1.87 5.72-3.67 8.65-5.4.3-.19.68-.14.92.1.24.25.28.64.1.93a7.31 7.31 0 0 0-.91 2.66 3.3 3.3 0 0 0 1.46 3c1.68.99 3.78.92 5.4-.17a46.02 46.02 0 0 0 9.05-7.31c.36-.35.86-.5 1.35-.4s.9.43 1.1.89a16.42 16.42 0 0 0 3.74 6.06 6.78 6.78 0 0 0 7.3 1.31 61.55 61.55 0 0 1 8.97-3.04 4.92 4.92 0 0 0 3.83 3.67 22.3 22.3 0 0 0 15.62-3.37.49.49 0 0 1 .73.49 14.94 14.94 0 0 1-2.55 7.05c-.25.34-.33.77-.22 1.17.11.4.4.73.78.9a8.01 8.01 0 0 0 6.95-.14 8 8 0 0 0 4.3-5.45c.96-3.29.93-6.55-.1-9.81a3.1 3.1 0 0 0-2.19-2.08 3.1 3.1 0 0 0-2.92.76 21.4 21.4 0 0 1-11.73 5.02 2.34 2.34 0 0 1-1.81-4.04 11.58 11.58 0 0 1 7.05-3.58c2.23-.35 4.49-.5 6.74-.44a1.38 1.38 0 0 0 .74-2.55 12.46 12.46 0 0 0-9.43-.92 32.28 32.28 0 0 0-14.9 8.25c-1.57 1.5-3.77 2.08-5.88 1.54s-3.76-2.09-4.43-4.17a7.03 7.03 0 0 0-3.87-4.03 7.02 7.02 0 0 0-5.59 0 24.98 24.98 0 0 0-6.78 4.15c.58-.94.63-2.12.12-3.1a3.54 3.54 0 0 0-1.9-1.84 3.54 3.54 0 0 0-2.65-.05 48.23 48.23 0 0 0-13.3 6.67l-2.99 1.79c-.5.3-1.1.37-1.65.16-.54-.2-.96-.66-1.12-1.22a65.26 65.26 0 0 1-1.2-3.97 4.51 4.51 0 0 0-2.83-3.07 4.5 4.5 0 0 0-4.14.53 48.82 48.82 0 0 0-7.68 6.77 6.08 6.08 0 0 1-3.13 1.7 1.4 1.4 0 0 1-1.06-.25 1.4 1.4 0 0 1-.57-.92c-.2-2 .13-4.02.98-5.83.19-.36.2-.75.04-1.12s-.45-.63-.83-.74a8.08 8.08 0 0 0-4.84-.04c-2.47.93-4.79 2.2-6.9 3.79a29.8 29.8 0 0 1-10.36 4.79c-.41.11-.85.07-1.23-.13s-.67-.52-.82-.92a15.9 15.9 0 0 1-1.26-6.18 2.4 2.4 0 0 0-.66-1.77 2.41 2.41 0 0 0-1.72-.77 5.76 5.76 0 0 0-3.3.78 300 300 0 0 1-17 10.27 17.28 17.28 0 0 1-7.54 1.75c-.8 0-1.56-.41-2.01-1.08a2.44 2.44 0 0 1-.26-2.27 9.92 9.92 0 0 1 4.44-5.47 35.26 35.26 0 0 1 12.08-5.25 33.03 33.03 0 0 1 14.74-1.3c.45.07.91-.06 1.27-.34.36-.3.58-.7.62-1.16.03-.46-.11-.9-.43-1.25-.3-.34-.73-.53-1.19-.54a50.75 50.75 0 0 0-32.08 7.1zm167.58 16.8a30.42 30.42 0 0 0 22.23-9.16c.4-.45 1.05-.6 1.61-.38l2.55.81c.27.1.47.29.58.55.1.26.1.56-.03.8a9.1 9.1 0 0 0-.8 4.93c.12.77.5 1.43 1.11 1.91.6.49 1.33.72 2.1.68a12.7 12.7 0 0 0 6.02-1.56 17.43 17.43 0 0 0 6.18-6.46c.14-.29.15-.6.04-.89-.12-.29-.34-.51-.63-.62-.3-.12-.61-.1-.89.04-.28.13-.48.38-.56.68a7.82 7.82 0 0 1-4 4.5 2.1 2.1 0 0 1-2.9-2.49c.43-1.45.69-2.95.76-4.47a1.7 1.7 0 0 0-.42-1.3 1.7 1.7 0 0 0-1.23-.6l-3.3-.03c-.73.02-1.43-.3-1.91-.85a2.5 2.5 0 0 1-.62-2.01c.14-.9-.39-1.77-1.23-2.08a1.93 1.93 0 0 0-2.3.77l-3.73 5.87A17.23 17.23 0 0 1 191.94 65a3.49 3.49 0 0 1-3.39-1.9c3.08-.26 6.1-1 8.97-2.19a5.84 5.84 0 0 0 4.08-5.58c-.16-2-1.7-3.61-3.69-3.88-4.03-.5-7.85.2-11.45 2.09a10.65 10.65 0 0 0-5.7 5.7c-.33.46-.85.73-1.42.73-.63.02-1.22.28-1.65.74-.36.42-.47 1-.28 1.51.19.52.63.9 1.18.98.5.07.92.44 1.04.94a6.24 6.24 0 0 0 6.33 4.64zm2.58-8.91a8.35 8.35 0 0 1 6.73-5.3c.81-.1 1.64-.01 2.42.27.26.1.43.36.39.64a3.92 3.92 0 0 1-2.42 3.18 12.89 12.89 0 0 1-7.12 1.2zm-19.44 55.28l.25-.85a191.44 191.44 0 0 0 6.42-38.45l-.12.1a11.84 11.84 0 0 1-3.9 2.15l-.26 3.33a184.22 184.22 0 0 1-6.65 34.7l-4.09.82c-3.66.7-7.01 1.2-10.72 1.65-5.36.76-10.26 1.25-15.66 1.6L136 97.46l.74-25.98-.31.06c-1.15.18-2.32.17-3.46-.04l-.72 24.14-1.74 24.75-2.52.14c-6.08.23-11.62.2-17.7-.11l-1.02-12.47a447 447 0 0 1-1.22-37.45l-.05-.02-.55-.3-.11-.07-.1-.06a7.2 7.2 0 0 1-2.65-3.19l-.47.3.23 17.23 2.15 35.84-.65-.03c-10.5-.7-19.99-2.01-30.28-4.2l-.22-.76c-3.92-14.38-6-27.87-6.62-42.77v-.05l-.24-.04a8.62 8.62 0 0 1-3.66-1.69l.29 6.2c.85 13.28 2.81 25.3 6.24 38.17l-1.95-.44-7.14-1.86c-8.49-2.42-16-5.32-23.92-9.24a85.5 85.5 0 0 1-18.3-12.02A48.42 48.42 0 0 1 8.6 77.6a30.57 30.57 0 0 1-3.86-14.87 30.62 30.62 0 0 1 3.9-14.79c3.03-5.45 6.7-9.9 11.48-13.92A85.75 85.75 0 0 1 38.46 22a160 160 0 0 1 33.78-11.84l-.36 1.21a191.8 191.8 0 0 0-6.72 39.4l.37-.22c1.17-.7 2.38-1.31 3.64-1.86l.38-4.46a184 184 0 0 1 6.96-35l3.11-.64c3.67-.69 7.02-1.2 10.73-1.65a195.9 195.9 0 0 1 16.59-1.64l-1.75 22.45-.9 24.74.9-.54 2.98-1.56.73-20.18 1.92-25.12 1.58-.08c6.14-.23 11.73-.2 17.86.12l1.17 13.4c.87 10.09 1.3 19.3 1.35 29.42l.06.01c1.35.3 2.64.87 3.78 1.66l-.14-7.66-2.4-36.64.45.02c10.25.65 20.44 2.07 30.48 4.24l.55 1.88a187.03 187.03 0 0 1 6.21 35.69v.11l.16.06c.55.22 1.04.44 1.57.72l.13.07.13.08a5.32 5.32 0 0 1 2.08 2.35l-.1-1.73a191.22 191.22 0 0 0-6.48-38.27l1.71.38 7.15 1.86c8.48 2.42 16 5.32 23.91 9.24a85.45 85.45 0 0 1 18.3 12.02 48.43 48.43 0 0 1 11.45 13.92 30.04 30.04 0 0 1-.02 29.6 48.61 48.61 0 0 1-11.5 13.97 85.8 85.8 0 0 1-18.35 12.01 159.9 159.9 0 0 1-32.8 11.6z"/><linearGradient id="a" gradientUnits="userSpaceOnUse" x1="150.73" y1="5.32" x2="150.73" y2="18.72"><stop offset="0" stop-color="#fff" stop-opacity=".4"/><stop offset=".4"/></linearGradient><path fill="url(#a)" d="M165.56 11.46l-.55-1.88a206 206 0 0 0-30.48-4.24l-.46-.02.5 7.56a194.12 194.12 0 0 1 32.82 5.84c-.56-2.4-1.16-4.8-1.83-7.26z"/><linearGradient id="b" gradientUnits="userSpaceOnUse" x1="120.2" y1="4.86" x2="120.2" y2="120.68"><stop offset="0" stop-color="#fff" stop-opacity=".4"/><stop offset=".4"/></linearGradient><path fill="url(#b)" d="M231.78 47.96a48.43 48.43 0 0 0-11.45-13.92 85.46 85.46 0 0 0-18.3-12.02 136.3 136.3 0 0 0-23.91-9.24l-7.15-1.86-1.71-.38a206.1 206.1 0 0 1 2.32 9.37 144.81 144.81 0 0 1 32.15 13.74c-9.76-4.2-20.34-7.69-31.45-10.43 1.72 8.38 2.85 16.7 3.46 25.59l.1 1.73a5.32 5.32 0 0 0-2.08-2.35l-.13-.08-.13-.07c-.53-.28-1.02-.5-1.57-.72l-.15-.06v-.11a187.31 187.31 0 0 0-3.6-24.9 248.4 248.4 0 0 0-33.34-5.16l1.64 24.87.14 7.66a10.83 10.83 0 0 0-3.78-1.66h-.06a354.01 354.01 0 0 0-1.35-29.44l-.15-1.72c-7.04-.52-14.16-.76-21.3-.7l-1.08 14.1-.73 20.2-2.97 1.55-.91.54.9-24.74.9-11.58a252.82 252.82 0 0 0-32.22 2.79 183.96 183.96 0 0 0-4.32 25.27l-.38 4.47a31.58 31.58 0 0 0-3.64 1.85l-.37.23A191.22 191.22 0 0 1 69.8 19.6a216.93 216.93 0 0 0-35.9 9.21 171.04 171.04 0 0 1 36.6-12.18c.44-1.75.9-3.5 1.4-5.27l.35-1.2C60.23 12.94 49.59 16.67 38.46 22A85.75 85.75 0 0 0 20.12 34 48.56 48.56 0 0 0 8.64 47.93a30.62 30.62 0 0 0-3.9 14.79A30.57 30.57 0 0 0 8.6 77.59 48.42 48.42 0 0 0 20.03 91.5a85.51 85.51 0 0 0 18.31 12.02c7.91 3.92 15.43 6.82 23.92 9.24l7.14 1.86 1.95.44a190.87 190.87 0 0 1-6.24-38.18l-.3-6.19a8.62 8.62 0 0 0 3.67 1.69l.24.04v.05c.61 14.9 2.7 28.39 6.62 42.77l.22.76a206.65 206.65 0 0 0 30.28 4.2l.65.03-2.15-35.84-.23-17.24.47-.29a7.2 7.2 0 0 0 2.65 3.18l.1.07.1.07.56.3.04.02c-.11 12.5.3 24.99 1.23 37.45l1.02 12.47c6.08.3 11.62.34 17.7.11l2.52-.14 1.74-24.75.72-24.14c1.14.2 2.31.22 3.46.04l.31-.06-.74 25.98-1.62 22.73c5.4-.35 10.3-.84 15.66-1.6 3.7-.45 7.06-.96 10.72-1.65l4.09-.83a184.22 184.22 0 0 0 6.65-34.69l.27-3.33a11.84 11.84 0 0 0 3.89-2.14l.12-.11c-.9 13.4-2.91 25.5-6.42 38.45l-.25.85a159.9 159.9 0 0 0 32.8-11.6 85.8 85.8 0 0 0 18.35-12.01 48.61 48.61 0 0 0 11.5-13.97 30.03 30.03 0 0 0 .03-29.6zm-55.94 20.39c-.55 2.4-2.1 4.36-4.3 5.46s-4.7 1.14-6.95.13c-.39-.17-.67-.5-.78-.9-.1-.4-.03-.83.22-1.17a14.95 14.95 0 0 0 2.55-7.05.49.49 0 0 0-.73-.49 22.3 22.3 0 0 1-15.62 3.37 4.92 4.92 0 0 1-3.83-3.67c-3.06.78-6.07 1.8-8.98 3.04a6.78 6.78 0 0 1-7.29-1.3 16.42 16.42 0 0 1-3.73-6.07 1.53 1.53 0 0 0-2.46-.49 46.02 46.02 0 0 1-9.04 7.31 5.07 5.07 0 0 1-5.41.17 3.3 3.3 0 0 1-1.46-3c.13-.94.44-1.84.91-2.66a.75.75 0 0 0-.1-.92.75.75 0 0 0-.92-.12 211.89 211.89 0 0 0-8.65 5.41 9.66 9.66 0 0 1-11.2.48 6.58 6.58 0 0 1-2.74-5.12c-4 3.5-8.32 5.9-13.4 7.44-1.08.4-2.2.41-3.29.03s-1.95-1.1-2.53-2.09a6.44 6.44 0 0 1-.36-5.45 58.48 58.48 0 0 1-17.08 6.78c-1.8.5-3.71-.3-4.6-1.94a26.4 26.4 0 0 1-3.04-7.16 43.92 43.92 0 0 1-24.47 10.07 5.43 5.43 0 0 1-5.04-1.97 5.42 5.42 0 0 1-.87-5.34 21 21 0 0 1 7.73-9.16 50.75 50.75 0 0 1 32.08-7.1 1.64 1.64 0 0 1 1.61 1.8c-.03.45-.25.86-.61 1.15-.36.28-.82.4-1.27.34a33.03 33.03 0 0 0-14.74 1.3 35.26 35.26 0 0 0-12.08 5.25 9.92 9.92 0 0 0-4.44 5.47c-.3.75-.2 1.6.26 2.27.45.67 1.2 1.07 2.01 1.08 2.61 0 5.2-.6 7.54-1.75a299.94 299.94 0 0 0 17-10.27c.99-.59 2.14-.86 3.3-.78.65.01 1.27.3 1.72.77.45.48.69 1.11.66 1.77 0 2.12.43 4.22 1.26 6.18.15.4.44.73.82.92.38.2.82.24 1.23.12a29.8 29.8 0 0 0 10.36-4.78 28.09 28.09 0 0 1 6.9-3.79 8.08 8.08 0 0 1 4.84.04 1.31 1.31 0 0 1 .8 1.85 11.03 11.03 0 0 0-.99 5.84c.06.37.26.7.57.92.3.22.69.31 1.06.25a6.08 6.08 0 0 0 3.13-1.7 48.82 48.82 0 0 1 7.68-6.77c1.23-.85 2.74-1.04 4.14-.53s2.44 1.63 2.84 3.07c.35 1.33.75 2.66 1.2 3.97a1.84 1.84 0 0 0 2.77 1.06l2.99-1.79a48.23 48.23 0 0 1 13.3-6.67c.85-.33 1.8-.31 2.64.05.85.34 1.53 1 1.9 1.84.5.98.46 2.16-.12 3.1a24.98 24.98 0 0 1 6.78-4.15 7.02 7.02 0 0 1 5.6 0c1.78.75 3.19 2.21 3.86 4.03a6.22 6.22 0 0 0 4.43 4.17c2.11.54 4.3-.03 5.88-1.54a32.28 32.28 0 0 1 14.9-8.26c3.14-.94 6.53-.61 9.43.93.53.33.77.96.6 1.55-.17.6-.72 1-1.34 1-2.25-.06-4.51.1-6.74.44-2.7.33-5.2 1.6-7.05 3.58a2.34 2.34 0 0 0 1.81 4.04 21.4 21.4 0 0 0 11.73-5.02 3.1 3.1 0 0 1 2.92-.76 3.1 3.1 0 0 1 2.2 2.08 16.58 16.58 0 0 1 .09 9.8zm51.67-7.46a17.43 17.43 0 0 1-6.18 6.46 12.7 12.7 0 0 1-6.01 1.56c-.78.04-1.5-.19-2.1-.68-.62-.48-1-1.14-1.13-1.9a9.1 9.1 0 0 1 .81-4.93.96.96 0 0 0 .03-.8.95.95 0 0 0-.58-.56l-2.55-.8a1.46 1.46 0 0 0-1.61.37 30.42 30.42 0 0 1-22.23 9.16 6.24 6.24 0 0 1-6.33-4.64c-.12-.5-.53-.87-1.04-.94-.55-.09-1-.46-1.18-.98a1.5 1.5 0 0 1 .28-1.5 2.34 2.34 0 0 1 1.65-.75c.57 0 1.09-.27 1.42-.73a10.65 10.65 0 0 1 5.7-5.7 19.1 19.1 0 0 1 11.46-2.1 4.27 4.27 0 0 1 3.68 3.9c0 2.54-1.65 4.8-4.08 5.57a29.88 29.88 0 0 1-8.97 2.2c.64 1.25 1.98 2 3.39 1.89 5.2-.55 9.71-3.24 12.65-7.58l3.74-5.87c.47-.76 1.44-1.09 2.29-.78s1.37 1.2 1.23 2.09c-.1.73.13 1.46.62 2 .48.56 1.18.87 1.92.86l3.29.03c.47.02.92.23 1.23.6.32.35.47.82.42 1.3a19.22 19.22 0 0 1-.77 4.47 2.1 2.1 0 0 0 2.9 2.5 7.82 7.82 0 0 0 4-4.51c.09-.3.3-.55.57-.68.28-.14.6-.16.89-.04.29.1.51.33.63.62.11.3.1.6-.04.89zM110.29 12.02l.53-6.93 1.58-.08c6.14-.23 11.73-.2 17.86.12l.65 7.43c-6.83-.5-13.73-.69-20.62-.54z"/><linearGradient id="c" gradientUnits="userSpaceOnUse" x1="90.81" y1="5.3" x2="90.81" y2="15.78"><stop offset="0" stop-color="#fff" stop-opacity=".4"/><stop offset=".4"/></linearGradient><path fill="url(#c)" d="M106.94 5.3c-5.73.33-10.92.84-16.6 1.64-3.7.45-7.05.96-10.72 1.65l-3.11.63c-.66 2.21-1.26 4.39-1.83 6.56 10.35-2.01 21.01-3.22 31.73-3.64l.53-6.84z"/><path fill="#B53A2F" d="M106.7 5.31l-1.74 22.43-.91 24.89-.24.14-1.48.93-1.48 1-.52.32-.36-1.2a8.52 8.52 0 0 0-5.37-5.81 8.52 8.52 0 0 0-7.85 1.02 52.65 52.65 0 0 0-4.3 3.42l-.63.56a5.37 5.37 0 0 0-3.83-4.94 12.04 12.04 0 0 0-7.16-.03l-.14.04-1.28.52.38-4.35a184.06 184.06 0 0 1 6.98-35.08l2.85-.58c3.67-.68 7.02-1.2 10.73-1.64 5.59-.79 10.7-1.3 16.35-1.64zm58.06 4.21l.58 2a186.72 186.72 0 0 1 6.2 35.65l-.14-.06a16.36 16.36 0 0 0-10.19-.34l-.16.05a36.18 36.18 0 0 0-16.56 9.21 2.2 2.2 0 0 1-2.08.55 2.2 2.2 0 0 1-1.56-1.48l-.03-.1a10.94 10.94 0 0 0-3.96-5.21l-.14-7.84-2.4-36.62h.21c10.17.66 20.27 2.06 30.23 4.2zm-.18 106.65l-3.83.78c-3.66.68-7.02 1.2-10.72 1.64-5.28.74-10.1 1.24-15.42 1.59l1.62-22.7.74-26.04.29-.07c.6-.14 1.18-.33 1.75-.57 1.36-.58 2.75-1.1 4.15-1.58l1.3-.41a8.8 8.8 0 0 0 4.98 2.87l.1.02c3.3.5 6.4.4 9.67-.3l.7-.17a5.3 5.3 0 0 0 .33 3.79 5.32 5.32 0 0 0 2.74 2.63 11.94 11.94 0 0 0 8.54.51l-.26 3.24a184.24 184.24 0 0 1-6.68 34.77zm-58.32 4.05l-.42-.02a206.67 206.67 0 0 1-30.02-4.14l-.26-.88c-3.91-14.37-6-27.84-6.6-42.72l.24.03a8.6 8.6 0 0 0 3.9-.41l.25-.09c3.6-1.1 7.02-2.7 10.16-4.78l.08-.06c.6.77 1.31 1.44 2.1 2.01l.08.06a13.7 13.7 0 0 0 15.62-.34l.18-.14 2.31-1.44.22 17.1 2.16 35.82z"/><path opacity=".25" fill="#FFF" d="M33.9 91.96c47.83 20.63 115.16 24.16 169.83 4.83-50.67 23.89-123.5 22.5-169.84-4.83z"/><linearGradient id="d" gradientUnits="userSpaceOnUse" x1="118.81" y1="5.31" x2="118.81" y2="120.22"><stop offset="0" stop-color="#fff" stop-opacity=".4"/><stop offset=".4" stop-color="#b53a2f"/></linearGradient><path opacity=".25" fill="url(#d)" d="M106.17 12.15c-10.55.43-21.04 1.61-31.23 3.58.57-2.17 1.17-4.35 1.83-6.56l2.85-.58c3.67-.68 7.02-1.2 10.73-1.64 5.59-.79 10.7-1.3 16.35-1.64l-.53 6.84zm-36.38 32.1l-.38 4.35 1.28-.52.14-.04c2.34-.72 4.83-.7 7.16.03a5.37 5.37 0 0 1 3.83 4.94l.62-.56a52.65 52.65 0 0 1 4.31-3.42A8.52 8.52 0 0 1 94.6 48a8.52 8.52 0 0 1 5.37 5.81l.36 1.2.52-.31 1.48-1.01 1.48-.93.24-.14.9-24.89.9-11.57a252.87 252.87 0 0 0-31.73 2.75c-2.03 8.3-3.43 16.5-4.33 25.33zm93.2 33.4a5.32 5.32 0 0 1-2.75-2.63 5.3 5.3 0 0 1-.33-3.79l-.7.17c-3.27.7-6.36.8-9.67.3l-.1-.02a8.8 8.8 0 0 1-4.98-2.87l-1.3.41c-1.4.48-2.79 1-4.15 1.58-.57.24-1.15.43-1.75.57l-.29.07-.74 26.03-1.62 22.7c5.32-.34 10.14-.84 15.42-1.58 3.7-.45 7.06-.96 10.72-1.64l3.83-.78c3.4-11.7 5.5-22.64 6.68-34.77l.26-3.24c-2.81.9-5.85.71-8.54-.5zm-59.1-10.35l-2.32 1.44-.18.14a13.7 13.7 0 0 1-15.62.34l-.08-.06c-.79-.57-1.5-1.24-2.1-2l-.08.05a39.41 39.41 0 0 1-10.16 4.78l-.24.09a8.6 8.6 0 0 1-3.9.41l-.26-.03c.61 14.88 2.7 28.35 6.61 42.72l.26.88c9.9 2.11 19.93 3.5 30.02 4.14l.42.02-2.16-35.82-.22-17.1zm61.45-55.77l-.58-2a206.57 206.57 0 0 0-30.23-4.2h-.22l.5 7.57a194.16 194.16 0 0 1 32.33 5.75c-.55-2.35-1.14-4.72-1.8-7.12zM135.1 17.1l1.63 24.84.14 7.84c1.82 1.29 3.2 3.1 3.96 5.2l.03.11a2.2 2.2 0 0 0 1.56 1.48 2.2 2.2 0 0 0 2.08-.55 36.18 36.18 0 0 1 16.56-9.21l.16-.05c3.42-.97 6.83-.86 10.19.34l.14.06a186.65 186.65 0 0 0-3.6-24.97 248.4 248.4 0 0 0-32.85-5.09zm68.64 16.54c-10.93-6.45-23.35-11.43-36.6-15 .29 1.18.55 2.37.8 3.55 12.7 2.87 24.77 6.7 35.8 11.45zM33.89 28.82c12.85-4.54 26.4-7.8 40.23-9.9.26-1.06.54-2.13.82-3.2-14.55 2.81-28.48 7.18-41.05 13.1zm72.28-16.67l-.31 4.02c9.8-.23 19.6.1 29.23.94l-.28-4.2a214.76 214.76 0 0 0-28.64-.76z"/></svg>