<?xml version="1.0" encoding="utf-8"?>
<!-- Generator: Adobe Illustrator 22.0.1, SVG Export Plug-In . SVG Version: 6.00 Build 0)  -->
<svg version="1.1" id="Layer_1" xmlns="http://www.w3.org/2000/svg" xmlns:xlink="http://www.w3.org/1999/xlink" x="0px" y="0px"
	 viewBox="0 0 95.4123 29.8575" enable-background="new 0 0 95.4123 29.8575" xml:space="preserve">
<g>
	<path d="M0.7989,15.8701h2.6758c0.3937,0,0.7081-0.3144,0.7081-0.7345v-2.0979c0-0.3937,0.3408-0.7087,0.7345-0.7087h7.1087
		c0.3936,0,0.7345,0.3151,0.7345,0.7087v2.0979c0,0.4201,0.315,0.7345,0.708,0.7345h2.7023c0.393,0,0.7081-0.3144,0.7081-0.7345
		V1.9144c0-1.049-0.866-1.9143-1.9149-1.9143H1.9792c-1.0489,0-1.9148,0.8653-1.9148,1.9143v13.2212
		C0.0643,15.5556,0.3793,15.8701,0.7989,15.8701z M4.1828,2.5967c0-0.3937,0.3408-0.7081,0.7345-0.7081h7.1087
		c0.3936,0,0.7345,0.3145,0.7345,0.7081v7.135c0,0.3931-0.341,0.7081-0.7345,0.7081H4.9172c-0.3937,0-0.7345-0.3151-0.7345-0.7081
		V2.5967z"/>
	<path d="M20.1853,15.8701H33.17c1.049,0,1.9142-0.8653,1.9142-1.9143V0.734c0-0.4194-0.3144-0.7339-0.7081-0.7339h-2.7016
		c-0.3936,0-0.7081,0.3145-0.7081,0.7339v12.5395c0,0.393-0.3409,0.7081-0.7351,0.7081h-7.1081
		c-0.3937,0-0.7345-0.3151-0.7345-0.7081V0.734c0-0.4194-0.3151-0.7339-0.7087-0.7339H19.005c-0.4201,0-0.7345,0.3145-0.7345,0.7339
		v13.2218C18.2705,15.0047,19.1357,15.8701,20.1853,15.8701z"/>
	<path d="M38.3912,15.8701h12.9841c1.049,0,1.9149-0.8653,1.9149-1.9143V9.1802c0-1.0753-0.866-1.9407-1.9149-1.9407h-10.046
		c-0.3937,0-0.7345-0.3151-0.7345-0.7087V2.5967c0-0.3937,0.3408-0.7081,0.7345-0.7081h7.108c0.3937,0,0.7345,0.3145,0.7345,0.7081
		v0.2622c0,0.393,0.315,0.7081,0.7081,0.7081h2.7022c0.393,0,0.7081-0.3151,0.7081-0.7081V1.8094V1.7836
		c0.0265-0.9703-0.866-1.7835-1.9149-1.7835H38.3912c-1.0489,0-1.9149,0.8653-1.9149,1.9143v5.273
		c0,1.0754,0.866,1.9407,1.9149,1.9407h10.0461c0.3937,0,0.7345,0.3144,0.7345,0.7081v3.4374c0,0.393-0.3409,0.7081-0.7345,0.7081
		h-7.108c-0.3937,0-0.7345-0.3151-0.7345-0.7081v-0.2358c0-0.3937-0.315-0.7087-0.7081-0.7087h-2.6758
		c-0.4194,0-0.7345,0.3151-0.7345,0.7087v1.0225v0.0264C36.4505,15.0833,37.3423,15.8701,38.3912,15.8701z"/>
	<polygon points="15.9628,22.6557 16.741,22.6557 16.3565,21.7339 	"/>
	<path d="M13.8222,21.7224c0-0.3973-0.2364-0.4698-0.702-0.4698h-0.0117v0.9366h0.016
		C13.62,22.1891,13.8222,22.0534,13.8222,21.7224z"/>
	<path d="M33.7858,21.1985c-0.6535,0-1.1847,0.5367-1.1847,1.1969s0.5312,1.1969,1.1847,1.1969
		c0.6528,0,1.1846-0.5367,1.1846-1.1969S34.4387,21.1985,33.7858,21.1985z"/>
	<polygon points="22.3132,22.6557 23.0912,22.6557 22.7068,21.7339 	"/>
	<path d="M0,19.3941v5.8521h71.5685v-5.8521H0z M3.6541,24.0431l-0.3673-0.8837H2.0783l-0.3759,0.8837H1.1226l1.5778-3.581
		l1.5365,3.581H3.6541z M7.051,22.7879c0,0.3378-0.022,0.6412-0.2978,0.9261c-0.226,0.2426-0.5558,0.3826-0.9034,0.3826
		c-0.3248,0-0.6497-0.1283-0.869-0.3439c-0.3077-0.2929-0.3329-0.624-0.3329-0.9648v-2.0402h0.5287v1.9806
		c-0.0006,0.2168-0.0012,0.4403,0.1186,0.6049c0.1099,0.1523,0.3377,0.2592,0.5545,0.2592c0.2051,0,0.4176-0.0958,0.5404-0.2438
		c0.1333-0.1597,0.1327-0.3875,0.1321-0.608v-1.9929H7.051V22.7879z M8.6243,24.0968c-0.5344,0-0.9501-0.3446-1.0594-0.8783
		l-0.0172-0.0829l0.5202-0.1456l0.0147,0.1032c0.0424,0.2942,0.261,0.4993,0.5331,0.4993c0.3028,0,0.549-0.2315,0.549-0.5159
		s-0.1922-0.3863-0.506-0.5294l-0.2032-0.0891c-0.3709-0.1689-0.7315-0.3753-0.7315-0.88c0-0.5036,0.4134-0.8838,0.9624-0.8838
		c0.3802,0,0.7026,0.1935,0.885,0.5306l0.0399,0.0743l-0.4275,0.2745l-0.0478-0.0823c-0.1216-0.2113-0.2505-0.2936-0.4582-0.2936
		c-0.2088,0-0.4249,0.1468-0.4249,0.3925c0,0.1928,0.1867,0.2929,0.4311,0.4028l0.2083,0.0915
		c0.4053,0.1781,0.8014,0.3992,0.8014,0.9587C9.6935,23.6343,9.2237,24.0968,8.6243,24.0968z M12.0969,21.2525h-0.7597v2.7906
		h-0.5288v-2.7906h-0.7517v-0.5042h2.0402V21.2525z M13.9971,24.0432l-0.8887-1.2909v1.2909h-0.5287v-3.2948h0.5404
		c0.8169,0,1.2307,0.3194,1.2307,0.9495c0,0.4784-0.2745,0.8279-0.7112,0.9261l1.0073,1.4193H13.9971z M17.3207,24.0431
		l-0.3673-0.8837h-1.2086l-0.3758,0.8837h-0.5797l1.5777-3.581l1.5366,3.581H17.3207z M19.7104,24.043h-1.3874v-3.2948h0.5288
		v2.7906h0.8585V24.043z M20.7185,24.0431h-0.5294v-3.2948h0.5294V24.0431z M23.671,24.0431l-0.3673-0.8837h-1.2086l-0.3759,0.8837
		h-0.5798l1.5778-3.581l1.5365,3.581H23.671z M27.6499,24.3193l-2.4271-2.5389v2.2625h-0.5294v-3.5632l2.4277,2.5431v-2.2748h0.5287
		V24.3193z M31.3294,22.4532c-0.2451,0.2014-0.5552,0.2272-0.7972,0.2272h-0.1609v1.3628h-0.5287v-3.2948h0.6031
		c0.296,0,0.5816,0.0135,0.8235,0.1812c0.2448,0.1696,0.3906,0.4636,0.3906,0.7848C31.6598,22.0055,31.5357,22.2818,31.3294,22.4532
		z M33.7858,24.0966c-0.9452,0-1.7135-0.7609-1.7135-1.6975c0-0.9396,0.7683-1.7042,1.7135-1.7042
		c0.9445,0,1.7134,0.7646,1.7134,1.7042C35.4992,23.3357,34.7304,24.0966,33.7858,24.0966z M37.0107,24.0968
		c-0.5344,0-0.9501-0.3446-1.0594-0.8783l-0.0172-0.0829l0.5202-0.1456l0.0147,0.1032c0.0424,0.2942,0.261,0.4993,0.5331,0.4993
		c0.3028,0,0.549-0.2315,0.549-0.5159s-0.1922-0.3863-0.506-0.5294l-0.2026-0.0891c-0.3715-0.1689-0.7321-0.3753-0.7321-0.88
		c0-0.5036,0.4134-0.8838,0.9624-0.8838c0.3802,0,0.7025,0.1935,0.885,0.5306l0.0399,0.0743l-0.4275,0.2745l-0.0478-0.0823
		c-0.1216-0.2113-0.2506-0.2936-0.4582-0.2936c-0.2088,0-0.4249,0.1468-0.4249,0.3925c0,0.1928,0.1867,0.2929,0.4305,0.4028
		l0.2089,0.0915c0.4053,0.1781,0.8014,0.3992,0.8014,0.9587C38.0798,23.6343,37.61,24.0968,37.0107,24.0968z M40.4827,21.2525
		h-0.759v2.7906h-0.5294v-2.7906h-0.7511v-0.5042h2.0395V21.2525z M41.606,22.5937h-1.0281v-0.4876h1.0281V22.5937z
		 M43.7365,21.2525h-0.7597v2.7906H42.448v-2.7906h-0.7517v-0.5042h2.0402V21.2525z M46.0155,21.2526H44.748v0.7425h1.2307v0.5042
		H44.748v1.0397h1.2676v0.5042h-1.7964v-3.2948h1.7964V21.2526z M49.7108,24.3193l-2.427-2.5389v2.2625h-0.5294v-3.5632
		l2.4278,2.5431v-2.2748h0.5287V24.3193z M51.3997,24.0968c-0.5342,0-0.95-0.3446-1.0587-0.8783l-0.0172-0.0829l0.5195-0.1456
		l0.0148,0.1032c0.0424,0.2942,0.2616,0.4993,0.5337,0.4993c0.3027,0,0.5491-0.2315,0.5491-0.5159s-0.1922-0.3863-0.506-0.5294
		l-0.2033-0.0891c-0.3709-0.1689-0.7321-0.3753-0.7321-0.88c0-0.5036,0.4139-0.8838,0.9624-0.8838
		c0.3802,0,0.7032,0.1935,0.8856,0.5306l0.04,0.0743l-0.4281,0.2745l-0.048-0.0823c-0.1216-0.2113-0.2505-0.2936-0.4575-0.2936
		c-0.2095,0-0.4251,0.1468-0.4251,0.3925c0,0.1934,0.1867,0.2929,0.4305,0.4028l0.2082,0.0915
		c0.4059,0.1781,0.8021,0.3992,0.8021,0.9587C52.4696,23.6343,51.9998,24.0968,51.3997,24.0968z M53.6425,24.0431H53.113v-3.2948
		h0.5294V24.0431z M55.9582,24.0966c-0.9452,0-1.7141-0.7609-1.7141-1.6975c0-0.9396,0.7689-1.7042,1.7141-1.7042
		c0.9445,0,1.7135,0.7646,1.7135,1.7042C57.6717,23.3357,56.9027,24.0966,55.9582,24.0966z M61.2472,24.3193l-2.427-2.5389v2.2625
		h-0.5294v-3.5632l2.4277,2.5431v-2.2748h0.5287V24.3193z M62.5603,24.0431h-0.5287v-3.2948h0.5287V24.0431z M66.2969,24.3193
		l-2.4277-2.5389v2.2625h-0.5287v-3.5632l2.4276,2.5431v-2.2748h0.5288V24.3193z M69.8057,23.5454
		c-0.2985,0.3452-0.7548,0.5515-1.2215,0.5515c-0.9335,0-1.6926-0.7597-1.6926-1.6932c0-0.9427,0.7689-1.7092,1.7135-1.7092
		c0.5527,0,1.0323,0.245,1.3892,0.7081l0.0504,0.0657l-0.3882,0.363l-0.0607-0.0848c-0.2574-0.3636-0.5921-0.5484-0.995-0.5484
		c-0.6509,0-1.1803,0.5429-1.1803,1.2098c0,0.3052,0.1197,0.5945,0.3371,0.8156c0.2272,0.2272,0.541,0.3691,0.8186,0.3691
		c0.4631,0,0.9574-0.3145,1.0139-0.7922h-0.9194v-0.5042h1.477l0.0019,0.0891C70.1582,22.8317,70.1029,23.199,69.8057,23.5454z"/>
	<path d="M30.4082,21.2525h-0.0369v0.9237h0.14c0.4281,0,0.6191-0.145,0.6191-0.4704
		C31.1305,21.3225,30.8873,21.2525,30.4082,21.2525z"/>
	<ellipse cx="55.9582" cy="22.3955" rx="1.1846" ry="1.1969"/>
	<polygon points="2.2963,22.6557 3.0743,22.6557 2.6899,21.7339 	"/>
</g>
<g>
	<path fill="#EE3124" d="M69.5812,0.0001H56.5965c-1.049,0-1.9149,0.8653-1.9149,1.9143v13.2212
		c0,0.4201,0.3151,0.7345,0.7345,0.7345h2.6758c0.3931,0,0.7081-0.3144,0.7081-0.7345V9.8361c0-0.3937,0.3409-0.7081,0.7345-0.7081
		h10.0467c1.0754,0,1.9413-0.8653,1.9413-1.9407v-5.273C71.5225,0.8654,70.6566,0.0001,69.5812,0.0001z M67.3776,6.5309
		c0,0.3937-0.315,0.7087-0.7081,0.7087h-7.1351c-0.3937,0-0.7345-0.3151-0.7345-0.7087V2.5967c0-0.3937,0.3409-0.7081,0.7345-0.7081
		h7.1351c0.3931,0,0.7081,0.3145,0.7081,0.7081V6.5309z"/>
	<path fill="#EE3124" d="M89.0981,1.1539V0.7345c0-0.42-0.3414-0.7345-0.7345-0.7345H72.9918c-0.4194,0-0.7339,0.3145-0.7339,0.7345
		v0.4194c0,0.3931,0.3144,0.7345,0.7339,0.7345h4.9058c0.3931,0,0.7081,0.3144,0.7081,0.7081V15.136
		c0,0.4194,0.3409,0.7339,0.7345,0.7339h2.6752c0.3937,0,0.7345-0.3145,0.7345-0.7339V2.5966c0-0.3937,0.315-0.7081,0.7081-0.7081
		h4.9057C88.7567,1.8885,89.0981,1.547,89.0981,1.1539z"/>
	<path fill="#EE3124" d="M88.3857,15.809v13.0394c0.7671,0.2727,1.5838,0.5122,1.7515,0.3335
		c0.3224-0.3685,0.7369-2.9694,0.7369-6.8716c0-3.8764-0.3549-6.5882-0.7418-6.8722C89.9892,15.333,89.0422,15.6038,88.3857,15.809z
		"/>
	<path fill="#EE3124" d="M86.4529,15.289c-0.2039,0.226-0.2991,0.5042-0.2696,0.7836c0.016,0.1498,0.0614,0.3427,0.124,0.6117
		c0.2045,0.8745,0.5841,2.502,0.5841,5.6194c0,3.1174-0.3802,4.7454-0.5847,5.6218c-0.0595,0.2555-0.1068,0.4575-0.1234,0.6105
		c-0.0295,0.2782,0.0663,0.557,0.2696,0.7836c0.2113,0.2352,0.5177,0.3949,0.8875,0.46l0.4323,0.078V14.751l-0.4329,0.0774
		C86.9695,14.8947,86.663,15.0544,86.4529,15.289z"/>
	<polygon fill="#EE3124" points="76.4012,19.1117 76.4018,19.1135 76.403,25.452 76.4024,25.4674 76.4006,25.476 80.5884,26.4451 
		80.5878,18.1426 	"/>
	<path fill="#EE3124" d="M95.4104,21.9271h-3.9249c0.0006,0.1277,0.002,0.2537,0.0018,0.3832
		c-0.0001,0.0883-0.0006,0.2346-0.0012,0.3531h3.9249c0.0007-0.1185,0.0013-0.2358,0.0013-0.3531
		C95.4123,22.1807,95.411,22.0548,95.4104,21.9271z"/>
	<path fill="#EE3124" d="M91.429,24.7291l3.9016,0.4329c0.0141-0.2432,0.0264-0.4888,0.0369-0.7363l-3.9084-0.4342
		C91.4512,24.239,91.4407,24.4847,91.429,24.7291z"/>
	<path fill="#EE3124" d="M91.2692,26.8409l3.8156,0.85c0.035-0.2297,0.0664-0.4735,0.0952-0.7284l-3.8408-0.8598
		C91.3184,26.3564,91.295,26.6033,91.2692,26.8409z"/>
	<path fill="#EE3124" d="M91.4638,20.5968l3.912-0.4348c-0.0091-0.2524-0.0202-0.4969-0.0319-0.7364l-3.9046,0.4324
		C91.4484,20.0981,91.4571,20.345,91.4638,20.5968z"/>
	<path fill="#EE3124" d="M95.2144,17.6727c-0.008-0.0749-0.0154-0.1535-0.0233-0.226c-0.0202-0.183-0.0418-0.3476-0.0633-0.5036
		l-3.8261,0.8537c0.0227,0.2364,0.0442,0.4815,0.0633,0.7394L95.2144,17.6727z"/>
	<rect x="72.4107" y="19.4121" fill="#EE3124" width="1.8902" height="1.8166"/>
	<rect x="72.4105" y="21.9053" fill="#EE3124" width="1.8902" height="0.8518"/>
	<rect x="72.4105" y="23.4333" fill="#EE3124" width="1.8902" height="1.7988"/>
	<path fill="#EE3124" d="M75.3419,18.5114c-0.1585,0-0.2586,0.0535-0.3144,0.0989c-0.1309,0.1044-0.1309,0.2469-0.1296,0.2671
		l0.0006,6.828c-0.0019,0.027-0.0019,0.1701,0.1296,0.2751c0.0558,0.0448,0.1553,0.0983,0.3138,0.0983
		c0.2917,0,0.4539-0.1806,0.4636-0.3666L75.8049,18.87C75.7952,18.6926,75.6336,18.5114,75.3419,18.5114z"/>
	<path fill="#EE3124" d="M82.0923,22.2765v-4.7927c-0.0104-0.2039-0.1781-0.4096-0.479-0.4096c-0.164,0-0.2671,0.0614-0.3255,0.113
		c-0.1345,0.1204-0.1338,0.2825-0.1326,0.3052v5.5303C81.3688,22.6751,81.6986,22.4079,82.0923,22.2765z"/>
	<path fill="#EE3124" d="M81.1553,24.8491v2.1698c-0.0012,0.0319-0.0024,0.1953,0.1327,0.3144
		c0.0577,0.0522,0.1615,0.1136,0.3249,0.1136c0.3009,0,0.4685-0.2064,0.4796-0.4194v-1.4321
		C81.6988,25.4639,81.369,25.1967,81.1553,24.8491z"/>
	<path fill="#EE3124" d="M85.7262,16.8943c-0.054,0.0786-0.1793,0.1056-0.315,0.1315l-2.763,0.6393
		c0.0031,0.0228,0.0092,0.043,0.0105,0.0657v0.0283v4.4273c0.9586,0.0086,1.7361,0.7892,1.7361,1.7491s-0.7775,1.7405-1.7355,1.7491
		v1.1503l-0.0006,0.0147c-0.0006,0.0246-0.008,0.0479-0.0105,0.0725l2.7624,0.6399c0.024,0.0068,0.2346,0.0669,0.3194,0.137
		c0.2026-0.8715,0.5484-2.4486,0.5484-5.3952C86.2784,19.3349,85.9283,17.7596,85.7262,16.8943z"/>
	<path fill="#EE3124" d="M83.8419,23.9355c0-0.6596-0.5374-1.1963-1.1976-1.1963c-0.6602,0-1.1969,0.5368-1.1969,1.1963
		c0,0.6602,0.5368,1.1976,1.1969,1.1976C83.3045,25.1331,83.8419,24.5957,83.8419,23.9355z M82.6434,24.6022
		c-0.3666,0-0.6645-0.2997-0.6645-0.6664c0-0.3673,0.2979-0.667,0.6645-0.667c0.3679,0,0.667,0.2997,0.667,0.667
		C83.3104,24.3025,83.0112,24.6022,82.6434,24.6022z"/>
	<path fill="#EE3124" d="M82.6444,23.6583c-0.1529,0-0.2777,0.1247-0.2777,0.2776s0.1247,0.2776,0.2777,0.2776
		c0.1529,0,0.2775-0.1247,0.2775-0.2776S82.7974,23.6583,82.6444,23.6583z"/>
</g>
</svg>
