<svg xmlns="http://www.w3.org/2000/svg" viewBox="0 0 50.48 27.25"><path d="M50.48 16.95c-.35-2.01-.58-4.07-.93-6.07h-.1c.07.13-.26.14-.36.1-.01-.23.17-.29.27-.43l.05.05c.05.03-.06-.17.1-.14a4.2 4.2 0 0 0-.56-1.71h-.23c.02.06.02.14.09.18.51.19-.2.37-.1.56-.13.05-.31-.14-.42-.23-.14-.13-.1-.4-.04-.57.03-.07.2-.12.27-.03v-.1c.03-.06.1-.05.15-.05v-.09c-.22-.14-.29-.7-.65-.42-.24.03-.35-.2-.42-.36-.17-.22-.4.01-.5.04-.17.05-.4-.22-.24-.41.04-.34.31.03.38-.06-.17-.16-.38-.21-.57-.32-.1.36-.36.43-.6.65-.24.11-.25-.21-.42-.04.08-.29.2-.63.47-.75l-1.2-.09c-2.55.37-5.12.73-7.65 1.16-.12.1-.04.46-.33.46-.1-.06-.18-.2-.13-.28-.09 0-.2.04-.23-.04l.04-.05c-1.71.24-3.62.42-5.1.84-.18-.2-.5.11-.7.14h.06c.09.04-.02.13-.06.18-.18-.03-.45.04-.5-.18-.02.02-.06.04-.05.09-.14-.04-.35.01-.41-.1l-8.02 1.17-.2.18c-.03-.06-.1-.07-.17-.1 0 .22-.33.15-.38.33-.24-.04-.38.42-.6.14-.01-.1.05-.41.23-.37-2.87.32-5.64.91-8.52 1.2l-.38.19c-.12-.25-.1.07-.23.09-.11.04-.18-.06-.27-.1l-4.63.7v.1c-.13.17-.39.16-.57.1v-.06c-.32-.02-.7.26-1.02.47-.1-.2-.15-.29-.32-.38a7.7 7.7 0 0 0-2.13.47c.15.36-.3.33-.42.46l.06.05-.43.41c-.13-.14-.06-.38-.04-.46a4.27 4.27 0 0 0-1.81 3.7c.05.15.07.48.28.38.03.16-.03.31-.14.37l.37 2.78c.26.26.45.6.47.88-.44.9-.04 2.3.37 3.3.28.27.41 1.09 1.02.78.15.1.28.18.32.37-.05.04-.07.12-.14.1v.17c.51.4 1.18.8 1.9.9.4.15.67-.07 1.02-.2.4.36 1.1.12 1.62.05.35-.12.28-.64.41-.98.1.23.35.45.43.66.4.1 1.1.05 1.43-.32.12.05.32.05.37.18.55.05 1.14-.1 1.71-.18.4-.3.85-.69 1.4-.8.57.4 1.12-.14 1.75-.04.21 0 .46.17.56.18.2-.13.44-.13.65-.18-.03-.08.04-.13.1-.2.19.2.37.03.6.15.1.22.37-.25.5.05.67-.09 1.34-.2 2-.28.3-.16.2-.7.6-.6v.5l5.7-.83v-.18c.17-.13.47-.33.74-.2.04.1-.05.12-.04.2.27-.04.6.08.84-.09.19-.44.51-.68.78-1.07.58.57-.46.52-.46 1.07l3.62-.57.03-.12c.21-.1.38-.1.56.03l4.31-.6c.2-.04.4-.12.52-.32.18-.23.4.02.5.19 2.8-.33 5.56-.8 8.34-1.21.02-.06.13-.22.2-.32h-.06c-.14-.08-.06-.3.05-.38.1.07.3 0 .32.18l-.05.06c.1.06.22.2.2.37l1.76-.28c0-.08-.04-.18.04-.24l.05.06v-.1c.14 0 .3-.19.41 0l.23-.56c.25-.2.47-.2.75-.18v-.55c.36-.33.08-.81.23-1.25a.31.31 0 0 1 .41-.34c.07-.25.35.16.38-.18.07.04.04.13.05.18.15-.1.36-.25.41-.46.01-.18-.04-.39.05-.55zm-47.32-3.1l-.05-.06-.13.2c-.3-.08-.08-.26-.23-.43.18-.04.3.06.41.2v.08zm11.17-1.91l-.37-.1c.14-.3.58-.13.84-.31.09.01.14.13.23.18-.2.1-.49.11-.7.23zm6.03-.97c-.13-.02-.1-.13 0-.19.17.12.42 0 .6.1-.12.18-.42.1-.6.1zm29.46 5.14c-.11-.23-.16-.58-.09-.79.18.03.24.35.42.38-.25.07-.08.4-.33.4z"/><path fill="#FFF" d="M47.33 9.21c.2.67 1.04.99.73 1.71-.1.26.18.65.2.89h-.06v.79c.03 2.23 2 5.71-.96 6.95-.45.23-1.03.11-1.5.27-.19.23-.51.25-.78.23l-.1-.1-1.94.3c-.24.13-.03.34 0 .54h-.14v.24c-.3-.05-.36.14-.64.14-.12.09-.2.23-.34.27l-.12-.13c.25-.35.55-.44.82-.66.08-.16-.13-.25-.23-.32l-2.78.41c-.22.39-.48.26-.83.29 0-.08-.07-.1-.14-.1-.44 0-.4.77-.89.38 0 .1-.14.2-.23.09-.07-.12-.07-.17 0-.28-.55-.03-1.23 0-1.66.32v-.1c-.13-.1-.28 0-.37.1l.05.42c-.06-.01-.39-.01-.33.24-.07-.3-.13-.37-.24-.66l-.64.1c.03.13-.01.2-.14.23l-.04.04c-.09-.05-.03-.24-.2-.18-.08.1-.1.25-.03.37l-.05-.05-.14.18c-.15 0-.25-.16-.33-.23l.1-.09-.33-.14c-1 .18-2.06.2-3.01.52l.14.14c-.13.02-.22.07-.32-.1-.26.02-.72-.12-.66.19-.05.18-.3.06-.46.09.02-.07-.05-.1-.09-.14l-.32.33c.07.03.02.13.04.18-.38-.68-.9-.08-1.48-.32-2.48.41-5.05.64-7.5 1.1-.14.07-.32.55-.61.2-.04-.01-.07.01-.1.04-.1-.26-.29-.04-.46-.04-.17.17-.18.41-.46.27-.1-.07-.25-.04-.32-.18-.1.24-.34.5-.6.37l-.42-.23-3.39.46c-.3.13-.33.52-.78.36l-.1-.12-.04.03c-.03-.11-.2-.06-.29-.09-.12.29-.45.02-.6.29l-.09-.1c-.03.16-.25.06-.32.19-1.9-.08-3.83.47-5.7.6-.06.13-.28.1-.24.27h-.5l.1-.27c-.3-.38-.9.22-.85-.42-.16-.29-.47-.67-.83-.65-.23-.16-.14-.45-.18-.7-.23-.13-.52-.43-.47-.65.15-.28.5-.54.24-.82-.04-.1-.13-.04-.2-.05.22-.16.17-.42.1-.65 0-.33-.46-.37-.23-.8h.04a5.67 5.67 0 0 0-.23-1.89c-.1.05-.17-.07-.23-.19h.05v-.18c.03.03.04.06.1.05.07-.68-.2-1.31-.24-2-.03.03-.07.04-.05.1-.03-.06-.2-.15-.13-.29.22-.09.42-.56.5-1.01l-.04-.04c-.14.27-.42.4-.7.46-.16-.2.1-.33.14-.51.16-.21.42-.47.56-.56h.13c-.06.16.12.22.2.32.73-.85 1.94-1.03 3.15-1.15.2 0 .33-.17.27-.33l.23.04c-.03.03-.05.05-.04.1l.1.1a21 21 0 0 0 3.6-.61c.15-.3.24-.46.47-.64.02.13.16.16.27.18-.02.14.04.24.14.32.17.08.56.08.79 0l7.23-1.1c.3.03.65-.46.93-.24.53.05.82-.33 1.34-.2 1.74 0 3.41-.47 5.15-.64-.14-.23.2-.28.37-.32v.18c.4.08.77-.5 1.2-.23.33.04.49-.06.75-.23-.03-.03-.07-.04-.06-.1.12-.07.29-.03.43-.04.02.27.32.3.55.28.1-.06.02-.2.1-.28h.08l-.04.05.13.14.05-.05c-.03.13.22-.03.33-.04-.16-.34.36-.28.51-.28.14.38.5.14.7.14l.09-.1c.33.15 1.03-.03 1.44-.33.42-.19 1.18.25 1.2-.36.3-.1.59.36.88.13.18 0 .36-.17.56-.04l-.05.04c.21.1.23-.06.46.05.2-.18.67-.02.98-.14 1.41-.3 3.13-.28 4.31-.78l-.05.05c.47.05 1.26-.12 1.8-.2.1-.16.26-.1.37-.18l.05.04c.21-.23.66.16 1.07-.04 1.16-.27 2.57-.23 3.34.79"/><path d="M18.63 14.54c0 .09.02.18.1.23-.04.08-.15.04-.22.05v-.05l-.34.05-.04-.23c.2.05.31-.1.5-.05M44 16.25l.27 1.67c-.06.08-.18.04-.27.04-.16-.04-.37-.3-.6-.13v.13c-.05.02-.08-.01-.1-.04-.29.39-.9.22-1.34.33-.04-.52-.12-1-.18-1.48.15.06.38-.18.55.03l.09-.09c-.17-.3-.54-.11-.73-.37.1-.42-.44-.96.09-1.2-.27-.23-.43-.43-.38-.83.27.06.33-.08.52-.23a.39.39 0 0 0-.37-.15c-.07.05-.1.15-.2.15l-.18-.98-2.03.28c-.1-.32-.26-.82.18-1.02.28.1.4-.16.6-.09.03-.27-.3-.24-.46-.33-.16.13-.45.11-.46.37l-.2-.73 6.5-.98.27 1.8c-.63.2-1.44.17-2.08.43 0 .1-.2-.03-.18.14.09.08.23-.04.18.18-.18-.01-.18.18-.29.28.1.13.22-.04.34-.05.2.76.35 1.6.41 2.46-.18.17-.4.33-.46.55.17.1.3-.16.51-.14zm.42-5.14c.14.2.68-.21.83.19v-.1c-.14-.3-.55-.09-.83-.09zm-3.71 1.16c-.1-.09-.27-.14-.37-.05l.19.18c.04-.08.11-.08.18-.13zm1.76 5l-.32-.04c.08.09.27.22.32.04zm.38-5.98c-.12-.07-.31 0-.43-.09-.09.1-.15.36-.37.38.32.01.55-.25.8-.29zm-7.42 7.14h-.02l.02.14v-.14zm4.53-.04v.18c-.8.04-1.52.3-2.32.32-.4-.7-.05-1.96-.96-2.27a3.48 3.48 0 0 0-1.48.18l.21 1.63c-.35-.08-.68.16-1.05.14-.28.32-.55-.22-.83.09.07.24.37.35.55.46.27-.14.04-.41.37-.46.4.14.65-.07 1.02 0l.09.51-2.27.38-.32-2.28c.17-.04.35.24.47-.04-.1-.54-.82-.2-.61-.93a.2.2 0 0 0 .14-.23l-.23-.23-.23-1.82c.2-.09.2-.34.18-.55-.35-.01-.41-.37-.37-.64l.14.14c.07-.08.04-.2.05-.29l-.14-.14c.78-.09 1.55-.38 2.37-.27v-.05c.06.23.23-.05.36-.09.8-.15 1.79-.3 2.6-.05-.15-.09-.1.37-.38.28.25.31.39-.19.66-.09v-.1c-.01.1.18.22.27.1.68.47.84 1.5.66 2.32-.12.35-.52.62-.66.93 1.45.27 1.04 1.88 1.58 2.87h.13zm-3.6-5.76c.09.07.3.04.36-.09-.13.04-.35-.07-.36.1zm-.9.66l.15.23c.08-.06.1-.14.1-.23h-.24zm1.45 2.23c-.2-.22-.73-.04-.46.32a.52.52 0 0 1 .46-.32zm-.05-1.35c-.28-.7-1.08-.4-1.62-.42v-.28c-.27-.23-.6.03-.79.14l.18.1c.03-.2.31 0 .38-.19l.23.23c-.14.04-.26.13-.41.1 0 .32.16.64.03.97-.03.01-.06-.02-.09-.05.03-.22-.19-.12-.32-.14-.18.09-.35.2-.37.37.23.04.35-.3.55-.18.22-.09.44.18.43.36.58-.06 1.17-.1 1.66-.36.05-.22.3-.4.14-.65zm.6 1.24c-.1-.06.12-.32-.14-.27-.13.04-.27.21-.14.33.1-.02.22.03.28-.06zm.7-2.35l.23.09v-.23c-.17-.07-.15.11-.23.14zm-.37 4.54c.19.1.19-.2.19-.23-.15 0-.39-.22-.46 0 .19.05-.06.41.23.32-.02-.05.01-.07.04-.09zm.74.5l-.6-.03.14.09-.23.09c.25-.15.46.06.7-.15zM24.8 16.53c-.03-.06-.15.1-.27.04a.62.62 0 0 0-.37-.23c-.1.1-.04.23-.05.34.21.3.52.34.65.7-.23.56-.6.83-1.16 1.15-.13-.01-.16-.22-.33-.14l-.18.32c-.45.06-.84.27-1.34.18 0-.04-.03-.07-.05-.09-.27-.01-.22.27-.52.23-.16.35.13.6.05.98-.2-.05-.21.13-.37.23.22.02.31.16.46.23.04.27.13.5.1.79-.8.04-1.49.3-2.27.32-.13-.49.18-.72.14-1.2l.32-.23c-.06-.24-.49-.13-.6-.1l-.04.05c-.05-.8-.35-1.6-.23-2.37-.25-.44-.3-.95-.34-1.48.12-.14.07-.15.29-.27.16-.11.21.23.37.04-.06-.6-1.12-.17-.79-.97.43-.03.62-.24.83-.6.56.05 1.14-.31 1.62-.05.33-.38.98.2 1.26-.32.05.1.13 0 .18-.06.57.07 1.17.04 1.62.38.3.38-.56.55-.23 1.01.22-.11.13-.3.18-.46l.1.1c0-.24.17.1.24-.14v-.23c.04.01.06-.03.09-.05.49.53.87 1.25.64 1.9zm-4.17 1.25c-.18-.02-.32-.23-.41-.37.04-.03.06-.12.14-.1-.1-.36-.3 0-.46 0 .63.05-.06.58.23.85.11-.22.33-.39.5-.38zm2-.92l.14.14c-.27-.27.25-.36.23-.6-.12-.07-.23-.16-.38-.19-.34-.6-1.3-.42-1.9-.33l.2 1.53c.25-.07 1-.31.96.23-.04-.54.6-.37.74-.78zm.55 1.24c-.23.08-.3.22-.46.33.09.04.6 0 .46-.33zm8.71-.73c.08.14.27.03.38.04 0 .01.07-.08.18-.04-.1 1.3-1.11 2.27-2.27 2.73l-.37-.09c-.07.39-.79.28-1.21.37-.94-.09-1.78-.3-2.36-1.03.16-.4-.32-.24-.46-.4a4.49 4.49 0 0 1-.52-3.9c.07.07.18.18.33.13.09-.13-.02-.35-.18-.41.33-.51.56-1.07 1.24-1.07.27-.37.67.1.84-.32-.11 0-.28-.04-.41-.09.23-.08.44-.22.7-.23.25-.08.73-.28 1.01 0a2.26 2.26 0 0 1 1.66.14c.26.18.57.33.89.6-.1.21-.32.55-.05.79.05.09.13-.01.2-.05v-.14c.28.1-.02-.2.26-.1.62.72.74 1.68.79 2.56.06.45-.47.27-.65.51zm-4.68-3.53l.2.24c.17.02.17-.18.26-.29-.14.02-.33-.02-.46.05zm-.13 3.62c-.17-.22-.04-.45-.43-.37 0 .18-.02.51.29.51-.02 0 .02-.14.14-.14zm1.1 2.27c.06-.26-.24-.1-.37-.15.07.16.16.3.38.24v-.1zm1.63-1.48c.36-.38.22-1.06.64-1.4.05 0 .12 0 .14.06 0-.25-.36-.27-.23-.52h.05v-.14c-.1-.05-.24-.05-.32-.18-.1-.14 0-.3.04-.46-.46-.17-.46-.66-.88-.84-.36-.15-.68-.1-1.06-.05-.79.06-.38 1.27-1.3.98-.07.16-.47.05-.27.28.16-.09.27-.3.5-.23.51 0 .28 1.02.28 1.02s-.35.06-.28.27h.05V17c.02-.08.13-.04.18-.05.3.59.41 1.51 1.3 1.62.04.15.09.2.23.28l.18-.23c.18-.1.45-.04.57.09l.04-.05c-.1-.48.23.04.42-.1l-.28-.31zm.78.78c-.07-.01-.18.04-.23-.04-.14.14.14.18.23.23v-.19zm-11.62 2.55c-.82.14-1.71.32-2.6.37-.04-.14-.34-.28-.1-.4.28-.06.5.1.65-.15-.36.05-.65-.6-.96-.09-.39-.3-.54-.8-.98-1.12-.23.26-.07.81-.55.84.23.45-.21.86-.29 1.3l-1.66.23c.01-.2-.22-.17-.28-.32-.22.13-.1.55-.52.46h-.09l1.02-2.08c.12 0 .33-.02.46-.1l-.27-.24.74-1.57-.32-.41c.19-.17.56-.1.74-.05-.15-.21-.51-.27-.74-.24-.3.28-.57-.47-.84-.6.05-.18.51-.37.14-.55-.15.06-.26.25-.46.18l-1.2-1.34c.6-.12 1.27-.25 1.94-.32.22.07.13.37.27.5.1-.07.04-.18.06-.27l.28-.05-.23-.24c.46.03.5.56.82.79-.1.18-.01.37.1.51.26-.07.35.13.5.29.08-.08.22-.22.2-.38.09-.18.18-.42.27-.65.13 0 .28.04.37-.04.08-.2-.13-.14-.18-.28-.04-.16 0-.6.32-.6h.18c.02.06-.03.15.06.18.09.02.16 0 .23-.09 0-.05.01-.11-.05-.14.65-.09 1.3-.2 1.94-.28-.36.64-.6 1.36-1.06 1.9.1.78-1.62 1.82-.23 2.41.05.25-.05.53.18.75.1-.17.25.13.32-.1l1.21 1.35c-.09 0-.12.09-.19.14.22.28.62.02.8.5zm-2.05-6.4c.12.26.12.22.43.29v-.15h-.05c-.08-.03-.04-.14-.06-.23-.09-.04-.36-.13-.32.1zm-3.19 4.64c-.01-.18-.03-.52-.28-.33.3.04-.03.33.28.33zm1.76-1.52h-.23l.18.18c.08-.04.04-.13.05-.18zm.27-2.05c.34.41.53-.37.9-.04l-.11-.1c-.26-.1-.55.17-.79.14zm.47 2.74c-.02-.14-.35-.24-.32 0 .05.08.14.1.23.1.05.02.11-.06.09-.1zm.98 1.29c-.08-.27-.33.04-.47.05.16-.04.38.1.47-.05zm-5.7 2.42c-.65.04-1.38.3-1.95.13-.26.15-.5.3-.84.23l-.18-.18c-.06.13-.3.12-.14.28-.76-.06-1.48.52-2.18.04.15.36-.28.23-.46.32h-.1c-.01-.27-.17-.55-.04-.82.06.01.09-.06.14-.1.03-.12-.06-.18-.1-.27h-.13l.04-.05c-.2-.04-.03-.22-.04-.33.12-.05.09-.16.09-.28-.06-.04-.1-.13-.2-.13l-.03.04c.05-.37-.32-.7.09-.97.13-.03.3.08.37-.1-.2-.05-.49-.1-.66.05l-.23-1.7c.05 0 .08-.04.1-.06-.03-.17.11-.37-.19-.6-.07-.12-.04-.31-.04-.47.12-.02.22.18.33.05-.07-.4-.67-.51-.47-1.07l-.09-.09c.4.3 1.06-.63 1.4.1.07-.06.1-.15.08-.24l-.05-.04c.12-.33.43.25.47-.14.11-.02.23-.06.37-.05.09.08 0 .23.14.28.14-.15.06-.34.32-.37.29-.05.4.07.56.23a.68.68 0 0 1 .19-.23c.23.04.46.13.5-.18l.7-.1c-.03.15.16.04.14.1l-.05.04.14.14c.07-.06.22-.18.09-.28.22-.18.56-.02.8-.13-.02.28.18.67-.29.64l-.05-.05c-.08.04-.03.13-.04.2.27.16.6-.02.56.46l.05.32-1.96.28c-.15-.09-.26-.23-.41-.28.09.67-.76.23-1.07.55.03.12.06.23.05.38-.06-.13-.24-.13-.37-.18-.04.03-.12.06-.1.12.2.15.68.16.56.61.72-.14 1.33.13 2.09-.23.15-.03.25.05.28.2.06-.15.26-.38.5-.3.2.23.03.59.14.84-.03-.02-.34 0-.23.24.12.01.14.24.29.09l.09.37c-.79.27-1.77.24-2.55.37l-.2-.14c-.28.37-.02.86-.03 1.3.24.25.47-.11.78 0 .3.6.76.31 1.3.32l.1-.09c-.23-.18-.56-.06-.85-.1v-.23l1.68-.27c.11.04.23.23.37.09-.05-.13.12-.13.18-.18.08.54.22 1.05.23 1.62zm-3.02-2.69c.43.01.8-.41 1.21-.2-.36-.21-.9-.23-1.2.2zm-.98-2.78c-.28-.15-.59.05-.78.18.27.09.54-.06.78-.18zm-.46 2c.01-.1-.12-.1-.18-.1-.03.1.01.31.18.22v-.13zm3.53 2.86c.02-.07.2-.1.14-.09.09-.4-.38-.25-.29.04.08.13.12.22.29.23-.03-.11-.14-.05-.14-.18zM5.67.16h1.25L8.74 5.9H7.6l-.35-1.17H5.3L4.95 5.9H3.84L5.67.16zm-.08 3.58h1.37l-.68-2.3-.69 2.3zm7.63 0c0 .81-.16 1.4-.49 1.77-.32.36-.86.54-1.6.54-.7 0-1.23-.19-1.57-.57s-.5-.96-.51-1.75V.16h1.08v3.61c0 .41.08.72.25.93.17.2.42.3.76.3.36 0 .61-.09.77-.28.15-.19.23-.5.23-.95V.16h1.08v3.57zm3.5-1.86c-.02-.27-.13-.5-.33-.65s-.45-.24-.77-.24c-.27 0-.48.07-.64.2s-.23.32-.23.56c0 .17.08.3.24.4.16.1.5.2 1.02.33.75.19 1.25.4 1.5.65.26.24.38.63.38 1.16 0 .54-.19.97-.57 1.29-.38.31-.9.47-1.55.47s-1.16-.17-1.53-.5-.56-.82-.59-1.43h1.04c.01.3.11.53.3.7s.45.24.78.24c.35 0 .62-.06.8-.18.2-.13.3-.3.3-.51 0-.22-.07-.38-.21-.48-.14-.1-.43-.2-.87-.32a4.33 4.33 0 0 1-1.64-.66c-.28-.23-.42-.6-.42-1.1 0-.55.19-1 .55-1.32.36-.33.85-.49 1.47-.49.58 0 1.05.17 1.41.5.37.35.57.8.6 1.38h-1.04zm2.76-.7h-1.56V.16h4.2v1.02h-1.56V5.9h-1.08V1.18zM22.4.16H25c.5 0 .89.14 1.19.44.3.29.45.67.45 1.15 0 .55-.17.96-.5 1.21-.09.07-.2.13-.3.18.06.02.12.06.17.09.3.2.45.52.46.98l.02.94c0 .2.03.32.06.4.03.08.09.14.17.19v.15h-1.19a6.36 6.36 0 0 1-.1-1.02l-.02-.53c0-.26-.07-.44-.2-.55s-.35-.16-.66-.16H23.5V5.9H22.4V.16zm1.08 2.5h1.25c.28 0 .48-.06.62-.19.14-.12.21-.31.21-.57 0-.25-.06-.44-.2-.57-.13-.12-.33-.19-.6-.19H23.5v1.52zm5.18-2.5h1.25l1.82 5.74H30.6l-.35-1.17H28.3l-.34 1.17h-1.11L28.67.16zm-.08 3.58h1.37l-.68-2.3-.69 2.3zm3.5 2.16V.16h1.07v4.72h2.57V5.9h-3.65zM36.03.16h1.07V5.9h-1.07V.16zm3.15 0h1.25l1.83 5.74h-1.14l-.35-1.17h-1.96l-.34 1.17h-1.11L39.19.16zm-.07 3.58h1.37l-.69-2.3-.68 2.3zm4.44 2.16h-1V.16h1.13l2.07 4.03V.16h1V5.9H45.7l-2.13-4.14V5.9z"/></svg>