<?xml version="1.0" encoding="utf-8"?>
<!-- Generator: Adobe Illustrator 22.0.1, SVG Export Plug-In . SVG Version: 6.00 Build 0)  -->
<svg version="1.1" id="Layer_1" xmlns="http://www.w3.org/2000/svg" xmlns:xlink="http://www.w3.org/1999/xlink" x="0px" y="0px"
	 viewBox="0 0 291.4091 146.4607" enable-background="new 0 0 291.4091 146.4607" xml:space="preserve">
<path d="M33.617,114.5114l-5.1979,0.5832c-0.5296,0.0967-0.9146,0.0604-1.1549-0.1093c-0.2404-0.1708-0.409-0.5217-0.5046-1.0571
	l-2.3602-11.0016H10.2699l-2.3602,11.0063c-0.1949,0.9226-0.7529,1.312-1.6745,1.1664l-5.0224-0.5832
	c-0.9705-0.146-1.3588-0.6551-1.1641-1.5289l10.9342-47.5322c0.2416-0.9715,0.8475-1.458,1.8158-1.458h9.2973
	c0.9683,0,1.5492,0.4897,1.7428,1.4695l10.9331,47.5322C34.9655,113.862,34.5806,114.3654,33.617,114.5114z M23.0551,96.6572
	l-5.5826-26.0263l-0.2758,0.0036l-5.5815,26.0227H23.0551z M37.8852,102.2707V65.4549c0-0.5343,0.1095-0.9115,0.3281-1.1301
	c0.2188-0.2186,0.5945-0.3279,1.1299-0.3279h5.2491c0.5341,0,0.9111,0.1093,1.1299,0.3279
	c0.2186,0.2186,0.3281,0.5958,0.3281,1.1301v36.5968c0,2.3821,0.5467,4.0951,1.6403,5.1396c1.0934,1.046,2.9274,1.5677,5.504,1.5677
	c2.6245,0,4.5438-0.5343,5.7593-1.604c1.2142-1.0686,1.8226-2.7704,1.8226-5.1033V65.4549c0-0.5343,0.1093-0.9115,0.3279-1.1301
	c0.2188-0.2186,0.5947-0.3279,1.1301-0.3279h5.2489c0.5341,0,0.9113,0.1093,1.1299,0.3279
	c0.2188,0.2186,0.3281,0.5958,0.3281,1.1301v36.8158c0,4.7635-1.3372,8.1902-4.0097,10.2792
	c-2.6734,2.0901-6.5372,3.1347-11.5914,3.1347h-0.3644c-5.0064,0-8.7734-1.0445-11.3-3.1347
	C39.1485,110.4609,37.8852,107.0342,37.8852,102.2707z M83.9998,113.3518V70.5582H73.8664c-0.5832,0-0.9728-0.1097-1.1664-0.3283
	c-0.1947-0.2186-0.2677-0.5947-0.2186-1.1301l0.3644-3.6449c0.0478-0.9715,0.5582-1.458,1.531-1.458h27.3384
	c0.4852,0,0.8257,0.1093,1.0206,0.3279c0.1936,0.2186,0.3394,0.5958,0.4374,1.1301l0.4374,3.6449
	c0.1458,0.973-0.2916,1.4584-1.3122,1.4584H92.1649v42.1373c0,0.827-0.1095,1.385-0.3281,1.6767
	c-0.2188,0.2916-0.5958,0.4376-1.1299,0.4376H85.385C84.4611,114.8098,83.9998,114.3244,83.9998,113.3518z M107.993,113.3518
	V65.4549c0-0.5343,0.1095-0.9115,0.3281-1.1301c0.2188-0.2186,0.5945-0.3279,1.1299-0.3279h5.2491
	c0.5341,0,0.9111,0.1093,1.1299,0.3279c0.2186,0.2186,0.3281,0.5958,0.3281,1.1301v19.6106h15.3095V65.4549
	c0-0.5343,0.1093-0.9115,0.3279-1.1301c0.2188-0.2186,0.5947-0.3279,1.1301-0.3279h5.2489c0.5343,0,0.9115,0.1093,1.1301,0.3279
	c0.2186,0.2186,0.3279,0.5958,0.3279,1.1301v47.8968c0,0.5354-0.1093,0.9111-0.3279,1.1301
	c-0.2186,0.2186-0.5958,0.3279-1.1301,0.3279h-5.2489c-0.5354,0-0.9113-0.1093-1.1301-0.3279
	c-0.2186-0.219-0.3279-0.5947-0.3279-1.1301V91.7725h-15.3095v21.5792c0,0.5354-0.1095,0.9111-0.3281,1.1301
	c-0.2188,0.2186-0.5958,0.3279-1.1299,0.3279h-5.2491c-0.5354,0-0.9111-0.1093-1.1299-0.3279
	C108.1025,114.2629,107.993,113.8871,107.993,113.3518z M145.925,113.3518V65.4549c0-0.5343,0.1093-0.9115,0.3279-1.1301
	c0.2186-0.2186,0.5947-0.3279,1.1298-0.3279h23.7665c0.9715,0,1.531,0.4624,1.677,1.385l0.4372,3.6453
	c0.146,1.0204-0.3171,1.531-1.385,1.531H154.09v14.5073h14.0705c0.9715,0,1.4577,0.4865,1.4577,1.458v3.7909
	c0,0.973-0.4861,1.458-1.4577,1.458H154.09v16.1117h18.3716c1.1664,0,1.6511,0.4861,1.4577,1.458l-0.6558,4.0825
	c-0.0489,0.5354-0.1949,0.8996-0.4372,1.0934c-0.2438,0.1949-0.6328,0.2916-1.1664,0.2916h-24.2771
	c-0.535,0-0.9111-0.1093-1.1298-0.3279C146.0343,114.2629,145.925,113.8871,145.925,113.3518z M179.1675,113.3518V65.4549
	c0-0.5343,0.1082-0.9115,0.3258-1.1301c0.2164-0.2186,0.5911-0.3279,1.1233-0.3279h5.9414c0.8202,0,1.4239,0.4455,1.8111,1.3361
	l10.8624,25.7344c1.8215,4.1238,3.299,7.9546,4.4313,11.4949h0.2916c-0.4865-4.9573-0.7292-11.6154-0.7292-19.9752V65.4549
	c0-0.5343,0.1093-0.9115,0.3283-1.1301c0.2186-0.2186,0.5944-0.3279,1.1298-0.3279h4.8117c0.9715,0,1.458,0.4865,1.458,1.458
	v47.8238c0,1.0208-0.5127,1.531-1.5368,1.531h-5.8526c-0.8781,0-1.5127-0.4329-1.9021-1.2988l-10.6837-25.3104
	c-2.285-5.2971-3.7909-9.2588-4.5201-11.8832h-0.2916c0.4854,5.0555,0.7292,12.1748,0.7292,21.3603v15.6741
	c0,0.5354-0.1093,0.9111-0.3283,1.1301c-0.2186,0.2186-0.5954,0.3279-1.1297,0.3279h-4.8117c-0.5354,0-0.9111-0.1093-1.1297-0.3279
	C179.2768,114.2629,179.1675,113.8871,179.1675,113.3518z M225.8968,113.3518V70.5582h-10.1332
	c-0.5832,0-0.973-0.1097-1.1664-0.3283c-0.1949-0.2186-0.2679-0.5947-0.219-1.1301l0.3646-3.6449
	c0.0478-0.9715,0.558-1.458,1.531-1.458h27.3384c0.4851,0,0.8259,0.1093,1.0204,0.3279c0.1938,0.2186,0.3394,0.5958,0.4376,1.1301
	l0.4372,3.6449c0.146,0.973-0.2916,1.4584-1.312,1.4584h-10.1336v42.1373c0,0.827-0.1093,1.385-0.3279,1.6767
	c-0.2186,0.2916-0.5958,0.4376-1.1301,0.4376h-5.3219C226.3581,114.8098,225.8968,114.3244,225.8968,113.3518z M250.0369,113.3518
	V65.4549c0-0.5343,0.1093-0.9115,0.3283-1.1301c0.2186-0.2186,0.5944-0.3279,1.1297-0.3279h5.2489
	c0.5343,0,0.9115,0.1093,1.1301,0.3279c0.2186,0.2186,0.3279,0.5958,0.3279,1.1301v47.8968c0,0.5354-0.1093,0.9111-0.3279,1.1301
	c-0.2186,0.2186-0.5958,0.3279-1.1301,0.3279h-5.2489c-0.5354,0-0.9111-0.1093-1.1297-0.3279
	C250.1462,114.2629,250.0369,113.8871,250.0369,113.3518z M264.4634,101.8331V77.0462c0-4.8113,1.3235-8.298,3.9732-10.4612
	c2.6482-2.1621,6.5977-3.2443,11.8466-3.2443c3.0128,0,5.9292,0.3168,8.7482,0.9478c0.9226,0.2438,1.458,0.8018,1.604,1.6766
	L291,69.6104c0.0478,0.5354-0.0252,0.8874-0.219,1.0571c-0.1945,0.1708-0.5591,0.2312-1.0934,0.1823
	c-4.0825-0.6314-7.1204-0.9478-9.1128-0.9478c-2.8193,0-4.8606,0.5591-6.1237,1.6766c-1.2646,1.1186-1.8956,2.9161-1.8956,5.3949
	v24.4949c0,2.5277,0.571,4.3378,1.7133,5.4312c1.1413,1.0938,3.1225,1.6403,5.9414,1.6403c3.9369,0,7.1924-0.3642,9.769-1.0934
	c0.5832-0.1456,0.9841-0.1093,1.2027,0.1093c0.219,0.2186,0.2794,0.5721,0.1823,1.0571L291,112.5499
	c-0.146,0.9237-0.6814,1.5307-1.604,1.8223c-3.2566,0.7292-6.4642,1.0938-9.623,1.0938c-5.1522,0-8.992-1.0686-11.5186-3.2077
	C265.7266,110.12,264.4634,106.6448,264.4634,101.8331z M173.1543,48.4222h-6.9082l4.1204-24.47
	c0.0831-0.3883-0.0491-0.66-0.3976-0.8151l-3.3961-1.5121c-0.3484-0.1552-0.6384-0.074-0.8687,0.243l-11.1651,14.0658
	l-5.5966-21.7314c-0.1021-0.4838-0.3901-0.726-0.8651-0.726h-4.6294c-0.475,0-0.7637,0.2391-0.8651,0.7164l-5.6595,21.9756
	L125.572,21.8681c-0.2303-0.317-0.5202-0.3981-0.8687-0.243l-3.3961,1.5121c-0.3485,0.1551-0.4806,0.4268-0.3975,0.8151
	l4.1204,24.47h-7.078c-0.4968,0-0.7457,0.2315-0.7457,0.6925v2.8234c0,0.4977,0.2489,0.7457,0.7457,0.7457h55.2023
	c0.4976,0,0.7457-0.2479,0.7457-0.7457v-2.8234C173.9001,48.6537,173.6519,48.4222,173.1543,48.4222z M166.9406,24.8725
	l0.2095,0.1137l-2.9027,16.1628l-7.3868-3.2888L166.9406,24.8725z M163.7466,43.9402l-0.8059,4.4821h-5.206
	c-0.0043-0.0723-0.0154-0.1496-0.0404-0.2368l-2.0188-7.8387L163.7466,43.9402z M145.5112,16.9846l0.2959,0.0232l4.8843,19.8575
	h-10.0692L145.5112,16.9846z M151.0779,40.2942l-2.8935,3.6452c-0.2275,0.3093-0.1866,0.5475,0.1237,0.7152l1.713,1.1225
	c0.3335,0.178,0.6098,0.1211,0.8284-0.171l1.5123-1.9487l1.171,4.7648h-15.752l1.1624-4.7276l1.4834,1.9115
	c0.2186,0.2921,0.4949,0.3491,0.8284,0.171l1.713-1.1225c0.3103-0.1677,0.3512-0.4059,0.1237-0.7152l-2.8935-3.6452H151.0779z
	 M124.3356,24.8725l10.08,12.9877l-7.3868,3.2888l-2.9027-16.1628L124.3356,24.8725z M127.5297,43.9402l8.3496-3.7175
	l-2.0482,7.9531c-0.02,0.0913-0.0265,0.1718-0.0259,0.2465h-5.4697L127.5297,43.9402z M120.2614,12.9375
	c-1.8228,0-3.3005,1.4777-3.3005,3.3005c0,1.8228,1.4777,3.3005,3.3005,3.3005c1.8228,0,3.3005-1.4777,3.3005-3.3005
	C123.5618,14.4152,122.0842,12.9375,120.2614,12.9375z M171.1028,12.8761c-1.8228,0-3.3005,1.4777-3.3005,3.3005
	s1.4777,3.3005,3.3005,3.3005s3.3005-1.4777,3.3005-3.3005S172.9256,12.8761,171.1028,12.8761z M145.5966,0
	c-2.7766,0-5.0274,2.2508-5.0274,5.0274s2.2508,5.0274,5.0274,5.0274s5.0274-2.2508,5.0274-5.0274S148.3732,0,145.5966,0z
	 M63.5063,143.0611l-1.1303-7.1942c-0.2085-1.3268,0.0056-2.3519,0.6427-3.0753c0.637-0.7231,1.688-1.1999,3.1532-1.43
	c0.4423-0.0697,0.8741-0.1161,1.2952-0.1399c0.4212-0.0237,0.7328-0.023,0.935,0.0018l0.3001,0.0165
	c0.2161,0.023,0.3439,0.1161,0.3838,0.2797l0.1926,0.8194c0.0309,0.1086,0.0288,0.1834-0.0074,0.2244
	c-0.036,0.041-0.1104,0.0633-0.2231,0.0669c-0.9034-0.0705-1.7836-0.0385-2.6405,0.096c-0.9676,0.1521-1.638,0.4592-2.0116,0.9216
	c-0.3734,0.4624-0.4949,1.1082-0.3648,1.9373l1.124,7.1528c0.1325,0.8435,0.422,1.4246,0.8687,1.7439
	c0.4466,0.3193,1.147,0.4038,2.1008,0.2542c0.4836-0.0762,0.9597-0.1791,1.4278-0.3096c0.4682-0.1298,0.8151-0.2413,1.0417-0.3337
	l0.3394-0.1381c0.1061-0.045,0.1866-0.0507,0.2416-0.0169c0.0548,0.0338,0.0829,0.1007,0.0845,0.1992l0.0331,0.887
	c0.0144,0.1819-0.0698,0.3229-0.2522,0.4221c-0.6427,0.3272-1.5583,0.5847-2.7469,0.7716
	c-1.4377,0.2258-2.5423,0.0913-3.3137-0.4038C64.2081,145.3195,63.717,144.4019,63.5063,143.0611z M77.5072,141.1335l-0.7542-7.37
	c-0.1368-1.3361,0.1289-2.3476,0.797-3.0351c0.6681-0.6871,1.7466-1.1071,3.2361-1.2596l0.2921-0.0298
	c1.4753-0.151,2.5887,0.041,3.3396,0.576c0.7508,0.535,1.1954,1.4778,1.3336,2.8276l0.7542,7.37
	c0.1368,1.3361-0.1325,2.3483-0.8074,3.0361c-0.6753,0.6882-1.7574,1.1082-3.2465,1.2606l-0.2715,0.0277
	c-1.4755,0.151-2.5885-0.041-3.3395-0.576C78.0898,143.4261,77.6454,142.4836,77.5072,141.1335z M82.0495,143.0525l0.2504-0.0255
	c0.9883-0.101,1.6817-0.3689,2.0803-0.8036c0.3986-0.4344,0.555-1.0694,0.4696-1.9046L84.1,132.9904
	c-0.087-0.8486-0.3486-1.448-0.7853-1.7971c-0.4365-0.3488-1.1422-0.4739-2.1162-0.3739l-0.2506,0.0255
	c-0.9744,0.0996-1.6603,0.3704-2.0581,0.8119s-0.5541,1.0798-0.4687,1.915l0.7501,7.3279c0.0868,0.8493,0.3446,1.4454,0.7736,1.7881
	C80.3734,143.0309,81.0751,143.1524,82.0495,143.0525z M94.1663,142.9238l-0.9712-14.0068
	c-0.0137-0.1953,0.0771-0.2999,0.2727-0.3135l1.1096-0.077c0.1812-0.0126,0.279,0.0791,0.2925,0.2744l0.8887,12.8134l4.9201-0.3412
	c0.1952-0.0137,0.2927,0.078,0.2925,0.2744l-0.0422,0.9075c-0.0005,0.1963-0.1054,0.3017-0.3146,0.3161l-6.1345,0.4254
	C94.2842,143.21,94.18,143.1194,94.1663,142.9238z M107.3039,142.0986l-0.6621-14.0244c-0.0093-0.1956,0.0836-0.2981,0.2796-0.3074
	l1.1111-0.0525c0.1814-0.0086,0.2772,0.0852,0.2864,0.2808l0.6059,12.8296l4.9264-0.2326c0.1956-0.0094,0.2911,0.0845,0.2864,0.2805
	l-0.0622,0.9065c-0.0049,0.1967-0.1118,0.2995-0.3214,0.3092l-6.1424,0.2902C107.4154,142.3876,107.3132,142.2945,107.3039,142.0986
	z M120.4852,141.5459l-0.3887-14.0349c-0.0054-0.196,0.0895-0.2966,0.2857-0.302l6.8391-0.1895
	c0.1956-0.0054,0.3033,0.0899,0.3229,0.2851l0.1264,0.7734c0.0336,0.2089-0.0543,0.3164-0.2641,0.3222l-5.6015,0.155l0.1361,4.9091
	l4.5314-0.1255c0.1956-0.0054,0.2965,0.0899,0.3019,0.2855l0.0245,0.8813c0.005,0.1819-0.0906,0.2754-0.2862,0.2808l-4.5314,0.1255
	l0.1492,5.3917l5.7902-0.1604c0.2098-0.0058,0.3101,0.0895,0.3019,0.2855l-0.1214,0.9273c-0.0369,0.183-0.1465,0.2769-0.3281,0.2819
	l-6.986,0.1934C120.591,141.8368,120.4905,141.7419,120.4852,141.5459z M134.881,137.8374l-0.0672-7.2823
	c-0.0126-1.343,0.3491-2.3257,1.0852-2.9481c0.7357-0.6224,1.8449-0.9406,3.3281-0.9543c0.4476-0.0043,0.8817,0.0129,1.302,0.0511
	c0.42,0.0378,0.7281,0.0841,0.9244,0.1381l0.2945,0.0604c0.2103,0.0539,0.3232,0.165,0.3391,0.3326l0.0705,0.8389
	c0.0147,0.1122,0.0018,0.1855-0.0399,0.2208c-0.0417,0.0356-0.1187,0.0467-0.2305,0.0338c-0.8834-0.2017-1.759-0.2988-2.6263-0.2909
	c-0.9795,0.0094-1.6874,0.215-2.1247,0.6181c-0.4369,0.4027-0.6515,1.0237-0.6436,1.8633l0.0669,7.2402
	c0.0079,0.8536,0.2093,1.471,0.6048,1.8518c0.3948,0.3815,1.0755,0.5674,2.0409,0.5584c0.4894-0.0047,0.9755-0.037,1.4577-0.0974
	c0.4822-0.06,0.8418-0.1197,1.0794-0.178l0.356-0.087c0.1115-0.0291,0.192-0.023,0.2413,0.0187
	c0.0493,0.0414,0.0672,0.1115,0.0547,0.2093l-0.0967,0.8824c-0.0126,0.1823-0.1165,0.3092-0.3114,0.3808
	c-0.6835,0.2301-1.627,0.3509-2.8301,0.3621c-1.4552,0.0133-2.5285-0.2812-3.2192-0.8834
	C135.2453,140.1742,134.8936,139.1947,134.881,137.8374z M151.4602,141.1694l0.1046-12.9486l-3.2109-0.0259
	c-0.196-0.0014-0.2862-0.0931-0.2708-0.2751l0.0906-0.8176c0.0155-0.1956,0.1212-0.293,0.3171-0.2912l7.8489,0.0633
	c0.1679,0.0014,0.2722,0.1003,0.3125,0.2966l0.0985,0.8191c0.0122,0.1823-0.0726,0.2726-0.2542,0.2708l-3.253-0.0262
	l-0.1025,12.6969c-0.0018,0.224-0.0241,0.3707-0.0665,0.4401c-0.0428,0.0697-0.1201,0.1039-0.2319,0.1032l-1.0913-0.009
	C151.5555,141.4643,151.4584,141.3658,151.4602,141.1694z M170.6595,141.7375l-1.11,0.1392
	c-0.1812,0.0093-0.297-0.0705-0.3484-0.2398l-0.7666-3.5061l-4.8192-0.1241l-0.9385,3.4331c-0.046,0.1805-0.165,0.2614-0.357,0.2427
	l-1.0276-0.1945c-0.1794-0.0183-0.2452-0.1226-0.1985-0.3132l3.9462-13.8382c0.0468-0.1949,0.1676-0.2898,0.3624-0.2848
	l1.8974,0.0489c0.1949,0.005,0.3103,0.1075,0.3473,0.3067l3.2289,14.0234C170.9266,141.6261,170.8543,141.7286,170.6595,141.7375z
	 M168.1245,136.7162l-1.7928-8.1916l-0.1208-0.0129l-2.2142,8.0985L168.1245,136.7162z M181.4978,142.2679l-3.9412-0.1884
	c-0.1956-0.0094-0.2887-0.1118-0.2794-0.3074l0.6702-14.0244c0.0094-0.1956,0.1115-0.2887,0.3074-0.2794l3.459,0.165
	c1.5095,0.0723,2.5655,0.3959,3.1681,0.9708c0.603,0.5753,0.8723,1.5335,0.8083,2.8751l-0.018,0.3775
	c-0.0708,1.4814-0.6188,2.394-1.6436,2.737c1.366,0.4297,2.0046,1.5806,1.915,3.4532l-0.0313,0.6497
	c-0.0665,1.3976-0.4383,2.3605-1.115,2.8884C184.1212,142.1129,183.0209,142.3405,181.4978,142.2679z M184.2345,138.6377
	l0.0374-0.7759c0.0414-0.8662-0.1151-1.4828-0.4685-1.8503c-0.3538-0.3668-0.9989-0.5728-1.9352-0.6177l-2.5993-0.124
	l-0.2574,5.3873l2.5367,0.1212c0.95,0.0457,1.6249-0.0831,2.0247-0.3862C183.9727,140.0889,184.1931,139.5043,184.2345,138.6377z
	 M183.9892,131.9024l0.0298-0.6289c0.0388-0.8105-0.1161-1.3782-0.4649-1.7033c-0.3488-0.3247-0.9913-0.5095-1.9273-0.5541
	l-2.0546-0.0982l-0.2344,4.9052l2.0125,0.0964c0.9363,0.0446,1.6008-0.0777,1.9927-0.3671
	C183.735,133.263,183.9504,132.7128,183.9892,131.9024z M192.8737,142.6199l1.0266-14.0025
	c0.0144-0.1953,0.119-0.2859,0.3146-0.2715l1.1093,0.0813c0.1812,0.0133,0.265,0.1176,0.2506,0.3128l-0.9392,12.8098l4.9188,0.3606
	c0.1953,0.0144,0.2787,0.1187,0.2506,0.3128l-0.1708,0.8924c-0.0284,0.1945-0.147,0.2837-0.3563,0.2686l-6.1327-0.4498
	C192.9496,142.9202,192.8593,142.8155,192.8737,142.6199z M205.9392,143.6734l1.4803-13.9622
	c0.0208-0.1945,0.1284-0.2819,0.3232-0.261l6.8037,0.7213c0.1945,0.0209,0.2887,0.1294,0.2819,0.3254l0.0227,0.7835
	c0.0054,0.2114-0.096,0.3064-0.3046,0.2841l-5.5725-0.5908l-0.5178,4.8836l4.5079,0.4779c0.1949,0.0209,0.2819,0.1287,0.2614,0.3232
	l-0.0931,0.8766c-0.0191,0.1809-0.1262,0.261-0.3207,0.2402l-4.5078-0.4779l-0.5688,5.3636l5.7602,0.6105
	c0.2086,0.0223,0.2952,0.1302,0.261,0.3232l-0.2434,0.9029c-0.0611,0.1766-0.1819,0.2549-0.3628,0.2359l-6.9497-0.7368
	C206.0053,143.9758,205.9183,143.8683,205.9392,143.6734z M219.8892,145.065l0.037-0.887c0.004-0.1125,0.0302-0.1863,0.0784-0.2211
	c0.0478-0.0349,0.132-0.028,0.2517,0.0194c1.371,0.4624,2.3882,0.7468,3.0509,0.854c1.1049,0.1783,1.8759,0.1435,2.3131-0.105
	c0.4365-0.2485,0.7324-0.8489,0.8863-1.8021l0.1036-0.6422c0.1406-0.8701,0.0784-1.4965-0.1855-1.8794
	c-0.2643-0.3829-0.8101-0.7332-1.6375-1.051l-0.3179-0.1363c-0.6274-0.2427-1.1164-0.4599-1.4681-0.6515
	c-0.3517-0.1913-0.6868-0.4437-1.0043-0.7576c-0.3182-0.3132-0.5196-0.6896-0.6044-1.1283c-0.0852-0.439-0.0773-0.9694,0.023-1.5907
	l0.0834-0.5181c0.2208-1.3674,0.7051-2.2599,1.453-2.678c0.7475-0.4174,1.8395-0.5106,3.2763-0.2787
	c1.0219,0.165,1.8212,0.3934,2.3979,0.6846c0.2096,0.105,0.3071,0.2485,0.292,0.43l-0.0442,0.8004
	c-0.0022,0.0992-0.027,0.1658-0.0748,0.2006c-0.0482,0.0349-0.1266,0.0363-0.2348,0.0047c-0.6551-0.3322-1.535-0.5879-2.6399-0.7662
	c-0.8425-0.1363-1.4778-0.0863-1.9053,0.1488c-0.4279,0.2352-0.7062,0.7529-0.8356,1.5533l-0.0766,0.4761
	c-0.1226,0.759-0.0514,1.3049,0.2139,1.6382c0.2654,0.333,0.8385,0.6699,1.7194,1.01l0.3182,0.1363
	c1.2808,0.4904,2.1387,1.0334,2.5741,1.6285c0.4351,0.5951,0.5469,1.5486,0.3347,2.8614l-0.1035,0.6429
	c-0.2434,1.5066-0.7288,2.4921-1.4552,2.956c-0.727,0.4638-1.9057,0.5642-3.5352,0.3013c-1.0222-0.165-2.0333-0.4419-3.0336-0.8299
	C219.9554,145.4019,219.8716,145.2606,219.8892,145.065z M50.4761,143.0006l-0.1142-0.8249
	c-0.0273-0.1973,0.0506-0.3086,0.234-0.334l5.4365-0.7527c0.1831-0.0254,0.2886,0.0606,0.3159,0.2579l0.1142,0.8249
	c0.0274,0.1977-0.0509,0.3091-0.2339,0.3344l-5.4365,0.7527C50.6087,143.2843,50.5035,143.1983,50.4761,143.0006z
	 M240.4974,143.1668l-5.4365-0.7527c-0.1831-0.0253-0.2613-0.1367-0.2339-0.3344l0.1142-0.8249
	c0.0273-0.1973,0.1329-0.2832,0.3159-0.2579l5.4365,0.7527c0.1834,0.0254,0.2613,0.1367,0.234,0.334l-0.1142,0.8249
	C240.786,143.1063,240.6808,143.1922,240.4974,143.1668z"/>
</svg>
