<?xml version="1.0" encoding="utf-8"?>
<!-- Generator: Adobe Illustrator 22.0.1, SVG Export Plug-In . SVG Version: 6.00 Build 0)  -->
<svg version="1.1" id="Layer_1" xmlns="http://www.w3.org/2000/svg" xmlns:xlink="http://www.w3.org/1999/xlink" x="0px" y="0px"
	 viewBox="0 0 171.3623 34.6296" enable-background="new 0 0 171.3623 34.6296" xml:space="preserve">
<path fill="#FFFFFF" d="M110.2494,34.3958l9.957-27.713h9.086l-9.954,27.713H110.2494z M120.8324,4.6938l1.578-4.4529h9.344
	l-1.575,4.4529H120.8324z M131.9121,34.6296c0.663,0,1.394-0.0129,2.236-0.043l3.88-0.184l2.05-5.707h-3.658
	c-0.51,0-0.843-0.116-1.014-0.353c-0.213-0.299-0.083-0.68-0.028-0.848l5.473-15.162h4.638l4.157-5.651h-6.755l2.228-6.199h-9.09
	l-2.226,6.199h-2.548l-2.037,5.651h2.547l-5.667,15.7191c-0.935,2.585-1.06,4.153-0.406,5.084
	C126.4371,34.1976,128.2381,34.6296,131.9121,34.6296z M142.3532,32.6984c-0.816-1.158-0.461-2.869,0.327-5.081l5.048-13.988
	c0.841-2.376,1.809-4.204,3.796-5.405c2.045-1.232,5.084-1.782,9.861-1.782h0.891c5.008,0,7.668,0.607,8.636,1.974
	c0.798,1.135,0.441,2.837-0.34,5.046l-4.001,11.084l-13.666,0.192l-1.036,2.853c-0.152,0.417-0.273,0.887-0.035,1.227
	c0.248,0.357,0.779,0.406,1.318,0.406h10.473l-1.826,5.173c-1.03,0.018-6.41,0.103-10.757,0.19c-0.343,0.006-0.677,0.01-0.998,0.01
	C145.7122,34.5974,143.2662,33.9944,142.3532,32.6984z M159.2102,11.8533c-1.247,0-1.778,0.356-2.181,1.463l-2.208,6.101h4.928
	l2.144-5.932c0.125-0.337,0.259-0.828,0.005-1.191c-0.271-0.389-0.867-0.441-1.415-0.441H159.2102z M110.8722,0l-0.52,1.151
	l-5.254,15.23h4.547L96.3282,34.58h10.715L119.4362,0H110.8722z"/>
<path fill="#F26F21" d="M37.679,34.5871c-3.721,0-5.755-0.532-6.59-1.724c-0.681-0.97-0.626-2.4969,0.161-4.6689l7.729-21.512h9.086
	l-7.275,20.189c-0.167,0.493-0.309,1.047-0.037,1.426c0.222,0.308,0.653,0.446,1.408,0.446h2.724l7.919-22.061h9.086l-9.958,27.717
	c-1.194,0.028-8.359,0.188-13.043,0.188H37.679z M64.5554,34.6296c0.666,0,1.399-0.0129,2.237-0.043l3.88-0.184l2.05-5.707h-3.657
	c-0.51,0-0.843-0.116-1.01-0.353c-0.215-0.299-0.086-0.68-0.032-0.848l5.476-15.162h4.635l4.157-5.651h-6.756l2.228-6.199h-9.09
	l-2.225,6.199h-2.546l-2.04,5.651h2.548l-5.665,15.7191c-0.937,2.585-1.062,4.153-0.408,5.084
	C59.0814,34.1976,60.8844,34.6296,64.5554,34.6296z M94.7964,34.5875h-11.789c-5.034,0-7.71-0.614-8.684-1.993
	c-0.801-1.135-0.452-2.812,0.318-4.9771l5.047-13.988c0.842-2.376,1.81-4.204,3.797-5.405c2.042-1.2321,5.083-1.783,9.862-1.783
	h3.51c4.217,0,6.398,0.44,7.072,1.426c0.077,0.109,0.132,0.226,0.175,0.351l-8.056,11.039h4.54L94.7964,34.5875z M93.6384,13.6304
	c0.144-0.4,0.272-0.902,0.023-1.259c-0.266-0.372-0.838-0.422-1.36-0.422h-1.083c-1.349,0-1.912,0.368-2.319,1.512l-5.045,13.987
	c-0.139,0.377-0.265,0.858-0.02,1.2079c0.262,0.373,0.839,0.423,1.368,0.423h1.145c1.249,0,1.78-0.354,2.182-1.462L93.6384,13.6304z
	 M33.742,1.2498l-5.645,33.146h-9.612l1.114-5.671h-7.015l-2.963,5.671H0l18.198-33.146H33.742z M24.989,4.9048l-8.553,15.628
	l-6.486,1.969h6.769l0.004-0.006h4.458L24.989,4.9048z"/>
</svg>
