<?xml version="1.0" encoding="utf-8"?>
<!-- Generator: Adobe Illustrator 22.0.1, SVG Export Plug-In . SVG Version: 6.00 Build 0)  -->
<svg version="1.1" id="Layer_1" xmlns="http://www.w3.org/2000/svg" xmlns:xlink="http://www.w3.org/1999/xlink" x="0px" y="0px"
	 viewBox="0 0 169.0399 28.068" enable-background="new 0 0 169.0399 28.068" xml:space="preserve">
<path fill="#231F20" d="M0,0.372h7.113c3.105,0,5.626,2.521,5.626,5.626c0,1.221-0.398,2.336-1.035,3.265
	c1.725,1.114,2.866,3.052,2.866,5.254c0,3.477-2.813,6.317-6.29,6.317L0,20.807V0.372z M6.874,8.2271
	c1.167,0,2.149-1.008,2.149-2.203c0-1.193-0.982-2.202-2.149-2.202H3.715v4.405H6.874z M8.068,17.357
	c1.539,0,2.787-1.327,2.787-2.866c0-1.54-1.248-2.866-2.787-2.866H3.715v5.732H8.068z M29.7599,20.807h-3.451v-1.088
	c0,0-1.247,1.274-3.37,1.274c-3.742,0-6.768-2.973-6.768-6.741c0-3.795,3.026-6.7679,6.768-6.7679c2.123,0,3.37,1.274,3.37,1.274
	V7.67h3.451V20.807z M22.9919,10.934c-1.832,0-3.371,1.407-3.371,3.318c0,1.911,1.539,3.291,3.371,3.291
	c1.804,0,3.3311-1.38,3.3311-3.291C26.323,12.341,24.7959,10.934,22.9919,10.934z M35.7869,2.096h-3.45v18.711h3.45V2.096z
	 M41.8139,2.096h-3.45v18.711h3.45V2.096z M72.1859,0.355h6.37c5.653,0.026,10.217,4.591,10.217,10.217
	c0,5.68-4.564,10.192-10.217,10.218h-6.37V0.355z M78.3699,17.34c3.954,0,6.688-3.0519,6.688-6.7679
	c0-3.688-2.734-6.767-6.688-6.767h-2.468V17.34H78.3699z M97.0719,7.659c3.742,0,6.768,3.026,6.768,6.741
	c0,3.742-3.026,6.768-6.768,6.768s-6.741-3.026-6.741-6.768C90.3309,10.685,93.3299,7.659,97.0719,7.659z M97.0719,11.109
	c-1.831,0-3.29,1.486-3.29,3.291c0,1.8311,1.459,3.317,3.29,3.317c1.832,0,3.318-1.486,3.318-3.317
	C100.3899,12.595,98.9039,11.109,97.0719,11.109z M109.9009,23.689c0.769,0.77,1.645,1.114,2.468,1.114
	c1.751,0.027,3.344-1.512,3.344-3.529v-1.38c0,0-1.248,1.274-3.398,1.274c-3.795,0-6.74-3.026-6.74-6.768
	c0-3.7419,2.945-6.741,6.74-6.741c2.15,0,3.398,1.274,3.398,1.274V7.844h3.397v13.43c0,4.22-3.185,6.794-6.821,6.794
	c-1.725,0-3.45-0.664-4.777-1.991L109.9009,23.689z M112.3149,11.056c-1.857,0-3.29,1.539-3.29,3.344
	c0,1.804,1.486,3.3441,3.29,3.3441c1.858,0,3.424-1.54,3.424-3.3441C115.7389,12.595,114.1729,11.056,112.3149,11.056z
	 M125.4779,23.689c0.769,0.77,1.645,1.114,2.468,1.114c1.751,0.027,3.344-1.512,3.344-3.529v-1.38c0,0-1.248,1.274-3.398,1.274
	c-3.795,0-6.74-3.026-6.74-6.768c0-3.7419,2.945-6.741,6.74-6.741c2.15,0,3.398,1.274,3.398,1.274V7.844h3.397v13.43
	c0,4.22-3.185,6.794-6.821,6.794c-1.725,0-3.45-0.664-4.777-1.991L125.4779,23.689z M127.8919,11.056
	c-1.857,0-3.29,1.539-3.29,3.344c0,1.804,1.486,3.3441,3.29,3.3441c1.858,0,3.424-1.54,3.424-3.3441
	C131.3159,12.595,129.7499,11.056,127.8919,11.056z M143.5119,7.66c4.326,0,6.741,3.238,6.741,8.121h-9.66
	c0.477,1.221,1.459,1.964,2.946,1.99c1.035,0.027,1.964-0.371,2.547-1.008l2.469,2.415c-1.433,1.38-3.318,1.9901-5.043,1.9901
	c-3.742,0-6.741-2.998-6.741-6.741C136.7709,10.632,139.7169,7.66,143.5119,7.66z M146.5639,13.074
	c-0.398-1.2469-1.645-2.043-3.132-2.043c-1.406,0.026-2.574,0.822-2.972,2.043H146.5639z M153.6949,20.9821h3.45V10.987h2.283V7.696
	h-2.283v-5.6h-3.45v5.6h-2.283v3.291h2.283V20.9821z M163.3069,20.9821h3.45V10.987h2.283V7.696h-2.283v-5.6h-3.45v5.6h-2.283v3.291
	h2.283V20.9821z M64.1029,18.649l-1.122-1.1219c0.527-0.985,0.807-2.091,0.807-3.239h-3.572c0,0.884-0.344,1.715-0.969,2.34
	c-0.625,0.626-1.456,0.9691-2.34,0.9691c-1.825,0-3.309-1.484-3.309-3.309s1.484-3.309,3.309-3.309v-0.01
	c0.104,0.006,0.209,0.01,0.315,0.01h2.619V7.408h-2.619c-1.058,0-1.919-0.861-1.919-1.919s0.861-1.918,1.919-1.918
	c0.512,0,0.994,0.199,1.356,0.562l2.525-2.526C60.0669,0.571,58.6879,0,57.2219,0c-3.027,0-5.49,2.462-5.49,5.489
	c0,1.225,0.404,2.357,1.084,3.271c-1.691,1.255-2.789,3.266-2.789,5.528c0,3.794,3.086,6.881,6.88,6.881
	c1.304,0,2.551-0.362,3.63-1.035l1.041,1.04L64.1029,18.649z"/>
</svg>
