<?xml version="1.0" encoding="utf-8"?>
<!-- Generator: Adobe Illustrator 22.0.1, SVG Export Plug-In . SVG Version: 6.00 Build 0)  -->
<svg version="1.1" id="Layer_1" xmlns="http://www.w3.org/2000/svg" xmlns:xlink="http://www.w3.org/1999/xlink" x="0px" y="0px"
	 viewBox="0 0 333.265 195.812" enable-background="new 0 0 333.265 195.812" xml:space="preserve">
<path d="M299.717,39.499c-23.545-21.563-55.081-34.521-88.828-36.508L208.858,0l-38.697,2.97h0l-0.061,0.004
	C73.193,9.582,23.695,50.111,9.682,134.36H0l12.652,36.551l12.614-15.362l13.529,26.308l8.912-12.677l24.73,26.632l12.516-32.618
	h-5.924c-6.365-24.774-2.788-49.532,10.354-71.629c16.837-28.308,45.437-46.166,66.312-51.307
	c33.415-8.227,66.039-2.641,89.498,15.333c23.142,17.729,36.304,46.521,37.061,81.074l0.022,1.028l1.345-0.723l-0.144-1.359
	c-1.003-34.483-14.306-63.226-37.523-81.013c-23.763-18.205-56.769-23.874-90.558-15.554c-21.128,5.202-50.065,23.262-67.087,51.881
	c-13.4,22.529-16.985,47.79-10.368,73.051l0.122,0.467h5.071l-11.146,29.048l-23.546-25.357l0.603-0.857h6.877l-0.09-0.704
	c-0.333-2.603-0.582-5.233-0.751-7.883l8.667-12.329h-8.851c1.63-49.378,31.835-102.089,100.778-116.764
	c39.547-8.416,76.252-0.927,103.356,21.09c0.471,0.382,0.931,0.775,1.393,1.164c22.758,23.83,29.94,57.167,29.668,80.501
	l-0.012,0.99l1.495-0.693l-0.226-1.273c0.095-25.125-7.345-50.255-20.479-69.093c-0.326-0.467-0.661-0.922-0.993-1.381
	c16.905,18.413,26.368,42.385,26.376,67.712l-0.01,1.431l1.258-0.689l0.001-0.369c0.099-29.451-12.43-57.121-34.505-76.569
	c-17.496-19.211-41.682-29.651-72.091-31.057c-3.202-0.148-6.515-0.241-9.94-0.241c-28.126,0-63.555,6.285-101.835,40.063
	l-0.576,0.508l4.407,3.306l-28.65,11.967c25.27-37.267,65.358-51.233,80.727-55.374c24.591-6.626,45.59-8.616,63.458-7.633
	l14.415,4.93l-0.285-3.463c24.646,3.835,42.254,13.563,54.3,23.43c25.486,20.876,39.397,53.382,37.213,86.953l1.474,0.335
	l-0.01-5.75c0.439-31.998-13.48-62.516-37.885-82.505c-0.756-0.619-1.537-1.237-2.336-1.854
	c7.318,5.176,13.302,10.658,18.107,15.856c18.733,20.265,28.839,46.622,27.077,70.58l0.028,1.365l1.162-0.539l0.028-0.364
	c1.918-24.396-8.316-51.271-27.378-71.891c-16.929-18.312-39.86-30.778-66.43-36.477c18.014,0.924,44.761,10.265,67.409,30.381
	c15.497,13.765,34.356,37.558,36.199,72.739l0.056,1.062l1.109-0.695l0.023-1.49c-2.185-35.032-21.038-58.767-36.557-72.551
	c-24.164-21.463-53.019-30.772-71.208-30.772c-1.096,0-2.155,0.034-3.17,0.101l-0.18,0.012c-5.474-0.934-11.084-1.597-16.82-1.966
	l-21.623-7.395l35.014-2.686l1.97,2.901l0.309,0.018c67.345,3.827,123.986,53.593,121.428,106.596l0.178,1.364l1.037-0.65
	l0.017-0.324C334.483,86.309,322.291,60.173,299.717,39.499z M54.504,166.026h-4.581l4.006-5.699
	C54.08,162.225,54.271,164.125,54.504,166.026z M61.342,147.61l-6.372,9.063c-0.143-3.001-0.178-6.025-0.108-9.063H61.342z
	 M85.461,65.307l-4.926-3.693c42.382-37.117,81.199-40.35,110.313-39.004c25.908,1.198,45.526,9.161,60.186,20.699
	c-26.302-17.236-59.813-22.555-95.62-14.934c-35.199,7.492-63.337,25.661-81.372,52.543c-14.978,22.326-22.042,49.542-20.249,77.43
	l-5.398,7.679h-3.617l2.058,2.217l-7.876,11.203l-12.831-24.95L40.2,137.36h-6.968c2.347-23.944,9.833-43.152,19.842-58.524
	L85.461,65.307z M134.715,20.382c-18.233,4.913-44.627,15.506-66.814,38.07c-5.915,6.015-11.099,12.481-15.596,19.35l-6.632,2.77
	l8.923-30.996l6.359,3.498l0.329-0.28c43.789-37.389,84.49-40.518,122.427-40.518c2.742,0,5.412,0.072,8.037,0.188
	C175.293,12.273,156.378,14.544,134.715,20.382z M211.511,17.085l-8.132-2.781c2.736,0.241,5.398,0.549,7.979,0.925L211.511,17.085z
	 M190.319,11.159c-2.188-0.083-4.389-0.132-6.608-0.132c-36.405,0-78.918,3.14-122.91,40.536l-6.973-3.836L43.751,82.73l7.329-3.061
	c-10.693,17.002-17.121,36.5-19.157,58.258l-0.064,0.684h5.697l-24.452,29.781L1.756,135.61h8.986l0.087-0.523
	C24.607,51.191,73.714,10.83,170.062,4.23L190.319,11.159z"/>
</svg>
