<?xml version="1.0" encoding="utf-8"?>
<!-- Generator: Adobe Illustrator 22.0.1, SVG Export Plug-In . SVG Version: 6.00 Build 0)  -->
<svg version="1.1" id="Layer_1" xmlns="http://www.w3.org/2000/svg" xmlns:xlink="http://www.w3.org/1999/xlink" x="0px" y="0px"
	 viewBox="0 0 176.1061 24.9596" enable-background="new 0 0 176.1061 24.9596" xml:space="preserve">
<path d="M159.002,11.7956v2.3584l-11.3735-0.5473l-11.689-5.7798v2.4648h-11.9578l2.2468-1.1533l-14.6641-5.8789v2.5322H78.627
	v0.0566L68.6064,2.0544v1.6992L40.6548,4.2223l-5.3491-2.5166L35.127,3.6784l-7.7422,0.4053l0.0254,0.5l8.1758-0.4287l0.1533-1.6934
	l10.5313,4.9561l-10.0352,4.7441l-0.6309-1.498L7.9355,11.0837l0.0078,0.5l27.3311-0.4141l0.7031,1.668l3.334-1.5767l17.1279,0.4117
	v-1.5068l8.3447,3.4629l-6.5293,3.3712L3.3154,16.8493l-0.002,0.5l70.125,0.1924l0.251,0.001v-1.292l7.5449,3.6035l-7.5449,3.6035
	v-1.293L0,22.8542l0.0039,0.5l73.1855-0.6855v1.582l4.322-2.0643l81.8049,0.2918l0.0166,2.4814l14.5254-6.1455L159.002,11.7956z
	 M136.4395,10.7917V8.6315l10.5547,5.2197l-10.5547,5.084v-2.2686l-37.027,0.5498l5.0944-2.9766l-0.5237-0.2148l7.5813-0.1026
	v2.7432l11.4432-5.874H136.4395z M93.2151,18.8418l4.5808-2.7054l-9.7029-4.3427l4.9119-0.0645l0.2471-0.0029v-1.5615
	l10.1299,4.1533L93.252,20.237v-1.3936L93.2151,18.8418z M112.0645,6.2917V3.9977l12.9609,5.1973l-12.9609,6.6523v-2.4326
	l-9.2617,0.1263L92.752,9.4186v1.8135l-21.1536,0.2781l9.551-4.7068l-1.3516-0.5117H112.0645z M55.9395,9.4176v1.7432
	l-15.6212-0.376l7.1241-3.3691l-5.7611-2.7104l27.4252-0.4595V2.779l10.7891,4.085l-9.4595,4.6616l-0.9529,0.0125l0.051-1.1233
	l-10.7637,0.085l0.0007,0.093L55.9395,9.4176z M68.9825,11.5446l-7.6742,0.1009l-1.5747-0.6534l9.2771-0.0735L68.9825,11.5446z
	 M62.4766,12.1302L68.96,12.045l-0.0352,0.7828l1.6309-0.8037l17.5088-0.23v1.4468l-23.5424,1.0859l1.4476-0.7471L62.4766,12.1302z
	 M73.1895,15.4577v1.583l-13.8527-0.038l4.119-2.1256l24.8704-1.1479l0.2383-0.0117v-1.165l8.1436,3.6445l-8.5186,5.0313v-1.6377
	l-5.9221,0.3244l0.1272-0.0607L73.1895,15.4577z M81.0813,20.4814l6.6082-0.3635v1.6049l-9.1389-0.0326L81.0813,20.4814z
	 M159.8125,21.9801L88.333,21.725l4.0933-2.4174l0.3257,0.0143v1.7861l5.8781-3.4344l0.0009,0.0546l37.3086-0.5537v2.5557
	l11.676-5.623l11.8865,0.5722v-2.0947l13.1318,6.2041l-12.8066,5.4189L159.8125,21.9801z"/>
</svg>
