<svg xmlns="http://www.w3.org/2000/svg" viewBox="0 0 222 222"><circle fill="#006BAD" cx="111" cy="111" r="111"/><circle fill="#FFF" cx="111" cy="111" r="72.2"/><path fill="#FFF" d="M42.4 69.2L22.1 53.8l4.7-6.2c2.7-3.6 6-5.5 10-2.4 1.9 1.3 3 3.2 2.6 5.5 3-1.2 4.4-.8 7 1.1 4 3.1 4 6.8 1.1 10.7l-5 6.7zM33.7 55c1.4-2.2 2.3-3-.1-4.9-2-1.5-3 0-4.3 1.6l4.4 3.3zm8.7 6.5c1.7-2.4 2.6-3.3-.1-5.3-2.4-1.8-3.3-.4-5 1.5l5 3.9zm8.9-4.5L38.6 34.3l5.4-4.7L65 45l-4.5 4-4-3.1-3.5 3 2.8 4.3-4.5 4zm-7-21.7l6.2 9.8 2.6-2.3-8.8-7.5zm25 7.3l-5.1 3-12.8-22 7.6-4.4c4.3-2.5 7.4-2 9.9 2.4 1.4 2.4 1.8 4.4.2 6.6 1.6-.4 3.2 0 4.2 1.5 1.2 1.6 3.4 5.4 4.5 6.7.3.2.6.4 1 .4l.1.3-5.6 3.3c-.4-.3-.8-.7-1-1.1-1.3-1.9-2.2-3.8-3.1-5-1-1.3-1.9-2-3.1-1.4l-1.7 1 5 8.7zM62 30l1.8-1c1.5-.9 1-2.4.3-3.8-1.5-2.6-2.7-2.1-5.2-.6L62 30zM91 25c1.8 5.4.8 8.9-5 10.8-5.7 1.9-8.6-.3-10.4-5.7L72.3 20c-1.6-4.6.4-8.1 5.3-9.8s8.5 0 10 4.7L91 25zM82 17.3c-.4-1.5-1.2-3.2-3-2.6-1.8.6-1.5 2.4-1 4l3.3 9.9c.5 1.4 1.4 3.3 3.2 2.7 1.9-.6 1.3-2.7.8-4l-3.3-10zm15 6.3l.2 1.8c.2 1.4.8 2.7 2.7 2.4 1.4-.2 1.9-1.5 1.7-2.8-.3-2.1-2.2-2.7-3.8-3.4-2-.8-3.7-1.6-5-2.7a7.4 7.4 0 0 1-2.3-4.9C90 9.3 92.6 6.5 97 6c5.2-.7 8.2 2.4 8.6 7.2l-5.5.7c-.2-1.5-.4-3.5-2.4-3.4-1.2 0-1.9.8-1.8 2 0 1.5.9 2.2 2.1 2.8 2.5 1.2 4.5 1.8 6 2.9 1.6 1 2.6 2.7 3 5.7.7 4.9-1.7 8-6.6 8.6-5.4.7-8.1-2-8.6-5.4l-.3-2.7 5.5-.7zm15.8-1l-.1 1.7c-.1 1.5.3 2.8 2.2 2.9 1.4 0 2-1.2 2.1-2.5.1-2.1-1.6-3-3.1-4a17.3 17.3 0 0 1-4.4-3.6c-1-1.3-1.6-2.9-1.5-5.1.3-4.8 3.3-7.1 7.9-7 5.2.3 7.7 4 7.2 8.7l-5.5-.3c0-1.5.1-3.5-1.8-3.7-1.2-.2-2 .5-2.2 1.6-.2 1.5.5 2.3 1.7 3.2 2.2 1.5 4 2.5 5.4 3.9 1.3 1.3 2 3 2 6.1-.3 5-3.2 7.5-8.1 7.3-5.5-.3-7.7-3.5-7.5-6.8l.1-2.7 5.5.2zm8 8.6l11.5-23.5 7 1.7-.6 26-5.9-1.3.3-5-4.5-1.2-1.9 4.7-5.8-1.4zM135 13h-.2l-4.3 10.7 3.3.8 1.1-11.5zm12.7 26.8l7.8-24.9 5.2 3-6.2 17L166 21l5.2 3-17.5 19.4-6.1-3.5zm8.2 4.4l20.8-15.8 5.5 4.7-12.3 23-4.6-4 2.6-4.3-3.6-3-3.8 3.3-4.6-3.9zm20.6-10l-8.8 7.6 2.6 2.3 6.2-9.8zm-7.6 21.3l19.7-16.2 3.8 4.6-15.7 13 4.6 5.6-4 3.2-8.4-10.2zm8 9.7l22-13 3 5.2-17.6 10.4L188 74l-4.4 2.5-6.7-11.4zm6.5 11l23.8-9L212 80l-4.8 1.8-2.7-7.2-4.4 1.6 2.6 7L198 85l-2.7-7-5.1 2 2.9 7.6-4.8 1.8-5-13.2zm23.4 18.1l8.7 1.7 1 5.9-15.6-3.6-10.6 1.9-1-6 10.6-1.8 13.5-8.4 1 6-7.6 4.3zM38.9 185.7l16.7-19.3 10.6 9.3-3.3 3.8-6.1-5.3-3 3.4 5.6 4.9-3.3 3.8-5.6-4.8-7.1 8.1-4.5-4zm32 12.8c-3 5-6.2 6.5-11.5 3.4-5.2-3-5.5-6.6-2.6-11.6l5.2-9c2.5-4.2 6.4-5 10.9-2.4s5.6 6.4 3.1 10.6l-5.2 9zm-.3-11.7c.8-1.3 1.7-3 0-4s-2.8.5-3.6 1.9l-5.3 9c-.7 1.3-1.6 3.3 0 4.3 1.7 1 3-.9 3.7-2.1l5.3-9zm5.8 22.4l-5.7-2 8.2-24 8.2 2.7c4.7 1.6 6.4 4.2 4.8 9-1 2.6-2.1 4.2-4.9 4.5 1.5 1 2.2 2.4 1.7 4.1-.4 2-1.8 6.2-2 7.9 0 .3 0 .7.3 1l-.2.3-6.1-2 .1-1.6c.6-2.1 1.4-4 1.8-5.6s.2-2.7-1.1-3.2l-1.9-.7-3.2 9.6zm4.7-13.9l1.9.7c1.6.5 2.5-.9 3-2.3 1-3-.1-3.4-3-4.3l-2 6zm9.3 18.1l3.2-25.3 6.4.8c2.2.3 4.8.7 6.5 2 2.2 1.7 2.2 4.2 2 6.6l-1.5 11.2c-.3 2.5-1.3 4.3-3.2 5.2-1.7.8-3.6.7-5.4.5l-8-1zm6.5-3.8c4 .8 4.2-.8 4.5-4.2l1-8.3c.4-3-.6-3.3-3.5-3.7l-2 16.2zm29.5-12.4l-.3-1.6c-.3-2.1-1.2-3.1-2.4-3-1.8.3-2 1.4-1.8 3l1.9 12.5c.2 1.4.9 2.2 2.4 2 2-.4 1.9-2.5 1.7-4l-.4-2.3 6-1 .4 3.1c.7 4.4-1.4 7.8-7.4 8.7-5.4.9-8-1.7-8.8-6.8l-1.6-10.4c-.9-5.4 1.2-8.4 6.7-9.2 5-.8 8.4.9 9.2 6l.3 2.1-6 1zm12.3 14.4l-8.4-24 5.6-2 6.7 19.2 7-2.4 1.6 4.8-12.5 4.4zm3-27.8l5.2-3 9.4 16.8c.6 1 1.5 1.8 3 1 1.3-.8 1-2.2.5-3.2l-9.3-16.6 5.2-3 9 16.1c2.2 3.8 2.1 7.6-3.2 10.7-4.4 2.4-8.2 1.8-10.7-2.8l-9.1-16zm30.1 11.7l-16.7-19.3 5.9-5c3.4-3 7-4.2 10.4-.4 1.5 1.7 2.2 3.8 1.3 6 3.2-.6 4.5 0 6.6 2.5 3.3 3.9 2.6 7.5-1 10.6l-6.5 5.6zm-5.6-15.6c1.9-1.9 3-2.6 1-4.8-1.7-2-3-.7-4.5.7l3.5 4zm7.2 8.2c2.2-2 3.3-2.7 1-5.3-2-2.2-3.2-1-5.2.5l4.2 4.8z"/><path d="M208.8 130.3c.1 0 .7 0 .7-.3 1.2-6.7 2.3-14.8-.6-18a53.4 53.4 0 0 0-19.7-13.3 99.8 99.8 0 0 0-27.6-6.7c-9.2-1-11.9-1.8-14.2-4.1h-.2-.3l-17.5-17.2c-1-1-5.7-3.1-8.3-3.4 0 0-53-.6-70.6 1.5-1.7.2-5 0-6 0-2.8 0-13.2 2.2-13.2 2.2-.8.2-2.7 1.6-2.7 1.6-.8.5-6.3 4.7-11.6 9.8l-.5.6c-2 1.8-3.9 3.6-5.4 5.7A17.9 17.9 0 0 0 8 97.4c-.4 3 2.1 9 4 11.3l.6.9 8 10.2v.1l28.9 21.8 1.1.8c0 4 .2 7.9.6 11.4.6 5 .5 12.4 7.5 18.6 1.2 1.1 2.5 1.6 5 1.6 5.3 0 6 .1 14.3-1 6-.9 7.3-12.8 7.2-25.2l44.8 3 26.7-1.2s2 13 14 13.6c2 .2 6-.3 7.7-.5 10.1-1.3 10.6-18.8 10.6-18.8L210 133l-2.2-2.8h.8zM42.2 72c1-.2 3.4-.1 3.4-.1l-1.2 7.2H41c-.2-2 .4-5.7 1.2-7.1zm-2 .5c0 1.5-.7 5.1-.7 6.8h-5.3l2.3-5.8a7 7 0 0 1 3.6-1zm-5.1.9c.3 0-2.2 4.5-2.4 5.7h-4c.5-1.8 3.2-5.7 6.4-5.7zm94.1-1.8s9.6 9.8 14.6 15.8c0 0-9.1-1.5-12-1.8l-8.5-.1-3.5-1.5c-1-4.7-3.1-9.3-4.5-12.4 3.2-1.4 14 0 14 0zm-14.8.3c1.2 2 3.8 8.9 4.2 11.7-2.2-.4-5.8-2.8-5.8-2.8l-.4-8.8s1.6-.4 2-.1zm-5.8 1.8c.6-.4 1.3-.9 2.2-1l.6 7.4-1-.8s-.2-1-.6-1.3c-.3-.3-1.6-.4-1.6-.4l.4-4zm-58.6 0c.3-1.7 1.1-2.3 3.3-2.4 9.4-.6 29.4-1.1 39-1 1 0 4 .2 3.3 1.7 0 0-7.4-.3-10-.2-.9 0-2.3.5-2.2 2 .1 1.7 2 1.6 2.7 1.6 2 0 8 .6 8 .6-.4 2-5.6 2.5-8 2.5l-36.6-.6.5-4.2z"/><path d="M23.4 137.7c-6 0-7.5-5.5-7.5-16.4 0-4.5.2-14.8 3.5-17.7 2.8-2.4 11.9.9 11.9.9s9.3 32.4-1.7 33l-6.2.2z"/><path fill="#FFF" d="M19 129.2c-1.7 0-1.6-7-1.6-9.4 0-4.2 1-7.6 1-7.6s1.8 5.3 2 8.2c.1 2.3 0 8.8-1.3 8.8z"/><path fill="#FFF300" d="M209.3 130c1.3-7.3 2-14.9-.6-17.8-9.6-10.9-27.1-17.8-47.1-20-9-1-12-1.7-14.4-4.1-25.2-.5-77.2.9-101.8 2.5-3.5-.2-14-1.8-14-1.8l-8-9.4s3.7-4.2 5.3-6.6c-.8.5-6.3 4.8-11.5 9.8-2.1 2-4.2 4-5.9 6.2a18 18 0 0 0-3.1 8.6c-.4 3 2 8.8 3.9 11.1-.5-2.1-1-3.1-.8-4.4.1-2 2.7-1.8 4.5 4.4.7 2.4 5 11.2 5 11.2l28.8 21.7c-3.1-5-4.6-10.6-4.5-14.4.2-10.8 4.6-7.5 6.8-6.6 4 1.5 7.8 10.4 8.7 14.2 1.3 5 1.5 10.5 8.6 12.7l-.7-9.5s4.4 2.2 7.6 1.8c-1.2-3.3-1-11-.3-14.7.5-2.8 2.2-4.8 4-4.8l69.5-3.7c22.3-1.3 44.3-2.8 56.7-2.8 2 0 2.8.8 2.8 2.3a64 64 0 0 1-1.2 14s1.6.3 1.7 0z"/><path fill="#FFF" d="M77.3 123c-1.3 3.6-1.1 10.1-1 13.8 0 1.6 1.1 3 2.8 2.9 18.8-.6 47-1.8 73.4-4l52.6-4.9c1.5-.1 2.6-1.4 2.7-2.9.4-2.9.4-8.4.4-11.4 0-1.3-1-2.3-2.2-2.3-14.4.7-34.7 2.2-56.2 3.4-24.7 1.3-50.7 2.3-69.1 3.2-1.7.1-3 1-3.4 2.2z"/><path d="M208 130.8c-.5 0-1.1.5-1.4.7l-.2.2.2.2.7.8c.2.2.2.5.1.8 0 .3-.3.4-.6.5l-8.6 1c-11.1 1.5-25 3.3-39.9 4.2-32.8 2-67.2 3.6-78.3 3.7h-.3c-3 0-5.1-.4-6.4-1.2l-3.7-2.2-.5-.3v.5l.6 9.1v.1c.2.3 4.7 5.8 8.7 7.7 1.2.5 2.7.6 4 .6h3.2c10 0 16.5-.4 40.9-1.6 16.2-.8 30.7-2 45.6-3.4 4.5-.4 7.6-1.1 10.4-1.7 2-.4 3.9-.8 6-1 1.4-.2 6.4-.9 11.2-2 2.4-.5 4-1.8 4.6-2.2v-.2c.7-.4 2-1.5 2.6-2l1.6-2.6 1-1.4c0-.3.2-.5.5-.8.8-1 1.8-2.5 1.8-3.8 0-.7-.5-1.6-1.3-2.4-.9-.8-1.8-1.3-2.6-1.3z"/><path fill="#FFF" d="M211.6 134.5c0 1.5-1.7 3.3-2.4 4.4-.7 1-1.7 3-2.5 4-.5.5-1.8 1.6-2.5 2-.2.1-1.8 1.8-4.6 2.4a121 121 0 0 1-11.2 1.8c-5 .6-8.7 2-16.3 2.8-14.6 1.5-29 2.5-45.6 3.4-24.6 1.2-31 1.6-40.9 1.6-2.5 0-5.1.3-7.1-.6-4-1.9-8.5-7.5-8.5-7.5l-.6-9.1 3.7 2.2c1.5 1 4 1.3 7 1.3a2416 2416 0 0 0 78.2-3.8c19.3-1.2 37.2-3.8 48.5-5.2a1 1 0 0 0 .7-1.7l-.7-.8s.8-.7 1.1-.7c1.5 0 3.7 2.1 3.7 3.5z"/><path d="M79.8 138.9s53.3-2.7 70.8-3.9c13.6-1 53.7-4.8 53.7-4.8 1.8-.1 2.8-.9 3-2.6.4-2.2.4-7.7.3-10.9 0-1.4-1-2-2.4-2l-55.7 3.8-69.3 2.9c-1.3 0-2.4 1.4-2.6 2.7-.5 3-.6 8.9-.6 12.1 0 1.7 1.2 2.8 2.8 2.7z"/><path fill="#FFF" d="M82.5 137.1l.3-14.4-3.2.3c-.7.1-1 .5-1 1.4-.2 3-.6 8.3-.6 11.5 0 .7.3 1.4 1 1.4l3.5-.2zM203.2 116.1h2.6c.6 0 1 .5 1 1.1l-.4 10.4c0 .7-.7 1.2-1.4 1.2h-2.7l.9-12.7zM99 128c0 3.8-3 7.2-6.9 7.2a7 7 0 0 1-7.2-7 7 7 0 0 1 7-7.1c4 0 7.2 3 7.2 7zM115.1 126.8c0 3.4-3 6.8-5.8 6.8-4 0-6-2-6-6 0-4.2 3-6.8 6.5-6.8 3.3 0 5.3 2.4 5.3 6zM197.4 121.9c0 3.7-2.7 7-6 7-3.5 0-6.3-3-6.3-6.8 0-3.9 2.6-6.8 6.2-6.7 3.7 0 6.1 2.7 6.1 6.5zM182.5 122.3c0 3.9-2.3 6.8-5.7 6.8-2.8 0-4.6-2-4.6-5.3 0-3.8 2.6-6.7 5.8-6.7 2.3 0 4.5 2.3 4.5 5.2z"/><path d="M121.6 155.9s4-9.5 3.4-12.7c-.3-1.4-2.6-4.3-2.6-4.3h-4.1s3.3 3.3 3.4 4.7c.3 3.4-3.6 12.6-3.6 12.6l3.5-.3zM179.4 151.2s4.1-9.8 3.5-13c-.4-1.6-4.3-4.5-4.3-4.5l-2.4.8s3.2 2.9 3.4 4.2c.4 3.2-3 12.6-3 12.6h2.8zM127.1 145.3c-2.1 0-1.8 3 0 3 9.3-.7 30.4-2.7 41.4-3.4 2 0 1.7-2.6 0-2.4-9 .8-32 2.5-41.4 2.8zM121.6 100c-3.5-.1-12.4 1-15 1.6-1.6.3-1.2 1.6.2 1.6 3 .1 7.9-.1 11-.7 1.2-.1 3-1.3 3.8-2.5zM145.1 99c1.7 1.2 3 2.3 3.8 3.1 0 0 6.2.2 8-.5.7-.2 2.8-1.4 2.2-1.7-1.6-.6-11-1.2-14-.8zM78 64.5c-7.2 0-15 0-23.3.3A46 46 0 0 0 32 70.4l-1.5 1 1.7-.5c4.6-1.1 9.3-1.8 12.1-1.9h.1c.7 0 1 .1 1.2.3 0 .1.1.4 0 .8-.1 1.8-.6 4.6-1.1 7.6-.8 4.7-1.7 10-1.8 12.8h2.9s1.6-15 2.5-19.5c.3-1.3.9-1.7 2.4-2 8.6-1 23-1.5 39.4-1.5 13.3 0 26.1.4 34.2 1a8 8 0 0 1 5.1 2.4c4.3 4.2 15.7 17 15.8 17.2l2.4-.2c-.2-.1-12.6-13.8-17-18a8.2 8.2 0 0 0-5.4-2.6l-.8-.2c-4.3-.7-16.7-2-29.7-2.4-5-.2-10.6-.3-16.5-.3z"/><path d="M33.5 82.8v.3-.3c-1.3 0-1.6.2-1.8.3-.8.7-.8 4.2-.4 4.8.4.7 1.2 1.7 1.8 2 .3.2.9.3 1.8.3h2.7c.5.3 1 1.8 1.2 2.7l.5.2 1.8-1.5.2-.2-.1-.1c-.4-.8-1-2.1-.8-2.5 0-.4.5-1 1-1.6.5-.7 1.1-1.5 1.1-2.2 0-.3 0-1-3.5-1.6-1.8-.4-4-.6-5.5-.6z"/><path fill="#FFF300" d="M41 91.4L39 92.9s-.6-2.5-1.3-2.9c-.6-.4-3.6.2-4.6-.3a6.2 6.2 0 0 1-1.7-2c-.3-.5-.3-3.8.4-4.4.9-.7 10.4.4 10.4 1.7 0 1-2 2.7-2.2 3.7-.1.7.9 2.7.9 2.7z"/><path d="M142.8 81.4h-1.4l5.1 5.9c1-.6 1.4-2.1 1.3-3-.2-1.8-2-3-5-3z"/><path fill="#FFF300" d="M147.5 84.4c-.3-2.5-3.4-3-6.1-2.7l5 5.4c.8-.5 1.2-2 1.1-2.7z"/><path fill="#CCC" d="M61.4 147.3c0 10.7-1.8 14.5-3.6 14.5-1.6 0-4.6-4.3-4.6-17 0-10 1.5-12.6 3.3-12.6 2.7 0 4.9 7.5 4.9 15z"/><path fill="#FFF" d="M60.7 147.7c-.3 10.7-1.1 14.1-2.9 14.1-1.6 0-4.3-4-4.3-16.8 0-8.8 1.5-11 3.3-11 1.5 0 4 6.7 3.9 13.7z"/><path fill="#333" d="M57.3 147c0-3.3.6-10 1.5-10 1.2 0 1.7 7.5 1.9 10 .1 2.9-.4 11.4-.8 11.4-1 0-2.6-7.3-2.6-11.4z"/><path fill="#666" d="M57.3 146.7l-3.7.3c0-9.1 1.1-13 3.2-13 1.2 0 2 2 2 3-1.7 1.6-1.5 9.7-1.5 9.7z"/><path d="M57.9 147.3c0 2.5.6 3.6 2.7 3.6.2-1.7.2-5.6-.2-6.7-1 0-2.5.6-2.5 3zM42.1 136a9 9 0 0 0-2.7-5.5v-.1l-.5-3.5c-.8-6.7-2.1-17-1.2-22.5.5-2.9 4.3-10.6 4.5-11l.2.2s-4 8-4.4 10.9c-.9 5.5.4 15.7 1.2 22.4l.4 3.4a9.2 9.2 0 0 1 2.8 5.6h-.3zM23.9 122.8a53.6 53.6 0 0 1-2.5-25c1-2.3 6.9-11 7.1-11.4l.3.2s-6.2 9-7.2 11.2a53 53 0 0 0 2.6 24.8l-.3.2z"/><path d="M45.2 134.3L19.9 118l-.3-.6L45.4 134zM70.7 138.7h-.3c0-.5.5-12 1.5-15.1 1.4-4.3 3-6.5 7.6-6.9l15.1-.4v.3l-15 .5c-4.5.3-6 2.5-7.4 6.6-1 3-1.5 14.8-1.5 15z"/><path d="M73.9 139.7c-.7-4.7-.6-12.6.2-16 .9-3.6 3-5.2 7-5.4 12.6-.5 31.5-1.6 51.6-2.7 31.6-1.7 64.4-3.6 76-3.6v.4c-11.6 0-44.3 1.8-76 3.5-20 1.2-39 2.2-51.6 2.8-3.9.1-5.9 1.7-6.7 5.2-.7 3.3-.9 11.1-.2 15.8h-.3zM73.4 120.5a677.8 677.8 0 0 0-52-22.6L8.8 94.4l.1-.3c.1 0 9.4 2.7 12.7 3.5 5.7 1.5 41.2 17.3 52 22.7l-.1.2z"/><path d="M95 119.3v-1.5c-.5-4.3-15.9-17.6-33.4-23.4-1.5-.5-4.2-3.2-4.2-4.5h.3c0 1 2.6 3.7 4 4.2 10.6 3.5 19 9.2 23.1 12.2 6.1 4.6 10.2 9.1 10.5 11.5v1.5H95zM78.8 117a64.5 64.5 0 0 0-44.1-24.6V92A64.9 64.9 0 0 1 79 116.8l-.2.3zM125.5 110.8c-.6-1-5-2.5-9.5-4a81.1 81.1 0 0 1-10-3.8l-.1-.3c2.6 1.3 6.4 2.6 10.2 3.8 4.8 1.6 9 3 9.6 4l-.2.3zM133.2 109.3h-.3c0-2.9-11.6-9.2-11.8-9.2l.5-.1c.5.2 11.6 6.2 11.6 9.3zM155.5 107.4c-2-2.6-6.5-5.2-6.6-5.3l.2-.2s4.5 2.7 6.7 5.3l-.3.2zM162 103.9c-.4-1.6-2-3.5-3-3.8l.2-.3c1 .4 2.7 2.3 3.2 4h-.3zM195.5 113.8h-.3v-1.2c-6-7.8-33-18-47-20.2-2.8-.5-6.2-2.1-7-4.3l.4-.1c.7 2 4 3.6 6.7 4 14 2.3 41.3 12.6 47.2 20.4v1.4z"/><path fill="#FFF" d="M67.1 138.9v-3l-4.4-2s-.5 2.4 0 3c.6 1 4.4 2 4.4 2z"/><path d="M48.2 140.6c-4.3-6.1-4.3-13.2-4.3-15.6 0-4 1-7.2 2.5-8.8.5-.5 1.2-.8 1.8-.8 2.3 0 6.7 3 7.8 5h-.3c-1-1.8-5.3-4.7-7.5-4.7-.6 0-1.1.3-1.6.8-1.5 1.4-2.3 4.6-2.3 8.5 0 2.3 0 9.4 4.1 15.4l-.2.2zM20.3 106.8c0 1.6.4 5.4 1 7.6l-2.5-.7c-.6-.3-1-1-1-1.7l-1-6.2 3.5 1zM24.8 94.2l1.7.5-1.5 3.1-1.6-.7zM79.8 144.8c-5.2 0-8.3-.8-10.7-2.9l.3-.4c2.7 2.3 6 3 12.5 2.8l4.7-.2c17.3-.6 41-1.4 63.7-3 14.4-1 28.5-2.5 39.8-3.6l13.3-1.4c5.7-.6 7.4-1.6 7.8-2.4l.5.3c-1 2-6.5 2.4-8.2 2.6l-13.3 1.4c-11.3 1.2-25.4 2.7-39.8 3.7-22.7 1.6-46.5 2.4-63.8 3l-4.7.1h-2z"/><path d="M127 154.2h-.7c-1 0-1.5-.5-2-1-1-.8-2.3-2-6.2-2-4.2-.1-12 0-19.4.3-12.8.4-20.7.5-21.8 0-1-.5-1.3-2-1.7-3.2-.2-.8-.4-1.7-.7-1.9l-1.8-1c-1.2-.5-2.7-1.1-3.6-2.1l.4-.4A11 11 0 0 0 73 145l1.8 1c.5.3.7 1.2 1 2.2.3 1.1.6 2.4 1.3 2.8 1.1.5 12 .2 21.6 0 7.5-.3 15.2-.5 19.4-.4 4.2.2 5.5 1.3 6.5 2.2.6.5 1 .8 1.7.8 10.8.1 37.4-2.6 45.8-3.6 1.8-.2 2.3-.8 2.8-1.4.7-.7 1.4-1.5 4.2-1.6 4.9-.3 17.5-2.3 17.7-2.4v.6s-12.8 2-17.7 2.3c-2.6.1-3.2.8-3.8 1.5-.6.6-1.2 1.3-3.1 1.5-8.3 1-33.8 3.7-45.1 3.7z"/><path d="M135.7 146.2l-1.2 8.6c0 .4.2.7.5.6l26.6-2c.2 0 .4-.1.4-.4l1.6-8.3c0-.4-.2-.7-.6-.7l-26.8 1.7c-.3 0-.4.2-.5.5z"/><path fill="#FFF" d="M136.1 146.5l-1 7.8c0 .2 0 .3.3.3l25.8-1.7c.2 0 .3-.1.3-.2l1.3-7.9c0-.1 0-.3-.2-.3l-26.2 1.7-.3.3z"/><path d="M114.8 126.9c0 3.2-2.8 6.3-5.5 6.3-3.7 0-5.7-1.8-5.7-5.7 0-4 2.8-6.4 6.2-6.4 3.1 0 5 2.3 5 5.8z"/><path fill="#FFF" d="M114.6 126.9c0 3-2.7 6-5.3 6-3.5 0-5.4-1.8-5.4-5.4 0-3.8 2.6-6 5.9-6 3 0 4.8 2.1 4.8 5.4z"/><path d="M112 131c-2.7-.5-5.5-1.3-5.5-3.2.6.3 2.4.3 2.8-.6.2-.8-.5-1.8-1.1-2 1.3.2 5.8 1.6 5.8 1.6s-4.8-1.9-5.6-2c1.5-.4 3.8-.2 5.3 0-.2-1-.8-2-1.4-2.3-1.2 0-4 1-5 2.1-1.6.3-2 1.9-1.4 3-.3 1.3.2 3.6 2.3 4.8.8.2 2.3-.1 3.9-1.4zM182.2 122.3c0 3.7-2.1 6.5-5.4 6.5-2.6 0-4.3-1.8-4.3-5 0-3.6 2.5-6.4 5.5-6.4 2.2 0 4.2 2.2 4.2 4.9z"/><path fill="#FFF" d="M182 122.3c0 3.6-2 6.2-5.2 6.2-2.5 0-4-1.7-4-4.8 0-3.4 2.3-6 5.1-6 2.1 0 4 2 4 4.6z"/><path d="M197.1 122c0 3.4-2.5 6.5-5.6 6.5-3.4 0-6.1-2.8-6.1-6.4 0-3.7 2.5-6.5 5.9-6.4 3.5.1 5.8 2.6 5.8 6.2z"/><path fill="#FFF" d="M196.8 122c0 3.3-2.4 6.2-5.4 6.2-3.2 0-5.7-2.6-5.7-6.1 0-3.5 2.4-6.2 5.6-6 3.3 0 5.5 2.4 5.5 5.8z"/><path d="M98.7 128c0 3.6-2.8 6.8-6.6 6.8a6.7 6.7 0 0 1-.1-13.4c3.8 0 6.7 3 6.7 6.7z"/><path fill="#FFF" d="M98.4 128c0 3.4-2.7 6.5-6.3 6.5-3.6 0-6.5-2.7-6.5-6.3s2.8-6.4 6.4-6.4c3.6 0 6.4 2.7 6.4 6.3z"/><path d="M180 127.2c-2.9-.5-5.8-1.5-5.7-3.4.5.3 2.4.3 2.7-.6.3-.7-.4-1.8-1-2 1.3.2 5.8 1.6 5.8 1.6s-4.8-1.9-5.6-2c1.5-.3 3.8-.2 5.3 0-.2-1-1.3-2-1.8-2.3-1.2 0-3.6 1-4.7 2.1-1.6.3-2 1.9-1.3 3-.3 1.3.2 3.3 2.3 4.5.8.2 2.3.4 4-.9z"/><path fill="#FFF" d="M120.3 121c19.1-.6 29.5-1.3 47.6-2.7v.4a887.5 887.5 0 0 1-47.5 2.7v-.4zm0 1.7c19.1-.6 29.5-1.3 47.6-2.7v-.4a887.1 887.1 0 0 1-47.6 2.7v.4zm0 1.3c19.1-.5 29.5-1.3 47.6-2.6v-.4a887.1 887.1 0 0 1-47.6 2.6v.4zm0 1.3c19.1-.5 29.5-1.3 47.6-2.6v-.4a887.1 887.1 0 0 1-47.6 2.6v.4zm0 1.4c19.1-.6 29.5-1.3 47.6-2.7v-.4a887.1 887.1 0 0 1-47.6 2.7v.4zm0 1.3c19.1-.6 29.5-1.3 47.6-2.7v-.4a887.1 887.1 0 0 1-47.6 2.7v.4zm0 1.3c19.1-.5 29.5-1.3 47.6-2.6v-.4a887.1 887.1 0 0 1-47.6 2.6v.4zm0 1.4c19.1-.6 29.5-1.3 47.6-2.7v-.4a887.1 887.1 0 0 1-47.6 2.7v.4zm0 1.3c19.1-.6 29.5-1.3 47.6-2.7v-.4a887.1 887.1 0 0 1-47.6 2.7v.4zm0 1.3c19.1-.5 29.5-1.3 47.6-2.6v-.4a887.1 887.1 0 0 1-47.6 2.6v.4zm0 1.3c19.1-.5 29.5-1.2 47.6-2.6v-.4a887.1 887.1 0 0 1-47.6 2.7v.3zm0 1.4c19.1-.6 29.5-1.3 47.6-2.7v-.4a887.1 887.1 0 0 1-47.6 2.7v.4zM194.3 111.3l13.1-.5"/><path d="M194.3 111.1l13.2-.5v.3l-13.2.5zM137.2 146.9l3-.2c1.3 0 2 .7 1.8 1.6 0 .5-.3 1.1-1 1.5.3.2 1.1.4 1 1.6-.2 1.1-1 2-2.6 2.2l-3 .2.8-6.9zm.6 2.8h1.7c.9-.1 1.5-.4 1.6-1.2 0-.7-.3-1-1.4-1l-1.7.1-.2 2.2zm-.4 3.2l2-.1c1 0 1.6-.6 1.6-1.4.2-1-.7-1-1.4-1l-1.9.1-.3 2.4zM148.1 146.3l1-.1-3.3 7h-1l-1.7-6.6 1-.1 1.4 5.7 2.6-6zM150.3 153h-1l.9-6.9 4.8-.3-.1.9-3.9.2-.2 2 3.4-.1-.1.8-3.4.2-.4 3.1zM160.6 147.6c-.1-1.2-1-1.4-1.8-1.4-1.2.1-2.3 1-2.6 2.9-.1 1.6.3 2.8 2 2.7.6 0 1.7-.4 2.2-2h1a3.6 3.6 0 0 1-3.4 2.8c-1.6.1-3-.8-2.7-3.4.2-2.1 1.6-3.7 3.6-3.8 1.8 0 2.6 1 2.6 2.1h-.9z"/><path fill="#FFF300" d="M32.3 70.7A46 46 0 0 1 54.7 65c7.8-.2 24.3-.6 39.9-.1 12.2.4 24.9 1.6 29.6 2.4 2.4.4 3.7.3 6.1 2.7 4.4 4.2 17 18 17 18l-1.7.2s-11.8-13.4-16.1-17.6c-1-1-2.7-2.2-5.3-2.4-17.6-1.5-56-1.6-73.7.5-1.6.2-2.2.8-2.5 2.1-1 4.6-2.6 19.7-2.6 19.7H43c.2-4.8 2.5-15.8 3-20.5.2-1.2-.4-1.3-1.6-1.3a58 58 0 0 0-12.1 1.9z"/></svg>