<?xml version="1.0" encoding="utf-8"?>
<!-- Generator: Adobe Illustrator 22.0.1, SVG Export Plug-In . SVG Version: 6.00 Build 0)  -->
<svg version="1.1" id="Layer_1" xmlns="http://www.w3.org/2000/svg" xmlns:xlink="http://www.w3.org/1999/xlink" x="0px" y="0px"
	 viewBox="0 0 227.6953 33.8716" enable-background="new 0 0 227.6953 33.8716" xml:space="preserve">
<path d="M14.4346,11.0864c2.0396,0.2402,3.6895,1.1279,4.9492,2.6641c1.2598,1.5356,1.8896,3.3232,1.8896,5.3633
	c0,2.2314-0.6777,4.1274-2.0337,5.687c-1.356,1.5601-3.2334,2.3398-5.6333,2.3398H0V1.7637h10.7627
	c1.5361,0,2.8438,0.5039,3.9238,1.5117c1.0796,1.0083,1.6196,2.2441,1.6196,3.708C16.3062,8.687,15.6821,10.0547,14.4346,11.0864z
	 M4.3198,10.6548h5.4351c0.8638,0,1.5117-0.2583,1.9438-0.7739c0.4321-0.5161,0.6479-1.1099,0.6479-1.7817
	c0-0.7441-0.2881-1.3618-0.8638-1.854c-0.5762-0.4917-1.3442-0.7378-2.3037-0.7378H4.3198V10.6548z M11.2666,23.397
	c1.7998,0,3.1436-0.4316,4.0317-1.2959c0.8877-0.8638,1.3315-2.0034,1.3315-3.4194c0-1.2959-0.4556-2.4175-1.3677-3.3657
	c-0.9116-0.9478-2.2314-1.4214-3.9595-1.4214H4.3198v9.5024H11.2666z M43.0532,7.6309v19.5098h-4.3193V25.521
	c-1.7998,1.2476-3.8154,1.8716-6.0474,1.8716c-2.9272,0-5.291-0.9961-7.0908-2.9878s-2.6997-4.3555-2.6997-7.0908
	c0-2.7358,0.8999-5.0996,2.6997-7.0913s4.1636-2.9873,7.0908-2.9873c2.208,0,4.2236,0.6118,6.0474,1.8354V7.6309H43.0532z
	 M38.7339,12.9946c-1.4155-1.2959-3.1914-1.9438-5.3271-1.9438c-1.8721,0-3.4019,0.6118-4.5894,1.8354
	c-1.188,1.2241-1.7817,2.6997-1.7817,4.4277c0,1.7275,0.5996,3.2095,1.7998,4.4453c1.1997,1.2358,2.7236,1.854,4.5713,1.854
	c2.1597,0,3.9355-0.6362,5.3271-1.9082V12.9946z M50.9033,10.7988c1.416-2.3521,3.5039-3.5278,6.2632-3.5278
	c0.5522,0,1.104,0.1201,1.6563,0.3599l-0.1802,4.4277c-0.6719-0.2158-1.5-0.3242-2.4839-0.3242
	c-1.7036,0-2.9937,0.5522-3.8691,1.6558c-0.876,1.104-1.3379,2.4961-1.3862,4.1758v9.5747h-4.2832V7.6309h4.2832V10.7988z
	 M65.3027,10.7988c1.416-2.3521,3.5039-3.5278,6.2632-3.5278c0.5522,0,1.104,0.1201,1.6563,0.3599l-0.1802,4.4277
	c-0.6719-0.2158-1.5-0.3242-2.4839-0.3242c-1.7036,0-2.9937,0.5522-3.8691,1.6558c-0.876,1.104-1.3379,2.4961-1.3862,4.1758v9.5747
	h-4.2832V7.6309h4.2832V10.7988z M94.353,7.6309l-8.0991,20.5537c-0.5278,1.3438-1.356,2.4536-2.4834,3.3296
	c-1.1279,0.876-2.3281,1.4878-3.5996,1.8354c-1.272,0.3481-2.6157,0.522-4.0317,0.522c-0.8398,0-1.4395-0.0117-1.7998-0.0356
	l0.54-3.168h0.5039c3.5034,0,5.7715-1.1758,6.8032-3.5273h-0.54L73.7275,7.6309h4.5356l5.7593,14.3262h0.4678l5.4712-14.3262H94.353
	z M121.4258,11.0864c2.0391,0.2402,3.6895,1.1279,4.9492,2.6641c1.2598,1.5356,1.8896,3.3232,1.8896,5.3633
	c0,2.2314-0.6777,4.1274-2.0332,5.687c-1.3564,1.5601-3.2344,2.3398-5.6338,2.3398h-13.6064V1.7637h10.7627
	c1.5361,0,2.8438,0.5039,3.9238,1.5117c1.0801,1.0083,1.6191,2.2441,1.6191,3.708C123.2969,8.687,122.6738,10.0547,121.4258,11.0864
	z M111.3105,10.6548h5.4355c0.8643,0,1.5117-0.2583,1.9434-0.7739c0.4326-0.5161,0.6484-1.1099,0.6484-1.7817
	c0-0.7441-0.2881-1.3618-0.8643-1.854c-0.5752-0.4917-1.3438-0.7378-2.3037-0.7378h-4.8594V10.6548z M118.2578,23.397
	c1.7998,0,3.1436-0.4316,4.0313-1.2959c0.8887-0.8638,1.332-2.0034,1.332-3.4194c0-1.2959-0.4561-2.4175-1.3672-3.3657
	c-0.9121-0.9478-2.2324-1.4214-3.96-1.4214h-6.9834v9.5024H118.2578z M147.8857,10.2227c2.0869,1.9678,3.1309,4.3438,3.1309,7.127
	c0,2.7598-1.0439,5.1235-3.1309,7.0913c-2.0879,1.9678-4.5957,2.9517-7.5234,2.9517s-5.4355-0.9839-7.5234-2.9517
	c-2.0869-1.9678-3.1309-4.3315-3.1309-7.0913c0-2.7832,1.0439-5.1592,3.1309-7.127c2.0879-1.9678,4.5957-2.9517,7.5234-2.9517
	S145.7979,8.2549,147.8857,10.2227z M144.916,21.7773c1.2598-1.2241,1.8896-2.6997,1.8896-4.4277
	c0-1.7515-0.6299-3.2393-1.8896-4.4634c-1.2598-1.2236-2.7783-1.8354-4.5537-1.8354s-3.2939,0.6118-4.5537,1.8354
	c-1.2598,1.2241-1.8896,2.7119-1.8896,4.4634c0,1.728,0.6299,3.2036,1.8896,4.4277c1.2598,1.2236,2.7783,1.8359,4.5537,1.8359
	S143.6563,23.001,144.916,21.7773z M171.8252,7.6309v19.5098h-4.3193v-1.584c-1.584,1.2241-3.5156,1.8359-5.7949,1.8359
	c-2.8076,0-4.9072-0.7261-6.2998-2.1777c-1.3916-1.4517-2.0869-3.7017-2.0869-6.749V7.6309h4.2832v10.835
	c0,1.6797,0.4258,2.9575,1.2773,3.8335c0.8525,0.876,2.0342,1.314,3.5459,1.314c2.04,0,3.7314-0.6001,5.0752-1.7998V7.6309H171.8252
	z M179.6748,10.7988c1.415-2.3521,3.5029-3.5278,6.2627-3.5278c0.5518,0,1.1045,0.1201,1.6563,0.3599l-0.1807,4.4277
	c-0.6719-0.2158-1.499-0.3242-2.4834-0.3242c-1.7031,0-2.9932,0.5522-3.8691,1.6558c-0.876,1.104-1.3379,2.4961-1.3857,4.1758
	v9.5747h-4.2842V7.6309h4.2842V10.7988z M208.832,27.1406h-4.7871l-5.4355-8.6748l-4.5352,4.4272v4.2476h-4.3193V0h4.3193v17.2061
	l9.5742-9.5752h5.0752l-7.2344,7.5591L208.832,27.1406z M212.542,18.6099c0.3115,1.5117,1.0674,2.7476,2.2676,3.7075
	c1.1992,0.96,2.5439,1.4395,4.0313,1.4395c2.3037,0,4.0918-0.8638,5.3633-2.5913l2.7715,2.2676
	c-0.9121,1.2236-2.1357,2.1899-3.6709,2.8975c-1.5361,0.708-3.2275,1.062-5.0762,1.062c-2.9033,0-5.291-0.9717-7.1631-2.9155
	c-1.8711-1.9438-2.8076-4.3193-2.8076-7.1274c0-2.8315,0.9365-5.2192,2.8076-7.1631c1.8721-1.9434,4.2598-2.9155,7.1631-2.9155
	c2.8799,0,5.1777,0.9478,6.8936,2.8438s2.5732,4.3433,2.5732,7.3433l-0.0352,1.1519H212.542z M214.5391,12.0586
	c-1.0195,0.936-1.6611,2.1118-1.9258,3.5273h10.9434c-0.1445-1.4639-0.6543-2.6514-1.5303-3.5635
	c-0.876-0.9116-2.1416-1.3677-3.7979-1.3677C216.7891,10.6548,215.5596,11.1226,214.5391,12.0586z"/>
</svg>
