<?xml version="1.0" encoding="utf-8"?>
<!-- Generator: Adobe Illustrator 22.0.1, SVG Export Plug-In . SVG Version: 6.00 Build 0)  -->
<svg version="1.1" id="Layer_1" xmlns="http://www.w3.org/2000/svg" xmlns:xlink="http://www.w3.org/1999/xlink" x="0px" y="0px"
	 viewBox="0 0 94.916 9.082" enable-background="new 0 0 94.916 9.082" xml:space="preserve">
<g>
	<path d="M0,0.234h0.861h3.311c0.832,0,1.482,0.192,1.951,0.577S6.826,1.73,6.826,2.414c0,0.715-0.264,1.258-0.791,1.629
		c-0.086,0.063-0.182,0.119-0.287,0.17c0.203,0.078,0.383,0.172,0.539,0.281c0.551,0.379,0.826,0.932,0.826,1.658
		c0,0.879-0.272,1.548-0.817,2.007S4.955,8.848,3.908,8.848H0.861H0V0.234z M1.723,3.609h2.057c0.449,0,0.785-0.084,1.008-0.252
		s0.334-0.422,0.334-0.762c0-0.293-0.117-0.513-0.352-0.659s-0.588-0.22-1.061-0.22H1.723V3.609z M1.723,7.354h2.186
		c0.469,0,0.82-0.102,1.055-0.305s0.352-0.51,0.352-0.92c0-0.359-0.12-0.628-0.36-0.806S4.354,5.057,3.873,5.057h-2.15V7.354z"/>
	<path d="M11.057,9.012c-0.969,0-1.716-0.299-2.241-0.896S8.027,6.666,8.027,5.561c0-1.02,0.268-1.817,0.803-2.394
		s1.277-0.864,2.227-0.864c0.973,0,1.722,0.294,2.247,0.882s0.788,1.425,0.788,2.511C14.1,5.82,14.09,5.947,14.063,6.076H9.721
		c0.039,0.504,0.15,0.881,0.334,1.131c0.234,0.313,0.625,0.469,1.172,0.469c0.254,0,0.489-0.072,0.706-0.217s0.347-0.318,0.39-0.521
		h1.711c-0.145,0.648-0.479,1.156-1.005,1.523S11.846,9.012,11.057,9.012z M12.34,5.004c-0.039-0.383-0.141-0.682-0.305-0.896
		C11.82,3.822,11.486,3.68,11.033,3.68c-0.434,0-0.764,0.166-0.99,0.498C9.902,4.389,9.801,4.664,9.738,5.004H12.34z"/>
	<path d="M15.193,2.473h0.797h0.803v1.143c0.059-0.125,0.125-0.246,0.199-0.363c0.395-0.633,0.904-0.949,1.529-0.949l0.381,0.006
		v1.717c-0.148-0.016-0.316-0.023-0.504-0.023c-0.512,0-0.894,0.127-1.146,0.381s-0.378,0.639-0.378,1.154v3.311h-0.838h-0.844
		V2.473z"/>
	<path d="M19.875,2.473h0.797h0.803v0.943c0.066-0.113,0.139-0.221,0.217-0.322c0.414-0.527,1.016-0.791,1.805-0.791
		c0.672,0,1.198,0.199,1.579,0.598s0.571,0.951,0.571,1.658v4.289h-0.838h-0.844V4.863c0-0.395-0.085-0.687-0.255-0.876
		s-0.431-0.284-0.782-0.284c-0.441,0-0.78,0.133-1.017,0.398S21.557,4.75,21.557,5.25v3.598h-0.838h-0.844V2.473z"/>
	<path d="M29.549,9.012c-0.813,0-1.468-0.316-1.966-0.949s-0.747-1.467-0.747-2.502c0-0.977,0.248-1.764,0.744-2.361
		s1.148-0.896,1.957-0.896c0.723,0,1.305,0.305,1.746,0.914l0.07,0.094V0.234h0.838h0.844v8.613h-0.814h-0.814V8.033l-0.029,0.041
		C30.912,8.699,30.303,9.012,29.549,9.012z M30,3.756c-0.449,0-0.801,0.173-1.055,0.519S28.564,5.1,28.564,5.713
		c0,0.602,0.126,1.071,0.378,1.409s0.603,0.507,1.052,0.507c0.453,0,0.807-0.178,1.061-0.533s0.381-0.85,0.381-1.482
		c0-0.582-0.127-1.037-0.381-1.365S30.449,3.756,30,3.756z"/>
	<path d="M42.672,2.818c-0.032-0.41-0.211-0.735-0.539-0.976s-0.755-0.36-1.282-0.36c-0.457,0-0.814,0.101-1.072,0.302
		c-0.258,0.201-0.387,0.481-0.387,0.841c0,0.258,0.135,0.457,0.404,0.598c0.266,0.141,0.83,0.307,1.693,0.498
		c1.253,0.281,2.091,0.605,2.513,0.973c0.422,0.363,0.634,0.947,0.634,1.752c0,0.809-0.318,1.45-0.955,1.925
		c-0.636,0.475-1.498,0.712-2.583,0.712c-1.09,0-1.941-0.252-2.554-0.756c-0.613-0.504-0.941-1.221-0.984-2.15h1.734
		c0.02,0.457,0.186,0.809,0.498,1.055S40.54,7.6,41.099,7.6c0.574,0,1.022-0.093,1.344-0.278s0.483-0.442,0.483-0.771
		c0-0.324-0.116-0.563-0.349-0.715c-0.227-0.152-0.71-0.311-1.452-0.475c-1.366-0.305-2.28-0.635-2.74-0.99
		c-0.458-0.352-0.686-0.9-0.686-1.646c0-0.836,0.303-1.499,0.908-1.989C39.212,0.245,40.03,0,41.062,0
		c0.964,0,1.749,0.254,2.354,0.762s0.941,1.193,1.008,2.057H42.672z"/>
	<path d="M51.381,6.486C51.295,7.279,51,7.898,50.496,8.344s-1.16,0.668-1.969,0.668c-0.965,0-1.71-0.287-2.235-0.861
		s-0.788-1.393-0.788-2.455c0-1.039,0.272-1.864,0.817-2.476s1.28-0.917,2.206-0.917c0.82,0,1.492,0.227,2.016,0.68
		s0.803,1.049,0.838,1.787H49.67c-0.016-0.316-0.128-0.572-0.337-0.768s-0.478-0.293-0.806-0.293c-0.422,0-0.743,0.169-0.964,0.507
		s-0.331,0.831-0.331,1.479c0,0.633,0.11,1.114,0.331,1.444s0.542,0.495,0.964,0.495c0.305,0,0.563-0.105,0.773-0.316
		s0.334-0.488,0.369-0.832H51.381z"/>
	<path d="M52.547,0.234h0.838h0.844v3.047l0.135-0.188c0.414-0.527,1.016-0.791,1.805-0.791c0.672,0,1.198,0.199,1.579,0.598
		s0.571,0.951,0.571,1.658v4.289H57.48h-0.844V4.863c0-0.395-0.085-0.687-0.255-0.876S55.951,3.703,55.6,3.703
		c-0.441,0-0.78,0.133-1.017,0.398S54.229,4.75,54.229,5.25v3.598h-0.838h-0.844V0.234z"/>
	<path d="M59.877,2.473h0.797h0.803v0.943c0.066-0.113,0.139-0.221,0.217-0.322c0.414-0.527,1.016-0.791,1.805-0.791
		c0.672,0,1.198,0.199,1.579,0.598s0.571,0.951,0.571,1.658v4.289h-0.838h-0.844V4.863c0-0.395-0.085-0.687-0.255-0.876
		s-0.431-0.284-0.782-0.284c-0.441,0-0.78,0.133-1.017,0.398S61.559,4.75,61.559,5.25v3.598h-0.838h-0.844V2.473z"/>
	<path d="M69.732,9.012c-0.969,0-1.716-0.299-2.241-0.896s-0.788-1.449-0.788-2.555c0-1.02,0.268-1.817,0.803-2.394
		s1.277-0.864,2.227-0.864c0.973,0,1.722,0.294,2.247,0.882s0.788,1.425,0.788,2.511c0.008,0.125-0.002,0.252-0.029,0.381h-4.342
		c0.039,0.504,0.15,0.881,0.334,1.131c0.234,0.313,0.625,0.469,1.172,0.469c0.254,0,0.489-0.072,0.706-0.217s0.347-0.318,0.39-0.521
		h1.711c-0.145,0.648-0.479,1.156-1.005,1.523S70.521,9.012,69.732,9.012z M71.016,5.004c-0.039-0.383-0.141-0.682-0.305-0.896
		c-0.215-0.285-0.549-0.428-1.002-0.428c-0.434,0-0.764,0.166-0.99,0.498c-0.141,0.211-0.242,0.486-0.305,0.826H71.016z"/>
	<path d="M73.928,0.17h1.711v1.559h-1.711V0.17z M73.945,2.473h0.838h0.844v6.375h-0.838h-0.844V2.473z"/>
	<path d="M79.559,9.012c-0.813,0-1.468-0.316-1.966-0.949s-0.747-1.467-0.747-2.502c0-0.977,0.248-1.764,0.744-2.361
		s1.148-0.896,1.957-0.896c0.723,0,1.305,0.305,1.746,0.914l0.07,0.094V0.234h0.838h0.844v8.613H82.23h-0.814V8.033l-0.029,0.041
		C80.922,8.699,80.313,9.012,79.559,9.012z M80.01,3.756c-0.449,0-0.801,0.173-1.055,0.519S78.574,5.1,78.574,5.713
		c0,0.602,0.126,1.071,0.378,1.409s0.603,0.507,1.052,0.507c0.453,0,0.807-0.178,1.061-0.533s0.381-0.85,0.381-1.482
		c0-0.582-0.127-1.037-0.381-1.365S80.459,3.756,80.01,3.756z"/>
	<path d="M87.07,9.012c-0.969,0-1.716-0.299-2.241-0.896s-0.788-1.449-0.788-2.555c0-1.02,0.268-1.817,0.803-2.394
		s1.277-0.864,2.227-0.864c0.973,0,1.722,0.294,2.247,0.882s0.788,1.425,0.788,2.511c0.008,0.125-0.002,0.252-0.029,0.381h-4.342
		c0.039,0.504,0.15,0.881,0.334,1.131c0.234,0.313,0.625,0.469,1.172,0.469c0.254,0,0.489-0.072,0.706-0.217s0.347-0.318,0.39-0.521
		h1.711c-0.145,0.648-0.479,1.156-1.005,1.523S87.859,9.012,87.07,9.012z M88.354,5.004c-0.039-0.383-0.141-0.682-0.305-0.896
		C87.834,3.822,87.5,3.68,87.047,3.68c-0.434,0-0.764,0.166-0.99,0.498c-0.141,0.211-0.242,0.486-0.305,0.826H88.354z"/>
	<path d="M91.207,2.473h0.797h0.803v1.143c0.059-0.125,0.125-0.246,0.199-0.363c0.395-0.633,0.904-0.949,1.529-0.949l0.381,0.006
		v1.717C94.768,4.01,94.6,4.002,94.412,4.002c-0.512,0-0.894,0.127-1.146,0.381s-0.378,0.639-0.378,1.154v3.311h-0.838h-0.844V2.473
		z"/>
</g>
</svg>
