<?xml version="1.0" encoding="utf-8"?>
<!-- Generator: Adobe Illustrator 22.0.1, SVG Export Plug-In . SVG Version: 6.00 Build 0)  -->
<svg version="1.1" id="Layer_1" xmlns="http://www.w3.org/2000/svg" xmlns:xlink="http://www.w3.org/1999/xlink" x="0px" y="0px"
	 viewBox="0 0 99.583 11.455" enable-background="new 0 0 99.583 11.455" xml:space="preserve">
<g>
	<path d="M0,0.234h0.861h3.311c0.832,0,1.482,0.192,1.951,0.577S6.826,1.73,6.826,2.414c0,0.715-0.264,1.258-0.791,1.629
		c-0.086,0.063-0.182,0.119-0.287,0.17c0.203,0.078,0.383,0.172,0.539,0.281c0.551,0.379,0.826,0.932,0.826,1.658
		c0,0.879-0.272,1.548-0.817,2.007S4.955,8.848,3.908,8.848H0.861H0V0.234z M1.723,3.609h2.057c0.449,0,0.785-0.084,1.008-0.252
		s0.334-0.422,0.334-0.762c0-0.293-0.117-0.513-0.352-0.659s-0.588-0.22-1.061-0.22H1.723V3.609z M1.723,7.354h2.186
		c0.469,0,0.82-0.102,1.055-0.305s0.352-0.51,0.352-0.92c0-0.359-0.12-0.628-0.36-0.806S4.354,5.057,3.873,5.057h-2.15V7.354z"/>
	<path d="M10.937,9.012c-0.969,0-1.716-0.299-2.241-0.896S7.907,6.666,7.907,5.561c0-1.02,0.268-1.817,0.803-2.394
		s1.277-0.864,2.227-0.864c0.973,0,1.722,0.294,2.247,0.882s0.788,1.425,0.788,2.511c0.008,0.125-0.002,0.252-0.029,0.381H9.601
		C9.64,6.58,9.751,6.957,9.935,7.207c0.234,0.313,0.625,0.469,1.172,0.469c0.254,0,0.489-0.072,0.706-0.217s0.347-0.318,0.39-0.521
		h1.711c-0.145,0.648-0.479,1.156-1.005,1.523S11.726,9.012,10.937,9.012z M12.22,5.004c-0.039-0.383-0.141-0.682-0.305-0.896
		C11.7,3.822,11.366,3.68,10.913,3.68c-0.434,0-0.764,0.166-0.99,0.498C9.782,4.389,9.681,4.664,9.618,5.004H12.22z"/>
	<path d="M17.895,8.883c-0.281,0.023-0.627,0.035-1.037,0.035c-0.594,0-1.021-0.106-1.28-0.319s-0.39-0.562-0.39-1.046V3.65h-0.885
		V2.473h0.885V0.756h1.682v1.717h1.025V3.65h-1.025v3.621c0,0.148,0.044,0.246,0.132,0.293s0.271,0.07,0.548,0.07h0.346V8.883z"/>
	<path d="M21.771,8.883c-0.281,0.023-0.627,0.035-1.037,0.035c-0.594,0-1.021-0.106-1.28-0.319s-0.39-0.562-0.39-1.046V3.65h-0.885
		V2.473h0.885V0.756h1.682v1.717h1.025V3.65h-1.025v3.621c0,0.148,0.044,0.246,0.132,0.293s0.271,0.07,0.548,0.07h0.346V8.883z"/>
	<path d="M25.243,9.012c-0.969,0-1.716-0.299-2.241-0.896s-0.788-1.449-0.788-2.555c0-1.02,0.268-1.817,0.803-2.394
		s1.277-0.864,2.227-0.864c0.973,0,1.722,0.294,2.247,0.882s0.788,1.425,0.788,2.511c0.008,0.125-0.002,0.252-0.029,0.381h-4.342
		c0.039,0.504,0.15,0.881,0.334,1.131c0.234,0.313,0.625,0.469,1.172,0.469c0.254,0,0.489-0.072,0.706-0.217s0.347-0.318,0.39-0.521
		h1.711c-0.145,0.648-0.479,1.156-1.005,1.523S26.032,9.012,25.243,9.012z M26.526,5.004c-0.039-0.383-0.141-0.682-0.305-0.896
		c-0.215-0.285-0.549-0.428-1.002-0.428c-0.434,0-0.764,0.166-0.99,0.498c-0.141,0.211-0.242,0.486-0.305,0.826H26.526z"/>
	<path d="M29.259,2.473h0.797h0.803v1.143c0.059-0.125,0.125-0.246,0.199-0.363c0.395-0.633,0.904-0.949,1.529-0.949l0.381,0.006
		v1.717c-0.148-0.016-0.316-0.023-0.504-0.023c-0.512,0-0.894,0.127-1.146,0.381s-0.378,0.639-0.378,1.154v3.311h-0.838h-0.844
		V2.473z"/>
	<path d="M41.838,2.818c-0.031-0.41-0.211-0.735-0.539-0.976s-0.756-0.36-1.282-0.36c-0.457,0-0.814,0.101-1.072,0.302
		c-0.257,0.201-0.386,0.481-0.386,0.841c0,0.258,0.135,0.457,0.404,0.598c0.266,0.141,0.829,0.307,1.692,0.498
		c1.254,0.281,2.092,0.605,2.514,0.973c0.423,0.363,0.634,0.947,0.634,1.752c0,0.809-0.318,1.45-0.955,1.925
		s-1.497,0.712-2.583,0.712c-1.09,0-1.941-0.252-2.555-0.756s-0.94-1.221-0.983-2.15h1.734c0.02,0.457,0.186,0.809,0.497,1.055
		C39.271,7.477,39.706,7.6,40.265,7.6c0.574,0,1.022-0.093,1.344-0.278c0.322-0.186,0.483-0.442,0.483-0.771
		c0-0.324-0.116-0.563-0.348-0.715c-0.227-0.152-0.711-0.311-1.452-0.475c-1.367-0.305-2.28-0.635-2.741-0.99
		c-0.457-0.352-0.686-0.9-0.686-1.646c0-0.836,0.303-1.499,0.908-1.989S39.196,0,40.228,0c0.965,0,1.749,0.254,2.354,0.762
		s0.941,1.193,1.008,2.057H41.838z"/>
	<path d="M47.849,8.883c-0.281,0.023-0.627,0.035-1.037,0.035c-0.594,0-1.021-0.106-1.28-0.319s-0.39-0.562-0.39-1.046V3.65h-0.885
		V2.473h0.885V0.756h1.682v1.717h1.025V3.65h-1.025v3.621c0,0.148,0.044,0.246,0.132,0.293s0.271,0.07,0.548,0.07h0.346V8.883z"/>
	<path d="M48.843,0.17h1.711v1.559h-1.711V0.17z M48.86,2.473h0.838h0.844v6.375h-0.838H48.86V2.473z"/>
	<path d="M52.057,0.234h0.838h0.844v8.613H52.9h-0.844V0.234z"/>
	<path d="M55.271,0.234h0.838h0.844v8.613h-0.838h-0.844V0.234z"/>
	<path d="M61.786,0.234h0.896h3.445c0.82,0,1.481,0.22,1.983,0.659s0.753,1.019,0.753,1.737c0,0.828-0.279,1.434-0.838,1.816
		c-0.148,0.102-0.316,0.188-0.504,0.258c0.105,0.043,0.201,0.09,0.287,0.141c0.492,0.293,0.748,0.785,0.768,1.477l0.041,1.412
		c0.008,0.281,0.037,0.48,0.088,0.598s0.148,0.211,0.293,0.281v0.229h-1.987c-0.047-0.09-0.088-0.282-0.123-0.577
		s-0.055-0.612-0.059-0.952l-0.012-0.797c-0.008-0.387-0.122-0.662-0.343-0.826s-0.586-0.246-1.098-0.246h-1.793v3.404h-0.896
		h-0.902V0.234z M63.585,3.996h2.086c0.465,0,0.813-0.095,1.046-0.284s0.349-0.476,0.349-0.858c0-0.379-0.11-0.663-0.331-0.853
		s-0.552-0.284-0.993-0.284h-2.156V3.996z"/>
	<path d="M71.727,9.012c-0.59,0-1.064-0.169-1.424-0.507s-0.539-0.782-0.539-1.333c0-0.582,0.162-1.048,0.486-1.397
		s0.797-0.569,1.418-0.659l1.107-0.152c0.289-0.039,0.529-0.105,0.721-0.199c0.082-0.039,0.146-0.109,0.19-0.211
		s0.062-0.205,0.05-0.311c-0.023-0.18-0.115-0.32-0.275-0.422c-0.191-0.121-0.467-0.182-0.826-0.182c-0.32,0-0.57,0.078-0.75,0.234
		s-0.275,0.377-0.287,0.662h-1.611c0.035-0.746,0.289-1.305,0.762-1.676s1.166-0.557,2.08-0.557c0.793,0,1.419,0.167,1.878,0.501
		s0.688,0.791,0.688,1.37v3.565c0,0.286,0.023,0.486,0.07,0.601c0.047,0.116,0.141,0.207,0.281,0.273v0.006v0.229h-0.908H73.93
		V8.842c-0.074-0.258-0.123-0.51-0.146-0.756l-0.006-0.012C73.25,8.699,72.566,9.012,71.727,9.012z M73.748,6.492V5.76
		c-0.195,0.109-0.453,0.197-0.773,0.264l-0.621,0.117c-0.293,0.055-0.516,0.155-0.668,0.302s-0.229,0.331-0.229,0.554
		c0,0.254,0.068,0.453,0.205,0.598s0.328,0.217,0.574,0.217c0.539,0,0.969-0.189,1.289-0.568c0.063-0.074,0.115-0.184,0.158-0.328
		S73.748,6.629,73.748,6.492z"/>
	<path d="M82.259,6.486c-0.086,0.793-0.381,1.412-0.885,1.857s-1.16,0.668-1.969,0.668c-0.965,0-1.71-0.287-2.235-0.861
		s-0.788-1.393-0.788-2.455c0-1.039,0.272-1.864,0.817-2.476s1.28-0.917,2.206-0.917c0.82,0,1.492,0.227,2.016,0.68
		s0.803,1.049,0.838,1.787h-1.711c-0.016-0.316-0.128-0.572-0.337-0.768s-0.478-0.293-0.806-0.293c-0.422,0-0.743,0.169-0.964,0.507
		S78.11,5.047,78.11,5.695c0,0.633,0.11,1.114,0.331,1.444s0.542,0.495,0.964,0.495c0.305,0,0.563-0.105,0.773-0.316
		s0.334-0.488,0.369-0.832H82.259z"/>
	<path d="M83.352,0.17h1.711v1.559h-1.711V0.17z M83.369,2.473h0.838h0.844v6.375h-0.838h-0.844V2.473z"/>
	<path d="M86.52,2.473h0.797h0.803v0.943c0.066-0.113,0.139-0.221,0.217-0.322c0.414-0.527,1.016-0.791,1.805-0.791
		c0.672,0,1.198,0.199,1.579,0.598s0.571,0.951,0.571,1.658v4.289h-0.838h-0.844V4.863c0-0.395-0.085-0.687-0.255-0.876
		s-0.431-0.284-0.782-0.284c-0.441,0-0.78,0.133-1.017,0.398S88.201,4.75,88.201,5.25v3.598h-0.838H86.52V2.473z"/>
	<path d="M96.606,10.172c0.473,0,0.813-0.114,1.02-0.343s0.311-0.606,0.311-1.134V7.91l-0.135,0.205
		c-0.371,0.512-0.904,0.768-1.6,0.768c-0.828,0-1.497-0.298-2.007-0.894s-0.765-1.382-0.765-2.358c0-1,0.248-1.805,0.744-2.414
		s1.148-0.914,1.957-0.914c0.715,0,1.27,0.26,1.664,0.779c0.074,0.098,0.143,0.205,0.205,0.322V2.473h1.582v6.035
		c0,1.008-0.249,1.751-0.747,2.229s-1.274,0.718-2.329,0.718c-0.867,0-1.557-0.169-2.068-0.507s-0.785-0.806-0.82-1.403h1.828
		c0.016,0.219,0.116,0.378,0.302,0.478S96.22,10.172,96.606,10.172z M96.554,3.756c-0.438,0-0.779,0.167-1.025,0.501
		s-0.369,0.798-0.369,1.392c0,0.582,0.123,1.036,0.369,1.362S96.114,7.5,96.548,7.5c0.441,0,0.786-0.166,1.034-0.498
		s0.372-0.791,0.372-1.377s-0.124-1.044-0.372-1.374S96.991,3.756,96.554,3.756z"/>
</g>
</svg>
