<?xml version="1.0" encoding="utf-8"?>
<!-- Generator: Adobe Illustrator 22.0.1, SVG Export Plug-In . SVG Version: 6.00 Build 0)  -->
<svg version="1.1" id="Layer_1" xmlns="http://www.w3.org/2000/svg" xmlns:xlink="http://www.w3.org/1999/xlink" x="0px" y="0px"
	 viewBox="0 0 94.864 44.189" enable-background="new 0 0 94.864 44.189" xml:space="preserve">
<path fill="#FFF200" d="M45.801,0.562c23.714,0,43.21,18.089,45.445,41.218H73.143c-2.127-13.184-13.56-23.256-27.342-23.256
	c-13.783,0-25.215,10.072-27.342,23.256H0.356C2.591,18.651,22.087,0.562,45.801,0.562"/>
<path d="M73.623,10.191c-2.85-2.218-5.97-4.104-9.305-5.599c-2.823-1.265-5.802-2.251-8.901-2.92
	c-3.099-0.67-6.313-1.023-9.606-1.024v0.001h-0.01c-16.951,0-31.731,9.307-39.508,23.087c-1.513,2.681-2.761,5.53-3.708,8.513
	c-0.913,2.875-1.547,5.875-1.871,8.968l17.266,0.015v-0.259h0.001c1.697-9.471,8.109-17.308,16.721-20.991
	c1.7-0.726,3.491-1.292,5.348-1.676c1.853-0.384,3.774-0.585,5.744-0.586v-0.002h0.007c6.331,0,12.177,2.083,16.889,5.602
	c3.122,2.332,4.987,4.786,6.902,7.856c0.962,1.542,1.779,3.186,2.43,4.912c0.62,1.64,1.091,3.357,1.395,5.129h0.008v0.012
	l17.213,0.001l-0.022-0.257C88.64,20.69,72.93,9.755,73.623,10.191 M78.804,13.971c3.804,3.685,14.234,15.491,16.06,30.218H76.38
	c-0.13-0.785-0.294-1.561-0.49-2.323h-3.023l-0.045-0.274v-0.005c-0.294-1.822-0.77-3.586-1.406-5.271
	c-0.636-1.684-1.434-3.289-2.374-4.797c-1.439-2.308-3.214-4.385-5.254-6.166c-4.416-2.796-9.678-4.42-15.328-4.42
	c-14.073,0-25.746,10.073-27.918,23.256H2.058c0.077-0.78,0.175-1.554,0.292-2.323H0l0.033-0.354l0.001-0.011
	c0.316-3.26,0.973-6.422,1.934-9.448s2.227-5.915,3.762-8.634C13.619,9.44,28.609,0,45.801,0h0.01v0.002
	c3.346,0,6.606,0.357,9.743,1.035c3.139,0.679,6.16,1.678,9.029,2.964C69.946,6.405,74.764,9.808,78.804,13.971"/>
<path d="M16.072,29.255l1.441-2.164c0.331-0.497,0.496-0.851,0.493-1.067c-0.003-0.215-0.134-0.41-0.398-0.585
	c-0.268-0.179-0.507-0.227-0.71-0.142c-0.204,0.085-0.47,0.37-0.792,0.856l-1.441,2.164 M24.618,22.38l-6.45-8.022l2.861-2.3
	l6.45,8.022L24.618,22.38z M33.593,13.701l2.208-0.809l-2.317-3.008L33.593,13.701z M44.676,14.528l1.082-10.237l4.318,0.456
	l3.015,6.282l0.623-5.897l3.535,0.373l-1.082,10.237l-4.096-0.433l-3.322-6.411l-0.633,5.993L44.676,14.528z M68.622,15.603
	c0.42-0.651-0.296-2.041-0.805-2.441c-0.619-0.486-1.382-0.667-2.004-0.548c-0.623,0.119-1.212,0.532-1.767,1.241
	c-0.553,0.705-0.81,1.371-0.774,2.001c0.036,0.628,0.243,1.408,0.885,1.859c0.945,0.665,1.755,0.975,2.937,0.147l3.143,2.235
	c-1.029,1.001-2.189,1.463-3.477,1.377c-1.287-0.083-2.668-0.704-4.144-1.861c-1.658-1.299-2.625-2.638-2.907-4.018
	c-0.282-1.377,0.129-2.769,1.231-4.175c1.105-1.41,2.361-2.143,3.765-2.198c1.408-0.056,2.986,0.47,4.643,1.769
	c1.547,1.213,2.453,2.272,2.813,3.559c0.358,1.286,0.201,2.532-0.426,3.594L68.622,15.603z M76.121,25.052
	c-0.748,0.492-1.205,1.042-1.37,1.65c-0.166,0.608-0.034,1.24,0.398,1.896c0.431,0.656,0.96,1.028,1.585,1.114
	c0.623,0.089,1.309-0.114,2.057-0.607c0.752-0.495,1.214-1.047,1.381-1.658c0.172-0.61,0.04-1.245-0.391-1.9
	c-0.431-0.656-0.962-1.026-1.589-1.11C77.563,24.351,76.873,24.556,76.121,25.052 M73.95,21.756c1.496-0.985,2.92-1.282,4.269-0.887
	c1.352,0.394,2.606,1.469,3.764,3.228c1.158,1.757,1.651,3.334,1.48,4.733c-0.171,1.394-1.005,2.586-2.501,3.57
	c-1.492,0.984-2.914,1.279-4.264,0.884c-1.35-0.394-2.606-1.468-3.763-3.228c-1.159-1.758-1.65-3.335-1.479-4.733
	C71.626,23.929,72.459,22.74,73.95,21.756 M29.992,18.802l0.311-11.078l4.372-1.603l7.14,8.345l-3.734,1.37l-0.643-0.84
	l-3.783,1.387l0.03,1.065L29.992,18.802z M11.647,26.308l1.21,0.805l1.366-2.051c0.296-0.444,0.443-0.76,0.445-0.951
	c0.001-0.189-0.113-0.358-0.341-0.512c-0.231-0.154-0.43-0.198-0.598-0.135c-0.168,0.063-0.405,0.327-0.716,0.792L11.647,26.308z
	 M11.832,21.683c0.733-1.1,1.418-1.771,2.052-2.008c0.634-0.237,1.333-0.1,2.099,0.41c0.421,0.28,0.729,0.614,0.93,1.003
	c0.197,0.388,0.28,0.822,0.246,1.296c0.463-0.349,0.95-0.519,1.459-0.514c0.512,0.009,1.034,0.189,1.568,0.544
	c0.814,0.542,1.262,1.196,1.343,1.956c0.08,0.762-0.207,1.635-0.864,2.621l-4.491,6.743l-8.567-5.707L11.832,21.683z"/>
<g>
	<path d="M37.674,44.189h-3.706v-4.776h-3.501v4.776h-3.723V32.086h3.723v4.063h3.501v-4.063h3.706V44.189z"/>
	<path d="M43.352,44.189h-3.706V32.086h3.706V44.189z"/>
	<path d="M51.8,32.086c1.887,0,4.317,0.765,4.317,3.57c0,1.309-0.696,2.465-1.784,2.958c1.224,0.306,1.666,1.921,1.768,2.992
		l0.119,1.274c0.034,0.425,0.068,0.952,0.306,1.309h-3.672c-0.152-0.34-0.187-0.765-0.221-1.139l-0.051-0.68
		c-0.103-1.394-0.323-2.448-2.057-2.448h-1.564v4.267H45.29V32.086H51.8z M48.961,37.373h2.04c0.85,0,1.513-0.306,1.513-1.258
		c0-0.816-0.577-1.224-1.717-1.224h-1.836V37.373z"/>
	<path d="M67.95,35.027h-6.375v1.513h5.779v2.805h-5.779v1.768h6.545v3.077H57.921V32.086H67.95V35.027z"/>
</g>
</svg>
