<?xml version="1.0" encoding="utf-8"?>
<!-- Generator: Adobe Illustrator 22.0.1, SVG Export Plug-In . SVG Version: 6.00 Build 0)  -->
<svg version="1.1" id="Layer_1" xmlns="http://www.w3.org/2000/svg" xmlns:xlink="http://www.w3.org/1999/xlink" x="0px" y="0px"
	 viewBox="0 0 263.17 87.5" enable-background="new 0 0 263.17 87.5" xml:space="preserve">
<path d="M228.3,10.5c0.2,0.1,0.3,0.1,0.5,0.1c8,0.3,15.7,3.2,21.8,8.3c3.4,2.8,6.3,6.3,8.5,10.2c1.9,3.4,3.2,7.1,4,10.9
	c0.4,2.1-1,4.1-3.1,4.5l0,0c-2,0.3-3.9-1-4.4-3c-0.5-2.7-1.4-5.3-2.6-7.7c-1.5-3-3.6-5.7-6.1-8c-7.8-7.1-18.8-9.4-28.8-6
	c-1.1,0.5-2.3,0.5-3.3,0c-1.3-0.6-2.2-2-2.2-3.5s0.9-2.9,2.3-3.5c2-0.8,4.2-1.4,6.4-1.7c1.7-0.3,3.4-0.3,5.1-0.5
	c0.1,0,0.3-0.1,0.4-0.1L228.3,10.5z M91.3,49.4c0-3.8,0-7.6,0-11.4c0-1.4-0.2-2.9-0.4-4.3c0-0.2-0.1-0.5-0.2-0.7
	c-0.2-0.7-0.1-1,0.5-1.3c0.4-0.2,0.9-0.3,1.4-0.4c1.3-0.4,2.6-0.8,4-1.1c1.2-0.3,1.7-0.1,2,1.1c0.1,0.3,0.2,0.6,0.2,0.9
	c0.1,0.5,0.3,0.6,0.8,0.4c0.1-0.1,0.3-0.1,0.4-0.2c1.4-1.2,3.1-2.1,4.9-2.3c2.4-0.6,4.9-0.3,7,0.9c0.9,0.6,1.7,1.2,2.4,1.9
	c0.2,0.2,0.4,0.4,0.6,0.5c0.2,0.1,0.5,0.3,0.8,0c1.7-1.6,3.7-2.7,6-3.2c2.9-0.8,5.9-0.4,8.6,1c1.8,1,3,2.8,3.3,4.8
	c0.2,1.2,0.3,2.3,0.3,3.5c0,7.3,0,14.6,0,21.9c0.1,1.2-0.7,2.2-1.9,2.4c-0.1,0-0.2,0-0.4,0c-1.5,0.1-3,0-4.4,0
	c-0.9,0-1.6-0.6-1.7-1.5v-0.1c0-0.2,0-0.4,0-0.5c0-7.1,0-14.3,0-21.4c0-0.7-0.1-1.4-0.3-2.1c-0.2-0.7-0.8-1.3-1.6-1.2
	c-1.9-0.1-3.8,0.5-5.4,1.6c-1.1,0.8-1.3,2-1.3,3.2c0,6.5,0,13,0,19.6c0.1,1.2-0.7,2.3-1.9,2.5c-0.2,0-0.4,0-0.5,0
	c-1.2,0-2.5,0-3.7,0c-1.4,0-2-0.6-2-2c0-3.5,0-7.1,0-10.6c0-3,0-6,0-8.9c0-1-0.1-1.9-0.2-2.9c-0.3-2-1.1-2.6-3.2-2.5
	c-1.4,0.1-2.7,0.5-3.8,1.2c-1,0.6-1.6,1.7-1.6,2.8c0,0.5-0.1,0.9,0,1.4c0,6.3,0,12.7,0,19c0,1.8-1,2.5-2.5,2.5c-1.4,0-2.8,0-4.1,0
	c-0.9,0.1-1.7-0.5-1.8-1.4c0-0.1,0-0.3,0-0.4C91.3,57.7,91.3,53.6,91.3,49.4 M154,53L154,53v-3.5c0-0.3,0-0.5-0.4-0.5
	c-1.4,0.1-2.9,0.1-4.3,0.3s-2.8,0.8-3.4,2.3c-0.6,1.4-0.6,3-0.1,4.4c0.5,1.6,2,2.6,3.7,2.5s3.2-0.9,4.3-2.2c0.1-0.2,0.2-0.4,0.1-0.6
	C154,54.9,154,53.9,154,53 M162.8,41.9c-0.1,3.6-0.2,7.3-0.2,10.9c0,1.3,0.1,2.5,0.3,3.8c0.1,1,0.6,1.9,1.4,2.5c1,0.9,1,1.3,0.2,2.3
	c-0.9,1-1.7,2-2.6,3c-0.4,0.6-1.2,0.7-1.8,0.3l0,0c-1.2-0.6-2.2-1.4-3-2.4c-0.5-0.6-0.9-0.6-1.5-0.1c-1.8,1.5-4,2.4-6.3,2.6
	c-2.5,0.3-5.1-0.1-7.5-1c-2.9-1.2-5-3.9-5.3-7.1c-0.3-1.9-0.2-3.8,0.3-5.7c0.8-3,3-5.3,5.9-6.4c2.3-0.9,4.7-1.4,7.2-1.4
	c1.3,0,2.6-0.1,3.9-0.1c0.4,0,0.6-0.2,0.6-0.5c0-1.2-0.1-2.5-0.3-3.7c-0.2-1.3-1.3-2-2.8-2.1c-3-0.2-5.5,0.8-8.1,2.2
	c-0.5,0.3-0.9,0.5-1.3,0.8c-0.5,0.4-1.2,0.3-1.6-0.2c-0.1-0.1-0.1-0.2-0.2-0.3c-0.8-1.3-1.5-2.5-2.3-3.8c-0.5-0.5-0.4-1.3,0.1-1.8
	c0.1-0.1,0.3-0.2,0.4-0.2c2.2-1.3,4.6-2.3,7.1-3c3.7-1.2,7.8-1.2,11.5-0.1c2.1,0.6,3.8,2,4.8,3.9c0.7,1.3,1.1,2.8,1.1,4.3
	C162.8,39.7,162.8,40.8,162.8,41.9L162.8,41.9 M201.2,43.4c0.1-1.3,0-2.6-0.3-3.9c-0.4-1.9-2-3.2-3.9-3.4c-1.9-0.3-3.9,0.6-4.8,2.3
	c-0.8,1.5-1.2,3.3-1.1,5H201.2z M190.8,49.9c0.1,2.6,0.4,5.1,2.5,6.9c0.9,0.8,2,1.2,3.2,1.4c3.1,0.4,6.2-0.2,8.9-1.9
	c0.9-0.6,1.5-0.4,2.1,0.5c0.5,0.8,1.1,1.6,1.6,2.4c0.4,0.4,0.4,1.1-0.1,1.5c-0.1,0.1-0.2,0.1-0.3,0.2c-2.4,1.8-5.2,3.1-8.2,3.6
	c-4.8,0.8-9.3,0.1-13.2-2.9c-2-1.6-3.5-3.7-4.5-6.1c-1.2-3.2-1.7-6.7-1.4-10.2c0.1-2,0.5-4,1.1-6c1.7-4.6,4.7-7.9,9.6-9
	c4.2-1.2,8.7-0.4,12.3,2.1c1.9,1.4,3.3,3.4,4.1,5.6c0.8,2,1.2,4.2,1.3,6.4c0.1,1.2,0.1,2.3,0.1,3.5c0,1.4-0.6,2-2,2h-15.4
	C192.2,49.7,191.5,49.8,190.8,49.9 M175.1,36v0.7c0,5.4,0,10.8,0,16.1c0,1,0.1,2,0.2,3c0.2,1.7,1,2.5,2.7,2.6c0.9,0,1.7,0,2.6-0.2
	c1-0.2,1.5,0,1.7,1c0.2,0.8,0.3,1.6,0.5,2.4c0.2,1.2,0.1,1.4-1,1.8c-3.3,1.1-6.7,1.5-10.1,0.3c-1.8-0.5-3.3-1.7-4.2-3.3
	c-0.6-1.1-0.9-2.4-0.9-3.7c0-5.5,0.1-11,0.1-16.5c0-3.7,0.1-7.4,0.1-11.2c0-1.7,0-3.4,0.1-5.1c0-0.9,0.6-1.7,1.4-1.9
	c1.9-0.5,3.8-1,5.7-1.4c0.6-0.2,1.2,0.2,1.3,0.7c0,0.1,0,0.3,0,0.4c0,1-0.1,2.1-0.1,3.1c-0.1,1.4-0.1,2.8-0.2,4.2c0,0.4,0,0.7,0,1.2
	h6.3c1,0,1.3,0.5,1,1.4c-0.5,1.3-1,2.6-1.4,3.9c-0.1,0.3-0.4,0.5-0.7,0.5c-1.5,0-3,0-4.5,0H175.1 M218.9,28.9c0-1.7,1.1-3.1,2.7-3.6
	c1.8-0.6,3.7-1,5.6-1.1c10.4-0.6,19.6,6.8,21.4,17c0.5,2-0.8,4.1-2.8,4.6s-4.1-0.8-4.6-2.8c-0.3-1.2-0.6-2.3-1-3.4
	c-1.7-4.1-5.4-7-9.8-7.6c-2.2-0.3-4.4-0.1-6.4,0.6c-2,0.7-4.1-0.4-4.8-2.3C219,29.8,218.9,29.4,218.9,28.9"/>
</svg>
