<?xml version="1.0" encoding="utf-8"?>
<!-- Generator: Adobe Illustrator 22.0.1, SVG Export Plug-In . SVG Version: 6.00 Build 0)  -->
<svg version="1.1" id="Layer_1" xmlns="http://www.w3.org/2000/svg" xmlns:xlink="http://www.w3.org/1999/xlink" x="0px" y="0px"
	 viewBox="0 0 200.4 58.14" enable-background="new 0 0 200.4 58.14" xml:space="preserve">
<path fill="#FF4C14" d="M9,7.7c0,0.1-0.1,0.1-0.1,0.2c0,2.7,0,5.4,0,8.1c-0.1,1.2,0.8,2.2,1.9,2.2c0.1,0,0.2,0,0.3,0
	c1.7,0,3.4,0,5,0c1.7,0.1,3.3-1,3.9-2.6c0.2-0.4,0.3-0.8,0.4-1.2c0.8-2.6-0.6-6.3-4.2-6.5c-1.5-0.1-3-0.1-4.4-0.1
	C10.9,7.8,9.9,7.8,9,7.7 M9.1,25.7c0,0.1-0.1,0.1-0.1,0.1c0,3.3,0,6.7,0,10c-0.1,1.1,0.8,2.1,2,2.2c0.1,0,0.2,0,0.3,0
	c1.6,0,3.2,0,4.7,0c1.4,0.1,2.7-0.4,3.7-1.4c1.9-2,2.5-4.9,1.5-7.4c-0.6-2.1-2.5-3.5-4.7-3.5c-2.4-0.1-4.7,0-7.1-0.1
	C9.3,25.7,9.2,25.7,9.1,25.7 M8.8,45.5H2.7c-0.3,0-0.7,0-1-0.1c-1.1-0.2-1.5-0.9-1.7-2c0-0.1,0-0.3,0-0.4C0,29.6,0,16.2,0,2.8
	c0-2.1,1.1-2.6,2.6-2.6c4.1-0.1,8.2,0,12.3,0c1.4,0,2.9,0.1,4.3,0.2c2.5,0.2,4.8,1.1,6.7,2.7c1.7,1.3,3,3,3.7,5
	c0.4,1.1,0.6,2.3,0.6,3.5c0,2.7-1.1,5.4-3,7.3c-0.8,0.9-1.8,1.6-2.9,2C24,21,23.9,21.2,24,21.5c0.1,0.2,0.2,0.3,0.4,0.4
	c1.4,0.4,2.7,1,3.9,1.9c1.2,1,2.2,2.3,2.8,3.8c0.8,2,1.2,4.2,0.9,6.4c-0.2,2.5-1.1,4.9-2.6,6.8c-1.9,2.4-4.8,4-7.8,4.3
	c-1,0.1-1.9,0.2-2.9,0.2C15.3,45.5,12.1,45.5,8.8,45.5C8.9,45.6,8.9,45.6,8.8,45.5"/>
<path fill="#FFFFFF" d="M81.8,31.1c0-3.8,0-7.6,0-11.4c0-1.4-0.2-2.9-0.4-4.3c0-0.2-0.1-0.5-0.2-0.7c-0.2-0.7-0.1-1,0.5-1.3
	c0.4-0.2,0.9-0.3,1.4-0.4c1.3-0.4,2.6-0.8,4-1.1c1.2-0.3,1.7-0.1,2,1.1c0.1,0.3,0.2,0.6,0.2,0.9c0.1,0.5,0.3,0.6,0.8,0.4
	c0.1-0.1,0.3-0.1,0.4-0.2c1.4-1.2,3.1-2.1,4.9-2.3c2.4-0.6,4.9-0.3,7,0.9c0.9,0.6,1.7,1.2,2.4,1.9c0.2,0.2,0.4,0.4,0.6,0.5
	s0.5,0.3,0.8,0c1.7-1.6,3.7-2.7,6-3.2c2.9-0.8,5.9-0.4,8.6,1c1.8,1,3,2.8,3.3,4.8c0.2,1.2,0.3,2.3,0.3,3.5c0,7.3,0,14.6,0,21.9
	c0.1,1.2-0.7,2.2-1.9,2.4c-0.1,0-0.2,0-0.4,0c-1.5,0.1-3,0-4.4,0c-0.9,0-1.6-0.6-1.7-1.5v-0.1c0-0.2,0-0.4,0-0.5
	c0-7.1,0-14.3,0-21.4c0-0.7-0.1-1.4-0.3-2.1c-0.2-0.7-0.8-1.3-1.6-1.2c-1.9-0.1-3.8,0.5-5.4,1.6c-1.1,0.8-1.3,2-1.3,3.2
	c0,6.5,0,13,0,19.6c0.1,1.2-0.7,2.3-1.9,2.5c-0.2,0-0.4,0-0.5,0c-1.2,0-2.5,0-3.7,0c-1.4,0-2-0.6-2-2c0-3.5,0-7.1,0-10.6
	c0-3,0-6,0-8.9c0-1-0.1-1.9-0.2-2.9c-0.3-2-1.1-2.6-3.2-2.5c-1.4,0.1-2.7,0.5-3.8,1.2c-1,0.6-1.6,1.7-1.6,2.8c0,0.5-0.1,0.9,0,1.4
	c0,6.3,0,12.7,0,19c0,1.8-1,2.5-2.5,2.5c-1.4,0-2.8,0-4.1,0c-0.9,0.1-1.7-0.5-1.8-1.4c0-0.1,0-0.3,0-0.4
	C81.8,39.4,81.8,35.3,81.8,31.1"/>
<path fill="#FF4C14" d="M60.2,27.6c1,0,2.1-0.2,3-0.7c1.7-0.8,2.5-2.6,2.3-4.9c-0.1-2-1.5-3.6-3.4-4.1c-1.3-0.3-2.6-0.3-3.8,0
	c-1.7,0.4-3,1.8-3.2,3.5C55,22.1,55,22.7,55,23.3c0,2,1.4,3.7,3.4,4C59,27.5,59.6,27.5,60.2,27.6 M53.4,31.9l-0.7-0.3
	c-1.5-0.4-2.8-1.2-4-2.3c-1.2-1.2-2-2.7-2.3-4.4c-0.4-2-0.3-4.2,0.5-6.1c0.6-1.7,1.7-3.2,3.1-4.3c2-1.5,4.3-2.5,6.8-2.9
	c1.7-0.3,3.4-0.4,5.2-0.2c1.8,0.3,3.6,0.6,5.4,1.1c0.9,0.2,1.9,0.5,2.8,0.7c0.8,0.1,1.4-0.4,2-0.8s1-0.7,1.5-1.1
	c0.5-0.3,1.1-0.3,1.5,0.2c0.8,0.7,1.6,1.4,2.4,2.2c1.1,0.9,0.9,1.5,0.2,2.4c-1,1.4-2.5,2.4-4.1,2.9c-0.3,0.1-0.3,0.3-0.2,0.6
	c0.2,0.8,0.5,1.6,0.7,2.5c0.2,1.2,0.2,2.4-0.2,3.5c-0.7,2.4-2.3,4.5-4.6,5.7c-1.7,1-3.7,1.6-5.7,1.8c-0.7,0.1-1.3,0.1-2,0.1
	c-1.5,0-2.9,0.7-3.9,1.7c-0.5,0.3-0.7,1-0.4,1.5c0.2,0.5,0.8,0.5,1.3,0.5c1.4,0,2.7,0,4.1,0c2.4,0.1,4.7,0.1,7,0.8
	c1.2,0.4,2.3,1,3.3,1.8c0.8,0.7,1.4,1.4,2,2.3c0.7,1.1,1.2,2.4,1.3,3.8c0.2,1.6,0,3.3-0.5,4.8c-0.6,1.8-1.8,3.4-3.4,4.6
	c-2.2,1.5-4.7,2.5-7.3,2.8c-2,0.3-4,0.4-6.1,0.3c-3,0-5.9-0.7-8.6-1.9c-1.8-0.9-3.3-2.3-4.3-4c-1.1-1.9-1.3-4.9-0.1-6.8h7.5
	c0,0.7,0,1.3,0,2c0,0.8,0.2,1.5,0.6,2.2c0.7,0.9,1.7,1.6,2.9,1.7c1.8,0.3,3.6,0.4,5.4,0.1c1.2-0.1,2.3-0.5,3.4-1.1
	c1.9-1.2,2.4-3.7,1.2-5.6c0-0.1-0.1-0.1-0.1-0.2c-0.5-0.6-1.2-1-2-1.1c-1.3-0.3-2.6-0.4-3.8-0.5c-2-0.1-4,0-6-0.2
	c-1.6-0.1-3.2-0.4-4.7-0.8c-1.5-0.3-2.6-1.5-2.9-3c-0.5-1.4-0.2-3,0.7-4.2c0.5-0.6,1.1-1.1,1.8-1.4C51.1,32.8,52.2,32.4,53.4,31.9"
	/>
<path fill="#FFFFFF" d="M144.5,34.7L144.5,34.7v-3.5c0-0.3,0-0.5-0.4-0.5c-1.4,0.1-2.9,0.1-4.3,0.3s-2.8,0.8-3.4,2.3
	c-0.6,1.4-0.6,3-0.1,4.4c0.5,1.6,2,2.6,3.7,2.5s3.2-0.9,4.3-2.2c0.1-0.2,0.2-0.4,0.1-0.6C144.5,36.6,144.5,35.6,144.5,34.7
	 M153.3,23.6c-0.1,3.6-0.2,7.3-0.2,10.9c0,1.3,0.1,2.5,0.3,3.8c0.1,1,0.6,1.9,1.4,2.5c1,0.9,1,1.3,0.2,2.3c-0.9,1-1.7,2-2.6,3
	c-0.4,0.6-1.2,0.7-1.8,0.3l0,0c-1.2-0.6-2.2-1.4-3-2.4c-0.5-0.6-0.9-0.6-1.5-0.1c-1.8,1.5-4,2.4-6.3,2.6c-2.5,0.3-5.1-0.1-7.5-1
	c-2.9-1.2-5-3.9-5.3-7.1c-0.3-1.9-0.2-3.8,0.3-5.7c0.8-3,3-5.3,5.9-6.4c2.3-0.9,4.7-1.4,7.2-1.4c1.3,0,2.6-0.1,3.9-0.1
	c0.4,0,0.6-0.2,0.6-0.5c0-1.2-0.1-2.5-0.3-3.7c-0.2-1.3-1.3-2-2.8-2.1c-3-0.2-5.5,0.8-8.1,2.2c-0.5,0.3-0.9,0.5-1.3,0.8
	c-0.5,0.4-1.2,0.3-1.6-0.2c-0.1-0.1-0.1-0.2-0.2-0.3c-0.8-1.3-1.5-2.5-2.3-3.8c-0.5-0.5-0.4-1.3,0.1-1.8c0.1-0.1,0.3-0.2,0.4-0.2
	c2.2-1.3,4.6-2.3,7.1-3c3.7-1.2,7.8-1.2,11.5-0.1c2.1,0.6,3.8,2,4.8,3.9c0.7,1.3,1.1,2.8,1.1,4.3C153.3,21.4,153.3,22.5,153.3,23.6
	L153.3,23.6"/>
<path fill="#FFFFFF" d="M191.7,25.1c0.1-1.3,0-2.6-0.3-3.9c-0.4-1.9-2-3.2-3.9-3.4c-1.9-0.3-3.9,0.6-4.8,2.3c-0.8,1.5-1.2,3.3-1.1,5
	H191.7z M181.3,31.6c0.1,2.6,0.4,5.1,2.5,6.9c0.9,0.8,2,1.2,3.2,1.4c3.1,0.4,6.2-0.2,8.9-1.9c0.9-0.6,1.5-0.4,2.1,0.5
	c0.5,0.8,1.1,1.6,1.6,2.4c0.4,0.4,0.4,1.1-0.1,1.5c-0.1,0.1-0.2,0.1-0.3,0.2c-2.4,1.8-5.2,3.1-8.2,3.6c-4.8,0.8-9.3,0.1-13.2-2.9
	c-2-1.6-3.5-3.7-4.5-6.1c-1.2-3.2-1.7-6.7-1.4-10.2c0.1-2,0.5-4,1.1-6c1.7-4.6,4.7-7.9,9.6-9c4.2-1.2,8.7-0.4,12.3,2.1
	c1.9,1.4,3.3,3.4,4.1,5.6c0.8,2,1.2,4.2,1.3,6.4c0.1,1.2,0.1,2.3,0.1,3.5c0,1.4-0.6,2-2,2H183C182.7,31.4,182,31.5,181.3,31.6"/>
<path fill="#FFFFFF" d="M165.6,17.7v0.7c0,5.4,0,10.8,0,16.1c0,1,0.1,2,0.2,3c0.2,1.7,1,2.5,2.7,2.6c0.9,0,1.7,0,2.6-0.2
	c1-0.2,1.5,0,1.7,1c0.2,0.8,0.3,1.6,0.5,2.4c0.2,1.2,0.1,1.4-1,1.8c-3.3,1.1-6.7,1.5-10.1,0.3c-1.8-0.5-3.3-1.7-4.2-3.3
	c-0.6-1.1-0.9-2.4-0.9-3.7c0-5.5,0.1-11,0.1-16.5c0-3.7,0.1-7.4,0.1-11.2c0-1.7,0-3.4,0.1-5.1c0-0.9,0.6-1.7,1.4-1.9
	c1.9-0.5,3.8-1,5.7-1.4c0.6-0.2,1.2,0.2,1.3,0.7c0,0.1,0,0.3,0,0.4c0,1-0.1,2.1-0.1,3.1c-0.1,1.4-0.1,2.8-0.2,4.2c0,0.4,0,0.7,0,1.2
	h6.3c1,0,1.3,0.5,1,1.4c-0.5,1.3-1,2.6-1.4,3.9c-0.1,0.3-0.4,0.5-0.7,0.5c-1.5,0-3,0-4.5,0H165.6"/>
<path fill="#FF4C14" d="M43.3,28.1c0,4.9,0,9.9,0,14.8c0,1.8-1,2.4-2.5,2.5c-1.4,0.1-2.9,0-4.4,0c-0.9,0.1-1.6-0.5-1.7-1.4
	c0-0.1,0-0.2,0-0.4c0-9.6,0-19.1,0-28.7c0-1.4,1-2.6,2.4-2.7l4.5-0.7c0.7-0.2,1.4,0.2,1.6,0.8c0.1,0.2,0.1,0.4,0,0.6
	C43.3,18,43.3,23.1,43.3,28.1"/>
<path fill="#FF4C14" d="M33.9,5.1c0.1-2.8,2.4-5,5.2-5.1c2.8,0.1,5.1,2.4,5,5.2s-2.4,5.1-5.2,5C36.1,10.2,33.9,7.9,33.9,5.1"/>
</svg>
