<?xml version="1.0" encoding="utf-8"?>
<!-- Generator: Adobe Illustrator 22.0.1, SVG Export Plug-In . SVG Version: 6.00 Build 0)  -->
<svg version="1.1" id="Layer_1" xmlns="http://www.w3.org/2000/svg" xmlns:xlink="http://www.w3.org/1999/xlink" x="0px" y="0px"
	 viewBox="0 0 50.57 53.7" enable-background="new 0 0 50.57 53.7" xml:space="preserve">
<path fill="#FFFFFF" d="M15.7,0c0.2,0.1,0.3,0.1,0.5,0.1c8,0.3,15.7,3.2,21.8,8.3c3.4,2.8,6.3,6.3,8.5,10.2c1.9,3.4,3.2,7.1,4,10.9
	c0.4,2.1-1,4.1-3.1,4.5l0,0c-2,0.3-3.9-1-4.4-3c-0.5-2.7-1.4-5.3-2.6-7.7c-1.5-3-3.6-5.7-6.1-8c-7.8-7.1-18.8-9.4-28.8-6
	c-1.1,0.5-2.3,0.5-3.3,0C0.9,8.7,0,7.3,0,5.8s0.9-2.9,2.3-3.5c2-0.8,4.2-1.4,6.4-1.7c1.7-0.3,3.4-0.3,5.1-0.5c0.1,0,0.3-0.1,0.4-0.1
	L15.7,0z"/>
<path fill="#FF4C14" d="M13.6,41.1c2.3,0,4.2-1.8,4.3-4.1v-0.1c0-2.3-1.9-4.3-4.2-4.3s-4.3,1.9-4.3,4.2C9.4,39.1,11.2,41,13.6,41.1
	L13.6,41.1 M2.9,53.7c0-0.1,0-0.1-0.1-0.2c0-5-0.1-9.9-0.1-14.9c-0.1-1.6,0.1-3.2,0.6-4.8c0.5-1.5,1.3-3,2.3-4.2
	c1.3-1.5,2.9-2.5,4.8-3.1c1-0.3,2.1-0.5,3.2-0.6c2.3,0,4.6,0.7,6.5,2.2c1.8,1.3,3.2,3.2,3.9,5.3c0.8,2.3,0.7,4.8-0.2,7.1
	c-1.1,2.7-3.1,4.9-5.7,6.2c-1.7,0.9-3.4,1.8-5.1,2.6c-2.5,1.2-5.1,2.2-7.6,3.3L2.9,53.7"/>
<path fill="#FFFFFF" d="M6.3,18.4c0-1.7,1.1-3.1,2.7-3.6c1.8-0.6,3.7-1,5.6-1.1c10.4-0.6,19.6,6.8,21.4,17c0.5,2-0.8,4.1-2.8,4.6
	s-4.1-0.8-4.6-2.8c-0.3-1.2-0.6-2.3-1-3.4c-1.7-4.1-5.4-7-9.8-7.6c-2.2-0.3-4.4-0.1-6.4,0.6s-4.1-0.4-4.8-2.3
	C6.4,19.3,6.3,18.9,6.3,18.4"/>
</svg>
