<?xml version="1.0" encoding="utf-8"?>
<!-- Generator: Adobe Illustrator 22.0.1, SVG Export Plug-In . SVG Version: 6.00 Build 0)  -->
<svg version="1.1" id="Layer_1" xmlns="http://www.w3.org/2000/svg" xmlns:xlink="http://www.w3.org/1999/xlink" x="0px" y="0px"
	 viewBox="0 0 263.17 87.5" enable-background="new 0 0 263.17 87.5" xml:space="preserve">
<g>
	<path d="M26,44c-2.4-0.1-4.7,0-7.1-0.1C18.8,44,18.7,44,18.6,44c0,0.1-0.1,0.1-0.1,0.1c0,3.3,0,6.7,0,10c-0.1,1.1,0.8,2.1,2,2.2
		c0.1,0,0.2,0,0.3,0c1.6,0,3.2,0,4.7,0c1.4,0.1,2.7-0.4,3.7-1.4c1.9-2,2.5-4.9,1.5-7.4C30.1,45.4,28.2,44,26,44z"/>
	<path d="M71.6,36.2c-1.3-0.3-2.6-0.3-3.8,0c-1.7,0.4-3,1.8-3.2,3.5c-0.1,0.7-0.1,1.3-0.1,1.9c0,2,1.4,3.7,3.4,4
		c0.6,0.2,1.2,0.2,1.8,0.3c1,0,2.1-0.2,3-0.7c1.7-0.8,2.5-2.6,2.3-4.9C74.9,38.3,73.5,36.7,71.6,36.2z"/>
	<path d="M20.3,36.5c0.1,0,0.2,0,0.3,0c1.7,0,3.4,0,5,0c1.7,0.1,3.3-1,3.9-2.6c0.2-0.4,0.3-0.8,0.4-1.2c0.8-2.6-0.6-6.3-4.2-6.5
		c-1.5-0.1-3-0.1-4.4-0.1c-0.9,0-1.9,0-2.8-0.1c0,0.1-0.1,0.1-0.1,0.2c0,2.7,0,5.4,0,8.1C18.3,35.5,19.2,36.5,20.3,36.5z"/>
	<path d="M0,0v87.5h263.17V0H0z M41.5,52.3c-0.2,2.5-1.1,4.9-2.6,6.8c-1.9,2.4-4.8,4-7.8,4.3c-1,0.1-1.9,0.2-2.9,0.2
		c-3.4,0.2-6.6,0.2-9.9,0.2h-6.1c-0.3,0-0.7,0-1-0.1c-1.1-0.2-1.5-0.9-1.7-2c0-0.1,0-0.3,0-0.4c0-13.4,0-26.8,0-40.2
		c0-2.1,1.1-2.6,2.6-2.6c4.1-0.1,8.2,0,12.3,0c1.4,0,2.9,0.1,4.3,0.2c2.5,0.2,4.8,1.1,6.7,2.7c1.7,1.3,3,3,3.7,5
		c0.4,1.1,0.6,2.3,0.6,3.5c0,2.7-1.1,5.4-3,7.3c-0.8,0.9-1.8,1.6-2.9,2c-0.3,0.1-0.4,0.3-0.3,0.6c0.1,0.2,0.2,0.3,0.4,0.4
		c1.4,0.4,2.7,1,3.9,1.9c1.2,1,2.2,2.3,2.8,3.8C41.4,47.9,41.8,50.1,41.5,52.3z M52.8,61.2c0,1.8-1,2.4-2.5,2.5
		c-1.4,0.1-2.9,0-4.4,0c-0.9,0.1-1.6-0.5-1.7-1.4c0-0.1,0-0.2,0-0.4c0-9.6,0-19.1,0-28.7c0-1.4,1-2.6,2.4-2.7l4.5-0.7
		c0.7-0.2,1.4,0.2,1.6,0.8c0.1,0.2,0.1,0.4,0,0.6c0.1,5.1,0.1,10.2,0.1,15.2C52.8,51.3,52.8,56.3,52.8,61.2z M48.4,28.5
		c-2.8,0-5-2.3-5-5.1c0.1-2.8,2.4-5,5.2-5.1c2.8,0.1,5.1,2.4,5,5.2C53.5,26.3,51.2,28.6,48.4,28.5z M87.3,34.4
		c-1,1.4-2.5,2.4-4.1,2.9c-0.3,0.1-0.3,0.3-0.2,0.6c0.2,0.8,0.5,1.6,0.7,2.5c0.2,1.2,0.2,2.4-0.2,3.5c-0.7,2.4-2.3,4.5-4.6,5.7
		c-1.7,1-3.7,1.6-5.7,1.8c-0.7,0.1-1.3,0.1-2,0.1c-1.5,0-2.9,0.7-3.9,1.7c-0.5,0.3-0.7,1-0.4,1.5c0.2,0.5,0.8,0.5,1.3,0.5
		c1.4,0,2.7,0,4.1,0c2.4,0.1,4.7,0.1,7,0.8c1.2,0.4,2.3,1,3.3,1.8c0.8,0.7,1.4,1.4,2,2.3c0.7,1.1,1.2,2.4,1.3,3.8
		c0.2,1.6,0,3.3-0.5,4.8c-0.6,1.8-1.8,3.4-3.4,4.6c-2.2,1.5-4.7,2.5-7.3,2.8c-2,0.3-4,0.4-6.1,0.3c-3,0-5.9-0.7-8.6-1.9
		c-1.8-0.9-3.3-2.3-4.3-4c-1.1-1.9-1.3-4.9-0.1-6.8h7.5c0,0.7,0,1.3,0,2c0,0.8,0.2,1.5,0.6,2.2c0.7,0.9,1.7,1.6,2.9,1.7
		c1.8,0.3,3.6,0.4,5.4,0.1c1.2-0.1,2.3-0.5,3.4-1.1c1.9-1.2,2.4-3.7,1.2-5.6c0-0.1-0.1-0.1-0.1-0.2c-0.5-0.6-1.2-1-2-1.1
		c-1.3-0.3-2.6-0.4-3.8-0.5c-2-0.1-4,0-6-0.2c-1.6-0.1-3.2-0.4-4.7-0.8c-1.5-0.3-2.6-1.5-2.9-3c-0.5-1.4-0.2-3,0.7-4.2
		c0.5-0.6,1.1-1.1,1.8-1.4c1-0.5,2.1-0.9,3.3-1.4l-0.7-0.3c-1.5-0.4-2.8-1.2-4-2.3c-1.2-1.2-2-2.7-2.3-4.4c-0.4-2-0.3-4.2,0.5-6.1
		c0.6-1.7,1.7-3.2,3.1-4.3c2-1.5,4.3-2.5,6.8-2.9c1.7-0.3,3.4-0.4,5.2-0.2c1.8,0.3,3.6,0.6,5.4,1.1c0.9,0.2,1.9,0.5,2.8,0.7
		c0.8,0.1,1.4-0.4,2-0.8c0.6-0.4,1-0.7,1.5-1.1c0.5-0.3,1.1-0.3,1.5,0.2c0.8,0.7,1.6,1.4,2.4,2.2C88.2,32.9,88,33.5,87.3,34.4z
		 M236.4,51c-1.1,2.7-3.1,4.9-5.7,6.2c-1.7,0.9-3.4,1.8-5.1,2.6c-2.5,1.2-5.1,2.2-7.6,3.3l-2.5,1.1c0-0.1,0-0.1-0.1-0.2
		c0-5-0.1-9.9-0.1-14.9c-0.1-1.6,0.1-3.2,0.6-4.8c0.5-1.5,1.3-3,2.3-4.2c1.3-1.5,2.9-2.5,4.8-3.1c1-0.3,2.1-0.5,3.2-0.6
		c2.3,0,4.6,0.7,6.5,2.2c1.8,1.3,3.2,3.2,3.9,5.3C237.4,46.2,237.3,48.7,236.4,51z"/>
	<path d="M226.3,43.1c-2.3,0-4.3,1.9-4.3,4.2s1.8,4.2,4.2,4.3c2.3,0,4.2-1.8,4.3-4.1v-0.1C230.5,45.1,228.6,43.1,226.3,43.1z"/>
</g>
</svg>
