<?xml version="1.0" encoding="utf-8"?>
<!-- Generator: Adobe Illustrator 22.0.1, SVG Export Plug-In . SVG Version: 6.00 Build 0)  -->
<svg version="1.1" id="Layer_1" xmlns="http://www.w3.org/2000/svg" xmlns:xlink="http://www.w3.org/1999/xlink" x="0px" y="0px"
	 viewBox="0 0 41.25 41.25" enable-background="new 0 0 41.25 41.25" xml:space="preserve">
<g>
	<path d="M19.0417,15.2916c0.297,0.182,0.661,0.264,0.991,0.264c1.882-0.016,1.8329-2.493,1.8329-2.626c0-0.181,0-0.363-0.033-0.545
		c-0.05-0.528-0.264-1.7-1.8-1.717c-0.231,0-0.793-0.016-1.272,0.446c-0.346,0.33-0.627,0.875-0.627,1.883
		C18.1337,13.1777,18.0837,14.6807,19.0417,15.2916z"/>
	<path d="M9.814,15.3079c0.578,0,0.8589-0.181,1.057-0.363c0.512-0.496,0.694-1.387,0.694-2.081c0-0.1479,0-0.528-0.132-0.924
		c-0.33-1.058-1.156-1.19-1.586-1.19c-0.809,0-1.849,0.496-1.849,2.312c0,0.413,0.049,0.661,0.099,0.843
		C8.1959,14.2849,8.5759,15.3079,9.814,15.3079z"/>
	<path d="M36.0797,14.4171c0.074,0.447-0.037,0.714,0.607,0.99c0.5791,0.2488,1.4976-0.1097,2.0526-0.3785v-4.1805h-2.6595V14.4171z
		"/>
	<path d="M0,0v41.25h41.25V0H0z M39.4893,2.1207v36.617v0.75h-0.75H2.3533h-0.75v-0.75V2.1207v-0.75h0.75h36.386h0.75V2.1207z"/>
	<path d="M2.3533,38.7377h36.386V17.375c-0.8422,0.4565-1.601,0.7081-2.7336,0.7081c-2.172,0-3.093-0.964-3.093-3.522v-3.712h-3.39
		v3.567c0.017,0.463,0.083,1.074,1.123,1.074c0.705,0,1.404-0.562,1.751-0.925v2.444c-0.937,0.827-1.7339,1.073-2.94,1.073
		c-3.365,0-3.104-2.625-3.104-3.517v-3.699h-1.52v-1.916c0.645-0.247,1.074-0.429,1.586-0.925c0.71-0.6769,1.024-1.42,1.371-2.312
		h1.75l0.001,2.333h3.171c0,0,0.594-0.419,0.883-0.775c0.397-0.488,0.565-0.839,0.699-1.454h1.822v2.228h2.6236V2.1207H2.3533
		V38.7377z M16.1517,9.2637c0.099-0.148,0.281-0.396,0.611-0.66c0.875-0.727,1.899-0.925,3.006-0.941
		c0.281-0.017,1.965-0.05,3.121,0.611c0.1819,0.115,0.578,0.363,0.941,0.809c0.793,1.007,0.958,2.279,0.958,3.501
		c0,0.379,0.066,3.517-1.916,4.855c-0.577,0.38-1.387,0.726-2.889,0.726c-2.478,0-4.096-1.09-4.591-3.583
		c-0.05-0.264-0.166-1.007-0.166-1.8C15.2267,12.3687,15.2437,10.5687,16.1517,9.2637z M5.0419,5.7139h3.269l-0.115,3.93
		c0.231-0.446,0.347-0.611,0.512-0.809c0.38-0.462,1.106-1.074,2.51-1.074c0.496,0,1.618,0.05,2.461,1.14
		c0.363,0.446,0.561,0.991,0.627,1.139c0.165,0.463,0.364,1.255,0.364,2.411c0,0.215-0.033,1.173-0.182,1.966
		c-0.545,2.989-2.329,3.682-3.699,3.682c-0.413,0-1.487-0.05-2.312-0.941c-0.199-0.215-0.265-0.297-0.529-0.743l0.066,1.42h-2.972
		V5.7139z"/>
</g>
</svg>
