<?xml version="1.0" encoding="utf-8"?>
<!-- Generator: Adobe Illustrator 22.0.1, SVG Export Plug-In . SVG Version: 6.00 Build 0)  -->
<svg version="1.1" id="Layer_1" xmlns="http://www.w3.org/2000/svg" xmlns:xlink="http://www.w3.org/1999/xlink" x="0px" y="0px"
	 viewBox="0 0 40.3333 18.1667" enable-background="new 0 0 40.3333 18.1667" xml:space="preserve">
<g>
	<path d="M19.8007,9.1897c-0.05-0.528-0.264-1.7-1.8-1.717c-0.231,0-0.793-0.016-1.272,0.446c-0.346,0.33-0.627,0.875-0.627,1.883
		c0,0.181-0.05,1.684,0.908,2.295c0.297,0.182,0.661,0.264,0.991,0.264c1.882-0.016,1.8329-2.493,1.8329-2.626
		C19.8337,9.5537,19.8337,9.3717,19.8007,9.1897z"/>
	<path d="M7.8149,7.5549c-0.809,0-1.849,0.496-1.849,2.312c0,0.413,0.049,0.661,0.099,0.843c0.099,0.38,0.479,1.403,1.717,1.403
		c0.578,0,0.8589-0.181,1.057-0.363c0.512-0.496,0.694-1.387,0.694-2.081c0-0.148,0-0.528-0.132-0.924
		C9.071,7.6869,8.2449,7.5549,7.8149,7.5549z"/>
	<path d="M0,0v18.1667h40.3333V0H0z M12.4559,11.2219c-0.545,2.989-2.329,3.682-3.699,3.682c-0.413,0-1.487-0.05-2.312-0.941
		c-0.199-0.215-0.265-0.297-0.529-0.743l0.066,1.42h-2.972V2.5189h3.269l-0.115,3.9301c0.231-0.446,0.347-0.611,0.512-0.809
		c0.38-0.462,1.106-1.074,2.51-1.074c0.496,0,1.618,0.05,2.461,1.14c0.363,0.446,0.561,0.991,0.627,1.139
		c0.165,0.463,0.364,1.255,0.364,2.4109C12.6379,9.4709,12.605,10.4289,12.4559,11.2219z M20.8407,14.2437
		c-0.577,0.3799-1.387,0.726-2.889,0.726c-2.478,0-4.096-1.09-4.591-3.583c-0.05-0.264-0.166-1.007-0.166-1.8
		c0-0.413,0.017-2.213,0.925-3.518c0.099-0.1479,0.281-0.396,0.611-0.66c0.875-0.727,1.899-0.925,3.006-0.941
		c0.281-0.017,1.965-0.05,3.121,0.611c0.1819,0.115,0.578,0.363,0.941,0.809c0.793,1.007,0.958,2.279,0.958,3.501
		C22.7567,9.7677,22.8227,12.9057,20.8407,14.2437z M37.0117,7.6531h-2.964v3.569c0.074,0.447-0.037,0.714,0.607,0.99
		c0.703,0.302,1.915-0.293,2.357-0.533v2.339c-0.975,0.57-1.769,0.87-3.038,0.87c-2.172,0-3.093-0.964-3.093-3.522v-3.712h-3.39
		v3.567c0.017,0.463,0.083,1.074,1.123,1.074c0.705,0,1.404-0.562,1.751-0.925v2.444c-0.937,0.827-1.7339,1.073-2.94,1.073
		c-3.365,0-3.104-2.625-3.104-3.517v-3.699h-1.52v-1.916c0.645-0.2469,1.074-0.429,1.586-0.925c0.71-0.677,1.024-1.42,1.371-2.312
		h1.75l0.001,2.333h3.171c0,0,0.594-0.419,0.883-0.775c0.397-0.488,0.565-0.8391,0.699-1.454h1.822v2.228h2.928V7.6531z"/>
</g>
</svg>
