<svg xmlns="http://www.w3.org/2000/svg" viewBox="0 0 327.7 126.62"><path d="M319.18 46.97a7.16 7.16 0 0 0 4.3-6.55 7.17 7.17 0 0 0-7.18-7.13c-3.28 0-6 2.08-6.89 5a37.98 37.98 0 0 0-20.14-5.75c-20.27 0-36.91 15.89-38.32 35.95h-12.08c-.2 0-.39.02-.58.05a23.6 23.6 0 0 0-3.33-4.39c-5-5.2-12.2-7.96-20.77-7.96a27.31 27.31 0 0 0-19.44 7.86 26.5 26.5 0 0 0-4.37 5.73V34.52a3.69 3.69 0 0 0-2.86-3.59c.25-.12.5-.24.74-.39 2.3-1.42 3.89-4.05 4.59-7.62.96-4.84-1.21-8.41-3.37-10a6.18 6.18 0 0 0-1.93-.9L140.33.15a5.52 5.52 0 0 0-3.17.15 11.18 11.18 0 0 0-6.62 7.11c-.47 1.5-.71 3.13-.68 4.7.04 2 .51 3.79 1.36 5.18.22.37.48.7.76 1.02l-.63.27c-.82.37-1.66.7-5.18 2.14l-2.74 1.12c-9.78 3.99-19.52 7.97-26.1 10.75l.12-.34c.09-.3.14-.6.15-.9.34-.53.54-1.15.56-1.82l.04-1c.15-3.97-1.06-7.41-3.5-9.95-2.52-2.6-6.05-3.98-10.24-3.98-3.92 0-7.4 1.58-9.86 4.15-2.01-2.53-5.25-3.96-9.4-3.96-.67 0-1.32.05-1.95.15V7.7a3.7 3.7 0 0 0-3.7-3.69h-6.83a3.7 3.7 0 0 0-3.7 3.7v2.68a3.67 3.67 0 0 0-1.95-.57h-6.85a3.7 3.7 0 0 0-3.7 3.7v1.95a3.7 3.7 0 0 0-2.2 3.38v5.74a3.7 3.7 0 0 0 2.2 3.38v7.14a27.84 27.84 0 0 0-10.2-1.82H3.68A3.7 3.7 0 0 0 0 36.99v68.22a3.7 3.7 0 0 0 3.7 3.7h26.58c11.37 0 19.72-5.17 23.2-13.75 4.3 9.1 13.58 14.98 25.14 14.98 7.69 0 14.66-2.65 19.63-7.47 1.45-1.4 2.7-2.98 3.77-4.7.2 4.07.4 7.25.55 8.33.25 1.73.72 3.21 1.38 4.5a4.81 4.81 0 0 0-1.99 3.87c0 6.08 10.42 6.99 16.63 6.99 2.8 0 5.35-.15 7.52-.42.94 1.86 3.22 3.26 6.81 4.15 3.2.8 7.38 1.23 11.8 1.23 4.4 0 8.58-.44 11.78-1.23 4.85-1.2 7.31-3.32 7.31-6.3 0-1.87-.97-3.4-2.88-4.57a8.84 8.84 0 0 0 2.64-5.32h-.02c.1-.47.2-1.08.35-1.9l.9-5.22 1.73-9.94v13.07a3.7 3.7 0 0 0 3.7 3.7h16.46a3.7 3.7 0 0 0 3.7-3.7v-7.86c4.48 7.84 12.87 12.79 23.13 12.79 13.72 0 23.25-6.51 26.82-18.33.23-.77.2-1.6-.06-2.33a3.69 3.69 0 0 0 1.53-2.85l.04-1h11.75a39.08 39.08 0 0 0 8.47 12.92 37.92 37.92 0 0 0 27.2 11.49c21.19 0 38.43-17.4 38.43-38.8 0-9.18-3.2-17.62-8.52-24.27zm-193.22-6.72a4.71 4.71 0 0 0 .08-.47l17.08-7.02c2.99-1.2 4.24-3.25 4.75-4.75.27-.77.4-1.58.4-2.41 0-.86-.14-1.57-.37-2.2l4.1.98-.14.94v.04a5.41 5.41 0 0 0 .03 1.71 5.63 5.63 0 0 0-2.9 3.88 5.93 5.93 0 0 0-.67 2.01 1484.89 1484.89 0 0 1-.26 1.9c-.81.85-1.32 2-1.58 3.54l-.32 1.85-.01.07-.31 2.04c-.1.64-.3 2.1-.5 2.93l-.43.34c-2.72 2.07-8.28 6.33-9.23 12.65l-3.15 18.19c-.17-4.21-.37-7.54-.57-8.67-.54-2.96-2.18-5.59-3.27-7.32l-.13-.22-.35-.57-.1-1.17v-.1l-.01-.09c-.1-1.3-.22-3.1-.56-5.73-.41-3.48-1.15-7.94-1.67-11.01l-.1-.64c.07-.23.14-.46.19-.7zM23.86 53.3c1.56.21 2.35 1.3 2.35 3.27 0 2.24-.89 2.89-2.35 3V53.3zm3.4 35.54h-3.4v-9.17h3.4c3.83 0 4.25 3.24 4.25 4.63 0 3.01-1.43 4.54-4.25 4.54zm51.27-.19a5.42 5.42 0 0 1-5.3-5.39c0-2.92 2.42-5.4 5.3-5.4a5.3 5.3 0 0 1 5.3 5.4 5.29 5.29 0 0 1-5.3 5.4zm.09-32.56c-12.65 0-22.56 7.06-26.21 17.7a18.04 18.04 0 0 0-5.64-6.07c1.85-2.64 3.2-6.56 3.2-12.37 0-5.68-1.75-10.6-5.08-14.42h2.18c1.14 0 2.14-.53 2.82-1.34a3.67 3.67 0 0 0 2.83 1.34h6.83a3.7 3.7 0 0 0 3.42-2.3 3.7 3.7 0 0 0 3.42 2.3h6.85c1.36 0 2.54-.75 3.18-1.86 1.04.73 2.2 1.3 3.45 1.7l-2.63 1.06a5.52 5.52 0 0 0-3.21 4.02 5.78 5.78 0 0 0 1.32 5.22l.72.77c1 1.08 1.68 1.8 3.05 2.77a6.9 6.9 0 0 0 3.96 1.18c.97 0 1.9-.19 2.69-.54l7.96-3.33a2.61 2.61 0 0 1 1.06-.2 14.42 14.42 0 0 0 5.54-1.3c.2-.1 1.46-.62 4.76-1.99-.15 1.67-.29 3.36-.38 4.9-.17 2.76-.17 4.59-.17 5.92v.05l-.01 1.16a28.3 28.3 0 0 1-.43.78 24.24 24.24 0 0 0-2.6 6.29 24.66 24.66 0 0 0-3.25-3.92c-4.97-4.85-11.94-7.52-19.63-7.52zm88.64-28.23l13.17 2.97h-10.2c-.62 0-1.2.16-1.7.43a5.39 5.39 0 0 0-1.64-2.38c.16-.32.28-.67.37-1.02zm-1 20.57l-.3-.4c.06-.83.26-2.2.35-2.86l.22-1.59v5.2l-.27-.35zM289.27 86.1c-8.14 0-14.76-6.7-14.76-14.94 0-8.24 6.63-14.95 14.76-14.95 8.14 0 14.76 6.7 14.76 14.95 0 8.24-6.62 14.94-14.76 14.94z"/><path fill="#FFF" d="M54.58 83.17c0 14 10.32 23.27 24.04 23.27 13.82 0 23.75-9.37 23.75-23.27 0-13.92-9.93-23.38-23.75-23.38-13.72 0-24.04 9.46-24.04 23.38zm14.95.1c0-4.93 4.07-9.1 9-9.1 5.1 0 8.99 4.07 8.99 9.1a9.01 9.01 0 0 1-9 9.08c-4.92 0-8.99-4.17-8.99-9.09zm182.43-11.08c.08 3.38.61 6.64 1.54 9.75h-12.36a26.55 26.55 0 0 0-2.27-9.75h13.1zm2.58-.95c0 19.12 15.52 35.1 34.73 35.1 19.3 0 34.73-15.98 34.73-35.1 0-19.21-15.43-35.01-34.73-35.01-19.21 0-34.73 15.8-34.73 35.01zm16.28-.1a18.57 18.57 0 0 1 18.45-18.63 18.52 18.52 0 0 1 18.46 18.64 18.52 18.52 0 0 1-18.46 18.64 18.57 18.57 0 0 1-18.45-18.64zM46.28 55.35c0-11.73-8.7-18.36-19.97-18.36H3.7v68.23h26.6c12.39 0 21.29-6.9 21.29-19.77 0-7.86-3.6-14.58-11.55-16.76 5.1-2.27 6.25-8.32 6.25-13.33zm-26.12-5.77h3.12c4.16 0 6.62 2.93 6.62 7 0 4.17-2.36 6.72-6.62 6.72h-3.12V49.57zm0 42.96V75.98h7.1c4.92 0 7.94 3.5 7.94 8.32 0 4.93-2.93 8.23-7.94 8.23h-7.1zM66.4 27.71c0-2.21-.63-3.8-3.12-3.8-3.09 0-3.72 2.79-3.72 6.1v7.23h-6.83V7.7h6.83v13.53c1.23-2.02 3.4-2.73 5.66-2.73 4.94 0 8.03 2.53 8.03 7.63v11.1H66.4v-9.52zm-26.17-3.12h-2.21v-5.74h2.21v-5.34h6.85v5.34h3.83v5.74h-3.83v12.65h-6.85V24.59zm54.28 3.83c.24-6.2-3.79-10.12-10.04-10.12-5.57 0-9.89 4.27-9.89 9.84s4 9.6 9.62 9.6c4.66 0 8.34-1.96 9.72-6.55h-6.05c-.48 1.34-2.17 1.5-3.4 1.5-1.93 0-3.24-1.34-3.28-3.28h13.29l.03-1zm-13.24-2.96c.08-1.62 1.62-2.54 3.12-2.54 1.55 0 3.05.92 3.2 2.54h-6.32zm88.96 9.06h16.47v70.7h-16.47v-70.7zm20.3 48.93c0 13.34 9.57 23 23 23 11.16 0 19.97-4.74 23.29-15.7h-14.49c-1.14 3.2-5.2 3.58-8.13 3.58-4.64 0-7.76-3.22-7.86-7.85h31.8l.09-2.37c.57-14.86-9.09-24.23-24.03-24.23-13.35 0-23.66 10.23-23.66 23.57zm16-6.44c.2-3.87 3.88-6.05 7.48-6.05 3.69 0 7.28 2.18 7.66 6.05h-15.14zm-51.79 39.18c3.3.67 5.39 1.74 5.39 2.9 0 2.12-6.9 3.84-15.4 3.84-8.52 0-15.42-1.72-15.42-3.83 0-1.82 5.1-3.34 11.95-3.73 1.06.23 2.14.42 3.22.6 3.62.55 7.33.9 10.26.22zm-23.2-1.04c0 1.81-5.8 2.81-12.94 2.81-7.15 0-12.94-1.48-12.94-3.3 0-.7.9-1.36 2.4-1.9.23.2.44.42.7.6 2.17 1.43 6.36 1.98 9.33 1.89 3.02-.09 7.14-.95 9.15-2.44.19-.14.33-.32.5-.48 2.34.6 3.8 1.42 3.8 2.82zm8.36-93.82c-1.68-.67-3.75-.86-7.01.62-1.09.49-2.1.89-8.06 3.32-11.45 4.67-30.01 12.25-33.37 13.94-2.5 1.29-2.47 1.49-3.06 1.95-.24.19-.38.3-1.86.9l-7.9 3.2c-1.07.42-1.43 2.4-.6 3.27 1.49 1.57 1.91 2.14 3.22 3.06.8.57 2.23.66 3.04.27l8.04-3.36a6.3 6.3 0 0 1 2.48-.48c.83 0 2.58-.3 3.9-.91.3-.16 1.34-.59 10.67-4.46l-.01.15c-.3 2.88-.76 7.26-.97 10.76-.17 2.65-.17 4.4-.17 5.7 0 1.16 0 1.87-.12 2.26-.09.25-.44.9-.76 1.48-.9 1.65-2.12 3.9-2.38 6.18-.05.44-.08 1.36-.08 2.63 0 8.17.92 31 1.33 33.98.42 2.8 1.43 4.64 3.22 5.83 1.86 1.23 5.74 1.78 8.6 1.69 2.77-.08 6.66-.88 8.46-2.2 1.72-1.33 2.64-3.3 2.85-6.04.04-.52.06-1.64.06-3.18 0-8.68-.59-30.66-1.09-33.44-.4-2.25-1.76-4.42-2.76-6.01-.34-.56-.74-1.2-.85-1.45-.15-.4-.2-1.11-.29-2.3-.09-1.28-.2-3.03-.55-5.63-.41-3.54-1.18-8.13-1.65-10.88l-.27-1.75a2.71 2.71 0 0 0 .44-1.41c0-.32-.08-.82-.26-1.63a44686 44686 0 0 0 19.58-8.05c1.4-.56 2.3-1.42 2.67-2.54.15-.4.2-.82.2-1.2 0-1.21-.49-1.64-1.39-2.42l-3.3-1.85zM108.9 32.82c.18.12-.17.64.18.52.18-.06.38.03.48.27.07.17-.12.65.26.59.23-.04.4.13.4.15.08.05.1.13.12.22l.01-.04c-.04.42.06.83.27.61.22-.22.5-.24.61-.03.1.2.12.16.24.6l.1.29c.15.04.24-.08.53-.26.34-.2.4.16.63.35.22.19.12.25.4.1.28-.16.7-.18.91-.02.22.15.18.3.46.12.28-.19.67-.14.92.06.24.2.2.17.52-.08s.54-.06 1.14-.18l-.61.24.19-.06 4-1.67-3.35 1.39s.33-1.18-.26-1.7c-.29-.24-.69-.67-2.14-1.3-3.33-1.42-.26-.48.64-.14.9.35 2.61 1.35 3.27 1.35.61 0 1.66-.44 1.2-.91l-.1-.06c-.9-.5-2.47-1.31-3.43-1.65a8.95 8.95 0 0 0-3.88-.18c-.42.08-.8.1-1.17.1l2.35-.94c.57-.23 1.5-.2 2.06.07l5.68 2.72c.56.27.55.68-.03.92l-6.71 2.77c-.58.24-1.48.16-2-.17l-.11-.06h-.03a.1.1 0 0 0-.02-.03l-.57-.36a.81.81 0 0 0-.3-.03c-.31.03-.22.11-.43-.16-.2-.27-.6-.46-.87-.43-.27.03-.4.04-.5-.22-.18-.54-.58-.55-.82-.6-.07-.02-.17-.04-.24-.08a.18.18 0 0 1-.02-.03c-.04-.03-.06-.08-.08-.14 0-.16.02-.35-.45-.64-.1-.06-.17-.12-.18-.21.03-.13.14-.31.03-.4-.2-.14-.02-.41.07-.66.1-.25 1-1.2.57-.59-.42.6.03.57.06.59zm-.73 0c-.18.39-.2.78-.07 1.11l-.1-.06c-.53-.33-.5-.8.09-1.03l.08-.03zm18.34 75.29a3.1 3.1 0 0 0-.1.15c-.05.1-.11.2-.18.29l-.05.07-.04.06-.06.07-.04.05-.08.1a.11.11 0 0 0-.02.03l-.24.24-.01.01-.1.1-.04.02-.1.1-.03.02-.13.1c-1.21.9-4.47 1.74-7.35 1.82l-.57.01h-.65c-2.55-.1-5.15-.64-6.23-1.37-1.29-.85-2.03-2.24-2.36-4.46-.42-3.08-1.31-26.04-1.31-33.79 0-1.15.02-1.96.06-2.33.32-2.83 2.63-5.96 3.06-7.29.41-1.28.05-2.94.38-8.44l.11-1.7v-.04l.01-.08c.37-5.14.9-9.61 1.05-10.93l.03-.3 7.11-2.94c.62-.25 1.47-.14 1.52.37a346 346 0 0 0-5.75 2.1c-.75.27.32.42 1.11.37a10.4 10.4 0 0 0 4.45-1.17c.19.14-.1.83-.04 1.21a11.77 11.77 0 0 1-4.68.98c-.97 0-1.78.04-2.24.5-.25 2.56-.81 5.89-1.06 10-.33 5.51-.38 6.47-.38 8.45 0 6.7-3.12 5.97-.5 16.47 2.63 10.5-1.57 28.94 3.95 31.43a13.1 13.1 0 0 0 5.4 1.27 9.29 9.29 0 0 0 6.53-2.54c-.12.51-.27.7-.43.99zm13.6-79.91l-20.2 8.3-8.59 3.56c-7.45 3.07-13.6 5.63-14.3 5.97a4.4 4.4 0 0 1-2.07.41h-.27c-.8 0-1.67 0-2.99.53l-5.68 2.34-2.74 1.12c-1.04.41-1.75-.61-2.83-1.56-1.1-.95-1.28-1.8-1.07-1.59.24.23 1.3.83 2.06 1.33.87.58 1.09 1.07 1.81.85.11-.03 9.02-3.68 9.02-3.68 1.18-.47 2-.52 2.75-.52h.5c.65 0 1.26-.04 2.07-.42a4631 4631 0 0 1 36.92-14.91c2.9-1.12 6.21-1.99 5.61-1.73zm176.18 8.05a4.18 4.18 0 1 1 0 8.37 4.19 4.19 0 1 1 0-8.37zm3.4 4.17c0-1.98-1.5-3.47-3.4-3.47-1.91 0-3.4 1.5-3.4 3.47 0 2.02 1.49 3.5 3.4 3.5 1.9 0 3.4-1.48 3.4-3.5zm-4.28 2.43h-.73v-4.83h1.84c1.14 0 1.7.42 1.7 1.37 0 .87-.54 1.24-1.25 1.33l1.37 2.13h-.82l-1.27-2.1h-.84v2.1zm.87-2.71c.63 0 1.18-.05 1.18-.8 0-.59-.55-.7-1.05-.7h-1v1.5h.87zM186.66 15.6L139.43 3.75c-.34-.09-.7-.07-1.04.05a7.48 7.48 0 0 0-4.33 4.73 11.09 11.09 0 0 0-.5 3.51c.02 1.3.3 2.48.81 3.33.6.99 1.4 1.35 1.95 1.47 0 0 17.18 4.12 19.86 4.73l-.67 4.31c0 .1-.02.19-.01.28 0 .24.06.48.18.7l.27.5a3.46 3.46 0 0 0-.48 1.85c0 .33.07.61.18.88a5.48 5.48 0 0 0-1.62.09l-.1.03-.11.04c-1.08.42-1.25 1.43-1.33 2.11-.23.26-.43.61-.51 1.11l-.22 1.55a1.92 1.92 0 0 0 .15 1.1c-.24 1.7-1.31.08-1.79 2.9l-.32 1.86-.31 2.03c-.25 1.74-.6 4.1-1.1 4.67l-1.2.96c-2.5 1.9-7.15 5.44-7.86 10.32l-8 46.13a6.5 6.5 0 0 0-.07 1.1c.08 3.95 4.1 6.1 13.43 7.3 10.12 1.29 14.53-.08 15.22-4.73l8-46.14c.7-4.86-2.76-9.44-4.62-11.9l-.89-1.23c-.33-.68 0-3.03.25-4.74l.29-2.1.36-3c.36-2.94 1.08-.51 1.29-1.9.27-.35.42-.71.45-.97l.22-1.47c.02-.14.02-.28.02-.4 0-.33-.11-.56-.22-.77.05-.25.1-.54.1-.87a1.86 1.86 0 0 0-.86-1.62c-.13-.08-.31-.2-.89-.36a3.75 3.75 0 0 0-1.71-2.06c.24-.1.52-.12.69-.33l.96-1.18c.18-.23.3-.49.35-.76l.56-3.46 19.7 4.44c.77.17 1.61.02 2.36-.44 1.38-.85 2.41-2.7 2.9-5.2.67-3.36-.9-5.55-1.93-6.3 0 0-.4-.24-.63-.3zm-25.32 21.87c-.52-.08-1.88-.05-2.83-.13-1.94-.17-3.45.16-3.6.9-.54 2.86-1.22-.56-1.63 1.84-.31 1.87-.53 3.76-.86 5.24h-.01a7.98 7.98 0 0 1-.53 1.62c-2.45 6.37-6.66 5.4-6.36 20.27.45 23.07-11.31 38.7-.2 42.9 2.23.85 4.39 1.1 6.27 1.06 3.44-.07 5.93-1.1 6.12-1.17-.03.08-.07.16-.13.25-.37.63-1.05 1.22-2.36 1.63h-.04l-.04.02c-.48.14-1.03.25-1.68.33-.46.06-.97.1-1.53.13h-.5l-.36.01h-.18l-.92-.01h-.02c-.34 0-.68-.03-1.05-.05l-.2-.01-.9-.06-.34-.03-.88-.09c-.12 0-.23-.02-.34-.03l-1.3-.15c-10.41-1.34-11.8-3.72-11.83-5.5-.01-.34.03-.65.07-.92.26-1.78 6.34-34.74 7.96-45.87a8.14 8.14 0 0 1 .47-1.7l.04-.12c.23-.58.53-1.13.87-1.65v-.02l.03-.04.02-.04c.69-1.04 1.54-2 2.42-2.84l.02-.03c1.72-1.63 3.53-2.86 4.38-3.58l.35-.33c.86-.97 1.18-3.18 1.53-5.62l.11-.71v-.03l.08-.5.1-.66c.56-3.28 2.19-4.8 2.18-5.39v-.03c-.04-.12-.13-.14-.2-.23l-.02-.05v-.15c.04-.31.17-1.18.2-1.5.06-.3.07-.26.28-.38-.14.08.15-.06.26-.06.42.01 1.04.07 1.05.55 0 .25-.47 1.6-.08 1.8.4.2 5.21.7 7.1.92.29.04.26.34-.97.22h-.02zm1.68-16.1s-.43-1.96-1.2-2.14a.5.5 0 0 0-.16-.02c-.78.02-1.98 1.4-1.98 1.4l-.6 3.87c-.11.79.14 1.43.34 1.79l2.55.3-1 1.23-.64-.08c-.64 0-1.7.5-1.85 1.19-.11.5.17.96 1.07 1.34 1.77.76 2.26 1.25 2.2 1.78-.07.74-.98 1.04-.98 1.04l-1.96-.21s1.75-.5 1.54-1.1c-.16-.5-.79-.85-1.3-1.05-.93-.37-2.18-.65-2.29-1.64-.1-.99.46-1.36.98-1.68l-.26-1.23-.03-.06v-.06l.88-5.73-21.3-5.06c-.88-.2-1.4-1.56-1.42-3.24a8.16 8.16 0 0 1 1-4.24c.94-1.61 2.17-2.24 2.63-1.92.69.48 1.19 1.6.54 4.57-.65 2.98-.73 3.22-.49 4.06.24.83 5.83 1.47 7.12 1.62 7.51.86 13.57 2.59 13.57 2.59s20.4 5 22.25 5.61c2.35.8 3.59 1.4 3.59 1.4-1 .89-1.85.36-2.75.2l-20.05-4.53z"/></svg>