<?xml version="1.0" encoding="utf-8"?>
<!-- Generator: Adobe Illustrator 22.0.1, SVG Export Plug-In . SVG Version: 6.00 Build 0)  -->
<svg version="1.1" id="Layer_1" xmlns="http://www.w3.org/2000/svg" xmlns:xlink="http://www.w3.org/1999/xlink" x="0px" y="0px"
	 viewBox="0 0 74.8984 37.6609" enable-background="new 0 0 74.8984 37.6609" xml:space="preserve">
<polygon fill="#11B5E9" points="0.0729,29.0529 74.4017,19.789 12.5139,37.6609 "/>
<path fill="#0056A2" d="M4.791,32.3219l61.5868-10.872l7.864-1.643L0.073,29.0529L4.791,32.3219z M74.3359,19.7949l-11.828,2.299
	L7.334,34.0759l5.18,3.585l61.8918-17.874L74.3359,19.7949z"/>
<path fill="#0056A2" d="M1.131,10.371c0.199-0.904,0.905-1.248,1.771-1.248H4.15l-1.23,5.875c-0.252,1.248-0.071,1.518,1.122,1.518
	h3.741l1.393-6.145c0.197-0.904,0.903-1.248,1.771-1.248h1.247l-1.862,8.442c-0.09,0.416-0.47,0.777-1.283,0.777H3.101
	c-2.802,0-3.397-1.211-2.982-3.217L1.131,10.371z M13.622,18.3419c-0.922,0-1.373-0.487-1.175-1.355l2.314-10.576
	c0.199-0.903,0.903-1.247,1.772-1.247h1.318l-2.891,13.178H13.622z M21.72,9.123h3.705l-0.269,1.048
	c-0.109,0.417-0.471,0.778-1.283,0.778H21.34l-0.867,4.049c-0.27,1.248-0.072,1.518,1.121,1.518h2.223l-0.253,1.049
	c-0.09,0.416-0.469,0.777-1.284,0.777h-2.241c-2.386,0-2.73-1.373-2.44-2.712l1.952-9.219c0.2-0.903,0.904-1.247,1.771-1.247h1.249
	L21.72,9.123z M38.8739,18.3419c-0.921,0-1.354-0.487-1.175-1.355l0.941-4.52c0.253-1.246,0.072-1.518-1.12-1.518h-1.972
	l-1.68,7.393h-1.266c-0.922,0-1.372-0.487-1.174-1.355l1.356-6.038h-3.526l-1.681,7.393H26.33c-0.921,0-1.373-0.487-1.174-1.355
	L26.709,9.9c0.091-0.416,0.471-0.777,1.285-0.777h10.464c2.802,0,3.4,1.211,2.983,3.218l-1.283,6.001H38.8739z M28.842,5.164
	c0.796,0,1.428,0.633,1.428,1.429c0,0.796-0.632,1.41-1.428,1.41c-0.794,0-1.409-0.614-1.409-1.41
	C27.433,5.797,28.048,5.164,28.842,5.164z M44.0799,18.3419c-2.006,0-2.222-1.211-2.043-2.096l0.416-1.951
	c0.2-0.924,1.031-1.52,2.224-1.52h6.526l0.072-0.308c0.29-1.246,0.073-1.518-1.12-1.518h-6.364l0.254-1.049
	c0.09-0.416,0.47-0.777,1.284-0.777h5.837c2.802,0,3.454,1.211,2.983,3.218l-1.211,5.224c-0.09,0.416-0.47,0.777-1.284,0.777
	H44.0799z M50.3519,16.5159l0.435-1.915h-4.844c-0.525,0-0.797,0.217-0.885,0.579l-0.181,0.795
	c-0.073,0.379,0.126,0.541,0.506,0.541H50.3519z M59.1759,9.123h3.704l-0.271,1.048c-0.108,0.417-0.47,0.778-1.283,0.778h-2.53
	l-0.869,4.049c-0.27,1.248-0.072,1.518,1.119,1.518h2.225l-0.253,1.049c-0.09,0.416-0.469,0.777-1.283,0.777h-2.241
	c-2.387,0-2.729-1.373-2.44-2.712l1.951-9.219c0.199-0.903,0.904-1.247,1.772-1.247h1.246L59.1759,9.123z M65.7179,18.3419
	c-2.802,0-3.435-1.211-2.982-3.217l0.832-3.651c0.396-1.719,1.772-2.351,3.615-2.351h5.622c2.006,0,2.223,1.211,2.043,2.098
	l-0.416,1.95c-0.199,0.923-1.031,1.52-2.224,1.52h-6.526l-0.071,0.307c-0.271,1.248-0.073,1.518,1.12,1.518h6.725l-0.253,1.049
	c-0.091,0.416-0.471,0.777-1.286,0.777H65.7179z M66.0979,12.8659h4.755c0.559,0,0.886-0.218,1.012-0.725l0.144-0.649
	c0.072-0.345-0.127-0.543-0.507-0.543h-4.121c-0.561,0-0.885,0.217-1.011,0.724L66.0979,12.8659z M1.7019,2.495
	c0.11-0.193,0.426-0.732,1.404-0.73c0.419,0.001,0.958,0.101,1.351,0.545c0.207,0.251,0.499,0.677,0.497,1.615
	c-0.002,0.823-0.198,1.277-0.415,1.549c-0.34,0.495-0.91,0.737-1.498,0.736c-0.204-0.001-0.587-0.021-0.956-0.273
	c-0.235-0.161-0.332-0.309-0.411-0.436l-0.018,0.648l-0.776-0.001l0.017-0.764L0.9059,0l0.8,0.002L1.7019,2.495z M2.9169,2.308
	c-1.228-0.002-1.231,1.434-1.231,1.702c-0.001,0.285-0.003,1.618,1.183,1.619c0.99,0.002,1.243-0.962,1.244-1.658
	C4.1139,3.551,4.0269,2.31,2.9169,2.308z M5.4889,2.576c0-0.188-0.007-0.287-0.022-0.696l0.809,0.001l0.014,0.705
	c0.401-0.671,1.113-0.774,1.46-0.773c0.919,0.002,1.796,0.632,1.794,2.22c-0.003,1.595-0.934,2.288-1.955,2.286
	c-0.619-0.001-1.082-0.264-1.311-0.64l-0.004,2.119l-0.794-0.002L5.4889,2.576z M7.4559,5.731c0.208,0,0.627-0.041,0.898-0.416
	c0.309-0.416,0.353-1.027,0.354-1.337c0.001-0.76-0.222-1.568-1.17-1.57c-1.277-0.002-1.28,1.355-1.281,1.736
	C6.2569,4.665,6.3299,5.729,7.4559,5.731z"/>
</svg>
