<?xml version="1.0" encoding="utf-8"?>
<!-- Generator: Adobe Illustrator 22.0.1, SVG Export Plug-In . SVG Version: 6.00 Build 0)  -->
<svg version="1.1" id="Layer_1" xmlns="http://www.w3.org/2000/svg" xmlns:xlink="http://www.w3.org/1999/xlink" x="0px" y="0px"
	 viewBox="0 0 201.16 38.09" enable-background="new 0 0 201.16 38.09" xml:space="preserve">
<g>
	<path fill="#EA6820" d="M28.05,22.03l-17.89,0.17v8.72h4.97v6.13H0v-6.07c2.06,0,3.37-0.02,3.92-0.06V6.4
		c-0.29,0-0.82,0.02-1.57,0.06C1.59,6.5,0.81,6.51,0,6.51V0.33c0.66,0,4.92-0.05,12.78-0.14C20.64,0.1,25.05,0.06,26,0.06
		c9.97,0,14.96,3.59,14.96,10.77c0,2.87-1.19,5.46-3.56,7.76C35.03,20.88,31.91,22.03,28.05,22.03z M26.33,6.13
		c-0.85,0-3.63,0.03-8.34,0.08c-4.71,0.06-7.32,0.08-7.84,0.08v10.21h14.85c2.8,0,4.93-0.47,6.4-1.41c1.47-0.94,2.21-2.25,2.21-3.95
		C33.62,7.8,31.19,6.13,26.33,6.13z"/>
	<path fill="#EA6820" d="M73.21,31.21l-2.42-9.18H55.77v8.94h4.97v6.07H45.61v-6.07c2.06,0,3.37-0.02,3.92-0.06V6.4
		c-0.37,0-0.98,0.02-1.85,0.06c-0.87,0.04-1.56,0.06-2.07,0.06V0.06c6.59,0,11.94,0,16.07,0c4.12,0,6.96-0.01,8.5-0.03
		C71.72,0.01,72.66,0,72.99,0c4.38,0,7.8,0.99,10.27,2.95c2.47,1.97,3.7,4.59,3.7,7.87c0,2.65-0.85,4.95-2.55,6.88
		c-1.7,1.93-3.98,3.09-6.83,3.45l2,6.95c0.33,1.17,0.88,2.07,1.64,2.7c0.76,0.62,1.62,0.94,2.58,0.94s2-0.26,3.11-0.77v6.07
		c-2.1,0.7-3.96,1.05-5.58,1.05C77.12,38.1,74.42,35.8,73.21,31.21z M55.77,6.29v10.21h16.78c2.06,0,3.69-0.52,4.89-1.57
		c1.2-1.05,1.79-2.31,1.79-3.78c0-3.35-2.59-5.02-7.78-5.02c-0.85,0-2.92,0.02-6.21,0.06C61.94,6.22,58.79,6.26,55.77,6.29z"/>
	<path fill="#EA6820" d="M103.48,6.51v24.46h4.42v6.07H92.82v-6.07h4.42V6.51h-4.42V0.33h15.07v6.18H103.48z"/>
	<path fill="#EA6820" d="M158.64,0.33v6.18h-3.92v30.53h-6.35l-24.02-27.1v21.03h5.19v6.07H114.2v-6.07h3.92V6.51h-3.92V0.33h10.3
		l23.99,27.23V6.46h-5.19V0.33H158.64z"/>
	<path fill="#EA6820" d="M162.29,0.33h38.87v10.16h-6.24V6.51h-10.1v24.46h4.58v6.07h-15.35v-6.07h4.53V6.51h-10.05v3.98h-6.24V0.33
		z"/>
</g>
</svg>
