<?xml version="1.0" encoding="utf-8"?>
<!-- Generator: Adobe Illustrator 22.0.1, SVG Export Plug-In . SVG Version: 6.00 Build 0)  -->
<svg version="1.1" id="Layer_1" xmlns="http://www.w3.org/2000/svg" xmlns:xlink="http://www.w3.org/1999/xlink" x="0px" y="0px"
	 viewBox="0 0 251.06 38.31" enable-background="new 0 0 251.06 38.31" xml:space="preserve">
<g>
	<path fill="#00519A" d="M0,6.46V0.28h0.72c1.18,0,4.82-0.05,10.93-0.14C17.76,0.05,21.59,0,23.13,0c2.43,0,4.51,0.13,6.24,0.39
		c1.73,0.26,3.34,0.72,4.83,1.38c1.49,0.66,2.62,1.66,3.4,2.98s1.16,2.96,1.16,4.91c0,2.61-1.21,5.01-3.64,7.18
		c2.94,1.95,4.42,4.6,4.42,7.95c0,2.39-0.45,4.44-1.35,6.16c-0.9,1.71-2.15,3.01-3.75,3.89s-3.28,1.52-5.02,1.9
		c-1.75,0.39-3.65,0.58-5.71,0.58c-0.85,0-4.86-0.06-12.04-0.17C4.47,37.04,0.59,36.99,0,36.99v-6.07c0.81,0,1.57,0.01,2.29,0.03
		c0.72,0.02,1.26,0.03,1.63,0.03V6.35c-0.26,0-0.96,0.02-2.1,0.06C0.68,6.44,0.07,6.46,0,6.46z M10.16,6.24v8.45H26.5
		c1.62,0,2.92-0.46,3.89-1.38c0.97-0.92,1.46-1.97,1.46-3.15c0-1.14-0.48-2.11-1.44-2.9c-0.96-0.79-2.36-1.19-4.2-1.19
		c-0.88,0-3.06,0.02-6.54,0.06C16.2,6.17,13.03,6.2,10.16,6.24z M10.16,20.87v10.21c0.55,0,2.91,0.02,7.07,0.06
		c4.16,0.04,6.79,0.06,7.9,0.06c2.1,0,3.87-0.51,5.33-1.52c1.45-1.01,2.18-2.46,2.18-4.33c0-1.55-0.68-2.68-2.04-3.4
		c-1.36-0.72-3.11-1.08-5.25-1.08H10.16z"/>
	<path fill="#00519A" d="M79.54,34.23c-3.18,2.72-7.54,4.09-13.06,4.09c-5.52,0-9.87-1.36-13.06-4.09
		c-3.18-2.72-4.78-6.33-4.78-10.82V6.46h-4.42V0.28h15.35v6.18h-4.69v15.51c0,6.7,3.86,10.05,11.59,10.05c3.86,0,6.76-0.86,8.7-2.57
		c1.93-1.71,2.9-4.2,2.9-7.48V6.46h-4.69V0.28h15.35v6.18h-4.42v16.95C84.32,27.9,82.73,31.51,79.54,34.23z"/>
	<path fill="#00519A" d="M137.78,0.28v6.18h-3.92v30.53h-6.35l-24.02-27.1v21.03h5.19v6.07H93.34v-6.07h3.92V6.46h-3.92V0.28h10.3
		l23.99,27.23V6.4h-5.19V0.28H137.78z"/>
	<path fill="#00519A" d="M155.41,36.99v-6.07h4.42V24.4L145.25,6.46h-4.64V0.28h18.18v5.74l-5.52,0.43l9.84,12.38l9.79-12.36
		l-5.52-0.44V0.28h18.17v6.18h-4.69L166.34,24.4v6.51h4.42v6.07H155.41z"/>
	<path fill="#00519A" d="M199.59,6.46v24.46h4.42v6.07h-15.07v-6.07h4.42V6.46h-4.42V0.28h15.07v6.18H199.59z"/>
	<path fill="#00519A" d="M238.15,21.97l-17.89,0.17v8.72h4.97v6.13H210.1v-6.07c2.06,0,3.37-0.02,3.92-0.06V6.35
		c-0.29,0-0.82,0.02-1.57,0.06c-0.75,0.04-1.54,0.06-2.35,0.06V0.28c0.66,0,4.92-0.05,12.78-0.14C230.74,0.05,235.15,0,236.1,0
		c9.97,0,14.96,3.59,14.96,10.77c0,2.87-1.19,5.46-3.56,7.76C245.13,20.82,242.01,21.97,238.15,21.97z M236.43,6.07
		c-0.85,0-3.63,0.03-8.34,0.08c-4.71,0.06-7.32,0.08-7.84,0.08v10.21h14.85c2.8,0,4.93-0.47,6.4-1.41c1.47-0.94,2.21-2.25,2.21-3.95
		C243.72,7.75,241.29,6.07,236.43,6.07z"/>
</g>
</svg>
