<?xml version="1.0" encoding="utf-8"?>
<!-- Generator: Adobe Illustrator 22.0.1, SVG Export Plug-In . SVG Version: 6.00 Build 0)  -->
<svg version="1.1" id="Layer_1" xmlns="http://www.w3.org/2000/svg" xmlns:xlink="http://www.w3.org/1999/xlink" x="0px" y="0px"
	 viewBox="0 0 95.436 70.984" enable-background="new 0 0 95.436 70.984" xml:space="preserve">
<rect fill="#FFCB05" width="95.436" height="70.984"/>
<path d="M27.5471,53.3241h-2.301c-4.192,0.001-7.468-3.123-7.468-7.251v-21.355c0-4.164,2.573-7.607,9.38-7.607
	c6.629,0.008,9.35,3.435,9.351,7.599v7.535h-7.421v-7.264c0-1.032-0.837-1.868-1.868-1.868c-1.032,0-1.799,0.836-1.799,1.868v20.455
	c0,1.032,0.767,1.869,1.799,1.869c1.031,0,1.868-0.837,1.868-1.869v-7.219h7.429v5.32c0,1.265-0.233,2.677-1.601,3.817
	L27.5471,53.3241z M70.2837,53.2826h2.198v-28.559h5.153v-6.915h-18.556v6.915h5.126v23.469L70.2837,53.2826z M61.1731,45.6547
	l-11.71-9.811l-11.23,9.063l6.031-27.058h10.353L61.1731,45.6547z M51.453,34.1087l-1.99-10.226l-2.002,10.226H51.453z
	 M67.5294,53.3326l-18.07-15.139l-18.726,15.139H67.5294z M78.9524,19.4822c0,0.798,0.591,1.385,1.35,1.385
	c0.749,0,1.341-0.587,1.341-1.385c0-0.784-0.592-1.376-1.341-1.376C79.5434,18.1062,78.9524,18.6982,78.9524,19.4822
	 M80.3023,21.1432c-0.912,0-1.683-0.701-1.683-1.661c0-0.951,0.771-1.652,1.683-1.652c0.903,0,1.674,0.701,1.674,1.652
	C81.9763,20.4422,81.2054,21.1432,80.3023,21.1432 M79.9514,20.4422h-0.289v-1.911h0.727c0.452,0,0.676,0.167,0.676,0.543
	c0,0.342-0.216,0.491-0.496,0.526l0.543,0.842h-0.324l-0.504-0.829h-0.3329V20.4422z M80.2973,19.3682
	c0.246,0,0.465-0.0179,0.465-0.311c0-0.237-0.215-0.281-0.416-0.281h-0.395v0.592H80.2973z"/>
</svg>
