<svg xmlns="http://www.w3.org/2000/svg" viewBox="0 0 209.84 46.93"><path d="M77.52 22.37c1.01.4 2 .9 2.81 1.63.32.29.8.69.9 1.12.05.3-.2.3-.12.52a.3.3 0 0 0 .19-.28c1 1.17 1.04 2.86 1.06 4.32.02 1.87.08 3.75.1 5.62l-.03 6.22c0 1.52.12 3.1.04 4.62-.04.64-.12.64-.74.63h-5.85c-.65 0-1.34.13-1.98.08-.65-.05-.56-.33-.54-.92.02-.71.01-1.42.01-2.14 0-2.05.03-4.11.03-6.17 0-2.36.02-4.73-.06-7.1-.03-.95-.24-1.97-.05-2.9.02-.13.16-.28.14-.43-.03-.28-.24 0-.12 0-.18.27-.44-.71-.51-.8-.2-.21-.97-.32-.75-.75-.37.45-.82-.1-1.21.13-.57.34-.2 1.73-.2 2.26-.41-.1-1.17-.68-1.34.01-.17.69.92 1.02 1.35.6.2.32-.17.45-.2.73-.04.35.17.55.2.9.04.3-.07.7-.06 1.03.02.4.18.93.03 1.33-.32.89-1.75 1.06-1.75 2.26.83-.11.99-1.06 1.64-1.44.28 4.43 0 8.87.14 13.31-2.83 0-5.66-.07-8.48 0-.81.02-1.25.29-1.22-.66.05-1.26.02-2.53.02-3.8l-.01-4.03c0-.7-.03-1.4.01-2.1.04-.46.22-.4.36-.76.2-.5-.25-.4-.33-.75-.12-.52.23-.24.4-.54.2-.34-.15-.61-.27-.9-.24-.56.1-.59.12-1.06 0 .09-.28-.2-.3-.26-.06-.3-.02-.72-.02-1.04 0-.88.05-1.77.07-2.64.01-.78.04-1.56.02-2.33-.01-.28-.23-1.29.1-1.44.12-.05.9.36.48-.35-.22-.36-.89-.02-.62-.69.06-.16.5-.31.5-.43.02-.29-.15-.17-.28-.36-.17-.27-.15-.12-.23-.46-.04-.2 0-.56 0-.78 0-.4.1-.6.2-.96.12-.11.17-.25.16-.41-.1-.05-.18-.1-.28-.13a6.55 6.55 0 0 1-.07-2.05c-.01.13.21-.7.22-.62-.02-.24-.15-.34-.22-.63-.15-.75.1-1.82.1-2.59-.03-1.8-.18-3.6-.22-5.41 0-.32.17-4.44.16-4.44.12 0 .39.7.46.79.3.4.57.55 1.08.61.5.06 1.2.03 1.5.6.23.43-.16.28-.1.46.1.39.68.27 1 .35.38.1.25.04.53.3.4.35.57.77 1.17.79.3 0 .76-.3.67.27.34-.34.24-.84.84-.84-.05.46-.31 1.25.3 1.33.32.04.81-.44 1.07-.6.47-.29.94-.57 1.48-.73-1-.87.18-1.66.06-2.6-.08-.66-.98-.29-1.46-.35.09-.36.28-.7.39-1.06-.16-.12-.17-.24-.03-.36.14-.13.26-.28.35-.44.16-.33.22-.66-.19-.65-.19 0-1.31 1-1.35 1.07-.16.33-.08.87-.47 1.02-.44.17-1.15-.44-1.55-.57-1.01-.3-1.76.2-2.62.67-.2-.53-.5-1.25-1.13-1.33-.68-.08-1.06.72-1.67.73-.62 0-.4-.71-.38-1.14.02-.55-.26-1.68.12-2.14.4-.49 1.51-.29 2.05-.24 1.09.1 2.15.09 3.25.06 2.2-.07 4.4-.15 6.6 0 1.66.13 3.37.38 4.94.98.58.22 1.17.49 1.63.9.2.18.41.4.52.65.17.35.06.7.31.95.2.2.46.2.66.48.18.27.28.62.38.92.23.75.4 1.54.54 2.31.41 2.06.47 4.15.48 6.24.01 2.03.07 4.42-.87 6.27-.8 1.57-2.44 2.2-4.06 2.53zM61.07 7.8c.48-.03.04-.48 0 0zm0 5.75c.48-.02.04-.39 0 0zm.1 1.82c0 1.01 1.65.63 1.63-.09-.03-.8-1.64-.86-1.64.1zm0 6.83c.11.03.22.1.32.18.1-.12.14-.26.1-.42-.16 0-.4.05-.43.24zm.13 4.9c.37.38.23-.07.38-.1-.14.03-.38-.24-.38.1zm.38-4.53c-.4.04-.03.48 0 0zm-.1 11.73c.27 0 .74.77.8 0 .06-.6-.63-.43-.8 0zm.61 2.15c-.05-.03.65-.7-.09-.83-.77-.14-.4 1.07.09.83zm-.51-11.22c.88.3-.32-.94 0 0zm.51-6.54c-1.1.22-.3 2.33.62 2.17 1.03-.18.37-2.35-.62-2.17zm-.51 4.3c.82.41.28-1.15 0 0zm.14 15.14c.04-.1.1-.2.18-.28-.15 0-.16-.1-.32-.1 0 .15.04.27.14.38zm.09-14.02a.86.86 0 0 0 .09-.23c-.1-.14-.3.16-.1.23zm0-10.37c.4.25 1.19-.12.8-.57-.42-.5-.9.16-.8.57zm.28 12.24c.22.22.34-.07.21-.12l-.21.12zm.23 5.65c.05-.13.38-.8-.1-.6-.24.1-.21.54.1.6zm0-8.73c.41 0 .72.11.7-.4-.02-.84-1.38-.28-.7.4zM62.33 24c.23.07 1.07.36.75-.33-.33-.72-.63.21-.75.33zm.1-7.71c-.13.32.5.48.37-.1a.83.83 0 0 0-.38.1zm0-1.64c.27.11.27-.07.37-.28-.3-.12-.2.11-.38.28zm.5 6.68c0-.78-.98.2 0 0zm-.23-8.83c.28.12.77-.23.43-.51-.4-.34-.74.2-.43.51zm0 20.42c-.31.42.23 1.03.59.5.11-.18-.22-.62-.59-.5zm0-2.24c.2.03.41-.08.33-.33-.27-.07-.41.04-.33.33zm0 4.53c.14.12.23.11.28-.02-.06-.15-.15-.14-.28.02zm.1-17.38c.2 0 .48-.21.14-.28l-.14.28zm0 9.07c.17.35.7.32.71-.13.02-.4-.66-.34-.71.13zm.32 2.85c.13.03.3 0 .42 0 0-.53-.58-.49-.42 0zm0-4.54c.26 0 .2.3.48.18.37-.18.14-.58-.15-.7-.05.24-.38.25-.33.52zm.42 10.52c-.25-.13-.34-.12-.28.02.07.14.16.13.28-.02zm.61-13.7c-.74-.18-1.17.6-.58 1.1.8.67 1.05-.61 1.52-.35 0-.65-.09-.15-.3-.21-.06-.02-.21.16-.31.12.07.03-.33-.67-.33-.65zm-.84-6.26c.14.06.28.09.42.1.06-.3-.36-.4-.42-.1zm.33-13.55c.1-.12.13-.26.1-.42-.3-.06-.42.42-.1.42zm-.19 6.36c-.07.34.3.41.38.23.2-.43-.37-.23-.38-.23zm0 .93c.44.18-.02-.76 0 0zm.8 5.75c.65-.3.25-1.09-.38-.93-.86.2-.03.77.38.93zm-.7 17.05c.03.17-.06.29.18.24.03-.16-.04-.24-.19-.23zm.09-1.02c.86.23-.22-.79 0 0zm.33 3.69c-.17.08-.15-.26-.27-.22-.2.06.17.39.18.38l.09-.16zm-.14-2.57c.42.04.74-.56.3-.77-.58-.28-.41.5-.3.77zm-.1-7.8c.48-.03.04-.4 0 0zm.1-.9c.48-.03.03-.48 0 0zm0 14.82c.36.12.21-.08.42-.28-.23-.05-.42.02-.42.28zm.14-11.12c.28.28.98.02.63-.43-.36-.45-.7.04-.63.43zm.09 2.15c.39-.04.02-.48 0 0zm.1-1.78c-.11.61.58 1.2.92.62.37-.64-.46-.88-.93-.62zm.09 7.71c.15.08.12-.26.04-.3-.02-.01-.08.38-.1.4l.06-.1zm0-14.58c.33 0 .65.33.73-.21.09-.6-.88-.45-.73.21zm.09-8.92c.35 0 .43-.33 0-.33 0 .1-.02.23 0 .33zm0 7.2c.2.03.4-.08.33-.33-.27-.07-.42.03-.33.33zm0 4.62c.48-.04.04-.48 0 0zm.33 6.54c-.06-.15-.09-.46-.1-.52.03.12-.52.32.1.52zm-.1 5.75c.34-.08.08-.34 0 0zm.8-2.34c-.31.1-.14-.45-.52-.32-.04.23.34.58.52.32zm-.52-31.3c.22.14 1.24.18.85-.26-.24-.27-.85-.16-.85.26zm0 26.86v.33c.28-.09.48.15.75.1-.06-.32-.43-.62-.75-.43zm.24-2.75a.85.85 0 0 0-.1-.42c-.16.16-.1.37.1.42zm-.1-4.53c.77.2-.21-.76 0 0zm.1-2.15c1.1.24-.35-1.03 0 0zm.18 3.5c.26-.07 1.31-.34.73-.76-.47-.34-.77.41-.73.76zm.42 3c.47-.29.09-1-.42-.85.05.33-.1.97.42.84zm-.32-4.63c.48-.04.03-.49 0 0zm.23 8.92c.02-.08-.02-.11-.1-.1-.1.42.51.21.61 0-.32-.15-.26.1-.51.1zm-.1 1.64c.34-.09.09-.34 0 0zm0 4.1c.24.24.28-.07.17-.11l-.16.12zm.1-18.08c-.1.35.35.38.53.62.2.26.2.81.73.51.34-.18.25-.64.04-.88-.27-.31-.93-.34-1.3-.25zm.19-2.47c-.05.83-.04.02.2.44.03.06.19.38.24.43.19.18.82.44 1 .06-.58 0-.26-.9-.7-1.12 0 .67-.4.07-.74.19zm0-7.38c.48-.03.04-.4 0 0zm0 16.12c.48-.03.04-.4 0 0zm.32 2.8c.18-.35.08-.52-.32-.42 0 .2.08.42.32.42zm-.23-11.82c.24-.06.48-.03.42-.33-.3-.08-.52-.02-.42.33zm.33 10.56c.16-.16.1-.37-.1-.42-.13.13-.13.42.1.42zm0-5.84c.2 0 .51.2.4-.21-.12-.4-.49-.14-.4.2zm.93 9.01c-.05-.42.43-.55.38-.96-.1-.8-.81-.33-1.22-.25 0-.03.05-.33.09-.31-.35-.15-.16.42-.11.54.15.42.53.72.86.98zm-.93-7.99c.34-.08.08-.33 0 0zm.42 14.4c-.13-.06-.13-.14 0-.24-.75-.23 0 .52 0 .24zM66.3 23.3c.32.21.41.47.6.11.12-.25.08-.6-.27-.53.11.4-.26.13-.33.42zm.1 13.55c.26-.09 1.1-.5.96-.89-.08-.26-1.28.32-.97.89zm0-15.33c.08.51.63.1.74.52.07-.12.1-.24.1-.38-.05.02-.78-.12-.85-.14zm.42-12.7c.07-.25.61-.17.2-.47-.46-.34-.58.46-.2.46zm.09 9.01c.03-.28-.06-.42-.28-.42-.06.34.03.48.28.42zm-.28 17.48c.14.14.26-.03.42.09.02-.11.02-.22 0-.33a.57.57 0 0 0-.42.24zm.1-10.8c.17.05.38.03.41-.18-.2-.2-.42-.02-.42.18zm0 8.13c.38-.04.02-.48 0 0zm0 2.24c.2.22.28-.06.18-.11l-.19.11zm.6-9.53c.02-.07-.19-.72-.28-.77-.2-.1-.26.1-.24.25.03.33.35.3.52.52zm-.51-15.09c.22 0 .37-.19.6-.14-.05-.2-.15-.36-.28-.51-.05.25-.27.4-.32.65zm.42 11.07c-.23.16-.29-.34-.42 0 .08.05.42.27.42 0zm-.2.85c-.22.22-.13.76.29.6.34-.13.1-.53.1-.8 0 .1-.36.2-.38.2zm-.13 5.09c.24.06.43.06.42-.19-.01-.39-.5-.17-.42.19zm.14-7.15c.2.07.3.19.51.19-.11-.28.19-.18.19-.42-.3.06-.17-.33-.37-.36-.32-.04-.42.33-.33.59zm0-9.77c-.04.16-.02.4.19.43 0-.13.23-.25.2-.38 0 .02-.38-.05-.4-.05zm.1 19.4h.41c-.1-.23-.53-.4-.42 0zm.09-5.94c.3 0 .85-.4.6-.7-.35-.41-.84.32-.6.7zm.6-2.48c0-.33-.13-.64-.51-.6-.06.39.22.46.51.6zm-.51-4.43c.48-.03.04-.4 0 0zm0 7.43c.17.05.85-.2.51-.43-.24.25-.51-.08-.51.43zm1.54.28c-.17.25-.59.28-.7.55-.15.33.16.66 0 .99-.2-.14-.1-.52-.42-.52.14.29-.16.5-.24.75-.14.45-.1.32.05.77.14.44 0 .98.7.87-.12.5.68.75.64.15 0-.16-.27-.47-.38-.55-.37-.28-.24 0-.68-.12.1-.26-.12-.17-.1-.36.02-.1.28-.6.32-.66.38-.58.78.05 1.23-.33-.45.06-.38-.8-.1-.94-.1.03-.17 0-.23-.1.31-.03.7.63.93.23.32-.6-.57-.31-.7-.31 0-.2-.09-.42-.32-.42zm-1.54 6.58c-.07.29.2.64.47.37.32-.31-.15-.58-.47-.37zm.33-5.74c-.23-.23-.34.07-.21.11l.2-.11zm-.24 5.14c.49-.04.04-.49 0 0zm.33-11.64c0-.27.12-.44.19-.7-.51-.12-.72.7-.19.7zm-.1.75c.4-.04.03-.48 0 0zm.29-10.6c.2-.14-.08-.3-.19-.38-.21.21-.02.41.19.37zm.14 15.5a.52.52 0 0 0-.33-.09c-.13.26.33.35.33.1zm-.33 4.72c.34-.08.08-.33 0 0zm.1-8.69c-.1.4.56.4.67.1.14-.34-.5-.28-.68-.1zm0-7.7c.48-.04.03-.49 0 0zm.23 6.02c-.11 0-.2.04-.24.14.38-.1.27.25.54.34.36.12.53-.22.72-.48-.27.11-.22-.2-.42-.24-.3-.05-.45.15-.74.15.09 0 .14.03.14.1zm-.24 3.23c.1.28.08.5 0 .79.13 0 .55-.45.61-.58-.02.04.2-.39.12-.43-.2-.1-.5.45-.73.22zm.61 1.82c-.1.1-.19.1-.28 0 .11.22.24.46.51.51 0-.39.37-.41.56-.65.16-.21.19-.45.33-.62.07-.1.36-.03.46-.27a.46.46 0 0 0-.26-.63c-.31-.11-.92.27-1.16.45-.25.19-.44.33-.52.66-.15.56.01.2.36.55zm-.37-5.94c.38-.04.02-.48 0 0zm.37 12.71c-.12 0-.22.08-.28.24.12 0 .22-.08.28-.24zm-.19-27.52c.75.23-.05-.58 0 0zm.94 25.8c-.28.27-.75-.16-.94.27.25.1.27.5.6.44.37-.07.13-.33.34-.53.34.44.02.71.29 1.16.24.4.78.42 1.02-.04.44-.86-.98-.86-1.31-1.3zm-.84 2.05c.37.25 1.04-.27.63-.44-.3-.12-.52.22-.63.44zm.23-16.96c.18.03.27-.03.28-.19-.13-.03-.28.03-.28.19zm.19 13.04c.1-.13.13-.27.1-.43-.33 0-.37.29-.1.43zm0-10.14c.22.44 1.03.63 1.03.02 0-.7-.7-.24-1.03-.02zm.51 4.39c0-.18.24-.6-.2-.59-.39.01-.11.59.2.59zm-.19 6.17c.5.2.4-.77 0-.85.06.32-.3.6 0 .85zm-.14-5.42c.49-.04.04-.49 0 0zm.52 2.52c.12-.37-.3-.27-.52-.37 0 .3.28.3.52.37zm-.28 1.96c0-.04.22-.36-.1-.28-.04.13 0 .22.1.28zm.28-14.48l-.28-.1c-.2.34.34.33.28.1zm0 6.77l-.28-.1c-.2.34.34.33.28.1zm.14-1.03c.05-.28-.42-.4-.42-.09.68.04 0 0 .42.1zm-.33 2.2c.2-.02.45-.27.1-.33-.07.1-.1.21-.1.33zm.19 1.4c.13-.1.13-.2 0-.28 0 .13-.19.22 0 .28zm-.1 10.51c.29-.12.38-.23.29-.32-.1-.1-.2.01-.28.32zm.33-5.65c.1-.26.15-.65-.23-.65.08.27-.04.49.23.65zm-.1.52c.39-.05.24-.45 0-.33v.33zm.52-12.76c.04-.17-.34-.74-.42-.51.22.14.09.5.42.5zm-.42 5.56c.4-.04.03-.48 0 0zM70 36c.02-.61-.55.15 0 0zm-.1-11.9c-.04.29.33.42.52.23.25-.25-.35-.4-.51-.24zm0-6.88c.3.1.38.34.24.61.25.06.2-.2.38-.28-.28-.11-.15-.3-.1-.51-.17-.05-.51-.1-.51.18zm.34 1.03c-.23-.22-.34.08-.21.12l.2-.12zm-.24-16.54c.28.1.6-.18.4-.48-.24-.32-.44.26-.4.48zm.33 20.23c.2-.25.2-.61-.1-.8 0 .31-.34.68.1.8zm-.19-5.42c.4-.04.03-.48 0 0zm.24 6.15c-.68 1.29 1.37.96.8-.21.18.04.3-.12.31-.28.04-.4-.33-.03-.3-.03.15-.01-.29.17-.2.12a.3.3 0 0 0-.22-.06 1 1 0 0 0-.4.46zm.28-2.78c0-.3-.2-.21-.42-.28-.07.26.25.23.42.28zm-.33 1.02a.3.3 0 0 0 .33-.18c-.31-.2-.42-.14-.33.18zm3.08-9.95c-.06-.9-.28-2-1.12-2.5-.3-.18-1.04-.43-1.4-.26-.26.13-.15.14-.24.44-.32 1.12.02 2.44 0 3.59-.02.59-.11 1.17-.13 1.76 0 .54.11 1.06.09 1.6-.03.62-.48 2.1.08 2.63.46.43 1.84-.13 2.2-.58.6-.74.52-2 .56-2.9.04-1.26.04-2.51-.04-3.78zm-2.9 9.44c.2 0 .35.47.43.1.07-.37-.37-.43-.42-.1zm.66 4.44c-.48-.12-.45.72-.04.63.23-.05.09-.45.37-.52.64-.17.55.98 1.1.07.34-.55.39-1.19-.27-1.55-.8-.45-1.79.64-1.16 1.37zm.19-3.18c.47-.62-.91-.45 0 0zm.18 1.54c.81.23-.13-.67 0 0zm.24-4.01c.2-.03.46-.23.1-.33-.08.1-.1.2-.1.33zm.1-11.5c.38-.04.02-.48 0 0zm.41 14.07a.5.5 0 0 0-.33-.1c-.14.28.39.27.33.1zm0-1.03c.34-.04.36-.2 0-.33v.33zm.28 2.15c-.01.09 0 .18.05.25.08.05.26-.25-.05-.25zm.52-1.87c.2-.75-.75.19 0 0zm-.2 1.35l-.06.24c.26.08.38-.26.07-.24zm0-15.42c-.05.3.46.46.54.24.1-.3-.36-.41-.53-.24zm.62 19.3c.02-.1 0-.26 0-.37-.45-.11-.45.48 0 .37zm.6-4.3c-.32-.49-.95-.14-.63.3.29.39.63.08.63-.3zm-.5-13.64c.47-.04.03-.48 0 0zm.08 10.8c.01-.03.3-.46-.09-.34 0 .13.03.23.1.33zm.24 1.63c0 .07-.3.11-.33.18.17-.08.15.27.27.23-.01 0 .05-.42.06-.41zm.18 8.4l.1-.14c-.01-.1-.43-.11-.38.05a.9.9 0 0 0 .28.1zm-.18-23.82c-.03.34.25.77.56.51.39-.33-.18-.9-.56-.51zm0 22.9l.02.12c.08.1.26-.28.26-.34 0 .05-.28.1-.28.21zm.1-9.45c0 .23.23-.6.11-.33.04-.09-.4.43-.12.33zm.5 8.14c-.87-.15-.47.73.2.5-.26-.07.05-.42-.2-.5zm0-12.34c-.26-1.04-.85.3 0 0zm0 4.9c.07-.24-.07-.34-.42-.27-.06.25.08.34.42.28zm.1 4.96c.07-.25 0-.4-.28-.33-.03.2.07.33.28.33zm-.28-4.2c.45-.09.19-.17 0-.33v.32zm.28 7.89c0-.2.46-.08.33-.33-.1-.17-.75.16-.33.33zm0-5.84c.11.15.33.24.51.28.07-.43-.42-.75-.51-.28zm0 4.4c-.04.13-.04.43.16.34.2-.07.12-.63-.16-.35zm.1-5.34c1.22.37 0-1.32 0 0zm.41 6.45c.36.37.64-.12.76-.33.1-.2-.49-.08.08-.37-.3 0-.33-.36-.6-.42.14.43-.05.75-.24 1.12zm.1-4.58c.48-.03.03-.48 0 0zm.42-1.96c.1-.1.17-.67-.1-.51-.16.1-.14.51.1.51zm.09.7c.12.03.3 0 .42 0 .06-.56-.57-.44-.42 0zm.14.84c-.03.18.07.55.3.45.18-.07.07-.37.07-.54a.82.82 0 0 0-.37.1zm.19-1.87c1.2 1.2.8-1.06 0 0zm.09 21.31c-.04.29.3.48.42.23.21-.46-.4-.22-.42-.23zm.23-18.13c.11.44.81.41.83-.05.03-.58-.76-.48-.83.05zm.38 4.86c0 .34-.33.54-.28.89.68.05 1.02-.44 1.21-1.03-.31-.08-.64.32-.93.14zm-.28-6.17c.2.28.95.23.77-.23-.14-.36-.77-.13-.77.23zm.42 5.94c.06-.26-.06-.36-.33-.28 0 .2.13.3.33.28zm.18-6.87c-.34.34.13.73.34.4.16-.26-.12-.4-.34-.4zm.2-20.05c.86.23-.22-.78 0 0zm.41 25.89c-.03-.25.7-.83.1-.81-.47.01-.52.65-.1.8zm.33.75c.7.19-.13-.65 0 0zm.1-1.54c.23 0 .32-.22.32-.43-.2 0-.56.2-.33.43zm.32 1.02c.25 0 .22-.24.28-.42-.33-.13-.14.28-.28.42zm.19-2.05c.57.57.68-1.03 0 0zm0 .7c.3 0 .48-.18 0-.33v.33zm.51-2.67c-.2.5-.47 1.34.33 1.16.94-.2.55-1.37-.33-1.16zm.1-2.24c-.34.08-.09.34 0 0zm.74 6.36c.3.04.78-.19.56-.55-.17-.29-.7-.12-.98-.2.1.27.37.45.42.75zm.1-12.25c0-.63-.54.14 0 0zm-.24 13.7c.48-.04.04-.49 0 0zM80 17.13c.04.4.45.51.8.51-.06-.31-.45-.79-.8-.51zm.1 16.54c.27.46 1.47.9 1.12-.07-.2-.53-1.04-.53-1.13.07zm.28 6.91c.1.02.21.02.32 0 0-.19-.14-.3-.32-.28v.28zm.23-13.4c.1.01.19 0 .28-.03.05-.04-.15-.26-.19-.26l-.1.29zm.6 16.49a.37.37 0 0 0 .03-.7c-.45-.19-.44.62-.02.7zm.29-16.26c-.4-.12-.15.1-.28.2-.08.06.44.12.28-.2zm-.19.8c.32.22.97.01.7-.44-.25-.43-.81 0-.7.43zm.51 2.28c.12-.76-.6.16 0 0zm-.18-3.6c.38-.04.02-.48 0 0z"/></svg>