<svg xmlns="http://www.w3.org/2000/svg" viewBox="0 0 209.84 46.93"><path d="M41.35 43.21c.53-.18.96.43 1.5.1v.37c.25-.38.23-.8.79-.8-.04.41-.3 1.2.23 1.3.28.06.8-.41 1.01-.55.48-.3.97-.58 1.52-.75-1-.74.1-1.6 0-2.46-.08-.66-.92-.26-1.4-.39.07-.24.26-.43.34-.67.08-.25-.02-.4.09-.64.1-.24.73-.91.2-1.09-.35-.1-.6.45-.77.61-.35.33-.55.33-.72.77-.11.3-.05.67-.41.75-.31.07-.81-.37-1.08-.5-1.16-.55-1.86-.08-2.89.5-.14-.47-.5-.87-.58-1.35-.04-.26.16-.51.14-.66-.03-.42-.1.01-.27-.22-.15-.22-.12-.66-.14-.9-.12-1.99-.07-3.97-.12-5.95-.02-.6-.39-1.76-.1-2.3.19-.34.6-.3.65-.72.05-.46-.55-.6-.63-.92a2.8 2.8 0 0 1 .42-2.32c.45-.62.8-1.61-.44-1.44.08-.34 0-.75.02-1.1.03-.4.1-.38.04-.85-.13-.77.61-.96 1.01-1.6-.46-.46-.6.22-.67.27-.03.02.03.3-.21.03-.25-.27-.27-.8-.29-1.14-.03-.72.1-1.43.18-2.14.1-.97.08-1.94.07-2.92 0-3.36.22-6.8 2.3-9.58 3.64-4.87 11.9-5.26 15.95-.7 2.45 2.77 2.89 6.46 2.94 10 .07 4.02.17 8.02.14 12.03-.02 3.95 0 7.96-.4 11.89-.06.67-.13 3.04-.8 3.47-.22.14-.44-.12-.63.12-.25.3.1.21.14.44.1.52-.12.82-.47 1.29a10.49 10.49 0 0 1-9.28 4.24c-1.75-.1-3.34-.61-4.9-1.39-.3-.15-1.39-.56-1.46-.96-.04-.22.23-.3.23-.41-.03-.35-.57-.42-.45-.01-.36-.14-.42-.62-.8-.75zM39.76 14.2c.1-.14.14-.3.1-.47-.6-.17-.66.47-.1.47zm.1 20.79c-.17-.32-.34.32-.26.26.02-.03.53-.12.26-.26zm-.28-12.52c.34-.02.29-.38 0-.28 0 .08-.02.19 0 .28zm0 2.66c.12.12.2.11.23-.02-.04-.15-.11-.14-.23.02zm.09 4.72c.34-.08.08-.34 0 0zm.1-14.16c.31.27.97-.11.7-.51-.25-.35-.66.29-.7.51zm2.1 14.35c.59-1.35-1.36-1.17-2.01-1.17.36.66.66 1.5 1.5 1.68 0-.38.34-.27.5-.51zM40 21.39c.18 0 .4-.22.09-.28a.5.5 0 0 0-.1.28zm0-1.87c.82.42 0-.58 0 0zm.18 2.95c-.08.06-.1.14-.07.23.13.09.38-.16.07-.23zm0 1.96c.26.07.63-.19.38-.47-.29-.31-.42.28-.38.47zm0 1.07c.34-.08.08-.33 0 0zm0 3c.4-.05.03-.49 0 0zm.7-10.38c-.02-.14-.24-.33-.32-.4.08.04.05.4.32.4zm-.42 12.62c.55.1.1-.48 0 0zm0 7.33c.24.16 1.26.09.77-.28-.24-.19-.77-.09-.77.28zm.1-12.75c-.12.12-.11.2.02.23.15-.03.14-.11-.02-.23zm0-1.69c.1.02.21.02.32 0 .02-.18-.06-.3-.23-.37a.66.66 0 0 0-.1.37zm0-8.83c.09 0 .37 0 .32-.18-.2-.05-.25.02-.32.18zm.18 3.46l-.07.21c.12.04.21 0 .28-.1-.04-.08-.1-.12-.2-.1zm1.12 4.9c.2-.53-.67-1.26-1.1-.8-.17.18-.07.62.06.79.32.4.65.1 1.04.02zm-.98-2.28c-.12.31.25.14.38.32.07-.22-.18-.61-.38-.32zm0-12.38c-.04.27.29.42.38.14.1-.35-.3-.14-.38-.14zm.47 3.92c-.87 0 .04.13 0 0zm-.37 12.9a.31.31 0 0 0 0 .25c.08.05.28-.25 0-.25zm.1-8.04c.79.2-.26-.86 0 0zm.08-5.23c.23 0 .63-.5.38-.7-.42-.36-.38.59-.38.7zm0 9.62c.34-.08.09-.34 0 0zm.99-2.94c-.1-.15-.16-.3-.2-.47.48.06.83-.6.29-.8-.48-.15-.74.5-.38.8-.57-.57-.37.85-.42 1.08.24-.07.44-.72.7-.61zm-.61 6.5c.45.08.23-.58.1-.47-.08.05-.07.39-.1.46zm.18-21.08c.1.07.21.1.33.1a.3.3 0 0 0-.19-.29l-.14.19zm.14 29.86c.92.26-.14-.7 0 0zm.2-13c.58-.29 0-.3 0 0zm0 6.08c.8.16 0-.94 0 0zm0 1.78c.17.03.26-.03.27-.19-.13-.03-.28.03-.28.19zm.09-8.97c.46.58.94-.11 1.49 0 .12-.58-.78-.44-1.03-.2.08-.29-.66-.37-.46.2zm.09-4.82c.05.4.36.14.6.28a.83.83 0 0 0-.23-.46c0 .2-.22.22-.37.18zm.19 6.5c.26-.26.13-.51.42-.8-.31-.15-.85.7-.42.8zm0-5.1c.38-.04.02-.48 0 0zm.09 5.43c.12-.11.12-.22 0-.33a.31.31 0 0 0 0 .33zm.51-11.92c-.2-.3-.51-.29-.51.1.07-.04.46-.04.51-.1zm-.51 9.35c.48-.03.04-.4 0 0zm1.12 3.4c.37-.36-.03-.56-.39-.47-.29.08-.37.47-.73.29.15.38.83.19 1.12.19zm-.33 1.69c.12-.48-.37-.41-.7-.47.11.4.45.21.7.47zM42.94 34c.91.26-.15-.7 0 0zm.47-16.96c.48-.03.04-.4 0 0zm.09.98c.44.05 1.07-.41.8-.9-.34.23-.63.53-.8.9zm0 13.13c.02.29.06.08.22.13.02.01-.03-.6-.22-.13zm.6-11.54c.09-.32-.25-.38-.38-.18-.14.21.25.31.39.18zm-.37 4.62c-.04.1-.03.18.03.26.14.05.24-.26-.03-.26zm.1-10.6c-.09.06-.11.13-.07.2.19.07.34-.14.07-.2zm-.1 6.77c.22-.02.5-.27 0-.28v.28zm0 18.46c.55.1.1-.48 0 0zm.1-16.6c.28-.06.16.3.5.07.19-.13.2-.43.1-.61-.36-.61-.67.17-.6.55zm0 1.78c.54.1.09-.47 0 0zm.37-8.08c0 .06.1-.81-.19-.47-.15.2-.13.47.2.47zm0 7.01l.13-.12c.03-.14-.29-.09-.32.03l.2.09zm.19-2.99a.23.23 0 0 0-.28 0c.1.13.2.13.28 0zm-.28 10.75c.35.12.8.12.8-.47-.37-.07-.74.07-.8.47zm.6-9.63c-.12-.03-.29 0-.42 0-.06.37.49.37.43 0zM44.3 9.66c.75.23-.05-.57 0 0zm0 7.3c.34-.09.09-.35 0 0zm.61 1.67l-.13-.05c-.05-.1.22-.2.17-.27-.26-.37-.6.39-.65.51.19-.04.47-.04.61-.19zm-.18 10.42c0-.24-.22-.3-.43-.28 0 .36.11.41.43.28zm.09.8c-.25-.13-.34-.12-.28.02.06.14.15.13.28-.02zm0 2.2a.34.34 0 0 0-.19-.33c-.24.24-.02.36.19.32zM45 14.51c-.15-.07-.09-.3-.29-.23-.14.3.3.26.29.23zm-.28 5.89a.3.3 0 0 0 .28-.19c-.17 0-.34-.03-.28.19zm0-7.38c.33-.08.08-.34 0 0zm.56 15.23c.06-.25-.02-.53-.33-.47-.46.09-.05.52.33.47zm-.47-6.96c.17 0 .63.11.38-.36-.2-.34-.49.1-.38.36zm.28-1.08c.5 0 .55-.21.3-.56.06.09-.66-.32-.58-.32-.1.36.22.55.28.88zm.1 1.55l-.29-.1c-.13.26.34.34.28.1zm.09 9.15c-.4.3-.04.88-.38 1.22 1.13.56 1.44-1.57.38-1.22zm0-15.32a.5.5 0 0 0-.28-.1c-.14.28.33.27.28.1zM45 13.12c.33-.08.08-.34 0 0zM45 15c.24.06.48.2.6-.1-.18-.17-.47-.1-.6.1zm0 7.9c0 .34.43.5.62.19.1-.15.08-.26-.05-.38-.3-.27-.37.19-.57.19zm0 4.02c.33-.09.08-.34 0 0zm.18-7.57c.6-.01-.18-.36-.1-.1.1 0 .12.02.1.1zm0-1.31c-.04.31.62.77.8.42.18-.37-.62-.5-.8-.42zm.1 7.61c0-.05.22-.4-.1-.32 0 .12.03.23.1.32zm.09 11.78c.27.06.57-.14.4-.45-.23-.4-.43.28-.4.45zm0-8.46c.48-.03.04-.39 0 0zm.14-8.08c.19.03.28-.08.28-.28-.23-.07-.35.03-.28.28zm1.07-3.04c-.37.27-1.16.85-.98 1.4.97-.28 1.94-.84 2.25-1.87-.44-.14-.97.17-1.27.47zm-.88 12.1c-.08.36.26.72.61.45.5-.39-.29-.58-.61-.45zm0-7.47c.54.1.09-.48 0 0zm.09-8.97c.27.05.17.42.47.42 0-.22-.14-.39-.1-.61-.1 0-.37.02-.37.19zm.47 1.77c.59-.2.03-.67-.25-.49-.24.15-.08.5.25.5zm-.38 0c.03.48.4.04 0 0zm.1 7.38c-.04.26.21.33.42.33 0-.5-.31-.27-.42-.33zm.09 6.03c.27.2.95.12.6-.33-.25-.32-.67-.04-.6.33zm.1-5.14l.23-.1c.15.24-.2.16-.14.33.06.15.5 0 .27-.27-.1-.13-.58-.1-.37.04zm-.1-13.18c.34-.08.08-.33 0 0zm.42 16.55c.1-.1.22-.7-.1-.52-.19.1-.16.52.1.52zm.19.09c-.45.33.3.41 0 0zm1.07-4.63c-.22.1-.32.39-.54.47-.18.07-.33-.14-.5-.04-.5.28 0 .55.34.56.34.01.6-.33.86 0 .41.52-.36 1.3-.77 1.49.28.17.64-.14.82.17.12.2-.05.7-.07.94-.1 1.24.05 2.5.12 3.73.12 2.22-.16 4.43-.06 6.66.04.82.11 2.13.92 2.6.88.5 1.56-.3 1.76-1.08.6-2.26.15-4.9.13-7.2 0-.2-.1-.9.06-1.01.11-.08.33.08.48.02.35-.12.4-.29.06-.53-.44-.34-.53.16-.64-.5-.13-.8.07-1.85.08-2.65l.02-3.8c0-1.07-.08-2.14-.08-3.21 0-.13-.01-.43.03-.54.02-.04.28-.3.27-.26.03-.25-.13-.29-.25-.59-.42-1.03-.03-2.49.02-3.57.06-1.16.7-6.46-1.46-6.25-1.2.12-1.27 1.63-1.3 2.54 0 .24.07 1.94-.3 1.82.37.74.32 1.63.32 2.43.02 1.06-.01 2.11-.07 3.17-.05.94-.15 1.89-.15 2.83 0 .44.26 1.46-.1 1.8zm-.89-1.68a.88.88 0 0 1-.18.33c.18.12.2-.07.37.1.04-.17.02-.4-.19-.43zm.52.1c.15-.39.22-1.1-.38-.77-.6.35 0 .61.38.76zm-.33-4.63c.01-.14-.05-.24-.19-.28-.24.24.02.35.2.28zm.1-7.57c-.13-.12-.21-.11-.24.02.06.14.13.13.23-.02zm-.2 15.65c-.04.1-.03.18.03.26.16.05.25-.26-.02-.26zm.29-8.55c-.23-.23-.27.08-.17.12l.17-.12zm-.1-6.03c.13-.09.13-.18 0-.28-.06.1-.06.2 0 .28zm.24 4.86c-.19-.15-.27-.15-.26 0 .02.16.1.16.26 0zm-.24 20.14c.22.1.56-.06.4-.36-.2-.35-.43.19-.4.36zm0 8.46c.49-.04.04-.49 0 0zm.24-21.63c.3.15.47.08.37-.29-.2-.03-.32.1-.37.29zm.1 7.66c.12.03.2-.03.27-.19-.22 0-.3.06-.28.19zm0-7.06c-.02.15.05.24.18.28.24-.24-.02-.34-.19-.28zm.18-11.02c.54.1.09-.48 0 0zm.47 31.35c-.06.25.3.44.51.28.24-.2-.3-.5-.51-.28zm3.17-20.14c.53-.63-.95-.36 0 0zm-.09-.89c.14.1.3.14.47.1.12-.38-.47-.42-.47-.1zm.56-.89c.04-.3-.26-.37-.39-.18-.14.21.25.32.39.18zm.33 6.69c0-.64-.53.13 0 0zm.28 10.27c.7.2-.13-.65 0 0zm.18-28.17c-.01.1 0 .18.05.26.09.04.26-.26-.05-.26zm.2 22.52c.22.16.8.24.7-.19-.1-.37-.7-.16-.7.2zm.23-8.18c.66 0 0-.4 0 0zm.46-4.48c.4-.03 0-.54 0 0zm.1-7.8c.38.24 1.3-.24.98-.7-.37-.53-.98.37-.98.7zm.18 25.6c.31 0 .45-.1.42-.28-.28-.03-.42.06-.42.28zm1.4 2.2c.3 0 .5.1.52-.2.03-.34-.7-.26-.52.2zm.7-7.34c.38.38.23-.07.38-.1-.14.03-.37-.25-.37.1zm.47-13.78c.34-.08.08-.34 0 0zm0 6.21c.18.03.33-.07.33-.28-.25-.07-.4 0-.33.28zm.61 3.74c.53.35 2.7.29 2.34-.84-.27-.79-2.49-.06-2.34.84zm1.87 10.89c.28.02.6-.41.28-.53-.3-.1-.47.34-.28.53zm.6-16.31c.07-.26-.05-.36-.32-.28 0 .2.13.3.33.28z"/></svg>