<svg xmlns="http://www.w3.org/2000/svg" viewBox="0 0 209.84 46.93"><path d="M116.9 12.93c-.6.23-.17.68-.23 1.13.23-.12.32-.88.6-.47.1.16-.21 1.02-.27 1.21-.12-.07-.32-.11-.42-.21-.11-.1-.15-.45-.24-.5-.47-.31-.34.3-.8.3.15.29.43.3.34.7.35-.22.53.4.79.23 0 .38-1.17.01-1.4.1.1-.07.17-.17.18-.29-.3-.3-.38.36-.37.33 0 0 .16.05.1.16-.05.1-.24.07-.24.21-.37-.43-.44-1.04-.84-1.45.12.6-.8.48-.82.98-.03.5.5-.02.82.14-.2.2-.22.25-.51.2-.05.3.1.5.42.41-.2.4.2 1.22-.52 1.22.3-.1-.25-.59-.48-.52-.43.15-.09.88-.55 1.03.14.14.46.05.61 0-.2.27-.07.65 0 .93-.31-.06-.77-.59-.89 0-.18-.06-.23-.23-.37-.34-.02-.02-.39-.29-.37-.26-.17-.33.07-.7-.3-1-.55-.45-1.43.04-1.04.74.21.36 1.15.49.98 1-.18.56-2.24.1-2.07.8-.31-.39-.03-.93-.24-1.36.44.06 1.4 1.05 1.13-.08-.07-.28-.26-.64-.56-.73-.55-.18-.47.27-.67-.42-.07-.23-.13-.54-.03-.74.2-.4.35.06.2-.46-.05-.2-.81-1.43-.07-1.26 0-.98-.69-1.85-.42-2.85 0 .06-.03.1-.08.11-.18-.08 0-1-.02-1.17-.02-.35-.16-.66-.23-1-.13-.57-.1-1.15-.18-1.72.77.58.96-1.03-.1-.84-.11-2.38-.43-4.73-.6-7.1h6.93c.5 0 2.12-.33 2.48 0 .3.25.12 1.2.12 1.54 0 1.78.58 3.77-.04 5.46-.22.61-.3 1.01-.16 1.63.05.23.25 1.07.53.52.43 1.02.14 2.18.29 3.25.02.14.25.74.13.86-.24.26-.29-.42-.52-.42zm-8.22-9.85c.34-.09.08-.34 0 0zm.33 4.1c.33-.07.08-.33 0 0zm0 13.23c.39 0 .56.38.49.7-.05.23-.35.16-.3.47a2.86 2.86 0 0 1-.2-1.17zm2.43 26.35c-.33-4.56-.97-9.09-1.26-13.65-.07-1.02-.04-2.04-.17-3.05-.14-1.09-.35-2.16-.46-3.25-.1-.97-.35-2.12-.23-3.09.13-1.02 1.03-.6.9.29.41 0 1-.5 1.31-.03-.1.1-.18.18-.26.29.07.21 1.6.76 1.8.66.92-.48-.52-1.84.52-2.23-.05.39.03.67.23 1 .14.25.51.5.28.82.3.17 1.05.15.82.66.66.26.52-2.13 1.38-1.97-.35-.84.7-.45.55.4-.13.7-.55 1.26.42 1.16.23-.03 1.43-.3.65.3-.15.1-.61.03-.63.3-.03.43.62.28.83.18 0 .76-.05 1.53.01 2.29.03.35.26.89.18 1.23-.09.38-.51.54-.55 1.01-.04.48.18.97.56 1.26.66.5 1.66.34 1.72-.61.03-.4-.22-1.13-.57-1.38-.25-.18-.65 0-.83-.17-.27-.27-.1-2.16.15-2.43.13-.15.64-.18.69-.38.06-.27-.55-.43-.64-.63-.13-.27.11-1.21.14-1.54.06-.58 0-1.13.01-1.72.01-.61.1-1.24.17-1.85.02-.15-.06-.49.08-.6.15-.1.22.2.3.2.3 0 0-.42-.04-.51-.12-.25-.42-.25-.04-.62.45-.44 1.49-.34 2.07-.51.03.05-.04.56.16.6.36.06.14-.28.2-.3.2-.03.12-.14.38-.01.12.06.4.34.29.5.48-.26 1.15-.18 1.58-.52.18-.14.4-.86.66-.79-.3.25-.34 1.04.19 1.03.53-.01.32-.58.4-.9.13-.43.72-.85.1-1.2-.43-.22-1.11.15-1.53.23.48-.18.57-.74.84-1.12.21.09.6.83.84.57.2-.22-.31-.46-.28-.66.04-.28.43-.15.37-.52-.23.05-.68-.07-.8-.3-.24-.39-.02-.4.2-.74.35-.54.33-1.37-.26-1.78-.46-.33-.75.13-.86.61-.07.3-.17.04.06.25.05.04.42-.09.42.03.02.3-.72.41-.9.4-.61-.04-.39-.2-.4-.57-.06-1.11-1.9-.54-2.6-.37.08-.36-.05-.39-.28-.58-.33-.27-.37-.06-.45-.47-.05-.27.13-.82.16-1.1l.15-1.64c.18.23.67.24.87.04.22-.22.04-.09.08-.36.12-1-.53-.37-.8-.81-.2-.31.04-1.2.08-1.52.05-.49.14-.97.2-1.46.27.14.64.1.93 0-.5-.12 1.12-1.38 1.12-1.45-.54.18-.44-.8-.67-1.03-.34-.33-1.18.26-1.2.24.2-.59.11-1.23.26-1.82.01-.08.21-1.04.06-.89.52-.52 2.1-.08 2.74-.07 1.46 0 2.92-.04 4.39-.02.51.01 2.53-.22 2.89.24.18.24.08 1.04.1 1.33.03.75.04 1.5.12 2.26-.25-.38-.57.15-.51.4.01.08.41.28.49.38.31.44.2 1.27.2 1.77.04 1.24.13 2.49.25 3.73.05.52.11 1.05.12 1.57 0 .1.03.34 0 .44.01-.06-.31.52-.25.15-.09.5.24.15-.1.67-.14.19-.52.01-.39.42.13.38.27.03.45.07.22.05.2-.14.4.11.13.17.03.59.04.78 0 .82.08 1.64.14 2.46.08 1.17.67 3.62-.25 4.56-.17.16-.66.23-.72.3-.16.19-.01.49-.11.73-.24.58-.68.37-1.17.16-.52-.22-.98-.57-1.56-.54-.69.03-1.16.55-1.75.8-.12-1.3-1.74-1.52-2.57-.7.07-.62-.3-.86-.9-.7-.69.17-.58.62-.5 1.22-.2.05-.85-.15-.56.3.27.43.97-.16 1.39.03.35.17.44.67.73.91.4.33 1.24.12 1.55.48.17.2 0 .84-.03 1.1l-.33 2.66c-.09.7-.2 1.4-.22 2.1-.02.38.14 1.11-.17 1.39-.25.21-.91.09-.61.67.08.16.35.18.44.34.14.23.09.47.06.73-.17 1.48-.37 2.95-.53 4.44-.2 1.8-.43 3.6-.6 5.4-.07.78.1 3.11-.62 3.51-.47.27-1.8 0-2.33 0H111.44zm-2.15-40.7c.12.11.26.14.42.1.06-.46-.24-.46-.42-.1zm.42 3.6c0-1.18-.77.1 0 0zM109.6 7c.11 0 .2.03.28.1.27-.33-.22-.53-.28-.1zm.1-4.2c.3.1.7.44.63-.15-.05-.5-.63-.3-.63.15zm.32 5.6c.4-.03.08-.31-.11-.19-.06.1-.02.17.11.2zm.28 5.66c.09-.17.3-.58-.18-.42-.04.15-.05.42.18.42zm-.09 1.63c.38.13.41-.45.1-.51a.73.73 0 0 0-.1.51zm0-6.77c.19 0 .28-.07.28-.2-.22 0-.31.07-.28.2zm.19 6.16c.16-.16.1-.37-.1-.42-.13.14-.13.42.1.42zm.1 14.16c-.1.3.26.62.5.33.32-.38-.32-.4-.5-.33zm.32-10.37c-.13.13-.15-.23-.24-.22-.25.04.15.38.15.38l.09-.16zm1.12 6.59c.55 1.18-2.02 1.5-1.2 2.38.37.38.95.03 1.39-.02.72-.07.6.03.9.49.79 1.2 2.11-.8.68-1.24-.1-.04-.21-.08-.32-.1-.28.23-.43.16-.47-.19a2.72 2.72 0 0 1-.48-.8c-.03-.21.27-.36.16-.55-.11-.18-.53-.06-.66.03zm-.6-14.9c.07-.19.18-.34.32-.48-.31 0-.25-.6-.64-.28-.27.22-.09.87.31.75zm-.1-.9v-.23c.33.4.74-.24.39-.45-.37-.21-.7.53-.4.68zm.8 5.42c.13-.46-.14-1.45-.75-.84-.49.49.17 1.2.74.84zm-.9-1.3c.15 0 .28-.05.38-.14-.17-.17-.37-.06-.37.14zm.1 17.94c.34-.08.08-.34 0 0zm.42-21.26c.34-.08.08-.34 0 0zm.28 23.5c0-.14-.05-.24-.19-.28-.24.24.02.35.19.28zm-.19-21.21c.7.19-.12-.65 0 0zm0 18.45c0 .75 1.15.87 1.33.18.24-.94-1.33-1.03-1.33-.18zm.52-15.09c.21.14.14.38.38.47.34.12.79-.24.83-.56-.32.08-.26-.31-.51-.39-.26-.07-.62.27-.7.48zm.51 9.95c.1-.28.42-.67.1-.93.08.3-.39.76-.1.93zm.28 4.54c.23-.94-.76.2 0 0zm-.28 5.74c.34-.08.08-.33 0 0zm.1-26.68c.24 0 .32-.2.32-.42-.36-.05-.46.1-.33.42zm.09-1.54c.13-.06.27-.09.42-.1 0-.56-.83-.57-.42.1zm.6 22.06c.08-.22.3-.27.24-.52-.08-.31-.45-.38-.68-.22-.48.32 0 .78.45.74zM113.22 12c-.15.44.51.6.38-.1a.82.82 0 0 0-.38.1zm0 26.77c.15 0 .91-.02.52-.42-.33-.33-.58.15-.52.42zm.1-12.47c0 .42.84.84.92.4.08-.42-.67-.6-.92-.4zm.09-11.64c.2.05.31.17.42-.09-.05.01-.63-.52-.42.1zm0-9.34c.57.02-.22-.82 0 0zm.19 2.47c.36 0 .4-.3 0-.28v.28zm0 35.28c.48-.02.04-.39 0 0zm.14-37.33c.33-.08.08-.34 0 0zm0 7.61c-.07.26.04.34.3.3.47-.09.02-.62-.3-.3zm.7 11.69c-.32.13-.15-.2-.42-.2 0 .24.35.61.42.2zm-.33-7.8c.22-.13.36-.12.42.02.06.14-.08.13-.42-.03zm.42-3.98c.16-.16-.08-.42 0-.65-.45 0-.3.5 0 .65zm-.28 23.27c.38.1.77-.52.37-.7-.36-.16-.4.55-.37.7zm0-22.57c-.05.3.45.58.64.33.09-.12-.03-.42-.14-.48-.34-.2-.28.15-.5.15zm.37-6.26c.98.14.86-.43 1.27-1.03-.43.15-.5-.41-.96-.32-.57.13-.6.98-.3 1.35zm.14 21.96c0-.17.28-.6-.19-.42-.27.1-.14.46.2.42zm-.23-23.6c-.01.19.28.5.42.2.17-.38-.34-.2-.42-.2zm.42 6.55c-.1-.05-.5.18-.33.31.1.07.49-.15.33-.31zm.1 13.55c.05-.24-.14-.23-.29-.38-.05.23.03.41.28.38zm0-14.07a1.8 1.8 0 0 0-.29-.6c0 .2-.06.67.28.6zm.23-7.15c-.17-.03-.38-.02-.44.1-.15.3.5.26.44-.1zm-.24 24.3l.24-.28c-.51-.25-.56.28-.24.28zm-.18-19.67c-.05.4.68.45.51-.14a.73.73 0 0 0-.51.14zm1.21 2.66c-.5-.14-.67.4-.6.8-.29 0-.44-.24-.34.22.06.32.42.4.33.8.88.13.71-1.32.61-1.82zm-.93-.93c.35 0 .42-.48 0-.42 0 .12-.04.3 0 .42zm.14.6c.38.28 1.06-.1.56-.47-.32-.24-.69.1-.56.48zm.51-6.16c.03-.31-.1-.45-.42-.42-.06.34.08.48.42.42zm.1 23.5c-.22-.06-.48-.05-.43.2.06.32.72.2.43-.2zm-.43-2.66c-.07.28.2.63.48.36.32-.3-.16-.57-.48-.36zm.43-9.02c-.1.25-.18.33-.26.23-.08-.09 0-.17.26-.23zm.28-8.74c.06-.22-.24-.69-.52-.42-.24.24.21.73.52.42zm-.1 1.87c.25-.25.01-.51-.28-.51-.04.23-.06.58.28.51zm-.1-5.47c.2 0 .14.58.45.24.31-.35-.37-.62-.44-.24zm.43 5.66c-.1.32.36.46.41.18.05-.22-.26-.33-.41-.18zm.51-.8c-.08-.05-.16-.42-.42-.23-.22.17.33.67.42.23zm-.23 1.73c.25-.06.33-.14.26-.23-.08-.1-.17-.02-.26.23zm1.03 10.28c.24-.06.15.13.23.28-.24 0-.19-.13-.23-.28zm.23 9.72c.2-.26.11-.4-.23-.42 0 .14.03.42.23.42zm1.12-3.69c.45.04 1.18-.81.7-1.22-.55-.47-.87.88-.7 1.22zm.94-12.2c.32.13.04-.36.37-.23 0-.3-.33-.02-.19-.37.38.06.62.37 1.03.28-.32.38-.9.23-1.16.7-.17.3.05.88-.38 1.03.39.32.99.14 1.35.51-1.13.8-2.28-.98-1.26-1.5-.3 0-.02-1.31-.09-1.54.42.06.74.87.33 1.12zm-.52 20.94l.19.1s-.05-.5-.18-.3a.63.63 0 0 0 0 .2zm.28-10.56c.45.3 1.01.03.67-.45-.32-.45-.75.03-.67.45zm0-13.18c.24.06.23.39.52.33-.05.26-.24.48-.52.51v-.84zm.1 8.74c.48-.03.04-.39 0 0zm.42 1.12c-.28-.27-.2.1-.3.14.08-.03.45.16.3-.14zm-.19 1.12c.28-.17.7.24.7-.28-.28.05-.46-.11-.7-.23-.12.17-.12.34 0 .51zm-.1 3.6c.67 0 0-.4 0 0zm.7-7.29c0-.26-.31-.85-.57-.49-.26.36.31.56.58.49zm-.09 1.78c-.06.03-.65-.12-.51.09.1.16.51.14.51-.1zm-.51-11.22c.16 0 .25-.06.28-.19-.22 0-.31.07-.28.2zm.28-.8c1.1 0-.2-.99 0 0zm0 13.14c.48-.03.04-.4 0 0zm.65 1.54c-.02-.06-.21-.44-.37-.28-.17.17.4.28.37.28zm-.32-18.27c.24.05.55-.34.28-.46-.28-.13-.36.27-.28.46zm.32 1.45c-.45 0-.05-.16-.14-.42-.45-.11-.1.78.14.42zm-.23 17.75c.29.03.69-.39.31-.53-.35-.13-.4.3-.3.53zm0-15c-.04.1-.03.19.02.26.16.06.26-.26-.02-.26zm.6.1c.1-.27.4-.25.17-.55-.13-.18-.59-.06-.77-.06.03.34.27.58.6.6zm-.37 9.34c.55.1.1-.47 0 0zm0 3.6c.14.49 1.37.45 1.04-.16-.24-.44-.94-.35-1.04.16zm.1-16.3c.33 0 .33.32.68.02.18-.16.36-.62.44-.87-.45.26-1.4-.26-1.12.84zm.6 13.82c.17 0-.54-.2-.33-.12-.1-.03.43.41.34.12zm.33-3.69c-.12.25-.43.22-.65.33.1-.28.38-.35.65-.33zm-.42 8c.5.08.74-.56.21-.68-.35-.07-.43.46-.2.67zm.1-14.07c.14-.15.04-.4.32-.28.05-.22-.07-.25-.23-.33 0 .19-.42.48-.1.61zm.09-1.12c.33-.07 1.11-.2.8-.75-.17-.32-.6-.16-.9-.28.1.33.13.69.1 1.03zm.51-1.82c.09-.22.32-.34.16-.6-.13-.2-.31-.24-.53-.1-.42.28-.05.7.37.7zm-.28-3.42c.7 0 .2-.3 0-.5-.18.17-.18.34 0 .5zm.1 9.35c.25.19.54.32.8.51-.15.29-.64-.03-.71.33-.14-.2-.31-.62-.1-.84zm-.1 7.2c.34-.09.08-.34 0 0zm.61 2.75c.05-.26-.3-.43-.51-.28-.26.2.23.56.51.28zm-.33-8.08c.28.1.26.51.61.28.03.14.03.28 0 .42-.41 0-.66-.3-.6-.7zm.75-5.56c0-1.3-1 .25 0 0zM122.74 7c.1.5 1.36.44.87-.23-.26-.36-.78-.2-.87.23zm0 4.49c.97 0 0-.38 0 0zm.2 17.98c.47-.03.03-.48-.01 0zm.74-19.39c0-.46-.38-.43-.6-.74-.4.47.16.83.6.74zm-.6 10.47c.73.1.76-.66 1.3-.93-.8-.87-1.6-.03-1.3.93zm0 3.27c.25 0 .78.36.6-.25-.12-.4-.73-.24-.6.25zm0-15c.13-.05.33.37.36.24.07-.25-.3-.64-.37-.24zm.08 2.15c.34-.08.09-.34 0 0zm0 17.15c.34-.08.09-.34 0 0zm.42-14.25c.16-.05.29-.02.29-.23-.24.11-.33-.3-.52-.2-.2.13.32.23.23.43zm0-1.03c.18-.18.01-.47-.23-.42-.03.19.05.36.23.42zm-.14-9.02c.1-.02.18.01.24.1-.1-.27-.21-.52-.24-.1zm.14 22.66c.34-.08.09-.33 0 0zm.2-14.76c.4.42.97-.33.09-.51.06.25-.21.23-.1.5zm.18.6c0-.03.23-.4-.1-.32-.02.13.01.24.1.33zm.1 8.42l.32.1a.3.3 0 0 0-.19-.29l-.14.19zm.41-9.77c.19.17.3.13.33-.1-.3 0-.07-.16-.33.1zm.33-2.85c.26-.29 1.94-1.54.82-1.8-.77-.17-1.24 1.32-.82 1.8zm.28 3.46c.37.03.7-.17.84-.51.2.47.85.53.91-.04.1-.89-.7-.28-1-.06-.46-1.36-1.46-.1-.75.61zm.23.65c.07-.27-.07-.47-.32-.23.25 0 .05.3.32.23zm-.23-9.06c.3 0 .67-.12.23-.37-.05.13-.13.26-.23.37zm0 6.4c.2.05.5-.08.33-.33-.19-.25-.38.15-.33.33zm.42 10.14c.03.4.52 0 0 0zm.33-5.14c.32.04 1.01-.24.7-.7-.34-.5-1.16.18-.7.7zm.28 6.35a.4.4 0 0 0 .14-.37c-.36-.12-.46.37-.14.37zm14.8 25.84c-3.58 0-7.17-.04-10.76 0-.3 0-1.07.18-1.28-.06-.22-.25-.14-.96-.18-1.28-.17-1.65-.46-3.3-.67-4.95a509.48 509.48 0 0 1-.97-7.91c-.05-.45-.33-1.28-.18-1.72 0-.03.15-.26.15-.15.05-.05.1-.11.12-.19-.03-.07-.08-.1-.15-.1-.01-.02-.25-.26-.3-.42-.09-.27-.07-.6-.1-.88-.08-1.49-.4-3-.25-4.48.4.24.24.49.1.84.35.05.7.12 1.04.2l.31-.11c.06.19.15.36.27.51.43.56 1.12.75 1.79.52-.04.15 0 .3.09.42.11-.45.19-.75.7-.84.06.5-.43 1.67.6 1.28.44-.16.96-1.2 1.5-.8.38.28.22 1.57.23 1.96 0 1.1.08 2.21.24 3.3.29-4.83.68-9.67.88-14.5.03-.84-.2-5.58.93-5.72.3-.04 1.28.7.91-.2a.63.63 0 0 0-1.2.03c.13-.4.01-.91.03-1.32.02-.7.08-1.44.17-2.12.14-1.12 1.6-1.26 1.97-2.42-.8-.32-1.1.93-1.82.93.2-1.12.26-2.26.35-3.4.04-.58.1-1.16.17-1.74.02-.22.06-1.22.27-1.35.12-.08 1.08 0 1.27 0 .4-.02.7.12 1.05.15.56.04-.08.18.27.08.04-.02-.16-.16-.1-.17.28-.08.5-.14.85-.13.7.02 1.38.11 2.1.09 1.06-.04 2.2-.17 3.26.02.95.17.6.86.5 1.62-.14 1.17-.22 2.35-.33 3.53-.48 4.93-.99 9.87-1.35 14.81-.02.39.05.89-.04 1.26-.05.2-.05.33-.22.48-.03.03-.22-.02-.23-.02-.24.34-.24.1-.05.46.22.42.33.17.26.78-.25 2.34-.44 4.68-.66 7.02-.5 5.57-1.02 11.13-1.53 16.7zM126.77 8.54c-.92.27-.32 1.78.56 1.6 1.37-.27.48-2.04-.56-1.6zm0 9.3c-.1-.05-.51.18-.33.32.1.07.5-.16.33-.32zm-.23-11.26c.61.25-.26-.86 0 0zm0 5.93c.48-.02.04-.38 0 0zm.51.52c.06-.18-.29-.34-.37-.23-.13.16.08.2.1.26 0 .02.2.22.23.28.17.26-.25.24.19.52.7.43 1.13-1.26-.15-.83zm-.42-1.22c.49-.03.04-.48 0 0zm.66 5.42c-.16-.22-.15-.57-.52-.51 0 .3.28.4.52.51zm-.33-11.07c.21.22.56.2.84.19-.13-.33.18-.4-.15-.63-.3-.22-.86.02-.7.44zm.42 5.33c0-.64-.53.13 0 0zm-.23-4.72c.34.06.48-.03.42-.28-.28-.03-.42.06-.42.28zm.23 10.56c.2.04.42.14.6.23.05-.62-.71-1-.6-.23zm0 3.83c.27.1 1.31.2.8-.3-.23-.23-.9-.1-.8.3zm.1-5.56c.15.01.25-.05.32-.19a.5.5 0 0 0-.33-.1v.29zm.09-10.47c.4.03.57-.17.51-.6-.4-.04-.58.17-.51.6zm.09-4.72l-.07.24c.26.08.38-.26.07-.24zm.23 17.57c.06.12-.13.4.04.49.17.09.2-.42.24-.49.08.17.23.34.42.37.11-.67-.29-.37-.7-.37zm.19-1.03c0 .27.32.7.58.7.39.03.6-.43.77-.7-.48-.12-.92-.43-1.35 0zm.23 10.24c.34-.09.08-.34 0 0zm.1-13.13l.18.09c.05-.17-.02-.26-.18-.28v.19zm.18 2.05c.48-.02.05-.39 0 0zm.24-5.56c-.1.48-.06.82.37.52.07-.04.54-.63.58-.72.36-.75-.67-.45-.44.34a.98.98 0 0 0-.51-.14zm.1 14.72c.33.08.07.34 0 0zm.08-15.6c.32.06.45-.13.42-.43-.31-.1-.42.13-.42.42zm.42 6.16a.53.53 0 0 0-.32-.14c-.14.35.37.29.32.14zm-.09 11.68c0-.14.68-.44.03-.5-.43-.05-.3.5-.03.5zm-.14-13.87c-.09.68 1.14 1.37 1.51.65.5-.98-1-1.47-1.5-.65zm.23-2.06a.54.54 0 0 0-.09-.37c-.15.14-.12.37.1.37zm1.13 12.24c.06-.33.47-.24.6-.51-.5 0 .28-.97.33-1.12.28.28-.04.4-.03.7.01.31.18.48.36.72.08.12.2.37.34.43.23.13.33-.35.55-.03-.39.26-.4 1.47.09 1.63-.5.28-1.48.17-1.54.94-.37-.37-.95-1.67-1.64-1.12-.35-.36.55-.7.57-.62 0-.02-.39.17-.36.2.26.26.1-.12.33-.05.24.08.93.96 1.1.14.33.13-.22.43.2.49.4.05.46-.54.5-.8.14-1.13-.64-.67-1.4-1zm-.94-21.45c.4.25 1-.42.6-.61s-.6.35-.6.61zm.6 7.39c.42.41 1.3.11.94-.52-.3-.54-1.07-.04-.93.52zm.24 7.57c-.34-.35-.25.37 0 0zm0 24.2c.36.18 1.22.37.71-.35-.36-.53-.82-.22-.7.35zm.38-28.18c.22-.03.41-.22.51-.42-.17.03-.97-.36-.8.1.2-.31.54.2.29.32zm-.19 26.03c.28.14.52.14.42-.23-.16 0-.38.04-.42.23zm.1-17.43c.74.23-.06-.58 0 0zm.74-10.23c.05-.23.06-.41-.16-.42-.32-.01-.25.56.16.42zm-.14 29.62c.58-.2.18-.37 0 0zm.51-26.54c.03-.16-.03-.27-.18-.32-.22.22 0 .36.18.32zm-.09.7c-.04.1-.03.19.02.26.16.06.26-.26-.02-.26zm.52 18.46c.27-.18-.27-.36-.24-.32.07.09-.17.4.24.32zm.09-11.5c.42-.05.13.56.23.75h-.51c0-.3.33-.43.28-.74zm.65 16.6l.28.23c.25-.51-.28-.56-.28-.24zm1.12-.61a.31.31 0 0 0 0 .25c.1.05.28-.25 0-.25zm.2-20.89c.23.06.57-.1.39-.4-.2-.36-.48.19-.4.4zm0 8.83c.47-.04.03-.48 0 0zm1.02-.75c-.06.3.45.46.53.24.1-.3-.36-.41-.53-.24zm.93-9.72c.46-.92-.67-.1 0 0zm.2 29.72c-.06.29.17.54.48.33.37-.25-.17-.65-.49-.33zm.5-12.38c0-1.25-.89.53 0 0zm0-18.27c.44 0 .98-.7.36-.85-.47-.12-.78.6-.36.85zm-.18 1.73c.14.23.79.2.77-.12 0-.29-.84-.29-.77.12zm.18-.37c.32.06.45-.35 0-.33v.33zm.61 30.09c.2.15.85.14.67-.27-.12-.27-.63-.04-.67.27zm.33-13.27c.39-.05.03-.49 0 0zm.1-20.94c.2-.05 1.46.3.83-.35a.49.49 0 0 0-.84.35zm.23 28.36c.1.03.26 0 .37 0 .06-.52-.54-.48-.37 0zm.51 1.27c.05-.28.06-.42-.21-.42-.42-.02-.19.49.21.42zm.37-33.97c0 .45.52.43.42-.1a.93.93 0 0 0-.42.1zm.42 33.13c.24 0 .48-.14.34-.4-.19-.35-.72.08-.34.4zm-.09-39.16c.39-.04.03-.48 0 0zM139.9.6c-.22.22.07.34.12.2l-.12-.2zm-.1 19.95c.8.2-.25-.86 0 0zm.1 25.6c.38 0 .6-.23.6-.6-.42 0-.71.15-.6.6zm.19-39.48c.35.18.22.48.77.32.36-.1.56-.3.47-.69-.23-.87-1.17-.23-1.24.37zm.1 7.9c.18.13.9.25.74-.19-.13-.37-.75-.18-.75.19zm.32-9.11h.51c0-.8-.63-.4-.51 0zm.1 40.09c.23 0 .32-.21.32-.42-.2 0-.56.18-.33.42zm.6-25.65c.31.06.45-.03.42-.28-.28-.03-.42.06-.42.28zm.33-7.06c.26.66 1.42.43 1.08-.33-.26-.6-1.27-.33-1.08.33zm1.02 1.12c.3.3 1 0 .64-.44-.32-.38-.78.02-.64.44zm.85.61c.37.38.22-.07.37-.1-.14.03-.37-.25-.37.1zm.46-7.9c.2.04.41-.07.33-.32-.27-.08-.41.03-.33.32z"/></svg>