<svg xmlns="http://www.w3.org/2000/svg" viewBox="0 0 209.84 46.93"><path d="M163.16 46.9c-.09-.3.24-.58.35-.85.15-.38.13-.81.16-1.22.07-1.1.19-2.2.3-3.3l.78-7.05c.5-4.82 1.02-9.63 1.59-14.44.28.1.78.64 1.07.58.5-.1-.08-.6.38-.72-.1.3.19.81.52.63.3-.16.01-.63.5-.63.1.21-.2.63.1.73.25.07.55-.29.56-.46 0-.15-.35-.44-.37-.68 0-.04.18-.12.17-.2-.02-.18-.15-.33-.18-.52.29.3 1.1-.17 1.45-.2.41-.05 1.03.14 1.03-.5-.43.08-1.25.56-1.7.32-.34-.18-.27-.7-.4-1.02-.23-.53-.26-.4-.57-.16-.1.08-.03.33-.17.41-.32.2-.65-.18-.96.04 0 0 .14.44.1.5-.37-.27-.21.4-.45.49-.41.16-.36-.58-.76-.58.1.42.33.7-.23.84.47-5.62 1.15-11.23 1.68-16.85.04-.43-.04-1.53.38-1.79.24-.15.93 0 1.2 0h2.33c1.4 0 2.8.03 4.2 0 .55-.01 1.1-.07 1.64-.07.27 0 .53 0 .8.05.18.03.5.22.57.22.3.03.55-.2.89-.26.5-.1 1.15 0 1.65.05.35.04.35-.08.53.22.16.26.06.77.08 1.08.2 2.77.66 5.54.98 8.3l2.06 17.4c.76 6.52 1.54 13.04 2.32 19.55-2.9-.11-5.83-.01-8.72.03-1.1.01-1.24-.16-1.3-1.27-.05-1.44-.07-2.89-.22-4.32l.43.06c.04-.16.12-.36.02-.49-.09-.13-.56.07-.45-.27.22.07.64.13.7-.19-.82 0-.77-.43-.75-1.17.03-.99-.26-.86-1.16-.81-.47.02-1.98-.34-2.29.13-.2.3-.06 1.17-.08 1.53l-.1 1.97c-.07 1.3-.17 2.59-.26 3.88-.02.35.05.65-.23.87-.36.29-1.16.16-1.58.16-2.86 0-5.74-.12-8.59-.02zm3.78-23.17c-.17-.04-.38-.03-.43.1-.1.31.57.25.43-.1zm-.18-2.15c.39 0 .82-.02 1.12.28.12-.17-.42-1.03-.6-1.03 0 .38-.4.44-.52.75zm.37 1.21c.28.15.52.14.42-.23-.16 0-.38.04-.42.23zm.23-4.9c.4-.04.03-.48 0 0zm.2 4.48c.47-.02.03-.39 0 0zm.93-5.32c-.08-.22.36-.58-.1-.52.07.14-.18.52.1.52zm.42 5.42c.06-.24.04-.55-.29-.44-.43.13-.08.5.29.44zm-.24-6.97c.33.05.58-.4.37-.68-.3-.41-.34.53-.37.68zm.42-2.66c.34-.08.08-.34 0 0zm.7 9.86c0-.25-.19-1.01-.58-.57-.31.36.2.81.58.57zm0-4.53c.48.2.9-.12.85-.61-.4.06-.78.17-.85.6zm.14-2.85c.02.4.44 0 0 0zm.1 20.56c.13-.27.4-.42.51-.7-.23 0-.76.44-.51.7zm0-21.78c.36.22.76-.56.51-.75-.41-.3-.51.6-.51.75zm.6 5.94c.16 0 .3-.04.43-.14.11.48 1.06 1 1.49 1.17.44.17.3.13.67-.01.2-.08.2-.47.5-.23.17-.92-1-1.3-1.64-.8-.19-.69-1.08-.3-1.44 0zm.7-5.05c.24 0 .43-.12.43-.37-.31-.06-.25.2-.42.37zm2.16 4.81c.24.25.8.73.51 1.12-.2.27-.68.04-.6.52.6 0 1.01-.83.8-1.33-.04-.08-.27.01-.33-.18-.07-.21.37-.5.04-.64-.06.23-.32.3-.42.51zm.6 9.53c-.09.1-.5.46-.28.61.26-.5.1.12.21.16.12.04.3.1.51.11.85.02 1.7-.03 2.55-.03-.2-1.89-.35-3.78-.49-5.68-.12-1.81-.52-3.73-.48-5.54.01-.39.07-.77.2-1.13.07-.22.3-.44.17-.7-.1-.16-.34.01-.47-.17-.11-.16-.05-.57-.05-.76-.06-1.52-.1-3.06-.33-4.57-.56 5.9-1.24 11.78-1.54 17.7zM174 24.1c.86.23-.21-.78 0 0zm.51-9.81c.1 0 .37-.01.33-.19-.2-.05-.25.03-.33.19zm1.97 21.3c.8.2-.26-.85 0 0zm.42-25.6c-.22.22.06.29.11.19l-.11-.19zm0 16.77h.28c0-.14-.06-.23-.19-.28-.03.1-.06.2-.1.28zm.7 2.76c-.1-.05-.5.18-.33.32.1.07.49-.16.33-.32zm-.19-2.94c.18.03.27-.03.28-.19-.13-.03-.28.03-.28.19zm.7-1.73c.29.5-.45.83.05 1.37.45.48 1.31.5 1.74.02.38-.43.14-.62-.2-1.06-.37-.46-1.09-.91-1.59-.33zm-.19-8.93c.25.25.7-.01.7-.32-.27-.04-.66-.03-.7.32zm.38-7.05c.45.26.82-.39.45-.6-.44-.27-.45.37-.45.6zm.51-5.93c.76.21 0-.86 0 0zm.6 17.98c.5-.02.05-.38.01 0zm.52 6.08c.2.03.41-.08.33-.33-.27-.07-.41.04-.33.33zm0 1.03c.49-.04.04-.49 0 0zm.14-11.4c.11.02.27 0 .38 0 .12-.38-.5-.38-.38 0zm.52-2.53c.42-.18.4-1.06-.19-.84-.51.2-.25.78.19.84zm-.33 6.22c0 .5.52.44.7.09-.24-.12-.43-.2-.7-.1zm0 10.37c.3.17.51.13.42-.23-.14 0-.42.03-.42.23zm.94-5.33v-.32c-.25.1-.38-.1-.61-.1 0 .29.33.56.6.42zm-.24 3.46c-.04.1-.03.18.03.26.15.05.25-.26-.03-.26zm.24-.1c.49 0 .44-.66-.03-.61-.44.04-.1.37.03.62zm.28-1.96c.48-.02.04-.38 0 0zm.74 3.6c.03-.1.09-.14.19-.1.1-1.98-1.4.1-.19.1zM182 8.86c.26.18.8.15.7-.2-.13-.5-.8-.25-.7.2zm.6 14.12c.06-.23-.17-.47-.36-.32-.25.2.09.6.37.32zm.85-6.45c.24 0 .51.03.51-.28-.18 0-.47.05-.51.28zm.42 19.67c-.04.1-.04.18.02.26.16.06.26-.26-.02-.26zm2.24 2.62c.02.4.44 0 0 0z"/></svg>