<svg xmlns="http://www.w3.org/2000/svg" viewBox="0 0 209.84 46.93"><path d="M156.1 37.32c.49.05.97.05 1.45 0-.48.25-.42 1.08.11 1.23.55.15 1.33-.73.73-1.13a8.7 8.7 0 0 1 2.1-.11c.31.01 1.92-.16 2.1.01.25.23.04 1.7.03 2.03l-.11 2.02c-.06 1.36.15 2.71.07 4.07-.01.28 0 .92-.2 1.15-.18.2-.89.25-.62-.15-1.42.28-3.22.56-4.64.26-.55-.12-1.1-.68-1.14-.09-.02.31-4.24.1-4.5.1 0-.26.3-.11.23-.41-.55.04-.54.37-1 .48-.42.1-1.03-.07-1.47-.09-.42-.02-.86.07-1.27.05-.67-.05-.13-.11-.46-.44-.16.43-1.07.7-1.43.41-.3-.22-.38-1.1.07-1.2 0-.07-.2-.08-.2-.1l-.07-.36c-.1-.44 0-1-.01-1.46-.02-.92-.06-1.8.1-2.7.1-.58-.79-3.73.09-4.08-.66-.49-.22-2.9-.2-3.57.03-1.7.04-3.39.16-5.1.1-1.46-.59-3.2-.18-4.64.08-.25.08-.26.22-.46.12-.18.44-.1.31-.46-.09-.25-.32-.1-.4-.22-.15-.22-.1-.66-.1-.92l-.1-3.54c-.02-.24-.12-.94.08-1.15.37-.38.69.17.84-.54.05-.22.08-.41-.1-.56-.18-.14-.38.04-.5-.02-.38-.17-.32-.66-.1-1.11.15-.28.86-.96.7-1.3-.13-.28-.57-.14-.73-.4-.18-.26-.05-1.08-.06-1.42a109.64 109.64 0 0 1-.03-4.68c0-2.21.03-4.42 0-6.63 4.91 0 9.88.2 14.78-.01.68-.03 1.14-.2 1.29.56.12.67.02 1.4-.02 2.08a67.78 67.78 0 0 0-.07 6.8h-3.4c-.55 0-1.1.02-1.65 0-.28-.01-.73-.14-.99 0-.69.36-.3 1.83-.29 2.47 0 .5-.65 1.86-.02 2.07-.22.33-1 .14-.38.57.2.15.27-.08.43.23.1.2-.01.58-.02.79-.05.66-.25 1.62-.04 2.25.1.27-.04.22.24.37.23.12.72.05.95.04.67-.01 1.34-.05 2.01-.1.65-.06 2.01-.33 2.58.07.4.28.36 3.77-.12 3.77.03.08.27.13.27.2.01.15-.03.38-.02.56 0 .46.2.85.13 1.31-.14.96-.18 2.08-.1 3.07-1.73-.06-3.56-.18-5.28-.1-.31.02-.4.1-.61.2-.02.1-.06.2-.12.3-.1.02-.2.02-.3.01-.33.58.15.24.4.64.28.45-.04 1.8-.01 2.35.03.8.05 1.12-.39 1.76-.55.8.14 1.06.34 1.84.2.74.04 1.68.04 2.43-.3-.1-.5.2-.8.1.34.13-.07.69.1.96.33.49 1.21.15 1.3-.36zm-10.04-4.48c.8.23-.14-.68 0 0zm.1 9.9c.15.4-.23.7.21 1 .3.2.85.09 1.03-.22.16-.28 0-.78-.29-.93-.3-.16-.66.03-.96.15zm.23-8.5c-.02-.14-.1-.24-.24-.28-.29.29.1.33.24.28zm.79-11.68c-.43.1-1.3.42-1.03 1.03.46-.13 1.33-.24 1.64-.61-.15-.22-.82 0-.61-.42zm-.6 21.73v.51c-.02-.01-.3-.17-.31-.14-.12.27.12.24.13.42a.89.89 0 0 1-.15.6c1.12.42 1.59-.37 1.96-1.3-.27.1-.88.28-1.03-.1.17-.03.25-.14.23-.32-.34-.05-.54.2-.84.33zm-.43.09c.49-.04.04-.48 0 0zm.1-25.51c.48-.03.04-.39 0 0zm0 22.52c.74.22-.06-.58 0 0zm.14 5.23c.31 0 .6-.48.2-.6-.34-.12-.39.42-.2.6zm.09-26.3c.07-.1.1-.21.1-.33-.29-.14-.27.38-.1.33zm.1 15.7a.9.9 0 0 0-.22.09c.04 0 .47-.18.21-.1zm-.2 3.22c-.04.1-.03.18.03.26.16.05.25-.26-.02-.26zm0 1.03c.29.03.41-.11.38-.42-.31-.07-.44.08-.37.42zm.29-1.45c.3 0 .54-.22.84-.28 0 .88 1.8-.18.75-.7-.26-.13-.52-.01-.79-.03-.18-.02-.48-.2-.66-.17-.43.08-.6.9-.14 1.18zm.51-19.53c-.5-.74-.54.3-.8.6.45.01.15.14.47-.1.14-.1.33-.31.33-.5zm-.42-3.83c-.08 0-.35-.22-.28.14a.3.3 0 0 0 .28-.14zm.14 15.93c-.17-.17-.46.16-.33.28.08.07.5-.11.33-.28zm-.33-7.48c-.11.34.63.22.52-.14a.84.84 0 0 0-.52.14zm.52-2.99c.2-.2.15-1.16-.34-.89-.28.17.14.78.34.9zm1.35 2.85c-.27.16-.57.24-.81.37-.15-.1-.24-.08-.25.06-.04.1-.09.2-.15.28-.4.45-.7 1.07-.47 1.68.41-.17.64.14 1.03.18.05-.57-.02-1.16.14-1.72.3.6.9.34 1.18-.08.44-.66-.32-.41-.67-.77zm-1.54 5.75c.23.23.27-.08.16-.12l-.16.12zm0 10.75c.34-.08.08-.34 0 0zm.51-12.8c.7-.7-.72-.7-.35-.45.1.02.14-.03.12-.16.14.14-.07.6.23.6zm-.32 11.68c.38-.04.02-.48 0 0zm.09-19.49c.2.22.3.2.33-.1-.3 0-.07-.16-.33.1zm.33 8.04c-.23.23.08.27.11.16l-.11-.16zm-.1 13.18c.3.11.69.14.9.42.1-.68-.9-1.47-.9-.42zm.1-20.19c.23.1.6.04.6-.27-.02-.25-.42-.3-.51-.52-.13.25 0 .53-.1.8zm0 14.4c.33-.09.08-.35 0 0zm.51 8.26c-.51.51.4 1.19.88.72.56-.52-.17-1.44-.79-.95.16-.31-.27-.78-.45-.43-.12.23.26.5.36.66zm-.33-19.76c.15 0 .26-.06.33-.19-.17 0-.39-.05-.33.19zm.42 16.58a.5.5 0 0 0-.42-.5c-.06.36.27.27.42.5zm-.42-21.3c.62.25-.25-.86 0 0zm0 26.96c-.02.32.37.33.42.06.09-.41-.34-.06-.42-.06zm.24-3.93c0-.35.37-.26-.14-.6-.17.16-.05.5.14.6zm-.14-30.74c-.08.15.48-.73.14-.42 0 0-.32.51-.14.42zm.42 2.76c-.15 0-.29-.04-.42-.1-.14.36.47.26.42.1zm-.42 4.53c.22 0 .75.09.51-.36-.13-.24-.51.18-.51.36zm.42 9.25c.31.1.18-.38.44-.41.14-.02.3.47.3.6.18-.18.44-.02.61-.2-.26-.19.05-.56-.23-.73-.22-.13-.4.2-.6 0 .08-.27.37-.32.13-.56-.07-.08-.58-.07-.68-.03-.68.3.03.84.03 1.33zm-.19-7.8c.42 0 .72.04.6-.52-.15-.8-1.07-.03-.6.52zm.28 22.52c.04-.24-.17-.33-.37-.33-.09.25.12.58.37.33zm-.37-34.95c.88.44 0-.66 0 0zm.1 25.14c.97.24-.34-1 0 0zm.08-15.9c.15.4-.22.67.02 1.05.1.16.62.5.83.4-.25-.09.12-.2.09-.35-.07-.3-.43-.3-.56-.55-.12-.24.15-.54.05-.7-.2-.3-.24.2-.43.16zm-.09 5.52c.34-.08.08-.34 0 0zm.1-1.21c.19.02.32-.1.32-.33-.27-.07-.41.04-.33.33zm.18-6.87l-.16.14c.27.07.33.02.16-.14zm0 15c.05-.15.5-.47-.1-.33 0 .12.03.23.1.33zm.33 11.12c.29-.07.53-.29.45-.6-.1-.34-.4-.24-.64-.43-.09.39-.03.7.19 1.03zm-.19-8.27c.79.23-.25-.98 0 0zm.19 10.09c.07-.23.2-.5-.1-.6-.15.15-.14.52.1.6zm1.45-22.29c-.14-.6-.94-.32-.33.28-.44.11-.48.83-1.03.61.13.35-.53 1.14.3.9.48-.14.44-.8 1.06-.67.07-.35-.3-.14-.1-.5.17-.3.58-.36.84-.3.21.06.36.58.69.28.29-.26-.12-.5-.12-.67-.01-.3.1-.24.25-.53.17-.3.19-.43-.18-.44-.47-.02-1.06.76-1.38 1.04zm-1.64.61c.14.01.26-.02.38-.1-.15-.14-.38-.12-.38.1zm.19 2.85c.22.06.3-.15.42-.28a.74.74 0 0 0-.52-.1c-.01.14.02.27.1.38zm-.1 22.76c.24.23.28-.09.17-.12l-.16.12zm.43-20.19c-.37 0-.22.2-.32.3.01-.02.56-.06.32-.3zm.18 11.96c-.15-.07-.2-.9-.47-.46-.14.23.2.8.47.46zm-.51-28.36c.17 0 .38 0 .33-.23-.18-.05-.33.03-.33.23zm.19 36.26c0-.08.47-.18.3-.29-.18-.1-.54.1-.3.29zm.84-14.9c-.34 0-.34-.8-.85-.3-.52.53.4 1.04.85.3zm-.61 4.39c0-.22-.11-.32-.33-.29 0 .2.11.29.33.29zm.28 4.15c.1-.23-.12-.95-.51-.7-.41.26.16.78.5.7zm-.19 3c-.77-.52-.07.29 0 0zm-.1-5.52a.75.75 0 0 0-.22-.42c.05.17-.08.55.23.42zm.2-.7s-.23-.62-.3-.35c-.06.21.07.6.3.35zm-.2 6.91c.17.04.4.02.43-.18-.26 0-.06-.33-.33-.33.05.23-.19.28-.1.52zm0-19.62c.4-.04.04-.48 0 0zm.1-1.54c-.11.46.3.4.61.28-.09-.32-.31-.43-.6-.28zm0 3.97c.44.18-.02-.76 0 0zm.33 8.74c.03-.7-.6.15 0 0zm-.23-16.92c.75.3-.18-1.36 0 0zm0 8.5c.48-.03.03-.48 0 0zm0 11.74c.2.02.32-.08.32-.28-.41 0-.21.05-.32.28zm0 6.77c.19.22.3.19.32-.1-.3 0-.07-.16-.32.1zm.23-13.36c.14-.02.24-.1.28-.24-.17 0-.4.01-.28.24zm0 10.42c-.07.27.15.32.37.28.06-.53-.21-.28-.37-.28zm0-1.97c-.15.3.5.49.37-.09a.44.44 0 0 0-.37.1zm0-24.3c-.06.24.18.62.47.44.19-.11-.01-.35.04-.53-.17 0-.35.03-.51.1zm.51 30.75c.35-.17-.1-.98-.45-.83-.16.07.28.83.45.83zm-.23-7.05c0-.16-.06-.27-.19-.33 0 .19.06.3.19.33zm.33-17.8c.04-.05.63-.13.34-.28-.08-.04-.56.06-.52.16l.18.11zm-.1 23.45c.94.4.86-.75.1-.75.06.3-.2.43-.1.75zm.19-20.7c.54 0 1.26-.43.51-.95-.69-.48-1.02.57-.51.95zm-.1 19.44c.4-.02 0-.44 0 0zm0-14.63c0 .65.36-.17.1-.09.01.09-.02.12-.1.1zm.61 4.96c.03-.25-.12-.5-.42-.42-.31.08.05.64.42.42zm-.23-11.31c-.16-.32-.33.32-.26.26.06-.05.53 0 .26-.26zm-.28 17.8a.3.3 0 0 0 .02.28c.15.1.24-.21-.02-.28zm0-23.97c.4-.04.82.04 1.22-.1-.1-.23-.19-.27 0-.5-.5-.17-1.16 0-1.22.6zm.93 8.74c0 .61-.94.26-.94.8 0 .56.59-.05.8-.1.13.45.48.68.56 1.13.06.37-.2.91.4.97.84.09.41-1.38-.2-1.5.87-.25.37-1.13-.13-1.5-.14-.1-.48-.36-.65-.33-.49.1.04.34.16.53zm-.93 2.24c.58.1.7.3.7-.42-.3 0-.7.03-.7.42zm.1-20.18c.12.04.23.1.32.18a.7.7 0 0 0 .1-.42c-.16 0-.39.05-.43.24zm0 14.86c.18-.06.47.2.5-.1-.24.05-.3-.21-.5.1zm0 24.06c.05 0 .32.03.32-.1a.88.88 0 0 0-.33-.18v.28zm.32-14.81c.2-.2-.09-.33-.23-.42-.18.18 0 .47.23.42zm-.23 14.1c-.15.73 1-.24 0 0zm.09-5.97c.43.24.5-.24.84-.38-.28.12-.84-.08-.84.38zm.42 3.69c.34-.23.16-.85.23-1.22-.7-.12-.82 1.07-.23 1.22zm-.1-12.66c.2 0 .49-.02.62-.2-.26-.1 0-.3-.23-.42-.05-.02-.57-.04-.57 0 .32.09-.08.53.19.62zm-.18 3.69c.15.3.23-.07.32-.08-.03 0-.32-.2-.32.08zm.1-12.71c.79.2-.26-.86 0 0zm.18.8c-.39.03-.03.47 0 0zm-.19.74c.4-.04.03-.48 0 0zm.2 17.9l-.2.42c.24.04.48.1.7.18a.7.7 0 0 0-.5-.6zm0 4.53c-.04-.48-.4-.04 0 0zm-.1-17.01c.34-.08.08-.34 0 0zm.1-5.75c.2.03.32-.06.32-.28-.22-.03-.33.07-.33.28zm.32 6.87l.07-.14c-.03-.08-.4-.06-.4.05l.33.1zm-.33 8c.31 0 .45-.1.42-.29-.28-.03-.42.06-.42.28zm.1-3.47c.04.14-.23.7.04.73.24.04.06-.24.16-.34.47-.43.2-.02.64.31-.45-.08-.44.74.1.6.55-.14-.18-.52.08-.78.17.33.39-.2.66 0-.07-.32-.33-.49-.24-.84-.24.04-1.6-1.18-1.32-.43.11.29.53.12.59.35.07.27-.52.55-.72.4zm0-1.35c.29.06.25-.16.32-.38-.3-.07-.42.07-.33.38zm.13-18.78c.34-.09.09-.34 0 0zm.38 10.79c-.03-.07.27-.41.23-.42-.33-.07-.16.24-.42.33a.34.34 0 0 0-.19-.33c0 .22.14.42.38.42zm-.28 7.38c0-.2.26-.05.19-.28-.32-.05-.35.28-.2.28zm.19 8.7c-.27.26-.05.68.28.46.33-.24-.02-.52-.28-.47zm0-.24c.28 0 .7.04.65-.41-.09-.67-1.12-.14-.65.4zm-.1-16.54c.2.12.62.03.43-.28-.19-.3-.53.03-.43.28zm.33 21.4c0 .26-.22.4-.33.6.27.06.61.48.86.19.22-.27-.26-.8-.53-.8zm-.23-23.27c.2 0 .21.7.5.14.23-.41-.45-.48-.5-.14zm.09 20.37l.23-.28c-.23-.06-.49.04-.23.28zm0-4.2c.75.22-.05-.58 0 0zm0 4.62c0 .24.13.47.4.33.36-.18-.1-.63-.4-.33zm.23.84c-.24.16-.1.57-.1.8.39-.13 1.05.24 1.24-.29.09-.23-.01-.36-.2-.52-.11-.1-.52-.25-.26.03-.05.1-.57-.04-.68-.02zm.1-13.92c.4-.03 0-.53 0 0zm0-9.53c.38-.04.02-.48 0 0zm.09 3.45c.2.05.33-.05.33-.28-.25-.07-.4.01-.33.28zm0 13.83c0 .51.62 1.09 1.07.67.83-.76-.62-.86-1.07-.67zm.1-22.33c.08 0 .36-.01.32-.19-.16-.02-.26.05-.33.2zm.23 30.75c.55-.12.54-.45.6-.94-.53.05-1.01.4-.6.94zm-.1-5.14c.14.6 1.2.62 1.03-.1-.13-.54-1.09-.56-1.03.1zm.1-14.2c.38-.05.02-.49 0 0zm.42-14.17c-.17-.16-.46.16-.33.28.08.07.5-.11.33-.28zm0 11.87c-.1-.05-.52.18-.33.32.1.07.49-.16.33-.32zm0-5.6c-.1-.03-.23 0-.33 0 0 .74.64.47.33 0zm-.14 27.84c-.01.02.5-.36.14-.37-.25-.01-.46.3-.14.37zm-.1-30.84c-.03.33.2.99.63.8.56-.24-.12-.62.12-.98-.33-.08-.44.18-.75.18zm0 11.92c0 .53.94 0 0 0zm.24 5c.33.08.59-.13 0-.28v.28zm0 6.63c-.08.35.3.41.37.24.2-.43-.4-.27-.37-.24zm0 3.7c.33-.09.08-.34 0 0zm.18 1.96c.16-.16.11-.37-.09-.42-.16.16-.1.37.1.42zm.1-26.12c-.08-.34-.34-.08 0 0zm.09-.6c.07-.2.38-.07.33-.34-.04-.18-.47-.18-.52 0 .2 0 .05.26.19.33zm-.1 8.17c.49-.03.05-.4 0 0zm.24 3.18c.07-.12.1-.24.1-.38-.37-.12-.41.38-.1.38zm.37-10.24a.53.53 0 0 0-.37-.42c0 .06-.03.33.1.33.06-.32.12.17.27.1zm-.37 4.82c.67.14-.14-.7 0 0zm.28 6.07c.1-.14.74-.63.06-.61-.34 0-.33.48-.06.6zm0 16.17l-.1.18c.92.18.02-.73-.18-.32l.28.14zm-.1-26.54c.62.24-.25-.86 0 0zm0 2.75c.28.11.36-.09.61-.09-.14-.72-.6-.61-.6.1zm0 3.7c0 .22.17 1.05.53.5.23-.36-.2-.64-.52-.5zm.1-12.01c.28 0 1.08-.22.86-.6-.27-.45-.94.22-.86.6zm0 3.5c.75.22-.05-.58 0 0zm.33 7.9c.16-.16.1-.37-.1-.42-.16.16-.1.37.1.42zm.1 5.32c.48.19 1.4-.1.87-.74-.45-.55-1.3.17-.88.74zm.41-29.76c-.28-1.1-.82.4 0 0zm.19 26.91c-.3.08-.33.02-.6-.09-.2.33.4.55.5.8.22-.22.55-.7.37-.99-.22-.35-.45.05-.27.28zm-.52 11.36c-.1.29.67.46.52-.14a.84.84 0 0 0-.52.14zm.43-3.27c-.32-.16-.3.26-.32.29.01-.02.56-.05.32-.3zm0 9.3l.09-.29-.42-.14c0 .26.17.27.33.42zm.09-15.84c.09-.27-.23-.78-.4-.36-.12.3.18.42.4.36zm-.19-3.18c.8.2-.25-.86 0 0zm0 9.1c.34-.07.08-.33 0 0zm0 3.37c.21.21.42-.05.52-.23-.13 0-.52 0-.52.23zm.1 7.15c-.05.1-.04.18.02.26.15.05.23-.26-.02-.26zm0-26.91c.38-.04.02-.48 0 0zm.09 2.34h.33c0-.2-.14-.31-.33-.29v.29zm.51-1.22c.2-.26 0-1.04-.42-.75-.33.24.1.8.42.75zm-.09 24.9c.34.1.63-.1.51-.49-.18-.64-.9.01-.51.5zm.33-19.15c.15-.15.05-.75-.24-.52-.27.22-.01.47.24.52zm.09-3.18c-.85-.41-.12.59 0 0zm.1 6.03c.02-.31-.15-.44-.52-.38-.06.32.1.44.51.38zm-.43-7.8a.3.3 0 0 0 .03.27c.13.1.23-.2-.03-.28zm.1-3.88c.14 0 .25-.06.32-.2-.17 0-.39-.05-.32.2zm0 25.41c.15 0 .3-.04.42-.14-.1 0-.42-.5-.42.14zm.84 1.13c.23-.16.57-.46.28-.75-.23.38-.98.03-1.12.33.29.11.52.36.84.42zm-.7-11.97c.38-.04.02-.48 0 0zm.09 10.2c.34-.09.08-.35 0-.01zm.19-33.42c1.07.24-.29-.85 0 0zm0 32.2c.32.06.2-.34.32-.52-.33-.06-.32.29-.32.52zm.09-22.2c.22 0 .6.42.42-.23-.19-.03-.36.04-.42.23zm0 8.08c.2.07.62.4.75 0s-.67-.4-.75 0zm.23-7.61c-.24.3 0 .8.38.78.42-.04.38-.57.42-.87-.26.15-.55-.08-.8.09zm.28 2.9c.65 0-.18-.35-.09-.1.09 0 .12.02.1.1zm.52 20.18c.05-.28.06-.41-.21-.42-.43-.01-.2.5.2.42zm0-18.83c1.62 0-.63-1.87 0 0zm-.1 17.29c-.04.1-.03.18.03.26.16.05.25-.26-.03-.26zm0-.42c.34-.08.09-.34 0 0zm.1 2.33c.48-.02.04-.38 0 0zm.23-33.5c.24 0 .47-.13.33-.4-.18-.34-.7.09-.33.4zm.52 15.6c-.14-.03-.57-.06-.47.21.1.28.51.07.47-.2zm-.14 21.22c-.24 0-.02.43.18.4.36-.06 0-.85-.37-.73 0 .15.06.26.19.33zm.42-19.76c-.16 0-.36-.43-.42-.1.2-.1.27.47.42.1zm.23-1.64c-.17 0-.25-.14-.42-.14-.12.35.35.47.42.14zm-.42-3.6c.17.07.8.28.57-.2-.16-.33-.62-.15-.57.2zm.1 22.62c.33-.08.07-.34 0 0zm.09-1.31c-.57.57 1.02.68 0 0zm.09 1.64c-.19 1.47 1.71-.06.42-.42.11.4-.23.23-.42.42zm.51-3.5c.09-.21-.28-.62-.37-.43.22.15-.02.55.37.42zm-.37 5.93c.67.14-.14-.7 0 0zm.1-3.37c0 .15.54.15.41-.33-.2 0-.45.07-.42.33zm.5-22.43l.1-.32c-.15 0-.3.05-.42.14.12.04.23.1.33.18zm.2 20.89c-.1.05-.45.02-.52.1.14.13.64.27.51-.1zm-.52 4.02c.48-.04.04-.49 0 0zm.1-41.54c.86.23-.22-.78 0 0zm.13 34.86c.34-.08.08-.34 0 0zm.1 2.05c.39-.04.02-.48 0 0zm.18-19.44c.02.01.79.53.5-.02-.15-.26-.42-.26-.5.02zm0 16.87c.16.14.27.1.33-.1-.28-.18-.39-.15-.33.1zm.33.61c.03-.7-.55.14 0 0zm.1 2.66c.28.06.56-.3.18-.42 0 .28-.31.1-.19.42zm.09 2.06c.21 0 .47-.22.1-.28l-.1.28zm.1.84c.31.13.13-.3.32-.42-.35-.1-.4.12-.33.42zm.13-41.73c.5.09.75-.43.22-.55-.33-.07-.46.32-.22.55zm0 40.1c.39-.05.03-.49 0 0zm.28 1.12c0-.27.28-.63-.1-.75.05.27-.18.58.1.75zm.1-20.47c.38.07 1.2-.23.74-.75-.4-.46-1.28.22-.74.75zm-.1-19.53c.04.42.5.51.84.51-.05-.33-.49-.72-.84-.51zm.42 38.03a.51.51 0 0 0-.32-.09c-.15.28.38.27.32.1zm-.32-21.49c.27.34 1.34 1 1.16.02-.11-.6-1.07-.66-1.16-.02zm0 23.74c.13.02.94.18.65-.19-.2.2-.56-.11-.65.19zm.23-.28l.04-.14c.12-.04.17.23.24.23.32-.33-.29-.33-.37-.51-.04.15 0 .3.09.42zm0 1.96c-.38.94.64.32.8.37-.14-.33-.45-.6-.8-.37zm.1-38.27c.25.26.76-.09.5-.37-.22-.25-.5.2-.5.37zm.18 30.98s.3-.46-.1-.33c-.02.13.02.24.1.33zm.23 3.55a.54.54 0 0 0-.09-.37c-.15.14-.12.37.1.37zm.1-.6c-.13-.13-.2-.12-.24.02.04.14.12.13.24-.03zm.8-.94c.1-.41-.38-.29-.38-.19.35 0-.04.35.37.19zm.41 1.26c.13-.1.13-.22 0-.33 0 .18-.19.2 0 .33zm.24 2.06c.44.05.5-.69 0-.52 0 .23.18.33 0 .52zm.18-3c.34-.08.08-.33 0 0z"/></svg>