<svg xmlns="http://www.w3.org/2000/svg" viewBox="0 0 209.84 46.93"><path d="M100.5 8.03c.65-.05 2.39-1.46 1.92.19.27-.1 1.03-.43 1.3-.21.4.32-.02 1.42-.14 1.79-.16.48-.36.99-.55 1.39-.24.47-.13 1.08-.25 1.67-.14.62-.44 1.2-.57 1.82-.16.74-.36 1.44-.55 2.16-.37 1.4-1 3-.99 4.47.01 1.55.7 3.25 1.06 4.76l1.2 4.96c.14.62.56 1.54.44 2.18-.01.07-.14.24-.14.28 0 .32 0 .08.1.2-.06-.07.22-.05.29.01.12.11.08.47.1.62.1.73.26 1.44.45 2.15.42 1.6.65 3.28 1.13 4.85.54 1.7 1 3.62 1.23 5.4h-7.92c-.72 0-1.92.35-2.16-.47-.26-.9-.3-1.96-.47-2.9-.98-5.26-2.15-10.48-3.1-15.74-.05.74-.13 1.48-.16 2.23-.02.6.14 1.24.08 1.82-.04.3-.26.55-.27.75 0-.04.25.17.29.25.09.23-.04.79-.06 1.02-.28 2.96.05 6.03.08 9.01 0 .9.05 1.8.08 2.7.02.78.15 1.37-.74 1.38-.65.01-1.06-.1-1.34-.73-.21-.47-.27-.88-.79-1.17-.5-.29-.24.12-.25.12-.36.27-1.16 1.17-.7 1.63-1.04.09-2.07 0-3.1.02-.33 0-.64.12-.97.14-.62.05-1.24-.1-1.86-.06 0-2.33-.04-4.66-.04-6.99 0-1.1-.03-2.21.04-3.31.02-.4-.05-.38.2-.45.26-.06.67.43.69-.3 0-.43-.5-.78-.9-.59.05-.62-.13-1.3.03-1.91.06-.2.36-.54.37-.7 0 .1-.29-.02-.33-.1-.15-.3-.12-.82-.1-1.12.04-.65.1-1.12.05-1.78-.16-2.24.08-4.57.07-6.83-.02-4.72-.06-9.44-.1-14.16-.01-2.22.05-4.45 0-6.67-.02-.37-.24-1.4.08-1.68.36-.3 1.28-.02 1.71 0 2.23.1 4.49 0 6.72 0 .23 0 .54-.04.76 0 .61.12.26-.1.38.36.12.48.03 1.16.04 1.66.03.96.25 2.3-.07 3.22-.08.24-.34.37-.42.56-.18.46.18.4.38.7.22.34.07.91.06 1.3V17.56c.7-2.4 1.24-4.84 1.73-7.29.27.16 1.03.03.94-.4-.08-.4-.58-.17-.7-.55-.09-.26.4-1.43.46-1.66l.53-2.29c.13-.56.19-1.27.4-1.81.1-.26.09-.29.3-.45.13-.1.38.15.5-.18.07-.22-.39-.39-.45-.66-.09-.4.24-1.01.35-1.4.15-.53.12-.7.72-.77.6-.08 1.38-.06 1.97-.03.29.02.54.05.81.16.16.06.34.28.53.28.49-.01.06-.19.34-.38.24-.16.85 0 1.14 0 .55 0 1.49-.28 1.98 0 .24.14.25.56.5.66.28.1 1.15-.41.66-.66.73 0 .33.8.33 1.22-.33-.08-.48-.67-.76-.04-.23.5.29 1.15.25 1.67-.3 0-.8.06-1.06-.07-.45-.22-.42-.63-.6-1.03-.22-.47-.95-1.03-1.37-.4-.6.92 1.06.88 1 1.51-.03.38-.66.41-.93.44-.59.06-.69.16-1.16.42-.15.08-.89.1-.93.16-.18.22.3.4.4.44.5.26 1.2.21.95.96-.05.15-.3.7-.39.8-.2.23-.63.15-.86.41-.05.07.23.1.15.22-.25.35-1.27.65-1.65.77.24.07 1.55-.59 1.62-.42.05.13-.21.22-.08.42.27-.2.7-.1.89-.42.18.3-.72.58-.8.84zM83.6 27.79c-.02-.1.15-.54-.18-.4-.27.13-.13.5.18.4zm-.23 6.26c.27.05.45-.05.6-.28-.26 0-.32-.2-.51-.32 0 .21-.14.38-.1.6zm.09.84c.32.05.63.01.93-.09-.16-.21-.25-.52-.51-.65-.06.32-.47.38-.42.74zm0 5.2c.33 1.43 2.26-.06.93-.94-.12.5-.93.32-.93.93zm.23-10.76c.08-.1.1-.2.04-.31-.08-.12-.03-.19.15-.2-.29-.06-.57.45-.19.51zm.1 14.12l-.2-.2c-.03.07 0 .28.04.33.1.03.15 0 .16-.13zm-.2-33.27l.29.1a.34.34 0 0 0-.19-.34l-.1.24zm.1 35.65c-.09.36.55.43.38-.14a.5.5 0 0 0-.38.14zm0-8.04c.34-.08.08-.34 0 0zm.19-1.35c0-.18.19-.2 0-.33 0 .17-.2.2 0 .33zm0-8.04c.1.2.5-.2.49-.21-.02-.02-.52.14-.5.21zm.19 2.48c.06-.27.19-.3-.1-.42-.14.13-.13.42.1.42zm-.2 2.15c.35-.09.09-.34 0 0zm.1 10.74c.34.08 1.02-.58.52-.75-.11.27-.83.45-.52.75zm0-2.38c.48-.03.04-.39 0 0zm.1-2.43c.24 0 .26-.2.51-.14 0-.56-.72-.37-.51.14zm0-5.84c-.06.47.36.44.65.65-.08-.4-.13-.94-.65-.65zm0 1.87c-.04.13-.04.43.16.35.19-.08.12-.63-.16-.35zm.42 7c.2-.33-.42-.28-.42-.09.13.06.27.09.42.1zm-.42 1.17c.21-.03.37-.22.42-.42-.14-.06-.28-.09-.42-.09v.51zm.14-17.52c.33-.08.08-.33 0 0zm.18 5.84c.13-.21.12-.3-.02-.25-.14.04-.13.13.02.25zm-.09-6.96c.11.93 1.78.81 1.65-.2-.13-1.03-1.88-.94-1.65.2zm.51-5.14c.38-.28.15-1.26-.37-.82-.34.3-.02.82.37.82zm.52 16.54c-.27 0-.6-.84-.97-.48-.52.49.76.59.97.48zM84.29 46.2c.34-.08.08-.34 0 0zm.51-5.6c-.13.2-.83 1.3-.04 1.09.29-.07.41-.86.46-1.1a1.88 1.88 0 0 0-.42 0zm1.22 2.42c-.34.34-.94.35-1.12.85-.07-.17-.8.17-.19.63.31.23 1.03 0 1.03.58.34-.14.03-.43.2-.64.16-.21.26 0 .5-.06-.31-.38-.38-.89-.42-1.36zM84.7 34.8c.06-.26-.09-.52-.33-.23.26 0 .05.3.33.23zm-.14 10.89c.27.06.4.05.42-.19.06-.53-.85-.24-.42.19zm-.1-13.36c0 .75.3.21.52 0-.17-.16-.34-.16-.51 0zm0 4.8c0 1.3 1.15-.45 0 0zm0 5.52c.89.39.11-.54 0 0zm.1-13.08c.22 0 .48-.26.14-.33-.06.1-.1.21-.14.33zm0 12.66c.48-.04.04-.48 0 0zm.14-15.56c.34-.08.08-.34 0 0zm0 3.27c-.01.65.35-.18.1-.1 0 .1-.03.12-.1.1zm0 1.96c.21-.01.5-.26 0-.28v.28zm0 14.44c.39-.04.03-.48 0 0zm1.22-36.68c-.62-.17-.64.3-1.13.42.36.18.99-.01 1.13-.42zm-.7 29.16c.03-.15.02-.37-.17-.34-.17.02-.14.65.16.34zm-.15 7.29c.04.28.04.22-.02-.19l.02.19zm.14-.94c.54 0-.14-.39-.14-.09l.14.1zm.7-6.44c.39-.39.32-1.4-.41-1.08-.74.3-.24 1.15.42 1.08zm-.7-9.58c-.03.22.26.44.38.18.18-.4-.3-.18-.38-.18zm.38 10c-.67 0 .03.1 0 0zm-.19 3.78c1.32-.22-.43-1.3 0 0zm-.1-7.85c.35-.08.09-.34 0 0zm.29 1.45c.32-.26-.2-.4.14-.6-.32.05-.55.47-.14.6zm.33 3.22c-.26-.02-.76.27-.52.61.25.36.86-.2.52-.6zm-.52-9.9c.01.22.27.6.33.07.04-.32-.2-.04-.33-.07zm.19 1.77c-.12-.29.13-.2.23-.42-.13 0-.17-.2-.3-.03-.14.2-.16.34.07.45zm0 .28l-.07.24c.26.08.38-.26.07-.24zm-.1 13.93c.49-.04.04-.48 0 0zm.33-41.91a.33.33 0 0 0-.23-.33c-.28.28.06.39.23.33zm.19 41.49c.5-1-.6-.1 0 0zm-.1-4.02c-.1.34.45.46.53.18.1-.31-.36-.21-.52-.18zm0-6.59c.4-.04.03-.48 0 0zm.85.38c-.72.09-1.1 1.1-.26 1.34 1.16.34.24-1 .44-1.2.38.37 1.04-.54.57-.9-.44-.33-1.12.3-.75.76zm-.75-20.1c.48-.02.04-.38 0 0zm.23 24.9l.1-.23c-.3 0-.07-.16-.33.1l.23.14zm1.03-13.59c-.14-.7-1.06-.41-1.16.15-.14.92 1.35.63 1.16-.15zm-1.17 8.08c.48-.02.04-.38 0 0zm.84 5.38c.07-.22.02-.5-.28-.38-.32.14-.06.44.28.38zm-.09-7.43c-.17 0-.2-.2-.33 0 .18 0 .2.19.33 0zm.1 11.26c-.19-.36-.35.14-.31.13.06-.01.46.1.3-.13zm-.33-30.04c.74.22-.06-.58 0 0zm0 23.31c.34.07.6.39.65-.14-.28-.05-.44-.07-.65.14zm.14 1.08c.37.22.65.98 1.12.51a.33.33 0 0 1-.33-.23c.37 0 .52-.46.3-.72-.35-.42-1 .03-1.1.44zm.09 3.08c.59-.3 0-.3 0 0zm.1-7.34c.2.22.66.12.58-.2-.1-.42-.54-.03-.59.2zm.18 7.95c.48-.04.04-.49 0 0zm.65 3.08a.98.98 0 0 0-.51-.14c-.1.57.51.68.51.14zm-.51-22.94c.31.06.44-.08.37-.42-.28-.03-.4.1-.37.42zm.1 20.88c-.12.53.33.6.6.94.31-.5.06-1.3-.6-.94zm0-1.44c.23.05.4.63.6.15.16-.36-.5-.57-.6-.15zm.09-32.24c-.08.4.69.46.51-.14a.73.73 0 0 0-.51.14zm.09-6.78c.2.06.5-.08.33-.33-.19-.25-.38.15-.33.33zm0 27.9c.13.07.27.1.42.09.07-.46-.24-.46-.42-.1zm.23 9.39c.33.02 1.12-.36.6-.67-.47-.28-.87.25-.6.67zm.61-2.95c.7 0 .43-.9-.12-.9-.68-.01-.38.9.12.9zm-.51 9.4c.42.06.92-.42.35-.67-.42-.19-.64.38-.35.67zm.37-10.94c.17-.42-.2-.14-.37-.28.17.14-.13.38.37.28zm-.37 5.1c-.07.52.88 0 0 0zm0-12.67l.28.1c.02-.16-.05-.27-.19-.33l-.1.23zm.1-22.29c.77 0 1.86.01 2.14-.88-.83-.3-1.63.29-2.15.88zm.27 35.75c.06-.23-.03-.35-.28-.28 0 .18.07.35.28.28zm-.1-6.92c.2 0 .25-.01.34-.18a.51.51 0 0 0-.33-.1v.28zm0 1.27c0 .52.36.15.52 0-.17-.16-.34-.16-.51 0zm.43 2.7c-.13-.03-.3 0-.42 0 0 .31.54.38.42 0zm-.42 5.75c.61.25-.26-.86 0 0zm.33-6.73c.11-.76-.62.16 0 0zM88.26 3.4c.3.25.87.2.86-.28-.01-.54-1-.39-.86.28zm.14 26.03c.24 0 .26.35.59.18.2-.1.29-.5.14-.68-.31-.35-.86.1-.73.5zm.1 11.03c.12.03.29 0 .42 0 .06-.38-.55-.38-.42 0zm0 2.8c.38-.04.02-.48 0 0zm.5-37.1c.04-.28-.32-.44-.42-.18-.08.2.3.3.43.18zm-.22 37.9c.41.24-.01-.8 0 0zm.14-2.95c-.05-.13.3-.39.18-.42-.26-.08-.45.35-.18.42zm.09-.65l.28.14c.03-.17-.04-.27-.19-.33l-.1.19zm.28-16.26c.49.08 1.3-.5.82-.98-.5-.5-1.4.52-.82.98zm.65 11.4c.28-.96-.33-.6-.84-.8.15.5.24.9.84.8zm-.42-3c.07-.25-.06-.35-.32-.27 0 .2.12.3.32.28zm0-.88a.33.33 0 0 0-.23-.33c-.28.28.06.39.23.33zm-.23 9.39c.2.03.4-.08.33-.33-.27-.07-.42.04-.33.33zm.84 1.4c0-.5-.86-.25-.89.13-.07.98.8.01.89.01 0 .84 1.2 1.09 1.44.23.19-.66-.65-.8-1.02-1.16-.1.27-.1.66-.42.8zm-.6-22.2c.36 0 .96-.42.57-.77-.4-.36-.9.4-.58.78zm-.1 19.77c-.08.39.33.39.49.63.12.18-.01.31.15.45.2.17.38.2.5-.07.11-.3-.36-.5-.53-.63.69-.35-.47-.72-.61-.38zm.1-32.7c.76.19-.22-.76 0 0zm0 30.08c.38-.04.02-.48 0 0zm.09 2.3c.36.06.78-.43.3-.6-.36-.14-.4.35-.3.6zm.42-10.2a.53.53 0 0 0-.33-.13c-.14.34.38.29.33.14zm0-8.54c-.15-.1-.24-.08-.28.07.08.12.17.1.28-.07zM89.94.83c.38.38.88-.2.57-.53-.29-.32-.67.23-.57.53zm0 35c-.07.36.37.62.19.98.24-.14.68-.46.6-.8-.07-.33-.56-.4-.79-.18zm.1 2.99c.21 0 .72-.3.38-.53-.3-.2-.6.38-.38.53zm.42-24.95c-1-.29.11.93 0 0zm-.14 30.18c.2-.74-.75.19 0 0zm-.28-13.17c-.03.3.04.73.3.94.12.1.22.1.36.16.08.01.16 0 .24-.04.13-.08.2-.03.22.15.06-.36.68-1.34.1-1.58-.2-.08-1.08.22-1.22.37zm.28 11.02c-.34.04-.37.21 0 .33v-.33zm.51-6.72l-.28.14c0-.07-.07-.9-.28-.48-.05.11-.04.14 0 .27.07.27.5.44.56.07zm-.51-29.72c.18.18.83.14.64-.25-.15-.32-.6-.01-.64.25zm.23 32.47c.16 0 .38-.04.42-.23-.3-.06-.42-.15-.42.23zm.28 6.96c.19-.18-.02-.3-.19-.42-.02.17.02.35.2.42zm-.19-5.42c.06.25.48.57.61.2-.34 0-.29-.58-.6-.2zm.1-36.16c.22.22.91.11.75-.33-.18-.44-.75 0-.75.33zm.75 25.84c-.18-.04-.39-.03-.45.1-.14.3.52.25.44-.1zm-.43 8.88c.38.06.7 1.2 1.06.33.16-.4-.05-.44-.32-.55-.09-.04-.3.06-.4.04-.04 0-.06-.24-.1-.28-.22-.14-.24.45-.24.46zm.29 6.44c.18-.18-.03-.3-.2-.42-.14.22-.08.48.2.42zm.32-.51c.59.11 1.04-.42.54-.88-.57-.54-.8.45-.54.88zm.19-7.43c-.23-.23-.27.08-.16.12l.16-.12zm.23-21.45c.43.07.8-.53.34-.7-.44-.16-.68.45-.34.7zm.19 18.79c-.67 0 .03.1 0 0zm-.19 3.6c.26 0 .38.05.38-.24-.15 0-.38.04-.38.23zm.1 3.22l.28.1c.02-.17-.04-.28-.19-.33l-.1.23zm.18 4.2c.24 0 .46-.2.1-.32l-.1.32zm.1-1.73c-.05-.13.31-.39.23-.42-.24-.07-.46.35-.23.42zm1.26-23.68c-.02.3.25.98.7.74.54-.28-.1-1.2-.7-.74zm0 3.08c0 .49.42.33.42-.1a.93.93 0 0 0-.42.1zm.8 6.17c-.68 0 .02.1 0 0zm.23 1.03c-.23-.06-.1-.32-.33-.43-.24-.1.09.9.33.43zm-.42 2.33c.33-.08.08-.34 0 0zm0 1.96c.33-.08.08-.33 0 0zm.42 1.45c.05 0 .23.02.28-.02-.06.06-.4-.7-.57-.56-.14.12.29.47.29.58zm-.1-1.63c.26 0 .35.44.61-.1-.15-.15-.53-.14-.6.1zm.1-23c-.05.26.3.43.51.34.25-.12-.1-.61-.51-.33zm.28 22.06c1 .23-.15-.74 0 0zm0-6.77c.76.23 0-.75 0 0zm.14 10.8c.27.01.4-.18.09-.34-.07.1-.1.21-.1.33zm.28-.43c1.18.2.29-.8.51-1.35-.52-.15-.88.99-.51 1.35zm-.1-5.05c.19 0 .3-.06.33-.18-.25 0-.36.06-.33.18zm.1 8c0-.06.22-.41-.1-.33-.02.12.01.23.1.32zm.23-24.4c.22.23.7.06.71-.28.02-.49-.92-.41-.71.28zm.28 7.1c.24.05.33-.08.33-.32-.27-.07-.42.03-.33.33zm.23 14.77l.2.1c0-.3.16-.07-.1-.33l-.1.23zm.7-25.65c.25 0 .72-.3.33-.55-.3-.2-.58.3-.33.55zm-.09-1.87c.1.03.26 0 .38 0 .12-.38-.5-.37-.38 0zm.38 33.22c.12-.31-.12-.16-.29-.33-.02.2.08.33.29.33zm-.1-13.4c.48-.04.04-.4 0 0zm.1 2.37c.86 0 0-1.02 0 0zm0 .8h.32a.32.32 0 0 0-.32-.33c-.02.11-.02.22 0 .33zM97.33.83c.22 0 .56-.33.26-.45-.3-.12-.44.23-.26.45zm.09 7.3c-.17.2.4-.27-.15.18a1 1 0 0 0 .38-.21c-.08-.07-.16-.06-.23.02zm1.03 26.02c-.08-.2-.23-.12-.37-.22-.2-.16-.26-.63-.68-.2-.23.23-.1.73.28.73.35 0 .36-.48.77-.31zm-.84 1.26c.01-.16-.05-.27-.2-.33-.21.23 0 .4.2.33zm-.2 7.24c.39.1.18-.07.29-.24.06-.1-.4-.13-.28.24zm.1-11.77c.34-.08.08-.34 0 0zm.1-25c.48-.04.03-.48 0 0zm.23 39.53c.18-.18 0-.47-.23-.42 0 .16.04.38.23.42zm-.14-.94c.48-.02.04-.39 0 0zm.23-3.17a.3.3 0 0 0 .28-.2c-.17 0-.33-.03-.28.2zm0-38.83c.16.16.37.1.42-.1-.13-.13-.42-.13-.42.1zm0 6.59c.19.62 1.07.62 1.03-.08-.03-.63-1.03-.53-1.03.08zm.1 23.36c.33-.08.08-.34 0 0zm0 10c.2-.08 1.13-.11.6-.56-.5-.43-.45.4-.6.56zm.09 2.75c.48-.02.04-.38 0 0zm.1-42.19c.84.29-.27-1.04 0 0zm.41 33.22c.2-.13.1-.65-.18-.51-.22.1-.14.64.18.51zm-.28 10.33c.28.07.56-.12.38-.43-.2-.34-.42.17-.38.43zm.38-8.6c0-.35-.4.17-.3.14.06-.02.45.1.3-.14zm0 7.66c.2-.74-.75.2 0 0zm-.19-4.8c-.04.09-.03.17.02.25.17.05.26-.26-.02-.26zm0-5.9c.39-.04.03-.48 0 0zm.1-2.47c.47-.03.04-.39 0 0zm.23 7.43c0-.03.57-.58-.05-.59-.26 0-.26.59.05.59zm-.14-21.5l.23.14c.27-.66-.1-.01-.06-.31a.85.85 0 0 0-.17.17zm0 14.91c.28 0 .42-.08.42-.23-.25 0-.4.07-.42.23zm.14-18.36c.32.05.37-.2.51-.42-.24 0-.14-.26-.42-.15-.23.09-.26.4-.1.57zm.18 17.7c.27.14.44-.37.2-.37l-.2.38zm.1-1.12c.48-.02.04-.38 0 0zm.1-25.6c.34.24 1.2.2.69-.34-.32-.33-.54.1-.7.34zm.13-4.11c-.04.3.26.38.39.18.11-.19-.27-.36-.39-.18zm.38 38.22c0-1.15-.62.12 0 0zm.32-27.66c.55-.25.58-1.23-.1-1.18-.72.06-.62 1.18.1 1.18zm-.51 18.27c.39-.05.02-.49 0 0zm.7 6.21c-.15.25-.53.47-.51.79.02.3.43.58.74.47.56-.2.25-1.14-.23-1.26zm-.28-6.96c.47 0 .14-.28 0 0zm0 11.77c.39-.04.03-.48 0 0zm.28-23.64c.38-.1 1.47-.75.57-1.06-.57-.2-1.05.68-.57 1.06zm-.1 15.65c.16.03.27-.03.33-.18-.25 0-.36.06-.32.18zm0-24.71c.2.08.7-.14.33-.28 0 .28-.32.04-.32.28zm.61 27l-.28-.23c-.32.32.28.58.28.23zm-.37-32.84c.67.14-.14-.7 0 0zm.37 30.55c.48-.02.04-.38 0 0zm1.36-30.65c-.2-.1.04-.74-.09-.96-.14-.24-.8-.53-1.03-.31-.47.43.67 1.39 1.12 1.27zm-1.26 43.36l.32.1a.33.33 0 0 0-.18-.33l-.14.23zm.23-2.29c.55.1.1-.47 0 0zm1.54-10.7c0-.05.23-.4-.1-.32-.01.12.02.23.1.32zm.42-30.27c-.14.04-.2-.25-.27-.23-.18.08.18.4.18.39l.1-.16zm.28 32.84c-1.31.11.35 1.15 0 0zm-.42 9.9l.24.1c0-.3.16-.06-.1-.33l-.14.24zm.14-2.37c0-.21.1-.1.19-.18a.37.37 0 0 0-.19-.25c.07.14-.17.32-.13.4l.13.03zm2.25.93c-.3.36.68 1 .6.22-.04-.32-.34-.48-.6-.22z"/></svg>