<svg xmlns="http://www.w3.org/2000/svg" viewBox="0 0 209.84 46.93"><path d="M9.77 12.93c-.61.23-.18.68-.24 1.13.24-.12.33-.88.6-.47.11.16-.2 1.02-.27 1.21-.12-.07-.32-.11-.42-.21-.11-.1-.15-.45-.23-.5-.47-.31-.35.3-.8.3.15.29.42.3.33.7.35-.22.53.4.8.23 0 .38-1.17.01-1.41.1.1-.07.17-.17.19-.29-.31-.3-.4.36-.38.33 0 0 .17.05.1.16-.05.1-.24.07-.24.21-.37-.43-.43-1.04-.84-1.45.12.6-.8.49-.82.98-.03.5.5-.02.82.14-.2.2-.22.25-.51.2-.05.3.1.5.42.41-.2.4.2 1.22-.52 1.22.3-.1-.25-.59-.48-.51-.43.14-.08.87-.54 1.02.14.14.45.05.6 0-.2.27-.07.65 0 .93-.31-.06-.77-.59-.88 0-.18-.06-.24-.23-.37-.34-.03-.02-.4-.29-.38-.26-.17-.33.08-.7-.3-1-.55-.45-1.43.04-1.03.74.2.36 1.14.49.97 1-.18.56-2.24.1-2.07.8-.31-.39-.02-.93-.23-1.36.44.06 1.39 1.06 1.12-.08-.07-.28-.26-.64-.55-.73-.56-.18-.47.27-.68-.42-.07-.23-.12-.54-.02-.74.2-.4.34.06.2-.46-.05-.2-.82-1.43-.07-1.26 0-.98-.7-1.85-.43-2.85 0 .06-.03.1-.07.11-.19-.08-.01-1-.02-1.17-.03-.35-.17-.66-.24-1C.76 9.18.78 8.6.7 8.03c.77.58.97-1.03-.1-.84C.5 4.8.18 2.46 0 .09h6.94c.49 0 2.12-.33 2.48 0 .28.25.12 1.2.12 1.54 0 1.78.57 3.77-.05 5.46-.22.61-.29 1.01-.16 1.63.05.23.26 1.07.53.52.43 1.02.14 2.18.29 3.25.02.14.25.74.13.86-.24.26-.29-.42-.51-.42zM1.54 3.08c.34-.09.08-.34 0 0zm.33 4.1c.34-.07.08-.33 0 0zm0 13.23c.39 0 .56.38.49.7-.05.23-.34.16-.3.47a2.86 2.86 0 0 1-.2-1.17zM4.3 46.76c-.33-4.56-.97-9.09-1.26-13.65-.14-2.12-.42-4.19-.63-6.3-.1-.97-.35-2.12-.23-3.09.13-1.02 1.03-.6.9.29.41 0 1-.5 1.31-.03-.1.1-.18.18-.25.29.06.21 1.6.76 1.8.66.91-.48-.52-1.84.5-2.23-.04.39.05.67.24 1 .14.25.51.5.28.82.3.17 1.05.15.82.66.67.26.52-2.13 1.38-1.97-.34-.84.71-.45.55.4-.12.7-.55 1.26.42 1.16.23-.03 1.44-.3.65.3-.14.1-.61.03-.63.3-.03.43.62.28.83.18 0 .76-.04 1.53.01 2.29.03.35.26.89.18 1.23-.08.38-.5.54-.55 1.01-.03.48.19.97.56 1.26.67.5 1.66.34 1.72-.61.03-.4-.22-1.13-.57-1.38-.25-.18-.65 0-.82-.17-.28-.27-.1-2.17.14-2.43.13-.15.64-.18.69-.38.06-.27-.55-.43-.64-.63-.13-.27.12-1.21.15-1.54.05-.58 0-1.13 0-1.72.02-.61.11-1.24.18-1.85.01-.15-.06-.49.07-.6.15-.1.22.2.3.2.3 0 0-.42-.04-.51-.12-.25-.42-.25-.04-.62.45-.44 1.5-.34 2.07-.51.03.05-.04.56.16.6.36.06.14-.28.21-.3.18-.03.1-.14.37-.02.13.07.4.35.29.51.48-.26 1.16-.18 1.58-.52.18-.14.4-.86.66-.79-.3.25-.33 1.04.19 1.03.53-.01.32-.58.41-.9.12-.43.71-.85.08-1.2-.42-.22-1.1.15-1.52.23.48-.18.57-.74.84-1.12.22.09.61.83.85.57.19-.22-.32-.46-.29-.66.04-.28.43-.15.38-.52-.24.05-.68-.07-.82-.3-.23-.39 0-.4.21-.74.35-.54.33-1.37-.26-1.78-.46-.33-.75.13-.85.6-.07.31-.17.05.06.26.04.04.4-.09.42.03.01.3-.73.41-.91.4-.6-.04-.39-.2-.4-.57-.06-1.11-1.9-.54-2.6-.37.08-.36-.05-.39-.28-.58-.33-.27-.37-.06-.45-.47-.05-.27.13-.82.16-1.1l.16-1.64c.18.23.66.24.87.04.2-.22.03-.09.07-.36.12-1-.53-.37-.8-.81-.2-.31.04-1.2.08-1.52l.2-1.46c.28.14.65.1.93 0-.5-.12 1.12-1.38 1.12-1.45-.54.18-.44-.8-.67-1.03-.34-.33-1.18.26-1.2.24.2-.59.11-1.23.26-1.82.02-.08.21-1.04.07-.89.5-.52 2.09-.08 2.74-.07 1.46 0 2.92-.04 4.38-.02.51.01 2.53-.22 2.9.24.17.24.07 1.04.08 1.33.04.75.05 1.5.13 2.26-.25-.38-.57.15-.51.4.02.08.41.28.49.38.31.44.2 1.27.2 1.77.04 1.24.13 2.49.25 3.73.05.52.11 1.05.12 1.57 0 .1.04.34 0 .44.02-.06-.31.52-.25.15-.08.5.25.15-.1.67-.14.19-.52.01-.38.42.12.38.26.03.44.07.23.05.21-.14.4.11.14.17.04.59.04.78.01.82.08 1.64.14 2.46.08 1.17.68 3.62-.25 4.56-.16.16-.65.23-.72.3-.15.19-.01.49-.1.73-.24.58-.69.37-1.18.16-.51-.22-.98-.57-1.56-.54-.68.03-1.15.55-1.75.8-.12-1.3-1.74-1.52-2.57-.7.08-.62-.3-.86-.89-.7-.7.17-.58.62-.5 1.22-.22.05-.85-.15-.57.3.28.43.97-.16 1.39.03.35.17.44.67.73.91.4.33 1.25.12 1.56.48.16.2 0 .84-.03 1.1l-.33 2.66c-.1.7-.2 1.4-.23 2.1-.01.38.15 1.11-.17 1.39-.25.21-.9.09-.61.67.08.16.35.18.45.34.13.23.08.47.05.73-.17 1.48-.37 2.95-.53 4.44-.2 1.8-.43 3.6-.6 5.4-.07.78.1 3.11-.62 3.51-.47.26-1.8 0-2.33 0H4.3zM2.15 6.06c.12.11.26.14.42.1.06-.46-.24-.46-.42-.1zm.42 3.6c0-1.18-.77.1 0 0zM2.47 7c.11 0 .2.03.29.1.27-.33-.22-.53-.28-.1zm.1-4.2c.3.1.7.44.64-.15-.06-.5-.64-.3-.64.15zm.33 5.6c.4-.03.07-.31-.12-.19-.06.1-.02.17.12.2zm.28 5.66c.08-.17.3-.58-.19-.42-.04.15-.05.42.19.42zm-.1 1.63c.38.13.41-.45.1-.51a.73.73 0 0 0-.1.51zm0-6.77c.2 0 .28-.07.28-.2-.21 0-.3.07-.28.2zm.2 6.16c.15-.16.1-.37-.1-.42-.14.14-.14.42.1.42zm.08 14.16c-.08.3.27.62.52.33.32-.38-.33-.4-.52-.33zm.33-10.37c-.13.13-.15-.23-.24-.22-.25.04.15.38.15.38l.1-.16zm1.12 6.59c.55 1.18-2.01 1.5-1.2 2.38.37.38.95.03 1.4-.02.7-.07.6.03.9.49.78 1.2 2.1-.8.67-1.24-.1-.04-.21-.08-.32-.1-.28.23-.43.16-.47-.19a2.72 2.72 0 0 1-.47-.8c-.04-.21.27-.36.15-.55-.1-.18-.53-.06-.66.03zm-.6-14.9c.07-.19.18-.34.32-.48-.3 0-.24-.6-.64-.28-.27.22-.08.87.32.75zm-.1-.9v-.23c.33.4.75-.24.4-.45-.38-.21-.7.53-.4.68zm.8 5.42c.13-.46-.14-1.45-.75-.84-.48.49.18 1.2.75.84zm-.9-1.3c.15 0 .28-.05.38-.14-.17-.17-.37-.06-.37.14zm.1 17.94c.34-.08.08-.34 0 0zm.42-21.26c.34-.08.08-.34 0 0zm.28 23.5c.01-.14-.05-.24-.18-.28-.25.24.02.35.18.28zm-.18-21.21c.7.19-.13-.65 0 0zm0 18.45c0 .75 1.14.87 1.32.18.24-.94-1.32-1.03-1.32-.18zm.51-15.09c.21.14.15.38.38.47.34.12.79-.24.83-.56-.32.08-.26-.31-.5-.39-.27-.07-.63.27-.71.48zm.51 9.95c.1-.28.42-.67.1-.93.08.3-.39.76-.1.93zm.28 4.54c.24-.94-.76.2 0 0zm-.28 5.74c.34-.08.08-.33 0 0zm.1-26.68c.24 0 .32-.2.32-.42-.35-.05-.45.1-.32.42zm.09-1.54c.13-.06.27-.09.42-.1 0-.56-.82-.57-.42.1zm.6 22.06c.08-.22.3-.27.24-.52-.08-.31-.45-.38-.68-.22-.47.32 0 .78.45.74zM6.08 12c-.14.45.52.6.38-.1a.83.83 0 0 0-.38.1zm0 26.77c.15 0 .91-.02.52-.42-.32-.33-.58.15-.52.42zm.1-12.47c0 .42.84.84.92.4.08-.42-.66-.6-.92-.4zm.1-11.64c.2.05.3.17.41-.09-.05.01-.62-.52-.42.1zm0-9.34c.57.02-.23-.82 0 0zm.18 2.47c.41 0 .33-.38 0-.28 0 .1-.02.2 0 .28zm0 35.28c.48-.02.04-.39 0 0zm.14-37.33c.34-.08.08-.34 0 0zm0 7.61c-.07.26.04.35.3.3.47-.09.02-.62-.3-.3zm.7 11.69c-.32.13-.14-.2-.42-.2 0 .24.35.61.42.2zm-.33-7.8c.22-.13.36-.12.42.02.06.14-.08.13-.42-.03zm.42-3.98c.17-.16-.07-.42 0-.65-.45 0-.29.5 0 .65zM7.1 36.53c.38.1.78-.52.38-.7-.37-.16-.4.55-.38.7zm0-22.57c-.05.3.46.58.64.33.09-.12-.03-.42-.14-.48-.33-.2-.28.15-.5.15zm.38-6.26c.97.14.85-.43 1.26-1.03-.42.15-.5-.41-.96-.32-.57.13-.6.98-.3 1.35zm.14 21.96a.7.7 0 0 0 .09-.42c-.55-.16-.55.47-.1.42zm-.24-23.6c0 .19.28.5.42.2.18-.38-.34-.2-.42-.2zm.42 6.55c-.1-.05-.5.18-.32.31.09.07.48-.15.32-.31zm.1 13.55c.06-.24-.14-.23-.28-.38-.05.23.02.41.28.38zm0-14.07a1.82 1.82 0 0 0-.28-.6c0 .2-.07.67.28.6zm.23-7.15c-.17-.03-.38-.02-.44.1-.15.3.51.26.44-.1zm-.23 24.3l.23-.28c-.5-.25-.56.28-.23.28zM7.7 9.57c-.05.4.68.45.51-.14a.72.72 0 0 0-.51.14zm1.21 2.66c-.5-.14-.67.4-.6.8-.29 0-.43-.24-.34.22.06.32.42.4.34.8.88.13.7-1.32.6-1.82zM8 11.3c.35 0 .42-.48 0-.42 0 .12-.03.3 0 .42zm.14.6c.38.28 1.06-.1.57-.47-.33-.24-.7.1-.57.48zm.51-6.16c.03-.31-.1-.45-.42-.42-.06.34.08.48.42.42zm.1 23.5c-.22-.06-.48-.05-.43.2.06.32.72.2.43-.2zm-.42-2.66c-.07.28.2.63.47.36.32-.3-.15-.57-.47-.36zm.42-9.02c-.1.25-.18.33-.26.23-.08-.09 0-.17.26-.23zm.28-8.74c.06-.22-.24-.69-.52-.42-.24.24.21.73.52.42zm-.1 1.87c.25-.25.01-.51-.28-.51-.04.23-.05.58.28.51zm-.09-5.47c.2 0 .14.58.44.24.31-.35-.36-.62-.44-.24zm.42 5.66c-.1.32.36.46.42.18.04-.22-.27-.33-.42-.18zm.52-.8c-.09-.05-.17-.42-.42-.23-.22.17.33.67.42.23zm-.24 1.73c.25-.06.34-.14.26-.23-.08-.1-.16-.02-.26.23zm1.03 10.28c.24-.06.15.13.23.28-.24 0-.19-.13-.23-.28zm.23 9.72c.2-.26.12-.4-.23-.42 0 .14.03.42.23.42zm1.12-3.69c.45.04 1.18-.81.7-1.22-.55-.47-.86.88-.7 1.22zm.94-12.2c.32.13.05-.36.37-.23 0-.3-.33-.02-.18-.37.37.06.62.37 1.02.28-.32.38-.9.23-1.16.7-.17.3.06.88-.38 1.03.4.32.99.14 1.36.51-1.13.8-2.29-.98-1.26-1.5-.31 0-.02-1.31-.1-1.54.42.06.75.87.33 1.12zm-.51 20.94l.18.1s-.05-.5-.17-.3a.63.63 0 0 0-.01.2zm.28-10.56c.45.3 1 .03.66-.45-.32-.45-.75.03-.66.45zm0-13.18c.23.06.22.39.51.33-.05.26-.24.48-.51.51v-.84zm.09 8.74c.48-.03.04-.39 0 0zm.42 1.12c-.28-.27-.2.1-.3.14.08-.03.45.16.3-.14zm-.19 1.12c.28-.17.7.24.7-.28-.28.05-.46-.11-.7-.23-.12.17-.12.34 0 .51zm-.1 3.6c.67 0 0-.4 0 0zm.71-7.29c0-.26-.32-.85-.58-.49-.26.36.32.56.58.49zm-.1 1.78c-.05.03-.64-.12-.5.09.1.16.5.14.5-.1zm-.5-11.22c.15 0 .24-.06.27-.19-.22 0-.3.07-.28.2zm.27-.8c1.1 0-.2-.99 0 0zm0 13.14c.48-.03.04-.4 0 0zm.66 1.54c-.03-.06-.22-.44-.38-.28-.17.17.4.28.38.28zm-.33-18.27c.24.05.55-.34.28-.46-.28-.13-.36.27-.28.46zm.33 1.45c-.45 0-.06-.16-.14-.42-.45-.11-.1.78.14.42zm-.24 17.75c.29.03.69-.39.32-.53-.36-.13-.41.3-.32.53zm0-15c-.04.1-.03.19.03.26.15.06.25-.26-.03-.26zm.61.1c.09-.27.39-.25.17-.55-.13-.18-.6-.06-.78-.06.03.34.27.58.61.6zm-.37 9.34c.54.1.09-.47 0 0zm0 3.6c.14.49 1.36.45 1.03-.16-.24-.44-.93-.34-1.03.16zm.09-16.3c.33 0 .33.32.68.02.18-.16.36-.63.44-.87-.44.26-1.4-.26-1.12.84zm.6 13.82c.17 0-.54-.2-.33-.12-.09-.03.43.41.34.12zm.34-3.69c-.13.25-.44.22-.66.33.1-.28.38-.35.66-.33zm-.43 8c.5.08.74-.56.21-.68-.35-.07-.43.45-.2.67zm.1-14.07c.14-.14.04-.4.33-.28.04-.22-.07-.25-.24-.33 0 .19-.42.48-.1.61zm.1-1.12c.32-.07 1.1-.2.8-.75-.18-.32-.6-.16-.9-.28.1.33.12.69.1 1.03zm.5-1.82c.1-.22.32-.34.16-.6-.13-.2-.31-.24-.53-.1-.42.28-.04.7.38.7zm-.27-3.42c.7 0 .2-.3 0-.5-.2.17-.2.34 0 .5zm0 16.55c.33-.09.08-.34 0 0zm.09-7.2c.25.19.54.32.8.51-.15.29-.64-.03-.7.33-.15-.2-.32-.62-.1-.84zm.51 9.95c.05-.26-.3-.43-.51-.28-.26.2.23.56.51.28zm-.32-8.08c.27.1.26.51.6.28.03.14.03.28 0 .42-.41 0-.66-.3-.6-.7zm.74-5.56c0-1.3-.99.25 0 0zM15.61 7c.1.5 1.35.44.86-.23-.26-.36-.78-.2-.86.23zm0 4.49c.96 0 0-.38 0 0zm.18 17.98c.49-.03.04-.48 0 0zm.75-19.39c0-.46-.37-.43-.6-.74-.4.47.17.83.6.74zm-.6 10.47c.73.1.77-.66 1.3-.93-.8-.87-1.59-.03-1.3.93zm0 3.27c.25 0 .78.36.6-.25-.12-.4-.73-.24-.6.25zm0-15c.13-.05.33.37.37.24.06-.25-.31-.64-.38-.24zm.09 2.15c.33-.08.08-.34 0 0zm0 17.15c.33-.08.08-.34 0 0zm.42-14.25c.15-.05.28-.02.28-.23-.24.11-.33-.3-.52-.2-.2.13.32.23.24.43zm0-1.03c.18-.18 0-.47-.24-.42-.02.19.05.36.24.42zm-.14-9.02c.1-.02.17.01.23.1-.09-.27-.2-.52-.23-.1zm.14 22.66c.33-.08.08-.33 0 0zm.18-14.76c.42.42.98-.34.1-.51.06.25-.21.23-.1.5zm.2.6c0-.03.22-.4-.1-.32-.02.13 0 .24.1.33zm.08 8.42l.33.1a.3.3 0 0 0-.19-.29l-.14.19zm.42-9.77c.19.17.3.13.33-.1-.3 0-.07-.16-.33.1zm.33-2.85c.26-.28 1.94-1.54.82-1.8-.77-.17-1.23 1.32-.82 1.8zm.28 3.46c.37.03.7-.17.84-.51.2.47.85.53.91-.04.1-.89-.7-.28-1-.06-.46-1.36-1.46-.1-.75.61zm.24.65c.07-.27-.07-.47-.33-.23.25 0 .05.3.33.23zm-.24-9.06c.3 0 .67-.12.24-.37-.06.13-.14.26-.24.37zm0 6.4c.2.05.5-.08.33-.33-.18-.25-.38.15-.33.33zm.42 10.14c.03.4.53 0 0 0zm.33-5.14c.32.04 1.02-.24.7-.7-.34-.5-1.15.18-.7.7zm.28 6.35a.4.4 0 0 0 .14-.37c-.36-.12-.46.37-.14.37zm14.81 25.84c-3.59 0-7.18-.04-10.77 0-.3 0-1.07.18-1.28-.06-.22-.25-.14-.96-.17-1.28-.18-1.65-.47-3.3-.68-4.95a509.48 509.48 0 0 1-.97-7.91c-.05-.45-.32-1.28-.18-1.72.01-.03.15-.26.15-.15.06-.05.1-.11.12-.19-.03-.07-.08-.1-.15-.1-.01-.02-.25-.26-.3-.42-.08-.27-.07-.6-.09-.88-.08-1.49-.41-3-.26-4.48.4.24.25.49.1.84.35.05.7.12 1.04.2l.31-.11c.06.19.16.36.28.51.42.56 1.11.75 1.78.52-.04.15 0 .3.1.42.1-.45.18-.75.7-.84.05.5-.44 1.67.58 1.28.45-.16.97-1.2 1.51-.8.38.28.22 1.57.23 1.96.01 1.1.08 2.21.24 3.3.3-4.83.68-9.67.88-14.5.04-.84-.2-5.58.93-5.72.3-.04 1.28.7.92-.2a.63.63 0 0 0-1.21.03c.14-.4.02-.91.03-1.32.03-.7.08-1.44.17-2.12.14-1.12 1.6-1.26 1.97-2.42-.8-.32-1.1.93-1.82.93.21-1.12.26-2.26.35-3.4.04-.58.1-1.16.17-1.74.03-.22.06-1.22.28-1.35.12-.08 1.07 0 1.26 0 .4-.02.7.12 1.05.15.57.04-.08.18.27.08.04-.02-.15-.16-.1-.17.28-.08.5-.14.85-.13.71.02 1.38.11 2.1.09 1.06-.04 2.21-.17 3.26.02.95.17.6.86.5 1.62-.13 1.17-.22 2.35-.33 3.53-.48 4.93-.99 9.87-1.34 14.81-.03.39.04.89-.05 1.26-.05.2-.05.33-.22.48-.03.03-.22-.02-.23-.02-.23.34-.24.1-.05.46.22.42.33.17.26.78-.25 2.34-.44 4.68-.65 7.02l-1.54 16.7zM19.62 8.54c-.92.27-.31 1.78.56 1.6 1.38-.27.48-2.04-.56-1.6zm0 9.3c-.1-.05-.5.18-.32.32.1.07.48-.16.32-.32zM19.4 6.58c.61.25-.25-.86 0 0zm0 5.93c.48-.02.04-.38 0 0zm.51.52c.06-.18-.28-.34-.37-.23-.13.16.08.2.1.26 0 .02.2.22.23.28.17.26-.25.24.19.52.7.43 1.13-1.26-.15-.83zm-.42-1.22c.49-.03.04-.48 0 0zm.66 5.42c-.15-.22-.15-.57-.52-.51 0 .3.29.4.52.51zM19.8 6.16c.22.22.56.2.84.19-.13-.33.18-.4-.15-.63-.3-.22-.86.02-.69.44zm.42 5.33c0-.64-.53.13 0 0zM20 6.77c.34.06.48-.03.42-.28-.28-.03-.42.06-.42.28zm.23 10.56c.21.04.42.14.6.23.05-.62-.7-1-.6-.23zm0 3.83c.28.1 1.32.2.8-.3-.23-.22-.9-.1-.8.3zm.1-5.56c.15.01.26-.05.32-.19a.5.5 0 0 0-.32-.1v.29zm.09-10.47c.4.03.57-.17.51-.6-.4-.04-.57.17-.51.6zm.1-4.72l-.08.24c.27.08.38-.26.07-.24zm.23 17.57c.06.12-.14.4.03.49.17.09.2-.42.25-.49.07.17.22.34.42.37.1-.67-.3-.37-.7-.37zm.18-1.03c0 .27.32.7.58.7.39.03.6-.43.78-.7-.48-.12-.93-.43-1.36 0zm.24 10.24c.33-.09.08-.34 0 0zm.09-13.13l.19.09c.04-.17-.02-.26-.19-.28v.19zm.19 2.05c.48-.02.04-.39 0 0zm.23-5.56c-.1.48-.06.82.37.52.07-.04.54-.63.58-.72.36-.75-.66-.45-.44.34a.98.98 0 0 0-.51-.14zm.1 14.72c.33.08.07.34 0 0zm.09-15.6c.3.06.44-.13.42-.43-.32-.1-.42.13-.42.42zm.42 6.16a.53.53 0 0 0-.33-.14c-.14.35.38.29.33.14zm-.1 11.68c0-.14.69-.44.04-.5-.44-.05-.3.5-.04.5zm-.14-13.87c-.08.68 1.15 1.37 1.51.65.5-.98-1-1.47-1.5-.65zm.24-2.06a.54.54 0 0 0-.1-.37c-.14.14-.12.37.1.37zm1.12 12.24c.06-.33.47-.24.6-.51-.5 0 .28-.97.33-1.12.28.28-.03.4-.03.7.01.31.19.48.36.72.09.11.21.37.34.43.24.13.33-.35.55-.03-.39.26-.4 1.47.1 1.63-.51.28-1.49.17-1.55.94-.36-.37-.95-1.67-1.64-1.12-.35-.36.56-.7.57-.62 0-.02-.38.17-.35.2.26.26.1-.12.32-.05.24.08.94.96 1.1.14.33.13-.21.43.2.49.4.05.46-.54.5-.8.14-1.13-.63-.67-1.4-1zm-.94-21.45c.4.25 1-.42.6-.61-.39-.19-.6.35-.6.61zm.61 7.39c.41.41 1.3.11.94-.52-.31-.54-1.08-.04-.94.52zm.24 7.57c-.35-.35-.26.37 0 0zm0 24.2c.35.18 1.21.37.7-.35-.35-.53-.82-.22-.7.35zm.37-28.18c.23-.03.42-.22.51-.42-.16.03-.96-.36-.8.1.2-.31.55.2.29.32zm-.19 26.03c.28.14.52.14.42-.23-.16 0-.38.04-.42.23zm.1-17.43c.74.23-.06-.58 0 0zm.74-10.23c.06-.23.06-.41-.16-.42-.32-.01-.25.56.16.42zm-.14 29.62c.58-.2.18-.37 0 0zm.52-26.54c.03-.16-.04-.27-.19-.32-.22.22 0 .36.19.32zm-.1.7c-.04.1-.03.19.03.26.16.06.25-.26-.03-.26zm.52 18.46c.28-.18-.27-.36-.24-.32.07.09-.17.4.24.32zm.1-11.5c.41-.05.12.56.22.75h-.5c0-.3.32-.43.27-.74zm.65 16.6l.28.23c.24-.51-.28-.56-.28-.24zm1.12-.61a.31.31 0 0 0 0 .25c.08.05.27-.25 0-.25zm.18-20.89c.25.06.58-.1.4-.4-.2-.36-.48.19-.4.4zm0 8.83c.49-.04.04-.48 0 0zm1.03-.75c-.06.3.45.46.53.24.1-.3-.35-.41-.53-.24zm.94-9.72c.45-.92-.67-.1 0 0zm.18 29.72c-.04.29.18.54.5.33.36-.25-.18-.65-.5-.33zm.52-12.38c0-1.24-.9.53 0 0zm0-18.27c.43 0 .97-.7.35-.85-.46-.12-.77.6-.35.85zm-.19 1.73c.14.23.79.2.78-.12-.02-.29-.85-.29-.78.12zm.19-.37c.31.07.45-.35 0-.33v.33zm.6 30.09c.2.15.85.14.67-.27-.12-.27-.63-.04-.67.27zm.33-13.27c.39-.05.03-.49 0 0zm.1-20.94c.2-.05 1.46.3.84-.35a.49.49 0 0 0-.85.35zm.23 28.36c.1.03.26 0 .37 0 .06-.52-.54-.48-.37 0zm.51 1.27c.05-.28.07-.42-.2-.42-.43-.02-.2.49.2.42zm.38-33.97c0 .45.51.43.42-.1a.93.93 0 0 0-.42.1zm.42 33.13c.23 0 .47-.14.33-.4-.19-.35-.71.08-.33.4zm-.1-39.16c.4-.04.03-.48 0 0zM32.75.6c-.22.22.08.34.12.2l-.12-.2zm-.09 19.95c.8.2-.25-.85 0 0zm.1 25.6c.37 0 .6-.23.6-.6-.42 0-.72.15-.6.6zm.18-39.48c.36.18.22.48.77.32.37-.1.57-.3.47-.69-.23-.87-1.16-.23-1.24.37zm.1 7.9c.19.13.9.25.74-.19-.13-.37-.75-.18-.75.19zm.32-9.11h.52c0-.8-.63-.4-.52 0zm.1 40.09c.24 0 .32-.21.32-.42-.2 0-.56.18-.33.42zm.6-25.65c.31.06.45-.03.42-.28-.28-.03-.42.06-.42.28zm.33-7.06c.26.66 1.42.43 1.09-.33-.27-.6-1.28-.33-1.1.33zm1.03 1.12c.29.3 1 0 .63-.44-.32-.38-.77.02-.63.44zm.84.61c.37.37.22-.07.37-.1-.14.03-.37-.25-.37.1zm.47-7.9c.2.04.4-.07.32-.32-.27-.08-.41.03-.32.32z"/></svg>