<?xml version="1.0" encoding="utf-8"?>
<!-- Generator: Adobe Illustrator 22.0.1, SVG Export Plug-In . SVG Version: 6.00 Build 0)  -->
<svg version="1.1" id="Layer_1" xmlns="http://www.w3.org/2000/svg" xmlns:xlink="http://www.w3.org/1999/xlink" x="0px" y="0px"
	 viewBox="0 0 224.8764 40.8791" enable-background="new 0 0 224.8764 40.8791" xml:space="preserve">
<path fill="#82C342" d="M84.6288,37.793c10.5517,0.9224,19.8532-6.8829,20.7763-17.4345c0.3997-4.5701-0.8399-8.9032-3.2285-12.425
	c3.9972,3.8802,6.2807,9.4582,5.7573,15.4398c-0.9232,10.5516-10.2243,18.3555-20.7763,17.4315
	c-5.9811-0.522-11.0781-3.7407-14.2054-8.3498C76.0064,35.4203,80.0594,37.3926,84.6288,37.793z"/>
<path fill="#82C342" d="M109.9249,22.9278c0.924-10.5516-6.8814-19.8538-17.433-20.7763
	c-4.6969-0.4109-9.1437,0.9105-12.7163,3.4302c3.8674-3.8411,9.336-6.0205,15.1911-5.5075
	c10.5517,0.9224,18.3574,10.2246,17.4349,20.7762c-0.5129,5.8541-3.6075,10.8592-8.0606,14.0014
	C107.4412,31.771,109.514,27.6224,109.9249,22.9278z"/>
<path fill="#82C342" d="M90.8312,4.4058c4.7557,0.4169,8.8062,2.9758,11.2914,6.64c-2.4268-2.3548-5.6478-3.9267-9.2805-4.2432
	c-8.3888-0.735-15.7836,5.4715-16.5177,13.8603c-0.318,3.6312,0.6686,7.0749,2.5655,9.8737
	c-3.1757-3.0837-4.992-7.5159-4.5761-12.2689C75.0479,9.8774,82.4431,3.6724,90.8312,4.4058z"/>
<radialGradient id="SVGID_1_" cx="68.899" cy="14.678" r="27.2462" gradientUnits="userSpaceOnUse">
	<stop  offset="0" style="stop-color:#008CC1"/>
	<stop  offset="1" style="stop-color:#19305A"/>
</radialGradient>
<path fill="url(#SVGID_1_)" d="M76.6521,8.886c-2.4654,2.4493-4.1157,5.7445-4.4423,9.4777
	c-0.7345,8.3872,5.4712,15.7832,13.86,16.5181c3.7309,0.3255,7.2616-0.7259,10.1009-2.7268
	c-3.0747,3.0508-7.4165,4.7846-12.0687,4.3767c-8.3885-0.7335-14.5934-8.1294-13.8596-16.5182
	C70.6496,15.3595,73.1117,11.3832,76.6521,8.886z"/>
<path fill="#008CC1" d="M121.3505,1.5039h1.0364l2.1906,5.1465h-1.1752l-0.4672-1.1459h-2.1613l-0.4672,1.1459h-1.1459
	L121.3505,1.5039z M122.5331,4.5116l-0.6787-1.6574l-0.6787,1.6574H122.5331z M125.0994,4.4606V1.5403h1.1242v2.891
	c0,0.8317,0.4162,1.2629,1.1024,1.2629c0.6862,0,1.1024-0.4162,1.1024-1.2269v-2.927h1.1241v2.8835
	c0,1.5479-0.8692,2.3068-2.2416,2.3068C125.9386,6.7306,125.0994,5.9642,125.0994,4.4606z M131.8849,2.5767h-1.5546V1.5403h4.2341
	v1.0364h-1.5554v4.0737h-1.1242V2.5767z M134.9769,4.1096V4.0954c0-1.4526,1.1459-2.6428,2.723-2.6428
	c1.5771,0,2.7088,1.1755,2.7088,2.6285v0.0142c0,1.4526-1.1467,2.6428-2.723,2.6428C136.1085,6.7381,134.9769,5.563,134.9769,4.1096
	z M139.2328,4.1096V4.0954c0-0.8759-0.642-1.606-1.5471-1.606c-0.9052,0-1.5336,0.7151-1.5336,1.5917v0.0142
	c0,0.8759,0.6427,1.6064,1.5479,1.6064C138.6051,5.7017,139.2328,4.9863,139.2328,4.1096z M141.4038,1.5403h1.2119l1.3431,2.1606
	l1.3439-2.1606h1.2119v5.1101h-1.1174V3.3139l-1.4384,2.1831h-0.0285l-1.4241-2.1606v3.314h-1.1024V1.5403z M147.5106,4.1096V4.0954
	c0-1.4526,1.1459-2.6428,2.723-2.6428c1.5764,0,2.708,1.1755,2.708,2.6285v0.0142c0,1.4526-1.1459,2.6428-2.723,2.6428
	C148.6422,6.7381,147.5106,5.563,147.5106,4.1096z M151.7665,4.1096V4.0954c0-0.8759-0.6427-1.606-1.5479-1.606
	c-0.9052,0-1.5329,0.7151-1.5329,1.5917v0.0142c0,0.8759,0.6427,1.6064,1.5479,1.6064
	C151.1388,5.7017,151.7665,4.9863,151.7665,4.1096z M154.9087,2.5767h-1.5554V1.5403h4.2341v1.0364h-1.5546v4.0737h-1.1242V2.5767z
	 M158.4972,1.5403h1.1242v5.1101h-1.1242V1.5403z M160.4597,1.5403h1.2404l1.3364,3.599l1.3356-3.599h1.2119l-2.0661,5.1468h-0.9929
	L160.4597,1.5403z M166.3693,1.5403h3.8539v1h-2.7373v1.0368h2.4088v0.9997h-2.4088V5.65h2.774v1.0004h-3.8907V1.5403z
	 M173.4457,1.5403h1.2119l1.3431,2.1606l1.3431-2.1606h1.2119v5.1101h-1.1174V3.3139l-1.4376,2.1831h-0.0293l-1.4234-2.1606v3.314
	h-1.1024V1.5403z M181.53,1.5039h1.0364l2.1906,5.1465h-1.1759l-0.4672-1.1459h-2.1606l-0.4672,1.1459h-1.1459L181.53,1.5039z
	 M182.7127,4.5116l-0.6787-1.6574l-0.6794,1.6574H182.7127z M185.5414,1.5403h2.3361c0.6494,0,1.1534,0.1826,1.4894,0.5182
	c0.2842,0.2846,0.438,0.6862,0.438,1.1684v0.0142c0,0.8249-0.4454,1.3431-1.0957,1.5839l1.2487,1.8253h-1.3139l-1.0949-1.6349
	h-0.8834v1.6349h-1.1242V1.5403z M187.804,4.0226c0.5475,0,0.8617-0.2925,0.8617-0.7229v-0.015c0-0.4815-0.336-0.7297-0.8834-0.7297
	h-1.1167v1.4676H187.804z M190.8158,1.5403h1.1242v2.2341l2.0728-2.2341h1.3581l-2.0803,2.1681l2.1748,2.942h-1.3499l-1.5846-2.1756
	l-0.5909,0.6134v1.5621h-1.1242V1.5403z M196.1411,1.5403h3.8539v1h-2.7373v1.0368h2.4088v0.9997h-2.4088V5.65h2.774v1.0004h-3.8907
	V1.5403z M202.2186,2.5767h-1.5546V1.5403h4.2341v1.0364h-1.5554v4.0737h-1.1242V2.5767z M205.8078,1.5403h1.1242v5.1101h-1.1242
	V1.5403z M208.2083,1.5403h1.0364l2.3946,3.146v-3.146h1.1092v5.1101h-0.9562l-2.4748-3.2487v3.2487h-1.1092V1.5403z
	 M213.7451,4.1096V4.0954c0-1.4526,1.1317-2.6428,2.6788-2.6428c0.9202,0,1.4751,0.2482,2.0076,0.7008l-0.7079,0.8546
	c-0.3945-0.3288-0.7447-0.5186-1.3356-0.5186c-0.8174,0-1.4676,0.7226-1.4676,1.5917v0.0142c0,0.9344,0.6427,1.6206,1.5479,1.6206
	c0.4087,0,0.7739-0.102,1.0582-0.3067V4.6796h-1.1317V3.7084h2.2198v2.2191c-0.5257,0.4455-1.2487,0.8107-2.1831,0.8107
	C214.84,6.7381,213.7451,5.6207,213.7451,4.1096z"/>
<path fill="#19305A" d="M0,20.3188v-0.0382c0-3.8194,2.8595-6.9482,6.9287-6.9482c2.4763,0,3.9732,0.8639,5.2593,2.0923
	l-1.5164,1.7466c-1.0747-0.9982-2.2266-1.6701-3.7617-1.6701c-2.5528,0-4.4344,2.1118-4.4344,4.7411v0.0382
	c0,2.63,1.8621,4.7599,4.4344,4.7599c1.6506,0,2.7058-0.6524,3.8577-1.7271l1.5164,1.5351
	c-1.4016,1.4594-2.9368,2.3803-5.4513,2.3803C2.9173,27.2287,0,24.1772,0,20.3188z M13.7014,13.5626h2.3608v11.2858h7.0637v2.1501
	h-9.4245V13.5626z M24.7592,13.5626H27.12v13.4359h-2.3608V13.5626z M29.7605,13.5626h9.9614v2.1118h-7.6006v3.4932h6.7367v2.1111
	h-6.7367v3.6087h7.6966v2.1111H29.7605V13.5626z M41.7558,13.5626h2.1876l7.1979,9.2902v-9.2902h2.3226v13.4359H51.487
	l-7.4086-9.5587v9.5587h-2.3226V13.5626z M59.0426,15.7509h-4.2611v-2.1883h10.9026v2.1883h-4.2611v11.2476h-2.3803V15.7509z
	 M118.4617,20.3188v-0.0382c0-3.8194,2.8603-6.9482,6.9287-6.9482c2.4763,0,3.9732,0.8639,5.2593,2.0923l-1.5164,1.7466
	c-1.0747-0.9982-2.2266-1.6701-3.7617-1.6701c-2.5528,0-4.4336,2.1118-4.4336,4.7411v0.0382c0,2.63,1.8613,4.7599,4.4336,4.7599
	c1.6506,0,2.7058-0.6524,3.8577-1.7271l1.5164,1.5351c-1.4009,1.4594-2.9368,2.3803-5.4513,2.3803
	C121.379,27.2287,118.4617,24.1772,118.4617,20.3188z M131.1709,20.3188v-0.0382c0-3.7812,2.9173-6.9482,7.0442-6.9482
	s7.0059,3.1287,7.0059,6.9099v0.0382c0,3.7812-2.918,6.9482-7.0442,6.9482C134.0499,27.2287,131.1709,24.1,131.1709,20.3188z
	 M142.7447,20.3188v-0.0382c0-2.6105-1.9003-4.7794-4.5679-4.7794c-2.6683,0-4.5296,2.1306-4.5296,4.7411v0.0382
	c0,2.6105,1.8996,4.7599,4.5679,4.7599C140.8826,25.0404,142.7447,22.9293,142.7447,20.3188z M147.1589,13.5626h2.5145
	l4.0887,6.3535l4.0879-6.3535h2.5145v13.4359h-2.3608v-9.6352l-4.2417,6.334h-0.0772l-4.2034-6.2957v9.597h-2.3226V13.5626z
	 M162.7673,13.5626h2.5145l4.0887,6.3535l4.0879-6.3535h2.5145v13.4359h-2.3608v-9.6352l-4.2417,6.334h-0.0772l-4.2034-6.2957v9.597
	h-2.3226V13.5626z M183.1191,13.4666h2.1876l5.9118,13.5319h-2.495l-1.3626-3.2435h-6.3535l-1.3814,3.2435h-2.4185L183.1191,13.4666
	z M186.4969,21.6627l-2.3226-5.3741l-2.3031,5.3741H186.4969z M192.4521,13.5626h2.1883l7.1979,9.2902v-9.2902h2.3226v13.4359
	h-1.9776l-7.4086-9.5587v9.5587h-2.3226V13.5626z M206.179,13.5626h5.0096c4.2229,0,7.1402,2.8985,7.1402,6.6797v0.0382
	c0,3.7812-2.9173,6.7179-7.1402,6.7179h-5.0096V13.5626z M208.5398,15.7126v9.1357h2.6488c2.822,0,4.6646-1.8996,4.6646-4.5296
	v-0.0382c0-2.6293-1.8426-4.5679-4.6646-4.5679H208.5398z M220.0641,24.0557v-0.0135c0-1.3139,1.0649-2.4193,2.4066-2.4193
	c1.3544,0,2.4058,1.0919,2.4058,2.4058v0.0135c0,1.3139-1.0649,2.4193-2.4058,2.4193
	C221.1155,26.4615,220.0641,25.3696,220.0641,24.0557z M224.5997,24.0422v-0.0135c0-1.1759-0.9127-2.1433-2.1291-2.1433
	c-1.2037,0-2.1298,0.9817-2.1298,2.1568v0.0135c0,1.1759,0.9127,2.1433,2.1298,2.1433
	C223.6735,26.199,224.5997,25.2174,224.5997,24.0422z M221.4747,22.7426h1.1752c0.5812,0,1.0094,0.2625,1.0094,0.8294
	c0,0.4012-0.2212,0.6637-0.5527,0.7747l0.6359,0.8984h-0.7327l-0.5392-0.7882h-0.3877v0.7882h-0.6082V22.7426z M222.6086,23.959
	c0.2767,0,0.4282-0.138,0.4282-0.3457c0-0.2205-0.1657-0.345-0.4282-0.345h-0.5257v0.6907H222.6086z"/>
<radialGradient id="SVGID_2_" cx="92.6426" cy="19.3761" r="10.2859" gradientUnits="userSpaceOnUse">
	<stop  offset="0" style="stop-color:#008CC1"/>
	<stop  offset="1" style="stop-color:#19305A"/>
</radialGradient>
<path fill="url(#SVGID_2_)" d="M99.1461,18.9666l-3.3394-6.7734l-2.0136,4.0842l-3.7684,7.6418h3.5682
	c-1.3672,3.7392-4.5371,6.6519-8.5126,7.7649c0.4282,0.042,0.8625,0.0637,1.3019,0.0637c5.4018,0,10.011-3.2465,11.8843-7.8287
	h3.3223L99.1461,18.9666z"/>
</svg>
