<?xml version="1.0" encoding="utf-8"?>
<!-- Generator: Adobe Illustrator 22.0.1, SVG Export Plug-In . SVG Version: 6.00 Build 0)  -->
<svg version="1.1" id="Layer_1" xmlns="http://www.w3.org/2000/svg" xmlns:xlink="http://www.w3.org/1999/xlink" x="0px" y="0px"
	 viewBox="0 0 92.146 16.055" enable-background="new 0 0 92.146 16.055" xml:space="preserve">
<g>
	<path d="M1.579,14.391c-0.416-0.112-0.74-0.28-0.972-0.504c-0.232-0.224-0.396-0.488-0.492-0.792
		c-0.096-0.304-0.132-0.628-0.108-0.972c0.024-0.344,0.084-0.692,0.18-1.044c0.176-0.608,0.476-1.264,0.9-1.968
		c0.424-0.704,0.939-1.412,1.548-2.124c0.608-0.711,1.296-1.404,2.064-2.076s1.6-1.288,2.496-1.848
		c1.136-0.688,2.272-1.28,3.408-1.776c1.136-0.496,2.184-0.852,3.144-1.068c0.96-0.216,1.784-0.272,2.472-0.168
		s1.168,0.404,1.44,0.9c0.224,0.464,0.236,0.952,0.036,1.464c-0.2,0.512-0.54,1.028-1.02,1.548c-0.48,0.521-1.068,1.028-1.764,1.524
		c-0.696,0.497-1.412,0.952-2.148,1.368c-0.688,0.4-1.412,0.768-2.172,1.104c-0.76,0.336-1.476,0.596-2.148,0.78
		s-1.252,0.264-1.74,0.24s-0.788-0.204-0.9-0.54c-0.064-0.208-0.036-0.448,0.084-0.72s0.308-0.556,0.564-0.852
		s0.556-0.584,0.9-0.864c0.344-0.28,0.704-0.528,1.08-0.744c0.376-0.216,0.756-0.388,1.14-0.516c0.384-0.128,0.744-0.192,1.08-0.192
		c0.128,0.064,0.192,0.128,0.192,0.192c0,0.096-0.064,0.144-0.192,0.144c-0.48-0.016-1.004,0.112-1.572,0.384
		C8.511,5.543,7.987,5.867,7.507,6.243s-0.86,0.76-1.14,1.152S5.995,8.103,6.091,8.343c0.08,0.192,0.312,0.3,0.696,0.324
		C7.171,8.69,7.675,8.615,8.299,8.438c0.608-0.176,1.276-0.412,2.004-0.708c0.728-0.296,1.468-0.652,2.22-1.068
		c0.832-0.464,1.584-0.948,2.256-1.452s1.232-1,1.68-1.488c0.448-0.488,0.756-0.96,0.924-1.416s0.164-0.876-0.012-1.26
		c-0.208-0.368-0.616-0.596-1.224-0.684c-0.608-0.087-1.356-0.036-2.244,0.156s-1.892,0.52-3.012,0.984
		c-1.12,0.464-2.288,1.064-3.504,1.8c-0.848,0.512-1.628,1.076-2.34,1.692c-0.712,0.616-1.352,1.244-1.92,1.884
		c-0.568,0.64-1.056,1.28-1.464,1.92c-0.408,0.64-0.724,1.24-0.948,1.8c-0.144,0.32-0.252,0.66-0.324,1.02
		c-0.072,0.36-0.084,0.708-0.036,1.044c0.048,0.336,0.18,0.632,0.396,0.888c0.216,0.256,0.54,0.44,0.972,0.552
		c0.304,0.064,0.74,0.04,1.308-0.072s1.204-0.276,1.908-0.492c0.704-0.216,1.452-0.476,2.244-0.78
		c0.792-0.304,1.564-0.624,2.316-0.96c0.751-0.336,1.452-0.664,2.1-0.984c0.648-0.32,1.196-0.616,1.644-0.888
		c0.112-0.048,0.192-0.048,0.24,0c0.048,0.128,0.032,0.208-0.048,0.24c-0.256,0.176-0.676,0.417-1.26,0.72s-1.252,0.624-2.004,0.96
		c-0.752,0.336-1.556,0.676-2.412,1.02s-1.68,0.644-2.472,0.9s-1.516,0.448-2.172,0.576C2.459,14.471,1.947,14.486,1.579,14.391z"/>
	<path d="M12.811,11.367c-0.192-0.16-0.272-0.348-0.24-0.564c0.032-0.216,0.128-0.424,0.288-0.624c0.16-0.2,0.352-0.38,0.576-0.54
		c0.224-0.16,0.424-0.272,0.6-0.336c0.032-0.016,0.084-0.024,0.156-0.024s0.108,0.024,0.108,0.072
		c0.032,0.064,0.016,0.128-0.048,0.192c-0.128,0.112-0.292,0.244-0.492,0.396c-0.2,0.152-0.396,0.292-0.588,0.42
		c-0.192,0.24-0.256,0.456-0.192,0.648c0.048,0.144,0.192,0.216,0.432,0.216c0.24,0,0.504-0.072,0.792-0.216
		c-0.176-0.16-0.252-0.36-0.228-0.6c0.024-0.24,0.104-0.472,0.24-0.696c0.136-0.224,0.308-0.416,0.516-0.576
		c0.208-0.16,0.4-0.232,0.576-0.216c0.048,0,0.087,0.004,0.12,0.012c0.032,0.008,0.072,0.036,0.12,0.084
		c0.096,0.128,0.124,0.288,0.084,0.48s-0.112,0.384-0.216,0.576c-0.104,0.192-0.22,0.369-0.348,0.528
		c-0.128,0.16-0.224,0.256-0.288,0.288c0.16,0.032,0.38,0.012,0.66-0.06c0.28-0.072,0.568-0.16,0.864-0.264
		c0.296-0.104,0.58-0.22,0.852-0.348c0.272-0.127,0.472-0.24,0.6-0.336c0.128,0,0.192,0.032,0.192,0.096
		c0.032,0.064,0.016,0.128-0.048,0.192c-0.16,0.112-0.384,0.236-0.672,0.372c-0.288,0.136-0.596,0.26-0.924,0.372
		s-0.656,0.196-0.984,0.252c-0.328,0.056-0.604,0.06-0.828,0.012c-0.416,0.272-0.768,0.4-1.056,0.384
		C13.147,11.543,12.939,11.479,12.811,11.367z M15.259,9.207c-0.112-0.016-0.24,0.044-0.384,0.18s-0.268,0.292-0.372,0.468
		c-0.104,0.176-0.172,0.356-0.204,0.54c-0.032,0.184,0.016,0.316,0.144,0.396c0.128-0.112,0.256-0.252,0.384-0.42
		c0.127-0.168,0.236-0.336,0.324-0.504s0.144-0.316,0.168-0.444C15.343,9.294,15.323,9.223,15.259,9.207z"/>
	<path d="M16.843,11.847c-0.128-0.064-0.2-0.156-0.216-0.276c-0.016-0.12,0-0.248,0.048-0.384c0.048-0.136,0.12-0.268,0.216-0.396
		c0.096-0.128,0.192-0.24,0.288-0.336c0.192-0.24,0.424-0.46,0.696-0.66c0.272-0.2,0.52-0.3,0.744-0.3
		c0.096,0,0.2,0.016,0.312,0.048c0.112,0.032,0.208,0.088,0.288,0.168c0.112-0.416,0.32-0.872,0.624-1.368
		c0.304-0.496,0.636-0.948,0.996-1.356c0.36-0.408,0.72-0.716,1.08-0.924c0.36-0.208,0.668-0.232,0.924-0.072
		c0.144,0.176,0.156,0.408,0.036,0.696c-0.12,0.288-0.304,0.592-0.552,0.912c-0.248,0.32-0.536,0.648-0.864,0.984
		s-0.62,0.64-0.876,0.912c-0.176,0.176-0.36,0.348-0.552,0.516s-0.408,0.364-0.648,0.588v0.048c0,0.128,0.016,0.208,0.048,0.24
		c0.064,0.128,0.192,0.204,0.384,0.228c0.192,0.024,0.428,0,0.708-0.072c0.279-0.072,0.588-0.192,0.924-0.36
		s0.672-0.372,1.008-0.612c0.112-0.048,0.192-0.048,0.24,0c0.063,0.112,0.048,0.192-0.048,0.24c-0.32,0.24-0.668,0.46-1.044,0.66
		s-0.74,0.344-1.092,0.432c-0.352,0.088-0.66,0.096-0.924,0.024c-0.264-0.072-0.428-0.268-0.492-0.588
		c-0.144,0.096-0.316,0.216-0.516,0.36s-0.404,0.276-0.612,0.396c-0.208,0.12-0.408,0.212-0.6,0.276s-0.352,0.056-0.48-0.024H16.843
		z M19.099,10.119V10.07h-0.048c-0.032,0-0.048-0.032-0.048-0.096c-0.048-0.096-0.176-0.144-0.384-0.144
		c-0.144-0.032-0.332,0.036-0.564,0.204s-0.444,0.372-0.636,0.612c-0.4,0.448-0.544,0.752-0.432,0.912l0.048,0.048
		c0.048,0.032,0.16,0.008,0.336-0.072c0.176-0.08,0.368-0.18,0.576-0.3c0.208-0.12,0.412-0.252,0.612-0.396
		c0.2-0.144,0.364-0.271,0.492-0.384L19.099,10.119z M22.555,6.23c-0.208-0.063-0.484,0.048-0.828,0.336
		c-0.344,0.288-0.68,0.648-1.008,1.08c-0.328,0.432-0.62,0.884-0.876,1.356c-0.256,0.472-0.408,0.868-0.456,1.188
		c0.176-0.144,0.392-0.34,0.648-0.588c0.256-0.248,0.52-0.516,0.792-0.804c0.272-0.288,0.536-0.576,0.792-0.864
		c0.256-0.288,0.472-0.552,0.648-0.792c0.176-0.24,0.296-0.444,0.36-0.612C22.691,6.362,22.667,6.263,22.555,6.23z"/>
	<path d="M19.531,15.59c-0.048-0.255,0.008-0.512,0.168-0.768c0.16-0.256,0.396-0.488,0.708-0.696
		c0.312-0.208,0.672-0.384,1.08-0.528c0.408-0.144,0.844-0.232,1.308-0.264h0.192c0.304-0.592,0.54-1.056,0.708-1.392
		s0.292-0.592,0.372-0.768c0.08-0.176,0.136-0.292,0.168-0.348s0.056-0.108,0.072-0.156l-0.216,0.168
		c-0.24,0.192-0.48,0.328-0.72,0.408c-0.24,0.08-0.448,0.056-0.624-0.072v-0.048c-0.144-0.144-0.192-0.368-0.144-0.672l0.096-0.192
		l-0.528,0.336c-0.144,0.048-0.24,0.032-0.288-0.048c-0.032-0.08,0-0.144,0.096-0.192c0.176-0.08,0.356-0.18,0.54-0.3
		c0.184-0.12,0.324-0.228,0.42-0.324l0.048-0.048c0.128-0.128,0.24-0.16,0.336-0.096c0.096,0.064,0.08,0.16-0.048,0.288
		l-0.096,0.096c-0.272,0.464-0.353,0.752-0.24,0.864v0.048l0.048,0.048c0.176,0.048,0.42-0.02,0.732-0.204
		c0.312-0.184,0.58-0.42,0.804-0.708V9.975c-0.032,0.032-0.036,0.024-0.012-0.024c0.024-0.048,0.076-0.056,0.156-0.024h0.048
		c0.032,0.016,0.048,0.032,0.048,0.048c0,0.016,0.008,0.032,0.024,0.048c0,0.016,0.008,0.032,0.024,0.048v0.096
		c-0.176,0.528-0.392,1.068-0.648,1.62c-0.256,0.552-0.52,1.068-0.792,1.548h0.48c0.24,0.048,0.488,0.108,0.744,0.18
		c0.255,0.072,0.504,0.172,0.744,0.3c0.096,0.048,0.112,0.128,0.048,0.24c-0.064,0.064-0.128,0.08-0.192,0.048
		c-0.32-0.176-0.632-0.292-0.936-0.348c-0.304-0.056-0.616-0.1-0.936-0.132h-0.144c-0.48,0.72-1,1.284-1.56,1.692
		c-0.56,0.408-1.08,0.612-1.56,0.612c-0.128,0-0.248-0.024-0.36-0.072S19.531,15.719,19.531,15.59z M22.411,13.719
		c-0.176,0-0.336,0.02-0.48,0.06c-0.144,0.041-0.288,0.084-0.432,0.132c-0.56,0.192-0.992,0.444-1.296,0.756
		c-0.304,0.312-0.432,0.604-0.384,0.876c0,0.016,0.016,0.032,0.048,0.048c0.032,0.032,0.096,0.048,0.192,0.048
		c0.464,0,0.92-0.184,1.368-0.552c0.448-0.368,0.904-0.84,1.368-1.416L22.411,13.719z"/>
	<path d="M32.826,16.022c-0.032,0-0.056-0.024-0.072-0.072c-0.016-0.048-0.008-0.088,0.024-0.12v-0.096
		c-0.272,0.032-0.572,0.06-0.9,0.084c-0.328,0.024-0.624,0.024-0.888,0c-0.264-0.024-0.472-0.076-0.624-0.156
		c-0.152-0.08-0.18-0.216-0.084-0.408c0.064-0.144,0.244-0.28,0.54-0.408c0.296-0.128,0.628-0.24,0.996-0.336
		c0.368-0.096,0.732-0.18,1.092-0.252c0.36-0.072,0.636-0.124,0.828-0.156c0.56-0.88,1.144-1.716,1.752-2.508
		c0.608-0.792,1.204-1.528,1.788-2.208c0.584-0.68,1.144-1.3,1.68-1.86c0.536-0.56,1.02-1.056,1.452-1.488l0.048-0.096l-0.336,0.144
		c-0.928,0.448-1.74,0.712-2.436,0.792c-0.696,0.081-1.248,0.036-1.656-0.132s-0.668-0.44-0.78-0.816s-0.044-0.808,0.204-1.296
		c0.248-0.488,0.68-1.008,1.296-1.56c0.616-0.552,1.452-1.084,2.508-1.596c0.752-0.368,1.58-0.656,2.484-0.864
		c0.904-0.208,1.804-0.336,2.701-0.384c0.895-0.048,1.752-0.012,2.566,0.108c0.816,0.12,1.518,0.328,2.102,0.624
		c0.584,0.296,1.008,0.684,1.271,1.164s0.301,1.048,0.107,1.704c-0.127,0.448-0.42,0.96-0.875,1.536
		c-0.457,0.576-1.08,1.156-1.873,1.74c-0.791,0.584-1.744,1.14-2.855,1.668c-1.111,0.528-2.396,0.96-3.852,1.296
		c0.256,0.128,0.424,0.296,0.504,0.504s0.096,0.44,0.048,0.696c-0.048,0.256-0.156,0.516-0.324,0.78
		c-0.168,0.264-0.372,0.5-0.612,0.708c0.72-0.176,1.456-0.364,2.208-0.564c0.752-0.2,1.488-0.408,2.207-0.624
		c0.721-0.216,1.404-0.452,2.053-0.708c0.648-0.255,1.227-0.536,1.74-0.84c0.08-0.08,0.143-0.063,0.191,0.048
		c0.031,0.033,0.043,0.072,0.035,0.12c-0.008,0.048-0.035,0.072-0.084,0.072c-1.039,0.624-2.299,1.148-3.779,1.572
		c-1.48,0.424-3.1,0.876-4.86,1.356h-0.096c-0.528,0.352-1.084,0.656-1.668,0.912c-0.584,0.256-1.176,0.48-1.776,0.672
		s-1.204,0.356-1.812,0.492c-0.608,0.136-1.208,0.26-1.8,0.372l-0.144,0.336c-0.032,0.032-0.068,0.056-0.108,0.072
		C32.918,16.062,32.874,16.055,32.826,16.022z M32.971,15.398l0.528-0.912c-0.208,0.032-0.472,0.076-0.792,0.132
		s-0.632,0.128-0.936,0.216c-0.304,0.088-0.567,0.18-0.792,0.276c-0.224,0.096-0.344,0.192-0.36,0.288
		c-0.032,0.096,0.168,0.152,0.6,0.168c0.432,0.016,1-0.04,1.704-0.168H32.971z M39.451,13.334c-1.056,0.192-2.072,0.384-3.048,0.576
		c-0.976,0.192-1.8,0.352-2.472,0.48l-0.144,0.24l-0.384,0.672c1.056-0.224,2.104-0.488,3.144-0.792
		C37.586,14.207,38.555,13.814,39.451,13.334z M40.075,12.902c0.336-0.255,0.612-0.552,0.828-0.888
		c0.216-0.336,0.34-0.644,0.372-0.924c0.032-0.279-0.044-0.504-0.228-0.672c-0.184-0.168-0.508-0.22-0.972-0.156h-0.096
		c-0.096,0-0.144-0.048-0.144-0.144c-0.033-0.032-0.028-0.072,0.012-0.12c0.04-0.048,0.084-0.072,0.132-0.072
		c0.496-0.048,1.068-0.156,1.716-0.324s1.315-0.388,2.004-0.66c0.688-0.271,1.371-0.588,2.051-0.948s1.313-0.76,1.896-1.2
		c0.584-0.44,1.096-0.916,1.537-1.428c0.439-0.512,0.764-1.056,0.971-1.632c0.209-0.576,0.193-1.076-0.047-1.5
		c-0.24-0.423-0.637-0.768-1.189-1.032c-0.551-0.264-1.215-0.448-1.992-0.552c-0.775-0.104-1.592-0.132-2.447-0.084
		c-0.855,0.048-1.721,0.168-2.592,0.36c-0.872,0.192-1.668,0.456-2.388,0.792c-0.912,0.432-1.664,0.892-2.256,1.38
		c-0.592,0.488-1.024,0.952-1.296,1.392c-0.272,0.44-0.392,0.84-0.36,1.2c0.032,0.36,0.22,0.621,0.564,0.78
		c0.344,0.16,0.84,0.2,1.488,0.12c0.648-0.08,1.444-0.328,2.388-0.744c0.144-0.096,0.288-0.172,0.432-0.228
		c0.144-0.056,0.288-0.124,0.432-0.204l0.288-0.144l0.048-0.048c0.416-0.384,0.8-0.74,1.152-1.068
		c0.352-0.328,0.688-0.612,1.008-0.852c0.385-0.32,0.729-0.568,1.031-0.744c0.305-0.176,0.52-0.264,0.648-0.264
		c0.064,0,0.129,0.032,0.191,0.096c0.033,0,0.049,0.016,0.049,0.048c0,0.032-0.016,0.064-0.049,0.096
		c-0.127,0.368-0.516,0.796-1.164,1.284c-0.646,0.488-1.395,0.972-2.243,1.452l-0.432,0.192L40.651,6.23
		c-0.417,0.432-0.892,0.924-1.428,1.476c-0.536,0.552-1.092,1.156-1.668,1.812c-0.576,0.656-1.16,1.364-1.752,2.124
		c-0.592,0.76-1.152,1.564-1.68,2.412c1.056-0.192,2.024-0.38,2.904-0.564c0.879-0.184,1.752-0.348,2.616-0.492L40.075,12.902z
		 M43.578,3.542c-0.096,0.096-0.199,0.184-0.311,0.264c-0.113,0.08-0.217,0.168-0.313,0.264L42.33,4.646l0.24-0.144
		c0.48-0.32,0.92-0.627,1.32-0.924c0.4-0.296,0.695-0.564,0.889-0.804c-0.145,0.048-0.313,0.141-0.504,0.276
		C44.082,3.187,43.851,3.351,43.578,3.542z"/>
	<path d="M49.003,11.606c-0.144-0.032-0.276-0.1-0.396-0.204c-0.12-0.104-0.181-0.244-0.181-0.42c0-0.096,0.021-0.2,0.061-0.312
		c0.039-0.112,0.084-0.231,0.132-0.36l0.096-0.096v-0.048c-0.08-0.08-0.063-0.144,0.048-0.192l0.192-0.096l0.144-0.24
		c0.336-0.448,0.788-0.964,1.356-1.548c0.567-0.583,1.164-1.144,1.788-1.68s1.244-1.016,1.86-1.44
		c0.615-0.424,1.14-0.708,1.571-0.852h0.145c0.159,0,0.239,0.064,0.239,0.192c-0.032,0.176-0.168,0.4-0.407,0.672
		c-0.24,0.272-0.568,0.592-0.984,0.96c-0.208,0.176-0.521,0.432-0.936,0.768c-0.417,0.336-0.868,0.696-1.356,1.08
		s-0.984,0.76-1.488,1.128c-0.504,0.368-0.939,0.672-1.308,0.912l-0.432,0.24l-0.049,0.096c-0.096,0.144-0.176,0.284-0.239,0.42
		c-0.064,0.136-0.097,0.268-0.097,0.396c0,0.192,0.112,0.312,0.336,0.36c0.225,0.048,0.508,0.052,0.853,0.012
		c0.344-0.04,0.72-0.116,1.128-0.228c0.408-0.112,0.804-0.236,1.188-0.372c0.385-0.136,0.729-0.276,1.032-0.42
		s0.52-0.264,0.648-0.36c0.096-0.08,0.176-0.08,0.24,0c0.063,0.08,0.048,0.16-0.049,0.24c-0.191,0.16-0.508,0.34-0.947,0.54
		c-0.44,0.2-0.921,0.38-1.44,0.54c-0.521,0.16-1.032,0.276-1.536,0.348C49.711,11.714,49.306,11.703,49.003,11.606z M54.427,5.703
		c0.24-0.192,0.436-0.364,0.588-0.516c0.152-0.152,0.292-0.3,0.42-0.444l0.145-0.144l0.096-0.144l-0.144,0.048
		c-0.561,0.256-1.128,0.596-1.704,1.02c-0.576,0.424-1.128,0.868-1.656,1.332c-0.528,0.464-1.008,0.92-1.439,1.368
		c-0.433,0.448-0.784,0.824-1.057,1.128l0.336-0.24c0.288-0.192,0.648-0.452,1.08-0.78c0.433-0.328,0.868-0.66,1.309-0.996
		c0.439-0.336,0.844-0.656,1.212-0.96C53.978,6.071,54.251,5.847,54.427,5.703z"/>
	<path d="M53.035,11.703c-0.192-0.112-0.264-0.284-0.216-0.516s0.168-0.456,0.36-0.672c0.191-0.216,0.432-0.408,0.72-0.576
		s0.576-0.252,0.864-0.252c0.191,0,0.363,0.04,0.516,0.12c0.151,0.08,0.252,0.168,0.3,0.264c0.032,0.048,0.02,0.092-0.036,0.132
		s-0.107,0.044-0.155,0.012c-0.081-0.048-0.156-0.1-0.229-0.156s-0.204-0.084-0.396-0.084c-0.192,0-0.4,0.064-0.624,0.192
		c-0.225,0.128-0.421,0.276-0.589,0.444s-0.287,0.328-0.359,0.48c-0.072,0.152-0.061,0.26,0.036,0.324
		c0.144,0.032,0.336-0.004,0.575-0.108c0.24-0.104,0.492-0.232,0.757-0.384c0.264-0.152,0.52-0.315,0.768-0.492
		c0.248-0.176,0.46-0.328,0.636-0.456c0.16-0.128,0.269-0.144,0.324-0.048c0.056,0.096,0.044,0.176-0.036,0.24
		c-0.208,0.144-0.348,0.324-0.42,0.54s-0.052,0.348,0.061,0.396c0.111,0.048,0.296,0.02,0.552-0.084s0.52-0.228,0.792-0.372
		c0.271-0.144,0.528-0.288,0.768-0.432c0.24-0.144,0.393-0.24,0.456-0.288c0.097-0.048,0.172-0.024,0.229,0.072
		c0.056,0.096,0.044,0.168-0.036,0.216c-0.112,0.064-0.288,0.172-0.528,0.324c-0.24,0.152-0.5,0.3-0.78,0.444
		c-0.279,0.144-0.56,0.264-0.84,0.36c-0.28,0.096-0.508,0.12-0.684,0.072c-0.177-0.048-0.284-0.152-0.324-0.312
		c-0.04-0.16-0.021-0.312,0.061-0.456c-0.177,0.128-0.385,0.268-0.624,0.42c-0.24,0.152-0.488,0.284-0.744,0.396
		c-0.257,0.112-0.488,0.196-0.696,0.252C53.283,11.771,53.131,11.767,53.035,11.703z"/>
	<path d="M57.499,11.415c-0.032-0.192,0.016-0.408,0.145-0.648c0.127-0.24,0.304-0.456,0.527-0.648
		c0.08-0.064,0.192-0.144,0.336-0.24c0.145-0.096,0.296-0.18,0.456-0.252c0.16-0.072,0.324-0.124,0.492-0.156
		s0.315-0.024,0.444,0.024c0.096,0.064,0.14,0.14,0.132,0.228c-0.009,0.088-0.048,0.176-0.12,0.264
		c-0.072,0.088-0.16,0.172-0.264,0.252c-0.104,0.08-0.196,0.136-0.276,0.168c-0.08,0.048-0.144,0.036-0.192-0.036
		c-0.048-0.072-0.032-0.14,0.049-0.204c0.096-0.048,0.18-0.104,0.252-0.168c0.071-0.064,0.147-0.136,0.228-0.216
		c-0.096-0.048-0.269-0.016-0.516,0.096c-0.249,0.112-0.46,0.24-0.637,0.384c-0.176,0.128-0.34,0.284-0.491,0.468
		c-0.152,0.184-0.229,0.38-0.229,0.588c0,0.096,0.116,0.148,0.348,0.156c0.232,0.008,0.437-0.012,0.612-0.06
		c0.384-0.096,0.864-0.268,1.44-0.516c0.576-0.248,1.264-0.604,2.063-1.068c0.032-0.032,0.072-0.04,0.12-0.024
		c0.048,0.016,0.088,0.04,0.12,0.072c0,0.128-0.016,0.192-0.048,0.192c-0.816,0.48-1.524,0.849-2.124,1.104
		c-0.601,0.256-1.092,0.432-1.477,0.528c-0.256,0.064-0.536,0.092-0.84,0.084C57.747,11.779,57.562,11.655,57.499,11.415z"/>
	<path d="M62.972,10.982c0.063-0.128,0.123-0.244,0.18-0.348c0.056-0.104,0.116-0.216,0.18-0.336
		c0.064-0.12,0.141-0.255,0.229-0.408c0.088-0.152,0.212-0.348,0.372-0.588c-0.465,0.272-0.84,0.488-1.128,0.648
		c-0.288,0.16-0.568,0.328-0.841,0.504c-0.032,0-0.071-0.004-0.119-0.012c-0.049-0.008-0.089-0.036-0.12-0.084
		c0-0.096,0.031-0.16,0.096-0.192c0.384-0.24,0.768-0.464,1.152-0.672c0.384-0.208,0.831-0.456,1.344-0.744
		c0.368-0.528,0.712-0.964,1.032-1.308c0.319-0.344,0.615-0.636,0.888-0.876c0.528-0.464,1.016-0.8,1.464-1.008
		s0.792-0.24,1.032-0.096c0.144,0.096,0.192,0.24,0.144,0.432c-0.048,0.144-0.144,0.288-0.288,0.432
		c-0.144,0.144-0.332,0.3-0.563,0.468c-0.232,0.168-0.508,0.364-0.828,0.588c-0.336,0.192-0.696,0.404-1.08,0.636
		s-0.792,0.468-1.224,0.708l-0.336,0.192c-0.192,0.288-0.345,0.524-0.456,0.708c-0.112,0.184-0.265,0.428-0.456,0.732
		c0.111-0.08,0.304-0.212,0.576-0.396c0.271-0.184,0.567-0.375,0.888-0.576s0.644-0.384,0.972-0.552s0.62-0.276,0.876-0.324
		c0.145-0.032,0.292-0.024,0.444,0.024c0.151,0.048,0.228,0.16,0.228,0.336c-0.032,0.208-0.147,0.38-0.348,0.516
		s-0.424,0.244-0.672,0.324c-0.248,0.081-0.492,0.136-0.732,0.168c-0.239,0.032-0.407,0.048-0.504,0.048
		c0.048,0.192,0.141,0.42,0.276,0.684c0.136,0.264,0.315,0.42,0.54,0.468c0.271,0.08,0.691,0.008,1.26-0.216
		c0.567-0.224,1.204-0.552,1.908-0.984c0.032-0.032,0.072-0.04,0.12-0.024c0.048,0.016,0.088,0.04,0.12,0.072
		c0,0.128-0.032,0.208-0.097,0.24c-0.352,0.224-0.7,0.424-1.044,0.6c-0.344,0.176-0.672,0.324-0.983,0.444
		c-0.313,0.12-0.601,0.196-0.864,0.228c-0.264,0.032-0.484,0.008-0.66-0.072c-0.112-0.048-0.22-0.136-0.324-0.264
		c-0.104-0.128-0.2-0.264-0.288-0.408c-0.088-0.144-0.164-0.292-0.228-0.444c-0.064-0.152-0.104-0.276-0.12-0.372
		c-0.384,0.225-0.724,0.456-1.02,0.696c-0.297,0.24-0.532,0.456-0.708,0.648c-0.097,0.096-0.181,0.104-0.252,0.024
		C62.935,11.166,62.924,11.079,62.972,10.982z M67.003,7.095c0.32-0.224,0.589-0.412,0.805-0.564s0.396-0.3,0.54-0.444
		c0.08-0.08,0.132-0.14,0.155-0.18c0.024-0.04,0.052-0.076,0.084-0.108c0-0.032-0.016-0.048-0.048-0.048
		c-0.096-0.08-0.332-0.052-0.708,0.084c-0.376,0.136-0.844,0.46-1.403,0.972c-0.192,0.176-0.393,0.368-0.601,0.576
		c-0.208,0.208-0.424,0.448-0.647,0.72l-0.145,0.192l0.336-0.192c0.288-0.176,0.572-0.352,0.853-0.528
		C66.503,7.398,66.763,7.239,67.003,7.095z M67.291,8.918c0.032-0.048,0.032-0.092,0-0.132s-0.096-0.044-0.191-0.012
		c-0.225,0.048-0.513,0.168-0.864,0.36c-0.353,0.192-0.64,0.36-0.864,0.504c0.112-0.016,0.265-0.04,0.456-0.072
		c0.192-0.032,0.384-0.08,0.576-0.144c0.192-0.063,0.372-0.136,0.54-0.216S67.227,9.031,67.291,8.918z"/>
	<path d="M69.451,10.743l0.145-0.24c0.048-0.08,0.092-0.156,0.132-0.228c0.04-0.072,0.076-0.156,0.108-0.252V9.975l-0.049,0.048
		l-0.144,0.096c-0.128,0.08-0.256,0.16-0.384,0.24c-0.129,0.081-0.24,0.144-0.336,0.192c-0.097,0.048-0.177,0.016-0.24-0.096
		c-0.064-0.064-0.032-0.128,0.096-0.192c0.097-0.048,0.208-0.104,0.336-0.168s0.24-0.136,0.336-0.216l0.24-0.192l0.145-0.144V9.495
		c0.031-0.08,0.079-0.124,0.144-0.132c0.063-0.008,0.112,0.036,0.145,0.132l0.048,0.096c0.048,0.225,0.016,0.448-0.097,0.672
		c0.145-0.096,0.345-0.228,0.601-0.396s0.523-0.324,0.804-0.468s0.552-0.256,0.816-0.336c0.264-0.08,0.483-0.08,0.66,0
		c0.096,0.048,0.144,0.128,0.144,0.24s-0.021,0.228-0.06,0.348c-0.041,0.12-0.093,0.236-0.156,0.348
		c-0.064,0.112-0.104,0.2-0.12,0.264v0.048c0.144-0.096,0.328-0.212,0.552-0.348c0.224-0.136,0.456-0.255,0.696-0.36
		c0.24-0.104,0.476-0.18,0.708-0.228c0.231-0.048,0.428-0.04,0.588,0.024c0.144,0.048,0.192,0.144,0.144,0.288
		c0,0.032,0,0.064,0,0.096s-0.016,0.064-0.048,0.096c-0.08,0.144-0.2,0.304-0.359,0.48c-0.16,0.176-0.284,0.336-0.372,0.48
		c-0.089,0.144-0.089,0.244,0,0.3c0.088,0.056,0.348,0.036,0.779-0.06c1.137-0.24,2.097-0.608,2.881-1.104
		c0.031-0.048,0.071-0.064,0.119-0.048c0.049,0.016,0.072,0.048,0.072,0.096c0.063,0.064,0.063,0.128,0,0.192
		c-0.464,0.288-0.964,0.537-1.5,0.744c-0.536,0.208-1.06,0.36-1.572,0.456c-0.447,0.08-0.764,0.092-0.947,0.036
		c-0.185-0.056-0.284-0.144-0.301-0.264c-0.016-0.12,0.028-0.264,0.133-0.432c0.104-0.168,0.216-0.332,0.336-0.492
		c0.12-0.16,0.224-0.292,0.312-0.396s0.116-0.164,0.084-0.18c-0.112-0.048-0.292-0.032-0.54,0.048
		c-0.248,0.081-0.516,0.196-0.804,0.348c-0.288,0.152-0.576,0.324-0.864,0.516s-0.512,0.368-0.672,0.528
		c-0.048,0.048-0.092,0.1-0.132,0.156s-0.076,0.1-0.108,0.132h-0.048c-0.08,0-0.144-0.028-0.191-0.084
		c-0.049-0.056-0.049-0.108,0-0.156c0.224-0.271,0.411-0.532,0.563-0.78s0.264-0.456,0.336-0.624s0.104-0.296,0.096-0.384
		c-0.008-0.088-0.067-0.116-0.18-0.084c-0.176,0.032-0.4,0.116-0.672,0.252c-0.272,0.136-0.552,0.296-0.84,0.48
		s-0.568,0.372-0.84,0.564c-0.272,0.192-0.496,0.368-0.672,0.528c-0.049,0.048-0.093,0.1-0.133,0.156s-0.076,0.1-0.107,0.132h-0.048
		c-0.081,0-0.145-0.028-0.192-0.084c-0.048-0.056-0.048-0.108,0-0.156L69.451,10.743z"/>
	<path d="M77.42,11.703c-0.192-0.112-0.264-0.284-0.216-0.516s0.168-0.456,0.36-0.672c0.191-0.216,0.432-0.408,0.72-0.576
		s0.576-0.252,0.864-0.252c0.191,0,0.363,0.04,0.516,0.12c0.151,0.08,0.252,0.168,0.3,0.264c0.032,0.048,0.02,0.092-0.036,0.132
		s-0.107,0.044-0.155,0.012c-0.081-0.048-0.156-0.1-0.229-0.156s-0.204-0.084-0.396-0.084c-0.192,0-0.4,0.064-0.624,0.192
		c-0.225,0.128-0.421,0.276-0.589,0.444s-0.287,0.328-0.359,0.48c-0.072,0.152-0.061,0.26,0.036,0.324
		c0.144,0.032,0.336-0.004,0.575-0.108c0.24-0.104,0.492-0.232,0.757-0.384c0.264-0.152,0.52-0.315,0.768-0.492
		c0.248-0.176,0.46-0.328,0.636-0.456c0.16-0.128,0.269-0.144,0.324-0.048c0.056,0.096,0.044,0.176-0.036,0.24
		c-0.208,0.144-0.348,0.324-0.42,0.54s-0.052,0.348,0.061,0.396c0.111,0.048,0.296,0.02,0.552-0.084s0.52-0.228,0.792-0.372
		c0.271-0.144,0.528-0.288,0.768-0.432c0.24-0.144,0.393-0.24,0.456-0.288c0.097-0.048,0.172-0.024,0.229,0.072
		c0.056,0.096,0.044,0.168-0.036,0.216c-0.112,0.064-0.288,0.172-0.528,0.324c-0.24,0.152-0.5,0.3-0.78,0.444
		c-0.279,0.144-0.56,0.264-0.84,0.36c-0.28,0.096-0.508,0.12-0.684,0.072c-0.177-0.048-0.284-0.152-0.324-0.312
		c-0.04-0.16-0.021-0.312,0.061-0.456c-0.177,0.128-0.385,0.268-0.624,0.42c-0.24,0.152-0.488,0.284-0.744,0.396
		c-0.257,0.112-0.488,0.196-0.696,0.252C77.668,11.771,77.515,11.767,77.42,11.703z"/>
	<path d="M82.508,11.174c0.048-0.048,0.096-0.096,0.144-0.144c0.049-0.048,0.097-0.112,0.145-0.192
		c0.176-0.144,0.3-0.284,0.372-0.42c0.072-0.136,0.124-0.268,0.156-0.396V9.975l-0.049,0.048c-0.032,0.032-0.056,0.048-0.071,0.048
		c-0.017,0-0.04,0.017-0.072,0.048c-0.128,0.08-0.256,0.16-0.384,0.24c-0.129,0.081-0.24,0.144-0.336,0.192
		c-0.097,0.048-0.177,0.016-0.24-0.096c-0.064-0.064-0.032-0.128,0.096-0.192c0.097-0.048,0.208-0.104,0.336-0.168
		s0.24-0.136,0.336-0.216c0.032-0.032,0.057-0.052,0.072-0.06c0.016-0.008,0.04-0.027,0.072-0.06
		c0.032-0.016,0.063-0.04,0.096-0.072l0.145-0.144V9.495c0.031-0.08,0.079-0.124,0.144-0.132c0.063-0.008,0.112,0.036,0.145,0.132
		c0.048,0.176,0.063,0.324,0.048,0.444c-0.017,0.12-0.048,0.244-0.097,0.372c0.32-0.208,0.624-0.38,0.912-0.516
		c0.288-0.136,0.54-0.228,0.756-0.276c0.217-0.048,0.385-0.036,0.505,0.036c0.119,0.072,0.18,0.212,0.18,0.42
		c0,0.352,0.052,0.692,0.156,1.02c0.104,0.328,0.271,0.612,0.504,0.852c0.231,0.24,0.535,0.416,0.912,0.528
		c0.375,0.112,0.844,0.128,1.403,0.048c0.192-0.016,0.424-0.063,0.696-0.144c0.271-0.08,0.548-0.18,0.828-0.3
		c0.279-0.12,0.548-0.256,0.804-0.408c0.256-0.152,0.472-0.315,0.648-0.492c0.111-0.064,0.191-0.048,0.239,0.048
		c0.032,0.048,0.044,0.081,0.036,0.096c-0.008,0.016-0.036,0.048-0.084,0.096c-0.191,0.192-0.428,0.369-0.708,0.528
		c-0.28,0.16-0.567,0.3-0.863,0.42c-0.297,0.12-0.593,0.224-0.889,0.312s-0.548,0.148-0.756,0.18
		c-0.688,0.096-1.248,0.048-1.68-0.144c-0.433-0.192-0.769-0.448-1.008-0.768c-0.24-0.32-0.404-0.664-0.492-1.032
		c-0.088-0.368-0.132-0.68-0.132-0.936c-0.177-0.016-0.381,0.016-0.612,0.096c-0.232,0.08-0.46,0.18-0.684,0.3
		c-0.225,0.12-0.44,0.252-0.648,0.396s-0.376,0.264-0.504,0.36c-0.08,0.096-0.152,0.184-0.216,0.264
		c-0.064,0.081-0.12,0.12-0.168,0.12c-0.097,0.096-0.177,0.104-0.24,0.024C82.395,11.359,82.412,11.271,82.508,11.174z"/>
</g>
</svg>
