<svg xmlns="http://www.w3.org/2000/svg" viewBox="0 0 92.15 16.05"><path d="M1.58 14.4a2.2 2.2 0 0 1-.97-.51c-.24-.23-.4-.5-.5-.8a2.6 2.6 0 0 1-.1-.97c.02-.34.08-.69.18-1.04.17-.6.47-1.26.9-1.97.42-.7.94-1.41 1.54-2.12A20.28 20.28 0 0 1 7.2 3.06a28.94 28.94 0 0 1 3.4-1.77A17.6 17.6 0 0 1 13.75.22c.96-.22 1.78-.27 2.47-.17s1.17.4 1.44.9c.22.46.24.95.04 1.46-.2.52-.54 1.03-1.02 1.55S15.6 5 14.9 5.5a24.09 24.09 0 0 1-6.47 3.25c-.67.18-1.25.26-1.74.24s-.78-.2-.9-.54c-.06-.2-.03-.45.09-.72s.3-.56.56-.85a7.94 7.94 0 0 1 3.12-2.13c.39-.12.75-.19 1.08-.19.13.07.2.13.2.2 0 .09-.07.14-.2.14a3.4 3.4 0 0 0-1.57.38c-.57.27-1.1.6-1.57.97S6.65 7 6.37 7.4s-.38.7-.28.94c.08.2.31.3.7.33.38.02.88-.05 1.5-.23a20.53 20.53 0 0 0 6.49-3.23c.67-.5 1.23-1 1.68-1.49.45-.49.75-.96.92-1.41s.17-.88 0-1.26c-.22-.37-.63-.6-1.23-.69-.61-.08-1.36-.03-2.25.16s-1.89.52-3 .98a26.11 26.11 0 0 0-3.51 1.8c-.85.51-1.63 1.08-2.34 1.7-.72.61-1.36 1.24-1.92 1.88-.57.64-1.06 1.28-1.47 1.92-.4.64-.72 1.24-.95 1.8-.14.32-.25.66-.32 1.02s-.08.7-.04 1.04c.05.34.18.63.4.89.22.26.54.44.97.55.3.07.74.04 1.31-.07s1.2-.28 1.9-.5c.71-.2 1.46-.47 2.25-.77a46.7 46.7 0 0 0 6.06-2.83c.11-.05.2-.05.24 0 .05.12.03.2-.05.24-.25.17-.67.41-1.26.72s-1.25.62-2 .96c-.75.33-1.56.67-2.41 1.02s-1.68.64-2.47.9-1.52.44-2.18.57c-.65.13-1.16.15-1.53.05z"/><path d="M12.81 11.37c-.2-.16-.27-.35-.24-.57.03-.21.13-.42.29-.62a2.86 2.86 0 0 1 1.18-.88l.15-.02c.07 0 .1.02.1.07.04.06.03.13-.04.2a9.42 9.42 0 0 1-1.08.8c-.2.25-.25.47-.2.66.06.14.2.21.44.21s.5-.07.8-.21a.68.68 0 0 1-.23-.6c.02-.24.1-.48.24-.7.13-.22.3-.42.51-.58.2-.16.4-.23.58-.21l.12.01a.3.3 0 0 1 .12.09c.1.12.12.28.08.48s-.11.38-.22.57c-.1.2-.21.37-.34.53-.13.16-.23.26-.3.29.17.03.39 0 .67-.06a10.5 10.5 0 0 0 1.72-.61c.27-.13.47-.24.6-.34.12 0 .19.03.19.1.03.06.01.12-.05.19a8.9 8.9 0 0 1-2.58 1c-.33.05-.6.05-.83 0-.41.28-.77.4-1.05.39-.3-.02-.5-.08-.63-.2zm2.45-2.16c-.11-.02-.24.04-.38.18s-.27.29-.38.46c-.1.18-.17.36-.2.55-.03.18.01.31.14.4a3.65 3.65 0 0 0 .7-.92c.1-.18.15-.33.18-.46.02-.13 0-.2-.06-.21z"/><path d="M16.84 11.85c-.12-.07-.2-.16-.21-.28a.82.82 0 0 1 .04-.38c.05-.14.12-.27.22-.4l.29-.34c.2-.24.42-.46.7-.66.27-.2.52-.3.74-.3.1 0 .2.02.31.05.11.03.2.1.29.17.11-.42.32-.87.62-1.37.3-.5.64-.95 1-1.35.36-.41.72-.72 1.08-.93.36-.2.67-.23.92-.07.15.18.16.4.04.7-.12.28-.3.59-.55.9-.25.33-.54.66-.87 1l-.87.9c-.18.18-.36.35-.56.52l-.64.59v.05c0 .12.01.2.04.24.07.12.2.2.39.22.2.03.43 0 .7-.07.29-.07.6-.19.93-.36s.67-.37 1-.6c.12-.06.2-.06.25 0 .06.1.05.18-.05.23-.32.24-.67.46-1.04.66s-.74.34-1.1.43c-.35.1-.66.1-.92.03-.26-.08-.43-.27-.5-.6l-.5.37a6 6 0 0 1-1.22.67c-.2.06-.35.06-.48-.02h-.05zm2.26-1.73v-.05h-.05c-.03 0-.05-.03-.05-.1-.04-.1-.17-.14-.38-.14-.14-.03-.33.04-.56.2s-.45.38-.64.62c-.4.44-.54.75-.43.9l.05.06c.04.03.16 0 .33-.08a6.78 6.78 0 0 0 1.68-1.08l.05-.33zm3.45-3.89c-.2-.06-.48.05-.82.34-.35.28-.68.64-1.01 1.08-.33.43-.62.88-.88 1.35-.25.47-.4.87-.45 1.19a25.45 25.45 0 0 0 2.88-3.05c.17-.24.3-.44.36-.61.06-.17.04-.27-.07-.3z"/><path d="M19.53 15.59c-.05-.26 0-.51.17-.77.16-.25.4-.49.7-.7a4.85 4.85 0 0 1 2.4-.79h.19a154.4 154.4 0 0 0 1.32-2.66l-.22.17c-.24.19-.48.33-.72.4-.24.09-.45.06-.62-.07v-.04c-.15-.15-.2-.37-.15-.68l.1-.19-.53.34c-.14.05-.24.03-.29-.05-.03-.08 0-.14.1-.2a4.1 4.1 0 0 0 .96-.62l.05-.04c.12-.13.24-.16.33-.1.1.06.08.16-.05.29l-.1.1c-.26.46-.34.75-.23.86v.05l.05.04c.17.05.42-.02.73-.2.31-.18.58-.42.8-.7v-.05c-.03.03-.03.02 0-.03.01-.05.07-.05.15-.02h.04c.04.01.05.03.05.05l.03.04c0 .02 0 .04.02.05v.1a21.42 21.42 0 0 1-1.44 3.17h.48c.24.04.49.1.74.18.26.07.5.17.75.3.1.04.11.12.05.24-.07.06-.13.08-.2.04-.32-.17-.63-.29-.93-.34-.3-.06-.62-.1-.94-.14h-.14c-.48.72-1 1.29-1.56 1.7-.56.4-1.08.6-1.56.6-.13 0-.25-.02-.36-.06s-.17-.14-.17-.27zm2.88-1.87c-.17 0-.33.02-.48.06l-.43.13c-.56.2-1 .44-1.3.76-.3.3-.43.6-.38.87 0 .02.02.04.05.05.03.03.1.05.19.05.46 0 .92-.19 1.37-.55.44-.37.9-.84 1.36-1.42l-.38.05zM32.83 16.02c-.04 0-.06-.02-.08-.07-.01-.05 0-.09.03-.12v-.1c-.27.04-.57.06-.9.09-.33.02-.63.02-.89 0a1.69 1.69 0 0 1-.62-.16c-.16-.08-.18-.21-.09-.4.07-.15.25-.29.54-.41.3-.13.63-.24 1-.34a19.4 19.4 0 0 1 1.92-.4c.56-.89 1.14-1.72 1.75-2.52a51.88 51.88 0 0 1 4.92-5.55l.05-.1-.34.15c-.93.44-1.74.7-2.43.79-.7.08-1.25.03-1.66-.13s-.67-.44-.78-.82-.04-.8.2-1.3c.25-.48.68-1 1.3-1.56.62-.55 1.45-1.08 2.5-1.6a11.5 11.5 0 0 1 2.5-.86c.9-.2 1.8-.33 2.7-.38.89-.05 1.75-.01 2.56.1.82.13 1.52.34 2.1.63.59.3 1 .69 1.27 1.17s.3 1.04.1 1.7c-.12.45-.41.96-.87 1.54a9.77 9.77 0 0 1-1.87 1.74 18.87 18.87 0 0 1-6.7 2.96c.25.13.42.3.5.5s.1.44.05.7c-.05.26-.16.52-.33.78s-.37.5-.61.7a112.88 112.88 0 0 0 4.42-1.18c.72-.22 1.4-.45 2.05-.7a12.1 12.1 0 0 0 1.74-.85c.08-.08.14-.06.19.05.03.03.04.07.03.12a15.78 15.78 0 0 1-3.86 1.64c-1.48.43-3.1.88-4.86 1.36h-.1c-.52.35-1.08.66-1.66.91a18.36 18.36 0 0 1-3.6 1.17c-.6.13-1.2.26-1.8.37l-.13.33a.32.32 0 0 1-.11.08c-.04.01-.09 0-.13-.03zm.14-.62l.53-.91-.8.13a9.29 9.29 0 0 0-1.72.49c-.23.1-.35.2-.36.29-.03.1.17.15.6.17.43.01 1-.04 1.7-.17h.05zm6.48-2.07a215.83 215.83 0 0 0-5.52 1.06l-.14.24-.39.67c1.06-.22 2.1-.49 3.15-.79 1.04-.3 2-.7 2.9-1.18zm.63-.43c.33-.25.6-.55.82-.89.22-.33.34-.64.38-.92a.74.74 0 0 0-.23-.67c-.19-.17-.51-.22-.97-.16h-.1c-.1 0-.14-.05-.14-.14-.04-.03-.03-.07 0-.12.05-.05.1-.07.14-.07.5-.05 1.07-.16 1.72-.33A17.53 17.53 0 0 0 45.75 8c.68-.37 1.31-.77 1.9-1.2a9.8 9.8 0 0 0 1.53-1.43c.44-.52.77-1.06.97-1.64.21-.57.2-1.07-.04-1.5a2.6 2.6 0 0 0-1.2-1.03 6.65 6.65 0 0 0-1.98-.55c-.78-.1-1.6-.13-2.45-.08-.86.04-1.72.16-2.6.36a11.46 11.46 0 0 0-4.64 2.17c-.59.49-1.02.95-1.3 1.39-.26.44-.38.84-.35 1.2a.9.9 0 0 0 .56.78c.35.16.84.2 1.49.12a8.89 8.89 0 0 0 2.82-.97l.43-.2.29-.15.05-.05 1.15-1.07c.35-.32.69-.6 1-.85.4-.32.74-.57 1.04-.74.3-.18.52-.27.65-.27.06 0 .13.04.19.1.03 0 .05.02.05.05 0 .03-.02.06-.05.1-.13.36-.52.79-1.17 1.28-.64.49-1.4.97-2.24 1.45l-.43.2-.77.76-1.43 1.48a49.26 49.26 0 0 0-3.42 3.93c-.59.76-1.15 1.57-1.68 2.41 1.06-.19 2.03-.38 2.9-.56.89-.18 1.76-.35 2.62-.5l.44-.09zm3.5-9.36c-.1.1-.2.19-.31.27-.12.08-.22.16-.32.26l-.62.58.24-.15c.48-.32.92-.63 1.32-.92.4-.3.7-.57.89-.8-.15.04-.31.14-.5.27l-.7.5z"/><path d="M49 11.6a.9.9 0 0 1-.4-.2.53.53 0 0 1-.17-.42c0-.1.02-.2.06-.31l.13-.36.1-.1v-.04c-.09-.08-.07-.15.04-.2l.2-.1.14-.23c.33-.45.79-.97 1.35-1.55a27.4 27.4 0 0 1 3.65-3.12c.62-.42 1.14-.7 1.57-.85h.15c.16 0 .24.06.24.19-.03.18-.17.4-.4.67-.25.27-.58.6-1 .96a62.51 62.51 0 0 1-2.29 1.85 51.85 51.85 0 0 1-2.8 2.04l-.42.24-.05.1c-.1.14-.18.28-.24.42a.93.93 0 0 0-.1.4c0 .18.11.3.34.35.22.05.5.05.85.01.34-.04.72-.11 1.13-.22a17.18 17.18 0 0 0 2.22-.8c.3-.14.52-.26.65-.36.1-.08.17-.08.24 0 .06.08.04.16-.05.24-.2.16-.51.34-.95.54a12.1 12.1 0 0 1-2.98.9c-.5.06-.9.05-1.2-.04zm5.43-5.9a7.24 7.24 0 0 0 1-.96l.15-.14.1-.14-.15.04c-.56.26-1.13.6-1.7 1.02a24.59 24.59 0 0 0-4.15 3.83l.33-.24c.29-.2.65-.45 1.08-.78l1.31-1a41.89 41.89 0 0 0 2.03-1.63z"/><path d="M53.03 11.7c-.19-.1-.26-.28-.21-.51s.17-.46.36-.68c.19-.21.43-.4.72-.57s.57-.25.86-.25c.2 0 .37.04.52.12.15.08.25.16.3.26.03.05.02.1-.04.13s-.1.05-.15.01c-.08-.04-.16-.1-.23-.15s-.2-.09-.4-.09c-.19 0-.4.07-.62.2-.23.12-.42.27-.59.44s-.29.33-.36.48c-.07.15-.06.26.04.32.14.04.33 0 .57-.1a7.62 7.62 0 0 0 1.53-.88l.63-.46c.16-.12.27-.14.33-.04.05.1.04.17-.04.24-.2.14-.35.32-.42.54s-.05.34.06.4c.11.04.3.01.55-.1s.52-.22.8-.36a17.02 17.02 0 0 0 1.22-.72c.1-.05.17-.03.23.07.05.1.04.17-.04.21l-.53.33a10.04 10.04 0 0 1-1.62.8c-.28.1-.5.12-.68.07-.18-.04-.28-.15-.32-.3a.6.6 0 0 1 .06-.46l-.63.42a5.54 5.54 0 0 1-1.44.64c-.2.06-.36.06-.46 0z"/><path d="M57.5 11.41c-.03-.19.02-.4.14-.64a2.24 2.24 0 0 1 .87-.9c.14-.09.3-.17.45-.24.16-.08.33-.13.5-.16s.31-.02.44.02c.1.07.14.14.13.23a.5.5 0 0 1-.12.27 1.6 1.6 0 0 1-.54.42c-.08.04-.14.03-.2-.04-.04-.07-.02-.14.06-.2.1-.05.18-.1.25-.17l.23-.22c-.1-.05-.27-.01-.52.1s-.46.24-.63.38c-.18.13-.34.29-.5.47a.91.91 0 0 0-.22.59c0 .1.11.15.34.15.24.01.44 0 .62-.06.38-.1.86-.26 1.44-.51.57-.25 1.26-.6 2.06-1.07.03-.03.07-.04.12-.02a.3.3 0 0 1 .12.07c0 .13-.02.2-.05.2-.82.47-1.52.84-2.12 1.1-.6.25-1.1.43-1.48.52-.26.07-.54.1-.84.09-.3-.01-.49-.13-.55-.38z"/><path d="M62.97 10.98a8.96 8.96 0 0 1 .36-.68 15.21 15.21 0 0 1 .6-1l-1.12.65c-.3.16-.57.33-.85.5h-.12a.17.17 0 0 1-.12-.1c0-.09.04-.15.1-.18.38-.24.77-.47 1.15-.68.39-.2.83-.45 1.35-.74a12.07 12.07 0 0 1 1.92-2.18c.52-.47 1.01-.8 1.46-1.01s.8-.24 1.03-.1c.15.1.2.24.15.43-.05.15-.15.3-.3.44-.13.14-.32.3-.55.46l-.83.6c-.34.18-.7.4-1.08.63l-1.23.7-.33.2a19.79 19.79 0 0 0-.91 1.44 28.3 28.3 0 0 1 2.43-1.53c.33-.16.62-.27.88-.32.14-.03.29-.02.44.02.15.05.23.16.23.34-.03.2-.15.38-.35.52s-.42.24-.67.32a4.1 4.1 0 0 1-1.24.22c.05.19.14.42.28.68.14.26.31.42.54.47.27.08.7 0 1.26-.22.57-.22 1.2-.55 1.9-.98.04-.03.08-.04.13-.03a.3.3 0 0 1 .12.08c0 .12-.03.2-.1.24a12.85 12.85 0 0 1-2.03 1.04c-.3.12-.6.2-.86.23s-.48 0-.66-.07a.88.88 0 0 1-.32-.27 3.73 3.73 0 0 1-.52-.85c-.06-.15-.1-.28-.12-.37a8.2 8.2 0 0 0-1.73 1.34c-.1.1-.18.1-.25.03-.07-.08-.09-.17-.04-.27zM67 7.1c.32-.22.6-.4.8-.56s.4-.3.55-.44c.08-.08.13-.14.15-.18a.56.56 0 0 1 .09-.11c0-.03-.02-.05-.05-.05-.1-.08-.33-.05-.7.09-.38.13-.85.46-1.41.97-.2.17-.4.37-.6.57-.21.21-.43.45-.65.72l-.14.2.33-.2a91.05 91.05 0 0 0 1.63-1zm.3 1.83c.02-.05.02-.1 0-.13s-.1-.05-.2-.02a3.4 3.4 0 0 0-.86.36l-.87.5c.11 0 .27-.03.46-.06a3.79 3.79 0 0 0 1.11-.36.75.75 0 0 0 .35-.3z"/><path d="M69.45 10.74l.15-.24a7.93 7.93 0 0 0 .24-.48v-.04l-.05.04-.15.1-.38.24-.34.2c-.1.04-.17 0-.24-.1-.06-.07-.03-.13.1-.2l.33-.16c.13-.06.24-.14.34-.22l.24-.2.15-.14V9.5c.03-.09.07-.13.14-.14.06 0 .11.04.14.14l.05.1a1 1 0 0 1-.1.66c.15-.1.35-.22.6-.4s.53-.32.81-.46.55-.26.82-.34c.26-.08.48-.08.66 0 .1.05.14.13.14.24s-.02.23-.06.35c-.04.12-.1.24-.16.35l-.12.26v.05l.56-.35c.22-.13.45-.25.7-.36.23-.1.47-.18.7-.22.23-.05.43-.05.59.02.14.05.2.14.14.29v.1a2.7 2.7 0 0 1-.4.58c-.16.16-.29.32-.38.47-.09.14-.09.24 0 .3.1.06.35.04.78-.06 1.14-.24 2.1-.6 2.88-1.1.03-.05.07-.07.12-.05.05.01.07.05.07.1.07.06.07.12 0 .19a8.96 8.96 0 0 1-3.07 1.2c-.44.08-.76.09-.94.03-.19-.05-.29-.14-.3-.26-.02-.12.02-.27.13-.43a6.68 6.68 0 0 1 .65-.9c.08-.1.11-.16.08-.17-.11-.05-.3-.03-.54.05-.25.08-.52.2-.8.34-.3.16-.58.33-.87.52a4.25 4.25 0 0 0-.8.68l-.11.14h-.05a.24.24 0 0 1-.19-.09c-.05-.05-.05-.1 0-.15a6.86 6.86 0 0 0 .9-1.4c.07-.18.1-.3.1-.4-.01-.08-.07-.1-.18-.08-.18.04-.4.12-.68.26a17.07 17.07 0 0 0-2.35 1.57c-.05.05-.1.1-.13.15l-.1.14h-.06a.24.24 0 0 1-.19-.09c-.05-.05-.05-.1 0-.15l.43-.44z"/><path d="M77.42 11.7c-.2-.1-.26-.28-.22-.51s.17-.46.36-.68c.2-.21.44-.4.72-.57s.58-.25.87-.25c.19 0 .36.04.51.12.16.08.26.16.3.26.04.05.02.1-.03.13s-.1.05-.16.01c-.08-.04-.15-.1-.23-.15s-.2-.09-.4-.09c-.18 0-.4.07-.62.2-.22.12-.42.27-.58.44s-.3.33-.36.48c-.08.15-.06.26.03.32.15.04.34 0 .58-.1a7.62 7.62 0 0 0 1.52-.88l.64-.46c.16-.12.27-.14.32-.04.06.1.05.17-.03.24-.21.14-.35.32-.42.54s-.06.34.06.4c.1.04.3.01.55-.1s.52-.22.8-.36a17.02 17.02 0 0 0 1.22-.72c.1-.05.17-.03.22.07.06.1.05.17-.03.21l-.53.33a10.04 10.04 0 0 1-1.62.8c-.28.1-.5.12-.68.07-.18-.04-.29-.15-.33-.3a.6.6 0 0 1 .06-.46l-.62.42a5.54 5.54 0 0 1-1.44.64c-.21.06-.36.06-.46 0z"/><path d="M82.5 11.17c.06-.04.1-.1.15-.14.05-.05.1-.11.15-.2a1.45 1.45 0 0 0 .53-.8v-.05l-.05.04c-.04.04-.06.05-.08.05l-.07.05-.38.24-.34.2c-.1.04-.17 0-.24-.1-.06-.07-.03-.13.1-.2l.34-.16a1.31 1.31 0 0 0 .4-.28c.02 0 .04-.03.08-.06a.4.4 0 0 0 .1-.07l.14-.15V9.5c.03-.09.08-.13.14-.14.06 0 .11.04.15.14.04.17.06.32.04.44a1.7 1.7 0 0 1-.1.37c.33-.2.63-.38.92-.52.29-.13.54-.22.75-.27.22-.05.39-.04.5.04.13.07.19.2.19.41 0 .36.05.7.16 1.02.1.33.27.62.5.86.23.24.53.41.91.52.38.12.85.13 1.4.05.2-.01.43-.06.7-.14a7.49 7.49 0 0 0 1.63-.7c.26-.16.47-.32.65-.5.11-.06.2-.05.24.05.03.04.04.08.04.1l-.09.09c-.19.2-.43.37-.7.53a7.15 7.15 0 0 1-1.76.73c-.3.09-.55.15-.75.18a3.1 3.1 0 0 1-1.68-.14c-.44-.2-.77-.45-1.01-.77s-.4-.67-.5-1.04a4.14 4.14 0 0 1-.13-.93c-.17-.02-.38.01-.6.1a4.67 4.67 0 0 0-1.34.7l-.5.35-.22.27c-.06.08-.12.11-.17.11-.1.1-.18.1-.24.03-.06-.08-.05-.17.05-.27z"/></svg>