<?xml version="1.0" encoding="utf-8"?>
<!-- Generator: Adobe Illustrator 22.0.1, SVG Export Plug-In . SVG Version: 6.00 Build 0)  -->
<svg version="1.1" id="Layer_1" xmlns="http://www.w3.org/2000/svg" xmlns:xlink="http://www.w3.org/1999/xlink" x="0px" y="0px"
	 viewBox="0 0 87.283 11.414" enable-background="new 0 0 87.283 11.414" xml:space="preserve">
<g>
	<path d="M7.682,5.83C7.572,6.826,7.183,7.617,6.513,8.203S4.99,9.082,3.955,9.082c-1.211,0-2.173-0.404-2.886-1.213
		S0,5.967,0,4.588c0-1.406,0.356-2.522,1.069-3.349S2.744,0,3.955,0c1.023,0,1.871,0.276,2.543,0.829s1.066,1.302,1.184,2.247H5.883
		C5.824,2.611,5.624,2.242,5.281,1.969s-0.777-0.41-1.306-0.41c-0.669,0-1.193,0.267-1.572,0.8c-0.38,0.533-0.569,1.272-0.569,2.218
		c0,0.922,0.188,1.644,0.566,2.165c0.377,0.521,0.902,0.782,1.575,0.782c0.528,0,0.963-0.152,1.306-0.457S5.824,6.35,5.883,5.83
		H7.682z"/>
	<path d="M9.311,8.115c-0.588-0.598-0.882-1.404-0.882-2.42c0-1.039,0.294-1.864,0.882-2.476s1.38-0.917,2.376-0.917
		c1.004,0,1.799,0.306,2.385,0.917s0.879,1.437,0.879,2.476c0,1.016-0.293,1.822-0.879,2.42s-1.381,0.896-2.385,0.896
		C10.69,9.012,9.898,8.713,9.311,8.115z M12.829,7.113c0.262-0.328,0.393-0.807,0.393-1.436c0-0.645-0.131-1.134-0.393-1.468
		s-0.643-0.501-1.143-0.501s-0.88,0.167-1.14,0.501s-0.39,0.823-0.39,1.468c0,0.629,0.13,1.107,0.39,1.436s0.64,0.492,1.14,0.492
		S12.567,7.441,12.829,7.113z"/>
	<path d="M18.352,9.012c-0.813,0-1.468-0.316-1.966-0.949s-0.747-1.467-0.747-2.502c0-0.977,0.248-1.764,0.744-2.361
		s1.148-0.896,1.957-0.896c0.723,0,1.305,0.305,1.746,0.914l0.07,0.094V0.234h0.838h0.844v8.613h-0.814h-0.814V8.033L20.18,8.074
		C19.715,8.699,19.105,9.012,18.352,9.012z M18.803,3.756c-0.449,0-0.801,0.173-1.055,0.519S17.367,5.1,17.367,5.713
		c0,0.602,0.126,1.071,0.378,1.409s0.603,0.507,1.052,0.507c0.453,0,0.807-0.178,1.061-0.533s0.381-0.85,0.381-1.482
		c0-0.582-0.127-1.037-0.381-1.365S19.252,3.756,18.803,3.756z"/>
	<path d="M26.623,8.982c-0.368,1.074-0.682,1.748-0.944,2.021c-0.262,0.273-0.729,0.41-1.401,0.41l-0.803-0.018v-1.348
		c0.039,0.016,0.146,0.023,0.322,0.023c0.449,0,0.742-0.092,0.879-0.275c0.086-0.117,0.172-0.359,0.258-0.727l-2.377-6.598h0.925
		h0.931l1.387,4.729h0.001l1.35-4.729h0.878h0.879L26.623,8.982z"/>
	<path d="M33.121,0.234h0.861h3.311c0.832,0,1.482,0.192,1.951,0.577s0.703,0.919,0.703,1.603c0,0.715-0.264,1.258-0.791,1.629
		c-0.086,0.063-0.182,0.119-0.287,0.17c0.203,0.078,0.383,0.172,0.539,0.281c0.551,0.379,0.826,0.932,0.826,1.658
		c0,0.879-0.272,1.548-0.817,2.007s-1.341,0.688-2.388,0.688h-3.047h-0.861V0.234z M34.843,3.609H36.9
		c0.449,0,0.785-0.084,1.008-0.252s0.334-0.422,0.334-0.762c0-0.293-0.117-0.513-0.352-0.659s-0.588-0.22-1.061-0.22h-1.986V3.609z
		 M34.843,7.354h2.186c0.469,0,0.82-0.102,1.055-0.305s0.352-0.51,0.352-0.92c0-0.359-0.12-0.628-0.36-0.806
		s-0.601-0.267-1.081-0.267h-2.15V7.354z"/>
	<path d="M41.579,0.234h0.838h0.844v8.613h-0.838h-0.844V0.234z"/>
	<path d="M46.276,9.012c-0.59,0-1.064-0.169-1.424-0.507s-0.539-0.782-0.539-1.333c0-0.582,0.162-1.048,0.486-1.397
		s0.797-0.569,1.418-0.659l1.107-0.152c0.289-0.039,0.529-0.105,0.721-0.199c0.082-0.039,0.146-0.109,0.19-0.211
		s0.062-0.205,0.05-0.311c-0.023-0.18-0.115-0.32-0.275-0.422c-0.191-0.121-0.467-0.182-0.826-0.182c-0.32,0-0.57,0.078-0.75,0.234
		s-0.275,0.377-0.287,0.662h-1.611c0.035-0.746,0.289-1.305,0.762-1.676s1.166-0.557,2.08-0.557c0.793,0,1.419,0.167,1.878,0.501
		s0.688,0.791,0.688,1.37v3.565c0,0.286,0.023,0.486,0.07,0.601c0.047,0.116,0.141,0.207,0.281,0.273v0.006v0.229h-0.908h-0.908
		V8.842c-0.074-0.258-0.123-0.51-0.146-0.756l-0.006-0.012C47.799,8.699,47.116,9.012,46.276,9.012z M48.297,6.492V5.76
		c-0.195,0.109-0.453,0.197-0.773,0.264l-0.621,0.117c-0.293,0.055-0.516,0.155-0.668,0.302s-0.229,0.331-0.229,0.554
		c0,0.254,0.068,0.453,0.205,0.598s0.328,0.217,0.574,0.217c0.539,0,0.969-0.189,1.289-0.568c0.063-0.074,0.115-0.184,0.158-0.328
		S48.297,6.629,48.297,6.492z"/>
	<path d="M56.808,6.486c-0.086,0.793-0.381,1.412-0.885,1.857s-1.16,0.668-1.969,0.668c-0.965,0-1.71-0.287-2.235-0.861
		s-0.788-1.393-0.788-2.455c0-1.039,0.272-1.864,0.817-2.476s1.28-0.917,2.206-0.917c0.82,0,1.492,0.227,2.016,0.68
		s0.803,1.049,0.838,1.787h-1.711c-0.016-0.316-0.128-0.572-0.337-0.768s-0.478-0.293-0.806-0.293c-0.422,0-0.743,0.169-0.964,0.507
		S52.66,5.047,52.66,5.695c0,0.633,0.11,1.114,0.331,1.444s0.542,0.495,0.964,0.495c0.305,0,0.563-0.105,0.773-0.316
		s0.334-0.488,0.369-0.832H56.808z"/>
	<path d="M57.901,0.234h0.838h0.844v4.653l2.097-2.415h1.038h1.037l-2.303,2.418l2.361,3.957h-0.997h-1.002l-1.536-2.746
		l-0.695,0.736v2.01h-0.838h-0.844V0.234z"/>
	<path d="M64.396,2.473h0.797h0.803v1.025c0.074-0.18,0.168-0.34,0.281-0.48c0.37-0.477,0.908-0.715,1.614-0.715
		c0.562,0,1.021,0.189,1.381,0.568c0.14,0.145,0.251,0.305,0.333,0.48l0.205-0.334c0.349-0.477,0.855-0.715,1.521-0.715
		c0.692,0,1.233,0.205,1.625,0.615s0.587,0.979,0.587,1.705v4.225h-0.838h-0.844V5.104c0-0.477-0.078-0.829-0.235-1.058
		c-0.156-0.229-0.399-0.343-0.729-0.343c-0.353,0-0.622,0.108-0.808,0.325c-0.187,0.217-0.279,0.528-0.279,0.935v3.885h-0.838
		h-0.844v-4.02c0-0.383-0.082-0.666-0.245-0.85c-0.164-0.184-0.415-0.275-0.754-0.275s-0.599,0.108-0.78,0.325
		c-0.181,0.217-0.271,0.528-0.271,0.935v3.885H65.24h-0.844V2.473z"/>
	<path d="M76.487,9.012c-0.59,0-1.064-0.169-1.424-0.507s-0.539-0.782-0.539-1.333c0-0.582,0.162-1.048,0.486-1.397
		s0.797-0.569,1.418-0.659l1.107-0.152c0.289-0.039,0.529-0.105,0.721-0.199c0.082-0.039,0.146-0.109,0.19-0.211
		s0.062-0.205,0.05-0.311c-0.023-0.18-0.115-0.32-0.275-0.422c-0.191-0.121-0.467-0.182-0.826-0.182c-0.32,0-0.57,0.078-0.75,0.234
		S76.37,4.25,76.358,4.535h-1.611c0.035-0.746,0.289-1.305,0.762-1.676s1.166-0.557,2.08-0.557c0.793,0,1.419,0.167,1.878,0.501
		s0.688,0.791,0.688,1.37v3.565c0,0.286,0.023,0.486,0.07,0.601c0.047,0.116,0.141,0.207,0.281,0.273v0.006v0.229h-0.908H78.69
		V8.842c-0.074-0.258-0.123-0.51-0.146-0.756l-0.006-0.012C78.01,8.699,77.327,9.012,76.487,9.012z M78.508,6.492V5.76
		c-0.195,0.109-0.453,0.197-0.773,0.264l-0.621,0.117c-0.293,0.055-0.516,0.155-0.668,0.302s-0.229,0.331-0.229,0.554
		c0,0.254,0.068,0.453,0.205,0.598s0.328,0.217,0.574,0.217c0.539,0,0.969-0.189,1.289-0.568c0.063-0.074,0.115-0.184,0.158-0.328
		S78.508,6.629,78.508,6.492z"/>
	<path d="M81.511,2.473h0.797h0.803v0.943c0.066-0.113,0.139-0.221,0.217-0.322c0.414-0.527,1.016-0.791,1.805-0.791
		c0.672,0,1.198,0.199,1.579,0.598s0.571,0.951,0.571,1.658v4.289h-0.838h-0.844V4.863c0-0.395-0.085-0.687-0.255-0.876
		s-0.431-0.284-0.782-0.284c-0.441,0-0.78,0.133-1.017,0.398S83.193,4.75,83.193,5.25v3.598h-0.838h-0.844V2.473z"/>
</g>
</svg>
