<?xml version="1.0" encoding="utf-8"?>
<!-- Generator: Adobe Illustrator 22.0.1, SVG Export Plug-In . SVG Version: 6.00 Build 0)  -->
<svg version="1.1" id="Layer_1" xmlns="http://www.w3.org/2000/svg" xmlns:xlink="http://www.w3.org/1999/xlink" x="0px" y="0px"
	 viewBox="0 0 66.846 12.497" enable-background="new 0 0 66.846 12.497" xml:space="preserve">
<g>
	<path d="M9.601,4.233c-0.312,0-0.504-0.396-0.504-0.768c0-0.287,0.564-0.815,0.684-0.815c0.024,0-0.335,0.444-0.264,0.54
		c0.815,0,2.71-1.067,2.71-2.039c0-0.54-0.468-0.852-1.211-0.852c-3.694,0-10.158,6.261-9.895,9.606
		c0.084,1.008,0.828,1.283,1.751,1.283c2.255,0,5.925-2.026,8.768-4.329c0.012-0.012,0.144,0.048,0.096,0.072
		c-2.111,2.063-6.632,5.108-9.259,5.049c-1.283-0.024-2.399-0.588-2.471-2.051C-0.234,5.733,6.854,0,10.896,0
		c1.043,0,1.775,0.443,1.775,1.367C12.671,2.566,10.776,4.233,9.601,4.233z"/>
	<path d="M14.896,5.313c-2.171,0-4.678,4.041-4.006,4.329C11.561,9.919,13.276,8,14.08,6.776c-0.06-0.108-0.18-0.468-0.132-0.588
		c0.036-0.12,0.396-0.479,0.552-0.491c0.12-0.013,0.252,0.084,0.276,0.119c0.228,0.372,0.516,0.648,0.996,0.612
		c0.803-0.072,1.247-0.54,1.379-0.528c-0.06,0.168-0.54,0.564-1.127,0.756c-0.264,0.084-0.516,0.108-0.708,0.108
		c-0.18,0-0.3-0.024-0.36-0.048c-0.324,1.595-2.806,3.322-4.078,3.25C10.326,9.931,9.966,9.475,9.966,9.02
		c0-1.955,2.627-3.91,4.521-3.91c0.456,0,0.648,0.132,0.732,0.204c0.06,0.036,0.024,0.036-0.024,0.036
		C15.075,5.337,14.979,5.313,14.896,5.313z"/>
	<path d="M18.856,2.363c0.36-0.468,0.696-0.852,0.996-1.092c0.18-0.144,0.335-0.24,0.443-0.24c0.672-0.036,1.151,0.66,0.924,0.528
		c-0.42-0.192-1.2,0.936-1.727,1.583c-0.516,0.659-1.008,1.367-1.607,2.242c-1.043,1.584-1.943,3.106-2.23,3.874
		c0.516,0.061,2.506-1.895,3.214-2.542c0.072-0.061,0.12,0.035,0.084,0.071c-0.587,0.672-2.674,2.854-3.394,3.118
		c-0.156,0.061-0.276,0.013-0.384-0.048c-0.096-0.048-0.36-0.3-0.432-0.479c-0.012-0.024-0.036-0.048-0.036-0.18
		c0-0.36,0.552-1.523,2.015-3.814C17.464,4.222,18.232,3.179,18.856,2.363z"/>
	<path d="M17.91,9.919c-0.192-0.061-0.492-0.36-0.492-0.576c0-0.695,1.739-3.31,2.506-3.922c0.06-0.06,0.132-0.071,0.18-0.071
		c0.276,0,0.755,0.479,0.755,0.779c0,0.048-0.06-0.012-0.156-0.024c-0.492-0.048-2.135,2.687-2.279,3.179
		c0.731-0.192,2.482-1.859,3.214-2.566c0.084-0.061,0.144,0.035,0.108,0.071c-1.043,1.128-2.95,3.083-3.694,3.143
		C18.005,9.931,17.97,9.931,17.91,9.919z M21.916,3.898c0.108,0.119,0.18,0.3,0.132,0.3c-0.024,0-0.12-0.049-0.252,0.012
		c-0.204,0.084-0.755,0.575-0.899,0.779c-0.168,0.216-0.42-0.036-0.432-0.252C20.452,4.39,20.908,3.61,21.22,3.514
		C21.496,3.479,21.759,3.718,21.916,3.898z"/>
	<path d="M24.183,9.283c0.756-0.204,2.471-1.848,3.238-2.566c0.072-0.061,0.132,0.035,0.096,0.071
		c-1.043,1.14-2.999,3.118-3.718,3.118c-0.12,0-0.251-0.107-0.372-0.252c-0.132-0.155-0.216-0.335-0.216-0.467
		c0-0.684,1.391-2.687,2.015-3.251c-0.983,0.444-2.746,1.896-3.634,2.854c-0.156,0.156-0.3,0.336-0.432,0.504
		c-0.324,0.384-0.408,0.708-0.228,0.792c-0.36,0.084-0.647-0.3-0.744-0.648c-0.024-0.084,0.036-0.407,0.336-0.959
		c0.288-0.563,0.744-1.271,1.139-1.823c0.432-0.611,0.959-1.247,1.271-1.487c0.048-0.048,0.12-0.06,0.156-0.06
		c0.3,0,0.756,0.468,0.756,0.768c0,0.048-0.048-0.012-0.144-0.024c-0.156-0.012-0.6,0.492-0.959,0.96
		c-0.563,0.743-1.188,1.631-1.367,1.967c0.132-0.192,0.36-0.432,0.612-0.672c1.343-1.319,3.454-2.938,3.862-2.938
		c0.288,0,0.671,0.647,0.516,0.78C26.066,6.188,24.208,8.72,24.183,9.283z"/>
	<path d="M30.809,11.598c2.891,0,8.743-2.891,8.743-4.701c0-0.744-0.996-1.188-2.171-1.512c-1.439-0.396-3.07-0.611-3.07-1.667
		c0-2.015,3.874-3.622,5.625-3.682C41.027,0,41.758,0.264,41.747,1.188c-0.024,1.427-2.111,2.975-3.382,2.975
		c-0.24,0-0.6-0.097-0.6-0.36c0-0.491,0.468-1.007,0.708-1.151c-0.18,0.204-0.251,0.456-0.251,0.624
		c0,0.072,0.072,0.072,0.144,0.072c0.492,0,2.831-1.344,2.986-2.436c0.061-0.384-0.264-0.491-0.719-0.491
		c-0.132,0-0.288,0.012-0.444,0.023c-1.535,0.168-5.061,2.147-5.061,3.383c0,0.695,1.151,0.995,2.362,1.331
		c1.355,0.372,2.759,0.815,2.759,2.146c0,2.627-5.973,5.193-9.247,5.193c-0.792,0-1.943-0.228-1.943-1.175
		c0-1.775,5.421-4.642,6.968-4.605c-3.178,0.863-6.225,3.514-6.225,4.401C29.801,11.586,30.425,11.598,30.809,11.598z"/>
	<path d="M45.699,1.271c0.18-0.144,0.336-0.24,0.443-0.24c0.672-0.036,1.151,0.66,0.924,0.528c-0.384-0.181-1.092,0.779-1.619,1.463
		c1.931-0.096,4.462,0,6.177,0.359c0.096,0.024,0.144,0.049,0,0.036c-2.375-0.204-4.569-0.191-6.572,0.108
		c-0.444,0.552-0.84,1.151-1.32,1.858c-1.043,1.584-1.942,3.106-2.23,3.874c0.516,0.061,2.507-1.895,3.215-2.542
		c0.071-0.061,0.12,0.035,0.084,0.071c-0.588,0.672-2.675,2.854-3.395,3.118c-0.156,0.061-0.276,0.013-0.384-0.048
		c-0.096-0.048-0.36-0.3-0.432-0.479c-0.013-0.024-0.036-0.048-0.036-0.18c0-0.36,0.54-1.535,2.015-3.814
		c0.324-0.491,0.672-1.02,1.115-1.606c-1.139,0.228-1.847,0.804-1.535,0.983c-0.191,0-0.6-0.229-0.636-0.612
		c-0.048-0.539,1.271-0.875,2.615-1.031C45.063,1.896,45.399,1.512,45.699,1.271z"/>
	<path d="M44.249,9.175c-0.012,0.145,0.097,0.229,0.36,0.229c0.875,0,3.07-1.667,4.281-2.675c0.036-0.024,0.12,0.036,0.084,0.072
		c-0.899,0.839-3.286,3.13-4.881,3.13c-0.372,0-0.852-0.432-0.852-0.756c0-0.288,0.071-0.527,0.168-0.791
		c0.287-0.684,0.899-1.439,1.655-2.075c0.995-0.827,2.063-1.199,2.578-1.199c0.18,0,0.731,0.275,0.731,0.611
		c0,0.744-2.303,2.471-3.646,2.507C44.513,8.479,44.285,8.863,44.249,9.175z M44.884,7.987c1.044-0.119,3.034-2.063,3.106-2.519
		C46.66,5.9,45.281,7.352,44.884,7.987z"/>
	<path d="M48.569,7.088c0.42-0.852,0.84-1.522,1.188-1.822c0.072-0.061,0.12-0.072,0.156-0.072c0.288-0.012,0.743,0.456,0.756,0.779
		c-0.013,0.036-0.024-0.012-0.12-0.012c-0.229-0.024-0.6,0.588-1.02,1.343c-0.444,0.768-0.647,1.596-0.695,1.751
		c1.079-0.768,3.418-3.238,4.473-4.425c0.084-0.097,0.145-0.108,0.072,0.023c-1.224,2.159-4.665,5.302-5.037,5.302
		c-0.24,0.012-0.516-0.372-0.516-0.468C47.826,8.995,48.078,8.084,48.569,7.088z"/>
	<path d="M52.253,9.175c-0.012,0.145,0.097,0.229,0.36,0.229c0.875,0,3.07-1.667,4.281-2.675c0.036-0.024,0.12,0.036,0.084,0.072
		c-0.899,0.839-3.286,3.13-4.881,3.13c-0.372,0-0.852-0.432-0.852-0.756c0-0.288,0.071-0.527,0.168-0.791
		c0.288-0.684,0.899-1.439,1.655-2.075c0.995-0.827,2.063-1.199,2.578-1.199c0.18,0,0.731,0.275,0.731,0.611
		c0,0.744-2.303,2.471-3.646,2.507C52.517,8.479,52.289,8.863,52.253,9.175z M52.888,7.987c1.044-0.119,3.034-2.063,3.106-2.519
		C54.664,5.9,53.285,7.352,52.888,7.987z"/>
	<path d="M59.404,9.283c0.755-0.204,2.471-1.848,3.238-2.566c0.071-0.061,0.132,0.035,0.096,0.071
		c-1.044,1.14-2.998,3.118-3.718,3.118c-0.12,0-0.252-0.107-0.372-0.252c-0.132-0.155-0.216-0.335-0.216-0.467
		c0-0.684,1.392-2.687,2.015-3.251c-0.983,0.444-2.746,1.896-3.634,2.854c-0.156,0.156-0.3,0.336-0.432,0.504
		c-0.324,0.384-0.408,0.708-0.228,0.792c-0.36,0.084-0.648-0.3-0.744-0.648c-0.023-0.084,0.036-0.407,0.336-0.959
		c0.288-0.563,0.743-1.271,1.14-1.823c0.432-0.611,0.959-1.247,1.271-1.487c0.048-0.048,0.119-0.06,0.155-0.06
		c0.3,0,0.756,0.468,0.756,0.768c0,0.048-0.048-0.012-0.144-0.024c-0.156-0.012-0.601,0.492-0.96,0.96
		c-0.563,0.743-1.188,1.631-1.367,1.967c0.132-0.192,0.359-0.432,0.611-0.672c1.344-1.319,3.454-2.938,3.862-2.938
		c0.288,0,0.672,0.647,0.516,0.78C61.287,6.188,59.427,8.72,59.404,9.283z"/>
	<path d="M62.8,7.244c-0.048,0.204,0.24,0.396,0.359,0.504c1.919-1.08,3.454-1.344,3.61-1.344c0.024,0,0.072,0.024,0.072,0.061
		c0.107,0.036-2.267,0.659-3.574,1.438c0.156,0.12,0.456,0.468,0.42,0.72c-0.168,0.78-1.751,1.416-2.531,1.416
		c-0.264,0-0.396-0.217-0.455-0.48c0.036-0.516,1.799-1.522,2.219-1.69c-0.132-0.168-0.84-0.6-0.731-1.128
		c0.191-0.911,1.919-1.811,2.974-1.811c0.336,0,0.492,0.552,0.456,0.899c-0.012,0.168-0.768,0.888-1.091,0.888
		c-0.013,0-0.036-0.049-0.024-0.049c0.036,0,0.84-0.839,0.863-1.079C64.815,5.541,62.957,6.681,62.8,7.244z M61.013,9.427
		c0.468-0.132,1.955-0.899,1.955-1.355C62.249,8.479,61.361,9.079,61.013,9.427z"/>
</g>
</svg>
