<?xml version="1.0" encoding="utf-8"?>
<!-- Generator: Adobe Illustrator 22.0.1, SVG Export Plug-In . SVG Version: 6.00 Build 0)  -->
<svg version="1.1" id="Layer_1" xmlns="http://www.w3.org/2000/svg" xmlns:xlink="http://www.w3.org/1999/xlink" x="0px" y="0px"
	 viewBox="0 0 78.381 9.082" enable-background="new 0 0 78.381 9.082" xml:space="preserve">
<g>
	<path d="M7.682,5.83C7.572,6.826,7.183,7.617,6.513,8.203S4.99,9.082,3.955,9.082c-1.211,0-2.173-0.404-2.886-1.213
		S0,5.967,0,4.588c0-1.406,0.356-2.522,1.069-3.349S2.744,0,3.955,0c1.023,0,1.871,0.276,2.543,0.829s1.066,1.302,1.184,2.247H5.883
		C5.824,2.611,5.624,2.242,5.281,1.969s-0.777-0.41-1.306-0.41c-0.669,0-1.193,0.267-1.572,0.8c-0.38,0.533-0.569,1.272-0.569,2.218
		c0,0.922,0.188,1.644,0.566,2.165c0.377,0.521,0.902,0.782,1.575,0.782c0.528,0,0.963-0.152,1.306-0.457S5.824,6.35,5.883,5.83
		H7.682z"/>
	<path d="M9.431,8.115c-0.588-0.598-0.882-1.404-0.882-2.42c0-1.039,0.294-1.864,0.882-2.476s1.38-0.917,2.376-0.917
		c1.004,0,1.799,0.306,2.385,0.917s0.879,1.437,0.879,2.476c0,1.016-0.293,1.822-0.879,2.42s-1.381,0.896-2.385,0.896
		C10.811,9.012,10.019,8.713,9.431,8.115z M12.949,7.113c0.262-0.328,0.393-0.807,0.393-1.436c0-0.645-0.131-1.134-0.393-1.468
		s-0.643-0.501-1.143-0.501s-0.88,0.167-1.14,0.501s-0.39,0.823-0.39,1.468c0,0.629,0.13,1.107,0.39,1.436s0.64,0.492,1.14,0.492
		S12.688,7.441,12.949,7.113z"/>
	<path d="M16.295,0.234h0.838h0.844v8.613h-0.838h-0.844V0.234z"/>
	<path d="M19.629,0.17h1.711v1.559h-1.711V0.17z M19.646,2.473h0.838h0.844v6.375H20.49h-0.844V2.473z"/>
	<path d="M22.916,2.473h0.797h0.803v0.943c0.066-0.113,0.139-0.221,0.217-0.322c0.414-0.527,1.016-0.791,1.805-0.791
		c0.672,0,1.198,0.199,1.579,0.598s0.571,0.951,0.571,1.658v4.289H27.85h-0.844V4.863c0-0.395-0.085-0.687-0.255-0.876
		s-0.431-0.284-0.782-0.284c-0.441,0-0.78,0.133-1.017,0.398S24.598,4.75,24.598,5.25v3.598H23.76h-0.844V2.473z"/>
	<path d="M38.383,2.818c-0.032-0.41-0.211-0.735-0.539-0.976s-0.755-0.36-1.282-0.36c-0.457,0-0.814,0.101-1.072,0.302
		c-0.258,0.201-0.387,0.481-0.387,0.841c0,0.258,0.135,0.457,0.404,0.598c0.266,0.141,0.83,0.307,1.693,0.498
		c1.253,0.281,2.091,0.605,2.513,0.973c0.422,0.363,0.634,0.947,0.634,1.752c0,0.809-0.318,1.45-0.955,1.925
		c-0.636,0.475-1.498,0.712-2.583,0.712c-1.09,0-1.941-0.252-2.554-0.756c-0.613-0.504-0.941-1.221-0.984-2.15h1.734
		c0.02,0.457,0.186,0.809,0.498,1.055S36.251,7.6,36.81,7.6c0.574,0,1.022-0.093,1.344-0.278s0.483-0.442,0.483-0.771
		c0-0.324-0.116-0.563-0.349-0.715c-0.227-0.152-0.71-0.311-1.452-0.475c-1.366-0.305-2.28-0.635-2.74-0.99
		c-0.458-0.352-0.686-0.9-0.686-1.646c0-0.836,0.303-1.499,0.908-1.989C34.923,0.245,35.741,0,36.772,0
		c0.964,0,1.749,0.254,2.354,0.762s0.941,1.193,1.008,2.057H38.383z"/>
	<path d="M44.514,8.883c-0.281,0.023-0.627,0.035-1.037,0.035c-0.594,0-1.021-0.106-1.28-0.319s-0.39-0.562-0.39-1.046V3.65h-0.885
		V2.473h0.885V0.756h1.682v1.717h1.025V3.65h-1.025v3.621c0,0.148,0.044,0.246,0.132,0.293s0.271,0.07,0.548,0.07h0.346V8.883z"/>
	<path d="M48.105,9.012c-0.969,0-1.716-0.299-2.241-0.896s-0.788-1.449-0.788-2.555c0-1.02,0.268-1.817,0.803-2.394
		s1.277-0.864,2.227-0.864c0.973,0,1.722,0.294,2.247,0.882s0.788,1.425,0.788,2.511c0.008,0.125-0.002,0.252-0.029,0.381H46.77
		c0.039,0.504,0.15,0.881,0.334,1.131c0.234,0.313,0.625,0.469,1.172,0.469c0.254,0,0.489-0.072,0.706-0.217s0.347-0.318,0.39-0.521
		h1.711c-0.145,0.648-0.479,1.156-1.005,1.523S48.895,9.012,48.105,9.012z M49.389,5.004c-0.039-0.383-0.141-0.682-0.305-0.896
		c-0.215-0.285-0.549-0.428-1.002-0.428c-0.434,0-0.764,0.166-0.99,0.498c-0.141,0.211-0.242,0.486-0.305,0.826H49.389z"/>
	<path d="M51.633,2.473h0.926h0.931l1.356,4.756h0.007l1.368-4.756h0.885h0.885l-2.303,6.375h-0.873h-0.879L51.633,2.473z"/>
	<path d="M61.453,9.012c-0.969,0-1.716-0.299-2.241-0.896s-0.788-1.449-0.788-2.555c0-1.02,0.268-1.817,0.803-2.394
		s1.277-0.864,2.227-0.864c0.973,0,1.722,0.294,2.247,0.882s0.788,1.425,0.788,2.511c0.008,0.125-0.002,0.252-0.029,0.381h-4.342
		c0.039,0.504,0.15,0.881,0.334,1.131c0.234,0.313,0.625,0.469,1.172,0.469c0.254,0,0.489-0.072,0.706-0.217s0.347-0.318,0.39-0.521
		h1.711c-0.145,0.648-0.479,1.156-1.005,1.523S62.242,9.012,61.453,9.012z M62.736,5.004c-0.039-0.383-0.141-0.682-0.305-0.896
		C62.217,3.822,61.883,3.68,61.43,3.68c-0.434,0-0.764,0.166-0.99,0.498c-0.141,0.211-0.242,0.486-0.305,0.826H62.736z"/>
	<path d="M65.602,2.473h0.797h0.803v0.943c0.066-0.113,0.139-0.221,0.217-0.322c0.414-0.527,1.016-0.791,1.805-0.791
		c0.672,0,1.198,0.199,1.579,0.598s0.571,0.951,0.571,1.658v4.289h-0.838h-0.844V4.863c0-0.395-0.085-0.687-0.255-0.876
		s-0.431-0.284-0.782-0.284c-0.441,0-0.78,0.133-1.017,0.398S67.283,4.75,67.283,5.25v3.598h-0.838h-0.844V2.473z"/>
	<path d="M76.54,4.383c0-0.246-0.102-0.443-0.305-0.592s-0.474-0.223-0.81-0.223c-0.324,0-0.577,0.056-0.759,0.167
		s-0.272,0.267-0.272,0.466c0,0.141,0.104,0.262,0.311,0.363c0.203,0.098,0.564,0.205,1.084,0.322
		c1.031,0.23,1.721,0.482,2.068,0.756c0.349,0.273,0.523,0.703,0.523,1.289c0,0.625-0.253,1.128-0.759,1.509
		s-1.173,0.571-2.001,0.571c-0.981,0-1.736-0.188-2.266-0.563s-0.812-0.922-0.847-1.641h1.711c0.012,0.293,0.142,0.522,0.39,0.688
		s0.585,0.249,1.011,0.249c0.336,0,0.599-0.058,0.789-0.173c0.189-0.115,0.284-0.276,0.284-0.483c0-0.145-0.092-0.268-0.275-0.369
		c-0.184-0.098-0.506-0.197-0.967-0.299c-1.079-0.242-1.8-0.498-2.163-0.768c-0.362-0.266-0.544-0.678-0.544-1.236
		c0-0.633,0.235-1.144,0.706-1.532s1.091-0.583,1.86-0.583c0.866,0,1.565,0.19,2.097,0.571s0.797,0.884,0.797,1.509H76.54z"/>
</g>
</svg>
