<?xml version="1.0" encoding="utf-8"?>
<!-- Generator: Adobe Illustrator 22.0.1, SVG Export Plug-In . SVG Version: 6.00 Build 0)  -->
<svg version="1.1" id="Layer_1" xmlns="http://www.w3.org/2000/svg" xmlns:xlink="http://www.w3.org/1999/xlink" x="0px" y="0px"
	 viewBox="0 0 76.719 18.721" enable-background="new 0 0 76.719 18.721" xml:space="preserve">
<g>
	<path d="M1.579,14.849c-0.416-0.112-0.74-0.28-0.972-0.504c-0.232-0.224-0.396-0.488-0.492-0.792
		c-0.096-0.304-0.132-0.628-0.108-0.972c0.024-0.344,0.084-0.692,0.18-1.044c0.176-0.608,0.476-1.264,0.9-1.968
		c0.424-0.704,0.939-1.412,1.548-2.124c0.608-0.711,1.296-1.404,2.064-2.076s1.6-1.288,2.496-1.848
		c1.136-0.688,2.272-1.28,3.408-1.776c1.136-0.496,2.184-0.852,3.144-1.068c0.96-0.216,1.784-0.272,2.472-0.168
		s1.168,0.404,1.44,0.9c0.224,0.464,0.236,0.952,0.036,1.464c-0.2,0.512-0.54,1.028-1.02,1.548c-0.48,0.521-1.068,1.028-1.764,1.524
		c-0.696,0.497-1.412,0.952-2.148,1.368c-0.688,0.4-1.412,0.768-2.172,1.104c-0.76,0.336-1.476,0.596-2.148,0.78
		s-1.252,0.264-1.74,0.24s-0.788-0.204-0.9-0.54c-0.064-0.208-0.036-0.448,0.084-0.72s0.308-0.556,0.564-0.852
		s0.556-0.584,0.9-0.864c0.344-0.28,0.704-0.528,1.08-0.744c0.376-0.216,0.756-0.388,1.14-0.516c0.384-0.128,0.744-0.192,1.08-0.192
		c0.128,0.064,0.192,0.128,0.192,0.192c0,0.096-0.064,0.144-0.192,0.144c-0.48-0.016-1.004,0.112-1.572,0.384
		C8.511,6.001,7.987,6.325,7.507,6.701s-0.86,0.76-1.14,1.152S5.995,8.561,6.091,8.801c0.08,0.192,0.312,0.3,0.696,0.324
		c0.384,0.024,0.888-0.052,1.512-0.228c0.608-0.176,1.276-0.412,2.004-0.708c0.728-0.296,1.468-0.652,2.22-1.068
		c0.832-0.464,1.584-0.948,2.256-1.452s1.232-1,1.68-1.488c0.448-0.488,0.756-0.96,0.924-1.416s0.164-0.876-0.012-1.26
		c-0.208-0.368-0.616-0.596-1.224-0.684c-0.608-0.087-1.356-0.036-2.244,0.156s-1.892,0.52-3.012,0.984
		c-1.12,0.464-2.288,1.064-3.504,1.8c-0.848,0.512-1.628,1.076-2.34,1.692c-0.712,0.616-1.352,1.244-1.92,1.884
		c-0.568,0.64-1.056,1.28-1.464,1.92c-0.408,0.64-0.724,1.24-0.948,1.8c-0.144,0.32-0.252,0.66-0.324,1.02
		c-0.072,0.36-0.084,0.708-0.036,1.044c0.048,0.336,0.18,0.632,0.396,0.888c0.216,0.256,0.54,0.44,0.972,0.552
		c0.304,0.064,0.74,0.04,1.308-0.072s1.204-0.276,1.908-0.492c0.704-0.216,1.452-0.476,2.244-0.78
		c0.792-0.304,1.564-0.624,2.316-0.96c0.751-0.336,1.452-0.664,2.1-0.984c0.648-0.32,1.196-0.616,1.644-0.888
		c0.112-0.048,0.192-0.048,0.24,0c0.048,0.128,0.032,0.208-0.048,0.24c-0.256,0.176-0.676,0.417-1.26,0.72s-1.252,0.624-2.004,0.96
		c-0.752,0.336-1.556,0.676-2.412,1.02s-1.68,0.644-2.472,0.9s-1.516,0.448-2.172,0.576C2.459,14.929,1.947,14.944,1.579,14.849z"/>
	<path d="M12.811,11.825c-0.192-0.16-0.272-0.348-0.24-0.564c0.032-0.216,0.128-0.424,0.288-0.624c0.16-0.2,0.352-0.38,0.576-0.54
		c0.224-0.16,0.424-0.272,0.6-0.336c0.032-0.016,0.084-0.024,0.156-0.024s0.108,0.024,0.108,0.072
		c0.032,0.064,0.016,0.128-0.048,0.192c-0.128,0.112-0.292,0.244-0.492,0.396c-0.2,0.152-0.396,0.292-0.588,0.42
		c-0.192,0.24-0.256,0.456-0.192,0.648c0.048,0.144,0.192,0.216,0.432,0.216c0.24,0,0.504-0.072,0.792-0.216
		c-0.176-0.16-0.252-0.36-0.228-0.6c0.024-0.24,0.104-0.472,0.24-0.696c0.136-0.224,0.308-0.416,0.516-0.576
		c0.208-0.16,0.4-0.232,0.576-0.216c0.048,0,0.087,0.004,0.12,0.012c0.032,0.008,0.072,0.036,0.12,0.084
		c0.096,0.128,0.124,0.288,0.084,0.48s-0.112,0.384-0.216,0.576c-0.104,0.192-0.22,0.369-0.348,0.528
		c-0.128,0.16-0.224,0.256-0.288,0.288c0.16,0.032,0.38,0.012,0.66-0.06c0.28-0.072,0.568-0.16,0.864-0.264
		c0.296-0.104,0.58-0.22,0.852-0.348c0.272-0.127,0.472-0.24,0.6-0.336c0.128,0,0.192,0.032,0.192,0.096
		c0.032,0.064,0.016,0.128-0.048,0.192c-0.16,0.112-0.384,0.236-0.672,0.372c-0.288,0.136-0.596,0.26-0.924,0.372
		s-0.656,0.196-0.984,0.252c-0.328,0.056-0.604,0.06-0.828,0.012c-0.416,0.272-0.768,0.4-1.056,0.384
		C13.147,12.001,12.939,11.937,12.811,11.825z M15.259,9.665c-0.112-0.016-0.24,0.044-0.384,0.18s-0.268,0.292-0.372,0.468
		c-0.104,0.176-0.172,0.356-0.204,0.54c-0.032,0.184,0.016,0.316,0.144,0.396c0.128-0.112,0.256-0.252,0.384-0.42
		c0.127-0.168,0.236-0.336,0.324-0.504s0.144-0.316,0.168-0.444C15.343,9.753,15.323,9.681,15.259,9.665z"/>
	<path d="M17.706,12.065c-0.144-0.032-0.276-0.1-0.396-0.204c-0.12-0.104-0.18-0.244-0.18-0.42c0-0.096,0.02-0.2,0.06-0.312
		c0.04-0.112,0.084-0.231,0.132-0.36l0.096-0.096v-0.048c-0.08-0.08-0.064-0.144,0.048-0.192l0.192-0.096l0.144-0.24
		c0.336-0.448,0.788-0.964,1.356-1.548c0.568-0.583,1.164-1.144,1.788-1.68s1.244-1.016,1.86-1.44
		c0.616-0.424,1.14-0.708,1.572-0.852h0.144c0.16,0,0.24,0.064,0.24,0.192c-0.032,0.176-0.168,0.4-0.408,0.672
		c-0.24,0.272-0.568,0.592-0.984,0.96c-0.208,0.176-0.52,0.432-0.936,0.768s-0.868,0.696-1.356,1.08
		c-0.488,0.384-0.984,0.76-1.488,1.128c-0.504,0.368-0.94,0.672-1.308,0.912l-0.432,0.24l-0.048,0.096
		c-0.096,0.144-0.176,0.284-0.24,0.42c-0.064,0.136-0.096,0.268-0.096,0.396c0,0.192,0.112,0.312,0.336,0.36
		c0.224,0.048,0.508,0.052,0.852,0.012c0.344-0.04,0.72-0.116,1.128-0.228c0.408-0.112,0.804-0.236,1.188-0.372
		c0.384-0.136,0.728-0.276,1.032-0.42s0.52-0.264,0.648-0.36c0.096-0.08,0.176-0.08,0.24,0s0.048,0.16-0.048,0.24
		c-0.192,0.16-0.508,0.34-0.948,0.54c-0.44,0.2-0.92,0.38-1.44,0.54c-0.52,0.16-1.032,0.276-1.536,0.348
		C18.414,12.172,18.01,12.161,17.706,12.065z M23.131,6.161c0.24-0.192,0.436-0.364,0.588-0.516c0.152-0.152,0.292-0.3,0.42-0.444
		l0.144-0.144l0.096-0.144l-0.144,0.048c-0.561,0.256-1.128,0.596-1.704,1.02c-0.576,0.424-1.128,0.868-1.656,1.332
		c-0.528,0.464-1.008,0.92-1.44,1.368c-0.432,0.448-0.784,0.824-1.056,1.128l0.336-0.24c0.288-0.192,0.648-0.452,1.08-0.78
		c0.432-0.328,0.868-0.66,1.308-0.996s0.844-0.656,1.212-0.96C22.682,6.529,22.954,6.305,23.131,6.161z"/>
	<path d="M22.218,11.825c-0.096-0.128-0.112-0.28-0.048-0.456c0.063-0.176,0.144-0.328,0.24-0.456
		c-0.144,0.096-0.256,0.156-0.336,0.18c-0.08,0.024-0.16,0.06-0.24,0.108c-0.081,0.048-0.144,0.032-0.192-0.048
		c-0.048-0.08-0.033-0.144,0.048-0.192c0.192-0.08,0.34-0.152,0.444-0.216s0.196-0.124,0.276-0.18
		c0.08-0.056,0.168-0.116,0.264-0.18s0.232-0.144,0.408-0.24c0.096-0.048,0.171-0.024,0.228,0.072
		c0.056,0.096,0.043,0.168-0.036,0.216c-0.176,0.128-0.304,0.248-0.384,0.36c-0.08,0.112-0.16,0.232-0.24,0.36
		c-0.128,0.208-0.168,0.344-0.12,0.408s0.136,0.096,0.264,0.096c0.128,0,0.272-0.02,0.432-0.06c0.16-0.04,0.288-0.076,0.384-0.108
		c0.32-0.096,0.672-0.232,1.056-0.408c0.384-0.176,0.768-0.36,1.152-0.552c0.048-0.048,0.088-0.068,0.12-0.06
		c0.032,0.008,0.072,0.028,0.12,0.06c0.048,0.096,0.016,0.176-0.096,0.24c-0.16,0.096-0.42,0.236-0.78,0.42
		c-0.36,0.184-0.74,0.348-1.14,0.492c-0.4,0.144-0.776,0.244-1.128,0.3C22.562,12.037,22.33,11.985,22.218,11.825z M23.37,9.377
		c-0.032-0.032-0.044-0.072-0.036-0.12c0.008-0.048,0.036-0.072,0.084-0.072c0.096-0.096,0.196-0.196,0.3-0.3
		s0.196-0.228,0.276-0.372c0.048-0.112,0.112-0.128,0.192-0.048c0.128,0.064,0.16,0.128,0.096,0.192
		c-0.208,0.368-0.432,0.624-0.672,0.768C23.498,9.489,23.418,9.473,23.37,9.377z"/>
	<path d="M25.626,11.632c0.048-0.048,0.096-0.096,0.144-0.144c0.048-0.048,0.096-0.112,0.144-0.192
		c0.176-0.144,0.3-0.284,0.372-0.42c0.072-0.136,0.124-0.268,0.156-0.396v-0.048l-0.048,0.048c-0.032,0.032-0.056,0.048-0.072,0.048
		s-0.04,0.017-0.072,0.048c-0.128,0.08-0.256,0.16-0.384,0.24c-0.128,0.081-0.24,0.144-0.336,0.192
		c-0.096,0.048-0.176,0.016-0.24-0.096c-0.064-0.064-0.032-0.128,0.096-0.192c0.096-0.048,0.208-0.104,0.336-0.168
		c0.128-0.064,0.24-0.136,0.336-0.216c0.032-0.032,0.056-0.052,0.072-0.06c0.016-0.008,0.04-0.027,0.072-0.06
		c0.032-0.016,0.063-0.04,0.096-0.072l0.144-0.144V9.953c0.032-0.08,0.08-0.124,0.144-0.132c0.064-0.008,0.112,0.036,0.144,0.132
		c0.048,0.176,0.064,0.324,0.048,0.444s-0.048,0.244-0.096,0.372c0.32-0.208,0.624-0.38,0.912-0.516
		c0.288-0.136,0.54-0.228,0.756-0.276c0.216-0.048,0.384-0.036,0.504,0.036c0.12,0.072,0.18,0.212,0.18,0.42
		c0,0.352,0.052,0.692,0.156,1.02c0.104,0.328,0.272,0.612,0.504,0.852c0.232,0.24,0.536,0.416,0.912,0.528
		c0.376,0.112,0.844,0.128,1.404,0.048c0.192-0.016,0.423-0.063,0.696-0.144c0.272-0.08,0.548-0.18,0.828-0.3
		c0.28-0.12,0.548-0.256,0.804-0.408c0.256-0.152,0.472-0.315,0.648-0.492c0.112-0.064,0.192-0.048,0.24,0.048
		c0.032,0.048,0.044,0.081,0.036,0.096c-0.008,0.016-0.036,0.048-0.084,0.096c-0.192,0.192-0.428,0.369-0.708,0.528
		c-0.28,0.16-0.568,0.3-0.864,0.42c-0.296,0.12-0.592,0.224-0.888,0.312s-0.548,0.148-0.756,0.18
		c-0.688,0.096-1.248,0.048-1.68-0.144c-0.432-0.192-0.768-0.448-1.008-0.768c-0.24-0.32-0.404-0.664-0.492-1.032
		c-0.088-0.368-0.132-0.68-0.132-0.936c-0.176-0.016-0.38,0.016-0.612,0.096c-0.232,0.08-0.46,0.18-0.684,0.3
		c-0.224,0.12-0.44,0.252-0.648,0.396c-0.208,0.144-0.376,0.264-0.504,0.36c-0.081,0.096-0.152,0.184-0.216,0.264
		c-0.064,0.081-0.12,0.12-0.168,0.12c-0.096,0.096-0.176,0.104-0.24,0.024C25.514,11.817,25.53,11.729,25.626,11.632z"/>
	<path d="M39.305,15.232c0.496-0.368,1.024-0.704,1.584-1.008c0.56-0.304,1.112-0.576,1.656-0.816
		c0.543-0.24,1.048-0.448,1.512-0.624c0.464-0.176,0.84-0.312,1.128-0.408c-0.464-0.256-1.008-0.516-1.632-0.78
		c-0.624-0.264-1.2-0.568-1.728-0.912c-0.528-0.344-0.956-0.744-1.284-1.2c-0.328-0.456-0.437-1.004-0.324-1.644
		c0.144-0.735,0.452-1.448,0.924-2.136s1.056-1.324,1.752-1.908c0.696-0.583,1.464-1.116,2.304-1.596s1.699-0.888,2.58-1.224
		c0.88-0.336,1.744-0.588,2.592-0.756s1.62-0.24,2.316-0.216c0.695,0.024,1.284,0.152,1.764,0.384
		c0.48,0.232,0.792,0.588,0.937,1.068c0.111,0.368,0.052,0.764-0.181,1.188c-0.231,0.424-0.563,0.852-0.996,1.284
		c-0.432,0.432-0.939,0.848-1.523,1.248c-0.585,0.4-1.173,0.76-1.765,1.08c-0.592,0.304-1.199,0.572-1.823,0.804
		s-1.2,0.388-1.729,0.468c-0.527,0.081-0.968,0.064-1.319-0.048c-0.353-0.112-0.553-0.375-0.601-0.792
		c-0.016-0.208,0.052-0.432,0.204-0.672c0.152-0.24,0.356-0.484,0.612-0.732s0.556-0.492,0.9-0.732
		c0.344-0.24,0.699-0.472,1.067-0.696c0.368-0.208,0.752-0.404,1.152-0.588c0.399-0.184,0.783-0.34,1.151-0.468
		s0.708-0.224,1.021-0.288c0.312-0.064,0.579-0.08,0.804-0.048c0.288,0.081,0.42,0.225,0.396,0.432
		c-0.023,0.208-0.107,0.352-0.252,0.432c-0.128,0.064-0.191,0.048-0.191-0.048c-0.032-0.048-0.04-0.092-0.024-0.132
		c0.016-0.04,0.04-0.076,0.072-0.108c0.032,0,0.06-0.032,0.084-0.096c0.024-0.063,0.012-0.111-0.036-0.144h-0.096l-0.336-0.048
		c-0.416,0.048-0.956,0.204-1.62,0.468c-0.664,0.264-1.324,0.588-1.98,0.972c-0.384,0.225-0.74,0.453-1.068,0.684
		c-0.328,0.232-0.607,0.456-0.839,0.672c-0.232,0.216-0.412,0.42-0.54,0.612s-0.177,0.352-0.145,0.48
		c0.017,0.272,0.164,0.456,0.444,0.552c0.28,0.096,0.647,0.108,1.104,0.036c0.455-0.072,0.979-0.216,1.571-0.432
		c0.592-0.216,1.216-0.492,1.872-0.828c0.624-0.336,1.216-0.7,1.776-1.092c0.56-0.392,1.044-0.788,1.451-1.188
		c0.408-0.4,0.712-0.788,0.912-1.164c0.2-0.375,0.26-0.716,0.181-1.02c-0.129-0.448-0.425-0.776-0.889-0.984
		c-0.464-0.208-1.031-0.312-1.704-0.312c-0.672,0-1.42,0.096-2.243,0.288c-0.824,0.192-1.66,0.46-2.509,0.804
		c-0.848,0.344-1.684,0.756-2.508,1.236s-1.563,1.008-2.219,1.584c-0.656,0.576-1.208,1.192-1.656,1.848s-0.72,1.328-0.816,2.016
		c-0.08,0.512,0,0.96,0.24,1.344c0.24,0.384,0.592,0.732,1.056,1.044s1.024,0.612,1.68,0.9c0.656,0.288,1.352,0.6,2.087,0.936h0.024
		c0.111-0.032,0.304-0.096,0.576-0.192c0.271-0.096,0.579-0.208,0.923-0.336c0.345-0.128,0.713-0.26,1.104-0.396
		c0.392-0.136,0.76-0.268,1.104-0.396c0.344-0.128,0.644-0.244,0.899-0.348c0.256-0.104,0.433-0.188,0.528-0.252
		c0-0.032,0.032-0.052,0.096-0.06c0.064-0.008,0.112,0.012,0.145,0.06c0.048,0.032,0.052,0.08,0.012,0.144s-0.076,0.096-0.108,0.096
		c-0.128,0.096-0.432,0.24-0.911,0.432c-0.48,0.192-0.996,0.393-1.549,0.6c-0.552,0.208-1.072,0.396-1.56,0.564
		c-0.488,0.168-0.813,0.276-0.972,0.324c0.832,0.528,1.199,1.088,1.104,1.68c-0.048,0.256-0.156,0.508-0.323,0.756
		c-0.168,0.248-0.364,0.492-0.589,0.732c-0.224,0.24-0.468,0.46-0.731,0.66c-0.264,0.2-0.516,0.38-0.756,0.54
		c-0.848,0.512-1.672,0.912-2.472,1.2c-0.8,0.288-1.512,0.496-2.136,0.624c-0.848,0.128-1.468,0.104-1.86-0.072
		s-0.6-0.444-0.624-0.804c-0.024-0.36,0.124-0.768,0.444-1.224C38.306,16.085,38.746,15.649,39.305,15.232z M39.93,18.305
		c0.624-0.096,1.328-0.292,2.112-0.588c0.784-0.296,1.584-0.708,2.399-1.236c0.512-0.288,0.996-0.648,1.452-1.08
		c0.456-0.432,0.724-0.855,0.804-1.272c0.048-0.288-0.028-0.556-0.228-0.804c-0.2-0.248-0.509-0.492-0.924-0.732
		c-0.24,0.096-0.604,0.236-1.093,0.42s-1.027,0.404-1.619,0.66c-0.592,0.256-1.192,0.548-1.8,0.876
		c-0.608,0.328-1.152,0.684-1.632,1.068c-0.528,0.416-0.916,0.808-1.164,1.176c-0.248,0.368-0.352,0.676-0.312,0.924
		c0.04,0.248,0.224,0.428,0.552,0.54S39.29,18.384,39.93,18.305z"/>
	<path d="M50.153,8.128c-0.032,0-0.104,0.008-0.217,0.024c-0.111,0.016-0.168-0.024-0.168-0.12c0-0.08,0.04-0.136,0.12-0.168
		c0.032-0.016,0.072-0.024,0.12-0.024c0.416-0.048,0.908-0.084,1.477-0.108c0.567-0.024,1.163-0.036,1.787-0.036
		c0.145-0.128,0.349-0.292,0.612-0.492c0.264-0.2,0.536-0.396,0.816-0.588c0.279-0.192,0.548-0.356,0.804-0.492
		c0.256-0.136,0.456-0.204,0.6-0.204c0.08,0,0.141,0.028,0.181,0.084c0.039,0.057,0.06,0.108,0.06,0.156
		c-0.032,0.176-0.168,0.392-0.408,0.648c-0.239,0.256-0.552,0.552-0.936,0.888l1.92,0.144l0.144,0.048
		c0.08,0.048,0.112,0.112,0.097,0.192c-0.017,0.048-0.088,0.072-0.216,0.072c-0.064,0-0.12-0.008-0.168-0.024
		c-0.369-0.032-0.729-0.056-1.08-0.072c-0.353-0.016-0.713-0.024-1.08-0.024c-0.544,0.448-1.097,0.876-1.656,1.284
		c-0.561,0.408-1.145,0.764-1.752,1.068c-0.112,0.128-0.216,0.3-0.313,0.516c-0.096,0.216-0.144,0.388-0.144,0.516
		c0.016,0.192,0.147,0.308,0.396,0.348s0.561,0.036,0.937-0.012c0.376-0.048,0.788-0.14,1.236-0.276
		c0.447-0.136,0.879-0.276,1.296-0.42c0.416-0.144,0.783-0.292,1.104-0.444c0.32-0.152,0.544-0.276,0.672-0.372
		c0.128-0.08,0.225-0.08,0.288,0c0.064,0.08,0.032,0.16-0.096,0.24c-0.192,0.16-0.536,0.348-1.032,0.564
		c-0.496,0.216-1.032,0.417-1.607,0.6c-0.576,0.184-1.141,0.324-1.692,0.42c-0.552,0.096-0.98,0.096-1.284,0
		c-0.176-0.032-0.316-0.1-0.42-0.204c-0.104-0.104-0.156-0.244-0.156-0.42c0-0.096,0.013-0.2,0.036-0.312
		c0.024-0.112,0.076-0.231,0.156-0.36l0.048-0.048l-0.432,0.192c-0.032,0.032-0.072,0.04-0.12,0.024
		c-0.048-0.016-0.072-0.04-0.072-0.072c-0.032-0.064-0.016-0.128,0.048-0.192l0.912-0.528c0.192-0.272,0.444-0.58,0.756-0.924
		c0.313-0.344,0.7-0.74,1.164-1.188c-0.512,0-1,0.004-1.464,0.012C50.961,8.053,50.537,8.081,50.153,8.128z M51.569,9.857
		c0.56-0.384,1.056-0.724,1.487-1.02c0.433-0.296,0.808-0.564,1.128-0.804h-0.815c-0.145,0.128-0.353,0.32-0.624,0.576
		C52.472,8.865,52.081,9.281,51.569,9.857z M55.817,6.353c-0.225,0.096-0.517,0.252-0.877,0.468
		c-0.359,0.216-0.771,0.508-1.235,0.876h0.864c0.271-0.24,0.54-0.488,0.804-0.744s0.46-0.472,0.588-0.648L55.817,6.353z"/>
	<path d="M54.952,10.625c0.097-0.24,0.256-0.448,0.48-0.624c0.224-0.176,0.447-0.288,0.672-0.336
		c0.176-0.032,0.344-0.028,0.504,0.012s0.248,0.132,0.264,0.276c0.017,0.144-0.044,0.284-0.18,0.42
		c-0.136,0.136-0.304,0.26-0.504,0.372s-0.396,0.208-0.588,0.288c-0.192,0.08-0.32,0.128-0.384,0.144
		c0.079,0.224,0.247,0.392,0.504,0.504c0.256,0.112,0.552,0.144,0.888,0.096c0.608-0.08,1.208-0.252,1.8-0.516
		c0.592-0.264,1.104-0.54,1.536-0.828c0.096-0.08,0.176-0.08,0.24,0c0.063,0.08,0.048,0.16-0.048,0.24
		c-0.225,0.16-0.492,0.324-0.805,0.492c-0.312,0.168-0.64,0.32-0.983,0.456c-0.345,0.136-0.696,0.248-1.057,0.336
		c-0.359,0.088-0.708,0.132-1.044,0.132c-0.224,0-0.432-0.036-0.624-0.108c-0.191-0.072-0.355-0.172-0.491-0.3
		c-0.137-0.128-0.225-0.28-0.265-0.456C54.829,11.049,54.856,10.849,54.952,10.625z M56.536,9.953
		c-0.288-0.064-0.567,0.02-0.84,0.252s-0.448,0.476-0.528,0.732c0.064-0.032,0.169-0.084,0.313-0.156
		c0.144-0.072,0.296-0.152,0.456-0.24c0.16-0.088,0.3-0.184,0.42-0.288C56.476,10.149,56.536,10.048,56.536,9.953z"/>
	<path d="M60.305,10.528c-0.145,0.128-0.3,0.236-0.468,0.324c-0.168,0.088-0.316,0.172-0.444,0.252c-0.128,0-0.208-0.032-0.24-0.096
		c0-0.096,0.032-0.16,0.097-0.192c0.191-0.128,0.423-0.268,0.695-0.42c0.272-0.152,0.472-0.3,0.601-0.444
		c0.031-0.048,0.096-0.08,0.191-0.096c0.097-0.016,0.16,0.016,0.192,0.096c-0.048,0.128-0.108,0.288-0.18,0.48
		c-0.072,0.192-0.137,0.372-0.192,0.54c-0.057,0.168-0.104,0.316-0.145,0.444c-0.04,0.128-0.044,0.2-0.012,0.216
		c0.016,0.016,0.048,0.021,0.096,0.012c0.049-0.008,0.112-0.028,0.192-0.06c0.08-0.032,0.184-0.088,0.313-0.168
		c0.128-0.08,0.296-0.184,0.504-0.312c-0.064-0.096-0.072-0.236-0.024-0.42c0.048-0.184,0.124-0.368,0.229-0.552
		c0.104-0.184,0.228-0.344,0.371-0.48c0.145-0.136,0.288-0.211,0.433-0.228c0.096-0.016,0.172,0.004,0.228,0.06
		c0.057,0.057,0.097,0.125,0.12,0.204c0.024,0.081,0.028,0.172,0.012,0.276c-0.016,0.104-0.056,0.196-0.119,0.276
		c-0.017,0.032-0.053,0.088-0.108,0.168c-0.057,0.08-0.124,0.164-0.204,0.252s-0.168,0.172-0.264,0.252
		c-0.097,0.08-0.177,0.144-0.24,0.192c0.336,0.176,0.771,0.212,1.308,0.108c0.536-0.104,1.188-0.412,1.956-0.924
		c0.032-0.032,0.072-0.044,0.12-0.036c0.048,0.008,0.072,0.036,0.072,0.084c0.032,0.032,0.048,0.072,0.048,0.12
		s-0.016,0.072-0.048,0.072c-0.896,0.608-1.656,0.957-2.28,1.044s-1.08,0.012-1.368-0.228h-0.048
		c-0.112,0.096-0.239,0.188-0.384,0.276c-0.144,0.088-0.288,0.164-0.432,0.228c-0.145,0.064-0.284,0.112-0.42,0.144
		c-0.137,0.032-0.236,0.04-0.301,0.024c-0.08-0.016-0.124-0.088-0.132-0.216s0.004-0.272,0.036-0.432
		c0.032-0.16,0.072-0.32,0.12-0.48C60.232,10.729,60.272,10.609,60.305,10.528z M62.513,9.761c-0.145,0-0.297,0.116-0.456,0.348
		c-0.16,0.232-0.264,0.484-0.313,0.756c0.336-0.336,0.584-0.604,0.744-0.804C62.648,9.861,62.656,9.761,62.513,9.761z"/>
	<path d="M63.76,10.625c0.097-0.24,0.256-0.448,0.48-0.624c0.224-0.176,0.447-0.288,0.672-0.336
		c0.176-0.032,0.344-0.028,0.504,0.012s0.248,0.132,0.264,0.276c0.017,0.144-0.044,0.284-0.18,0.42
		c-0.136,0.136-0.304,0.26-0.504,0.372s-0.396,0.208-0.588,0.288c-0.192,0.08-0.32,0.128-0.384,0.144
		c0.079,0.224,0.247,0.392,0.504,0.504c0.256,0.112,0.552,0.144,0.888,0.096c0.608-0.08,1.208-0.252,1.8-0.516
		c0.592-0.264,1.104-0.54,1.536-0.828c0.096-0.08,0.176-0.08,0.24,0c0.063,0.08,0.048,0.16-0.048,0.24
		c-0.225,0.16-0.492,0.324-0.805,0.492c-0.312,0.168-0.64,0.32-0.983,0.456c-0.345,0.136-0.696,0.248-1.057,0.336
		c-0.359,0.088-0.708,0.132-1.044,0.132c-0.224,0-0.432-0.036-0.624-0.108c-0.191-0.072-0.355-0.172-0.491-0.3
		c-0.137-0.128-0.225-0.28-0.265-0.456C63.637,11.049,63.664,10.849,63.76,10.625z M65.344,9.953
		c-0.288-0.064-0.567,0.02-0.84,0.252s-0.448,0.476-0.528,0.732c0.064-0.032,0.169-0.084,0.312-0.156
		c0.144-0.072,0.296-0.152,0.456-0.24c0.16-0.088,0.3-0.184,0.42-0.288C65.284,10.149,65.344,10.048,65.344,9.953z"/>
	<path d="M68.488,11.632c0.048-0.08,0.151-0.192,0.312-0.336c0.176-0.144,0.301-0.284,0.372-0.42
		c0.072-0.136,0.124-0.268,0.156-0.396c-0.156,0.112-0.309,0.208-0.457,0.288s-0.294,0.16-0.435,0.24
		c-0.094,0.048-0.169,0.024-0.225-0.072s-0.028-0.168,0.084-0.216c0.094-0.048,0.203-0.108,0.327-0.18
		c0.125-0.072,0.237-0.14,0.338-0.204c0.102-0.063,0.188-0.124,0.26-0.18c0.071-0.056,0.107-0.108,0.107-0.156V9.953
		c0.032-0.08,0.08-0.124,0.145-0.132c0.063-0.008,0.111,0.036,0.144,0.132c0.048,0.176,0.063,0.324,0.048,0.444
		s-0.048,0.244-0.096,0.372c0.479-0.272,0.896-0.496,1.248-0.672c0.352-0.176,0.64-0.192,0.863-0.048
		c0.08,0.048,0.12,0.12,0.12,0.216c0,0.096-0.023,0.184-0.071,0.264c-0.064,0.192-0.129,0.369-0.192,0.528
		c-0.064,0.16-0.104,0.296-0.12,0.408c-0.016,0.112,0.004,0.192,0.061,0.24c0.056,0.048,0.171,0.056,0.348,0.024
		c0.384-0.08,0.855-0.244,1.416-0.492c0.56-0.248,1.08-0.532,1.56-0.852c0.112-0.064,0.192-0.048,0.24,0.048
		c0.048,0.096,0.032,0.16-0.048,0.192c-0.528,0.368-1.064,0.676-1.608,0.924c-0.544,0.249-1.08,0.42-1.607,0.516
		c-0.32,0.048-0.524,0.008-0.612-0.12c-0.088-0.127-0.12-0.288-0.096-0.48c0.023-0.192,0.084-0.396,0.18-0.612
		s0.16-0.388,0.192-0.516c-0.032-0.096-0.145-0.112-0.336-0.048c-0.192,0.064-0.412,0.164-0.66,0.3
		c-0.248,0.136-0.492,0.285-0.732,0.444c-0.239,0.16-0.424,0.288-0.552,0.384c-0.08,0.096-0.164,0.188-0.252,0.276
		c-0.088,0.088-0.156,0.148-0.204,0.18c-0.08,0.032-0.152,0.032-0.216,0C68.424,11.841,68.424,11.761,68.488,11.632z"/>
	<path d="M74.391,11.849c0.304,0.336,0.576,0.452,0.816,0.348s0.439-0.308,0.6-0.612c0.16-0.304,0.28-0.64,0.36-1.008
		s0.128-0.656,0.145-0.864l-0.097,0.048c-0.24,0.192-0.492,0.392-0.756,0.6c-0.264,0.208-0.604,0.432-1.02,0.672
		c-0.112,0.064-0.192,0.048-0.24-0.048c-0.032-0.032-0.04-0.072-0.024-0.12c0.016-0.048,0.04-0.088,0.072-0.12
		c0.528-0.32,0.952-0.596,1.272-0.828c0.319-0.232,0.591-0.436,0.815-0.612c0.16-0.192,0.271-0.272,0.336-0.24
		c0.063,0.032,0.063,0.192,0,0.48c-0.096,0.608-0.216,1.136-0.359,1.584c-0.145,0.448-0.324,0.792-0.54,1.032
		c-0.217,0.24-0.465,0.36-0.744,0.36c-0.28,0-0.597-0.152-0.948-0.456c-0.16-0.128-0.192-0.24-0.096-0.336
		C74.08,11.632,74.216,11.673,74.391,11.849z"/>
</g>
</svg>
