<?xml version="1.0" encoding="utf-8"?>
<!-- Generator: Adobe Illustrator 22.0.1, SVG Export Plug-In . SVG Version: 6.00 Build 0)  -->
<svg version="1.1" id="Layer_1" xmlns="http://www.w3.org/2000/svg" xmlns:xlink="http://www.w3.org/1999/xlink" x="0px" y="0px"
	 viewBox="0 0 2235.665 1216.4442" enable-background="new 0 0 2235.665 1216.4442" xml:space="preserve">
<path d="M1829.0726,1039.0986c5.6754-2.2172,10.8994-4.2581,16.639-6.5002c-19.7861-52.6907-39.4569-105.0742-59.2412-157.7602
	c-5.7517,2.0956-11.0206,4.0152-16.7686,6.1094c-7.8932-21.0182-15.6971-41.7989-23.6866-63.0735
	c30.0491-11.2833,59.7416-22.4327,89.5613-33.63c44.0038,34.8096,87.8534,69.4972,131.7028,104.1848
	c0.1951-0.144,0.3899-0.2881,0.5847-0.4322c-8.8636-23.595-17.7273-47.1899-26.7573-71.2276
	c-5.9313,2.1734-11.4918,4.2109-17.5643,6.436c-7.8867-20.9751-15.7036-41.7646-23.722-63.0901
	c37.4537-14.0619,74.5977-28.0074,112.1196-42.0949c7.9141,21.0527,15.6868,41.73,23.6882,63.0153
	c-5.8044,2.2769-11.4387,4.487-17.4448,6.843c19.7834,52.6788,39.4685,105.0962,59.2439,157.7538
	c6.0139-2.1873,11.5984-4.2183,17.5964-6.3997c7.9055,21.0503,15.7153,41.8452,23.6875,63.073
	c-30.9663,11.6282-61.4353,23.0697-92.0239,34.5562c-42.6826-33.9111-85.1971-67.6885-127.7115-101.4659
	c-0.2456,0.126-0.4912,0.252-0.7367,0.3781c8.4194,22.4298,16.8389,44.8596,25.3771,67.6057
	c5.8646-2.1355,11.2971-4.1135,17.1675-6.2511c7.9089,21.0465,15.7197,41.8317,23.7047,63.0807
	c-37.3947,14.0398-74.3914,27.9302-111.7141,41.943C1844.8457,1081.0597,1837.0695,1060.3726,1829.0726,1039.0986z
	 M2010.4197,236.6054c-22.2661,55.6918-44.4186,111.0989-66.7239,166.8886c-6.0498-2.3423-11.6962-4.5284-17.5704-6.8027
	c-8.6731,21.6931-17.1112,42.7985-25.7253,64.3445c72.4774,28.9689,144.5275,57.767,216.952,86.7148
	c10.2993-25.7704,20.3345-50.879,30.53-76.3899c-21.8884-8.7292-43.1833-17.4372-64.7991-25.8002
	c-1.803,4.2526-3.3362,7.8685-4.9841,11.7558c-18.3313-7.3327-36.2012-14.4808-54.5708-21.8288
	c6.9099-17.2855,13.6611-34.1744,20.499-51.2798c5.1838,2.0842,9.7363,3.9147,14.4285,5.8015
	c-1.6089,4.2811-2.9897,7.9556-4.5037,11.9836c21.5796,8.6266,42.7224,17.2791,64.3596,25.6337
	c11.8789-29.7296,23.5129-58.8463,35.2637-88.2551c-21.6563-8.6561-42.7712-17.0958-64.2732-25.6902
	c-1.7449,4.053-3.3484,7.7777-5.0876,11.8178c-5.0525-2.0453-9.5923-3.883-14.4043-5.8309
	c6.9348-17.3146,13.6499-34.0802,20.5117-51.212c18.5657,7.4316,36.5354,14.6247,54.5686,21.8432
	c-1.6167,4.2992-3.0034,7.9864-4.5198,12.0188c21.7446,8.6878,43.1177,17.2271,64.7629,25.8751
	c10.2607-25.675,20.3025-50.8029,30.5315-76.3987c-72.5024-28.9805-144.5674-57.7861-216.9482-86.718
	c-8.6404,21.62-17.0833,42.7453-25.7351,64.3941C1999.0618,231.9583,2004.572,234.2128,2010.4197,236.6054z M1356.8099,13.0651
	c-3.4093,23.2684-7.1049,45.8227-10.129,68.5895c6.5389,1.05,12.3781,1.9876,18.173,2.9181
	c-1.5546,18.1761-25.47,173.7142-27.3568,177.5699c-5.7506-0.7622-11.6001-1.5375-17.7655-2.3547
	c-3.4678,23.1129-6.8387,45.5816-10.2743,68.4803c77.1902,11.5975,153.8265,23.1118,231.0015,34.707
	c4.1703-27.2693,8.3027-54.1255,12.1659-81.4104c-23.3113-3.4908-45.9423-6.8797-68.8232-10.306
	c-0.814,4.5322-1.5292,8.5135-2.2804,12.696c-19.6327-3.1903-38.8667-5.5945-58.0449-8.977
	c2.7771-18.4009,5.4524-36.1276,8.1141-53.7638c5.8383-0.1805,12.2201,0.9347,15.3608,2.5828
	c-0.5084,3.8734-1.0161,7.7469-1.5542,11.8516c23.0635,3.4645,45.5551,6.8432,68.5034,10.2904
	c4.7269-31.4383,9.3927-62.4688,14.1498-94.1069c-22.9969-3.4536-45.6018-6.8484-68.4949-10.2865
	c-0.8044,4.5041-1.4932,8.3611-2.2621,12.6663c-5.231-0.8298-10.0771-1.5985-15.3405-2.4334
	c3.0231-18.4359,5.1862-36.4949,8.4637-54.4651c19.7227,2.9826,38.7369,5.8581,57.8451,8.7478
	c-0.5291,4.6267-0.974,8.5166-1.4586,12.7535c23.1936,3.4829,45.8232,6.881,68.8577,10.34
	c4.0966-27.313,8.1108-54.0766,12.2073-81.3895C1510.6257,36.165,1433.8887,24.6407,1356.8099,13.0651z M1817.4093,186.7299
	c-3.5569,13.1721-7.0508,26.1108-10.5184,38.9524c7.5623,3.2251,79.1812,22.3038,83.0343,22.1118
	c5.9098-21.6914,11.8463-43.4807,17.7703-65.2234c-12.2057-21.3525-24.2568-42.4347-36.4038-63.6846
	c-44.3158-12.082-88.5813-24.1502-132.8655-36.2236c-21.1361,12.0818-42.075,24.0507-63.1373,36.0903
	c-18.9122,69.3739-37.8047,138.6755-56.6613,207.8449c12.2578,21.4493,24.3048,42.53,36.4103,63.7128
	c44.235,12.0541,88.3417,24.0732,132.4161,36.0837c21.3137-12.1833,42.4037-24.2386,63.6859-36.4039
	c10.8446-39.8389,21.826-79.6733,32.6302-119.9033c-35.4969-9.6742-70.2678-19.1505-105.5317-28.7611
	c-5.5909,20.5607-11.0637,40.687-16.6219,61.1269c7.8269,2.1868,14.9895,4.188,22.5319,6.2952
	c-2.9349,10.7939-5.801,21.3346-8.6593,31.847c-4.3857,2.4933-8.5682,4.8712-12.5944,7.1602
	c-16.0269-4.3769-31.7413-8.6685-47.2878-12.9142c-2.4801-4.3439-4.7886-8.3872-7.1661-12.5516
	c14.0024-51.3342,28.0043-102.6666,41.9574-153.8198c4.3711-2.4911,8.415-4.7958,12.556-7.1557
	c15.7478,4.2915,31.464,8.5744,47.3291,12.8979C1812.8402,178.7035,1815.1367,182.7378,1817.4093,186.7299z M143.4226,513.6942
	c43.43-16.5239,86.6316-32.9609,129.9798-49.4537c10.0458-22.3817,20.0491-44.6684,30.049-66.9478
	c-7.9297-20.8065-15.7881-41.4256-23.7725-62.3752c-27.232,10.4337-54.0916,20.4559-81.1175,30.9679
	c4.7034,12.4435,9.1595,24.2329,13.6013,35.9843c-2.1223,4.7086-4.1663,9.2433-6.2007,13.757
	c-15.5685,5.92-30.9407,11.7653-46.2401,17.5831c-4.4873-2.0143-8.7245-3.9163-13.2095-5.9296
	c-18.8915-49.6561-37.8076-99.3766-56.6831-148.9904c2.0535-4.5798,3.9523-8.8147,5.9215-13.2067
	c15.3917-5.8534,30.7625-11.6989,46.2494-17.5885c4.6622,2.088,9.1966,4.1187,13.6509,6.1136
	c5.2461,12.5484,9.333,25.3261,14.7507,37.6952c26.9559-10.2606,53.3537-20.3087,80.1073-30.4923
	c-8.2392-21.6546-16.326-42.9083-24.3975-64.122c-22.5357-10.1065-44.8269-20.1033-66.9456-30.0228
	c-43.2827,16.4696-86.173,32.79-129.1229,49.1331C19.961,238.2637,9.9589,260.5495,0,282.739
	c25.5444,67.1269,50.9803,133.9684,76.4648,200.9377C99.1071,493.8273,121.2614,503.7592,143.4226,513.6942z M406.8529,841.0273
	c-9.3027-21.8913-18.5348-43.6165-27.8219-65.4711c-40.7034-16.1691-81.3463-32.3141-121.9553-48.4457
	c-21.556,9.2997-42.9337,18.5225-64.4734,27.8152c-10.6895,26.9001-21.3679,53.7723-32.0252,80.5914
	c9.4682,21.9213,18.8255,43.5859,28.0821,65.0173c27.4686,10.9272,54.5046,21.6824,81.6649,32.4868
	c1.822,4.3627,3.6021,8.6251,5.3659,12.8483c-3.7857,9.5372-7.4591,18.7915-11.1562,28.1055
	c-4.211,1.8669-8.2841,3.6727-12.1973,5.4077c-14.6143-5.8108-28.818-11.4583-43.1413-17.1533
	c-1.7488-4.0322-3.4576-7.9724-5.1254-11.818c3.3297-9.4061,7.5193-18.2252,10.609-27.702
	c-25.8576-10.2134-51.035-20.4644-76.6756-30.3549c-7.1358,17.9455-14.0077,35.2274-20.8609,52.4619
	c9.1946,21.6147,18.3028,43.0262,27.3715,64.3452c41.2546,16.3899,82.2151,32.6631,123.2004,48.9462
	c21.4203-9.3879,42.7401-18.7318,64.0368-28.0656c10.5184-26.4688,20.9518-52.7239,31.3373-78.8583
	c-9.3653-22.0247-18.6038-43.7513-27.8276-65.4433c-27.7365-11.0336-55.2305-21.9707-82.6739-32.8877
	c-1.7867-4.1859-3.4775-8.147-5.1134-11.9796c4.0997-10.288,8.0982-20.3219,12.0767-30.3055
	c4.1737-1.7891,8.1296-3.4849,11.9558-5.1251c14.5088,5.7737,28.7061,11.4235,42.7955,17.0303
	c1.8404,4.4537,3.5497,8.5901,5.2878,12.7962c-3.718,9.4866-7.3906,18.8575-11.1541,28.46
	c25.8862,10.2838,51.2095,20.3439,77.2093,30.6728C392.843,876.2856,399.8319,858.6968,406.8529,841.0273z M954.0765,1212.5134
	c2.9504-21.6322,5.9126-43.3507,8.9457-65.5884c-6.0013-0.9301-11.6707-1.8087-17.4255-2.7007
	c-10.8243-58.1614-21.5828-115.9688-32.4473-174.3463c5.2804,0.5601,9.8431,1.0441,14.8997,1.5804
	c3.0444-22.2195,6.0392-44.0767,9.1282-66.6217c-53.306-7.2904-106.2922-14.5371-159.7103-21.8428
	c-3.0685,22.4672-6.0731,44.4673-9.1064,66.6768c4.3184,0.7375,8.1476,1.3915,12.6412,2.1589
	c-26.1967,53.4631-52.0798,106.2864-78.0589,159.3053c-3.0719-0.3998-5.8515-0.7847-8.6373-1.1177
	c-2.892-0.3461-5.7899-0.642-8.8828-0.9814c-3.061,22.457-6.043,44.3333-9.0866,66.6622
	c38.2504,5.223,76.0942,10.3904,114.4216,15.6238c2.8198-22.579,6.3418-44.4958,8.8465-66.7189
	c-3.5358-0.6333-6.4341-1.1523-9.8453-1.7632c2.3836-4.8887,4.5414-9.3142,6.7617-13.868
	c19.9429,2.7448,39.499,5.4364,59.1241,8.1375c0.9178,5.1975,1.7404,9.8558,2.6608,15.0676
	c-3.6953-0.3263-6.7385-0.595-10.0761-0.8896c-3.0439,22.2581-6.0381,44.152-9.0657,66.291
	C857.0045,1201.3535,949.749,1213.4336,954.0765,1212.5134z M819.8336,1060.8146c6.045-11.9875,11.8549-23.5088,18.1699-36.0316
	c3.8712,13.3297,6.6735,25.9399,9.9843,39.0804C838.2347,1062.8073,829.3484,1061.845,819.8336,1060.8146z M468.6209,809.04
	c-7.2017,27.8407-14.2689,55.1612-21.4796,83.0366c21.7584,5.6176,43.2136,11.1567,64.8328,16.7384
	c1.6896-6.2473,3.1978-11.8237,4.7705-17.639c6.3813,1.6741,12.4257,3.2597,18.9179,4.9628
	c-14.117,54.5953-28.0903,108.6351-42.1815,163.1305c-6.1066-1.472-11.817-2.8485-17.7958-4.2897
	c-5.6675,21.9683-11.2083,43.4454-16.8193,65.1949c38.8284,10.0354,76.9364,19.8848,115.5073,29.8536
	c5.6714-21.933,11.2298-43.4293,16.8624-65.2123c-5.9666-1.6389-11.4752-3.1522-16.9072-4.6443
	c2.6414-14.9069,40.6638-159.7443,42.8174-163.0857c5.6373,1.5155,11.3251,3.0446,17.1523,4.6112
	c-1.5126,6.1681-2.8812,11.7485-4.3317,17.6633c22.1511,5.712,43.779,11.2891,65.6462,16.928
	c7.2225-27.9271,14.2549-55.1191,21.4714-83.0226C634.0146,851.793,551.4789,830.4581,468.6209,809.04z M1058.3442,980.4497
	c6.546,0,12.6313,0,19.3285,0c0.4659,56.2635,0.9299,112.2805,1.3986,168.877c-6.4803,0-12.2118,0-17.6678,0
	c0,22.6555,0,44.7345,0,67.1176c39.9353-0.2632,79.3372-0.5228,118.6176-0.7817c1.0043-6.6838,0.3274-64.1445-0.8053-67.8146
	c-5.4492,0-11.037,0-16.8804,0c-0.3773-56.2986-1.3724-112.1591-1.2134-168.2285c6.462,0,12.2124,0,18.6793,0
	c0,6.0702,0,11.822,0,17.4612c22.9601,0,45.1938,0,67.197,0c0-28.8665,0-57.0968,0-85.781
	c-85.8252,0.7018-171.0308,1.3984-256.7526,2.0992c0.329,28.9227,0.6499,57.149,0.9703,85.3182c22.4521,0,44.3767,0,67.1282,0
	C1058.3442,992.2117,1058.3442,986.4552,1058.3442,980.4497z M702.2668,280.9338c-6.3422,0.8849-12.2075,1.7032-18.6608,2.6035
	c2.8587,23.0659,5.6699,45.7484,8.5216,68.7574c78.1139-9.675,155.4973-19.2595,233.2552-28.8904
	c-3.6782-29.6325-7.2768-58.6237-10.9219-87.9899c-23.4617,2.8398-46.3255,5.4958-69.2697,8.6297
	c0.755,6.6987,1.4359,12.7396,2.147,19.0499c-20.2306,2.4241-39.7626,5.1971-59.7218,7.1989
	c-7.3909-59.6871-14.7035-118.7421-22.0632-178.1778c6.4597-0.8914,12.4955-1.7244,19.119-2.6385
	c-2.8539-23.0571-5.662-45.7433-8.513-68.7768c-41.3956,5.1284-82.1125,10.1728-123.2261,15.2663
	c2.8992,23.3303,5.7164,46.0001,8.5479,68.7864c6.4989-0.7168,12.2576-1.3519,18.7124-2.0638
	C687.5959,162.4646,694.9102,221.5286,702.2668,280.9338z M1102.1985,70.4304c5.8951,0,11.8409,0,17.7279,0
	c1.2788-6.8287,1.8296-64.6514,0.6412-69.1234c-19.7283-0.3116-39.526-0.7039-59.3257-0.9151
	C1040.2593,0.1682,1019.2745,0.1162,998.2908,0c-0.1375-0.0008-0.2915,0.1318-0.4089,0.235
	c-0.1233,0.1082-0.2117,0.256-0.5112,0.6331c-0.3263,22.4746-0.6561,45.1987-0.9939,68.4625c6.6658,0,12.5922,0,18.8864,0
	c-0.8101,60.1062-1.6129,119.6782-2.4235,179.8252c-6.4729,0-12.5306,0-18.6565,0c-0.5651,23.3169-1.137,46.0532-0.9473,68.7319
	c16.3934,1.7462,230.1038,4.0362,234.8457,2.5157c0.4133-29.0154,0.8276-58.0896,1.2406-87.0728
	c-9.9171-1.4146-65.8391-1.7872-70.2136-0.4142c0,5.7907,0,11.7338,0,18.239c-20.0623-0.2986-39.6595-0.5902-59.5067-0.8855
	C1098.3855,242.5217,1100.881,74.4554,1102.1985,70.4304z M443.3712,411.0898c44.9734-11.2984,89.4722-22.4776,133.9866-33.6607
	c12.6578-21.1685,25.2006-42.1445,37.6632-62.9865c-17.5067-69.6837-34.9269-139.0233-52.3724-208.4637
	c-21.0875-12.613-42.0638-25.1596-62.9909-37.6767c-44.9169,11.2829-89.5772,22.5013-133.9864,33.6566
	c-12.7206,21.2572-25.1905,42.0956-37.6822,62.9703c17.4673,69.5121,34.8923,138.856,52.3883,208.4827
	C401.6921,386.1606,422.6706,398.7083,443.3712,411.0898z M517.4789,320.8553c-15.8013,3.9848-31.9064,8.0463-48.3997,12.2056
	c-3.9446-2.328-8.0797-4.7685-12.5074-7.3816c-12.9298-51.4633-25.8934-103.0612-38.8494-154.6291
	c2.5274-4.2458,4.9016-8.2343,7.402-12.4349c15.9197-3.9961,31.8638-7.9984,47.9977-12.0482
	c4.201,2.4891,8.3377,4.94,12.9795,7.6902c12.8458,51.1035,25.7751,102.5388,38.7629,154.207
	C522.3501,312.683,520.0522,316.5381,517.4789,320.8553z M1591.3881,1166.7981c42.8206-9.953,85.5714-19.8898,128.1904-29.796
	c12.4995-20.0726,24.8101-39.8417,37.1299-59.6257c-15.4933-66.6439-30.9309-133.0482-46.2745-199.0483
	c-20.3507-12.6667-40.123-24.9734-59.6376-37.1198c-43.0953,10.0225-85.7018,19.9313-128.1682,29.8075
	c-12.498,20.0701-24.812,39.8445-37.1185,59.6072c15.4139,66.3269,30.7776,132.4376,46.2552,199.0383
	C1551.7012,1142.0789,1571.4771,1154.3965,1591.3881,1166.7981z M1572.2349,938.2825c2.0876-3.4028,4.3348-7.0656,6.7939-11.074
	c14.8588-3.4633,29.884-6.9655,44.9945-10.4875c3.9329,2.4375,7.7266,4.7888,11.6132,7.1976
	c11.3081,48.6577,22.5916,97.209,33.9093,145.9077c-2.2087,3.609-4.3698,7.1401-6.7806,11.0797
	c-14.9254,3.4736-30.1162,7.0093-45.3988,10.566c-3.6681-2.2485-7.1976-4.4121-11.0911-6.799
	C1594.9252,1035.8621,1583.6317,987.2946,1572.2349,938.2825z M1413.6984,958.1302c6.1461-0.9054,11.8341-1.7433,18.0956-2.6658
	c-2.9297-22.4148-5.8068-44.4271-8.729-66.7854c-39.7274,5.1965-78.7765,10.3044-118.3206,15.4771
	c2.9512,22.6071,5.8257,44.6267,8.7208,66.8044c6.1727-0.7198,11.7264-1.3676,17.7264-2.0673
	c7.2926,55.8837,14.5188,111.2589,21.7903,166.9818c-6.0424,0.9036-11.72,1.7526-17.6509,2.6395
	c3.0031,22.46,5.5796,44.5082,8.8363,66.7386c39.7235-5.1881,78.7762-10.2886,118.2262-15.441
	c-2.9508-22.5208-5.8353-44.5361-8.7524-66.7993c-6.327,0.7406-12.0424,1.4097-18.1456,2.1243
	C1428.2062,1069.2871,1420.9778,1013.9041,1413.6984,958.1302z"/>
</svg>
