<?xml version="1.0" encoding="utf-8"?>
<!-- Generator: Adobe Illustrator 22.0.1, SVG Export Plug-In . SVG Version: 6.00 Build 0)  -->
<svg version="1.1" id="Layer_1" xmlns="http://www.w3.org/2000/svg" xmlns:xlink="http://www.w3.org/1999/xlink" x="0px" y="0px"
	 viewBox="0 0 188.2081 11.6168" enable-background="new 0 0 188.2081 11.6168" xml:space="preserve">
<g>
	<polygon fill="#008BCB" points="179.0815,11.6078 185.7945,11.6078 186.5995,7.7199 179.8865,7.7199 	"/>
	<polygon fill="#008BCB" points="180.6902,3.8879 187.4032,3.8879 188.2081,0 181.4952,0 	"/>
	<polygon fill="#008BCB" points="173.1594,7.7477 179.8714,7.7477 180.6774,3.8598 173.9644,3.8598 	"/>
	<polygon fill="#008BCB" points="165.6283,11.6078 172.3413,11.6078 173.1463,7.7199 166.4333,7.7199 	"/>
	<polygon fill="#008BCB" points="167.2374,3.8879 173.9494,3.8879 174.7544,0 168.0424,0 	"/>
	<polygon fill="#008BCB" points="159.7063,7.7477 166.4193,7.7477 167.2243,3.8598 160.5113,3.8598 	"/>
	<polygon fill="#008BCB" points="152.1752,11.6078 158.8882,11.6078 159.6932,7.7199 152.9802,7.7199 	"/>
	<polygon fill="#008BCB" points="153.7843,3.8879 160.4963,3.8879 161.3013,0 154.5893,0 	"/>
	<polygon fill="#008BCB" points="146.2532,7.7477 152.9662,7.7477 153.7712,3.8598 147.0582,3.8598 	"/>
	<polygon fill="#008BCB" points="138.7221,11.6078 145.4351,11.6078 146.2401,7.7199 139.5281,7.7199 	"/>
	<g>
		<polygon fill="#008BCB" points="88.5403,6.3478 91.3323,6.3478 90.5253,3.6729 		"/>
		<polygon fill="#008BCB" points="10.0824,6.3478 12.8744,6.3478 12.0674,3.6729 		"/>
		<path fill="#008BCB" d="M106.1463,3.7906h-3.412l-0.394,1.731h3.609c0.59,0,0.86-0.236,0.976-0.7469l0.053-0.237
			C107.1223,3.9086,106.8343,3.7906,106.1463,3.7906z"/>
		<path fill="#008BCB" d="M55.1728,3.7706h-2.557c-1.15,0-1.49,0.542-1.691,1.427l-0.174,0.767
			c-0.235,1.032-0.108,1.426,0.925,1.426h2.792c1.033,0,1.339-0.394,1.574-1.426l0.174-0.767
			C56.4178,4.3126,56.3238,3.7706,55.1728,3.7706z"/>
		<path fill="#008BCB" d="M78.2136,3.7908h-3.206l-0.407,1.79h3.3929c0.511,0,0.784-0.335,0.88-0.757l0.063-0.276
			C79.0455,4.0658,78.8726,3.7908,78.2136,3.7908z"/>
		<path fill="#008BCB" d="M147.861,0.0308h-6.667H2.92L0,11.6168h139.288l-0.276-1.213c0,0,0.886-4.195,1.38-6.485h6.709
			l0.806-3.888H147.861z M13.7344,9.1418l-0.392-1.2599h-4.425l-0.926,1.2599h-2.438l5.4739-7.1219h2.842l2.295,7.1219H13.7344z
			 M30.4216,6.6041c-0.402,1.77-1.509,2.616-3.516,2.616h-3.127c-2.006,0-2.728-0.846-2.325-2.616l1.0421-4.584h2.183l-0.935,4.111
			c-0.205,0.905,0.039,1.259,0.934,1.259h2.163c0.895,0,1.3-0.354,1.506-1.259l0.935-4.111h2.182L30.4216,6.6041z M44.2709,3.7901
			h-3.068l-1.217,5.351h-2.183l1.217-5.351h-3.069l0.403-1.77h8.319L44.2709,3.7901z M58.6128,4.5186l-0.484,2.124
			c-0.474,2.086-1.756,2.577-3.723,2.577h-3.5c-1.967,0-3.026-0.491-2.551-2.577l0.483-2.124c0.474-2.085,1.756-2.577,3.722-2.577
			h3.501C58.0278,1.9416,59.0868,2.4336,58.6128,4.5186z M81.1985,4.4598l-0.139,0.61c-0.242,1.062-0.981,2.281-2.525,2.281h-4.337
			l-0.407,1.791h-2.183l1.619-7.122h5.95C81.2515,2.0198,81.5156,3.0628,81.1985,4.4598z M92.1923,9.1418l-0.392-1.2599h-4.425
			l-0.926,1.2599h-2.438l5.474-7.1219h2.842l2.295,7.1219H92.1923z M109.1953,4.1346l-0.103,0.453
			c-0.217,0.954-0.561,1.515-1.618,1.75l-0.004,0.02c0.622,0.118,1.098,0.404,0.832,1.574l-0.275,1.21h-2.183l0.194-0.856
			c0.17-0.747,0.01-0.993-0.669-0.993h-3.432l-0.42,1.849h-2.183l1.619-7.121h6.5891
			C109.2233,2.0206,109.4853,2.8556,109.1953,4.1346z M122.483,3.7901h-3.068l-1.217,5.351h-2.183l1.217-5.351h-3.069l0.403-1.77
			h8.319L122.483,3.7901z M135.8694,4.0464l-0.051,0.226h-2.184c0.119-0.521,0.1089-0.738-0.894-0.738h-2.419
			c-0.492,0-0.864,0.167-0.951,0.551c-0.141,0.62,0.12,0.64,2.462,0.63c3.395-0.01,4.1349,0.197,3.663,2.272
			c-0.436,1.918-1.157,2.233-4.058,2.233h-2.645c-1.986,0-2.698-0.374-2.347-1.918l0.112-0.492h2.183
			c-0.162,0.757,0.129,0.816,0.758,0.816h2.675c0.463,0,0.946-0.049,1.071-0.6c0.141-0.619-0.106-0.659-2.918-0.659
			c-3.285,0-3.569-0.393-3.17-2.144c0.292-1.288,0.636-2.282,3.389-2.282h3.049C136.1114,1.9414,136.1534,2.7974,135.8694,4.0464z"
			/>
	</g>
</g>
</svg>
