<?xml version="1.0" encoding="utf-8"?>
<!-- Generator: Adobe Illustrator 22.0.1, SVG Export Plug-In . SVG Version: 6.00 Build 0)  -->
<svg version="1.1" id="Layer_1" xmlns="http://www.w3.org/2000/svg" xmlns:xlink="http://www.w3.org/1999/xlink" x="0px" y="0px"
	 viewBox="0 0 130.4344 7.279" enable-background="new 0 0 130.4344 7.279" xml:space="preserve">
<path fill="#008BCB" d="M5.474,0.0785h2.842l2.295,7.1219h-2.43L7.789,5.9405H3.364L2.438,7.2004H0L5.474,0.0785z M4.529,4.4064
	h2.792l-0.807-2.675L4.529,4.4064z M15.9002,4.6627c-0.403,1.77,0.319,2.616,2.325,2.616h3.127c2.007,0,3.114-0.846,3.516-2.616
	l1.042-4.584h-2.182l-0.935,4.111c-0.206,0.905-0.611,1.259-1.506,1.259h-2.163c-0.895,0-1.139-0.354-0.934-1.259l0.935-4.111
	h-2.183L15.9002,4.6627z M30.3975,1.8487h3.069l-1.217,5.351h2.183l1.217-5.351h3.068l0.402-1.77h-8.319L30.3975,1.8487z
	 M43.2844,2.5771c0.474-2.085,1.756-2.577,3.722-2.577h3.501c1.967,0,3.026,0.492,2.552,2.577l-0.484,2.124
	c-0.474,2.086-1.756,2.577-3.723,2.577h-3.5c-1.967,0-3.026-0.491-2.551-2.577L43.2844,2.5771z M45.1974,4.0231
	c-0.235,1.032-0.108,1.426,0.925,1.426h2.792c1.033,0,1.339-0.394,1.574-1.426l0.174-0.767c0.202-0.885,0.108-1.427-1.043-1.427
	h-2.557c-1.15,0-1.49,0.542-1.691,1.427L45.1974,4.0231z M67.6732,0.0784h5.95c2.075,0,2.339,1.043,2.022,2.44l-0.139,0.61
	c-0.242,1.062-0.981,2.281-2.525,2.281h-4.337l-0.407,1.791h-2.183L67.6732,0.0784z M69.0472,3.6393h3.393
	c0.511,0,0.784-0.335,0.88-0.757l0.063-0.276c0.109-0.482-0.064-0.757-0.723-0.757h-3.206L69.0472,3.6393z M83.9319,0.0785h2.842
	l2.295,7.1219h-2.43l-0.392-1.2599h-4.425l-0.926,1.2599h-2.438L83.9319,0.0785z M82.9869,4.4064h2.792l-0.807-2.675L82.9869,4.4064
	z M95.3999,0.0792h6.589c1.681,0,1.943,0.835,1.653,2.114l-0.103,0.453c-0.217,0.954-0.561,1.515-1.618,1.75l-0.004,0.02
	c0.622,0.118,1.098,0.404,0.832,1.574l-0.275,1.21h-2.183l0.194-0.856c0.17-0.747,0.01-0.993-0.669-0.993h-3.432l-0.42,1.849h-2.183
	L95.3999,0.0792z M96.7869,3.5801h3.609c0.59,0,0.86-0.236,0.976-0.7469l0.053-0.237c0.144-0.629-0.144-0.747-0.832-0.747h-3.412
	L96.7869,3.5801z M108.6096,1.8487h3.069l-1.217,5.351h2.183l1.217-5.351h3.068l0.402-1.77h-8.319L108.6096,1.8487z M120.892,5.361
	c-0.351,1.544,0.361,1.918,2.347,1.918h2.645c2.901,0,3.622-0.315,4.058-2.233c0.472-2.075-0.268-2.282-3.663-2.272
	c-2.342,0.01-2.603-0.01-2.462-0.63c0.087-0.384,0.459-0.551,0.951-0.551h2.419c1.003,0,1.013,0.217,0.894,0.738h2.184l0.051-0.226
	C130.6,0.856,130.558,0,128.041,0h-3.049c-2.753,0-3.097,0.994-3.389,2.282c-0.399,1.751-0.115,2.144,3.17,2.144
	c2.812,0,3.059,0.04,2.918,0.659c-0.125,0.551-0.608,0.6-1.071,0.6h-2.675c-0.629,0-0.92-0.059-0.758-0.816h-2.183L120.892,5.361z"
	/>
</svg>
