<?xml version="1.0" encoding="utf-8"?>
<!-- Generator: Adobe Illustrator 22.0.1, SVG Export Plug-In . SVG Version: 6.00 Build 0)  -->
<svg version="1.1" id="Layer_1" xmlns="http://www.w3.org/2000/svg" xmlns:xlink="http://www.w3.org/1999/xlink" x="0px" y="0px"
	 viewBox="0 0 63.2607 48.2857" enable-background="new 0 0 63.2607 48.2857" xml:space="preserve">
<g>
	<path fill="#FFFFFF" d="M44.7084,11.6517c0,0,5.392-1.376,13.734-9.368c0,0-4.527,4.239-10.581,6.793c0,0-3.343,1.073-4.447,1.357
		L44.7084,11.6517z"/>
</g>
<g>
	<path fill="#FFFFFF" d="M47.0777,20.5569c0,0,5.392-1.375,13.735-9.369c0,0-4.528,4.24-10.583,6.795c0,0-3.342,1.072-4.446,1.356
		L47.0777,20.5569z"/>
</g>
<g>
	<path fill="#FFFFFF" d="M47.5667,29.8611c0,0,6.642-1.547,15.203-9.306c0,0-4.643,4.113-10.766,6.5c0,0-3.371,0.979-4.482,1.232
		L47.5667,29.8611z"/>
</g>
<g>
	<path fill="#008BCB" d="M37.1144,22.2582c5.681-0.6637,9.1352-1.4407,10.8462-2.0327c0.334,2.016,0.405,4.026,0.236,5.99
		c-2.02,0.185-5.095,0.269-9.398-0.11c-9.927-0.605-18.004,1.465-24.302,4.388C20.1186,26.6615,27.5426,23.3765,37.1144,22.2582z"/>
</g>
<path fill="#008BCB" d="M10.8246,44.2679c5.925-5.6689,15.163-11.581,28.697-13.16c3.504-0.314,6.151-0.788,8.07-1.243
	c-2.021,8.249-8.339,15.183-17.115,17.57c-6.974,1.896-14.062,0.529-19.6523-3.1675"/>
<g>
	<path fill="#008BCB" d="M42.5921,8.5805c-5.869-6.948-15.431-10.273-24.786-7.729c-8.702,2.367-14.985,9.206-17.061,17.364
		c6.736-5.174,17.8188-10.287,33.3238-9.341C37.8515,9.1053,40.5911,8.7165,42.5921,8.5805z"/>
</g>
<g>
	<path fill="#008BCB" d="M12.0913,21.6454c6.297-2.924,14.376-4.993,24.301-4.387c5.515,0.486,9.015,0.21,10.857-0.062
		c-0.598-1.997-1.434-3.859-2.469-5.567c-1.891,0.58-5.1464,1.2074-10.0718,1.782C25.1355,14.5283,17.7133,17.8134,12.0913,21.6454z
		"/>
</g>
<g>
	<path fill="#FFFFFF" d="M34.8941,11.2832c4.101-0.2412,7.0614-0.5458,9.0474-0.9508c0.293,0.421,0.571,0.855,0.839,1.297
		c-1.891,0.58-5.133,1.3391-10.072,1.782c-9.573,1.117-16.995,4.402-22.617,8.234c-4.934,2.291-8.773,5.106-11.547,7.574
		c-0.092-0.429-0.173-0.859-0.24-1.287C5.7685,21.5734,16.7281,12.3514,34.8941,11.2832z"/>
</g>
<g>
	<path fill="#005FAA" d="M46.4431,8.0241c0,0,5.315-0.934,11.999-5.741c-0.928,0.853-1.836,1.613-2.707,2.287
		c-4.815,3.724-8.517,4.845-8.517,4.845s-1.003,0.452-3.277,0.917c-1.986,0.405-4.94,0.82-9.047,0.951
		c-18.166,1.069-29.125,10.29-34.59,16.65c-0.256-1.597-0.348-3.188-0.285-4.756c0.067-1.691,0.316-3.351,0.726-4.962
		c6.736-5.174,17.736-10.751,33.241-9.805c3.775,0.333,6.605,0.306,8.606,0.17C45.2461,8.4012,46.4431,8.0241,46.4431,8.0241z"/>
</g>
<g>
	<path fill="#FFFFFF" d="M37.3008,20.1338c5.1597-0.3027,8.5096-0.7805,10.3926-1.2605c0.102,0.451,0.193,0.902,0.267,1.352
		c-1.711,0.592-5.148,1.525-10.846,2.033c-9.572,1.118-16.995,4.403-22.618,8.236c-4.405,2.047-7.937,4.509-10.619,6.77
		c-0.227-0.351-0.445-0.707-0.654-1.07C8.8474,29.8703,19.6864,21.1673,37.3008,20.1338z"/>
</g>
<g>
	<path fill="#005FAA" d="M48.8498,16.8757c0,0,5.322-0.938,12.011-5.753c-0.927,0.853-1.836,1.613-2.707,2.287
		c-4.82,3.731-8.529,4.853-8.529,4.853s-0.603,0.272-1.931,0.611c-1.883,0.48-5.226,1.094-10.393,1.26
		c-17.614,1.034-28.453,9.736-34.078,16.061c-0.619-1.078-1.163-2.213-1.617-3.403c-0.12-0.312-0.231-0.631-0.338-0.95
		c-0.15-0.448-0.293-0.902-0.417-1.363c-0.115-0.419-0.216-0.839-0.306-1.26c2.774-2.467,6.613-5.282,11.546-7.574
		c6.298-2.924,14.376-4.992,24.302-4.386c5.514,0.485,9.015,0.21,10.857-0.062C48.3388,17.0348,48.8498,16.8757,48.8498,16.8757z"/>
</g>
<g>
	<path fill="#FFFFFF" d="M39.7077,28.9809c3.5727-0.2098,6.2806-0.4444,8.2296-0.7954c-0.097,0.565-0.209,1.125-0.345,1.679
		c-1.92,0.456-4.567,0.929-8.071,1.243c-13.534,1.58-22.772,7.492-28.697,13.16c-0.896-0.592-1.755-1.242-2.567-1.95
		C14.3723,36.4644,24.5213,29.8725,39.7077,28.9809z"/>
</g>
<g>
	<path fill="#005FAA" d="M51.2567,25.7228c0,0,5.318-0.936,12.004-5.746c-0.928,0.852-1.835,1.611-2.705,2.285
		c-4.817,3.729-8.524,4.849-8.524,4.849s-1.24,0.5601-4.094,1.074c-1.95,0.352-4.654,0.681-8.23,0.796
		c-15.186,0.891-25.336,7.483-31.45,13.337c-0.842-0.735-1.637-1.527-2.374-2.376c-0.276-0.321-0.544-0.65-0.804-0.984
		c-0.424-0.544-0.824-1.11-1.202-1.693c2.682-2.261,6.213-4.724,10.618-6.771c6.299-2.923,14.377-4.993,24.303-4.388
		c4.303,0.379,7.377,0.295,9.398,0.11C50.2967,26.0238,51.2567,25.7228,51.2567,25.7228z"/>
</g>
</svg>
