<?xml version="1.0" encoding="utf-8"?>
<!-- Generator: Adobe Illustrator 22.0.1, SVG Export Plug-In . SVG Version: 6.00 Build 0)  -->
<svg version="1.1" id="Layer_1" xmlns="http://www.w3.org/2000/svg" xmlns:xlink="http://www.w3.org/1999/xlink" x="0px" y="0px"
	 viewBox="0 0 183.7755 32.3989" enable-background="new 0 0 183.7755 32.3989" xml:space="preserve">
<path fill="#008BCB" d="M23.633,8.9842c-1.353-1.212-2.705-2.108-4.057-2.689c-1.351-0.579-2.756-0.871-4.214-0.871
	c-1.588,0-3.078,0.289-4.469,0.86c-1.391,0.574-2.607,1.41-3.643,2.504c-1.195,1.255-2.103,2.68-2.727,4.286
	c-0.623,1.605-0.935,3.301-0.935,5.085c0,3.429,0.952,6.143,2.855,8.138c1.904,1.994,4.497,2.993,7.778,2.993
	c1.272,0,2.543-0.215,3.809-0.646c1.267-0.43,2.608-1.11,4.028-2.035l-0.769,4.002c-1.155,0.594-2.364,1.041-3.63,1.341
	c-1.266,0.297-2.594,0.446-3.985,0.446c-4.052,0-7.346-1.3-9.876-3.899C1.267,25.8972,0,22.5232,0,18.3772
	c0-2.2939,0.41-4.455,1.23-6.482c0.82-2.028,1.997-3.804,3.531-5.33c1.379-1.367,2.966-2.411,4.763-3.1281
	c1.796-0.718,3.731-1.076,5.804-1.076c1.784,0,3.435,0.26,4.948,0.776c1.515,0.519,2.944,1.318,4.282,2.405L23.633,8.9842z
	 M38.4188,17.3519c-1.1346-1.2495-2.592-1.876-4.375-1.876c-1.981,0-3.617,0.7339-4.907,2.2029c-1.293,1.468-1.938,3.335-1.938,5.6
	c0,1.989,0.561,3.592,1.681,4.809c1.122,1.218,2.6,1.8279,4.437,1.8279c1.965,0,3.591-0.732,4.876-2.194
	c1.285-1.46,1.928-3.317,1.928-5.569C40.1208,20.2029,39.5548,18.6028,38.4188,17.3519z M26.5498,29.9158
	c-1.6534-1.6555-2.478-3.844-2.478-6.564c0-2.956,0.97-5.43,2.911-7.42c1.941-1.989,4.352-2.985,7.238-2.985
	c2.61,0,4.765,0.825,6.469,2.474c1.706,1.649,2.559,3.702,2.559,6.157c0,3.207-0.942,5.81-2.822,7.814
	c-1.883,2.005-4.312,3.007-7.288,3.007C30.3988,32.3989,28.2018,31.5699,26.5498,29.9158z M59.5524,17.3519
	c-1.1335-1.2504-2.594-1.876-4.375-1.876c-1.982,0-3.618,0.7339-4.909,2.2029c-1.291,1.468-1.937,3.335-1.937,5.6
	c0,1.989,0.561,3.592,1.68,4.809c1.122,1.218,2.601,1.8279,4.437,1.8279c1.967,0,3.592-0.732,4.877-2.194
	c1.286-1.46,1.929-3.317,1.929-5.569C61.2544,20.2029,60.6864,18.6028,59.5524,17.3519z M47.6814,29.9158
	c-1.6534-1.6545-2.476-3.844-2.476-6.564c0-2.956,0.969-5.43,2.909-7.42c1.942-1.989,4.352-2.985,7.237-2.985
	c2.611,0,4.768,0.825,6.472,2.474c1.704,1.649,2.558,3.702,2.558,6.157c0,3.207-0.942,5.81-2.823,7.814
	c-1.882,2.005-4.31,3.007-7.287,3.007C51.5314,32.3989,49.3344,31.5699,47.6814,29.9158z M73.7115,2.4142l-3.167-0.005l-5.42,29.927
	l3.185,0.004L73.7115,2.4142z M84.9644,23.382h0.119c2.354,0,4.196-0.615,5.525-1.848c1.326-1.23,1.992-2.913,1.992-5.047
	c0-1.573-0.474-2.817-1.425-3.728c-0.95-0.908-2.242-1.364-3.878-1.364h-0.2L84.9644,23.382z M72.7594,32.396l5.388-30.014h7.894
	c2.451,0,4.496,0.122,6.143,0.367c1.643,0.247,2.99,0.624,4.043,1.129c2.305,1.175,4.064,2.7859,5.282,4.829
	c1.22,2.044,1.829,4.413,1.829,7.103c0,2.528-0.531,4.897-1.596,7.104c-1.065,2.209-2.565,4.049-4.494,5.526
	c-1.811,1.396-3.907,2.401-6.289,3.024c-2.385,0.62-5.384,0.9319-9.005,0.9319H72.7594z M113.6523,32.396l1.677-9.435
	c0.281-1.5829,0.698-2.671,1.259-3.264c0.556-0.595,1.404-0.89,2.533-0.89c0.44,0,0.933,0.062,1.479,0.185
	c0.544,0.122,1.156,0.299,1.833,0.529l1.557-8.62c-0.532-0.108-0.985-0.191-1.365-0.245c-0.379-0.053-0.717-0.081-1.009-0.081
	c-1.197,0-2.262,0.293-3.195,0.878c-0.932,0.585-1.749,1.476-2.454,2.673l0.698-2.881h-8.9l-3.85,21.1509H113.6523z
	 M131.8808,10.145c1.613,0,2.998-0.533,4.161-1.594c1.158-1.065,1.739-2.326,1.739-3.784c0-1.365-0.489-2.5-1.459-3.407
	c-0.976-0.906-2.196-1.36-3.66-1.36c-1.614,0-2.998,0.532-4.158,1.595c-1.159,1.063-1.741,2.32-1.741,3.764
	c0,1.348,0.491,2.486,1.469,3.406C129.2098,9.685,130.4268,10.145,131.8808,10.145z M132.3758,32.396l3.816-21.1509h-9.747
	l-3.791,21.1509H132.3758z M142.6491,32.3962h7.288l12.379-21.151h-9.885l-1.895,3.845c-0.572,1.174-1.042,2.211-1.408,3.11
	c-0.366,0.902-0.671,1.745-0.909,2.537c-0.039-0.901-0.094-1.732-0.159-2.495c-0.068-0.764-0.14-1.439-0.22-2.025l-0.619-4.972
	h-9.416L142.6491,32.3962z M171.5875,17.4794c-0.4782,0.373-0.865,0.96-1.156,1.77h4.942v-0.29c0-0.628-0.176-1.124-0.529-1.49
	c-0.349-0.364-0.825-0.547-1.421-0.547C172.6775,16.9224,172.0645,17.1074,171.5875,17.4794z M183.7395,21.5174
	c-0.0252,0.4621-0.067,0.925-0.121,1.399h-13.707c0,0.992,0.219,1.762,0.659,2.309c0.437,0.548,1.05,0.821,1.833,0.821
	c0.559,0,1.054-0.129,1.486-0.39c0.43-0.257,0.9-0.708,1.405-1.355l7.361,1.4789c-1.211,2.1931-2.769,3.846-4.675,4.954
	c-1.906,1.108-4.143,1.664-6.712,1.664c-3.013,0-5.477-0.864-7.394-2.592c-1.92-1.727-2.878-3.944-2.878-6.6479
	c0-1.593,0.285-3.097,0.858-4.514c0.572-1.416,1.389-2.654,2.457-3.71c1.199-1.187,2.584-2.1,4.159-2.737
	c1.579-0.638,3.246-0.956,5.004-0.956c3.008,0,5.478,0.835,7.409,2.506c1.928,1.673,2.892,3.791,2.892,6.355
	C183.7755,20.5874,183.7645,21.0584,183.7395,21.5174z"/>
</svg>
