<?xml version="1.0" encoding="utf-8"?>
<!-- Generator: Adobe Illustrator 22.0.1, SVG Export Plug-In . SVG Version: 6.00 Build 0)  -->
<svg version="1.1" id="Layer_1" xmlns="http://www.w3.org/2000/svg" xmlns:xlink="http://www.w3.org/1999/xlink" x="0px" y="0px"
	 viewBox="0 0 188.2082 11.6168" enable-background="new 0 0 188.2082 11.6168" xml:space="preserve">
<g>
	<polygon fill="#008BCB" points="9.1266,0.009 2.4137,0.009 1.6087,3.8969 8.3217,3.8969 	"/>
	<polygon fill="#008BCB" points="7.518,7.7289 0.805,7.7289 0,11.6168 6.713,11.6168 	"/>
	<polygon fill="#008BCB" points="15.0488,3.8691 8.3368,3.8691 7.5308,7.757 14.2438,7.757 	"/>
	<polygon fill="#008BCB" points="22.5799,0.009 15.8669,0.009 15.0619,3.8969 21.7749,3.8969 	"/>
	<polygon fill="#008BCB" points="20.9708,7.7289 14.2588,7.7289 13.4538,11.6168 20.1658,11.6168 	"/>
	<polygon fill="#008BCB" points="28.5019,3.8691 21.7889,3.8691 20.9839,7.757 27.6969,7.757 	"/>
	<polygon fill="#008BCB" points="36.033,0.009 29.32,0.009 28.515,3.8969 35.228,3.8969 	"/>
	<polygon fill="#008BCB" points="34.4239,7.7289 27.7119,7.7289 26.9069,11.6168 33.6189,11.6168 	"/>
	<polygon fill="#008BCB" points="41.955,3.8691 35.242,3.8691 34.437,7.757 41.15,7.757 	"/>
	<polygon fill="#008BCB" points="49.4861,0.009 42.7731,0.009 41.9681,3.8969 48.6801,3.8969 	"/>
	<g>
		<path fill="#008BCB" d="M152.8132,4.2456h-3.412l-0.394,1.731h3.6089c0.59,0,0.86-0.236,0.976-0.7469l0.053-0.237
			C153.7892,4.3636,153.5012,4.2456,152.8132,4.2456z"/>
		<path fill="#008BCB" d="M101.8397,4.2256h-2.557c-1.15,0-1.49,0.542-1.691,1.427l-0.174,0.767
			c-0.235,1.032-0.108,1.426,0.925,1.426h2.792c1.033,0,1.3391-0.394,1.574-1.426l0.174-0.767
			C103.0847,4.7676,102.9907,4.2256,101.8397,4.2256z"/>
		<path fill="#008BCB" d="M124.8805,4.2458h-3.206l-0.407,1.79h3.393c0.511,0,0.784-0.335,0.88-0.757l0.063-0.276
			C125.7125,4.5208,125.5395,4.2458,124.8805,4.2458z"/>
		<polygon fill="#008BCB" points="135.2073,6.8029 137.9993,6.8029 137.1922,4.1279 		"/>
		<polygon fill="#008BCB" points="56.7493,6.8029 59.5413,6.8029 58.7343,4.1279 		"/>
		<path fill="#008BCB" d="M48.9202,0l0.276,1.213c0,0-0.886,4.195-1.38,6.485h-6.709l-0.806,3.888h0.046h6.667h138.274L188.2082,0
			H48.9202z M60.4014,9.5969l-0.392-1.2599h-4.425l-0.926,1.2599h-2.438l5.474-7.1219h2.842l2.295,7.1219H60.4014z M77.0885,7.0591
			c-0.402,1.77-1.509,2.616-3.5161,2.616h-3.127c-2.006,0-2.728-0.846-2.325-2.616l1.042-4.584h2.183l-0.935,4.111
			c-0.205,0.905,0.039,1.259,0.934,1.259h2.163c0.895,0,1.3-0.354,1.506-1.259l0.935-4.111h2.182L77.0885,7.0591z M90.9379,4.2451
			h-3.068l-1.217,5.351h-2.183l1.217-5.351h-3.069l0.403-1.77h8.319L90.9379,4.2451z M105.2797,4.9736l-0.484,2.124
			c-0.474,2.086-1.756,2.577-3.723,2.577h-3.5c-1.967,0-3.026-0.491-2.551-2.577l0.483-2.124c0.474-2.085,1.756-2.577,3.722-2.577
			h3.501C104.6947,2.3966,105.7537,2.8886,105.2797,4.9736z M127.8655,4.9148l-0.139,0.61c-0.242,1.062-0.981,2.281-2.525,2.281
			h-4.337l-0.407,1.791h-2.183l1.619-7.122h5.95C127.9185,2.4748,128.1825,3.5178,127.8655,4.9148z M138.8592,9.5969l-0.392-1.2599
			h-4.425l-0.926,1.2599h-2.438l5.474-7.1219h2.842l2.295,7.1219H138.8592z M155.8622,4.5896l-0.103,0.453
			c-0.217,0.954-0.561,1.515-1.618,1.75l-0.004,0.02c0.622,0.118,1.098,0.404,0.832,1.574l-0.275,1.21h-2.183l0.194-0.856
			c0.17-0.747,0.0099-0.993-0.669-0.993h-3.432l-0.42,1.849h-2.183l1.619-7.121h6.589
			C155.8902,2.4756,156.1522,3.3106,155.8622,4.5896z M169.1499,4.2451h-3.068l-1.217,5.351h-2.183l1.217-5.351h-3.069l0.403-1.77
			h8.319L169.1499,4.2451z M182.5363,4.5014l-0.051,0.226h-2.184c0.119-0.521,0.109-0.738-0.894-0.738h-2.419
			c-0.492,0-0.864,0.167-0.951,0.551c-0.141,0.62,0.12,0.64,2.462,0.63c3.395-0.01,4.135,0.197,3.663,2.272
			c-0.436,1.918-1.157,2.233-4.058,2.233h-2.645c-1.986,0-2.698-0.374-2.347-1.918l0.1121-0.492h2.183
			c-0.162,0.757,0.129,0.816,0.758,0.816h2.675c0.463,0,0.946-0.049,1.071-0.6c0.141-0.619-0.106-0.659-2.918-0.659
			c-3.285,0-3.569-0.393-3.17-2.144c0.292-1.288,0.636-2.282,3.389-2.282h3.049C182.7783,2.3964,182.8203,3.2524,182.5363,4.5014z"
			/>
	</g>
</g>
</svg>
