<?xml version="1.0" encoding="utf-8"?>
<!-- Generator: Adobe Illustrator 22.0.1, SVG Export Plug-In . SVG Version: 6.00 Build 0)  -->
<svg version="1.1" id="Layer_1" xmlns="http://www.w3.org/2000/svg" xmlns:xlink="http://www.w3.org/1999/xlink" x="0px" y="0px"
	 viewBox="0 0 101.8571 12.8644" enable-background="new 0 0 101.8571 12.8644" xml:space="preserve">
<path fill-rule="evenodd" clip-rule="evenodd" fill="#006FBA" d="M55.4975,5.2579c0.034-1.088-0.017-2.771-0.544-3.587
	c-1.156-1.836-3.995-1.666-4.539-1.666h-2.092c-1.394,0-3.434-0.085-4.488,1.734c-0.697,1.224-0.646,4.743,0.051,5.985
	c1.071,1.921,3.417,1.751,4.863,1.751h2.618c2.482,0,4.012-0.306,4.165-2.993h-1.547c-0.374,1.82-1.428,1.65-3.094,1.65h-2.993
	c-0.476,0-1.547,0.068-2.295-0.681c-0.646-0.646-0.646-1.513-0.646-2.193H55.4975z M53.8485,3.932h-8.892
	c0.017-0.714,0.051-1.666,1.003-2.21c0.969-0.527,6.0619-0.5081,7.022,0.068C54.0015,2.402,53.8315,3.0989,53.8485,3.932z
	 M6.4613,1.354h-0.851c-2.176,0-3.06-0.153-3.757,1.054c-0.408,0.663-0.408,3.757-0.085,4.437c0.408,0.867,1.428,1.293,2.244,1.293
	h2.516c1.769,0.017,4.424-0.002,4.424-0.002c-0.282,1.438-2.332,1.345-3.301,1.345h-2.636c-1.377,0-3.468,0.153-4.539-1.718
	c-0.646-1.156-0.646-4.964,0.068-6.154c1.054-1.768,2.839-1.599,3.927-1.599h2.891c1.122,0,3.42-0.214,3.76,1.336
	C11.1223,1.346,8.5013,1.354,6.4613,1.354z M26.9149,4.176c0-0.833-0.068-1.53-0.221-1.921c-0.408-1.173-1.479-2.245-3.349-2.245
	h-5.424c-1.87,0-2.941,1.072-3.35,2.245c-0.152,0.391-0.203,1.088-0.22,1.921v1.139c0.017,0.833,0.068,1.53,0.22,1.921
	c0.409,1.174,1.48,2.245,3.35,2.245h5.424c1.87,0,2.941-1.071,3.349-2.245c0.153-0.391,0.204-1.088,0.221-1.921V4.176z
	 M25.3169,5.315c0,0.68-0.068,1.275-0.17,1.547c-0.357,1.021-1.156,1.276-2.227,1.276h-4.574c-1.071,0-1.87-0.255-2.227-1.276
	c-0.102-0.272-0.17-0.867-0.17-1.547V4.176c0-0.68,0.068-1.275,0.17-1.547c0.357-1.02,1.156-1.275,2.227-1.275h4.574
	c1.071,0,1.87,0.255,2.227,1.275c0.102,0.272,0.17,0.867,0.17,1.547V5.315z M38.735,4.4651c-0.017-0.493,0.17-2.21-0.918-2.788
	c-0.85-0.442-4.149-0.442-5.033,0.102c-1.122,0.68-1.003,2.261-1.003,3.315v4.387h-1.547v-7.958l1.496-0.016
	c1.275-1.769,4.063-1.479,4.965-1.445c0.816,0.017,2.363,0.169,3.06,1.36c0.425,0.731,0.374,2.448,0.374,3.043H38.735z
	 M69.6522,1.524c-0.867-1.462-2.057-1.462-3.383-1.514h-1.888c-1.309,0-3.927-0.135-4.964,1.701c-0.596,1.037-0.51,4.71,0.119,5.695
	c1.003,1.599,2.363,1.581,3.094,1.581h4.284c1.004,0,2.296-0.425,2.738-1.359v0.425c0,0.832,0.102,2.397-0.867,3.026
	c-0.952,0.612-5.909,0.494-7.025,0.494h-2.071c0.918,1.309,2.618,1.291,3.791,1.291h2.024c1.462,0,3.502,0.051,4.726-1.173
	c0.969-0.969,0.969-2.704,0.969-3.485v-6.7L69.6522,1.524z M62.6812,1.354h3.264c0.477,0,2.619-0.153,3.367,1.224
	c0.391,0.748,0.493,3.094,0.017,3.893c-0.765,1.309-2.363,1.191-3.043,1.191h-2.211c-0.799,0-2.363,0.118-3.094-0.902
	c-0.476-0.663-0.4224-3.5691-0.272-4.012C61.0153,1.8471,61.5592,1.354,62.6812,1.354z M94.1124,5.417
	c-0.9351,0-2.856,0.068-3.673-1.275c-0.492-0.799-0.424-2.057-0.016-2.805c0.748-1.361,2.516-1.327,3.808-1.327h3.655
	c0.987,0,2.758,0.425,3.153,1.336c0,0-2.115,0.008-3.493,0.008h-2.89c-1.496,0-2.448-0.068-2.839,0.544
	c-0.205,0.323-0.205,1.173,0.017,1.53c0.493,0.748,1.7,0.646,3.298,0.646h2.585c1.292,0,3.077-0.034,3.825,1.326
	c0.391,0.748,0.459,2.006-0.034,2.806c-0.816,1.343-2.737,1.275-3.655,1.275h-4.149c-1.275,0-2.534-0.189-3.316-1.345
	c0,0,2.143,0.002,3.418,0.002h3.009c1.599,0,2.806,0.102,3.299-0.647c0.221-0.357,0.221-1.207,0.017-1.53
	c-0.391-0.612-1.343-0.544-2.84-0.544H94.1124z M86.5883,8.5072v-3.634c0-1.7,0.085-2.924-0.8-3.825
	c-1.037-1.089-2.618-1.038-4.403-1.038h-2.397c-1.548,0-2.4481,0.051-3.2141,0.799c-0.629,0.613-0.629,1.412-0.629,2.109h1.581
	c0,0,0-0.646,0.136-0.885c0.51-0.781,1.327-0.679,2.67-0.679h1.853c1.462,0,2.534-0.052,3.128,0.578
	c0.579,0.595,0.527,1.598,0.527,2.958c-0.748-0.867-1.819-0.986-2.754-0.986h-3.315c-1.649,0-3.197-0.153-3.945,1.088
	c-0.425,0.68-0.323,2.822,0,3.383c0.714,1.259,2.414,1.105,3.86,1.105h3.485c1.003,0,1.819,0.052,2.6689-0.969L86.5883,8.5072z
	 M77.3903,5.1962c0.204-0.051,0.476-0.102,2.023-0.102h2.091c1.972,0,2.822-0.102,3.366,0.901c0.154,0.289,0.204,1.173,0,1.496
	c-0.526,0.868-2.72,0.816-3.315,0.85h-1.887c-1.446,0-2.704,0.086-3.197-0.748c-0.204-0.357-0.2471-1.372,0.017-1.802
	C76.6764,5.4852,76.9643,5.2982,77.3903,5.1962z"/>
</svg>
