<?xml version="1.0" encoding="utf-8"?>
<!-- Generator: Adobe Illustrator 22.0.1, SVG Export Plug-In . SVG Version: 6.00 Build 0)  -->
<svg version="1.1" id="Layer_1" xmlns="http://www.w3.org/2000/svg" xmlns:xlink="http://www.w3.org/1999/xlink" x="0px" y="0px"
	 viewBox="0 0 135.948 12.989" enable-background="new 0 0 135.948 12.989" xml:space="preserve">
<path fill="#00274D" d="M51.593,11.251l-0.004,1.495l2.232,0.004l0.968-1.499h-1.477V8.783c0-1.974,0.603-3.089,2.595-3.089h0.914
	V3.977h-1.115c-1.079,0-2.176,0.639-2.723,2.083h-0.037V4.123h-1.734l-0.968,1.498h1.349V11.251z"/>
<path fill="#00274D" d="M30.302,5.618h1.287v7.129h2.037l0.968-1.5h-1.288V6.569c0.768-0.676,1.755-1.097,2.468-1.097
	c0.658,0,1.024,0.383,1.024,1.26v6.015h1.975l0.968-1.5h-1.225V6.642c0-1.809-0.822-2.669-2.395-2.669
	c-0.895,0-1.845,0.384-2.815,1.133V4.119h-2.037L30.302,5.618z"/>
<path fill="#FFC425" d="M101.283,12.75h1.535v-1.024c0.896,0.822,1.92,1.225,3.053,1.225c2.248,0,3.93-1.555,3.93-3.656
	c0-1.005-0.403-2.01-1.061-2.668c-1.443-1.444-4.423-1.28-5.391-2.249c-0.256-0.255-0.421-0.639-0.421-1.06
	c0-0.95,0.823-1.59,2.083-1.59c1.134,0,1.957,0.457,2.633,1.444v0.859h1.535V0.284h-1.535v0.823c-0.84-0.64-1.791-0.969-2.779-0.969
	c-1.863,0-3.619,1.097-3.619,3.4c0,1.041,0.348,1.772,0.823,2.248c1.938,1.937,5.83,1.096,5.83,3.528
	c0,1.188-0.931,2.082-2.192,2.082c-1.189,0-2.103-0.711-2.889-2.047V8.253h-1.535V12.75z"/>
<path fill="#FFC425" d="M110.055,5.621h1.502v5.227c0,1.499,0.841,2.048,2.048,2.048c0.402,0,0.858-0.11,1.261-0.238v-1.535
	c-0.842,0.292-1.59,0.329-1.59-0.512v-4.99h0.815l0.968-1.499h-1.783v-2.5l-1.719,0.972v1.528h-0.534L110.055,5.621z"/>
<path fill="#00274D" d="M65.669,5.621h1.502v5.227c0,1.499,0.841,2.048,2.048,2.048c0.401,0,0.858-0.11,1.261-0.238v-1.535
	c-0.842,0.292-1.591,0.329-1.591-0.512v-4.99h0.816l0.968-1.499h-1.784v-2.5l-1.718,0.972v1.528h-0.534L65.669,5.621z"/>
<path fill="#FFC425" d="M125.112,11.251h-1.286V4.123h-2.038l-0.968,1.498h1.287V10.3c-0.767,0.676-1.754,1.096-2.467,1.096
	c-0.658,0-1.024-0.382-1.024-1.26V4.123h-1.975l-0.967,1.498h1.225v4.606c0,1.809,0.823,2.669,2.393,2.669
	c0.897,0,1.846-0.384,2.815-1.133v0.987h2.038L125.112,11.251z"/>
<path fill-rule="evenodd" clip-rule="evenodd" fill="#FFC425" d="M135.948,11.251h-1.378V0.34h-2.203l-0.968,1.498h1.453v3.417
	c-0.859-0.913-1.865-1.388-3.035-1.388c-2.431,0-4.277,1.993-4.277,4.606c0,3.089,2.284,4.423,4.24,4.423
	c1.207,0,2.176-0.457,3.072-1.426v1.28h2.128L135.948,11.251z M127.368,8.418c0-1.718,1.17-2.997,2.705-2.997
	c1.646,0,2.779,1.187,2.779,2.924c0,1.754-1.152,3.052-2.761,3.052C128.483,11.397,127.368,10.191,127.368,8.418"/>
<path fill="#00274D" d="M17.823,3.763c2.62,0,4.576,1.975,4.576,4.613s-1.974,4.613-4.594,4.613c-2.62,0-4.576-1.975-4.576-4.613
	S15.185,3.763,17.823,3.763 M17.805,11.328c1.568,0,2.749-1.255,2.749-2.952c0-1.679-1.181-2.952-2.749-2.952
	c-1.55,0-2.731,1.273-2.731,2.952C15.074,10.073,16.255,11.328,17.805,11.328"/>
<path fill="#00274D" d="M42.23,8.801c0.258,1.697,1.365,2.675,2.989,2.675c1.125,0,2.177-0.498,2.823-1.421l1.513,0.664
	c-0.942,1.458-2.509,2.27-4.373,2.27c-2.823,0-4.853-1.919-4.853-4.613c0-2.822,2.307-4.612,4.576-4.612
	c2.417,0,4.65,1.845,4.65,5.037H42.23z M47.802,7.546c-0.277-1.384-1.495-2.399-2.86-2.399s-2.398,0.941-2.657,2.399H47.802z"/>
<path fill="#00274D" d="M57.859,9.741h1.531v0.295c0.148,0.867,0.941,1.403,2.085,1.403c1.089,0,1.79-0.425,1.79-1.089
	c0-1.624-3.063-0.591-4.723-2.251c-0.406-0.406-0.683-1.014-0.683-1.66c0-1.495,1.292-2.565,3.063-2.565
	c0.794,0,1.549,0.184,2.122,0.498v-0.35h1.513v2.878h-1.513V6.366c-0.499-0.738-1.144-1.07-2.03-1.07
	c-0.923,0-1.531,0.424-1.531,1.07c0,1.457,3.358,0.609,4.797,2.048c0.516,0.516,0.738,1.199,0.738,1.808
	c0,1.587-1.347,2.657-3.34,2.657c-0.94,0-1.66-0.203-2.288-0.628v0.48h-1.531V9.741z"/>
<path fill="#00274D" d="M75.681,3.763c2.62,0,4.576,1.975,4.576,4.613s-1.975,4.613-4.594,4.613c-2.62,0-4.576-1.975-4.576-4.613
	S73.043,3.763,75.681,3.763 M75.663,11.328c1.568,0,2.749-1.255,2.749-2.952c0-1.679-1.181-2.952-2.749-2.952
	c-1.55,0-2.731,1.273-2.731,2.952C72.932,10.073,74.113,11.328,75.663,11.328"/>
<path fill="#00274D" d="M92.344,8.801c0.258,1.697,1.365,2.675,2.989,2.675c1.125,0,2.177-0.498,2.823-1.421l1.513,0.664
	c-0.942,1.458-2.509,2.27-4.373,2.27c-2.823,0-4.853-1.919-4.853-4.613c0-2.822,2.307-4.612,4.576-4.612
	c2.417,0,4.65,1.845,4.65,5.037H92.344z M97.916,7.546c-0.277-1.384-1.495-2.399-2.86-2.399s-2.398,0.941-2.657,2.399H97.916z"/>
<path fill="#00274D" d="M80.76,5.618h1.287v7.129h2.037l0.968-1.5h-1.288V6.569c0.768-0.676,1.755-1.097,2.468-1.097
	c0.658,0,1.024,0.383,1.024,1.26v6.015h1.975l0.967-1.5h-1.224V6.642c0-1.809-0.822-2.669-2.395-2.669
	c-0.895,0-1.845,0.384-2.815,1.133V4.119h-2.037L80.76,5.618z"/>
<path fill="#00274D" d="M24.232,11.251l-0.004,1.495l2.232,0.004l0.968-1.499H25.95V8.783c0-1.974,0.603-3.089,2.596-3.089h0.914
	V3.977h-1.116c-1.078,0-2.175,0.639-2.722,2.083h-0.037V4.123h-1.734l-0.968,1.498h1.349V11.251z"/>
<path fill="#00274D" d="M12.462,8.218c-0.248,1.077-0.733,2.067-1.297,2.72c-1.131,1.308-2.837,2.051-4.865,2.051
	c-3.724,0-6.3-2.668-6.3-6.485C0,2.594,2.483,0,6.263,0c1.594,0,3.057,0.482,4.152,1.352V0.204h1.63v4.039h-1.63
	C9.691,2.65,8.135,1.667,6.356,1.667c-2.502,0-4.28,2.002-4.28,4.781c0,2.742,1.871,4.836,4.355,4.836
	c1.704,0,3.482-1.092,4.149-3.066H12.462z"/>
</svg>
