<svg xmlns="http://www.w3.org/2000/svg" viewBox="0 0 336.8 93.24"><path fill="#DB2728" d="M0 25.41v42.42a25.41 25.41 0 0 0 25.41 25.4h285.98a25.41 25.41 0 0 0 25.41-25.4V25.4A25.41 25.41 0 0 0 311.4 0H25.4A25.41 25.41 0 0 0 0 25.41z"/><path fill="#FFF" d="M53.42 46.19a152.47 152.47 0 0 0-1.51 10.33 71.9 71.9 0 0 1-11.1.98c-3.15 0-6.07-.43-8.78-1.28a21.17 21.17 0 0 1-7.44-4.18 16.48 16.48 0 0 1-4.84-6.85 25.28 25.28 0 0 1-1.46-8.83c0-3.8.66-7.22 1.97-10.25a19.91 19.91 0 0 1 5.64-7.59 22.67 22.67 0 0 1 8.06-4.34 31.6 31.6 0 0 1 9.08-1.32c2.87 0 6.4.4 10.64 1.2l.06 2.64c.04 1.16.1 2.43.17 3.82l.2 3.6c-2.26-.6-4.1-1-5.5-1.21-1.41-.2-2.71-.32-3.92-.32-2.6 0-4.97.57-7.06 1.7a12.33 12.33 0 0 0-4.94 4.95 14.55 14.55 0 0 0-1.8 7.18 12 12 0 0 0 1.5 6.17 10.55 10.55 0 0 0 4.1 3.96c1.71.94 3.83 1.4 6.35 1.4 1.37 0 2.87-.12 4.48-.36 1.62-.24 3.66-.71 6.1-1.4m26-32.26c-4.72 0-8.97.95-12.75 2.85a19.75 19.75 0 0 0-8.55 7.96c-1.92 3.39-2.88 7.33-2.88 11.82 0 3.05.46 5.83 1.37 8.33.9 2.5 2.44 4.77 4.61 6.82a19.4 19.4 0 0 0 7.65 4.43c2.93.9 6 1.36 9.2 1.36 3.23 0 6.34-.46 9.33-1.4 2.99-.93 5.56-2.4 7.72-4.41 2.16-2.01 3.81-4.46 4.96-7.33a25.54 25.54 0 0 0 1.71-9.5c0-3.28-.52-6.17-1.56-8.7a19.18 19.18 0 0 0-12.06-10.92 28.94 28.94 0 0 0-8.74-1.31m-.52 9.25c2.07 0 3.92.52 5.57 1.54a9.75 9.75 0 0 1 3.74 4.32 15.63 15.63 0 0 1-.1 12.54 10.72 10.72 0 0 1-4 4.8 10.31 10.31 0 0 1-5.78 1.71c-1.96 0-3.82-.5-5.58-1.52a9.52 9.52 0 0 1-3.93-4.23 13.63 13.63 0 0 1-1.3-5.96c0-2.36.48-4.57 1.42-6.63.95-2.06 2.31-3.67 4.06-4.82a10.46 10.46 0 0 1 5.9-1.75m25.03 33.52c2.86-.04 4.83-.06 5.94-.06l6.15.06a805.04 805.04 0 0 1 1.03-33.18c.95-.02 1.77-.05 2.48-.08.72-.04 1.4-.05 2.06-.05 1.95 0 3.4.17 4.32.5.94.32 1.63.82 2.07 1.49.43.66.65 1.44.65 2.32 0 1.05-.3 2.03-.86 2.98a5.17 5.17 0 0 1-2.56 2.1c-1.13.45-2.39.67-3.76.67-.99 0-1.99-.1-3.02-.3l2.93 8.7c.9 2.62 1.56 4.66 2.02 6.12.23.66.5 1.58.82 2.8.8 2.89 1.35 4.86 1.66 5.93 3.1-.04 5.33-.06 6.7-.06 1.07 0 3.17.02 6.29.06a57.23 57.23 0 0 0-.91-2.3l-3.8-9.01c-.47-1.14-.92-2.24-1.34-3.33l-1.48-3.9c1.9-.8 3.37-1.6 4.42-2.36a10.38 10.38 0 0 0 2.6-2.74 11.4 11.4 0 0 0 1.53-3.38 14.96 14.96 0 0 0 .05-7.32 9.66 9.66 0 0 0-1.24-2.8 9.7 9.7 0 0 0-4.93-3.82 14.42 14.42 0 0 0-3.87-.89 59.15 59.15 0 0 0-6.47-.32c-2.07 0-4.18.06-6.36.15a148.14 148.14 0 0 1-11.27.04 671.63 671.63 0 0 1-.46 22.17 284.58 284.58 0 0 1-1.4 19.81m38.93 0c2.86-.04 4.8-.06 5.85-.06 1.23 0 3.02.02 5.36.06l.3-12.27.58-14.58A297.16 297.16 0 0 0 162 43.57l4.77 8.76c.48.9 1.2 2.37 2.2 4.37a406.65 406.65 0 0 1 14.27 0l.17-7.35 1.27-25.46.68-9.17c-3.07.05-4.92.07-5.56.07-1.4 0-3.27-.02-5.6-.07 0 2.39-.11 6.68-.32 12.9-.22 6.2-.43 11.04-.63 14.48l-1.68-3.5-12.16-23.88a490.77 490.77 0 0 1-14.55 0v4.8l-.31 8.83-1.1 21.9-.58 6.45m48.2-.03l12.49-.03c5.5 0 10.56.02 15.17.06.16-3.24.35-6.38.57-9.41-2.04.14-3.5.23-4.37.24l-5.87.15c-3.02.07-5.02.1-5.99.1h-3.26l.34-7.47c3.23-.15 6.16-.23 8.77-.23 1.76 0 4.28.03 7.54.07.18-3.62.35-6.75.55-9.38-4.59.15-7.4.22-8.46.22-2.98 0-5.57-.03-7.81-.09l.35-7.04c2.02-.09 3.51-.13 4.46-.14l5.53-.02c2.48 0 5.54.08 9.2.25 0-.75.01-1.47.05-2.18l.17-3.35c.07-1.54.12-2.44.14-2.68l.06-1.02a1729.9 1729.9 0 0 1-31.67 0l.02 2.71c0 1.92-.1 5.85-.33 11.76-.2 5.92-.43 10.66-.65 14.22-.21 3.57-.56 8-1.03 13.3l4.03-.04zm38.92.03l6.53-.06 6.02.06a565.14 565.14 0 0 1 .66-22.87c.15-3.07.37-6.42.65-10.04h1.99c2.62 0 2.18.12 6.23.34 0-.54 0-1.34.04-2.4.02-1.05.06-2.38.15-4l.17-3-.57.02h-6.14l-7.02.04c-7.15.03-9.12-.03-14.5-.07-.04 2.18-.1 4.17-.17 6l-.14 3.4 7.8-.33c-.19 11.98-.75 22.95-1.7 32.91m31.28 0l6.53-.06 6.02.06a558.94 558.94 0 0 1 .66-22.87c.14-3.07.37-6.42.65-10.04h1.98c2.63 0 2.18.12 6.23.34l.04-2.4c.03-1.05.06-2.38.16-4l.17-3-.57.02h-6.14l-7.02.04c-7.15.03-9.12-.03-14.5-.07-.04 2.18-.1 4.17-.17 6l-.14 3.4 7.8-.33c-.19 11.98-.75 22.95-1.7 32.91m28.64-.65c4.67.97 8.54 1.45 11.6 1.45 2 0 3.88-.22 5.66-.65a13.9 13.9 0 0 0 4.94-2.26 10.83 10.83 0 0 0 3.45-4.11 11.94 11.94 0 0 0 1.03-7.3 9.92 9.92 0 0 0-1.8-3.88 20.2 20.2 0 0 0-1.8-2.25c-.71-.75-1.36-1.4-1.96-1.94l-2.04-1.75a103.02 103.02 0 0 1-3.21-2.79c-.68-.61-1.23-1.2-1.65-1.72a5.7 5.7 0 0 1-.85-1.36 3.4 3.4 0 0 1-.22-1.2c0-.88.48-1.63 1.46-2.21.97-.6 2.2-.9 3.67-.9 1.04 0 2.28.15 3.71.45 1.45.3 3.03.82 4.77 1.58-.28-2.95-.47-5.02-.54-6.2a242.4 242.4 0 0 1-.2-3.89c-3.77-.8-7.24-1.2-10.44-1.2-1.63 0-3.2.14-4.74.43-1.53.27-2.98.78-4.31 1.54a10.87 10.87 0 0 0-5.07 6.08 11.36 11.36 0 0 0-.22 6.64c.25.94.66 1.85 1.22 2.75.55.9 1.33 1.88 2.33 2.92.5.51 1.37 1.34 2.62 2.5l5.34 5.04c.48.47.86.9 1.13 1.3.26.4.45.76.53 1.08.1.31.15.65.15 1 0 1.03-.48 1.8-1.46 2.32-.97.52-2.29.78-3.94.78-1.25 0-2.7-.2-4.35-.6a28.65 28.65 0 0 1-5.67-2.14c.32 2.63.6 6.12.86 10.5M23.87 81.27c2.4.38 4.4.57 5.97.57 1.03 0 2-.09 2.92-.25a8.36 8.36 0 0 0 2.53-.88 4.78 4.78 0 0 0 1.78-1.6c.42-.66.63-1.34.63-2.06 0-.28-.03-.54-.1-.78a3.25 3.25 0 0 0-.31-.73c-.15-.23-.35-.5-.61-.79a8.86 8.86 0 0 0-.93-.87c-.37-.3-.7-.55-1-.76l-1.06-.68-1.65-1.08a7.05 7.05 0 0 1-.85-.67c-.21-.2-.36-.38-.44-.53-.07-.15-.11-.3-.11-.47 0-.34.25-.63.75-.86a4.5 4.5 0 0 1 1.9-.35c.52 0 1.16.06 1.9.17.74.12 1.55.33 2.45.62a80.19 80.19 0 0 1-.28-2.4 69.4 69.4 0 0 1-.1-1.53 34.1 34.1 0 0 0-5.37-.46c-.84 0-1.65.05-2.44.16-.79.1-1.53.31-2.22.6-.7.3-1.24.65-1.66 1.06-.42.4-.74.84-.94 1.31a3.44 3.44 0 0 0 .5 3.66c.3.35.7.73 1.21 1.13.25.2.7.52 1.35.97l2.74 1.96c.25.19.45.36.59.51.13.16.23.3.27.42.05.13.08.26.08.4 0 .4-.25.7-.76.9-.5.2-1.17.3-2.02.3-.64 0-1.4-.08-2.24-.23-.85-.16-1.83-.44-2.92-.84.17 1.03.31 2.39.44 4.08M40.3 69.93c-.06.97-.12 1.71-.16 2.21l-.2 1.92a49.08 49.08 0 0 0-.16 2.53c0 .57.1 1.1.27 1.6.15.44.37.81.64 1.13.27.32.66.62 1.17.92.55.34 1.2.62 1.96.86.74.24 1.59.43 2.52.56a25.21 25.21 0 0 0 6.76-.06c1.19-.17 2.25-.45 3.19-.86.93-.4 1.65-.85 2.13-1.35.49-.51.84-1.1 1.05-1.78a14.75 14.75 0 0 0 .38-3.91l.72-8.5h-6.44c-.05 0-.1.64-.16 1.9a151.3 151.3 0 0 1-.65 7.9c-.08.52-.2.94-.35 1.26-.16.34-.33.63-.54.85-.16.2-.36.36-.58.5a3.2 3.2 0 0 1-.86.36 5.65 5.65 0 0 1-2.88-.06c-.51-.14-.9-.35-1.18-.64a2.21 2.21 0 0 1-.59-1.03c-.1-.4-.16-.92-.16-1.52a66.54 66.54 0 0 1 .26-4.43l.44-5.09a271.84 271.84 0 0 1-6.32 0l-.26 4.73zm22.1 11.6c1.61 0 2.62-.02 3.03-.02l2.91.03v-1.56c0-.68.07-2.74.19-6.17.07-1.89.17-3.6.3-5.14l1.22-.07c.38-.02.74-.02 1.1-.02.36 0 .68.02.96.06.28.03.54.12.77.26.24.13.4.3.52.52a1.76 1.76 0 0 1-.56 2.14c-.5.39-1.22.58-2.2.58a8.2 8.2 0 0 1-1.35-.1c.14.35.31.89.53 1.61.21.73.36 1.27.43 1.64.7.1 1.3.14 1.83.14 1.43 0 2.72-.22 3.87-.65a5.7 5.7 0 0 0 2.68-1.99 4.94 4.94 0 0 0 .7-4.46 4 4 0 0 0-.75-1.34 4.8 4.8 0 0 0-1.26-1.02 6 6 0 0 0-1.7-.64c-.62-.13-1.6-.2-2.9-.2-.9 0-2 .02-3.31.05a130.92 130.92 0 0 1-6.18.02 135.78 135.78 0 0 1 0 3.05l-.16 4.24-.38 5.98-.3 3.07m20.74-.01l6.43-.02c2.83 0 5.43.01 7.8.03.08-1.26.18-2.49.3-3.67-1.05.06-1.8.1-2.25.1l-3.02.06-3.08.04h-1.68l.17-2.91a134.78 134.78 0 0 1 8.4-.06c.09-1.41.18-2.63.28-3.65a186.25 186.25 0 0 1-8.37.05l.17-2.74a97.2 97.2 0 0 1 5.15-.07c1.27 0 2.85.04 4.73.1 0-.29 0-.57.03-.85l.09-1.3c.03-.6.06-.95.07-1.04l.03-.4a1183.92 1183.92 0 0 1-16.3 0l.01 1.05c0 .75-.05 2.28-.17 4.58a138.58 138.58 0 0 1-.87 10.71l2.08-.01zm17.21 0a318.6 318.6 0 0 1 6.22 0 236.68 236.68 0 0 1 .53-12.9l1.28-.04 1.06-.01c1 0 1.75.06 2.22.19.49.12.84.32 1.07.58.22.25.33.56.33.9 0 .4-.15.8-.44 1.16-.3.37-.74.64-1.32.82-.58.17-1.23.26-1.93.26-.51 0-1.03-.04-1.55-.12l1.5 3.39a91.24 91.24 0 0 1 1.46 3.47l.86 2.3a373.09 373.09 0 0 1 6.68 0c-.22-.44-.38-.74-.47-.89l-1.95-3.5-.7-1.3-.75-1.52c.97-.31 1.73-.62 2.27-.92.54-.3.99-.65 1.34-1.06a4.01 4.01 0 0 0 1.03-2.82c0-.48-.07-.93-.22-1.35a3.41 3.41 0 0 0-.64-1.09c-.27-.31-.61-.6-1.02-.85-.41-.25-.91-.46-1.51-.63-.6-.18-1.26-.3-2-.35a40.3 40.3 0 0 0-3.33-.12c-1.06 0-2.15.02-3.27.05a99.13 99.13 0 0 1-5.8.02 201.25 201.25 0 0 1-.23 8.63 83.17 83.17 0 0 1-.72 7.7m20.75 0a229.04 229.04 0 0 1 5.2 0l.04-1.52.48-6.8.37-3.32.23 1.05.14.5 1.05 3.52 1.8 6.58a228.7 228.7 0 0 1 5.38 0l2.75-6.8 1.91-4.87.03 1.37c0 .74-.06 2.47-.18 5.17-.1 2.7-.2 4.4-.29 5.13a185.31 185.31 0 0 1 5.47 0l-.03-1.6a287 287 0 0 1 .55-14.74 451.3 451.3 0 0 1-8.26 0 29.56 29.56 0 0 1-1.58 3.89 54.06 54.06 0 0 0-2.48 6.3c-.42-1.82-.73-3.1-.94-3.87-.21-.75-.5-1.64-.84-2.68a33.46 33.46 0 0 1-.65-2.08c-.08-.35-.2-.87-.32-1.56a470.83 470.83 0 0 1-8.11 0l-.45 5.53-.9 8.39-.37 2.42m25.9 0a387.47 387.47 0 0 1 6.9 0c.91-1.7 1.79-3.24 2.64-4.64h7.36c.8 1.78 1.43 3.32 1.85 4.64a366.7 366.7 0 0 1 6.68 0l-.85-1.75-4.34-9.6-2.13-4.99a286.49 286.49 0 0 1-7.57 0l-.97 1.65-.8 1.3-7.56 11.67-1.21 1.72m12.36-9.9c.44-.75.99-1.7 1.63-2.88.1.29.73 1.84 1.86 4.65h-4.54l1.05-1.77zm15.2 9.9a318.6 318.6 0 0 1 6.22 0 236.68 236.68 0 0 1 .53-12.92c.49 0 .91-.02 1.28-.03l1.06-.01c1 0 1.74.06 2.22.19.49.12.84.32 1.06.58.23.25.34.56.34.9 0 .4-.15.8-.44 1.16-.3.37-.74.64-1.32.82-.58.17-1.23.26-1.94.26-.5 0-1.02-.04-1.55-.12l1.51 3.39a87.51 87.51 0 0 1 1.46 3.47l.85 2.3a373.09 373.09 0 0 1 6.69 0l-.47-.89-1.95-3.5-.7-1.3-.76-1.52a13 13 0 0 0 2.28-.92c.54-.3.99-.65 1.34-1.06a4.01 4.01 0 0 0 1.03-2.82c0-.48-.07-.93-.22-1.35a3.41 3.41 0 0 0-.64-1.09 4.4 4.4 0 0 0-1.02-.85c-.41-.25-.92-.46-1.51-.63-.6-.18-1.27-.3-2-.35a40.3 40.3 0 0 0-3.33-.12c-1.06 0-2.15.02-3.27.05a99.13 99.13 0 0 1-5.8.02 201.25 201.25 0 0 1-.23 8.63 83.04 83.04 0 0 1-.72 7.7m20.2 0a475 475 0 0 1 3.34-.01l3.18.02.34-7.4.7-8.94-3.16.03-3.36-.03v1.03a238.44 238.44 0 0 1-.64 11.6 83 83 0 0 1-.4 3.7m7.32-8.61c2.89 3.8 4.96 6.68 6.22 8.62l3.96-.03 3.6.03-6.11-7.27-1.09-1.41 1.16-1.28 6.16-6.38-3.49.03-3.68-.03-.82 1.03-2.64 3.04-3.27 3.65m17.38 8.6h6.42c2.83 0 5.44 0 7.8.02.09-1.26.19-2.49.3-3.67-1.05.06-1.8.1-2.24.1l-3.03.06-3.08.04h-1.68l.18-2.91a134.78 134.78 0 0 1 8.4-.06c.08-1.41.17-2.63.27-3.65a186.32 186.32 0 0 1-8.37.05l.18-2.74a97.2 97.2 0 0 1 5.14-.07c1.28 0 2.85.04 4.73.1 0-.29.01-.57.03-.85l.1-1.3.06-1.04.03-.4a1183.92 1183.92 0 0 1-16.3 0l.02 1.05c0 .75-.06 2.28-.17 4.58a138.58 138.58 0 0 1-.87 10.71l2.08-.01zm20.32.02l3.36-.03 3.1.03a168.23 168.23 0 0 1 .34-8.9c.07-1.2.18-2.5.32-3.91h1.03c1.35 0 1.26.04 3.35.13 0-.2 0-.52.02-.93.01-.4.03-.93.08-1.56l.09-1.17-2.25.01h-1.35l-3.61.01c-3.68.02-4.96 0-7.72-.02-.02.85-.06 1.62-.1 2.33l-.06 1.33 4.27-.13c-.1 4.66-.39 8.93-.87 12.8m12.82-.25c2.4.38 4.4.57 5.97.57 1.02 0 2-.09 2.91-.25a8.36 8.36 0 0 0 2.54-.88 4.77 4.77 0 0 0 1.78-1.6c.42-.66.63-1.34.63-2.06 0-.28-.04-.54-.1-.78a3.25 3.25 0 0 0-.31-.73 5 5 0 0 0-.61-.79 8.85 8.85 0 0 0-.94-.87c-.36-.3-.7-.55-1-.76l-1.06-.68c-.74-.48-1.3-.84-1.64-1.08a7.05 7.05 0 0 1-.85-.67c-.22-.2-.36-.38-.44-.53-.08-.15-.12-.3-.12-.47 0-.34.25-.63.76-.86a4.5 4.5 0 0 1 1.89-.35c.53 0 1.17.06 1.9.17.75.12 1.56.33 2.46.62a80.19 80.19 0 0 1-.28-2.4l-.1-1.53a34.1 34.1 0 0 0-5.37-.46c-.84 0-1.65.05-2.44.16-.79.1-1.53.31-2.22.6-.7.3-1.25.65-1.67 1.06-.42.4-.73.84-.94 1.31a3.44 3.44 0 0 0 .52 3.66c.28.35.68.73 1.2 1.13.25.2.7.52 1.34.97l2.75 1.96c.25.19.44.36.58.51.14.16.23.3.28.42.05.13.07.26.07.4 0 .4-.25.7-.75.9-.5.2-1.18.3-2.03.3-.64 0-1.39-.08-2.23-.23-.86-.16-1.83-.44-2.92-.84.16 1.03.3 2.39.44 4.08"/></svg>