<svg xmlns="http://www.w3.org/2000/svg" viewBox="0 0 336.6 73.26"><path d="M28.12 15.9H16.26v-3.65c0-1.7-.16-2.78-.46-3.24-.3-.47-.8-.7-1.51-.7-.77 0-1.35.31-1.75.94-.4.63-.59 1.58-.59 2.85 0 1.64.22 2.88.67 3.7.42.84 1.62 1.84 3.6 3 5.69 3.38 9.27 6.15 10.74 8.31 1.48 2.17 2.22 5.66 2.22 10.47 0 3.5-.41 6.07-1.23 7.73s-2.4 3.05-4.75 4.17a18.78 18.78 0 0 1-8.19 1.69c-3.41 0-6.33-.65-8.75-1.95-2.41-1.29-4-2.94-4.74-4.94-.75-2-1.12-4.84-1.12-8.52v-3.22h11.85v5.98c0 1.84.17 3.02.5 3.55.34.52.93.79 1.78.79s1.48-.34 1.9-1c.4-.67.62-1.66.62-2.98 0-2.89-.4-4.78-1.19-5.67-.8-.89-2.8-2.37-5.97-4.46a58.64 58.64 0 0 1-6.31-4.58 10.7 10.7 0 0 1-2.56-3.94A17.36 17.36 0 0 1 0 13.8c0-3.76.48-6.51 1.44-8.25A9.7 9.7 0 0 1 6.1 1.47 18.57 18.57 0 0 1 13.86 0c3.32 0 6.14.54 8.48 1.6 2.33 1.08 3.88 2.43 4.64 4.06.76 1.62 1.14 4.39 1.14 8.3v1.93zm3.27-6.01v40.24h11.89v-27.9c0-1.94.02-3.2.06-3.8s.25-1.1.64-1.52c.38-.42.84-.62 1.39-.62.87 0 1.4.4 1.6 1.18.19.79.28 3.15.28 7.1v25.56h11.89V23.9c0-3.46.13-5.59.38-6.4s.81-1.21 1.68-1.21c.85 0 1.4.4 1.62 1.23.24.81.35 2.94.35 6.38v26.23h11.9v-28.6c0-3.3-.2-5.67-.58-7.14s-1.26-2.7-2.63-3.71a8.46 8.46 0 0 0-5.17-1.52c-1.58 0-3.01.38-4.3 1.14-1.3.76-2.46 1.9-3.5 3.42-1.87-3.04-4.45-4.56-7.73-4.56a8.8 8.8 0 0 0-4.49 1.14 9.88 9.88 0 0 0-3.4 3.42l.22-3.83h-12.1zm57.29 11.37c0-2.24.1-3.63.3-4.17s.72-.8 1.55-.8c.72 0 1.24.32 1.56.95.31.64.47 2 .47 4.11 0 1.68-.14 2.8-.43 3.34s-2.43 1.6-6.46 3.18c-3.76 1.46-6.11 2.73-7.06 3.83-.96 1.09-1.43 3.14-1.43 6.15v3.3c0 4.07.9 6.7 2.68 7.9 1.8 1.21 3.76 1.81 5.9 1.81A8 8 0 0 0 90 49.78a7.97 7.97 0 0 0 2.9-3.23v3.59h11.92v-20.2c0-6.66-.21-11.05-.64-13.18-.42-2.14-1.68-3.93-3.79-5.4-2.1-1.47-5.22-2.2-9.37-2.2-3.46 0-6.27.65-8.43 1.94-2.16 1.3-3.6 2.79-4.32 4.47-.72 1.7-1.08 4.1-1.08 7.2v2.7h11.5v-4.2zm3.88 18.02c0 2.02-.12 3.27-.35 3.74s-.73.72-1.5.72c-.81 0-1.35-.3-1.63-.91-.27-.61-.4-1.95-.4-4.04 0-1.82.15-3.21.47-4.18.3-.97 1.45-2.18 3.4-3.61v8.28zm15.53-29.4v40.25h12.26V34.24c0-3.9.12-6.4.36-7.47.25-1.09.9-1.93 1.94-2.54s2.7-.9 4.95-.9V9.15c-3.38.22-5.96 2.23-7.74 6.02l.49-5.3H108.1zm23.68-5.36v6.34h-2.64v6.37h2.64v20.44c0 4 .11 6.55.33 7.63a5.34 5.34 0 0 0 1.7 2.88c.91.84 1.96 1.37 3.16 1.6 1.2.24 3.18.36 5.97.36h4.95v-6.5c-2 0-3.14-.15-3.42-.45-.27-.3-.4-1.78-.4-4.43V17.23h3.3v-6.37h-3.3V4.52h-12.29zm54.32-3.49c-1.65 11.37-2.84 23-3.56 34.88l-1.41-18.68a717.7 717.7 0 0 0-1.4-16.2h-13.25c-1.89 13.9-3.06 25.13-3.54 33.7l-1.3-16.57-1.35-17.13h-12.4l5.71 49.1h15.85c1.87-13.04 3.06-21.62 3.56-25.74 1.12 9.62 2.4 18.2 3.87 25.75h15.94l5.69-49.1h-12.4zm23.34 20.23c0-2.24.1-3.63.3-4.17s.72-.8 1.55-.8c.72 0 1.24.32 1.56.95.31.64.47 2 .47 4.11 0 1.68-.14 2.8-.43 3.34s-2.43 1.6-6.46 3.18c-3.76 1.46-6.11 2.73-7.06 3.83-.96 1.09-1.43 3.14-1.43 6.15v3.3c0 4.07.9 6.7 2.68 7.9 1.8 1.21 3.76 1.81 5.9 1.81a8 8 0 0 0 4.23-1.08 7.97 7.97 0 0 0 2.9-3.23v3.59h11.92v-20.2c0-6.66-.21-11.05-.64-13.18-.42-2.14-1.68-3.93-3.79-5.4-2.1-1.47-5.22-2.2-9.37-2.2-3.46 0-6.27.65-8.43 1.94-2.16 1.3-3.6 2.79-4.32 4.47-.72 1.7-1.08 4.1-1.08 7.2v2.7h11.5v-4.2zm3.88 18.02c0 2.02-.12 3.27-.35 3.74s-.73.72-1.5.72c-.81 0-1.35-.3-1.63-.91-.27-.61-.4-1.95-.4-4.04 0-1.82.15-3.21.47-4.18.3-.97 1.45-2.18 3.4-3.61v8.28zm39.94-18.87c0-2.02-.11-3.5-.32-4.46a7.22 7.22 0 0 0-1.82-3.09c-1-1.11-2.44-2-4.31-2.68a20.1 20.1 0 0 0-6.8-1.02c-2.7 0-5.06.41-7.1 1.24s-3.46 2.01-4.31 3.54c-.85 1.52-1.28 3.9-1.28 7.11 0 2.26.4 4.22 1.19 5.87.78 1.65 2.98 3.48 6.58 5.5 4.28 2.39 6.66 3.82 7.13 4.31.44.48.66 1.69.66 3.6 0 1.4-.17 2.32-.51 2.75-.35.44-.95.66-1.82.66-.81 0-1.35-.33-1.63-.97s-.4-2.06-.4-4.22V36h-10.86v1.94c0 3.36.41 5.87 1.24 7.52s2.35 2.98 4.57 3.95c2.2.97 4.87 1.45 7.99 1.45 2.8 0 5.2-.45 7.2-1.35 2-.9 3.41-2.18 4.26-3.85.85-1.67 1.28-4.14 1.28-7.41 0-2.94-.56-5.17-1.67-6.7s-3.45-3.18-7-4.92c-2.68-1.31-4.44-2.31-5.3-3-.86-.7-1.38-1.32-1.55-1.9a10.3 10.3 0 0 1-.26-2.71c0-.91.18-1.6.52-2.05s.86-.68 1.55-.68c.85 0 1.38.25 1.59.74.21.5.32 1.67.32 3.53v2.19h10.86V20.4zm2.66-19.38v49.1h12.25V21.42c0-2.04.13-3.4.4-4.1.26-.68.76-1.02 1.51-1.02.81 0 1.33.33 1.56 1 .24.67.35 2.17.35 4.52v28.33h12.26V22.38c0-3.78-.17-6.38-.5-7.8-.34-1.43-1.26-2.69-2.76-3.78s-3.34-1.64-5.48-1.64a10.54 10.54 0 0 0-7.34 2.92V1.03h-12.25zm58.74 24.36c0-3.9-.45-6.93-1.35-9.09a10.76 10.76 0 0 0-4.7-5.18c-2.23-1.3-5.07-1.96-8.5-1.96-2.82 0-5.3.54-7.47 1.62a9.8 9.8 0 0 0-4.67 4.67c-.95 2.04-1.42 4.81-1.42 8.33v11.74c0 2.99.2 5.27.63 6.83.43 1.57 1.19 3 2.3 4.31 1.1 1.3 2.64 2.33 4.62 3.08s4.26 1.12 6.85 1.12c2.67 0 4.89-.38 6.66-1.13 1.77-.76 3.23-1.9 4.38-3.42a11.67 11.67 0 0 0 2.2-4.27c.31-1.34.47-3.25.47-5.74v-2.97h-11.62v5.31c0 2-.15 3.35-.47 4.05-.31.7-.93 1.05-1.86 1.05-.75 0-1.25-.27-1.52-.8s-.4-1.7-.4-3.51v-8.7h15.87v-5.34zm-15.86-1.22v-2.94c0-2.26.1-3.65.3-4.17.2-.51.73-.77 1.58-.77.69 0 1.14.3 1.36.9.23.61.34 1.96.34 4.04v2.94h-3.58zM317.1 9.9v40.24h12.25V34.24c0-3.9.13-6.4.37-7.47.24-1.09.89-1.93 1.94-2.54s2.7-.9 4.94-.9V9.15c-3.37.22-5.95 2.23-7.73 6.02l.48-5.3H317.1zM1.02 69.65h6.56c.28 0 .84-.06 1.7-.17a4 4 0 0 0 1.44-.4 3.27 3.27 0 0 0 1.66-2.93c0-.78-.2-1.43-.62-1.95a3.44 3.44 0 0 0-1.95-1.1c.58-.2 1.02-.47 1.32-.81.45-.52.68-1.14.68-1.87 0-.87-.32-1.6-.95-2.18s-1.55-.88-2.73-.88h-7.1v12.29zm3.83-9.8h1.68c.57 0 .98.1 1.21.3.23.2.35.48.35.84 0 .38-.12.68-.35.88-.23.2-.64.3-1.24.3H4.85v-2.32zm0 4.67h1.93c.67 0 1.13.1 1.4.33.26.22.4.51.4.87 0 .4-.14.7-.4.94-.28.23-.74.35-1.4.35H4.86v-2.5zm9.86 5.13h3.8v-12.3h-3.8v12.3zm6.24-6.14c0 1.44.28 2.63.84 3.59.57.95 1.3 1.65 2.21 2.1.91.44 2.06.66 3.44.66 1.37 0 2.5-.26 3.42-.77a5.17 5.17 0 0 0 2.1-2.15c.48-.91.72-2.1.72-3.53 0-1.98-.55-3.52-1.66-4.61-1.1-1.1-2.68-1.65-4.73-1.65-2 0-3.55.56-4.67 1.68-1.11 1.11-1.67 2.68-1.67 4.68zm3.8.02c0-1.25.23-2.15.69-2.7a2.3 2.3 0 0 1 1.84-.8c.8 0 1.44.26 1.9.8.47.53.7 1.37.7 2.53 0 1.38-.22 2.33-.67 2.86s-1.08.8-1.9.8c-.79 0-1.41-.28-1.87-.82-.47-.54-.7-1.43-.7-2.67zm12.88 6.12v-5.46h1.89c.42 0 .72.02.9.06.25.06.5.17.74.33.25.15.52.43.83.82.3.39.7.95 1.17 1.69l1.63 2.56h2.05L44.7 66.3a8.46 8.46 0 0 0-1.35-1.63c-.23-.2-.55-.4-.98-.61a4.28 4.28 0 0 0 2.61-1.14c.57-.6.85-1.34.85-2.2 0-.68-.17-1.3-.51-1.86-.34-.56-.8-.95-1.37-1.17a7.25 7.25 0 0 0-2.5-.33h-5.44v12.29h1.62zm0-10.93h3.9c.9 0 1.57.18 2 .56.41.37.62.85.62 1.43a2 2 0 0 1-.32 1.1c-.22.34-.54.59-.96.74-.42.16-1 .23-1.74.23h-3.5v-4.06zm20.14 10.93V68.2h-7.54V64h6.8v-1.44h-6.8v-3.76h7.25v-1.45H48.6v12.29h9.17zm3.95 0V59.19l3.56 10.46h1.46l3.57-10.29v10.29h1.57v-12.3H69.7l-2.94 8.56c-.3.87-.51 1.52-.65 1.97l-.59-1.82-2.9-8.7h-2.45v12.29h1.56zm22.18 0V68.2h-7.55V64h6.8v-1.44h-6.8v-3.76h7.26v-1.45h-8.88v12.29h9.17zm6.87 0c.74 0 1.4-.07 1.97-.21a4.54 4.54 0 0 0 1.47-.62c.4-.27.78-.64 1.12-1.11.34-.48.62-1.07.84-1.8.21-.71.32-1.54.32-2.47 0-1.1-.16-2.07-.48-2.92a5 5 0 0 0-1.45-2.1c-.5-.43-1.1-.72-1.8-.88-.5-.12-1.24-.18-2.2-.18h-4.23v12.29h4.44zM87.96 58.8h2.58c.97 0 1.67.08 2.1.25.6.24 1.12.7 1.54 1.39.43.69.64 1.68.64 2.96 0 .93-.11 1.72-.33 2.37s-.51 1.17-.9 1.55c-.27.28-.64.49-1.1.64-.46.15-1.1.23-1.9.23h-2.63v-9.4zM99.2 69.65h1.62v-12.3H99.2v12.3zm5.05 0l1.35-3.72h5.14l1.44 3.72h1.85L109 57.35h-1.75l-4.72 12.3h1.72zm3.17-8.65c.29-.78.5-1.56.67-2.35.19.67.48 1.51.87 2.55l1.28 3.4h-4.17l1.35-3.6zM119 69.65V58.8h4.07v-1.45h-9.74v1.45h4.05v10.84h1.62zm6.2 0h1.63v-12.3h-1.63v12.3zm6.23 0v-9.66l6.45 9.66h1.67v-12.3h-1.56v9.66l-6.45-9.65h-1.67v12.29h1.56zm20.4-4.82v2.29c-.34.3-.85.6-1.52.86-.67.27-1.36.41-2.06.41a5.1 5.1 0 0 1-2.3-.54 3.62 3.62 0 0 1-1.65-1.64 6 6 0 0 1-.56-2.75c0-.89.15-1.71.47-2.47a3.6 3.6 0 0 1 2.09-2.1 5 5 0 0 1 3.61-.03c.51.22.9.5 1.18.86.27.36.5.85.69 1.48l1.46-.4a5.34 5.34 0 0 0-.93-2.02 4 4 0 0 0-1.69-1.2 6.42 6.42 0 0 0-2.4-.43c-1.23 0-2.31.25-3.25.75s-1.66 1.28-2.16 2.31a7.6 7.6 0 0 0 0 6.63c.5.98 1.25 1.72 2.24 2.24a7.35 7.35 0 0 0 5.9.3c.85-.33 1.68-.8 2.48-1.44v-4.56h-5.2v1.45h3.6zm11.3 8.23v-4.33c.26.32.58.59.98.8.4.21.85.32 1.36.32a3.67 3.67 0 0 0 3.4-2.26c.32-.73.48-1.55.48-2.46 0-.85-.15-1.63-.45-2.34a3.62 3.62 0 0 0-1.31-1.66 3.52 3.52 0 0 0-2.01-.59c-.58 0-1.08.12-1.49.34-.4.23-.77.57-1.1 1.02v-1.15h-1.37v12.3h1.5zm-.14-7.81c0-1.15.24-2.02.74-2.62.5-.6 1.06-.9 1.7-.9.65 0 1.2.28 1.68.84.46.57.7 1.42.7 2.55 0 1.2-.24 2.07-.72 2.64-.48.56-1.05.85-1.72.85-.66 0-1.22-.28-1.69-.82-.46-.55-.7-1.4-.7-2.54zm14.18 3.3c.04.42.14.78.3 1.1h1.57c-.19-.34-.31-.7-.38-1.07s-.1-1.26-.1-2.66V63.9c0-.68-.02-1.14-.07-1.4a2.37 2.37 0 0 0-.47-1.02c-.22-.27-.57-.5-1.05-.68s-1.1-.27-1.85-.27c-.77 0-1.44.11-2.02.32a2.9 2.9 0 0 0-1.33.9c-.31.38-.53.9-.67 1.53l1.48.2c.16-.63.41-1.08.75-1.32.34-.25.86-.38 1.57-.38.76 0 1.33.17 1.72.51.29.26.43.69.43 1.3l-.01.4c-.58.2-1.47.37-2.7.52-.59.07-1.04.15-1.33.22-.4.12-.77.28-1.09.5a2.46 2.46 0 0 0-1.08 2.06c0 .74.27 1.35.8 1.83.52.48 1.27.72 2.25.72a4.65 4.65 0 0 0 3.28-1.3zm-.13-2.82c0 .67-.08 1.17-.24 1.51-.22.44-.55.8-1 1.05-.45.25-.97.38-1.55.38-.59 0-1.03-.14-1.34-.4-.3-.27-.46-.6-.46-1.01a1.29 1.29 0 0 1 .8-1.2c.27-.12.7-.22 1.33-.31 1.09-.16 1.91-.35 2.46-.57v.55zm5.54 3.92v-4.66c0-.64.09-1.23.26-1.76.1-.36.3-.63.56-.83.26-.2.56-.3.89-.3.36 0 .73.11 1.1.33l.52-1.4a2.94 2.94 0 0 0-1.55-.49c-.35 0-.67.1-.97.3-.29.2-.61.62-.96 1.26v-1.35h-1.35v8.9h1.5zm7.71-1.35c-.27.04-.5.06-.66.06a1 1 0 0 1-.51-.11.63.63 0 0 1-.27-.3c-.05-.12-.07-.4-.07-.83v-5.2h1.51v-1.17h-1.51v-3.11l-1.5.9v2.2h-1.11v1.18h1.1v5.12c0 .9.07 1.5.19 1.78s.33.51.64.68c.3.18.72.26 1.27.26.34 0 .72-.04 1.14-.13l-.22-1.33zm1.06-1.31c.17.94.56 1.66 1.16 2.14.61.48 1.5.72 2.65.72.7 0 1.32-.12 1.88-.37.55-.24.97-.58 1.27-1.03a2.54 2.54 0 0 0 .08-2.7 2.28 2.28 0 0 0-1-.8c-.42-.18-1.16-.42-2.23-.7-.74-.2-1.18-.33-1.33-.39-.27-.1-.46-.24-.58-.4a.84.84 0 0 1-.19-.53c0-.3.15-.57.45-.8.3-.23.79-.34 1.48-.34.59 0 1.04.12 1.36.38s.52.62.59 1.07l1.47-.2a3.19 3.19 0 0 0-.52-1.38c-.25-.34-.64-.61-1.17-.81a5.19 5.19 0 0 0-3.14-.13c-.4.13-.73.27-.96.44-.31.23-.56.5-.74.85-.19.34-.28.7-.28 1.1a2.23 2.23 0 0 0 1.3 2.04c.44.2 1.2.45 2.3.73.83.2 1.34.37 1.55.5.3.2.45.47.45.81 0 .38-.17.71-.5 1-.34.28-.86.42-1.55.42-.69 0-1.22-.16-1.6-.48s-.62-.78-.7-1.37l-1.5.23zm18.26 2.66l1.8-6.85.35 1.52 1.41 5.33h1.57l2.78-8.9h-1.46l-1.53 5.14-.51 1.72-.45-1.7-1.33-5.16h-1.55l-1.42 5.2-.46 1.85-.53-1.92-1.41-5.13h-1.56l2.72 8.9h1.58zm15.18-1.1c.04.42.14.78.3 1.1h1.57c-.19-.34-.31-.7-.38-1.07s-.1-1.26-.1-2.66V63.9c0-.68-.02-1.14-.07-1.4a2.37 2.37 0 0 0-.47-1.02c-.22-.27-.57-.5-1.05-.68s-1.09-.27-1.85-.27c-.77 0-1.44.11-2.02.32a2.9 2.9 0 0 0-1.33.9c-.31.38-.53.9-.67 1.53l1.48.2c.16-.63.41-1.08.75-1.32.34-.25.86-.38 1.57-.38.76 0 1.33.17 1.72.51.29.26.43.69.43 1.3l-.01.4c-.58.2-1.47.37-2.7.52-.59.07-1.04.15-1.33.22-.4.12-.77.28-1.09.5a2.46 2.46 0 0 0-1.08 2.06c0 .74.27 1.35.8 1.83.52.48 1.27.72 2.25.72a4.65 4.65 0 0 0 3.28-1.3zm-.13-2.82c0 .67-.08 1.17-.24 1.51-.22.44-.55.8-1 1.05-.45.25-.97.38-1.55.38-.59 0-1.03-.14-1.34-.4-.3-.27-.46-.6-.46-1.01a1.29 1.29 0 0 1 .81-1.2c.26-.12.7-.22 1.32-.31 1.1-.16 1.91-.35 2.46-.57v.55zM228.1 67c.17.94.55 1.66 1.16 2.14.6.48 1.49.72 2.65.72.7 0 1.32-.12 1.87-.37s.98-.58 1.27-1.03a2.54 2.54 0 0 0 .08-2.7 2.28 2.28 0 0 0-1-.8c-.41-.18-1.16-.42-2.22-.7a23.9 23.9 0 0 1-1.34-.39c-.26-.1-.45-.24-.58-.4a.83.83 0 0 1-.18-.53c0-.3.15-.57.44-.8.3-.23.8-.34 1.49-.34.58 0 1.04.12 1.36.38s.52.62.58 1.07l1.48-.2a3.19 3.19 0 0 0-.52-1.38c-.25-.34-.64-.61-1.17-.81a5.19 5.19 0 0 0-3.14-.13c-.41.13-.73.27-.96.44-.32.23-.57.5-.75.85-.18.34-.27.7-.27 1.1 0 .44.11.83.33 1.2.22.35.55.64.97.84.43.2 1.2.45 2.3.73.83.2 1.34.37 1.55.5.3.2.44.47.44.81 0 .38-.17.71-.5 1-.34.28-.85.42-1.54.42-.7 0-1.23-.16-1.6-.48s-.62-.78-.7-1.37l-1.5.23zm10.88 2.66v-4.87c0-.7.09-1.25.25-1.65.17-.4.45-.7.85-.94s.81-.35 1.26-.35c.6 0 1.06.18 1.39.52.32.34.49.9.49 1.65v5.64h1.5V64c0-.88-.1-1.54-.3-2-.22-.46-.57-.82-1.05-1.08a3.6 3.6 0 0 0-1.72-.39c-1.07 0-1.96.41-2.67 1.23v-4.41h-1.5v12.29h1.5zm8.24-10.56h1.5v-1.73h-1.5v1.73zm0 10.56h1.5v-8.9h-1.5v8.9zm5.5 0v-4.86c0-1.14.24-1.92.7-2.33a2.44 2.44 0 0 1 2.72-.34c.3.19.5.43.62.73s.18.77.18 1.38v5.42h1.5v-5.48c0-.7-.02-1.18-.08-1.46a2.9 2.9 0 0 0-.47-1.12 2.32 2.32 0 0 0-1-.76 3.7 3.7 0 0 0-1.49-.29 3.2 3.2 0 0 0-2.83 1.47v-1.26h-1.36v8.9h1.51zm7.95.74c-.02.96.3 1.68.95 2.15s1.51.72 2.57.72c.9 0 1.65-.17 2.26-.5s1.06-.8 1.34-1.37a7.3 7.3 0 0 0 .43-2.95v-7.7h-1.4v1.08a3.2 3.2 0 0 0-2.6-1.28c-.78 0-1.47.2-2.05.6-.59.38-1.03.94-1.34 1.66a5.9 5.9 0 0 0-.46 2.35c0 1.23.34 2.29 1 3.17a3.36 3.36 0 0 0 2.85 1.33c.98 0 1.8-.4 2.46-1.17 0 .99-.03 1.63-.1 1.94-.14.5-.4.9-.78 1.17a2.7 2.7 0 0 1-1.62.42c-.64 0-1.15-.14-1.53-.42-.28-.2-.45-.53-.51-.99l-1.47-.21zm1.25-5.35c0-1.08.24-1.88.7-2.43a2.18 2.18 0 0 1 1.72-.82c.68 0 1.26.28 1.74.83.49.56.73 1.38.73 2.47 0 1.14-.24 1.97-.7 2.5-.48.54-1.06.8-1.75.8a2.2 2.2 0 0 1-1.74-.8c-.47-.53-.7-1.38-.7-2.55zm13.98 1.95c.17.94.55 1.66 1.16 2.14.6.48 1.49.72 2.64.72.7 0 1.33-.12 1.88-.37s.98-.58 1.27-1.03a2.54 2.54 0 0 0 .08-2.7 2.28 2.28 0 0 0-1-.8c-.41-.18-1.16-.42-2.22-.7a23.9 23.9 0 0 1-1.34-.39c-.26-.1-.45-.24-.58-.4a.83.83 0 0 1-.18-.53c0-.3.15-.57.44-.8.3-.23.8-.34 1.49-.34.58 0 1.04.12 1.36.38s.52.62.58 1.07l1.48-.2a3.19 3.19 0 0 0-.52-1.38c-.25-.34-.64-.61-1.17-.81a5.19 5.19 0 0 0-3.14-.13c-.41.13-.73.27-.96.44-.32.23-.57.5-.75.85-.18.34-.27.7-.27 1.1 0 .44.11.83.33 1.2.22.35.55.64.97.84.43.2 1.2.45 2.3.73.83.2 1.34.37 1.55.5.3.2.44.47.44.81 0 .38-.17.71-.5 1-.34.28-.85.42-1.54.42-.7 0-1.23-.16-1.6-.48s-.63-.78-.7-1.37l-1.5.23zm9.3 6.09c.37.12.69.18.98.18.48 0 .9-.12 1.24-.35.35-.23.65-.6.92-1.1.2-.36.49-1.03.85-2.01l3.39-9.05h-1.51l-1.9 5.18c-.25.66-.45 1.34-.63 2.03-.19-.72-.4-1.4-.64-2.06l-1.85-5.15h-1.63l3.38 8.91-.14.37c-.2.6-.36.98-.46 1.13-.13.2-.29.35-.5.47-.2.1-.46.16-.8.16-.24 0-.53-.04-.86-.13l.17 1.42zm8.24-6.09c.17.94.56 1.66 1.16 2.14.61.48 1.5.72 2.65.72.7 0 1.32-.12 1.88-.37s.97-.58 1.27-1.03a2.54 2.54 0 0 0 .08-2.7 2.28 2.28 0 0 0-1-.8c-.42-.18-1.16-.42-2.23-.7a23.9 23.9 0 0 1-1.33-.39c-.27-.1-.46-.24-.58-.4a.83.83 0 0 1-.19-.53c0-.3.15-.57.45-.8.3-.23.79-.34 1.48-.34.59 0 1.04.12 1.36.38s.52.62.59 1.07l1.47-.2a3.19 3.19 0 0 0-.52-1.38c-.25-.34-.64-.61-1.17-.81a5.19 5.19 0 0 0-3.14-.13c-.4.13-.73.27-.96.44-.31.23-.56.5-.74.85-.18.34-.27.7-.27 1.1 0 .44.1.83.33 1.2.22.35.54.64.97.84.43.2 1.2.45 2.3.73.82.2 1.33.37 1.54.5.3.2.45.47.45.81 0 .38-.17.71-.5 1-.34.28-.86.42-1.55.42-.69 0-1.22-.16-1.6-.48s-.62-.78-.7-1.37l-1.5.23zm12.67 1.3c-.27.05-.5.07-.66.07-.22 0-.4-.04-.51-.11a.64.64 0 0 1-.26-.3c-.06-.12-.08-.4-.08-.83v-5.2h1.51v-1.17h-1.51v-3.11l-1.5.9v2.2h-1.11v1.18h1.1v5.12c0 .9.07 1.5.19 1.78s.34.51.64.68c.3.18.72.26 1.27.26.34 0 .72-.04 1.14-.13l-.22-1.33zm7.76-1.51a2.9 2.9 0 0 1-.93 1.4c-.39.28-.86.43-1.42.43-.74 0-1.36-.26-1.86-.78a3.42 3.42 0 0 1-.83-2.25h6.64l.01-.4c0-1.47-.38-2.61-1.13-3.42a3.8 3.8 0 0 0-2.92-1.22c-1.23 0-2.23.42-3 1.24a4.92 4.92 0 0 0-1.16 3.5 4.7 4.7 0 0 0 1.15 3.37c.76.8 1.8 1.2 3.1 1.2 1.03 0 1.88-.25 2.54-.76a3.8 3.8 0 0 0 1.37-2.12l-1.56-.19zm-4.95-2.44c.05-.78.3-1.4.78-1.86a2.4 2.4 0 0 1 1.75-.7c.76 0 1.39.3 1.87.88.31.37.5.93.57 1.68h-4.97zm10.1 5.3v-4.61c0-.81.08-1.43.25-1.86.16-.43.42-.76.78-.98.36-.23.75-.34 1.18-.34.56 0 .96.17 1.2.5.25.34.37.84.37 1.51v5.79h1.51v-5.17c0-.92.2-1.59.62-2a2.1 2.1 0 0 1 2.47-.38c.25.16.43.37.53.64.1.26.14.7.14 1.3v5.6h1.5v-6.1c0-1.02-.23-1.77-.7-2.26-.48-.5-1.16-.74-2.04-.74a3.2 3.2 0 0 0-2.75 1.56 2.2 2.2 0 0 0-.9-1.14 2.92 2.92 0 0 0-1.62-.42 3.14 3.14 0 0 0-2.7 1.45v-1.24h-1.35v8.9h1.51z"/></svg>