<?xml version="1.0" encoding="utf-8"?>
<!-- Generator: Adobe Illustrator 22.0.1, SVG Export Plug-In . SVG Version: 6.00 Build 0)  -->
<svg version="1.1" id="Layer_1" xmlns="http://www.w3.org/2000/svg" xmlns:xlink="http://www.w3.org/1999/xlink" x="0px" y="0px"
	 viewBox="0 0 205.1645 12.5694" enable-background="new 0 0 205.1645 12.5694" xml:space="preserve">
<path d="M4.4531,12.4702H1.1543l2.0127-9.501H0l0.6094-2.8701h9.7988L9.7979,2.9692h-3.332L4.4531,12.4702z M12.7529,5.4268h0.1152
	c0.3633-0.6924,0.7588-1.1216,1.2373-1.3687c0.4951-0.2642,1.0557-0.3467,1.7158-0.3467c1.9131,0,2.5889,0.9072,2.1934,2.771
	l-1.2695,5.9878h-2.8379l1.1387-5.3276c0.1484-0.8413,0.0166-1.2539-0.9072-1.2539c-1.2705,0-1.6494,0.7588-1.8809,1.8145
	l-1.0059,4.7671H8.415l2.6221-12.3711h2.8379L12.7529,5.4268z M26.9414,9.5835c-0.2813,1.3032-0.8584,2.0454-1.6992,2.4741
	c-0.8252,0.4126-1.8975,0.5117-3.1504,0.5117c-3.415,0-3.9922-1.188-3.2988-4.4209c0.709-3.3315,1.6982-4.437,5.1787-4.437
	c3.25,0,4.0254,0.9072,3.2822,4.437L27.1553,8.627h-5.625c-0.3291,1.5176-0.1973,1.9629,0.9736,1.9629
	c0.874,0,1.4678-0.0991,1.6494-1.0063H26.9414z M24.6484,7.0601c0.2637-1.2866-0.1982-1.3691-1.1553-1.3691
	c-1.0059,0-1.3682,0.231-1.6328,1.3691H24.6484z M33.1143,12.4702l2.6221-12.3711h6.2188c3.0684,0,3.959,1.3032,3.2656,4.5361
	c-0.7422,3.4805-1.7646,4.668-5.2119,4.668h-2.9199l-0.6758,3.167H33.1143z M39.959,6.4331
	c1.3037-0.0493,1.5176-0.1978,1.8643-1.7979c0.2637-1.27,0.1484-1.666-1.1387-1.666h-2.2598l-0.7256,3.4639H39.959z M50.2227,7.1753
	c0.1318-0.6104,0.3135-1.2866-0.4619-1.2866c-0.8574,0-1.2041,0.6763-1.3525,1.3857l-1.1055,5.1958h-2.8369l1.8477-8.6597h2.7549
	l-0.2813,1.27h0.1162c0.3135-0.4946,0.6592-0.8413,1.0723-1.0557c0.4121-0.2144,0.874-0.3135,1.4014-0.3135
	c1.9795,0,1.7979,1.6167,1.4688,3.2002l-0.1484,0.6763h-2.5576L50.2227,7.1753z M62.0029,8.1484
	c-0.7588,3.563-1.6826,4.4209-5.2783,4.4209c-3.5469,0-4.124-0.957-3.3818-4.4209c0.7422-3.5464,1.6494-4.437,5.2617-4.437
	C62.2334,3.7114,62.7783,4.4868,62.0029,8.1484z M56.1797,8.1484c-0.4121,1.8804-0.3135,2.2437,1.0557,2.2437
	c1.3203,0,1.5176-0.3633,1.9307-2.2437c0.3955-1.8804,0.3457-2.2598-0.9736-2.2598C56.8232,5.8887,56.5762,6.2681,56.1797,8.1484z
	 M68.9658,5.8887h-1.9297l-1.4023,6.5815h-2.8369l1.4023-6.5815h-1.1377l0.4453-2.0781h1.1377l0.165-0.8413
	c0.4951-2.2764,1.501-2.9033,5.2617-2.8701L69.626,2.2598c-0.165-0.0493-0.3301-0.0825-0.5117-0.0825
	c-1.2529,0-1.3359,0.231-1.5664,1.3198l-0.0664,0.3135h1.9297L68.9658,5.8887z M77.0674,9.5835
	c-0.2813,1.3032-0.8584,2.0454-1.6992,2.4741c-0.8252,0.4126-1.8975,0.5117-3.1504,0.5117c-3.415,0-3.9922-1.188-3.2988-4.4209
	c0.709-3.3315,1.6982-4.437,5.1787-4.437c3.25,0,4.0254,0.9072,3.2822,4.437L77.2813,8.627h-5.625
	c-0.3291,1.5176-0.1973,1.9629,0.9736,1.9629c0.874,0,1.4678-0.0991,1.6494-1.0063H77.0674z M74.7744,7.0601
	c0.2637-1.2866-0.1982-1.3691-1.1553-1.3691c-1.0059,0-1.3691,0.231-1.6328,1.3691H74.7744z M83.8984,6.2681
	c0.0332-0.3628-0.1152-0.5444-0.3135-0.6431c-0.1982-0.0825-0.4619-0.0825-0.6924-0.0825c-1.4844,0-1.5176,0.1812-1.6338,0.6929
	c-0.082,0.4287-0.1152,0.7256,1.3369,0.7588c2.9189,0.0659,4.1895,0.231,3.6611,2.6553c-0.5273,2.5405-2.5732,2.9199-4.8486,2.9199
	c-2.2441,0-4.2559,0.0493-3.6455-2.8042h2.8369c-0.0986,0.4785,0.0166,0.7256,0.2471,0.8574
	c0.248,0.1157,0.5938,0.1157,0.9404,0.1157c1.2861,0,1.501-0.0825,1.6494-0.7588c0.1816-0.8579-0.3135-0.8579-1.3027-0.8579
	c-3.5957,0-4.0576-0.8081-3.6953-2.5728c0.5938-2.7876,2.4414-2.8374,4.8496-2.8374c1.584,0,3.8271,0.0166,3.3652,2.1445
	l-0.083,0.4121H83.8984z M93.1221,6.2681c0.0332-0.3628-0.1152-0.5444-0.3135-0.6431c-0.1982-0.0825-0.4619-0.0825-0.6924-0.0825
	c-1.4854,0-1.5176,0.1812-1.6338,0.6929c-0.082,0.4287-0.1152,0.7256,1.3369,0.7588c2.9189,0.0659,4.1895,0.231,3.6611,2.6553
	c-0.5273,2.5405-2.5732,2.9199-4.8496,2.9199c-2.2432,0-4.2549,0.0493-3.6445-2.8042h2.8369
	c-0.0986,0.4785,0.0166,0.7256,0.2471,0.8574c0.248,0.1157,0.5938,0.1157,0.9404,0.1157c1.2861,0,1.501-0.0825,1.6494-0.7588
	c0.1816-0.8579-0.3135-0.8579-1.3027-0.8579c-3.5957,0-4.0576-0.8081-3.6953-2.5728c0.5938-2.7876,2.4414-2.8374,4.8496-2.8374
	c1.584,0,3.8271,0.0166,3.3652,2.1445l-0.083,0.4121H93.1221z M98.6504,12.4702h-2.8369l1.8477-8.6597h2.8369L98.6504,12.4702z
	 M100.8115,2.2764h-2.8369l0.4619-2.1772h2.8369L100.8115,2.2764z M109.1758,8.1484c-0.7588,3.563-1.6826,4.4209-5.2783,4.4209
	c-3.5469,0-4.124-0.957-3.3818-4.4209c0.7422-3.5464,1.6494-4.437,5.2617-4.437C109.4063,3.7114,109.9512,4.4868,109.1758,8.1484z
	 M103.3525,8.1484c-0.4121,1.8804-0.3135,2.2437,1.0557,2.2437c1.3203,0,1.5176-0.3633,1.9307-2.2437
	c0.3955-1.8804,0.3457-2.2598-0.9736-2.2598C103.9961,5.8887,103.749,6.2681,103.3525,8.1484z M114.127,3.8105l-0.3467,1.6162
	h0.1152c0.3633-0.6924,0.7588-1.1216,1.2373-1.3687c0.4951-0.2642,1.0557-0.3467,1.7158-0.3467c1.9131,0,2.5889,0.9072,2.1934,2.771
	l-1.2695,5.9878h-2.8379l1.1387-5.3276c0.1484-0.8413,0.0166-1.2539-0.9072-1.2539c-1.2705,0-1.6494,0.7588-1.8809,1.8145
	l-1.0059,4.7671h-2.8369l1.8477-8.6597H114.127z M125.082,11.1836h-0.0996c-0.4775,1.1875-1.7979,1.3857-2.7871,1.3857
	c-1.9795,0-3.0352-0.4785-2.5732-2.689c0.4453-2.0781,1.666-2.7217,3.7109-2.7217c0.8086,0,2.0625-0.0161,2.1611,0.9736h0.1318
	l0.2969-1.3691c0.165-0.8086,0.2314-1.3198-1.0059-1.3198c-0.71,0-1.2041,0.165-1.3691,0.9404h-2.8369
	c0.2969-1.3525,0.9238-2.0127,1.748-2.3423c0.8086-0.3301,1.8145-0.3301,2.8203-0.3301c2.9033,0,4.042,0.3628,3.415,3.3486
	l-1.1553,5.4102h-2.8369L125.082,11.1836z M122.4756,9.7979c-0.1982,0.9404,0.6104,0.9404,1.0391,0.9404
	c1.1875,0,1.584-0.1484,1.7813-1.0557c0.1484-0.7256-0.4619-0.792-1.3857-0.792C123.2178,8.8906,122.6572,9.0063,122.4756,9.7979z
	 M131.9473,12.4702h-2.8369l2.6221-12.3711h2.8369L131.9473,12.4702z M138.8105,0.0991l-0.5771,2.771
	c-0.3135,1.6992-1.0889,2.3589-3.332,2.3423l0.2471-1.2368c0.957-0.0166,1.2539-0.2808,1.4355-1.1055h-1.0234l0.5771-2.771H138.8105
	z M143.5449,6.2681c0.0332-0.3628-0.1152-0.5444-0.3135-0.6431c-0.1982-0.0825-0.4619-0.0825-0.6924-0.0825
	c-1.4844,0-1.5176,0.1812-1.6338,0.6929c-0.082,0.4287-0.1152,0.7256,1.3369,0.7588c2.9189,0.0659,4.1895,0.231,3.6611,2.6553
	c-0.5273,2.5405-2.5732,2.9199-4.8486,2.9199c-2.2441,0-4.2559,0.0493-3.6455-2.8042h2.8369
	c-0.0986,0.4785,0.0166,0.7256,0.2471,0.8574c0.248,0.1157,0.5938,0.1157,0.9404,0.1157c1.2861,0,1.501-0.0825,1.6494-0.7588
	c0.1816-0.8579-0.3135-0.8579-1.3027-0.8579c-3.5957,0-4.0576-0.8081-3.6953-2.5728c0.5938-2.7876,2.4414-2.8374,4.8496-2.8374
	c1.584,0,3.8271,0.0166,3.3652,2.1445l-0.083,0.4121H143.5449z M163.6064,7.7856l-0.0654,0.3628
	c-0.2969,1.3525-0.5605,2.5732-1.8975,3.5137c-1.3027,0.9233-2.6719,0.9072-4.1064,0.9072c-3.3652,0-5.79-0.165-4.833-4.6846
	l0.6758-3.2002C154.2539,0.5942,156.5801,0,160.209,0c3.3975,0,4.8984,0.3467,4.1729,4.0581l-0.0986,0.478h-3.3984l0.0996-0.478
	c0.1318-1.1055-0.627-1.188-1.749-1.188c-1.8799,0-2.1934,0.5776-2.5566,2.3423l-0.4121,1.9302
	c-0.3955,1.8472-0.4619,2.5566,1.5176,2.5566c1.3691,0,2.0449-0.0991,2.3584-1.5508l0.0664-0.3628H163.6064z M168.1299,5.4268
	h0.1152c0.3633-0.6924,0.7588-1.1216,1.2373-1.3687c0.4951-0.2642,1.0557-0.3467,1.7158-0.3467c1.9131,0,2.5889,0.9072,2.1934,2.771
	l-1.2695,5.9878h-2.8379l1.1387-5.3276c0.1484-0.8413,0.0166-1.2539-0.9072-1.2539c-1.2705,0-1.6494,0.7588-1.8809,1.8145
	l-1.0059,4.7671h-2.8369l2.6221-12.3711h2.8379L168.1299,5.4268z M182.8945,8.1484c-0.7588,3.563-1.6826,4.4209-5.2783,4.4209
	c-3.5469,0-4.124-0.957-3.3818-4.4209c0.7422-3.5464,1.6494-4.437,5.2617-4.437C183.125,3.7114,183.6699,4.4868,182.8945,8.1484z
	 M177.0713,8.1484c-0.4121,1.8804-0.3135,2.2437,1.0557,2.2437c1.3203,0,1.5176-0.3633,1.9307-2.2437
	c0.3955-1.8804,0.3457-2.2598-0.9736-2.2598C177.7148,5.8887,177.4678,6.2681,177.0713,8.1484z M185.7666,12.4702h-2.8369
	l1.8477-8.6597h2.8369L185.7666,12.4702z M187.9277,2.2764h-2.8369l0.4619-2.1772h2.8369L187.9277,2.2764z M195.7305,9.0063
	c-0.3457,1.6162-0.8242,2.5073-1.5996,2.9854c-0.7588,0.4951-1.8145,0.5776-3.3486,0.5776c-3.3486,0-3.9258-1.0063-3.2002-4.4209
	c0.627-2.936,1.5342-4.437,5.0811-4.437c2.4902,0,4.123,0.2642,3.4805,3.3486h-2.8369c0.1152-0.4619,0.1152-0.7422-0.0332-0.9238
	c-0.165-0.1816-0.4785-0.2476-1.0723-0.2476c-1.0059,0-1.3691,0.2808-1.7813,2.2598c-0.4287,2.0288-0.248,2.2437,0.8242,2.2437
	c1.2871,0,1.4189-0.3135,1.6494-1.3857H195.7305z M204.5918,9.5835c-0.2813,1.3032-0.8584,2.0454-1.6992,2.4741
	c-0.8252,0.4126-1.8975,0.5117-3.1504,0.5117c-3.415,0-3.9922-1.188-3.2988-4.4209c0.709-3.3315,1.6982-4.437,5.1787-4.437
	c3.25,0,4.0254,0.9072,3.2822,4.437l-0.0986,0.4785h-5.625c-0.3291,1.5176-0.1973,1.9629,0.9736,1.9629
	c0.874,0,1.4678-0.0991,1.6494-1.0063H204.5918z M202.2988,7.0601c0.2637-1.2866-0.1982-1.3691-1.1553-1.3691
	c-1.0059,0-1.3682,0.231-1.6328,1.3691H202.2988z"/>
</svg>
