<?xml version="1.0" encoding="utf-8"?>
<!-- Generator: Adobe Illustrator 22.0.1, SVG Export Plug-In . SVG Version: 6.00 Build 0)  -->
<svg version="1.1" id="Layer_1" xmlns="http://www.w3.org/2000/svg" xmlns:xlink="http://www.w3.org/1999/xlink" x="0px" y="0px"
	 viewBox="0 0 168.928 79.869" enable-background="new 0 0 168.928 79.869" xml:space="preserve">
<g>
	<path fill="#C10230" d="M0,10.875v58.1201c25.541,7.8539,53.342,10.874,84.461,10.874c31.123,0,58.925-3.02,84.467-10.874V10.875
		C143.386,3.022,115.584,0,84.461,0C53.342,0,25.541,3.022,0,10.875z"/>
</g>
<g>
	<path fill="#FFFFFF" d="M152.601,33.474c-1.486-5.215-6.658-10.387-15.002-10.387c-8.734,0-16.88,5.942-16.88,16.032
		c0,10.548,8.087,16.25,16.753,16.25c7.286,0,12.364-4.377,14.268-8.49h5.908c-2.664,9.517-11.599,14.649-22.299,14.649
		c-14.812,0-26.763-8.425-26.763-22.538c0-11.765,11.556-22.178,27.818-22.178c7.15,0,11.496,2.408,13.309,2.408
		c1.816,0,2.507-0.142,3.088-1.508h0.787l2.158,15.762H152.601z M58.39,33.474l-2.16-15.762h-0.785
		c-0.58,1.366-1.275,1.508-3.09,1.508c-1.812,0-6.16-2.408-13.302-2.408c-16.268,0-27.827,10.413-27.827,22.178
		c0,14.113,11.953,22.538,26.768,22.538c10.699,0,19.635-5.132,22.299-14.649h-5.912c-1.901,4.113-6.983,8.49-14.266,8.49
		c-8.664,0-16.756-5.702-16.756-16.25c0-10.09,8.151-16.032,16.885-16.032c8.344,0,13.516,5.172,15.002,10.387H58.39z
		 M133.023,29.0021c6.936-2.777,12.862,1.117,14.846,6.074c2.293,5.727-0.488,12.23-6.219,14.522
		c-5.726,2.291-12.226-0.491-14.517-6.218c-0.707-1.761-0.93-3.596-0.739-5.36l0.067,0.002c-0.094,1.035,0.115,2.617,0.509,3.933
		c0.381,0.285,1.602,0.35,3.235,0.162c-0.584-1.707-0.85-3.483-0.793-5.135c-1.303,0.004-2.221-0.298-2.49-0.921l0.017-0.054
		c0.475,0.237,1.397,0.266,2.531,0.119c0.081-0.759,0.233-1.484,0.458-2.153l0.064,0.003c0.012,0.676,0.053,1.361,0.125,2.053
		c1.273-0.22,2.734-0.624,4.109-1.174l0.073-0.028c-0.75-1.204-1.561-2.327-2.446-3.3329l0.043-0.057
		c1.262,0.798,2.387,1.802,3.391,2.955c1.516-0.718,2.814-1.576,3.781-2.401c-1.574-1.297-3.545-2.261-5.982-2.662l0.009-0.064
		c2.643,0.172,4.842,0.955,6.614,2.134c1.146-1.147,1.554-2.137,0.875-2.445c-2.381-0.86-5.063-0.887-7.535,0.101L133.023,29.0021z
		 M142.394,29.8021c0.295,0.657-0.263,1.606-1.381,2.601c1.206,1.07,2.155,2.347,2.852,3.737c1.52-1.478,2.086-2.848,1.527-3.702
		C144.562,31.36,143.539,30.475,142.394,29.8021L142.394,29.8021z M140.224,48.975c-0.213-0.689-0.433-1.38-0.662-2.077
		c-1.295,0.467-2.621,0.771-3.867,0.918c0.633,0.586,1.324,1.134,2.086,1.643C138.594,49.397,139.412,49.238,140.224,48.975
		L140.224,48.975z M139.056,45.5521l0.049-0.021c-0.422-1.24-0.871-2.476-1.355-3.692c-1.938,0.729-3.5865,1.4673-5.2505,1.6963
		c0.629,1.206,1.1565,2.1077,2.1035,3.1698C136.053,46.522,137.603,46.134,139.056,45.5521L139.056,45.5521z M139.299,41.202
		c0.48,1.2191,0.88,2.47,1.201,3.718c1.424-0.666,2.646-1.396,3.65-2.157c-0.064-1.263-0.285-2.613-0.691-3.953
		C142.297,39.66,140.883,40.4921,139.299,41.202L139.299,41.202z M140.209,33.058c-1.104,0.82-2.533,1.636-4.127,2.313
		c0.982,1.293,1.826,2.731,2.537,4.247c1.682-0.811,3.088-1.69,4.191-2.559C142.183,35.621,141.324,34.248,140.209,33.058
		L140.209,33.058z M130.236,36.944c0.244,1.671,0.682,3.353,1.363,4.967c1.573-0.28,3.268-0.721,5.508-1.619
		c-0.666-1.554-1.396-3.053-2.207-4.459C133.197,36.4551,131.572,36.827,130.236,36.944L130.236,36.944z M127.181,42.5931
		c0.026,0.067,0.768,1.983,1.993,3.33c0.724,0.633,2.103,0.925,3.755,0.9c-0.91-1.018-1.644-2.176-2.203-3.397
		C129.078,43.493,127.803,43.2261,127.181,42.5931L127.181,42.5931z M130.674,47.3251c1.636,1.255,3.609,2.008,5.677,2.141
		c-0.845-0.428-1.615-0.948-2.306-1.542C132.681,47.931,131.498,47.73,130.674,47.3251L130.674,47.3251z M141.22,48.5981
		c0.879-0.3831,1.682-0.872,2.395-1.446c0.273-0.735,0.447-1.625,0.52-2.606c-0.938,0.659-2.036,1.285-3.293,1.837
		C140.996,47.1301,141.125,47.8691,141.22,48.5981L141.22,48.5981z M144.808,46.035c1.176-1.289,2.006-2.843,2.44-4.514
		c-0.481,0.707-1.147,1.443-1.994,2.162C145.178,44.488,145.027,45.277,144.808,46.035z M147.459,37.249
		c-0.125-0.778-0.364-1.623-0.729-2.5359c0.004,0.849-0.787,2.004-2.136,3.189c0.421,1.263,0.66,2.576,0.714,3.881
		C146.902,40.261,147.662,38.6691,147.459,37.249L147.459,37.249z M105.097,55.2541c1.1716,1.828,3.538,4.6,6.123,4.6v0.774H98.029
		c-2.34,0-3.877-1.391-5.148-3.372c-0.819-1.278-3.586-5.592-6.024-9.406c-1.349-1.97-2.91-2.4189-5.336-2.4189h-6.275v8.1429
		c0,3.84,1.488,5.485,4.545,6.28v0.774H59.334v-0.774c3.058-0.795,4.545-2.44,4.545-6.28v-28.808c0-3.839-1.487-5.486-4.545-6.28
		v-0.774h29.865c10.187,0,16.613,4.606,16.613,13.463c0,8.703-7.531,11.922-12.527,12.349c3.393,0.77,5.863,2.444,7.057,4.307
		C101.717,49.9771,103.926,53.4271,105.097,55.2541z M71.758,24.337v0.36c2.349,0.886,3.443,2.476,3.482,4.907l0.006,0.062v9.139
		h11.053c4.859,0,7.365-3.136,7.365-6.898c0-3.762-2.115-7.57-7.365-7.57H71.758z M155.67,60.2651v-1.292h0.982
		c0.488,0,0.539,0.29,0.539,0.537c0,0.115,0.01,0.571,0.07,0.755h0.495v-0.066c-0.123-0.073-0.143-0.136-0.149-0.302l-0.023-0.545
		c-0.018-0.42-0.19-0.497-0.362-0.566c0.194-0.113,0.422-0.277,0.422-0.723c0-0.637-0.498-0.807-0.992-0.807h-1.392v3.009H155.67z
		 M155.67,57.603h1.011c0.202,0,0.541,0.039,0.541,0.502c0,0.445-0.314,0.519-0.613,0.519h-0.939V57.603z M156.406,61.531
		c-0.752,0-1.455-0.291-1.986-0.818c-0.526-0.532-0.819-1.235-0.819-1.983c0-1.546,1.258-2.803,2.805-2.803
		c0.748,0,1.449,0.291,1.98,0.82c0.528,0.53,0.819,1.233,0.819,1.983c0,0.748-0.291,1.451-0.819,1.983
		C157.855,61.24,157.154,61.531,156.406,61.531z M154.174,58.73c0,0.597,0.23,1.157,0.652,1.576c0.422,0.422,0.982,0.653,1.58,0.653
		c1.227,0,2.227-1,2.227-2.229c0-0.5959-0.233-1.1559-0.653-1.579c-0.42-0.422-0.982-0.653-1.574-0.653
		c-0.598,0-1.158,0.231-1.58,0.653C154.404,57.574,154.174,58.134,154.174,58.73z"/>
</g>
</svg>
