<?xml version="1.0" encoding="utf-8"?>
<!-- Generator: Adobe Illustrator 22.0.1, SVG Export Plug-In . SVG Version: 6.00 Build 0)  -->
<svg version="1.1" id="Layer_1" xmlns="http://www.w3.org/2000/svg" xmlns:xlink="http://www.w3.org/1999/xlink" x="0px" y="0px"
	 viewBox="0 0 58.3882 10.8301" enable-background="new 0 0 58.3882 10.8301" xml:space="preserve">
<path d="M5.9487,3.2383C5.8164,2.3745,5.1689,1.9189,4.2217,1.9189c-1.4395,0-1.9912,1.2593-1.9912,2.5425
	s0.5518,2.5425,1.9912,2.5425c1.0552,0,1.6431-0.5874,1.7271-1.583h2.2305c-0.1318,2.2188-1.7388,3.502-3.9097,3.502
	C1.667,8.9229,0,6.9443,0,4.4614C0,1.979,1.667,0,4.2695,0c1.8589,0,3.8496,1.1753,3.9097,3.2383H5.9487z M9.3594,2.5186h1.979
	v1.0913h0.0239c0.2998-0.8032,0.9956-1.2114,1.8711-1.2114c0.1558,0,0.3237,0.0122,0.48,0.0483v1.8589
	c-0.2759-0.084-0.5039-0.1201-0.7798-0.1201c-1.0073,0-1.5352,0.6958-1.5352,1.4751v3.0825H9.3594V2.5186z M17.1582,2.3389
	c1.9307,0,3.2861,1.4272,3.2861,3.2979c0,1.8711-1.3555,3.2861-3.2861,3.2861c-1.9312,0-3.2744-1.415-3.2744-3.2861
	C13.8838,3.7661,15.2271,2.3389,17.1582,2.3389z M17.1582,7.3638c0.9595,0,1.2471-0.9233,1.2471-1.7271
	c0-0.7915-0.2876-1.7388-1.2471-1.7388c-0.9478,0-1.2354,0.9473-1.2354,1.7388C15.9229,6.4404,16.2104,7.3638,17.1582,7.3638z
	 M21.5156,2.5186h1.979v0.8516h0.0239c0.3716-0.6235,1.0195-1.0313,1.7871-1.0313c0.7793,0,1.4751,0.2515,1.811,1.0073
	c0.4917-0.6719,1.0913-1.0073,1.9429-1.0073c1.979,0,2.1948,1.499,2.1948,2.6865v3.7178h-2.0391V5.085
	c0-0.6714-0.3237-1.0674-0.8516-1.0674c-0.8755,0-0.9595,0.6719-0.9595,1.6792v3.0464h-2.0386V5.2051
	c0-0.7314-0.2041-1.1875-0.7676-1.1875c-0.7319,0-1.0435,0.4321-1.0435,1.6914v3.0342h-2.0391V2.5186z M32.6274,2.5186h1.9424
	v0.7197h0.0244c0.4072-0.5996,0.9834-0.8994,1.7148-0.8994c1.9551,0,2.7822,1.667,2.7822,3.4302
	c0,1.6187-0.8633,3.1538-2.626,3.1538c-0.7559,0-1.3555-0.2876-1.7754-0.8511h-0.0234v2.7583h-2.0391V2.5186z M34.5942,5.5649
	c0,1.0913,0.3115,1.7988,1.2354,1.7988c0.8994,0,1.2236-0.9473,1.2236-1.7988c0-0.7915-0.2998-1.667-1.2119-1.667
	C35.3013,3.8979,34.5942,4.2695,34.5942,5.5649z M43.9409,3.8379h-1.2588v2.8306c0,0.4917,0.2881,0.5996,0.7314,0.5996
	c0.1797,0,0.3477-0.0239,0.5273-0.0239v1.499c-0.3711,0.0122-0.7432,0.0601-1.1152,0.0601c-1.7393,0-2.1826-0.5156-2.1826-2.1948
	V3.8379h-1.0313V2.5186h1.0313V0.6357h2.0391v1.8828h1.2588V3.8379z M47.8296,2.3389c1.9307,0,3.2861,1.4272,3.2861,3.2979
	c0,1.8711-1.3555,3.2861-3.2861,3.2861s-3.2744-1.415-3.2744-3.2861C44.5552,3.7661,45.8989,2.3389,47.8296,2.3389z M47.8296,7.3638
	c0.96,0,1.2471-0.9233,1.2471-1.7271c0-0.7915-0.2871-1.7388-1.2471-1.7388c-0.9473,0-1.2354,0.9473-1.2354,1.7388
	C46.5942,6.4404,46.8823,7.3638,47.8296,7.3638z M52.187,2.5186h1.9795v0.8516h0.0234c0.3838-0.6357,1.2119-1.0313,1.9551-1.0313
	c2.0752,0,2.2432,1.5112,2.2432,2.4106v3.9937h-2.0391V5.7329V5.1094c0-0.6001-0.2041-1.0918-1.0195-1.0918
	c-0.7676,0-1.1035,0.6597-1.1035,1.3315v3.394H52.187V2.5186z"/>
</svg>
