<svg version="1" xmlns="http://www.w3.org/2000/svg" viewBox="0 0 297 400"><path fill="#323232" d="M222 41l30 67c3 8-5 13-14 14-51 1-198-5-195-2-4-1-8-17-17-16 4-5-3-37 3-41 6-3 15-18 20-20C64 24 158-1 171 0c44 4 51 41 51 41z"/><path fill="#3B3B3B" d="M171 0l-13 6c-1-2 8-6 13-6z"/><path fill="#BABABA" d="M87 118l2-10 18-24 4 3 1-2 47-5c-3 1 78 16 76 19-1 1 19 66 18 67l-5 50-47 155-86 24-56-22 26-85s-19-59-21-61c-2-3-10-56-12-56 1-4-2-29-2-29 3-10 34-15 37-24z"/><path fill="#727272" d="M188 398l-90 2-12-2-14-5c-6-3-15-5-17-10-4-9-4-20-5-31l7-5 16-27 1-24 4 19v2l-5 27-4 13-8 4-4-7-2 11 5 11 14-22 2 3c2 11 2 18 5 24h10v5c2-1 4-2 1-1 5 5 8 9 12 11h10l6 3 1-9 17-1v3l4-2v5l36 3 1-7c17 1 21-14 29-23 4-4 3-13 5-23l2-1-3-6-10 4-1-3 13-7v-9l5-4v23l-1 26v3l-5 2-25 25z"/><path fill="#6C6C6C" d="M195 19l4 5 1 8 3 40-3 8-15 2h-7l-7-6 8 1-29-22-1 3-5-2 3 6-6-4v-6l8-1-5-8-2 1-1-1-6-13-6 4 4-5h1a92589 92589 0 0 1 41 26l-35-31 7-4h2l2-4 10 3-6-6h15l4 2 4 7-3-1 10 15-21-18 2 11-10-5 20 15 12 18 4 13 4-1-2-9 1-2 4 6h2l-5-30-5-13 4-2z"/><path fill="#464646" d="M45 74l2-4 2 3 5-4h17c8 2 16 7 25 10h3-16l-10-1v-4l-18 5v5l31 2 14 1-3 6h-1l-21 12-7 8-4-1-10 17-2 17c-3-9-1-17-1-25-1-16-16-30-5-46l-1-1zm28 21l-2-1-12 11 3 3 11-13z"/><path fill="#555" d="M45 74l1 1c-11 16 4 30 5 46 0 8-2 16 1 25l2-17 10-17 4 1-6 8-3-7-4 31 9-3-2 24-2 4-3-1-13-1-6 2c15-9 13-20 5-32-4-6-5-14-7-21l2-14 6 13-4-37 1-1 4-4z"/><path fill="#7C7C7C" d="M49 392l-36-9-13-5 42-25 7 39z"/><path fill="#4C4C4C" d="M118 40l7 5-7 5-6-1 4 7-2 4 5 6h-3l-14-7 10-3c-10-8-37-7-53 2l-4 1 1-5 17-9 29-2-1-1h13l-11-7 1-3 11 3-7 8 10-3z"/><path fill="#555" d="M155 13l6 6-10-3-2 4h-2l-7 4 35 31-2 1-39-27c-5-14-1-17 21-17v1z"/><path fill="#5A5A5A" d="M96 79c-9-3-17-8-25-10H54l24-5-4-1-1-4 5-1 24 11 8 4 1 1-14 2-1 3z"/><path fill="#7D7D7D" d="M102 69L78 58l24 1 14 7 1 5-22-7 7 5z"/><path fill="#929292" d="M49 392l-7-39 2-2 1 1 7 36v5l-3-1z"/><path fill="#464646" d="M56 56l-1 5-7 7 1-8h-7c1-2 3-4 3-7l1-7c0-5 7 2 10 10z"/><path fill="#555" d="M59 238c-16-15-29-32-28-55 0-5 4-9 7-13-10 21-1 37 10 54l11 12v2z"/><path fill="#979797" d="M72 273l-2-23 3-8 12 10-10-8 2 34-1 2-2-1-2-6z"/><path fill="#464646" d="M38 103l-2 14h-7l-3-13c3 0 2-2 6-1-3-4-2-6-4-9l6-2 4 11z"/><path fill="#555" d="M133 29l-4 5 6-4 6 13-25-15 1-4 16 5z"/><path fill="#606060" d="M85 252l-12-10-3 8-11-12v-2l13 5 9-7 4 18z"/><path fill="#555" d="M142 44l2-1 5 8-8 1v6l-5-2-2-5 8-7z"/><path fill="#585858" d="M72 273l2 6v17l-1 24-1-47z"/><path fill="#464646" d="M41 78l-1 1-15-10 4-4 12 13z"/><path fill="#555" d="M118 50l7-5 9 6-4 2-12-3z"/><path fill="#565656" d="M73 59l1 4H60l13-4z"/><path fill="#727272" d="M45 352l-1-1 13-4-11 5h-1z"/><path fill="#525252" d="M200 80l3-8-3-40-1-8c6 0 19 4 19 4v11l-10 23 3 1 7-18 7 22 7 9-22-2-9 6h-1z"/><path fill="#999" d="M210 74l22 2 9 23 6 19v1l5 19-9 5v-5l-10 3 8-12-2-2-8 8-7-2 2-8-2-1c3-2 7-4 7-6 2-8 3-18 3-26-1-5-4-11-8-15-1-1-7 1-10 1h-1l-5-4z"/><path fill="#525252" d="M195 19l-4 2 5 13-9-10-1 1 9 13-17-16-4-7-4-2-4-3 11-3-1-2-9 2c4-1 10-4 14-2 3 1 6 6 8 11l6 3z"/><path fill="#686868" d="M218 45l-7 18-3-1 10-23v6z"/><path fill="#4F4F4F" d="M252 138l-5-19 5-11 2 31-2-1z"/><path fill="#7B7B7B" d="M247 118l-6-19 6 19z"/><path fill="#3B3B3B" d="M167 7l9-2 1 2-11 3h-7l8-3z"/><path fill="#7F7F7F" d="M286 372l-24 9v-30h-5l2 31-27 7 18-41-4-2-3 14-6 4-1-27c6 2 12 3 17 6l29 16 4 13z"/><path fill="#969696" d="M231 331l5 6 1 27-23 30-8 1 6-7c6-9 13-17 17-26 5-11 12-23-4-32l6 1z"/><path fill="#454545" d="M225 330c16 9 9 21 4 32-4 9-11 17-17 26l-1-1 7-16v-3l5-6 8-21c0-2-5-5-8-8l-1 7-1-12 4 2z"/><path fill="#606060" d="M218 371l-7 16-23 11 25-25 5-2z"/><path fill="#545454" d="M45 352h1v3l4-3c1 11 1 22 5 31 2 5 11 7 17 10l14 5-34-5v-5l-7-36z"/><path fill="#989898" d="M243 360l3-14 4 2-18 41-8 3 19-32z"/><path fill="#939393" d="M259 382l-2-31h5v30l-3 1z"/><path fill="#6C6C6C" d="M243 360l-19 32-10 2 23-30 6-4z"/><path fill="#6F6F6F" d="M282 359l15 6-11 7-4-13z"/><path fill="#828282" d="M214 323v9l-13 7 1 3 10-4 3 6-2 1c-2 10-1 19-5 23-8 9-12 24-29 23l-1 7-36-3v-5l-4 2v-3l-17 1-1 9-6-3h-10c-4-2-7-6-12-11 3-1 1 0-1 1v-5H81c-3-6-3-13-5-24l-2-3-14 22-5-11 2-11c2 3 15-5 16-10 3 2 11 0 11 0 3 4 91 10 93 4l-6-5 8-9c7-3 14-3 21-5l14-6z"/><path fill="#9F9F9F" d="M78 317v-2l6-19 9 16 7-3-8-25 7 2 9 9-5 5v4l13 1 8 7-4 2 2 7 10-6 24 8-7 2 2 3-11 5c-3 3-7 7-8 11 0 2 4 7 7 8 2 1 6-3 9-4l12-6-14 21h-11l-6-16-18 15 3 4-2 4-17-7 8-12-3 13 15-11-10-8-12 8 6-31-10 7 3-15-6-1-1 10 5-3-1 9-8 7-3-19zm43 14l-13 6 10 2 3-8z"/><path fill="#8F8F8F" d="M78 317l3 20 8-8 10-7-6 31 12-8 10 8-15 11 3-13-8 12 17 7 2-4-3-4 18-15 6 16h11l14-21 1-1-10 22 4 2 14-19 2-3 7 5-9 16 2 1 7-8c3-2 7-3 11-2l-13 7 1 1 20-5-2 6 3 4h-5l-2-4-13 8 5 6-9 4 5-17-6 4h-7l-3-7-7 5 2 7-6 4 1-9-12 15-16-18v-3l-3-1-10 22-7 6c-2-5-3-10-6-14-1-2-5-3-7-5-2-1-5-2-6-4-1-1 2-4 3-6l-3-5h6l-8-12-3 5-8-5 5-27z"/><path fill="#606060" d="M222 340l1-7c3 3 8 6 8 8l-8 21-5 6 1-26 3-2z"/><path fill="#575757" d="M222 340l-3 2v-23l-5 4-14 6-13-3c11-3 26-1 32-17l9-16-10 33h11l-8 2 1 12z"/><path fill="#8F8F8F" d="M84 296l-6 19-4-19v-17l2 1 8 16z"/><path fill="#313131" d="M50 352l-4 3v-3l11-5-7 5z"/><path fill="#7C7C7C" d="M136 56l5 2 6 4-3-6 5 2 1-3 29 22-8-1 7 6c-26-4-52-6-75 10h-1l6-11-9-2h-3l1-3h24v-1l-10-1-1-1 23 2-4-5 14 3-7-17z"/><path fill="#ADADAD" d="M103 92c23-16 49-14 75-10h4v3l-4 2-22-2h-34l-1 2-4-3-18 24c-9-8-1-11 4-16z"/><path fill="#8E8E8E" d="M176 39l-20-15 10 4-2-10 21 18 10 22-1 2h-2l-10-24-4 2 9 12h-1l-10-11z"/><path fill="#7F7F7F" d="M195 58l-10-22-10-15 3 1 17 16-9-13 1-1 9 10 5 30h-2l-4-6z"/><path fill="#595959" d="M176 39l10 11h1l-9-12 4-2 10 24-4-3-12-18z"/><path fill="#A7A7A7" d="M178 87l4-2v-3h3l16-2 9-6 5 4-17 6-20 3z"/><path fill="#7F7F7F" d="M188 57l4 3h2l2 9-4 1-4-13z"/><path fill="#8D8D8D" d="M201 80l-16 2 15-2h1z"/><path fill="#777" d="M60 170l2-4 2-24-9 3 4-31 3 7 6-8 7-8 4 7-4 9-4 14 8-3v6l-10 27-9 5z"/><path fill="#575757" d="M75 121l4-8-4-8 21-12-4 4-2 10-2 24-5-5 3-5-8 7-3-7z"/><path fill="#626262" d="M86 86l-31-2v-5l18-5v4l13 8z"/><path fill="#7C7C7C" d="M86 86l-13-8 10 1 6 3 11 5-14-1z"/><path fill="#5A5A5A" d="M100 87l-11-5-6-3h16l9 2-6 11-5 1 3-6z"/><path fill="#A6A6A6" d="M97 93l5-1h1c-5 5-13 8-4 16l-2 10-5-21 4-4h1z"/><path fill="#696969" d="M73 95l-11 13-3-3 12-11 2 1z"/><path fill="#999" d="M48 224c-11-17-20-33-10-54l6-2-3 8c-9 14-3 26 6 38v-9l4 5 1 3 10 12-1 3-13-4z"/><path fill="#959595" d="M60 170l9-5-1 8 2 1-3 5 4-4 4 10h-8l-3-4-2 4-2-5-3-11 3 1z"/><path fill="#BCBCBC" d="M57 169l3 11-19-4 3-8 13 1z"/><path fill="#686868" d="M129 70l4 5-23-2-8-4-7-5 22 7-1-5h3l-5-6 2-4-4-7 6 1 12 3-1 2-7 1 3 7 4 7zM111 74l10 1v1H97l14-2z"/><path fill="#BABABA" d="M48 224l13 4 1-3-10-12 2 1 15 8 3-1 1-4-1-19 3 2c7 14 10 28-3 41l-13-5-11-12z"/><path fill="#A9A9A9" d="M84 296l-8-16 1-2-2-34 10 8 5 14 9 20-7-2 8 25-7 3-9-16z"/><path fill="#979797" d="M90 266l-5-14-4-18-9 7c13-13 10-27 3-41l-3-2-9 16h-3l7-29 5 9 4-5 6 5v-36h1l14 90 5 1-2 13 9 13-3 4 6 5 8 12-1 1h10v-4l6 3 2-1 8 6-10 6 9-1 1-5 5 6v-10l5 7 12-3-12-19 3-3 10 11 7-4 8-12 3-1 2 11-7 12 5 1 1 6c-7-5-10-1-10 6l-1 6-2-9-11 14-9-5-1 4c-9-5-19-8-27-14-10-8-18-17-27-26l-9-13z"/><path fill="#7C7C7C" d="M129 55l1-2 4-2 2 5-5 3-2-4z"/><path fill="#5D5D5D" d="M252 138l2 1v2l-22 10 2 8-5 4 10 1 2 9-5 2v-2l1-3c-8-6-20-2-23 7v1l-6 13 4-24 31-24 9-5z"/><path fill="#4F4F4F" d="M234 159l-2-8 22-10 2 4 1 10-12-2-2 1-9 5z"/><path fill="#B6B6B6" d="M243 143l-31 24-5-5 2-12c1-4 5-8 4-9-2-3-6-6-10-6-3 1-7 5-8 8-2 5-2 11-3 16l-4-3-3 7-2-2v-14c1-8-10-19 4-24l31-7c-14-9-16-19-3-32h-17l17-6h1l11 14-3 3 3 2-10 48 14-10 8-8 2 2-8 12 10-3v5z"/><path fill="#A7A7A7" d="M231 135l-14 10 10-48-3-2 3-3-11-14c3 0 9-2 10-1 4 4 7 10 8 15 0 8-1 18-3 26 0 2-4 4-7 6l2 1-2 8 7 2z"/><path fill="#7C7C7C" d="M254 190v8l-2 1-9-15a4674 4674 0 0 1-5 5l-7-2-2-4 11-1 4-4-3-5-2-9h2l5 15 7-20c0-2-5-4-8-6l12 2-3 35z"/><path fill="#696969" d="M90 266l9 13c9 9 17 18 27 26 8 6 18 9 27 14l15 6v-2l12 1 7 2 13 3c-7 2-14 2-21 5l-8 9-2 3-4-9-2-7-7-7-24-8-8-3-8-7-8-10-9-9-9-20z"/><path fill="#AAA" d="M161 341l-1 1-12 6c-3 1-7 5-9 4-3-1-7-6-7-8 1-4 5-8 8-11l11-5 12 2-2 11z"/><path fill="#868686" d="M108 295l8 10-13-1v-4l5-5z"/><path fill="#A9A9A9" d="M89 329l1-9-5 3 1-10 5 1-2 15z"/><path fill="#878787" d="M124 312l8 3-10 6-2-7 4-2z"/><path fill="#828282" d="M163 330l-12-2-2-3 7-2 7 7z"/><path fill="#8F8F8F" d="M121 331l-3 8-10-3 13-5z"/><path fill="#828282" d="M161 341l2-11 2 7 4 9-14 19-4-2 10-22z"/><path fill="#787878" d="M187 326l-7-2 1-4 6-17-1-6-5-1 7-12 15-2c-2 2-5 5-4 6l17 18-1-13-11-11c6 1 21-21 18 7l10-7 6-8 1 1-11 18-9 16c-6 16-21 14-32 17zm12-38l-6 33 5 2c4-5 9-9 10-15 1-5-4-10-9-20z"/><path fill="#8B8B8B" d="M129 55l2 4 5-3 7 17-14-3-4-7-3-7 7-1z"/><path fill="#C9C9C9" d="M153 155l1-6-9-16-29-13-6 3c4-10 6-20 12-25s16-7 24-9l10-4 22 2 20-3h17c-13 13-11 23 3 32l-31 7c-14 5-3 16-4 24v14l-30-6z"/><path fill="#656565" d="M89 146v1l-6 11h-1l-3 4-2-2-8 5 10-27v-6l-8 3 4-14 3 7 8-7-3 5 5 5 1 15zm-12 9l4 1 2-14h-2l-4 13z"/><path fill="#868686" d="M89 146l-1-15 2-24 2-10 5 21-8 28z"/><path fill="#6F6F6F" d="M67 185l-7 29h3l9-16 1 19-1 4-3 1-15-8 6-1-6-15 1-4 1-1 7-3-9-2-3-10c-4 2-8 3-11 6-1 1 1 5 2 8l2-1-1-5h2l3 10-1 9v9c-9-12-15-24-6-38l19 4 2 5 2-4 3 4z"/><path fill="#8F8F8F" d="M55 194l-1 4 6 15-6 1-2-1-1-3 4-16z"/><path fill="#BABABA" d="M55 194l-4 16-4-5 1-9 8-3-1 1z"/><path fill="#777" d="M69 165a3860 3860 0 0 1 10-3l3-4v36l-6-5-1-4-4-10-4 4 3-5h-2l1-9z"/><path fill="#B6B6B6" d="M75 185l1 4-4 5-5-9h8z"/><path fill="#B1B1B1" d="M175 286l-7 4-10-11-3 3 12 19-12 3-5-7v10l-5-6-8-6-2 1-6-3v4h-10l1-1-8-12-6-5 3-4h1l16-1 11-3 13-5 16 1 1 2-9 1c1 4 2 9 5 12 1 2 5 2 12 4-3-2-2-1 0 0zM83 158l6-11-3 11 6 1c-7 20-9 39 12 51l3 13c1 7 0 13 2 16 2 2 8 1 13 1l11 2v4l-4 1-15-2-11 3-1 1-5-1-14-90z"/><path fill="#8C8C8C" d="M238 274l-6 8-10 7c3-28-12-6-18-7h-1l-15 2-2-11-3 1 12-4h10l-2 3 2 2 15-12 16 6 2 5z"/><path fill="#646464" d="M110 275h-1l-9-13 10 7 11-1 5-5 10-12 3-2 9-1h2l-4 17-4-2-5 8-11 3-16 1z"/><path fill="#858585" d="M181 320l-1 4-12-1v2l-15-6 1-4 8 5 12-14 2 9 5 5z"/><path fill="#ACACAC" d="M181 320l-5-5 1-6c0-7 3-11 10-6l-6 17z"/><path fill="#B1B1B1" d="M195 270l-12 4-8 12-1-4 10-3-11-4 1-4 21-1z"/><path fill="#3D3D3D" d="M110 269l-10-7 2-13 1-1 4 1c-7 8-5 14 3 20z"/><path fill="#B1B1B1" d="M145 301l-1 5-9 1 10-6z"/><path fill="#707070" d="M252 199l2-1-10 53-2 15-1-1 1-17h-2l-1 11-2-3-2-11-2 8-7-2 1 10-3-2-6-23 1-2v-6c-2-4-6-7-7-11-2-7-2-15-3-22l-1-4 6-13 3 4v2l-4 5 8 35 2 16 4 8 7-3c15-12 16-29 18-46z"/><path fill="silver" d="M241 164h-2l-10-1 5-4 9-5 7 5-3 8-6-3z"/><path fill="#515151" d="M241 173l3 5-4 4-11 1-3-1 10-7 5-2z"/><path fill="#9E9E9E" d="M208 191l1 4h-1l-1-33 5 5-4 24z"/><path fill="#515151" d="M237 170l-1 3h-3l-6 5-2-4h-4l16-4z"/><path fill="#C9C9C9" d="M217 182l-3-4v-1l7-3 1 5 5-1-1 3-9 1z"/><path fill="#7C7C7C" d="M221 174l-7 3c3-9 15-13 23-7l-16 4z"/><path fill="#747474" d="M226 181l1-3 6-5h3v2l-10 7v-1z"/><path fill="#9A9A9A" d="M241 164l6 3 3-8-7-5 2-1c3 2 8 4 8 6l-7 20-5-15z"/><path fill="#C9C9C9" d="M207 162l1 33v9l-7 3c-11-1-9 5-6 11l14 26-4 3-11-3-4-6-14-2-5-5 11-4 7-1-3-8-2-4-5 3-8 2-18-19 2-1h2l23-6-10-6 1-8 3 1 1-2-14-7-22 4-4 2-5 1-10 3-2-3 15-9 7-3 37 4 10 4 3-8 2-7c1-5 1-11 3-16 1-3 5-7 8-8 4 0 8 3 10 6 1 1-3 5-4 8l-2 13z"/><path fill="#7A7A7A" d="M177 170l-37-4-13 2c1-2 1-5 3-6l13-5 10-2 30 6 2 2v8l-8-1z"/><path fill="#9E9E9E" d="M177 170l8 1v-8l3-7 4 3-2 7-3 8-10-4z"/><path fill="#4C4C4C" d="M241 265l1 1 9 4-9 4-3 1-1-1-2-5-5-12 6-1a830 830 0 0 0 4 9z"/><path fill="#CACACA" d="M248 255h7l-4 14-3-14z"/><path fill="#A8A8A8" d="M252 199c-2 17-3 34-18 46l-7 3-4-8-2-16 5-2-5 6 13 5 15-22-3-3-16 5 3 15-16-31 13-3-2 12 3 2 4-10 4-8 4-6 9 15z"/><path fill="#ACACAC" d="M230 194l-13 3v-13-2a2392 2392 0 0 0 9 0l3 1 2 4 7 2-8 5z"/><path fill="#949494" d="M230 194l8-5 1 1-4 8-4 10-3-2 2-12z"/><path fill="#A5A5A5" d="M199 288c5 10 10 15 9 20-1 6-6 10-10 15l-5-2 6-33z"/><path fill="#606060" d="M203 282h1l11 11 1 13-17-18c-1-1 2-4 4-6z"/><path fill="#C9C9C9" d="M150 214c0 4 1 10-1 11-6 6-14 10-23 12l2-3-4-9-6 1c-7-13-4-19 10-20l4-3 18 11z"/><path fill="#B0B0B0" d="M150 214l-18-11-1-2 8-2 19 8 9 17-1 1-12 8 3 3 5-6-5 8-7 8-1 2h-1l-4-3 8-12-2-19z"/><path fill="#C9C9C9" d="M112 177l1 10 4 4c-5 7-11 13-14-2l-6 5-4-2 9-30 10 12v3z"/><path fill="#999" d="M171 179l-1 8 10 6-23 6 4-6-7-2-14-5h-3l5-3 10 2 10-4 9-2z"/><path fill="#A3A3A3" d="M112 177v-3l-2-23h9l-6 11 28-6 2 1-13 5c-2 1-2 4-3 6l-15 9z"/><path fill="#C4C4C4" d="M166 225l1-1 1 1 3 11 6 3-27 7 7-8 5-8 4-5z"/><path fill="#A0A0A0" d="M126 263l-5 5-11-20 10 6-6-9 15 2-3 16z"/><path fill="#B0B0B0" d="M137 186h3l-17 12-5-6 12-14 5-1-6 6 8 3zM179 217l5-3 2 4-4 7-3-8zM171 236l-3-11 3 6 5 5h-5z"/><path fill="#C9C9C9" d="M139 199l-8 2h-4v-2l12-2v2z"/><path fill="#B0B0B0" d="M154 191l7 2-4 6h-2l-1-8z"/><path fill="#9C9C9C" d="M144 245l4 3-9 1 1-1 4-3z"/><path fill="#C9C9C9" d="M140 248l-1 1-3 2 1-5 3 2z"/><path fill="#777" d="M77 155l4-13h2l-2 14-4-1z"/><path fill="#8F8F8F" d="M56 193l-8 3-3-10h-2l1 5-2 1c-1-3-3-7-2-8 3-3 7-4 11-6l3 10 9 2-7 3z"/><path fill="#777" d="M171 236h5l14 2-7 1 2 6-12 4 5 11-5-1 3 6h-2c-8-4-17-9-24 1l-13 5 5-8 4 2 4-17 5 2 13 1 9-12-6-3z"/><path fill="#C6C6C6" d="M174 265h2l25 3-1 2h-5l-21 1-1 4 11 4-10 3 1 4c-2-1-3-2 0 0-7-2-11-2-12-4-3-3-4-8-5-12l9-1-1-2 8-2z"/><path fill="#9B9B9B" d="M174 265l-8 2-16-1c7-11 16-5 24-1z"/><path fill="#979797" d="M110 275l16-1-16 1z"/><path fill="#6E6E6E" d="M114 245l6 9-10-6-3 1-4-1 11-3z"/><path fill="#9B9B9B" d="M200 270l1-2-25-3-3-6 5 1 18-9 9 2-2 6-18 3v1h26l-6 7h-5z"/><path fill="#606060" d="M237 256l-6 1 5 12-16-6c-2 0-3 0 0 0l-12-13 7-3 9 12 3 2-1-10 7 2 2-8 2 11z"/><path fill="#7C7C7C" d="M208 250l12 13c-3 0-2 0 0 0l-15 12-2-2 2-3 6-7-1-4h-7l2-6 3-3z"/><path fill="#BDBDBD" d="M107 249l3-1 11 20-11 1c-8-6-10-12-3-20z"/><path fill="#9C9C9C" d="M177 239l-9 12-13-1-5-2h-1l1-2 27-7z"/><path fill="#B5B5B5" d="M209 244l-14-26c-3-6-5-12 6-11l7-3v26l11 4-1 2-9 8z"/><path fill="#949494" d="M217 184v13l16 31 1 5-13-5 5-6-5 2-8-35 4-5z"/><path fill="#464646" d="M209 244l9-8 6 23-9-12-7 3-3-3 4-3z"/><path fill="#9E9E9E" d="M219 234l-11-4v-26-9h1c1 7 1 15 3 22 1 4 5 7 7 11v6z"/><path fill="#A0A0A0" d="M241 265l-2-6 1-11h2l-1 17z"/><path fill="#7C7C7C" d="M227 178l-5 1-1-5h4l2 4z"/><path fill="#606060" d="M205 247l3 3-3 3-9-2-18 9-5-11 12-4 9-1 11 3z"/><path fill="#757575" d="M137 186l-8-3 6-6 4-2 2 2 20-4v-2l14 7-1 2-3-1-9 2-10 4c2-1 5-1 2-1l-3-8-9 7-5 3z"/><path fill="#9E9E9E" d="M161 171v2l-20 4-2-2 22-4z"/><path fill="#B1B1B1" d="M194 244l-9 1-2-6 7-1 4 6z"/><path fill="#BABABA" d="M234 233l-1-5-3-15 16-5 3 3-15 22z"/><path fill="#929292" d="M166 225l-4 5-5 6-3-3 12-8z"/><path fill="#BDBDBD" d="M142 183l9-7 3 8c3 0 0 0-2 1l-10-2z"/><path fill="#656565" d="M203 259h7l1 4h-26v-1l18-3z"/></svg>