<svg xmlns="http://www.w3.org/2000/svg" viewBox="0 0 486.9 386.2"><path fill="#FFF" d="M60.7 154c11.5-4 18.2-16.4 17.7-32.5L390.9 0c1.5 24.8 14.5 33.5 39 25l22.4 319.9c-30.2.9-39.4 14.4-37.8 41.3L86.4 382c-.6-19.7-9.6-25.6-18.6-25.3l-7.1-202.7z"/><path fill="#C80E04" d="M384.4 11.1c5 21.6 20 25 29.3 25 2.8 0 5.8-.2 8.9-.8l21.1 302.2a42.8 42.8 0 0 0-27.7 12.3 41.7 41.7 0 0 0-9.6 28.3l-312.7-4c-2.6-16.4-11.3-22.4-18.2-24.4L69 158.9c10.1-6 16.4-17.5 17.4-31.9l298-115.9z"/><path fill="#FFF" d="M382.6 14.5c6.1 21 22 24.2 31.1 24.2 2.1 0 4.3-.2 6.6-.5l20.8 297.1a43.6 43.6 0 0 0-26.9 12.8 43 43 0 0 0-10.2 27.5l-308.2-4c-2.9-14.9-10.9-21.1-17.8-23.7l-6.6-187.6c9.8-6.4 16-17.7 17.3-31.5l294-114.3z"/><path fill="#C80E04" d="M380.2 19.7a34.5 34.5 0 0 0 36.4 22.9L436.8 332a45.4 45.4 0 0 0-25.6 13.4 44.8 44.8 0 0 0-10.9 26.1L99 367.6a32.4 32.4 0 0 0-17.1-22.4l-6.4-182.9c9-6.7 15-17.7 16.8-30.6l287.9-112"/><path fill="#FFF" d="M391.3 367.5c-.5 0-1 0-1.6-.2a5 5 0 0 1-3.5-3.7c-.3-1.5.3-3 1.7-4a4 4 0 0 1 3.4-.4c1.1.4 2 1.2 2.5 2.2.3.7 0 1.6-.8 2-.8.2-1.6-.1-2-.9l-.4-.3c-.4-.2-.9-.1-1-.1-.6.4-.5.8-.5 1 0 .4.6 1 1.5 1.3.6.2 1.7.3 2.9-1 1.7-1.8.9-3.6-1-7.4-1.5-2.7-3.2-6.2-3.2-10.3 0-12 4.3-19 23.3-37.1a1.5 1.5 0 0 1 2 2.1c-19.4 18.6-22.3 24.5-22.3 35 0 3.4 1.5 6.4 2.8 9 1.9 3.6 3.8 7.4.6 10.8a6 6 0 0 1-4.4 2z"/><path fill="#FFF" d="M396.6 341.9c2.6 5.8 5.8 4.3 5.8 4.3s1.1.5 1.6 3.3l1.6-2.8 2.8-.9s-2.2-.7-2.4-2c0 0 .7-3.6-1.6-6 .4 2.4-.2 3.5-.2 3.5s-9.8-11.8 14.3-29.2c-27.9 15.6-18.4 31.3-18.4 31.3s.5.8-3.5-1.5zM102.7 366l1-.2a3 3 0 0 0 2.2-2.3c.1-1-.2-1.8-1-2.4-.6-.4-1.4-.5-2.2-.3-.7.2-1.3.7-1.5 1.3a1 1 0 0 0 1.7.7l.3-.2h.5c.4.3.4.5.4.6 0 .2-.4.6-1 .8-.3.1-1 .2-1.7-.6-1-1.1-.6-2.3.6-4.6a14 14 0 0 0 2-6.4c0-7.4-2.7-11.7-14.4-22.9a1 1 0 0 0-1.3 0 1 1 0 0 0 0 1.4c12 11.4 13.8 15 13.8 21.5 0 2.1-1 4-1.8 5.6-1.1 2.2-2.3 4.5-.3 6.7.8.8 1.7 1.2 2.7 1.2z"/><path fill="#FFF" d="M100.3 353.3c-1.4 2.9-3 2.1-3 2.1s-.6.3-.8 1.7l-.8-1.4-1.4-.4s1-.4 1.2-1c0 0-.4-2 .8-3.2-.2 1.3.1 1.8.1 1.8s5-6-7.3-14.8c14.2 8 9.4 15.9 9.4 15.9s-.3.4 1.8-.8zM101.4 130.8c.3 0 .5 0 .8.2 1 .2 1.7 1 1.8 1.8.1.8-.2 1.5-.9 2a2 2 0 0 1-1.7.2 2 2 0 0 1-1.3-1c-.1-.4 0-.9.5-1 .3-.2.8 0 1 .4l.2.1c.2.1.4.1.4 0 .4-.2.3-.3.3-.4 0-.2-.3-.6-.7-.7-.3 0-1-.1-1.5.5-.9 1-.4 1.9.5 3.7.7 1.4 1.6 3.2 1.6 5.3 0 6-2.2 9.6-11.7 18.7a.8.8 0 0 1-1-1c9.7-9.5 11.2-12.4 11.2-17.7a10 10 0 0 0-1.4-4.6c-1-1.8-2-3.7-.3-5.4a3 3 0 0 1 2.2-1z"/><path fill="#FFF" d="M99.8 140.6c-1.3-2.8-2.8-2-2.8-2s-.5-.3-.7-1.6l-.8 1.3-1.3.4s1 .3 1.1 1c0 0-.3 1.7.8 2.8-.2-1.1.1-1.6.1-1.6s4.7 5.5-6.8 13.8c13.2-7.4 8.8-14.8 8.8-14.8s-.3-.4 1.6.7zM373.2 24.2l-1.6.3a5 5 0 0 0-3.6 3.7c-.2 1.5.4 3 1.8 4a4 4 0 0 0 3.3.3 3.8 3.8 0 0 0 2.6-2c.3-.9 0-1.7-.8-2-.8-.4-1.7 0-2 .8l-.4.3c-.5.2-.9.1-1 0-.6-.4-.5-.8-.5-.9 0-.5.6-1 1.5-1.4.6-.1 1.7-.2 2.9 1 1.7 1.8.8 3.7-1 7.4-1.5 2.8-3.3 6.3-3.3 10.4 0 12 4.4 19 23.3 37a1.5 1.5 0 0 0 2-2c-19.3-18.7-22.3-24.5-22.3-35 0-3.4 1.6-6.4 3-9 1.8-3.6 3.7-7.4.5-10.9a6 6 0 0 0-4.4-2z"/><path fill="#FFF" d="M379.6 45.2c2.6-5.8 5.8-4.4 5.8-4.4s1.1-.5 1.6-3.3l1.6 2.8 2.8 1s-2.2.6-2.4 2c0 0 .7 3.6-1.6 6 .4-2.5-.2-3.5-.2-3.5s-9.8 11.7 14.3 29.2c-27.9-15.6-18.4-31.3-18.4-31.3s.5-.9-3.5 1.5z"/><path fill="#FFF" d="M0 182.5L5.9 351l481-37.9-22.3-283.8z"/><g fill="#FFF"><path d="M106.2 140.8l.7-.4c.6-.2 1.2-.2 1.8.1 1.8 1 3.3 1.4 4.4 1 .7-.2 1.2-.5 1.5-1 .2-.3.2-.6.2-.8 0-.3-.2-.5-.4-.7l-3.3-1.3c-1.5-.7-2.3-1.7-2.4-3-.2-1.7.3-3.7 1.6-6a18 18 0 0 1 3.5-4.5c.7-.6 1.2-1 1.8-1.2.5-.2 1-.2 1.4 0 1 .7 1.5 1.6 1.6 2.7 0 .7-.1 1.5-.5 2.5a51.6 51.6 0 0 0-1.7 4.3c-.2 0-.4-.1-.6-.5l-.4-1c0-.3 0-.8.2-1.3l.9-2.6c.4-1.1.6-1.9.6-2.3 0-.3-.2-.4-.6-.3-1 .3-2.2 1.6-3.6 3.8-1.7 2.3-2.4 4.2-2.3 5.7 0 .8.7 1.5 1.9 2l3 1c.4.2.7.6.8 1.2 0 .7-.2 1.5-.7 2.5a5 5 0 0 1-3 2.5c-2.3.8-4.4.2-6.4-1.8-.2-.2-.3-.5 0-.7zM123.4 127.2c.7.2 1.2.6 1.5 1.1.2.2.2.5.3.7 0 .5 0 1.1-.3 2l-.5 2c-.1.4-.3.6-.5.5-.6-.1-.9-.6-1-1.3l.1-1 .4-1.5.2-1.2c0-.2-.2-.3-.3-.2-.4 0-.8.7-1.4 1.7a17 17 0 0 0-1.6 3.6c-.4 1.5-.5 2.7-.4 3.8.1 1.5.7 2 1.6 1.8 1.8-.6 3.4-2.5 4.7-5.9l.2-.3s.2 0 .2.2c.2.3.1 1-.3 2s-1 2-1.9 2.9c-.8 1-1.7 1.6-2.7 1.9-1 .4-2 .3-2.6-.3-.7-.5-1-1.4-1.2-2.5 0-1.1 0-2.3.4-3.7.5-1.6 1.2-3 2-4.2.7-1 1.5-1.8 2.2-2 .3-.1.6-.2.9-.1z"/><path d="M134.5 128.6c-.2.2-.4.5-.7.6-.2 1.5-.6 3-1.2 4.4a8.1 8.1 0 0 1-2.4 3.3l-.8.5c-1 .3-1.8.1-2.6-.7-.5-.5-.8-1.3-.9-2.2-.1-1.3.1-2.8.7-4.6.4-1.2 1-2.3 1.6-3.3.7-1 1.4-1.7 2.2-2 .7-.3 1.3-.2 1.8.4l1 .9c.4.3.6 1 .6 2v.6h.3l.3-.2c.2 0 .2 0 0 .3zm-2.5.8c-.1 0-.3 0-.5-.2-.9-.4-1.4-1.1-1.5-2.2a14.1 14.1 0 0 0-2.5 8.3c.1 1 .5 1.4 1 1.2 1-.4 2-1.8 2.8-4.4.3-1 .6-1.8.7-2.7zm.1-.8v-2.3c0-.4-.2-.6-.4-.5-.3 0-.4.5-.4 1.2.1.7.4 1.3.8 1.6zM137 122.2c-.8.3-1.4.3-1.8-.1l-.1-.3c0-.2 0-.4.4-.4l2.2-1a58.8 58.8 0 0 1 2-5c.2 0 .3.1.4.3l.3 1c0 .7 0 1.5-.4 2.5a2 2 0 0 1 1.2 0c.5 0 .7.2.7.6 0 .2 0 .3-.3.4-.6.1-1.3.4-2.2 1a174 174 0 0 0-2.9 8.7c-.2 1-.3 1.8-.2 2.6 0 1.1.5 1.6 1.2 1.4.6-.2 1.2-.8 1.8-2 .6-1 1.1-2.3 1.5-3.7l.3-.4c.1 0 .2 0 .3.2.2.4.1 1 0 1.8-.3.8-.7 1.7-1.4 2.7-.8 1.2-1.7 2-2.7 2.3-.6.2-1.3 0-1.8-.4s-.8-1.1-.9-2c0-.9 0-1.8.3-2.8.4-1.7 1.1-4.2 2.2-7.4z"/><path d="M146.3 119c.8.2 1.4.6 1.7 1.2.2.2.2.4.3.7l-.3 2-.6 2.2c-.1.4-.3.6-.6.5-.6-.1-1-.6-1-1.4v-1l.5-1.6.2-1.2c0-.3-.1-.4-.3-.3-.4.2-.9.8-1.6 1.9-.7 1.1-1.2 2.4-1.6 3.8-.5 1.5-.7 2.8-.6 3.9.2 1.6.8 2.2 1.9 1.9 1.9-.6 3.6-2.7 5-6.3l.3-.2.3.1c.1.4 0 1-.4 2-.4 1.1-1.1 2.2-2 3.2-1 1-2 1.6-3 2-1.2.4-2.2.3-2.9-.2-.7-.6-1.1-1.5-1.3-2.7 0-1.1 0-2.4.5-3.8a15 15 0 0 1 2.2-4.5 5.6 5.6 0 0 1 2.4-2.1h.9z"/><path d="M160.5 123.6c-.3 1-.9 2-1.6 3-.8 1-1.6 1.5-2.4 1.8-1.7.6-2.6 0-2.8-1.7 0-.6 0-1.3.2-2.2.2-1.1.7-2.7 1.4-4.6l1-2.9v-.1c-.3 0-1 .6-2 2a18.4 18.4 0 0 0-2.8 4.7c-1 2.4-1.7 4.7-2.2 6.8 0 .3-.2.4-.4.3-.4-.3-.6-.7-.6-1.3l.1-2a119 119 0 0 1 8-21c.3 0 .5.4.6 1.3.1 1-.1 2.3-.7 3.7l-2.9 7.1c1.4-2 2.4-3.2 3.3-3.4.4 0 .7 0 1 .3.4.3.6.7.6 1.3l-.1 1.3-2.2 6.3c-.3.8-.3 1.5-.3 2 0 1 .5 1.3 1 1 .6-.2 1.2-.9 1.9-2 .6-1.1 1-2.3 1.5-3.6 0-.2.1-.3.2-.3l.3.1c.2.4.2 1.1-.1 2zM171.5 105.3c-.6 0-1-.5-1.3-1.2v-.3l.3-.2c1-.3 2.3-1 4-2 1.9-.9 3-1.5 3.5-1.6 1.3-.5 2.2-.3 2.8.7v.3c0 .2-.2.2-.4.3L177 103l-3 1.7a217 217 0 0 0-3.3 8.8l2-1c1.5-.6 2.4-.3 2.8.7v.3c0 .1 0 .2-.3.3-1.3.4-3.2 1.4-5.5 2.8-1.2 3.4-2 6-2.5 8-.1.4-.3.5-.5.3-.5-.2-.7-.6-.8-1.3 0-.6 0-1.3.2-2 .7-3.5 2.5-8.8 5.4-16.2zM180 120.5c-1.6.6-2.5 0-2.7-1.8 0-.6 0-1.3.2-2.2a42 42 0 0 1 3.7-10c.2 0 .4.2.6.6.2.3.2.6.3 1 0 .6 0 1.3-.3 2.1a132 132 0 0 0-2.1 6.3 7 7 0 0 0-.3 2.2c0 .7.3 1 .9.8.6-.3 1.4-1 2-2.2a16 16 0 0 0 1.7-3.7c.1-.4.3-.5.5-.2.3.4.3 1.1 0 2.1-.4 1.2-1 2.3-1.8 3.2-.9 1-1.8 1.5-2.6 1.8zm3.7-17.3c.2.2.3.5.3.8.1 1-.2 1.7-1 2-.4.1-.8 0-1.1-.4-.3-.3-.4-.6-.5-1 0-.4 0-.8.2-1.2.2-.4.4-.7.7-.8.6-.2 1 0 1.4.6z"/><path d="M186.7 111c-.6 2.1-.8 3.8-.7 4.9.1 1 .5 1.4 1.1 1.2.8-.1 1.6-.9 2.5-2.2 1-1.3 1.6-2.8 2.2-4.3 0-.3.2-.4.3-.5.2 0 .3 0 .4.2.2.5.2 1.3-.1 2.2-.3.8-.9 1.8-1.8 3a7.4 7.4 0 0 1-3.3 2.6c-2 .6-3-.2-3.3-2.4v-2a51.4 51.4 0 0 1 7.5-19l.7.1c.7.3 1 1 1.2 2v1.4a28.5 28.5 0 0 1-6.6 12.7zm.5-1.7a26.9 26.9 0 0 0 5-11.2v-.2c-.3 0-.9.9-1.7 2.8a94.7 94.7 0 0 0-3.3 8.6z"/><path d="M194.2 109.4c-.3 1-.3 2-.3 2.7.2 1.7 1 2.4 2.3 2 2.3-.6 4.4-3 6.3-7 .1-.4.3-.5.5-.2.3.4.2 1.2-.3 2.3a12.3 12.3 0 0 1-6.3 6c-1.4.4-2.6.4-3.5-.2-.8-.6-1.3-1.6-1.5-3a10 10 0 0 1 .6-4.1c.7-2 1.6-3.7 2.7-5.1 1-1.3 2-2.2 3-2.5a2 2 0 0 1 1-.1c1 .2 1.7.5 2.3 1 .2.2.3.6.4 1 .1 1.3-.3 2.6-1 4-1 1.8-2.2 2.9-3.5 3.3-.9.4-1.8.3-2.7-.1zm.2-.9c.4.2.8.2 1.2 0 .8-.3 1.7-1.3 2.6-3 .9-1.7 1.3-2.9 1.2-3.7 0-.3-.2-.4-.5-.3-.6.2-1.3.9-2.1 2a16.6 16.6 0 0 0-2.4 5z"/><path d="M216 104.7c-.3 1.2-1 2.4-1.9 3.4-1 1-2 1.8-3 2.1-2 .7-3.1.1-3.3-1.7 0-.7 0-1.5.2-2.5.3-1.3 1-3 1.9-5.2l1.2-3.2-.1-.1c-.3-.1-1.2.7-2.5 2.2a21.6 21.6 0 0 0-3.3 5.3 57 57 0 0 0-2.7 7.6c-.1.5-.3.6-.6.4-.4-.3-.6-.8-.7-1.4 0-.6 0-1.3.2-2.2a132 132 0 0 1 9.8-23.4c.5-.2.7.3.8 1.3.1 1.1-.1 2.5-.8 4.1l-3.6 8c1.6-2.3 3-3.7 4-3.9.4-.1.8 0 1.2.3.4.3.7.8.7 1.4 0 .4 0 1-.2 1.5l-2.7 7c-.3 1-.4 1.7-.4 2.3.1 1 .6 1.3 1.3 1 .7-.2 1.5-1 2.3-2.4.7-1.2 1.3-2.5 1.8-4l.3-.3.3.1c.3.5.3 1.2-.1 2.3z"/><path d="M226.3 92.7l1.1-2.7.5-.5c.3-.1.6 0 .8.5l.3 1c0 .8 0 1.6-.4 2.5l-3 7.3a7 7 0 0 0-.4 2.6c.1.8.5 1 1.1.8.7-.3 1.5-1.1 2.4-2.5.8-1.1 1.4-2.5 2-4.1.2-.5.4-.6.6-.2.3.4.3 1.2 0 2.3-.5 1.2-1.2 2.4-2.1 3.4-1 1.2-2 2-3 2.2-2 .6-3.1 0-3.3-1.9-1.3 2.4-2.8 3.8-4.3 4.3-1 .3-1.7.2-2.3-.2-.5-.5-.9-1.2-1-2.2a11 11 0 0 1 1.4-6c1.2-2.3 2.5-4.3 3.8-5.8a8.6 8.6 0 0 1 3.3-2.5c.8-.3 1.4-.3 1.8 0 .4.4.7 1 .7 1.7zm-2.7 6.6c1.2-3 1.8-5 1.7-6 0-.6-.3-.8-.7-.7-.6.1-1.4 1-2.5 2.3-1 1.5-2 3.2-2.8 5-1 2.3-1.5 4.1-1.4 5.5.1.8.4 1.1 1 1 1.3-.4 3-2.8 4.7-7.1zM245.1 79c-1.2.4-2 .2-2.6-.6-.3-.3-.1-.6.3-.8a34 34 0 0 0 4.6-2.8c2-1.3 3.3-2.1 4.2-2.5 2.4-1 4.1-.5 5.2 1.3.3.6.5 1.2.5 1.9.2 1.4-.2 3-1.1 5a28.4 28.4 0 0 1-11 10.6 4 4 0 0 1-2.5.4c-.9 2.4-1.8 5.3-2.8 8.7-.2.4-.4.5-.7.3-.4-.3-.7-.8-.8-1.6l.1-1.9a124.5 124.5 0 0 1 6.6-18zm-1.4 10.1c3.6-2 6.5-4.4 8.8-7.3 2-2.6 3-4.8 2.8-6.4-.1-1.2-.8-1.6-2-1.1-.7.2-1.7.8-2.9 1.6l-2.8 2c0 1.1-.3 2.6-1.2 4.6l-2.7 6.6zM261.4 80.6c1.3-.6 2.7-1.7 4.2-3.2.5-.5.8-.7 1.1-.5.8.5 1.3 1.1 1.4 2 0 .5-.1 1-.4 1.5a26.5 26.5 0 0 0-4 7.8c-.2.7-.2 1.3-.2 1.8.1 1.2.6 1.6 1.5 1.4.8-.3 1.7-1 2.5-2.4.8-1.2 1.5-2.6 2-4.3.2-.5.4-.6.7-.3.3.5.4 1.3 0 2.4a9 9 0 0 1-5.3 5.7c-1.1.3-2 .2-2.7-.2-.7-.4-1-1.1-1.2-2.1-.2-2.2 1.3-5.7 4.5-10.7a12.7 12.7 0 0 1-4.7 3.1l-3 6.6c-1.3 3.1-2 5.4-2.2 6.9 0 .5-.3.6-.7.4-.6-.4-1-1-1-1.8-.2-.8 0-1.7.5-2.8.4-1.2 2-4.1 4.5-9-.6-.1-.9-.5-1-1 0-1 .3-2 1.1-3.5.8-1.3 1.5-2 2-2.3.6-.2 1 0 1 .8.1.9 0 2.1-.6 3.7z"/><path d="M272.8 82.3a9 9 0 0 0-.3 3.1c.2 2 1.1 2.8 2.8 2.3 3-.9 5.8-3.7 8.2-8.4.3-.5.5-.6.8-.2.3.4.2 1.3-.5 2.6-.9 1.6-2 3-3.5 4.3-1.5 1.3-3 2.2-4.7 2.8-1.9.6-3.3.6-4.5 0-1.1-.6-1.7-1.7-1.9-3.3-.1-1.4.2-3 .9-4.8.9-2.2 2-4.2 3.5-6a10 10 0 0 1 3.9-3c.5-.1 1-.2 1.4-.1 1 .2 2 .5 2.8 1 .3.3.5.7.5 1.3.1 1.3-.3 2.8-1.4 4.5a9 9 0 0 1-4.5 4c-1.1.4-2.3.4-3.5 0zm.3-1c.5.2 1 .1 1.5 0 1.1-.4 2.3-1.6 3.5-3.7 1.1-1.9 1.7-3.3 1.6-4.2 0-.4-.3-.5-.7-.4-.7.3-1.6 1.1-2.7 2.5a19.5 19.5 0 0 0-2.9 5l-.3.9z"/><path d="M284.5 78.6c2-3.5 3.5-6.4 4.5-8.5 0-1.4.5-2.6 1.4-3.6.6-.8 1.2-1.3 1.8-1.5.5-.2.8 0 .8.4l-.9 2.4a25.2 25.2 0 0 0 .8 5.7c.4 1.6.5 2.8.6 3.6 0 2-.5 3.6-1.7 4.8 2.5-1.7 4.4-4.2 5.7-7.6 0-.2.2-.4.4-.4.2-.1.3 0 .4 0 .4.6.3 1.5-.4 3a13 13 0 0 1-7.6 7c-3.2 1.1-5.5 1-7-.7-.5-.6-.8-1.4-1-2.3 0-1.3.3-2.4 1-3.3l.5-.4c.3 0 .5.1.6.5l.1.9zm4.7-6l-4 8c.9 2 2 3 3.3 2.5 1.3-.4 1.8-2.3 1.5-5.5l-.8-5z"/><path d="M300.7 72.7a9.2 9.2 0 0 0-.4 3.3c.2 2 1.3 2.8 3.1 2.3 3.3-1 6.3-4 9-9 .3-.4.5-.5.8-.1.4.4.2 1.4-.6 2.7-.9 1.7-2.1 3.2-3.8 4.5a16.3 16.3 0 0 1-5.1 3c-2 .7-3.6.8-4.8.1-1.2-.6-2-1.8-2-3.4-.2-1.4 0-3.1.8-5 1-2.4 2.3-4.5 3.9-6.3a11 11 0 0 1 4.2-3.2c.6-.2 1.1-.3 1.6-.2 1.2.2 2.2.5 3 1.1.3.2.5.6.6 1.2.1 1.4-.4 3-1.6 4.8a9.9 9.9 0 0 1-4.8 4.2 6 6 0 0 1-3.9 0zm.3-1c.6.1 1.2 0 1.7-.1 1.2-.4 2.5-1.7 3.8-3.8 1.2-2 1.8-3.6 1.7-4.5 0-.4-.3-.6-.7-.4-.8.3-1.8 1.2-3 2.7a20.5 20.5 0 0 0-3.1 5.3l-.4.8z"/><path d="M319 61.3a35 35 0 0 1 3.5-4.2c1.4-1.5 2.5-2.3 3.3-2.5.6 0 1.2 0 1.8.4.5.3.8.9.9 1.6 0 .5 0 1.1-.3 1.7l-4 8.7a6.7 6.7 0 0 0-.6 2.9c.2 1.1.7 1.5 1.8 1 1.8-.6 3.8-3.2 6-7.9.2-.5.5-.6.8-.3.5.4.4 1.3-.2 2.8a13 13 0 0 1-2.9 4.1 11 11 0 0 1-4.2 2.8c-3 1-4.5.4-4.7-1.9-.1-.8 0-1.8.3-3a36 36 0 0 1 2.7-6.3c1.2-2.4 1.8-3.7 1.7-4v-.1c-.4 0-1.2.5-2.3 1.6a32.7 32.7 0 0 0-4 4.6 58.7 58.7 0 0 0-6 12.7c-.3.5-.6.7-1 .5-.6-.3-1-1-1.1-1.8 0-.6 0-1.3.2-2.2a102.6 102.6 0 0 1 6.6-14.7c.3-.6.7-.7 1-.4.5.4.7 1 .8 1.7 0 .6 0 1.3-.2 2.2z"/><path d="M336.1 51c-1.6.7-2.7.7-3.4.2-.2-.1-.3-.3-.3-.4 0-.3.2-.5.8-.6l4.2-1.7a89 89 0 0 1 3.5-6.7c.2-.4.4-.6.7-.7.2 0 .4 0 .6.2.3.4.4 1 .5 1.4 0 1-.2 2.1-.8 3.6.7-.2 1.5-.4 2.3-.3.9 0 1.3.3 1.3.8 0 .2-.2.5-.7.7-1 .2-2.4.8-4.1 1.6a237.2 237.2 0 0 0-6 12.9 8.3 8.3 0 0 0-.6 3.6c.1 1.6.9 2.1 2.2 1.7 1.1-.3 2.3-1.3 3.6-3 1.2-1.6 2.2-3.4 3.1-5.5.2-.3.3-.5.6-.6.2 0 .4 0 .5.2.3.5.2 1.4-.3 2.6-.4 1.2-1.3 2.5-2.5 4-1.8 1.8-3.5 3-5.3 3.6-1.3.4-2.5.4-3.4-.1-1-.6-1.6-1.5-1.7-2.8-.1-1.1.1-2.4.6-3.8 1-2.6 2.5-6.2 4.6-10.8z"/><path d="M343.8 58.2c2.4-3.9 4.2-7 5.4-9.4 0-1.5.6-2.9 1.6-4 .7-.9 1.4-1.4 2.1-1.7.7-.2 1 0 1 .4.1.2-.3 1.1-1 2.7a29.7 29.7 0 0 0 .9 6.1l.6 4c0 2.2-.6 4-2 5.3 3-2 5.2-4.7 6.7-8.5.2-.3.3-.4.6-.5.2 0 .4 0 .5.2.4.5.3 1.5-.5 3-1.8 3.8-5 6.5-9.2 8-3.7 1.4-6.5 1.2-8.2-.5-.6-.6-1-1.4-1.1-2.5-.1-1.4.3-2.6 1.2-3.6.3-.2.4-.4.6-.4.3-.1.5 0 .6.5l.2 1zm5.5-6.7c-1 2.3-2.7 5.2-4.8 8.8 1 2.4 2.3 3.2 4 2.7 1.5-.5 2-2.5 1.7-6l-.9-5.5z"/></g><path d="M431.2 233.4l2.2.9c15.2 3.7 21.2 11 22 26.6.5 6.3.8 12.6 1.2 19 .5 6 .7 12.2 5.3 18.3l-37.8 3.1c-3.7-4-4.1-8.9-4.4-13.7-.6-7.8-1-15.6-1.3-23.4-.6-10.3-5.1-15-15.4-14.8-6 0-12.2 1-18.8 1.6l2.5 53.4-33 2.8-5.4-125.6c1-.4 1.7-1 2.4-1.1 19.6-4 39.1-8 58.8-11.5a52.8 52.8 0 0 1 25.7 1.2c8.8 2.9 14 8.9 15.1 18 .6 5 .8 10 1.1 15 .8 12.2-5 21-15.1 27.2-.8.6-1.8 1-2.6 1.5l-2.5 1.5zm-48-.7c8.2-1.9 15.7-3.2 23-5.4 6.2-1.9 9.2-6.8 9-13.3-.1-5-.3-10-.9-15-.7-6.4-4-9.8-10.5-9.3-7.4.5-14.7 2-22.4 3l1.8 40zM334.6 290.3v18.5l-76.3 6.3-3-115.2c25-5 49.5-10.1 74.9-15.4v18.1l-47 9v31.8l38.5-5.8.8 18a76376 76376 0 0 0-37.9 5.3v33.9c16.8-.7 32.8-3.3 50-4.5zM239.6 241.4l-23.2 3.7v-11.4c-.3-7.2-3.5-9.9-10.6-8.9-8.1 1.2-12 5.6-11.9 14l.8 54.4c.1 8 2.9 11 9.7 11 8 0 12.9-4 13-11.2.2-6.7 0-13.3 0-20.4l-10.4.7v-15.7l32.7-5c.3 1.7.6 2.9.6 4.1.3 11 .7 22 .7 33a27 27 0 0 1-16.5 26.3 53.7 53.7 0 0 1-34.2 3.7c-11-2.4-17.3-9.5-17.6-20.7a1614 1614 0 0 1-.7-59.4c.1-10.9 5.7-19 15.2-24.2 10.6-5.9 22-8.4 34.1-7a19.6 19.6 0 0 1 18.2 19.2c.3 4.3 0 8.7 0 13.8zM115.6 228.5l28.3-5.8 21.5 100-21.2 1.8-3.8-18.1-22.7 2.3-3.5 18.3c-5.6.5-11 1-17.2 1.4l18.6-99.9zm4.5 66c6.4-1 11.8-1.6 17.5-2.4l-8.5-44.3h-.9l-8.1 46.6zM326.7 142.8v33.4l-19.4 4-2.8-78.8c5.2-1.6 10.1-3.2 15-4.5 8.7-2.4 17.4-4.6 26.1-6.8 2-.4 4-.5 6-.4 8.5.1 12.9 4.3 13.7 12.7.2 2.1.2 4.3.3 6.5.5 8.7-3.9 14.9-11 19.7.4.4.7.7 1 .8 7.4 1.4 10.8 4.9 11.6 12.3.3 3.1.2 6.3.5 9.5l1.8 15.8-21.1 4.5c-.7-3-1.6-5.6-1.8-8.3-.5-4.8-.3-9.6-.7-14.4-.5-6.7-3.2-8.9-9.9-8-3 .4-6.1 1.3-9.3 2zm-2.1-35.4l1 23.8c5-1.6 9.2-2.7 13-4.4 3.3-1.3 5.5-4 5.6-7.6.2-3.5 0-7-.4-10.4-.6-3.8-2.5-5.2-6.3-4.6-4.2.8-8.3 2-13 3.2zM444.6 85.2l-21.9 6-1-1.1c-1.5-8.3-3.3-9.5-11.5-7.4-1.9.5-3.8 1.1-5.6 2-7.4 4-7.7 12.6-.5 16.7 3.3 1.9 7 3 10.7 4.1 6.7 2.2 13.5 3.7 20 6.3 17.6 7 15.7 24.7 6 33.5a66.1 66.1 0 0 1-46 14.6c-9.3-.7-18.1-5.3-16.5-21.3l21-5.2.5 5.9c.6 4.9 2.2 6.6 7 6.4 3.5-.1 7.1-.7 10.2-2.1 7.4-3.5 7.9-12.4.8-16.7-3.6-2.2-7.8-3.6-11.9-5-4.8-1.7-10-2.8-14.8-4.6-16.8-6.3-19.9-22.8-6.5-35 8.5-7.8 19-11.5 30-13.7 5-1 10-1.5 15-1.2 10.1.5 15.4 6.8 15 17.8zM293.6 104.5l.5 11.5-30 8.6v20l24-6.1v11.4l-23.3 6v21.8l31-6.7v11.8l-48.3 10.4-1.9-74.6 48-14zM221 168.8l-6.9 1.1-.5-10.4 22-5.7c.4 1.7.8 2.7.8 3.8l.4 20c.1 8-3.6 14-10.2 18.3a39 39 0 0 1-23.3 6c-7.9-.5-12.6-5.2-12.8-13.2-.3-12.5-.4-25-.5-37.4 0-7.3 3.2-13 8.9-17 6.9-5 14.7-7.9 23.2-8 8.8-.1 13 3.6 13.8 12.3.2 2.4 0 5 0 8l-15 4-1.5-11.4c-8.9-2.2-14 1.6-14 9.7l.5 33.4c.1 6 1.2 7.7 4.7 7.9 5.6.3 10-3 10.3-8 .3-4.3.1-8.5.1-13.4zM180.8 207.4c-4.5 1-9 2-14.3 3l-16.1-40.6-.9.1v44.2l-12 2.6v-66.2l16.4-4.9 13.6 33.4.5-.1v-37.3l12.8-3.8v69.6zM67 316.8l27.3-2.5v14.4L51 332.2v-90.4l16-3.2v78.2zM132 218l-13.2 2.6-2.7-11-13.9 3.2-2.3 12-11.3 2.4 12.2-65.9 18.1-5.4 13 62zm-22.5-44h-.7l-5 29.3 10.8-2.7-5-26.6zM51.4 235.3v-59.6c7.5-2 14.7-4.6 22.1-6 7.4-1.3 11.6 2.4 11.8 10 .2 11.2.2 22.5-.2 33.8-.2 8-4.4 14-12.2 16.5-6.8 2.2-14 3.5-21.5 5.3zm10.9-12.1c9.9-1.1 11.2-2.5 11.2-11.7 0-8.4.2-17 .1-25.4 0-2-.5-4-1-6.9l-10.3 2.5v41.5z"/></svg>