<?xml version="1.0" encoding="utf-8"?>
<!-- Generator: Adobe Illustrator 22.0.1, SVG Export Plug-In . SVG Version: 6.00 Build 0)  -->
<svg version="1.1" id="Layer_1" xmlns="http://www.w3.org/2000/svg" xmlns:xlink="http://www.w3.org/1999/xlink" x="0px" y="0px"
	 viewBox="0 0 608.1497 74.2521" enable-background="new 0 0 608.1497 74.2521" xml:space="preserve">
<path d="M124.4906,0.6866c29.767,0,38.436-0.467,42.436,17.813h-93.727V0.6866H124.4906z M146.1224,45.3041
	c0,5.184-2.4,10.4709-18.196,10.4709h-32.389v-30.442h-22.338v48.739h54.727c35.94,0.5681,38.256-4.395,40.535-28.7679V27.9861
	c-0.111-0.916-0.227-1.799-0.348-2.653h-22.136c0.168,0.775,0.219,1.653,0.145,2.653V45.3041z M276.9344,73.9871l-26.813-48.74
	l-0.053-0.0941h-0.105h-25.332h-0.299l0.143,0.264l10.374,19.361h-25.993h-0.263l0.097,0.247l6.088,15.22l0.044,0.114h0.122h28.098
	l7.54,13.799l0.05,0.094h0.106h26.039h0.302L276.9344,73.9871z M191.2938,74.1551l25.64-48.741l0.138-0.262h-0.296h-26.344h-0.105
	l-0.051,0.092l-27.474,48.742l-0.151,0.266h0.307h28.178h0.108L191.2938,74.1551z M246.3615,18.4134l-1.754-3.179
	c-0.049-0.147-4.992-14.73-17.516-14.73c-0.123,0-0.246,0-0.37,0.003c-0.237,0.007-2.31,0.01-6.161,0.01
	c-6.637,0-16.236-0.01-16.236-0.01h-0.105l-0.051,0.092l-10.04,17.812l-0.151,0.2679h0.307h51.92h0.302L246.3615,18.4134z
	 M306.502,74.0721v-24.696l20.931-23.925l0.259-0.298h-0.393h-26.658h-0.068l-0.051,0.046l-4.861,4.342h-0.297l-4.648-4.339
	l-0.051-0.049h-0.071h-25.459h-0.382l0.244,0.293l19.948,23.927v24.699v0.18h0.178h21.2h0.179V74.0721z M285.9192,18.3968
	l-12.562-17.813l-0.054-0.077h-0.093h-28.619h-0.382l0.244,0.294l14.848,17.814l0.054,0.064h0.084h26.333h0.345L285.9192,18.3968z
	 M333.4053,18.6175l15.584-17.813l0.259-0.297h-0.395h-30.043h-0.091l-0.054,0.072l-13.13,17.814l-0.211,0.2859h0.355h27.59h0.082
	L333.4053,18.6175z M341.1744,45.6973c0.883,30.945,18.18,26.691,25.629,28.032c2.68,0.48,65.191,0,65.191,0l-0.137-18.008
	l-55.374,0.072c-8.503,0.243-14.536-1.699-14.679-10.684v-16.242c-0.27-1.34-0.417-2.503-0.47-3.5359h-20.084
	c-0.047,1.134-0.076,2.299-0.076,3.5359V45.6973z M432.988,18.4164l0.139-18.215c0,0-46.4-0.094-46.97-0.101
	c-27.261-0.3199-41.067-1.014-44.252,18.399L432.988,18.4164z M513.4663,46.6731c0,10.207-6.963,9.1201-27.243,9.1201
	c-22.288,0-26.775,0.337-26.775-9.1201c0,0,0.104-20.847,0.166-21.34h-22.453c-0.009,1.94-0.006,32.157-0.006,32.157
	c-0.315,8.308,2.529,16.024,14.121,16.334c0.151,0.0031,70.658,0.1591,70.418,0c14.303-0.7939,14.206-11.571,14.064-17.473
	c0,0-0.008-30.501-0.013-31.018h-22.46C513.3672,25.8232,513.4663,46.6731,513.4663,46.6731z M454.0768,0.5527
	c-13.215-0.043-15.85,8.317-16.657,17.946h97.968c-1.15-10.48-7.0574-17.85-18.4874-17.946
	C516.9003,0.5527,454.4918,0.3528,454.0768,0.5527z M0,25.3315h70.923v-6.833H0V25.3315z M608.1497,18.4988h-70.485
	c0.224,2.0471,0.333,4.3181,0.357,6.832h70.1281V18.4988z M559.3618,63.7967c0-5.403-4.347-9.63-9.808-9.63
	c-5.577,0-9.983,4.227-9.983,9.63c0,5.401,4.406,9.688,9.925,9.688C555.0148,73.4847,559.3618,69.1977,559.3618,63.7967z
	 M542.0378,63.7967c0-4.229,3.231-7.693,7.401-7.693c4.285,0,7.455,3.464,7.455,7.75c0,4.231-3.17,7.6949-7.34,7.636
	C545.2687,71.4897,542.0378,68.0846,542.0378,63.7967z M547.9708,64.9717h1.057c1.231,0,1.819,0.468,1.996,1.468
	c0.292,1.174,0.467,1.9969,0.763,2.348h2.347c-0.177-0.351-0.41-0.882-0.703-2.348c-0.292-1.2921-0.764-2.057-1.705-2.35v-0.117
	c1.12-0.352,1.998-1.115,1.998-2.29c0-0.941-0.413-1.644-0.998-2.055c-0.647-0.468-1.468-0.762-3.287-0.762
	c-1.587,0-2.82,0.175-3.7,0.294v9.628h2.232V64.9717z M548.0298,60.6266c0.231-0.06,0.646-0.119,1.233-0.119
	c1.407,0,2.053,0.588,2.053,1.47c0,0.998-0.998,1.407-2.229,1.407h-1.0569V60.6266z"/>
</svg>
