<?xml version="1.0" encoding="utf-8"?>
<!-- Generator: Adobe Illustrator 22.0.1, SVG Export Plug-In . SVG Version: 6.00 Build 0)  -->
<svg version="1.1" id="Layer_1" xmlns="http://www.w3.org/2000/svg" xmlns:xlink="http://www.w3.org/1999/xlink" x="0px" y="0px"
	 viewBox="0 0 62.903 11.696" enable-background="new 0 0 62.903 11.696" xml:space="preserve">
<g>
	<path d="M0,0h0.896h2.789c1.184,0,2.083,0.463,2.698,1.39s0.923,2.283,0.923,4.068c0,1.967-0.319,3.463-0.958,4.485
		s-1.575,1.534-2.81,1.534H0.896H0V0z M1.799,9.502h1.518c0.73,0,1.278-0.329,1.644-0.988s0.548-1.646,0.548-2.963
		c0-1.192-0.17-2.086-0.51-2.683c-0.34-0.596-0.852-0.894-1.535-0.894H1.799V9.502z"/>
	<path d="M10.577,11.696c-0.969,0-1.716-0.398-2.241-1.195S7.547,8.571,7.547,7.098c0-1.359,0.268-2.422,0.803-3.189
		c0.535-0.768,1.277-1.152,2.227-1.152c0.973,0,1.722,0.392,2.247,1.176c0.525,0.783,0.788,1.899,0.788,3.346
		c0.008,0.167-0.002,0.336-0.029,0.507H9.241c0.039,0.671,0.15,1.174,0.334,1.507c0.234,0.416,0.625,0.625,1.172,0.625
		c0.254,0,0.489-0.096,0.706-0.289c0.217-0.193,0.347-0.424,0.39-0.695h1.711c-0.145,0.864-0.479,1.541-1.005,2.03
		C12.023,11.452,11.366,11.696,10.577,11.696z M11.86,6.356c-0.039-0.51-0.141-0.908-0.305-1.195c-0.215-0.38-0.549-0.57-1.002-0.57
		c-0.434,0-0.764,0.221-0.99,0.664C9.422,5.536,9.321,5.903,9.258,6.356H11.86z"/>
	<path d="M15.774,11.696c-0.59,0-1.064-0.225-1.424-0.675s-0.539-1.042-0.539-1.776c0-0.776,0.162-1.396,0.486-1.862
		c0.324-0.466,0.797-0.759,1.418-0.878l1.107-0.203c0.289-0.052,0.529-0.141,0.721-0.265c0.082-0.052,0.146-0.146,0.19-0.281
		s0.062-0.273,0.05-0.414c-0.023-0.239-0.115-0.427-0.275-0.562c-0.191-0.161-0.467-0.242-0.826-0.242
		c-0.32,0-0.57,0.104-0.75,0.312s-0.275,0.502-0.287,0.882h-1.611c0.035-0.994,0.289-1.738,0.762-2.233
		c0.473-0.495,1.166-0.742,2.08-0.742c0.793,0,1.419,0.223,1.878,0.668c0.459,0.446,0.688,1.054,0.688,1.826v4.751
		c0,0.38,0.023,0.647,0.07,0.8c0.047,0.155,0.141,0.276,0.281,0.364v0.008v0.304h-0.908h-0.908V11.47
		c-0.074-0.344-0.123-0.679-0.146-1.007l-0.006-0.016C17.298,11.28,16.614,11.696,15.774,11.696z M17.796,8.339V7.363
		c-0.195,0.146-0.453,0.263-0.773,0.351l-0.621,0.156c-0.293,0.073-0.516,0.207-0.668,0.402c-0.152,0.195-0.229,0.441-0.229,0.738
		c0,0.338,0.068,0.604,0.205,0.796c0.137,0.193,0.328,0.289,0.574,0.289c0.539,0,0.969-0.252,1.289-0.757
		c0.063-0.099,0.115-0.245,0.158-0.437C17.774,8.709,17.796,8.521,17.796,8.339z"/>
	<path d="M20.486,0h0.838h0.844v11.478H21.33h-0.844V0z"/>
	<path d="M25.818,11.696c-0.969,0-1.715-0.398-2.241-1.195s-0.788-1.931-0.788-3.404c0-1.359,0.268-2.422,0.803-3.189
		c0.535-0.768,1.277-1.152,2.226-1.152c0.973,0,1.722,0.392,2.247,1.176c0.525,0.783,0.788,1.899,0.788,3.346
		c0.008,0.167-0.002,0.336-0.029,0.507h-4.342c0.039,0.671,0.15,1.174,0.334,1.507c0.234,0.416,0.625,0.625,1.172,0.625
		c0.254,0,0.489-0.096,0.706-0.289c0.217-0.193,0.347-0.424,0.39-0.695h1.711c-0.145,0.864-0.479,1.541-1.005,2.03
		C27.264,11.452,26.607,11.696,25.818,11.696z M27.101,6.356c-0.039-0.51-0.141-0.908-0.305-1.195
		c-0.215-0.38-0.549-0.57-1.002-0.57c-0.434,0-0.764,0.221-0.99,0.664c-0.141,0.281-0.242,0.648-0.305,1.101H27.101z"/>
	<path d="M29.475,2.982h0.797h0.803v1.523c0.059-0.167,0.125-0.328,0.199-0.484c0.395-0.844,0.904-1.265,1.529-1.265l0.381,0.008
		v2.288c-0.148-0.021-0.316-0.031-0.504-0.031c-0.512,0-0.894,0.169-1.146,0.507c-0.252,0.338-0.378,0.851-0.378,1.538v4.411h-0.838
		h-0.844V2.982z"/>
	<path d="M38.523,2.038h-2.602V1.023V0h7.002v1.015v1.023h-2.602v9.44h-0.896h-0.902V2.038z"/>
	<path d="M43.906,11.696c-0.969,0-1.716-0.398-2.241-1.195s-0.788-1.931-0.788-3.404c0-1.359,0.268-2.422,0.803-3.189
		c0.535-0.768,1.277-1.152,2.227-1.152c0.973,0,1.722,0.392,2.247,1.176c0.525,0.783,0.788,1.899,0.788,3.346
		c0.008,0.167-0.002,0.336-0.029,0.507H42.57c0.039,0.671,0.15,1.174,0.334,1.507c0.234,0.416,0.625,0.625,1.172,0.625
		c0.254,0,0.489-0.096,0.706-0.289c0.217-0.193,0.347-0.424,0.39-0.695h1.711c-0.145,0.864-0.479,1.541-1.005,2.03
		C45.352,11.452,44.695,11.696,43.906,11.696z M45.189,6.356c-0.039-0.51-0.141-0.908-0.305-1.195
		c-0.215-0.38-0.549-0.57-1.002-0.57c-0.434,0-0.764,0.221-0.99,0.664c-0.141,0.281-0.242,0.648-0.305,1.101H45.189z"/>
	<path d="M49.104,11.696c-0.59,0-1.064-0.225-1.424-0.675s-0.539-1.042-0.539-1.776c0-0.776,0.162-1.396,0.486-1.862
		c0.324-0.466,0.797-0.759,1.418-0.878l1.107-0.203c0.289-0.052,0.529-0.141,0.721-0.265c0.082-0.052,0.146-0.146,0.19-0.281
		s0.062-0.273,0.05-0.414c-0.023-0.239-0.115-0.427-0.275-0.562c-0.191-0.161-0.467-0.242-0.826-0.242
		c-0.32,0-0.57,0.104-0.75,0.312s-0.275,0.502-0.287,0.882h-1.611c0.035-0.994,0.289-1.738,0.762-2.233
		c0.473-0.495,1.166-0.742,2.08-0.742c0.793,0,1.419,0.223,1.878,0.668c0.459,0.446,0.688,1.054,0.688,1.826v4.751
		c0,0.38,0.023,0.647,0.07,0.8c0.047,0.155,0.141,0.276,0.281,0.364v0.008v0.304h-0.908h-0.908V11.47
		c-0.074-0.344-0.123-0.679-0.146-1.007l-0.006-0.016C50.627,11.28,49.944,11.696,49.104,11.696z M51.125,8.339V7.363
		c-0.195,0.146-0.453,0.263-0.773,0.351l-0.621,0.156c-0.293,0.073-0.516,0.207-0.668,0.402c-0.152,0.195-0.229,0.441-0.229,0.738
		c0,0.338,0.068,0.604,0.205,0.796c0.137,0.193,0.328,0.289,0.574,0.289c0.539,0,0.969-0.252,1.289-0.757
		c0.063-0.099,0.115-0.245,0.158-0.437C51.104,8.709,51.125,8.521,51.125,8.339z"/>
	<path d="M53.756,2.982h0.797h0.803v1.367c0.074-0.239,0.168-0.453,0.281-0.64c0.37-0.636,0.908-0.953,1.614-0.953
		c0.562,0,1.021,0.252,1.381,0.758c0.14,0.193,0.251,0.406,0.333,0.64l0.205-0.445c0.349-0.636,0.855-0.953,1.521-0.953
		c0.692,0,1.233,0.273,1.625,0.82c0.392,0.547,0.587,1.304,0.587,2.272v5.629h-0.838h-0.844V6.489c0-0.635-0.078-1.105-0.235-1.409
		c-0.156-0.304-0.399-0.457-0.729-0.457c-0.353,0-0.622,0.144-0.808,0.433C59.263,5.345,59.17,5.76,59.17,6.301v5.176h-0.838h-0.844
		V6.122c0-0.51-0.082-0.887-0.245-1.132c-0.164-0.245-0.415-0.367-0.754-0.367s-0.599,0.144-0.78,0.433
		c-0.181,0.289-0.271,0.704-0.271,1.245v5.176H54.6h-0.844V2.982z"/>
</g>
</svg>
