<?xml version="1.0" encoding="utf-8"?>
<!-- Generator: Adobe Illustrator 22.0.1, SVG Export Plug-In . SVG Version: 6.00 Build 0)  -->
<svg version="1.1" id="Layer_1" xmlns="http://www.w3.org/2000/svg" xmlns:xlink="http://www.w3.org/1999/xlink" x="0px" y="0px"
	 viewBox="0 0 362 72" enable-background="new 0 0 362 72" xml:space="preserve">
<rect x="168.9653" fill="#FFFFFF" width="193.0347" height="72"/>
<rect x="173.5" fill="#064D93" width="188.5" height="72"/>
<path fill="#EF3E42" d="M0,24v24c0,13.2548,10.7452,24,24,24h144.9653V0H24C10.7452,0,0,10.7452,0,24z"/>
<path fill="#FFFFFF" d="M51.8164,61.4609H33.7915c-3.8188,0-6.8281-0.3262-9.0293-0.9766
	c-2.2461-0.6289-4.4136-1.7969-6.5024-3.5039c-2.5605-2.1563-4.4697-4.8633-5.7275-8.1201
	c-1.2803-3.2793-1.9204-7.1768-1.9204-11.6909c0-8.8271,1.9087-15.3745,5.7275-19.6421c3.7734-4.2451,9.6807-6.3677,17.7217-6.3677
	h17.7554v10.2085H34.2632c-3.3472,0-5.8511,0.8086-7.5132,2.4258c-1.707,1.6396-2.6953,4.0093-2.9648,7.1089l28.0313,0.0674v10.1411
	H23.7178c0,1.6846,0.2134,3.1787,0.6401,4.4805c0.3589,1.2813,0.9316,2.3145,1.7183,3.0996c1.6392,1.707,4.3682,2.5605,8.187,2.5605
	h17.5532V61.4609z M106.8208,47.3438c0,4.7852-1.4038,8.3672-4.2114,10.748c-1.3701,1.0566-3.1279,1.8809-5.2729,2.4766
	c-2.145,0.5947-4.644,0.8926-7.4961,0.8926H62.584V11.1597h25.5381c3.0322,0,5.604,0.1802,7.7153,0.5391
	c1.0557,0.1802,2.0215,0.416,2.8975,0.7075c0.8306,0.292,1.5498,0.6626,2.1563,1.1118c1.8867,1.1909,3.3354,2.7515,4.3462,4.6831
	c1.0107,1.9321,1.5161,4.0991,1.5161,6.5024c0,2.8081-0.6401,5.2446-1.9204,7.311c-0.5615,0.8311-1.1909,1.5894-1.8867,2.2744
	c-0.6963,0.6851-1.5278,1.3306-2.4932,1.937c1.9316,1.0562,3.4141,2.3364,4.4473,3.8403
	C106.1807,41.9531,106.8208,44.3789,106.8208,47.3438z M94.1191,26.3545c0-1.6172-0.438-2.8184-1.314-3.605
	c-0.876-0.7188-2.3701-1.0781-4.481-1.0781H74.376v9.4336h13.9482c2.0664,0,3.5151-0.3926,4.3462-1.1792
	C93.6357,29.1626,94.1191,27.9717,94.1191,26.3545z M94.1865,46.2998c0-1.6621-0.438-2.9092-1.314-3.7393
	c-0.876-0.7422-2.3472-1.1123-4.4136-1.1123H74.376v9.6689h14.083c2.0664,0,3.5376-0.3867,4.4136-1.1621
	C93.7485,49.1807,94.1865,47.9629,94.1865,46.2998z M164.0151,61.4941h-13.2407l-4.4136-11.5557h-19.6758l-4.2788,11.5557h-12.7017
	l21.0571-50.3345h11.9941L164.0151,61.4941z M142.3516,39.5278l-5.9971-15.3296l-5.7275,15.3296H142.3516z M224.4501,61.4941
	h-11.792V41.1787h-16.8457v20.3154h-11.792V11.1597h11.792v19.7432h16.8457V11.1597h11.792V61.4941z M247.0611,61.4941h-12.2979
	V11.1597h12.2979V61.4941z M303.9668,61.4941h-13.375L280.0469,42.459h-10.5801v19.0352h-11.791V11.1597h25.7402
	c6.1084,0,10.5225,1.269,13.2402,3.8071c2.8975,2.4932,4.3457,6.3794,4.3457,11.6572c0,3.9082-0.875,7.1089-2.627,9.6021
	c-1.5508,2.2461-3.752,3.7856-6.6035,4.6157L303.9668,61.4941z M289.1426,26.7588c0-1.8867-0.5273-3.2227-1.583-4.0093
	c-1.1904-0.7632-3.3809-1.1455-6.5693-1.1455h-11.5234v10.478h11.5234c3.0996,0,5.2666-0.4155,6.502-1.2466
	C288.5928,30.0049,289.1426,28.6455,289.1426,26.7588z M348.6076,61.4609h-18.0254c-3.8184,0-6.8281-0.3262-9.0293-0.9766
	c-2.2461-0.6289-4.4131-1.7969-6.502-3.5039c-2.5605-2.1563-4.4697-4.8633-5.7275-8.1201
	c-1.2803-3.2793-1.9209-7.1768-1.9209-11.6909c0-8.8271,1.9092-15.3745,5.7285-19.6421c3.7734-4.2451,9.6797-6.3677,17.7207-6.3677
	h17.7559v10.2085h-17.5527c-3.3477,0-5.8516,0.8086-7.5137,2.4258c-1.707,1.6396-2.6953,4.0093-2.9648,7.1089l28.0313,0.0674
	v10.1411H320.509c0,1.6846,0.2129,3.1787,0.6396,4.4805c0.3594,1.2813,0.9326,2.3145,1.7188,3.0996
	c1.6396,1.707,4.3682,2.5605,8.1875,2.5605h17.5527V61.4609z"/>
</svg>
