<?xml version="1.0" encoding="utf-8"?>
<!-- Generator: Adobe Illustrator 22.0.1, SVG Export Plug-In . SVG Version: 6.00 Build 0)  -->
<svg version="1.1" id="Layer_1" xmlns="http://www.w3.org/2000/svg" xmlns:xlink="http://www.w3.org/1999/xlink" x="0px" y="0px"
	 viewBox="0 0 30.105 9.261" enable-background="new 0 0 30.105 9.261" xml:space="preserve">
<g>
	<path fill="#FF0000" d="M8.06,1.812c-0.78,0.264-1.476,0.744-1.68,0.78c-0.048,0.012-0.132-0.048-0.132-0.12
		c0-0.168,0.6-0.672,0.828-0.852C4.233,1.596,2.59,2.759,2.663,3.179c0.036,0.192-0.036,0.54,3.814,0.456
		c0.12,0,0.803-0.012,0.803,0.264c0,0.216-0.276,0.647-0.444,0.779C6.656,4.834,5.937,4.954,5.697,4.99
		c-3.07,0.504-4.342,1.859-4.342,2.291c0,0.216,0.36,0.36,1.008,0.384c0.66,0.036,1.619-0.048,2.83-0.419
		c0.864-0.264,1.619-0.828,2.411-1.271c0.06,0.864,0,1.343-0.695,1.919C6.5,8.24,4.941,9.308,2.482,9.26
		C1.919,9.248,1.367,9.14,0.839,8.996C0.324,8.852,0,8.12,0,7.641c0-0.803,1.067-2.338,4.593-3.214V4.391
		c-2.722-0.084-3.286-0.708-3.286-1.38c0-1.175,1.739-3.01,5.697-3.01c0.384,0,1.511-0.036,1.691,0.36l0.024,0.503
		C8.755,1.548,8.731,1.596,8.06,1.812z"/>
	<path fill="#FF0000" d="M12.226,7.533c-0.276,0.264-0.708,0.756-1.115,0.756c-0.288,0-0.516-0.216-0.528-0.504
		c-0.012-0.348,0.276-0.899,1.056-2.087c0.024-0.024,0.072-0.12,0.072-0.156c0-0.048-0.036-0.084-0.084-0.084
		c-0.12,0-0.384,0.288-0.468,0.372C10.535,6.49,9.864,7.209,9.3,7.905C9.167,8.06,9,8.24,8.784,8.24
		c-0.576,0-0.744-0.935-0.744-1.367c0.012-1.175,1.283-2.782,2.003-2.687c0.18,0.024,0.54,0.024,0.54,0.276
		c0,0.24-0.336,0.6-0.479,0.768c-0.216,0.252-0.48,0.468-0.66,0.732c-0.132,0.18-0.348,0.372-0.348,0.624
		c0,0.024,0.036,0.108,0.084,0.108c0.06,0,0.204-0.156,0.24-0.192c0.587-0.612,2.722-2.747,3.502-2.747
		c0.324,0,0.492,0.24,0.492,0.552c0,0.528-0.852,1.499-1.116,1.967l0.024,0.024l2.662-2.099c0.12-0.096,0.42-0.336,0.564-0.336
		c0.096,0,0.216,0.288,0.252,0.336c0.084,0.132,0.216,0.312,0.216,0.479c0,0.204-0.24,0.468-0.372,0.612
		c-0.935,1.031-1.007,1.223-1.019,1.499c-0.012,0.144,0.144,0.336,0.288,0.3c0.252-0.06,0.384-0.06,1.859-1.067l0.072,0.564
		c-0.564,0.444-2.291,1.859-2.962,1.859c-0.36,0-0.612-0.348-0.612-0.696c0-0.6,0.588-1.451,0.888-1.943l-0.024-0.024L12.226,7.533z
		"/>
	<path fill="#FF0000" d="M20.746,7.533c-0.276,0.264-0.708,0.756-1.115,0.756c-0.288,0-0.516-0.216-0.528-0.504
		c-0.012-0.348,0.276-0.899,1.056-2.087c0.024-0.024,0.072-0.12,0.072-0.156c0-0.048-0.036-0.084-0.084-0.084
		c-0.12,0-0.384,0.288-0.468,0.372c-0.624,0.66-1.295,1.379-1.859,2.075c-0.132,0.156-0.3,0.335-0.516,0.335
		c-0.576,0-0.744-0.935-0.744-1.367c0.012-1.175,1.283-2.782,2.003-2.687c0.18,0.024,0.54,0.024,0.54,0.276
		c0,0.24-0.336,0.6-0.479,0.768c-0.216,0.252-0.48,0.468-0.66,0.732c-0.132,0.18-0.348,0.372-0.348,0.624
		c0,0.024,0.036,0.108,0.084,0.108c0.06,0,0.204-0.156,0.24-0.192c0.588-0.612,2.723-2.747,3.502-2.747
		c0.324,0,0.492,0.24,0.492,0.552c0,0.528-0.852,1.499-1.115,1.967l0.024,0.024l2.663-2.099c0.12-0.096,0.419-0.336,0.563-0.336
		c0.096,0,0.216,0.288,0.252,0.336c0.084,0.132,0.216,0.312,0.216,0.479c0,0.204-0.24,0.468-0.372,0.612
		c-0.935,1.031-1.007,1.223-1.019,1.499c-0.012,0.144,0.144,0.336,0.288,0.3c0.252-0.06,0.384-0.06,1.859-1.067l0.072,0.564
		c-0.564,0.444-2.291,1.859-2.962,1.859c-0.36,0-0.612-0.348-0.612-0.696c0-0.6,0.588-1.451,0.888-1.943l-0.024-0.024L20.746,7.533z
		"/>
	<path fill="#FF0000" d="M30.105,6.453c-0.54,0.684-1.067,0.971-1.943,0.971c-0.503,0.516-1.091,0.899-1.847,0.899
		c-0.624,0-1.2-0.624-1.248-1.715c-0.024-0.899,0.42-1.499,1.091-2.015c0.648-0.527,1.511-0.851,2.243-0.887
		c0.264-0.012,0.66,0.108,0.66,0.432c0,0.18-0.144,0.252-0.276,0.324c0.36,0.096,0.432,0.348,0.432,0.708
		c0,0.528-0.24,0.948-0.468,1.416c0.528,0.096,0.863-0.36,1.235-0.636L30.105,6.453z M26.447,5.89
		c-0.264,0.264-0.492,0.731-0.492,1.104c0,0.348,0.228,0.456,0.528,0.456c0.396,0,0.647-0.228,0.923-0.479
		c-0.084-0.192-0.144-0.348-0.144-0.552c0-0.624,0.564-1.379,0.516-1.403C27.371,5.254,26.807,5.542,26.447,5.89z"/>
</g>
</svg>
