<?xml version="1.0" encoding="utf-8"?>
<!-- Generator: Adobe Illustrator 22.0.1, SVG Export Plug-In . SVG Version: 6.00 Build 0)  -->
<svg version="1.1" id="Layer_1" xmlns="http://www.w3.org/2000/svg" xmlns:xlink="http://www.w3.org/1999/xlink" x="0px" y="0px"
	 viewBox="0 0 40.101 8.067" enable-background="new 0 0 40.101 8.067" xml:space="preserve">
<g>
	<path fill="#FF0000" d="M4.546,5.968C3.814,6.82,2.495,7.947,1.308,7.947c-0.875,0-1.283-0.78-1.307-1.571
		c-0.048-1.571,1.691-3.178,3.25-3.166c0.384,0,0.863,0.096,0.863,0.576c0,0.587-0.587,1.475-2.89,2.23L1.2,6.28
		C1.164,6.736,1.56,6.891,1.944,6.891c0.852,0,1.859-0.875,2.495-1.379L4.546,5.968z M3.059,4.037c0-0.084-0.06-0.156-0.144-0.132
		c-0.6,0.156-1.295,0.732-1.619,1.523C2.352,5.069,3.071,4.241,3.059,4.037z"/>
	<path fill="#FF0000" d="M8.435,7.036C8.159,7.3,7.727,7.791,7.319,7.791c-0.288,0-0.516-0.216-0.528-0.504
		C6.779,6.94,7.067,6.388,7.847,5.201c0.024-0.024,0.072-0.12,0.072-0.156c0-0.048-0.036-0.084-0.084-0.084
		c-0.12,0-0.384,0.288-0.468,0.372c-0.624,0.66-1.295,1.379-1.859,2.075c-0.132,0.156-0.3,0.335-0.516,0.335
		c-0.576,0-0.744-0.935-0.744-1.367c0.012-1.175,1.283-2.782,2.003-2.687c0.18,0.024,0.54,0.024,0.54,0.276
		c0,0.24-0.336,0.6-0.479,0.768c-0.216,0.252-0.48,0.468-0.66,0.732C5.52,5.644,5.304,5.836,5.304,6.088
		c0,0.024,0.036,0.108,0.084,0.108c0.06,0,0.204-0.156,0.24-0.192C6.216,5.392,8.351,3.258,9.13,3.258
		c0.324,0,0.492,0.24,0.492,0.552c0,0.528-0.852,1.499-1.115,1.967L8.531,5.8l2.663-2.099c0.12-0.096,0.419-0.336,0.563-0.336
		c0.096,0,0.216,0.288,0.252,0.336c0.084,0.132,0.216,0.312,0.216,0.479c0,0.204-0.24,0.468-0.372,0.612
		c-0.935,1.031-1.007,1.223-1.019,1.499c-0.012,0.144,0.144,0.336,0.288,0.3c0.252-0.06,0.384-0.06,1.859-1.067l0.072,0.564
		c-0.564,0.444-2.291,1.859-2.962,1.859c-0.36,0-0.612-0.348-0.612-0.696c0-0.6,0.588-1.451,0.888-1.943l-0.024-0.024L8.435,7.036z"
		/>
	<path fill="#FF0000" d="M16.955,7.036c-0.276,0.264-0.708,0.756-1.115,0.756c-0.288,0-0.516-0.216-0.528-0.504
		C15.3,6.94,15.587,6.388,16.367,5.201c0.024-0.024,0.072-0.12,0.072-0.156c0-0.048-0.036-0.084-0.084-0.084
		c-0.12,0-0.384,0.288-0.468,0.372c-0.624,0.66-1.295,1.379-1.859,2.075c-0.132,0.156-0.3,0.335-0.516,0.335
		c-0.576,0-0.744-0.935-0.744-1.367c0.012-1.175,1.283-2.782,2.003-2.687c0.18,0.024,0.54,0.024,0.54,0.276
		c0,0.24-0.336,0.6-0.479,0.768c-0.216,0.252-0.48,0.468-0.66,0.732c-0.132,0.18-0.348,0.372-0.348,0.624
		c0,0.024,0.036,0.108,0.084,0.108c0.06,0,0.204-0.156,0.24-0.192c0.587-0.612,2.722-2.747,3.502-2.747
		c0.324,0,0.492,0.24,0.492,0.552c0,0.528-0.852,1.499-1.116,1.967L17.051,5.8l2.662-2.099c0.12-0.096,0.42-0.336,0.564-0.336
		c0.096,0,0.216,0.288,0.252,0.336c0.084,0.132,0.216,0.312,0.216,0.479c0,0.204-0.24,0.468-0.372,0.612
		c-0.935,1.031-1.007,1.223-1.019,1.499c-0.012,0.144,0.144,0.336,0.288,0.3c0.252-0.06,0.384-0.06,1.859-1.067l0.072,0.564
		c-0.564,0.444-2.291,1.859-2.962,1.859c-0.36,0-0.612-0.348-0.612-0.696c0-0.6,0.588-1.451,0.888-1.943l-0.024-0.024L16.955,7.036z
		"/>
	<path fill="#FF0000" d="M26.314,5.956c-0.54,0.684-1.068,0.971-1.943,0.971c-0.503,0.516-1.091,0.899-1.847,0.899
		c-0.624,0-1.199-0.624-1.248-1.715c-0.024-0.899,0.42-1.499,1.091-2.015c0.648-0.527,1.511-0.851,2.243-0.887
		c0.264-0.012,0.66,0.108,0.66,0.432c0,0.18-0.144,0.252-0.276,0.324c0.359,0.096,0.432,0.348,0.432,0.708
		c0,0.528-0.24,0.948-0.468,1.416c0.528,0.096,0.863-0.36,1.235-0.636L26.314,5.956z M22.656,5.392
		c-0.264,0.264-0.492,0.731-0.492,1.104c0,0.348,0.228,0.456,0.528,0.456c0.396,0,0.647-0.228,0.923-0.479
		c-0.084-0.192-0.144-0.348-0.144-0.552c0-0.624,0.564-1.379,0.516-1.403C23.58,4.757,23.016,5.045,22.656,5.392z"/>
	<path fill="#FF0000" d="M30.791,5.908c-0.132,0.456-0.204,0.648-0.204,0.9c0,0.228,0.12,0.408,0.24,0.587
		c-0.276,0.12-1.211,0.672-1.439,0.672c-0.252,0-0.288-0.42-0.288-0.6c0-0.468,0.156-0.936,0.24-1.463
		c-1.295,0.06-2.183,0.204-2.362-0.132c-0.168-0.312-0.36-0.708-0.36-1.067c0-0.624,0.947-1.619,1.403-2.015
		c1.523-1.319,4.449-2.747,5.205-2.747c0.204,0,0.456,0.096,0.456,0.336c0,0.132-0.156,0.288-0.252,0.372
		c0.216,0.108,0.288,0.312,0.24,0.54c-0.024,0.216-0.132,0.468-0.312,0.695c-0.624,0.768-1.151,1.535-1.703,2.411
		c0.3,0,0.612-0.06,0.912-0.06c0.228,0,0.444,0.048,0.444,0.3c0,0.264-0.444,0.875-0.54,1.067L30.791,5.908z M32.961,1.015
		l-0.024-0.024c-0.528,0.24-1.067,0.479-1.559,0.768c-2.495,1.463-3.214,2.375-3.358,2.71c0,0.06,0.132,0.108,0.443,0.12
		c0.324,0.024,0.84,0,1.619-0.096L32.961,1.015z"/>
	<path fill="#FF0000" d="M36.323,3.09l0.024,0.024c0.48-0.216,0.972-0.503,1.523-0.503c0.887,0,1.439,0.744,1.439,1.595
		c0,1.943-2.566,3.706-3.382,3.706c-0.659,0-2.086-0.936-2.086-2.446c0-2.099,2.291-4.03,3.934-5.038
		c0.588-0.36,0.708-0.419,1.367-0.419c0.108,0,0.959-0.06,0.959,0.156c0,0.12-0.168,0.216-0.252,0.252
		c-0.576,0.264-1.403,0.828-1.883,1.247L36.323,3.09z M35.891,4.649c-0.516,0.456-0.696,0.6-0.696,1.295c0,0.192,0,0.804,0.3,0.756
		c0.864-0.144,2.567-1.308,2.603-2.759c0-0.252-0.024-0.456-0.348-0.456C37.234,3.486,36.275,4.313,35.891,4.649z"/>
</g>
</svg>
