<?xml version="1.0" encoding="utf-8"?>
<!-- Generator: Adobe Illustrator 22.0.1, SVG Export Plug-In . SVG Version: 6.00 Build 0)  -->
<svg version="1.1" id="Layer_1" xmlns="http://www.w3.org/2000/svg" xmlns:xlink="http://www.w3.org/1999/xlink" x="0px" y="0px"
	 viewBox="0 0 118.0857 29.6346" enable-background="new 0 0 118.0857 29.6346" xml:space="preserve">
<path fill-rule="evenodd" clip-rule="evenodd" d="M79.7309,26.7386c0.33,0.129,0.743,0.2,1.261,0.2
	c0.425-0.001,0.872-0.059,1.284-0.201c0.813-0.283,1.508-0.849,1.779-1.862l-6.527,0.002c0.153-0.86,0.682-1.603,1.507-2.121
	c1.72-0.931,3.57-1.062,5.09-0.344c0.589,0.247,1.024,0.624,1.355,1.143h-1.508c-0.507-0.671-1.285-1.036-2.216-1.036
	c-1.166,0.06-2.474,0.779-2.862,1.875l6.539-0.003l-0.059,0.306c-0.165,0.873-0.765,1.579-1.483,2.039
	c-0.048,0.035-0.118,0.071-0.177,0.106c-0.802,0.473-1.662,0.614-2.828,0.614c-1.178,0-1.861-0.199-2.427-0.459
	c-0.141-0.082-0.283-0.164-0.424-0.258c-0.33-0.248-0.601-0.519-0.731-0.719h1.52c0.224,0.317,0.506,0.565,0.895,0.718H79.7309z"/>
<path fill-rule="evenodd" clip-rule="evenodd" d="M68.206,17.565c2.132-0.672,3.993-2.122,4.687-4.773l1.106-5.833l-8.907,0.003
	L63.69,5.467l13.89-0.005l-1.27,6.868c-0.447,2.381-1.578,4.078-3.568,5.233l-0.094,0.059c-2.085,1.214-4.854,1.792-7.87,1.794
	l-7.564,0.002l3.588-19.417L64.123,0l-3.339,18.027l4.265-0.002C66.085,18.025,67.169,17.895,68.206,17.565"/>
<path fill-rule="evenodd" clip-rule="evenodd" d="M24.309,19.4295l-3.31,0.001l2.575-13.95l7.516-0.003
	c3.016-0.001,5.632,0.576,7.258,1.777c1.179,0.848,1.827,1.861,1.863,3.003l-3.535,0.001c-0.507-2.662-3.076-3.403-5.774-3.402
	l-4.265,0.001L24.309,19.4295z"/>
<path fill-rule="evenodd" clip-rule="evenodd" d="M84.2404,17.5589c0.907,0.329,1.944,0.471,2.981,0.471l4.277-0.013l2.328-12.561
	l3.311-0.001l-2.588,13.95l-7.563,0.003c-3.017,0.001-5.585-0.576-7.211-1.788l-0.083-0.059c-1.543-1.166-2.051-2.851-1.615-5.231
	l1.281-6.868l3.311-0.002l-1.352,7.329C81.0234,15.4279,82.3544,16.8879,84.2404,17.5589"/>
<path fill-rule="evenodd" clip-rule="evenodd" d="M103.2797,17.5524c0.871,0.354,1.931,0.53,3.252,0.529
	c1.095,0,2.238-0.165,3.31-0.531c2.074-0.708,3.875-2.181,4.557-4.773l-16.788,0.005c0.412-2.214,1.766-4.136,3.91-5.456
	c4.393-2.416,9.176-2.736,13.065-0.888c1.508,0.636,2.651,1.602,3.5,2.956l-3.912-0.01c-1.285-1.731-3.287-2.673-5.656-2.672
	c-3.039,0.154-6.384,2.004-7.373,4.832l16.789-0.005l-0.142,0.777c-0.411,2.239-1.954,4.053-3.803,5.232
	c-0.142,0.095-0.294,0.189-0.459,0.283c-2.073,1.203-4.253,1.581-7.281,1.582c-3.027,0.001-4.771-0.505-6.209-1.2
	c-0.389-0.188-0.754-0.412-1.096-0.66c-0.86-0.612-1.556-1.33-1.873-1.849l3.876-0.001c0.589,0.824,1.319,1.449,2.32,1.849H103.2797
	z"/>
<path fill-rule="evenodd" clip-rule="evenodd" d="M48.8492,17.5716c1.143-0.402,2.108-1.026,3.016-1.851l3.875-0.013
	c-0.518,0.53-1.472,1.249-2.579,1.862c-0.424,0.248-0.872,0.472-1.331,0.66c-1.684,0.696-3.628,1.203-6.668,1.204
	c-3.016,0.002-5.055-0.374-6.693-1.576c-0.117-0.094-0.235-0.188-0.353-0.282c-1.402-1.179-2.263-2.992-1.851-5.231l0.153-0.778
	l16.776-0.005c0.058-2.828-2.605-4.677-5.586-4.829c-2.368,0.001-4.712,0.944-6.655,2.689c-0.166-0.837-0.543-1.508-1.132-2.074
	c2.509-1.367,5.03-2.051,7.657-2.052c2.639-0.001,4.913,0.67,6.905,2.047c1.649,1.319,2.298,3.24,1.886,5.455l-16.788,0.005
	c-0.282,2.592,0.979,4.065,2.794,4.771c0.931,0.365,2.015,0.53,3.099,0.529c1.343,0,2.462-0.177,3.463-0.531H48.8492z"/>
<path fill-rule="evenodd" clip-rule="evenodd" d="M12.6802,17.5838c1.154-0.401,2.12-1.026,3.015-1.851l3.888-0.012
	c-0.53,0.53-1.472,1.249-2.579,1.862c-0.424,0.247-0.872,0.471-1.331,0.659c-1.697,0.697-3.629,1.204-6.668,1.205
	c-3.016,0.001-5.054-0.375-6.693-1.577c-0.117-0.094-0.235-0.188-0.353-0.282c-1.403-1.178-2.275-2.992-1.852-5.231l0.142-0.777
	l16.788-0.006c0.058-2.827-2.605-4.676-5.586-4.829c-2.368,0.001-4.712,0.945-6.655,2.689l-3.9-0.01
	c1.342-1.344,2.838-2.311,4.581-2.948c4.583-1.851,9.248-1.534,12.748,0.88c1.65,1.319,2.299,3.239,1.887,5.454l-16.788,0.006
	c-0.282,2.592,0.979,4.065,2.794,4.77c0.93,0.365,2.014,0.53,3.098,0.529C10.5592,18.1148,11.6792,17.9378,12.6802,17.5838"/>
<path fill-rule="evenodd" clip-rule="evenodd" d="M71.1313,27.4717l-1.296,0.001l1.13-5.455l2.932-0.002
	c1.178,0,2.192,0.235,2.816,0.706c0.449,0.33,0.696,0.718,0.696,1.166l-1.378,0.001c-0.177-1.037-1.167-1.331-2.227-1.331
	l-1.662,0.001L71.1313,27.4717z"/>
<path fill-rule="evenodd" clip-rule="evenodd" d="M103.2237,27.461h-1.296l1.129-5.455l2.934-0.001
	c1.178-0.001,2.191,0.235,2.816,0.706c0.448,0.329,0.695,0.718,0.695,1.166h-1.378c-0.177-1.036-1.167-1.331-2.227-1.33h-1.661
	L103.2237,27.461z"/>
<path fill-rule="evenodd" clip-rule="evenodd" d="M90.8516,22.7406c-0.353-0.129-0.766-0.176-1.178-0.176h-1.661l-1.471,7.07h-1.296
	l1.577-7.611l2.968-0.001c1.178,0,2.18,0.223,2.805,0.694l0.036,0.024c0.588,0.459,0.777,1.118,0.577,2.05l-0.552,2.674
	l-5.432,0.002l0.931-0.578l3.322-0.002l0.47-2.273c0.141-1.037-0.378-1.614-1.108-1.873H90.8516z"/>
<polygon fill-rule="evenodd" clip-rule="evenodd" points="111.6924,22.5445 110.6694,27.4345 109.3854,27.4345 110.3964,22.5455 
	109.7014,22.5455 109.8074,22.0035 110.5144,22.0035 110.7854,20.6955 112.0814,20.6945 111.8104,22.0025 115.2154,22.0015 
	115.0984,22.5435 "/>
<polygon fill-rule="evenodd" clip-rule="evenodd" points="58.6764,22.5634 57.6644,27.4524 56.3684,27.4534 57.3804,22.5634 
	56.6854,22.5634 56.8034,22.0224 57.4984,22.0224 57.7684,20.7134 59.0654,20.7134 58.7944,22.0214 62.1984,22.0204 
	62.0814,22.5614 "/>
<path fill-rule="evenodd" clip-rule="evenodd" d="M40.6013,27.4325h-1.295l0.604-2.828c0.026-0.196,0.029-0.37,0.008-0.558
	c-0.044-0.374-0.201-0.678-0.468-0.915c-0.146-0.133-0.304-0.23-0.496-0.309c-0.285-0.122-0.573-0.19-0.901-0.217
	c-0.136-0.013-0.264-0.018-0.406-0.019l-1.664,0.001l-1.037,4.847l-1.295,0.001l1.15-5.38l2.96-0.002
	c0.461-0.003,0.874,0.032,1.313,0.108c0.265,0.045,0.496,0.108,0.743,0.192c0.212,0.075,0.388,0.162,0.572,0.275l0.126-0.576h2.96
	c0.461-0.003,0.873,0.031,1.312,0.108c0.266,0.047,0.499,0.107,0.743,0.191c0.227,0.08,0.415,0.174,0.611,0.299l0.131,0.09
	c0.169,0.118,0.303,0.256,0.42,0.425c0.13,0.193,0.206,0.399,0.24,0.639c0.026,0.153,0.031,0.295,0.02,0.457
	c-0.009,0.177-0.032,0.34-0.07,0.517l-0.567,2.652h-1.296l0.605-2.829c0.029-0.194,0.029-0.369,0.007-0.557
	c-0.043-0.375-0.2-0.678-0.465-0.916c-0.148-0.132-0.307-0.23-0.499-0.308c-0.284-0.122-0.572-0.191-0.9-0.217
	c-0.136-0.013-0.264-0.018-0.406-0.018l-1.665,0.001l-1.036,4.846H40.6013z"/>
<path fill-rule="evenodd" clip-rule="evenodd" d="M54.2988,23.4238l-0.033-0.047c-0.217-0.296-0.492-0.507-0.846-0.647
	c-0.195-0.079-0.387-0.129-0.608-0.158c-0.199-0.032-0.388-0.045-0.599-0.044l-0.107-0.001c-0.174,0.005-0.335,0.019-0.511,0.045
	c-0.233,0.029-0.447,0.079-0.678,0.159c-0.178,0.061-0.34,0.132-0.512,0.225c-0.242,0.134-0.453,0.285-0.661,0.472l-0.034,0.035
	l-0.043,0.05c-0.147,0.174-0.266,0.344-0.372,0.539c-0.158,0.29-0.259,0.576-0.305,0.882c-0.04,0.311-0.009,0.591,0.094,0.861
	c0.029,0.087,0.058,0.163,0.1,0.243l0.081,0.109c0.209,0.271,0.467,0.461,0.798,0.59c0.199,0.079,0.389,0.127,0.609,0.159
	c0.191,0.029,0.37,0.042,0.57,0.044h0.037h0.016l0.146-0.003c0.153-0.008,0.292-0.02,0.448-0.041
	c0.235-0.033,0.445-0.083,0.675-0.159c0.388-0.13,0.728-0.321,1.053-0.592l0.127-0.109l0.02-0.018
	c0.067-0.074,0.124-0.145,0.181-0.225c0.221-0.269,0.372-0.549,0.465-0.861c0.084-0.306,0.104-0.592,0.068-0.882
	c-0.02-0.195-0.067-0.364-0.139-0.538C54.3258,23.4828,54.3148,23.4528,54.2988,23.4238 M51.4208,27.4528l-0.044,0.002h-0.098
	h-0.072h-0.046h-0.045l-0.075,0.001h-0.093l-0.039-0.003l-0.226-0.005l-0.433-0.026c-0.254-0.021-0.481-0.059-0.725-0.116
	c-0.442-0.109-0.811-0.291-1.142-0.568c-0.221-0.188-0.388-0.396-0.519-0.657c-0.206-0.402-0.256-0.853-0.151-1.344
	c0.105-0.495,0.348-0.946,0.725-1.348c0.294-0.314,0.609-0.56,0.983-0.764c0.337-0.192,0.662-0.324,1.021-0.417
	c0.26-0.069,0.496-0.114,0.753-0.14c0.296-0.034,0.561-0.051,0.851-0.056h0.216h0.021h0.043h0.04h0.016h0.219
	c0.287,0.002,0.546,0.021,0.826,0.055c0.246,0.026,0.463,0.072,0.694,0.14c0.319,0.092,0.588,0.224,0.843,0.416
	c0.287,0.204,0.497,0.449,0.657,0.764c0.205,0.401,0.255,0.853,0.15,1.347c-0.105,0.491-0.348,0.942-0.725,1.344
	c-0.243,0.261-0.498,0.47-0.803,0.658c-0.445,0.277-0.893,0.46-1.383,0.568c-0.267,0.058-0.51,0.096-0.773,0.117
	C51.8558,27.4418,51.6478,27.4528,51.4208,27.4528"/>
<path fill-rule="evenodd" clip-rule="evenodd" d="M68.0862,23.4192l-0.033-0.047c-0.216-0.296-0.49-0.507-0.846-0.648
	c-0.194-0.079-0.386-0.128-0.606-0.157c-0.2-0.032-0.389-0.045-0.6-0.045l-0.107,0.001c-0.175,0.004-0.335,0.018-0.511,0.044
	c-0.233,0.029-0.447,0.079-0.678,0.159c-0.178,0.061-0.34,0.132-0.512,0.224c-0.242,0.135-0.454,0.286-0.662,0.474l-0.034,0.033
	l-0.042,0.051c-0.147,0.174-0.266,0.343-0.372,0.539c-0.157,0.29-0.259,0.576-0.305,0.882c-0.04,0.311-0.009,0.591,0.093,0.861
	c0.03,0.087,0.06,0.163,0.101,0.243l0.081,0.108c0.209,0.272,0.468,0.462,0.798,0.592c0.199,0.079,0.389,0.126,0.61,0.158
	c0.191,0.029,0.37,0.042,0.569,0.044h0.037h0.016l0.146-0.003c0.153-0.008,0.292-0.02,0.449-0.041
	c0.233-0.033,0.444-0.083,0.674-0.159c0.388-0.13,0.728-0.321,1.053-0.592l0.127-0.109l0.02-0.018
	c0.067-0.074,0.124-0.145,0.182-0.225c0.22-0.269,0.371-0.549,0.464-0.861c0.084-0.306,0.104-0.592,0.068-0.882
	c-0.02-0.195-0.067-0.364-0.139-0.539C68.1142,23.4782,68.1032,23.4482,68.0862,23.4192 M65.2092,27.4482l-0.043,0.002l-0.099,0.001
	l-0.072-0.001h-0.045h-0.046h-0.075h-0.093l-0.04-0.002l-0.225-0.005l-0.432-0.026c-0.256-0.022-0.482-0.059-0.726-0.117
	c-0.442-0.108-0.811-0.29-1.142-0.567c-0.221-0.188-0.388-0.396-0.52-0.658c-0.204-0.401-0.255-0.853-0.15-1.343
	c0.105-0.495,0.349-0.946,0.725-1.348c0.294-0.315,0.609-0.56,0.983-0.764c0.338-0.192,0.662-0.324,1.021-0.417
	c0.26-0.068,0.496-0.114,0.753-0.14c0.296-0.035,0.561-0.051,0.85-0.056h0.217h0.021h0.042h0.04h0.017h0.219
	c0.287,0.002,0.546,0.021,0.826,0.056c0.246,0.025,0.463,0.07,0.694,0.139c0.32,0.092,0.588,0.224,0.843,0.416
	c0.287,0.204,0.497,0.449,0.657,0.764c0.205,0.401,0.255,0.853,0.15,1.347c-0.104,0.49-0.348,0.942-0.725,1.344
	c-0.243,0.261-0.498,0.47-0.803,0.658c-0.445,0.277-0.893,0.46-1.383,0.568c-0.266,0.058-0.509,0.096-0.774,0.117
	C65.6442,27.4372,65.4362,27.4482,65.2092,27.4482"/>
<path fill-rule="evenodd" clip-rule="evenodd" d="M100.2734,23.408l-0.032-0.047c-0.217-0.296-0.492-0.507-0.847-0.647
	c-0.194-0.079-0.386-0.129-0.607-0.158c-0.199-0.032-0.388-0.045-0.599-0.045h-0.107c-0.174,0.006-0.335,0.019-0.511,0.045
	c-0.233,0.03-0.447,0.08-0.678,0.159c-0.178,0.061-0.34,0.132-0.512,0.224c-0.242,0.135-0.454,0.286-0.662,0.473l-0.034,0.035
	l-0.042,0.05c-0.147,0.174-0.266,0.344-0.372,0.539c-0.157,0.29-0.259,0.576-0.306,0.882c-0.039,0.312-0.008,0.591,0.094,0.861
	c0.03,0.087,0.06,0.163,0.101,0.243l0.08,0.108c0.21,0.272,0.468,0.462,0.799,0.592c0.199,0.079,0.389,0.126,0.608,0.158
	c0.192,0.029,0.371,0.042,0.571,0.044h0.037h0.016l0.145-0.002c0.154-0.008,0.293-0.021,0.449-0.043
	c0.234-0.032,0.445-0.082,0.675-0.158c0.388-0.13,0.728-0.32,1.053-0.592l0.127-0.109l0.02-0.018
	c0.066-0.074,0.124-0.146,0.181-0.225c0.22-0.269,0.372-0.549,0.464-0.861c0.085-0.307,0.105-0.592,0.069-0.882
	c-0.02-0.195-0.067-0.364-0.139-0.539C100.3014,23.467,100.2904,23.437,100.2734,23.408 M97.3964,27.437l-0.044,0.002h-0.098h-0.072
	l-0.046,0.001h-0.045h-0.075l-0.093-0.001l-0.04-0.002l-0.226-0.006l-0.432-0.025c-0.255-0.022-0.481-0.059-0.726-0.117
	c-0.441-0.108-0.811-0.29-1.141-0.567c-0.222-0.187-0.388-0.396-0.52-0.657c-0.205-0.402-0.255-0.853-0.151-1.344
	c0.106-0.494,0.349-0.946,0.726-1.348c0.294-0.314,0.608-0.56,0.983-0.763c0.337-0.193,0.662-0.325,1.02-0.418
	c0.26-0.069,0.497-0.114,0.754-0.14c0.296-0.034,0.56-0.05,0.85-0.056h0.216h0.022h0.043h0.039h0.017h0.218
	c0.288,0.003,0.546,0.02,0.827,0.055c0.245,0.027,0.463,0.071,0.694,0.14c0.319,0.092,0.588,0.224,0.843,0.417
	c0.287,0.203,0.497,0.448,0.657,0.763c0.205,0.401,0.256,0.853,0.15,1.347c-0.104,0.491-0.348,0.942-0.726,1.344
	c-0.242,0.262-0.498,0.47-0.802,0.659c-0.445,0.276-0.893,0.458-1.383,0.567c-0.267,0.058-0.51,0.096-0.774,0.117
	C97.8304,27.426,97.6234,27.437,97.3964,27.437"/>
</svg>
