<?xml version="1.0" encoding="utf-8"?>
<!-- Generator: Adobe Illustrator 22.0.1, SVG Export Plug-In . SVG Version: 6.00 Build 0)  -->
<svg version="1.1" id="Layer_1" xmlns="http://www.w3.org/2000/svg" xmlns:xlink="http://www.w3.org/1999/xlink" x="0px" y="0px"
	 viewBox="0 0 20.2327 14.1618" enable-background="new 0 0 20.2327 14.1618" xml:space="preserve">
<path fill-rule="evenodd" clip-rule="evenodd" d="M12.6802,12.2988c1.154-0.401,2.12-1.026,3.015-1.851l3.888-0.012
	c-0.53,0.53-1.472,1.249-2.579,1.862c-0.424,0.247-0.872,0.471-1.331,0.659c-1.697,0.697-3.629,1.204-6.668,1.205
	c-3.016,0.001-5.054-0.375-6.693-1.577c-0.117-0.094-0.235-0.188-0.353-0.282c-1.403-1.178-2.275-2.992-1.852-5.231l0.142-0.777
	l16.788-0.006c0.058-2.827-2.605-4.676-5.586-4.829c-2.368,0.001-4.712,0.945-6.655,2.689l-3.9-0.01
	c1.342-1.344,2.838-2.311,4.581-2.948c4.583-1.851,9.248-1.534,12.748,0.88c1.65,1.319,2.299,3.239,1.887,5.454l-16.788,0.006
	c-0.282,2.592,0.979,4.065,2.794,4.77c0.93,0.365,2.014,0.53,3.098,0.529C10.5592,12.8298,11.6792,12.6528,12.6802,12.2988"/>
</svg>
