<?xml version="1.0" encoding="utf-8"?>
<!-- Generator: Adobe Illustrator 22.0.1, SVG Export Plug-In . SVG Version: 6.00 Build 0)  -->
<svg version="1.1" id="Layer_1" xmlns="http://www.w3.org/2000/svg" xmlns:xlink="http://www.w3.org/1999/xlink" x="0px" y="0px"
	 viewBox="0 0 174.8675 21.3152" enable-background="new 0 0 174.8675 21.3152" xml:space="preserve">
<g>
	<path fill="#FFFFFF" d="M162.7594,7.2217l-3.236,6.9994l-8.8838,0l3.2626-7.001h-8.7716l-3.212,6.9913h8.7326
		c0,0-2.1414,4.7252-3.2161,7.0967c-2.9493,0-5.8751,0-8.8725,0c1.0788-2.3498,3.2401-7.0577,3.2401-7.0577l-8.8001-0.068
		l0.0154,0.0173l3.275-6.9837c0,0-5.8642,0-8.8653,0c1.1181-2.4329,2.1907-4.767,3.2659-7.1067c2.9392,0,8.8558,0,8.8558,0
		l-3.2307,7.042h8.7507l3.2453-7.0399h8.8525l-3.2323,7.0444l0.6217,0.0261l7.5897,0.0036l0.6292,0.0549L162.7594,7.2217z"/>
	<path fill="#FFFFFF" d="M97.3663,10.4876c1.3339,0,2.6537,0,3.9588,0c1.7319,2.5803,4.1758,3.1936,7.0331,2.5665
		c2.5871-0.5678,4.776-1.8215,6.3834-3.9802c0.1734-0.2329,0.3075-0.4952,0.5258-0.8517c-5.8647,0-11.6083,0-17.4161,0
		c0.4062-1.4873,1.0562-2.744,2.0297-3.8168c2.6172-2.884,5.9144-4.3209,9.7786-4.3637c3.8396-0.0425,11.7627,0.064,11.7627,0.064
		s-1.5828,4.9127-2.4261,7.2181c-0.7336,2.0055-2.0816,3.61-3.887,4.7112c-3.9758,2.4251-8.2379,3.5622-12.8725,2.2778
		c-1.8887-0.5235-3.5913-1.4201-4.6243-3.2223c-0.079-0.1379-0.1535-0.2788-0.222-0.4222
		C97.3698,10.6251,97.3761,10.5689,97.3663,10.4876z M117.7546,1.4322c-0.2446,0-0.4181,0.0007-0.5916-0.0001
		c-2.3332-0.0107-4.6681-0.0825-6.9993-0.0185c-3.6621,0.1007-6.4514,1.7209-8.2082,4.9936
		c-0.0708,0.1319-0.1124,0.2793-0.1866,0.4677c4.7644,0,9.4594,0,14.1871,0C116.5505,5.0761,117.1407,3.2902,117.7546,1.4322z"/>
	<path fill="#FFFFFF" d="M42.4773,14.8209c-4.2522,0-8.5004,0.0783-12.7422-0.0506c-1.1806-0.0359-2.4229-0.5297-3.4954-1.0863
		c-1.9255-0.9992-2.6956-3.1501-2.1369-5.3879c0.1356-0.5433,0.333-1.0712,0.5148-1.6467c5.8337,0,11.6331,0,17.4579,0
		c0.2827-1.6249-0.1734-2.9335-1.4524-3.8851c-1.8771-1.3966-3.9722-1.4096-6.1281-0.8215
		c-1.6062,0.4382-3.0436,1.217-4.3916,2.1844c-0.2364,0.1697-0.5701,0.2745-0.8625,0.2828
		c-1.1271,0.0322-2.2557,0.0131-3.4783,0.0131c0.1301-0.148,0.1917-0.2456,0.2775-0.3118
		c3.9312-3.0345,8.3344-4.5443,13.3154-3.8817c1.2286,0.1635,2.4655,0.6556,3.5763,1.2322c2.2274,1.1564,3.092,3.1002,2.3799,5.5175
		c-0.6674,2.2654-1.5844,4.4573-2.3934,6.6809C42.7914,14.0086,42.6552,14.3534,42.4773,14.8209z M27.6507,7.9933
		c-0.8685,2.2046,0.0161,4.2889,2.1866,5.0661c0.6676,0.239,1.4056,0.3765,2.1143,0.3888c2.5952,0.0451,5.1917,0.0179,7.809,0.0179
		c0.6928-1.8453,1.3708-3.6513,2.0546-5.4727C37.0356,7.9933,32.3355,7.9933,27.6507,7.9933z"/>
	<path fill="#FFFFFF" d="M74.3143,14.8144c1.8612-4.9481,3.7-9.8367,5.5264-14.6922c0.0734-0.0383,0.1046-0.0691,0.1354-0.0687
		c3.4827,0.0458,6.9712-0.0062,10.4452,0.1937c1.2923,0.0744,2.6299,0.5807,3.8063,1.1703c1.8358,0.92,2.47,2.4463,1.8496,4.3985
		c-0.9561,3.0085-2.0704,5.9667-3.1103,8.9254c-1.2325,0-2.3429,0-3.5351,0c0.2233-0.5794,0.4425-1.1122,0.6352-1.6544
		c0.7799-2.1946,1.5578-4.39,2.3189-6.5912c0.1022-0.2957,0.1203-0.6247,0.1497-0.9408c0.1604-1.7262-0.5812-2.9838-2.2237-3.5423
		c-0.8084-0.2749-1.6822-0.3933-2.5369-0.485C87.0224,1.447,86.2553,1.5,85.4945,1.4979c-0.884-0.0024-1.7681-0.0006-2.6978-0.0006
		c-1.6698,4.4392-3.3349,8.8662-5.0091,13.317C76.6501,14.8144,75.5258,14.8144,74.3143,14.8144z"/>
	<path fill="#FFFFFF" d="M66.3207,10.7766c-1.9396,1.6841-3.9982,2.7355-6.269,3.3761c-2.88,0.8124-5.781,1.0429-8.6651,0.054
		c-1.9005-0.6517-3.4638-1.7312-3.9925-3.8223c-0.3784-1.4966,0.0176-2.8828,0.8223-4.1489
		c1.5657-2.4633,3.8848-3.9796,6.5475-4.9956c3.39-1.2935,6.8503-1.726,10.3677-0.5113C66.868,1.328,68.1288,2.431,68.676,3.7782
		c-0.6241,0-3.0013,0-3.5749,0c-2.0954-2.5435-4.7547-2.5803-7.556-1.7249c-2.4259,0.7408-4.3895,2.188-5.7934,4.3227
		c-2.4781,3.7679,0.1769,6.63,3.5264,6.883c2.5724,0.1943,4.8228-0.6824,6.8825-2.1645c0.2493-0.1794,0.4017-0.3178,0.4017-0.3178
		S65.1105,10.7766,66.3207,10.7766z"/>
	<path fill="#FFFFFF" d="M7.3394,0.0256c2.5748,0,5.1236-0.0722,7.6658,0.0258c1.6498,0.0636,3.3069,0.2887,4.9291,0.6043
		c1.2631,0.2457,2.4076,0.8907,3.1875,1.9632c0.3879,0.5334,0.5998,1.1948,0.9519,1.924c-1.4633,0-2.6911,0-3.9484,0
		c-0.4117-2.0433-1.9554-2.7678-3.7579-2.8998c-2.0029-0.1467-4.0249-0.0336-6.1087-0.0336
		c-1.551,4.3659-3.1224,8.7892-4.6963,13.2193c-1.1413,0-2.2532,0-3.4581,0C3.8487,9.8964,5.5776,5.0076,7.3394,0.0256z"/>
	<path fill="#FFFFFF" d="M133.0026,14.1823l-3.2053,7.1329c0,0-5.8605,0-8.8581,0c1.0951-2.3812,3.2535-7.0744,3.2535-7.0744
		l5.3819-0.0017L133.0026,14.1823z"/>
	<path fill="#FFFFFF" d="M162.7755,7.2403l3.2135-7.13c0,0,5.8831,0,8.8785,0c-1.09,2.3712-3.2685,7.1104-3.2685,7.1104
		l-8.8398,0.0005L162.7755,7.2403z"/>
	<path fill="#FFFFFF" d="M72.6964,0.0645c1.1855,0,2.311,0,3.5154,0c-1.873,4.9437-3.7271,9.8374-5.5889,14.7516
		c-1.1461,0-2.2729,0-3.4742,0C68.9995,9.8947,70.8423,4.9947,72.6964,0.0645z"/>
</g>
<polygon fill-rule="evenodd" clip-rule="evenodd" fill="#DC291E" points="0,21.3105 0.8168,19.0514 117.0214,19.0514 
	115.9792,21.3105 "/>
</svg>
