<?xml version="1.0" encoding="utf-8"?>
<!-- Generator: Adobe Illustrator 22.0.1, SVG Export Plug-In . SVG Version: 6.00 Build 0)  -->
<svg version="1.1" id="Layer_1" xmlns="http://www.w3.org/2000/svg" xmlns:xlink="http://www.w3.org/1999/xlink" x="0px" y="0px"
	 viewBox="0 0 508.4746 123.3283" enable-background="new 0 0 508.4746 123.3283" xml:space="preserve">
<path d="M410.9025,7.3068c-0.3893,0.843-0.917,2.5263-1.4861,5.3023L396.269,69.8558l-0.5916,2.8936
	c-0.314,1.1973-0.743,2.4086-1.0906,3.1292c-1.374,3.0169-4.3096,4.7048-8.5435,4.7048h-27.8453l0.7767-3.4992
	c2.8095-0.6,4.2142-1.5674,5.218-3.7348c0.387-0.8411,0.7991-2.5374,1.4524-5.2994l12.9904-57.129l0.7178-2.8906
	c0.3336-1.2058,0.6337-2.4115,1.0206-3.2526c1.3823-3.0142,4.3908-4.5787,8.4873-4.5787h27.9547l-0.7654,3.4908
	C413.1904,4.1721,411.8501,5.2544,410.9025,7.3068z M111.3027,46.3622l0.8411-15.5839l-8.779,15.5839H111.3027z M95.1804,7.9518
	C98.5843,1.444,103.062,0,110.1671,0h28.6781l-1.015,3.3731c-1.5758,0.2411-2.6104,0.844-3.2273,2.0497
	c-0.5048,0.9589-0.7767,2.6469-0.7459,4.4553l-0.0365,60.6171c0.0197,0.2608,0,0.5131,0,0.7766
	c0.1655,4.2339,0.7879,5.2713,3.5133,5.7341l-0.8861,3.3702h-32.3203l0.8973-3.3702c2.2459-0.6029,3.4656-1.3263,4.0179-2.4086
	c0.4459-0.8497,0.7627-1.9319,0.7795-2.8908l0.3336-8.8042H96.3328l-4.0656,8.437c-3.732,7.4723-5.7928,9.0368-11.9362,9.0368
	H54.5382l0.8552-3.3702c3.1179-0.4852,4.2282-1.5674,6.8415-6.3845L95.1804,7.9518z M474.2505,0.1961l-0.8384,3.4937
	c2.5291,0.6056,3.502,1.5645,3.502,3.7376c0,0.8439-0.3729,2.529-0.9729,5.3021l-4.6685,20.1094L455.3046,2.4421
	c-0.9364-1.4216-2.7701-2.246-5.6217-2.246h-27.8341l-0.8384,3.4937c2.5263,0.6056,3.4993,1.5645,3.4993,3.7376
	c0,0.8439-0.3645,2.529-0.973,5.3021l-13.2595,57.1262l-0.1878,0.914l-0.0085,0.0476c-1.2169,4.8228-2.0132,5.9078-4.9909,6.3929
	l-0.7906,3.3731h11.2856c5.2152,0,10.4276,0,15.6429,0h0.7599l0.014-0.0842c3.7908-0.2103,6.4853-1.8056,7.7695-4.6208
	c0.342-0.7261,0.7682-1.9318,1.0935-3.129l0.5916-2.8936l0.2047-0.8945c0.0617-0.2663,0.1178-0.5047,0.1963-0.7935l4.6349-20.2299
	l15.4774,29.8109c0.0645,0.1569,0.1514,0.3055,0.2299,0.4485l0.2299,0.4318l0.1346-0.0197c1.0093,1.259,2.7954,1.974,5.4255,1.974
	h23.2722l17.0812-73.9382c0.0785-0.6842,0.1318-1.3123,0.1318-1.7469c0-3.0169-2.1534-4.7021-6.3872-4.7021H474.2505z
	 M353.8716,33.8709l-10.4809-6.7518c-3.2609-2.0552-4.088-3.0142-4.088-4.3347c0-2.8994,2.0439-4.2228,6.3788-4.2228h15.5896
	c5.6526,0,7.2339-1.3261,8.678-7.475l2.5263-10.9689h-34.2718c-9.8781,0-14.3334,0.9702-17.8299,3.8582
	c-3.1432,2.5374-5.7816,8.0752-7.4807,15.1829c-1.9178,8.5631-2.288,11.3362-2.288,13.9802c0,6.0255,1.8086,8.6779,8.7957,12.9005
	l9.8893,5.7816c3.7264,2.1702,4.0993,2.6553,4.0993,4.5844c0,3.4068-2.6552,5.0834-8.0583,5.1647h-22.2208l-1.9514,8.4145
	L298.711,80.39h9.0425c2.1338,0.1037,4.9741,0.1121,8.8771,0.1121h21.9291c5.7872,0,9.7687-1.6879,12.539-3.8524
	c3.4992-2.6526,6.1461-7.2284,9.9986-23.6228c0.4907-2.1618,0.7347-4.4553,0.7347-6.505
	C361.8319,41.6309,359.5495,37.4794,353.8716,33.8709z M268.973,61.5843l2.3525-9.4769c1.0879-5.1844,1.9347-5.7845,7.3517-5.7845
	h7.7163c4.9404,0,6.7433-1.3261,7.8312-6.1516l2.173-9.637h-20.1206l2.8908-12.2052h16.9858c5.905,0,7.2256-0.9674,8.5519-6.6313
	l2.6524-11.6865h-59.8907l-0.7178,3.4908c2.5207,0.6,3.4908,1.5674,3.4908,3.7347c0,0.8468-0.3617,2.5349-0.9701,5.2994
	l-12.3483,53.2372l-1.1383,4.8452c-1.2113,4.8255-2.0132,5.9021-4.9825,6.3816l-0.7907,3.3785h11.2071
	c0.0393,0,0.0617,0.0086,0.1065,0.0086h44.5873c6.0255,0,8.0779-1.6824,9.5163-8.3163l2.274-10.4866h-26.676H268.973z
	 M189.7635,16.7504l-3.1347,13.7363h3.8553c3.4964,0,4.5843-0.959,5.4255-4.9432l0.9617-4.2144
	c0.2411-0.6027,0.2411-1.329,0.2411-1.8113c0-1.9261-1.0851-2.7674-3.6142-2.7674H189.7635z M226.0429,30.2454
	c-2.4592,7.4042-7.5536,11.6389-15.6569,13.5457l10.5594,26.8302c1.974,4.8171,2.9497,5.8994,5.9975,6.3873l0.4122,3.3702h-25.7957
	c-6.0143,0-7.9265-1.5337-10.5818-8.6303l-0.4739-1.3205l-2.6412-7.5257h-0.0981l-5.375-13.0857l-0.3393,0.0756l-4.0965,18.0767
	c-0.0505,0.2244-0.0814,0.3869-0.1319,0.6056l-0.2383,1.2589l-0.5972,2.846c-0.3197,1.1805-0.7402,2.3665-1.0852,3.0758
	c-1.3851,2.9637-4.3179,4.6236-8.549,4.6236h-26.8724l0.7879-3.3702c2.7898-0.4571,3.6619-1.4748,4.761-5.5573l13.6016-58.9208
	c0.6084-2.7702,0.8439-4.4553,0.8439-5.2992c0-2.1703-0.8439-3.1376-3.4936-3.7405L157.8302,0h51.4567
	c7.9546,0,10.9632,0.5973,13.9773,2.7731c3.4965,2.4029,5.4255,6.6255,5.4255,12.051
	C228.6897,19.4,227.6046,25.5434,226.0429,30.2454z M69.9624,39.0915l2.0439-8.5602H46.2892l2.745-12.0987h23.4152
	c3.0169,0,3.8609-0.1205,5.0666-1.2056c1.3206-1.0823,1.4468-1.4468,2.4169-5.4228L82.6948,0H17.5832l-0.8384,3.4879
	c2.5319,0.6056,3.488,1.5674,3.488,3.7376c0,0.844-0.3617,2.5347-0.9561,5.3021L7.3911,63.7264l-1.6123,6.892
	C4.5591,75.4355,3.7685,76.5177,0.7879,77L0,80.373h11.3165c4.8591,0,9.7182,0,14.5774,0h1.172
	c4.2254,0,7.1583-1.6347,8.5491-4.5507c0.3392-0.7039,0.7654-1.8731,1.0823-3.0394l0.1851-0.8637h0.014
	c0.0448-0.2411,0.1121-0.5747,0.1654-0.8663l0.2327-1.0739l0.1289-0.701c0.0953-0.4263,0.1766-0.816,0.2831-1.3152l3.0394-13.2034
	c1.0879-5.061,1.5702-6.1461,2.8908-7.3573c0.9673-0.9534,1.6907-0.9534,5.79-0.9534h11.8576c3.4935,0,4.7299-0.4724,6.2611-1.6908
	C68.7539,43.7965,68.995,43.188,69.9624,39.0915z M332.7582,122.726h6.5548l5.6202-24.9372h-6.5549L332.7582,122.726z
	 M351.2514,108.7624l1.9593,13.9636h6.7076l5.6111-24.9372h-6.2193l-2.4985,13.9307h-0.1169l-1.9323-13.9307h-6.7347
	l-5.6172,24.9372h6.2194l2.5374-13.8976L351.2514,108.7624z M362.8273,122.7262h8.8257c2.0163,0,4.1374-0.1647,6.0756-1.1624
	c2.1451-1.0636,3.4093-2.894,4.0085-5.3835l2.4985-11.0696c0.5303-2.3966,0.6742-4.8264-1.5638-6.1564
	c-1.8813-1.0905-4.7305-1.1655-7.1122-1.1655h-7.112L362.8273,122.7262z M373.9898,102.2825
	c3.1906,0.0629,4.2301,0.2277,3.6129,3.1547l-1.8395,8.1486c-0.6321,3.3195-1.0305,4.9193-5.3654,4.6525L373.9898,102.2825z
	 M388.6035,97.7888l-4.0655,18.056c-1.1563,5.1198,1.5518,7.4806,7.1032,7.4806c6.7017,0,9.5597-3.2566,10.5064-7.4806
	l4.0653-18.056h-6.5459l-4.2032,18.6521c-0.2366,1.0666-1.0635,2.3966-2.7742,2.3966c-1.8574,0-2.034-1.0335-1.7645-2.2288
	l4.2361-18.82H388.6035z M410.2814,114.3827h-6.0756l-0.5992,2.6574c-0.7429,3.2924,1.1234,6.2882,7.1151,6.2882
	c5.4404,0,9.0175-2.6632,10.0959-7.4506c0.6771-3.0227,0.1618-4.6825-1.0874-5.9498c-1.2403-1.2642-3.1637-2.124-5.3148-3.523
	c-1.1203-0.7969-1.8064-1.5639-1.2732-3.0618c0.3866-1.0935,1.3242-1.7585,2.6395-1.6566c2.1269,0.1318,1.6027,2.1271,1.3511,3.583
	h6.0306c1.36-4.6793-0.7821-8.0738-6.4801-8.0738c-5.069,0-8.7717,2.3937-9.8262,7.0793c-0.4913,2.1929-0.1349,3.7208,0.7729,4.988
	c0.9466,1.2642,2.4385,2.226,4.2211,3.2566c1.5009,0.9316,3.2624,1.7285,2.7921,3.8256c-0.2876,1.2613-1.2313,2.4926-2.7592,2.4926
	c-2.0851,0-2.3277-1.2644-2.0072-2.6903L410.2814,114.3827z M426.3869,97.7888l-1.1205,4.9911h5.1378l-4.4907,19.9463h6.5488
	l4.4969-19.9463h5.2906l1.1234-4.9911H426.3869z M446.2943,122.7291l2.2169-9.8385h2.16c1.5008,0.0929,1.7974,1.0905,1.6356,2.6214
	c-0.1497,1.5279-0.7669,3.5861-1.1474,5.7911c-0.0748,0.4974-0.0329,0.9616,0.051,1.4261h7.148l0.075-0.3355
	c-0.2458-0.2308-0.3626-0.5303-0.4405-0.8629c-0.015-1.5937,0.9227-5.8869,1.1834-7.8791c0.2785-1.7287-0.776-2.858-2.5135-3.2266
	l0.0089-0.0658c3.0198-1.1324,4.1493-3.0227,4.7483-5.683c1.1145-4.9582-1.1293-6.8845-6.4949-6.8845h-9.5688l-5.6201,24.9374
	H446.2943z M450.8988,102.2855c3.2145-0.0689,4.5656,0.0629,3.9006,3.0198c-0.3476,1.5308-1.1505,3.0916-3.0498,3.0916h-2.2259
	L450.8988,102.2855z M460.3747,122.726h6.5548l5.6201-24.9372h-6.5578L460.3747,122.726z M470.1381,122.726h15.4555l1.1234-4.988
	h-8.9037l1.2163-5.3806h8.1936l1.1205-4.9909h-8.1936l1.0395-4.5866h8.4543l1.1203-4.9911h-15.009L470.1381,122.726z
	 M495.1953,114.3827h-6.0756l-0.5992,2.6574c-0.7429,3.2924,1.1234,6.2882,7.1151,6.2882c5.4404,0,9.0204-2.6632,10.0988-7.4506
	c0.6742-3.0227,0.1589-4.6825-1.0874-5.9498c-1.2432-1.2642-3.1635-2.124-5.3177-3.523c-1.1203-0.7969-1.8035-1.5639-1.2732-3.0618
	c0.3866-1.0935,1.3242-1.7585,2.6395-1.6566c2.1269,0.1318,1.6056,2.1271,1.3511,3.583h6.0335
	c1.3571-4.6793-0.785-8.0738-6.48-8.0738c-5.0719,0-8.7747,2.3937-9.8292,7.0793c-0.4913,2.1929-0.1349,3.7208,0.7758,4.988
	c0.9437,1.2642,2.4387,2.226,4.2182,3.2566c1.5009,0.9316,3.2654,1.7285,2.7921,3.8256c-0.2876,1.2613-1.2313,2.4926-2.7592,2.4926
	c-2.0821,0-2.3277-1.2644-2.0072-2.6903L495.1953,114.3827z"/>
</svg>
