<?xml version="1.0" encoding="utf-8"?>
<!-- Generator: Adobe Illustrator 22.0.1, SVG Export Plug-In . SVG Version: 6.00 Build 0)  -->
<svg version="1.1" id="Layer_1" xmlns="http://www.w3.org/2000/svg" xmlns:xlink="http://www.w3.org/1999/xlink" x="0px" y="0px"
	 viewBox="0 0 140.1157 18.4541" enable-background="new 0 0 140.1157 18.4541" xml:space="preserve">
<path d="M15.25,4.0713H5.6899v3.2588h8.7949v3.2949H5.6899v7.4229H0V0.7773h15.25V4.0713z M22.667,3.167h-5.6597V0h5.6597V3.167z
	 M22.5142,18.0479h-5.3535V5.0225h5.3535V18.0479z M37.4268,8.8613h-0.4434c-0.2041-0.0537-0.5-0.0947-0.8872-0.1211
	c-0.3877-0.0273-0.8159-0.041-1.2852-0.041c-0.5605,0-1.1494,0.0615-1.7666,0.1855c-0.6167,0.124-1.2158,0.2705-1.7969,0.4404
	v8.7227H25.894V5.0225h5.3535v1.8672c0.2446-0.1699,0.5835-0.3848,1.0171-0.6436c0.4331-0.2588,0.8281-0.4658,1.1851-0.6201
	c0.3877-0.1787,0.8389-0.3311,1.354-0.459c0.5146-0.127,1.002-0.1914,1.4604-0.1914c0.1733,0,0.3672,0.0039,0.5815,0.0117
	c0.2139,0.0078,0.4077,0.0195,0.5811,0.0352V8.8613z M44.021,18.4072c-1.2646,0-2.4604-0.1045-3.5869-0.3125
	c-1.127-0.209-2.0571-0.4531-2.7915-0.7314v-3.4326h0.4438c0.2544,0.1465,0.5454,0.3086,0.8716,0.4863
	c0.3262,0.1787,0.7803,0.3643,1.3613,0.5576c0.4995,0.1777,1.063,0.3301,1.6904,0.458c0.627,0.127,1.3076,0.1914,2.042,0.1914
	c0.7544,0,1.4199-0.0889,1.9961-0.2676c0.5757-0.1777,0.8643-0.46,0.8643-0.8467c0-0.3008-0.1328-0.5293-0.3979-0.6836
	c-0.2651-0.1553-0.7803-0.3018-1.5449-0.4414c-0.4077-0.0771-0.9229-0.1602-1.5449-0.249s-1.1729-0.1914-1.6519-0.3076
	c-1.3462-0.3164-2.3579-0.7861-3.0361-1.4092c-0.6782-0.6221-1.0171-1.4395-1.0171-2.4531c0-0.5801,0.1758-1.127,0.5278-1.6406
	c0.3516-0.5146,0.8691-0.9727,1.5522-1.375c0.6831-0.3945,1.5269-0.707,2.5317-0.9395c1.0039-0.2324,2.1387-0.3477,3.4028-0.3477
	c1.2031,0,2.3101,0.0908,3.3193,0.2725c1.0098,0.1816,1.8608,0.4004,2.5542,0.6553v3.2939h-0.4282
	c-0.1836-0.1084-0.4741-0.2529-0.8716-0.4346c-0.3979-0.1816-0.7856-0.3389-1.1626-0.4697
	c-0.4487-0.1553-0.9512-0.2822-1.5068-0.3828s-1.124-0.1514-1.7051-0.1514c-0.7754,0-1.4302,0.1006-1.9658,0.3018
	c-0.5352,0.2012-0.8027,0.4678-0.8027,0.8008c0,0.2939,0.1323,0.5254,0.3975,0.6953s0.8413,0.3369,1.7285,0.499
	c0.459,0.085,0.9868,0.168,1.583,0.249c0.5967,0.0811,1.1704,0.1914,1.7207,0.3311c1.2339,0.3018,2.1694,0.7441,2.8071,1.3281
	c0.6367,0.584,0.9556,1.3584,0.9556,2.3252c0,0.6113-0.1885,1.1934-0.5659,1.7461c-0.377,0.5527-0.9126,1.0186-1.606,1.3975
	c-0.7339,0.4102-1.5981,0.7266-2.5923,0.9512C46.5981,18.2949,45.4077,18.4072,44.021,18.4072z M60.7202,18.3027
	c-2.1826,0-3.7705-0.3398-4.7646-1.0205s-1.4917-1.7939-1.4917-3.3408V7.8525h-2.0493V5.0225h2.0493V1.2988h5.3535v3.7236h5.1548
	v2.8301h-5.1548v4.6162c0,0.4561,0.0054,0.8545,0.0156,1.1943c0.0098,0.3408,0.0918,0.6465,0.2446,0.917
	c0.1426,0.2705,0.395,0.4854,0.7573,0.6436c0.3618,0.1582,0.8892,0.2373,1.583,0.2373c0.2852,0,0.6602-0.0459,1.124-0.1387
	s0.7876-0.1777,0.9712-0.2549h0.459v2.8643c-0.5811,0.1162-1.1982,0.207-1.8506,0.2725
	C62.4688,18.2705,61.6685,18.3027,60.7202,18.3027z M87.8618,18.0479h-6.9746l-6.3477-6.333h-2.0498v6.333h-5.6899V0.7773h9.1621
	c1.2642,0,2.3657,0.0596,3.3042,0.1797c0.938,0.1201,1.8047,0.3691,2.6001,0.748c0.8154,0.3945,1.4629,0.8955,1.9424,1.502
	c0.4795,0.6074,0.7192,1.3789,0.7192,2.3145c0,1.3223-0.3931,2.3945-1.1782,3.2188c-0.7852,0.8232-1.8354,1.4785-3.1509,1.9658
	L87.8618,18.0479z M78.6538,6.0664c0-0.4336-0.1094-0.8066-0.3286-1.1191c-0.2192-0.3135-0.584-0.5547-1.0938-0.7256
	c-0.3569-0.1152-0.7549-0.1895-1.1929-0.2197c-0.4385-0.0313-0.9844-0.0469-1.6367-0.0469h-1.9121v4.6514h1.6367
	c0.7954,0,1.4707-0.0371,2.0269-0.1104c0.5557-0.0732,1.0269-0.2295,1.4146-0.4697c0.3672-0.2158,0.6401-0.4756,0.8184-0.7773
	C78.5645,6.9482,78.6538,6.5537,78.6538,6.0664z M105.0225,11.541c0,2.1416-0.7725,3.8291-2.3174,5.0625s-3.73,1.8506-6.5542,1.8506
	c-2.8047,0-4.9839-0.6172-6.5391-1.8506s-2.3325-2.9209-2.3325-5.0625c0-2.165,0.7773-3.8604,2.3325-5.0859
	s3.7344-1.8389,6.5391-1.8389c2.8145,0,4.9961,0.6172,6.5464,1.8506C104.2471,7.7002,105.0225,9.3916,105.0225,11.541z
	 M99.5313,11.5645c0-0.7734-0.0845-1.417-0.2524-1.9316c-0.1685-0.5137-0.4004-0.9258-0.6958-1.2354
	c-0.3164-0.3242-0.6733-0.5508-1.0708-0.6787c-0.3979-0.127-0.8516-0.1914-1.3613-0.1914c-0.4795,0-0.9126,0.0566-1.3003,0.1689
	c-0.3877,0.1113-0.7446,0.3262-1.0708,0.6436c-0.3057,0.3018-0.5503,0.7148-0.7339,1.2412
	c-0.1836,0.5254-0.2754,1.1865-0.2754,1.9834c0,0.7959,0.0864,1.4395,0.2598,1.9307s0.3979,0.8838,0.6733,1.1777
	c0.2852,0.3018,0.6421,0.5215,1.0703,0.6611c0.4287,0.1387,0.9028,0.209,1.4229,0.209c0.4282,0,0.8643-0.0703,1.3076-0.209
	c0.4438-0.1396,0.7979-0.3486,1.063-0.627c0.3159-0.332,0.5557-0.7324,0.7192-1.2002
	C99.4492,13.0391,99.5313,12.3916,99.5313,11.5645z M115.5884,18.3955c-1.4175,0-2.7148-0.1348-3.8926-0.4053
	s-2.2002-0.6885-3.0669-1.2529c-0.8564-0.5645-1.5244-1.2744-2.0039-2.1289c-0.4795-0.8535-0.7188-1.8613-0.7188-3.0215
	c0-1.2441,0.2598-2.3037,0.7803-3.1777c0.52-0.874,1.2236-1.5928,2.1104-2.1572c0.8569-0.541,1.8638-0.9414,3.021-1.2002
	c1.1572-0.2598,2.3633-0.3887,3.6177-0.3887c0.9482,0,1.8965,0.083,2.8447,0.249c0.9487,0.166,1.9019,0.4316,2.8604,0.7949v3.4795
	h-0.688c-0.2144-0.1543-0.4771-0.3252-0.7881-0.5107s-0.6499-0.3555-1.0171-0.5098c-0.3877-0.1631-0.8257-0.2998-1.3154-0.4121
	c-0.4893-0.1123-1.0352-0.168-1.6367-0.168c-1.3662,0-2.4243,0.3613-3.1738,1.084c-0.7495,0.7236-1.124,1.6953-1.124,2.917
	c0,1.3076,0.3999,2.2813,1.2007,2.9229c0.8003,0.6426,1.8633,0.9629,3.189,0.9629c0.6733,0,1.2646-0.0576,1.7744-0.1738
	s0.9482-0.2549,1.3154-0.417c0.3569-0.1631,0.6626-0.3311,0.918-0.5049c0.2544-0.1738,0.4741-0.3311,0.6577-0.4697h0.688v3.4795
	c-0.3057,0.1006-0.6602,0.2168-1.063,0.3477c-0.4028,0.1318-0.8135,0.2402-1.2314,0.3252c-0.52,0.1084-1.0068,0.1914-1.4604,0.249
	C116.9316,18.3672,116.3325,18.3955,115.5884,18.3955z M140.1157,18.0479h-6.3633l-4.6499-5.6719l-0.8257,0.8467v4.8252h-5.3535V0
	h5.3535v10.1143l5.0781-5.0918h6.3169l-6.0112,5.6133L140.1157,18.0479z"/>
</svg>
