<?xml version="1.0" encoding="utf-8"?>
<!-- Generator: Adobe Illustrator 22.0.1, SVG Export Plug-In . SVG Version: 6.00 Build 0)  -->
<svg version="1.1" id="Layer_1" xmlns="http://www.w3.org/2000/svg" xmlns:xlink="http://www.w3.org/1999/xlink" x="0px" y="0px"
	 viewBox="0 0 143.3126 20.4541" enable-background="new 0 0 143.3126 20.4541" xml:space="preserve">
<path d="M130.2768,0h-1h-5.3535h-1v1v4.9343l-0.4283-0.1623c-1.0163-0.3852-2.0399-0.6694-3.0424-0.8449
	c-1.0005-0.1751-2.0157-0.264-3.0171-0.264c-1.3251,0-2.616,0.1389-3.8367,0.4129c-1.2622,0.2823-2.3849,0.7299-3.3358,1.3304
	c-1.0195,0.649-1.838,1.4866-2.4359,2.4915c-0.1261,0.2118-0.2394,0.4327-0.3398,0.6625c-0.4461-1.1204-1.1701-2.0823-2.1674-2.876
	c-1.7249-1.3723-4.1369-2.0681-7.1691-2.0681c-3.0207,0-5.429,0.6909-7.158,2.0534c-1.8006,1.419-2.7136,3.3944-2.7136,5.8714
	c0,2.4524,0.9122,4.4193,2.7112,5.846c1.7295,1.3716,4.1386,2.0671,7.1604,2.0671c3.0433,0,5.4584-0.6962,7.1781-2.0691
	c0.9854-0.7867,1.7029-1.7372,2.1484-2.8426c0.083,0.191,0.1749,0.3763,0.2758,0.5558c0.5562,0.9912,1.3387,1.8237,2.3254,2.4741
	c0.9667,0.6296,2.1068,1.0971,3.3933,1.3926c1.2441,0.2858,2.6291,0.4307,4.1164,0.4307c0.7994,0,1.4292-0.0311,1.9254-0.0951
	c0.4757-0.0604,0.9933-0.1486,1.5365-0.2618c0.4492-0.0913,0.9012-0.2107,1.3384-0.3538l1.0646-0.3482l0.4701-0.1547v0.866h1h5.3535
	h1v-1v-3.8819l3.7022,4.5159l0.3001,0.366h0.4733h6.3633h2.1969l-1.4428-1.6567l-5.8207-6.6837l5.3053-4.954l1.8536-1.7309h-2.5361
	h-6.3169h-0.415l-0.2931,0.2939l-3.3701,3.3791V1V0L130.2768,0z M97.1968,15.543c-0.4108,0-0.7859-0.054-1.1151-0.1605
	c-0.2682-0.0875-0.482-0.2174-0.6512-0.3965c-0.1762-0.1882-0.3311-0.4663-0.4572-0.8237
	c-0.1346-0.3813-0.2028-0.9189-0.2028-1.5979c0-0.6805,0.0738-1.2369,0.2194-1.6535c0.1319-0.378,0.2975-0.667,0.4924-0.8595
	c0.2034-0.1979,0.4159-0.3285,0.6442-0.394c0.2988-0.0865,0.6427-0.1301,1.0243-0.1301c0.4019,0,0.7577,0.0485,1.0574,0.1441
	c0.2394,0.0771,0.4558,0.2162,0.6591,0.4245c0.1825,0.1913,0.3402,0.4795,0.4613,0.8485c0.1343,0.4116,0.2027,0.9571,0.2027,1.6201
	c0,0.8842-0.1029,1.3658-0.1892,1.614c-0.1169,0.3342-0.2803,0.6092-0.4992,0.8392c-0.1456,0.1528-0.3606,0.2749-0.6386,0.3624
	C97.8592,15.488,97.5197,15.543,97.1968,15.543L97.1968,15.543z M116.7871,15.4727c-1.0869,0-1.9492-0.2499-2.5629-0.7426
	c-0.5566-0.4459-0.8268-1.1468-0.8268-2.1431c0-0.9469,0.2678-1.6658,0.8186-2.1976c0.5605-0.5405,1.3717-0.8034,2.4792-0.8034
	c0.5253,0,1.0007,0.048,1.413,0.1426c0.434,0.0995,0.8213,0.2203,1.1514,0.3592c0.3224,0.1355,0.6226,0.2857,0.8925,0.4468
	c0.2798,0.1669,0.5208,0.3229,0.7162,0.4635l0.2617,0.1884h0.3225h0.688h0.7827v2.7207h-0.7827h-0.688h-0.3352l-0.2675,0.202
	c-0.1728,0.1305-0.3797,0.2784-0.6192,0.442c-0.2054,0.1399-0.4648,0.2818-0.7694,0.421c-0.2939,0.1297-0.6754,0.2497-1.1222,0.3516
	C117.9061,15.4226,117.3838,15.4727,116.7871,15.4727L116.7871,15.4727z M24.667,0h-1h-5.6597h-1v0.7773H16.25H1H0v1v17.2705v1h1
	h5.6899h1v-1V12.625h7.7949h1v-1V8.3301v-1h-1H7.6899V6.0713H16.25h0.9106v12.9766v1h1h5.3535h1v-1V6.0225V5.167h0.1528v-1V1V0
	L24.667,0z M76.9619,0.7773h-9.1621h-1v1v3.2451h-0.8276h-4.1548V2.2988v-1h-1h-5.3535h-1v1v2.7236h-1.0493h-1v0.4478
	c-0.6347-0.1978-1.3666-0.3718-2.1843-0.5189c-1.0628-0.1913-2.2392-0.2883-3.4964-0.2883c-1.3374,0-2.5582,0.1256-3.6284,0.3734
	c-1.0981,0.254-2.0423,0.6065-2.8063,1.0477c-0.3196,0.1882-0.6106,0.3891-0.8724,0.602V6.0225V5.1086l-0.9101-0.0821
	c-0.1893-0.0171-0.4009-0.03-0.6345-0.0385c-0.2278-0.0083-0.4338-0.0124-0.618-0.0124c-0.5349,0-1.1068,0.0742-1.7,0.2205
	c-0.5778,0.1435-1.0931,0.3189-1.5331,0.5217c-0.237,0.1023-0.5012,0.2324-0.7836,0.3863V6.0225v-1h-1H26.894h-1v1v13.0254v1h1
	h5.3535h1v-1v-7.9582c0.325-0.0817,0.6573-0.1568,0.994-0.2245c0.5479-0.1101,1.076-0.166,1.5694-0.166
	c0.4435,0,0.8522,0.013,1.2148,0.0385c0.4214,0.0287,0.6212,0.0691,0.703,0.0906l0.0651,0.0172
	c0.1618,0.9116,0.5858,1.6861,1.2664,2.3103c0.8138,0.7477,1.9534,1.2861,3.4833,1.6457c0.5006,0.1215,1.0881,0.2311,1.7392,0.3241
	c0.6052,0.0865,1.11,0.1677,1.5004,0.2416c0.2498,0.0456,0.4511,0.0884,0.6126,0.127c-0.3975,0.0862-0.8477,0.1297-1.3441,0.1297
	c-0.6612,0-1.2815-0.0577-1.8435-0.1715c-0.5795-0.1182-1.1027-0.2596-1.5537-0.42c-0.5434-0.181-0.9459-0.3445-1.216-0.4925
	c-0.3205-0.1747-0.6047-0.3329-0.8531-0.476l-0.2317-0.1334h-0.2673h-0.4438h-1v1v3.4326v0.6904l0.6456,0.2447
	c0.7886,0.2989,1.7857,0.5611,2.9636,0.7796c1.1835,0.2185,2.4514,0.3293,3.7692,0.3293c1.4523,0,2.7279-0.1212,3.7911-0.3603
	c1.0864-0.2455,2.0486-0.6,2.8608-1.0539c0.8224-0.4494,1.4793-1.0252,1.9443-1.707c0.4907-0.7186,0.7397-1.4958,0.7397-2.3095
	c0-1.2531-0.4305-2.2834-1.2796-3.0622c-0.771-0.706-1.8324-1.217-3.2455-1.5625c-0.5755-0.1461-1.1919-0.2648-1.8236-0.3506
	c-0.5783-0.0786-1.095-0.1599-1.5356-0.2414c-0.3589-0.0656-0.6277-0.1253-0.8277-0.1765c0.363-0.0911,0.7946-0.1371,1.2882-0.1371
	c0.517,0,1.0307,0.0455,1.527,0.1354c0.507,0.0918,0.9639,0.2075,1.3579,0.3438c0.3395,0.1179,0.7013,0.2642,1.0744,0.4344
	c0.4559,0.2083,0.675,0.3249,0.7784,0.386l0.2352,0.1389h0.2732h0.4282h1v-1V9.8525h0.8564v5.0889
	c0,1.889,0.6483,3.2906,1.9268,4.1659c1.1748,0.8044,2.9181,1.1954,5.3296,1.1954c0.9976,0,1.8161-0.034,2.5025-0.1038
	c0.6809-0.0683,1.3359-0.1648,1.9456-0.2868l0.6315-0.1263v0.262h1h5.6899h1v-1v-5.333h0.6363l6.0549,6.0409l0.2928,0.2921h0.4135
	h6.9746h2.4893l-1.7975-1.7221l-6.5925-6.3161c0.8256-0.4434,1.5327-0.9718,2.1121-1.5793
	c0.9653-1.0133,1.4546-2.3284,1.4546-3.9089c0-1.1615-0.3144-2.1487-0.9343-2.9341c-0.5726-0.7242-1.3435-1.3237-2.2918-1.7825
	c-0.892-0.425-1.8688-0.7066-2.9086-0.8398C79.4196,0.8405,78.2652,0.7773,76.9619,0.7773L76.9619,0.7773z M74.4897,5.9551h0.9121
	c0.6258,0,1.1526,0.0149,1.5657,0.0443c0.3537,0.0244,0.6749,0.0829,0.9567,0.1739c0.2816,0.0945,0.4919,0.219,0.5815,0.3471
	c0.0999,0.1424,0.1481,0.3206,0.1481,0.546c0,0.2947-0.0454,0.5337-0.1279,0.6728c-0.0914,0.1548-0.2475,0.2973-0.4648,0.425
	c-0.284,0.1757-0.6266,0.2861-1.0385,0.3404c-0.5128,0.0675-1.1508,0.1018-1.8962,0.1018h-0.6367V5.9551L74.4897,5.9551z
	 M61.8174,9.8525h4.1548h0.8276v5.2149h-0.8276h-0.459h-0.2015l-0.1858,0.078c-0.0429,0.018-0.2258,0.0854-0.78,0.1962
	c-0.4928,0.0986-0.7766,0.1192-0.9279,0.1192c-0.7232,0-1.0512-0.0962-1.1824-0.1535c-0.1415-0.0618-0.241-0.1323-0.2733-0.1935
	c-0.0869-0.1545-0.1247-0.3029-0.1297-0.4794c-0.01-0.3328-0.0152-0.7212-0.0152-1.1657V9.8525L61.8174,9.8525z"/>
<path fill="#FFFFFF" d="M16.25,5.0713H6.6899v3.2588h8.7949v3.2949H6.6899v7.4229H1V1.7773h15.25V5.0713z M23.667,4.167h-5.6597V1
	h5.6597V4.167z M23.5142,19.0479h-5.3535V6.0225h5.3535V19.0479z M38.4268,9.8613h-0.4434c-0.2041-0.0537-0.5-0.0947-0.8872-0.1211
	c-0.3877-0.0273-0.8159-0.041-1.2852-0.041c-0.5605,0-1.1494,0.0615-1.7666,0.1855c-0.6167,0.124-1.2158,0.2705-1.7969,0.4404
	v8.7227H26.894V6.0225h5.3535v1.8672c0.2446-0.1699,0.5835-0.3848,1.0171-0.6436c0.4331-0.2588,0.8281-0.4658,1.1851-0.6201
	c0.3877-0.1787,0.8389-0.3311,1.354-0.459c0.5146-0.127,1.002-0.1914,1.4604-0.1914c0.1733,0,0.3672,0.0039,0.5815,0.0117
	c0.2139,0.0078,0.4077,0.0195,0.5811,0.0352V9.8613z M45.021,19.4072c-1.2646,0-2.4604-0.1045-3.5869-0.3125
	c-1.127-0.209-2.0571-0.4531-2.7915-0.7314v-3.4326h0.4438c0.2544,0.1465,0.5454,0.3086,0.8716,0.4863
	c0.3262,0.1787,0.7803,0.3643,1.3613,0.5576c0.4995,0.1777,1.063,0.3301,1.6904,0.458c0.627,0.127,1.3076,0.1914,2.042,0.1914
	c0.7544,0,1.4199-0.0889,1.9961-0.2676c0.5757-0.1777,0.8643-0.46,0.8643-0.8467c0-0.3008-0.1328-0.5293-0.3979-0.6836
	c-0.2651-0.1553-0.7803-0.3018-1.5449-0.4414c-0.4077-0.0771-0.9229-0.1602-1.5449-0.249s-1.1729-0.1914-1.6519-0.3076
	c-1.3462-0.3164-2.3579-0.7861-3.0361-1.4092c-0.6782-0.6221-1.0171-1.4395-1.0171-2.4531c0-0.5801,0.1758-1.127,0.5278-1.6406
	c0.3516-0.5146,0.8691-0.9727,1.5522-1.375c0.6831-0.3945,1.5269-0.707,2.5317-0.9395c1.0039-0.2324,2.1387-0.3477,3.4028-0.3477
	c1.2031,0,2.3101,0.0908,3.3193,0.2725c1.0098,0.1816,1.8608,0.4004,2.5542,0.6553v3.2939h-0.4282
	c-0.1836-0.1084-0.4741-0.2529-0.8716-0.4346c-0.3979-0.1816-0.7856-0.3389-1.1626-0.4697
	c-0.4487-0.1553-0.9512-0.2822-1.5068-0.3828s-1.124-0.1514-1.7051-0.1514c-0.7754,0-1.4302,0.1006-1.9658,0.3018
	c-0.5352,0.2012-0.8027,0.4678-0.8027,0.8008c0,0.2939,0.1323,0.5254,0.3975,0.6953s0.8413,0.3369,1.7285,0.499
	c0.459,0.085,0.9868,0.168,1.583,0.249c0.5967,0.0811,1.1704,0.1914,1.7207,0.3311c1.2339,0.3018,2.1694,0.7441,2.8071,1.3281
	c0.6367,0.584,0.9556,1.3584,0.9556,2.3252c0,0.6113-0.1885,1.1934-0.5659,1.7461c-0.377,0.5527-0.9126,1.0186-1.606,1.3975
	c-0.7339,0.4102-1.5981,0.7266-2.5923,0.9512C47.5981,19.2949,46.4077,19.4072,45.021,19.4072z M61.7202,19.3027
	c-2.1826,0-3.7705-0.3398-4.7646-1.0205s-1.4917-1.7939-1.4917-3.3408V8.8525h-2.0493V6.0225h2.0493V2.2988h5.3535v3.7236h5.1548
	v2.8301h-5.1548v4.6162c0,0.4561,0.0054,0.8545,0.0156,1.1943c0.0098,0.3408,0.0918,0.6465,0.2446,0.917
	c0.1426,0.2705,0.395,0.4854,0.7573,0.6436c0.3618,0.1582,0.8892,0.2373,1.583,0.2373c0.2852,0,0.6602-0.0459,1.124-0.1387
	s0.7876-0.1777,0.9712-0.2549h0.459v2.8643c-0.5811,0.1162-1.1982,0.207-1.8506,0.2725
	C63.4688,19.2705,62.6685,19.3027,61.7202,19.3027z M88.8618,19.0479h-6.9746l-6.3477-6.333h-2.0498v6.333h-5.6899V1.7773h9.1621
	c1.2642,0,2.3657,0.0596,3.3042,0.1797c0.938,0.1201,1.8047,0.3691,2.6001,0.748c0.8154,0.3945,1.4629,0.8955,1.9424,1.502
	c0.4795,0.6074,0.7192,1.3789,0.7192,2.3145c0,1.3223-0.3931,2.3945-1.1782,3.2188c-0.7852,0.8232-1.8354,1.4785-3.1509,1.9658
	L88.8618,19.0479z M79.6538,7.0664c0-0.4336-0.1094-0.8066-0.3286-1.1191c-0.2192-0.3135-0.584-0.5547-1.0938-0.7256
	c-0.3569-0.1152-0.7549-0.1895-1.1929-0.2197c-0.4385-0.0313-0.9844-0.0469-1.6367-0.0469h-1.9121v4.6514h1.6367
	c0.7954,0,1.4707-0.0371,2.0269-0.1104c0.5557-0.0732,1.0269-0.2295,1.4146-0.4697c0.3672-0.2158,0.6401-0.4756,0.8184-0.7773
	C79.5645,7.9482,79.6538,7.5537,79.6538,7.0664z M106.0225,12.541c0,2.1416-0.7725,3.8291-2.3174,5.0625s-3.73,1.8506-6.5542,1.8506
	c-2.8047,0-4.9839-0.6172-6.5391-1.8506s-2.3325-2.9209-2.3325-5.0625c0-2.165,0.7773-3.8604,2.3325-5.0859
	s3.7344-1.8389,6.5391-1.8389c2.8145,0,4.9961,0.6172,6.5464,1.8506C105.2471,8.7002,106.0225,10.3916,106.0225,12.541z
	 M100.5313,12.5645c0-0.7734-0.0845-1.417-0.2524-1.9316c-0.1685-0.5137-0.4004-0.9258-0.6958-1.2354
	c-0.3164-0.3242-0.6733-0.5508-1.0708-0.6787c-0.3979-0.127-0.8516-0.1914-1.3613-0.1914c-0.4795,0-0.9126,0.0566-1.3003,0.1689
	c-0.3877,0.1113-0.7446,0.3262-1.0708,0.6436c-0.3057,0.3018-0.5503,0.7148-0.7339,1.2412
	c-0.1836,0.5254-0.2754,1.1865-0.2754,1.9834c0,0.7959,0.0864,1.4395,0.2598,1.9307s0.3979,0.8838,0.6733,1.1777
	c0.2852,0.3018,0.6421,0.5215,1.0703,0.6611c0.4287,0.1387,0.9028,0.209,1.4229,0.209c0.4282,0,0.8643-0.0703,1.3076-0.209
	c0.4438-0.1396,0.7979-0.3486,1.063-0.627c0.3159-0.332,0.5557-0.7324,0.7192-1.2002
	C100.4492,14.0391,100.5313,13.3916,100.5313,12.5645z M116.5884,19.3955c-1.4175,0-2.7148-0.1348-3.8926-0.4053
	s-2.2002-0.6885-3.0669-1.2529c-0.8564-0.5645-1.5244-1.2744-2.0039-2.1289c-0.4795-0.8535-0.7188-1.8613-0.7188-3.0215
	c0-1.2441,0.2598-2.3037,0.7803-3.1777c0.52-0.874,1.2236-1.5928,2.1104-2.1572c0.8569-0.541,1.8638-0.9414,3.021-1.2002
	c1.1572-0.2598,2.3633-0.3887,3.6177-0.3887c0.9482,0,1.8965,0.083,2.8447,0.249c0.9487,0.166,1.9019,0.4316,2.8604,0.7949v3.4795
	h-0.688c-0.2144-0.1543-0.4771-0.3252-0.7881-0.5107s-0.6499-0.3555-1.0171-0.5098c-0.3877-0.1631-0.8257-0.2998-1.3154-0.4121
	c-0.4893-0.1123-1.0352-0.168-1.6367-0.168c-1.3662,0-2.4243,0.3613-3.1738,1.084c-0.7495,0.7236-1.124,1.6953-1.124,2.917
	c0,1.3076,0.3999,2.2813,1.2007,2.9229c0.8003,0.6426,1.8633,0.9629,3.189,0.9629c0.6733,0,1.2646-0.0576,1.7744-0.1738
	s0.9482-0.2549,1.3154-0.417c0.3569-0.1631,0.6626-0.3311,0.918-0.5049c0.2544-0.1738,0.4741-0.3311,0.6577-0.4697h0.688v3.4795
	c-0.3057,0.1006-0.6602,0.2168-1.063,0.3477c-0.4028,0.1318-0.8135,0.2402-1.2314,0.3252c-0.52,0.1084-1.0068,0.1914-1.4604,0.249
	C117.9316,19.3672,117.3325,19.3955,116.5884,19.3955z M141.1157,19.0479h-6.3633l-4.6499-5.6719l-0.8257,0.8467v4.8252h-5.3535V1
	h5.3535v10.1143l5.0781-5.0918h6.3169l-6.0112,5.6133L141.1157,19.0479z"/>
</svg>
