<?xml version="1.0" encoding="utf-8"?>
<!-- Generator: Adobe Illustrator 22.0.1, SVG Export Plug-In . SVG Version: 6.00 Build 0)  -->
<svg version="1.1" id="Layer_1" xmlns="http://www.w3.org/2000/svg" xmlns:xlink="http://www.w3.org/1999/xlink" x="0px" y="0px"
	 viewBox="0 0 139.9438 8.1426" enable-background="new 0 0 139.9438 8.1426" xml:space="preserve">
<path d="M0,0.1338h2.9941v2.7549h3.2715V0.1338h3.0073v7.874H6.2656V4.8223H2.9941v3.1855H0V0.1338z M15.3257,4.0762
	c0-1.2852,0.4404-2.2861,1.3218-3.002C17.5288,0.3574,18.7559,0,20.3291,0c1.6128,0,2.8555,0.3516,3.728,1.0547
	c0.8726,0.7041,1.3086,1.6895,1.3086,2.957c0,0.9199-0.1909,1.6748-0.5718,2.2637c-0.3813,0.5889-0.9321,1.0479-1.6523,1.375
	c-0.7207,0.3281-1.6182,0.4922-2.6934,0.4922c-1.0928,0-1.9976-0.1416-2.7134-0.4248c-0.7163-0.2832-1.2969-0.7305-1.7417-1.3428
	C15.5479,5.7627,15.3257,4.9961,15.3257,4.0762z M18.3198,4.0869c0,0.7949,0.1816,1.3662,0.5454,1.7139
	c0.3633,0.3467,0.8579,0.5205,1.4839,0.5205c0.6431,0,1.1411-0.1699,1.4937-0.5107c0.3525-0.3398,0.5288-0.9502,0.5288-1.8311
	c0-0.7412-0.1841-1.2832-0.5518-1.625c-0.3682-0.3418-0.8672-0.5127-1.4971-0.5127c-0.604,0-1.0889,0.1738-1.4546,0.5215
	C18.5024,2.71,18.3198,3.2852,18.3198,4.0869z M31.3857,0.1338h3.9375l1.5186,4.791l1.5078-4.791h3.9355v7.874H39.833V2.0029
	l-1.8896,6.0049h-2.2197l-1.8857-6.0049v6.0049h-2.4521V0.1338z M48.6284,0.1338h8.0239v1.6807h-5.0229v1.252h4.6597v1.6055h-4.6597
	v1.5527h5.1685v1.7832h-8.1694V0.1338z M71.8047,0.1338h2.9946v5.9346h4.6729v1.9395h-7.6675V0.1338z M84.897,4.0762
	c0-1.2852,0.4404-2.2861,1.3218-3.002C87.1001,0.3574,88.3271,0,89.9004,0c1.6128,0,2.8555,0.3516,3.728,1.0547
	c0.8726,0.7041,1.3086,1.6895,1.3086,2.957c0,0.9199-0.1909,1.6748-0.5718,2.2637c-0.3813,0.5889-0.9321,1.0479-1.6523,1.375
	c-0.7207,0.3281-1.6182,0.4922-2.6934,0.4922c-1.0928,0-1.9976-0.1416-2.7134-0.4248c-0.7163-0.2832-1.2969-0.7305-1.7417-1.3428
	C85.1191,5.7627,84.897,4.9961,84.897,4.0762z M87.8911,4.0869c0,0.7949,0.1816,1.3662,0.5454,1.7139
	c0.3633,0.3467,0.8579,0.5205,1.4839,0.5205c0.6431,0,1.1411-0.1699,1.4937-0.5107c0.3525-0.3398,0.5288-0.9502,0.5288-1.8311
	c0-0.7412-0.1841-1.2832-0.5518-1.625c-0.3682-0.3418-0.8672-0.5127-1.4971-0.5127c-0.604,0-1.0889,0.1738-1.4546,0.5215
	C88.0737,2.71,87.8911,3.2852,87.8911,4.0869z M106.9473,6.708h-3.3994l-0.4722,1.2998h-3.0571l3.6416-7.874h3.2661l3.6411,7.874
	h-3.1353L106.9473,6.708z M106.3262,5.0059l-1.0698-2.8311l-1.0581,2.8311H106.3262z M115.979,0.1338h2.7959l3.6484,4.3564V0.1338
	h2.8223v7.874h-2.8223l-3.6284-4.3232v4.3232h-2.8159V0.1338z M131.1528,5.4023l2.8486-0.1445
	c0.062,0.376,0.1875,0.6621,0.377,0.8594c0.3086,0.3184,0.749,0.4785,1.3218,0.4785c0.4272,0,0.7568-0.082,0.9883-0.2451
	s0.3472-0.3516,0.3472-0.5664c0-0.2041-0.1104-0.3867-0.3306-0.5479c-0.2207-0.1611-0.7314-0.3135-1.5337-0.457
	c-1.313-0.2393-2.2495-0.5586-2.8091-0.9551c-0.564-0.3984-0.8457-0.9043-0.8457-1.5205c0-0.4043,0.144-0.7871,0.4326-1.1465
	c0.2886-0.3604,0.7227-0.6426,1.3022-0.8486S134.625,0,135.6343,0c1.2383,0,2.1821,0.1865,2.832,0.5605s1.0366,0.9697,1.1602,1.7861
	l-2.8223,0.1338c-0.0752-0.3535-0.2324-0.6113-0.4727-0.7734c-0.2402-0.1602-0.5718-0.2412-0.9946-0.2412
	c-0.3481,0-0.6104,0.0596-0.7866,0.1797s-0.2646,0.2666-0.2646,0.4385c0,0.125,0.0728,0.2373,0.2183,0.3379
	c0.1411,0.1035,0.4761,0.2002,1.0049,0.29c1.3086,0.2295,2.2461,0.4609,2.812,0.6953c0.5664,0.2344,0.9785,0.5254,1.2363,0.873
	s0.3867,0.7354,0.3867,1.165c0,0.5059-0.1719,0.9707-0.5156,1.3965c-0.3438,0.4268-0.8242,0.75-1.4409,0.9697
	c-0.6172,0.2207-1.3945,0.3311-2.3335,0.3311c-1.6479,0-2.7891-0.2578-3.4233-0.7734
	C131.5957,6.8535,131.2363,6.1973,131.1528,5.4023z"/>
</svg>
