<?xml version="1.0" encoding="utf-8"?>
<!-- Generator: Adobe Illustrator 22.0.1, SVG Export Plug-In . SVG Version: 6.00 Build 0)  -->
<svg version="1.1" id="Layer_1" xmlns="http://www.w3.org/2000/svg" xmlns:xlink="http://www.w3.org/1999/xlink" x="0px" y="0px"
	 viewBox="0 0 1280 640" enable-background="new 0 0 1280 640" xml:space="preserve">
<rect x="0" y="0" fill="#002169" width="1280" height="640"/>
<polygon fill="#FFFFFF" points="640,106 499.55,106 640,35.78 640,0 568.45,0 374,97.22 374,0 266,0 266,97.22 71.55,0 0,0 0,35.78 
	140.45,106 0,106 0,214 140.45,214 0,284.22 0,320 71.56,320 266,222.78 266,320 374,320 374,222.78 568.44,320 640,320 640,284.22 
	499.55,214 640,214 "/>
<polygon fill="#EA0029" points="212,106 0,0 0,23.48 165.04,106 "/>
<polygon fill="#EA0029" points="211.34,214 0,320 46.96,320 258.96,214 "/>
<polygon fill="#EA0029" points="640,0 593.04,0 381.04,106 426.67,106 "/>
<polygon fill="#EA0029" points="428,214 640,320 640,296.27 475.16,214 "/>
<polygon fill="#EA0029" points="350.5,320 289.5,320 289.5,190.5 0,190.5 0,129.5 289.5,129.5 289.5,0 350.5,0 350.5,129.5 
	640,129.5 640,190.5 350.5,190.5 "/>
<g>
	<path id="Star7" fill="#FFFFFF" d="M320,384l18.51,57.56l56.54-21.41l-33.46,50.36l52,30.86l-60.23,5.24l8.29,59.89L320,522.67
		l-41.65,43.83l8.29-59.89l-60.23-5.24l52-30.86l-33.46-50.36l56.54,21.41L320,384z"/>
	<path id="Star7_1_" fill="#FFFFFF" d="M960,487.62l8.82,27.41l26.93-10.2l-15.93,23.98l24.76,14.69l-28.68,2.5l3.95,28.52
		L960,553.65l-19.83,20.87l3.95-28.52l-28.68-2.5l24.76-14.69l-15.93-23.98l26.93,10.2L960,487.62z"/>
	<path id="Star7_2_" fill="#FFFFFF" d="M800,234.29l8.82,27.41l26.93-10.2l-15.93,23.98l24.76,14.69l-28.68,2.5l3.95,28.52
		L800,300.32l-19.83,20.87l3.95-28.52l-28.68-2.5l24.76-14.69l-15.93-23.98l26.93,10.2L800,234.29z"/>
	<path id="Star7_3_" fill="#FFFFFF" d="M960,60.95l8.82,27.41l26.93-10.2l-15.93,23.98l24.76,14.69l-28.68,2.5l3.95,28.52
		L960,126.98l-19.83,20.87l3.95-28.52l-28.68-2.5l24.76-14.69l-15.93-23.98l26.93,10.2L960,60.95z"/>
	<path id="Star7_4_" fill="#FFFFFF" d="M1102.22,191.62l8.82,27.41l26.93-10.2l-15.93,23.98l24.76,14.69l-28.68,2.5l3.95,28.52
		l-19.83-20.87l-19.83,20.87l3.95-28.52l-28.68-2.5l24.76-14.69l-15.93-23.98l26.93,10.2L1102.22,191.62z"/>
	<path id="Star5" fill="#FFFFFF" d="M1024,320l6.97,17.08l18.4,1.35l-14.09,11.9l4.4,17.91l-15.67-9.72l-15.67,9.72l4.4-17.91
		l-14.09-11.9l18.4-1.35L1024,320z"/>
</g>
</svg>
