<svg xmlns="http://www.w3.org/2000/svg" viewBox="0 0 98.86 37.08"><path fill="#D9D9D9" d="M49.43 0C22 0 0 8.22 0 18.54c0 10.25 22.18 18.54 49.43 18.54 27.26 0 49.43-8.32 49.43-18.54S76.69 0 49.43 0m49.14 17.1c.02.09.03.18.05.27-.02-.09-.04-.18-.05-.27"/><radialGradient id="a" cx="48.9345" cy="-161.578" r="213.5757" gradientTransform="matrix(1 0 0 -1 0 42.949)" gradientUnits="userSpaceOnUse"><stop offset=".7385" stop-color="#021632"/><stop offset=".7862" stop-color="#021835"/><stop offset=".8149" stop-color="#031f3d"/><stop offset=".8386" stop-color="#042b4b"/><stop offset=".8596" stop-color="#063b60"/><stop offset=".8787" stop-color="#08517a"/><stop offset=".8965" stop-color="#0b6b9a"/><stop offset=".913" stop-color="#0f8ac0"/><stop offset=".9192" stop-color="#1097d0"/></radialGradient><path fill="url(#a)" d="M.76 18.53c0 9.83 21.78 17.78 48.67 17.78 26.9 0 48.68-7.95 48.68-17.78C98.11 8.69 76.33.74 49.43.74 22.54.74.76 8.69.76 18.53"/><linearGradient id="b" gradientUnits="userSpaceOnUse" x1="49.97" y1="5.4635" x2="49.97" y2="43.1529" gradientTransform="matrix(1 0 0 -1 0 42.949)"><stop offset="0" stop-color="#12193a"/><stop offset=".2268" stop-color="#131b3e"/><stop offset=".4534" stop-color="#17224a"/><stop offset=".6792" stop-color="#1d2d5e"/><stop offset=".809" stop-color="#21356d"/><stop offset=".9062" stop-color="#114d86"/><stop offset="1" stop-color="#0068a3"/></linearGradient><path fill="url(#b)" d="M4.42 18.53c0-8.19 20.15-14.83 45.01-14.83 23.59 0 42.93 5.98 44.85 13.58C91.4 10.06 72.52 4.47 49.66 4.47c-24.86 0-45.01 6.6-45.01 14.74 0 .43.06.86.17 1.29-.26-.64-.4-1.3-.4-1.97m91.66 0c0 8.97-20.88 16.23-46.64 16.23-22.93 0-41.99-5.76-45.91-13.34 2.98 7.9 22.55 14 46.24 14 25.76 0 46.64-7.2 46.64-16.1 0-.9-.21-1.79-.63-2.65.19.62.3 1.23.3 1.86"/><linearGradient id="c" gradientUnits="userSpaceOnUse" x1="49.745" y1="30.4606" x2="49.745" y2="4.3783"><stop offset="0" stop-color="#12193a"/><stop offset=".2268" stop-color="#131b3e"/><stop offset=".4534" stop-color="#17224a"/><stop offset=".6792" stop-color="#1d2d5e"/><stop offset=".809" stop-color="#21356d"/><stop offset=".9062" stop-color="#114d86"/><stop offset="1" stop-color="#0068a3"/></linearGradient><path fill="url(#c)" d="M58.12 20.1c.04-.04.07-.05.11-.05.07 0 .13.07.11.14-.06.29-.04.58.06.84-.56.88-.35 1.99.1 2.55-.3-.02-.58-.12-.83-.35-.67-.63-.59-2.04.45-3.13m10.87 3.03c-.03-.23-.08-.53-.09-.7 0 .01.01.02.01.04.01.08.13.17.23.2.04.01.06.04.01.13-.05.12-.11.23-.16.33m-.09-.71c0 .01 0 .01 0 0zm1.27-3.56c.35.33.56.74.6 1.11.01.18.15.2.26.04.03-.04.06-.1.1-.15-.03-.04-.06-.08-.1-.12-.14-.18-.5-.57-.86-.88zm-14.46-.68c.28.38.41.93.39 1.63 0 .18.13.17.21.05.05-.07.09-.13.14-.19-.2-.64-.52-1.26-.74-1.49zm9.64 3.65c-.97 1.2-1.5 2.42-1.52 3.6-.01.42.15.94.53 1.14.12.06.24.11.37.13-.04-.17-.06-.33-.07-.48-.01-1.22.37-2.45 1.34-3.64 1.18-1.46 2.42-2.18 3.29-1.78-.04-.32-.21-.6-.58-.77-.16-.08-.33-.11-.51-.11-.83 0-1.88.72-2.85 1.91M45.78 19.3c.15-.06.18-.15.15-.28.05.14.21.71.26.94.03.14.01.22-.14.29-1.17.5-2.19.97-3.1 2.2-.88 1.19-1.15 2.74-.78 3.9-.22-.11-.42-.28-.58-.5-.7-.97-.42-2.65.62-4.04.92-1.23 2.25-2.01 3.57-2.51m.15-.29c0 .01 0 .01 0 0 0 .01 0 .01 0 0zm9.74 4c-1.23 1.88-2.38 3.7-3.61 5.62-.06.09-.12.15-.24.15H49.4c-.09 0-.15-.04-.17-.1.06.29.17.82.2.94.02.08.08.13.18.13h2.74c.11-.01.19-.07.25-.15 1.11-1.74 2.3-3.63 3.43-5.37.25.88.38 1.29.84 1.7.47.42.9.53 1.55.54.58.01 1.16-.23 1.84-.51.24-.1.46-.23.66-.35 0-.32.03-.65.09-.96 0-.03-.03-.25-.21-.12-.32.23-.73.48-1.24.67-.63.24-.92.32-1.51.32-.73 0-1.39-.32-1.86-1.04-.26-.39-.37-.99-.39-1.43 0-.03-.03-.08-.07-.08-.01-.01-.03 0-.06.04M61 26.46v-.02.02m0-.01v-.02c-.01.01 0 .01 0 .02zm15.89-2.47c.03-.03.05-.07.05-.12.06.26.16.78.22 1.06.03.12.03.2-.02.26-1.13 1.31-2.05 2.28-3.29 3.24-2.22 1.72-4.36 2.24-5.36 1.1-.14-.16-.3-.46-.4-.78-.01-.04-.09-.35-.16-.6-.02.02-.02.03-.04.04-1.47 1.42-3.76 2.31-5.36 1.52-.28-.14-.74-.58-.95-.98-.32-.6-.46-1.56-.58-2.24.18.93.67 1.78 1.58 2.23 1.81.89 3.79-.36 4.93-1.49.11-.11.23-.1.24.14.02.43.22.94.58 1.3.96.96 2.89.58 4.83-.92 1.25-.97 2.55-2.32 3.73-3.76m-15.32-3.96c-.11.72-.5 1.35-1.16 1.67-.56.27-1.21.22-1.67-.18-.14-.13-.25-.29-.32-.45.12.54.22.94.36 1.15.43.65 1.18.81 2 .37.6-.32 1.12-1.01 1.05-2.11-.03-.55-.19-1.12-.45-1.58.18.33.25.72.19 1.13m16.91-6.8c.02-.04.03-.07.02-.1.03.13.25 1.19.27 1.29.01.04.02.1-.01.16-.37.65-7.15 10.96-7.61 12.1-.07.18-.12.33-.15.47-.25 0-.47-.07-.61-.27-.15-.2-.13-.48.01-.84.46-1.14 7.7-12.16 8.08-12.81m-30.06 5.13c.02.02.04.05.06.07.44.65.67 1.56.7 2.5.03.2.11.2.21.1.09-.09.17-.18.26-.28-.13-.51-.32-.96-.53-1.4-.08-.15-.41-.72-.7-.99zm3.69 2.18c-1.56 1.18-2.87 3.03-3.54 3.85-.39.49-.76 1.2-1.79 2.31-1.61 1.75-3.75 2.75-5.8 2.06-1.12-.38-1.94-1.28-2.25-2.39-.06-.22-.18-.27-.3-.13-.33.41-1.01 1.02-1.58 1.41-.06.04-.21.13-.35.07-.12-.05-.54-.65-.63-.82-.01-.02-.02-.04-.02-.06v.01c.15.74.17.82.37 1.16.23.38.45.64.5.66.13.07.27 0 .33-.03.44-.23 1.3-.89 1.67-1.35.11-.11.22-.04.26.08.16.49.38.87.64 1.27.28.45.83.91 1.55 1.11.93.26 1.94.31 3.26-.2 1.06-.41 2.17-1.23 3.03-2.16 1.03-1.11 1.4-1.83 1.78-2.31.66-.82 1.7-2.28 3.15-3.52.51-.43 1.06-.71 1.41-.58.21-.54.11-.84-.11-.98-.08-.05-.17-.07-.27-.07-.35-.01-.86.27-1.31.61m-25.99-1.47c-.88.45-1.94 1.22-2.46 2.26-.43.86-.51 1.89.14 2.87.05.08.11.16.18.23-.21-.82.02-1.69.34-2.35.52-1.05 1.25-1.55 1.97-2 .31-.2.45-.39.26-.9-.05-.14-.08-.41-.14-.64.03.23-.09.42-.29.53m6.64-10.54c-2.54.95-3.65 2.96-3.12 4.31.1.26.27.46.48.6-.18-1.24.75-3.27 3.19-4.08 3.19-1.05 6.75-.39 9.61.22.4-.25.75-.42 1.1-.61.17-.09-.02-.2-.08-.2-2.29-.43-4.64-.94-6.96-.94-1.41 0-2.83.19-4.22.7m10.64 7.55c-1.15.07-2.94.24-4.16.39-.29.04-.34.09-.4.19-1.94 3.19-4 6.64-6.27 8.94-2.44 2.47-4.46 3.12-6.61 3.14-2.48.02-4.69-1.39-5.25-3.86.3 1.38 1.19 3.04 2.22 3.76 1.05.74 2.08.98 3.28 1 2.44.04 4.67-.97 7.04-3.37 2.27-2.31 4.24-5.53 6.18-8.72.07-.11.13-.16.46-.2 1.22-.15 2.31-.22 3.38-.32.32-.03.56-.06.68.06.39.39.84.74 1.14.92.2 0 .36.05.48.15.13-.02.24-.09.31-.16.14-.14.15-.29.12-.43-.05-.26-.12-.79-.2-.94.06.12.02.28-.1.41-.08.1-.22.19-.39.18-.14 0-.22-.05-.4-.14-.36-.19-.81-.52-1.11-.89-.08-.1-.13-.12-.26-.12-.04.01-.08.01-.14.01M32.91 18c-.27.19-.65.17-.82-.09-.06-.08-.09-.18-.09-.27-.03.41.14 1.02.28 1.23.15.23.56.34.89.09.74-.55 1.41-.86 2.16-1.01.19-.26.4-.56.64-.88.02-.03.03-.06.02-.08-.01-.03-.04-.04-.08-.04-1.11.03-2.07.36-3 1.05m30.98-9.69c-.04.71-.59 1.39-1.94 2.12-1.54.84-3.14 1.1-4.82 1.11-4.05.03-7.83-1.55-11.74-2.4.01.17.05.38-.09.48-2.16 1.6-4.12 3.22-5.43 5.5-.05.05-.02.1.06.1.34-.02.68-.03 1.01-.05 1.19-1.87 2.47-2.94 4.42-4.38.14-.11.29-.19.24-.6 3.92.87 6.9 2.31 11.97 2.33 1.51 0 3.64-.5 4.79-1.19 1.32-.79 1.67-1.38 1.72-1.99.01-.19-.04-.48-.07-.63-.04-.21-.07-.47-.13-.67.01.08.02.17.01.27m-18.87 4.77c-.05.05-.1.09-.15.14-.39.4-.51.93-.45 1.33.03.16.09.2.17.18.07-.02.15-.04.22-.07.03-.22.12-.43.34-.63.16-.14.36-.21.54-.18.15-.3.19-.65.01-.81-.08-.07-.18-.1-.29-.1-.13 0-.27.05-.39.14m1.55 1.38c-.37.71-.98 1.09-1.57 1.28 0 0-.12.03-.11.14.01.13.43.39.69.58.04-.01.09-.03.09-.03.3-.12.81-.42 1.1-1.06.19-.41.29-.73.21-1.44-.06-.49-.16-.94-.29-1.17.26.51.16 1.17-.12 1.7m-10.82-3.32c.07.18.07.45-.07.78-1.07 2.52-3.12 4.52-5.62 4.61-1.5.05-2.63-.72-3.16-1.86.39.85 1.18 1.61 1.87 2.04.54.34 1.21.53 1.97.5 2.6-.09 4.57-2.23 5.22-4.04.17-.49.04-1.01-.04-1.37-.03-.13-.07-.44-.17-.66z"/><path fill="#585857" d="M49.43 0C22 0 0 8.22 0 18.54c0 10.25 22.18 18.54 49.43 18.54 27.26 0 49.43-8.32 49.43-18.54S76.69 0 49.43 0M.34 18.74c-.01-2.17.94-4.33 2.96-6.35C10.37 5.25 28.92.42 49.35.34 76.42.23 98.48 8.3 98.53 18.33c.01 2.17-1 4.3-3.01 6.32-7.08 7.14-25.56 11.99-46 12.08C22.45 36.85.39 28.78.34 18.74m98.23-1.64c.02.09.03.18.05.27-.02-.09-.04-.18-.05-.27"/><linearGradient id="d" gradientUnits="userSpaceOnUse" x1="38.5586" y1="-2.9379" x2="27.1428" y2="39.6666" gradientTransform="matrix(1 0 0 -1 0 42.949)"><stop offset="0" stop-color="#bbb"/><stop offset=".35" stop-color="#e3e3e2"/><stop offset=".65" stop-color="#e3e3e2"/><stop offset="1" stop-color="#bbb"/></linearGradient><path fill="url(#d)" d="M.15 18.54c0 .49.06.96.16 1.44-.07-.41-.12-.82-.12-1.23-.01-2.2.97-4.42 3-6.46C10.3 5.1 28.86.27 49.35.18c2.84-.01 5.62.07 8.33.23C55 .25 52.24.16 49.43.16 22.11.16.15 8.35.15 18.54"/><linearGradient id="e" gradientUnits="userSpaceOnUse" x1="68.6279" y1="20.3357" x2="57.257" y2="62.7727" gradientTransform="matrix(1 0 0 -1 0 42.949)"><stop offset="0" stop-color="#bbb"/><stop offset=".35" stop-color="#e3e3e2"/><stop offset=".65" stop-color="#e3e3e2"/><stop offset="1" stop-color="#bbb"/></linearGradient><path fill="url(#e)" d="M98.68 18.34c.01 2.2-1.03 4.39-3.06 6.43-7.09 7.15-25.65 12.03-46.11 12.12-2.89.01-5.73-.06-8.49-.23 2.73.18 5.54.26 8.4.26 27.18 0 49.28-8.29 49.28-18.38 0-.39-.04-.77-.1-1.15.06.32.08.63.08.95"/><linearGradient id="f" gradientUnits="userSpaceOnUse" x1="49.425" y1="43.3919" x2="49.425" y2="5.5172" gradientTransform="matrix(1 0 0 -1 0 42.949)"><stop offset="0" stop-color="#fff"/><stop offset=".4601" stop-color="#fdfdfd"/><stop offset=".6272" stop-color="#f6f6f6"/><stop offset=".691" stop-color="#f1f1f1"/><stop offset=".8" stop-color="#ececec"/><stop offset="1" stop-color="#d9d9d9"/></linearGradient><path fill="url(#f)" d="M4.42 18.53c0-8.19 20.15-14.83 45.01-14.83s45.01 6.64 45.01 14.83-20.15 14.83-45.01 14.83S4.42 26.72 4.42 18.53m-1.64 0c0 8.97 20.89 16.23 46.65 16.23s46.64-7.27 46.64-16.23c0-8.97-20.88-16.24-46.64-16.24C23.67 2.3 2.78 9.56 2.78 18.53"/><linearGradient id="g" gradientUnits="userSpaceOnUse" x1="49.5523" y1="38.4001" x2="49.5523" y2="12.374" gradientTransform="matrix(1 0 0 -1 0 42.949)"><stop offset="0" stop-color="#fff"/><stop offset=".4601" stop-color="#fdfdfd"/><stop offset=".6272" stop-color="#f6f6f6"/><stop offset=".691" stop-color="#f1f1f1"/><stop offset=".8" stop-color="#ececec"/><stop offset="1" stop-color="#d9d9d9"/></linearGradient><path fill="url(#g)" d="M64.36 26.57c-.37-.19-.53-.71-.53-1.14.02-1.19.54-2.4 1.52-3.6 1.19-1.46 2.5-2.22 3.36-1.81.89.43.61 1.46.21 2.27-.03.06-.03.12-.02.17.01.08.13.17.23.2.04.01.06.04.01.13-.31.66-.59 1.04-.98 1.61-.35.53-.75.94-1.24 1.34-.56.47-1.3.96-1.99.96-.18.02-.38-.03-.57-.13m11.47-13.54c-.19 0-.28.02-.37.19-.29.55-3.78 5.78-4.43 6.8-.11.15-.24.13-.26-.04-.07-.6-.59-1.3-1.41-1.63-.63-.25-1.24-.3-1.87-.22-1.15.15-2.17.76-3.07 1.44-1.36 1.03-2.53 2.37-4.03 3.35-.82.54-1.95 1-2.71.31-.68-.63-.61-2.04.44-3.13.11-.11.24-.02.22.08-.1.49.02.98.4 1.33.46.41 1.11.46 1.67.18.66-.33 1.05-.96 1.16-1.67.18-1.11-.68-2.09-1.75-2.17-.87-.06-1.7.24-2.52.91-.41.34-.64.59-.99 1.09-.09.12-.22.14-.21-.05.04-1.42-.55-2.22-1.72-2.25-.91-.02-1.89.47-2.65 1.08-.83.67-1.56 1.56-2.34 2.39-.1.1-.18.1-.21-.1-.02-.94-.26-1.86-.7-2.5-.15-.23-.48-.34-.75-.18-.13.07-.57.27-.88.53-.16.13-.22.32-.15.56.42 1.41.33 3.01-.24 4.36-.52 1.24-1.54 2.36-2.74 2.73-.79.25-1.61.13-2.12-.57-.7-.97-.42-2.65.62-4.04.92-1.23 2.24-2.01 3.57-2.51.16-.06.19-.16.14-.29-.07-.22-.19-.51-.23-.65-.12-.32-.46-.38-.88-.33-.96.11-1.83.44-2.69.9-2.24 1.2-3.37 3.53-3.86 4.77-.24.6-.44.97-.7 1.3-.35.44-.8.85-1.61 1.56-.07.07-.13.2-.07.33.08.17.5.77.63.82.13.07.28-.03.35-.07.57-.39 1.25-1 1.58-1.41.12-.14.24-.08.3.13.31 1.11 1.12 2.01 2.25 2.39 2.06.69 4.19-.31 5.8-2.06 1.02-1.11 1.39-1.83 1.79-2.31.67-.82 1.98-2.67 3.54-3.85.57-.44 1.25-.77 1.59-.55.27.18.36.59-.08 1.39-1.59 2.91-3.93 6.33-4.36 7.15-.08.14-.01.26.14.26h2.42c.13-.01.18-.06.24-.15 1.22-1.91 2.37-3.73 3.61-5.62.07-.11.13-.03.14.02.03.44.13 1.04.39 1.43.47.73 1.13 1.04 1.86 1.04.58.01.88-.08 1.51-.32.51-.19.92-.44 1.24-.67.18-.13.21.09.21.12-.28 1.52.07 3.32 1.58 4.06 1.81.89 3.79-.36 4.93-1.49.11-.11.23-.1.24.14.02.43.22.94.58 1.3.96.96 2.89.58 4.83-.92 1.24-.96 2.55-2.32 3.72-3.76.04-.06.08-.14-.01-.24-.18-.19-.44-.4-.61-.57-.08-.07-.2-.05-.27 0-1.21 1.14-2.29 2.45-3.86 3.53-.53.37-1.37.67-1.75.15-.15-.2-.13-.48.01-.84.46-1.14 7.7-12.16 8.07-12.81.06-.11 0-.19-.15-.19-.77.03-1.74.04-2.52.04m-31.42 1.52c-.06-.43.08-1.01.54-1.42.23-.21.55-.25.74-.09.22.18.11.64-.1.96-.24.35-.64.65-1.01.73h-.03c-.06 0-.11-.04-.14-.18m-9.15-8.13c-4.45.38-8.68 2.88-8.69 6.68 0 1.93 1.37 3.49 3.49 3.42 2.5-.08 4.55-2.09 5.62-4.61.41-.96-.35-1.35-.71-.8-.64.99-1.54 1.76-2.52 2.24-1.18.57-2.43.42-2.81-.54-.53-1.34.58-3.36 3.12-4.31 3.67-1.36 7.5-.46 11.19.23.05 0 .25.11.08.2-.66.36-1.31.65-2.33 1.53-.73.62-1.68 1.45-2.41 2.35-.73.89-1.25 1.68-1.94 2.56-.09.13-.21.12-.21.12-1.67.28-3.31.47-4.8 1.51-.31.21-.44.59-.26.88.17.26.55.28.82.09.93-.7 1.89-1.02 2.99-1.05.05 0 .07.01.08.04.01.02 0 .05-.02.08-1.64 2.28-2.06 2.8-3.29 4.21-.63.73-1.25 1.34-1.95 1.98-2.81 2.61-5.83 2.56-6.91.93-.65-.98-.56-2.01-.14-2.87.52-1.05 1.58-1.81 2.46-2.26.33-.17.42-.58.09-.96-.21-.25-.71-.29-1.08-.22-1.15.21-2.51 1.08-3.31 2.13-.91 1.17-1.36 2.6-1.21 4.2.27 2.89 2.65 4.56 5.35 4.54 2.15-.02 4.17-.67 6.61-3.14 2.27-2.31 4.34-5.75 6.27-8.94.06-.1.1-.16.4-.19 1.21-.15 3.01-.33 4.16-.39.26-.01.31-.01.41.12.3.38.75.7 1.11.89.18.1.26.14.4.14.17 0 .3-.09.39-.18.12-.13.16-.31.09-.42-.07-.12-.87-.56-.89-.74-.03-.1.09-.13.09-.13.59-.18 1.2-.57 1.57-1.28.37-.7.42-1.64-.24-2.15-.59-.46-1.47-.39-2.18.25-.69.61-.92 1.51-.83 2.3.02.14.01.18-.18.2-1.06.08-2.09.11-3.22.18-.08 0-.1-.05-.06-.1 1.31-2.28 3.27-3.9 5.43-5.5.14-.11.1-.31.09-.48 3.91.85 7.69 2.43 11.74 2.4 1.68-.01 3.28-.27 4.82-1.11 1.35-.74 1.9-1.42 1.94-2.12.03-.49-.31-.8-.79-.69-4.1.94-8 .93-12.08.44-4.63-.56-9.07-1.71-13.67-1.71-.68-.03-1.38 0-2.08.05"/></svg>