<?xml version="1.0" encoding="utf-8"?>
<!-- Generator: Adobe Illustrator 22.0.1, SVG Export Plug-In . SVG Version: 6.00 Build 0)  -->
<svg version="1.1" id="Layer_1" xmlns="http://www.w3.org/2000/svg" xmlns:xlink="http://www.w3.org/1999/xlink" x="0px" y="0px"
	 viewBox="0 0 131.71 32.25" enable-background="new 0 0 131.71 32.25" xml:space="preserve">
<path d="M122.63,2.5H5.75C2.58,2.5,0,5.08,0,8.25v14.16c0,3.17,2.58,5.75,5.75,5.75h116.88c3.17,0,5.75-2.58,5.75-5.75V8.25
	C128.38,5.08,125.8,2.5,122.63,2.5L122.63,2.5z"/>
<path fill="#FFF200" d="M1.25,8.25v14.16c0,2.49,2.01,4.5,4.5,4.5h116.88c2.49,0,4.5-2.01,4.5-4.5V8.25c0-2.49-2.01-4.5-4.5-4.5
	H5.75C3.26,3.75,1.25,5.77,1.25,8.25z"/>
<path d="M4.28,5.29h8.52v3.96H9.34v3.6h2.97v3.79H9.34v8.28H4.28V5.29z"/>
<path d="M13.62,8.81h4.73v2.06h0.06c0.47-1.54,1.92-2.36,3.02-2.47v5.86c-0.27-0.03-0.55-0.05-0.82-0.05
	c-1.32,0-2.09,0.85-2.09,2.12v8.61h-4.89V8.81z"/>
<path d="M32.48,24.93H28v-0.91c-0.68,0.74-1.75,1.32-2.92,1.32c-1.98,0-3.03-1.4-3.03-3.44v-2.17c0-1.84,0.1-2.5,2.95-3.6
	c2.61-1.04,2.84-1.32,2.84-2.25v-1.53c0-0.47-0.26-0.96-0.78-0.96s-0.7,0.47-0.7,0.96v2.69h-4.3v-1.71c0-3.55,1.62-4.92,5.11-4.92
	c3.29,0,5.32,1.02,5.32,4.76V24.93z M26.36,21.38c0,0.47,0.26,0.91,0.68,0.91c0.57,0,0.81-0.47,0.81-0.83v-4.21
	c-0.96,0.63-1.49,1.32-1.49,2.45V21.38z"/>
<path d="M34.01,8.81h4.72v1.24h0.05c0.21-0.52,0.69-0.93,1.22-1.21c0.53-0.3,1.14-0.44,1.64-0.44c1.48,0,2.38,1.02,2.81,1.84
	c0.82-0.96,1.77-1.84,3.1-1.84c1.99,0,3.21,1.35,3.21,4.29v12.24h-4.72V12.86c0-0.49-0.13-1.15-0.74-1.15
	c-0.61,0-0.64,0.69-0.64,1.18v12.04H40.1V12.86c0-0.49-0.13-1.15-0.72-1.15c-0.64,0-0.66,0.69-0.66,1.18v12.04h-4.72V8.81z"/>
<path d="M51.75,13.74c0-4.18,3.08-5.33,5.77-5.33c2.36,0,5.44,1.29,5.44,5.33v3.38h-6.32v4.21c0,0.63,0.14,1.04,0.74,1.04
	c0.69,0,0.85-0.52,0.85-1.13v-2.89h4.73v1.65c0,4.18-2.86,5.33-5.44,5.33c-2.69,0-5.77-1.15-5.77-5.33V13.74z M56.64,14.48h1.6V12.5
	c0-0.6-0.17-1.13-0.85-1.13c-0.6,0-0.74,0.41-0.74,1.04V14.48z"/>
<path d="M87.69,10.36c-0.37-0.63-0.86-1.14-1.46-1.53c-1.17-0.77-2.69-0.79-4.02-0.11C81.06,9.28,80,10,79.04,10.85
	c-0.96,0.86-1.8,1.81-2.5,2.83c-0.7,1.02-1.26,2.08-1.65,3.15c-0.39,1.08-0.59,2.11-0.59,3.07c0,2.04,0.83,3.5,2.46,4.34
	c0.76,0.45,1.57,0.68,2.41,0.68c1.17,0,2.34-0.44,3.47-1.32c1.1-0.85,2.09-1.95,2.94-3.28c0.84-1.32,1.52-2.72,2.02-4.17
	c0.5-1.46,0.76-2.77,0.76-3.95C88.29,11.61,88.06,10.99,87.69,10.36z M84.05,14.26c-0.16,0.61-0.38,1.26-0.65,1.91
	c-0.27,0.65-0.55,1.2-0.82,1.63c-0.79,1.18-1.53,2.06-2.22,2.61c-0.63,0.51-1.28,0.77-1.98,0.79c-0.17-0.12-0.26-0.4-0.26-0.82
	c0-0.6,0.17-1.36,0.5-2.24c0.34-0.9,0.78-1.75,1.29-2.52c0.51-0.74,1.19-1.53,2.03-2.35c0.78-0.76,1.45-1.15,1.99-1.15
	c0.1,0,0.19,0.02,0.27,0.06c0.01,0.01,0.1,0.13,0.1,0.56C84.29,13.15,84.21,13.66,84.05,14.26z"/>
<path fill="#ED1C24" d="M87.04,10.75c-0.32-0.53-0.73-0.96-1.23-1.29c-0.49-0.32-1.02-0.48-1.61-0.48c-0.56,0-1.12,0.14-1.66,0.41
	c-1.09,0.53-2.1,1.21-3.01,2.02c-0.91,0.82-1.71,1.72-2.38,2.69c-0.67,0.97-1.19,1.97-1.56,2.98c-0.36,1-0.55,1.95-0.55,2.81
	c0,1.77,0.68,2.97,2.07,3.68l0.02,0.01c1.55,0.93,3.35,0.73,5.05-0.58c1.03-0.79,1.96-1.83,2.76-3.09c0.81-1.27,1.47-2.62,1.95-4.01
	c0.48-1.38,0.72-2.61,0.72-3.66C87.55,11.81,87.36,11.28,87.04,10.75z M84.78,14.45c-0.17,0.65-0.4,1.32-0.68,2.01
	c-0.28,0.69-0.58,1.28-0.89,1.76c-0.83,1.25-1.63,2.19-2.38,2.79c-0.79,0.63-1.65,0.95-2.55,0.95l-0.16-0.03
	c-0.5-0.23-0.76-0.75-0.76-1.54c0-0.7,0.19-1.54,0.55-2.5c0.36-0.95,0.82-1.85,1.37-2.68c0.54-0.78,1.26-1.61,2.12-2.46
	c0.94-0.92,1.76-1.37,2.51-1.37c0.24,0,0.46,0.06,0.65,0.17l0.01,0.01c0.3,0.19,0.45,0.58,0.45,1.19
	C85.04,13.21,84.95,13.79,84.78,14.45z"/>
<path d="M107.63,0.6c-0.1-0.21-0.31-0.37-0.61-0.47c-0.36-0.12-0.78-0.19-1.33-0.05c-0.26,0.06-0.45,0.1-0.58,0.12
	c-0.15,0.03-0.27,0.06-0.38,0.09c-0.13,0.04-0.31,0.12-0.56,0.27c-0.07,0.04-0.12,0.1-0.15,0.16l-3.25,6.79
	C98.7,7.54,96.8,8.03,95.1,8.96c-1.75,0.96-3.27,2.2-4.52,3.71c-1.24,1.5-2.19,3.05-2.84,4.62c-0.65,1.58-0.98,2.98-0.98,4.18
	c0,0.54,0.07,1,0.2,1.36c0.58,1.52,1.48,2.29,2.69,2.29c1.27,0,2.77-0.82,4.57-2.5c-0.03,0.1-0.06,0.2-0.09,0.3
	c-0.05,0.18-0.09,0.37-0.12,0.55c-0.01,0.08,0,0.17,0.04,0.25c0.16,0.28,0.51,0.41,1.16,0.43c0.08,0.07,0.18,0.15,0.28,0.24
	c0.17,0.16,0.35,0.29,0.54,0.39c0.36,0.2,0.85,0.29,1-0.04l10.59-23.82C107.68,0.81,107.68,0.7,107.63,0.6z M98.09,12.64
	c-0.63,1.16-1.12,2.08-1.49,2.75c-0.25,0.27-0.69,0.8-1.33,1.62c-0.65,0.83-1.21,1.52-1.67,2.05c-0.44,0.51-0.97,1.01-1.56,1.47
	c-0.45,0.35-0.84,0.55-1.18,0.62c-0.02-0.09-0.04-0.22-0.04-0.41c0-0.88,0.42-2.08,1.24-3.59c0.83-1.52,1.95-2.92,3.31-4.15
	c1.13-1.02,2.34-1.72,3.61-2.06C98.77,11.36,98.47,11.93,98.09,12.64z"/>
<path fill="#ED1C24" d="M106.78,0.84c-0.23-0.08-0.45-0.15-0.92-0.04c-0.28,0.06-0.48,0.1-0.62,0.13c-0.11,0.02-0.22,0.04-0.3,0.07
	c-0.03,0.01-0.11,0.04-0.3,0.15l-3.3,6.89c-0.06,0.13-0.19,0.21-0.34,0.21c-2.02,0-3.88,0.46-5.53,1.36
	c-1.67,0.91-3.12,2.1-4.3,3.53c-1.19,1.44-2.11,2.93-2.73,4.42c-0.61,1.49-0.92,2.79-0.92,3.89c0,0.45,0.05,0.82,0.15,1.1
	c0.46,1.21,1.11,1.8,1.99,1.8c1.28,0,3.01-1.13,5.12-3.35c0.11-0.12,0.29-0.15,0.44-0.08c0.15,0.07,0.23,0.23,0.21,0.39
	c-0.04,0.28-0.1,0.52-0.18,0.73l-0.21,0.56c-0.07,0.17-0.12,0.34-0.16,0.49c-0.02,0.08-0.04,0.17-0.06,0.25
	c0.09,0.02,0.26,0.04,0.55,0.04c0.08,0,0.16,0.03,0.23,0.08c0.13,0.09,0.27,0.21,0.43,0.36c0.13,0.12,0.26,0.21,0.4,0.29
	c0.02,0.01,0.05,0.03,0.07,0.04l10.36-23.29C106.82,0.86,106.8,0.85,106.78,0.84z M99.97,10.53c-0.16,0.44-0.56,1.24-1.21,2.46
	c-0.64,1.19-1.15,2.12-1.52,2.8c-0.02,0.03-0.04,0.06-0.06,0.08c-0.23,0.24-0.67,0.77-1.32,1.6c-0.66,0.84-1.23,1.54-1.7,2.08
	c-0.48,0.55-1.04,1.08-1.67,1.57c-0.69,0.54-1.3,0.8-1.86,0.8c-0.11,0-0.21-0.05-0.28-0.13c-0.2-0.23-0.3-0.57-0.3-1.05
	c0-1.02,0.44-2.31,1.34-3.95c0.88-1.59,2.04-3.06,3.47-4.35c1.45-1.31,3.03-2.12,4.69-2.4c0.14-0.02,0.27,0.03,0.35,0.13
	C99.99,10.27,100.01,10.41,99.97,10.53z"/>
<path d="M117.22,9.07c-0.06-0.1-0.16-0.2-0.33-0.31c-0.18-0.12-0.43-0.18-0.74-0.18c0,0-0.01,0-0.02,0
	c-0.38-0.04-0.87-0.06-1.45-0.06c-0.14,0-0.27,0.08-0.33,0.21c-0.01,0.01-0.05,0.1-0.26,0.29c-0.1,0.09-0.18,0.18-0.25,0.25
	c-0.31-0.04-0.61-0.06-0.9-0.06c-1.82,0-3.64,0.65-5.41,1.94c-1.74,1.26-3.26,2.82-4.53,4.62c-0.9,1.27-1.54,2.37-1.89,3.27
	c-0.36,0.91-0.54,1.75-0.54,2.49c0,0.45,0.05,0.88,0.15,1.22c0.05,0.42,0.26,0.81,0.63,1.17c0.34,0.33,0.76,0.58,1.23,0.76
	c0.47,0.18,0.92,0.26,1.35,0.26c0.17,0,0.36-0.02,0.6-0.07c0.58-0.14,1.26-0.45,2.09-0.94c0.1-0.06,0.19-0.12,0.29-0.18
	c-0.08,0.25-0.1,0.41-0.1,0.52c0,0.38,0.26,0.64,0.64,0.64c0.17,0,0.4-0.06,0.75-0.2c0.21-0.09,0.34-0.13,0.42-0.16
	c0.08,0.04,0.14,0.07,0.2,0.1c0.12,0.06,0.25,0.11,0.43,0.16c0.46,0.13,0.69,0.08,0.93-0.08c0.06-0.04,0.1-0.09,0.13-0.16
	l6.93-15.15C117.29,9.31,117.29,9.18,117.22,9.07z M109.54,16.47c-0.54,0.83-0.99,1.5-1.35,2c-0.35,0.49-0.76,0.97-1.22,1.44
	c-0.45,0.46-0.93,0.83-1.43,1.1c-0.35,0.19-0.7,0.31-1.07,0.37c0.11-0.88,0.55-1.95,1.31-3.2c0.9-1.47,2.04-2.8,3.37-3.94
	c1.01-0.87,1.98-1.45,2.88-1.74C111.55,13.35,110.72,14.67,109.54,16.47z"/>
<path fill="#ED1C24" d="M116.1,9.33c-0.35-0.03-0.74-0.05-1.21-0.06c-0.07,0.09-0.16,0.18-0.28,0.29c-0.21,0.2-0.28,0.29-0.3,0.32
	c-0.08,0.12-0.23,0.19-0.37,0.16c-0.34-0.06-0.67-0.08-1-0.08c-1.66,0-3.33,0.6-4.97,1.8c-1.67,1.21-3.14,2.71-4.36,4.45
	c-0.87,1.22-1.47,2.27-1.8,3.11c-0.32,0.83-0.49,1.57-0.49,2.21c0,0.38,0.04,0.75,0.13,1.07c0.04,0.3,0.17,0.53,0.42,0.76
	c0.27,0.26,0.6,0.46,0.98,0.6c0.38,0.14,0.75,0.22,1.08,0.22c0.13,0,0.27-0.02,0.44-0.05c0.48-0.11,1.12-0.4,1.87-0.85
	c0.74-0.45,1.25-0.85,1.51-1.19c0.12-0.16,0.35-0.19,0.51-0.08c0.16,0.11,0.21,0.33,0.11,0.5c-0.56,0.93-0.74,1.39-0.79,1.61
	c0.07-0.02,0.18-0.06,0.33-0.12c0.42-0.17,0.58-0.21,0.67-0.23c0.07-0.01,0.15,0,0.21,0.02c0.15,0.06,0.27,0.12,0.37,0.17
	c0.07,0.04,0.16,0.07,0.28,0.1c0.15,0.04,0.21,0.04,0.23,0.04l0.01,0.01l6.75-14.76C116.39,9.36,116.29,9.33,116.1,9.33z
	 M113.08,12.12c-0.32,0.71-1.28,2.27-2.91,4.77c-0.55,0.84-1.01,1.52-1.37,2.03c-0.37,0.52-0.81,1.03-1.3,1.53
	c-0.5,0.51-1.04,0.93-1.61,1.23c-0.58,0.31-1.19,0.49-1.81,0.51c0,0-0.01,0-0.01,0c-0.1,0-0.19-0.04-0.26-0.11
	c-0.07-0.07-0.11-0.17-0.11-0.27c0-1.11,0.47-2.42,1.45-4c0.94-1.54,2.13-2.93,3.52-4.12c1.42-1.21,2.77-1.92,4.03-2.09
	c0.14-0.02,0.27,0.04,0.35,0.15C113.12,11.85,113.14,11.99,113.08,12.12z"/>
<path d="M115.25,32.25l-0.21-0.02c-0.38-0.04-0.64-0.19-0.79-0.44c-0.1-0.17-0.19-0.4-0.29-0.71c-0.06-0.18-0.11-0.28-0.14-0.33
	c-0.73-0.22-1.1-0.59-1.1-1.09c0-0.18,0.05-0.35,0.15-0.5l4.48-6.62c-0.32-1.66-0.49-4.65-0.49-8.91c0-1.7,0.03-3,0.09-3.86
	l0.01-0.1l0.05-0.08c0.05-0.07,0.11-0.13,0.2-0.2c0.12-0.09,0.26-0.13,0.43-0.13c0.52,0,1.05,0.41,1.67,1.27
	c0.04,0.01,0.06,0.02,0.08,0.02c0,0,0.07,0,0.29-0.08c0.24-0.09,0.42-0.13,0.56-0.13c0.25,0,0.61,0.1,0.92,0.6l0.06,0.1l-0.32,7.83
	l2.89-3.9c0.01-0.12,0.11-0.24,0.73-1l2.56-3.15c0.33-0.41,0.58-0.72,0.75-0.92l0.08-0.07c0.27-0.18,0.67-0.27,1.23-0.27
	c0.82,0,1.19,0.09,1.35,0.34c0.07,0.08,0.15,0.17,0.24,0.23c0.1,0.07,0.22,0.14,0.35,0.2c0.19,0.09,0.32,0.17,0.41,0.25
	c0.14,0.13,0.21,0.29,0.21,0.49v0.12l-0.07,0.1c-0.49,0.65-1.35,1.8-2.59,3.43c-1.24,1.63-2.32,3.05-3.24,4.26
	c-0.94,1.23-1.62,2.08-2.08,2.59c-0.17,0.18-0.68,0.79-2.24,2.75c-1.27,1.59-2.47,3.11-3.61,4.56L115.25,32.25z"/>
<path fill="#ED1C24" d="M117.7,10c-0.05,0.84-0.08,2.06-0.08,3.62c0,4.35,0.17,7.35,0.5,8.92l0.03,0.16l-4.66,6.88
	c-0.02,0.22,0.22,0.37,0.64,0.48l0.15,0.08c0.15,0.14,0.27,0.36,0.38,0.71c0.08,0.25,0.15,0.44,0.22,0.56c0,0,0.01,0.01,0.04,0.02
	l2.37-3.01c1.14-1.45,2.35-2.97,3.61-4.56c1.26-1.59,2.02-2.52,2.27-2.79c0.43-0.49,1.12-1.35,2.04-2.54c0.92-1.21,2-2.62,3.24-4.25
	c1.11-1.47,1.92-2.54,2.42-3.21c-0.03-0.01-0.06-0.03-0.11-0.05c-0.17-0.08-0.32-0.17-0.46-0.27c-0.14-0.1-0.28-0.24-0.41-0.4
	c0.01,0.02-0.15-0.04-0.75-0.04c-0.46,0-0.68,0.07-0.78,0.12c-0.16,0.19-0.4,0.48-0.7,0.85l-2.56,3.15
	c-0.31,0.38-0.5,0.62-0.58,0.73l0.03,0.03l-4.51,6.08l0.41-10.04c-0.06-0.08-0.14-0.16-0.22-0.16c-0.01,0-0.09,0-0.31,0.08
	c-0.5,0.18-0.72,0.15-1.03,0l-0.14-0.12C118.17,10.17,117.83,10.02,117.7,10z"/>
<path d="M67.62,25.31c-0.31,0-0.6-0.14-0.82-0.4c-0.17-0.21-0.33-0.46-0.48-0.75c-0.11-0.23-0.19-0.37-0.22-0.42
	c-0.01,0-0.11-0.04-0.42-0.04c-0.73,0-0.98-0.33-1.05-0.6c-0.02-0.08-0.02-0.17,0.02-0.25c0.46-1.06,0.9-2.01,1.32-2.84
	c0.42-0.83,0.89-1.73,1.41-2.68c0.52-0.95,1.07-1.92,1.64-2.91c0.49-0.85,1.06-1.89,1.73-3.12c-0.52,0.05-1.42,0.13-2.97,0.28
	c-0.68-0.01-0.82-0.32-0.82-0.52c0-0.12,0.04-0.24,0.28-0.65c0.11-0.19,0.15-0.31,0.17-0.39c-0.04-0.07-0.09-0.16-0.15-0.29
	c-0.14-0.27-0.21-0.45-0.21-0.59c0-0.26,0.11-0.52,0.33-0.76c0.05-0.06,0.13-0.1,0.21-0.12c0.97-0.19,1.92-0.31,2.83-0.36
	c0.81-0.04,1.58-0.12,2.3-0.22c0.07-0.12,0.14-0.25,0.23-0.4c0.13-0.24,0.36-0.65,0.7-1.24c0.34-0.59,0.57-0.99,0.7-1.21
	c0.28-0.44,0.58-0.94,0.9-1.52c0.33-0.59,0.57-1.03,0.73-1.32c0.04-0.07,0.09-0.12,0.16-0.16c0.27-0.13,0.58-0.23,0.93-0.28
	c0.29-0.05,0.48-0.08,0.55-0.1c0.42-0.02,0.75,0.04,1.08,0.15c0.37,0.12,0.64,0.3,0.81,0.55c0.08,0.12,0.08,0.27,0.02,0.39
	c-0.2,0.37-0.49,0.9-0.85,1.59c-0.36,0.69-0.73,1.41-1.1,2.15c-0.26,0.51-0.5,0.97-0.72,1.4c0.25-0.02,0.57-0.03,0.96-0.05
	l2.56-0.12c0.13-0.01,0.22,0.04,0.29,0.12c0.08,0.08,0.11,0.19,0.1,0.3l-0.04,0.35c-0.02,0.18-0.09,0.38-0.2,0.6
	c-0.12,0.23-0.28,0.42-0.48,0.58c0.01-0.01,0,0.01,0,0.05c0.01,0.04,0.02,0.11,0.02,0.18c0.01,0.07,0.01,0.16,0.01,0.27
	c0,0.25-0.08,0.47-0.25,0.67c-0.07,0.08-0.17,0.13-0.27,0.13c-1.02,0.04-1.97,0.11-2.81,0.21c-0.71,0.08-1.25,0.16-1.6,0.22
	l-2.3,4.48c-0.65,1.27-1.34,2.65-2.08,4.14c-0.74,1.49-1.59,3.24-2.55,5.25c-0.04,0.09-0.12,0.16-0.22,0.19
	C67.82,25.29,67.71,25.31,67.62,25.31z"/>
<path fill="#ED1C24" d="M65.43,22.91c0.05,0.01,0.13,0.02,0.25,0.02c0.38,0,0.84,0.04,1.04,0.37c0.01,0.01,0.07,0.1,0.28,0.51
	c0.12,0.25,0.25,0.45,0.38,0.61c0.09,0.11,0.17,0.13,0.23,0.14c0.94-1.95,1.76-3.65,2.48-5.11c0.74-1.5,1.43-2.88,2.08-4.15
	l2.38-4.65c0.05-0.1,0.15-0.17,0.26-0.2c0.35-0.07,0.95-0.16,1.83-0.26c0.81-0.1,1.7-0.17,2.67-0.21c0-0.02,0.01-0.04,0.01-0.06
	c0-0.09,0-0.16-0.01-0.21l-0.02-0.19c0-0.28,0.09-0.5,0.25-0.66c0.15-0.12,0.24-0.22,0.31-0.35c0.05-0.1,0.08-0.19,0.1-0.25
	l-2.12,0.1c-0.99,0.05-1.52,0.08-1.6,0.08c-0.04,0-0.08,0-0.12-0.01c-0.17-0.04-0.29-0.19-0.29-0.36c0-0.14-0.01-0.22,0.09-0.28
	c0.29-0.55,0.61-1.18,0.96-1.88c0.38-0.74,0.75-1.46,1.11-2.16c0.29-0.55,0.53-1.01,0.72-1.35c-0.07-0.04-0.16-0.08-0.26-0.11
	c-0.25-0.08-0.5-0.12-0.76-0.12c0.01,0.01-0.2,0.05-0.53,0.1c-0.23,0.04-0.43,0.09-0.61,0.17c-0.16,0.29-0.38,0.7-0.68,1.22
	c-0.34,0.6-0.64,1.11-0.92,1.55c-0.12,0.2-0.35,0.6-0.69,1.19c-0.33,0.58-0.56,0.99-0.69,1.22c-0.13,0.24-0.24,0.44-0.33,0.59
	c-0.06,0.1-0.16,0.16-0.27,0.18c-0.79,0.12-1.65,0.2-2.55,0.25c-0.83,0.05-1.7,0.15-2.59,0.32c-0.04,0.06-0.07,0.12-0.07,0.17
	c0,0,0.01,0.04,0.12,0.24c0.11,0.21,0.18,0.34,0.21,0.4c0.03,0.05,0.04,0.11,0.04,0.17c0,0.25-0.09,0.52-0.28,0.84
	c-0.01,0.01-0.01,0.02-0.02,0.03c3.36-0.33,3.48-0.33,3.54-0.33c0.13,0,0.25,0.07,0.32,0.18c0.07,0.11,0.07,0.25,0.01,0.37
	c-0.81,1.51-1.5,2.76-2.07,3.74c-0.57,0.98-1.11,1.95-1.63,2.9c-0.52,0.94-0.99,1.83-1.4,2.65C66.25,21.09,65.84,21.96,65.43,22.91z
	"/>
</svg>
