<?xml version="1.0" encoding="utf-8"?>
<!-- Generator: Adobe Illustrator 22.0.1, SVG Export Plug-In . SVG Version: 6.00 Build 0)  -->
<svg version="1.1" id="Layer_1" xmlns="http://www.w3.org/2000/svg" xmlns:xlink="http://www.w3.org/1999/xlink" x="0px" y="0px"
	 viewBox="0 0 971 307.46" enable-background="new 0 0 971 307.46" xml:space="preserve">
<path d="M52.85,60.85v2.81h18.92v23.19H52.85v76.29h-38.2V86.84H0V63.65h14.65V55.8c0-25.99,18.36-30.48,42.84-30.48
	c4.64,0,12.98,0.75,17.43,1.12v25.24c-2.97-0.19-6.49-0.37-9.64-0.37C56.56,51.31,52.85,54.68,52.85,60.85z M111.88,79.55h0.74
	c5.93-11.78,15.21-18.33,30.6-18.33c1.48,0,2.78,0.19,3.52,0.56v35.16c-2.04-0.19-7.23-0.75-11.31-0.75
	c-12.61,0-22.07,4.49-22.07,21.69v45.25h-38.2V63.65h36.72V79.55z M256.68,132.65c-2.78,13.65-17.99,32.91-53.04,32.91
	c-34.86,0-54.71-19.07-54.71-51.99c0-33.1,19.66-52.36,54.71-52.36c34.86,0,56.56,19.26,54.34,59.47h-69.73
	c0,13.84,6.31,21.13,15.39,21.13c9.27,0,12.8-5.24,13.72-10.85L256.68,132.65z M188.43,99.93h30.23c0-9.91-6.12-15.89-15.02-15.89
	C194.55,84.03,188.43,90.02,188.43,99.93z M308.01,27.75v25.24h-38.2V27.75H308.01z M308.01,63.65v99.48h-38.2V63.65H308.01z
	 M427.9,156.72c0,34.78-23.74,45.25-54.34,45.25c-26.89,0-48.03-9.35-54.15-34.22l38.57-1.68c2.41,6.17,6.86,9.72,15.58,9.72
	c8.72,0,16.13-4.67,16.13-19.45v-9.54h-0.74c-6.31,9.16-15.39,13.28-29.67,13.28c-21.88,0-39.5-17.76-39.5-48.62
	c0-30.67,17.62-48.25,40.8-48.25c10.94,0,22.63,2.62,29.86,15.33h0.74v-12.9h36.72V156.72z M391.37,111.47
	c0-13.28-6.68-20.38-16.32-20.38c-9.83,0-16.32,7.11-16.32,20.38c0,13.65,6.49,20.94,16.32,20.94
	C384.69,132.41,391.37,125.12,391.37,111.47z M482.1,77.3c5.19-6.92,14.09-16.08,31.34-16.08c20.21,0,33.57,11.97,33.57,37.21v64.7
	h-38.2v-56.29c0-11.22-4.64-15.52-12.61-15.52c-8.16,0-14.84,5.24-14.84,18.51v53.29h-38.2V27.75h38.2V77.3H482.1z M625.33,135.65
	v27.49c-3.34,0.37-13.17,0.37-22.44,0.37c-25.04,0-34.68-4.86-34.68-28.05V86.84h-14.65V63.65h14.65V36.54h38.2v27.11h18.92v23.19
	h-18.92v39.64c0,8.23,3.15,9.16,12.42,9.16C622.55,135.65,623.66,135.65,625.33,135.65z M670.08,79.55h0.74
	c5.93-11.78,15.21-18.33,30.6-18.33c1.48,0,2.78,0.19,3.52,0.56v35.16c-2.04-0.19-7.23-0.75-11.31-0.75
	c-12.61,0-22.07,4.49-22.07,21.69v45.25h-38.2V63.65h36.72V79.55z M750.56,27.75v25.24h-38.2V27.75H750.56z M750.56,63.65v99.48
	h-38.2V63.65H750.56z M829.25,135.65v27.49c-3.34,0.37-13.17,0.37-22.44,0.37c-25.04,0-34.68-4.86-34.68-28.05V86.84h-14.65V63.65
	h14.65V36.54h38.2v27.11h18.92v23.19h-18.92v39.64c0,8.23,3.15,9.16,12.42,9.16C826.47,135.65,827.58,135.65,829.25,135.65z
	 M941.19,132.65c-2.78,13.65-17.99,32.91-53.04,32.91c-34.86,0-54.71-19.07-54.71-51.99c0-33.1,19.66-52.36,54.71-52.36
	c34.86,0,56.56,19.26,54.34,59.47h-69.73c0,13.84,6.31,21.13,15.39,21.13c9.27,0,12.8-5.24,13.72-10.85L941.19,132.65z
	 M872.95,99.93h30.23c0-9.91-6.12-15.89-15.02-15.89C879.07,84.03,872.95,90.02,872.95,99.93z"/>
<path fill="#EE2E24" d="M437.05,156.53c1.11-1.22,2.87-1.74,5.27-1.56c2.4,0.17,4.16,0.87,5.27,2.09c1.11,1.22,2.03,2.69,2.77,4.43
	c0.74,1.74,0.6,3.57-0.42,5.48c-1.02,1.91-1.99,4.41-2.91,7.5c-0.93,3.09-2.13,7.41-3.61,12.97c-1.48,5.56-1.39,8.69,0.28,9.39
	c1.66,0.7,4.53,1.39,8.6,2.09c4.07,0.7,10.56,0.96,19.49,0.78c8.92-0.17,8.44,0.44-1.46,1.83c-9.9,1.39-17.22,2.65-21.99,3.78
	c-4.76,1.13-7.91,1.94-9.43,2.41c-1.53,0.48-4.12,5.3-7.77,14.47c-3.65,9.17-6.06,15.28-7.21,18.32c-1.16,3.04-2.38,5.08-3.68,6.13
	c-1.3,1.04-2.96,1.83-4.99,2.35c-2.04,0.52-3.88,0.44-5.55-0.26c-1.66-0.69-1.64-3.52,0.07-8.47c1.71-4.95,4.04-10.82,7.01-17.6
	c2.96-6.78,4.58-10.99,4.86-12.65c0.28-1.65-0.93-2.26-3.61-1.82c-2.68,0.44-5.06,0.67-7.14,0.72c-2.08,0.04-3.1-1.17-3.05-3.65
	c0.05-2.48,1.73-4.5,5.06-6.06s6.29-2.37,8.88-2.41c2.59-0.04,4.9-3.43,6.94-10.17c2.03-6.73,3.24-11.21,3.61-13.43
	c0.37-2.22,0.97-5.24,1.8-9.06C434.97,160.27,435.94,157.75,437.05,156.53z M463.41,202.81c3.33-12.08,6.54-17.99,9.64-17.73
	c3.1,0.26,5.43,1.56,7,3.91c1.57,2.35,1.41,5.24-0.49,8.67c-1.9,3.43-2.08,5.04-0.55,4.82c1.53-0.22,3.54-1.09,6.03-2.61
	c2.5-1.52,4.88-2.74,7.14-3.65c2.26-0.91,4.09-1.5,5.48-1.76s4.04,0.17,7.98,1.3c3.93,1.13,7.65,2.72,11.17,4.76
	c3.51,2.04,8.16,2.22,13.94,0.52c5.78-1.7,5.15-1.13-1.87,1.69c-7.03,2.83-14.22,4.15-21.57,3.98c-7.35-0.17-13.04,0.65-17.06,2.48
	c-4.02,1.82-7.42,3.85-10.2,6.06c-2.77,2.22-5.34,5.87-7.7,10.95c-2.36,5.08-4.16,9.37-5.41,12.84c-1.25,3.48-2.36,6.32-3.33,8.54
	c-0.97,2.22-2.96,3.39-5.97,3.52c-3.01,0.13-4.99-0.89-5.96-3.06c-0.97-2.17-1.2-3.58-0.69-4.24c0.51-0.65,1.9-4.63,4.16-11.93
	C457.42,224.59,460.17,214.9,463.41,202.81z M563.42,185.22c2.13-0.52,4.46-0.61,7-0.26c2.54,0.35,4.58,1.09,6.1,2.22
	c1.53,1.13,2.98,3.35,4.37,6.65c1.39,3.3,0.76,5.52-1.87,6.65c-2.64,1.13-5.02,0.74-7.14-1.17c-2.13-1.91-4.35-2.3-6.66-1.17
	c-2.31,1.13-4.6,2.28-6.87,3.46c-2.27,1.17-5.06,3.02-8.39,5.54c-3.33,2.52-6.75,5.74-10.26,9.65c-3.52,3.91-5.46,6.41-5.83,7.5
	c-0.37,1.09,0.53,0.93,2.7-0.46c2.17-1.39,5.5-3.5,9.99-6.32c4.48-2.82,10.13-5.71,16.92-8.67c6.8-2.95,11.1-4.11,12.9-3.46
	c1.8,0.65,3.35,1.85,4.65,3.58c1.29,1.74,2.03,3.24,2.22,4.5c0.18,1.26-0.02,2.26-0.62,3c-0.6,0.74-1.3,2.41-2.08,5.02
	c-0.79,2.61-0.72,5.13,0.21,7.56c0.92,2.43,2.1,4.11,3.54,5.02c1.43,0.91,3.4,1.17,5.9,0.78c2.5-0.39,5.57-2.17,9.22-5.34
	c3.65-3.17,3.49-2.43-0.49,2.22c-3.98,4.65-7.12,7.61-9.43,8.87c-2.31,1.26-4.12,1.87-5.41,1.83c-1.3-0.04-2.98-0.43-5.06-1.17
	c-2.08-0.74-4.05-1.89-5.89-3.46c-1.85-1.56-3.31-3.48-4.37-5.74c-1.06-2.26-1.78-3.93-2.15-5.02c-0.37-1.09-1.23-2.28-2.57-3.58
	c-1.34-1.3-2.98-1.58-4.92-0.85c-1.94,0.74-5.34,2.76-10.2,6.06c-4.86,3.3-9.39,6.02-13.59,8.15c-4.21,2.13-7.98,3.61-11.3,4.43
	c-3.33,0.83-5.48,1.11-6.45,0.85c-0.97-0.26-2.04-1.24-3.19-2.93c-1.15-1.7-1.82-3.54-2.01-5.54c-0.18-2,0.12-4.02,0.9-6.06
	c0.79-2.04,3.75-6.13,8.88-12.25c5.13-6.13,10.08-11.15,14.84-15.06c4.76-3.91,9.83-7.24,15.19-9.97
	C557.55,187.5,561.29,185.82,563.42,185.22z M617.79,187.17c1.94-0.87,4.42-0.69,7.42,0.52c3,1.22,3.65,3.48,1.94,6.78
	c-1.71,3.3-4.51,8.76-8.39,16.36c-3.88,7.61-4.28,9.69-1.18,6.26c3.1-3.43,6.84-6.93,11.24-10.49c4.39-3.56,7.56-5.87,9.5-6.91
	c1.94-1.04,4.04-1.83,6.31-2.35c2.27-0.52,4.83-0.39,7.7,0.39c2.87,0.78,5.32,2.98,7.35,6.58c2.03,3.61,3.12,9.56,3.26,17.86
	c0.14,8.3,2.31,12.36,6.52,12.19c4.21-0.17,8.3-1.63,12.28-4.37c3.98-2.74,6.93-5.52,8.88-8.34c1.94-2.82,2.77-3.58,2.5-2.28
	c-0.28,1.3-1.34,3.22-3.19,5.74c-1.85,2.52-5.78,6.43-11.79,11.73c-6.01,5.3-11.21,8-15.6,8.08c-4.39,0.09-7.58-1.56-9.57-4.95
	c-1.99-3.39-3.28-8.8-3.88-16.23c-0.6-7.43-1.64-11.21-3.12-11.34c-1.48-0.13-4.72,1.26-9.71,4.17c-4.99,2.91-9.57,6.71-13.73,11.41
	c-4.16,4.69-7.56,8.67-10.2,11.93c-2.64,3.26-5.02,5.24-7.14,5.93c-2.13,0.7-3.86,0.17-5.2-1.56c-1.34-1.74-1.8-3.87-1.39-6.39
	c0.42-2.52,1.23-6.39,2.43-11.6c1.2-5.21,2.91-10.71,5.13-16.49c2.22-5.78,1.71-7.67-1.53-5.67c-3.24,2-7.19,5.02-11.86,9.06
	c-4.67,4.04-3,2.13,4.99-5.74c8-7.87,12.44-12.45,13.32-13.75c0.88-1.3,1.73-2.5,2.57-3.58
	C614.47,189.02,615.85,188.04,617.79,187.17z M708.52,186.13c3.7-1.74,7.4-2.87,11.1-3.39c3.7-0.52,5.94,0.13,6.73,1.96
	c0.78,1.82,0.42,3.61-1.11,5.34c-1.53,1.74-3.61,2.72-6.24,2.93c-2.64,0.22-5.48,2-8.53,5.34c-3.05,3.35-4.81,7.3-5.27,11.86
	c-0.46,4.56-0.35,7.71,0.35,9.45c0.69,1.74,1.46,5.13,2.29,10.17c0.83,5.04,0.28,9.37-1.66,12.97c-1.94,3.61-4.02,6.24-6.24,7.89
	c-2.22,1.65-4.97,2.87-8.25,3.65c-3.28,0.78-6.08,1.17-8.39,1.17c-2.31,0-4.79-0.52-7.42-1.56c-2.64-1.04-4.25-3.19-4.86-6.45
	c-0.6-3.26,4.26-9.3,14.57-18.12c10.31-8.82,11.12-9.08,2.43-0.78c-8.69,8.3-12.09,13.45-10.2,15.45c1.89,2,4.16,2.52,6.8,1.56
	c2.64-0.96,4.72-2.24,6.24-3.85c1.53-1.61,2.66-3.56,3.4-5.87c0.74-2.3,1.06-4.43,0.97-6.39c-0.09-1.96-0.81-6.3-2.15-13.04
	c-1.34-6.73-1.34-11.8,0-15.19c1.34-3.39,3.33-6.32,5.96-8.8C701.65,189.97,704.82,187.87,708.52,186.13z M730.43,190.69
	c8.23-5.21,13.27-8.13,15.12-8.73c1.85-0.61,3.4-0.39,4.65,0.65c1.25,1.04,1.99,2.33,2.22,3.85c0.23,1.52-0.26,4.85-1.46,9.97
	c-1.2,5.13-1.2,7.22,0,6.26c1.2-0.96,2.91-1.91,5.13-2.87c2.22-0.96,5.01-2,8.39-3.13c3.37-1.13,6.54-1.61,9.5-1.43
	c2.96,0.17,5.2,0.85,6.73,2.02c1.53,1.17,2.5,2.13,2.91,2.87c0.42,0.74,0.97,1.8,1.66,3.19c0.69,1.39,1.04,2.24,1.04,2.54
	c0,0.31,0.09,0.96,0.28,1.96c0.18,1,0.09,2.65-0.28,4.95c-0.37,2.3-1.37,5.08-2.98,8.34c-1.62,3.26-4.05,6.3-7.28,9.13
	c-3.24,2.83-6.01,4.85-8.32,6.06c-2.31,1.22-4.79,2.3-7.42,3.26c-2.64,0.96-5.36,1.63-8.18,2.02c-2.82,0.39-5.04,0.02-6.66-1.11
	c-1.62-1.13-2.45-2.41-2.5-3.85c-0.05-1.43,0.44-3.06,1.46-4.89c1.02-1.83,2.06-3.46,3.12-4.89c1.06-1.43,2.84-3.13,5.34-5.08
	c2.5-1.96,5.11-3.5,7.84-4.63c2.73-1.13,4.88-1.85,6.45-2.15c1.57-0.3,0.53,0.72-3.12,3.06c-3.65,2.35-6.85,4.65-9.57,6.91
	c-2.73,2.26-3.61,3.91-2.64,4.95c0.97,1.04,2.73,1.11,5.27,0.2c2.54-0.91,6.24-3.63,11.1-8.15c4.85-4.52,6.43-8.41,4.72-11.67
	c-1.71-3.26-4.99-4.04-9.85-2.35c-4.85,1.7-9.18,4.11-12.97,7.24c-3.79,3.13-7.77,9.45-11.93,18.97
	c-4.16,9.52-7.12,16.56-8.88,21.12c-1.76,4.56-4.09,10.84-7.01,18.84c-2.91,8-6.31,15.75-10.2,23.27c-3.88,7.52-7.05,10.82-9.5,9.91
	c-2.45-0.91-3.95-2.15-4.51-3.71c-0.55-1.56-0.71-3.21-0.49-4.96c0.23-1.74,1-3.93,2.29-6.58c1.3-2.65,3.05-7.06,5.27-13.23
	c2.22-6.17,6.91-18.06,14.08-35.66c7.17-17.6,11.42-28.03,12.76-31.29c1.34-3.26,3.07-8.06,5.2-14.41c2.13-6.34,2.33-9.23,0.62-8.67
	c-1.71,0.57-5.43,2.3-11.17,5.21C720.95,196.93,722.2,195.82,730.43,190.69z M807.97,191.21c1.76-1.56,3.91-2.56,6.45-3
	c2.54-0.43,4.65-0.3,6.31,0.39c1.66,0.7,3.07,1.94,4.23,3.72c1.16,1.78,4.04,2.63,8.67,2.54c4.62-0.08,10.38-0.06,17.27,0.07
	c6.89,0.13,5.43,0.33-4.37,0.59c-9.8,0.26-15.38,0.63-16.72,1.11c-1.34,0.48-1.9,2.02-1.66,4.63c0.23,2.61,0.42,5.37,0.55,8.28
	c0.14,2.91,0.16,6.15,0.07,9.71c-0.09,3.56-0.37,6.21-0.83,7.95c-0.46,1.74-1.16,3.57-2.08,5.48c-0.92,1.91-2.29,3.93-4.09,6.06
	c-1.8,2.13-4.02,4.11-6.66,5.93c-2.64,1.82-5.06,3.19-7.28,4.11c-2.22,0.91-4.63,0.96-7.21,0.13c-2.59-0.83-4.7-2.13-6.31-3.91
	c-1.62-1.78-2.91-3.63-3.88-5.54c-0.97-1.91-1.39-5.26-1.25-10.04c0.14-4.78,0.69-8.63,1.66-11.54c0.97-2.91,2.47-5.95,4.51-9.13
	c2.03-3.17,2.64-4.65,1.8-4.43c-0.83,0.22-1.04,0.11-0.62-0.33c0.42-0.43,2.01-2.3,4.79-5.61
	C804.09,195.08,806.31,192.69,807.97,191.21z M814.91,211.68c-2.04-2.35-4.58-1.7-7.63,1.96c-3.05,3.65-4.88,7.52-5.48,11.6
	c-0.6,4.09-0.37,6.95,0.69,8.6c1.06,1.65,2.17,2.61,3.33,2.87c1.16,0.26,2.8-0.46,4.92-2.15c2.13-1.69,3.86-5.37,5.2-11.02
	C817.29,217.89,816.94,213.94,814.91,211.68z M847.23,202.81c3.33-12.08,6.54-17.99,9.64-17.73c3.1,0.26,5.43,1.56,7.01,3.91
	c1.57,2.35,1.41,5.24-0.49,8.67c-1.9,3.43-2.08,5.04-0.55,4.82c1.53-0.22,3.54-1.09,6.03-2.61c2.5-1.52,4.88-2.74,7.14-3.65
	c2.27-0.91,4.09-1.5,5.48-1.76s4.04,0.17,7.98,1.3c3.93,1.13,7.65,2.72,11.17,4.76c3.51,2.04,8.16,2.22,13.94,0.52
	c5.78-1.7,5.15-1.13-1.87,1.69c-7.03,2.83-14.22,4.15-21.57,3.98c-7.35-0.17-13.04,0.65-17.06,2.48c-4.02,1.82-7.42,3.85-10.2,6.06
	c-2.77,2.22-5.34,5.87-7.7,10.95c-2.36,5.08-4.16,9.37-5.41,12.84c-1.25,3.48-2.36,6.32-3.33,8.54c-0.97,2.22-2.96,3.39-5.97,3.52
	c-3.01,0.13-4.99-0.89-5.96-3.06c-0.97-2.17-1.2-3.58-0.69-4.24c0.51-0.65,1.9-4.63,4.16-11.93S843.99,214.9,847.23,202.81z
	 M929.9,156.53c1.11-1.22,2.87-1.74,5.27-1.56c2.4,0.17,4.16,0.87,5.27,2.09c1.11,1.22,2.03,2.69,2.77,4.43
	c0.74,1.74,0.6,3.57-0.42,5.48c-1.02,1.91-1.99,4.41-2.91,7.5c-0.93,3.09-2.13,7.41-3.61,12.97c-1.48,5.56-1.39,8.69,0.28,9.39
	c1.66,0.7,4.53,1.39,8.6,2.09c4.07,0.7,10.56,0.96,19.49,0.78c8.92-0.17,8.44,0.44-1.46,1.83c-9.9,1.39-17.22,2.65-21.99,3.78
	c-4.76,1.13-7.91,1.94-9.43,2.41c-1.53,0.48-4.12,5.3-7.77,14.47c-3.65,9.17-6.06,15.28-7.21,18.32c-1.16,3.04-2.38,5.08-3.68,6.13
	c-1.3,1.04-2.96,1.83-4.99,2.35c-2.03,0.52-3.88,0.44-5.55-0.26c-1.66-0.69-1.64-3.52,0.07-8.47c1.71-4.95,4.05-10.82,7.01-17.6
	c2.96-6.78,4.58-10.99,4.86-12.65c0.28-1.65-0.93-2.26-3.61-1.82c-2.68,0.44-5.06,0.67-7.14,0.72c-2.08,0.04-3.1-1.17-3.05-3.65
	c0.05-2.48,1.73-4.5,5.06-6.06c3.33-1.56,6.29-2.37,8.88-2.41c2.59-0.04,4.9-3.43,6.94-10.17c2.03-6.73,3.24-11.21,3.61-13.43
	c0.37-2.22,0.97-5.24,1.8-9.06C927.82,160.27,928.79,157.75,929.9,156.53z"/>
<path fill="#EE2E24" d="M87.49,47.48C119-5.64,190.63-12.02,230.74,17.56L87.49,47.48z"/>
<path fill="#EE2E24" d="M236.75,21.86c6.63,4.13,20.5,19.5,23.13,25.62h-49.75L236.75,21.86z"/>
<polygon fill="#ADAFB2" points="128.33,47.48 166.65,47.48 233.6,19.48 232.42,18.42 "/>
</svg>
