<?xml version="1.0" encoding="utf-8"?>
<!-- Generator: Adobe Illustrator 22.0.1, SVG Export Plug-In . SVG Version: 6.00 Build 0)  -->
<svg version="1.1" id="Layer_1" xmlns="http://www.w3.org/2000/svg" xmlns:xlink="http://www.w3.org/1999/xlink" x="0px" y="0px"
	 viewBox="0 0 48.4648 8.9229" enable-background="new 0 0 48.4648 8.9229" xml:space="preserve">
<path d="M8.2275,8.7432H6.7881L6.6563,7.8076C6.0806,8.6353,5.0371,8.9229,4.2695,8.9229C1.667,8.9229,0,6.9443,0,4.4614
	C0,1.979,1.667,0,4.2695,0c1.7749,0,3.6821,0.9355,3.874,3.0942h-2.231c-0.084-0.7314-0.7793-1.1753-1.6909-1.1753
	c-1.4395,0-1.9912,1.2593-1.9912,2.5425s0.5518,2.5425,1.9912,2.5425c1.1035,0,1.835-0.5156,1.9668-1.2949H4.6294V4.0537h3.5981
	V8.7432z M9.4917,4.4375c0.0361-0.8154,0.4077-1.3433,0.9717-1.667c0.5635-0.3237,1.2593-0.4316,1.9785-0.4316
	c1.4756,0,2.9028,0.3237,2.9028,2.0869v2.7222c0,0.5278,0,1.1035,0.2397,1.5952h-2.0508c-0.084-0.1919-0.084-0.3838-0.1201-0.5879
	c-0.5278,0.564-1.2954,0.7676-2.0508,0.7676c-1.1992,0-2.123-0.5996-2.123-1.8828c0-2.0146,2.207-1.8711,3.6221-2.1587
	c0.3477-0.084,0.54-0.1919,0.54-0.5757c0-0.4678-0.564-0.6475-0.9839-0.6475c-0.5874,0-0.9233,0.2637-1.019,0.7793H9.4917z
	 M12.1304,7.6636c0.9712,0,1.2954-0.5396,1.2471-1.835c-0.2876,0.1802-0.8154,0.2041-1.2593,0.3359
	c-0.4678,0.1079-0.8394,0.2998-0.8394,0.7915C11.2788,7.4717,11.6626,7.6636,12.1304,7.6636z M16.7632,2.5186h1.979v1.0913h0.0239
	c0.2998-0.8032,0.9956-1.2114,1.8711-1.2114c0.1558,0,0.3237,0.0122,0.48,0.0483v1.8589c-0.2759-0.084-0.5039-0.1201-0.7798-0.1201
	c-1.0073,0-1.5352,0.6958-1.5352,1.4751v3.0825h-2.0391V2.5186z M27.752,8.7432h-1.9429V8.0234h-0.0239
	c-0.4077,0.5996-0.9834,0.8994-1.7153,0.8994c-1.9546,0-2.7822-1.667-2.7822-3.4297c0-1.6191,0.8633-3.1543,2.6265-3.1543
	c0.7559,0,1.3555,0.2876,1.7749,0.8516h0.0244V0.1797h2.0386V8.7432z M23.3267,5.5649c0,0.8516,0.3237,1.7988,1.2471,1.7988
	c0.9956,0,1.2114-0.9473,1.2114-1.7388c0-0.8994-0.3237-1.7271-1.2114-1.7271C23.6504,3.8979,23.3267,4.7734,23.3267,5.5649z
	 M29.1475,2.5186h1.979v0.8516h0.0239c0.3838-0.6357,1.2114-1.0313,1.9551-1.0313c2.0742,0,2.2422,1.5107,2.2422,2.4106v3.9937
	h-2.0386V5.7329V5.1094c0-0.6001-0.2036-1.0918-1.0195-1.0918c-0.7676,0-1.103,0.6597-1.103,1.3315v3.394h-2.0391V2.5186z
	 M38.4463,6.1284c0.0361,0.8638,0.5273,1.4155,1.3916,1.4155c0.4912,0,0.9707-0.2158,1.1631-0.6836h1.9072
	c-0.3838,1.439-1.7031,2.0625-3.0947,2.0625c-2.0264,0-3.4063-1.2231-3.4063-3.3101c0-1.9067,1.5234-3.2739,3.3584-3.2739
	c2.2305,0,3.3457,1.6787,3.25,3.7896H38.4463z M40.9766,4.9893c-0.0352-0.7075-0.5273-1.2715-1.2109-1.2715
	c-0.7197,0-1.1875,0.5039-1.3193,1.2715H40.9766z M44.1113,2.5186h1.9785v1.0913h0.0244c0.2998-0.8032,0.9951-1.2114,1.8711-1.2114
	c0.1553,0,0.3232,0.0122,0.4795,0.0483v1.8589c-0.2754-0.084-0.5039-0.1201-0.7793-0.1201c-1.0078,0-1.5352,0.6958-1.5352,1.4751
	v3.0825h-2.0391V2.5186z"/>
</svg>
