<?xml version="1.0" encoding="utf-8"?>
<!-- Generator: Adobe Illustrator 22.0.1, SVG Export Plug-In . SVG Version: 6.00 Build 0)  -->
<svg version="1.1" id="Layer_1" xmlns="http://www.w3.org/2000/svg" xmlns:xlink="http://www.w3.org/1999/xlink" x="0px" y="0px"
	 viewBox="0 0 276.3361 19.7803" enable-background="new 0 0 276.3361 19.7803" xml:space="preserve">
<g>
	<path d="M18.901,5.8549h-1.0722c-0.2836-0.8329-0.7382-1.7269-1.3644-2.68c-0.6262-0.9531-1.2046-1.4663-1.7351-1.5396
		c-0.2927-0.0367-0.6537-0.0692-1.0834-0.0957c-0.4297-0.0285-0.8003-0.0417-1.1109-0.0417h-0.6445v15.299
		c0,0.3299,0.0596,0.6211,0.1787,0.8736c0.1191,0.2515,0.3528,0.4511,0.7011,0.5977c0.2108,0.0825,0.5381,0.167,0.9826,0.2546
		c0.4445,0.0866,0.8227,0.1487,1.1343,0.1853v1.0722H4.0139v-1.0722c0.2658-0.0275,0.6389-0.0662,1.1206-0.1171
		c0.4806-0.0499,0.8085-0.112,0.9826-0.1853c0.3574-0.1466,0.5957-0.3442,0.7148-0.5906c0.1191-0.2484,0.1787-0.5407,0.1787-0.8798
		V1.4978H6.366c-0.3111,0-0.6812,0.0132-1.1109,0.0417C4.8254,1.566,4.4645,1.5986,4.1717,1.6353
		C3.6412,1.7086,3.0629,2.2218,2.4366,3.1749s-1.0814,1.8471-1.3644,2.68H0V0.2749h18.901V5.8549z"/>
	<path d="M37.4334,5.25h-1.0447c-0.2658-0.7392-0.724-1.4876-1.3746-2.2452s-1.2967-1.2056-1.9382-1.342
		c-0.2749-0.0641-0.6578-0.1028-1.1476-0.1171c-0.4908-0.0132-0.896-0.0204-1.2168-0.0204h-2.8317V9.044h2.0069
		c0.504,0,0.9622-0.0591,1.3746-0.1782c0.4124-0.1191,0.7881-0.3482,1.1272-0.6873c0.2108-0.2108,0.4236-0.5814,0.6395-1.114
		c0.2148-0.5305,0.3549-0.9938,0.419-1.3879h1.0447v8.1377H33.447c-0.055-0.3849-0.195-0.8686-0.419-1.45
		c-0.225-0.5824-0.4378-0.9826-0.6395-1.2025c-0.3024-0.3299-0.6598-0.557-1.0722-0.6812
		c-0.4124-0.1232-0.8889-0.1853-1.4296-0.1853h-2.0069v5.6217c0,0.5875,0.0433,1.0518,0.1303,1.396
		c0.0871,0.3431,0.25,0.6069,0.4882,0.7902c0.2291,0.1741,0.5432,0.2882,0.9414,0.3431c0.3991,0.055,0.9419,0.0835,1.6292,0.0835
		c0.3207,0,0.7056-0.0051,1.1547-0.0143c0.449-0.0092,0.8431-0.0367,1.1822-0.0825c0.3849-0.0458,0.7443-0.114,1.0793-0.2067
		c0.334-0.0906,0.584-0.224,0.7489-0.3981c0.4399-0.449,0.9347-1.1343,1.4846-2.0548c0.5498-0.9215,0.9118-1.6109,1.0859-2.0691
		h1.0035l-0.3711,6.0758H20.1407v-1.0722c0.2566-0.0183,0.6048-0.055,1.0447-0.11s0.7515-0.1191,0.9347-0.1924
		c0.3482-0.1466,0.5819-0.3319,0.7011-0.557c0.1191-0.224,0.1787-0.5101,0.1787-0.8584V3.2298c0-0.3299-0.0504-0.6028-0.1512-0.8176
		c-0.1008-0.2159-0.3437-0.4103-0.7285-0.5845c-0.2383-0.11-0.5728-0.2108-1.0035-0.3024s-0.756-0.1507-0.976-0.1792V0.2749h17.2927
		V5.25z"/>
	<path d="M61.7255,19.7803H51.0997v-1.0722c0.4938-0.0367,1.0747-0.1263,1.7422-0.2678c0.6675-0.1426,1.0014-0.3187,1.0014-0.5295
		c0-0.0733-0.0066-0.1558-0.0204-0.2474c-0.0137-0.0916-0.0529-0.2148-0.1171-0.3717l-1.6643-4.0404H45.308
		c-0.1553,0.3757-0.3258,0.8156-0.5127,1.3196c-0.1868,0.504-0.3487,0.9531-0.4852,1.3461
		c-0.1731,0.5142-0.2759,0.8848-0.3075,1.1139c-0.0326,0.2291-0.0484,0.39-0.0484,0.4806c0,0.2943,0.222,0.5437,0.6659,0.7494
		c0.4445,0.2067,1.1837,0.3554,2.2182,0.447v1.0722h-8.0003v-1.0722c0.3024-0.0183,0.644-0.0662,1.0243-0.1446
		c0.3798-0.0774,0.6802-0.1853,0.9001-0.3228c0.3757-0.2199,0.6944-0.4898,0.9551-0.8105c0.2617-0.3207,0.4791-0.7016,0.6532-1.1414
		c1.063-2.5751,2.1281-5.1553,3.1957-7.7396C46.6342,5.9648,47.8143,3.1158,49.1065,0h2.7492
		c1.7962,4.4171,3.2029,7.9086,4.2201,10.4736c1.0172,2.567,1.8832,4.6931,2.598,6.3782c0.1191,0.2749,0.2703,0.5254,0.4536,0.7494
		c0.1833,0.225,0.4445,0.4378,0.7835,0.6395c0.2566,0.1466,0.5544,0.2566,0.8935,0.3299s0.6461,0.1191,0.921,0.1375V19.7803z
		 M51.4759,11.8899l-2.8231-7.0503l-2.7823,7.0503H51.4759z"/>
	<path d="M88.8223,19.7803H78.2515v-1.0722c0.3116-0.0275,0.6944-0.0733,1.1476-0.1375c0.4541-0.0641,0.7632-0.1324,0.9281-0.2057
		c0.3391-0.1385,0.5819-0.3258,0.7285-0.5641c0.1466-0.2383,0.2199-0.5407,0.2199-0.9072V2.3226l-6.7081,17.142h-1.732
		c-0.0825-0.3034-0.2866-0.9032-0.612-1.8013c-0.3253-0.8981-0.5885-1.617-0.7902-2.1576l-4.9349-13.403v11.8635
		c0,1.1364,0.0759,1.9998,0.2266,2.5904c0.1517,0.5916,0.3966,1.0243,0.7357,1.2993c0.2291,0.1924,0.6389,0.3757,1.2305,0.5498
		c0.5906,0.1741,1.0055,0.2749,1.2438,0.3024v1.0722h-8.3852v-1.0722c0.2291-0.0275,0.6023-0.0896,1.1206-0.1853
		c0.5173-0.0967,0.9414-0.2637,1.2713-0.502c0.3666-0.2566,0.614-0.6893,0.7423-1.2993c0.1283-0.6089,0.1924-1.4775,0.1924-2.6046
		V4.4538c0-0.5865-0.0733-1.0753-0.2199-1.4642c-0.1466-0.39-0.3666-0.6985-0.6598-0.9286
		c-0.3666-0.2831-0.7423-0.4664-1.1272-0.5498c-0.3849-0.0815-0.7744-0.1364-1.1684-0.165V0.2749h8.988l4.8081,12.8512
		l4.0526-10.4298c0.1375-0.3859,0.2703-0.8441,0.3981-1.3756c0.1283-0.5325,0.197-0.8808,0.2062-1.0457h8.6407v1.0712
		c-0.2933,0.0193-0.6003,0.055-0.921,0.11c-0.3207,0.055-0.6277,0.1293-0.921,0.2199c-0.3574,0.1202-0.5936,0.3075-0.7082,0.5641
		c-0.1145,0.2566-0.1716,0.5407-0.1716,0.8523v13.8144c0,0.3299,0.057,0.6079,0.1716,0.8319
		c0.1146,0.225,0.3508,0.4195,0.7082,0.5845c0.1833,0.0825,0.4832,0.1609,0.9006,0.2332c0.4165,0.0743,0.7397,0.1242,0.9688,0.1517
		V19.7803z"/>
	<path d="M115.7287,5.4842h-1.0722c-0.2653-0.7576-0.7341-1.564-1.4067-2.4183c-0.6725-0.8533-1.311-1.3217-1.9148-1.4031
		c-0.2744-0.0367-0.6405-0.0682-1.0977-0.0967c-0.4577-0.0265-0.8787-0.0407-1.2626-0.0407h-3.0333v7.6429h1.9382
		c0.5499,0,1.0264-0.0621,1.4296-0.1853c0.4032-0.1242,0.7606-0.3462,1.0722-0.6669c0.2291-0.2291,0.4511-0.612,0.6664-1.1476
		c0.2154-0.5366,0.3462-0.9969,0.392-1.3817h1.0447v8.206h-1.0447c-0.0367-0.4114-0.1787-0.9134-0.4261-1.505
		c-0.2474-0.5906-0.4582-0.9826-0.6323-1.175c-0.2658-0.2933-0.6048-0.5112-1.0172-0.6527
		c-0.4124-0.1426-0.9072-0.2128-1.4846-0.2128h-1.9382v6.4597c0,0.3299,0.0621,0.612,0.1853,0.8462
		c0.1242,0.2332,0.3599,0.4236,0.7082,0.5702c0.2016,0.0825,0.4786,0.1578,0.8314,0.2271c0.3528,0.0682,0.7036,0.1212,1.0518,0.1578
		v1.0722H98.2023v-1.0722c0.2658-0.0275,0.6186-0.0662,1.0585-0.1171c0.4399-0.0499,0.7469-0.112,0.921-0.1853
		c0.3299-0.1283,0.559-0.3065,0.6873-0.5356s0.1925-0.5234,0.1925-0.8798V3.2298c0-0.3116-0.0575-0.5845-0.1716-0.8176
		c-0.1151-0.2342-0.3508-0.4287-0.7082-0.5845c-0.2566-0.11-0.5957-0.2108-1.0172-0.3024
		c-0.4215-0.0916-0.7423-0.1507-0.9622-0.1792V0.2749h17.5264V5.4842z"/>
	<path d="M127.9516,19.7803h-10.8183v-1.0722c0.2474-0.0183,0.6115-0.0458,1.0931-0.0825c0.4806-0.0367,0.8126-0.0916,0.9958-0.165
		c0.3391-0.1375,0.5712-0.3187,0.6944-0.5427c0.1242-0.225,0.1853-0.5112,0.1853-0.8594V3.2298
		c0-0.3116-0.0591-0.5865-0.1782-0.8248c-0.1191-0.2383-0.3533-0.4307-0.7016-0.5773c-0.2199-0.0916-0.5448-0.1853-0.9755-0.2821
		c-0.4307-0.0957-0.8019-0.1619-1.1134-0.1996V0.2749h10.8183v1.0712c-0.2749,0.0285-0.6181,0.0672-1.0315,0.1171
		c-0.4114,0.0509-0.7606,0.1222-1.0447,0.2128c-0.3564,0.1202-0.5957,0.3055-0.7148,0.557
		c-0.1191,0.2525-0.1782,0.5386-0.1782,0.8594v13.8144c0,0.3299,0.0621,0.612,0.1853,0.8462
		c0.1242,0.2332,0.3594,0.4236,0.7077,0.5702c0.1935,0.0825,0.5112,0.1629,0.9561,0.2403c0.4439,0.0784,0.8176,0.1263,1.1201,0.1446
		V19.7803z"/>
	<path d="M148.0098,5.8549h-1.0722c-0.2831-0.8329-0.7382-1.7269-1.3644-2.68c-0.6262-0.9531-1.2046-1.4663-1.7351-1.5396
		c-0.2922-0.0367-0.6537-0.0692-1.0834-0.0957c-0.4297-0.0285-0.8003-0.0417-1.1109-0.0417h-0.6445v15.299
		c0,0.3299,0.0591,0.6211,0.1782,0.8736c0.1191,0.2515,0.3533,0.4511,0.7016,0.5977c0.2108,0.0825,0.5386,0.167,0.9826,0.2546
		c0.445,0.0866,0.8227,0.1487,1.1343,0.1853v1.0722h-10.8727v-1.0722c0.2647-0.0275,0.6384-0.0662,1.1201-0.1171
		c0.4806-0.0499,0.8085-0.112,0.9826-0.1853c0.3574-0.1466,0.5957-0.3442,0.7148-0.5906c0.1191-0.2484,0.1782-0.5407,0.1782-0.8798
		V1.4978h-0.6445c-0.3106,0-0.6812,0.0132-1.1099,0.0417c-0.4307,0.0265-0.7912,0.0591-1.0834,0.0957
		c-0.5305,0.0733-1.1089,0.5865-1.7351,1.5396c-0.6272,0.9531-1.0814,1.8471-1.3654,2.68h-1.0712V0.2749h18.9005V5.8549z"/>
	<path d="M167.3808,5.8549h-1.0722c-0.2831-0.8329-0.7382-1.7269-1.3644-2.68c-0.6262-0.9531-1.2046-1.4663-1.7351-1.5396
		c-0.2922-0.0367-0.6537-0.0692-1.0834-0.0957c-0.4297-0.0285-0.8003-0.0417-1.1109-0.0417h-0.6445v15.299
		c0,0.3299,0.0591,0.6211,0.1782,0.8736c0.1191,0.2515,0.3533,0.4511,0.7016,0.5977c0.2108,0.0825,0.5387,0.167,0.9826,0.2546
		c0.445,0.0866,0.8227,0.1487,1.1343,0.1853v1.0722h-10.8727v-1.0722c0.2647-0.0275,0.6384-0.0662,1.1201-0.1171
		c0.4806-0.0499,0.8085-0.112,0.9826-0.1853c0.3574-0.1466,0.5957-0.3442,0.7148-0.5906c0.1191-0.2484,0.1782-0.5407,0.1782-0.8798
		V1.4978h-0.6445c-0.3106,0-0.6812,0.0132-1.1099,0.0417c-0.4307,0.0265-0.7912,0.0591-1.0834,0.0957
		c-0.5305,0.0733-1.1089,0.5865-1.7351,1.5396c-0.6272,0.9531-1.0814,1.8471-1.3654,2.68h-1.0712V0.2749h18.9005V5.8549z"/>
	<path d="M179.3562,19.7803h-10.8188v-1.0722c0.2484-0.0183,0.612-0.0458,1.0936-0.0825c0.4806-0.0367,0.8125-0.0916,0.9958-0.165
		c0.3391-0.1375,0.5712-0.3187,0.6944-0.5427c0.1242-0.225,0.1853-0.5112,0.1853-0.8594V3.2298
		c0-0.3116-0.0591-0.5865-0.1782-0.8248c-0.1191-0.2383-0.3533-0.4307-0.7016-0.5773c-0.2199-0.0916-0.5448-0.1853-0.9755-0.2821
		c-0.4307-0.0957-0.8024-0.1619-1.1139-0.1996V0.2749h10.8188v1.0712c-0.2749,0.0285-0.6181,0.0672-1.0315,0.1171
		c-0.4114,0.0509-0.7606,0.1222-1.0447,0.2128c-0.3564,0.1202-0.5957,0.3055-0.7148,0.557
		c-0.1191,0.2525-0.1782,0.5386-0.1782,0.8594v13.8144c0,0.3299,0.0621,0.612,0.1853,0.8462
		c0.1242,0.2332,0.3594,0.4236,0.7077,0.5702c0.1935,0.0825,0.5112,0.1629,0.9561,0.2403c0.444,0.0784,0.8176,0.1263,1.1201,0.1446
		V19.7803z"/>
	<path d="M199.5662,5.1543c0,1.0997-0.2261,2.0456-0.6802,2.8388c-0.4531,0.7922-1.0793,1.4357-1.8756,1.9306
		c-0.8248,0.5142-1.7666,0.8848-2.8256,1.114c-1.058,0.2291-2.2473,0.3442-3.5669,0.3442h-1.5946v5.4842
		c0,0.3299,0.0621,0.616,0.1853,0.8594c0.1242,0.2423,0.3594,0.4378,0.7087,0.5845c0.1823,0.0733,0.4806,0.1507,0.893,0.2332
		c0.4124,0.0825,0.7606,0.1375,1.0447,0.165v1.0722h-10.5703v-1.0722c0.2647-0.0275,0.6181-0.0662,1.0579-0.1171
		c0.4399-0.0499,0.7464-0.112,0.9215-0.1853c0.3564-0.1466,0.5926-0.3248,0.7077-0.5356c0.114-0.2108,0.1721-0.504,0.1721-0.8798
		V3.2298c0-0.3207-0.055-0.5977-0.165-0.8319c-0.11-0.2332-0.3492-0.4277-0.7148-0.5834c-0.2576-0.11-0.5987-0.2087-1.0243-0.2963
		c-0.4267-0.0866-0.7454-0.1436-0.9551-0.1721V0.2749h10.7628c2.5201,0,4.4028,0.4002,5.6492,1.2025
		C198.943,2.2788,199.5662,3.5048,199.5662,5.1543z M194.2062,5.8549c0-1.4652-0.2963-2.5537-0.8869-3.2645
		c-0.5916-0.7097-1.6424-1.0651-3.1555-1.0651h-1.1404v8.5634h0.5773c1.5029,0,2.6464-0.3452,3.4294-1.0376
		C193.8142,8.3597,194.2062,7.2946,194.2062,5.8549z"/>
	<path d="M222.3065,19.7803h-10.6263v-1.0722c0.4939-0.0367,1.0742-0.1263,1.7422-0.2678c0.668-0.1426,1.0019-0.3187,1.0019-0.5295
		c0-0.0733-0.0071-0.1558-0.0214-0.2474c-0.0132-0.0916-0.0519-0.2148-0.1161-0.3717l-1.6648-4.0404h-6.7336
		c-0.1548,0.3757-0.3258,0.8156-0.5132,1.3196c-0.1863,0.504-0.3482,0.9531-0.4847,1.3461
		c-0.1731,0.5142-0.2759,0.8848-0.3075,1.1139c-0.0326,0.2291-0.0479,0.39-0.0479,0.4806c0,0.2943,0.2209,0.5437,0.6659,0.7494
		c0.444,0.2067,1.1832,0.3554,2.2177,0.447v1.0722h-8.0003v-1.0722c0.3024-0.0183,0.6435-0.0662,1.0243-0.1446
		c0.3798-0.0774,0.6802-0.1853,0.9001-0.3228c0.3757-0.2199,0.6944-0.4898,0.9551-0.8105c0.2617-0.3207,0.4786-0.7016,0.6537-1.1414
		c1.062-2.5751,2.1281-5.1553,3.1952-7.7396c1.0681-2.5843,2.2483-5.4333,3.5394-8.5491h2.7493
		c1.7962,4.4171,3.2034,7.9086,4.2206,10.4736c1.0172,2.567,1.8827,4.6931,2.5975,6.3782c0.1191,0.2749,0.2709,0.5254,0.4541,0.7494
		c0.1833,0.225,0.444,0.4378,0.784,0.6395c0.2556,0.1466,0.5539,0.2566,0.893,0.3299c0.3391,0.0733,0.6466,0.1191,0.9215,0.1375
		V19.7803z M212.0559,11.8899l-2.8226-7.0503l-2.7818,7.0503H212.0559z"/>
	<path d="M240.9483,13.5263l-0.3849,6.254h-17.9658v-1.0722c0.3197-0.0275,0.6955-0.0713,1.1262-0.1303
		c0.4307-0.0601,0.7148-0.1171,0.8533-0.1721c0.3299-0.1283,0.558-0.3065,0.6863-0.5356c0.1283-0.2291,0.1935-0.5234,0.1935-0.8798
		V3.2298c0-0.3299-0.0509-0.6028-0.1517-0.8176c-0.1008-0.2159-0.3431-0.4103-0.728-0.5845
		c-0.2851-0.1283-0.6262-0.2311-1.0244-0.3095c-0.3991-0.0774-0.7178-0.1344-0.9551-0.1721V0.2749h10.7078v1.0712
		c-0.2933,0.0285-0.6395,0.0672-1.0376,0.1171c-0.3992,0.0509-0.7453,0.1222-1.0376,0.2128
		c-0.3584,0.1202-0.5967,0.3055-0.7148,0.557c-0.1202,0.2525-0.1792,0.5386-0.1792,0.8594v12.8247
		c0,0.6048,0.0407,1.0824,0.1242,1.4296c0.0815,0.3493,0.2423,0.6048,0.4806,0.7698c0.2383,0.1751,0.5702,0.2871,0.9969,0.337
		c0.4256,0.0509,1.0142,0.0764,1.7666,0.0764c0.7321,0,1.4449-0.0438,2.1373-0.1314c0.6914-0.0865,1.1883-0.277,1.4917-0.5702
		c0.4664-0.4674,0.946-1.1252,1.4357-1.9723c0.4908-0.8482,0.8818-1.6241,1.175-2.3297H240.9483z"/>
	<path d="M259.577,2.2808c1.1913,0.78,2.1536,1.8176,2.8877,3.1138c0.7321,1.2972,1.0997,2.8847,1.0997,4.7633
		c0,1.6495-0.3279,3.0863-0.9836,4.3092c-0.6548,1.2239-1.5233,2.2248-2.6047,3.0038c-1.0997,0.779-2.3481,1.3583-3.7461,1.7391
		c-1.397,0.3798-2.8612,0.5702-4.3916,0.5702h-9.828v-1.0722c0.2922-0.0092,0.6598-0.0367,1.0997-0.0825s0.7321-0.1008,0.8798-0.165
		c0.3299-0.1375,0.558-0.3228,0.6863-0.557c0.1283-0.2332,0.1935-0.5152,0.1935-0.8451V3.2298c0-0.3116-0.0601-0.5936-0.1792-0.8451
		c-0.1191-0.2525-0.3533-0.4562-0.7005-0.612c-0.3493-0.1558-0.7179-0.2617-1.1068-0.3167c-0.39-0.055-0.6904-0.0906-0.9011-0.11
		V0.2749h10.3789c1.1089,0,2.2961,0.1415,3.5608,0.4256C257.1862,0.9846,258.404,1.5111,259.577,2.2808z M256.7727,16.2612
		c0.4491-0.7331,0.7769-1.6058,0.9836-2.6189c0.2057-1.0121,0.3096-2.179,0.3096-3.4987c0-1.2911-0.1385-2.4692-0.4134-3.5323
		s-0.6781-1.9703-1.2097-2.7217s-1.1934-1.3339-1.9856-1.7453c-0.7932-0.4134-1.6933-0.6191-2.7014-0.6191
		c-0.3207,0-0.6853,0.0071-1.0926,0.0204c-0.4083,0.0143-0.7128,0.0255-0.9144,0.0346v14.8052c0,0.3299,0.0438,0.6201,0.1303,0.8726
		c0.0876,0.2515,0.2362,0.4735,0.447,0.6669c0.2108,0.1914,0.4694,0.3411,0.7769,0.446c0.3065,0.1059,0.7077,0.1588,1.2025,0.1588
		c1.0356,0,1.9245-0.1935,2.6668-0.5784S256.3145,17.0035,256.7727,16.2612z"/>
	<path d="M276.3361,19.7803h-10.8188v-1.0722c0.2484-0.0183,0.612-0.0458,1.0936-0.0825c0.4806-0.0367,0.8126-0.0916,0.9958-0.165
		c0.3391-0.1375,0.5712-0.3187,0.6944-0.5427c0.1242-0.225,0.1853-0.5112,0.1853-0.8594V3.2298
		c0-0.3116-0.0591-0.5865-0.1782-0.8248s-0.3533-0.4307-0.7016-0.5773c-0.2199-0.0916-0.5448-0.1853-0.9755-0.2821
		c-0.4307-0.0957-0.8024-0.1619-1.114-0.1996V0.2749h10.8188v1.0712c-0.2749,0.0285-0.6181,0.0672-1.0315,0.1171
		c-0.4114,0.0509-0.7606,0.1222-1.0447,0.2128c-0.3564,0.1202-0.5957,0.3055-0.7148,0.557
		c-0.1191,0.2525-0.1782,0.5386-0.1782,0.8594v13.8144c0,0.3299,0.0621,0.612,0.1853,0.8462
		c0.1242,0.2332,0.3594,0.4236,0.7077,0.5702c0.1935,0.0825,0.5111,0.1629,0.9561,0.2403c0.4439,0.0784,0.8176,0.1263,1.1201,0.1446
		V19.7803z"/>
</g>
</svg>
