<?xml version="1.0" encoding="utf-8"?>
<!-- Generator: Adobe Illustrator 22.0.1, SVG Export Plug-In . SVG Version: 6.00 Build 0)  -->
<svg version="1.1" id="Layer_1" xmlns="http://www.w3.org/2000/svg" xmlns:xlink="http://www.w3.org/1999/xlink" x="0px" y="0px"
	 viewBox="0 0 92 25.2949" enable-background="new 0 0 92 25.2949" xml:space="preserve">
<g>
	<path d="M19.4974,20.2764c-0.5911,1.084-1.1674,1.9248-1.7309,2.5225c-0.3646,0.375-0.9648,0.6182-1.799,0.7295
		c-0.8341,0.1113-1.6922,0.167-2.576,0.167c-0.906,0-1.6168-0.0322-2.1305-0.0967s-0.9133-0.208-1.2006-0.4307
		c-0.2873-0.2109-0.4806-0.5391-0.58-0.9844c-0.0995-0.4453-0.1492-1.0547-0.1492-1.8281V3.9551
		c0-0.4102,0.0718-0.7764,0.2155-1.0986s0.4308-0.5596,0.8618-0.7119c0.3535-0.1172,0.7697-0.208,1.2503-0.2725
		c0.4806-0.0645,0.8986-0.1143,1.2521-0.1494V0.3516H0v1.3711c0.2873,0.0469,0.6712,0.1201,1.1518,0.2197
		s0.8922,0.2314,1.2356,0.3955c0.464,0.2227,0.7568,0.4717,0.8783,0.7471S3.448,3.709,3.448,4.1309v17.5957
		c0,0.457-0.0773,0.832-0.232,1.125c-0.1547,0.293-0.4309,0.5215-0.8286,0.6855c-0.1658,0.0703-0.5092,0.1436-1.0284,0.2197
		S0.3867,23.8887,0,23.9238v1.3711h21.661l0.464-7.998h-1.2098C20.5617,18.1992,20.0884,19.1924,19.4974,20.2764z"/>
	<path d="M71.5,0.3516v1.3711c0.2573,0.0352,0.6324,0.1113,1.1255,0.2285c0.4931,0.1172,0.8897,0.2461,1.1898,0.3867
		c0.418,0.1992,0.694,0.4482,0.8281,0.7471c0.134,0.2988,0.201,0.6475,0.201,1.0459v17.5957c0,0.457-0.0751,0.832-0.2251,1.125
		c-0.1501,0.293-0.4181,0.5215-0.804,0.6855c-0.2037,0.0938-0.5627,0.1729-1.0773,0.2373c-0.0897,0.0112-0.159,0.0195-0.2426,0.0299
		c-0.1026-0.0188-0.2-0.0332-0.3076-0.0563c-0.437-0.0938-0.8209-0.2344-1.1517-0.4219c-0.437-0.2578-0.7736-0.5303-1.0099-0.8174
		c-0.2362-0.2871-0.4312-0.6064-0.5847-0.958c-0.9213-2.1563-2.0375-4.875-3.3487-8.1563C64.7819,10.1133,62.9688,5.6484,60.6537,0
		h-3.5435c-1.6655,3.9844-3.1862,7.6289-4.5623,10.9336s-2.7492,6.6035-4.1194,9.8965c-0.2244,0.5625-0.5049,1.0488-0.8416,1.459
		c-0.3366,0.4102-0.7471,0.7559-1.2313,1.0371c-0.2835,0.1758-0.6703,0.3135-1.1605,0.4131
		c-0.1933,0.0393-0.3725,0.0679-0.5502,0.0953L45,17.5254h-1.1826c-0.2052,0.5859-0.6318,1.4678-1.2798,2.6455
		s-1.2313,2.0537-1.7496,2.6279c-0.1944,0.2227-0.4887,0.3926-0.8829,0.5098s-0.8181,0.2051-1.2717,0.2637
		c-0.3996,0.0586-0.864,0.0938-1.3932,0.1055c-0.5292,0.0117-0.9828,0.0176-1.3608,0.0176c-0.8101,0-1.45-0.0352-1.9197-0.1055
		c-0.4698-0.0703-0.8397-0.2168-1.1097-0.4395c-0.2808-0.2344-0.4725-0.5713-0.5751-1.0107
		c-0.1027-0.4395-0.1539-1.0342-0.1539-1.7842V13.166h2.3652c0.6372,0,1.1989,0.0791,1.6848,0.2373
		c0.486,0.1582,0.9072,0.4482,1.2637,0.8701c0.2375,0.2813,0.4887,0.7939,0.7533,1.5381s0.4293,1.3623,0.4941,1.8545h1.2313V7.2598
		h-1.2313c-0.0756,0.5039-0.2403,1.0957-0.4941,1.7754s-0.5049,1.1543-0.7533,1.4238c-0.3997,0.4336-0.8425,0.7266-1.3284,0.8789
		c-0.486,0.1523-1.0261,0.2285-1.6201,0.2285h-2.3652V1.9512h3.3373c0.378,0,0.8559,0.0088,1.4337,0.0264
		s1.0287,0.0674,1.3527,0.1484c0.756,0.1758,1.5174,0.748,2.2842,1.7168c0.7668,0.9688,1.3068,1.9268,1.62,2.8721H43.38V0.3516H23
		v1.3711c0.2592,0.0352,0.6426,0.1113,1.1503,0.2285c0.5076,0.1172,0.9018,0.2461,1.1826,0.3867
		c0.4536,0.2227,0.7398,0.4717,0.8586,0.7471c0.1188,0.2754,0.1782,0.624,0.1782,1.0459v17.5957
		c0,0.4453-0.0702,0.8115-0.2106,1.0986c-0.1404,0.2871-0.4158,0.5244-0.8262,0.7119c-0.216,0.0938-0.5833,0.1758-1.1016,0.2461
		c-0.5184,0.0703-0.9288,0.1172-1.2313,0.1406v1.3711h20.875h0.6876h9.6241v-1.3711c-1.3337-0.1172-2.2866-0.3076-2.8585-0.5713
		c-0.5728-0.2637-0.8593-0.583-0.8593-0.958c0-0.1172,0.0206-0.3223,0.062-0.6152c0.0413-0.293,0.1742-0.7676,0.3967-1.4238
		c0.1761-0.5039,0.3848-1.0781,0.625-1.7227c0.2412-0.6445,0.4617-1.207,0.6615-1.6875h8.6787l2.1458,5.168
		c0.0827,0.1992,0.1329,0.3574,0.1506,0.4746c0.0177,0.1172,0.0266,0.2227,0.0266,0.3164c0,0.2695-0.4302,0.4951-1.2905,0.6768
		c-0.8613,0.1816-1.6093,0.2959-2.2462,0.3428v1.3711H71.5h1.875H83.8v-1.3711c-0.4073-0.0469-0.8173-0.1143-1.23-0.2021
		c-0.4127-0.0879-0.7369-0.1846-0.9727-0.29c-0.4073-0.1875-0.6833-0.4307-0.8281-0.7295s-0.217-0.6592-0.217-1.0811v-8.2617h2.267
		c0.6753,0,1.2542,0.0908,1.7365,0.2725s0.879,0.46,1.1898,0.835c0.2037,0.2461,0.4502,0.7471,0.7396,1.5029
		s0.4556,1.3975,0.4985,1.9248h1.2219V7.4004h-1.2219c-0.0536,0.4922-0.2064,1.0811-0.4583,1.7666s-0.5118,1.1748-0.7798,1.4678
		c-0.3644,0.4102-0.7825,0.6943-1.2541,0.8525s-1.029,0.2373-1.6722,0.2373h-2.267V1.9512h3.548
		c0.4493,0,0.9415,0.0176,1.4765,0.0527c0.5351,0.0352,0.963,0.0762,1.2845,0.1221c0.7065,0.1055,1.4524,0.7041,2.2393,1.7959
		c0.7861,1.0918,1.3345,2.1221,1.6454,3.0918H92V0.3516H71.5z M52.9396,15.2051l3.5859-9.0166l3.6381,9.0166H52.9396z"/>
</g>
</svg>
