<?xml version="1.0" encoding="utf-8"?>
<!-- Generator: Adobe Illustrator 22.0.1, SVG Export Plug-In . SVG Version: 6.00 Build 0)  -->
<svg version="1.1" id="Layer_1" xmlns="http://www.w3.org/2000/svg" xmlns:xlink="http://www.w3.org/1999/xlink" x="0px" y="0px"
	 viewBox="0 0 274.3667 26.3145" enable-background="new 0 0 274.3667 26.3145" xml:space="preserve">
<path d="M25.7417,15.4863c-0.3371,0.0352-0.6362,0.0762-0.8972,0.123s-0.5873,0.1406-0.9788,0.2813
	c-0.4459,0.1523-0.7395,0.4043-0.8809,0.7559s-0.2121,0.7207-0.2121,1.1074v2.9004c0,0.5859,0.0054,1.0576,0.0163,1.415
	c0.0109,0.3574,0.0272,0.7998,0.0489,1.3271c-1.0875,0.7031-2.6943,1.3652-4.8204,1.9863
	c-2.1261,0.6211-4.0809,0.9316-5.8645,0.9316c-1.6748,0-3.2463-0.2754-4.7144-0.8271c-1.4682-0.5508-2.7569-1.377-3.8661-2.4795
	c-1.1093-1.0908-1.982-2.4453-2.6182-4.0635S0,15.4736,0,13.3857c0-1.9463,0.2991-3.7471,0.8972-5.4004S2.3599,4.9072,3.491,3.7119
	c1.1093-1.1846,2.4605-2.0996,4.0537-2.7441C9.1379,0.3223,10.9024,0,12.8382,0c1.3159,0,2.5339,0.1758,3.6541,0.5273
	s2.0445,0.7266,2.7732,1.125l1.0114-0.9668h1.4192l0.1468,9.1055h-1.4355c-0.8265-2.7363-1.8162-4.7676-2.9689-6.0957
	c-1.1528-1.3262-2.6101-1.9902-4.3718-1.9902c-2.088,0-3.7003,0.9854-4.8368,2.9561c-1.1365,1.9697-1.7047,4.6846-1.7047,8.1445
	c0,3.6709,0.5574,6.5439,1.6721,8.6201c1.1147,2.0752,2.6943,3.1133,4.7389,3.1133c0.957,0,1.808-0.1553,2.553-0.4658
	s1.3241-0.6709,1.7373-1.0811v-5.0625c0-0.4219-0.0707-0.7764-0.2121-1.0635s-0.4241-0.5361-0.8483-0.7471
	c-0.3263-0.1641-0.7341-0.2988-1.2235-0.4043c-0.4894-0.1055-0.8972-0.1816-1.2235-0.2285v-1.3711h12.0226V15.4863z M45.1492,3.4629
	c1.0646,1.125,1.9086,2.4844,2.5322,4.0781c0.6235,1.5938,0.9353,3.4102,0.9353,5.4492c0,1.8164-0.2636,3.5449-0.7908,5.1855
	s-1.2876,3.0527-2.2812,4.2363c-1.0443,1.2305-2.2711,2.1885-3.6804,2.874c-1.4093,0.6855-3.0873,1.0283-5.0339,1.0283
	c-1.5715,0-3.0568-0.2988-4.456-0.8965s-2.631-1.4648-3.6956-2.6016c-1.0544-1.1133-1.8909-2.4668-2.5094-4.0605
	s-0.9277-3.3691-0.9277-5.3262c0-2.0391,0.3016-3.8877,0.9049-5.5459s1.4321-3.0791,2.4865-4.2627
	c1.0443-1.1602,2.2838-2.0537,3.7184-2.6807C33.7862,0.3135,35.3146,0,36.9368,0c1.6121,0,3.1253,0.3047,4.5396,0.9141
	C42.8908,1.5234,44.1151,2.373,45.1492,3.4629z M41.2407,21.3174c0.4562-1.0684,0.7858-2.2773,0.9885-3.627
	c0.2028-1.3496,0.3042-2.875,0.3042-4.5771c0-1.4434-0.0887-2.8486-0.2661-4.2158c-0.1774-1.3682-0.4791-2.5859-0.9049-3.6533
	c-0.436-1.0684-1.0139-1.9248-1.7337-2.5703s-1.6171-0.9688-2.6919-0.9688c-1.8351,0-3.2292,1.0068-4.1823,3.0195
	c-0.953,2.0127-1.4296,4.8564-1.4296,8.5293c0,1.5615,0.1039,3.0342,0.3118,4.4189c0.2078,1.3848,0.5348,2.5938,0.9809,3.627
	c0.4562,1.0449,1.0342,1.8574,1.7337,2.4385s1.5614,0.8711,2.5854,0.8711c1.0037,0,1.8655-0.293,2.5854-0.8799
	C40.2421,23.1426,40.8149,22.3389,41.2407,21.3174z M70.2417,17.6309l-0.4536,7.998H48.6167v-1.3711
	c0.378-0.0352,0.8207-0.0908,1.3283-0.167s0.8423-0.1494,1.0043-0.2197c0.3888-0.1641,0.6587-0.3926,0.8099-0.6855
	c0.1512-0.293,0.2268-0.668,0.2268-1.125V4.4648c0-0.4219-0.0594-0.7705-0.1782-1.0459s-0.405-0.5244-0.8585-0.7471
	c-0.3348-0.1641-0.737-0.2959-1.2068-0.3955c-0.4698-0.0996-0.845-0.1729-1.1258-0.2197V0.6855h12.6186v1.3711
	c-0.3456,0.0352-0.7532,0.085-1.223,0.1494s-0.8774,0.1553-1.223,0.2725c-0.4212,0.1523-0.7019,0.3896-0.8423,0.7119
	c-0.1404,0.3223-0.2106,0.6885-0.2106,1.0986v16.4004c0,0.7734,0.0486,1.3828,0.1458,1.8281
	c0.0972,0.4453,0.2862,0.7734,0.5669,0.9844c0.2808,0.2227,0.6722,0.3662,1.1744,0.4307c0.5022,0.0645,1.196,0.0967,2.0815,0.0967
	c0.8639,0,1.7035-0.0557,2.5189-0.167c0.8153-0.1113,1.4012-0.3545,1.7575-0.7295c0.5508-0.5977,1.115-1.4385,1.6927-2.5225
	c0.5777-1.084,1.0394-2.0771,1.385-2.9795H70.2417z M88.9742,3.252c1.2006,0.9961,2.1704,2.3232,2.9092,3.9814
	s1.1083,3.6885,1.1083,6.0908c0,2.1094-0.3302,3.9463-0.9905,5.5107c-0.6604,1.5645-1.5354,2.8447-2.6252,3.8408
	c-1.1083,0.9961-2.3666,1.7373-3.7751,2.2236s-2.8838,0.7295-4.4262,0.7295h-9.9053v-1.3711
	c0.2955-0.0117,0.665-0.0469,1.1083-0.1055s0.7389-0.1289,0.8866-0.2109c0.3325-0.1758,0.5634-0.4131,0.6927-0.7119
	c0.1293-0.2988,0.1939-0.6592,0.1939-1.0811V4.4648c0-0.3984-0.06-0.7588-0.1801-1.0811s-0.3556-0.583-0.7065-0.7822
	c-0.351-0.1992-0.7227-0.334-1.1152-0.4043s-0.695-0.1172-0.9074-0.1406V0.6855h10.4594c1.1175,0,2.3135,0.1816,3.5881,0.5449
	C86.5637,1.5938,87.792,2.2676,88.9742,3.252z M86.1481,21.1289c0.4525-0.9375,0.7827-2.0537,0.9905-3.3486
	s0.3117-2.7861,0.3117-4.4736c0-1.6523-0.1385-3.1582-0.4156-4.5176s-0.6834-2.5195-1.2191-3.4805s-1.2029-1.7051-2.0018-2.2324
	c-0.7989-0.5273-1.7063-0.791-2.7222-0.791c-0.3232,0-0.6904,0.0088-1.1013,0.0264s-0.7181,0.0322-0.9213,0.0439v18.9316
	c0,0.4219,0.0439,0.7939,0.1316,1.1162s0.2378,0.6064,0.4502,0.8525c0.2124,0.2461,0.4733,0.4365,0.7827,0.5713
	s0.7135,0.2021,1.2122,0.2021c1.0436,0,1.9395-0.2461,2.6876-0.7383S85.6863,22.0781,86.1481,21.1289z M204.4917,17.6309
	l-0.464,7.998h-21.661v-1.3711c0.3867-0.0352,0.8397-0.0908,1.3589-0.167s0.8627-0.1494,1.0284-0.2197
	c0.3977-0.1641,0.6739-0.3926,0.8286-0.6855s0.232-0.668,0.232-1.125V4.4648c0-0.4219-0.0608-0.7705-0.1823-1.0459
	s-0.4143-0.5244-0.8783-0.7471c-0.3434-0.1641-0.755-0.2959-1.2356-0.3955c-0.4806-0.0996-0.8645-0.1729-1.1518-0.2197V0.6855
	h12.9108v1.3711c-0.3535,0.0352-0.7715,0.085-1.2521,0.1494c-0.4806,0.0645-0.8967,0.1553-1.2503,0.2725
	c-0.4309,0.1523-0.7181,0.3896-0.8618,0.7119c-0.1436,0.3223-0.2154,0.6885-0.2154,1.0986v16.4004
	c0,0.7734,0.0497,1.3828,0.1492,1.8281c0.0994,0.4453,0.2928,0.7734,0.58,0.9844c0.2872,0.2227,0.6868,0.3662,1.2006,0.4307
	c0.5137,0.0645,1.2245,0.0967,2.1305,0.0967c0.8839,0,1.7419-0.0557,2.5761-0.167s1.4344-0.3545,1.799-0.7295
	c0.5635-0.5977,1.1398-1.4385,1.7309-2.5225s1.0643-2.0771,1.4179-2.9795H204.4917z M225.7467,7.0488h-1.2312
	c-0.3132-0.9453-0.8532-1.9033-1.62-2.8721s-1.5282-1.541-2.2842-1.7168c-0.324-0.0811-0.7749-0.1309-1.3527-0.1484
	s-1.0557-0.0264-1.4337-0.0264h-3.3372v9.6152h2.3652c0.594,0,1.134-0.0762,1.62-0.2285s0.9288-0.4453,1.3284-0.8789
	c0.2484-0.2695,0.4995-0.7441,0.7533-1.4238s0.4185-1.2715,0.4941-1.7754h1.2312V18h-1.2312
	c-0.0648-0.4922-0.2295-1.1104-0.4941-1.8545s-0.5157-1.2568-0.7533-1.5381c-0.3564-0.4219-0.7776-0.7119-1.2636-0.8701
	S217.4899,13.5,216.8527,13.5h-2.3652v7.1895c0,0.75,0.0513,1.3447,0.1539,1.7842s0.2943,0.7764,0.5751,1.0107
	c0.27,0.2227,0.6399,0.3691,1.1097,0.4395c0.4698,0.0703,1.1097,0.1055,1.9197,0.1055c0.378,0,0.8316-0.0059,1.3608-0.0176
	C220.136,24,220.6004,23.9648,221,23.9063c0.4536-0.0586,0.8775-0.1465,1.2717-0.2637c0.3942-0.1172,0.6885-0.2871,0.8829-0.5098
	c0.5184-0.5742,1.1016-1.4502,1.7496-2.6279s1.0746-2.0596,1.2798-2.6455h1.1826l-0.4374,7.7695h-21.5626v-1.3711
	c0.3024-0.0234,0.7128-0.0703,1.2312-0.1406c0.5184-0.0703,0.8856-0.1523,1.1016-0.2461c0.4104-0.1875,0.6858-0.4248,0.8262-0.7119
	s0.2106-0.6533,0.2106-1.0986V4.4648c0-0.4219-0.0594-0.7705-0.1782-1.0459c-0.1188-0.2754-0.405-0.5244-0.8586-0.7471
	c-0.2808-0.1406-0.675-0.2695-1.1826-0.3867s-0.891-0.1934-1.1502-0.2285V0.6855h20.38V7.0488z M255.7417,25.6289h-13.6958v-1.3711
	c0.6369-0.0469,1.3849-0.1611,2.2462-0.3428c0.8603-0.1816,1.2904-0.4072,1.2904-0.6768c0-0.0938-0.0089-0.1992-0.0266-0.3164
	s-0.0679-0.2754-0.1506-0.4746l-2.1458-5.168h-8.6787c-0.1998,0.4805-0.4203,1.043-0.6615,1.6875
	c-0.2402,0.6445-0.4488,1.2188-0.625,1.7227c-0.2225,0.6563-0.3553,1.1309-0.3967,1.4238c-0.0414,0.293-0.062,0.498-0.062,0.6152
	c0,0.375,0.2864,0.6943,0.8593,0.958c0.5719,0.2637,1.5247,0.4541,2.8585,0.5713v1.3711h-10.3117v-1.3711
	c0.3898-0.0234,0.8298-0.085,1.32-0.1846c0.4902-0.0996,0.877-0.2373,1.1605-0.4131c0.4843-0.2813,0.8947-0.627,1.2314-1.0371
	c0.3366-0.4102,0.6172-0.8965,0.8416-1.459c1.3702-3.293,2.7433-6.5918,4.1194-9.8965c1.3761-3.3047,2.8969-6.9492,4.5623-10.9336
	h3.5435c2.3151,5.6484,4.1282,10.1133,5.4393,13.3945s2.4273,6,3.3486,8.1563c0.1535,0.3516,0.3484,0.6709,0.5847,0.958
	s0.5729,0.5596,1.0099,0.8174c0.3307,0.1875,0.7146,0.3281,1.1517,0.4219s0.8327,0.1523,1.1871,0.1758V25.6289z M242.5302,15.5391
	l-3.638-9.0166l-3.5859,9.0166H242.5302z M274.3667,7.3477h-1.2541c-0.3109-0.9697-0.8593-2-1.6454-3.0918
	c-0.787-1.0918-1.5328-1.6904-2.2394-1.7959c-0.3216-0.0459-0.7494-0.0869-1.2845-0.1221c-0.535-0.0352-1.0272-0.0527-1.4765-0.0527
	h-3.548v9.7734h2.2671c0.6431,0,1.2005-0.0791,1.6721-0.2373c0.4716-0.1582,0.8897-0.4424,1.2541-0.8525
	c0.268-0.293,0.5279-0.7822,0.7798-1.4678s0.4046-1.2744,0.4582-1.7666h1.222v10.4941h-1.222
	c-0.0429-0.5273-0.209-1.1689-0.4984-1.9248c-0.2894-0.7559-0.5359-1.2568-0.7396-1.5029c-0.3109-0.375-0.7075-0.6533-1.1898-0.835
	c-0.4824-0.1816-1.0612-0.2725-1.7365-0.2725h-2.2671v8.2617c0,0.4219,0.0724,0.7822,0.2171,1.0811
	c0.1447,0.2988,0.4207,0.542,0.828,0.7295c0.2358,0.1055,0.5601,0.2021,0.9727,0.29c0.4127,0.0879,0.8227,0.1553,1.23,0.2021v1.3711
	h-12.3v-1.3711c0.3109-0.0352,0.7235-0.085,1.238-0.1494s0.8736-0.1436,1.0773-0.2373c0.3859-0.1641,0.6538-0.3926,0.8039-0.6855
	c0.1501-0.293,0.2251-0.668,0.2251-1.125V4.4648c0-0.3984-0.067-0.7471-0.201-1.0459c-0.134-0.2988-0.41-0.5479-0.828-0.7471
	c-0.3001-0.1406-0.6967-0.2695-1.1898-0.3867s-0.8682-0.1934-1.1255-0.2285V0.6855h20.5V7.3477z"/>
</svg>
