<?xml version="1.0" encoding="utf-8"?>
<!-- Generator: Adobe Illustrator 22.0.1, SVG Export Plug-In . SVG Version: 6.00 Build 0)  -->
<svg version="1.1" id="Layer_1" xmlns="http://www.w3.org/2000/svg" xmlns:xlink="http://www.w3.org/1999/xlink" x="0px" y="0px"
	 viewBox="0 0 92.9916 26.3145" enable-background="new 0 0 92.9916 26.3145" xml:space="preserve">
<g>
	<path d="M47.6814,7.541c-0.6235-1.5938-1.4676-2.9531-2.5322-4.0781c-1.0342-1.0898-2.2584-1.9395-3.6728-2.5488
		S38.5488,0,36.9368,0c-1.6222,0-3.1506,0.3135-4.5853,0.9404s-2.6741,1.5205-3.7184,2.6807
		c-1.0544,1.1836-1.8833,2.6045-2.4866,4.2627s-0.9048,3.5068-0.9048,5.5459c0,0.2339,0.0189,0.4568,0.0277,0.6855H13.7191v1.3711
		c0.3262,0.0469,0.7341,0.123,1.2234,0.2285s0.8972,0.2402,1.2234,0.4043c0.4241,0.2109,0.7069,0.46,0.8483,0.7471
		c0.1414,0.2871,0.2121,0.6416,0.2121,1.0635v5.0625c-0.4133,0.4102-0.9924,0.7705-1.7374,1.0811
		c-0.7449,0.3105-1.5959,0.4658-2.5529,0.4658c-2.0446,0-3.6242-1.0381-4.7389-3.1133c-1.1147-2.0762-1.6721-4.9492-1.6721-8.6201
		c0-3.46,0.5682-6.1748,1.7047-8.1445c1.1365-1.9707,2.7487-2.9561,4.8368-2.9561c1.7618,0,3.2191,0.6641,4.3718,1.9902
		c1.1528,1.3281,2.1425,3.3594,2.9689,6.0957h1.4355l-0.1468-9.1055h-1.4193l-1.0114,0.9668
		c-0.7286-0.3984-1.653-0.7734-2.7731-1.125C15.3721,0.1758,14.1541,0,12.8382,0c-1.9358,0-3.7003,0.3223-5.2935,0.9678
		C5.9515,1.6123,4.6002,2.5273,3.4909,3.7119C2.3599,4.9072,1.4953,6.332,0.8972,7.9854C0.2991,9.6387,0,11.4395,0,13.3857
		c0,2.0879,0.3181,3.9404,0.9543,5.5586c0.6362,1.6182,1.5089,2.9727,2.6182,4.0635c1.1093,1.1025,2.3979,1.9287,3.8661,2.4795
		c1.4681,0.5518,3.0396,0.8271,4.7144,0.8271c1.7835,0,3.7383-0.3105,5.8644-0.9316s3.733-1.2832,4.8205-1.9863
		c-0.0218-0.5273-0.0381-0.9697-0.049-1.3271s-0.0164-0.8291-0.0164-1.415v-2.9004c0-0.3867,0.0707-0.7559,0.2121-1.1074
		s0.435-0.6035,0.8809-0.7559c0.3915-0.1406,0.7177-0.2344,0.9788-0.2813c0.1633-0.0294,0.3469-0.0555,0.54-0.0803
		c0.1444,1.1444,0.3964,2.2256,0.7849,3.2267c0.6185,1.5938,1.4549,2.9473,2.5093,4.0605c1.0646,1.1367,2.2964,2.0039,3.6956,2.6016
		s2.8845,0.8965,4.456,0.8965c1.9467,0,3.6246-0.3428,5.0339-1.0283c1.4092-0.6855,2.636-1.6436,3.6804-2.874
		c0.9936-1.1836,1.754-2.5957,2.2813-4.2363s0.7908-3.3691,0.7908-5.1855C48.6167,10.9512,48.3049,9.1348,47.6814,7.541z
		 M42.2292,17.6904c-0.2028,1.3496-0.5323,2.5586-0.9885,3.627c-0.4258,1.0215-0.9987,1.8252-1.7186,2.4121
		s-1.5817,0.8799-2.5854,0.8799c-1.024,0-1.8858-0.29-2.5854-0.8711s-1.2775-1.3936-1.7337-2.4385
		c-0.4461-1.0332-0.7731-2.2422-0.981-3.627s-0.3118-2.8574-0.3118-4.4189c0-3.6729,0.4765-6.5166,1.4296-8.5293
		s2.3472-3.0195,4.1823-3.0195c1.0747,0,1.972,0.3232,2.6918,0.9688c0.7199,0.6455,1.2978,1.502,1.7338,2.5703
		c0.4258,1.0674,0.7275,2.2852,0.9049,3.6533c0.1774,1.3672,0.2661,2.7725,0.2661,4.2158
		C42.5334,14.8154,42.432,16.3408,42.2292,17.6904z"/>
	<path d="M67.6742,20.6104c-0.5778,1.084-1.142,1.9248-1.6927,2.5225c-0.3563,0.375-0.9422,0.6182-1.7575,0.7295
		s-1.655,0.167-2.5189,0.167c-0.8856,0-1.5793-0.0322-2.0815-0.0967c-0.5021-0.0645-0.8936-0.208-1.1744-0.4307
		c-0.2808-0.2109-0.4697-0.5391-0.567-0.9844c-0.0972-0.4453-0.1458-1.0547-0.1458-1.8281V4.2891
		c0-0.4102,0.0702-0.7764,0.2106-1.0986s0.4211-0.5596,0.8423-0.7119c0.3456-0.1172,0.7532-0.208,1.223-0.2725
		c0.4697-0.0645,0.8774-0.1143,1.223-0.1494V0.6855H48.6167v1.3711c0.2808,0.0469,0.656,0.1201,1.1258,0.2197
		c0.4697,0.0996,0.872,0.2314,1.2068,0.3955c0.4536,0.2227,0.7397,0.4717,0.8585,0.7471c0.1188,0.2754,0.1782,0.624,0.1782,1.0459
		v17.5957c0,0.457-0.0756,0.832-0.2268,1.125c-0.1512,0.293-0.4211,0.5215-0.8099,0.6855c-0.162,0.0703-0.4968,0.1436-1.0043,0.2197
		s-0.9503,0.1318-1.3282,0.167v1.3711h21.1714l0.4536-7.998h-1.1825C68.7136,18.5332,68.252,19.5264,67.6742,20.6104z"/>
	<path d="M91.8834,7.2334c-0.7388-1.6582-1.7086-2.9854-2.9092-3.9814c-1.1821-0.9844-2.4105-1.6582-3.685-2.0215
		s-2.4705-0.5449-3.5881-0.5449H71.2417v1.3711c0.2124,0.0234,0.5149,0.0703,0.9074,0.1406
		c0.3925,0.0703,0.7642,0.2051,1.1152,0.4043s0.5865,0.46,0.7065,0.7822s0.1801,0.6826,0.1801,1.0811v17.6836
		c0,0.4219-0.0647,0.7822-0.194,1.0811c-0.1293,0.2988-0.3602,0.5361-0.6927,0.7119c-0.1478,0.082-0.4433,0.1523-0.8866,0.2109
		c-0.4434,0.0586-0.8127,0.0938-1.1083,0.1055v1.3711h9.9052c1.5424,0,3.0178-0.2432,4.4262-0.7295s2.6668-1.2275,3.7751-2.2236
		c1.0898-0.9961,1.9648-2.2764,2.6252-3.8408c0.6603-1.5645,0.9905-3.4014,0.9905-5.5107
		C92.9916,10.9219,92.6223,8.8916,91.8834,7.2334z M87.1385,17.7803c-0.2078,1.2949-0.538,2.4111-0.9905,3.3486
		c-0.4618,0.9492-1.0668,1.6699-1.8148,2.1621c-0.7481,0.4922-1.644,0.7383-2.6876,0.7383c-0.4987,0-0.9028-0.0674-1.2122-0.2021
		s-0.5703-0.3252-0.7827-0.5713s-0.3625-0.5303-0.4503-0.8525c-0.0877-0.3223-0.1316-0.6943-0.1316-1.1162V2.3555
		c0.2032-0.0117,0.5103-0.0264,0.9213-0.0439c0.4109-0.0176,0.7781-0.0264,1.1013-0.0264c1.0159,0,1.9233,0.2637,2.7222,0.791
		s1.4662,1.2715,2.0018,2.2324c0.5357,0.9609,0.942,2.1211,1.2191,3.4805c0.277,1.3594,0.4156,2.8652,0.4156,4.5176
		C87.4503,14.9941,87.3464,16.4854,87.1385,17.7803z"/>
</g>
</svg>
