<svg xmlns="http://www.w3.org/2000/svg" viewBox="0 0 309.6 158.3"><path fill="#A18700" d="M289.6 0H20C9 0 0 9 0 20v118.3c0 11 9 20 20 20h269.6c11 0 20-9 20-20V20c0-11-9-20-20-20z"/><path fill="#F01616" d="M20 11h269.6c5 0 9 4 9 9v53.7H11V20c0-5 4-9 9-9z"/><path fill="#FFF" d="M289.6 147.3H20c-5 0-9-4-9-9V84.7h287.6v53.6c0 5-4 9-9 9zM43.8 44.6H43l-1 .4c-.4.1-.7.4-.8.7l-.3 1.1v4.3l.1 1.4c-1 .7-2.7 1.3-4.8 2s-4 .9-5.9.9c-1.7 0-3.2-.3-4.7-.8-1.5-.6-2.7-1.4-3.9-2.5-1-1.1-2-2.5-2.6-4s-1-3.6-1-5.6c0-2 .4-3.8 1-5.4s1.4-3.1 2.6-4.3c1-1.2 2.4-2.1 4-2.8a14 14 0 0 1 11.7.7l1-1h1.5l.1 9.2h-1.4c-.8-2.8-1.8-4.8-3-6.1a5.5 5.5 0 0 0-4.4-2c-2 0-3.7 1-4.8 3-1.1 1.9-1.7 4.6-1.7 8 0 3.7.6 6.6 1.7 8.7 1 2 2.7 3.1 4.7 3.1 1 0 1.8-.1 2.6-.5.7-.3 1.3-.6 1.7-1V47c0-.4 0-.8-.2-1-.2-.4-.4-.6-.9-.8l-1.2-.4-1.2-.2v-1.4h12v1.4zm19.4-12c1 1 2 2.4 2.6 4s.9 3.4.9 5.5c0 1.8-.3 3.5-.8 5.1a11.2 11.2 0 0 1-6 7.1c-1.4.7-3 1-5 1a11.2 11.2 0 0 1-10.7-7.5 16.1 16.1 0 0 1 0-10.9 13 13 0 0 1 2.5-4.2c1-1.2 2.3-2 3.7-2.7s3-1 4.6-1a11.3 11.3 0 0 1 8.2 3.5zm-3.9 17.8c.5-1 .8-2.3 1-3.6a31 31 0 0 0-.9-12.5c-.4-1-1-2-1.7-2.6-.7-.6-1.6-1-2.7-1-1.8 0-3.2 1-4.2 3.1a29.8 29.8 0 0 0-1.1 13c.2 1.3.5 2.5 1 3.6.4 1 1 1.8 1.7 2.4s1.6.9 2.6.9a4 4 0 0 0 2.6-.9 6 6 0 0 0 1.7-2.4zm29-3.7l-.4 8H66.7v-1.4l1.3-.1 1-.3c.4-.1.7-.4.8-.6l.3-1.2V33.5l-.2-1c-.1-.3-.4-.5-.9-.8l-1.2-.4-1.1-.2v-1.3h12.6V31a36.1 36.1 0 0 0-2.4.4c-.5.2-.7.4-.9.8l-.2 1v16.5c0 .7 0 1.3.2 1.8s.2.8.5 1l1.2.4 2 .1c1 0 1.8 0 2.6-.2.8 0 1.4-.3 1.8-.7l1.6-2.5 1.4-3h1.2zM107 32.3c1.2 1 2.2 2.3 3 4s1 3.7 1 6c0 2.2-.3 4-1 5.6-.6 1.6-1.5 2.9-2.6 3.8-1 1-2.3 1.8-3.7 2.3s-3 .7-4.5.7h-9.9v-1.4a12.5 12.5 0 0 0 2-.3c.4-.2.6-.4.7-.7.2-.3.2-.7.2-1V33.4c0-.4 0-.7-.2-1s-.3-.6-.7-.8c-.3-.2-.7-.4-1-.4l-1-.2v-1.3h10.5c1 0 2.3.1 3.6.5 1.2.4 2.5 1 3.6 2zm-2.8 17.9c.5-1 .8-2 1-3.3a29.5 29.5 0 0 0 0-9c-.4-1.4-.8-2.6-1.3-3.5s-1.2-1.7-2-2.3c-.8-.5-1.7-.7-2.7-.7a26 26 0 0 0-2 0v20c0 .3.3.7.5 1l.8.5 1.2.2c1 0 2-.2 2.7-.7s1.4-1.3 1.8-2.2zm118.4-3.5l-.5 8h-21.7v-1.4l1.4-.1 1-.3c.4-.1.7-.4.9-.6s.2-.7.2-1.2V33.5c0-.4 0-.7-.2-1s-.4-.5-.9-.8l-1.2-.4-1.2-.2v-1.3h13V31a37.8 37.8 0 0 0-2.6.4c-.4.2-.7.4-.8.8-.2.3-.2.6-.2 1v16.5l.1 1.8c.1.4.3.8.6 1l1.2.4a18.1 18.1 0 0 0 4.7 0c.8-.2 1.4-.4 1.8-.8a26.3 26.3 0 0 0 3.1-5.5h1.3zm21.2-10.6h-1.2c-.3-1-.9-1.9-1.6-2.9s-1.6-1.5-2.3-1.7l-1.4-.1H232.6V41h2.3c.6 0 1.2-.1 1.6-.3s1-.4 1.4-.8c.2-.3.5-.8.7-1.5l.5-1.7h1.3V47H239a9.5 9.5 0 0 0-1.2-3.4c-.4-.4-.8-.7-1.3-.9s-1-.2-1.7-.2h-2.3v7.2l.1 1.7c.1.4.3.8.6 1 .3.3.6.4 1.1.5l2 .1a63 63 0 0 0 4-.4l.8-.5c.5-.6 1.1-1.4 1.8-2.6s1-2 1.3-2.7h1.1l-.4 7.8h-21.6v-1.4a22.8 22.8 0 0 0 2.4-.4c.4-.1.7-.4.8-.7l.2-1V33.4c0-.4 0-.7-.2-1 0-.3-.4-.5-.8-.8l-1.2-.3-1.2-.3v-1.3h20.4V36zm30 18.6h-13.7v-1.4l2.3-.3c.8-.2 1.3-.4 1.3-.7V52l-.2-.5-2.2-5.2h-8.6a51.1 51.1 0 0 0-1.8 5.5c0 .4.3.7.9 1 .5.2 1.5.4 2.8.5v1.4h-10.3v-1.4c.4 0 .8 0 1.3-.2.5 0 1-.2 1.2-.4.5-.3.9-.6 1.2-1 .4-.4.6-.9.9-1.5a40284.8 40284.8 0 0 1 8.6-20.8h3.6a1729 1729 0 0 1 8.8 21.6l.6 1c.3.3.5.5 1 .7l1.1.5 1.2.1v1.4zm-13.2-10l-3.6-9.1-3.6 9h7.2zm31.8-8.3h-1.2c-.3-1-.9-2-1.7-3-.7-1.2-1.5-1.8-2.2-1.9a17.7 17.7 0 0 0-2.8-.1H281V41h2.3c.6 0 1.2 0 1.6-.2.5-.2 1-.5 1.3-.9.3-.3.5-.7.8-1.4s.4-1.3.4-1.8h1.2v10.5h-1.2c0-.5-.2-1.2-.5-2a6 6 0 0 0-.7-1.4c-.3-.4-.7-.7-1.2-.9a5 5 0 0 0-1.7-.2H281V51c0 .4 0 .8.2 1.1.2.3.4.5.8.7l1 .3 1.2.2v1.4H272v-1.4a111 111 0 0 0 2.4-.4l.8-.6.2-1.2V33.5c0-.4 0-.7-.2-1-.2-.3-.4-.6-.8-.8l-1.2-.3-1.2-.3v-1.3h20.5v6.6z"/><path fill="#F01616" d="M35.6 119.4h-1.1a12 12 0 0 0-1.4-2.6c-.6-1-1.2-1.5-1.7-1.6a17.6 17.6 0 0 0-2.2-.1h-.7v15.3l.2.9.7.6 1 .2 1.1.2v1H20.7v-1a496.5 496.5 0 0 0 2-.3l.8-.6.2-.9v-15.4H23a17 17 0 0 0-2.2.1c-.5 0-1 .6-1.7 1.6s-1 1.8-1.4 2.6h-1V114h18.9v5.5zm18.5-.6h-1c-.3-.7-.8-1.5-1.4-2.2s-1.3-1.2-2-1.4H44.5v7.4h2l1.4-.1 1.1-.7c.3-.2.5-.6.7-1.1l.4-1.4h1v8.1h-1a7 7 0 0 0-1-2.7c-.4-.3-.7-.5-1.1-.6a5 5 0 0 0-1.5-.2h-2v5.6c0 .6 0 1 .2 1.4 0 .3.2.6.5.8.2.2.5.3.9.3a12.5 12.5 0 0 0 2.8.1 10.6 10.6 0 0 0 2.2-.3c.4 0 .6-.2.8-.4a15 15 0 0 0 2.6-4.1h1l-.4 6H36.8v-1a20.9 20.9 0 0 0 2-.3c.3-.2.6-.3.7-.6l.2-.8v-13.8l-.2-.8c-.1-.2-.3-.4-.7-.6l-1-.3-1-.2v-1h17.3v5zm24.3 14.6H67.8v-1.1l1.7-.3c.7-.1 1-.3 1-.5v-.3l-.1-.3-1.7-4H62a39 39 0 0 0-1.4 4.2c0 .3.2.5.7.7.4.3 1.2.4 2.2.5v1h-8v-1c.3 0 .6 0 1-.2.4 0 .7-.1 1-.3l.9-.8c.2-.3.5-.7.6-1.1l3.2-7.8 3.6-8.5h2.7a1374.7 1374.7 0 0 1 7.3 17.6 3 3 0 0 0 1.7 1h.9v1.2zm-10.3-8l-2.8-7-2.8 7h5.6zm37.4 8H94.9v-1.1a22.5 22.5 0 0 0 2-.3l.8-.6c.2-.3.2-.6.2-1V116l-6.7 17.2h-1.7a29.2 29.2 0 0 0-1.4-4l-5-13.4v11.9c0 1 .1 2 .3 2.5.1.6.4 1 .7 1.3l1.2.6 1.3.3v1h-8.4v-1l1.1-.2c.5 0 1-.3 1.3-.5.4-.3.6-.7.7-1.3.2-.6.2-1.5.2-2.6V118c0-.5 0-1-.2-1.4a2 2 0 0 0-.6-1l-1.2-.5-1.1-.2v-1h9l4.8 12.8 4-10.4a13.7 13.7 0 0 0 .6-2.4h8.6v1a9 9 0 0 0-1.8.4c-.3 0-.6.3-.7.5a2 2 0 0 0-.2.9v13.8c0 .3 0 .6.2.8l.7.6 1 .2.9.2v1zm26.9-14.3h-1c-.4-.8-.8-1.6-1.5-2.4-.7-.9-1.3-1.4-2-1.5a16.5 16.5 0 0 0-2.3 0h-3v7.6h2l1.4-.2 1-.7c.3-.2.5-.6.7-1.1l.4-1.4h1v8.2h-1c0-.4-.2-1-.4-1.5l-.7-1.2c-.2-.3-.6-.5-1-.7l-1.5-.2h-1.9v6.5c0 .3 0 .6.2.8.1.3.3.5.7.6l.8.2 1 .2v1H115v-1a90.5 90.5 0 0 0 2-.3c.3-.1.5-.3.6-.5.2-.3.2-.6.2-1v-13.7c0-.3 0-.6-.2-.8 0-.2-.3-.4-.7-.6l-1-.3-1-.2v-1h17.6v5.2zm12.2 14.3h-10.8v-1.1a540.4 540.4 0 0 0 2-.3c.4 0 .6-.3.8-.5l.2-.9v-13.8l-.2-.8-.7-.6-1-.3-1.1-.2v-1h10.8v1a63 63 0 0 0-2 .4c-.4 0-.7.3-.8.5a2 2 0 0 0-.2.9v13.8l.2.8c.1.3.4.5.7.6l1 .2 1.1.2v1zm20-14h-1a12 12 0 0 0-1.4-2.6c-.6-1-1.2-1.5-1.7-1.6a17.6 17.6 0 0 0-2.2-.1h-.6v15.3l.1.9.7.6 1 .2 1.2.2v1h-11v-1l1.2-.1a4 4 0 0 0 1-.2l.7-.6.2-.9v-15.4h-.7a17 17 0 0 0-2.2.1c-.5 0-1 .6-1.7 1.6l-1.4 2.6h-1V114h18.9v5.5zm19.4 0h-1a12 12 0 0 0-1.4-2.6c-.6-1-1.2-1.5-1.7-1.6a17.6 17.6 0 0 0-2.2-.1h-.7v15.3c0 .3 0 .6.2.9l.7.6 1 .2 1.1.2v1h-10.9v-1l1.2-.1a4 4 0 0 0 1-.2l.7-.6.1-.9v-15.4h-.6a17 17 0 0 0-2.2.1c-.5 0-1.1.6-1.7 1.6-.7 1-1.1 1.8-1.4 2.6h-1V114H184v5.5zm12 14h-10.8v-1.1a485 485 0 0 0 2-.3c.4 0 .7-.3.8-.5l.2-.9v-13.8l-.2-.8-.7-.6-1-.3-1.1-.2v-1H196v1a63 63 0 0 0-2 .4c-.4 0-.7.3-.8.5a2 2 0 0 0-.2.9v13.8l.2.8c.2.3.4.5.7.6l1 .2 1.1.2v1zm20.2-14.7a5.4 5.4 0 0 1-2.6 4.8c-.8.5-1.7.9-2.8 1.1-1 .3-2.2.4-3.5.4h-1.6v5.5c0 .3 0 .6.2.8 0 .3.3.4.7.6l.9.2 1 .2v1H198v-1a93 93 0 0 0 2-.3c.4-.2.6-.3.7-.5l.2-1v-13.7c0-.3 0-.6-.2-.8 0-.2-.3-.4-.7-.6l-1-.3-1-.2v-1h10.8c2.5 0 4.4.4 5.7 1.2 1.2.8 1.8 2 1.8 3.6zm-5.3.7c0-1.4-.3-2.5-1-3.2-.5-.7-1.6-1-3-1h-1.2v8.5h.6c1.5 0 2.6-.4 3.4-1 .8-.8 1.2-1.8 1.2-3.3zm28 14h-10.6v-1.1l1.8-.3c.6-.1 1-.3 1-.5a1.6 1.6 0 0 0-.2-.6l-1.6-4h-6.8a41.3 41.3 0 0 0-1.3 4.2c0 .3.2.5.7.7.4.3 1.1.4 2.2.5v1h-8v-1c.3 0 .6 0 1-.2.4 0 .7-.1.9-.3l1-.8.6-1.1 3.2-7.8 3.5-8.5h2.8a1378.5 1378.5 0 0 1 7.3 17.6 3 3 0 0 0 1.6 1h1v1.2zm-10.2-8l-2.8-7-2.8 7h5.6zm28.9 1.7l-.4 6.3h-18v-1.1a23 23 0 0 0 2-.3c.4-.1.6-.3.7-.5l.2-1v-13.7l-.1-.8c-.1-.2-.4-.4-.8-.6l-1-.3-1-.2v-1H250v1a38 38 0 0 0-2.1.4c-.4 0-.6.3-.7.5a2 2 0 0 0-.2.9v12.8l.1 1.4c.1.4.3.6.5.8.2.2.6.3 1 .3a15.8 15.8 0 0 0 3.9 0c.7-.1 1.2-.3 1.5-.6a20.2 20.2 0 0 0 2.6-4.3h1zm18.6-11.2a8.9 8.9 0 0 1 4 7.8 8.7 8.7 0 0 1-3.6 7.3c-1 .8-2.3 1.4-3.7 1.8-1.4.4-2.9.6-4.4.6h-9.8v-1.1a15.8 15.8 0 0 0 2-.3c.3 0 .5-.3.6-.5.2-.2.2-.5.2-.9v-13.8c0-.3 0-.6-.2-.8 0-.3-.3-.5-.7-.6l-1-.4h-1v-1.1H269c1.1 0 2.3.1 3.6.4 1.2.3 2.5.8 3.6 1.6zm-2.8 14a8 8 0 0 0 1-2.7 17.7 17.7 0 0 0 0-7c-.4-1-.8-2-1.3-2.7a5.5 5.5 0 0 0-4.7-2.4 34 34 0 0 0-2 0V130l.1.8.5.7.8.5 1.2.1c1 0 1.9-.2 2.6-.6.8-.3 1.4-1 1.8-1.7zm19.6 3.5h-10.8v-1.1a485 485 0 0 0 2-.3c.4 0 .6-.3.8-.5l.1-.9v-13.8l-.1-.8-.7-.6-1-.3-1.1-.2v-1H293v1a63 63 0 0 0-2 .4c-.4 0-.7.3-.8.5a2 2 0 0 0-.2.9v13.8c0 .3 0 .6.2.8.1.3.4.5.7.6l1 .2 1 .2v1z"/><circle fill="#00F" cx="154.8" cy="71.2" r="32.8"/><path fill="#FFF" d="M182.7 54a33 33 0 0 0-7.6-8.6l-11.3 11.3V39.6a32.8 32.8 0 0 0-18 0v15.8l-10.5-10.6a33 33 0 0 0-7.7 8l9.4 9.4h-13.7a32.8 32.8 0 0 0 0 18h13.2l-9 9a33 33 0 0 0 7.8 8.3L145.8 87v15.7a32.8 32.8 0 0 0 18 0v-17L175.1 97a33 33 0 0 0 7.8-8.8l-8.1-8h11.6a32.8 32.8 0 0 0 0-18h-12l8.3-8.3z"/><path fill="red" d="M176.4 46.5L163.8 59v3h3.3l12.4-12.6-3-3zM181.6 90.2l-10-10H166l13 13c1-1 1.8-2 2.6-3zM130.8 93.5a33 33 0 0 0 2.8 2.7L145.8 84v-3.8h-1.6l-13.4 13.3zM129 51l11.2 11.2h5.6L131.6 48c-1 .9-1.8 1.9-2.6 3z"/><path fill="red" d="M160.3 38.8a33 33 0 0 0-11 0v26.9h-26.8a33 33 0 0 0 0 11h26.8v26.8a33 33 0 0 0 11 0V76.7h26.9a33 33 0 0 0 0-11h-26.9V38.8z"/><path fill="#FFF" d="M129 72.3l.1.2h.4v.3h-1.8v-.2a2.1 2.1 0 0 0 .4 0l.1-.1v-.2l.6-2.2a1 1 0 0 0 0-.1l-.1-.2h-.3v-.2h1.8l.8.1c.2.1.3.3.3.5s-.1.5-.3.6l-.7.4.2.4.3.6.2.2.1.2h.2v.2h-1.1a14.7 14.7 0 0 0-.7-1.5h-.2l-.2 1zm1.4-2c0-.2 0-.3-.2-.4a.7.7 0 0 0-.4-.1h-.2l-.3 1.3h.3c.2 0 .4 0 .6-.2l.2-.7zm2.7 2.5v-.2h.4l.1-.1a.5.5 0 0 0 0-.2l-.1-.6h-1.1a7 7 0 0 0-.4.7v.1h.4v.3H131v-.2h.4l.2-.2.1-.2a272.4 272.4 0 0 0 1.8-2.7h.4l.3 1.7a58.5 58.5 0 0 0 .5 1.4h.1v.2H133zm.3-1.3l-.2-1.2-.7 1.2h1zm3 1.3h-.5l-.4-.3c-.2-.1-.3-.3-.3-.4l-.1-.6a2 2 0 0 1 1.2-1.8c.2-.2.5-.2.8-.2a2.3 2.3 0 0 1 1 .2v-.1h.3l-.3 1.1h-.2c0-.3 0-.6-.2-.7a.7.7 0 0 0-.6-.3c-.2 0-.3 0-.5.2l-.4.4-.2.6v.7c0 .3 0 .5.2.7.1.2.3.2.5.2l.6-.1.6-.6.1.2-.2.3-.4.3-.4.2h-.5zm1.6 0v-.2a2.9 2.9 0 0 0 .3 0l.2-.1v-.2l.6-2.2a1.3 1.3 0 0 0 0-.1l-.1-.2h-.3v-.2h1.8v.1a2 2 0 0 0-.4.1h-.2v.2l-.5 2.3v.2h.4v.3H138zm6.3-3.2v.1h-.2l-.2.2-.2.2-.1.4-.5 2.3h-.4l-1.4-2.6-.4 1.6a3.3 3.3 0 0 0 0 .4v.2l.2.1h.2v.3h-1.4v-.2a12.5 12.5 0 0 0 .5-.1l.1-.2.2-.5.3-1.5a1.7 1.7 0 0 0 0-.1V70l-.2-.2h-.2v-.2h1.2l1.2 2.2.3-1.3a5 5 0 0 0 0-.4V70v-.1l-.2-.1h-.2v-.2h1.4zm1.2 3.2h-.6l-.4-.3-.3-.4-.1-.6a2.1 2.1 0 0 1 .6-1.4l.6-.5a2.2 2.2 0 0 1 1.8.1l.2-.1h.2l-.3 1.1h-.2c0-.3-.1-.6-.3-.7a.7.7 0 0 0-.5-.3c-.2 0-.4 0-.6.2l-.3.4-.3.6v.8l.1.7.5.2h.4l.2-.2.1-.6a1 1 0 0 0 0-.1v-.2h-.4v-.2h1.8v.2a1.3 1.3 0 0 0-.4 0l-.1.1v.1l-.2.4v.4l-.7.2a3 3 0 0 1-.8.1zm6.6-3.2l-.2.8h-.2l-.1-.4-.2-.2a3 3 0 0 0-.4 0h-.5l-.3 1.2h.5l.2-.1.2-.2.1-.2h.2l-.3 1.3h-.2v-.3-.1l-.2-.1H150l-.2 1v.2h.4v.3h-1.8v-.2a2.1 2.1 0 0 0 .4 0l.1-.1v-.2l.6-2.2a.8.8 0 0 0 0-.1v-.2h-.4v-.2h3zm3.3 1.2a2 2 0 0 1-.6 1.4 2 2 0 0 1-1.5.6c-.4 0-.8 0-1-.3-.3-.3-.4-.6-.4-1a2 2 0 0 1 .6-1.4 2 2 0 0 1 1.5-.6c.4 0 .7.1 1 .3.3.3.4.6.4 1zm-1.2 1.2l.3-.7v-.7l-.1-.7a.5.5 0 0 0-.5-.2c-.2 0-.3 0-.5.2-.1.1-.3.3-.3.5l-.3.6v.8l.1.6c.1.2.3.2.5.2s.3 0 .5-.2l.3-.4zm2.4.3l.1.2h.3v.3h-1.7v-.2a2.1 2.1 0 0 0 .3 0l.2-.1v-.2l.6-2.2a.8.8 0 0 0 0-.1l-.1-.2h-.3v-.2h1.8l.8.1c.2.1.3.3.3.5s-.1.5-.3.6l-.8.4.3.4.3.6.1.2.2.2H159v.2h-1.2a14.6 14.6 0 0 0-.8-1.5h-.1l-.3 1zm1.4-2c0-.2 0-.3-.2-.4l-.4-.1h-.2L157 71h.2c.3 0 .5 0 .6-.2.2-.2.3-.4.3-.7zm4.4-.7l.9.1.2.5v.3l-.3.2-.3.2-.4.1.3.1.3.2.2.2v.3c0 .3 0 .5-.3.7-.3.2-.7.3-1.3.3H160v-.2a2.1 2.1 0 0 0 .4 0l.1-.1v-.2l.6-2.2a.8.8 0 0 0 0-.1l-.1-.2h-.3v-.2h1.7zm0 2.1v-.4l-.6-.1h-.2l-.3 1.2.2.1h.2c.2 0 .4 0 .6-.2l.2-.6zm.3-1.5c0-.2 0-.3-.2-.3l-.4-.1h-.2l-.2 1.2h.1l.6-.2.3-.6zm2.1 2a.8.8 0 0 0 0 .2v.1h.4v.3h-1.8v-.2a2.1 2.1 0 0 0 .4 0l.1-.1.1-.2.5-2.2a.8.8 0 0 0 0-.1v-.2h-.4v-.2h1.8l.8.1c.2.1.3.3.3.5s0 .5-.3.6c-.1.2-.4.3-.7.4l.2.4.4.6v.2c.2 0 .2.1.3.2h.2v.2h-1.2a14.6 14.6 0 0 0-.7-1.5h-.2l-.2 1zm1.3-2l-.1-.3a.7.7 0 0 0-.5-.1h-.1L165 71h.2c.2 0 .4 0 .6-.2l.2-.7zm1 2.6v-.2a2.9 2.9 0 0 0 .3 0l.2-.1v-.2l.5-2.2a1.3 1.3 0 0 0 0-.1v-.2h-.4v-.2h1.8v.1a2 2 0 0 0-.4.1l-.2.2-.5 2.3.1.2h.3v.3H167zm5.7-3.2l-.3.9h-.1a2 2 0 0 0-.1-.4l-.1-.2-.2-.1a2.3 2.3 0 0 0-.3 0h-.1l-.6 2.4v.1c0 .1 0 0 0 0v.2h.4v.3h-1.8v-.2a7.7 7.7 0 0 0 .4 0l.1-.2v-.1l.7-2.5h-.1a2.8 2.8 0 0 0-.4 0h-.2a2.5 2.5 0 0 0-.5.7h-.1l.2-1h3zm1.1 3.2v-.2h.4l.1-.1V71.7h-1.2a7 7 0 0 0-.4.7l.1.1h.4v.3h-1.4v-.2h.4l.1-.2.2-.2a270.6 270.6 0 0 0 1.7-2.7h.5l.2 1.7.2 1v.2l.2.1H175.7v.3h-1.8zm.4-1.3l-.2-1.2-.7 1.2h.9zm1.3 1.3v-.2a3 3 0 0 0 .4 0v-.1l.2-.2.5-2.2a.8.8 0 0 0 0-.1l-.1-.2h-.3v-.2h1.8v.1a2 2 0 0 0-.4.1h-.2v.2l-.5 2.3v.2h.4v.3h-1.8zm6.4-3.2v.1h-.3l-.2.2-.2.2-.1.4-.5 2.3h-.4l-1.4-2.6-.3 1.6a2.5 2.5 0 0 0-.1.4v.2l.2.1h.2v.3h-1.4v-.2a12.5 12.5 0 0 0 .5-.1l.2-.2v-.5l.4-1.5a3 3 0 0 0 0-.1V70l-.2-.2h-.2v-.2h1.2l1.2 2.2.3-1.3a4.2 4.2 0 0 0 0-.4V70v-.1l-.2-.1h-.2v-.2h1.5z"/></svg>