<svg xmlns="http://www.w3.org/2000/svg" viewBox="0 0 1000.91 389.9"><g fill="#FFF"><path d="M145.04 271.78l2.75-2.75c11.83-11.83 25.4-26.93 40.7-45.29-10.4 7.96-24.28 17.44-41.62 28.46-35.09 22.44-60.49 33.66-76.19 33.66-8.98 0-16.73-3.26-23.26-9.79-6.53-6.53-9.79-14.28-9.79-23.26 0-24.89 16.62-52.94 49.88-84.15 25.5-23.87 55.28-44.27 89.35-61.2 34.07-16.93 62.52-25.4 85.37-25.4 17.75 0 26.62 7.04 26.62 21.11 0 16.32-10.82 32.74-32.44 49.27-16.94 12.85-30.29 19.28-40.09 19.28-6.53 0-9.79-3.87-9.79-11.63 0-8.57 6.12-18.77 18.36-30.6 6.73-6.53 15.09-13.11 25.09-19.74 9.99-6.63 16.42-9.95 19.28-9.95.81 0 1.53.61 2.14 1.84-.41.82-4.08 3.67-11.02 8.57-12.24 7.96-22.95 16.58-32.13 25.86-9.18 9.29-13.77 16.17-13.77 20.66 0 2.45 1.42 3.67 4.28 3.67 3.47 0 9.64-2.85 18.51-8.57 8.87-5.71 17.18-12.13 24.94-19.28 12.85-12.03 19.28-21.93 19.28-29.68 0-7.34-5.41-11.02-16.22-11.02-18.57 0-44.17 9.13-76.81 27.39-32.64 18.26-63.34 40.54-92.11 66.86-13.06 12.04-23.92 24.99-32.59 38.86-8.67 13.88-13 25.3-13 34.27 0 9.79 5.71 14.69 17.14 14.69 15.5 0 39.67-9.79 72.52-29.38 15.09-8.97 32.74-20.76 52.94-35.34 20.2-14.58 34.27-25.65 42.23-33.2 3.47-3.26 5.91-5.3 7.34-6.12.61-.41 1.32-.71 2.14-.92.2-.2.41-.31.61-.31 2.04 0 3.06 1.84 3.06 5.51 0 5.71-3.47 12.04-10.4 18.97-5.92 5.92-22.75 24.17-50.49 54.77l-23.87 26.32c2.65.61 3.98 2.35 3.98 5.2 0 1.84-.77 3.67-2.29 5.51s-3.01 2.65-4.44 2.45c-.82 0-1.28-.87-1.38-2.6-.1-1.73-.77-3.01-1.99-3.83-3.47 3.67-12.96 13.77-28.46 30.29-23.06 24.48-41.62 42.23-55.69 53.24-20 15.5-38.46 23.26-55.39 23.26-12.24 0-18.36-5.1-18.36-15.3 0-18.16 17.64-39.27 52.94-63.34 31.66-21.61 62.36-34.05 92.14-37.32zm-6.73 7.96c-3.67.61-5.92.92-6.73.92-29.38 4.9-59.98 20.7-91.8 47.43-22.24 18.77-33.35 33.45-33.35 44.06 0 6.12 3.87 9.18 11.63 9.18 7.96 0 17.34-3.78 28.15-11.32 13.46-9.39 44.16-39.47 92.1-90.27zM277.23 228.33l-2.14 2.14c-3.06 3.06-7.55 7.24-13.46 12.55-38.15 34.07-63.54 51.1-76.19 51.1h-.61c-.61.21-1.12.31-1.53.31-1.22 0-1.84-.61-1.84-1.84 0-1.84 1.02-2.96 3.06-3.37 6.33.41 17.9-5.61 34.73-18.05 16.83-12.44 33-26.72 48.5-42.84-.61-3.06-.92-5-.92-5.81 0-3.26 2.96-7.34 8.87-12.24 7.34-6.12 12.03-9.18 14.08-9.18 2.24 0 3.37 1.02 3.37 3.06 0 1.84-1.22 4.9-3.67 9.18.81-.2 1.63-.31 2.45-.31 3.87 0 7.29 1.43 10.25 4.28 2.95 2.86 4.44 6.12 4.44 9.79 0 6.53-9.69 20-29.07 40.39-10.2 10.81-15.3 17.24-15.3 19.28 0 2.04.92 3.06 2.75 3.06 1.42-.2 2.75-.31 3.98-.31h.92c.41-.2.71-.31.92-.31 1.42 0 2.14.82 2.14 2.45 0 1.43-1.02 2.35-3.06 2.75-.61.2-2.65.41-6.12.61-3.27 0-5.97-1.02-8.11-3.06-2.14-2.04-3.21-4.48-3.21-7.34 0-11.63 11.83-28.25 35.5-49.88 5.1-4.69 7.65-7.54 7.65-8.57 0-1.63-1.02-2.45-3.06-2.45-2.06.02-7.16 1.55-15.32 4.61z"/><path d="M410.95 224.35l1.53-1.22c3.67-2.85 5.91-4.28 6.73-4.28 3.26 0 4.9 1.43 4.9 4.28 0 2.45-3.88 8.47-11.63 18.05-2.65 3.06-7.45 8.77-14.38 17.14-.41.41-4.69 5.71-12.85 15.91-4.7 5.92-7.04 9.9-7.04 11.93 0 2.25 2.24 3.37 6.73 3.37 2.04 0 3.06.82 3.06 2.45 0 2.04-3.37 3.06-10.1 3.06s-10.1-3.06-10.1-9.18c0-4.28 2.75-10.91 8.26-19.89l-16.83 14.08c-10 7.96-17.85 11.93-23.56 11.93-8.57 0-12.85-4.38-12.85-13.16 0-4.69 1.22-9.89 3.67-15.61-2.25 1.63-6.43 4.8-12.55 9.49-15.3 12.04-28.76 19.18-40.39 21.42l-1.53.31h-.61c-1.22 0-1.84-.61-1.84-1.84 0-2.04 1.02-3.16 3.06-3.37 12.04-1.22 37.53-18.46 76.5-51.71 8.16-6.93 16.98-12.75 26.47-17.44 9.49-4.69 17.18-7.04 23.1-7.04 7.35 0 11.43 3.78 12.25 11.32zm-10.4-5.2c-4.7 0-13.77 6.12-27.23 18.36-24.48 22.03-36.72 36.41-36.72 43.15 0 2.65 1.22 3.98 3.67 3.98 5.1 0 17.34-8.67 36.72-26.01 18.56-16.52 27.85-28.05 27.85-34.58-.01-3.26-1.44-4.9-4.29-4.9z"/><path d="M551.1 294.73h-.61c-1.22.2-2.86.31-4.9.31-7.75 0-11.63-3.57-11.63-10.71 0-9.79 11.73-26.93 35.19-51.41 5.1-5.3 7.65-9.18 7.65-11.63 0-1.22-.82-1.84-2.45-1.84-4.49 0-12.85 5.31-25.09 15.91-24.07 21.22-41.72 38.97-52.94 53.24-3.06 4.08-5.92 6.12-8.57 6.12-3.88 0-5.81-1.73-5.81-5.2 0-2.45 1.48-5.66 4.44-9.64 2.96-3.98 10.81-13.05 23.56-27.23 12.75-14.18 19.13-23.3 19.13-27.39 0-1.84-1.02-2.75-3.06-2.75-3.47 0-10.81 4.7-22.03 14.08-20.4 17.34-36.01 33.05-46.82 47.12-4.9 6.53-9.29 9.79-13.16 9.79-3.47 0-5.2-1.53-5.2-4.59 0-3.26 3.26-8.77 9.79-16.52 14.08-16.72 25.8-31.62 35.19-44.68-32.03 26.93-53.86 44.48-65.48 52.63-13.05 9.18-23.26 13.77-30.6 13.77h-.61c-.61.21-1.12.31-1.53.31-1.22 0-1.84-.61-1.84-1.84 0-1.84 1.02-2.96 3.06-3.37 9.39-1.63 21.73-8.26 37.03-19.89 30.19-23.26 50.08-39.98 59.67-50.18 5.3-5.71 9.49-8.57 12.55-8.57 5.51 0 8.26 1.84 8.26 5.51s-5.61 13.16-16.83 28.46c22.23-19.99 37.23-29.99 44.98-29.99 3.06 0 5.66.92 7.8 2.75 2.14 1.84 3.21 3.98 3.21 6.43 0 4.08-2.65 10-7.96 17.75 19.99-19.99 35.9-29.99 47.74-29.99 6.53 0 9.79 2.75 9.79 8.26 0 3.88-1.58 8.11-4.74 12.7s-9.84 12.29-20.04 23.1c-11.22 12.04-18.05 19.58-20.5 22.64-2.45 3.06-3.67 5.71-3.67 7.96 0 2.45 1.63 3.67 4.9 3.67h1.53c.41-.2.92-.31 1.53-.31 1.42 0 2.14.82 2.14 2.45-.01 1.65-1.04 2.57-3.07 2.77z"/><path d="M638.61 294.73h-.92c-6.12.61-10.61.92-13.46.92-13.26 0-19.89-5.71-19.89-17.14 0-2.24.41-5 1.22-8.26-7.14 1.84-15.5 5.71-25.09 11.63-11.83 7.14-21.31 11.22-28.46 12.24h-.61c-.61.21-1.12.31-1.53.31-1.22 0-1.84-.61-1.84-1.84 0-1.84 1.02-2.96 3.06-3.37 7.75-1.42 17.24-5.51 28.46-12.24 9.79-5.91 19.07-9.89 27.85-11.93 5.71-13.05 15.09-24.58 28.15-34.58 17.14-13.26 30.29-19.89 39.47-19.89 7.75 0 11.63 3.37 11.63 10.1 0 10.61-12.24 22.34-36.72 35.19-10.2 5.31-19.08 9.29-26.62 11.93-1.22 3.67-1.84 6.94-1.84 9.79 0 8.16 5.71 12.14 17.14 11.93 2.45 0 3.67.82 3.67 2.45 0 1.44-1.22 2.36-3.67 2.76zm-13.16-33.05c12.44-6.12 23.71-13.46 33.81-22.03 10.1-8.57 15.15-15.19 15.15-19.89 0-2.45-1.12-3.67-3.37-3.67-5.51 0-13.52 5.25-24.02 15.76s-17.69 20.45-21.57 29.83z"/><path d="M734.39 228.33l-2.14 2.14c-3.06 3.06-7.55 7.24-13.46 12.55-38.15 34.07-63.54 51.1-76.19 51.1h-.61c-.61.21-1.12.31-1.53.31-1.22 0-1.84-.61-1.84-1.84 0-1.84 1.02-2.96 3.06-3.37 6.33.41 17.9-5.61 34.73-18.05 16.83-12.44 33-26.72 48.5-42.84-.61-3.06-.92-5-.92-5.81 0-3.26 2.95-7.34 8.87-12.24 7.34-6.12 12.03-9.18 14.08-9.18 2.24 0 3.37 1.02 3.37 3.06 0 1.84-1.22 4.9-3.67 9.18.81-.2 1.63-.31 2.45-.31 3.87 0 7.29 1.43 10.25 4.28 2.96 2.86 4.44 6.12 4.44 9.79 0 6.53-9.69 20-29.07 40.39-10.2 10.81-15.3 17.24-15.3 19.28 0 2.04.92 3.06 2.75 3.06 1.42-.2 2.75-.31 3.98-.31h.92c.41-.2.71-.31.92-.31 1.42 0 2.14.82 2.14 2.45 0 1.43-1.02 2.35-3.06 2.75-.61.2-2.65.41-6.12.61-3.27 0-5.97-1.02-8.11-3.06-2.14-2.04-3.21-4.48-3.21-7.34 0-11.63 11.83-28.25 35.5-49.88 5.1-4.69 7.65-7.54 7.65-8.57 0-1.63-1.02-2.45-3.06-2.45-2.06.02-7.17 1.55-15.32 4.61z"/><path d="M822.51 289.53c1.22 0 1.84.82 1.84 2.45 0 1.02-.56 1.79-1.68 2.29-1.12.51-4.03.77-8.72.77-15.51 0-23.26-7.14-23.26-21.42 0-6.32 2.04-13.26 6.12-20.81-23.05 17.95-37.79 28.92-44.22 32.9-6.43 3.98-13.72 6.78-21.88 8.42h-.92c-.41.21-.81.31-1.22.31-1.22 0-1.84-.61-1.84-1.84 0-2.04 1.02-3.16 3.06-3.37 6.73-1.02 14.89-4.59 24.48-10.71 9.59-6.12 24.89-17.95 45.9-35.5 14.89-12.24 25.19-20.3 30.91-24.17 11.63-7.75 21.93-11.63 30.91-11.63 6.32 0 9.49 2.55 9.49 7.65 2.45 0 3.67.92 3.67 2.75 0 1.63-1.33 2.55-3.98 2.75-2.45 7.96-5.61 14.38-9.49 19.28-7.75 9.59-14.69 14.38-20.81 14.38-3.47 0-5.2-1.63-5.2-4.9 0-4.08 3.37-9.69 10.1-16.83 6.73-7.14 13.46-12.03 20.2-14.69l.31-1.84c0-1.42-.72-2.14-2.14-2.14-6.12 0-19.48 10.61-40.09 31.82-14.28 14.69-21.42 25.5-21.42 32.44 0 7.76 5.81 11.63 17.44 11.63h2.44zm40.7-65.48c-3.88 2.04-8.31 5.61-13.31 10.71-5 5.1-7.5 8.67-7.5 10.71 0 .82.41 1.22 1.22 1.22 2.24 0 5.56-2.55 9.95-7.65 4.38-5.1 7.6-10.1 9.64-14.99z"/><path d="M947.97 289.53c1.42 0 2.14.82 2.14 2.45 0 1.43-.56 2.29-1.68 2.6-1.12.31-5.05.56-11.78.76-.41 0-1.33.1-2.75.31-2.04 2.24-8.06 9.69-18.05 22.34-37.54 47.94-63.14 71.91-76.81 71.91-5.1 0-7.65-3.37-7.65-10.1 0-16.94 12.04-36.11 36.11-57.53 17.54-15.71 35.5-25.7 53.86-29.99 1.22-1.42 11.52-14.69 30.91-39.78-1.84 1.63-6.94 6.02-15.3 13.16-20.2 17.95-33.46 26.93-39.78 26.93-6.33 0-9.49-4.49-9.49-13.46 0-5.92 1.84-12.09 5.51-18.51 3.67-6.43 11.52-16.88 23.56-31.36-27.54 23.87-47.94 40.5-61.2 49.88-14.08 10-24.68 14.99-31.82 14.99h-.61c-.61.21-1.12.31-1.53.31-1.22 0-1.84-.71-1.84-2.14 0-2.04 1.02-3.06 3.06-3.06 7.55-.81 18.41-6.27 32.59-16.37 14.18-10.1 36.36-28.51 66.55-55.23 6.93-6.12 11.02-9.18 12.24-9.18 2.45 0 4.9.97 7.34 2.91 2.45 1.94 3.67 3.83 3.67 5.66 0 1.02-.92 2.45-2.75 4.28-10.61 10.2-20.71 21.88-30.29 35.04-9.59 13.16-14.38 21.78-14.38 25.86 0 1.84 1.02 2.75 3.06 2.75 3.67 0 13.26-6.63 28.76-19.89 20.81-17.95 38.56-35.29 53.24-52.02 5.1-5.91 8.16-8.87 9.18-8.87 1.63 0 3.52.82 5.66 2.45 2.14 1.64 3.21 3.17 3.21 4.59 0 .82-.92 2.25-2.75 4.28-25.91 29.99-45.7 54.77-59.36 74.36h2.75l4.28-.31h2.14zm-32.13 9.18l-1.53.31c-.21.41-1.12.71-2.75.92-16.52 5.51-33.05 16.78-49.57 33.81-16.52 17.03-24.79 31.26-24.79 42.69 0 3.47 1.22 5.2 3.67 5.2 5.1 0 14.89-8.16 29.38-24.48 10.2-11.63 22.13-26.62 35.8-44.98 2.45-3.06 5.71-7.55 9.79-13.47z"/></g><g fill="#818285"><path d="M275.58 360.96v-35.08h11.36c4.31 0 7.11.18 8.42.53 2.01.53 3.69 1.67 5.05 3.43 1.36 1.76 2.03 4.04 2.03 6.83 0 2.15-.39 3.96-1.17 5.43-.78 1.47-1.77 2.62-2.98 3.46-1.2.84-2.43 1.39-3.67 1.66-1.69.33-4.14.5-7.35.5h-4.62v13.23h-7.07zm7.09-29.14v9.95h3.88c2.79 0 4.66-.18 5.6-.55.94-.37 1.68-.94 2.21-1.72s.8-1.69.8-2.73c0-1.28-.38-2.33-1.12-3.16-.75-.83-1.7-1.35-2.85-1.55-.85-.16-2.54-.24-5.1-.24h-3.42zM330.24 360.96v-35.08h14.91c3.75 0 6.47.32 8.17.95 1.7.63 3.06 1.75 4.08 3.36 1.02 1.61 1.53 3.45 1.53 5.53 0 2.63-.77 4.81-2.32 6.52-1.55 1.71-3.86 2.79-6.94 3.24 1.53.89 2.8 1.88 3.79 2.94 1 1.07 2.34 2.97 4.03 5.69l4.28 6.84h-8.47l-5.12-7.63c-1.82-2.73-3.06-4.45-3.73-5.16s-1.38-1.2-2.13-1.46-1.94-.39-3.56-.39h-1.44v14.64h-7.08zm7.08-20.24h5.24c3.4 0 5.52-.14 6.36-.43.85-.29 1.51-.78 1.99-1.48s.72-1.58.72-2.63c0-1.18-.31-2.13-.95-2.86-.63-.73-1.52-1.18-2.67-1.38-.57-.08-2.3-.12-5.17-.12h-5.53v8.9zM386.12 343.64c0-3.57.53-6.57 1.6-9 .8-1.79 1.89-3.39 3.27-4.81 1.38-1.42 2.89-2.47 4.53-3.16 2.19-.93 4.71-1.39 7.56-1.39 5.17 0 9.3 1.6 12.41 4.81 3.1 3.21 4.65 7.66 4.65 13.37 0 5.66-1.54 10.09-4.62 13.29-3.08 3.2-7.19 4.8-12.35 4.8-5.22 0-9.36-1.59-12.44-4.77-3.07-3.18-4.61-7.56-4.61-13.14zm7.3-.24c0 3.97.92 6.98 2.75 9.03 1.83 2.05 4.16 3.07 6.99 3.07s5.14-1.02 6.95-3.05c1.81-2.03 2.72-5.08 2.72-9.15 0-4.02-.88-7.02-2.64-9-1.76-1.98-4.1-2.97-7.02-2.97s-5.27 1-7.06 3c-1.8 2.01-2.69 5.03-2.69 9.07zM460.28 325.88h7.06v22.2c0 2.9-.26 5.14-.77 6.7-.69 2.04-1.93 3.68-3.73 4.92-1.8 1.24-4.18 1.85-7.13 1.85-3.46 0-6.13-.97-7.99-2.91-1.87-1.94-2.81-4.78-2.82-8.53l6.68-.77c.08 2.01.37 3.43.89 4.26.77 1.26 1.93 1.89 3.49 1.89 1.58 0 2.7-.45 3.35-1.35.65-.9.98-2.77.98-5.61v-22.65zM496.83 360.96v-35.08h26.01v5.93h-18.93v7.78h17.61v5.91h-17.61v9.55h19.6v5.91h-26.68zM573.9 348.06l6.87 2.18c-1.05 3.83-2.8 6.67-5.25 8.53-2.45 1.86-5.55 2.79-9.32 2.79-4.66 0-8.49-1.59-11.48-4.77-3-3.18-4.5-7.53-4.5-13.05 0-5.84 1.51-10.37 4.52-13.6 3.02-3.23 6.98-4.85 11.89-4.85 4.29 0 7.78 1.27 10.46 3.8 1.59 1.5 2.79 3.65 3.59 6.46l-7.01 1.67c-.41-1.82-1.28-3.25-2.6-4.31s-2.92-1.58-4.8-1.58c-2.6 0-4.71.93-6.33 2.8-1.62 1.87-2.43 4.89-2.43 9.07 0 4.43.8 7.59 2.39 9.47 1.6 1.88 3.67 2.82 6.22 2.82 1.88 0 3.5-.6 4.86-1.79 1.36-1.19 2.33-3.07 2.92-5.64zM616.69 360.96v-29.14h-10.41v-5.93h27.87v5.93h-10.38v29.14h-7.08zM658.89 349.55l6.89-.67c.42 2.31 1.26 4.01 2.52 5.1 1.27 1.08 2.98 1.63 5.13 1.63 2.28 0 4-.48 5.16-1.45 1.16-.96 1.73-2.09 1.73-3.39 0-.83-.24-1.54-.73-2.12-.49-.58-1.34-1.09-2.55-1.52-.83-.29-2.72-.8-5.67-1.53-3.8-.94-6.46-2.1-7.99-3.47-2.15-1.93-3.23-4.28-3.23-7.06 0-1.79.51-3.46 1.52-5.01 1.01-1.55 2.47-2.74 4.38-3.55 1.91-.81 4.21-1.22 6.9-1.22 4.4 0 7.72.97 9.94 2.9 2.22 1.93 3.39 4.51 3.5 7.73l-7.08.31c-.3-1.8-.95-3.1-1.95-3.89s-2.49-1.18-4.49-1.18c-2.06 0-3.67.42-4.83 1.27-.75.54-1.12 1.27-1.12 2.18 0 .83.35 1.54 1.05 2.13.89.75 3.06 1.53 6.51 2.34 3.45.81 5.99 1.66 7.64 2.52 1.65.87 2.94 2.06 3.88 3.57.93 1.51 1.4 3.37 1.4 5.59 0 2.01-.56 3.89-1.67 5.65-1.12 1.75-2.7 3.06-4.74 3.91-2.04.85-4.59 1.28-7.63 1.28-4.43 0-7.84-1.02-10.22-3.07s-3.79-5.06-4.25-8.98z"/></g><path fill="#FFF" d="M307.14 186.33c11.5-8.08 40.93-33.98 73.75-54.58 30.75-19.3 40.75-20.75 61.58-34.08 27.95-17.89 128.67-83.75 131.92-87.5C580.23 3.43 582.89 0 589.14 0c7.25 0 20.02 8.32 26.5 11.5 5.12 2.51 16.51 7.21 26.25 12.5 16.44 8.93 24.06 14.04 31.92 19 7.99 5.04 20.17 8.68 32.83 16.5 15.99 9.86 32.36 23.19 50.5 34.75 16.23 10.35 40.86 23.02 59.5 32.83 17.08 9 30.75 14.67 30.75 17.33 0 2.48 0 3.68-2.25 3.58-40.75-1.75-322.33-30.33-426 9.67-.88.34-4 1.14-4.69-2.85-.38-2.19 2.02-3.22 2.69-3.48 109-42.67 299-33 309-34.33.8-.11 4-1 4.25-5.63.12-2.21-34.1-22.16-69-43.13-12.72-7.64-25.27-14.7-36.5-21.25-13.99-8.16-25.77-15-31.5-15-9.34 0-13.16 3.36-32.75 14.5-32.97 18.74-105.81 58.11-143.67 80.5-25.7 15.2-52.37 28.25-71.5 39.33-18.57 10.78-27.65 14.12-38.33 20.01z"/><path fill="#818285" d="M446.81 132.67c12.78-10.89 54.21-29.43 90.67-44.67 9.78-4.09 17.29-4.71 26.67-8.17 10.17-3.75 19.14-7.96 27.67-10.83 16.82-5.67 29.78-8.6 33.33-9l25.33 15.5c-7.89.75-21.62 4.11-37.83 7.83-20.56 4.72-45.32 10.48-69.5 17.5-19.95 5.79-38.28 12.56-54.67 17.67-5.9 1.84-11.22 2.73-16.17 4.33-13.11 4.27-22.52 8.45-25.5 9.84zM706.81 46.67c6.67 1.67 21.33 13 25.33 17.67 18.35-2.03 57.31-4.42 94.67-2.8 36.43 1.58 71.26 7.14 88.9 9.1 20.95 2.33 39.35 5.45 52.77 10.03-8.41-4.91-22.01-8.69-38.17-14.39-28.16-9.94-68.88-18.11-106.5-22.1-30.57-3.24-59.33-1.5-80 .82-17.29 1.94-32.09-.25-37 1.67zM247.48 346.67v-5.34L155.81 344zM813.48 344l-91.67 2.67v-5.34z"/></svg>