<?xml version="1.0" encoding="utf-8"?>
<!-- Generator: Adobe Illustrator 22.0.1, SVG Export Plug-In . SVG Version: 6.00 Build 0)  -->
<svg version="1.1" id="Layer_1" xmlns="http://www.w3.org/2000/svg" xmlns:xlink="http://www.w3.org/1999/xlink" x="0px" y="0px"
	 viewBox="0 0 399.63 136.94" enable-background="new 0 0 399.63 136.94" xml:space="preserve">
<path fill="#F7931E" d="M321.25,94.42h6c0.55,0,1,0.45,1,1v4.92c0,0.55-0.45,1-1,1h-6c-0.55,0-1-0.45-1-1v-4.92
	C320.25,94.86,320.7,94.42,321.25,94.42z M320.25,86.5v4.92c0,0.55,0.45,1,1,1h6c0.55,0,1-0.45,1-1V86.5c0-0.55-0.45-1-1-1h-6
	C320.7,85.5,320.25,85.95,320.25,86.5z M309.71,86.5v4.92c0,0.55,0.45,1,1,1h6c0.55,0,1-0.45,1-1V86.5c0-0.55-0.45-1-1-1h-6
	C310.16,85.5,309.71,85.95,309.71,86.5z M309.71,77.58v4.92c0,0.55,0.45,1,1,1h6c0.55,0,1-0.45,1-1v-4.92c0-0.55-0.45-1-1-1h-6
	C310.16,76.58,309.71,77.03,309.71,77.58z M309.71,95.42v4.92c0,0.55,0.45,1,1,1h6c0.55,0,1-0.45,1-1v-4.92c0-0.55-0.45-1-1-1h-6
	C310.16,94.42,309.71,94.86,309.71,95.42z M299.5,95.42v4.92c0,0.55,0.45,1,1,1h6c0.55,0,1-0.45,1-1v-4.92c0-0.55-0.45-1-1-1h-6
	C299.95,94.42,299.5,94.86,299.5,95.42z M299.5,86.5v4.92c0,0.55,0.45,1,1,1h6c0.55,0,1-0.45,1-1V86.5c0-0.55-0.45-1-1-1h-6
	C299.95,85.5,299.5,85.95,299.5,86.5z M289.5,86.5v4.92c0,0.55,0.45,1,1,1h6c0.55,0,1-0.45,1-1V86.5c0-0.55-0.45-1-1-1h-6
	C289.95,85.5,289.5,85.95,289.5,86.5z M289.5,95.42v4.92c0,0.55,0.45,1,1,1h6c0.55,0,1-0.45,1-1v-4.92c0-0.55-0.45-1-1-1h-6
	C289.95,94.42,289.5,94.86,289.5,95.42z M279.42,95.42v4.92c0,0.55,0.45,1,1,1h6c0.55,0,1-0.45,1-1v-4.92c0-0.55-0.45-1-1-1h-6
	C279.86,94.42,279.42,94.86,279.42,95.42z M279.42,86.5v4.92c0,0.55,0.45,1,1,1h6c0.55,0,1-0.45,1-1V86.5c0-0.55-0.45-1-1-1h-6
	C279.86,85.5,279.42,85.95,279.42,86.5z M268.71,86.5v4.92c0,0.55,0.45,1,1,1h6c0.55,0,1-0.45,1-1V86.5c0-0.55-0.45-1-1-1h-6
	C269.16,85.5,268.71,85.95,268.71,86.5z M268.71,95.42v4.92c0,0.55,0.45,1,1,1h6c0.55,0,1-0.45,1-1v-4.92c0-0.55-0.45-1-1-1h-6
	C269.16,94.42,268.71,94.86,268.71,95.42z M258.46,86.5v4.92c0,0.55,0.45,1,1,1h6c0.55,0,1-0.45,1-1V86.5c0-0.55-0.45-1-1-1h-6
	C258.91,85.5,258.46,85.95,258.46,86.5z M248.5,86.5v4.92c0,0.55,0.45,1,1,1h6c0.55,0,1-0.45,1-1V86.5c0-0.55-0.45-1-1-1h-6
	C248.95,85.5,248.5,85.95,248.5,86.5z M268.71,77.58v4.92c0,0.55,0.45,1,1,1h6c0.55,0,1-0.45,1-1v-4.92c0-0.55-0.45-1-1-1h-6
	C269.16,76.58,268.71,77.03,268.71,77.58z M330.5,86.5v4.92c0,0.55,0.45,1,1,1h6c0.55,0,1-0.45,1-1V86.5c0-0.55-0.45-1-1-1h-6
	C330.95,85.5,330.5,85.95,330.5,86.5z M330.5,95.42v4.92c0,0.55,0.45,1,1,1h6c0.55,0,1-0.45,1-1v-4.92c0-0.55-0.45-1-1-1h-6
	C330.95,94.42,330.5,94.86,330.5,95.42z M330.5,104.02v4.92c0,0.55,0.45,1,1,1h6c0.55,0,1-0.45,1-1v-4.92c0-0.55-0.45-1-1-1h-6
	C330.95,103.02,330.5,103.47,330.5,104.02z M330.5,77.58v4.92c0,0.55,0.45,1,1,1h6c0.55,0,1-0.45,1-1v-4.92c0-0.55-0.45-1-1-1h-6
	C330.95,76.58,330.5,77.03,330.5,77.58z M340.5,77.58v4.92c0,0.55,0.45,1,1,1h6c0.55,0,1-0.45,1-1v-4.92c0-0.55-0.45-1-1-1h-6
	C340.95,76.58,340.5,77.03,340.5,77.58z M340.5,86.58v4.92c0,0.55,0.45,1,1,1h6c0.55,0,1-0.45,1-1v-4.92c0-0.55-0.45-1-1-1h-6
	C340.95,85.58,340.5,86.03,340.5,86.58z M340.5,95.42v4.92c0,0.55,0.45,1,1,1h6c0.55,0,1-0.45,1-1v-4.92c0-0.55-0.45-1-1-1h-6
	C340.95,94.42,340.5,94.86,340.5,95.42z M340.5,104.02v4.92c0,0.55,0.45,1,1,1h6c0.55,0,1-0.45,1-1v-4.92c0-0.55-0.45-1-1-1h-6
	C340.95,103.02,340.5,103.47,340.5,104.02z M350.42,104.02v4.92c0,0.55,0.45,1,1,1h6c0.55,0,1-0.45,1-1v-4.92c0-0.55-0.45-1-1-1h-6
	C350.86,103.02,350.42,103.47,350.42,104.02z M350.42,95.42v4.92c0,0.55,0.45,1,1,1h6c0.55,0,1-0.45,1-1v-4.92c0-0.55-0.45-1-1-1h-6
	C350.86,94.42,350.42,94.86,350.42,95.42z M350.42,86.5v4.92c0,0.55,0.45,1,1,1h6c0.55,0,1-0.45,1-1V86.5c0-0.55-0.45-1-1-1h-6
	C350.86,85.5,350.42,85.95,350.42,86.5z M360.58,77.58v4.92c0,0.55,0.45,1,1,1h6c0.55,0,1-0.45,1-1v-4.92c0-0.55-0.45-1-1-1h-6
	C361.03,76.58,360.58,77.03,360.58,77.58z M360.58,86.5v4.92c0,0.55,0.45,1,1,1h6c0.55,0,1-0.45,1-1V86.5c0-0.55-0.45-1-1-1h-6
	C361.03,85.5,360.58,85.95,360.58,86.5z M360.58,95.42v4.92c0,0.55,0.45,1,1,1h6c0.55,0,1-0.45,1-1v-4.92c0-0.55-0.45-1-1-1h-6
	C361.03,94.42,360.58,94.86,360.58,95.42z M360.58,104.02v4.92c0,0.55,0.45,1,1,1h6c0.55,0,1-0.45,1-1v-4.92c0-0.55-0.45-1-1-1h-6
	C361.03,103.02,360.58,103.47,360.58,104.02z M370.88,95.42v4.92c0,0.55,0.45,1,1,1h6c0.55,0,1-0.45,1-1v-4.92c0-0.55-0.45-1-1-1h-6
	C371.32,94.42,370.88,94.86,370.88,95.42z M370.88,86.58v4.92c0,0.55,0.45,1,1,1h6c0.55,0,1-0.45,1-1v-4.92c0-0.55-0.45-1-1-1h-6
	C371.32,85.58,370.88,86.03,370.88,86.58z M370.88,104.02v4.92c0,0.55,0.45,1,1,1h6c0.55,0,1-0.45,1-1v-4.92c0-0.55-0.45-1-1-1h-6
	C371.32,103.02,370.88,103.47,370.88,104.02z M381.5,104.02v4.92c0,0.55,0.45,1,1,1h6c0.55,0,1-0.45,1-1v-4.92c0-0.55-0.45-1-1-1h-6
	C381.95,103.02,381.5,103.47,381.5,104.02z M381.5,95.42v4.92c0,0.55,0.45,1,1,1h6c0.55,0,1-0.45,1-1v-4.92c0-0.55-0.45-1-1-1h-6
	C381.95,94.42,381.5,94.86,381.5,95.42z M381.5,86.5v4.92c0,0.55,0.45,1,1,1h6c0.55,0,1-0.45,1-1V86.5c0-0.55-0.45-1-1-1h-6
	C381.95,85.5,381.5,85.95,381.5,86.5z M391.63,95.42v4.92c0,0.55,0.45,1,1,1h6c0.55,0,1-0.45,1-1v-4.92c0-0.55-0.45-1-1-1h-6
	C392.07,94.42,391.63,94.86,391.63,95.42z M391.63,104.02v4.92c0,0.55,0.45,1,1,1h6c0.55,0,1-0.45,1-1v-4.92c0-0.55-0.45-1-1-1h-6
	C392.07,103.02,391.63,103.47,391.63,104.02z M391.63,113.08V118c0,0.55,0.45,1,1,1h6c0.55,0,1-0.45,1-1v-4.92c0-0.55-0.45-1-1-1h-6
	C392.07,112.08,391.63,112.53,391.63,113.08z M381.44,113.08V118c0,0.55,0.45,1,1,1h6c0.55,0,1-0.45,1-1v-4.92c0-0.55-0.45-1-1-1h-6
	C381.89,112.08,381.44,112.53,381.44,113.08z M370.88,113.08V118c0,0.55,0.45,1,1,1h6c0.55,0,1-0.45,1-1v-4.92c0-0.55-0.45-1-1-1h-6
	C371.32,112.08,370.88,112.53,370.88,113.08z M370.88,121.96v4.92c0,0.55,0.45,1,1,1h6c0.55,0,1-0.45,1-1v-4.92c0-0.55-0.45-1-1-1
	h-6C371.32,120.96,370.88,121.41,370.88,121.96z M381.5,121.96v4.92c0,0.55,0.45,1,1,1h6c0.55,0,1-0.45,1-1v-4.92c0-0.55-0.45-1-1-1
	h-6C381.95,120.96,381.5,121.41,381.5,121.96z M360.58,113.08V118c0,0.55,0.45,1,1,1h6c0.55,0,1-0.45,1-1v-4.92c0-0.55-0.45-1-1-1
	h-6C361.03,112.08,360.58,112.53,360.58,113.08z M360.58,121.96v4.92c0,0.55,0.45,1,1,1h6c0.55,0,1-0.45,1-1v-4.92
	c0-0.55-0.45-1-1-1h-6C361.03,120.96,360.58,121.41,360.58,121.96z M360.58,131.02v4.92c0,0.55,0.45,1,1,1h6c0.55,0,1-0.45,1-1
	v-4.92c0-0.55-0.45-1-1-1h-6C361.03,130.02,360.58,130.47,360.58,131.02z M350.42,131.02v4.92c0,0.55,0.45,1,1,1h6
	c0.55,0,1-0.45,1-1v-4.92c0-0.55-0.45-1-1-1h-6C350.86,130.02,350.42,130.47,350.42,131.02z M279.42,77.58v4.92c0,0.55,0.45,1,1,1h6
	c0.55,0,1-0.45,1-1v-4.92c0-0.55-0.45-1-1-1h-6C279.86,76.58,279.42,77.03,279.42,77.58z M299.5,77.58v4.92c0,0.55,0.45,1,1,1h6
	c0.55,0,1-0.45,1-1v-4.92c0-0.55-0.45-1-1-1h-6C299.95,76.58,299.5,77.03,299.5,77.58z"/>
<path fill="#F7931E" d="M0,13.7C0,4.36,4.98,0,15.42,0c10.44,0,15.42,4.48,15.42,13.7v8.22h-9.47v-8.84c0-5.23-1.61-7.22-5.94-7.22
	c-4.34,0-5.94,1.87-5.94,7.22v58.67c0,5.23,1.93,7.22,6.91,7.22c1.77,0,2.89-0.37,4.98-1.37V48.58h-5.78v-5.86h15.26v38.99
	c-5.94,2.37-9.96,3.11-15.1,3.11C5.3,84.83,0,80.47,0,71.75V13.7z M44.83,0.87h13.85c10.82,0,13.99,2.74,13.99,11.96v19.18
	c0,3.86-1.3,5.61-6.06,7.6c5.05,1.87,6.64,4.24,6.64,9.72v34.63h-8.51V48.08c0-3.49-1.44-4.86-5.05-4.86h-6.35v40.73h-8.51V0.87z
	 M59.26,37.37c3.61,0,4.9-1.37,4.9-4.98V11.71c0-3.74-1.3-4.98-4.9-4.98h-5.91v30.64H59.26z M96.91,0.87h13.52l13.85,83.09h-9.56
	l-3.79-22.92H97.24L94.1,83.96h-8.9L96.91,0.87z M109.93,55.19l-6.27-44.6l-5.28,44.6H109.93z M126.5,0.87h8.93l8.62,72.87
	l9.08-72.87h8.62l-11.7,83.09h-12.62L126.5,0.87z M171.5,0.87h23.81v5.86h-14.92v30.89h14.01v5.86h-14.01v34.63h15.82v5.86H171.5
	V0.87z M206.43,0.87h8.95v77.23h14.56v5.86h-23.5V0.87z M237.76,0.87h14.17c11.07,0,14.32,2.74,14.32,11.96v19.18
	c0,3.86-1.33,5.61-6.2,7.6c5.17,1.87,6.79,4.24,6.79,9.72v34.63h-8.71V48.08c0-3.49-1.48-4.86-5.17-4.86h-6.49v40.73h-8.71V0.87z
	 M252.52,37.37c3.69,0,5.02-1.37,5.02-4.98V11.71c0-3.74-1.33-4.98-5.02-4.98h-6.05v30.64H252.52z M281.12,13.56
	c0-9.12,4.87-13.56,14.61-13.56c10.05,0,14.76,4.44,14.76,13.56V70.4c0,9.12-4.72,13.56-14.76,13.56c-9.74,0-14.61-4.44-14.61-13.56
	V13.56z M295.74,78.17c4.26,0,5.78-1.85,5.78-7.15V12.95c0-5.18-1.52-7.15-5.63-7.15c-4.26,0-5.78,1.97-5.78,7.15v58.07
	C290.1,76.19,291.63,78.17,295.74,78.17z M332.13,0.87h13.52l13.85,83.09h-9.56l-3.79-22.92h-13.69l-3.13,22.92h-8.9L332.13,0.87z
	 M345.16,55.19l-6.27-44.6l-5.28,44.6H345.16z M369.9,0.87h14.75c11.29,0,14.75,2.74,14.75,11.96V72c0,9.22-3.46,11.96-14.75,11.96
	H369.9V0.87z M384.35,78.11c4.82,0,6.17-1.12,6.17-4.98V11.71c0-3.74-1.36-4.98-5.27-4.98h-6.47v71.38H384.35z"/>
</svg>
