<?xml version="1.0" encoding="utf-8"?>
<!-- Generator: Adobe Illustrator 22.0.1, SVG Export Plug-In . SVG Version: 6.00 Build 0)  -->
<svg version="1.1" id="Layer_1" xmlns="http://www.w3.org/2000/svg" xmlns:xlink="http://www.w3.org/1999/xlink" x="0px" y="0px"
	 viewBox="0 0 129.248 35.174" enable-background="new 0 0 129.248 35.174" xml:space="preserve">
<path fill-rule="evenodd" clip-rule="evenodd" d="M9.783,0C6.515,11.717,3.211,23.399,0,35.174h50.365
	c0.193-0.693,0.416-1.474,0.623-2.201c0.153-0.567,0.306-1.128,0.455-1.684c0.337-1.267,0.754-2.395,1.075-3.608
	c0.646-2.439,1.278-5.071,2.047-7.701c0.004,0.001,0.009,0.001,0.013,0.001c0.004-0.012,0.007-0.024,0.011-0.036
	c0.977,0.053,1.943-0.115,2.671,0.138c1.281,0.447,0.895,2.303,0.887,3.928c-0.004,1.055-0.108,1.879-0.159,2.871
	c0.002-0.041,4.07,0.009,4.554-0.002c-0.039-0.786-0.016-1.757,0.026-2.776c0.004-0.726,0.009-1.452,0.061-2.177
	c0.021-0.297,0.047-0.587,0.059-0.874c-0.007-0.572-0.061-1.098-0.215-1.524c-0.279-0.77-0.941-1.025-1.7-1.248
	c-0.09-0.027-0.289-0.028-0.311-0.174c0.007-0.011,0.017-0.019,0.026-0.029c-0.001-0.002-0.002-0.004-0.002-0.007
	c0.134-0.191,0.404-0.176,0.589-0.208c1.51-0.259,2.693-0.85,3.428-1.894c0.041-0.061,0.082-0.122,0.121-0.186
	c0.948-1.559,0.767-3.749-0.278-4.96c-2.077-2.411-7.341-1.259-11.467-1.526c-1.864,7.047-4.113,15.287-5.748,21.192h-0.014
	c-0.004,0.012-0.007,0.025-0.01,0.036c-13.679-0.023-27.45,0.047-41.071-0.034c1.203-4.276,2.397-8.576,3.608-12.869
	c1.21-4.293,2.343-8.608,3.642-12.835h0.013c0.004-0.012,0.007-0.024,0.011-0.036c36.603,0.023,73.279-0.046,109.821,0.035
	c-2.413,8.559-4.745,17.199-7.214,25.703h-0.014c-0.004,0.012-0.007,0.025-0.01,0.036c-12.372-0.023-24.838,0.047-37.151-0.034
	c0-1.939,0.241-4.117,0.393-6.354c0.064-0.938,0.268-2.46,0.112-3.681c-0.127-0.781-0.429-1.439-1.071-1.795
	c-0.29-0.161-0.825-0.29-1.159-0.431c-0.008-0.003-0.016-0.006-0.024-0.008c-0.012-0.004-0.026-0.012-0.04-0.019
	c-0.002-0.001-0.005-0.002-0.008-0.004c-0.003-0.002-0.007-0.003-0.01-0.005c-0.04-0.02-0.078-0.039-0.108-0.059
	c-0.009-0.023-0.013-0.043-0.016-0.061c0-0.001-0.002-0.002-0.002-0.003c0,0,0.001-0.001,0.001-0.002
	c-0.027-0.209,0.321-0.132,0.534-0.171c1.54-0.283,2.838-0.973,3.55-2.082c0.878-1.404,0.83-3.784-0.244-4.993
	c-2.109-2.372-7.273-1.284-11.433-1.526c-1.642,5.813-3.202,11.706-4.777,17.585h4.53c0.639-2.293,1.22-4.646,1.898-6.902
	c0.004,0.001,0.009,0.001,0.014,0.001c0.003-0.012,0.006-0.024,0.01-0.036c0.351,0.018,0.712,0.026,1.065,0.037
	c0.57-0.011,1.119-0.008,1.557,0.142c0.088,0.019,0.175,0.039,0.257,0.063c0.398,0.119,0.831,0.341,1.09,0.672
	c0.425,0.543,0.399,1.234,0.325,1.901c-0.15,1.344-0.194,2.695-0.323,4.041c-0.192,2.012-0.431,4.02-0.604,6.035
	c-0.008,0.083-0.084,1.05-0.151,1.937c-0.005,0.133-0.011,0.269-0.014,0.401h45.372c3.242-11.708,6.493-23.408,9.782-35.07V0H9.783z
	 M56.611,12.523c0.03-0.028,0.021-0.095,0.07-0.104c1.827,0.028,3.91-0.257,4.127,1.318c0.375,2.717-2.44,3.428-5.342,3.156
	C55.821,15.41,56.241,13.991,56.611,12.523 M75.897,16.373c-1.089,0.627-2.648,0.515-4.162,0.52c0.41-1.486,0.776-3.016,1.214-4.474
	c1.704,0.046,3.732-0.258,4.093,1.075C77.366,14.69,76.745,15.885,75.897,16.373"/>
<path fill-rule="evenodd" clip-rule="evenodd" d="M16.928,9.262h4.752c-0.625,2.288-1.239,4.588-1.873,6.868h5.238
	c0.71-2.215,1.242-4.608,1.908-6.868h4.752c-1.553,5.928-3.203,11.759-4.752,17.691h-4.787c0.645-2.362,1.273-4.739,1.908-7.111
	c-1.665-0.081-3.481-0.012-5.203-0.035c-0.724,2.318-1.309,4.774-1.978,7.146h-4.787C13.731,21.073,15.277,15.115,16.928,9.262"/>
<path fill-rule="evenodd" clip-rule="evenodd" d="M39.753,9.262h5.515c0.61,5.901,1.208,11.811,1.839,17.691H42.25
	c-0.037-1.212-0.128-2.369-0.139-3.608h-6.486c-0.783,1.149-1.418,2.444-2.185,3.608h-4.579c-0.016-0.202,0.147-0.366,0.242-0.52
	c1.687-2.725,3.416-5.5,5.135-8.256C36.093,15.2,37.877,12.162,39.753,9.262 M37.498,20.154h4.371
	c-0.139-2.335-0.209-4.74-0.382-7.042C40.273,15.255,38.788,17.741,37.498,20.154"/>
<path fill-rule="evenodd" clip-rule="evenodd" d="M104.55,9.262c3.601,0.239,8.001-0.593,10.372,0.832
	c1.243,0.747,2.023,2.104,2.081,3.816c0.057,1.702-0.6,3.321-1.457,4.405c-0.861,1.089-2.098,1.869-3.677,2.185
	c-1.625,0.327-3.53,0.223-5.62,0.244c-0.611,2.023-1.153,4.119-1.699,6.209h-4.787C101.337,21.035,102.936,15.141,104.55,9.262
	 M110.379,17.107c0.587-0.177,1.078-0.464,1.421-1.012c0.298-0.477,0.477-1.043,0.501-1.604c0.018-0.409-0.018-0.857-0.249-1.208
	c-0.264-0.404-0.618-0.589-1.083-0.658c-0.514-0.076-1.027-0.116-1.546-0.109c-0.09,0.001-0.939-0.035-0.953,0.006
	c-0.538,1.526-0.901,3.242-1.388,4.857c0.008-0.025,0.69,0.016,0.76,0.016c0.258,0.001,0.517-0.004,0.775-0.016
	c0.515-0.024,1.032-0.087,1.533-0.21C110.228,17.15,110.304,17.129,110.379,17.107"/>
<path fill-rule="evenodd" clip-rule="evenodd" d="M91.645,8.985c2.99-0.208,5.327,0.689,6.66,2.289
	c1.289,1.546,1.78,4.349,1.215,7.25c-0.947,4.856-4.15,8.285-9.193,8.706c-4.58,0.384-7.369-1.616-7.978-5.376
	c-0.187-1.15-0.136-2.892,0.104-4.093c0.746-3.737,2.621-6.45,5.55-7.874C89.012,9.396,90.272,9.08,91.645,8.985 M93.207,21.783
	c0.236-0.333,0.439-0.687,0.601-1.039c0.288-0.626,0.53-1.263,0.702-1.931c0.167-0.65,0.359-1.299,0.447-1.966
	c0.088-0.672,0.049-1.354-0.002-2.027c-0.042-0.554-0.32-1.047-0.623-1.5c-0.127-0.191-0.358-0.377-0.536-0.52
	c-0.744-0.595-1.904-0.497-2.761-0.246c-1.315,0.383-2.249,1.558-2.832,2.74c-0.154,0.31-0.3,0.632-0.421,0.956
	c-0.191,0.515-0.339,1.05-0.458,1.585c-0.277,1.241-0.512,2.686-0.224,3.945c0.052,0.225,0.13,0.445,0.24,0.649
	c0.253,0.474,0.631,0.794,1.106,1.052c1.246,0.677,2.816,0.18,3.836-0.678C92.634,22.506,92.942,22.157,93.207,21.783"/>
</svg>
