<?xml version="1.0" encoding="utf-8"?>
<!-- Generator: Adobe Illustrator 22.0.1, SVG Export Plug-In . SVG Version: 6.00 Build 0)  -->
<svg version="1.1" id="Layer_1" xmlns="http://www.w3.org/2000/svg" xmlns:xlink="http://www.w3.org/1999/xlink" x="0px" y="0px"
	 viewBox="0 0 76.1745 8.8418" enable-background="new 0 0 76.1745 8.8418" xml:space="preserve">
<path d="M0,0.0645h0.8965h0.9023V3.293H5.168V0.0645h0.8965h0.9023v8.6133H6.0703H5.168V4.7754H1.7988v3.9023H0.9023H0V0.0645z
	 M11.1211,8.8418c-0.9688,0-1.7158-0.2988-2.2412-0.8965S8.0918,6.4961,8.0918,5.3906c0-1.0195,0.2676-1.8174,0.8027-2.3936
	s1.2773-0.8643,2.2266-0.8643c0.9727,0,1.7217,0.2939,2.2471,0.8818s0.7881,1.4248,0.7881,2.5107
	c0.0078,0.125-0.002,0.252-0.0293,0.3809H9.7852c0.0391,0.5039,0.1504,0.8809,0.334,1.1309
	c0.2344,0.3125,0.625,0.4688,1.1719,0.4688c0.2539,0,0.4893-0.0723,0.7061-0.2168s0.3467-0.3184,0.3896-0.5215h1.7109
	c-0.1445,0.6484-0.4795,1.1563-1.0049,1.5234S11.9102,8.8418,11.1211,8.8418z M12.4043,4.834
	c-0.0391-0.3828-0.1406-0.6816-0.3047-0.8965c-0.2148-0.2852-0.5488-0.4277-1.002-0.4277c-0.4336,0-0.7637,0.166-0.9902,0.498
	C9.9668,4.2188,9.8652,4.4941,9.8027,4.834H12.4043z M16.7988,8.8418c-0.5898,0-1.0645-0.1689-1.4238-0.5068
	s-0.5391-0.7822-0.5391-1.333c0-0.582,0.1621-1.0479,0.4863-1.3975s0.7969-0.5693,1.418-0.6592l1.1074-0.1523
	c0.2891-0.0391,0.5293-0.1055,0.7207-0.1992c0.082-0.0391,0.1455-0.1094,0.1904-0.2109s0.0615-0.2051,0.0498-0.3105
	c-0.0234-0.1797-0.1152-0.3203-0.2754-0.4219c-0.1914-0.1211-0.4668-0.1816-0.8262-0.1816c-0.3203,0-0.5703,0.0781-0.75,0.2344
	s-0.2754,0.377-0.2871,0.6621h-1.6113c0.0352-0.7461,0.2891-1.3047,0.7617-1.6758s1.166-0.5566,2.0801-0.5566
	c0.793,0,1.4189,0.167,1.8779,0.501c0.459,0.335,0.6885,0.791,0.6885,1.3701v3.5654c0,0.2852,0.0234,0.4863,0.0703,0.6016
	s0.1406,0.2061,0.2813,0.2725v0.0059v0.2285h-0.9082H19.002V8.6719c-0.0742-0.2578-0.123-0.5098-0.1465-0.7559l-0.0059-0.0117
	C18.3223,8.5293,17.6387,8.8418,16.7988,8.8418z M18.8203,6.3223V5.5898c-0.1953,0.1094-0.4531,0.1973-0.7734,0.2637l-0.6211,0.1172
	c-0.293,0.0547-0.5156,0.1553-0.668,0.3018s-0.2285,0.3311-0.2285,0.5537c0,0.2539,0.0684,0.4531,0.2051,0.5977
	s0.3281,0.2168,0.5742,0.2168c0.5391,0,0.9688-0.1895,1.2891-0.5684c0.0625-0.0742,0.1152-0.1836,0.1582-0.3281
	S18.8203,6.459,18.8203,6.3223z M24.873,8.7129c-0.2813,0.0234-0.627,0.0352-1.0371,0.0352c-0.5938,0-1.0205-0.1064-1.2803-0.3193
	S22.166,7.8672,22.166,7.3828V3.4805h-0.8848V2.3027h0.8848V0.5859h1.6816v1.7168h1.0254v1.1777h-1.0254v3.6211
	c0,0.1484,0.0439,0.2461,0.1318,0.293s0.2705,0.0703,0.5479,0.0703h0.3457V8.7129z M25.9395,0.0645h0.8379h0.8438v3.0469
	l0.1348-0.1875c0.4141-0.5273,1.0156-0.791,1.8047-0.791c0.6719,0,1.1982,0.1992,1.5791,0.5977s0.5713,0.9512,0.5713,1.6582v4.2891
	H30.873h-0.8438V4.6934c0-0.3945-0.085-0.6865-0.2549-0.876s-0.4307-0.2842-0.7822-0.2842c-0.4414,0-0.7803,0.1328-1.0166,0.3984
	s-0.3545,0.6484-0.3545,1.1484v3.5977h-0.8379h-0.8438V0.0645z M35.7949,8.8418c-0.9688,0-1.7158-0.2988-2.2412-0.8965
	s-0.7881-1.4492-0.7881-2.5547c0-1.0195,0.2676-1.8174,0.8027-2.3936s1.2773-0.8643,2.2266-0.8643
	c0.9727,0,1.7217,0.2939,2.2471,0.8818s0.7881,1.4248,0.7881,2.5107c0.0078,0.125-0.002,0.252-0.0293,0.3809H34.459
	c0.0391,0.5039,0.1504,0.8809,0.334,1.1309c0.2344,0.3125,0.625,0.4688,1.1719,0.4688c0.2539,0,0.4893-0.0723,0.7061-0.2168
	s0.3467-0.3184,0.3896-0.5215h1.7109C38.627,7.416,38.292,7.9238,37.7666,8.291S36.584,8.8418,35.7949,8.8418z M37.0781,4.834
	c-0.0391-0.3828-0.1406-0.6816-0.3047-0.8965c-0.2148-0.2852-0.5488-0.4277-1.002-0.4277c-0.4336,0-0.7637,0.166-0.9902,0.498
	c-0.1406,0.2109-0.2422,0.4863-0.3047,0.8262H37.0781z M39.9434,2.3027h0.7969h0.8027v0.9434
	c0.0664-0.1133,0.1387-0.2207,0.2168-0.3223c0.4141-0.5273,1.0156-0.791,1.8047-0.791c0.6719,0,1.1982,0.1992,1.5791,0.5977
	s0.5713,0.9512,0.5713,1.6582v4.2891H44.877h-0.8438V4.6934c0-0.3945-0.085-0.6865-0.2549-0.876s-0.4307-0.2842-0.7822-0.2842
	c-0.4414,0-0.7803,0.1328-1.0166,0.3984S41.625,4.5801,41.625,5.0801v3.5977h-0.8379h-0.8438V2.3027z M47.4082,0.0645h0.8965h2.707
	c0.9805,0,1.7266,0.2295,2.2383,0.6885s0.7676,1.1279,0.7676,2.0068c0,0.9297-0.2559,1.6357-0.7676,2.1182
	s-1.2578,0.7236-2.2383,0.7236c-0.6953-0.0039-1.2969,0-1.8047,0.0117v3.0645h-0.8965h-0.9023V0.0645z M49.207,4.1191h1.5
	c0.5039,0,0.8818-0.1113,1.1338-0.334s0.3779-0.5586,0.3779-1.0078c0-0.4102-0.126-0.7178-0.3779-0.9229
	s-0.6299-0.3076-1.1338-0.3076h-1.5V4.1191z M55.2656,2.3027h0.7969h0.8027v1.1426c0.0586-0.125,0.125-0.2461,0.1992-0.3633
	c0.3945-0.6328,0.9043-0.9492,1.5293-0.9492l0.3809,0.0059v1.7168c-0.1484-0.0156-0.3164-0.0234-0.5039-0.0234
	c-0.5117,0-0.8936,0.127-1.1455,0.3809s-0.3779,0.6387-0.3779,1.1543v3.3105h-0.8379h-0.8438V2.3027z M59.9941,0h1.7109v1.5586
	h-1.7109V0z M60.0117,2.3027h0.8379h0.8438v6.375h-0.8379h-0.8438V2.3027z M65.625,8.8418c-0.8125,0-1.4678-0.3164-1.9658-0.9492
	s-0.7471-1.4668-0.7471-2.502c0-0.9766,0.248-1.7637,0.7441-2.3613s1.1484-0.8965,1.957-0.8965
	c0.7227,0,1.3047,0.3047,1.7461,0.9141l0.0703,0.0938V0.0645h0.8379h0.8438v8.6133h-0.8145h-0.8145V7.8633l-0.0293,0.041
	C66.9883,8.5293,66.3789,8.8418,65.625,8.8418z M66.0762,3.5859c-0.4492,0-0.8008,0.1729-1.0547,0.5186
	s-0.3809,0.8252-0.3809,1.4385c0,0.6016,0.126,1.0713,0.3779,1.4092s0.6025,0.5068,1.0518,0.5068
	c0.4531,0,0.8066-0.1777,1.0605-0.5332s0.3809-0.8496,0.3809-1.4824c0-0.582-0.127-1.0371-0.3809-1.3652
	S66.5254,3.5859,66.0762,3.5859z M73.1367,8.8418c-0.9688,0-1.7158-0.2988-2.2412-0.8965s-0.7881-1.4492-0.7881-2.5547
	c0-1.0195,0.2676-1.8174,0.8027-2.3936s1.2773-0.8643,2.2266-0.8643c0.9727,0,1.7217,0.2939,2.2471,0.8818
	s0.7881,1.4248,0.7881,2.5107c0.0078,0.125-0.002,0.252-0.0293,0.3809h-4.3418c0.0391,0.5039,0.1504,0.8809,0.334,1.1309
	c0.2344,0.3125,0.625,0.4688,1.1719,0.4688c0.2539,0,0.4893-0.0723,0.7061-0.2168s0.3467-0.3184,0.3896-0.5215h1.7109
	c-0.1445,0.6484-0.4795,1.1563-1.0049,1.5234S73.9258,8.8418,73.1367,8.8418z M74.4199,4.834
	c-0.0391-0.3828-0.1406-0.6816-0.3047-0.8965c-0.2148-0.2852-0.5488-0.4277-1.002-0.4277c-0.4336,0-0.7637,0.166-0.9902,0.498
	c-0.1406,0.2109-0.2422,0.4863-0.3047,0.8262H74.4199z"/>
</svg>
