<?xml version="1.0" encoding="utf-8"?>
<!-- Generator: Adobe Illustrator 22.0.1, SVG Export Plug-In . SVG Version: 6.00 Build 0)  -->
<svg version="1.1" id="Layer_1" xmlns="http://www.w3.org/2000/svg" xmlns:xlink="http://www.w3.org/1999/xlink" x="0px" y="0px"
	 viewBox="0 0 218.41 58.25" enable-background="new 0 0 218.41 58.25" xml:space="preserve">
<g>
	<path d="M14.24,1.67h11.62L20.79,17.4h5.24l5.06-15.73h11.66L28.52,45.98H16.85l5.48-17.34H17.1l-5.48,17.34H0L14.24,1.67z"/>
	<path d="M47.96,31.79c-0.19,0.58-0.37,1.09-0.5,1.6c-0.7,2.7-0.42,4.11,0.73,4.11c0.97,0,1.95-1.09,2.64-3.02h10.87
		c-2.94,7.71-8.57,12.4-15.87,12.4c-9.29,0-10.45-7.64-9.18-14.84c1.49-8.48,7.25-21.13,18.38-21.13c8.1,0,11.06,5.4,9.44,14.58
		c-0.33,1.86-1.09,4.43-1.77,6.29H47.96z M53.93,24.6c0.28-0.83,0.46-1.6,0.57-2.25c0.28-1.61,0.09-2.51-0.88-2.51
		c-1.14,0-2.22,1.6-3.3,4.75H53.93z"/>
	<path d="M89.18,34.81c-1.37,4.3-2.79,8.61-3.47,11.17H75.15c0.19-1.09,0.44-1.99,0.84-3.53c-2.12,2.76-4.57,4.43-7.65,4.43
		c-3.78,0-5.89-3.02-4.81-9.18c1.42-8.03,5.78-12.59,14.1-13.55c1.62-0.19,3.53-0.32,4.33-0.32l0.58-1.8
		c0.62-1.99,0.21-2.44-0.63-2.44c-1.23,0-1.72,1.28-2.4,2.89H69.18c1.91-5.59,5.91-11.56,14.71-11.56c9.9,0,11.16,5.84,8.63,13.68
		L89.18,34.81z M79.63,31.08c-0.53,0-1.38,0.06-2.05,0.38c-1.06,0.51-2.02,1.48-2.3,3.08c-0.2,1.15,0.12,2.06,0.87,2.06
		c1.36,0,2.12-1.29,3.01-4.11L79.63,31.08z"/>
	<path d="M108.81,11.82c-0.82,3.4-2.97,13.1-4.81,20.55h0.31c2.7-6.81,6.16-14.71,8.77-20.55h11.13l-17.6,34.17H93.19l4.31-34.17
		H108.81z"/>
	<path d="M135.25,11.82c-1.05,5.2-3.32,16.31-4.48,21.39h0.35c2.35-5.84,5.47-13.55,8.74-21.39h11L136.67,39.5
		c-8.05,15.74-10.52,18.75-19.5,18.75c-1.5,0-3.31-0.19-4.24-0.39l3.5-10.85c0.3,0.06,1.03,0.13,1.34,0.13
		c0.75,0,2.12-0.07,2.79-1.09l3.53-34.23H135.25z"/>
	<path d="M142.03,45.98L156.83,0h11.22l-14.8,45.98H142.03z"/>
	<path d="M172.74,31.79c-0.19,0.58-0.37,1.09-0.5,1.6c-0.7,2.7-0.42,4.11,0.73,4.11c0.97,0,1.95-1.09,2.64-3.02h10.87
		c-2.94,7.71-8.57,12.4-15.87,12.4c-9.29,0-10.45-7.64-9.18-14.84c1.49-8.48,7.25-21.13,18.38-21.13c8.1,0,11.06,5.4,9.44,14.58
		c-0.33,1.86-1.09,4.43-1.77,6.29H172.74z M178.72,24.6c0.28-0.83,0.46-1.6,0.57-2.25c0.28-1.61,0.09-2.51-0.88-2.51
		c-1.14,0-2.22,1.6-3.3,4.75H178.72z"/>
	<path d="M215.67,32.11c-3.04,8.99-7.58,14.77-16.95,14.77c-7.92,0-10.03-6.23-8.62-14.26c1.83-10.4,8.01-21.71,18.75-21.71
		c9.42,0,10.67,7.64,8.86,14.9h-10.91c1.24-3.79,1.62-5.72,0.35-5.72c-1.98,0-5.16,9.31-6.16,14.96c-0.33,1.86-0.18,2.76,0.48,2.76
		c1.1,0,2.1-1.93,3.43-5.72H215.67z"/>
</g>
</svg>
