<?xml version="1.0" encoding="utf-8"?>
<!-- Generator: Adobe Illustrator 22.0.1, SVG Export Plug-In . SVG Version: 6.00 Build 0)  -->
<svg version="1.1" id="Layer_1" xmlns="http://www.w3.org/2000/svg" xmlns:xlink="http://www.w3.org/1999/xlink" x="0px" y="0px"
	 viewBox="0 0 121.9032 65.1915" enable-background="new 0 0 121.9032 65.1915" xml:space="preserve">
<path d="M27.5538,37.4407c4.2155,0,8.3703-0.1375,12.5114,0.0417c3.5875,0.1552,6.425,2.8112,7.2407,6.3139
	c0.7871,3.3798-0.7171,6.8877-3.7566,8.7598c-0.2338,0.144-0.469,0.2857-0.8207,0.4998c1.5884,3.9544,4.8054,11.9632,4.8054,11.9632
	h-5.288l-4.6156-11.2435h-5.2977v11.2613h-4.779C27.5538,65.0369,27.5538,46.7148,27.5538,37.4407z M32.3854,48.7295
	c2.5493,0,5.0674,0.3027,7.4477-0.1386c1.0543-0.1955,2.5095-1.8756,2.5411-2.9194c0.0318-1.0531-1.3371-2.9005-2.3344-3.0839
	c-2.4554-0.4516-5.0498-0.1479-7.6544-0.1479C32.3854,44.5484,32.3854,46.5674,32.3854,48.7295z M99.212,65.1883
	c0-9.262,0-18.3863,0-27.7247c5.1046,0.4647,10.275-0.9505,15.1275,1.5376c5.6957,2.9204,8.6859,9.3868,7.1739,15.6522
	c-1.4704,6.0933-7.0767,10.5114-13.3797,10.5331C105.1868,65.1967,102.2399,65.1883,99.212,65.1883z M104.0946,60.1332
	c4.8515,0.4665,9.316,0.1246,11.8446-4.6987c1.7364-3.3122,1.3797-6.5911-0.8855-9.5724
	c-2.8415-3.7397-6.8655-3.6582-10.9591-3.3413C104.0946,48.4425,104.0946,54.2691,104.0946,60.1332z M22.6227,0.0411h-4.8454v11.153
	H5.0353L4.9166,2.7918L1.7374,0.0094H0v27.4844h4.9166V16.2981h12.9082c0,0,0,5.7134,0,8.3887
	c1.0239,1.0436,2.805,2.859,2.805,2.859h1.9929V0.0411z M96.6657,65.0488h-5.295l-2.2528-6.2635h-10.131l-2.22,6.2239h-5.2919
	l10.0743-27.5757h4.9366L96.6657,65.0488z M87.3066,53.6605l-3.2801-9.2123l-3.2423,9.2123H87.3066z M68.9128,42.3637v-4.8785
	H52.4863v27.5261h16.4476v-4.8223H57.3578v-6.4955h9.6288v-4.9531H57.344v-6.3768H68.9128z M27.5634,27.5005h16.4308v-4.7879
	H32.4798v-6.5228h9.6143v-4.9161h-9.6052V4.811h11.5076V0H27.5634V27.5005z M53.9906,22.6626V16.203h9.5795v-4.9741h-9.5574V4.8282
	H65.575V0.0475H49.0404V27.495h16.5547v-4.8324H53.9906z M8.7801,62.1325l2.7694,2.7746h2.2072V42.2637h8.797v-4.7733H0.0198v4.833
	h8.7602V62.1325z M86.9371,27.4966c0,0,0-3.1758,0-4.8804c-3.8651,0-11.5873,0-11.5873,0V0.0574h-4.8003v27.4391H86.9371z"/>
</svg>
