<?xml version="1.0" encoding="utf-8"?>
<!-- Generator: Adobe Illustrator 22.0.1, SVG Export Plug-In . SVG Version: 6.00 Build 0)  -->
<svg version="1.1" id="Layer_1" xmlns="http://www.w3.org/2000/svg" xmlns:xlink="http://www.w3.org/1999/xlink" x="0px" y="0px"
	 viewBox="0 0 32.6386 4.5307" enable-background="new 0 0 32.6386 4.5307" xml:space="preserve">
<path fill-rule="evenodd" clip-rule="evenodd" fill="#E20613" d="M3.1689,0.1186v0.7696H0.8886v0.8886h2.1026v0.7701H0.8886v1.125
	h2.399v0.77H0V0.1186H3.1689L3.1689,0.1186z M3.791,3.1094c0,0.1479,0.0293,0.2959,0.0889,0.4736
	c0.059,0.1484,0.1479,0.3257,0.2666,0.4741c0.1479,0.1182,0.3256,0.2661,0.5625,0.355C4.9756,4.501,5.2719,4.5307,5.6567,4.5307
	c0.2075,0,0.4146-0.0297,0.6812-0.0888C6.6045,4.3828,6.812,4.2344,7.0195,4.0273c0.207-0.2075,0.3257-0.5034,0.3257-0.8886
	c0-0.355-0.0894-0.6221-0.2964-0.7994C6.8418,2.1909,6.5747,2.043,6.2197,1.9839L5.1533,1.7173
	c-0.1187-0.0298-0.2368-0.0884-0.3257-0.148C4.7387,1.5102,4.709,1.4214,4.709,1.2734c0-0.1186,0.0297-0.2373,0.1186-0.2964
	c0.0591-0.0888,0.148-0.1479,0.2666-0.1772C5.2124,0.77,5.331,0.7402,5.4497,0.7402c0.3554,0,0.5625,0.0596,0.6811,0.2075
	C6.249,1.0659,6.3086,1.2139,6.3379,1.3916h0.8589c0-0.148-0.0293-0.2959-0.0889-0.4736C7.0488,0.77,6.9599,0.6221,6.8418,0.4736
	C6.7231,0.3257,6.5454,0.2368,6.3379,0.1479C6.101,0.0293,5.8344,0,5.5381,0C5.0942,0,4.7685,0.0591,4.5014,0.207
	C4.2651,0.3555,4.0869,0.5327,3.998,0.7402C3.9096,0.918,3.8501,1.1255,3.8501,1.3325c0,0.2964,0.0888,0.5327,0.2075,0.6812
	c0.1182,0.1772,0.2666,0.2959,0.4438,0.3549c0.1778,0.0894,0.4151,0.148,0.7408,0.2373l0.4443,0.0884
	c0.2964,0.0596,0.4741,0.1485,0.6221,0.2075c0.1181,0.0889,0.1777,0.1778,0.1777,0.3257c0,0.2075-0.0894,0.3555-0.2666,0.4444
	C6.042,3.7607,5.8344,3.79,5.5678,3.79c-0.2368,0-0.4145-0.0293-0.5625-0.1181c-0.1186-0.0591-0.2075-0.148-0.2666-0.2666
	C4.6792,3.3164,4.6792,3.1982,4.6792,3.1094H3.791L3.791,3.1094z M9.4477,0.8882h1.3033V0.1186H7.2558v0.7696h1.3037v3.5537h0.8882
	V0.8882L9.4477,0.8882z M11.8174,0.0293h-0.6812V0.918h0.3848c0,0.2368-0.0293,0.3847-0.1187,0.4736
	c-0.0591,0.0889-0.1479,0.1777-0.2661,0.2075v0.3257h0.0293c0.1187-0.0298,0.2368-0.1187,0.3555-0.1777
	c0.0888-0.0889,0.1777-0.2076,0.207-0.3555c0.0596-0.148,0.0894-0.3555,0.0894-0.5918V0.0293L11.8174,0.0293z M12.5869,4.4419
	h1.8662c0.3257,0,0.6221-0.0889,0.8589-0.2075c0.2368-0.148,0.4145-0.3257,0.563-0.5625c0.1181-0.2369,0.2368-0.4737,0.2959-0.7403
	c0.0595-0.2666,0.0595-0.5034,0.0595-0.77c0-0.3257-0.0297-0.6514-0.1484-0.9477c-0.0889-0.2959-0.2666-0.5625-0.5332-0.7696
	c-0.2666-0.2373-0.6216-0.3257-1.0664-0.3257h-1.8955V4.4419L12.5869,4.4419z M13.4756,0.8584L13.4756,0.8584h0.8593
	c0.1778,0,0.3252,0.0298,0.4737,0.0893c0.1186,0.0591,0.2666,0.2071,0.3554,0.3848c0.1182,0.207,0.148,0.5034,0.148,0.918
	c0,0.3847-0.0591,0.7402-0.2368,1.0068c-0.148,0.2964-0.3848,0.4146-0.7403,0.4146h-0.8593V0.8584L13.4756,0.8584z M18.3926,1.4805
	h1.0361v2.9614h0.8291v-4.294h-0.6807c-0.0293,0.2076-0.1181,0.3848-0.2666,0.5332c-0.1484,0.148-0.415,0.2071-0.7998,0.2071
	h-0.1181V1.4805L18.3926,1.4805z M23.457,1.895c-0.1777,0-0.2959-0.0591-0.415-0.1479c-0.1182-0.1182-0.1475-0.2369-0.1475-0.3853
	c0-0.1479,0.0293-0.2959,0.1475-0.3848c0.1191-0.0888,0.2666-0.1479,0.4443-0.1479c0.1182,0,0.208,0.0293,0.2666,0.0591
	c0.0889,0.0595,0.1484,0.1186,0.207,0.2075c0.0303,0.0591,0.0596,0.1777,0.0596,0.2661c0,0.1484-0.0596,0.2964-0.1475,0.3853
	C23.7822,1.8359,23.6347,1.895,23.457,1.895L23.457,1.895z M25.0263,3.1684L25.0263,3.1684c0-0.2666-0.0595-0.4741-0.1474-0.6518
	c-0.1192-0.148-0.2969-0.2661-0.5332-0.3848c0.3554-0.1772,0.5332-0.4443,0.5332-0.8584c0-0.1479-0.0303-0.2964-0.0899-0.415
	c-0.0586-0.148-0.1474-0.2661-0.2656-0.355c-0.1484-0.1186-0.2969-0.2075-0.4746-0.2666c-0.1768-0.0591-0.3848-0.0889-0.6221-0.0889
	c-0.2656,0-0.5029,0.0591-0.7099,0.148c-0.208,0.0889-0.3858,0.2368-0.5039,0.4145c-0.1182,0.1778-0.1778,0.3853-0.1778,0.6221
	c0,0.3848,0.1778,0.6514,0.5332,0.8291c-0.2959,0.148-0.4736,0.2964-0.5625,0.5034c-0.0888,0.1778-0.1191,0.3848-0.1191,0.5923
	c0,0.207,0.0596,0.4146,0.1484,0.5923c0.1182,0.2075,0.2959,0.3848,0.5332,0.5034c0.2373,0.1182,0.5332,0.1777,0.8887,0.1777
	c0.2959,0,0.5332-0.0297,0.7402-0.1186c0.2071-0.0889,0.3848-0.207,0.5039-0.355c0.1182-0.1186,0.2071-0.2671,0.2657-0.4443
	C24.997,3.4643,25.0263,3.3164,25.0263,3.1684L25.0263,3.1684z M24.1084,3.1982L24.1084,3.1982
	c0,0.1182-0.0293,0.2071-0.0596,0.3257c-0.0586,0.0889-0.1182,0.1777-0.207,0.2368c-0.1182,0.0889-0.2373,0.1182-0.3848,0.1182
	c-0.1777,0-0.3555-0.0591-0.4736-0.207c-0.1192-0.1182-0.1778-0.2666-0.1778-0.4737c0-0.2373,0.0586-0.3852,0.1778-0.5039
	c0.1474-0.1181,0.2959-0.1777,0.4736-0.1777c0.207,0,0.3848,0.0893,0.5029,0.2075C24.0488,2.8721,24.1084,3.0205,24.1084,3.1982
	L24.1084,3.1982z M28.6699,1.2436c-0.0303-0.2075-0.0898-0.3554-0.1484-0.4736c-0.0293-0.0889-0.1192-0.2075-0.2666-0.3257
	c-0.0889-0.0888-0.2071-0.1777-0.3848-0.2075c-0.1777-0.0591-0.3555-0.0889-0.4746-0.0889c-0.4434,0-0.7988,0.148-1.0362,0.3848
	C26.122,0.77,25.9746,1.0361,25.915,1.3618c-0.0596,0.3257-0.1182,0.6812-0.1182,1.0366c0,0.6221,0.1182,1.1553,0.3555,1.5401
	c0.207,0.4145,0.6221,0.5922,1.2139,0.5922c0.2666,0,0.5039-0.0595,0.7109-0.1777c0.2071-0.1186,0.3848-0.3257,0.503-0.563
	c0.1191-0.2363,0.1777-0.5029,0.1777-0.7993c0-0.2368-0.0586-0.4438-0.1475-0.6514c-0.0888-0.1777-0.2373-0.3554-0.4443-0.4741
	c-0.207-0.1181-0.4443-0.207-0.7109-0.207c-0.3555,0-0.6221,0.1186-0.7999,0.3555H26.626c0.0292-0.3555,0.0888-0.6221,0.1777-0.8589
	c0.1181-0.2071,0.2959-0.3257,0.5332-0.3257c0.1474,0,0.2666,0.0293,0.3555,0.1186c0.0888,0.0591,0.1181,0.1778,0.1474,0.2959
	H28.6699L28.6699,1.2436z M27.8994,3.0498L27.8994,3.0498c0,0.1777-0.0293,0.3555-0.0596,0.4741
	c-0.0586,0.1182-0.1474,0.2075-0.2363,0.2661c-0.0889,0.0596-0.1777,0.0889-0.2959,0.0889c-0.1777,0-0.3555-0.0889-0.4746-0.2368
	c-0.1182-0.148-0.1778-0.3257-0.1778-0.5625c0-0.1778,0.0293-0.3257,0.0889-0.4146c0.0596-0.1181,0.1485-0.207,0.2373-0.2368
	c0.0889-0.0596,0.2071-0.0889,0.3262-0.0889c0.1475,0,0.2959,0.0591,0.4141,0.1773C27.8398,2.6352,27.8994,2.813,27.8994,3.0498
	L27.8994,3.0498z M30.5058,1.5693c0-0.1777,0.0293-0.3257,0.1182-0.4438c0.0596-0.0894,0.1191-0.1778,0.207-0.2075
	c0.0899-0.0596,0.208-0.0596,0.2969-0.0596c0.207,0,0.3555,0.0596,0.4736,0.2075c0.1182,0.148,0.1485,0.3257,0.1485,0.563
	c0,0.1772-0.0303,0.2959-0.0889,0.4141c-0.0596,0.1186-0.1191,0.1777-0.208,0.2373c-0.1182,0.059-0.207,0.0883-0.3252,0.0883
	C30.7129,2.3686,30.5058,2.1025,30.5058,1.5693L30.5058,1.5693z M29.7656,3.435L29.7656,3.435c0,0.2369,0.0889,0.4146,0.207,0.5923
	c0.1182,0.1778,0.2666,0.2959,0.4444,0.3848c0.207,0.0889,0.414,0.1186,0.6513,0.1186c0.2071,0,0.4151-0.0297,0.5928-0.0888
	c0.1777-0.0889,0.3555-0.2075,0.5029-0.3848c0.1485-0.1782,0.2373-0.3852,0.3262-0.6811c0.0889-0.2666,0.1484-0.6221,0.1484-1.0074
	c0-0.2661-0.0302-0.4736-0.0595-0.7104c0-0.207-0.0596-0.4443-0.1778-0.6812C32.3125,0.77,32.164,0.5625,31.957,0.4145
	c-0.207-0.1777-0.4736-0.2666-0.8291-0.2666c-0.2969,0-0.5332,0.0591-0.7705,0.1778c-0.207,0.1186-0.3848,0.2964-0.5029,0.5327
	c-0.1192,0.2075-0.1778,0.5034-0.1778,0.8291c0,0.1777,0.0293,0.3555,0.0889,0.5332c0.0586,0.1479,0.1475,0.2959,0.2363,0.4145
	c0.1182,0.1187,0.2666,0.2076,0.4151,0.2964c0.1777,0.0591,0.3554,0.0889,0.5332,0.0889c0.3847,0,0.6513-0.1187,0.8291-0.3555
	v0.0293c0,0.2075,0,0.3853-0.0596,0.5332c-0.0293,0.1485-0.0889,0.2964-0.1475,0.3853c-0.0595,0.0888-0.1484,0.1479-0.2373,0.207
	c-0.0595,0.0298-0.1484,0.0591-0.2666,0.0591c-0.2666,0-0.4443-0.1475-0.4736-0.4439l0,0H29.7656L29.7656,3.435z"/>
</svg>
