<svg xmlns="http://www.w3.org/2000/svg" viewBox="0 0 146.8 159.4"><path fill="#9B804D" d="M28.3 159.4L0 43.4h21.5c3.6 0 9.7-5 8.3-10.7L24 9.8S52 0 73.3 0h.2c21.5 0 49.3 9.8 49.3 9.8L117 32.7c-1.4 5.7 4.7 10.7 8.4 10.7h21.4l-28.3 116H28.3z"/><path fill="#009540" d="M4.5 47h17c5.2 0 13.9-6.7 11.6-15.2l-4.9-19.7C36 9.7 56.7 3.5 73.3 3.5S111 9.7 118.6 12l-5 19.7c-2.1 8.6 6.5 15.1 11.8 15.1h17l-26.6 109H31L4.5 47z"/><path fill="#FFF" d="M21.5 49.2c6.3 0 16.6-7.5 13.9-18L31 13.7c8.9-2.8 27.4-7.9 42.3-7.9 15 0 33.6 5.2 42.5 7.9l-4.4 17.6c-2.7 10.4 7.7 18 14 18h14L114 153.5H33L7.4 49.2h14.1z"/><path fill-rule="evenodd" clip-rule="evenodd" fill="#E20613" d="M60.12 39v.77h-2.28v.89h2.1v.77h-2.1v1.12h2.4v.77h-3.3V39h3.18zm.62 2.99c0 .15.03.3.09.47.06.15.15.33.26.48.15.12.33.26.57.35.74.25 1.74.19 2.3-.38.4-.4.5-1.3.04-1.7-.21-.14-.48-.29-.83-.35l-1.07-.26a1.09 1.09 0 0 1-.32-.15c-.17-.11-.17-.48 0-.6a.43.43 0 0 1 .26-.17c.3-.08.81-.14 1.04.15.12.12.18.26.2.44h.86c0-.15-.02-.3-.08-.47-.06-.15-.15-.3-.27-.45-.12-.14-.3-.23-.5-.32a2.26 2.26 0 0 0-1.84.06c-.24.15-.42.32-.5.53-.2.38-.22.92.06 1.27.11.18.26.3.44.36.18.09.41.15.74.24l.44.08c.3.06.48.15.63.21.27.2.2.62-.1.77-.31.16-.9.19-1.2 0a.58.58 0 0 1-.27-.27c-.06-.08-.06-.2-.06-.3h-.9zm5.66-2.22h1.3V39h-3.5v.77h1.3v3.55h.9v-3.55zm2.37-.86h-.69v.89h.39c0 .23-.03.38-.12.47a.47.47 0 0 1-.27.2v.33h.03c.12-.03.24-.11.36-.17.09-.1.18-.21.2-.36.17-.4.1-.94.1-1.36zm.76 4.41c.85 0 1.95.18 2.73-.2.24-.15.41-.33.56-.57.12-.24.24-.47.3-.74.12-.53.11-1.22-.09-1.72-.09-.3-.27-.56-.53-.77-.66-.58-2.15-.32-2.97-.32v4.32zm.9-3.58c.41 0 .93-.07 1.33.09.12.06.26.2.35.38.29.5.23 1.46-.09 1.93-.28.56-1.08.41-1.6.41v-2.81zm4.91.62h1.04v2.96h.83v-4.3h-.68a.92.92 0 0 1-.27.54c-.23.22-.63.22-.92.2v.6zm5.06.41a.64.64 0 0 1-.41-.14c-.18-.19-.23-.6 0-.77.19-.14.5-.2.71-.1.09.07.15.13.2.22.1.19.08.49-.08.65a.59.59 0 0 1-.42.14zm1.57 1.28c0-.27-.06-.48-.14-.65-.12-.15-.3-.27-.54-.39.47-.23.69-.8.45-1.27a.8.8 0 0 0-.27-.36 1.5 1.5 0 0 0-.47-.26 1.92 1.92 0 0 0-1.34.06c-.2.08-.38.23-.5.41a.99.99 0 0 0 .36 1.45c-.3.15-.48.3-.57.5-.18.37-.15.83.03 1.19.12.2.3.38.54.5.45.23 1.15.27 1.63.06.2-.09.38-.2.5-.35.12-.12.2-.27.26-.45.03-.15.06-.3.06-.44zm-.91.03c0 .12-.03.2-.06.32a.79.79 0 0 1-.21.24c-.25.19-.66.16-.86-.09-.25-.24-.24-.73 0-.98.29-.23.7-.24.98.03.09.15.15.3.15.48zm4.56-1.96c-.03-.2-.1-.35-.15-.47a.8.8 0 0 0-.27-.33.69.69 0 0 0-.38-.2c-.5-.17-1.12-.1-1.51.3-.77.76-.75 2.51-.21 3.4.33.65 1.34.75 1.93.41.2-.12.38-.32.5-.56.22-.45.22-1 .03-1.45a1.13 1.13 0 0 0-.45-.48c-.46-.26-1.15-.32-1.5.15h-.04c.03-.35.1-.62.18-.86.16-.27.63-.47.89-.2.09.06.12.18.15.3h.83zm-.77 1.8c0 .19-.03.36-.06.48a.69.69 0 0 1-.24.27c-.25.16-.6.07-.77-.15-.19-.24-.27-.7-.09-.98.06-.11.15-.2.24-.23.23-.15.56-.1.74.09.12.11.18.3.18.53zm2.6-1.47c0-.18.03-.33.12-.44.06-.1.12-.18.2-.21.23-.15.63-.04.78.15.2.25.2.7.06.97a.55.55 0 0 1-.2.24c-.6.3-.96-.17-.96-.71zm-.74 1.86c0 .24.1.42.21.6.12.17.27.3.44.38.38.16.86.16 1.25.03.18-.09.35-.2.5-.38.15-.18.24-.39.33-.68.18-.56.16-1.15.09-1.72 0-.2-.06-.45-.18-.68-.09-.21-.24-.42-.45-.57-.42-.36-1.12-.32-1.6-.08-.2.11-.38.3-.5.53-.22.38-.23.95-.09 1.36.06.15.15.3.24.41.12.12.27.21.41.3.45.15 1.06.15 1.37-.27 0 .18 0 .4-.06.57-.03.15-.1.3-.15.38a.8.8 0 0 1-.24.21c-.33.17-.7-.01-.74-.39h-.83z"/><path fill-rule="evenodd" clip-rule="evenodd" fill="#1D1D1B" d="M33.22 100.35c0 .36.1.98.39 1.04v.5h-4.44v-.5c.32-.09.53-.2.62-.35.09-.12.15-.36.15-.69V84.66c0-.36-.06-.6-.15-.71-.09-.15-.3-.27-.62-.36v-.5h4.44v.5c-.3.1-.39.71-.39 1.07v5.24l4-5.6c.1-.06.15-.68-.09-.7v-.5h5.04v.5c-.24.05-.2.14-.39.26-.2.09-.35.24-.47.42l-4.26 6.24 4.62 9.83c.14.24.32.45.56.63.2.17-.03.32.26.41v.5h-4.67v-.5c.2-.12.23-.65.17-.77L34.71 94l-1.49 2.16v4.2zm10.7 1.54l10.66-.02v-3.88h-.39c-.06.38-.53.91-.77.91h-5.3v-5.15h3.44c.26 0 .74.42.77.77h.38v-4.7h-.38c-.03.38-.5.7-.77.7h-3.44V86h5.07c.23 0 .7.57.77.95h.38v-3.88l-10.42.03v.5c.26.1.44.21.53.33.09.15.12.38.12.71v15.72c0 .36-.03.6-.12.72-.09.14-.27.23-.53.32v.5zm35.3.27h4.24v-.5c-.27-.1-.27-.15-.27-.5V93.5l4-.03v7.11c0 .33-.06.95-.33 1.07v.5h4.03v-.5c-.27-.12-.36-.71-.36-1.04V84.87c0-.33.1-.95.36-1.04v-.5h-4.15v.5c.27.09.42.71.42 1.04v5.74h-3.97v-5.74c0-.36.12-.95.38-1.04v-.5h-4.35v.5c.27.09.65.68.65 1.04v15.75c0 .36-.38.95-.65 1.04v.5zM94.18 84.9v11.3c0 2.14.12 3.77 1.06 4.84.92 1.1 2.85 1.62 4.65 1.62 1.78 0 3.38-.53 4.27-1.62.89-1.07 1.06-2.7 1.06-4.83V84.9c0-.36.03-.6.12-.74.12-.15.3-.24.56-.33v-.5h-4.4v.74c.26.06.35.47.35.83v10.69c0 1.95.09 3.43-1.96 3.43-2.37 0-2.22-1.6-2.22-3.43v-10.7c0-.35.18-.97.48-1.06v-.5H93.7v.5c.15.33.48.71.48 1.07zm15.28.53v15.04c0 .39-.2 1.16-.48 1.22l-.02.5h4.3l-.04-.5c-.3-.06-.41-.68-.41-1.07v-4.41h1.6c4.14 0 6.51-3.14 6.51-7.02 0-2.55-2.46-5.98-6.01-5.98h-5.95v.47c.3.3.56 1.63.5 1.75zm3.38 7.76v-6.93h1.98c1.6 0 2.72 2.34 2.72 3.29 0 .88-.62 3.64-2.7 3.64h-2zm-76.3-15.2h3.97l.24-.47c-.27-.06-.48-.65-.48-1.03V62.33h2.9c.27 0 .75.45.78.8h.38v-3.88H32.84v3.94h.38c.03-.32.54-.86.77-.86h2.79V76.5c0 .35-.15.94-.42 1.03l.18.48zm11.23-9.44c0-1.84.3-3.35.88-4.5.6-1.15 1.37-1.72 2.31-1.72.92 0 1.7.57 2.31 1.72.6 1.15.9 2.66.9 4.5 0 1.87-.3 3.38-.9 4.5-.62 1.16-1.39 1.72-2.3 1.72-.95 0-1.72-.56-2.32-1.72a9.73 9.73 0 0 1-.88-4.5zm-3.32-.03c0 2.87.62 5.21 1.84 7.05 1.18 1.84 2.72 2.75 4.62 2.75s3.43-.91 4.65-2.75c1.21-1.84 1.83-4.18 1.83-7.05s-.62-5.24-1.83-7.08c-1.22-1.83-2.76-2.78-4.65-2.78s-3.44.95-4.62 2.78c-1.22 1.87-1.84 4.2-1.84 7.08zm14.04 9.21h4.8v-.47c-.27-.1-.66-.68-.66-1.04v-8.2l2.73 4.8h1.04l2.99-4.8v8.2c0 .33-.45.95-.71 1.04v.47h4.65v-.47c-.27-.1-.48-.63-.48-1.04v-15.7c0-.32.03-.53.1-.62.08-.11.05-.17.29-.17v-.5h-4.6v.5c.21 0 .1.77.07.86l-2.82 5.33-2.72-5.33c-.03-.06.06-.83.23-.86v-.5h-4.76v.5c.2 0 .53.56.53.83v15.66c0 .36-.39.95-.68 1.04v.47zm21.44-7.88l1.33-4.53 1.28 4.53h-2.6zm-1.95 7.11c-.12-.12.77-3.58.77-3.58h4.94s.92 3.5.86 3.58a2.7 2.7 0 0 1-.5.24v.5h4.68v-.53c-.21-.06-.71-.68-.8-1l-4.27-15.44c-.03-.11-.06-.94.21-1l.03-.5h-5.1v.47c.21.06.06.94.03 1.03L74.7 76.16c-.12.39-.6.98-.83 1v.54h4.23v-.5c-.23-.03 0-.12-.11-.24zM90.42 78h3.96l.24-.48c-.24-.06-.44-.65-.47-1.03V62.33h2.9c.27 0 .74.45.77.8h.38v-3.88H86.71v3.94h.39c.03-.32.53-.86.8-.86h2.78V76.5c0 .35-.18.94-.44 1.03l.18.48zm10.4-9.45c0-1.84.29-3.35.88-4.5.6-1.15 1.33-1.72 2.28-1.72.95 0 1.72.57 2.31 1.72.6 1.15.92 2.66.92 4.5 0 1.87-.33 3.38-.92 4.5-.6 1.16-1.36 1.72-2.31 1.72-.92 0-1.69-.56-2.28-1.72a9.73 9.73 0 0 1-.89-4.5zm-3.33-.03c0 2.87.63 5.21 1.81 7.05 1.22 1.84 2.76 2.75 4.65 2.75 1.87 0 3.44-.91 4.65-2.75 1.22-1.84 1.84-4.18 1.84-7.05s-.62-5.24-1.84-7.08c-1.21-1.83-2.78-2.78-4.65-2.78-1.9 0-3.43.95-4.65 2.78-1.18 1.87-1.8 4.2-1.8 7.08zm-38.32 33.4h4l.23-.5c-.26-.06-.44-.62-.47-1.04V86.23h2.28c.27 0 1.04.47 1.1.8h.35v-3.88h-10.9v3.94h.36c.06-.33.77-.86 1-.86h2.32v14.15c0 .36-.15.95-.42 1.04l.15.5zm6.96-9.44c0 2.87.62 5.2 1.84 7.05 1.18 1.83 2.72 2.93 4.62 2.93 1.03 0 2.36-.15 3.22-.36l.92.27h.56v-4.41s-.2-.12-.56.06c-.98 1.24-2.28 1.24-3.7 1.24 0 0-1.9-.92-2.49-2.04a9.81 9.81 0 0 1-.89-4.5c0-1.87.3-3.38.9-4.5.58-1.16 1.18-2.29 2.92-2.29 1.43 0 2.73.42 2.97 1.72l.62.03v-5.06h-.56l-.24.44c-1-.35-2.37-.44-3.67-.44-1.9 0-3.44.94-4.62 2.78-1.22 1.87-1.84 4.2-1.84 7.08zm9.9-83.1h-6.11l.5.9c.18.4.42 1.18.42 2.27L70.6 26.8c0 1.06-.15 1.77-.3 2.43l-.59 1.03h5.87l-.63-1.03c-.17-.66-.38-1.37-.38-2.43l.15-13.92c0-1.1.32-1.66.47-2.1l.83-1.4zm2.86 0l.48 1.04c.26.48.18 1.1.18 2.16l-1.22 13.3c-.15 1.07-.15 1.9-.32 2.34l-1.3 1.84 5.3.5-.66-1.8c-.18-.63.95-9.66.95-9.66.53.09 3.67 11.9 3.67 11.9l4.8.33-.44-1.13c-.18-.65-.15-1.15-.1-2.3l1.31-13.92c.18-1.07.5-1.63.65-2.05l.68-1.12-5.1-.57.48 1.78c.24 1.07-.7 9.63-.7 9.63-.4-.1-3.65-11.9-3.65-11.9l-5-.36zm22.9 3.44l-3.02-1-2.37 5.6c.8-.48 1.72-.93 2.43-1.05a6.54 6.54 0 0 1 3.5.9l-8.95 9.8-1.19 4.55c3.94 1.1 7.35 1.78 9.66 2.67l2.46-5.33c-.74.5-1.84.83-2.61.86-.92 0-2.04-.18-3.91-.86l9.24-10.37 1.19-4.05-6.43-1.72zm-56.96.6l.9.82c.5.56.8 1.16 1.06 2.22l1.18 4.2-3.85 1.2-1.33-4.18a12.29 12.29 0 0 1-.41-2.4l.11-1.1-5.62 1.84.97.98c.21.2.9.97 1.16 2.04l4.12 13.12c.26 1.06.5 1.69.53 2.13l-.33 1.51 2.1-.74 3.5-1.18-.86-.83c-.53-.5-.97-1.01-1.24-2.08l-1.45-4.68 4.03-1.36 1.68 4.71c.24 1.07.3 1.51.15 2.16l-.12 1.36 5.75-1.83-1.22-1.07c-.2-.44-.56-.7-.82-1.77l-4.18-13.21a11.72 11.72 0 0 1-.39-2.07l.1-1.7-5.52 1.9zm11.85-1.7c.18.42.39 1.28.56 2.34l1.57 13.36a5 5 0 0 1 0 2.34l-.62 1.5 9.57-.97-.1-5.48-1.3 1.22c-.38.2-.85.44-1.71.47l-2.07.1-.36-4.78 1.69-.2a3 3 0 0 1 2.19.65l-.41-5.72c-.86.98-1.4 1.07-2.29 1.13l-1.71.15-.24-3.7 1.84-.21c1.06-.1 2.07.3 2.78 1.03l-.95-5.45L56 10.54l.68 1.19z"/><path fill-rule="evenodd" clip-rule="evenodd" fill="#009540" d="M68.38 133.37l-.09-.53a4.8 4.8 0 0 0-.09-.53c0-.12-.03-.33-.06-.57 0-.26-.03-.44-.06-.56l-.17-.03-.15.03-.15.03h-.15c-.03.15 0 .27.03.41 0 .15.03.27.03.36.03.03 0 .06-.03.06-.03.03-.15.03-.38.06l-.45.06c-.06-.15-.06-.27-.06-.45 0-.14-.03-.3-.03-.35h-.35l-.15.03h-.15c-.03.18 0 .35.06.62.03.24.06.44.06.56.03.12.06.3.06.54.03.23.03.41.06.53a.6.6 0 0 0 .32 0c.18 0 .3-.03.33-.03l-.03-.45-.06-.38c0-.03 0-.06.03-.06.03-.03.18-.06.42-.09.23 0 .35-.03.38-.03.03 0 .06.03.06.1 0 .05.03.2.03.38.03.14.03.3.03.38.09.03.2.03.35 0 .15 0 .24-.03.3-.03l.06-.06zm2.75-.65c-.11-.03-.2-.03-.3-.03-.11.03-.2.03-.26.03h-.26c-.12 0-.18-.03-.21-.06 0-.03 0-.09-.03-.18v-.08c.03-.03.06-.03.09-.03l.17-.03c.24 0 .39 0 .45.02h.15c.03-.11.06-.2.06-.3 0-.17.03-.26.03-.23l-.15-.03h-.1c-.14 0-.26 0-.4.03h-.1c-.11 0-.14 0-.17-.03s-.03-.09-.03-.15v-.11c.03-.03.06-.06.12-.06.23 0 .5 0 .8.03.06-.06.06-.15.03-.27 0-.12 0-.2-.03-.24 0-.03-.03-.06-.1-.06l-.35.03h-1.12v.45c0 .35.03.59.03.7 0 .13 0 .3-.03.54v.56l.44.03H70.95c.07 0 .1 0 .1-.03.03 0 .03-.09.06-.23l.02-.27zm1.81-.65c0-.12.03-.3.03-.53 0-.24.03-.42.03-.54l-.2-.03h-.48c-.03.15-.03.33-.03.57.03.23.03.41.03.53 0 .12-.03.41-.03.86l-.03.3c.09.05.2.05.36.05.11 0 .23 0 .3-.03.05-.14.05-.35.05-.62 0-.23-.03-.44-.03-.56zm3.44-.86l-.33-.06h-.3c-.05.18-.05.33-.05.56v.54c0 .06 0 .11-.03.11s-.03-.02-.06-.05l-.24-.33-.6-.89c-.08-.06-.11-.06-.17-.03h-.39c-.05.15-.05.36-.05.6-.03.26-.03.44-.03.56 0 .12-.03.3-.03.53-.03.24-.06.41-.06.53l.62.1c.06-.19.06-.4.06-.63 0-.27.03-.44.03-.56l.35.44.5.71c.04.06.07.06.1.06l.11.03h.24l.12.03.12-1.12c0-.12.03-.33.06-.57 0-.26.03-.44.03-.56zm2.48 2.84c.12-.17.15-.35.21-.53-.06-.03-.12-.03-.18-.03l-.17-.03c-.12 0-.27-.03-.5-.09-.04-.03.14-.2.47-.53l.56-.56c.06-.24.09-.36.09-.45a6.38 6.38 0 0 0-.71-.18c-.3-.05-.54-.11-.68-.14-.06.09-.1.14-.15.26-.03.12-.06.18-.06.24l.35.09.36.06c.03.06-.15.26-.5.62l-.5.53v.12c-.04.12-.04.24-.04.3l.48.12.38.08.3.06.3.06zm-16.58-1.5c1.27-5.28 14.6-4.36 20.67-.48 2.73 1.72.77 4.5-2.72 3.88-5.25-.9-10.04-1-13.27.06-1.99.68-4.09-.24-4.36-1.75-.26-.03-.91.03-1.36.24-.35.17-.44-.18-.26-.6.41-.97.74-1.15 1.3-1.36zm-9.6 9.91h3.2l-.06.48c-.23.23-.53.56-.86.92-.3.32-.62.8-.8 1.2-.26.54-.23 1.22-.32 2.05l-.1.15-.14.06-1.4.44c-.08-.06-.14-.11-.08-.23.03-.6.41-1.51.71-2.25.18-.42.53-.98 1.19-1.63.03-.06.03-.06.03-.12-.03-.03-.03-.06-.12-.06-.77-.06-1.04-.12-1.4.03l-.5.18h-.09l.03-.12.39-.89.15-.15c.05-.03.08-.06.17-.06zm-1.06.12c.06.03.06.06 0 .12-.15.33-.3.62-.48.8-.03.03-.06.06-.12.06 0 0-.03 0-.08-.03a.91.91 0 0 0-.57-.18h-1.12c-.06 0-.12 0-.18.03s-.15.06-.2.15l-.69.83c.24-.03.56-.1.95-.1.53 0 .95.1 1.24.19.39.12.62.32.74.62.12.24.12.53.03.86-.12.38-.35.77-.8 1.03-.56.36-1.15.5-1.9.5-.8 0-1.38-.11-1.74-.38-.33-.23-.8-.83-.8-1.54 0-.3.44-.23.74-.15.2.1.47.3.53.48.15.3.18.44.45.68.26.18.5.2.7.24.25.06.51 0 .8-.1.25-.08.51-.32.57-.5.15-.3.12-.59 0-.85-.12-.24-.38-.39-.8-.42-.38-.03-.68 0-.89.12h-1.06c-.15 0-.15-.09 0-.24l1.63-2.13c.06-.06.11-.06.17-.09.1-.06.15-.09.24-.09h2.52c.06 0 .09.03.12.1zm10.16 3.29l1.03-2.46c.03-.09.06-.18.06-.24 0-.09-.06-.14-.18-.17v-.1H64v.1c-.08 0-.14.03-.17.08-.03.03-.09.15-.15.33l-1.33 3.14a.8.8 0 0 0-.09.24c0 .11.06.17.18.2v.1h-1.34v-.1c.12-.03.18-.09.18-.2a.8.8 0 0 0-.09-.24l-1.33-3.14c-.06-.18-.12-.3-.15-.33-.06-.05-.09-.08-.18-.08v-.1h1.37v.1c-.12.03-.18.08-.18.17 0 .06 0 .15.06.24l1 2.46zm6.13.15h-1.87l-.3.59c-.03.09-.03.15-.03.18 0 .08.06.14.18.2v.1h-1.36v-.1l.2-.09c.04-.05.1-.11.13-.23l1.54-3.23a.9.9 0 0 0 .05-.24c0-.09-.05-.17-.17-.2v-.1h1.48v.1c-.12.03-.18.08-.18.17 0 .06 0 .12.03.21l1.57 3.23c.09.12.15.24.18.26.06.06.12.1.2.12v.1h-1.5v-.1c.11-.03.17-.09.17-.2 0-.03 0-.1-.06-.18l-.26-.6zm-.27-.57l-.65-1.48-.68 1.48h1.33zm4.18-.08v1.39c0 .06 0 .11.03.14l.14.1v.08h-1.21V147a.32.32 0 0 0 .15-.09.22.22 0 0 0 .06-.14v-3.53c0-.09-.03-.12-.06-.15-.03-.02-.06-.05-.15-.08v-.1h2.43c.3 0 .53 0 .68.07.18.03.32.09.47.17.15.12.24.27.33.45.06.18.09.35.09.56 0 .68-.33 1.07-1.04 1.19l.74 1.15c.15.2.24.33.3.38.06.06.15.1.23.12v.1h-1.39v-.1c.1-.03.12-.06.12-.12a.75.75 0 0 0-.12-.26l-.8-1.25h-1zm0-.69h1.3c.18 0 .32 0 .41-.03.06 0 .15-.03.21-.06.15-.08.2-.23.2-.44 0-.24-.05-.38-.2-.47a.54.54 0 0 0-.2-.06c-.1-.03-.24-.03-.42-.03h-1.3v1.1zm5.24 2.08v-3.53c0-.09-.03-.12-.06-.15a.48.48 0 0 0-.18-.08v-.1h1.51v.1a.48.48 0 0 0-.18.08c-.03.03-.06.06-.06.15v3.53c0 .06.03.11.06.14.03.03.1.06.18.1v.08h-1.5V147a.48.48 0 0 0 .17-.09.22.22 0 0 0 .06-.14zm3.64-1.51v1.15h1.99c.05 0 .08-.03.11-.06 0-.03.03-.06.06-.15h.06v1.1h-.06a1.17 1.17 0 0 0-.06-.15c-.03-.03-.06-.06-.11-.06H79.9V147a.4.4 0 0 0 .12-.09c0-.03.03-.08.03-.14v-3.53c0-.09-.03-.12-.03-.15l-.12-.08v-.1h2.73c.06 0 .08-.02.11-.05.03-.03.03-.06.06-.15h.06v1.1h-.06c-.03-.1-.03-.15-.06-.18s-.05-.03-.11-.03H80.7v.98h1.24c.06 0 .1 0 .12-.03.03-.03.03-.1.06-.15h.06v1.06h-.06c-.03-.09-.03-.14-.06-.17s-.06-.03-.12-.03H80.7zm5.72-1.66v3.17c0 .06.03.11.06.14l.11.1v.08h-1.18V147c.06-.03.12-.06.15-.09s.03-.08.03-.14v-3.17H84.4c-.06 0-.12 0-.14.03-.03.03-.03.09-.06.18h-.1v-1.1h.1c.03.09.06.12.06.15.02.03.08.06.14.06h3.2c.06 0 .12-.03.15-.06s.06-.06.06-.15h.12v1.1h-.12c0-.1-.03-.15-.06-.18s-.09-.03-.15-.03h-1.18zm13.92-.33l-.39.98-.09-.06c.03-.03.03-.03.03-.06 0-.06-.06-.12-.15-.2-.26-.27-.59-.4-.97-.4a.99.99 0 0 0-.45.1c-.09.03-.14.09-.2.18a.48.48 0 0 0-.1.26c0 .15.07.27.21.33.1.03.24.06.48.09l.38.06c.21.03.39.05.54.11.11.06.23.12.35.24.1.09.18.2.24.39.06.14.09.32.09.53 0 .3-.06.53-.21.77-.12.2-.33.35-.62.47-.2.06-.42.12-.65.12-.42 0-.83-.15-1.25-.41-.09-.06-.14-.06-.14-.06-.04 0-.06 0-.12.06l-.06-.06.35-1.01.06.03v.03c0 .09.03.18.09.27.12.11.27.2.47.3.21.08.42.14.63.14.2 0 .38-.06.53-.15l.18-.2a.48.48 0 0 0 .09-.27c0-.15-.06-.24-.18-.3-.1-.03-.24-.09-.5-.12l-.36-.03c-.24-.05-.42-.08-.5-.11-.1-.03-.21-.06-.3-.12a.9.9 0 0 1-.33-.42 1.25 1.25 0 0 1-.11-.59c0-.35.08-.65.26-.86.27-.32.62-.47 1.1-.47.2 0 .41.03.6.09.17.06.38.15.64.3.1.05.15.05.15.05.06 0 .09 0 .12-.06l.09.06zm-10.52 3.5v-3.53c0-.09 0-.12-.03-.15a.49.49 0 0 0-.17-.08v-.1h1.5v.1a.47.47 0 0 0-.17.08c-.03.03-.06.06-.06.15v3.53c0 .06.03.11.06.14.03.03.09.06.18.1v.08h-1.51V147a.48.48 0 0 0 .17-.09c.03-.03.03-.08.03-.14zm3.82-1.51v1.15h1.99c.03 0 .09-.03.09-.06.03-.03.06-.06.06-.15h.08v1.1h-.08c0-.09-.03-.15-.06-.15 0-.03-.06-.06-.1-.06h-2.78V147c.03-.03.1-.06.1-.09.02-.03.02-.08.02-.14v-3.53c0-.09 0-.12-.03-.15 0-.02-.06-.05-.09-.08v-.1h2.73c.06 0 .09-.02.12-.05 0-.03.03-.06.06-.15h.06v1.1h-.06l-.06-.18c-.03-.03-.06-.03-.12-.03h-1.93v.98h1.25c.06 0 .09 0 .12-.03s.03-.1.05-.15h.06v1.06h-.06c-.02-.09-.02-.14-.05-.17-.03-.03-.06-.03-.12-.03h-1.25z"/></svg>