<svg xmlns="http://www.w3.org/2000/svg" viewBox="0 0 54.563 5.3008"><path fill="#027E3C" d="M16.6289 4.7217h-1.5376v-.2705l.0771-.0195c.0864-.0225.1006-.0498.1006-.1084-.002-.0127-.0239-.082-.0781-.1904L13.855.9883c-.0605-.1807-.1123-.2773-.127-.2949-.0527-.0527-.0571-.0576-.104-.0576h-.1025v-.294h1.5674v.2715l-.0781.0195c-.0996.0244-.0996.0605-.0996.0781 0 .0527 0 .1172.042.1807l.9233 2.2461.9404-2.2295c.0234-.0723.0513-.1553.0513-.1973 0-.0176 0-.0537-.0996-.0781l-.0781-.0195V.3418h1.5083v.2939h-.1025c-.0698 0-.0811.0225-.0859.0322l-.019.0264c-.0137.0166-.0654.1133-.123.2861l-1.3359 3.1465c-.0566.1143-.0786.1836-.0806.2002 0 .0547.0142.083.1001.1045l.0771.0195v.2706zm7.0684-.2881c-.0845-.0283-.125-.0518-.167-.0928-.0107-.0127-.0254-.0381-.0454-.0703-.0317-.0518-.0728-.1191-.1133-.1699L21.8071.8858c-.0244-.0732-.0244-.1182-.0244-.1748 0-.0176 0-.0537.0991-.0781L21.96.6133V.3418h-1.686v.2715l.0781.0195c.062.0156.0996.0557.0996.1074 0 .0439-.0313.1367-.0493.1934l-1.5469 3.2471c-.0166.0654-.0449.1084-.0718.1504-.0078.0107-.0146.0225-.0215.0322-.0464.0234-.0967.0469-.166.0703l-.0693.0244v.2637h1.5674v-.2539l-.0566-.0283c-.1211-.0605-.1211-.0967-.1211-.1162 0-.0254 0-.0723.019-.1318l.2676-.5352h1.7363l.2471.5469c.0425.0625.0425.0986.0425.1201 0 .0586-.0142.0859-.1006.1084l-.0771.0195v.2705h1.7153V4.458l-.0694-.0244zm-3.1304-1.5449l.5186-1.1279.4956 1.1279h-1.0142zm7.0527 1.5693v.2637h1.5967l-.0059-.2666-.0703-.0234c-.0771-.0264-.1494-.0508-.1914-.0918-.0537-.0547-.1455-.1777-.2813-.3682l-.6597-1.0273c.6528-.1563.9712-.5684.9712-1.2559 0-.2148-.0293-.4043-.0996-.6094-.1016-.2021-.1963-.3535-.3643-.4854-.168-.1006-.3301-.1611-.4888-.1855-.166-.0664-.4102-.0664-.7192-.0664h-2.5313v.2656l.0703.0234c.0645.0215.0825.0391.1079.0635.022.0225.0293.0293.0293.0762v3.5234c0 .0293-.0176.0625-.0298.0752-.0239.0244-.041.042-.1084.0645l-.0691.0244v.2637h1.4194v-.1026l-.0098-.1563-.0562-.0283c-.04-.0205-.0947-.0488-.106-.0576-.0054-.0127-.0054-.0566-.0054-.083v-1.289h.8481l.7676 1.1934c.0894.1494.103.2119.1074.2119-.0024.002-.0137.0107-.0522.0234l-.0692.0244zm.0137-2.3691l-.0332.0049c-.0728.0254-.2227.0254-.3818.0254h-1.2002v-.8917h1.2002c.1592 0 .3091 0 .3818.0254l.0332.0049c.0361 0 .1079.0215.1543.0449.0815.0488.1572.1289.1572.3857 0 .1807-.0488.29-.1509.3516-.0527.0274-.1244.0489-.1606.0489zm4.9004 2.6328h-1.7158V4.458l.0693-.0244c.1064-.0361.1328-.0596.1367-.0635.0146-.0137.0313-.0469.0313-.0762V.7705c0-.0469-.0078-.0537-.0283-.0742-.0059-.0059-.0342-.0313-.1387-.0654l-.0703-.0234V.3418h1.7158v.2656l-.0703.0234c-.1045.0342-.1328.0596-.1377.0635-.0225.0234-.0293.0303-.0293.0762v3.5234c0 .0293.0176.0625.0293.0752.0059.0049.0322.0283.1387.0645l.0693.0244v.2637zm4.5908.208h-.2363l-.0234-.0703c-.0186-.0557-.0371-.0986-.0469-.1201-.0166-.0166-.0215-.0176-.0332-.0176H33.898v-.2539l.0557-.0283c.0322-.0166.0527-.0313.0693-.0479.0029-.0098.0059-.0195.0088-.0293.0068-.0225.0146-.0488.0146-.0684V.7705c0-.0381-.0078-.0566-.0146-.0771-.0029-.0059-.0049-.0127-.0068-.0195-.0195-.0186-.0391-.0332-.0693-.0488L33.898.5977V.3418h2.8271c.0146 0 .0186-.002.0469-.0293.0029-.0049.0078-.0234.0127-.04l.0439-.1377h.2363v1.3008h-.2363l-.0234-.0703c-.0127-.0371-.0195-.0703-.0264-.0977-.0039-.0176-.0098-.04-.0127-.0469.0029.0068-.0215.0068-.041.0068h-1.8223V2h1.1416c.0176 0 .0391 0 .0488-.002-.0039-.001-.001-.0146.002-.0244.0088-.0293.0186-.0625.0352-.0957l.0283-.0557h.2256v1.2715h-.2354l-.0244-.0693c-.0127-.0381-.0205-.0713-.0273-.0996-.0039-.0176-.0098-.0391-.0127-.0459.0029.0068-.0205.0068-.04.0068h-1.1416v.9502h1.8818c.0098 0 .0146-.001.0244-.0088.0059-.0166.0137-.0313.0205-.0459.0098-.0186.0225-.0439.0352-.082l.0234-.0703h.2363v1.3008zm3.6719-.208h-1.3896v-.2539l.0557-.0283c.0498-.0254.1045-.0527.123-.0703-.001-.0049-.001-.0488-.001-.0752V1.2275h-1.082c-.0254 0-.0664 0-.0811.0049h.001c.0059 0 .001.0205-.0029.0361-.0068.0283-.0146.0596-.0264.0967l-.0234.0703h-.2657V.1348h.2656l.0234.0703c.0127.0381.0254.0635.0352.083.0059.0117.0127.0244.0176.0371.0156.0088.0371.0166.0566.0166h3.1982c.0313 0 .0645-.0186.0742-.0283.0244-.0244.0313-.0313.0313-.0762V.1348h.3232v1.3008h-.3232V1.333c0-.0752-.0283-.1035-.0293-.1055H40.6186v3.0664c0 .0293.0176.0625.0293.0752.0273.0273.0488.0479.0928.0703l.0557.0293v.253zm12.1299.0898c-.417 0-.8545-.1445-1.2998-.4307-.0596-.04-.0957-.0439-.0957-.0439-.0068 0-.0176.0039-.043.0293l-.0732.0732-.1758-.1787.415-1.1777.2197.1113v.0928c0 .0693.0234.1377.0713.209.0918.0889.2236.1709.4297.2588.4443.1895.7627.1846 1.0615.0068.0371-.042.0908-.0957.1455-.1768.0479-.0713.0713-.1396.0713-.209 0-.1045-.0332-.1602-.1211-.2041l-.0234-.0068c-.0889-.0303-.2236-.0771-.4453-.1016l-.3525-.0293c-.123-.0293-.2178-.0498-.2979-.0674-.1006-.0215-.1787-.0391-.2295-.0557l-.0576-.0186c-.085-.0273-.1807-.0576-.2627-.1113-.1758-.1406-.3008-.2705-.3672-.4688-.0859-.1699-.123-.3545-.123-.624 0-.3828.1006-.7031.291-.9258.2803-.3428.665-.5098 1.1738-.5098.2256 0 .4414.0322.625.0938.207.0693.4258.1689.6689.3037.0654.043.1016.0469.1016.0469.0098 0 .0264 0 .0313-.001l.0527-.1035.2461.168-.4629 1.1729-.3008-.2012.084-.0811c-.0176-.0332-.0693-.085-.1113-.1279-.2393-.2383-.5352-.3545-.9053-.3545-.1611 0-.2949.0264-.3984.0781-.0713.0244-.1133.0625-.168.1436-.0479.0713-.0713.1396-.0713.209 0 .1553.0811.2051.1426.2295.085.0283.2383.0566.4482.083l.3887.0596c.1992.0284.3936.0596.5557.1241.1357.0684.2607.1318.3896.2607.1221.1211.207.2598.2617.4248.0615.1523.0938.3447.0938.5654 0 .3242-.0684.5791-.2227.8242-.123.2168-.3369.3809-.6709.5146-.2197.0636-.4375.1261-.6894.1261zm-7.5977-.0898h-1.7158V4.458l.0693-.0244c.1025-.0342.1318-.0586.1387-.0645-.001-.0049-.001-.0488-.001-.0752V.7705c0-.0361 0-.0723-.0029-.082-.0039 0-.0352-.0254-.1338-.0576l-.0703-.0234V.3418h1.7158v.2656l-.0703.0234c-.1035.0342-.1328.0596-.1377.0635-.0215.0225-.0293.0293-.0293.0762v3.5234c0 .0293.0166.0625.0283.0732.0088.0088.0361.0322.1396.0664l.0693.0234v.2648zm4.7383.208h-.2939v-.1026c0-.0186-.002-.0342-.0039-.0459h-.0547v-.0537l-2.873-.0059v-.2323l.0282-.0293c.0137-.0137.0313-.0283.0488-.041.0039-.0029.0078-.0059.0117-.0088v-.0118l.0303-.0293c-.001-.0049-.001-.0488-.001-.0752V.7705c0-.0361 0-.0723-.0029-.082l-.0303-.0303.001-.0068c-.0029-.002-.0059-.0039-.0098-.0068-.0166-.0127-.0332-.0264-.0459-.0391l-.0303-.0293V.3418h2.8271c.0098 0 .0146-.001.0244-.0098.0059-.0156.0127-.0303.0205-.0439.0098-.0195.0225-.0449.0352-.083l.0234-.0703h.2354v1.3008h-.2352l-.0234-.0703c-.0107-.0332-.0225-.0625-.0313-.0869-.0078-.0186-.0137-.0352-.0195-.0508H47.8462V2h1.1406c.0176 0 .04 0 .0488-.002-.0029-.001 0-.0146.0029-.0254.0088-.0283.0176-.0605.0342-.0928l.0273-.0576h.2266v1.2715h-.2363l-.0234-.0703c-.0127-.0371-.0195-.0703-.0264-.0977-.0039-.0176-.0098-.04-.0127-.0469.0029.0068-.0215.0068-.041.0068h-1.1406v.9502h1.8701l.0264-.0273c.0234-.0244.0303-.0313.0303-.0771v-.1025h.2939v1.3008z"/><path fill-rule="evenodd" clip-rule="evenodd" fill="#009540" d="M6.7822 0H9.981l-.0591.4736c-.2368.2373-.5332.5635-.8589.919-.2964.3252-.6221.7988-.7998 1.2138-.2666.5323-.2368 1.2139-.3257 2.043l-.0889.1475-.1484.0595-1.3916.4444c-.0889-.0596-.1484-.1182-.0889-.2373.0298-.5918.4146-1.5098.711-2.25.1777-.4151.5332-.9776 1.1845-1.6289.0298-.0596.0298-.0596.0298-.1182-.0298-.0293-.0298-.0596-.1186-.0596-.77-.0586-1.0366-.1181-1.3921.0303l-.5034.1777H6.042s0-.0302.0298-.1191L6.4566.207c.059-.0586.1186-.1181.1484-.1474C6.6641.0293 6.6934 0 6.7822 0zM5.7163.1191c.0591.0293.0591.0586 0 .1182-.1479.3252-.2964.6221-.4741.7998-.0293.0293-.0591.0586-.1187.0586 0 0-.0293 0-.0883-.0293-.148-.1182-.3555-.1777-.563-.1777H3.3467c-.0591 0-.1187 0-.1777.0293-.0591.0302-.148.0595-.2071.1484l-.6811.8291c.2368-.0293.5625-.0889.9472-.0889.5332 0 .9483.0889 1.2442.1778.3852.1181.622.3252.7407.622.1182.2364.1182.5323.0293.8584-.1187.3848-.355.7696-.7998 1.0362-.5625.3554-1.1548.5039-1.8955.5039-.7993 0-1.3916-.1192-1.7471-.3858C.4741 4.3828 0 3.79 0 3.0801c0-.2969.4443-.2373.7407-.1485.2071.0889.4737.2959.5332.4737.148.2968.1773.4443.4439.6816.2666.1777.5034.207.7109.2363.2368.0596.5034 0 .7993-.0888.2373-.0889.5039-.3252.563-.503.148-.2959.1187-.5927 0-.8584-.1181-.2373-.3852-.3857-.7993-.415-.3852-.0293-.6816 0-.8887.1182H1.0366c-.1479 0-.1479-.0889 0-.2364L2.6655.207c.0591-.0586.1187-.0586.1778-.0879.0888-.0595.1484-.0898.2368-.0898h2.5176c.059 0 .0888.0303.1186.0898zm9.6978 4.3975h.8921c-.0396-.0508-.0596-.1152-.0596-.1934 0-.0752.0693-.2227.0991-.2822L17.6758.9082c.0186-.0566.0903-.2627.1577-.3447.0029-.0059.0063-.0107.0098-.0166h-.8262c.0464.0566.0562.1201.0562.1641 0 .0742-.0298.166-.062.2627l-1.1377 2.6992L14.7725.9874c-.0664-.0967-.0664-.209-.0664-.2764 0-.0439.0098-.1074.0562-.1641h-.8901c.001.001.002.002.0024.0029.0708.0703.1499.2979.1729.3662l1.3301 3.1309c.0273.0537.0967.2012.0967.2764-.0002.0781-.0202.1425-.0602.1933zm8.0039 0c-.0112-.0098-.0225-.0205-.0342-.0322-.022-.0215-.0425-.0557-.0737-.1064-.0293-.0479-.0669-.1094-.1133-.1709L21.6172.963c-.0396-.1172-.0396-.1885-.0396-.252 0-.0439.0098-.1074.0557-.1641h-1.0464c.0444.0537.0698.1211.0698.1934s-.0264.1572-.064.2695L19.0479 4.249c-.0176.0811-.061.1465-.0928.1943-.0103.0156-.0195.0303-.0269.0449l-.0146.0283h.877c-.0464-.0488-.0791-.1104-.0791-.1934 0-.0342 0-.1055.0347-.21l.3301-.6621h1.9961l.2935.6523c.0684.0996.0684.1836.0684.2197 0 .0781-.02.1426-.0601.1934h1.0438zm-3.1724-1.4229l.8438-1.833.8071 1.833h-1.6509zm8.5938 1.4229c-.0117-.0098-.0244-.0205-.0352-.0322-.0654-.0645-.1543-.1846-.3076-.3975l-.8267-1.2891.1533-.0264c.6577-.1104.9507-.4443.9507-1.083 0-.1924-.0264-.3604-.084-.5313-.083-.1631-.1641-.2939-.292-.3955-.1353-.0801-.2705-.1309-.4268-.1563-.1509-.0586-.3887-.0586-.6641-.0586h-2.21l.0005.001c.0469.0469.0908.1006.0908.2227v3.5234c0 .0967-.0479.1787-.0889.2197-.001.001-.0015.002-.0024.0029h.7773l-.0029-.0029c-.0584-.0584-.0584-.1444-.0584-.2196V2.7998h1.1655l.8301 1.29c.0513.0859.1343.2373.1343.3223 0 .043-.0098.0771-.0259.1045h.9224zm-1.6211-2.1924H25.813V1.0225h1.4053c.1826 0 .3286 0 .4326.0303.0767.0049.1719.0381.2358.0703.2368.1406.2632.3896.2632.5654 0 .2549-.084.4287-.2568.5312-.0698.0361-.1655.0693-.2422.0742-.104.0303-.25.0303-.4326.0303zm3.9502 2.1924h1.0146c-.001-.001-.002-.0029-.0039-.0039-.04-.04-.0879-.1221-.0879-.2188V.7705c0-.1211.0439-.1758.0898-.2207 0-.001.001-.002.002-.0029h-1.0146c.001.001.002.002.002.0029.043.041.0898.0967.0898.2207v3.5234c0 .0811-.0352.168-.0908.2217 0 0-.001 0-.001.001zm3.0205 0h2.5957c.0586 0 .1025.0186.1348.041V4.001c-.0332.0215-.0762.04-.1348.04h-2.0869V2.6807h1.3467c.0469 0 .0918 0 .1348.0195v-.5147c-.043.0195-.0879.0195-.1348.0195h-1.3467V1.0225h2.0273c.0469 0 .0918 0 .1348.0195V.5068c-.0332.0225-.0762.04-.1348.04H34.189l.0303.0303.002.0449c.0137.0273.0303.0732.0303.1484v3.5234c0 .0498-.0137.0947-.0234.1279-.0029.0098-.0059.0186-.0068.0254v.042l-.0283.0234c-.0022.0012-.0031.0031-.0041.0041zm5.539 0h.7773c-.001-.001-.002-.0029-.0039-.0039-.04-.04-.0879-.1221-.0879-.2188V1.0225h1.2871c.0762 0 .1631 0 .2227.0615 0 0 0 .001.001.001V.4551c-.001.001-.001.001-.002.001-.0527.0557-.1396.0908-.2217.0908h-3.1982c-.0684 0-.1396-.0244-.1934-.0654v.5781c.0557-.0371.1279-.0371.1934-.0371h1.2871V4.294c0 .0752 0 .1611-.0596.2197.0001.0009-.0009.0019-.0019.0029zm11.8067-.3848c.0146 0 .0957.0039.2051.0771.416.2666.8047.3975 1.1865.3975.2227 0 .4258-.0586.623-.1152.2783-.1123.46-.248.5615-.4258.1357-.2178.1934-.4307.1934-.7188 0-.1943-.0273-.3613-.082-.4951-.0469-.1416-.1133-.251-.2129-.3506-.1064-.1055-.2119-.1582-.3242-.2148-.1387-.0557-.3184-.085-.5068-.1113l-.3867-.0596c-.2236-.0273-.3848-.0586-.4902-.0928-.1807-.0723-.2773-.2217-.2773-.4229 0-.1094.0352-.2188.1064-.3242.0557-.084.1309-.1748.2598-.2178.1201-.0615.2813-.0938.4766-.0938.4277 0 .7715.1357 1.0498.415.0518.0508.0957.0947.127.1387l.2432-.6172c-.0205.002-.04.002-.0576.002-.0146 0-.0957-.0039-.2051-.0771-.2246-.124-.4316-.2178-.627-.2832-.1621-.0547-.3564-.084-.5596-.084-.4492 0-.7725.1387-1.0166.4365-.1592.1865-.2432.4609-.2432.7939 0 .2354.0313.3936.1074.5459.0566.1641.1553.2656.2988.3809.0508.0322.1318.0586.2031.0811l.0615.0195c.0449.0156.1162.0303.208.0508.0811.0176.1777.0381.2871.0654l.3398.0264c.2471.0283.4004.0811.4912.1123l.0352.0117c.1719.084.248.2109.248.3936 0 .1094-.0352.2188-.1064.3242-.0645.0967-.1289.1602-.1904.2217-.3945.2441-.7607.2393-1.2676.0225-.2285-.0976-.3848-.1963-.5059-.3183-.0273-.0391-.0498-.0771-.0674-.1143l-.2188.6211c.0118-.001.0225-.001.0333-.001zm-7.5713.3848h1.0146c-.001-.001-.002-.0029-.0039-.0039-.0527-.0508-.0879-.1377-.0879-.2188V.7705c0-.124.0469-.1797.0908-.2227 0 0 .001 0 .001-.001h-1.0146c0 .001.001.001.001.001.0605.0605.0605.125.0605.2227v3.5234c0 .0752 0 .1611-.0596.2197.0001.001-.0009.002-.0019.003zm3.1484 0h2.6152c.0371 0 .0928.0166.1348.0508v-.5772c-.042.0342-.0977.0508-.1348.0508h-2.0859V2.6807h1.3457c.0469 0 .0918 0 .1348.0195v-.5147c-.0439.0195-.0879.0195-.1348.0195h-1.3457V1.0225h2.0273c.0449 0 .0898 0 .1338.0195V.5068c-.0322.0225-.0762.04-.1338.04h-2.5566c.0059.0088.0107.0166.0146.0264.0381.0527.0381.1123.0381.1973v3.5234c0 .0645 0 .1377-.0381.1943-.0038.0098-.0087.0196-.0146.0284z"/></svg>