<?xml version="1.0" encoding="utf-8"?>
<!-- Generator: Adobe Illustrator 22.0.1, SVG Export Plug-In . SVG Version: 6.00 Build 0)  -->
<svg version="1.1" id="Layer_1" xmlns="http://www.w3.org/2000/svg" xmlns:xlink="http://www.w3.org/1999/xlink" x="0px" y="0px"
	 viewBox="0 0 716.3872 62.0156" enable-background="new 0 0 716.3872 62.0156" xml:space="preserve">
<path d="M11.2485,50.6191c0.2959-2.2207,0.4443-5.8457,0.4443-14.9492V6.7344H8.6582c-2.6641,0-5.624,0.2217-8.6582,0.7402V1.2578
	h31.9702v6.2168c-3.0342-0.5186-5.9204-0.7402-8.585-0.7402h-3.0342v28.9355c0,7.623,0.1479,12.7285,0.5181,14.9492H11.2485z
	 M37.2217,50.6191c0.2959-3.9219,0.4438-6.8828,0.4438-11.0273V12.4326c0-4.8105-0.1479-7.8447-0.4438-11.1748h9.6206
	c-0.3701,2.7383-0.5181,6.1426-0.5181,11.1748v9.3252h14.061v-9.3252c0-5.4766-0.1479-8.7334-0.4438-11.1748h9.5464
	c-0.2959,2.1465-0.4438,5.2539-0.4438,11.1748v26.79c0,5.624,0.1479,8.9541,0.4438,11.3965h-9.5464
	c0.2959-2.6641,0.4438-5.8457,0.4438-10.8789V28.3438h-14.061v11.3965c0,4.959,0.1479,8.1406,0.5181,10.8789H37.2217z
	 M78.7349,50.6191c0.2959-3.9961,0.4443-7.918,0.4443-14.875V13.543c0-6.0684-0.1484-9.8438-0.4443-12.2852h9.5469
	c-0.2959,2.3682-0.4443,5.8457-0.4443,12.2852v22.2754c0,7.5488,0.1484,11.8408,0.4443,14.8008H78.7349z M129.2046,43.8848
	c-3.7002,5.4023-8.2881,7.9922-14.0605,7.9922c-5.5508,0-11.1006-2.7383-14.8008-7.4004
	c-3.1826-3.9961-5.1064-10.1387-5.1064-16.6504C95.2368,11.9141,105.3013,0,118.77,0c2.5908,0,4.5146,0.3691,6.957,1.2578v9.8428
	c-3.1826-3.2568-6.1426-4.7363-9.4727-4.7363c-7.1045,0-11.6934,7.5479-11.6934,19.167c0,11.915,4.8848,19.4629,12.5811,19.4629
	c3.4043,0,5.1807-0.8877,8.585-4.1436L129.2046,43.8848z M134.2349,50.6191c0.2959-2.5898,0.4443-5.8457,0.4443-9.916v-27.457
	c-0.1484-9.9902-0.1484-10.2129-0.4443-11.9883h9.5469c-0.2227,2.1465-0.4443,8.4365-0.4443,11.4707v10.2871l5.5508-9.1035
	c2.4414-4.0703,4.1436-6.3633,6.1426-8.4355c2.6641-2.6641,6.0684-4.293,8.9541-4.293c0.1484,0,0.5186,0,1.0361,0.0742v7.623
	l-1.332-0.0742c-3.1084,0-5.1064,1.7012-8.6582,7.4004l-1.1846,1.8496l8.8066,19.9082c0.3701,0.8135,1.2578,2.6641,2.2939,4.8096
	c2.5166,5.1807,2.8125,5.6982,3.8486,7.8447h-10.3613l-9.9902-23.6816l-5.1064,9.4727v4.5879c0,3.7754,0.1484,7.4746,0.4443,9.6211
	H134.2349z M174.0454,50.6191c0.2959-3.1816,0.4443-7.8447,0.4443-15.541V16.9473c0-7.3271-0.1484-12.1367-0.4443-15.6895h28.418
	v7.252c-3.0342-0.666-7.9922-0.9609-14.8008-0.9609h-4.5146v14.2822h4.8848c3.9961,0,6.2158-0.1475,8.1406-0.666v7.9932
	c-2.3682-0.5186-4.5889-0.666-8.2891-0.666h-4.7363v15.7627h4.8848c11.3965-0.0742,12.3584-0.1484,15.2451-0.7402v7.1045H174.0454z
	 M209.3433,50.6191c0.2959-3.5527,0.4443-6.4385,0.4443-9.9902V11.7666c0-5.4023-0.0742-6.8828-0.4443-10.5088h16.4287
	c9.3994,0,14.9492,4.8848,14.9492,13.0254c0,5.9941-2.96,9.9902-9.5469,12.8027l6.291,13.7646l3.7744,8.3623l0.7402,1.4063h-10.8057
	c-0.1475-0.7402-0.2959-1.2578-0.2959-1.332c-0.0732-0.3701-1.332-3.627-3.2559-8.4365l-4.7363-12.2852h-4.4404v12.2852
	c0,4.5146,0.1484,7.4004,0.4443,9.7686H209.3433z M221.0356,22.127c4.4404,0,5.9209-0.2217,7.623-1.2578
	c1.998-1.2578,3.1084-3.4043,3.1084-6.2168c0-2.8857-1.1846-5.1797-3.4043-6.4375c-1.7764-0.9629-3.2568-1.1846-7.1787-1.1846
	h-2.7383V22.127H221.0356z M246.269,59.6475c3.8477-3.0342,5.2539-5.0322,5.5498-7.9922c-2.7383-0.5186-4.292-2.1455-4.292-4.5146
	c0-2.5156,2.1465-4.6621,4.6621-4.6621c2.8867,0,5.1807,2.7383,5.1807,6.1426c0,4.8838-3.9219,10.7305-8.9551,13.3945
	L246.269,59.6475z M266.1743,50.6191c0.2959-3.5527,0.4443-6.4385,0.4443-9.9902V11.7666c0-5.4023-0.0742-6.8828-0.4443-10.5088
	h16.4287c9.3994,0,14.9492,4.8848,14.9492,13.0254c0,5.9941-2.96,9.9902-9.5469,12.8027l6.291,13.7646l3.7744,8.3623l0.7402,1.4063
	h-10.8057c-0.1475-0.7402-0.2959-1.2578-0.2959-1.332c-0.0732-0.3701-1.332-3.627-3.2559-8.4365l-4.7363-12.2852h-4.4404v12.2852
	c0,4.5146,0.1484,7.4004,0.4443,9.7686H266.1743z M277.8667,22.127c4.4404,0,5.9209-0.2217,7.623-1.2578
	c1.998-1.2578,3.1084-3.4043,3.1084-6.2168c0-2.8857-1.1846-5.1797-3.4043-6.4375c-1.7764-0.9629-3.2568-1.1846-7.1787-1.1846
	h-2.7383V22.127H277.8667z M304.728,50.6191c0.2959-3.9961,0.4443-7.918,0.4443-14.875V13.543
	c0-6.0684-0.1484-9.8438-0.4443-12.2852h9.5469c-0.2959,2.3682-0.4443,5.8457-0.4443,12.2852v22.2754
	c0,7.5488,0.1484,11.8408,0.4443,14.8008H304.728z M355.1978,43.8848c-3.7002,5.4023-8.2881,7.9922-14.0605,7.9922
	c-5.5508,0-11.1006-2.7383-14.8008-7.4004c-3.1826-3.9961-5.1064-10.1387-5.1064-16.6504C321.23,11.9141,331.2944,0,344.7632,0
	c2.5908,0,4.5146,0.3691,6.957,1.2578v9.8428c-3.1826-3.2568-6.1426-4.7363-9.4727-4.7363c-7.1045,0-11.6934,7.5479-11.6934,19.167
	c0,11.915,4.8848,19.4629,12.5811,19.4629c3.4043,0,5.1807-0.8877,8.585-4.1436L355.1978,43.8848z M360.2271,50.6191
	c0.2959-3.9219,0.4443-6.8828,0.4443-11.0273V12.4326c0-4.8105-0.1484-7.8447-0.4443-11.1748h9.6211
	c-0.3701,2.7383-0.5186,6.1426-0.5186,11.1748v9.3252h14.0615v-9.3252c0-5.4766-0.1484-8.7334-0.4443-11.1748h9.5469
	c-0.2959,2.1465-0.4443,5.2539-0.4443,11.1748v26.79c0,5.624,0.1484,8.9541,0.4443,11.3965h-9.5469
	c0.2959-2.6641,0.4443-5.8457,0.4443-10.8789V28.3438h-14.0615v11.3965c0,4.959,0.1484,8.1406,0.5186,10.8789H360.2271z
	 M401.7407,50.6191c0.2959-3.1816,0.4443-7.8447,0.4443-15.541V16.9473c0-7.3271-0.1484-12.1367-0.4443-15.6895h28.418v7.252
	c-3.0342-0.666-7.9922-0.9609-14.8008-0.9609h-4.5146v14.2822h4.8848c3.9961,0,6.2158-0.1475,8.1406-0.666v7.9932
	c-2.3682-0.5186-4.5889-0.666-8.2891-0.666h-4.7363v15.7627h4.8848c11.3965-0.0742,12.3584-0.1484,15.2451-0.7402v7.1045H401.7407z
	 M437.0386,50.6191c0.2959-3.5527,0.4443-6.4385,0.4443-9.9902V11.7666c0-5.4023-0.0742-6.8828-0.4443-10.5088h16.4287
	c9.3994,0,14.9492,4.8848,14.9492,13.0254c0,5.9941-2.96,9.9902-9.5469,12.8027l6.291,13.7646l3.7744,8.3623l0.7402,1.4063h-10.8057
	c-0.1475-0.7402-0.2959-1.2578-0.2959-1.332c-0.0732-0.3701-1.332-3.627-3.2559-8.4365l-4.7363-12.2852h-4.4404v12.2852
	c0,4.5146,0.1484,7.4004,0.4443,9.7686H437.0386z M448.731,22.127c4.4404,0,5.9209-0.2217,7.623-1.2578
	c1.998-1.2578,3.1084-3.4043,3.1084-6.2168c0-2.8857-1.1846-5.1797-3.4043-6.4375c-1.7764-0.9629-3.2568-1.1846-7.1787-1.1846
	h-2.7383V22.127H448.731z M473.9634,59.6475c3.8477-3.0342,5.2539-5.0322,5.5498-7.9922c-2.7373-0.5186-4.292-2.1455-4.292-4.5146
	c0-2.5156,2.1465-4.6621,4.6621-4.6621c2.8867,0,5.1807,2.7383,5.1807,6.1426c0,4.8838-3.9219,10.7305-8.9551,13.3945
	L473.9634,59.6475z M501.1226,50.6191c0.2959-2.2207,0.4434-5.8457,0.4434-14.9492V6.7344h-3.0342
	c-2.6641,0-5.624,0.2217-8.6582,0.7402V1.2578h31.9697v6.2168c-3.0342-0.5186-5.9199-0.7402-8.584-0.7402h-3.0342v28.9355
	c0,7.623,0.1475,12.7285,0.5176,14.9492H501.1226z M519.0298,50.6191c0.666-1.5547,0.9629-2.5156,2.5166-7.0303l12.877-38.2607
	l-1.4805-4.0703h9.5469l13.0986,42.3311c1.332,4.2178,1.9248,5.9209,2.4424,7.0303h-9.8428l-2.96-11.5449h-14.3574l-1.2578,4.5146
	c-0.9619,3.4775-1.4063,5.4756-1.4805,7.0303H519.0298z M543.7476,32.4883l-5.4023-18.9453l-5.4766,18.9453H543.7476z
	 M560.7642,37.9648c3.3301,4.6621,8.0664,7.3262,12.877,7.3262c5.1064,0,8.585-2.9609,8.585-7.2529
	c0-3.8486-1.332-5.1064-9.251-9.3984c-5.624-2.96-6.5859-3.5518-8.1406-5.1807c-2.1455-2.1465-3.1816-4.5879-3.1816-7.7705
	c0-8.8799,7.6963-15.4668,18.0566-15.4668c2.96,0,5.0322,0.4443,7.1787,1.4795v8.9551c-2.8857-2.8125-5.9209-4.0703-9.7686-4.0703
	c-4.4404,0-7.2529,2.2949-7.2529,5.8467c0,3.2559,1.7764,4.8838,8.7334,7.9922c4.5879,2.0723,7.1035,3.7744,8.8057,5.9209
	c1.999,2.6641,3.0342,5.8457,3.0342,9.4727c0,9.5469-7.1035,15.8369-17.9092,15.8369c-4.8096,0-9.1758-1.1846-11.7666-3.1084
	V37.9648z M603.6851,50.6191c0.2959-2.2207,0.4434-5.8457,0.4434-14.9492V6.7344h-3.0342c-2.6641,0-5.624,0.2217-8.6582,0.7402
	V1.2578h31.9697v6.2168c-3.0342-0.5186-5.9199-0.7402-8.584-0.7402h-3.0342v28.9355c0,7.623,0.1475,12.7285,0.5176,14.9492H603.6851
	z M629.6577,50.6191c0.2959-3.9961,0.4443-7.918,0.4443-14.875V13.543c0-6.0684-0.1484-9.8438-0.4443-12.2852h9.5469
	c-0.2959,2.3682-0.4443,5.8457-0.4443,12.2852v22.2754c0,7.5488,0.1484,11.8408,0.4443,14.8008H629.6577z M648.4526,50.6191
	c0.2959-3.1816,0.4443-7.8447,0.4443-15.541V16.9473c0-7.3271-0.1484-12.1367-0.4443-15.6895h28.418v7.252
	c-3.0342-0.666-7.9922-0.9609-14.8008-0.9609h-4.5146v14.2822h4.8848c3.9961,0,6.2158-0.1475,8.1406-0.666v7.9932
	c-2.3682-0.5186-4.5889-0.666-8.2891-0.666h-4.7363v15.7627h4.8848c11.3965-0.0742,12.3584-0.1484,15.2451-0.7402v7.1045H648.4526z
	 M683.7505,50.6191c0.2959-3.5527,0.4443-6.4385,0.4443-9.9902V11.7666c0-5.4023-0.0742-6.8828-0.4443-10.5088h16.4287
	c9.3994,0,14.9492,4.8848,14.9492,13.0254c0,5.9941-2.96,9.9902-9.5469,12.8027l6.291,13.7646l3.7744,8.3623l0.7402,1.4063h-10.8057
	c-0.1475-0.7402-0.2959-1.2578-0.2959-1.332c-0.0732-0.3701-1.332-3.627-3.2559-8.4365l-4.7363-12.2852h-4.4404v12.2852
	c0,4.5146,0.1484,7.4004,0.4443,9.7686H683.7505z M695.4429,22.127c4.4404,0,5.9209-0.2217,7.623-1.2578
	c1.998-1.2578,3.1084-3.4043,3.1084-6.2168c0-2.8857-1.1846-5.1797-3.4043-6.4375c-1.7764-0.9629-3.2568-1.1846-7.1787-1.1846
	h-2.7383V22.127H695.4429z"/>
</svg>
