<?xml version="1.0" encoding="utf-8"?>
<!-- Generator: Adobe Illustrator 22.0.1, SVG Export Plug-In . SVG Version: 6.00 Build 0)  -->
<svg version="1.1" id="Layer_1" xmlns="http://www.w3.org/2000/svg" xmlns:xlink="http://www.w3.org/1999/xlink" x="0px" y="0px"
	 viewBox="0 0 97.1874 52.5946" enable-background="new 0 0 97.1874 52.5946" xml:space="preserve">
<path d="M63.6722,45.6615c0.405,0.733,0.764,1.708,0.8,2.6331c-0.982,0.528-2.801,0.533-3.129,0.528
	C62.5642,48.1015,63.4142,46.2105,63.6722,45.6615 M58.258,38.5605h0.004l0.002,0.676h-0.329L58.258,38.5605z M62.9962,38.5224h0.16
	c0.153,0,0.219,0.07,0.186,0.209c-0.039,0.162-0.146,0.225-0.308,0.225h-0.141L62.9962,38.5224z M64.4908,38.5605h0.004l0.002,0.676
	h-0.329L64.4908,38.5605z M67.4953,38.5605h0.004l0.003,0.676h-0.33L67.4953,38.5605z M58.4545,40.4285h0.005l0.001,0.676h-0.329
	L58.4545,40.4285z M59.5929,40.3907h0.143c0.259,0,0.248,0.175,0.167,0.516c-0.097,0.408-0.175,0.541-0.41,0.541h-0.151
	L59.5929,40.3907z M62.7413,41.3694c-0.071,0.064-0.15,0.095-0.241,0.095c-0.153,0-0.211-0.103-0.189-0.198
	c0.022-0.093,0.085-0.166,0.233-0.254L62.7413,41.3694z M62.6653,40.6393l-0.046-0.1639l0.173-0.122l0.118,0.126l-0.145,0.164
	l-0.072,0.047L62.6653,40.6393z M64.5227,41.4753c-0.2,0-0.196-0.1522-0.1-0.5562c0.095-0.402,0.165-0.558,0.365-0.558
	c0.2,0,0.196,0.156,0.1,0.558C64.7917,41.3231,64.7227,41.4753,64.5227,41.4753z M72.2475,40.0404
	c-1.056,3.539-3.427,6.902-7.296,8.19c-0.071-3.533-3.055-6.253-7.298-5.879c-0.855,0.075-1.994,0.384-2.82,0.662
	c-0.011-0.521-0.059-1.221,0.061-1.785c0.647-3.042,2.764-5.68,5.826-7.265c0.863,2.527,2.791,3.8961,6.254,3.367
	c1.327-0.2,3.537-1.138,3.19-3.83C73.1054,35.0884,72.5174,39.1364,72.2475,40.0404z M67.9748,39.8027h0.31l0.25-1.053h0.005
	l0.164,1.053h0.386l0.357-1.5031h-0.311l-0.244,1.0291h-0.005l-0.165-1.0291h-0.391L67.9748,39.8027z M66.5483,39.8025h0.353
	l0.153-0.318h0.447l0.002,0.318h0.353l-0.087-1.503h-0.419L66.5483,39.8025z M66.0757,39.8026h0.339l0.357-1.503h-0.339
	L66.0757,39.8026z M64.9696,39.8026h0.939l0.059-0.248h-0.6l0.298-1.255h-0.339L64.9696,39.8026z M60.5513,39.1672
	c0.207,0.069,0.273,0.12,0.24,0.257c-0.03,0.126-0.143,0.185-0.246,0.185c-0.179,0-0.202-0.0909-0.169-0.232l0.011-0.044h-0.339
	l-0.014,0.061c-0.066,0.278,0.046,0.438,0.4301,0.438c0.3669,0,0.6169-0.143,0.693-0.461c0.043-0.183,0.005-0.299-0.226-0.398
	l-0.237-0.101c-0.13-0.055-0.148-0.112-0.125-0.204c0.021-0.089,0.081-0.175,0.234-0.175c0.129,0,0.164,0.082,0.131,0.223h0.324
	l0.01-0.0421c0.069-0.288-0.123-0.404-0.424-0.404c-0.3199,0-0.555,0.149-0.625,0.442
	C60.1603,38.9622,60.2723,39.0742,60.5513,39.1672z M57.311,39.8025h0.353l0.153-0.318h0.447l0.002,0.318h0.353l-0.087-1.503h-0.419
	L57.311,39.8025z M57.383,41.6708l0.357-1.5031h-0.501l-0.494,1.061H56.74l0.012-1.061h-0.504l-0.357,1.5031h0.311l0.285-1.2h0.004
	l0.014,1.2h0.264l0.584-1.2h0.004l-0.285,1.2H57.383z M58.8155,41.6705l-0.087-1.503h-0.419l-0.802,1.503h0.353l0.153-0.318h0.447
	l0.003,0.318H58.8155z M59.2456,39.8317c0.275,0,0.56-0.101,0.651-0.484l0.249-1.048h-0.3391l-0.249,1.048
	c-0.035,0.15-0.102,0.261-0.259,0.261c-0.158,0-0.171-0.111-0.136-0.261l0.249-1.048h-0.339l-0.249,1.048
	C58.7286,39.7497,58.9696,39.8317,59.2456,39.8317z M60.2439,40.8977c0.105-0.442,0.089-0.73-0.382-0.73h-0.555l-0.357,1.503h0.534
	C59.9339,41.6707,60.1178,41.4307,60.2439,40.8977z M61.5796,40.1678h-0.939l-0.357,1.5031h0.963l0.059-0.248h-0.624l0.096-0.405
	h0.565l0.059-0.248h-0.565l0.084-0.354h0.6L61.5796,40.1678z M61.8403,39.8027l0.298-1.255h0.367l0.059-0.248h-1.0731l-0.059,0.248
	h0.367l-0.298,1.255H61.8403z M63.3872,40.9484h-0.292l-0.113,0.228l-0.179-0.305c0.227-0.125,0.349-0.2401,0.384-0.39
	c0.042-0.175-0.057-0.314-0.344-0.314c-0.252,0-0.457,0.12-0.503,0.316c-0.021,0.087-0.016,0.1479,0.048,0.272l0.04,0.078
	c-0.236,0.115-0.4,0.258-0.441,0.433c-0.04,0.169-0.014,0.434,0.412,0.434c0.165,0,0.3329-0.055,0.439-0.145l0.067,0.115h0.36
	l-0.155-0.278C63.2413,41.2644,63.3482,41.1104,63.3872,40.9484z M63.4842,39.5204c0.07-0.318,0.062-0.431-0.162-0.459l0.001-0.004
	c0.199-0.036,0.321-0.171,0.368-0.37c0.061-0.257-0.077-0.388-0.355-0.388h-0.626l-0.357,1.503h0.3391l0.151-0.636h0.181
	c0.136,0,0.178,0.072,0.155,0.19l-0.059,0.288l0.005,0.158h0.367l0.003-0.012C63.4391,39.7604,63.4482,39.6784,63.4842,39.5204z
	 M63.8968,39.8025l0.153-0.318h0.447l0.002,0.318h0.353l-0.087-1.503h-0.419l-0.802,1.503H63.8968z M64.8407,40.1381
	c-0.508,0-0.649,0.325-0.757,0.781c-0.109,0.457-0.122,0.781,0.386,0.781c0.508,0,0.649-0.324,0.757-0.781
	C65.3357,40.4631,65.3487,40.1381,64.8407,40.1381z M66.5946,41.6708l0.663-1.5031h-0.325l-0.45,1.1121h-0.005l0.067-1.1121h-0.325
	l-0.462,1.1121h-0.005l0.079-1.1121h-0.325l-0.051,1.5031h0.379l0.447-1.09h0.004l-0.0699,1.09H66.5946z M68.1521,41.6708
	l0.357-1.5031h-0.311l-0.244,1.0291h-0.005l-0.165-1.0291h-0.391l-0.357,1.5031h0.311l0.25-1.052h0.005l0.164,1.052H68.1521z
	 M69.5049,40.7698h-0.565l0.084-0.354h0.6l0.059-0.248h-0.939l-0.357,1.5031h0.963l0.059-0.248h-0.624l0.096-0.405h0.565
	L69.5049,40.7698z M70.4482,40.1677h-0.556l-0.357,1.503h0.534c0.45,0,0.634-0.24,0.76-0.773
	C70.9341,40.4558,70.9181,40.1677,70.4482,40.1677z M70.1782,40.3907h0.144c0.258,0,0.247,0.175,0.166,0.516
	c-0.096,0.408-0.175,0.541-0.41,0.541h-0.151L70.1782,40.3907z"/>
<path d="M60.8712,1.1335c-25.92-3.9709-50.232,2.772-58.66,15.84c-8.429,13.069,8.165,28.179,34.084,32.148
	c6.0359,0.924,11.985,1.258,17.668,1.063c3.773,3.673,10.793,3.108,16.074-1.423c0.356-0.306,0.695-0.622,1.018-0.947
	c10.916-2.804,19.555-7.917,23.924-14.687C103.4052,20.0595,86.7932,5.1015,60.8712,1.1335z M69.2802,47.3305
	c-4.703,4.005-11.025,4.348-14.122,0.767c-3.096-3.582-1.793-9.733,2.91-13.738s11.025-4.348,14.122-0.767
	C75.2861,37.1745,73.9832,43.3255,69.2802,47.3305z M93.4301,28.8395c-2.905,4.803-9.618,9.173-18.389,12.186
	c0.812-3.13,0.341-6.24-1.589-8.49c-3.629-4.23-11.041-3.823-16.557,0.909c-3.849,3.303-5.755,7.839-5.323,11.715
	c-4.064,0.125-8.223-0.04-12.387-0.539c-24.094-2.888-38.714-18.255-32.455-28.594c6.255-10.338,28.546-17.424,52.636-14.534
	C83.4521,4.3815,99.6901,18.5035,93.4301,28.8395z M49.6575,10.9728h3.615l-0.46,2.681h-3.565L49.6575,10.9728z M70.773,15.3111
	l-3.564,0.026l-1.489,9.345h-3.952l1.489-9.316l-3.492-0.0291l0.5161-3.426l11.008-0.027
	C71.158,13.0471,70.954,14.1801,70.773,15.3111z M51.0414,24.7077h-3.566l1.566-9.633l3.567-0.037
	C52.1205,18.2427,51.6064,21.5037,51.0414,24.7077z M54.8395,18.4776l4.413-0.015l-0.485,3.3459c-1.414,0-2.772,0.082-4.466,0
	L54.8395,18.4776z M78.6483,21.883h-3.298c-0.335,0.562-0.873,0.835-1.421,0.835c-0.909,0-1.597-0.745-1.429-1.867h6.587
	c0.57-3.442-1.003-5.87-4.221-5.87c-2.784,0-5.226,1.992-5.699,5.11c-0.482,3.185,1.41,4.927,4.197,4.927
	C75.3893,25.018,77.6954,24.239,78.6483,21.883z M74.6533,17.281c0.813,0,1.407,0.78,1.274,1.647h-3.134
	C72.9464,17.915,73.6213,17.281,74.6533,17.281z M83.6896,20.1098c-0.213,1.429,0.143,2.371,1.154,2.371
	c0.895,0,1.344-0.67,1.557-1.4109h3.483c-0.734,2.879-3.022,3.949-5.423,3.949c-2.804,0-4.7-1.722-4.214-4.928
	c0.49-3.245,2.863-5.11,5.729-5.11c2.326,0,4.349,1.086,4.175,3.896h-3.502c0.046-0.418-0.033-0.743-0.217-0.9789
	c-0.174-0.254-0.456-0.382-0.838-0.382C84.2996,17.5158,83.8646,18.9858,83.6896,20.1098z M79.4549,23.2146
	c0,0-0.47,2.658-1.821,4.999c-1.239,2.145-1.939,3.986-1.939,5.314c0,1.328,0.94,3.862,3.76,3.862
	c2.819,0,3.7599-2.534,3.7599-3.862c0-1.3279-0.699-3.1689-1.938-5.314C79.9239,25.8726,79.4549,23.2146,79.4549,23.2146z
	 M76.629,33.1271c0,0,0.177,0.199,0.593,0.149c0.349-0.043,0.561-0.381,0.561-0.381c-0.34,2.638,0.865,3.461,1.256,3.774
	C76.515,36.6401,76.3749,33.8011,76.629,33.1271z M34.3362,26.9338c-0.2169,0-0.4249,0.0286-0.6329,0.0565l-5.6396-3.9814
	l0.2963-1.8289l3.3994,2.3677l-0.1925,1.2031l4.593-0.012l0.975-5.638l4.234,0.027l-0.847,5.611h4.517l2.411-14.9h-4.517
	c-0.281,1.6591-0.539,3.346-0.872,5.006c-1.385,0.024-2.899,0.054-4.309-0.031c0.256-1.657,0.564-3.343,0.795-4.975h-4.5941
	L32.307,20.1249l-3.3887-2.3912l1.3157-8.1213l-15.576,0.005l-0.4237,2.5259h-0.0081l-0.2811,1.7243l-0.4988,2.9736h-0.0221
	l-0.513,3.134h0.0094l-0.8535,5.0881l13.4462,0.0043l5.2206,3.6428c-0.4996,0.6567-0.853,1.471-1.0065,2.4084
	c-0.451,2.746,0.865,4.318,3.217,4.318c2.217,0,4.189-1.55,4.639-4.296C37.9332,29.0088,37.0123,26.9338,34.3362,26.9338z
	 M35.1262,31.1407c-0.2209,1.333-0.797,2.322-1.8589,2.322c-1.176,0-1.257-1.288-1.087-2.322c0.167-1.022,0.698-2.233,1.812-2.233
	C35.0812,28.8748,35.3063,30.0408,35.1262,31.1407z M41.4852,26.9335l-0.272,1.661h-2.164l0.271-1.661H41.4852z M38.9241,29.3475
	h2.166l-0.962,5.876h-2.166L38.9241,29.3475z M44.9144,27.1486l-1.322,8.0749h-2.165l1.322-8.0749H44.9144z M47.3195,30.8695
	c-0.132,0.819,3.402,0.271,3.043,2.468c-0.2,1.221-1.275,2.051-3.271,2.051c-1.249,0-2.556-0.415-2.41-1.996h2.06
	c-0.038,0.238,0.014,0.419,0.141,0.541c0.115,0.11,0.293,0.178,0.501,0.178c0.332,0,0.7061-0.112,0.7711-0.527
	c0.1559-0.942-3.308-0.192-2.936-2.466c0.246-1.504,1.766-1.939,2.901-1.939c1.187,0,2.533,0.291,2.405,1.849h-1.969
	c0.008-0.19-0.039-0.324-0.139-0.425c-0.097-0.1021-0.247-0.148-0.414-0.148C47.6285,30.4555,47.3685,30.5815,47.3195,30.8695z
	 M52.0903,34.1701v-0.013c0.152-0.041,0.276-0.157,0.276-0.339c0-0.137-0.047-0.231-0.131-0.293
	c-0.081-0.062-0.223-0.105-0.438-0.105c-0.167,0-0.28,0.015-0.399,0.034v1.402h0.226v-0.604h0.156c0.18,0,0.2729,0.066,0.304,0.248
	c0.027,0.183,0.061,0.313,0.097,0.356h0.235c-0.023-0.043-0.059-0.129-0.09-0.347C52.2993,34.3031,52.2122,34.1901,52.0903,34.1701z
	 M51.7872,34.0791h-0.163v-0.476l0.163-0.012c0.253,0,0.341,0.125,0.341,0.248C52.1282,34.0121,51.9722,34.0791,51.7872,34.0791z
	 M51.8652,32.8661h-0.006c-0.69,0-1.253,0.5601-1.253,1.257c0,0.712,0.563,1.264,1.253,1.264c0.697,0,1.247-0.552,1.247-1.264
	C53.1063,33.4261,52.5563,32.8661,51.8652,32.8661z M51.8652,35.1911c-0.564,0-1.017-0.468-1.017-1.068
	c0-0.586,0.453-1.061,1.011-1.061h0.006c0.56,0,1.011,0.475,1.011,1.066C52.8762,34.7231,52.4252,35.1961,51.8652,35.1911z"/>
</svg>
