<svg xmlns="http://www.w3.org/2000/svg" viewBox="0 0 235.71 60.12"><path fill="#DB1E25" d="M179.95.09c-36.67 1.53-51.65 17.45-51.04 30.42.07 1.43.37 6.39 5 11.76 6.43-.82 12.35-6.76 28.75-.42 18.25 7.05 34.99-9.11 38.63-10.72l32.58-5.25c.04 4.01-.51 6.28-1.38 8.33-1.53 3.59-3.99 6.84-6.24 9.5-3.48 4.11-7.73 7.2-12.43 9.52-1.39.69-2.93 1.37-4.53 2.01 16.27-5.93 26.98-16.43 26.4-27.83-.85-16.6-25.55-28.58-55.74-27.32"/><linearGradient id="a" gradientUnits="userSpaceOnUse" x1="130.5636" y1="15.3968" x2="190.9282" y2="39.6519"><stop offset="0" stop-color="#213266"/><stop offset=".0648" stop-color="#442f5b"/><stop offset=".1549" stop-color="#6d2b4d"/><stop offset=".2505" stop-color="#912741"/><stop offset=".3507" stop-color="#ad2538"/><stop offset=".457" stop-color="#c42330"/><stop offset=".5723" stop-color="#d4212b"/><stop offset=".7032" stop-color="#dd2028"/><stop offset=".8834" stop-color="#e02027"/><stop offset="1" stop-color="#e02027"/></linearGradient><path fill="url(#a)" d="M232.49 34.2c-1.52 3.59-3.99 6.84-6.24 9.5-3.48 4.11-7.74 7.2-12.43 9.52-3.95 1.95-9.02 3.87-13.41 4.86-7.59 1.71-14.14 2.11-21.57 2.03-6.56-.07-13.55-1.32-19.62-2.94-5.21-1.39-10.13-3.21-14.56-5.14-2.46-1.08-5.03-2.46-10.04-6.07-4.04-2.92-5.01-4.29-7.34-6.82-2.9-3.16-5.16-4.18-6.25-3.62-1.08.57-3.57 3.98-3.57 3.98l.21-3.98s5.37-1.96 6.04-1.81c.67.15 2.53.46 3.31.67.78.21 3.94 2.85 13.57 3.08 1.41.03 2.45-.05 3.38-.13 3.35-.3 5.41-.6 18.69 4.53 18.25 7.05 34.99-9.11 38.63-10.72l32.58-5.25c.04 4-.51 6.27-1.38 8.31"/><path fill="#FFF" d="M231.81 27.69c0-13.96-25.62-25.28-49.15-25.28-27.15 0-49.15 11.32-49.15 25.28s22.01 25.28 49.15 25.28c2.12 0 4.2-.07 6.25-.2l.73 1.46c2.79 1.47 7.5 2.94 9.26 2.06 1.76-.88 5-3.08 6.47-4.7.35-.38.64-.99.87-1.7 15.24-4.3 25.57-12.63 25.57-22.2"/><path d="M143.7 28.53l2.74-16.29 16.43-.01-2.64 16.31zM186.7 16.49h-3.76l.43-2.82h3.81zM206.19 14.63c-.14 1.23-.35 2.42-.54 3.62l-3.76.03-1.57 9.86h-4.17l1.57-9.83-3.68-.03.54-3.62 11.61-.03M186.48 17.95c-.51 3.38-1.06 6.82-1.65 10.21h-3.76L182.72 18l3.76-.05M192.98 25.1c-1.49 0-2.92.09-4.71 0l.57-3.51 4.66-.02-.52 3.53M211.09 22.06c.14-.92-.49-1.74-1.35-1.74-1.09 0-1.8.67-1.96 1.74h3.31zm-3.62 2.03c-.18 1.18.55 1.97 1.51 1.97.58 0 1.15-.29 1.5-.88h3.48c-1.01 2.49-3.44 3.31-5.57 3.31-2.94 0-4.94-1.84-4.43-5.2.5-3.29 3.08-5.39 6.01-5.39 3.4 0 5.06 2.56 4.46 6.19h-6.96M222.4 22c.05-.44-.04-.78-.23-1.03-.18-.27-.48-.4-.88-.4-1.37 0-1.82 1.55-2.01 2.74-.22 1.51.15 2.5 1.22 2.5.94 0 1.42-.71 1.64-1.49h3.67c-.77 3.04-3.19 4.17-5.72 4.17-2.96 0-4.96-1.82-4.45-5.2.52-3.42 3.02-5.39 6.05-5.39 2.45 0 4.59 1.15 4.41 4.11h-3.7"/><path fill="#DE1D24" d="M145.14 19.86h6.22l15.71 11.08-2.53 2.24-14.35-10.02h-5.6z"/><path fill="#DE1D24" d="M145.98 14.9h7.15l12.82 9.05-.98 3.32-13.02-9.06h-6.51z"/><path d="M166.8 12.47h4.85c-.24 1.72-.57 3.5-.84 5.25 1.49.09 3.09.06 4.55.03.35-1.75.62-3.53.92-5.28h4.76l-2.54 15.72h-4.77l.89-5.92-4.47-.03-1.03 5.95-4.85.01 2.53-15.73"/><path fill="#DE1D24" d="M164.93 34.95c-.18 1.09-.09 2.45 1.15 2.45 1.12 0 1.73-1.04 1.96-2.45.19-1.16-.05-2.39-1.2-2.36-1.18 0-1.74 1.28-1.91 2.36m5.7 0c-.48 2.9-2.55 4.53-4.9 4.53-2.48 0-3.87-1.66-3.4-4.56.44-2.67 2.4-4.42 4.86-4.42 2.84.01 3.81 2.2 3.44 4.45M172.46 30.51h2.28l-.29 1.75h-2.28l.29-1.75zm-1.43 8.74l1.02-6.2h2.29l-1.02 6.2h-2.29M174.68 39.25l1.4-8.52h2.28l-1.39 8.52zM180.29 37.32c-.04.25.01.44.15.57.12.12.31.19.53.19.35 0 .75-.12.81-.55.16-.99-3.49-.2-3.1-2.6.26-1.59 1.86-2.05 3.06-2.05 1.25 0 2.67.31 2.54 1.95h-2.08c.01-.2-.04-.34-.15-.45-.1-.11-.26-.16-.44-.16-.4 0-.67.13-.72.44-.14.87 3.59.29 3.21 2.6-.21 1.29-1.35 2.16-3.45 2.16-1.32 0-2.7-.44-2.54-2.1h2.18M214.81 41.54c-2.98 0-3.97-2.67-3.97-4.07 0-1.4.74-3.35 2.04-5.61 1.43-2.47 1.92-5.28 1.92-5.28s.49 2.8 1.92 5.28c1.31 2.26 2.04 4.21 2.04 5.61.02 1.4-.98 4.07-3.95 4.07"/><path fill="#FFF" d="M211.83 37.04c-.27.71-.12 3.71 2.54 3.74-.41-.33-1.68-1.2-1.33-3.98 0 0-.22.36-.59.4-.43.05-.62-.16-.62-.16"/><path fill="#DE1D24" d="M185.44 38.05h.17c.19 0 .36-.07.36-.25 0-.13-.09-.26-.36-.26l-.17.01v.5zm0 .82h-.24v-1.48c.13-.02.24-.04.42-.04.23 0 .38.05.46.11.09.07.14.17.14.31 0 .19-.13.32-.29.36v.02c.13.02.22.14.25.36.03.23.07.32.09.37h-.25c-.04-.05-.07-.18-.1-.38-.03-.19-.13-.26-.32-.26h-.16v.63zm.25-1.9c-.59 0-1.07.5-1.07 1.12 0 .63.48 1.13 1.07 1.13.59.01 1.07-.49 1.07-1.12 0-.62-.47-1.13-1.07-1.13zm.01-.2c.73 0 1.31.59 1.31 1.33 0 .75-.58 1.33-1.32 1.33-.73 0-1.32-.58-1.32-1.33 0-.74.59-1.33 1.33-1.33"/><path d="M198.16 50.27c-.27.58-1.17 2.58-2.46 3.34.35.01 2.26 0 3.3-.56-.04-.98-.42-2.01-.84-2.78"/><path d="M195.2 3.28c-27.35-4.19-53 2.93-61.9 16.72-8.89 13.79 8.62 29.74 35.97 33.92 6.37.97 12.65 1.33 18.64 1.12 3.98 3.87 11.39 3.28 16.96-1.5.38-.32.73-.66 1.07-1 11.52-2.96 20.63-8.35 25.24-15.5 8.9-13.79-8.63-29.57-35.98-33.76m-6.03 49.56c-3.27-3.78-1.89-10.27 3.07-14.5s11.63-4.59 14.9-.81c3.27 3.78 1.89 10.27-3.07 14.49-4.96 4.23-11.63 4.6-14.9.82m40.39-20.32c-3.07 5.07-10.15 9.68-19.4 12.86.86-3.3.36-6.58-1.68-8.96-3.83-4.47-11.65-4.04-17.47.96-4.06 3.48-6.07 8.27-5.62 12.36-4.29.13-8.68-.04-13.07-.57-25.42-3.05-40.85-19.26-34.24-30.17C144.68 8.09 168.2.61 193.62 3.66c25.41 3.05 42.54 17.95 35.94 28.86"/><path d="M195.04 37.92c-3.23 1.67-5.46 4.46-6.15 7.67-.13.6-.07 1.33-.06 1.89.87-.3 2.07-.62 2.98-.7 4.48-.4 7.63 2.48 7.7 6.2 4.08-1.36 6.59-4.91 7.7-8.64.29-.95.91-5.23-2.2-6.9.37 2.84-1.96 3.83-3.37 4.04-3.65.56-5.69-.89-6.6-3.56"/><path fill="#213366" d="M80.97 34.53c.29.13.36.14.12-.02l-.12.02M66.6 28.74c-2.12 0-4.31.54-6.72 1.52-.78.32-2.92 1.44-3.67 1.79-.71.33-1.4.66-2.09.98-.64.3-1.27.61-1.88.9-.54.25-1.06.5-1.57.73.81-.24 1.66-.57 2.57-.95.89-.24 1.82-.59 2.82-.98.43-.1.72.84 1.03 1.79.32.97.65 1.95 1.15 1.77.81-.15 3.11-5.94 6.79-6.44 1.96-.27 4.38 1.05 7.05 2.36 2.76 1.36-4.5-3.47-5.48-3.47z"/><linearGradient id="b" gradientUnits="userSpaceOnUse" x1="191.7076" y1="39.1763" x2="194.9731" y2="28.482" gradientTransform="matrix(-1 0 0 1 248.6935 0)"><stop offset="0" stop-color="#213266"/><stop offset=".00458518" stop-color="#203368"/><stop offset=".0715" stop-color="#124482"/><stop offset=".1405" stop-color="#085094"/><stop offset=".2123" stop-color="#02579f"/><stop offset=".2913" stop-color="#0059a3"/><stop offset=".4366" stop-color="#6a96ce"/><stop offset=".5934" stop-color="#0059a3"/><stop offset=".6951" stop-color="#02569f"/><stop offset=".8015" stop-color="#094f92"/><stop offset=".9096" stop-color="#14427d"/><stop offset="1" stop-color="#213366"/></linearGradient><path fill="url(#b)" d="M66.78 28.73c-.9-.04-1.8.43-2.54.89-.1.06-.2.12-.29.18-.18.13-.37.27-.56.43l-.17.14c-.18.15-.36.31-.52.48-.65.64-1.26 1.39-1.83 2.2-.9 1.27-1.73 2.67-2.57 4.03-.82 1.33-1.64 2.6-2.55 3.64-.44.51-.91.97-1.4 1.34-1.41 1.07-3.18 1.83-5.39 2.02-.27.02-.54.03-.83.04-.28.01-.56 0-.86-.01-.29-.02-.58-.04-.89-.07-.3-.03-.6-.07-.92-.12.57-.35 1.1-.73 1.64-1.15 4.7-3.62 1.76-7.49 4.36-9.08 0 0 5.02-2.44 8.57-3.71 3.1-1.11 5.33-1.26 6.35-1.26.16 0 .3.01.4.01"/><linearGradient id="c" gradientUnits="userSpaceOnUse" x1="237.7438" y1="21.6728" x2="208.2196" y2="56.5788" gradientTransform="matrix(-1 0 0 1 248.6935 0)"><stop offset="0" stop-color="#213266"/><stop offset=".00426719" stop-color="#203368"/><stop offset=".0635" stop-color="#124482"/><stop offset=".1245" stop-color="#085094"/><stop offset=".1881" stop-color="#02579f"/><stop offset=".2582" stop-color="#0059a3"/><stop offset=".467" stop-color="#6a96ce"/><stop offset=".5934" stop-color="#0059a3"/><stop offset=".6936" stop-color="#02569f"/><stop offset=".8016" stop-color="#094e92"/><stop offset=".9128" stop-color="#15417c"/><stop offset="1" stop-color="#213366"/></linearGradient><path fill="url(#c)" d="M15.14 29.95c19.65 0 28.57 13.5 31.93 14.03.23.04.45.06.68.08.23.02.45.03.66.03.23 0 .44-.01.66-.02.22-.02.43-.04.64-.07-.4.13-.81.24-1.24.31-.4.14-.82.25-1.24.32-.4.14-.82.26-1.26.34-.41.15-5.88 1.67-14.79-6.16C25.8 34.09 17 32.46 0 32.22c2.56-.64 5.73-1.34 7.52-1.64 2.7-.44 5.22-.64 7.6-.64h.02z"/><linearGradient id="d" gradientUnits="userSpaceOnUse" x1="113.0315" y1="17.2271" x2="81.2086" y2="45.568"><stop offset="0" stop-color="#213366"/><stop offset=".0904" stop-color="#14427d"/><stop offset=".1985" stop-color="#094f92"/><stop offset=".3049" stop-color="#02569f"/><stop offset=".4066" stop-color="#0059a3"/><stop offset=".5341" stop-color="#6a96ce"/><stop offset=".7088" stop-color="#0059a3"/><stop offset=".7878" stop-color="#02579f"/><stop offset=".8596" stop-color="#085094"/><stop offset=".9284" stop-color="#124482"/><stop offset=".9952" stop-color="#203368"/><stop offset="1" stop-color="#213266"/></linearGradient><path fill="url(#d)" d="M69.41 28.42c13.28.6 14.9 10.23 27.07 8.05 8.13-1.46 14.78-11.01 24.46-4.53.51.23 1.04.5 1.58.82.37.14.75.29 1.15.48l.46.23c.18.05.35.1.54.16.37.13.74.27 1.09.41.52.11 1.01.26 1.48.43-.19-.02-.39-.05-.58-.06h-.09c-.24-.02-.48-.02-.7-.02-.24.01-.48.02-.72.04-.24.03-.47.06-.7.1-8.51 1.62-10.04 16.67-21.86 19.79-8.76 2.3-19.59-.57-31.14-18.9-.42-.66-.98-1.65-1.75-2.8-.23-.34-.47-.69-.74-1.05-.24-.33-.49-.66-.76-.99-.24-.3-.5-.6-.77-.91-.24-.27-.52-.6-1.15-.83.78-.29 1.88-.44 2.81-.44.09.02.21.02.32.02"/><path fill="#FAFBFC" d="M120.94 31.95c.15.07.31.15.47.23-1.22-.04-2.35.16-3.92.54 1.87-.2 3.15-.3 4.56-.21.15.08.3.16.45.25l.11.04c-3.01-.15-5.3.39-8.92 1.22-.97.42-1.46.66-2.4 1.16 4.29-1.2 6.7-1.98 10.96-2.11-.32.05-.66.12-1.06.21-3.9.38-6 1.07-9.85 2.2.36.77.55 1.15 1.01 1.91-.38.24-.71.46-1.03.67-.63-1.08-.88-1.62-1.34-2.74 3.82-2.05 6.41-3.42 9.84-3.42.36 0 .73.02 1.12.05M106.66 35.35l.52 1.57c.46 1.27.73 1.89 1.35 3.07-.29.2-.58.42-.92.65-.46-.88-.66-1.34-1.03-2.29-2.87 3.02-4.21 4.83-6.29 6.89-1.05.46-1.55.61-2.44.66l-.53-1.02c1.24-.86 2.05-1.74 3.84-3.64-2.05 1.1-3 1.54-4.7 1.67-.5-1.3-.72-1.99-1.05-3.34 1.82-.13 2.79-.53 4.87-1.51-2.25.17-3.28.09-5.26-.59-.04-.33-.09-.79-.09-.79 1.95-.18 3.02-.55 4.05-.91 2.05.02 3.62-.27 6.52-.84-.22-.86-.33-1.36-.48-2.13.29-.16.59-.32.88-.47.24 1.15.4 1.82.76 3.02M117.76 30.33c-1.58.12-3.04.76-4.95 1.78 1-.3 1.51-.42 2.54-.6 1.3-.46 2.34-.73 3.39-.78.15.07.3.13.45.2-.75.03-1.52.17-2.45.4 1.18-.11 2.12-.15 3.05-.08l.22.12c-3.86-.51-6.53.68-10.55 2.57-.39-1.13-.56-1.73-.88-2.9.33-.14.67-.28 1-.41.26.86.38 1.28.66 2.09 2.5-1.7 4.09-2.58 6.47-2.7.34.08.69.19 1.05.31"/><path fill="#E7252B" d="M105.45 35.35c-.87.46-1.3.7-2.13 1.15-3.4.61-5.05.77-7.56.09.24-.03.47-.07.72-.11.45-.08.9-.19 1.34-.32 2.44.22 4.2-.1 7.63-.81zM97.85 45.9c-.05-.09-.1-.17-.14-.25l-.01-.02-.11-.21-.03-.05-.06-.12c1.44-.99 2.45-2.17 4.65-4.55.8-.46 1.21-.71 2.05-1.24-3.09 3.33-4.51 5.24-6.35 6.44M118.74 30.73c-1.05.05-2.09.33-3.39.78-1.04.17-1.54.3-2.54.6 1.91-1.02 3.36-1.66 4.95-1.78.32.12.65.25.98.4M122.62 32.81c.15.06.3.11.45.18-.26.02-.53.05-.82.1-4.25.13-6.66.91-10.96 2.11.95-.5 1.43-.74 2.4-1.16 3.22-.74 5.39-1.25 7.95-1.25.32-.01.65 0 .98.02"/><path fill="#E7252B" d="M109.45 33.94c4.02-1.89 6.69-3.08 10.55-2.57.31.18.62.37.93.58l.01.01c-4.02-.34-6.75 1.1-10.97 3.37.46 1.13.71 1.67 1.34 2.74-1.02.67-1.8 1.23-2.78 1.92-.63-1.18-.89-1.8-1.35-3.07-5.03 3.01-7.31 5.05-10.97 5.32-.27-.77-.4-1.17-.62-1.96 3.81-.27 6.04-2.22 11.07-4.93-.36-1.2-.52-1.87-.76-3.02.88-.47 1.77-.91 2.67-1.3.32 1.18.49 1.78.88 2.91"/><path fill="#FAFBFC" d="M114.73 39.86c1.01-.64 1.5-.97 2.45-1.61-.87.88-1.3 1.35-2.16 2.32.52.13.76.18 1.24.29-.86.52-1.31.78-2.23 1.26-.33.91-.49 1.38-.83 2.36-.27-.48-.41-.71-.72-1.18-.95.95-1.44 1.42-2.41 2.32.56-1.01.84-1.51 1.4-2.5-.91.22-1.39.31-2.37.4 1.09-.65 1.64-1 2.71-1.73-.17-.62-.26-.93-.45-1.57.81.12 1.19.15 1.92.17.73-.95 1.11-1.42 1.89-2.27-.19.67-.28 1.02-.44 1.74M84.22 35.43c-.01-.22-.01-.33-.01-.55.22.35.34.52.57.86.29.08.44.12.74.2-.1.15-.15.22-.24.36.38.33.57.49.96.82-.36-.17-.53-.26-.88-.44.18.32.28.48.47.8-.36-.36-.53-.54-.88-.9-.15.06-.22.09-.37.15-.09-.25-.13-.38-.21-.63-.36-.23-.54-.35-.9-.58.23.03.34.05.58.08-.3-.35-.45-.53-.74-.88.35.27.54.41.91.71M88.7 48.73c.1-.3.14-.46.22-.76.19.45.29.67.48 1.12.41.07.61.1 1.01.17-.2.2-.3.31-.52.51.41.39.62.57 1.04.94-.45-.16-.68-.25-1.13-.43.1.42.15.63.24 1.06-.34-.43-.51-.66-.86-1.1-.3.14-.45.2-.76.34.04-.38.06-.56.09-.92-.46-.27-.69-.4-1.15-.69.38.01.56.01.93.01-.28-.46-.42-.7-.71-1.16.46.37.68.55 1.12.91M81.48 36c-.01-.19-.02-.29-.03-.47.21.3.32.46.54.76.27.09.41.14.68.24-.08.11-.12.16-.2.27.36.31.54.47.92.79-.34-.19-.51-.29-.84-.47.17.3.26.44.44.75-.35-.34-.52-.52-.85-.85-.15.06-.23.1-.39.17-.07-.25-.1-.37-.17-.61-.35-.2-.52-.3-.85-.48.23 0 .34.01.56.03-.28-.32-.41-.47-.67-.77.34.25.51.38.86.64M91.74 42.92c-.05-.24-.07-.36-.11-.61.27.35.41.53.68.88.29.05.43.07.72.09-.07.19-.1.28-.16.44.4.3.6.44 1 .71-.34-.11-.52-.17-.87-.31.22.32.3.29.56.8-.41-.47-.57-.5-.96-.84-.13.09-.2-.01-.32.22-.14-.47-.19-.4-.31-.68-.39-.22-.58-.33-.97-.57.23.03.35.04.58.05-.35-.36-.53-.55-.88-.91.42.3.62.44 1.04.73M85.79 41.02c.28.17.42.26.7.43-.18.07-.28.1-.47.16.15.38.22.57.37.94-.27-.34-.4-.51-.66-.85-.19.06-.29.09-.49.14.04-.26.06-.39.09-.67-.26-.34-.39-.51-.65-.84.28.17.41.25.69.42.03-.28.07-.56.05-.7.18.25.23.58.37.97"/></svg>