<?xml version="1.0" encoding="utf-8"?>
<!-- Generator: Adobe Illustrator 22.0.1, SVG Export Plug-In . SVG Version: 6.00 Build 0)  -->
<svg version="1.1" id="Layer_1" xmlns="http://www.w3.org/2000/svg" xmlns:xlink="http://www.w3.org/1999/xlink" x="0px" y="0px"
	 viewBox="0 0 232.0303 17.7228" enable-background="new 0 0 232.0303 17.7228" xml:space="preserve">
<path d="M166.5213,0c-2.9294,0-4.4791,1.0308-4.5346,4.7082c0,0-0.0394,2.1707-0.0394,4.1803c0,2.0168,0.0394,4.1624,0.0394,4.1624
	c0.0859,3.6488,1.5998,4.6706,4.5346,4.6706h1.1721h5.0787h5.0607h1.2276c2.933,0,4.4362-0.9914,4.5239-4.6706
	c0,0,0.0412-2.1456,0.0412-4.1624c0-2.0096-0.0412-4.1803-0.0412-4.1803C183.4967,1.0308,181.9828,0,179.0605,0H166.5213z
	 M168.9265,2.933h3.8456h3.8797c0.8303,0.009,1.0254,0.213,1.0254,1.0182v9.8065c0,0.8375-0.1951,1.0504-1.0218,1.0504h-3.8832
	h-3.8564c-0.8214,0-1.0129-0.213-1.0129-1.0504c0,0-0.0107-9.5721-0.0107-9.8065C167.8922,3.146,168.0943,2.942,168.9265,2.933
	 M137.5624,17.721V0.0013h16.8751c2.9419,0,4.4899,1.0343,4.5489,4.7279c0,0,0.0394,2.0848,0.0394,4.1159
	c0,2.0222-0.0286,4.1857-0.0286,4.1857c-0.0698,3.6989-1.6142,4.6903-4.5597,4.6903h-9.3037v-2.9133h6.9523
	c0.8428,0,1.045-0.2076,1.045-1.0504V3.9525c0-0.8071-0.2022-1.02-1.045-1.02h-8.6147V17.721H137.5624z M0.003,4.7044
	c0-3.6612,1.5967-4.6965,4.5201-4.6965h14.1232l-0.0046,2.9311H6.9419c-0.839,0-1.0399,0.204-1.0399,1.0154
	c0,0.2331,0.0031,9.7841,0.0031,9.7841c0,0.839,0.1994,1.0506,1.043,1.0506l12.1262,0.0046v2.928c0,0-13.9805-0.0015-14.5511-0.0015
	C1.5935,17.7202,0,16.6711,0,13.0498L0.003,4.7044z M212.4653,4.7224c0-3.6673,1.6013-4.7041,4.5277-4.7041l14.9484-0.0077v2.9219
	h-12.5265c-0.8406,0-1.0415,0.2117-1.0415,1.023c0,0.0844,0.0015,1.7593,0.0015,3.3283h12.7029v2.9234h-12.7013
	c0.0015,2.066,0.0015,3.5323,0.0015,3.5323c0,0.8405,0.1994,1.0522,1.043,1.0522h12.6093v2.9311c0,0-14.4651-0.0031-15.0373-0.0031
	c-2.931,0-4.5292-1.0414-4.5292-4.6673L212.4653,4.7224z M102.3178,17.7217V3.4161H102.08l-5.8315,14.3057h-6.2134L84.1945,3.4161
	h-0.2377v14.3057h-3.8392V0.0095h9.0955l5.2225,13.6185l0.1028-0.0015l5.2148-13.617h8.5203v17.7122H102.3178z M69.5895,17.7217
	V3.4161h-0.2378l-5.8315,14.3057h-6.2134L51.4647,3.4161h-0.2362v14.3057h-3.8392V0.0095h9.097l5.221,13.6185l0.1028-0.0015
	l5.2148-13.617h8.5203v17.7122H69.5895z M202.8046,3.4118c-0.0215-0.3175-0.2424-0.4755-0.5691-0.4755
	c-0.0046,0-8.7625,0.0015-8.7625,0.0015V17.722l-5.9143-0.0015V0.0006h17.4699c2.2455-0.0077,3.7394,0.6703,3.7394,3.221
	l-0.0031,3.474c0,2.5507-1.6443,3.1934-3.8698,3.1934l-2.4586-0.0015l-0.0046,0.1304l7.8161,7.7042h-7.4465l-7.238-7.4788V7.28
	h6.7134c0.2792,0,0.5015-0.1841,0.5384-0.4755L202.8046,3.4118z M43.397,4.6988c-0.0951-3.6704-1.5982-4.6949-4.52-4.6949H26.3504
	c-2.9203,0-4.4633,1.0246-4.5169,4.6949l-0.0031,8.3622c0.0889,3.6412,1.5951,4.6581,4.52,4.6581c0.1028,0,0.5353,0,1.175,0.0015
	v0.0015c0,0,2.4494-0.0015,5.0753-0.0015c2.6136,0,5.0538,0.0015,5.0538,0.0015v-0.0015c0.6657-0.0015,1.1181-0.0015,1.2225-0.0015
	c2.928,0,4.4249-0.9878,4.5216-4.6581L43.397,4.6988z M28.7555,2.9318h3.8482h3.8682c0.8283,0.0015,1.0261,0.2101,1.0261,1.0154
	c0,0.2331-0.003,9.7917-0.003,9.7917c0,0.8313-0.1964,1.0476-1.0184,1.0506h-3.8729h-3.8513
	c-0.8236-0.0031-1.0184-0.2193-1.0184-1.0506c0,0-0.0031-9.5586-0.0031-9.7917C27.7309,3.142,27.9288,2.9334,28.7555,2.9318
	 M133.6677,4.6988c-0.0951-3.6704-1.5982-4.6949-4.52-4.6949h-12.5266c-2.9203,0-4.4633,1.0246-4.5169,4.6949l-0.0031,8.3622
	c0.0889,3.6412,1.5951,4.6581,4.52,4.6581c0.1028,0,0.5353,0,1.175,0.0015v0.0015c0,0,2.4494-0.0015,5.0753-0.0015
	c2.6136,0,5.0538,0.0015,5.0538,0.0015v-0.0015c0.6657-0.0015,1.1181-0.0015,1.2225-0.0015c2.928,0,4.4249-0.9878,4.5216-4.6581
	L133.6677,4.6988z M119.0262,2.9318h3.8482h3.8682c0.8283,0.0015,1.0261,0.2101,1.0261,1.0154c0,0.2331-0.003,9.7917-0.003,9.7917
	c0,0.8313-0.1964,1.0476-1.0184,1.0506h-3.8729h-3.8513c-0.8236-0.0031-1.0184-0.2193-1.0184-1.0506
	c0,0-0.0031-9.5586-0.0031-9.7917C118.0016,3.142,118.1995,2.9334,119.0262,2.9318 M183.5817,4.6988
	c-0.0951-3.6704-1.5982-4.6949-4.52-4.6949h-12.5266c-2.9203,0-4.4633,1.0246-4.5169,4.6949l-0.0031,8.3622
	c0.0889,3.6412,1.5951,4.6581,4.52,4.6581c0.1028,0,0.5353,0,1.175,0.0015v0.0015c0,0,2.4494-0.0015,5.0753-0.0015
	c2.6136,0,5.0538,0.0015,5.0538,0.0015v-0.0015c0.6657-0.0015,1.1181-0.0015,1.2225-0.0015c2.928,0,4.4249-0.9878,4.5216-4.6581
	L183.5817,4.6988z M168.9402,2.9318h3.8482h3.8682c0.8283,0.0015,1.0261,0.2101,1.0261,1.0154c0,0.2331-0.003,9.7917-0.003,9.7917
	c0,0.8313-0.1964,1.0476-1.0184,1.0506h-3.8729h-3.8513c-0.8236-0.0031-1.0184-0.2193-1.0184-1.0506
	c0,0-0.0031-9.5586-0.0031-9.7917C167.9155,3.142,168.1134,2.9334,168.9402,2.9318"/>
</svg>
