<?xml version="1.0" encoding="utf-8"?>
<!-- Generator: Adobe Illustrator 22.0.1, SVG Export Plug-In . SVG Version: 6.00 Build 0)  -->
<svg version="1.1" id="Layer_1" xmlns="http://www.w3.org/2000/svg" xmlns:xlink="http://www.w3.org/1999/xlink" x="0px" y="0px"
	 viewBox="0 0 308.7847 18.8503" enable-background="new 0 0 308.7847 18.8503" xml:space="preserve">
<path d="M203.1099,18.8484V0.0008h17.9492c3.1292,0,4.7757,1.1002,4.8385,5.0288c0,0,0.0419,2.2175,0.0419,4.3778
	c0,2.1509-0.0304,4.4521-0.0304,4.4521c-0.0742,3.9344-1.7169,4.9888-4.8499,4.9888h-9.8959v-3.0988h7.3948
	c0.8965,0,1.1116-0.2208,1.1116-1.1173V4.2035c0-0.8584-0.2151-1.085-1.1116-1.085h-9.163v15.7298H203.1099z M287.9727,13.8826
	c0,3.8567,1.6999,4.9644,4.8175,4.9644c0.6086,0,15.9944,0.0033,15.9944,0.0033v-3.1176h-13.4119
	c-0.8972,0-1.1093-0.2251-1.1093-1.1191c0,0,0-1.5596-0.0016-3.7572h13.5098V7.7469h-13.5115c0-1.6689-0.0016-3.4505-0.0016-3.5402
	c0-0.863,0.2137-1.0882,1.1078-1.0882h13.3238V0.0107l-15.8998,0.0082c-3.1127,0-4.8159,1.1028-4.8159,5.0035L287.9727,13.8826z
	 M32.6091,15.7254V0.0084h-6.2484v18.8314h18.3942v-3.1144H32.6091z M24.4468,4.954c0-3.8436-1.6919-4.9481-4.8013-4.9481
	c-0.1092,0-0.5922,0-1.3002-0.0016V0.0027c0,0-4.1291,0.0016-6.9057,0.0016c-2.7898,0-5.3902-0.0016-5.3902-0.0016v0.0016
	C5.3706,0.0059,4.9106,0.0059,4.8012,0.0059C1.6935,0.0059,0,1.1104,0,4.954l0.0017,13.8915h6.2646L6.2712,4.2313
	c0-0.881,0.2072-1.111,1.0801-1.1159h4.0932h5.6512c0.8729,0.0049,1.0817,0.2349,1.0817,1.1159c0,0,0.0016,1.6233,0.0016,3.5141
	H8.397v3.1095h9.7819c0.0017,3.8844,0.0017,7.8553,0.0017,7.9907h6.2646L24.4468,4.954z M244.431,7.237
	c-0.0392,0.31-0.2757,0.5057-0.5726,0.5057h-7.1407v3.1519l7.6986,7.9548h7.9205l-8.3136-8.1946l0.0049-0.1387l2.6151,0.0016
	c2.3672,0,4.1161-0.6836,4.1161-3.3966l0.0033-3.6952c0-2.713-1.589-3.4341-3.9774-3.426h-18.5818v18.8477l6.2908,0.0016V3.1242
	c0,0,9.3153-0.0016,9.3202-0.0016c0.3475,0,0.5824,0.168,0.6053,0.5057L244.431,7.237z M53.0145,15.7254V0.0084h-6.2484v18.8314
	h18.3942v-3.1144H53.0145z M99.9186,0.0356l-4.6178,13.698L90.6799,0.0422l-0.5882-0.0009l0.0005-0.0014l-4.0551-0.0042
	l-4.6548,13.8072L76.7242,0.0422l-6.213-0.0065c1.6861,4.7246,6.608,18.7874,6.608,18.7874h2.5841h3.3599h0.3067l3.8545-10.7701
	l3.8531,10.7701h2.5076h3.4334h0.2332l6.7221-18.7841L99.9186,0.0356z M122.2508,0.0171v7.5238H112.188V0.0281h-6.3403v18.803
	h6.3403v-8.2822h10.0629v8.2822h6.3458V0.0281L122.2508,0.0171z M153.3719,13.8826c0,3.8567,1.6999,4.9644,4.8175,4.9644
	c0.6086,0,15.9944,0.0033,15.9944,0.0033v-3.1176h-13.4119c-0.8972,0-1.1093-0.2251-1.1093-1.1191c0,0,0-1.5596-0.0016-3.7572
	h13.5098V7.7469h-13.5114c0-1.6689-0.0016-3.4505-0.0016-3.5402c0-0.863,0.2137-1.0882,1.1078-1.0882h13.3238V0.0107
	l-15.8998,0.0082c-3.1127,0-4.8159,1.1028-4.8159,5.0035L153.3719,13.8826z M130.5179,13.8826c0,3.8567,1.6999,4.9644,4.8175,4.9644
	c0.6086,0,15.9944,0.0033,15.9944,0.0033v-3.1176H137.918c-0.8973,0-1.1094-0.2251-1.1094-1.1191c0,0,0-1.5596-0.0016-3.7572
	h13.5098V7.7469h-13.5115c0-1.6689-0.0016-3.4505-0.0016-3.5402c0-0.863,0.2137-1.0882,1.1078-1.0882h13.3238V0.0107
	l-15.8998,0.0082c-3.1127,0-4.8159,1.1028-4.8159,5.0035L130.5179,13.8826z M261.3309,0.0107
	c1.97,4.7347,6.6818,16.3506,6.9924,17.0536c0.4316,0.9777,0.8502,1.7739,2.5063,1.7739l6.3565,0.0016
	c1.6562,0,2.0747-0.7929,2.5079-1.7706c0.4332-0.9809,7.1151-17.0553,7.1151-17.0553l-4.738-0.0033l-6.0573,15.4122
	c-0.1128,0.2649-0.2632,0.2976-0.6801,0.2976c-0.4185,0-0.5673-0.0327-0.6817-0.2976l-6.0622-15.4057L261.3309,0.0107z
	 M253.594,18.8398h6.2432V0.0107h-6.2432V18.8398z M182.7923,15.7254V0.0084h-6.2484v18.8314h18.3941v-3.1144H182.7923z"/>
</svg>
