<?xml version="1.0" encoding="utf-8"?>
<!-- Generator: Adobe Illustrator 22.0.1, SVG Export Plug-In . SVG Version: 6.00 Build 0)  -->
<svg version="1.1" id="Layer_1" xmlns="http://www.w3.org/2000/svg" xmlns:xlink="http://www.w3.org/1999/xlink" x="0px" y="0px"
	 viewBox="0 0 1100 137.374" enable-background="new 0 0 1100 137.374" xml:space="preserve">
<polyline points="71.511,29.607 36.464,108.326 85.784,108.326 99.435,77.663 146.634,77.663 132.981,108.326 182.423,108.326 
	217.47,29.607 168.03,29.607 154.592,59.788 107.394,59.788 120.831,29.607 "/>
<polygon points="209.567,66.731 240.626,108.326 191.048,108.326 "/>
<path fill="#FFFFFF" d="M217.052,49.545l9.043-19.937h132.757c6.348,0,10.591,6.536,8.01,12.334l-13.644,30.645
	c-1.375,3.088-4.438,5.077-7.818,5.077h-43.778l44.322,59.354h-49.303l-57.67-77.229h70.431l4.561-10.244H217.052z"/>
<path d="M327.091,87.976l15.196,20.35h144.039c3.467,0,6.608-2.041,8.018-5.207l13.534-30.399
	c2.707-6.079-1.743-12.931-8.397-12.931h-83.253l5.353-10.244h96.616l8.877-19.937H386.756c-3.61,0-6.879,2.132-8.334,5.436
	l-10.96,24.883l-2.744,6.052c-2.482,5.475,1.521,11.686,7.533,11.686h83.914l-4.591,10.313H327.091z"/>
<path d="M353.034,122.717l10.678,14.3h137.097c5.884,0,11.218-3.463,13.611-8.839l47.755-107.259
	c4.173-9.372-2.687-19.935-12.946-19.935H61.686c-5.442,0-10.374,3.203-12.587,8.174L1.272,116.579
	c-4.278,9.608,2.755,20.438,13.273,20.438h264.367l-11-14.3l-253.127-0.164L62.789,14.734h485.439l-47.256,107.983H353.034z"/>
<g>
	<path d="M619.568,37.406l6.403-13.806h-27.864l-6.403,13.806h-13.087L595.856,0h13.087l-6.403,13.747h27.864L636.807,0h13.087
		l-17.239,37.406H619.568z"/>
	<path d="M659.324,0h16.184l7.881,15.517L705.553,0h16.183L685.64,24.957l-5.77,12.449h-13.228l5.77-12.449L659.324,0z"/>
	<path d="M768.598,35.134c-0.469,0.413-0.997,0.787-1.583,1.121c-0.587,0.334-1.196,0.61-1.83,0.826
		c-0.634,0.217-1.186,0.325-1.654,0.325h-49.606L731.165,0h49.606c0.468,0,0.914,0.108,1.337,0.324
		c0.422,0.217,0.773,0.492,1.055,0.826c0.282,0.334,0.468,0.708,0.563,1.121c0.094,0.413,0.071,0.796-0.07,1.15l-5.066,10.797
		c-0.141,0.197-0.399,0.482-0.773,0.855c-0.376,0.375-0.809,0.758-1.302,1.15c-0.493,0.394-1.02,0.777-1.584,1.151
		c-0.563,0.374-1.08,0.659-1.548,0.855c0.282,0.236,0.528,0.541,0.74,0.914c0.211,0.375,0.387,0.748,0.528,1.121
		c0.141,0.375,0.234,0.729,0.281,1.062c0.047,0.335,0.071,0.62,0.071,0.855l-5.489,11.8
		C769.372,34.338,769.066,34.721,768.598,35.134z M733.416,23.6l-1.83,3.953h27.864l1.83-3.953H733.416z M739.679,9.853l-1.83,3.953
		h27.864l1.83-3.953H739.679z"/>
	<path d="M841.425,19.47c-0.235,0.236-0.552,0.541-0.95,0.915c-0.398,0.374-0.833,0.748-1.301,1.121
		c-0.469,0.374-0.975,0.737-1.513,1.091c-0.54,0.354-1.045,0.63-1.513,0.826c0.281,0.236,0.538,0.531,0.773,0.885
		c0.234,0.354,0.423,0.718,0.564,1.092c0.14,0.374,0.234,0.728,0.281,1.062c0.047,0.334,0.071,0.619,0.071,0.855l-4.645,10.089
		h-13.087l4.222-9.086h-27.864l-4.222,9.086h-13.087L796.392,0h49.606c0.468,0,0.914,0.108,1.337,0.324
		c0.422,0.217,0.773,0.492,1.055,0.826c0.282,0.334,0.468,0.708,0.563,1.121c0.094,0.413,0.071,0.796-0.07,1.15L841.425,19.47z
		 M832.77,9.853h-27.864l-4.011,8.614h27.864L832.77,9.853z"/>
	<path d="M844.449,37.406L861.688,0h13.158l-17.239,37.406H844.449z"/>
	<path d="M879.701,13.806h13.087l-6.262,13.747h27.864l8.092-17.7H881.53L886.104,0h48.692c0.468,0,0.949,0.138,1.442,0.413
		c0.493,0.276,0.915,0.62,1.267,1.033c0.352,0.413,0.597,0.866,0.738,1.357c0.141,0.492,0.116,0.974-0.07,1.445l-13.299,28.91
		c-0.141,0.354-0.504,0.777-1.091,1.269c-0.587,0.492-1.255,0.964-2.004,1.416c-0.751,0.453-1.513,0.826-2.287,1.121
		c-0.773,0.295-1.396,0.442-1.865,0.442h-48.762L879.701,13.806z"/>
</g>
<g>
	<path d="M579.379,135.564c-0.387,0.329-0.82,0.627-1.303,0.894c-0.483,0.266-0.983,0.485-1.503,0.657
		c-0.522,0.173-0.976,0.259-1.361,0.259h-40.788l3.76-7.849h33.672l1.504-3.196h-30.027c-0.425,0-0.801-0.086-1.128-0.259
		c-0.328-0.172-0.607-0.392-0.838-0.658c-0.232-0.266-0.387-0.563-0.463-0.893c-0.078-0.329-0.058-0.635,0.058-0.917l6.364-13.301
		c0.115-0.281,0.356-0.587,0.723-0.916c0.366-0.329,0.8-0.627,1.302-0.894c0.501-0.266,1.003-0.485,1.504-0.657
		c0.501-0.172,0.964-0.259,1.388-0.259h40.788l-3.76,7.849h-33.673l-1.504,3.149h30.027c0.385,0,0.762,0.087,1.128,0.259
		c0.365,0.172,0.666,0.392,0.897,0.657c0.231,0.267,0.385,0.564,0.464,0.894c0.077,0.329,0.036,0.634-0.115,0.916l-6.364,13.349
		C580.014,134.929,579.763,135.235,579.379,135.564z"/>
	<path d="M588.115,137.374l14.174-29.798h10.819l-14.175,29.798H588.115z"/>
	<path d="M627.859,118.621l-8.91,18.753h-10.761l14.175-29.798h14.174l6.076,17.766l23.2-17.766h14.117l-14.174,29.798h-10.761
		l8.91-18.753l-24.242,18.753h-5.381L627.859,118.621z"/>
	<path d="M722.8,107.576h10.761l-12.901,27.072c-0.117,0.281-0.368,0.587-0.753,0.916c-0.386,0.329-0.82,0.627-1.302,0.894
		c-0.483,0.266-0.983,0.485-1.504,0.657c-0.522,0.173-0.975,0.259-1.36,0.259h-37.145c-0.424,0-0.801-0.086-1.128-0.259
		c-0.328-0.172-0.607-0.392-0.839-0.657c-0.231-0.267-0.386-0.564-0.463-0.894c-0.078-0.329-0.058-0.635,0.058-0.916l12.902-27.072
		h10.761l-10.414,21.949h22.91L722.8,107.576z"/>
	<path d="M728.584,137.374l14.175-29.798h10.761l-10.414,21.949h28.001l-3.76,7.849H728.584z"/>
	<path d="M810.22,137.374l3.472-7.238H790.78l-3.472,7.238h-10.761l12.902-27.072c0.115-0.281,0.356-0.587,0.724-0.916
		c0.365-0.329,0.799-0.627,1.301-0.894c0.501-0.266,1.003-0.485,1.505-0.657c0.5-0.172,0.963-0.259,1.388-0.259h37.143
		c0.385,0,0.753,0.087,1.099,0.259c0.347,0.172,0.637,0.392,0.868,0.657c0.232,0.267,0.386,0.564,0.463,0.894
		c0.077,0.329,0.059,0.635-0.058,0.916l-12.901,27.072H810.22z M794.425,122.333h22.911l3.297-6.909h-22.911L794.425,122.333z"/>
	<path d="M840.593,115.424l3.761-7.849h42.697l-3.76,7.849h-16.027l-10.414,21.949h-10.76l10.414-21.949H840.593z"/>
	<path d="M882.135,137.374l14.174-29.798h10.819l-14.175,29.798H882.135z"/>
	<path d="M905.853,137.374c-0.424,0-0.801-0.086-1.128-0.259c-0.328-0.172-0.607-0.392-0.839-0.657
		c-0.231-0.267-0.386-0.564-0.463-0.894c-0.078-0.329-0.058-0.635,0.058-0.916l11.629-24.347c0.154-0.376,0.434-0.729,0.839-1.058
		s0.847-0.618,1.331-0.869c0.482-0.25,0.974-0.446,1.475-0.588c0.501-0.141,0.945-0.211,1.331-0.211h37.028
		c0.81,0,1.494,0.267,2.053,0.799c0.559,0.533,0.685,1.175,0.376,1.927l-11.628,24.347c-0.117,0.281-0.368,0.587-0.753,0.916
		c-0.386,0.329-0.82,0.627-1.302,0.894c-0.483,0.266-0.983,0.485-1.504,0.657c-0.522,0.173-0.975,0.259-1.36,0.259H905.853z
		 M946.294,115.424h-22.911l-6.653,14.101h22.91L946.294,115.424z"/>
	<path d="M991.943,137.374l-16.431-18.659l-8.91,18.659h-10.761l14.175-29.798h11.165l16.432,18.706l8.91-18.706h10.76
		l-14.174,29.798H991.943z"/>
	<path d="M1057.263,135.564c-0.386,0.329-0.82,0.627-1.302,0.894c-0.483,0.266-0.983,0.485-1.504,0.657
		c-0.522,0.173-0.975,0.259-1.36,0.259h-40.789l3.761-7.849h33.672l1.505-3.196h-30.028c-0.424,0-0.801-0.086-1.128-0.259
		c-0.328-0.172-0.608-0.392-0.839-0.658c-0.232-0.266-0.386-0.563-0.463-0.893c-0.078-0.329-0.058-0.635,0.058-0.917l6.364-13.301
		c0.115-0.281,0.356-0.587,0.724-0.916c0.365-0.329,0.799-0.627,1.301-0.894c0.501-0.266,1.003-0.485,1.505-0.657
		c0.5-0.172,0.963-0.259,1.389-0.259h40.788l-3.76,7.849h-33.673l-1.504,3.149h30.027c0.386,0,0.762,0.087,1.129,0.259
		c0.365,0.172,0.665,0.392,0.897,0.657c0.231,0.267,0.385,0.564,0.463,0.894c0.077,0.329,0.037,0.634-0.115,0.916l-6.364,13.349
		C1057.899,134.929,1057.648,135.235,1057.263,135.564z"/>
</g>
<g>
	<path fill="#FFFFFF" d="M646.096,73.037c-0.358,0.355-0.84,0.816-1.447,1.379c-0.607,0.564-1.271,1.128-1.984,1.691
		c-0.715,0.564-1.485,1.112-2.306,1.646c-0.821,0.534-1.591,0.949-2.304,1.246c0.428,0.355,0.821,0.801,1.179,1.335
		c0.358,0.534,0.642,1.083,0.859,1.646c0.214,0.564,0.355,1.099,0.428,1.602c0.071,0.505,0.106,0.935,0.106,1.291l-7.076,15.219
		h-19.946l6.434-13.706h-42.462l-6.434,13.706h-19.944l26.271-56.426h75.596c0.715,0,1.395,0.164,2.038,0.489
		c0.642,0.327,1.179,0.742,1.61,1.246c0.428,0.505,0.713,1.068,0.857,1.691c0.144,0.622,0.108,1.201-0.106,1.735L646.096,73.037z
		 M632.907,58.529h-42.462l-6.111,12.994h42.462L632.907,58.529z"/>
	<path fill="#FFFFFF" d="M713.008,100.092l6.434-13.706h-42.463l-6.434,13.706H650.6l23.912-51.264
		c0.214-0.534,0.66-1.113,1.34-1.735c0.679-0.623,1.484-1.187,2.413-1.691c0.928-0.504,1.858-0.919,2.787-1.246
		c0.928-0.325,1.786-0.489,2.574-0.489h68.841c0.714,0,1.394,0.164,2.038,0.489c0.642,0.327,1.179,0.742,1.608,1.246
		c0.428,0.505,0.713,1.068,0.858,1.691c0.142,0.622,0.107,1.201-0.107,1.735l-23.913,51.264H713.008z M683.734,71.612h42.463
		l6.111-13.083h-42.462L683.734,71.612z"/>
	<path fill="#FFFFFF" d="M756.758,100.092c-0.787,0-1.484-0.163-2.091-0.489c-0.608-0.325-1.126-0.741-1.554-1.246
		c-0.429-0.504-0.715-1.068-0.858-1.691c-0.145-0.623-0.107-1.201,0.107-1.735l21.553-46.102c0.285-0.712,0.805-1.38,1.555-2.003
		s1.571-1.171,2.466-1.646c0.893-0.474,1.804-0.846,2.734-1.112c0.928-0.268,1.751-0.4,2.466-0.4h68.627
		c1.501,0,2.77,0.505,3.806,1.513c1.035,1.01,1.268,2.225,0.698,3.649l-7.721,16.554h-19.946l3.11-6.854h-42.462l-12.332,26.7
		h42.463l3.11-6.853h19.944l-7.721,16.554c-0.214,0.534-0.68,1.112-1.394,1.735c-0.715,0.623-1.519,1.188-2.412,1.691
		c-0.895,0.505-1.823,0.921-2.789,1.246c-0.965,0.326-1.806,0.489-2.519,0.489H756.758z"/>
	<path fill="#FFFFFF" d="M849.512,100.092l26.271-56.426h20.053l-26.272,56.426H849.512z"/>
	<path fill="#FFFFFF" d="M953.631,100.092l-30.454-35.333l-16.514,35.333H886.72l26.271-56.426h20.695l30.454,35.422l16.514-35.422
		h19.944l-26.271,56.426H953.631z"/>
	<path fill="#FFFFFF" d="M1076.087,94.93c-0.214,0.534-0.68,1.112-1.394,1.735c-0.715,0.623-1.519,1.188-2.412,1.691
		c-0.895,0.505-1.823,0.921-2.788,1.246c-0.965,0.326-1.806,0.489-2.519,0.489H998.13c-0.787,0-1.484-0.163-2.091-0.489
		c-0.608-0.325-1.126-0.741-1.554-1.246c-0.429-0.504-0.715-1.068-0.858-1.691c-0.145-0.623-0.107-1.201,0.107-1.735l21.553-46.102
		c0.285-0.712,0.805-1.38,1.555-2.003s1.571-1.171,2.466-1.646c0.893-0.474,1.804-0.846,2.734-1.112
		c0.928-0.268,1.751-0.4,2.466-0.4H1100l-6.97,14.862h-62.408l-12.332,26.7h42.463l2.787-6.052h-32.383l6.756-14.685h45.573
		c0.713,0,1.411,0.164,2.091,0.489c0.678,0.326,1.233,0.742,1.661,1.246c0.429,0.505,0.714,1.067,0.858,1.69
		c0.143,0.623,0.071,1.202-0.214,1.735L1076.087,94.93z"/>
</g>
</svg>
