<?xml version="1.0" encoding="utf-8"?>
<!-- Generator: Adobe Illustrator 22.0.1, SVG Export Plug-In . SVG Version: 6.00 Build 0)  -->
<svg version="1.1" id="Layer_1" xmlns="http://www.w3.org/2000/svg" xmlns:xlink="http://www.w3.org/1999/xlink" x="0px" y="0px"
	 viewBox="0 0 1024.393 307.333" enable-background="new 0 0 1024.393 307.333" xml:space="preserve">
<polyline points="130.021,52.042 66.298,195.167 155.971,195.167 180.792,139.417 266.607,139.417 241.785,195.167 331.678,195.167 
	395.401,52.042 305.509,52.042 281.077,106.917 195.262,106.917 219.694,52.042 "/>
<polygon points="381.031,119.541 437.503,195.167 347.36,195.167 "/>
<path fill="#FFFFFF" d="M394.641,88.292l16.442-36.25H652.46c11.541,0,19.257,11.883,14.563,22.425l-24.807,55.718
	c-2.5,5.614-8.069,9.231-14.215,9.231h-79.596l80.585,107.917h-89.642L434.494,106.917h128.057l8.292-18.625H394.641z"/>
<path d="M594.712,158.167l27.629,37H884.23c6.303,0,12.015-3.71,14.579-9.468l24.608-55.271
	c4.921-11.053-3.169-23.511-15.268-23.511H756.78l9.732-18.625h175.665l16.14-36.25H703.194c-6.564,0-12.508,3.877-15.153,9.884
	l-19.927,45.241l-4.989,11.003c-4.513,9.955,2.765,21.247,13.696,21.247h152.571l-8.348,18.75H594.712z"/>
<path d="M641.88,221.333l19.415,26h249.267c10.699,0,20.396-6.297,24.747-16.071l86.827-195.016
	C1029.723,19.206,1017.251,0,998.597,0h-886.44c-9.894,0-18.861,5.823-22.885,14.862L2.314,210.173
	c-7.778,17.47,5.009,37.16,24.132,37.16h480.668l-20-26l-460.231-0.299L114.163,25H996.78l-85.92,196.333H641.88z"/>
<path d="M405.957,307.333h42.229c2.186,0,3.958-1.772,3.958-3.958v-15.552c0-2.019-1.637-3.656-3.656-3.656h-32.375v-5h36.031v-9.5
	h-43.234c-1.631,0-2.953,1.322-2.953,2.953v18.641c0,1.036,0.839,1.875,1.875,1.875h33.031v5h-34.906V307.333z"/>
<polygon points="135.114,269.667 146.364,269.667 146.364,284.167 170.114,284.167 170.114,269.667 181.332,269.667 
	181.332,307.333 170.114,307.333 170.114,293.135 146.364,293.135 146.364,307.333 135.114,307.333 "/>
<path d="M254.775,269.667h43.526v9.5H263.27v5l33.196,0.316c1.017,0.01,1.836,0.836,1.836,1.853v18.529
	c0,1.363-1.105,2.469-2.469,2.469H252.02l-0.073-9.25l32.083,0.083l0.25-5l-30.376-0.029c-1.041-0.001-1.884-0.845-1.884-1.886
	v-18.829C252.02,270.9,253.254,269.667,254.775,269.667z"/>
<rect x="310.114" y="269.667" width="11.156" height="37.667"/>
<polygon points="334.02,269.667 334.02,307.333 344.176,307.333 344.176,284.167 344.863,284.167 360.529,307.333 366.946,307.333 
	382.113,284.167 382.957,284.167 382.957,307.333 393.332,307.333 393.332,269.667 378.447,269.75 363.676,291.333 349.03,269.667 
	"/>
<rect x="464.02" y="298.135" width="11.25" height="9.198"/>
<path d="M490.145,269.667h39.938c1.778,0,3.219,1.441,3.219,3.219v11.281h-11.188l-0.083-5.083l-23.76,0.083v18.969h23.844v-5
	h11.188v11.646c0,1.409-1.143,2.552-2.552,2.552h-41.302c-1.289,0-2.333-1.045-2.333-2.333v-32.302
	C487.114,271.024,488.471,269.667,490.145,269.667z"/>
<path d="M545.926,272.729v32.177c0,1.34,1.087,2.427,2.427,2.427h40.536c1.315,0,2.38-1.066,2.38-2.38v-32.302
	c0-1.648-1.336-2.984-2.984-2.984h-39.297C547.297,269.667,545.926,271.038,545.926,272.729z M580.989,298.135H556.27v-18.969
	h24.719V298.135z"/>
<polygon points="604.02,269.667 618.697,269.667 633.629,292.292 649.197,269.667 663.239,269.667 663.239,307.333 652.989,307.333 
	652.989,284.167 652.301,284.167 636.614,307.333 630.864,307.333 615.614,284.167 615.114,284.167 615.114,307.333 604.02,307.333 
	"/>
<rect x="676.082" y="298.135" width="11.031" height="9.198"/>
<path d="M699.051,272.74v34.594h11.188v-9.198l23.625-0.094l0.156,9.292h11.188v-34.745c0-1.614-1.308-2.922-2.922-2.922h-40.161
	C700.427,269.667,699.051,271.042,699.051,272.74z M734.02,289.042h-23.781v-9.875h23.781V289.042z"/>
<path d="M757.114,269.667h11.125v28.469h24.75v-28.469l10.25,0.375v37.292l-42.987-0.505c-1.739-0.02-3.138-1.436-3.138-3.175
	V269.667z"/>
<path d="M239.207,289.042v-16.203c0-1.752-1.42-3.172-3.172-3.172h-42.078v37.667h10.313v-9.198l24.76-0.302l-0.042,9.5h10.219
	v-9.198c0-3.313-2.156-5-2.156-5S239.207,292.167,239.207,289.042z M228.989,289.042H204.27v-9.875h24.719V289.042z"/>
</svg>
