<?xml version="1.0" encoding="utf-8"?>
<!-- Generator: Adobe Illustrator 22.0.1, SVG Export Plug-In . SVG Version: 6.00 Build 0)  -->
<svg version="1.1" id="Layer_1" xmlns="http://www.w3.org/2000/svg" xmlns:xlink="http://www.w3.org/1999/xlink" x="0px" y="0px"
	 viewBox="0 0 160.5366 160.5366" enable-background="new 0 0 160.5366 160.5366" xml:space="preserve">
<path d="M64.227,146.0723h1.7249c19.6636-13.9715,39.8877-21.4747,76.1532-32.6001l5.9229-11.5148
	C120.1129,110.6261,86.1329,127.7024,64.227,146.0723z"/>
<path d="M136.2405,45.9686v-5.5627c-6.6455-7.9312-17.8483-9.185-26.0025-9.185c-20.6985,0-44.3077,15.7826-44.7605,39.3918
	c-0.8362,1.3089-1.6427,2.4806-2.5226,3.4282c-0.8409,0.9056-2.759,0.9457-3.0401-1.423
	c-2.7167-22.8977,10.4786-37.7024,31.1771-48.2534c-0.5605-2.7167-2.4631-7.5456-3.881-9.7024
	c-0.5175,3.3635-1.8361,7.2364-4.614,9.3143c-10.9529,8.1931-42.237,8.5077-45.0624,12.2897
	c-1.373,1.838-0.084,4.5881-2.1992,7.2445c-2.7814,3.4929-10.8697,4.6847-21.6903,15.0495
	c-0.5788,0.5544-0.9076,1.6743-0.4448,2.3286c0,0,6.7405,8.8512,10.1903,13.6265l0.2048-0.345
	c-1.6278-6.0371,4.2367-11.5567,11.3518-11.6429c9.3146-0.1129,20.8961,12.6778,20.9572,19.2755
	c0.0647,6.9857-12.031,13.7774-23.1953,5.5834c3.3377,3.7309,7.9949,9.3583,10.2588,12.0103
	c1.8111-4.3337,6.5693-7.0039,14.683-7.5032c4.2044-0.2587,6.2382,3.1623,6.2095,7.8266
	c-0.0647,10.5433-20.7632,27.3608-30.2069,27.6196l2.846,3.2341l34.4547-0.4975c13.2812-14.1639,55.0232-34.2587,66.3211-39.2608
	c1.067-0.4724,1.9722-1.6172,2.5873-2.6088c2.3712-3.8223,6.9568-13.3122,6.9857-21.5394
	C146.8769,58.5817,142.5794,51.79,136.2405,45.9686z M54.6637,35.9562c-2.5718,1.541-7.2327,4.0363-9.8523,5.9444
	c-0.4426,0.3224-1.0543,0.3604-1.4449-0.0234c-0.547-0.5375-2.0458-1.9898-2.5005-2.6074
	c-0.8536-1.1595-0.6854-1.5308,0.9485-2.0294c3.2973-1.0062,8.7165-2.3236,12.5375-2.3249
	C55.035,34.9153,55.484,35.4647,54.6637,35.9562z M114.6364,74.7919c-3.924,7.9775-19.2755,12.8072-41.1383,28.3311l-7.5679-9.3143
	c-0.0032-2.0052,2.6971-5.9201,3.8163-7.3738c3.1371-4.075,3.4929-6.1664,3.7516-14.582
	c10.4422-4.7844,33.4242-12.1406,43.8549-13.8785C118.388,64.227,116.3203,71.3685,114.6364,74.7919z"/>
<path d="M89.7335,71.0655l-12.177,4.4732c-0.2118,0.0778-0.2491,0.3614-0.0647,0.4914l2.0363,1.4349
	c0.4424,0.3117,1.0343,0.3065,1.4711-0.0129L89.7335,71.0655z"/>
<path d="M80.2683,0C35.9374,0,0,35.9373,0,80.2683s35.9374,80.2683,80.2683,80.2683s80.2683-35.9373,80.2683-80.2683
	S124.5993,0,80.2683,0z M80.2683,153.9166c-40.6749,0-73.6483-32.9734-73.6483-73.6482S39.5935,6.6201,80.2683,6.6201
	c40.6748,0,73.6482,32.9734,73.6482,73.6482S120.9431,153.9166,80.2683,153.9166z"/>
</svg>
