<?xml version="1.0" encoding="utf-8"?>
<!-- Generator: Adobe Illustrator 22.0.1, SVG Export Plug-In . SVG Version: 6.00 Build 0)  -->
<svg version="1.1" id="Layer_1" xmlns="http://www.w3.org/2000/svg" xmlns:xlink="http://www.w3.org/1999/xlink" x="0px" y="0px"
	 viewBox="0 0 217.1661 53.3782" enable-background="new 0 0 217.1661 53.3782" xml:space="preserve">
<path d="M193.6708,0.0793L170.7139,33.123h-3.3026l-6.3421-33.061h-55.7568c-2.1287,0-8.3427,0.5822-10.1425,1.2978
	c-7.8739,3.1306-10.795,7.5164-11.4698,13.9411c-1.0156,6.8386,4.914,14.1322,10.7109,16.8272
	c3.6049,1.676,8.253,0.9949,11.8583,0.9949h12.6805c1.1858,0,2.6755,0.9853,2.6658,2.8516
	c-0.0096,1.8455-1.8437,2.8891-3.2034,2.8575H69.9268L79.0792,0L57.576,0.0223l-4.7482,18.5083H30.5492L34.7466,0.062
	l-21.933,0.0025L0,53.3014h21.9804l5.0935-20.4459h22.4654l-3.9701,16.6661c-0.4349,1.9477,1.0432,3.7981,3.0389,3.8043
	l16.7528,0.049l-0.0008,0.0033l0.911-0.0006l0.2274,0.0006l0.0002-0.0008l53.2063-0.0388c5.56-0.2255,9.0409-1.2326,12.7476-4.6404
	c5.8817-5.4074,7.4669-13.0672,4.2312-19.5638c-2.9518-6.0455-10.3034-10.1502-18.6197-10.6037h-16.1905
	c-0.3,0-1.4414-0.3083-1.4414-1.976c0-1.4392,1.0964-1.7482,1.4369-1.7482l40.3921-0.1654l7.2473,38.7371h30.6205l37.0372-53.2815
	L193.6708,0.0793z"/>
</svg>
