<?xml version="1.0" encoding="utf-8"?>
<!-- Generator: Adobe Illustrator 22.0.1, SVG Export Plug-In . SVG Version: 6.00 Build 0)  -->
<svg version="1.1" id="Layer_1" xmlns="http://www.w3.org/2000/svg" xmlns:xlink="http://www.w3.org/1999/xlink" x="0px" y="0px"
	 viewBox="0 0 178.6567 92.5212" enable-background="new 0 0 178.6567 92.5212" xml:space="preserve">
<path fill="#77B52A" d="M89.36,83.8063c-12.0386,0.001-24.0879-3.166-31.4336-9.5068c-2.2378-1.7285-6.4102-2.0625-6.4521-2.0654
	l-18.8599-2.2529l-6.9355-1.1826c-0.0337-0.0059-0.0679-0.0127-0.1011-0.0205c-7.9961-1.8779-10.8911-9.1895-11.0103-9.5
	L0.358,14.6813c-0.0156-0.0488-0.0288-0.0986-0.04-0.1484C-0.3544,11.487,0.0406,9.0456,1.4928,7.278
	c2.125-2.5879,5.6729-2.5615,5.8257-2.5381c0.0396,0,0.0791,0.0029,0.1187,0.0059l25.2251,2.3369
	c1.1606-4.8613,4.0054-6.7578,10.2319-7.0811c0.0708-0.0029,0.1401-0.002,0.2109,0.0029c30.2329,2.2324,62.2007,2.2314,92.4473,0
	c0.0698-0.0049,0.1406-0.0059,0.2104-0.0029c6.2256,0.3232,9.0698,2.2188,10.2319,7.0811l25.2251-2.3369
	c0.0396-0.0029,0.0791-0.0059,0.1187-0.0059c0.1592-0.0117,3.7002-0.0488,5.8262,2.5381c1.4512,1.7676,1.8467,4.209,1.1738,7.2549
	c-0.0107,0.0498-0.0234,0.0996-0.0391,0.1484l-14.1787,44.5039c-0.1519,0.4023-3.0449,7.7148-11.0415,9.5928
	c-0.0332,0.0078-0.0674,0.0146-0.1011,0.0205l-6.8521,1.1699l-18.8687,2.2588c-0.1172,0.0098-4.2886,0.3438-6.5962,2.1299
	C113.3678,80.654,101.3692,83.8063,89.36,83.8063z"/>
<path fill="#3B302E" d="M144.6339,8.847l26.741-2.477c0,0,7.067-0.154,5.322,7.75l-14.178,44.504c0,0-2.602,6.771-9.824,8.467
	l-6.852,1.17l-18.785,2.246c0,0-4.675,0.341-7.426,2.47c0,0-11.193,9.662-30.273,9.108c-0.37,0.19-0.686,0.188-0.954,0.017
	c0.294-0.004,0.591-0.0099,0.889-0.018h0.039c-1.507,0.045-2.965,0.026-4.373-0.047c-16.427-0.852-25.935-9.06-25.935-9.06
	c-2.751-2.129-7.426-2.47-7.426-2.47l-18.785-2.246l-6.852-1.17c-7.222-1.696-9.825-8.467-9.825-8.467L1.9599,14.12
	c-1.745-7.904,5.322-7.75,5.322-7.75l26.741,2.477c0.809-5.2759,3.006-6.907,8.958-7.2159c30.327,2.239,62.476,2.23,92.695,0
	C141.6279,1.94,143.8238,3.5711,144.6339,8.847"/>
<path fill="#65605E" d="M89.5878,82.0882c-0.0771-0.0019-0.1516-0.0007-0.2289-0.0029c-0.369,0.189-0.684,0.187-0.952,0.019
	c-0.4352,0.0056-0.8617,0.0003-1.2885-0.0046L11.8084,6.7896l2.7343,0.2532L89.5878,82.0882z M92.4118,3.2791l62.8988,62.899
	c0.571-0.2675,1.0966-0.5693,1.5915-0.8895L94.8706,3.2569C94.0509,3.2639,93.2319,3.2752,92.4118,3.2791z M99.7845,3.2126
	c-0.8187,0.0131-1.6394,0.0121-2.4587,0.0222l61.0032,61.0035c0.467-0.394,0.8926-0.7998,1.274-1.2072L99.7845,3.2126z
	 M102.2237,3.1697l58.5096,58.5099c0.4022-0.5385,0.7339-1.046,0.9934-1.4879L104.6393,3.1044
	C103.8331,3.1233,103.0307,3.1537,102.2237,3.1697z M107.0306,3.0397l55.5123,55.5125l0.5994-1.8817L109.4463,2.9744
	C108.6421,2.9993,107.8359,3.0178,107.0306,3.0397z M111.863,2.9091l51.8789,51.8791l0.5994-1.8817L114.2512,2.8163
	C113.4546,2.847,112.6609,2.8813,111.863,2.9091z M116.6208,2.7089l48.3189,48.3192l0.5995-1.8818L118.9942,2.6013
	C118.2033,2.6378,117.4134,2.6754,116.6208,2.7089z M81.9128,81.7874c0.876,0.0972,1.7814,0.1671,2.702,0.221L9.1498,6.5433
	l-1.8679-0.173c0,0-0.2928-0.0031-0.7349,0.0512L81.9128,81.7874z M3.1205,7.9579L75.906,80.7437
	c1.0034,0.2361,2.0355,0.4551,3.1195,0.6385L4.5963,6.9527C4.0841,7.1818,3.5741,7.5126,3.1205,7.9579z M1.6914,11.4858
	l66.938,66.9384c1.1875,0.4852,2.476,0.9518,3.8668,1.3862L2.1227,9.4368C1.8836,10.0088,1.7232,10.6799,1.6914,11.4858z
	 M2.0143,14.291l1.1597,3.6403l53.9378,53.9382c0.681,0.3016,1.3396,0.6639,1.9131,1.1078c0,0,1.705,1.4593,4.8834,3.2078
	L2.0143,14.291z M4.2674,21.3639l1.1597,3.6404L50.838,70.4155l0.7599,0.0908c0,0,0.8932,0.0654,2.1285,0.3167L4.2674,21.3639z
	 M7.747,32.2872l37.4544,37.4546l2.8172,0.3367L6.5876,28.6473L7.747,32.2872z M10.0649,39.5633l29.5054,29.5055l2.8177,0.3368
	L8.9051,35.9225L10.0649,39.5633z M12.3847,46.8456l21.5495,21.5496l2.8177,0.3367L11.225,43.2051L12.3847,46.8456z
	 M28.1011,67.4559l2.9924,0.5114L13.5127,50.3864l1.1598,3.6408L28.1011,67.4559z M15.8326,57.6691l0.3043,0.9551
	c0,0,2.3696,6.1284,8.8304,8.1795L15.8326,57.6691z M121.3684,2.4937l44.7703,44.7704l0.5994-1.8818L123.7419,2.3861
	C122.9545,2.4285,122.1576,2.4543,121.3684,2.4937z M126.018,2.2498l41.3029,41.3032l0.5995-1.8818l-39.571-39.571
	C127.5706,2.1481,126.7988,2.2049,126.018,2.2498z M130.6816,1.9506l37.8383,37.8385l0.5994-1.8818L133.0131,1.801
	C132.2388,1.8547,131.4582,1.8998,130.6816,1.9506z M169.7176,36.0294l0.5994-1.8816L144.9842,8.8148l-0.3503,0.0325
	c-0.0249-0.1621-0.0554-0.3104-0.0829-0.4657l-6.5212-6.5212c-0.7134-0.1079-1.4902-0.1851-2.3549-0.2302
	c-0.1108,0.0082-0.2239,0.0134-0.3348,0.0215L169.7176,36.0294z M141.9006,3.2493l1.1828,1.1828
	C142.7487,3.9713,142.3555,3.5809,141.9006,3.2493z M171.516,30.3838L149.5264,8.3941l-2.2707,0.2103l23.6609,23.6609
	L171.516,30.3838z M151.6672,8.1958l20.414,20.4141l0.5992-1.8813l-18.743-18.7431L151.6672,8.1958z M156.2094,7.775
	l17.0707,17.0709l0.5993-1.8813L158.4797,7.5648L156.2094,7.775z M160.7467,7.3547l13.7312,13.7313l0.5994-1.8817L163.0174,7.1444
	L160.7467,7.3547z M165.2889,6.934l10.388,10.3881l0.5994-1.8817l-8.7166-8.7167L165.2889,6.934z M171.3749,6.3702l-1.6074,0.1489
	l7.024,7.0241c0.1528-0.8817,0.1973-1.6602,0.1432-2.338l-4.777-4.7771C171.6896,6.3677,171.3749,6.3702,171.3749,6.3702z
	 M115.5395,75.7433c0.5708-0.33,1.0891-0.6461,1.5434-0.9376L43.971,1.6937c-0.3279-0.0237-0.6617-0.0392-0.9891-0.0634
	c-0.5106,0.0266-0.9839,0.0671-1.4407,0.1146L115.5395,75.7433z M49.2001,2.0291c-0.8842-0.056-1.7692-0.1102-2.6508-0.17
	l71.9712,71.9716c0.7317-0.5267,1.1113-0.8535,1.1113-0.8535c0.097-0.0751,0.2012-0.1429,0.3027-0.2136L49.2001,2.0291z
	 M51.8517,2.1991l69.6769,69.6772c0.6022-0.2678,1.2206-0.4858,1.8196-0.6614L54.5013,2.3677
	C53.6128,2.3193,52.7378,2.2513,51.8517,2.1991z M59.6942,2.6027c-0.8658-0.0399-1.7341-0.0741-2.598-0.1176l68.2565,68.257
	c1.0091-0.1837,1.7051-0.2358,1.7051-0.2358l0.4821-0.0576L59.6942,2.6027z M62.2942,2.7204l67.4629,67.4633l2.2163-0.2648
	L64.8926,2.838C64.0234,2.8052,63.1618,2.7568,62.2942,2.7204z M67.3172,2.9238l66.7451,66.7455l2.2164-0.2649l-66.412-66.412
	C69.0176,2.9669,68.1652,2.9526,67.3172,2.9238z M72.4175,3.061l66.078,66.0784l2.2164-0.2649L74.967,3.1297
	C74.1159,3.1109,73.2677,3.0832,72.4175,3.061z M77.5122,3.1982l65.4117,65.412l2.2158-0.2648L80.0178,3.2233
	C79.1828,3.2114,78.3467,3.2133,77.5122,3.1982z M82.5227,3.2456l64.768,64.7684l2.1185-0.3621L85.0254,3.2679
	C84.1908,3.2624,83.357,3.2543,82.5227,3.2456z M89.9521,3.3013c-0.8313,0.0008-1.6614-0.0093-2.4927-0.0117l64.01,64.0102
	l1.2255-0.2095c0.2819-0.0662,0.5442-0.153,0.8121-0.2339L89.9521,3.3013z M22.7426,7.8024l73.9825,73.983
	c0.7468-0.0827,1.4787-0.1783,2.1924-0.2886l-73.441-73.441L22.7426,7.8024z M17.2787,7.2963l74.7925,74.793
	c0.8082-0.0172,1.6057-0.0467,2.3823-0.0983L20.0123,7.5495L17.2787,7.2963z M108.7931,78.9172
	c0.615-0.2314,1.209-0.467,1.7746-0.7061L36.1312,3.7745c-0.4082,0.4064-0.7484,0.8879-1.0376,1.4428L108.7931,78.9172z
	 M37.5806,2.7466l74.6984,74.6989c0.5867-0.2763,1.1391-0.5513,1.6585-0.8226L39.4103,2.0956
	C38.7233,2.2624,38.1158,2.4769,37.5806,2.7466z M28.2122,8.309l72.8156,72.8159c0.696-0.1381,1.373-0.2881,2.0332-0.4479
	L30.9462,8.5623L28.2122,8.309z M105.0632,80.1503c0.6526-0.187,1.2832-0.3831,1.895-0.5856L34.4037,7.0099
	c-0.1523,0.5573-0.2781,1.1673-0.3809,1.8373l-0.289-0.0268L105.0632,80.1503z"/>
<path fill="#CAD300" d="M83.9107,64.4157l-26.3652-1.0205l-6.4697-40.2021l4.9556-4.748l12.5586,0.7666l2.1709,34.8008
	l2.5947-0.2061l-2.6709-34.541l17.7202,0.2412l0.3857,37.4414L83.9107,64.4157z M90.6046,64.3962l0.6685-44.8994l17.8042-0.3896
	l-2.3906,35.4482l2.1138-0.2402l0.4375-8.7031l16.6235-1.6016l-2.1514,18.6914l-18.0259,1.1299L90.6046,64.3962z M55.13,63.1999
	l-14.5635-1.625l-4.0547-18.7422h-2.6167l4.5391,18.4678l-2.5381-0.4443c-3.6758-0.6436-7.2622-1.3486-11.6274-2.2842l-0.978-0.21
	L10.1422,13.695l17.1631,2.584l3.7148,14.8291h2.9922L30.9547,16.739L48.67,18.1237L55.13,63.1999z M125.0001,62.5847
	l6.8071-44.8994l17.1338-1.7969l-3.5874,17.0342h2.9224l3.9258-17.2266l16.3062-2.2666l-4.918,16.6689l-6.5737,5.8389l3.1284,4.9424
	l-4.9375,17.9873l-13.1851,1.8643l3.9771-17.6611h-2.7798l-3.7417,17.9619L125.0001,62.5847z"/>
<radialGradient id="SVGID_1_" cx="88.5789" cy="26.8258" r="51.6419" gradientUnits="userSpaceOnUse">
	<stop  offset="0.2928" style="stop-color:#B4CB05"/>
	<stop  offset="1" style="stop-color:#77B62A"/>
</radialGradient>
<path fill="url(#SVGID_1_)" d="M92.9299,21.1412l-0.617,41.5081l13.266-0.4951l16.621-1.043l1.753-15.227l-13.109,1.262
	l-0.436,8.677l-5.535,0.632l2.403-35.626L92.9299,21.1412z M52.8758,23.7963l6.111,37.971l24.038,0.931l4.079-6.243l-0.364-35.289
	l-14.236-0.195l2.657,34.379l-5.972,0.473l-2.184-35.024l-10.341-0.631L52.8758,23.7963z M24.6209,56.9273
	c3.916,0.839,7.607,1.58,11.565,2.273l-4.435-18.049h6.118l4.085,18.887l11.203,1.25l-5.961-41.593l-14.128-1.104l3.022,14.198
	h-6.381l-3.762-15.014l-13.447-2.024L24.6209,56.9273z M153.5838,17.2013l-3.967,17.403h-6.336l3.539-16.803l-13.545,1.421
	l-6.286,41.457l11.092-1.189l3.771-18.102h6.249l-3.904,17.337l9.681-1.369l4.449-16.205l-3.496-5.522l7.282-6.469l4.045-13.707
	L153.5838,17.2013z"/>
<path fill="#77B52A" d="M90.2179,92.5212c-6.9175,0-14.1289-0.1416-21.5903-0.4248c-3.4063-0.1299-6.0742-2.8545-6.0742-6.2012
	V73.5905c0-1.7285,0.7241-3.3994,1.9873-4.584c1.2217-1.1445,2.7983-1.7197,4.4316-1.6113l0,0
	c12.6211,0.8154,25.9492,0.8154,40.7446-0.002c1.6426-0.0908,3.2104,0.4932,4.4248,1.6426
	c1.2476,1.1807,1.9629,2.8408,1.9629,4.5547v12.3047c0,3.3232-2.6577,6.0469-6.0508,6.2002
	C103.7716,92.3796,97.1417,92.5212,90.2179,92.5212z"/>
<path fill="#3B302E" d="M90.2179,90.8405c-6.8955,0-14.0864-0.1416-21.5264-0.4238c-2.4995-0.0957-4.4575-2.082-4.4575-4.5215
	V73.5905c0-1.2656,0.5308-2.4893,1.4565-3.3574c0.8784-0.8232,2.0068-1.2363,3.1733-1.1602l0,0
	c12.6875,0.8203,26.0806,0.8193,40.9458-0.001c1.1772-0.0742,2.3013,0.3555,3.1768,1.1846c0.9136,0.8643,1.4375,2.0801,1.4375,3.334
	v12.3047c0,2.4229-1.9531,4.4082-4.4458,4.5205C103.7203,90.6989,97.1168,90.8405,90.2179,90.8405z"/>
<linearGradient id="SVGID_2_" gradientUnits="userSpaceOnUse" x1="72.4252" y1="96.6145" x2="106.1757" y2="62.8641">
	<stop  offset="0.12" style="stop-color:#D2D1D2"/>
	<stop  offset="0.27" style="stop-color:#FFFFFF"/>
	<stop  offset="0.88" style="stop-color:#F0F0F1"/>
	<stop  offset="0.9009" style="stop-color:#C6C6C7"/>
	<stop  offset="0.9356" style="stop-color:#878787"/>
	<stop  offset="0.9648" style="stop-color:#595958"/>
	<stop  offset="0.9872" style="stop-color:#3D3D3B"/>
	<stop  offset="1" style="stop-color:#323230"/>
</linearGradient>
<path fill="url(#SVGID_2_)" d="M65.9159,73.5903v12.305c0,1.563,1.278,2.781,2.839,2.841c15.079,0.573,28.866,0.555,41.147,0
	c1.56-0.071,2.84-1.278,2.84-2.841v-12.305c0-1.562-1.281-2.926-2.84-2.84c-13.493,0.745-27.16,0.905-41.147,0
	c-0.054-0.003-0.107-0.005-0.161-0.005C67.1088,70.7453,65.9159,72.0823,65.9159,73.5903"/>
<path fill="#3B302E" d="M76.7742,83.4825h-5.624v-2.648l5.624-7.003h2.687v7.144h1.392v2.507h-1.392v2.173h-2.687V83.4825z
	 M76.7742,80.9755v-3.655l-2.958,3.655H76.7742z M83.8032,74.0295h3.784l1.966,3.567l1.909-3.567h3.73l-3.436,5.63l3.761,5.996
	h-3.843l-2.196-3.735l-2.188,3.735h-3.828l3.828-6.058L83.8032,74.0295z M103.7342,83.4825h-5.624v-2.648l5.624-7.003h2.687v7.144
	h1.392v2.507h-1.392v2.173h-2.687V83.4825z M103.7342,80.9755v-3.655l-2.958,3.655H103.7342z"/>
<path fill="#3B302E" d="M68.435,72.6537c0.383,0,0.694,0.3361,0.694,0.751s-0.311,0.752-0.694,0.752
	c-0.383,0-0.694-0.337-0.694-0.752S68.0519,72.6537,68.435,72.6537"/>
<path fill="#3B302E" d="M110.0651,72.6537c-0.383,0-0.694,0.3361-0.694,0.751s0.311,0.752,0.694,0.752
	c0.383,0,0.694-0.337,0.694-0.752S110.4481,72.6537,110.0651,72.6537"/>
</svg>
