<svg xmlns="http://www.w3.org/2000/svg" viewBox="0 0 130.044 61.725"><path fill="#FFF200" d="M50.5 60.049l-42.706-.048C2.961 59.737.212 56.742.003 51.565L0 30.355l3.52.005v-.02l1.794.018.082 20.929c0 2.802.967 3.249 4.074 3.249h40.901l.129 5.513zM123.241 59.955l-46.083-.047v-5.374l45.226.038c.861 0 1.47-.177 1.808-.526.312-.321.457-.865.432-1.614l-.002-21.886 4.523.046.887-.003.014 1.776h-.016l-.019 20.504c-.001 4.39-2.405 6.907-6.77 7.086z"/><path fill="#FFF" d="M69.843 54.868h2.716v5.075h-2.716z"/><path fill="none" stroke="#292526" stroke-width=".245" stroke-miterlimit="3.864" d="M69.843 54.868h2.716v5.075h-2.716z"/><path fill="#FFF" d="M65.729 53.899h2.657l2.336.953v5.066l-2.357.953h-2.636z"/><path fill="none" stroke="#292526" stroke-width=".245" stroke-miterlimit="3.864" d="M65.729 53.899h2.657l2.336.953v5.066l-2.357.953h-2.636z"/><path fill="#FFF" d="M64.317 55.197l.769.805-.001 2.976-.791.798-.346-.015-.1-4.564z"/><path fill="none" stroke="#292526" stroke-width=".245" stroke-miterlimit="3.864" d="M64.317 55.197l.769.805-.001 2.976-.791.798-.346-.015-.1-4.564z"/><path fill="#FFF" d="M57.2 55.196h7.034v4.584H57.2z"/><path fill="none" stroke="#292526" stroke-width=".245" stroke-miterlimit="3.864" d="M57.2 55.196h7.034v4.584H57.2z"/><path fill="#FFF" d="M56.237 54.092h1.257v6.495h-1.257z"/><path fill="none" stroke="#292526" stroke-width=".245" stroke-miterlimit="3.864" d="M56.237 54.092h1.257v6.495h-1.257z"/><path fill="#FFF" d="M56.742 60.55l-.689.855h-6.172l-2.9-1.069.004-6.047 2.9-1.069h6.172l.686.892-.001 6.438"/><path fill="#FFF" d="M56.742 60.55l-.689.855h-6.172l-2.9-1.069.004-6.047 2.9-1.069h6.172l.686.892-.001 6.438"/><path fill="none" stroke="#292526" stroke-width=".245" stroke-miterlimit="3.864" d="M56.742 60.55l-.689.855h-6.172l-2.9-1.069.004-6.047 2.9-1.069h6.172l.686.892z"/><path fill="#FFF" d="M47.402 57.31c0 .897 2.821 1.955 3.14 1.955l6.178.002-.001-3.605h-6.19c-.192 0-3.127.857-3.127 1.648z"/><path fill="none" stroke="#292526" stroke-width=".245" stroke-miterlimit="3.864" d="M47.402 57.31c0 .897 2.821 1.955 3.14 1.955l6.178.002-.001-3.605h-6.19c-.192 0-3.127.857-3.127 1.648z"/><path fill="#FFF" d="M59.063 53.969h.729c.402 0 .728.354.728.79v5.137c0 .436-.326.79-.728.79h-.729c-.403 0-.729-.354-.729-.79v-5.137c0-.436.326-.79.729-.79z"/><path fill="none" stroke="#292526" stroke-width=".245" stroke-miterlimit="3.864" d="M59.063 53.969h.729c.402 0 .728.354.728.79v5.137c0 .436-.326.79-.728.79h-.729c-.403 0-.729-.354-.729-.79v-5.137c0-.436.326-.79.729-.79z"/><path fill="#FFF" d="M59.015 55.59h.663c.402 0 .728.354.728.79v1.879c0 .436-.326.79-.728.79h-.663c-.402 0-.729-.354-.729-.79V56.38c0-.436.327-.79.729-.79z"/><path fill="none" stroke="#292526" stroke-width=".245" stroke-miterlimit="3.864" d="M59.015 55.59h.663c.402 0 .728.354.728.79v1.879c0 .436-.326.79-.728.79h-.663c-.402 0-.729-.354-.729-.79V56.38c0-.436.327-.79.729-.79z"/><path fill="#FFF" d="M61.464 54.969h2.1v5.02h-2.1z"/><path fill="none" stroke="#292526" stroke-width=".245" stroke-miterlimit="3.864" d="M61.464 54.969h2.1v5.02h-2.1z"/><path fill="#292526" d="M61.902 60.019l-.471-1.952.238-.057.471 1.952-.238.057zm.953-.001l-.472-1.953.238-.057.472 1.953-.238.057zm-.469 0l-.472-1.953.238-.057.472 1.953-.238.057zm.981 0l-.471-1.953.238-.057.471 1.953-.238.057zm-1.506-3.047l-.472-1.952.238-.057.472 1.952-.238.057zm.952-.001l-.472-1.953.238-.057.472 1.953-.238.057zm.512 0l-.471-1.953.238-.057.471 1.953-.238.057zm-.981 0l-.471-1.953.238-.057.471 1.953-.238.057z"/><path fill="#FFF" d="M66.72 53.172h1.305c.386 0 .699.34.699.758v6.914c0 .419-.313.759-.699.759H66.72c-.386 0-.699-.34-.699-.759V53.93c0-.418.313-.758.699-.758"/><path fill="#FFF" d="M66.72 53.172h1.305c.386 0 .699.34.699.758v6.914c0 .419-.313.759-.699.759H66.72c-.386 0-.699-.34-.699-.759V53.93c0-.418.313-.758.699-.758"/><path fill="none" d="M66.72 53.172h1.305c.386 0 .699.34.699.758v6.914c0 .419-.313.759-.699.759H66.72c-.386 0-.699-.34-.699-.759V53.93c0-.418.313-.758.699-.758"/><path fill="none" stroke="#292526" stroke-width=".245" stroke-miterlimit="3.864" d="M66.72 53.172h1.305c.386 0 .699.34.699.758v6.914c0 .419-.313.759-.699.759H66.72c-.386 0-.699-.34-.699-.759V53.93c0-.418.313-.758.699-.758z"/><path fill="#FFF" d="M66.705 55.319h1.278c.386 0 .699.34.699.758v2.926c0 .419-.313.759-.699.759h-1.278c-.386 0-.7-.34-.7-.759v-2.926c0-.418.314-.758.7-.758z"/><path fill="none" stroke="#292526" stroke-width=".245" stroke-miterlimit="3.864" d="M66.705 55.319h1.278c.386 0 .699.34.699.758v2.926c0 .419-.313.759-.699.759h-1.278c-.386 0-.7-.34-.7-.759v-2.926c0-.418.314-.758.7-.758z"/><path fill="#FFF" d="M71.728 53.76h9.085v6.996h-9.085z"/><path fill="none" stroke="#292526" stroke-width=".245" stroke-miterlimit="3.864" d="M71.728 53.76h9.085v6.996h-9.085z"/><path fill="#292526" d="M80.82 60.035h-9.043v-.244h9.043v.244zm-.022-.791h-9.042V59h9.042v.244zm-.043-1.464h-9.042v-.244h9.042v.244zm-.021-.79h-9.042v-.244h9.042v.244zm.058-1.389H71.75v-.244h9.042v.244zm-.021-.79h-9.043v-.244h9.043v.244z"/><path fill="#FFF200" d="M30.609 44.66c-.099-.946-1.172-2.266-3.826-2.266-2.283 0-4.073 1.142-4.073 3.382 0 2.213 1.691 3.364 4.048 3.364 2.222 0 3.481-.972 3.851-2.364h-1.851c-.222.785-.938 1.205-1.962 1.205-1.568 0-2.197-1.036-2.197-2.187 0-1.812 1.308-2.241 2.197-2.241 1.53 0 1.814.724 1.962 1.107h1.851"/><path fill-rule="evenodd" clip-rule="evenodd" fill="#FFF200" d="M33.465 45.767c0-1.794 1.407-2.24 2.407-2.24s2.407.446 2.407 2.24c0 1.794-1.407 2.24-2.407 2.24s-2.407-.446-2.407-2.24m-1.851 0c0 3.008 3.086 3.373 4.258 3.373s4.258-.365 4.258-3.373-3.086-3.373-4.258-3.373-4.258.365-4.258 3.373z"/><path fill="#FFF200" d="M47.024 47.025h-.025l-3.517-4.462h-1.951v6.408h1.729v-4.57h.024l3.616 4.57h1.852v-6.408h-1.728v4.462M55.927 47.025h-.024l-3.518-4.462h-1.95v6.408h1.728v-4.57h.025l3.616 4.57h1.851v-6.408h-1.728v4.462M65.942 42.563h-6.517v6.408h6.727v-1.133H61.24v-1.66h4.32v-1.134h-4.32v-1.347h4.702v-1.134M75.157 44.66c-.099-.946-1.172-2.266-3.826-2.266-2.283 0-4.073 1.142-4.073 3.382 0 2.213 1.691 3.364 4.048 3.364 2.222 0 3.48-.972 3.851-2.364h-1.851c-.222.785-.938 1.205-1.962 1.205-1.568 0-2.197-1.036-2.197-2.187 0-1.812 1.308-2.241 2.197-2.241 1.53 0 1.813.724 1.962 1.107h1.851M80.321 43.697h2.678v-1.134h-7.208v1.134h2.679v5.274h1.851v-5.274"/><path fill-rule="evenodd" clip-rule="evenodd" fill="#FFF200" d="M85.145 45.767c0-1.794 1.408-2.24 2.407-2.24 1 0 2.407.446 2.407 2.24 0 1.794-1.407 2.24-2.407 2.24-.999 0-2.407-.446-2.407-2.24m-1.851 0c0 3.008 3.086 3.373 4.258 3.373 1.173 0 4.258-.365 4.258-3.373s-3.085-3.373-4.258-3.373c-1.172 0-4.258.365-4.258 3.373zM95.112 45.383V43.67h2.308c1.086 0 1.296.499 1.296.839 0 .633-.469.874-1.431.874h-2.173m-1.814 3.588h1.814v-2.508h1.914c1.369 0 1.443.339 1.443 1.214 0 .661.075.991.198 1.294h2.049v-.17c-.395-.107-.395-.339-.395-1.276 0-1.196-.395-1.392-1.123-1.624.876-.214 1.37-.821 1.37-1.526 0-.553-.432-1.812-2.79-1.812h-4.48v6.408z"/><path fill="#FFF200" d="M101.745 46.998c0 .795.556 2.142 3.789 2.142.778 0 3.493-.169 3.493-2.097 0-1.151-1.111-1.508-2.32-1.722l-2.16-.384c-.37-.063-.938-.17-.938-.67 0-.579.839-.767 1.543-.767 1.617 0 1.764.679 1.814.964h1.778c-.013-.786-.741-2.07-3.457-2.07-2.875 0-3.406 1.258-3.406 1.972 0 1.41 1.382 1.642 2.814 1.883l.95.16c.938.161 1.605.295 1.605.795 0 .678-.975.83-1.852.83-1.616 0-1.863-.679-1.875-1.036h-1.778M50.444 37.351h3.9v-1.134h-3.9v-1.446H54.9v-1.133h-6.307v6.408h1.851v-2.695M57.996 33.638h-1.851v6.408h6.257v-1.16h-4.406v-5.248M70.793 33.638h-1.888v4.221c0 .777-.518 1.223-1.789 1.223-.864 0-1.58-.392-1.58-1.285v-4.159h-1.889v4.248c.025.643.21 1.161.692 1.553.79.634 1.999.777 2.814.777 2.234 0 3.64-.723 3.64-2.41v-4.168M72.452 33.638h1.851v6.408h-1.851z"/><path fill-rule="evenodd" clip-rule="evenodd" fill="#FFF200" d="M77.853 34.745h1.777c.79 0 2.036.151 2.036 2.043 0 1.054-.505 2.151-2.011 2.151h-1.802v-4.194m-1.815 5.301h3.839c2.925 0 3.678-1.981 3.678-3.356 0-1.213-.618-3.052-3.604-3.052h-3.913v6.408zM128.265 7.808v-.502h.309c.157 0 .325.037.325.238 0 .249-.171.264-.363.264h-.271m0 .209h.261l.394.702h.254l-.426-.714c.22-.029.388-.156.388-.446 0-.319-.175-.461-.528-.461h-.569v1.621h.226v-.702zm-.782-.112c0-.665.463-1.168 1.057-1.168.586 0 1.048.503 1.048 1.168 0 .677-.462 1.175-1.048 1.175-.594 0-1.057-.498-1.057-1.175zm1.057 1.409c.705 0 1.309-.595 1.309-1.409 0-.807-.604-1.402-1.309-1.402-.714 0-1.317.595-1.317 1.402 0 .814.603 1.409 1.317 1.409z"/><path fill="#FFF200" d="M5.316 1.726v10.979h5.195V1.726h4.784v27.759h-4.806V17.919l-5.132-.002-.005 11.579H.002L0 1.717l5.316.009M16.856 10.979h4.773l2.132 10.685 2.403-10.685h4.807l-7.447 27.758h-4.806l2.911-9.84-4.773-17.918"/><path fill-rule="evenodd" clip-rule="evenodd" fill="#FFF200" d="M38.456 15.018c-.7.024-1.224.551-1.574 1.579s-.525 2.166-.525 3.414c0 1.273.169 2.448.508 3.525.338 1.077.824 1.628 1.456 1.653h.135c.654-.074 1.134-.619 1.438-1.634.305-1.016.457-2.124.457-3.323v-.055-.055c0-1.273-.164-2.436-.49-3.489-.328-1.052-.796-1.578-1.405-1.578v-.037M44.616 0v29.485h-5.077v-2.02c-.451.759-.965 1.334-1.54 1.726-.576.391-1.157.587-1.743.587-1.106 0-2.121-.826-3.047-2.478-.925-1.652-1.387-4.376-1.387-8.17 0-2.693.474-4.822 1.421-6.389.948-1.566 2.009-2.35 3.182-2.35.068 0 .141.006.22.019.079.012.152.018.22.018.519.098 1.032.355 1.54.771s.976 1.028 1.405 1.836V0h4.806z"/><path fill="#FFF200" d="M46.996 10.979h4.806v2.313c.023-.049.045-.098.068-.147.293-.685.767-1.334 1.421-1.946.655-.612 1.49-1.053 2.505-1.322v5.434c-.18-.098-.378-.171-.592-.22-.215-.049-.435-.073-.66-.073h-.102c-.654.024-1.258.379-1.81 1.064-.554.686-.83 1.886-.83 3.599v9.804h-4.806V10.979"/><path fill-rule="evenodd" clip-rule="evenodd" fill="#FFF200" d="M63.21 15.311c-.677.147-1.162.692-1.455 1.634-.294.943-.44 1.977-.44 3.103v.404c.045 1.248.236 2.399.575 3.451.338 1.053.778 1.579 1.32 1.579.586 0 1.043-.538 1.371-1.615.327-1.077.502-2.252.524-3.525v-.129-.091c.023-1.224-.113-2.326-.406-3.305-.293-.979-.745-1.469-1.354-1.469h-.135v-.037m5.889-4.038v18.212h-4.535v-2.02c-.384.637-.796 1.132-1.236 1.487s-.885.606-1.336.753c-.136.024-.266.049-.39.073-.124.025-.254.037-.389.037-1.151.024-2.172-.747-3.063-2.313-.892-1.567-1.337-3.978-1.337-7.234 0-3.182.406-5.507 1.218-6.976s1.704-2.301 2.674-2.497c.09-.024.175-.043.254-.055.079-.012.164-.018.254-.018.744 0 1.433.293 2.065.881.631.587 1.06 1.359 1.286 2.313v-2.643h4.535z"/><path fill="#FFF200" d="M77.093 10.979v12.153c0 .686.113 1.187.338 1.506.226.318.474.477.745.477.248 0 .485-.159.711-.477.225-.319.338-.808.338-1.469v-12.19h5.077v12.153c0 2.277-.643 3.996-1.929 5.159-1.286 1.163-2.697 1.757-4.231 1.781h-.101c-1.512 0-2.894-.563-4.147-1.689-1.252-1.126-1.878-2.864-1.878-5.214v-12.19h5.077M86.937 0h4.806v29.484h-4.806z"/><path fill-rule="evenodd" clip-rule="evenodd" fill="#FFF200" d="M96.579 2.313c.023.025.045.037.068.037H96.816c.88 0 1.557.324 2.031.973s.722 1.353.744 2.111v.111c0 .783-.242 1.505-.727 2.166-.486.661-1.247.991-2.285.991-1.015 0-1.777-.324-2.285-.973-.507-.648-.772-1.352-.795-2.111v-.055-.055c-.022-.783.209-1.506.694-2.167.485-.66 1.19-.991 2.115-.991h.271v-.037m2.403 8.666v18.506h-4.806V10.979h4.806z"/><path fill="#FFF200" d="M101.952 10.979h5.077v2.607c.248-.832.716-1.548 1.404-2.148.688-.6 1.416-.973 2.183-1.12.091 0 .187-.006.288-.019.102-.012.198-.018.288-.018.79 0 1.495.343 2.115 1.028.621.686.931 1.836.931 3.452v14.724h-5.077V16.78c0-.416-.084-.728-.254-.936-.169-.208-.378-.325-.626-.349h-.118c-.035 0-.074.012-.119.037-.248.073-.48.245-.694.514s-.321.612-.321 1.028v12.411h-5.077V10.979M116.607 0h4.806v17.625l2.674-6.646h5.043l-3.994 7.821 4.861 10.696h-5.322l-3.262-8.383v8.372h-4.806V0"/></svg>