<?xml version="1.0" encoding="utf-8"?>
<!-- Generator: Adobe Illustrator 22.0.1, SVG Export Plug-In . SVG Version: 6.00 Build 0)  -->
<svg version="1.1" id="Layer_1" xmlns="http://www.w3.org/2000/svg" xmlns:xlink="http://www.w3.org/1999/xlink" x="0px" y="0px"
	 viewBox="0 0 129.997 38.737" enable-background="new 0 0 129.997 38.737" xml:space="preserve">
<polyline fill="#FFF200" points="5.316,1.726 5.316,12.705 10.511,12.705 10.511,1.726 15.295,1.726 15.295,29.485 10.489,29.485 
	10.489,17.919 5.357,17.917 5.352,29.496 0.002,29.496 0,1.717 5.316,1.726 "/>
<polyline fill="#FFF200" points="16.856,10.979 21.629,10.979 23.761,21.664 26.164,10.979 30.971,10.979 23.524,38.737 
	18.718,38.737 21.629,28.897 16.856,10.979 "/>
<path fill-rule="evenodd" clip-rule="evenodd" fill="#FFF200" d="M38.456,15.018c-0.7,0.024-1.224,0.551-1.574,1.579
	s-0.525,2.166-0.525,3.414c0,1.273,0.169,2.448,0.508,3.525c0.338,1.077,0.824,1.628,1.456,1.653c0.044,0,0.073,0,0.084,0
	s0.028,0,0.051,0c0.654-0.074,1.134-0.619,1.438-1.634c0.305-1.016,0.457-2.124,0.457-3.323c0-0.025,0-0.043,0-0.055
	c0-0.013,0-0.031,0-0.055c0-1.273-0.164-2.436-0.49-3.489c-0.328-1.052-0.796-1.578-1.405-1.578V15.018 M44.616,0v29.485h-5.077
	v-2.02c-0.451,0.759-0.965,1.334-1.54,1.726c-0.576,0.391-1.157,0.587-1.743,0.587c-1.106,0-2.121-0.826-3.047-2.478
	c-0.925-1.652-1.387-4.376-1.387-8.17c0-2.693,0.474-4.822,1.421-6.389c0.948-1.566,2.009-2.35,3.182-2.35
	c0.068,0,0.141,0.006,0.22,0.019c0.079,0.012,0.152,0.018,0.22,0.018c0.519,0.098,1.032,0.355,1.54,0.771s0.976,1.028,1.405,1.836V0
	L44.616,0z"/>
<path fill="#FFF200" d="M46.996,10.979h4.806v2.313c0.023-0.049,0.045-0.098,0.068-0.147c0.293-0.685,0.767-1.334,1.421-1.946
	c0.655-0.612,1.49-1.053,2.505-1.322v5.434c-0.18-0.098-0.378-0.171-0.592-0.22c-0.215-0.049-0.435-0.073-0.66-0.073
	c-0.023,0-0.04,0-0.051,0c-0.011,0-0.028,0-0.051,0c-0.654,0.024-1.258,0.379-1.81,1.064c-0.554,0.686-0.83,1.886-0.83,3.599v9.804
	h-4.806V10.979"/>
<path fill-rule="evenodd" clip-rule="evenodd" fill="#FFF200" d="M63.21,15.311c-0.677,0.147-1.162,0.692-1.455,1.634
	c-0.294,0.943-0.44,1.977-0.44,3.103c0,0.074,0,0.141,0,0.202c0,0.061,0,0.128,0,0.202c0.045,1.248,0.236,2.399,0.575,3.451
	c0.338,1.053,0.778,1.579,1.32,1.579c0.586,0,1.043-0.538,1.371-1.615c0.327-1.077,0.502-2.252,0.524-3.525c0-0.049,0-0.092,0-0.129
	c0-0.036,0-0.067,0-0.091c0.023-1.224-0.113-2.326-0.406-3.305c-0.293-0.979-0.745-1.469-1.354-1.469c-0.022,0-0.045,0-0.067,0
	c-0.023,0-0.046,0-0.068,0V15.311 M69.099,11.273v18.212h-4.535v-2.02c-0.384,0.637-0.796,1.132-1.236,1.487
	s-0.885,0.606-1.336,0.753c-0.136,0.024-0.266,0.049-0.39,0.073c-0.124,0.025-0.254,0.037-0.389,0.037
	c-1.151,0.024-2.172-0.747-3.063-2.313c-0.892-1.567-1.337-3.978-1.337-7.234c0-3.182,0.406-5.507,1.218-6.976
	s1.704-2.301,2.674-2.497c0.09-0.024,0.175-0.043,0.254-0.055c0.079-0.012,0.164-0.018,0.254-0.018c0.744,0,1.433,0.293,2.065,0.881
	c0.631,0.587,1.06,1.359,1.286,2.313v-2.643H69.099z"/>
<path fill="#FFF200" d="M77.093,10.979v12.153c0,0.686,0.113,1.187,0.338,1.506c0.226,0.318,0.474,0.477,0.745,0.477
	c0.248,0,0.485-0.159,0.711-0.477c0.225-0.319,0.338-0.808,0.338-1.469v-12.19h5.077v12.153c0,2.277-0.643,3.996-1.929,5.159
	c-1.286,1.163-2.697,1.757-4.231,1.781c-0.023,0-0.039,0-0.051,0c-0.011,0-0.028,0-0.05,0c-1.512,0-2.894-0.563-4.147-1.689
	c-1.252-1.126-1.878-2.864-1.878-5.214v-12.19H77.093"/>
<rect x="86.937" y="0" fill="#FFF200" width="4.806" height="29.484"/>
<path fill-rule="evenodd" clip-rule="evenodd" fill="#FFF200" d="M96.579,2.313c0.023,0.025,0.045,0.037,0.068,0.037
	c0.022,0,0.045,0,0.067,0c0.046,0,0.08,0,0.102,0c0.88,0,1.557,0.324,2.031,0.973s0.722,1.353,0.744,2.111c0,0.025,0,0.043,0,0.056
	c0,0.012,0,0.03,0,0.055c0,0.783-0.242,1.505-0.727,2.166c-0.486,0.661-1.247,0.991-2.285,0.991c-1.015,0-1.777-0.324-2.285-0.973
	c-0.507-0.648-0.772-1.352-0.795-2.111c0-0.025,0-0.043,0-0.055c0-0.012,0-0.031,0-0.055c-0.022-0.783,0.209-1.506,0.694-2.167
	c0.485-0.66,1.19-0.991,2.115-0.991c0.023,0,0.045,0,0.068,0s0.045,0,0.068,0c0.022,0,0.045,0,0.067,0c0.023,0,0.045,0,0.068,0
	V2.313 M98.982,10.979v18.506h-4.806V10.979H98.982z"/>
<path fill="#FFF200" d="M101.952,10.979h5.077v2.607c0.248-0.832,0.716-1.548,1.404-2.148c0.688-0.6,1.416-0.973,2.183-1.12
	c0.091,0,0.187-0.006,0.288-0.019c0.102-0.012,0.198-0.018,0.288-0.018c0.79,0,1.495,0.343,2.115,1.028
	c0.621,0.686,0.931,1.836,0.931,3.452v14.724h-5.077V16.78c0-0.416-0.084-0.728-0.254-0.936c-0.169-0.208-0.378-0.325-0.626-0.349
	c-0.045,0-0.084,0-0.118,0c-0.035,0-0.074,0.012-0.119,0.037c-0.248,0.073-0.48,0.245-0.694,0.514s-0.321,0.612-0.321,1.028v12.411
	h-5.077V10.979"/>
<polyline fill="#FFF200" points="116.607,0 121.413,0 121.413,17.625 124.087,10.979 129.13,10.979 125.136,18.8 129.997,29.496 
	124.675,29.496 121.413,21.113 121.413,29.485 116.607,29.485 116.607,0 "/>
</svg>
