<?xml version="1.0" encoding="utf-8"?>
<!-- Generator: Adobe Illustrator 22.0.1, SVG Export Plug-In . SVG Version: 6.00 Build 0)  -->
<svg version="1.1" id="Layer_1" xmlns="http://www.w3.org/2000/svg" xmlns:xlink="http://www.w3.org/1999/xlink" x="0px" y="0px"
	 viewBox="0 0 150.2169 43.2283" enable-background="new 0 0 150.2169 43.2283" xml:space="preserve">
<path d="M134.8213,29.5096c0.1779,1.0902,0.2134,4.3609,0.2134,6.3654v7.3533h9.4764l-5.814-7.9501
	C137.5964,33.7653,135.4614,30.5998,134.8213,29.5096 M27.5598,29.5096c0.1779,1.0902,0.2134,4.3609,0.2134,6.3654v7.3533h9.4759
	l-5.8128-7.9501C30.3339,33.7653,28.2006,30.5998,27.5598,29.5096 M0,0v43.2283h7.2918V18.7851h7.0399v24.4432h6.8283V18.7851
	h6.0806l5.4759,7.2791c1.1378,1.5123,3.3426,4.7818,3.8752,5.8024c-0.1773-1.0908-0.2128-4.3597-0.2128-6.3648v-6.7167h6.6138
	v24.4432h16.2847V18.7851h6.969v18.6723h11.0239v5.7709h5.5102l8.9699-24.4432h6.9684l8.9705,24.4432h6.3892V18.7851h7.0399v24.4432
	h7.303V18.7851h6.0789l5.4777,7.2791c1.1385,1.5123,3.3415,4.7818,3.8741,5.8024c-0.1768-1.0908-0.2134-4.3597-0.2134-6.3648
	v-6.7167h6.5783V0H0z M95.1989,25.8882c-0.321,1.6531-0.7099,3.024-1.6001,6.1543l-0.4616,1.6163h4.1247l-0.4616-1.6163
	C95.9106,28.8777,95.5205,27.5414,95.1989,25.8882 M91.4644,39.0755l-1.2963,4.1528h10.0634l-1.2975-4.1528H91.4644z"/>
</svg>
