<?xml version="1.0" encoding="utf-8"?>
<!-- Generator: Adobe Illustrator 22.0.1, SVG Export Plug-In . SVG Version: 6.00 Build 0)  -->
<svg version="1.1" id="Layer_1" xmlns="http://www.w3.org/2000/svg" xmlns:xlink="http://www.w3.org/1999/xlink" x="0px" y="0px"
	 viewBox="0 0 150.2365 62.3628" enable-background="new 0 0 150.2365 62.3628" xml:space="preserve">
<polygon points="48.7436,62.1547 48.7436,56.0465 45.0067,56.0465 45.0067,62.1547 43.1388,62.1547 43.1388,48.958 45.0067,48.958 
	45.0067,54.2367 48.7436,54.2367 48.7436,48.958 50.6114,48.958 50.6114,62.1547 "/>
<path d="M56.895,62.3624c-2.0777,0-3.546-1.6397-3.546-5.1091c0-3.4688,1.392-5.2021,3.6216-5.2021
	c2.1167,0,3.5844,1.6772,3.5844,5.1267C60.5551,60.6461,59.1057,62.3624,56.895,62.3624 M56.9334,53.7845
	c-1.1438,0-1.7349,1.168-1.7349,3.4308c0,2.2617,0.61,3.4127,1.7538,3.4127s1.7538-1.3574,1.7538-3.4127
	C58.7061,54.9717,58.0772,53.7845,56.9334,53.7845"/>
<path d="M67.2478,61.9101c-0.4392,0.2823-0.9535,0.4525-1.6397,0.4525c-1.3347,0-1.9252-0.9236-1.9252-2.5259v-5.8819h-1.087
	v-1.6976h1.087v-2.8843l1.83-0.9616v3.8459h1.9252v1.6976h-1.9252v5.7107c0,0.6991,0.2666,0.9809,0.7625,0.9809
	c0.477,0,0.9144-0.1871,1.1816-0.4133L67.2478,61.9101z"/>
<path d="M76.7987,57.8183h-5.2418c0.1141,1.9618,0.8192,2.81,1.8868,2.81c0.8394,0,1.2395-0.2081,1.8111-0.7354l1.1249,1.1498
	c-0.6863,0.7535-1.6964,1.3199-2.9738,1.3199c-2.3833,0-3.6796-1.998-3.6796-5.1097c0-3.4688,1.4494-5.2015,3.5649-5.2015
	c2.0015,0,3.5271,1.6771,3.5271,5.1261C76.8182,57.3477,76.8182,57.6301,76.7987,57.8183 M73.2528,53.7468
	c-0.9333,0-1.5244,0.8108-1.6769,2.5072h3.374C74.8925,54.7844,74.2831,53.7468,73.2528,53.7468"/>
<polygon points="79.6969,62.1544 79.6969,49.3547 81.5251,48.4112 81.5251,62.1544 "/>
<path d="M90.6458,62.3625c-2.8781,0-3.9272-3.0351-3.9272-6.7868c0-3.8283,1.1633-6.8254,3.9846-6.8254
	c2.2296,0,3.1452,1.3392,3.4686,3.2245l-1.8856,0.4717c-0.2489-1.1879-0.6106-1.8291-1.6403-1.8291
	c-1.6196,0-2.002,2.6019-2.002,4.9209c0,2.4306,0.516,4.9572,2.135,4.9572c0.8967,0,1.3158-0.6027,1.6787-2.0173l1.7349,0.5471
	C93.772,61.0046,92.8381,62.3625,90.6458,62.3625"/>
<path d="M101.1495,62.1545v-0.6781c-0.5154,0.5846-1.1627,0.8862-2.0588,0.8862c-1.4677,0-2.7255-1.0926-2.7255-3.318
	c0-2.1489,1.353-3.2438,3.2593-3.2438c0.6094,0,1.1243,0.1333,1.5251,0.3209v-0.9604c0-0.9622-0.3233-1.4146-1.2963-1.4146
	c-0.6295,0-1.2011,0.1689-1.963,0.6226l-0.7826-1.3761c0.9156-0.605,1.9648-0.9417,2.8792-0.9417
	c2.1539,0,2.9921,0.7523,2.9921,2.9579v7.1452H101.1495z M101.1495,57.8182c-0.438-0.2625-0.8193-0.3764-1.5055-0.3764
	c-0.8589,0-1.4482,0.4893-1.4482,1.5649c0,1.168,0.4759,1.7163,1.2561,1.7163c0.782,0,1.3548-0.3402,1.6976-0.9236V57.8182z"/>
<path d="M110.6242,62.1544v-0.66c-0.4771,0.5092-0.9724,0.8681-1.869,0.8681c-1.8111,0-3.0122-1.3199-3.0122-5.2588
	c0-3.3011,1.1639-5.0524,3.1452-5.0524c0.7063,0,1.2401,0.2251,1.7361,0.7331v-3.4297l1.83-0.9435v13.7432H110.6242z
	 M110.6242,54.6328c-0.4014-0.6027-1.0102-0.8862-1.583-0.8862c-0.9529,0-1.4488,0.9236-1.4488,3.2613
	c0,2.5832,0.4959,3.6565,1.5445,3.6565c0.6106,0,1.1627-0.3753,1.4872-0.9043V54.6328z"/>
<path d="M118.7836,62.3624c-2.0789,0-3.546-1.6397-3.546-5.1091c0-3.4688,1.3903-5.2021,3.6216-5.2021
	c2.1149,0,3.5833,1.6772,3.5833,5.1267C122.4426,60.6461,120.9938,62.3624,118.7836,62.3624 M118.8209,53.7845
	c-1.1438,0-1.7349,1.168-1.7349,3.4308c0,2.2617,0.6107,3.4127,1.7532,3.4127c1.1443,0,1.7549-1.3574,1.7549-3.4127
	C120.5942,54.9717,119.9641,53.7845,118.8209,53.7845"/>
<path d="M129.7822,62.1544v-6.0889c0-1.6391-0.3251-2.2991-1.2396-2.2991c-0.5722,0-1.1249,0.3198-1.4866,0.9037v7.4842h-1.8301
	v-9.8973h1.8301v0.6804c0.4001-0.5103,1.0864-0.8862,1.9441-0.8862c1.9252,0,2.6115,1.2241,2.6115,3.712v6.3911H129.7822z"/>
<path d="M138.9702,62.1545v-0.6781c-0.5137,0.5846-1.1627,0.8862-2.0582,0.8862c-1.4677,0-2.7273-1.0926-2.7273-3.318
	c0-2.1489,1.3536-3.2438,3.2604-3.2438c0.6107,0,1.1243,0.1333,1.5251,0.3209v-0.9604c0-0.9622-0.324-1.4146-1.2957-1.4146
	c-0.6295,0-1.2017,0.1689-1.9636,0.6226l-0.7814-1.3761c0.915-0.605,1.9636-0.9417,2.8781-0.9417
	c2.1534,0,2.9933,0.7523,2.9933,2.9579v7.1452H138.9702z M138.9702,57.8182c-0.4386-0.2625-0.8193-0.3764-1.5067-0.3764
	c-0.8565,0-1.4488,0.4893-1.4488,1.5649c0,1.168,0.4782,1.7163,1.2584,1.7163c0.7827,0,1.3542-0.3402,1.6971-0.9236V57.8182z"/>
<path d="M148.4064,62.1544v-0.6781c-0.3996,0.508-1.0865,0.8862-1.9435,0.8862c-1.9264,0-2.6121-1.2253-2.6121-3.7144v-6.3911
	h1.8295v6.09c0,1.6391,0.3239,2.2991,1.2395,2.2991c0.5716,0,1.1249-0.3209,1.4866-0.9055v-7.4836h1.83v9.8973H148.4064z"/>
<path d="M134.8213,29.5096c0.1779,1.0902,0.2134,4.3609,0.2134,6.3654v7.3533h9.4764l-5.814-7.9501
	C137.5964,33.7653,135.4614,30.5998,134.8213,29.5096 M27.5598,29.5096c0.1779,1.0902,0.2134,4.3609,0.2134,6.3654v7.3533h9.4759
	l-5.8128-7.9501C30.3339,33.7653,28.2006,30.5998,27.5598,29.5096 M0,0v43.2283h7.2918V18.7851h7.0399v24.4432h6.8283V18.7851
	h6.0806l5.4759,7.2791c1.1378,1.5123,3.3426,4.7818,3.8752,5.8024c-0.1773-1.0908-0.2128-4.3597-0.2128-6.3648v-6.7167h6.6138
	v24.4432h16.2847V18.7851h6.969v18.6723h11.0239v5.7709h5.5102l8.9699-24.4432h6.9684l8.9705,24.4432h6.3892V18.7851h7.0399v24.4432
	h7.303V18.7851h6.0789l5.4777,7.2791c1.1385,1.5123,3.3415,4.7818,3.8741,5.8024c-0.1768-1.0908-0.2134-4.3597-0.2134-6.3648
	v-6.7167h6.5783V0H0z M95.1989,25.8882c-0.321,1.6531-0.7099,3.024-1.6001,6.1543l-0.4616,1.6163h4.1247l-0.4616-1.6163
	C95.9106,28.8777,95.5205,27.5414,95.1989,25.8882 M91.4644,39.0755l-1.2963,4.1528h10.0634l-1.2975-4.1528H91.4644z"/>
</svg>
