<?xml version="1.0" encoding="utf-8"?>
<!-- Generator: Adobe Illustrator 22.0.1, SVG Export Plug-In . SVG Version: 6.00 Build 0)  -->
<svg version="1.1" id="Layer_1" xmlns="http://www.w3.org/2000/svg" xmlns:xlink="http://www.w3.org/1999/xlink" x="0px" y="0px"
	 viewBox="0 0 138.4971 24" enable-background="new 0 0 138.4971 24" xml:space="preserve">
<path fill="#E42313" d="M4.0828,23.8842H0.7807c-0.8907,0-0.7759-0.9604-0.7759-0.9604V11.9442l0,0V0.9657
	c0,0-0.1149-0.9609,0.7759-0.9609h6.6041c0.8906,0,0.7752,0.9609,0.7752,0.9609v10.9785l0,0v10.9795
	c0,0,0.1154,0.9604-0.7752,0.9604L4.0828,23.8842z M13.5092,18.5367c-0.6178,0.1163-1.0243,0.7114-0.908,1.3291v2.998
	c0,1.1658,1.2645,1.0203,1.2645,1.0203h20.9613c6.52,0,6.3755-5.5913,6.3755-5.5913c0-4.4844-4.9385-6.1153-4.9385-6.1153
	L21.762,7.1107c-0.3158-0.1173-1.1194-0.2619-1.0906-0.903c0.0282-0.6397,1.2056-0.4651,1.2056-0.4651l17.4887-0.0297
	c1.2631,0,1.0905-1.0188,1.0905-1.0188V0.7914c0-0.9028-1.0634-0.7865-1.0634-0.7865H18.1729c-1.321,0-6.3175,1.0485-6.3175,6.0572
	s5.6292,6.4644,5.6292,6.4644s13.2651,4.5433,14.2988,4.951c1.0336,0.4072,0.1155,1.049,0.1155,1.049H13.8657
	C13.747,18.5111,13.6267,18.5145,13.5092,18.5367z M119.3369,23.9999h10.5101c9.2165,0.0118,8.6431-7.4547,8.6431-7.4547V1.083
	c0,0,0.1145-0.9614-0.775-0.9614h-6.6057c-0.8897,0-0.7739,0.9614-0.7739,0.9614v13.8897c-0.0297,0,0.5442,3.4948-4.2795,3.4948
	h-2.9286c-4.8245,0-4.2503-3.4948-4.279-3.4948V1.083c0,0,0.1145-0.9614-0.7745-0.9614h-6.6055
	c-0.8913,0-0.7747,0.9614-0.7747,0.9614v15.4622C110.6936,16.5452,110.1199,24.0117,119.3369,23.9999L119.3369,23.9999z
	 M54.0836,23.9999h10.5098c9.2203,0.0118,8.6469-7.4547,8.6469-7.4547V1.083c0,0,0.1155-0.9614-0.7753-0.9614h-6.6075
	c-0.8907,0-0.7757,0.9614-0.7757,0.9614v13.8897c-0.0282,0,0.5455,3.4948-4.2785,3.4948h-2.9299
	c-4.824,0-4.2493-3.4948-4.2777-3.4948V1.083c0,0,0.1147-0.9614-0.7752-0.9614h-6.6047c-0.89,0-0.7757,0.9614-0.7757,0.9614v15.4622
	C45.44,16.5452,44.8671,24.0117,54.0836,23.9999L54.0836,23.9999z M104.5926,18.5264H86.5581c0,0-0.9197-0.6418,0.1147-1.049
	c1.0339-0.4077,14.3012-4.951,14.3012-4.951s5.6282-1.4557,5.6282-6.4644s-4.9977-6.0572-6.3174-6.0572H79.0631
	c0,0-1.0626-0.1163-1.0626,0.7865v3.9028c0,0-0.1726,1.0188,1.0915,1.0188l17.4882,0.0297c0,0,1.1766-0.1747,1.2052,0.4651
	c0.0292,0.6411-0.7745,0.7857-1.0907,0.903l-14.5015,5.0668c0,0-4.939,1.6309-4.939,6.1153c0,0-0.1432,5.5913,6.374,5.5913h20.9644
	c0,0,1.2631,0.1455,1.2631-1.0203v-2.998c0.1167-0.6172-0.289-1.2122-0.9063-1.3289
	C104.8318,18.5146,104.7114,18.5111,104.5926,18.5264z"/>
</svg>
