<?xml version="1.0" encoding="utf-8"?>
<!-- Generator: Adobe Illustrator 22.0.1, SVG Export Plug-In . SVG Version: 6.00 Build 0)  -->
<svg version="1.1" id="Layer_1" xmlns="http://www.w3.org/2000/svg" xmlns:xlink="http://www.w3.org/1999/xlink" x="0px" y="0px"
	 viewBox="0 0 128.2396 16.7926" enable-background="new 0 0 128.2396 16.7926" xml:space="preserve">
<path d="M49.1696,16.7753c-6.4689,0.0076-6.0641-5.2318-6.0641-5.2318V0.6939c0,0-0.0832-0.6772,0.541-0.6772h2.3908h-0.0719h2.319
	c0.6242,0,0.541,0.6772,0.541,0.6772v9.7449c0.0227,0-0.3821,2.4553,3.0037,2.4553h1.029h1.029c3.382,0,2.981-2.4553,3.0037-2.4553
	V0.6939c0,0-0.0832-0.6772,0.541-0.6772h2.319h-0.0719h2.387c0.6242,0,0.5448,0.6772,0.5448,0.6772v10.8495
	c0,0,0.401,5.2395-6.0641,5.2318H52.858H49.1696z M109.0258,13.0207c-1.0517,0.0189-0.889,0.942-0.889,0.942v2.1071
	c0,0.8208,0.889,0.7187,0.889,0.7187h14.7309c4.5812,0,4.4828-3.9304,4.4828-3.9304c0-3.1549-3.4728-4.3013-3.4728-4.3013
	l-10.1913-3.5597c-0.2232-0.0831-0.7869-0.1815-0.7679-0.6354c0.0227-0.4502,0.8474-0.3256,0.8474-0.3256l12.2947-0.0226
	c0.8852,0,0.7641-0.7148,0.7641-0.7148V0.5559c0-0.6354-0.7452-0.5523-0.7452-0.5523h-14.9163
	c-0.9306,0-4.4412,0.7377-4.4412,4.2558s3.957,4.5433,3.957,4.5433s9.3212,3.1928,10.0514,3.4805
	c0.7263,0.2835,0.0832,0.7375,0.0832,0.7375H109.0258z M36.0064,16.3869c0.0643,0.0717,0.2232,0.2571,0.4199,0.3252
	c0.2118,0.0794,0.5069,0.0756,0.5069,0.0756l3.8095-0.0151c0,0,0.4842,0.0417,0.6204-0.3365c0.1551-0.42-0.3026-0.749-0.3026-0.749
	l-5.8901-6.0831c-0.314-0.3821-0.0303-0.5789,0.0908-0.6204c0.0643-0.0263,1.8764-0.6696,1.8764-0.6696s3.7149-0.9534,3.7149-4.3958
	c0-3.4311-3.8322-3.904-4.3769-3.904c-0.0114,0-13.9176-0.0229-14.7877-0.0076L21.65,0.0029c-0.5485,0-0.4502,0.6733-0.4502,0.6733
	v7.7135v7.7135c0,0-0.0719,0.6771,0.4767,0.6771h2.0352h2.6859c0.5485,0,0.4767-0.6771,0.4767-0.6771V8.3897V3.7972l0.0076-0.0039
	l7.3314,0.0189c0,0,0.7906-0.0453,0.802,0.3064c0.0151,0.4276-0.5145,0.5221-0.7263,0.6015c0,0-2.7351,1.048-3.6657,1.4112
	c-0.9117,0.3593-2.2833,1.9017-0.4577,3.8206C30.3887,10.1865,35.1022,15.3844,36.0064,16.3869z M6.3365,3.836
	c0,0,0.1664-0.0113,0.2799,0.091c0.1097,0.0984,0.1097,0.2496,0.1097,0.2496L6.7299,16.108c0,0-0.0719,0.6771,0.4767,0.6771h2.2433
	h2.5157c0.5523,0,0.4804-0.6771,0.4804-0.6771V4.2673c0,0-0.0265-0.223,0.0908-0.3366c0.1248-0.1173,0.314-0.0947,0.314-0.0947
	h5.6593l0.0113-0.0037c0,0,0.6734,0.0718,0.6734-0.4766V2.5386V0.5032c0-0.5484-0.6734-0.4805-0.6734-0.4805h-0.0113h-5.2735H5.8371
	H0.6885c0,0-0.6885-0.0755-0.6885,0.4768v2.0351v0.8171c0,0.5523,0.6772,0.4768,0.6772,0.4768L6.3365,3.836z M85.6553,11.0339
	c0,0,0.0719-0.7301-0.4767-0.7301h-2.0996h-2.0352c-0.5486,0-0.4842,0.6811-0.4842,0.6811
	c-0.0681,0.6391-0.2572,1.0402-0.541,1.3542c-0.3821,0.42-1.2446,0.6317-2.5724,0.6317h-2.8335
	c-1.2332,0-2.0579-0.2307-2.4703-0.6922c-0.4124-0.4616-0.6204-1.1159-0.6204-1.9672V6.4982c0-0.8474,0.208-1.5017,0.6204-1.9672
	c0.4123-0.4613,1.237-0.6922,2.4703-0.6922h2.8335c1.3278,0,2.1904,0.212,2.5724,0.6357c0.28,0.3064,0.454,0.7377,0.5334,1.305
	V5.787c0.0227,0.1589,0.0227,0.7075,0.4956,0.7075h2.0352h2.0957c0.5523,0,0.4767-0.647,0.4767-0.647V4.8489
	c0-1.5588-0.4123-2.7541-1.2408-3.5826c-0.8323-0.8284-2.3719-1.2445-4.6266-1.2445h-7.9821c-2.2357,0-3.7868,0.4008-4.6569,1.199
	c-0.8663,0.8021-1.3013,2.0088-1.3013,3.628v7.112c0,1.619,0.435,2.8296,1.3013,3.6278c0.8701,0.8019,2.4211,1.1992,4.6569,1.1992
	h7.9821c2.2547,0,3.7943-0.4123,4.6266-1.2446c0.8285-0.8245,1.2408-2.0201,1.2408-3.5823V11.0339z M94.3391,6.7905
	c-0.2686,0.178-0.2308-0.2685-0.2308-0.2685l0.0227-5.837c0,0,0.0681-0.6735-0.4805-0.6735h-2.754h-2.0428
	c-0.5523,0-0.488,0.6885-0.488,0.6885v15.3286c0,0-0.0681,0.7528,0.4842,0.7528h2.0352h2.7427c0.5485,0,0.4804-0.6771,0.4804-0.6771
	v-5.2358c0,0-0.0378-0.2685,0.1173-0.4463c0.1362-0.1552,0.4086-0.1741,0.4086-0.1741c0.2194-0.0226,1.2333-0.0113,1.5245,0.1362
	c1.3316,0.662,2.1752,2.0201,2.1752,2.0201l3.0415,3.9873c0.0606,0.0681,0.2194,0.2496,0.4161,0.3253
	c0.2118,0.0718,0.5221,0.0718,0.5221,0.0718l4.0629-0.0151c0,0,0.3594,0.0114,0.4275-0.2042
	c0.0643-0.208-0.4161-0.7225-0.4615-0.764l-4.2861-5.5345c0,0-0.7301-0.9686-2.0996-2.0732L99.465,7.8461
	c-0.1097-0.0681-0.4729-0.2801-0.1551-0.6622L105.2,1.101c0,0,0.4577-0.329,0.3026-0.7527
	c-0.1362-0.3708-0.6242-0.3329-0.6242-0.3329l-3.8057-0.0113c0,0-0.2989-0.0039-0.5069,0.0718
	c-0.2005,0.0718-0.3556,0.2535-0.4199,0.3253c-0.9041,1.0025-5.5572,6.1321-5.7804,6.3667L94.3391,6.7905z"/>
</svg>
