<?xml version="1.0" encoding="utf-8"?>
<!-- Generator: Adobe Illustrator 22.0.1, SVG Export Plug-In . SVG Version: 6.00 Build 0)  -->
<svg version="1.1" id="Layer_1" xmlns="http://www.w3.org/2000/svg" xmlns:xlink="http://www.w3.org/1999/xlink" x="0px" y="0px"
	 viewBox="0 0 51.873 11.2852" enable-background="new 0 0 51.873 11.2852" xml:space="preserve">
<path d="M0,0.0645h0.8965h0.9023v8.6133H0.9023H0V0.0645z M6.2754,8.7129C5.9941,8.7363,5.6484,8.748,5.2383,8.748
	c-0.5938,0-1.0205-0.1064-1.2803-0.3193S3.5684,7.8672,3.5684,7.3828V3.4805H2.6836V2.3027h0.8848V0.5859H5.25v1.7168h1.0254v1.1777
	H5.25v3.6211c0,0.1484,0.0439,0.2461,0.1318,0.293s0.2705,0.0703,0.5479,0.0703h0.3457V8.7129z M6.8027,7.3711l3.2344-3.6914
	l0.041-0.0469H7.043V2.9707v-0.668h5.1328v0.6855v0.6914L8.9912,7.3008h3.3311v0.6855v0.6914H6.8027V8.0273V7.3711z M13.4766,0.0645
	h0.8965h3.4453c0.8203,0,1.4814,0.2197,1.9834,0.6592s0.7529,1.0186,0.7529,1.7373c0,0.8281-0.2793,1.4336-0.8379,1.8164
	c-0.1484,0.1016-0.3164,0.1875-0.5039,0.2578c0.1055,0.043,0.2012,0.0898,0.2871,0.1406c0.4922,0.293,0.748,0.7852,0.7676,1.4766
	l0.041,1.4121c0.0078,0.2813,0.0371,0.4805,0.0879,0.5977s0.1484,0.2109,0.293,0.2813v0.2285h-1.9873
	c-0.0469-0.0898-0.0884-0.2822-0.1235-0.5771S18.5239,7.4824,18.52,7.1426l-0.0112-0.7969
	C18.501,5.959,18.3867,5.6836,18.166,5.5195c-0.2202-0.1641-0.5864-0.2461-1.0977-0.2461h-1.793v3.4043h-0.8965h-0.9023V0.0645z
	 M15.2754,3.8262h2.0859c0.4648,0,0.8135-0.0947,1.0459-0.2842s0.3486-0.4756,0.3486-0.8584c0-0.3789-0.1104-0.6631-0.3311-0.8525
	s-0.5518-0.2842-0.9932-0.2842h-2.1563V3.8262z M23.5371,8.8418c-0.5898,0-1.0645-0.1689-1.4238-0.5068s-0.5391-0.7822-0.5391-1.333
	c0-0.582,0.1621-1.0479,0.4863-1.3975s0.7969-0.5693,1.418-0.6592l1.1074-0.1523c0.2891-0.0391,0.5293-0.1055,0.7207-0.1992
	c0.082-0.0391,0.1455-0.1094,0.1904-0.2109s0.0615-0.2051,0.0498-0.3105c-0.0234-0.1797-0.1152-0.3203-0.2754-0.4219
	c-0.1914-0.1211-0.4668-0.1816-0.8262-0.1816c-0.3203,0-0.5703,0.0781-0.75,0.2344s-0.2754,0.377-0.2871,0.6621h-1.6113
	c0.0352-0.7461,0.2891-1.3047,0.7617-1.6758s1.166-0.5566,2.0801-0.5566c0.793,0,1.4189,0.167,1.8779,0.5015
	s0.6885,0.791,0.6885,1.3696v3.5654c0,0.2856,0.0234,0.4858,0.0703,0.6011c0.0469,0.1157,0.1406,0.2065,0.2813,0.2729v0.0059v0.2285
	h-0.9082h-0.9082V8.6719c-0.0742-0.2578-0.123-0.5098-0.1465-0.7559l-0.0059-0.0117C25.0605,8.5293,24.377,8.8418,23.5371,8.8418z
	 M25.5586,6.3223V5.5898c-0.1953,0.1094-0.4531,0.1973-0.7734,0.2637l-0.6211,0.1172c-0.293,0.0547-0.5156,0.1553-0.668,0.3018
	s-0.2285,0.3311-0.2285,0.5537c0,0.2539,0.0684,0.4531,0.2051,0.5977s0.3281,0.2168,0.5742,0.2168
	c0.5391,0,0.9688-0.1895,1.2891-0.5684c0.0625-0.0742,0.1152-0.1836,0.1582-0.3281S25.5586,6.459,25.5586,6.3223z M34.1895,6.3164
	c-0.0859,0.793-0.3809,1.4121-0.8848,1.8574s-1.1602,0.668-1.9688,0.668c-0.9648,0-1.71-0.2871-2.2354-0.8613
	s-0.7881-1.3926-0.7881-2.4551c0-1.0391,0.2725-1.8643,0.8174-2.4756s1.2803-0.917,2.2061-0.917
	c0.8203,0,1.4922,0.2266,2.0156,0.6797s0.8027,1.0488,0.8379,1.7871h-1.7109c-0.0156-0.3164-0.1279-0.5723-0.3369-0.7676
	s-0.4775-0.293-0.8057-0.293c-0.4219,0-0.7432,0.1689-0.9639,0.5068S30.041,4.877,30.041,5.5254
	c0,0.6328,0.1104,1.1143,0.3311,1.4443s0.542,0.4951,0.9639,0.4951c0.3047,0,0.5625-0.1055,0.7734-0.3164s0.334-0.4883,0.3691-0.832
	H34.1895z M35.4023,0h1.7109v1.5586h-1.7109V0z M35.4199,2.3027h0.8379h0.8438v6.375h-0.8379h-0.8438V2.3027z M38.6895,2.3027
	h0.7969h0.8027v0.9434c0.0664-0.1133,0.1387-0.2207,0.2168-0.3223c0.4141-0.5273,1.0156-0.791,1.8047-0.791
	c0.6719,0,1.1982,0.1992,1.5791,0.5977s0.5713,0.9512,0.5713,1.6582v4.2891H43.623h-0.8438V4.6934
	c0-0.3945-0.085-0.6865-0.2549-0.876s-0.4307-0.2842-0.7822-0.2842c-0.4414,0-0.7803,0.1328-1.0166,0.3984
	s-0.3545,0.6484-0.3545,1.1484v3.5977h-0.8379h-0.8438V2.3027z M48.8965,10.002c0.4727,0,0.8125-0.1143,1.0195-0.3428
	s0.3105-0.6064,0.3105-1.1338V7.7402l-0.1348,0.2051c-0.3711,0.5117-0.9043,0.7676-1.5996,0.7676
	c-0.8281,0-1.4971-0.2979-2.0068-0.8936s-0.7646-1.3818-0.7646-2.3584c0-1,0.248-1.8047,0.7441-2.4141s1.1484-0.9141,1.957-0.9141
	c0.7148,0,1.2695,0.2598,1.6641,0.7793c0.0742,0.0977,0.1426,0.2051,0.2051,0.3223V2.3027h1.582v6.0352
	c0,1.0078-0.249,1.751-0.7471,2.2295s-1.2744,0.7178-2.3291,0.7178c-0.8672,0-1.5566-0.1689-2.0684-0.5068
	s-0.7852-0.8057-0.8203-1.4033h1.8281c0.0156,0.2188,0.1162,0.3779,0.3018,0.4775S48.5098,10.002,48.8965,10.002z M48.8438,3.5859
	c-0.4375,0-0.7793,0.167-1.0254,0.501s-0.3691,0.7979-0.3691,1.3916c0,0.582,0.123,1.0361,0.3691,1.3623
	s0.5859,0.4893,1.0195,0.4893c0.4414,0,0.7861-0.166,1.0342-0.498s0.3721-0.791,0.3721-1.377s-0.124-1.0439-0.3721-1.374
	S49.2813,3.5859,48.8438,3.5859z"/>
</svg>
