<?xml version="1.0" encoding="utf-8"?>
<!-- Generator: Adobe Illustrator 22.0.1, SVG Export Plug-In . SVG Version: 6.00 Build 0)  -->
<svg version="1.1" id="Layer_1" xmlns="http://www.w3.org/2000/svg" xmlns:xlink="http://www.w3.org/1999/xlink" x="0px" y="0px"
	 viewBox="0 0 129 144" enable-background="new 0 0 129 144" xml:space="preserve">
<path d="M129,0H0v144h129V0z"/>
<path fill="#FFFFFF" d="M127,142H2V29h125V142z"/>
<path fill="#FAB33F" d="M2,27V2h125v25H2z"/>
<g>
	<path id="path5602_2_" d="M22.26,3.77c-4.73,0-9.85,2.53-12.39,6.73h12.43c1.13,1.89,1.84,3.77,2.3,5.66
		c0.09,1.13-2.45,2.81-5.16,3.51L7,20.9l1.66,4.33h25c2.28-3.51,3.83-6.99,3.83-10.71C37.5,6.45,28.44,3.91,22.26,3.77L22.26,3.77z
		 M28.21,5.79c4.99,1.01,7.3,4.26,6.91,6.27C34.18,9.99,30.81,7.09,28.21,5.79z"/>
	<path id="path5620_2_" d="M14.09,11.16l-4.43,5.55c2.69,0,4.07-1.78,7.79-5.55C17.44,11.16,14.09,11.16,14.09,11.16z M14.32,11.56
		h0.59c-1.62,1.82-4.15,4.79-4.59,4.79L14.32,11.56z"/>
</g>
<g>
	<path d="M51.34,14.64c0.43,0.41,0.76,0.91,0.99,1.48c0.23,0.57,0.35,1.23,0.35,1.96v5.21h-2.27v-5.21c0-1.54-0.75-2.32-2.24-2.32
		h-1.12h-0.29v7.52h-2.24V5.69h3.65c1.51,0,2.65,0.45,3.41,1.34c0.7,0.81,1.05,2.04,1.05,3.68c0,1.62-0.35,2.86-1.05,3.7
		c-0.03,0.03-0.07,0.07-0.11,0.12C51.43,14.57,51.38,14.61,51.34,14.64z M48.16,13.5c0.6,0,1.02-0.07,1.25-0.21
		c0.23-0.14,0.38-0.25,0.44-0.33c0.35-0.45,0.53-1.19,0.53-2.24c0-0.59-0.05-1.06-0.14-1.42c-0.1-0.36-0.24-0.64-0.42-0.84
		c-0.18-0.2-0.41-0.33-0.69-0.39c-0.28-0.06-0.6-0.1-0.97-0.1h-1.41v5.54h0.29L48.16,13.5L48.16,13.5z"/>
	<path d="M56.78,23.31h-2.32l4.06-17.6h1.79l4.11,17.6h-2.34l-1.12-4.92h-3.06L56.78,23.31z M59.43,11.83l-1,4.32h2.01L59.43,11.83z
		"/>
	<path d="M69.08,23.31c-0.43,0-0.81-0.04-1.15-0.13c-0.33-0.09-0.63-0.2-0.9-0.33c-0.26-0.13-0.49-0.29-0.67-0.45
		c-0.18-0.17-0.34-0.33-0.47-0.49c-0.67-0.86-1-2.07-1-3.63v-7.55c0-1.56,0.33-2.77,1-3.63c0.25-0.32,0.63-0.63,1.14-0.93
		c0.5-0.3,1.18-0.45,2.04-0.45c0.86,0,1.54,0.15,2.03,0.45c0.49,0.3,0.87,0.61,1.12,0.93c0.68,0.88,1.03,2.09,1.03,3.63v1.12h-2.27
		v-1.12c0-0.68-0.07-1.22-0.2-1.6c-0.14-0.38-0.3-0.66-0.5-0.82c-0.2-0.17-0.41-0.27-0.63-0.3c-0.22-0.03-0.42-0.05-0.57-0.05
		c-0.18,0-0.37,0.02-0.59,0.05c-0.22,0.03-0.43,0.13-0.63,0.3s-0.38,0.44-0.51,0.82c-0.13,0.38-0.2,0.91-0.2,1.6v7.55
		c0,1.04,0.18,1.78,0.55,2.24c0.08,0.11,0.22,0.23,0.43,0.36c0.21,0.13,0.53,0.19,0.96,0.19s0.74-0.06,0.94-0.19
		c0.2-0.13,0.35-0.25,0.44-0.36c0.35-0.48,0.53-1.23,0.53-2.24v-1.12h2.27v1.12c0,1.54-0.34,2.75-1.03,3.63
		c-0.25,0.32-0.63,0.63-1.12,0.94C70.62,23.16,69.94,23.31,69.08,23.31z"/>
	<path d="M76.41,7.96v5.42h5.04v2.24h-5.04v5.44h5.04v2.24h-7.28V5.71h7.28v2.24L76.41,7.96L76.41,7.96z"/>
	<path d="M87.23,23.29c-0.84,0-1.52-0.15-2.03-0.45c-0.51-0.3-0.89-0.61-1.15-0.93c-0.67-0.86-1-2.07-1-3.63V10.7
		c0-1.56,0.33-2.77,1-3.63c0.13-0.16,0.28-0.32,0.47-0.48c0.18-0.16,0.41-0.31,0.67-0.44c0.26-0.13,0.56-0.25,0.9-0.33
		c0.33-0.09,0.72-0.13,1.15-0.13c0.86,0,1.54,0.15,2.04,0.45s0.88,0.61,1.13,0.93c0.67,0.86,1,2.07,1,3.63v7.57
		c0,1.56-0.33,2.77-1,3.63c-0.25,0.32-0.63,0.63-1.13,0.93C88.77,23.14,88.09,23.29,87.23,23.29z M87.23,7.96
		c-0.18,0-0.37,0.02-0.59,0.05c-0.22,0.03-0.43,0.13-0.63,0.3c-0.21,0.17-0.38,0.44-0.51,0.81c-0.13,0.37-0.2,0.9-0.2,1.59v7.57
		c0,0.7,0.07,1.24,0.2,1.61c0.13,0.37,0.31,0.65,0.51,0.81c0.21,0.17,0.42,0.27,0.63,0.3c0.21,0.03,0.41,0.05,0.59,0.05
		c0.16,0,0.35-0.02,0.57-0.05c0.22-0.03,0.44-0.13,0.64-0.3c0.21-0.17,0.38-0.44,0.51-0.81c0.13-0.37,0.2-0.91,0.2-1.61V10.7
		c0-0.68-0.07-1.21-0.2-1.59c-0.14-0.37-0.31-0.65-0.51-0.81S88.03,8.04,87.8,8C87.58,7.97,87.39,7.96,87.23,7.96z"/>
	<path d="M94.97,23.29h-2.24V5.69h1.89l4.3,10.65V5.69h2.27v17.6h-1.91l-4.3-10.65L94.97,23.29L94.97,23.29z"/>
	<path d="M107.05,23.29c-0.84,0-1.52-0.15-2.03-0.45c-0.51-0.3-0.89-0.61-1.15-0.93c-0.67-0.86-1-2.07-1-3.63V10.7
		c0-1.56,0.33-2.77,1-3.63c0.13-0.16,0.28-0.32,0.47-0.48c0.18-0.16,0.41-0.31,0.67-0.44c0.26-0.13,0.56-0.25,0.9-0.33
		c0.33-0.09,0.72-0.13,1.15-0.13c0.86,0,1.54,0.15,2.04,0.45s0.88,0.61,1.13,0.93c0.67,0.86,1,2.07,1,3.63v7.57
		c0,1.56-0.33,2.77-1,3.63c-0.25,0.32-0.63,0.63-1.13,0.93C108.59,23.14,107.91,23.29,107.05,23.29z M107.05,7.96
		c-0.18,0-0.37,0.02-0.59,0.05c-0.22,0.03-0.43,0.13-0.63,0.3s-0.38,0.44-0.51,0.81c-0.13,0.37-0.2,0.9-0.2,1.59v7.57
		c0,0.7,0.07,1.24,0.2,1.61c0.13,0.37,0.31,0.65,0.51,0.81c0.21,0.17,0.42,0.27,0.63,0.3c0.21,0.03,0.41,0.05,0.59,0.05
		c0.16,0,0.35-0.02,0.57-0.05c0.22-0.03,0.44-0.13,0.64-0.3c0.21-0.17,0.38-0.44,0.51-0.81c0.13-0.37,0.2-0.91,0.2-1.61V10.7
		c0-0.68-0.07-1.21-0.2-1.59c-0.14-0.37-0.31-0.65-0.51-0.81c-0.21-0.17-0.42-0.27-0.64-0.3C107.4,7.97,107.21,7.96,107.05,7.96z"/>
	<path d="M122,21.07v2.24h-9.07v-2.2l6.16-13.16h-6.54V5.71h9.07v2.17l-6.16,13.18L122,21.07L122,21.07z"/>
</g>
</svg>
