<?xml version="1.0" encoding="utf-8"?>
<!-- Generator: Adobe Illustrator 22.0.1, SVG Export Plug-In . SVG Version: 6.00 Build 0)  -->
<svg version="1.1" id="Layer_1" xmlns="http://www.w3.org/2000/svg" xmlns:xlink="http://www.w3.org/1999/xlink" x="0px" y="0px"
	 viewBox="0 0 69.101 13.422" enable-background="new 0 0 69.101 13.422" xml:space="preserve">
<g>
	<path d="M13.907,1.043c0-0.348-0.144-0.6-0.504-0.696c-0.167-0.048-0.348-0.072-0.54-0.072c-2.471,0-6.488,3.814-6.692,5.073
		C6.159,5.445,6.159,5.553,6.339,5.553c0.408,0,1.188-0.24,1.188-0.24C6.902,5.745,6.279,5.889,6.039,5.889
		c-0.396,0.012-0.708-0.228-0.72-0.647C5.284,3.394,9.985,0,12.779,0c0.216,0,0.432,0.024,0.624,0.072
		c0.864,0.204,1.188,0.731,1.188,1.403c0,1.871-2.506,4.905-2.962,5.421c0.48,0.12,1.307,0.432,1.667,0.708c0,0,0,0.012-0.012,0.012
		c-0.624-0.228-1.032-0.396-1.799-0.54C9.457,9.643,4.876,13.36,1.71,13.42c-0.875,0.024-1.607-0.3-1.703-1.188
		c-0.216-2.327,4.989-5.601,9.199-5.601c0.396,0,0.768,0.024,1.14,0.084C11.1,5.805,13.907,2.53,13.907,1.043z M10.177,6.896
		C9.913,6.848,9.625,6.824,9.325,6.824c-3.37,0-8.683,2.698-8.647,5.145c0.012,0.444,0.396,0.647,0.839,0.647
		C3.904,12.617,8.186,9.391,10.177,6.896z"/>
	<path d="M13.529,10.158c-0.24,0.012-0.468-0.312-0.48-0.528c-0.024-0.335,0.456-0.911,0.816-0.947
		c0.24-0.012,0.744,0.228,0.827,0.456C14.285,9.151,13.661,10.146,13.529,10.158z"/>
	<path d="M17.369,11.777c2.891,0,8.743-2.89,8.743-4.701c0-0.744-0.996-1.188-2.171-1.511c-1.439-0.396-3.07-0.612-3.07-1.667
		c0-2.015,3.874-3.622,5.625-3.682c1.091-0.036,1.823,0.228,1.811,1.151c-0.024,1.427-2.111,2.974-3.382,2.974
		c-0.24,0-0.6-0.096-0.6-0.359c0-0.492,0.468-1.008,0.708-1.151c-0.18,0.204-0.251,0.456-0.251,0.624
		c0,0.072,0.072,0.072,0.144,0.072c0.492,0,2.831-1.343,2.986-2.435c0.06-0.384-0.264-0.492-0.719-0.492
		c-0.132,0-0.288,0.012-0.444,0.024c-1.535,0.168-5.061,2.147-5.061,3.382c0,0.695,1.151,0.995,2.362,1.331
		c1.355,0.372,2.759,0.815,2.759,2.147c0,2.626-5.973,5.193-9.247,5.193c-0.792,0-1.943-0.228-1.943-1.175
		c0-1.775,5.421-4.642,6.968-4.605c-3.178,0.864-6.225,3.514-6.225,4.402C16.361,11.766,16.985,11.777,17.369,11.777z"/>
	<path d="M32.259,1.451c0.18-0.144,0.335-0.24,0.443-0.24c0.672-0.036,1.151,0.659,0.924,0.527c-0.384-0.18-1.092,0.78-1.619,1.463
		c1.931-0.096,4.461,0,6.176,0.36c0.096,0.024,0.144,0.048,0,0.036c-2.375-0.204-4.569-0.192-6.572,0.108
		c-0.444,0.551-0.839,1.151-1.319,1.859c-1.043,1.583-1.943,3.106-2.23,3.874c0.516,0.06,2.506-1.895,3.214-2.542
		c0.072-0.06,0.12,0.036,0.084,0.072c-0.587,0.671-2.674,2.854-3.394,3.118c-0.156,0.06-0.276,0.012-0.384-0.048
		c-0.096-0.048-0.36-0.3-0.432-0.48c-0.012-0.024-0.036-0.048-0.036-0.18c0-0.36,0.54-1.535,2.015-3.814
		c0.324-0.492,0.671-1.02,1.115-1.607c-1.139,0.228-1.847,0.804-1.535,0.983c-0.192,0-0.6-0.228-0.636-0.611
		c-0.048-0.54,1.271-0.875,2.615-1.032C31.623,2.075,31.959,1.691,32.259,1.451z"/>
	<path d="M33.507,7.736c-0.359,0.359-2.698,2.375-3.202,2.375c-0.024,0-0.084-0.024-0.108-0.036
		c-0.216-0.108-0.528-0.563-0.528-0.803c0-1.308,2.747-3.982,4.954-3.982c0.456,0,1.055,0.192,1.055,0.755
		c0,0.204-0.108,0.408-0.228,0.564c-0.024,0.012-0.048,0-0.036-0.012c0.06-0.108,0.132-0.252,0.132-0.432
		c0-0.36-0.228-0.54-0.587-0.516c-0.696,0.036-1.571,0.54-2.351,1.199c-1.139,0.972-2.039,2.482-1.931,2.542
		c0.024,0.012,0.048,0.012,0.084,0c0.396-0.132,2.075-1.343,2.698-1.871c0.216-0.192,0.996-0.947,1.295-1.115
		c0.24-0.12,0.647,0.54,0.6,0.684c-0.06-0.12-1.139,1.188-1.499,1.955c-0.072,0.168-0.12,0.312-0.12,0.408
		c0.756-0.216,2.471-1.859,3.214-2.555c0.06-0.06,0.12,0.036,0.084,0.072c-1.043,1.139-2.999,3.142-3.718,3.142
		c-0.06,0-0.12-0.024-0.204-0.072c-0.168-0.096-0.396-0.348-0.396-0.564c0-0.12,0.048-0.264,0.096-0.444
		C32.956,8.587,33.28,8.036,33.507,7.736z"/>
	<path d="M39.411,9.463c0.756-0.204,2.471-1.847,3.238-2.567c0.072-0.06,0.132,0.036,0.096,0.072
		c-1.043,1.139-2.998,3.118-3.718,3.118c-0.12,0-0.251-0.108-0.372-0.252c-0.132-0.156-0.216-0.336-0.216-0.468
		c0-0.684,1.391-2.687,2.015-3.25c-0.983,0.443-2.746,1.895-3.634,2.854c-0.156,0.156-0.3,0.335-0.432,0.503
		c-0.324,0.384-0.408,0.708-0.228,0.792c-0.36,0.084-0.647-0.3-0.744-0.647c-0.024-0.084,0.036-0.408,0.336-0.959
		c0.288-0.564,0.744-1.271,1.139-1.823c0.432-0.611,0.959-1.247,1.271-1.487c0.048-0.048,0.12-0.06,0.156-0.06
		c0.3,0,0.756,0.468,0.756,0.768c0,0.048-0.048-0.012-0.144-0.024c-0.156-0.012-0.6,0.492-0.959,0.959
		c-0.563,0.744-1.188,1.631-1.367,1.967c0.132-0.192,0.36-0.432,0.612-0.672c1.343-1.319,3.454-2.938,3.862-2.938
		c0.288,0,0.671,0.647,0.516,0.779C41.295,6.368,39.436,8.899,39.411,9.463z"/>
	<path d="M42.365,6.8c0.828-1.392,1.679-2.615,2.447-3.634c0.611-0.815,1.127-1.403,1.511-1.715c0.204-0.156,0.36-0.216,0.456-0.216
		c0.695,0,1.151,0.708,0.936,0.576c-0.324-0.156-0.779,0.3-1.487,1.115c-0.132,0.156-0.72,0.912-0.72,0.912
		c-0.72,0.912-1.619,2.279-2.255,3.298c0.947-1.007,2.387-2.123,2.975-2.123c0.264,0,0.575,0.504,0.575,0.755
		c0,0.888-2.446,2.435-3.777,2.315c0.516,1.331,2.099,3.166,3.67,3.166c0.42,0,0.84-0.132,1.235-0.432
		c0.036-0.036,0.132-0.024,0.072,0.036c-0.504,0.479-1.067,0.684-1.644,0.684c-1.547,0-3.166-1.487-3.981-2.891
		c-0.288,0.54-0.948,1.463-0.408,1.523c-0.144,0.06-0.276,0.012-0.396-0.06c-0.084-0.036-0.324-0.288-0.42-0.48
		c-0.024-0.096-0.024-0.492,0.36-1.271c0.108-0.24,0.24-0.48,0.36-0.72c-0.048-0.192-0.084-0.372-0.036-0.504
		C41.909,6.944,42.137,6.848,42.365,6.8z M42.916,7.7c0.024,0.12,0.048,0.204,0.072,0.24c1.056-0.144,2.435-1.691,2.795-2.411
		C44.955,5.733,43.036,7.532,42.916,7.7z"/>
	<path d="M50.643,5.493c-2.171,0-4.678,4.042-4.006,4.33c0.672,0.276,2.387-1.643,3.19-2.866c-0.06-0.108-0.18-0.468-0.132-0.588
		c0.036-0.12,0.396-0.479,0.552-0.492c0.12-0.012,0.252,0.084,0.275,0.12c0.229,0.372,0.516,0.647,0.996,0.612
		c0.803-0.072,1.247-0.54,1.379-0.528c-0.06,0.168-0.54,0.563-1.128,0.755c-0.264,0.084-0.516,0.108-0.707,0.108
		c-0.18,0-0.3-0.024-0.36-0.048c-0.323,1.595-2.806,3.322-4.077,3.25c-0.552-0.036-0.912-0.492-0.912-0.948
		c0-1.955,2.627-3.91,4.521-3.91c0.456,0,0.648,0.132,0.732,0.204c0.06,0.036,0.023,0.036-0.024,0.036
		C50.822,5.517,50.727,5.493,50.643,5.493z"/>
	<path d="M54.939,5.876c0.061-0.048,0.132-0.06,0.168-0.06c0.288,0,0.804,0.456,0.828,0.768c0,0.036-0.036-0.012-0.156-0.024
		c-0.18-0.012-0.443,0.288-0.899,1.008c-0.432,0.684-0.779,1.607-0.731,1.775c1.511-0.923,3.406-3.13,4.533-4.917
		c0.072-0.096,0.097-0.096,0.036,0.024c-0.899,2.327-4.354,5.661-4.833,5.661c-0.3,0-0.6-0.468-0.612-0.564
		c-0.06-0.467,0.264-1.319,0.576-1.967c-0.552,0.636-1.38,1.571-1.859,1.967c-0.372,0.312-0.72,0.612-0.852,0.612
		c-0.228,0-0.527-0.468-0.552-0.563c-0.023-0.624,0.6-1.979,1.271-2.986c0.359-0.552,0.6-0.84,0.876-1.067
		c0.06-0.06,0.132-0.072,0.168-0.072c0.312,0,0.803,0.468,0.815,0.78c0.012,0.036-0.024-0.012-0.132-0.024
		c-0.108,0-0.252,0.108-0.42,0.3c-0.48,0.552-1.523,2.171-1.619,2.854c0.359-0.192,1.367-1.008,2.471-2.279
		C54.471,6.428,54.711,6.068,54.939,5.876z"/>
	<path d="M58.361,7.424c-0.048,0.204,0.24,0.396,0.359,0.504c1.919-1.08,3.454-1.343,3.61-1.343c0.024,0,0.072,0.024,0.072,0.06
		c0.107,0.036-2.267,0.66-3.574,1.439c0.156,0.12,0.456,0.468,0.42,0.72c-0.168,0.779-1.751,1.415-2.531,1.415
		c-0.264,0-0.396-0.216-0.455-0.479c0.036-0.516,1.799-1.523,2.219-1.691c-0.132-0.168-0.84-0.6-0.731-1.127
		c0.191-0.911,1.919-1.811,2.974-1.811c0.336,0,0.492,0.552,0.456,0.9c-0.012,0.167-0.768,0.887-1.091,0.887
		c-0.013,0-0.036-0.048-0.024-0.048c0.036,0,0.84-0.839,0.863-1.08C60.375,5.721,58.517,6.86,58.361,7.424z M56.573,9.606
		c0.468-0.132,1.955-0.899,1.955-1.355C57.809,8.659,56.921,9.259,56.573,9.606z"/>
	<path d="M61.313,6.8c0.827-1.392,1.679-2.615,2.446-3.634c0.611-0.815,1.127-1.403,1.511-1.715c0.204-0.156,0.36-0.216,0.456-0.216
		c0.695,0,1.151,0.708,0.936,0.576c-0.324-0.156-0.779,0.3-1.487,1.115c-0.132,0.156-0.72,0.912-0.72,0.912
		c-0.72,0.912-1.619,2.279-2.255,3.298c0.948-1.007,2.387-2.123,2.975-2.123c0.264,0,0.576,0.504,0.576,0.755
		c0,0.888-2.447,2.435-3.778,2.315c0.516,1.331,2.099,3.166,3.67,3.166c0.42,0,0.84-0.132,1.235-0.432
		c0.036-0.036,0.132-0.024,0.072,0.036c-0.504,0.479-1.067,0.684-1.644,0.684c-1.547,0-3.166-1.487-3.981-2.891
		c-0.288,0.54-0.947,1.463-0.408,1.523c-0.144,0.06-0.275,0.012-0.396-0.06c-0.084-0.036-0.324-0.288-0.42-0.48
		c-0.023-0.096-0.023-0.492,0.36-1.271c0.107-0.24,0.239-0.48,0.359-0.72c-0.048-0.192-0.084-0.372-0.036-0.504
		C60.857,6.944,61.084,6.848,61.313,6.8z M61.864,7.7c0.023,0.12,0.048,0.204,0.071,0.24c1.056-0.144,2.435-1.691,2.795-2.411
		C63.902,5.733,61.984,7.532,61.864,7.7z"/>
	<path d="M64.948,10.098c-0.192-0.06-0.492-0.359-0.492-0.576c0-0.695,1.739-3.31,2.507-3.922c0.061-0.06,0.132-0.072,0.18-0.072
		c0.276,0,0.756,0.48,0.756,0.78c0,0.048-0.06-0.012-0.156-0.024c-0.491-0.048-2.135,2.687-2.278,3.178
		c0.731-0.192,2.482-1.859,3.214-2.567c0.084-0.06,0.145,0.036,0.108,0.072c-1.044,1.127-2.95,3.082-3.694,3.142
		C65.044,10.11,65.008,10.11,64.948,10.098z M68.954,4.078c0.107,0.12,0.18,0.3,0.132,0.3c-0.024,0-0.12-0.048-0.252,0.012
		c-0.204,0.084-0.756,0.576-0.899,0.779c-0.168,0.216-0.42-0.036-0.432-0.252c-0.012-0.348,0.443-1.127,0.756-1.223
		C68.534,3.658,68.798,3.898,68.954,4.078z"/>
</g>
</svg>
