<?xml version="1.0" encoding="utf-8"?>
<!-- Generator: Adobe Illustrator 22.0.1, SVG Export Plug-In . SVG Version: 6.00 Build 0)  -->
<svg version="1.1" id="Layer_1" xmlns="http://www.w3.org/2000/svg" xmlns:xlink="http://www.w3.org/1999/xlink" x="0px" y="0px"
	 viewBox="0 0 763.23 238.01" enable-background="new 0 0 763.23 238.01" xml:space="preserve">
<path fill="#58595B" d="M90.28,97.17L713.14,0.79c16.05-2.52,34.37,11.75,35.92,28.25l7.37,80.65c1.68,17.83-14.74,33.11-32.21,34.6
	l-69.18,5.93l64.42,71.75l-87.59,1.22L531.82,112.09l127.41-13.1c7.98-0.82,13.8-8.07,13.03-16.22l-1.63-9.76
	c-0.74-7.85-9.48-9.67-15.18-8.98l-130.84,14.9l5.77,53.03c1.75,16.99-13.67,32.55-30.36,33.69l-52.1,3.8l55.16,59.52l-91.79,1.07
	l-92.45-97.18l108.75-9.27c7.89-0.67,13.7-7.84,12.88-15.88l-1.29-9.57c-0.81-7.87-7.76-8.04-15.46-7.11l-97.42,12.03l10.84,85.66
	c2.09,17.36-25.83,29.13-42.95,29.67l-234.53,7.25c-13.38,0.42-32.07-10.62-34.44-29.06l-4.96-35.72l85.11-4.25l2.13,17.63
	c1,7.74,9.03,11.31,15.02,11.02l110.73-6.22c5.52,0.17,13.1-5.9,12.13-13.42l-6.3-52.49l-99.92,11.68L90.28,97.17z"/>
<path d="M99.13,91.89L694.06,0.32c15.33-2.36,29.48,8.65,30.97,24.09l7.04,73.11c1.61,16.67-10.73,31.44-27.43,32.83l-78.01,6.48
	l62.96,69.92l-76.02,1.14l-92.69-102.05l121.7-12.25c7.62-0.77,13.18-7.55,12.45-15.17l-1.55-16.15
	c-0.71-7.35-9.06-10.91-14.5-10.27L505.4,67.81l5.51,52.41c1.67,15.89-10.2,29.98-26.14,31.05l-60.28,4.03l53.16,58.02l-76.21,1
	l-84.49-89.03l104.35-8.67c7.54-0.63,13.09-7.33,12.3-14.85L432.37,90c-0.77-7.36-7.41-12.67-14.76-11.8l-106.9,12.65l10.35,82
	c1.99,16.24-10.82,29.59-27.18,30.09L56.5,210.19c-12.78,0.39-29.2-8.06-31.47-25.31l-3.78-28.73l74.13-3.97l1.56,11.81
	c0.95,7.24,8.63,10.58,14.34,10.31l121.05-5.81c5.27,0.16,12.51-5.52,11.59-12.55l-7.45-56.59l-101.65,12.33L99.13,91.89z"/>
<g>
	<path fill="#FFFFFF" d="M724.93,7.23c14.57,0,27.19,11.07,28.64,26.05l7.51,78.04c1.71,17.8-11.46,33.56-29.28,35.04l-83.28,6.92
		l67.21,74.64l-81.16,1.22l-98.95-108.93l129.92-13.08c8.13-0.82,14.07-8.06,13.29-16.19l-1.66-17.24
		c-0.7-7.24-8.35-11.04-14.09-11.04c-0.48,0-0.94,0.03-1.39,0.08L519.1,79.61l5.88,55.95c1.78,16.96-10.88,32.01-27.9,33.14
		l-64.35,4.3l56.75,61.93l-81.36,1.07l-90.19-95.04l111.4-9.26c8.05-0.67,13.97-7.82,13.13-15.86l-1.32-12.55
		c-0.77-7.29-6.93-12.69-14.08-12.69c-0.56,0-1.12,0.03-1.68,0.1l-114.12,13.51l11.05,87.53c2.13,17.34-11.55,31.59-29.01,32.12
		L39.9,231.6c-0.3,0.01-0.61,0.01-0.91,0.01c-13.5,0-30.31-9.02-32.68-27.03l-4.04-30.67l79.14-4.24l1.66,12.61
		c0.98,7.44,8.6,11.02,14.61,11.02c0.24,0,0.47-0.01,0.7-0.02l129.22-6.21c0.08,0,0.16,0,0.23,0c5.6,0,13.11-6,12.13-13.4
		l-7.95-60.4L123.5,126.43l-38.1-21.12L720.5,7.57C721.99,7.34,723.47,7.23,724.93,7.23 M724.93,5.23v2V5.23L724.93,5.23
		c-1.57,0-3.17,0.12-4.73,0.36L85.1,103.34l-5.78,0.89l5.12,2.84l38.1,21.12l0.57,0.31l0.64-0.08l106.55-12.92l7.69,58.44
		c0.32,2.46-0.54,5.01-2.42,7.16c-2.09,2.38-5.2,3.98-7.73,3.98c-0.06,0-0.12,0-0.17,0l-0.08,0l-0.08,0l-129.22,6.21
		c-0.2,0.01-0.4,0.01-0.61,0.01c-4.41,0-11.74-2.52-12.63-9.28l-1.66-12.61l-0.24-1.84l-1.85,0.1l-79.14,4.24L0,172.03l0.28,2.14
		l4.04,30.67c2.46,18.69,19.7,28.77,34.66,28.77c0.32,0,0.65,0,0.97-0.01l253.42-7.74c9.37-0.29,18.11-4.37,23.98-11.21
		c5.53-6.44,8-14.67,6.96-23.15l-5.96-47.2l88.33,93.08l0.6,0.63l0.87-0.01l81.36-1.07l4.47-0.06l-3.02-3.29l-53.94-58.86
		l60.19-4.02c8.78-0.59,16.73-4.62,22.4-11.35c5.66-6.73,8.28-15.25,7.36-24l-5.67-53.98l140.63-16.64
		c0.37-0.04,0.75-0.07,1.15-0.07c4.52,0,11.49,2.93,12.1,9.23l1.66,17.24c0.68,7.02-4.48,13.31-11.5,14.01l-129.92,13.08l-3.95,0.4
		l2.67,2.94l98.95,108.93l0.61,0.67l0.9-0.01l81.16-1.22l4.4-0.07l-2.95-3.27l-64.51-71.64l79.26-6.59
		c9.16-0.76,17.44-5.06,23.34-12.11c5.89-7.05,8.65-15.97,7.77-25.11l-7.51-78.04c-0.74-7.69-4.31-14.77-10.05-19.94
		C739.83,8.05,732.52,5.23,724.93,5.23L724.93,5.23z M313.5,105.96l112.12-13.27c0.48-0.06,0.97-0.09,1.45-0.09
		c6.24,0,11.43,4.69,12.09,10.9l1.32,12.55c0.35,3.34-0.64,6.61-2.78,9.2c-2.15,2.59-5.17,4.17-8.53,4.45l-111.4,9.26l-0.1,0.01
		L313.5,105.96L313.5,105.96z"/>
</g>
</svg>
