<?xml version="1.0" encoding="utf-8"?>
<!-- Generator: Adobe Illustrator 22.0.1, SVG Export Plug-In . SVG Version: 6.00 Build 0)  -->
<svg version="1.1" id="Layer_1" xmlns="http://www.w3.org/2000/svg" xmlns:xlink="http://www.w3.org/1999/xlink" x="0px" y="0px"
	 viewBox="0 0 85.29 9.08" enable-background="new 0 0 85.29 9.08" xml:space="preserve">
<g>
	<path d="M3.75,0.23h0.9h0.9v6.19c0,0.88-0.23,1.54-0.7,1.98S3.69,9.08,2.77,9.08c-0.97,0-1.69-0.25-2.14-0.74S-0.03,7.09,0,6.06
		V5.55h1.71v0.52C1.7,6.59,1.78,6.98,1.95,7.23s0.44,0.38,0.81,0.38c0.36,0,0.61-0.09,0.76-0.28s0.23-0.48,0.23-0.9V0.23z"/>
	<path d="M7.12,0.23h0.9h0.9v8.61h-0.9h-0.9V0.23z"/>
	<path d="M12.13,8.85H11.3h-0.84V0.23h1.32h1.32l1.57,6.83l1.55-6.83h1.3h1.3v8.61h-0.84h-0.84V1.61h0l-1.61,7.24h-0.88h-0.88
		l-1.61-7.4h0V8.85z"/>
	<path d="M23.75,0.23h0.9h3.45c0.82,0,1.48,0.22,1.98,0.66s0.75,1.02,0.75,1.74c0,0.83-0.28,1.43-0.84,1.82
		c-0.15,0.1-0.32,0.19-0.5,0.26c0.11,0.04,0.2,0.09,0.29,0.14c0.49,0.29,0.75,0.79,0.77,1.48l0.04,1.41
		c0.01,0.28,0.04,0.48,0.09,0.6s0.15,0.21,0.29,0.28v0.23h-1.99c-0.05-0.09-0.09-0.28-0.12-0.58s-0.05-0.61-0.06-0.95l-0.01-0.8
		c-0.01-0.39-0.12-0.66-0.34-0.83c-0.22-0.16-0.59-0.25-1.1-0.25h-1.79v3.4h-0.9h-0.9V0.23z M25.55,4h2.09
		c0.46,0,0.81-0.09,1.05-0.28s0.35-0.48,0.35-0.86c0-0.38-0.11-0.66-0.33-0.85s-0.55-0.28-0.99-0.28h-2.16V4z"/>
	<path d="M32.21,0.23h0.9h0.9v8.61h-0.9h-0.9V0.23z"/>
	<path d="M42.93,5.83c-0.11,1-0.5,1.79-1.17,2.37s-1.52,0.88-2.56,0.88c-1.21,0-2.17-0.4-2.89-1.21s-1.07-1.9-1.07-3.28
		c0-1.41,0.36-2.52,1.07-3.35S37.99,0,39.2,0c1.02,0,1.87,0.28,2.54,0.83s1.07,1.3,1.18,2.25h-1.8c-0.06-0.46-0.26-0.83-0.6-1.11
		s-0.78-0.41-1.31-0.41c-0.67,0-1.19,0.27-1.57,0.8c-0.38,0.53-0.57,1.27-0.57,2.22c0,0.92,0.19,1.64,0.57,2.17
		c0.38,0.52,0.9,0.78,1.58,0.78c0.53,0,0.96-0.15,1.31-0.46s0.54-0.72,0.6-1.24H42.93z"/>
	<path d="M44.17,0.23h0.9h0.9v3.23h3.37V0.23h0.9h0.9v8.61h-0.9h-0.9v-3.9h-3.37v3.9h-0.9h-0.9V0.23z"/>
	<path d="M55.22,0.23h1.04h1.04l3.05,8.61H59.4h-0.95L57.86,7.1h-3.27l-0.56,1.75H53.1h-0.93L55.22,0.23z M55.09,5.61h2.29
		l-1.14-3.46h0L55.09,5.61z"/>
	<path d="M61.45,0.23h0.9h3.45c0.82,0,1.48,0.22,1.98,0.66s0.75,1.02,0.75,1.74c0,0.83-0.28,1.43-0.84,1.82
		c-0.15,0.1-0.32,0.19-0.5,0.26c0.11,0.04,0.2,0.09,0.29,0.14c0.49,0.29,0.75,0.79,0.77,1.48l0.04,1.41
		c0.01,0.28,0.04,0.48,0.09,0.6s0.15,0.21,0.29,0.28v0.23h-1.99c-0.05-0.09-0.09-0.28-0.12-0.58s-0.05-0.61-0.06-0.95l-0.01-0.8
		c-0.01-0.39-0.12-0.66-0.34-0.83s-0.59-0.25-1.1-0.25h-1.79v3.4h-0.9h-0.9V0.23z M63.25,4h2.09c0.46,0,0.81-0.09,1.05-0.28
		s0.35-0.48,0.35-0.86c0-0.38-0.11-0.66-0.33-0.85s-0.55-0.28-0.99-0.28h-2.16V4z"/>
	<path d="M70.06,0.23h0.9h2.79c1.18,0,2.08,0.35,2.7,1.04s0.92,1.71,0.92,3.05c0,1.48-0.32,2.6-0.96,3.37s-1.58,1.15-2.81,1.15
		h-2.64h-0.9V0.23z M71.86,7.37h1.52c0.73,0,1.28-0.25,1.64-0.74s0.55-1.24,0.55-2.22c0-0.89-0.17-1.57-0.51-2.01
		s-0.85-0.67-1.54-0.67h-1.66V7.37z"/>
	<path d="M83.33,2.82c-0.03-0.41-0.21-0.74-0.54-0.98s-0.76-0.36-1.28-0.36c-0.46,0-0.81,0.1-1.07,0.3
		c-0.26,0.2-0.39,0.48-0.39,0.84c0,0.26,0.13,0.46,0.4,0.6c0.27,0.14,0.83,0.31,1.69,0.5C83.4,4,84.24,4.33,84.66,4.69
		c0.42,0.36,0.63,0.95,0.63,1.75c0,0.81-0.32,1.45-0.96,1.92s-1.5,0.71-2.58,0.71c-1.09,0-1.94-0.25-2.55-0.76s-0.94-1.22-0.98-2.15
		h1.73c0.02,0.46,0.19,0.81,0.5,1.05c0.31,0.25,0.75,0.37,1.31,0.37c0.57,0,1.02-0.09,1.34-0.28c0.32-0.19,0.48-0.44,0.48-0.77
		c0-0.32-0.12-0.56-0.35-0.71c-0.23-0.15-0.71-0.31-1.45-0.47c-1.37-0.3-2.28-0.63-2.74-0.99c-0.46-0.35-0.69-0.9-0.69-1.65
		c0-0.84,0.3-1.5,0.91-1.99S80.69,0,81.72,0c0.96,0,1.75,0.25,2.35,0.76s0.94,1.19,1.01,2.06H83.33z"/>
</g>
</svg>
