<?xml version="1.0" encoding="utf-8"?>
<!-- Generator: Adobe Illustrator 22.0.1, SVG Export Plug-In . SVG Version: 6.00 Build 0)  -->
<svg version="1.1" id="Layer_1" xmlns="http://www.w3.org/2000/svg" xmlns:xlink="http://www.w3.org/1999/xlink" x="0px" y="0px"
	 viewBox="0 0 134.1862 49.606" enable-background="new 0 0 134.1862 49.606" xml:space="preserve">
<path fill="#E60D2E" d="M84.8999,30.5901L84.8999,30.5901l-1.5749,7.4434h16.5396c2.2597,0,6.9859-4.8644,7.3216-7.3607
	l0.0082-0.0827H84.8999z M69.8496,24.8028c1.7638-6.8343,5.7067-12.6762,11.8256-17.5271C87.7941,2.4253,94.2712,0,101.1081,0
	h33.0781l-3.0365,11.5741H98.0719c-2.26,0-5.9105,3.3517-7.6719,7.3585l38.8241,0.0833l-1.4884,5.7869
	c-1.7646,6.8352-5.7059,12.6774-11.8256,17.5275c-6.1189,4.8509-12.5972,7.2757-19.4329,7.2757H63.4L69.8496,24.8028z"/>
<path fill="#E60D2E" d="M49.2863,19.0159L49.2863,19.0159l1.5749-7.4434H34.3216c-2.2597,0-6.9859,4.8644-7.3216,7.3607
	l-0.0082,0.0827H49.2863z M64.3366,24.8032c-1.7638,6.8343-5.7067,12.6762-11.8256,17.5271
	c-6.1189,4.8504-12.596,7.2757-19.4329,7.2757H0l3.0365-11.5741h33.0778c2.26,0,5.9105-3.3517,7.6719-7.3585L4.9621,30.5901
	l1.4884-5.7869c1.7646-6.8352,5.7059-12.6774,11.8256-17.5275C24.395,2.4248,30.8733,0,37.709,0l33.0772,0L64.3366,24.8032z"/>
</svg>
