<svg xmlns="http://www.w3.org/2000/svg" viewBox="0 0 90.019 16.611"><path d="M1.67 16.04c-.342-.049-.845-.132-1.509-.249-.029-.508-.056-1.022-.081-1.546-.024-.521-.051-1.042-.08-1.559.703.117 1.284.174 1.743.169s.757-.404.894-1.195c-.049-1.767-.078-3.54-.088-5.317-.059-.967-.132-1.939-.22-2.915S2.217 1.479 2.256.513c.615.098 1.235.203 1.86.314.625.113 1.25.223 1.875.33-.039 1.983-.08 3.963-.124 5.94-.044 1.979-.081 3.953-.11 5.926-.117.771-.298 1.387-.542 1.846s-.752.835-1.523 1.128c-.342 0-.681.005-1.018.015s-.672.018-1.004.028zm-.249-1.582c.85-.117 1.46-.225 1.831-.322s.728-.557 1.069-1.377c-.01-1.846-.017-3.691-.022-5.537s-.007-3.692-.007-5.537c-.059 0-.117-.005-.176-.015s-.117-.02-.176-.029c-.029 1.084-.014 2.702.044 4.856.059 2.152.088 4.152.088 5.998-.156.791-.483 1.252-.981 1.385-.498.131-1.084.212-1.758.241.01.117.039.23.088.337zm8.327.615c-.527-.264-1.094-.547-1.699-.85s-1.055-.732-1.348-1.289c-.039-1.777-.078-3.552-.117-5.324-.039-1.773-.151-3.543-.337-5.31h2.812c.079 1.533.106 3.074.081 4.621-.024 1.549-.041 3.089-.051 4.622.322.068.647.137.974.205s.667.088 1.018.059c.205-1.514.281-3.083.227-4.71-.054-1.625-.095-3.21-.125-4.753.459 0 .918-.005 1.377-.015s.923-.02 1.392-.029c-.078 2.061-.149 4.123-.212 6.189-.063 2.064-.095 4.128-.095 6.188-.41.068-.818.137-1.223.205s-.808.132-1.208.19c-.01-.166-.015-.415-.015-.747-.527.313-.852.501-.974.563-.123.066-.282.127-.477.185zm0-1.45c.459-.039.886-.21 1.282-.513s.784-.581 1.165-.835c.029.02.083.039.161.059.01.273.029.703.059 1.289h.249c-.02-1.758-.037-3.516-.051-5.273s-.027-3.521-.037-5.288h-.25c0 1.465.002 2.922.007 4.373.005 1.449.012 2.907.022 4.372-.283.264-.632.581-1.047.952s-.818.557-1.208.557c-.342-.098-.703-.242-1.084-.432-.381-.191-.669-.438-.864-.74-.03-1.514-.052-3.026-.067-4.534-.015-1.51-.032-3.025-.051-4.549H7.697c.049 2.129.088 3.771.117 4.93.029 1.156.051 2.028.066 2.614s.029.981.044 1.187.037.415.066.63c.42.371 1.006.771 1.758 1.201zm9.47 1.362c-.283-.576-.562-1.15-.835-1.721-.273-.572-.542-1.146-.806-1.722h-.279c-.41.42-.486.931-.227 1.53.259.602.291 1.136.095 1.604-.625.029-1.111.057-1.458.081s-.715.046-1.106.065V9.653c.01-1.211.02-2.424.029-3.641.01-1.215.02-2.434.029-3.654.596 0 1.194-.002 1.794-.008.601-.004 1.208-.007 1.824-.007 1.553.732 2.483 1.814 2.791 3.245s-.154 2.717-1.384 3.859c.146.84.366 1.665.659 2.476s.576 1.611.85 2.402c-.332.117-.664.229-.996.337s-.657.216-.98.323zm.498-1.113h.176c-.205-.586-.491-1.32-.857-2.205-.366-.883-.505-1.633-.417-2.248 1.514-1.523 1.753-3.218.718-5.083-.645-.605-1.204-.974-1.677-1.106-.474-.131-1.145-.183-2.014-.153v10.708H15.982c-.029-1.523-.044-2.424-.044-2.703 0-.277.024-.48.073-.607.352-.088.72-.21 1.106-.366s.754-.234 1.106-.234c.244.674.491 1.341.74 1.999.248.658.499 1.324.753 1.998zm-3.735-3.735V6.695 3.253c1.836-.156 3.066.723 3.691 2.637 0 1.191-.3 2.178-.901 2.959s-1.53 1.21-2.79 1.288zm1.011-1.45c.098-.02.176-.034.234-.044.752-.703 1.157-1.436 1.216-2.197s-.449-1.401-1.523-1.919c0 .693.007 1.387.022 2.08s.031 1.386.051 2.08zm8.898 6.298c-.283-.576-.562-1.15-.835-1.721-.273-.572-.542-1.146-.806-1.722h-.279c-.41.42-.486.931-.227 1.53.259.602.291 1.136.095 1.604-.625.029-1.111.057-1.458.081s-.715.046-1.106.065V9.653c.01-1.211.02-2.424.029-3.641.01-1.215.02-2.434.029-3.654.596 0 1.194-.002 1.794-.008.601-.004 1.208-.007 1.824-.007 1.553.732 2.483 1.814 2.791 3.245s-.154 2.717-1.384 3.859c.146.84.366 1.665.659 2.476s.576 1.611.85 2.402c-.332.117-.664.229-.996.337s-.658.216-.98.323zm.498-1.113h.176c-.205-.586-.491-1.32-.857-2.205-.366-.883-.505-1.633-.417-2.248 1.514-1.523 1.753-3.218.718-5.083-.645-.605-1.204-.974-1.677-1.106-.474-.131-1.145-.183-2.014-.153v10.708H22.654c-.029-1.523-.044-2.424-.044-2.703 0-.277.024-.48.073-.607.352-.088.72-.21 1.106-.366s.754-.234 1.106-.234c.244.674.491 1.341.74 1.999.248.658.499 1.324.753 1.998zm-3.735-3.735V6.695 3.253c1.836-.156 3.066.723 3.691 2.637 0 1.191-.3 2.178-.901 2.959s-1.53 1.21-2.79 1.288zm1.011-1.45c.098-.02.176-.034.234-.044.752-.703 1.157-1.436 1.216-2.197s-.449-1.401-1.523-1.919c0 .693.007 1.387.022 2.08s.031 1.386.051 2.08zm12.414 5.932c-.322.02-.693.036-1.113.052-.42.014-.996.026-1.729.036-.078-.996-.129-1.611-.154-1.846s-.066-.552-.125-.952c-.391-.01-.779-.02-1.165-.029s-.769-.024-1.15-.044c-.195 1.299-.313 2.063-.352 2.292-.039.23-.088.379-.146.447-.41.01-.818.021-1.223.037-.405.014-.803.021-1.194.021.146-.928.476-2.725.989-5.391s.92-4.946 1.223-6.841H33.674c.352 2.51.781 4.937 1.289 7.28.146.879.317 1.758.513 2.637s.397 1.647.602 2.301zm-1.684-.747h.25c-.303-1.738-.623-3.477-.959-5.215s-.681-3.477-1.033-5.215c-.088-.02-.208-.026-.359-.021s-.627.031-1.428.08c-.361 1.699-.72 3.401-1.077 5.105s-.71 3.405-1.062 5.104H29.063c.088-.518.181-1.032.278-1.546.098-.512.195-1.027.293-1.545h4.263c.078.547.159 1.092.242 1.633.081.544.167 1.083.255 1.62zm-4.248-3.501c-.088-.01-.166-.024-.234-.044s-.132-.034-.19-.044c.303-1.67.513-2.78.63-3.333.117-.551.381-1.662.791-3.332.205.01.413.02.623.029s.427.015.652.015c.322 1.074.581 2.161.776 3.259.195 1.1.381 2.2.557 3.304-.264.059-.544.093-.842.103s-1.221.024-2.763.043zm.908-.835c.264 0 .53-.005.798-.015s.544-.02.828-.029c-.107-.693-.227-1.384-.359-2.073-.132-.688-.295-1.374-.491-2.058-.166.615-.364 1.313-.593 2.095s-.291 1.475-.183 2.08zm6.569 5.654c-.391-.283-.776-.564-1.157-.842-.381-.279-.757-.56-1.128-.843.02-.078.039-.146.059-.205.781-.576 1.355-1.042 1.721-1.399.366-.355.549-1.042.549-2.058-.313-.527-.613-1.062-.901-1.604-.288-.541-.579-1.086-.872-1.633-.059-1.104.132-1.963.571-2.578s1.025-1.333 1.758-2.153c.381 0 .886.239 1.516.718s.999.903 1.106 1.274c-.576.303-1.045.659-1.406 1.069s-.542.962-.542 1.655c.059.137.12.271.183.403.063.131.125.271.183.417.674 1.035 1.101 1.841 1.282 2.417s-.007 1.45-.564 2.622c-.293.41-.645.921-1.055 1.53-.409.613-.844 1.015-1.303 1.21zm-.264-1.596c.088-.01.19-.024.308-.044.449-.693.837-1.335 1.165-1.926s.408-1.326.242-2.205c-.703-1.211-1.172-2.207-1.406-2.988s.146-1.743 1.143-2.886c-.049-.215-.107-.337-.176-.366-.547.469-.906.981-1.077 1.538s-.256 1.157-.256 1.802c.215.557.476 1.111.784 1.662.308.553.549 1.033.725 1.443 0 1.504-.493 2.729-1.479 3.677-.002.058.008.156.027.293zm3.684-11.192c.43.01.864.02 1.304.029s.879.015 1.318.015c.029.146.02.892-.029 2.234s-.073 3.195-.073 5.559c.029.732.061 1.468.095 2.205s.076 1.472.125 2.204c-.469 0-.938.005-1.406.015s-.938.015-1.406.015c.068-1.777.125-3.552.168-5.325.044-1.771.022-3.552-.066-5.339-.01-.176-.017-.451-.022-.827s-.008-.638-.008-.785zm1.172 11.324h.351V8.57 3.399c-.059.01-.112.022-.161.036-.049.016-.093.022-.132.022-.01 1.719-.022 3.433-.037 5.142s-.021 3.418-.021 5.127zm5.266 1.377c-1.709-.967-2.751-2.339-3.127-4.116s-.315-3.54.183-5.288c.244-.537.669-1.274 1.274-2.212s1.26-1.406 1.963-1.406c.254.264.605.584 1.055.96s.704.739.762 1.091c-2.032.908-3.033 2.451-3.003 4.629s1.128 3.638 3.296 4.38v.249c-.381.322-.757.657-1.128 1.003-.372.346-.797.583-1.275.71zm.483-1.582c-3.32-3.32-3.354-6.611-.103-9.873v-.125-.124h-.249c-.225.234-.571.615-1.04 1.143-1.143 1.699-1.594 3.281-1.355 4.746s1.023 2.935 2.351 4.409c.235-.03.367-.089.396-.176zm20.397 2.504c-.596.088-1.191.183-1.787.286-.596.102-1.187.202-1.772.3-.068-.098-.205-.688-.41-1.772-.107-.547-.239-1.218-.396-2.014s-.342-1.717-.557-2.762c-.244.771-.439 1.438-.586 2s-.317 1.14-.513 1.735c-.654-.01-1.149-.015-1.487-.015-.336 0-.827.01-1.472.029-.195-.596-.366-1.172-.513-1.729s-.332-1.221-.557-1.992c-.234 1.045-.43 1.963-.586 2.754s-.288 1.455-.396 1.992c-.215 1.094-.347 1.685-.396 1.772-.586-.098-1.167-.195-1.743-.293s-1.152-.195-1.729-.293c.029-.146.091-.439.183-.879.094-.439.159-.762.198-.967.234-.928.462-1.987.681-3.179.221-1.191.438-2.407.652-3.647.215-1.299.415-2.563.601-3.794s.342-2.275.469-3.135c.615.029 1.147-.015 1.597-.132s.981-.2 1.597-.249c.088.459.173.879.257 1.26.082.381.168.767.256 1.157s.176.804.264 1.237c.088.436.2.926.337 1.473.039.195.088.384.146.564s.117.358.176.534c.049-.176.1-.354.153-.534s.11-.369.169-.564c.117-.557.228-1.052.329-1.486.104-.435.198-.853.286-1.253.078-.391.158-.778.241-1.165.085-.382.176-.805.273-1.264.615.117 1.15.212 1.604.286.455.072.999.075 1.634.007.117.859.269 1.907.454 3.142.186 1.236.391 2.513.615 3.831.205 1.25.42 2.476.645 3.677s.454 2.271.688 3.208h.015c.039.205.104.53.197.974.093.444.154.744.183.9zM64.025 2.578h-.571c-.264.84-.505 1.689-.726 2.549-.219.859-.432 1.616-.637 2.271-.205.645-.405 1.287-.601 1.926-.195.641-.405 1.321-.63 2.044-.225-.723-.435-1.401-.63-2.036s-.391-1.274-.586-1.919c-.205-.645-.415-1.416-.63-2.314s-.449-1.763-.703-2.593h-.571c-.205 1.016-.417 2.166-.638 3.449-.219 1.285-.432 2.454-.637 3.509-.205 1.025-.42 2.017-.645 2.974s-.386 1.855-.483 2.695c-.01.01.117.054.381.132.186-.898.371-1.782.557-2.651s.371-1.748.557-2.637c.195-.908.393-1.943.593-3.105s.418-2.275.652-3.34c.234.742.454 1.531.659 2.365.205.836.41 1.561.615 2.176.195.615.393 1.233.593 1.854s.413 1.281.638 1.984c.039 0 .081-.002.124-.008.045-.004.096-.012.154-.021.273.039.361.049.264.029.234-.703.451-1.367.652-1.992.199-.625.402-1.245.607-1.86s.412-1.323.623-2.124c.209-.801.437-1.577.681-2.329.215 1.074.425 2.171.63 3.288.205 1.119.405 2.132.601 3.04.352 1.67.728 3.442 1.128 5.317l.396-.132c-.176-.84-.358-1.745-.55-2.718-.189-.971-.388-1.97-.593-2.995-.215-1.064-.43-2.217-.645-3.457s-.424-2.365-.629-3.371zm12.312 12.041c-.322.02-.693.036-1.113.052-.42.014-.996.026-1.729.036-.078-.996-.13-1.611-.154-1.846s-.065-.552-.124-.952c-.391-.01-.779-.02-1.165-.029s-.769-.024-1.149-.044c-.195 1.299-.313 2.063-.352 2.292-.039.23-.088.379-.146.447-.41.01-.818.021-1.224.037-.405.014-.803.021-1.193.021.146-.928.477-2.725.988-5.391.514-2.666.921-4.946 1.224-6.841H73.935c.352 2.51.781 4.937 1.289 7.28.146.879.317 1.758.513 2.637s.395 1.647.6 2.301zm-1.685-.747h.249c-.303-1.738-.623-3.477-.959-5.215-.338-1.738-.682-3.477-1.033-5.215-.088-.02-.208-.026-.359-.021s-.627.031-1.428.08c-.361 1.699-.721 3.401-1.076 5.105-.357 1.704-.711 3.405-1.063 5.104H69.32c.088-.518.181-1.032.278-1.546.098-.512.195-1.027.293-1.545h4.263c.078.547.158 1.092.241 1.633.084.544.169 1.083.257 1.62zm-4.248-3.501c-.088-.01-.166-.024-.234-.044s-.132-.034-.19-.044c.303-1.67.513-2.78.63-3.333.117-.551.381-1.662.791-3.332.205.01.412.02.622.029s.428.015.652.015c.322 1.074.581 2.161.776 3.259.195 1.1.381 2.2.557 3.304-.264.059-.545.093-.843.103s-1.218.024-2.761.043zm.909-.835c.264 0 .529-.005.798-.015s.545-.02.828-.029c-.107-.693-.227-1.384-.359-2.073-.131-.688-.295-1.374-.49-2.058-.166.615-.364 1.313-.594 2.095s-.291 1.475-.183 2.08zm9.264 5.449c-.283-.576-.562-1.15-.835-1.721-.273-.572-.542-1.146-.806-1.722h-.278c-.41.42-.486.931-.228 1.53.259.602.291 1.136.096 1.604-.625.029-1.111.057-1.457.081-.348.024-.716.046-1.106.065V9.653c.01-1.211.02-2.424.029-3.641.01-1.215.02-2.434.029-3.654.596 0 1.194-.002 1.794-.008.602-.004 1.209-.007 1.824-.007 1.553.732 2.482 1.814 2.791 3.245.307 1.431-.154 2.717-1.385 3.859.146.84.366 1.665.659 2.476s.576 1.611.85 2.402c-.332.117-.664.229-.996.337s-.659.216-.981.323zm.498-1.113h.176c-.205-.586-.49-1.32-.857-2.205-.365-.883-.505-1.633-.417-2.248 1.514-1.523 1.753-3.218.718-5.083-.645-.606-1.205-.974-1.678-1.107-.474-.131-1.145-.183-2.014-.153v10.708H77.34c-.029-1.523-.044-2.424-.044-2.703 0-.277.024-.48.073-.607.352-.088.72-.21 1.106-.366.385-.156.754-.234 1.105-.234.244.674.49 1.341.74 1.999.249.659.501 1.325.755 1.999zm-3.735-3.735V6.695 3.253c1.836-.156 3.066.723 3.691 2.637 0 1.191-.3 2.178-.901 2.959-.6.78-1.53 1.21-2.79 1.288zm1.011-1.45c.098-.02.176-.034.234-.044.752-.703 1.157-1.436 1.216-2.197s-.449-1.401-1.523-1.919c0 .693.007 1.387.022 2.08.013.693.031 1.386.051 2.08zm9.353 6.093c-.342-.742-.677-1.486-1.003-2.234-.328-.746-.652-1.491-.975-2.233h-.235c-.205.293-.267.996-.184 2.109s.125 1.87.125 2.271c-.439-.01-.879-.021-1.318-.037-.439-.014-.869-.026-1.289-.036 0-2.051-.005-4.099-.015-6.146-.01-2.045-.063-4.089-.161-6.13.43.02.866.039 1.311.059s.892.034 1.341.044c0 1.445.002 2.332.007 2.658.005.328.032.74.081 1.238.313-.645.598-1.301.856-1.971.259-.668.511-1.34.755-2.014.166.039.352.105.557.197.205.094.835.394 1.89.901.127.82-.262 1.621-1.164 2.402-.904.781-1.253 1.587-1.048 2.417.674 1.309 1.125 2.173 1.354 2.593s.706 1.235 1.429 2.446c-.059.322-.379.625-.96.908s-1.032.47-1.354.558zm-3.794-1.259h.352c0-.557.005-1.113.015-1.67s.024-1.113.044-1.67c.166-.225.412-.596.74-1.113.326-.518.622-.806.886-.864.41.879.82 1.753 1.23 2.622s.83 1.743 1.26 2.622c.049-.01.142-.015.278-.015-.615-1.309-1.033-2.188-1.252-2.637-.221-.449-.687-1.367-1.399-2.754.088-.762.43-1.477 1.025-2.146.596-.668.894-1.398.894-2.189h-.22c-.498 1.035-.942 1.987-1.333 2.856-.186.293-.527.884-1.025 1.772s-.88 1.377-1.143 1.465c-.039-1.104-.071-2.209-.096-3.318-.024-1.107-.051-2.219-.08-3.332h-.249c0 1.729.007 3.457.022 5.186.014 1.727.032 3.456.051 5.185z"/></svg>