<svg xmlns="http://www.w3.org/2000/svg" viewBox="0 0 91.809 17.719"><path d="M1.781 17.109c-.365-.052-.901-.141-1.609-.266-.031-.542-.06-1.091-.086-1.648C.06 14.638.031 14.083 0 13.531c.75.125 1.37.185 1.859.18.489-.005.807-.43.953-1.273-.052-1.886-.083-3.776-.093-5.672-.063-1.032-.141-2.068-.235-3.11-.094-1.042-.12-2.078-.078-3.109.656.104 1.317.216 1.984.336.667.12 1.333.237 2 .352-.041 2.114-.085 4.226-.132 6.335s-.086 4.216-.117 6.32c-.125.823-.318 1.479-.578 1.969-.261.49-.802.891-1.625 1.203-.365 0-.727.005-1.086.016-.36.01-.717.021-1.071.031zm-.265-1.687c.906-.125 1.557-.239 1.953-.344.396-.104.776-.594 1.141-1.469-.011-1.969-.019-3.938-.023-5.906-.006-1.969-.009-3.937-.009-5.906-.063 0-.125-.005-.188-.016-.062-.01-.124-.02-.187-.031-.031 1.156-.015 2.883.047 5.18s.094 4.43.094 6.398c-.167.844-.516 1.336-1.047 1.477s-1.156.227-1.875.258c.01.125.041.245.094.359zm8.882.656c-.563-.281-1.167-.583-1.813-.906-.646-.323-1.125-.781-1.438-1.375-.042-1.896-.083-3.789-.125-5.68s-.16-3.778-.358-5.664h3c.083 1.636.112 3.279.086 4.93-.026 1.651-.044 3.294-.055 4.93.344.073.69.146 1.039.219.349.073.711.094 1.086.063.219-1.614.299-3.289.242-5.023-.058-1.734-.102-3.424-.133-5.07.489 0 .979-.005 1.469-.016.489-.01.984-.021 1.484-.031-.083 2.198-.159 4.398-.227 6.602-.068 2.203-.102 4.404-.102 6.602-.438.073-.873.146-1.305.219-.433.073-.862.141-1.289.203-.011-.177-.016-.442-.016-.797-.563.333-.909.534-1.039.602-.129.065-.298.13-.506.192zm0-1.547c.489-.042.945-.224 1.367-.547.422-.323.836-.62 1.242-.891.031.021.088.042.172.063.01.292.031.75.063 1.375h.266c-.021-1.875-.039-3.75-.055-5.625s-.029-3.755-.039-5.641h-.266c0 1.563.002 3.117.008 4.664.005 1.547.013 3.102.023 4.664-.302.281-.675.62-1.117 1.016-.443.396-.873.594-1.289.594-.365-.104-.75-.258-1.156-.461s-.714-.466-.922-.789c-.031-1.614-.055-3.227-.07-4.836S8.59 4.891 8.57 3.266h-.36c.052 2.271.094 4.023.125 5.258s.055 2.164.07 2.789.031 1.047.047 1.266.039.443.07.672c.449.395 1.074.822 1.876 1.28zM20.5 15.984c-.302-.614-.599-1.227-.891-1.836-.292-.609-.578-1.221-.859-1.836H18.453c-.438.448-.519.992-.242 1.633.276.641.31 1.211.102 1.711-.667.031-1.185.06-1.555.086-.37.026-.763.05-1.18.07v-5.516c.011-1.292.021-2.586.031-3.883.01-1.297.021-2.596.031-3.898.635 0 1.273-.002 1.914-.008.641-.004 1.289-.007 1.946-.007 1.656.781 2.648 1.935 2.977 3.461.328 1.526-.164 2.898-1.477 4.117.156.896.391 1.776.703 2.641.313.865.614 1.719.906 2.563-.354.125-.708.245-1.063.359-.354.114-.703.229-1.046.343zm.531-1.187h.188c-.219-.625-.523-1.409-.914-2.352-.391-.942-.539-1.742-.445-2.398 1.614-1.625 1.87-3.432.766-5.422-.688-.646-1.284-1.039-1.789-1.18-.505-.141-1.222-.195-2.148-.164v11.422h.36C17.015 13.078 17 12.117 17 11.82s.026-.513.078-.648c.375-.094.768-.224 1.18-.391.411-.167.805-.25 1.18-.25.26.719.523 1.43.789 2.133s.533 1.414.804 2.133zm-3.985-3.984V7.141 3.469c1.958-.167 3.271.771 3.938 2.813 0 1.271-.32 2.323-.961 3.156-.641.833-1.633 1.291-2.977 1.375zm1.079-1.547c.104-.021.188-.036.25-.047.802-.75 1.234-1.531 1.297-2.344s-.479-1.495-1.625-2.047c0 .74.008 1.479.023 2.219.015.74.034 1.479.055 2.219zm13.241 6.328c-.344.021-.74.039-1.188.055-.448.016-1.063.029-1.844.039-.083-1.063-.138-1.719-.164-1.969-.026-.25-.07-.588-.133-1.016-.417-.01-.831-.021-1.242-.031-.412-.01-.82-.026-1.227-.047-.208 1.386-.333 2.201-.375 2.445-.042.245-.094.404-.156.477-.438.011-.873.023-1.305.039-.433.016-.857.023-1.273.023.156-.989.508-2.906 1.055-5.75s.981-5.276 1.305-7.297h3.984c.375 2.677.833 5.266 1.375 7.766.156.938.338 1.875.547 2.813.209.937.422 1.755.641 2.453zm-1.797-.797h.266c-.323-1.854-.664-3.708-1.023-5.563-.359-1.854-.727-3.708-1.102-5.563-.094-.021-.222-.028-.383-.023-.162.005-.669.034-1.523.086-.386 1.813-.769 3.628-1.148 5.445-.38 1.818-.758 3.633-1.133 5.445h.36c.094-.552.192-1.102.297-1.648.104-.547.208-1.096.313-1.648H29.04c.083.583.169 1.164.258 1.742.086.578.178 1.154.271 1.727zm-4.531-3.734c-.094-.01-.177-.026-.25-.047-.073-.021-.141-.036-.203-.047.323-1.781.547-2.966.672-3.555.125-.588.406-1.773.844-3.555.219.011.44.021.664.031.224.011.456.016.695.016.344 1.146.62 2.305.828 3.477.208 1.172.406 2.347.594 3.523-.281.063-.581.099-.898.109-.318.011-1.3.027-2.946.048zm.969-.891c.281 0 .565-.005.852-.016.286-.01.581-.021.883-.031-.115-.739-.242-1.477-.383-2.211s-.315-1.466-.523-2.195c-.177.656-.388 1.401-.633 2.234-.246.834-.311 1.573-.196 2.219zm7.007 6.031c-.417-.302-.828-.602-1.234-.898s-.807-.596-1.203-.898c.021-.083.042-.156.063-.219.833-.614 1.445-1.112 1.836-1.492.391-.38.586-1.112.586-2.195-.333-.563-.654-1.133-.961-1.711-.308-.578-.617-1.159-.93-1.742-.063-1.177.141-2.094.609-2.75S32.874 2.875 33.655 2c.406 0 .945.255 1.617.766s1.065.964 1.18 1.359c-.615.323-1.115.703-1.5 1.141-.386.438-.578 1.026-.578 1.766.063.146.127.289.195.43.067.141.133.289.195.445.719 1.104 1.174 1.964 1.367 2.578.192.615-.008 1.547-.602 2.797-.313.438-.688.982-1.125 1.633-.437.65-.901 1.08-1.39 1.288zm-.281-1.703c.094-.01.203-.026.328-.047.479-.739.893-1.424 1.242-2.055.349-.63.435-1.414.258-2.352-.75-1.292-1.25-2.354-1.5-3.188-.25-.832.156-1.858 1.219-3.077-.052-.229-.115-.359-.188-.391-.583.5-.966 1.047-1.148 1.641-.183.594-.273 1.234-.273 1.922.229.594.508 1.185.836 1.773.328.589.586 1.102.773 1.539 0 1.604-.526 2.912-1.578 3.922 0 .063.01.167.031.313zm5.773 1.703c-.417-.302-.828-.602-1.234-.898s-.807-.596-1.203-.898c.021-.083.042-.156.063-.219.833-.614 1.445-1.112 1.836-1.492.391-.38.586-1.112.586-2.195-.333-.563-.654-1.133-.961-1.711-.308-.578-.617-1.159-.93-1.742-.063-1.177.141-2.094.609-2.75S38.366 2.875 39.147 2c.406 0 .945.255 1.617.766s1.065.964 1.18 1.359c-.615.323-1.115.703-1.5 1.141-.386.438-.578 1.026-.578 1.766.063.146.127.289.195.43.067.141.133.289.195.445.719 1.104 1.174 1.964 1.367 2.578.192.615-.008 1.547-.602 2.797-.313.438-.688.982-1.125 1.633-.437.65-.9 1.08-1.39 1.288zm-.281-1.703c.094-.01.203-.026.328-.047.479-.739.893-1.424 1.242-2.055.349-.63.435-1.414.258-2.352-.75-1.292-1.25-2.354-1.5-3.188-.25-.832.156-1.858 1.219-3.077-.052-.229-.115-.359-.188-.391-.583.5-.966 1.047-1.148 1.641-.183.594-.273 1.234-.273 1.922.229.594.508 1.185.836 1.773.328.589.586 1.102.773 1.539 0 1.604-.526 2.912-1.578 3.922 0 .063.01.167.031.313zm3.929-11.937c.458.011.922.021 1.391.031.469.011.938.016 1.406.016.031.156.021.951-.031 2.383-.052 1.433-.078 3.409-.078 5.93.031.781.065 1.565.102 2.352.036.787.081 1.57.133 2.352-.5 0-1 .005-1.5.016s-1 .016-1.5.016c.073-1.896.133-3.789.18-5.68s.023-3.789-.07-5.695c-.011-.188-.019-.481-.023-.883-.007-.403-.01-.682-.01-.838zm1.25 12.078h.375v-5.5-5.516c-.063.011-.12.023-.172.039-.052.016-.099.023-.141.023-.011 1.833-.023 3.662-.039 5.484-.015 1.824-.023 3.647-.023 5.47zm5.617 1.468c-1.823-1.031-2.935-2.495-3.336-4.391-.401-1.896-.336-3.776.195-5.641.26-.573.713-1.359 1.359-2.359s1.344-1.5 2.094-1.5c.271.281.646.623 1.125 1.023.479.401.75.789.813 1.164-2.167.969-3.234 2.615-3.203 4.938.031 2.323 1.203 3.88 3.516 4.672v.266c-.406.344-.808.701-1.203 1.07-.396.371-.849.623-1.36.758zm.516-1.687c-3.542-3.542-3.578-7.052-.109-10.531v-.133-.133h-.265c-.239.25-.609.656-1.109 1.219-1.219 1.813-1.701 3.5-1.445 5.063.255 1.563 1.091 3.13 2.508 4.703.248-.032.389-.094.42-.188zm19.171 2.672c-.636.094-1.271.195-1.906.305-.636.109-1.266.216-1.891.32-.073-.104-.219-.734-.438-1.891-.115-.583-.256-1.299-.422-2.148-.167-.849-.365-1.831-.594-2.945-.261.823-.469 1.534-.625 2.133-.156.599-.339 1.216-.547 1.852-.698-.01-1.227-.016-1.586-.016s-.883.011-1.57.031c-.209-.635-.391-1.25-.547-1.844s-.354-1.302-.594-2.125c-.25 1.115-.459 2.094-.625 2.938-.167.844-.308 1.552-.422 2.125-.229 1.167-.37 1.797-.422 1.891-.625-.104-1.245-.208-1.859-.313-.615-.104-1.229-.208-1.844-.313.031-.156.097-.469.195-.938.1-.469.17-.813.211-1.031.25-.989.492-2.12.727-3.391.234-1.271.466-2.567.695-3.891.229-1.385.442-2.734.641-4.047.197-1.313.364-2.427.5-3.344.656.031 1.224-.016 1.703-.141.479-.125 1.047-.213 1.703-.266.094.49.185.938.273 1.344.088.406.18.818.273 1.234.094.417.188.857.281 1.32.094.464.213.987.359 1.57.041.208.094.409.156.602.063.193.125.383.188.57.052-.188.106-.377.164-.57.057-.192.117-.393.18-.602.125-.594.242-1.122.352-1.586.109-.463.211-.909.305-1.336.083-.417.169-.831.258-1.242.089-.409.186-.859.291-1.349.656.125 1.227.227 1.711.305s1.064.081 1.742.008c.125.917.286 2.034.484 3.352.197 1.318.416 2.68.656 4.086.219 1.333.447 2.641.688 3.922.239 1.281.484 2.422.734 3.422h.016c.041.219.111.565.211 1.039.098.473.164.793.195.96zM64.083 2.75h-.61c-.281.896-.539 1.802-.773 2.719-.234.917-.461 1.724-.68 2.422-.219.688-.433 1.373-.641 2.055-.209.683-.433 1.409-.672 2.18-.24-.771-.464-1.495-.672-2.172-.209-.677-.417-1.359-.625-2.047-.219-.688-.443-1.51-.672-2.469-.229-.958-.479-1.88-.75-2.766h-.61c-.219 1.083-.445 2.31-.68 3.68-.234 1.37-.461 2.617-.68 3.742-.219 1.094-.448 2.151-.688 3.172-.24 1.021-.412 1.979-.516 2.875-.011.011.125.058.406.141.197-.958.396-1.901.594-2.828.197-.927.396-1.864.594-2.813.208-.969.419-2.073.633-3.313.213-1.239.445-2.427.695-3.563.25.792.484 1.633.703 2.523s.438 1.664.656 2.32c.208.656.419 1.315.633 1.977.213.662.439 1.367.68 2.117.041 0 .086-.002.133-.008.047-.005.102-.013.164-.023.291.042.385.052.281.031.25-.75.481-1.458.695-2.125.213-.667.43-1.328.648-1.984s.439-1.411.664-2.266c.224-.854.466-1.682.727-2.484.229 1.146.453 2.315.672 3.508.219 1.193.432 2.273.641 3.242.375 1.781.775 3.672 1.203 5.672l.422-.141c-.188-.896-.383-1.862-.586-2.898-.203-1.036-.414-2.102-.633-3.195-.229-1.135-.459-2.364-.688-3.688-.226-1.322-.449-2.52-.668-3.593zm13.133 12.844c-.344.021-.74.039-1.188.055-.448.016-1.063.029-1.844.039-.084-1.063-.139-1.719-.164-1.969-.026-.25-.07-.588-.133-1.016-.417-.01-.831-.021-1.242-.031-.412-.01-.82-.026-1.227-.047-.209 1.386-.334 2.201-.375 2.445-.042.245-.094.404-.156.477-.438.011-.873.023-1.305.039-.433.016-.857.023-1.273.023.156-.989.508-2.906 1.055-5.75s.981-5.276 1.305-7.297h3.984c.375 2.677.833 5.266 1.375 7.766.156.938.338 1.875.547 2.813.208.937.422 1.755.641 2.453zm-1.797-.797h.266c-.323-1.854-.664-3.708-1.023-5.563-.359-1.854-.727-3.708-1.102-5.563-.094-.021-.222-.028-.383-.023-.162.005-.67.034-1.523.086-.386 1.813-.769 3.628-1.148 5.445-.381 1.818-.758 3.633-1.133 5.445h.36c.094-.552.192-1.102.297-1.648.104-.547.208-1.096.313-1.648H74.89c.083.583.169 1.164.258 1.742.085.578.177 1.154.271 1.727zm-4.531-3.734c-.094-.01-.178-.026-.25-.047-.073-.021-.141-.036-.203-.047.322-1.781.547-2.966.672-3.555.125-.588.406-1.773.844-3.555.219.011.439.021.664.031.224.011.455.016.695.016.344 1.146.619 2.305.828 3.477.208 1.172.406 2.347.594 3.523-.281.063-.581.099-.898.109-.319.011-1.301.027-2.946.048zm.968-.891c.281 0 .564-.005.852-.016.286-.01.58-.021.883-.031-.115-.739-.242-1.477-.383-2.211s-.315-1.466-.523-2.195c-.178.656-.389 1.401-.633 2.234-.245.834-.311 1.573-.196 2.219zm9.882 5.812c-.303-.614-.6-1.227-.891-1.836-.292-.609-.578-1.221-.859-1.836H79.691c-.438.448-.519.992-.242 1.633.275.641.31 1.211.102 1.711-.667.031-1.186.06-1.555.086-.37.026-.764.05-1.18.07v-5.516c.011-1.292.021-2.586.031-3.883.01-1.297.021-2.596.031-3.898.635 0 1.273-.002 1.914-.008.642-.004 1.29-.007 1.946-.007 1.656.781 2.648 1.935 2.977 3.461.328 1.526-.164 2.898-1.477 4.117.156.896.391 1.776.703 2.641.313.865.614 1.719.906 2.563-.354.125-.709.245-1.063.359-.353.114-.702.229-1.046.343zm.532-1.187h.188c-.219-.625-.523-1.409-.914-2.352-.391-.942-.539-1.742-.445-2.398 1.614-1.625 1.869-3.432.766-5.422-.688-.646-1.284-1.039-1.789-1.18-.506-.141-1.222-.195-2.148-.164v11.422h.36c-.031-1.625-.047-2.586-.047-2.883s.025-.513.078-.648c.375-.094.768-.224 1.18-.391.411-.167.805-.25 1.18-.25.26.719.523 1.43.789 2.133s.53 1.414.802 2.133zm-3.985-3.984V7.141 3.469c1.958-.167 3.271.771 3.938 2.813 0 1.271-.32 2.323-.961 3.156-.641.833-1.633 1.291-2.977 1.375zm1.078-1.547c.104-.021.188-.036.25-.047.802-.75 1.234-1.531 1.297-2.344s-.479-1.495-1.625-2.047c0 .74.008 1.479.023 2.219.016.74.034 1.479.055 2.219zm9.977 6.5c-.365-.792-.722-1.586-1.07-2.383-.35-.797-.695-1.591-1.039-2.383h-.25c-.219.313-.284 1.063-.195 2.25.088 1.188.133 1.995.133 2.422-.469-.01-.938-.023-1.406-.039s-.928-.028-1.375-.039c0-2.188-.006-4.372-.016-6.555-.012-2.182-.069-4.362-.173-6.539.458.021.924.042 1.398.063.474.021.95.037 1.43.047 0 1.542.002 2.487.008 2.836.005.349.033.789.086 1.32.333-.688.638-1.388.914-2.102.275-.713.544-1.43.805-2.148.177.042.375.112.594.211.219.099.891.419 2.016.961.135.875-.279 1.729-1.242 2.563-.964.833-1.336 1.693-1.117 2.578.719 1.396 1.2 2.318 1.445 2.766.244.448.752 1.318 1.523 2.609-.063.344-.404.667-1.023.969-.621.301-1.102.499-1.446.593zm-4.047-1.344h.375c0-.594.005-1.188.016-1.781.01-.594.025-1.188.047-1.781.177-.239.439-.635.789-1.188.349-.552.664-.859.945-.922.438.938.875 1.87 1.313 2.797.438.927.885 1.859 1.344 2.797.052-.01.15-.016.297-.016-.656-1.396-1.102-2.333-1.336-2.813-.234-.479-.732-1.458-1.492-2.938.094-.813.458-1.575 1.094-2.289.635-.713.953-1.492.953-2.336h-.235C88.871 5.058 88.396 6.073 87.98 7c-.198.313-.563.943-1.094 1.891-.531.948-.938 1.469-1.219 1.563-.042-1.177-.076-2.356-.102-3.539-.026-1.182-.055-2.367-.086-3.555h-.265c0 1.844.008 3.688.023 5.531s.034 3.687.056 5.531z"/></svg>