<?xml version="1.0" encoding="utf-8"?>
<!-- Generator: Adobe Illustrator 22.0.1, SVG Export Plug-In . SVG Version: 6.00 Build 0)  -->
<svg version="1.1" id="Layer_1" xmlns="http://www.w3.org/2000/svg" xmlns:xlink="http://www.w3.org/1999/xlink" x="0px" y="0px"
	 viewBox="0 0 445.5404 53.8682" enable-background="new 0 0 445.5404 53.8682" xml:space="preserve">
<path d="M71.4117,0c5.2162,0,9.096,1.6778,11.6378,5.0329c2.5422,3.3559,2.9973,7.4056,1.3657,12.1497
	c-1.5058,4.3782-4.4119,8.1785-8.7189,11.4031c-4.2804,3.1456-8.8999,4.9934-13.8599,5.5439l10.748,19.7386h-17.104L46.0017,34.326
	H21.4267l-6.7211,19.5421H0L18.5267,0H71.4117z M25.5106,22.4518l36.7504,0.0391c1.7301,0,3.2775-0.4975,4.6426-1.4942
	c1.4526-1.0223,2.4223-2.2806,2.9105-3.7747c0.5666-1.5728,0.4623-2.831-0.3141-3.7747c-0.6619-1.048-1.8713-1.5333-3.6283-1.455
	H29.1078L25.5106,22.4518z M144.6647,0l15.6815,53.8682h-15.8461l-3.3743-11.7959h-36.4497L93.1094,53.8682H77.3028L130.0378,0
	H144.6647z M115.8328,30.6695h21.9408l-4.9811-17.3007L115.8328,30.6695z M239.8579,0c4.823,0,8.3848,1.5336,10.6856,4.6002
	c2.3269,3.0673,2.7282,6.7769,1.2058,11.1277l-1.19,3.4601H235.854l0.3111-0.9045c0.6219-1.8084,0.4673-3.3029-0.464-4.4821
	c-0.8696-1.2842-2.3-1.8874-4.2926-1.8091h-32.2818c-1.8785-0.0256-3.7289,0.59-5.5508,1.8482
	c-1.7334,1.154-2.9113,2.6346-3.5332,4.443l-5.9502,17.3007c-0.595,1.7301-0.4276,3.2246,0.5029,4.4828
	c0.9569,1.1792,2.3752,1.7827,4.2537,1.8084h32.2818c1.9926-0.0783,3.8422-0.6939,5.5503-1.8479
	c1.7696-1.2582,2.9475-2.7389,3.5337-4.4433l0.2839-0.8255h14.7053l-1.163,3.3815c-1.4706,4.3515-4.4234,8.0607-8.8599,11.1273
	c-4.4105,3.0673-9.0271,4.6006-13.8501,4.6006h-40.9318c-4.797,0-8.3589-1.5333-10.6855-4.6006
	c-2.3012-3.0666-2.7025-6.7758-1.2059-11.1273l7.7082-22.4123c1.4964-4.3508,4.4631-8.0604,8.8992-11.1277
	C189.5518,1.5336,194.1547,0,198.9261,0H239.8579z M279.7677,0l-18.5267,53.8682h-14.7056L265.062,0H279.7677z M302.3372,0
	l33.5454,37.8257L348.8919,0h14.7448L345.11,53.8682h-14.7448l-33.5589-37.7865l-12.9958,37.7865h-14.7056L287.6316,0H302.3372z
	 M445.5404,0l-4.1245,11.9924H388.216c-1.9315-0.0256-3.7809,0.59-5.5508,1.8482c-1.7334,1.154-2.9113,2.6346-3.5332,4.443
	l-5.9502,17.3007c-0.595,1.7301-0.4404,3.2246,0.4634,4.4828c0.9316,1.1792,2.3617,1.7827,4.2932,1.8084h40.3813l2.8804-8.375
	h-18.3622l3.9081-11.3633h33.0681L428.901,53.8682h-59.4124c-4.797,0-8.3589-1.5333-10.6855-4.6006
	c-2.3012-3.0666-2.7025-6.7758-1.2059-11.1273l7.7082-22.4123c1.4964-4.3508,4.4492-8.0604,8.86-11.1277
	C378.6016,1.5336,383.2183,0,388.0153,0H445.5404z"/>
</svg>
