<?xml version="1.0" encoding="utf-8"?>
<!-- Generator: Adobe Illustrator 22.0.1, SVG Export Plug-In . SVG Version: 6.00 Build 0)  -->
<svg version="1.1" id="Layer_1" xmlns="http://www.w3.org/2000/svg" xmlns:xlink="http://www.w3.org/1999/xlink" x="0px" y="0px"
	 viewBox="0 0 100 100" enable-background="new 0 0 100 100" xml:space="preserve">
<g>
	<g>
		<polygon points="-144.4588,-96.0867 -168.0393,-96.0866 -235.5491,99.9762 -208.1635,99.9762 		"/>
	</g>
	<g>
		<path d="M17.8469-52.0554h148.8596c23.3149,0,14.09,37.869-15.5583,37.869H-31.4674L-8.652,4.6993h158.0538
			c20.6093,0,59.4824-21.387,59.4824-49.1304c0-16.7288-13.0802-29.6882-35.9357-29.6882h-150.26L-107.3772-4.0207L10.0674,100
			h37.4849L-77.1572-3.7831L17.8469-52.0554z"/>
	</g>
	<g>
		<path d="M143.8911,28.4385c43.652,0,91.658-39.068,91.658-81.4748c0-23.6716-19.7807-43.0264-50.8974-43.0264H16.5387
			L-143.1625-11.712l29.222-84.3749l-25.2361,0.0001l-63.7047,196.063h21.4309l32.7459-95.5927L-40.5658,100H1.944L-116.648-5.1222
			L21.2658-79.3858h151.9581c24.1636,0,38.6435,13.8201,40.3872,27.3304c5.4615,42.3159-46.5372,61.872-62.4128,61.872H81.1818
			L185.2713,100h38.9303l-85.9958-71.5615H143.8911z"/>
	</g>
	<g>
		<polygon points="72.9229,9.923 -2.4125,9.8641 20.0267,28.4385 56.559,28.4385 136.3243,100 177.0102,100 		"/>
	</g>
</g>
</svg>
