<?xml version="1.0" encoding="utf-8"?>
<!-- Generator: Adobe Illustrator 22.0.1, SVG Export Plug-In . SVG Version: 6.00 Build 0)  -->
<svg version="1.1" id="Layer_1" xmlns="http://www.w3.org/2000/svg" xmlns:xlink="http://www.w3.org/1999/xlink" x="0px" y="0px"
	 viewBox="0 0 553.0454 75.9253" enable-background="new 0 0 553.0454 75.9253" xml:space="preserve">
<path d="M46.8398,0L35.6323,32.5869L97.4384,0h34.083L61.2411,35.6353l48.3795,40.29h-34.083L33.4975,38.7939L20.7271,75.9253H0
	L26.1128,0H46.8398z M236.1543,0l-5.8133,16.9028h-73.0435l-4.2695,12.4141h63.2896l-5.7181,16.626h-63.2896l-4.4983,13.0791
	h73.0435l-5.8135,16.9033H116.271L142.3838,0H236.1543z M220.0171,75.9253L246.1299,0h20.7271l-20.2993,59.022h69.1084
	l-5.8135,16.9033H220.0171z M319.8281,75.9253L345.9409,0h20.7271l-20.2993,59.022h69.1084l-5.8135,16.9033H319.8281z M458.0556,0
	l21.201,31.9771L522.4536,0h30.5918l-69.0861,48.437l-9.454,27.4883h-20.7271l9.454-27.4883L427.4638,0H458.0556z"/>
</svg>
