<?xml version="1.0" encoding="utf-8"?>
<!-- Generator: Adobe Illustrator 22.0.1, SVG Export Plug-In . SVG Version: 6.00 Build 0)  -->
<svg version="1.1" id="Layer_1" xmlns="http://www.w3.org/2000/svg" xmlns:xlink="http://www.w3.org/1999/xlink" x="0px" y="0px"
	 viewBox="0 0 581.1891 241.9105" enable-background="new 0 0 581.1891 241.9105" xml:space="preserve">
<g>
	<g>
		<polygon points="112.3772,0.0002 83.2862,0.0004 0,241.8811 33.7853,241.8811 		"/>
	</g>
	<g>
		<path d="M312.6121,54.3213h183.6467c28.7633,0,17.3827,46.7186-19.1942,46.7186H251.7735l28.1472,23.2991h194.9894
			c25.4255,0,73.3828-26.3849,73.3828-60.6117c0-20.6382-16.1369-36.6261-44.3335-36.6261H318.5851l-160.4608,86.48
			l144.8903,128.3293h46.2447L195.4065,113.8743L312.6121,54.3213z"/>
	</g>
	<g>
		<path d="M468.1116,153.6257c53.853,0,113.0775-48.1978,113.0775-100.5147c0-29.2034-24.4033-53.0813-62.7916-53.0813H310.9982
			L113.9764,104.0925L150.0273,0l-31.1336,0.0002L40.3019,241.8811h26.4391l40.3982-117.9318L240.549,241.9105h52.444
			L146.6871,112.2223l170.1428-91.6183h187.4692c29.8104,0,47.674,17.0497,49.8252,33.7172
			c6.7379,52.2047-57.4125,76.3309-76.998,76.3309h-86.3786l128.4142,111.2583h48.028l-106.0921-88.2848H468.1116z"/>
	</g>
	<g>
		<polygon points="380.5588,130.7834 287.6183,130.7108 315.3014,153.6257 360.3709,153.6257 458.7765,241.9105 508.9703,241.9105 
					"/>
	</g>
</g>
</svg>
