<?xml version="1.0" encoding="utf-8"?>
<!-- Generator: Adobe Illustrator 22.0.1, SVG Export Plug-In . SVG Version: 6.00 Build 0)  -->
<svg version="1.1" id="Layer_1" xmlns="http://www.w3.org/2000/svg" xmlns:xlink="http://www.w3.org/1999/xlink" x="0px" y="0px"
	 viewBox="0 0 324.6245 134.875" enable-background="new 0 0 324.6245 134.875" xml:space="preserve">
<path d="M174.8732,85.75l-14.582-13.125h51.9692l71.6104,62.25h-28.4842L200.8278,85.75H174.8732z M155.3582,69.375
	c0,0,91.933,0,110.183,0c20.25,0,40.5-17.893,40.5-35.125c0-10.25-9.0844-19-24.5-19c-21.75,0-102.8575,0-102.8575,0
	L88.1825,63.3703l80.8213,71.5047h25.6426l-85.1015-71.4086L174.245,30.5h102.0462c16.1656,0,11.8323,26-13.8344,26H140.0144
	L155.3582,69.375z M22.7912,134.875h14.558l22.4011-65.0574l73.5341,65.0574h29.9943L81.8363,62.8209l94.176-51.1334h108.4451
	c15.0833,0,23.0059,10.4993,24.4589,18.8125c3.6672,20.982-22.2089,42.125-42.8755,42.125c-9.4798,0-47.9995-0.4873-47.9995-0.4873
	l71.4556,62.7373h27.4455L257.3489,85.75h6.1089c33.499,0,61.1667-33.251,61.1667-55.25c0-17.3344-13.6677-30.5-36.5-30.5H174.2689
	L64.0307,57.3864L83.7904,0H66.6147L22.7912,134.875z M62.6764,0H46.4412L0,134.875h18.8529L62.6764,0z"/>
</svg>
