<?xml version="1.0" encoding="utf-8"?>
<!-- Generator: Adobe Illustrator 22.0.1, SVG Export Plug-In . SVG Version: 6.00 Build 0)  -->
<svg version="1.1" id="Layer_1" xmlns="http://www.w3.org/2000/svg" xmlns:xlink="http://www.w3.org/1999/xlink" x="0px" y="0px"
	 viewBox="0 0 740.5571 148.0752" enable-background="new 0 0 740.5571 148.0752" xml:space="preserve">
<polygon fill="#EC1C24" points="58.7358,70.0703 114.3804,0 165.9023,0 113.3491,70.0703 164.873,148.0752 113.3491,148.0752 "/>
<path fill="#FFFFFF" d="M0,0h53.5845v148.0752H0V0z M177.2388,148.0752h101.3266v-36.7851h-53.9272V93.7715h53.9272v-40.187
	h-53.9272V37.0962h53.9272V0H177.2388V148.0752z M343.1411,148.0752V78.3154l52.5527,69.7598h48.4307V0.5147L396.7251,0v74.1943
	L336.958,0h-44.3091v148.0752H343.1411z M740.5571,72.6455c0,42.6856-30.2646,75.4297-75.2217,75.4297
	c-44.9609,0-75.2246-32.7441-75.2246-75.4297c0-42.6811,30.2637-72.1308,75.2246-72.1308
	C710.2925,0.5147,740.5571,29.9644,740.5571,72.6455z M697.6343,73.7354c0-18.3252-12.9971-30.9712-32.2989-30.9712
	c-19.3056,0-32.2998,12.646-32.2998,30.9712c0,18.3281,12.9942,32.6074,32.2998,32.6074
	C684.6372,106.3428,697.6343,92.0635,697.6343,73.7354z M541.1411,113.2949c-23.3721,0-39.1035-17.2861-39.1035-39.4756
	c0-22.1826,15.7314-37.499,39.1035-37.499c15.417,0,27.4727,6.6949,33.9189,17.5962c0-15.1269,0-29.9233,0-44.4507
	c-10.9415-5.6137-26.0497-8.9492-40.5909-8.9511c-44.9609,0-75.2246,29.7046-75.2246,72.3877
	c0,42.6865,30.2637,75.1728,75.2246,75.1728c15.4864,0,29.2286-3.1777,40.5909-10.0976c0-14.962,0-29.4922,0-43.7198
	C568.6138,105.7481,556.5581,113.2949,541.1411,113.2949z"/>
</svg>
