<?xml version="1.0" encoding="utf-8"?>
<!-- Generator: Adobe Illustrator 22.0.1, SVG Export Plug-In . SVG Version: 6.00 Build 0)  -->
<svg version="1.1" id="Layer_1" xmlns="http://www.w3.org/2000/svg" xmlns:xlink="http://www.w3.org/1999/xlink" x="0px" y="0px"
	 viewBox="0 0 119.9955 45.2404" enable-background="new 0 0 119.9955 45.2404" xml:space="preserve">
<path fill-rule="evenodd" clip-rule="evenodd" d="M2.3712,32.1982h115.502l-0.187,0.999H2.0592L2.3712,32.1982z M33.6024,27.238
	c0,0-1.186,0.281-1.186,0.905s1.342,0.936,1.342,0.936h9.298V28.58c0,0-1.092-0.032-5.554-0.468
	C33.0404,27.675,33.6024,27.238,33.6024,27.238 M61.3705,10.0156h-7.394l-0.032,0.343c0,0,4.025,0.375,4.774,0.468
	c0.749,0.094,2.184,0.375,2.371,0.905c0,0,0.874-0.499,0.874-1.061C61.9635,10.1096,61.3705,10.0156,61.3705,10.0156 M7.6441,10.078
	l-0.187,0.78h2.277l-3.962,17.909h-2.246l-0.188,0.717h12.543l0.156-0.748h-2.371l2.152-9.267l3.963,9.204h-2.371l-0.25,0.843
	h13.666l0.124-0.749h-1.965l-5.772-13.416c0,0,2.87-2.403,4.555-3.276c1.685-0.874,2.839-1.248,5.117-1.311l0.249-0.686h-10.452
	l-0.218,0.749c0,0,1.841-0.031,2.402,0.125c0.562,0.156,1.092,0.686,0.749,1.154c-0.343,0.468-1.248,1.31-2.995,2.402
	c-1.747,1.092-6.646,4.119-6.646,4.119l1.716-7.894h2.808l0.188-0.624L7.6441,10.078z M34.3825,20.2493
	c-0.157,0.442-0.218,1.373,2.246,1.622c2.465,0.25,17.472,1.997,17.472,1.997s0.531,0.219,0.312,0.624c0,0,4.337,0.468,4.618-1.872
	c0,0,0.125-1.123-2.246-1.373c-2.3719-0.249-19.282-2.277-19.282-2.277S35.0375,18.4083,34.3825,20.2493 M35.3185,15.8187
	c-0.157,0.442-0.218,1.373,2.246,1.623c2.465,0.249,17.472,1.996,17.472,1.996s0.531,0.219,0.312,0.624c0,0,4.337,0.468,4.618-1.872
	c0,0,0.125-1.123-2.246-1.372c-2.372-0.25-19.282-2.278-19.282-2.278S35.9735,13.9777,35.3185,15.8187 M36.3169,11.3883
	c-0.157,0.442-0.219,1.373,2.246,1.622c2.465,0.25,17.472,1.997,17.472,1.997s0.531,0.219,0.312,0.624c0,0,4.337,0.468,4.618-1.872
	c0,0,0.125-1.123-2.247-1.373c-2.371-0.249-19.2809-2.277-19.2809-2.277S36.9719,9.5473,36.3169,11.3883 M33.3217,24.6797
	c-0.157,0.442-0.218,1.373,2.246,1.622c2.465,0.25,17.472,1.997,17.472,1.997s0.531,0.218,0.312,0.624c0,0,4.337,0.468,4.618-1.872
	c0,0,0.125-1.123-2.246-1.373c-2.3719-0.249-19.282-2.277-19.282-2.277S33.9767,22.8387,33.3217,24.6797 M33.7271,0.188
	c1.03,1.123,3.931,1.497,3.931,1.497c-0.405,2.559,0.5,2.621,0.5,2.621c1.279-0.811,1.372-2.777,1.372-2.777
	c1.092-0.156,1.748-0.624,1.748-0.624c0.842,0.499,2.714,0.78,2.714,0.78c-0.406,2.122,0.374,2.715,0.374,2.715
	c1.248-0.749,1.436-2.871,1.436-2.871c0.686-0.062,1.747-0.655,1.747-0.655c0.842,0.562,2.745,0.749,2.745,0.749
	c-0.374,1.872,0.312,2.745,0.312,2.745c1.186-0.655,1.467-2.839,1.467-2.839c0.78-0.125,1.841-0.593,1.841-0.593
	c1.279,0.812,2.714,0.718,2.714,0.718c-0.53,2.246,0.312,2.714,0.312,2.714c1.186-0.904,1.435-2.839,1.435-2.839
	c0.655-0.093,1.779-0.655,1.779-0.655c0.967,0.593,2.714,0.811,2.714,0.811c-0.562,1.779,0.406,2.715,0.406,2.715
	c1.248-0.812,1.372-2.902,1.372-2.902C66.8621,1.28,68.4531,0,68.4531,0l-5.959,9.111h-25.522L33.7271,0.188 M41.4651,1.81
	l-1.342,0.967l1.56,0.967l1.186-1.123L41.4651,1.81z M46.4261,2.746l1.466,1.061l1.373-1.123l-1.373-0.999L46.4261,2.746z
	 M54.2571,1.748l-1.498,0.936l1.654,1.123l1.373-1.155L54.2571,1.748z M60.5591,1.748l-1.497,0.936l1.684,1.06l1.498-1.123
	L60.5591,1.748z M37.4091,8.144h24.773l0.468-0.874H37.1281L37.4091,8.144z M63.9912,10.0468l-0.156,0.718h1.654
	c0,0,1.31,0.405,1.435,1.622l-2.933,13.416c0,0-0.53,2.902-2.371,2.933h-1.904l-0.249,0.749h8.892l0.156-0.749l-1.81-0.031
	c0,0-1.903,0.343-1.248-2.683c0.656-3.027,2.496-11.295,2.496-11.295l14.508,14.726h4.774l3.588-16.411c0,0,0.312-2.246,1.903-2.246
	h1.997l0.25-0.78h-8.674l-0.156,0.749l2.028,0.062c0,0,1.529,0.187,1.248,1.622c-0.281,1.436-1.685,7.457-1.685,7.457l-10.265-9.828
	L63.9912,10.0468z M119.2465,9.3291h-1.248l-1.841,1.529c0,0-2.745-1.591-8.143-1.591c-5.3979,0-13.104,3.151-15.0699,9.328
	c-1.965,6.178,1.248,9.548,4.774,10.733c3.526,1.186,7.519,0.999,10.858,0.125c3.338-0.874,5.272-1.778,7.207-1.622l1.747-7.52
	h2.246l0.219-0.936h-14.477l-0.125,0.905h2.184c0,0-0.936,5.086-1.2791,6.115c-0.343,1.03-0.78,2.434-2.933,2.434
	c-1.841,0-1.092-3.058-1.092-3.058l2.527-11.7c0,0,0.063-3.494,5.492-3.494c5.428,0,6.552,4.462,6.552,5.616h0.936L119.2465,9.3291z
	 M0,45.2404h115.565l0.312-0.936H0.312L0,45.2404z M116.5169,37.5032c0,0,0.249-0.39,0.062-1.264
	c-0.187-0.874-2.293-0.921-2.293-0.921h-6.349c-2.309,0-3.386,0.469-3.822,1.857c-0.437,1.388,0.109,1.732,0.936,2.028
	c0.826,0.296,6.13,0.281,7.176,0.281c1.045,0,0.951,0.437,0.951,0.437c0,0.53-0.78,0.624-0.78,0.624h-5.304
	c-0.655,0-0.499-0.671-0.499-0.671h-3.104c-0.188,0.156-0.234,0.92-0.234,0.92c0,1.498,2.808,1.342,2.808,1.342h6.505
	c2.948,0,3.713-1.03,3.884-2.543c0.172-1.513-1.856-1.685-2.449-1.685s-5.023-0.062-5.912-0.062c-0.89,0-0.843-0.437-0.843-0.437
	c0-0.624,1.248-0.624,1.248-0.624h4.119c1.06,0,0.842,0.702,0.842,0.702L116.5169,37.5032z M20.3111,35.3964
	c0,0,5.569,0.016,9.017,0.016s2.699,2.324,2.699,2.324c-0.375,2.855-2.917,2.637-2.917,2.637h-6.724l-0.374,1.653h-3.198
	L20.3111,35.3964 M27.7681,37.0504c-1.295,0-4.68,0.016-4.68,0.016l-0.328,1.669h5.024c0,0,0.92,0.015,1.014-0.936
	C28.7981,37.7994,29.0631,37.0504,27.7681,37.0504 M38.2977,35.4124c0,0,7.722,0.016,8.768,0.016c1.045,0,1.778,0.046,2.667,0.358
	c0.889,0.312,0.967,1.233,0.531,2.418c-0.437,1.186-1.748,1.155-1.748,1.155l-0.031,0.14c0.063-0.015,0.437,0.063,0.437,0.063
	c0.702,0.265,0.749,0.577,0.749,0.998s-0.312,1.482-0.312,1.482h-3.136c0,0,0.078-0.234,0.234-0.967
	c0.156-0.733-0.717-0.702-0.717-0.702h-5.304l-0.312,1.669h-3.276L38.2977,35.4124 M41.1997,37.0504l-0.437,1.654l5.429-0.047
	c0,0,0.983-0.063,0.983-0.921c0,0,0.078-0.686-0.593-0.686H41.1997z M56.6592,35.428l-1.451,6.615h3.198l1.451-6.615H56.6592z
	 M65.7382,35.4592l-1.4821,6.583h3.26l0.968-4.774h0.125l5.054,4.79l4.68-0.016l1.482-6.599h-3.198l-1.076,4.821h-0.078
	l-5.008-4.836L65.7382,35.4592z M95.2224,37.7992h3.136c0,0,0.234-0.531,0.234-1.139c0-0.608-0.921-1.154-2.434-1.232
	s-6.942-0.25-8.845,0.249c-1.903,0.5-1.9969,1.716-2.1689,2.481c-0.171,0.764-0.39,1.856-0.39,1.856s-0.421,2.044,2.808,2.138
	c3.23,0.093,7.738,0.124,8.924-0.39c1.185-0.515,1.466-1.108,1.622-1.888c0.156-0.78,0.343-1.498,0.343-1.498h-7.067l-0.249,1.139
	h3.775c0,0,0.062,0.92-1.716,0.92h-3.869c0,0-1.373-0.015-1.232-0.967c0.14-0.951-0.078-2.449,2.012-2.449h4.54
	C94.6454,37.0192,95.4564,37.0822,95.2224,37.7992 M14.1808,37.5032c0,0,0.249-0.39,0.062-1.264
	c-0.187-0.874-2.293-0.921-2.293-0.921h-6.349c-2.309,0-3.386,0.469-3.822,1.857c-0.437,1.388,0.109,1.732,0.936,2.028
	c0.826,0.296,6.13,0.281,7.176,0.281c1.045,0,0.951,0.437,0.951,0.437c0,0.53-0.78,0.624-0.78,0.624h-5.304
	c-0.655,0-0.499-0.671-0.499-0.671h-3.104c-0.188,0.156-0.234,0.92-0.234,0.92c0,1.498,2.808,1.342,2.808,1.342h6.505
	c2.948,0,3.713-1.03,3.884-2.543c0.172-1.513-1.856-1.685-2.449-1.685c-0.593,0-5.023-0.062-5.912-0.062
	c-0.89,0-0.843-0.437-0.843-0.437c0-0.624,1.248-0.624,1.248-0.624h4.119c1.061,0,0.842,0.702,0.842,0.702L14.1808,37.5032z"/>
</svg>
