<svg xmlns="http://www.w3.org/2000/svg" viewBox="0 0 117.474 28.017"><path d="M5.605.645v.352H5.02c-.17.025-.332.061-.489.107-.156.046-.3.121-.43.225-.091.077-.169.192-.234.341-.065.15-.104.342-.117.576v4.785c.352-.351.709-.693 1.074-1.025.364-.332.729-.67 1.094-1.016.364-.344.723-.69 1.074-1.035.352-.345.696-.693 1.035-1.045.208-.221.381-.436.518-.645.137-.207.225-.396.264-.566.039-.169.012-.315-.079-.439s-.267-.212-.527-.264h-.586l.02-.371 4.824.02v.352l-.371.038c-.208.013-.41.062-.605.146-.195.085-.391.186-.586.303-.183.117-.368.251-.557.4-.189.15-.375.296-.557.439l-4.18 4.199 5.313 5.273c.247.234.495.449.742.645.247.195.501.371.762.527.26.144.537.261.83.352.293.091.615.15.967.176v.391l-6.289-.02.02-.371h.332c.195-.026.352-.084.469-.176.117-.091.188-.195.215-.313.039-.117.036-.247-.01-.391-.046-.143-.134-.286-.264-.43L3.75 7.246v4.629c.013.273.032.501.059.684.026.183.078.332.156.449.091.117.215.212.371.283.156.072.371.14.645.205h.605v.371H0v-.332h.547c.247-.026.462-.078.645-.156.182-.078.325-.195.43-.352.091-.13.156-.286.195-.469.039-.182.059-.403.059-.664v-9.59c0-.417-.117-.735-.352-.957-.118-.103-.264-.185-.44-.243S.703 1.009.469.996H0V.645h5.605zM35.247.625v.371c-.195-.013-.358-.016-.488-.01-.13.007-.244.017-.342.029-.098.013-.186.036-.264.068-.078.033-.163.068-.254.107-.104.065-.189.137-.254.215-.065.078-.117.173-.156.283-.039.112-.069.236-.088.373s-.036.296-.049.479v9.629c.013.169.029.306.049.41.02.104.042.192.068.264.026.072.059.13.098.176.039.046.091.095.156.146.117.104.264.183.439.234.176.052.354.091.537.117h.547v.352h-5.645v-.352h.566c.195-.013.381-.052.557-.117.176-.065.335-.163.479-.293.052-.078.094-.166.127-.264.032-.098.059-.202.078-.313.02-.11.036-.221.049-.332.013-.11.02-.218.02-.322V2.578c-.013-.247-.029-.439-.049-.576s-.042-.247-.068-.332c-.026-.084-.065-.153-.117-.205-.052-.052-.117-.11-.195-.176-.091-.078-.192-.137-.303-.176-.111-.039-.228-.068-.352-.088-.124-.02-.254-.032-.391-.039-.137-.006-.271-.003-.4.01V.625h5.645zM64.536.625v.352h-.586c-.078 0-.163.01-.254.029-.092.02-.18.046-.264.078-.085.033-.163.068-.234.107-.072.039-.134.091-.186.156-.065.078-.117.15-.156.215-.039.065-.072.144-.098.234-.026.091-.046.202-.059.332-.014.13-.026.3-.039.508v11.406h-.332l-8.69-10.624v8.379c.013.144.022.28.029.41.006.13.02.251.039.361.02.111.045.208.078.293.032.085.074.166.127.244.104.104.237.192.4.264.162.072.374.121.635.146h.547v.352h-4.57v-.371h.586c.104-.013.201-.026.293-.039.091-.013.179-.036.264-.068.084-.032.162-.071.234-.117.071-.045.133-.101.186-.166.117-.143.198-.332.244-.566.045-.234.068-.481.068-.742V2.363c-.156-.169-.313-.338-.469-.508-.156-.169-.319-.319-.488-.449-.117-.052-.229-.104-.332-.156-.104-.052-.209-.094-.313-.127-.104-.032-.215-.062-.332-.088-.117-.026-.241-.045-.371-.059H50.2V.625h3.555l8.066 9.922.02-7.734c-.026-.299-.056-.563-.088-.791-.033-.228-.088-.413-.166-.557-.104-.156-.244-.27-.42-.342-.176-.071-.368-.12-.576-.146h-.645V.625h4.59zM91.774 4.16l-.332.02c-.026-.078-.059-.169-.098-.273-.039-.104-.085-.211-.137-.322-.052-.11-.107-.228-.166-.352-.059-.124-.124-.244-.195-.361s-.144-.234-.215-.352-.144-.225-.215-.322-.14-.186-.205-.264-.13-.143-.195-.195c-.352-.286-.703-.514-1.055-.684-.352-.169-.713-.283-1.084-.342s-.752-.071-1.143-.039c-.391.033-.801.107-1.23.225-.352.144-.645.29-.879.439-.234.15-.442.306-.625.469-.183.163-.342.335-.479.518-.137.183-.271.378-.4.586-.13.208-.247.443-.352.703-.104.261-.195.527-.273.801s-.144.55-.195.83c-.052.28-.091.544-.117.791-.039.456-.046.892-.02 1.309.026.417.085.824.176 1.221.091.397.215.785.371 1.162.156.378.345.769.566 1.172.183.261.368.498.557.713s.397.414.625.596c.228.183.479.342.752.479s.586.257.938.361c.286.065.569.107.85.127s.573.013.879-.02c.306-.032.628-.104.967-.215.339-.11.71-.27 1.113-.479l.02-4.141c-.013-.104-.022-.211-.029-.322-.007-.11-.02-.218-.039-.322-.02-.104-.046-.205-.078-.303s-.075-.172-.127-.225c-.078-.078-.153-.146-.225-.205s-.159-.107-.264-.146-.234-.065-.391-.078c-.156-.013-.352-.02-.586-.02v-.186-.186c.847 0 1.696-.003 2.549-.01.853-.006 1.702-.01 2.549-.01v.372c-.144.013-.286.02-.43.02s-.293.033-.449.098c-.052.026-.11.065-.176.117-.065.052-.127.114-.186.186s-.107.153-.146.244c-.039.091-.065.183-.078.273l-.02 2.52v2.578c-.156.065-.31.13-.459.195-.149.065-.296.13-.439.195-.144.065-.29.124-.439.176-.149.052-.31.111-.479.176-.183.065-.384.121-.605.166-.222.046-.446.085-.674.117-.228.033-.452.059-.674.078s-.43.036-.625.049c-.286-.013-.566-.026-.84-.039-.273-.013-.54-.039-.801-.078s-.518-.088-.771-.146-.505-.127-.752-.205c-.234-.078-.472-.176-.713-.293s-.476-.247-.703-.391c-.228-.143-.442-.303-.645-.479s-.388-.368-.557-.576c-.391-.417-.713-.853-.967-1.309-.254-.456-.442-.928-.566-1.416s-.192-.996-.205-1.523.02-1.064.098-1.611c.169-.677.407-1.328.713-1.953s.687-1.185 1.143-1.68c.208-.247.439-.479.693-.693s.524-.407.811-.576c.286-.169.589-.319.908-.449.319-.13.647-.228.986-.293.442-.065.85-.107 1.221-.127s.735-.01 1.094.029.72.104 1.084.195c.364.091.762.215 1.191.371.052.026.117.052.195.078.078.026.153.052.225.078.071.026.144.042.215.049.071.007.14.003.205-.01.117-.026.208-.104.273-.234.065-.13.104-.319.117-.566h.332l.332 4.139zM116.591 4.59h-.352c-.052-.273-.107-.537-.166-.791s-.13-.495-.215-.723c-.085-.228-.186-.446-.303-.654-.117-.208-.267-.403-.449-.586-.208-.195-.41-.354-.605-.479-.195-.124-.391-.225-.586-.303s-.4-.137-.615-.176-.452-.071-.713-.098c-.247.013-.469.042-.664.088-.195.046-.368.111-.518.195-.149.085-.29.186-.42.303s-.261.248-.391.391c-.117.169-.205.342-.264.518s-.085.358-.078.547c.007.189.039.375.098.557.059.183.146.352.264.508.169.183.361.358.576.527.215.169.446.335.693.498.247.163.505.322.771.479s.53.313.791.469c.222.104.442.215.664.332s.442.241.664.371c.222.13.439.264.654.4s.42.283.615.439c.195.144.374.306.537.488.163.183.303.375.42.576.117.202.215.414.293.635.078.222.13.449.156.684.039.339.029.664-.029.977s-.153.609-.283.889c-.13.28-.306.547-.527.801s-.481.485-.781.693c-.195.13-.397.241-.605.332-.208.091-.423.166-.645.225s-.459.101-.713.127c-.254.026-.524.039-.811.039-.286-.013-.563-.049-.83-.107s-.524-.124-.771-.195c-.247-.071-.495-.146-.742-.225s-.495-.149-.742-.215c-.247-.052-.433-.013-.557.117-.124.13-.198.339-.225.625h-.352V9.316h.332c.078.339.159.667.244.986.085.319.198.635.342.947.13.248.286.469.469.664s.381.365.596.508c.215.144.437.261.664.352.228.091.452.163.674.215.234.052.476.085.723.098.247.013.495.003.742-.029s.488-.094.723-.186c.234-.091.449-.221.645-.391.208-.169.371-.361.488-.576s.192-.436.225-.664c.032-.228.026-.459-.02-.693s-.127-.456-.244-.664c-.156-.26-.368-.498-.635-.713s-.557-.417-.869-.605c-.313-.188-.635-.374-.967-.557-.332-.182-.642-.364-.928-.547-.273-.182-.557-.354-.85-.518-.293-.163-.576-.345-.85-.547-.273-.202-.527-.43-.762-.684s-.437-.55-.605-.889c-.156-.352-.244-.7-.264-1.045-.02-.345.007-.677.078-.996.071-.319.186-.622.342-.908.156-.286.345-.54.566-.762.208-.195.42-.361.635-.498s.439-.247.674-.332c.234-.084.479-.149.732-.195.254-.045.524-.075.811-.088.234.013.462.036.684.068.222.033.437.078.645.137s.417.127.625.205.423.163.645.254c.313.13.557.144.732.039.176-.104.29-.332.342-.684h.371V4.59z"/><g><path d="M26.515 21.926l2.215 5.317c.047.07.089.136.127.198s.081.119.127.171c.047.047.101.089.163.127s.139.066.233.083l.211.026v.167h-2.338v-.165l.202-.018c.029-.006.062-.013.097-.022s.069-.021.101-.035.063-.035.092-.062.053-.054.07-.083c.023-.047.037-.103.04-.167s-.013-.141-.048-.229c-.07-.205-.149-.409-.237-.611s-.173-.406-.255-.611h-2.303c-.041.117-.088.236-.141.356s-.104.24-.154.36-.097.237-.141.352-.078.227-.101.338c0 .053.006.098.018.136s.026.072.044.101c.041.047.092.082.154.105s.127.041.198.053l.272.035v.167h-1.863v-.165c.035-.006.069-.012.101-.018s.066-.012.101-.018c.064-.023.119-.044.163-.062s.083-.044.119-.079c.029-.029.06-.063.092-.101s.066-.086.101-.145c.047-.082.089-.164.127-.246s.078-.164.119-.246l2.136-5.01h.158zm-1.354 3.762h2.013l-.976-2.399-1.037 2.399zM35.434 22.049h2.197c.141.006.28.013.417.022s.277.022.417.04c.123.023.239.054.347.092s.211.083.308.136.189.116.277.189.17.157.246.25c.082.111.148.229.198.352s.082.249.097.378.016.259.004.391-.035.262-.07.391c-.047.129-.111.25-.193.365s-.177.215-.286.303-.227.161-.356.22-.267.1-.413.123c-.129.023-.256.037-.382.04s-.252 0-.378-.009-.25-.023-.374-.044-.246-.042-.369-.066v1.846c0 .076.003.145.009.207s.015.119.026.171.026.1.044.141.041.076.07.105c.064.059.132.098.202.119s.146.034.229.04h.264v.167h-2.531v-.168h.264c.082-.006.157-.019.224-.04s.13-.057.189-.11c.035-.023.063-.057.083-.101s.037-.092.048-.145.021-.108.026-.167.009-.12.009-.185V22.98c0-.07-.003-.138-.009-.202s-.015-.12-.026-.167-.025-.089-.04-.127-.037-.069-.066-.092c-.041-.041-.085-.073-.132-.097s-.1-.041-.158-.053-.122-.019-.189-.022-.142-.004-.224-.004v-.167zm1.678.439l.009 2.479c.07.012.141.025.211.04s.141.026.211.035.141.015.211.018.146-.001.229-.013c.088-.012.168-.032.242-.062s.141-.066.202-.11.119-.094.171-.149.103-.116.149-.18c.023-.029.047-.07.07-.123s.045-.111.066-.176.037-.135.048-.211.018-.155.018-.237c0-.07-.003-.141-.009-.211s-.018-.139-.035-.207-.038-.133-.062-.198-.053-.126-.088-.185c-.076-.141-.179-.259-.308-.356s-.281-.166-.457-.207c-.088-.012-.168-.019-.242-.022s-.145-.001-.215.004-.141.015-.211.026-.139.028-.21.045zM45.714 22.049h2.197c.141.006.28.013.417.022s.277.022.417.04c.123.023.239.054.347.092s.211.083.308.136.189.116.277.189.17.157.246.25c.082.111.147.229.197.352s.082.249.097.378.017.259.005.391-.035.262-.07.391c-.047.129-.111.25-.193.365s-.178.215-.286.303-.228.161-.356.22c-.129.059-.267.1-.413.123-.129.023-.256.037-.382.04s-.252 0-.378-.009-.25-.023-.374-.044-.246-.042-.369-.066v1.846c0 .076.003.145.009.207s.015.119.026.171.026.1.044.141.041.076.07.105c.064.059.132.098.202.119s.146.034.229.04h.264v.167h-2.531v-.168h.264c.082-.006.157-.019.224-.04s.13-.057.189-.11c.035-.023.063-.057.083-.101s.037-.092.048-.145.021-.108.026-.167.009-.12.009-.185V22.98c0-.07-.003-.138-.009-.202s-.015-.12-.026-.167-.025-.089-.04-.127-.037-.069-.066-.092c-.041-.041-.085-.073-.132-.097s-.1-.041-.158-.053-.122-.019-.189-.022-.142-.004-.224-.004v-.167zm1.679.439l.009 2.479c.07.012.141.025.211.04s.141.026.211.035.141.015.211.018.146-.001.229-.013c.088-.012.168-.032.242-.062s.141-.066.202-.11.119-.094.171-.149.103-.116.149-.18c.023-.029.047-.07.07-.123s.045-.111.066-.176.037-.135.048-.211.018-.155.018-.237c0-.07-.003-.141-.009-.211s-.018-.139-.035-.207-.038-.133-.062-.198-.053-.126-.088-.185c-.076-.141-.179-.259-.308-.356s-.281-.166-.457-.207c-.088-.012-.168-.019-.242-.022s-.145-.001-.215.004-.141.015-.211.026-.14.028-.21.045zM59.212 21.926l2.215 5.317c.047.07.09.136.128.198s.081.119.128.171c.047.047.101.089.162.127s.139.066.232.083l.211.026v.167H59.95v-.165l.203-.018c.029-.006.061-.013.096-.022s.069-.021.102-.035.063-.035.092-.062.053-.054.07-.083c.023-.047.037-.103.04-.167s-.013-.141-.048-.229c-.07-.205-.15-.409-.238-.611s-.172-.406-.254-.611H57.71c-.041.117-.088.236-.141.356s-.104.24-.154.36-.097.237-.141.352-.078.227-.102.338c0 .053.006.098.018.136s.027.072.045.101c.041.047.092.082.153.105s.128.041.198.053l.271.035v.167h-1.863v-.165c.035-.006.069-.012.102-.018s.066-.012.102-.018c.064-.023.118-.044.162-.062s.084-.044.119-.079c.029-.029.06-.063.092-.101s.066-.086.102-.145c.047-.082.089-.164.127-.246s.078-.164.119-.246l2.135-5.01h.158zm-1.354 3.762h2.014l-.977-2.399-1.037 2.399zM68.131 22.058h2.347c.217.006.423.018.62.035.195.018.394.053.593.105.211.07.396.171.554.303s.287.297.387.497c.047.111.08.227.102.347.02.12.025.239.018.356-.01.117-.031.231-.066.343s-.082.214-.141.308c-.059.1-.132.19-.22.272s-.187.155-.294.22c-.109.064-.227.119-.352.163-.127.044-.254.081-.383.11l1.248 1.74c.053.076.106.148.162.215s.11.136.163.207c.076.088.155.166.237.233s.17.123.264.167.194.081.303.11.228.053.356.07v.158h-1.582l-2.013-2.786c-.105.006-.21.009-.313.009s-.203-.003-.303-.009l-.009 1.863c.012.146.026.268.044.365s.056.174.114.233c.047.047.106.085.181.114.072.029.15.044.232.044h.281v.167H68.13v-.158h.255c.1-.012.185-.031.255-.057s.129-.063.176-.11c.059-.053.098-.132.119-.237.02-.105.033-.237.039-.396v-4.052c-.006-.117-.014-.221-.021-.312-.01-.091-.034-.171-.075-.242-.041-.076-.104-.133-.188-.171-.086-.038-.195-.057-.33-.057h-.229v-.167zm1.679.413v2.479c.152 0 .287-.003.404-.009s.224-.018.321-.035c.096-.018.189-.041.281-.07.09-.029.186-.064.285-.105.07-.041.139-.088.207-.141.066-.053.127-.113.18-.18s.1-.144.141-.229.07-.18.088-.286c.023-.146.029-.293.018-.439s-.05-.287-.114-.422c-.041-.076-.085-.145-.132-.207s-.102-.117-.162-.167c-.063-.05-.13-.094-.203-.132s-.159-.072-.259-.101c-.076-.023-.158-.038-.246-.044s-.178-.006-.269 0-.182.016-.271.031c-.093.014-.182.033-.269.057zM84.424 22.058l.062 1.301h-.176c-.035-.188-.076-.344-.123-.47s-.108-.227-.185-.303-.178-.129-.303-.158c-.127-.029-.289-.044-.488-.044h-1.67v2.355h1.336c.146 0 .272-.012.378-.035s.193-.066.264-.127.126-.149.167-.264.073-.259.097-.435h.149v2.065h-.158c-.023-.182-.053-.33-.088-.444s-.085-.202-.149-.264-.151-.105-.259-.132c-.109-.026-.248-.042-.418-.048h-1.318v2.109c.006.105.012.189.018.25s.021.111.044.149.062.066.114.083.126.032.22.044h1.283c.135-.006.259-.018.374-.035.113-.018.219-.051.316-.101.096-.05.191-.119.285-.207s.188-.205.281-.352l.281-.475h.176l-.519 1.494h-4.562v-.164h.29c.082-.018.156-.037.224-.057s.126-.053.176-.097.088-.105.115-.185c.025-.079.039-.18.039-.303v-4.104c-.006-.129-.012-.248-.018-.356s-.026-.201-.062-.277-.094-.136-.176-.18-.202-.066-.36-.066h-.229v-.158l4.572-.009zM93.404 22.049v.176h-.193c-.111.006-.215.018-.313.035-.096.018-.183.05-.259.097-.064.041-.116.097-.153.167-.039.07-.063.164-.075.281v4.245c.006.076.01.141.013.193s.01.097.018.132c.01.035.022.064.04.088s.041.05.07.079c.023.023.053.04.088.048s.073.016.114.022.088.01.141.013.108.007.167.013h1.037c.146-.018.281-.037.404-.057s.234-.054.334-.101c.117-.059.223-.136.316-.233s.188-.221.281-.374l.237-.51.141.026-.501 1.617-4.597.009v-.165h.281c.123-.018.221-.044.295-.079.072-.035.13-.085.171-.149.029-.053.051-.122.065-.207s.028-.189.04-.312v-4.008c0-.158-.008-.289-.022-.391s-.039-.186-.074-.25c-.023-.041-.052-.075-.084-.101s-.067-.048-.105-.066-.08-.032-.127-.044-.097-.023-.149-.035h-.29v-.149l2.689-.01z"/></g></svg>