<?xml version="1.0" encoding="utf-8"?>
<!-- Generator: Adobe Illustrator 22.0.1, SVG Export Plug-In . SVG Version: 6.00 Build 0)  -->
<svg version="1.1" id="Layer_1" xmlns="http://www.w3.org/2000/svg" xmlns:xlink="http://www.w3.org/1999/xlink" x="0px" y="0px"
	 viewBox="0 0 49.848 49.848" enable-background="new 0 0 49.848 49.848" xml:space="preserve">
<rect x="7.3" y="7.3" transform="matrix(0.7071 -0.7071 0.7071 0.7071 -10.3239 24.9242)" fill="#223C6A" width="35.248" height="35.248"/>
<rect x="8.005" y="8.005" transform="matrix(0.7071 -0.7071 0.7071 0.7071 -10.3239 24.9242)" fill="#E6E7E8" width="33.838" height="33.838"/>
<path fill="#4074B8" d="M18.16,16.792c0-0.56,0.013-1.118,0.039-1.673c0.026-0.555,0.047-1.115,0.062-1.681
	c0.016-0.565,0.026-1.125,0.031-1.681c0.005-0.499,0.001-0.995-0.007-1.491l-3.326,3.326L18.16,16.792z"/>
<radialGradient id="SVGID_1_" cx="24.1972" cy="17.5007" r="13.0323" gradientUnits="userSpaceOnUse">
	<stop  offset="0.5" style="stop-color:#2072A9"/>
	<stop  offset="1" style="stop-color:#223C6A"/>
</radialGradient>
<path fill="url(#SVGID_1_)" d="M34.875,13.58l-9.951-9.951l-5.703,5.703l0.013,5.577l8.434-0.031
	c0.384-0.01,0.752-0.036,1.105-0.078c0.352-0.041,0.695-0.104,1.027-0.187c0.322-0.093,0.636-0.22,0.941-0.381
	c0.306-0.161,0.609-0.371,0.91-0.63l0.311,0.311l-5.026,4.995l-0.28-0.311l0.265-0.265c0.135-0.177,0.212-0.348,0.233-0.513
	c0.021-0.166-0.005-0.306-0.078-0.42c-0.062-0.125-0.168-0.225-0.319-0.303c-0.151-0.078-0.335-0.121-0.552-0.132h-7.874l4.059,4.06
	c0.469,0.469,1.229,0.469,1.698,0l0.805-0.805l0.823,0.823c0.469,0.469,1.229,0.469,1.698,0L34.875,13.58z"/>
<path fill="#4074B8" d="M16.705,31.75c-0.56,0-1.118-0.013-1.673-0.039c-0.555-0.026-1.115-0.047-1.681-0.062
	c-0.565-0.016-1.125-0.026-1.681-0.031c-0.449-0.004-0.896,0-1.342,0.006l3.251,3.251L16.705,31.75z"/>
<radialGradient id="SVGID_2_" cx="17.4622" cy="25.5495" r="13.8539" gradientUnits="userSpaceOnUse">
	<stop  offset="0.5" style="stop-color:#2072A9"/>
	<stop  offset="1" style="stop-color:#223C6A"/>
</radialGradient>
<path fill="url(#SVGID_2_)" d="M13.575,14.979l-9.946,9.946l5.765,5.765l5.428-0.013l-0.031-8.434
	c-0.01-0.384-0.036-0.752-0.078-1.105c-0.041-0.352-0.103-0.695-0.187-1.027c-0.093-0.322-0.22-0.636-0.381-0.941
	s-0.371-0.609-0.63-0.91l0.311-0.311l4.995,5.026l-0.311,0.28l-0.265-0.265c-0.177-0.135-0.348-0.212-0.513-0.233
	c-0.166-0.021-0.306,0.005-0.42,0.078c-0.125,0.062-0.225,0.168-0.303,0.319c-0.078,0.151-0.121,0.335-0.132,0.552v7.874
	l4.194-4.193c0.469-0.469,0.469-1.229,0-1.698l-0.823-0.823l0.758-0.758c0.469-0.469,0.469-1.229,0-1.698L13.575,14.979z"/>
<path fill="#4074B8" d="M31.52,36.371c-0.016,0.565-0.026,1.125-0.031,1.681c-0.005,0.534-0.002,1.066,0.008,1.596l3.374-3.373
	l-3.249-3.249c0,0.558-0.013,1.113-0.039,1.665C31.556,35.245,31.535,35.805,31.52,36.371z"/>
<radialGradient id="SVGID_3_" cx="25.7999" cy="32.3144" r="12.5359" gradientUnits="userSpaceOnUse">
	<stop  offset="0.5" style="stop-color:#2072A9"/>
	<stop  offset="1" style="stop-color:#223C6A"/>
</radialGradient>
<path fill="url(#SVGID_3_)" d="M22.113,34.931c-0.384,0.01-0.752,0.036-1.105,0.078c-0.352,0.041-0.695,0.103-1.027,0.187
	c-0.322,0.093-0.636,0.22-0.941,0.381c-0.306,0.161-0.609,0.371-0.91,0.63l-0.311-0.311l5.026-4.995l0.28,0.311l-0.265,0.265
	c-0.135,0.177-0.212,0.348-0.233,0.513c-0.021,0.166,0.005,0.306,0.078,0.42c0.062,0.125,0.168,0.225,0.319,0.303
	c0.151,0.078,0.335,0.121,0.552,0.132h7.866l-4.063-4.062c-0.469-0.469-1.229-0.469-1.698,0l-0.758,0.758l-0.828-0.828
	c-0.469-0.469-1.229-0.469-1.698,0l-7.491,7.491l10.017,10.015l5.636-5.636L30.547,34.9L22.113,34.931z"/>
<polygon points="31.621,33.018 31.45,32.846 31.442,32.846 31.621,33.025 "/>
<path fill="#4074B8" d="M36.362,18.195c0.565,0.016,1.125,0.026,1.681,0.031c0.492,0.005,0.982,0.001,1.471-0.007l-3.31-3.31
	l-3.185,3.185c0.557,0,1.111,0.013,1.663,0.039C35.236,18.158,35.796,18.179,36.362,18.195z"/>
<radialGradient id="SVGID_4_" cx="32.118" cy="23.8939" r="13.2785" gradientUnits="userSpaceOnUse">
	<stop  offset="0.5" style="stop-color:#2072A9"/>
	<stop  offset="1" style="stop-color:#223C6A"/>
</radialGradient>
<path fill="url(#SVGID_4_)" d="M40.449,19.154l-5.557,0.013l0.031,8.434c0.01,0.384,0.036,0.752,0.078,1.105
	c0.041,0.352,0.104,0.695,0.187,1.027c0.093,0.322,0.22,0.636,0.381,0.941c0.161,0.306,0.371,0.609,0.63,0.91l-0.311,0.311
	l-4.995-5.026l0.311-0.28l0.265,0.265c0.177,0.135,0.348,0.212,0.513,0.233c0.166,0.021,0.306-0.005,0.42-0.078
	c0.125-0.062,0.225-0.168,0.303-0.319c0.078-0.151,0.121-0.335,0.132-0.552v-7.864l-4.095,4.095c-0.469,0.469-0.469,1.229,0,1.698
	l0.828,0.828l-0.805,0.805c-0.469,0.469-0.469,1.229,0,1.698l7.49,7.49l9.964-9.964L40.449,19.154z"/>
<polygon points="33.008,18.093 32.837,18.265 32.837,18.275 33.018,18.094 "/>
<radialGradient id="SVGID_5_" cx="24.9242" cy="24.9242" r="4.1349" gradientUnits="userSpaceOnUse">
	<stop  offset="0.5" style="stop-color:#E3C4AA"/>
	<stop  offset="0.5644" style="stop-color:#E1C0A3"/>
	<stop  offset="0.8341" style="stop-color:#DBB18B"/>
	<stop  offset="1" style="stop-color:#D9AC82"/>
</radialGradient>
<polygon fill="url(#SVGID_5_)" points="29.059,24.924 24.924,29.059 20.789,24.924 24.924,20.789 "/>
</svg>
