<?xml version="1.0" encoding="utf-8"?>
<!-- Generator: Adobe Illustrator 22.0.1, SVG Export Plug-In . SVG Version: 6.00 Build 0)  -->
<svg version="1.1" id="Layer_1" xmlns="http://www.w3.org/2000/svg" xmlns:xlink="http://www.w3.org/1999/xlink" x="0px" y="0px"
	 viewBox="0 0 12.85 9.5441" enable-background="new 0 0 12.85 9.5441" xml:space="preserve">
<path fill="#FFFFFF" d="M5.01,1.4231l0.4,0.48c0,0,0.32-0.13,0.32-0.27c0.51-0.03,0.94-0.08,1.58,0.03
	c-0.11,0.16,0.35,0.21,0.35,0.21L8,1.4531l-0.19-0.19l-0.05-0.91c0-0.27-0.27-0.35-0.64-0.35s-1.15,0.03-1.41,0
	c-0.27-0.03-0.48,0.16-0.48,0.4s0.05,0.69,0.05,0.69L5.01,1.4231z"/>
<path fill="#FFFFFF" d="M3.96,0.2631c0.08-0.12,0.22-0.06,0.2,0.08s-0.04,0.54,0.2,0.64s0.32-0.14,0.34-0.24
	c0.02-0.1,0.2-0.3,0.26-0.02c0.06,0.2-0.22,0.42-0.4,0.44c-0.18,0.02-0.54,0-0.64-0.28C3.82,0.6031,3.88,0.3831,3.96,0.2631"/>
<path fill="#FFFFFF" d="M9.02,0.2631c-0.08-0.12-0.21-0.06-0.2,0.08c0.02,0.14,0.04,0.54-0.2,0.64c-0.23,0.1-0.31-0.14-0.33-0.24
	c-0.02-0.1-0.2-0.3-0.26-0.02c-0.06,0.2,0.21,0.42,0.39,0.44c0.18,0.02,0.53,0,0.62-0.28C9.16,0.6031,9.1,0.3831,9.02,0.2631"/>
<path fill="#FFFFFF" d="M4.72,4.1631c0.06-0.16,0.34-0.24,0.54-0.16c-0.02,0.52-0.14,1.26-0.1,1.54
	C4.98,5.5031,4.7,5.1631,4.72,4.1631"/>
<path fill="#FFFFFF" d="M7.78,5.5431c0.2-0.04,0.47-0.38,0.45-1.38c-0.07-0.16-0.34-0.24-0.56-0.16"/>
<path fill="#FFFFFF" d="M5.54,4.3231c0,0,0.26-0.02,0.3,0.04c0.12-0.08,0.32-0.02,0.32-0.02c0.16-0.04,0.34-0.08,0.4-0.02
	c0.14-0.04,0.06,0.18,0.06,0.18l-0.24,0.06l-0.14-0.08l-0.18,0.08l-0.2-0.08l-0.18,0.3C5.68,4.7831,5.5,4.7431,5.54,4.3231"/>
<path fill="#FFFFFF" d="M7.47,4.3231c0,0-0.22-0.02-0.25,0.04c-0.1-0.08-0.27-0.02-0.27-0.02c-0.13-0.04-0.29-0.08-0.34-0.02
	c-0.12-0.04-0.05,0.18-0.05,0.18l0.2,0.06l0.12-0.08l0.15,0.08l0.17-0.08l0.15,0.3C7.36,4.7831,7.51,4.7431,7.47,4.3231"/>
<path fill="#FFFFFF" d="M5.2,6.9631c0,0-0.1,1.08,0.18,1.36c0.3,0.02,0.66-0.22,0.66-0.22c0.4,0.04,0.76-0.02,0.76-0.02
	s0.44,0.28,0.64,0.12s0.34-0.66,0.32-1.32c-0.16,0.02-0.58,0.82-0.62,0.94c-0.28-0.1-1.36,0.08-1.36,0.08S5.48,7.0431,5.2,6.9631"/>
<path fill="#FFFFFF" d="M4.84,6.7631c0.02-0.14-0.16-0.2-0.2-0.08s-0.38,0.9,0.14,1.84s1.3,1,1.74,1.02
	c0.44,0.02,1.64-0.26,1.92-1.44s-0.1-1.44-0.14-1.52s-0.24-0.06-0.22,0.1s0.22,0.76,0.14,1.22s-0.62,0.98-1.64,0.96
	s-1.64-0.26-1.78-0.84C4.66,7.4431,4.84,6.7631,4.84,6.7631"/>
<path fill="#F3CB00" d="M3.14,1.9431c-0.12,0-0.24-0.26,0-0.38c-0.24-0.02-0.32-0.16-0.32-0.36c-0.2,0-0.34,0.42-0.34,0.68
	c-0.88-0.28-2.36-0.52-2.36-0.52l2.06,0.9l-2.14-0.18l2.2,0.58l-2.16,0.08l2.4,0.34L0,3.4231l2.52,0.12l-2.32,0.92l2.38-0.52
	c0,0,0.52,0.54,0.94,0.54s1.04-0.82,1.36-1.12s0.76-0.08,1.1,0.06c0.1,0.06,0.02-0.16-0.2-0.32s-0.86-0.34-0.58-0.76
	c0.12-0.14-0.3-0.34-0.56-0.34S3.14,1.9431,3.14,1.9431"/>
<path fill="#F3CB00" d="M9.82,1.9431c0.12,0,0.23-0.26,0-0.38c0.23-0.02,0.31-0.16,0.31-0.36c0.19,0,0.33,0.42,0.33,0.68
	c0.85-0.28,2.28-0.52,2.28-0.52l-1.99,0.9l2.07-0.18l-2.12,0.58l2.08,0.08l-2.32,0.34l2.39,0.34l-2.43,0.12l2.24,0.92l-2.3-0.52
	c0,0-0.5,0.54-0.91,0.54s-1-0.82-1.31-1.12s-0.73-0.08-1.06,0.06c-0.1,0.06-0.02-0.16,0.19-0.32s0.83-0.34,0.56-0.76
	c-0.12-0.14,0.29-0.34,0.54-0.34C8.63,2.0031,9.82,1.9431,9.82,1.9431"/>
</svg>
