<?xml version="1.0" encoding="utf-8"?>
<!-- Generator: Adobe Illustrator 22.0.1, SVG Export Plug-In . SVG Version: 6.00 Build 0)  -->
<svg version="1.1" id="Layer_1" xmlns="http://www.w3.org/2000/svg" xmlns:xlink="http://www.w3.org/1999/xlink" x="0px" y="0px"
	 viewBox="0 0 89.24 26.54" enable-background="new 0 0 89.24 26.54" xml:space="preserve">
<path fill="#FFFFFF" d="M73.81,26.42h5.7V11.71l3.96,14.71h5.77V0.06h-5.7v13.27L79.51,0.12h-5.76L73.81,26.42z M59.69,0H71.1v5.47
	h-4.56v4.68h4.32v5.22H66.6v5.71h4.92v5.4H59.69V0z M18.14,0h6.72v26.48h-6.72V0z M16.76,26.54l-4.51-14.65L16.28,0H9.73L6.61,10.61
	V0H0v26.48h6.61V14.72l2.88,11.82H16.76z M41.68,0H26.72v5.4h4.03v21.08h6.9V5.4h4.03V0z M57.69,0H42.74v5.4h4.02v21.08h6.91V5.4
	h4.02V0z"/>
</svg>
