<?xml version="1.0" encoding="utf-8"?>
<!-- Generator: Adobe Illustrator 22.0.1, SVG Export Plug-In . SVG Version: 6.00 Build 0)  -->
<svg version="1.1" id="Layer_1" xmlns="http://www.w3.org/2000/svg" xmlns:xlink="http://www.w3.org/1999/xlink" x="0px" y="0px"
	 viewBox="0 0 16.71 16.71" enable-background="new 0 0 16.71 16.71" xml:space="preserve">
<path fill="#FFFFFF" d="M16.61,8.36c0,4.56-3.7,8.26-8.26,8.26s-8.26-3.7-8.26-8.26S3.79,0.1,8.35,0.1S16.61,3.79,16.61,8.36"/>
<ellipse fill="none" stroke="#000000" stroke-width="0.189" cx="8.36" cy="8.36" rx="8.26" ry="8.26"/>
<path d="M16.09,8.34c0,4.29-3.47,7.76-7.76,7.76s-7.76-3.47-7.76-7.76s3.47-7.76,7.76-7.76S16.09,4.05,16.09,8.34"/>
<path fill="none" stroke="#FFFFFF" stroke-width="0.178" d="M16.09,8.34c0,4.29-3.47,7.76-7.76,7.76s-7.76-3.47-7.76-7.76
	s3.47-7.76,7.76-7.76S16.09,4.05,16.09,8.34z"/>
<path fill="#FFFFFF" d="M6.82,5.81l0.4,0.48c0,0,0.32-0.13,0.32-0.27c0.51-0.03,0.94-0.08,1.58,0.03C9.01,6.21,9.47,6.26,9.47,6.26
	l0.34-0.42L9.62,5.65L9.57,4.74c0-0.27-0.27-0.35-0.64-0.35s-1.15,0.03-1.41,0c-0.27-0.03-0.48,0.16-0.48,0.4s0.05,0.69,0.05,0.69
	L6.82,5.81z"/>
<path fill="#FFFFFF" d="M5.77,4.65c0.08-0.12,0.22-0.06,0.2,0.08s-0.04,0.54,0.2,0.64s0.32-0.14,0.34-0.24
	c0.02-0.1,0.2-0.3,0.26-0.02c0.06,0.2-0.22,0.42-0.4,0.44c-0.18,0.02-0.54,0-0.64-0.28C5.63,4.99,5.69,4.77,5.77,4.65"/>
<path fill="#FFFFFF" d="M10.83,4.65c-0.08-0.12-0.21-0.06-0.2,0.08c0.02,0.14,0.04,0.54-0.2,0.64c-0.23,0.1-0.31-0.14-0.33-0.24
	c-0.02-0.1-0.2-0.3-0.26-0.02c-0.06,0.2,0.21,0.42,0.39,0.44c0.18,0.02,0.53,0,0.62-0.28C10.97,4.99,10.91,4.77,10.83,4.65"/>
<path fill="#FFFFFF" d="M6.53,8.55c0.06-0.16,0.34-0.24,0.54-0.16c-0.02,0.52-0.14,1.26-0.1,1.54C6.79,9.89,6.51,9.55,6.53,8.55"/>
<path fill="#FFFFFF" d="M9.59,9.93c0.2-0.04,0.47-0.38,0.45-1.38C9.97,8.39,9.7,8.31,9.48,8.39"/>
<path fill="#FFFFFF" d="M7.35,8.71c0,0,0.26-0.02,0.3,0.04c0.12-0.08,0.32-0.02,0.32-0.02c0.16-0.04,0.34-0.08,0.4-0.02
	c0.14-0.04,0.06,0.18,0.06,0.18L8.19,8.95L8.05,8.87L7.87,8.95l-0.2-0.08l-0.18,0.3C7.49,9.17,7.31,9.13,7.35,8.71"/>
<path fill="#FFFFFF" d="M9.28,8.71c0,0-0.22-0.02-0.25,0.04c-0.1-0.08-0.27-0.02-0.27-0.02C8.63,8.69,8.47,8.65,8.42,8.71
	C8.3,8.67,8.37,8.89,8.37,8.89l0.2,0.06l0.12-0.08l0.15,0.08l0.17-0.08l0.15,0.3C9.17,9.17,9.32,9.13,9.28,8.71"/>
<path fill="#FFFFFF" d="M7.01,11.35c0,0-0.1,1.08,0.18,1.36c0.3,0.02,0.66-0.22,0.66-0.22c0.4,0.04,0.76-0.02,0.76-0.02
	s0.44,0.28,0.64,0.12s0.34-0.66,0.32-1.32c-0.16,0.02-0.58,0.82-0.62,0.94c-0.28-0.1-1.36,0.08-1.36,0.08S7.29,11.43,7.01,11.35"/>
<path fill="#FFFFFF" d="M6.65,11.15c0.02-0.14-0.16-0.2-0.2-0.08s-0.38,0.9,0.14,1.84s1.3,1,1.74,1.02
	c0.44,0.02,1.64-0.26,1.92-1.44s-0.1-1.44-0.14-1.52s-0.24-0.06-0.22,0.1s0.22,0.76,0.14,1.22s-0.62,0.98-1.64,0.96
	s-1.64-0.26-1.78-0.84C6.47,11.83,6.65,11.15,6.65,11.15"/>
<path fill="#F3CB00" d="M4.95,6.33c-0.12,0-0.24-0.26,0-0.38C4.71,5.93,4.63,5.79,4.63,5.59c-0.2,0-0.34,0.42-0.34,0.68
	C3.41,5.99,1.93,5.75,1.93,5.75l2.06,0.9L1.85,6.47l2.2,0.58L1.89,7.13l2.4,0.34L1.81,7.81l2.52,0.12L2.01,8.85l2.38-0.52
	c0,0,0.52,0.54,0.94,0.54s1.04-0.82,1.36-1.12s0.76-0.08,1.1,0.06c0.1,0.06,0.02-0.16-0.2-0.32S6.73,7.15,7.01,6.73
	c0.12-0.14-0.3-0.34-0.56-0.34S4.95,6.33,4.95,6.33"/>
<path fill="#F3CB00" d="M11.63,6.33c0.12,0,0.23-0.26,0-0.38c0.23-0.02,0.31-0.16,0.31-0.36c0.19,0,0.33,0.42,0.33,0.68
	c0.85-0.28,2.28-0.52,2.28-0.52l-1.99,0.9l2.07-0.18l-2.12,0.58l2.08,0.08l-2.32,0.34l2.39,0.34l-2.43,0.12l2.24,0.92l-2.3-0.52
	c0,0-0.5,0.54-0.91,0.54s-1-0.82-1.31-1.12S9.22,7.67,8.89,7.81c-0.1,0.06-0.02-0.16,0.19-0.32s0.83-0.34,0.56-0.76
	c-0.12-0.14,0.29-0.34,0.54-0.34C10.44,6.39,11.63,6.33,11.63,6.33"/>
</svg>
