<?xml version="1.0" encoding="utf-8"?>
<!-- Generator: Adobe Illustrator 22.0.1, SVG Export Plug-In . SVG Version: 6.00 Build 0)  -->
<svg version="1.1" id="Layer_1" xmlns="http://www.w3.org/2000/svg" xmlns:xlink="http://www.w3.org/1999/xlink" x="0px" y="0px"
	 viewBox="0 0 679.4 122.2" style="enable-background:new 0 0 679.4 122.2;" xml:space="preserve">
<style type="text/css">
	.st0{fill:#B42736;}
</style>
<path class="st0" d="M0,117.2h67.3V91.4l26.3,25.7h92l-61.8-60.4l53.3-51.6H92.5L67.3,29.5V5H0V117.2L0,117.2z M283.7,0
	c-55.8,0-101.1,27.4-101.1,61.1c0,33.7,45.3,61.1,101.1,61.1c55.8,0,101.1-27.4,101.1-61.1C384.8,27.4,339.5,0,283.7,0z M283.7,91.9
	c-12.3,0-22.3-13.8-22.3-30.8s10-30.8,22.3-30.8c12.3,0,22.3,13.8,22.3,30.8S296,91.9,283.7,91.9z M612.1,117.2h67.3V5h-67.3V117.2z
	 M517.3,37.3V5h61.9v112.3h-71.5l-32.1-32.4v32.4h-61.9V5h71.5L517.3,37.3L517.3,37.3z"/>
</svg>
