<?xml version="1.0" encoding="utf-8"?>
<!-- Generator: Adobe Illustrator 22.0.1, SVG Export Plug-In . SVG Version: 6.00 Build 0)  -->
<svg version="1.1" id="Layer_1" xmlns="http://www.w3.org/2000/svg" xmlns:xlink="http://www.w3.org/1999/xlink" x="0px" y="0px"
	 viewBox="0 0 1023.458 182.542" enable-background="new 0 0 1023.458 182.542" xml:space="preserve">
<path fill="#FFFFFF" d="M0,0h43.521l-0.094,123.344l15.094-15.094l31.001,31.001L46.23,182.542H0V0z M75.146,91.625l90.917,90.917
	h61.667l-90.749-90.75l47.014-47.014h28.825v89.387l48.376,48.376h133.826V44.778h165.625v24.38H422.909v113.383h43.612v-69.1
	h21.441l69.1,69.1h466.396v-44.281H839.521l-24.361,24.422V69.159H676.646v-24.38h346.812V0H632.695v113.441h138.19v24.82H573.282
	l-24.82-24.82h56.91V33L572.521,0H350.886v138.261h-74.104l-19.759-19.759V0h-90.252L75.146,91.625z M842.021,69.159v44.282h132.892
	l44.282-44.282H842.021z"/>
</svg>
