<?xml version="1.0" encoding="utf-8"?>
<!-- Generator: Adobe Illustrator 22.0.1, SVG Export Plug-In . SVG Version: 6.00 Build 0)  -->
<svg version="1.1" id="Layer_1" xmlns="http://www.w3.org/2000/svg" xmlns:xlink="http://www.w3.org/1999/xlink" x="0px" y="0px"
	 viewBox="0 0 66.947 14.249" enable-background="new 0 0 66.947 14.249" xml:space="preserve">
<g>
	<path d="M8.313,11.683c-0.647,0-1.295,0.036-1.943,0.108c-3.91,0.468-6.009,2.063-5.457,2.458c-0.252,0-0.852-0.419-0.912-0.947
		c-0.06-0.636,1.332-1.259,2.903-1.667c1.031-0.72,2.303-2.183,3.322-3.371C5.747,8.324,5.279,8.36,4.811,8.36
		c-2.063,0-3.742-0.839-3.874-1.931C0.913,6.274,1.058,5.974,1.225,5.77c0.348-0.408,0.912-0.432,0.996-0.384
		c-0.216,0.072-0.468,0.275-0.48,0.492c-0.036,0.815,1.391,1.943,3.61,1.943c0.216,0,0.444-0.012,0.684-0.036
		C6.25,7.761,6.454,7.737,6.67,7.701c2.351-2.95,4.881-6.8,7.028-6.848c0.684-0.012,1.223,0.408,1.127,1.175
		c-0.216,2.063-3.442,4.881-7.172,5.925C6.515,9.308,5.171,10.711,4.2,11.359c0.6-0.108,1.2-0.18,1.715-0.204
		c0.276-0.012,0.552-0.024,0.852-0.024c2.603,0,5.96,0.563,7.124,1.499C12.547,12.078,10.484,11.683,8.313,11.683z M8.182,7.317
		c3.862-1.295,6.104-4.677,5.997-5.697c-0.036-0.312-0.216-0.528-0.527-0.432C12.667,1.488,10.484,4.547,8.182,7.317z"/>
	<path d="M12.337,10.987c-0.24,0.012-0.468-0.312-0.48-0.528c-0.024-0.335,0.456-0.911,0.816-0.947
		C12.913,9.5,13.417,9.74,13.5,9.967C13.093,9.98,12.469,10.975,12.337,10.987z"/>
	<path d="M22.773,8.96c-1.583,1.787-2.362,2.938-2.362,3.274c0,0.156,0.719-0.228,0.671-0.18c-0.3,0.396-0.936,0.588-1.175,0.588
		c-0.204,0-0.396-0.216-0.396-0.444c0-1.535,6.141-8.791,6.141-10.494c0-0.564-0.551-0.66-0.995-0.66
		c-3.358,0-8.887,5.637-8.887,6.393c0,0.144,0.132,0.216,0.24,0.216c0.12,0,0.468-0.06,0.588-0.096c0,0.108-0.72,0.396-0.996,0.396
		c-0.384,0-0.636-0.3-0.636-0.66c0-1.931,6.104-6.548,9.691-6.548c1.139,0,1.751,0.576,1.751,1.559c0,1.139-1.991,4.03-3.586,6.188
		c3.454-3.874,6.512-6.057,7.052-6.057c0.384,0,1.008,0.372,1.067,0.852c-0.048-0.072-0.18-0.096-0.264-0.096
		c-0.479,0-3.502,4.389-4.75,7.076c2.447-4.102,8.024-8.359,8.827-8.359c0.408,0,0.972,0.636,1.02,0.912
		c-0.108-0.072-0.276-0.072-0.384-0.072c-1.079,0-5.937,6.117-5.937,8.863c0,1.151,0.503,1.619,1.787,1.583
		c1.139-0.036,2.89-0.828,3.718-1.403c-1.427,1.319-3.334,1.679-3.754,1.727c-0.132,0.012-0.252,0.024-0.372,0.024
		c-1.271,0-2.146-0.804-2.146-2.183c0-2.315,2.362-5.889,3.382-6.884c-1.727,0.792-6.356,5.708-6.356,6.896
		c0,0.228-0.828-0.18-0.828-0.671c0-1.211,2.771-5.913,3.682-6.8C26.899,4.798,24.488,7.077,22.773,8.96z"/>
	<path d="M32.893,10.423c1.103-0.12,3.118-1.739,4.281-2.687c0.036-0.024,0.12,0.024,0.084,0.06
		c-1.031,0.971-3.346,3.142-4.833,3.142c-0.384,0-0.815-0.36-0.875-0.744c-0.012-0.096-0.012-0.216,0.024-0.36
		c0.096-0.503,0.528-1.343,1.331-2.123c0.983-0.972,2.195-1.595,3.046-1.595c0.276,0,0.684,0.408,0.684,0.587
		c0,0.456-0.587,0.9-0.983,1.2c-0.024,0.024-0.084,0-0.06-0.036c0.192-0.192,0.684-1.14,0.588-1.223
		c-1.283,0.024-3.634,2.734-3.634,3.574C32.545,10.411,32.785,10.435,32.893,10.423z"/>
	<path d="M42.658,12.93c-0.012,0.036,0.036,0.096,0.144,0.096c0.12,0,0.3-0.048,0.3-0.048c-0.072,0.12-0.408,0.228-0.587,0.228
		c-0.336,0-0.516-0.372-0.504-0.468c0.084-2.23,4.306-9.199,4.377-10.89c0.024-0.468-0.479-0.684-0.911-0.684
		c-2.999,0-7.928,5.133-7.964,6.008c-0.012,0.144,0.072,0.252,0.3,0.252c0.156,0,0.348-0.024,0.372-0.012
		c0,0.048-0.492,0.324-0.828,0.324c-0.504,0-0.732-0.324-0.72-0.72C36.709,5.254,42.046,0.84,45.5,0.84
		c0.708,0,1.679,0.432,1.631,1.451c-0.107,2.339-2.579,6.309-3.97,9.199c3.19-4.642,9.187-11.19,12.186-11.49
		c0.275-0.024,0.552,0.348,0.552,0.624c0,0.576-0.444,0.983-0.612,1.164c0.084-0.096,0.168-0.372,0.204-0.732
		c0-0.048,0.048-0.251-0.12-0.251C53.044,0.805,45.044,8.384,42.658,12.93z"/>
	<path d="M48.337,10.927c-0.192-0.06-0.492-0.36-0.492-0.576c0-0.695,1.739-3.31,2.507-3.922c0.061-0.06,0.132-0.072,0.18-0.072
		c0.276,0,0.756,0.48,0.756,0.78c0,0.048-0.06-0.012-0.156-0.024c-0.491-0.048-2.135,2.687-2.278,3.179
		c0.731-0.192,2.482-1.859,3.214-2.567c0.084-0.06,0.145,0.036,0.108,0.072c-1.044,1.127-2.95,3.082-3.694,3.142
		C48.433,10.939,48.397,10.939,48.337,10.927z M52.343,4.906c0.107,0.12,0.18,0.3,0.132,0.3c-0.024,0-0.12-0.048-0.252,0.012
		c-0.204,0.084-0.756,0.576-0.899,0.779c-0.168,0.216-0.42-0.036-0.432-0.252c-0.012-0.348,0.443-1.127,0.756-1.223
		C51.923,4.486,52.187,4.727,52.343,4.906z"/>
	<path d="M52.058,10.423c1.104-0.12,3.118-1.739,4.281-2.687c0.036-0.024,0.12,0.024,0.084,0.06
		c-1.031,0.971-3.346,3.142-4.833,3.142c-0.384,0-0.815-0.36-0.876-0.744c-0.012-0.096-0.012-0.216,0.024-0.36
		c0.096-0.503,0.527-1.343,1.331-2.123c0.983-0.972,2.195-1.595,3.047-1.595c0.275,0,0.684,0.408,0.684,0.587
		c0,0.456-0.588,0.9-0.983,1.2c-0.024,0.024-0.084,0-0.061-0.036c0.192-0.192,0.684-1.14,0.588-1.223
		C54.061,6.67,51.71,9.38,51.71,10.219C51.71,10.411,51.95,10.435,52.058,10.423z"/>
	<path d="M58.477,8.565c-0.36,0.359-2.699,2.375-3.202,2.375c-0.024,0-0.084-0.024-0.108-0.036
		c-0.216-0.108-0.527-0.563-0.527-0.803c0-1.308,2.746-3.982,4.953-3.982c0.456,0,1.056,0.192,1.056,0.755
		c0,0.204-0.108,0.408-0.229,0.564c-0.023,0.012-0.048,0-0.036-0.012c0.061-0.108,0.133-0.252,0.133-0.432
		c0-0.36-0.229-0.54-0.588-0.516c-0.696,0.036-1.571,0.54-2.351,1.199c-1.14,0.971-2.039,2.482-1.932,2.542
		c0.024,0.012,0.048,0.012,0.084,0c0.396-0.132,2.075-1.343,2.699-1.871c0.216-0.192,0.995-0.947,1.295-1.115
		c0.24-0.12,0.647,0.54,0.6,0.684c-0.06-0.12-1.14,1.188-1.499,1.955c-0.072,0.168-0.12,0.312-0.12,0.408
		c0.756-0.216,2.471-1.859,3.214-2.555c0.061-0.06,0.12,0.036,0.084,0.072c-1.043,1.139-2.998,3.142-3.718,3.142
		c-0.06,0-0.12-0.024-0.204-0.072c-0.167-0.096-0.396-0.348-0.396-0.564c0-0.12,0.048-0.264,0.096-0.444
		C57.925,9.416,58.248,8.864,58.477,8.565z"/>
	<path d="M63.049,6.202c0.071-0.048,0.119-0.06,0.167-0.06c0.288,0,0.744,0.468,0.744,0.768c0,0.048-0.036-0.012-0.132-0.024
		c-0.18-0.012-0.6,0.456-0.96,0.936c-0.323,0.432-0.743,0.995-0.995,1.439c0.636-0.828,1.835-1.835,2.866-2.579
		c0.468-0.336,0.828-0.54,1.08-0.563c0.132-0.012,0.623,0.503,0.539,0.6c-0.264,0.276-1.259,1.151-1.655,2.087
		c0.576-0.048,1.403-0.588,2.147-1.248c0.012-0.012,0.084-0.024,0.096,0c-0.216,0.288-1.655,1.631-2.482,1.631
		c-0.216,0-0.576-0.42-0.576-0.564c0-0.335,0.384-1.031,0.696-1.391C63.481,7.88,62.916,8.36,62.101,9.26
		c-0.611,0.66-1.331,1.715-1.067,1.835c-0.348,0.084-0.636-0.288-0.72-0.624c-0.023-0.108,0.036-0.336,0.181-0.612
		c0.3-0.684,0.839-1.511,1.319-2.195C62.233,7.053,62.749,6.442,63.049,6.202z"/>
</g>
</svg>
