<?xml version="1.0" encoding="utf-8"?>
<!-- Generator: Adobe Illustrator 22.0.1, SVG Export Plug-In . SVG Version: 6.00 Build 0)  -->
<svg version="1.1" id="Layer_1" xmlns="http://www.w3.org/2000/svg" xmlns:xlink="http://www.w3.org/1999/xlink" x="0px" y="0px"
	 viewBox="0 0 548.7051 119.6266" enable-background="new 0 0 548.7051 119.6266" xml:space="preserve">
<path d="M136.3183,1.3896h9.2827v62.7324h42.332v8.6709h-51.6147V1.3896z M226.9672,1.1855h7.3442l31.3159,71.6074h-9.6909
	l-7.9561-18.0547h-34.9878l-7.8545,18.0547h-9.4863L226.9672,1.1855z M216.4608,46.5776h28.0513l-14.0767-32.4375L216.4608,46.5776z
	 M280.473,72.793V1.3896h27.3374c18.4287,0,27.6436,7.1401,27.6436,21.4209c0,5.0322-1.5986,9.3843-4.7949,13.0566
	s-7.4121,6.0522-12.6484,7.1401l22.8496,29.7856h-11.3232l-21.2168-27.9492h-18.5645V72.793H280.473z M289.7557,10.0601v26.1133
	h18.3608c5.4399,0,9.7749-1.207,13.0054-3.6216c3.2305-2.4141,4.8447-5.6611,4.8447-9.7412c0-8.5005-6.1543-12.7505-18.4624-12.7505
	H289.7557z M392.6932,47.8018c-1.6318-1.6323-3.7402-2.9072-6.3242-3.8252s-5.4404-1.7681-8.5684-2.5503
	c-3.1279-0.7817-6.2559-1.666-9.3848-2.6519c-3.1279-0.9863-5.9844-2.1763-8.5684-3.5703s-4.6924-3.3662-6.3242-5.9165
	c-1.6318-2.5498-2.4482-5.627-2.4482-9.2314c0-5.5078,2.4316-10.1494,7.2939-13.9233c4.8623-3.7744,11.2373-5.6616,19.126-5.6616
	c11.9678,0,20.6387,3.4683,26.0107,10.4048l-6.0186,6.0181c-5.0996-5.1001-11.832-7.6504-20.1963-7.6504
	c-4.1484,0-7.957,0.8672-11.4248,2.6016c-3.4678,1.7339-5.2021,4.4028-5.2021,8.0073c0,2.7202,1.0879,4.981,3.2637,6.7832
	c2.1768,1.8022,4.8965,3.1113,8.1611,3.9272c3.2637,0.8159,6.7998,1.7852,10.6084,2.9072c3.8076,1.1221,7.3438,2.312,10.6084,3.5698
	c3.2637,1.2583,5.9844,3.2476,8.1602,5.9673c2.1758,2.7202,3.2646,6.0864,3.2646,10.0986c0,6.0522-2.4482,10.9995-7.3447,14.8413
	c-4.8965,3.8428-11.085,5.7637-18.5654,5.7637c-6.1201,0-11.8828-1.3428-17.2891-4.0293s-9.4014-5.9331-11.9863-9.7412
	l6.0186-6.5283c2.5166,3.2642,5.8828,6.001,10.0986,8.2114c4.2158,2.21,8.9082,3.3149,14.0771,3.3149
	c4.2842,0,7.9219-1.0029,10.9141-3.0093c2.9922-2.0059,4.4883-4.709,4.4883-8.1094
	C395.1414,51.4399,394.325,49.4336,392.6932,47.8018z M420.2533,1.3896h51.4102v8.6704h-42.1279v22.2368h39.2715v8.4663h-39.2715
	v23.3589h43.0459v8.6709h-52.3281V1.3896z M541.4629,72.793l-43.7607-54.4707V72.793h-8.9756V1.3896h7.3438l43.6582,54.6743V1.3896
	h8.9766V72.793H541.4629z M136.3183,78.4754h29.2529v4.9343H141.6v12.6528h22.3459v4.817H141.6v13.292h24.4935v4.9333h-29.7752
	V78.4754z M206.3168,119.1047l-24.8996-30.9944v30.9944h-5.1077V78.4754h4.1788l24.8414,31.1107V78.4754h5.1077v40.6293H206.3168z
	 M240.6197,98.3258h16.2516v15.1488c-1.7801,1.8959-4.0923,3.3951-6.9362,4.4984c-2.8439,1.1024-5.7557,1.6536-8.7349,1.6536
	c-6.2301,0-11.3472-1.9057-15.3521-5.7171c-4.0049-3.8114-6.0073-8.8512-6.0073-15.1195c0-5.8431,1.9829-10.7764,5.9492-14.8009
	c3.9663-4.0235,8.8903-6.0357,14.7715-6.0357c6.9265,0,12.0337,2.0503,15.3227,6.152l-3.3081,3.4244
	c-2.7476-3.0178-6.6362-4.5268-11.6663-4.5268c-4.6435,0-8.3968,1.4513-11.2602,4.3528c-2.8634,2.9025-4.2951,6.7139-4.2951,11.4342
	c0,4.8365,1.4801,8.6773,4.4403,11.5211c2.9602,2.8439,6.8004,4.2658,11.5211,4.2658c4.1788,0,7.6809-1.161,10.5057-3.482v-7.9521
	h-11.202V98.3258z M266.2742,78.4754h5.2817v40.6293h-5.2817V78.4754z M313.1714,119.1047l-24.8991-30.9944v30.9944h-5.1077V78.4754
	h4.1788l24.8409,31.1107V78.4754h5.1082v40.6293H313.1714z M328.9016,78.4754h29.2529v4.9343h-23.9716v12.6528h22.3464v4.817
	h-22.3464v13.292h24.4935v4.9333h-29.7747V78.4754z M368.8918,78.4754h29.2529v4.9343H374.173v12.6528h22.3464v4.817H374.173v13.292
	h24.4935v4.9333h-29.7747V78.4754z M408.883,119.1047V78.4754h15.5553c10.4862,0,15.7283,4.0635,15.7283,12.1886
	c0,2.8634-0.9089,5.3399-2.7276,7.4293c-1.8187,2.0894-4.2179,3.4439-7.1967,4.0635l13.0007,16.948h-6.4422l-12.0723-15.9032
	h-10.5644v15.9032H408.883z M414.1642,83.4096v14.8585h10.4481c3.095,0,5.5617-0.687,7.3999-2.0611
	c1.8383-1.3731,2.7569-3.2211,2.7569-5.5431c0-4.8365-3.5016-7.2543-10.5057-7.2543H414.1642z M451.2529,78.4754h5.2812v40.6293
	h-5.2812V78.4754z M498.1505,119.1047l-24.9001-30.9944v30.9944h-5.1072V78.4754h4.1788l24.8414,31.1107V78.4754h5.1082v40.6293
	H498.1505z M532.4539,98.3258h16.2512v15.1488c-1.7796,1.8959-4.0919,3.3951-6.9357,4.4984
	c-2.8439,1.1024-5.7552,1.6536-8.7349,1.6536c-6.2302,0-11.3472-1.9057-15.3521-5.7171c-4.0049-3.8114-6.0073-8.8512-6.0073-15.1195
	c0-5.8431,1.9829-10.7764,5.9496-14.8009c3.9658-4.0235,8.8893-6.0357,14.7715-6.0357c6.926,0,12.0333,2.0503,15.3228,6.152
	l-3.3091,3.4244c-2.7471-3.0178-6.6357-4.5268-11.6657-4.5268c-4.6431,0-8.3968,1.4513-11.2602,4.3528
	c-2.8635,2.9025-4.2952,6.7139-4.2952,11.4342c0,4.8365,1.4806,8.6773,4.4407,11.5211c2.9592,2.8439,6.7999,4.2658,11.5211,4.2658
	c4.1789,0,7.6805-1.161,10.5048-3.482v-7.9521h-11.2015V98.3258z M0,0v119.0898h119.0898V0H0z M38.9849,105.793V93.7096H26.1516
	V13.8333l7.0183,6.4056v66.9277h5.815v-61.25l7.0184,6.4056v54.8444h26.0828l6.5005,6.543H46.0033V99.25h38.9161l6.5005,6.543
	H38.9849z"/>
</svg>
