<?xml version="1.0" encoding="utf-8"?>
<!-- Generator: Adobe Illustrator 22.0.1, SVG Export Plug-In . SVG Version: 6.00 Build 0)  -->
<svg version="1.1" id="Layer_1" xmlns="http://www.w3.org/2000/svg" xmlns:xlink="http://www.w3.org/1999/xlink" x="0px" y="0px"
	 viewBox="0 0 1023.232 97.2" enable-background="new 0 0 1023.232 97.2" xml:space="preserve">
<path d="M79.922,64.513c2.278,0,3.649-0.383,4.112-1.152l10.73-17.857c0.331-0.958-0.52-1.439-2.555-1.439h-48.97
	c-8.304,0-13.664-0.937-16.08-2.809s-2.472-4.727-0.164-8.567l12.806-21.313c2.133-3.55,5.578-6.336,10.33-8.352
	C54.884,1.007,61.413,0,69.716,0h74.627l-9.25,13.104H65.75c-0.977,0-1.829,0.097-2.554,0.288c-0.727,0.193-1.205,0.481-1.435,0.863
	l-9.345,15.553c-0.231,0.385-0.114,0.697,0.354,0.936c0.465,0.241,1.188,0.36,2.165,0.36h48.97c8.384,0,13.736,0.985,16.055,2.952
	c2.317,1.969,2.381,4.776,0.189,8.424l-14.276,23.76c-2.308,3.841-5.775,6.696-10.399,8.568c-4.626,1.872-11.132,2.808-19.516,2.808
	H0l10.677-13.104h69.245V64.513z M139.593,25.344h22.702l-31.408,52.272h-22.461L139.593,25.344z M256.532,37.448l-23.938,40.388
	h-24.25l23.25-37.625c0.461-0.768-1.129-1.953-2.626-2.04l-11.874,0.04l-23.25,39.625h-21.25l24.45-39.676h-14.898l-23.708,39.456
	h-23.691l31.408-52.272h73.314C245.468,25.344,256.532,28.336,256.532,37.448z M313.756,64.513c2.278,0,3.649-0.383,4.112-1.152
	l10.729-17.857c0.331-0.958-0.52-1.439-2.555-1.439h-48.97c-8.304,0-13.664-0.937-16.08-2.809c-2.416-1.872-2.472-4.727-0.164-8.567
	l12.806-21.313c2.133-3.55,5.578-6.336,10.33-8.352C288.717,1.007,295.246,0,303.549,0h74.919l-8.875,13.104h-70.01
	c-0.977,0-1.829,0.097-2.554,0.288c-0.727,0.193-1.205,0.481-1.435,0.863l-9.345,15.553c-0.231,0.385-0.114,0.697,0.354,0.936
	c0.465,0.241,1.188,0.36,2.165,0.36h48.97c8.384,0,13.736,0.985,16.055,2.952c2.317,1.969,2.381,4.776,0.189,8.424l-14.276,23.76
	c-2.308,3.841-5.775,6.696-10.399,8.568c-4.626,1.872-11.132,2.808-19.516,2.808h-75.958l10.636-13.104h69.287V64.513z M385.6,4.752
	h23.324l-12.46,20.736h46.527l-7.787,12.96h-46.526L373.709,63.36c-0.231,0.385-0.113,0.697,0.354,0.936
	c0.465,0.241,1.188,0.36,2.165,0.36h27.11l-7.787,12.96h-31.018c-8.224,0-13.502-0.936-15.837-2.808
	c-2.337-1.872-2.349-4.728-0.042-8.568L385.6,4.752z M496.021,77.616h-59.105c-8.304,0-13.661-0.911-16.063-2.736
	c-2.406-1.822-2.483-4.607-0.233-8.352l18.083-30.096c1.845-3.071,4.719-5.688,8.623-7.849c3.902-2.16,8.988-3.24,15.258-3.24
	h41.887c8.304,0,13.629,0.961,15.976,2.881c2.346,1.921,2.453,4.657,0.319,8.208l-6.143,10.224
	c-2.308,3.841-5.761,6.674-10.356,8.496c-4.597,1.824-11.047,2.736-19.351,2.736h-35.537l-3.461,5.76
	c-0.462,0.77,0.408,1.151,2.606,1.151h55.197L496.021,77.616z M460.541,39.313l-3.461,5.76h34.927l3.461-5.76
	c0.461-0.768-0.367-1.152-2.483-1.152H463.92C462.071,38.257,460.944,38.642,460.541,39.313z M584.683,77.616h-59.105
	c-8.304,0-13.661-0.911-16.063-2.736c-2.406-1.822-2.483-4.607-0.233-8.352l18.083-30.096c1.845-3.071,4.719-5.688,8.623-7.849
	c3.902-2.16,8.988-3.24,15.258-3.24h41.887c8.304,0,13.629,0.961,15.976,2.881c2.346,1.921,2.453,4.657,0.319,8.208l-6.143,10.224
	c-2.308,3.841-5.761,6.674-10.356,8.496c-4.597,1.824-11.047,2.736-19.351,2.736h-35.537l-3.461,5.76
	c-0.462,0.77,0.408,1.151,2.606,1.151h55.197L584.683,77.616z M549.203,39.313l-3.461,5.76h34.927l3.461-5.76
	c0.461-0.768-0.367-1.152-2.483-1.152h-29.064C550.733,38.257,549.606,38.642,549.203,39.313z M624.15,28.225
	c4.614-1.92,11.032-2.881,19.255-2.881h47.138l-7.701,12.816h-43.229c-0.978,0-1.83,0.097-2.555,0.288
	c-0.727,0.193-1.205,0.481-1.435,0.864l-23.015,38.304h-23.324l24.746-41.184C616.162,32.882,619.535,30.146,624.15,28.225z
	 M695.982,25.344h23.69l-31.408,52.272h-23.69L695.982,25.344z M798.629,36.433l-24.746,41.184h-23.568l23.015-38.304
	c0.461-0.768-0.367-1.152-2.483-1.152h-31.751l-23.708,39.456H691.82l31.408-52.272h59.105c8.304,0,13.629,0.961,15.976,2.881
	C800.655,30.146,800.762,32.882,798.629,36.433z M855.197,85.824c-2.307,3.839-5.775,6.696-10.399,8.568
	c-4.626,1.872-11.09,2.808-19.394,2.808h-59.105l7.787-12.96h55.319c2.116,0,3.435-0.432,3.954-1.296l3.201-5.328h-35.537
	c-8.304,0-13.646-0.936-16.02-2.808c-2.376-1.872-2.41-4.728-0.103-8.568l17.738-29.521c2.133-3.55,5.557-6.336,10.269-8.352
	c4.71-2.016,11.221-3.024,19.524-3.024h36.147c8.304,0,13.6,1.009,15.89,3.024c2.289,2.016,2.366,4.802,0.233,8.352L855.197,85.824z
	 M812.719,64.656h31.629L859.403,39.6c0.519-0.864-0.281-1.296-2.397-1.296h-28.453c-2.036,0-3.366,0.384-3.99,1.151L810.2,63.359
	C809.68,64.225,810.52,64.656,812.719,64.656z M957.548,0.152c-0.596,0.133-1.185,0.339-1.788,0.389
	c-6.369,0.526-12.744,0.983-19.109,1.548c-7.85,0.696-14.197,3.819-18.309,10.955c-4.101,7.116-7.002,14.681-9.276,22.525
	c-0.055,0.189,0.092,0.436,0.151,0.681c9.293,0,18.541,0,27.775,0c0.676-1.68,1.256-3.25,1.933-4.777
	c1.464-3.301,3.74-5.532,7.606-5.62c10.066-0.229,20.131-0.564,30.198-0.671c4.307-0.046,8.63,0.246,12.925,0.623
	c2.777,0.244,3.653,1.685,3.237,4.466c-0.88,5.88-3.842,8.806-10.138,9.187c-8.37,0.507-16.761,0.709-25.147,0.918
	c-12.663,0.316-25.232,1.258-37.326,5.395c-11.599,3.968-19.489,11.538-22.706,23.636c-1.272,4.782-2.818,9.491-4.22,14.239
	c-1.322,4.478-2.62,8.964-3.949,13.52c36.877,0,73.466,0,110.112,0c2.427-8.216,4.808-16.272,7.301-24.711
	c-27.07,0-53.641,0-80.357,0c1.359-4.818,4.679-6.957,9.018-7.407c6.032-0.625,12.1-0.945,18.158-1.278
	c11.085-0.61,22.197-0.869,33.256-1.782c8.168-0.675,15.965-2.994,21.698-9.428c9.889-11.097,14.462-24.304,14.64-39.029
	c0.062-5.092-2.645-8.578-7.584-9.836c-4.775-1.216-9.71-1.85-14.602-2.552c-3.436-0.493-6.917-0.672-10.378-0.99
	C979.628,0.152,968.588,0.152,957.548,0.152z"/>
</svg>
