<?xml version="1.0" encoding="utf-8"?>
<!-- Generator: Adobe Illustrator 22.0.1, SVG Export Plug-In . SVG Version: 6.00 Build 0)  -->
<svg version="1.1" id="Layer_1" xmlns="http://www.w3.org/2000/svg" xmlns:xlink="http://www.w3.org/1999/xlink" x="0px" y="0px"
	 viewBox="0 0 100 100" enable-background="new 0 0 100 100" xml:space="preserve">
<path d="M-292.832,583.009c2.278,0,3.649-0.383,4.112-1.152L-277.99,564c0.331-0.958-0.52-1.439-2.555-1.439h-48.97
	c-8.304,0-13.664-0.937-16.08-2.809s-2.472-4.727-0.164-8.567l12.806-21.313c2.133-3.55,5.578-6.336,10.33-8.352
	c4.753-2.017,11.282-3.024,19.585-3.024h74.627l-9.25,13.104h-69.343c-0.977,0-1.829,0.097-2.554,0.288
	c-0.727,0.193-1.205,0.481-1.435,0.863l-9.345,15.553c-0.231,0.385-0.114,0.697,0.354,0.936c0.465,0.241,1.188,0.36,2.165,0.36
	h48.97c8.384,0,13.736,0.985,16.055,2.952c2.317,1.969,2.381,4.776,0.189,8.424l-14.276,23.76
	c-2.308,3.841-5.775,6.696-10.399,8.568c-4.626,1.872-11.132,2.808-19.516,2.808h-75.958l10.677-13.104H-292.832z M-233.161,543.84
	h22.702l-31.408,52.272h-22.461L-233.161,543.84z M-116.222,555.944l-23.938,40.388h-24.25l23.25-37.625
	c0.461-0.768-1.129-1.953-2.626-2.04l-11.874,0.04l-23.25,39.625h-21.25l24.45-39.676h-14.898l-23.708,39.456h-23.691l31.408-52.272
	h73.314C-127.286,543.84-116.222,546.832-116.222,555.944z M-58.998,583.009c2.278,0,3.649-0.383,4.112-1.152L-44.157,564
	c0.331-0.958-0.52-1.439-2.555-1.439h-48.97c-8.304,0-13.664-0.937-16.08-2.809s-2.472-4.727-0.164-8.567l12.806-21.313
	c2.133-3.55,5.578-6.336,10.33-8.352c4.753-2.017,11.282-3.024,19.585-3.024H5.714l-8.875,13.104h-70.01
	c-0.977,0-1.829,0.097-2.554,0.288c-0.727,0.193-1.205,0.481-1.435,0.863l-9.345,15.553c-0.231,0.385-0.114,0.697,0.354,0.936
	c0.465,0.241,1.188,0.36,2.165,0.36h48.97c8.384,0,13.736,0.985,16.055,2.952c2.317,1.969,2.381,4.776,0.189,8.424l-14.276,23.76
	c-2.308,3.841-5.775,6.696-10.399,8.568c-4.626,1.872-11.132,2.808-19.516,2.808h-75.958l10.636-13.104H-58.998z M12.846,523.248
	h23.324l-12.46,20.736h46.527l-7.787,12.96H15.924L0.955,581.856c-0.231,0.385-0.113,0.697,0.354,0.936
	c0.465,0.241,1.188,0.36,2.165,0.36h27.11l-7.787,12.96H-8.221c-8.224,0-13.502-0.936-15.837-2.808
	c-2.337-1.872-2.349-4.728-0.042-8.568L12.846,523.248z M123.267,596.112H64.162c-8.304,0-13.661-0.911-16.063-2.736
	c-2.406-1.822-2.483-4.607-0.233-8.352l18.083-30.096c1.845-3.071,4.719-5.688,8.623-7.849c3.902-2.16,8.988-3.24,15.258-3.24
	h41.887c8.304,0,13.629,0.961,15.976,2.881c2.346,1.921,2.453,4.657,0.319,8.208l-6.143,10.224
	c-2.308,3.841-5.761,6.674-10.356,8.496c-4.597,1.824-11.047,2.736-19.351,2.736H76.625l-3.461,5.76
	c-0.462,0.77,0.408,1.151,2.606,1.151h55.197L123.267,596.112z M87.787,557.809l-3.461,5.76h34.927l3.461-5.76
	c0.461-0.768-0.367-1.152-2.483-1.152H91.166C89.317,556.753,88.19,557.138,87.787,557.809z M211.929,596.112h-59.105
	c-8.304,0-13.661-0.911-16.063-2.736c-2.406-1.822-2.483-4.607-0.233-8.352l18.083-30.096c1.845-3.071,4.719-5.688,8.623-7.849
	c3.902-2.16,8.988-3.24,15.258-3.24h41.887c8.304,0,13.629,0.961,15.976,2.881c2.346,1.921,2.453,4.657,0.319,8.208l-6.143,10.224
	c-2.308,3.841-5.761,6.674-10.356,8.496c-4.597,1.824-11.047,2.736-19.351,2.736h-35.537l-3.461,5.76
	c-0.462,0.77,0.408,1.151,2.606,1.151h55.197L211.929,596.112z M176.449,557.809l-3.461,5.76h34.927l3.461-5.76
	c0.461-0.768-0.367-1.152-2.483-1.152h-29.064C177.979,556.753,176.852,557.138,176.449,557.809z M251.396,546.721
	c4.614-1.92,11.032-2.881,19.255-2.881h47.138l-7.701,12.816h-43.229c-0.978,0-1.83,0.097-2.555,0.288
	c-0.727,0.193-1.205,0.481-1.435,0.864l-23.015,38.304h-23.324l24.746-41.184C243.408,551.378,246.781,548.642,251.396,546.721z
	 M323.228,543.84h23.69l-31.408,52.272h-23.69L323.228,543.84z M425.875,554.929l-24.746,41.184h-23.568l23.015-38.304
	c0.461-0.768-0.367-1.152-2.483-1.152h-31.751l-23.708,39.456h-23.568l31.408-52.272h59.105c8.304,0,13.629,0.961,15.976,2.881
	C427.901,548.642,428.008,551.378,425.875,554.929z M482.443,604.32c-2.307,3.839-5.775,6.696-10.399,8.568
	c-4.626,1.872-11.09,2.808-19.394,2.808h-59.105l7.787-12.96h55.319c2.116,0,3.435-0.432,3.954-1.296l3.201-5.328h-35.537
	c-8.304,0-13.646-0.936-16.02-2.808c-2.376-1.872-2.41-4.728-0.103-8.568l17.738-29.521c2.133-3.55,5.557-6.336,10.269-8.352
	c4.71-2.016,11.221-3.024,19.524-3.024h36.147c8.304,0,13.6,1.009,15.89,3.024c2.289,2.016,2.366,4.802,0.233,8.352L482.443,604.32z
	 M439.965,583.152h31.629l15.055-25.056c0.519-0.864-0.281-1.296-2.397-1.296h-28.453c-2.036,0-3.366,0.384-3.99,1.151
	l-14.363,23.904C436.926,582.721,437.766,583.152,439.965,583.152z M584.794,518.648c-0.596,0.133-1.185,0.339-1.788,0.389
	c-6.369,0.526-12.744,0.983-19.109,1.548c-7.85,0.696-14.197,3.819-18.309,10.955c-4.101,7.116-7.002,14.681-9.276,22.525
	c-0.055,0.189,0.092,0.436,0.151,0.681c9.293,0,18.541,0,27.775,0c0.676-1.68,1.256-3.25,1.933-4.777
	c1.464-3.301,3.74-5.532,7.606-5.62c10.066-0.229,20.131-0.564,30.198-0.671c4.307-0.046,8.63,0.246,12.925,0.623
	c2.777,0.244,3.653,1.685,3.237,4.466c-0.88,5.88-3.842,8.806-10.138,9.187c-8.37,0.507-16.761,0.709-25.147,0.918
	c-12.663,0.316-25.232,1.258-37.326,5.395c-11.599,3.968-19.489,11.538-22.706,23.636c-1.272,4.782-2.818,9.491-4.22,14.239
	c-1.322,4.478-2.62,8.964-3.949,13.52c36.877,0,73.466,0,110.112,0c2.427-8.216,4.808-16.272,7.301-24.711
	c-27.07,0-53.641,0-80.357,0c1.359-4.818,4.679-6.957,9.018-7.407c6.032-0.625,12.1-0.945,18.158-1.278
	c11.085-0.61,22.197-0.869,33.256-1.782c8.168-0.675,15.965-2.994,21.698-9.428c9.889-11.097,14.462-24.304,14.64-39.029
	c0.062-5.092-2.645-8.578-7.584-9.836c-4.775-1.216-9.71-1.85-14.602-2.552c-3.436-0.493-6.917-0.672-10.378-0.99
	C606.874,518.648,595.834,518.648,584.794,518.648z"/>
</svg>
