<?xml version="1.0" encoding="utf-8"?>
<!-- Generator: Adobe Illustrator 22.0.1, SVG Export Plug-In . SVG Version: 6.00 Build 0)  -->
<svg version="1.1" id="Layer_1" xmlns="http://www.w3.org/2000/svg" xmlns:xlink="http://www.w3.org/1999/xlink" x="0px" y="0px"
	 viewBox="0 0 1020.981 235.179" enable-background="new 0 0 1020.981 235.179" xml:space="preserve">
<path fill="#25A9E0" d="M296.05,211.946l11.807,1.46c-1.863,6.898-5.311,12.251-10.347,16.06
	c-5.037,3.809-11.468,5.713-19.297,5.713c-9.861,0-17.678-3.036-23.455-9.108s-8.665-14.589-8.665-25.55
	c0-11.34,2.92-20.143,8.76-26.406c5.84-6.262,13.415-9.395,22.725-9.395c9.014,0,16.377,3.069,22.09,9.204
	c5.713,6.137,8.569,14.77,8.569,25.898c0,0.678-0.022,1.693-0.063,3.047h-50.273c0.422,7.406,2.517,13.076,6.284,17.012
	c3.766,3.936,8.463,5.903,14.092,5.903c4.189,0,7.765-1.1,10.728-3.301C291.966,220.284,294.314,216.771,296.05,211.946z
	 M258.536,193.475h37.642c-0.508-5.67-1.947-9.923-4.316-12.759c-3.64-4.4-8.358-6.602-14.155-6.602
	c-5.248,0-9.659,1.757-13.235,5.269C260.894,182.896,258.917,187.594,258.536,193.475z"/>
<path fill="#25A9E0" d="M313.549,233.655v-93.057h11.426v93.057H313.549z"/>
<path fill="#25A9E0" d="M379.732,211.946l11.807,1.46c-1.863,6.898-5.311,12.251-10.347,16.06
	c-5.037,3.809-11.468,5.713-19.297,5.713c-9.861,0-17.678-3.036-23.455-9.108s-8.665-14.589-8.665-25.55
	c0-11.34,2.92-20.143,8.76-26.406c5.84-6.262,13.415-9.395,22.725-9.395c9.014,0,16.377,3.069,22.09,9.204
	c5.713,6.137,8.569,14.77,8.569,25.898c0,0.678-0.022,1.693-0.063,3.047h-50.273c0.422,7.406,2.517,13.076,6.284,17.012
	c3.766,3.936,8.463,5.903,14.092,5.903c4.189,0,7.765-1.1,10.728-3.301C375.648,220.284,377.996,216.771,379.732,211.946z
	 M342.217,193.475h37.642c-0.508-5.67-1.947-9.923-4.316-12.759c-3.64-4.4-8.358-6.602-14.155-6.602
	c-5.248,0-9.659,1.757-13.235,5.269C344.576,182.896,342.598,187.594,342.217,193.475z"/>
<path fill="#25A9E0" d="M444.073,208.963l11.235,1.46c-1.228,7.744-4.37,13.807-9.426,18.187c-5.057,4.38-11.267,6.569-18.63,6.569
	c-9.226,0-16.642-3.015-22.249-9.045c-5.608-6.03-8.411-14.673-8.411-25.931c0-7.277,1.206-13.647,3.618-19.106
	s6.083-9.553,11.013-12.282c4.929-2.729,10.293-4.095,16.091-4.095c7.321,0,13.308,1.852,17.964,5.555
	c4.655,3.703,7.638,8.961,8.95,15.773l-11.108,1.714c-1.058-4.527-2.931-7.935-5.618-10.22c-2.688-2.285-5.935-3.428-9.744-3.428
	c-5.755,0-10.432,2.063-14.028,6.189c-3.597,4.126-5.396,10.654-5.396,19.582c0,9.057,1.735,15.638,5.205,19.741
	c3.469,4.105,7.998,6.157,13.584,6.157c4.485,0,8.23-1.374,11.235-4.126C441.365,218.908,443.269,214.676,444.073,208.963z"/>
<path fill="#25A9E0" d="M486.531,223.436l1.65,10.093c-3.216,0.677-6.094,1.016-8.633,1.016c-4.148,0-7.363-0.656-9.648-1.968
	c-2.285-1.311-3.894-3.036-4.824-5.173c-0.931-2.137-1.396-6.634-1.396-13.489V175.13H455.3v-8.887h8.379v-16.694l11.362-6.855
	v23.55h11.489v8.887h-11.489v39.419c0,3.26,0.2,5.354,0.603,6.284c0.402,0.932,1.057,1.673,1.968,2.222
	c0.91,0.551,2.211,0.825,3.904,0.825C482.786,223.88,484.457,223.732,486.531,223.436z"/>
<path fill="#25A9E0" d="M491.175,233.655v-67.412h10.283v10.22c2.624-4.781,5.046-7.935,7.268-9.458s4.665-2.285,7.331-2.285
	c3.851,0,7.766,1.229,11.743,3.682l-3.936,10.601c-2.793-1.65-5.586-2.476-8.379-2.476c-2.497,0-4.739,0.752-6.729,2.254
	s-3.406,3.586-4.252,6.252c-1.27,4.063-1.904,8.506-1.904,13.33v35.293H491.175z"/>
<path fill="#25A9E0" d="M532.34,199.949c0-12.482,3.47-21.729,10.41-27.739c5.797-4.992,12.864-7.49,21.201-7.49
	c9.268,0,16.842,3.037,22.725,9.109c5.882,6.072,8.823,14.463,8.823,25.168c0,8.676-1.302,15.499-3.903,20.472
	c-2.604,4.973-6.391,8.834-11.363,11.584c-4.973,2.751-10.399,4.126-16.281,4.126c-9.438,0-17.065-3.024-22.883-9.077
	C535.249,220.051,532.34,211.334,532.34,199.949z M544.083,199.949c0,8.633,1.883,15.098,5.649,19.393
	c3.766,4.295,8.506,6.442,14.219,6.442c5.67,0,10.389-2.158,14.155-6.475c3.766-4.316,5.649-10.896,5.649-19.741
	c0-8.336-1.895-14.652-5.682-18.947s-8.495-6.443-14.123-6.443c-5.713,0-10.453,2.138-14.219,6.411
	C545.966,184.864,544.083,191.316,544.083,199.949z"/>
<path fill="#25A9E0" d="M600.692,233.655v-67.412h10.283v9.585c4.951-7.404,12.103-11.108,21.455-11.108
	c4.063,0,7.797,0.73,11.204,2.19c3.405,1.46,5.955,3.375,7.648,5.744c1.692,2.371,2.877,5.185,3.555,8.442
	c0.423,2.117,0.635,5.819,0.635,11.108v41.45h-11.426v-41.006c0-4.654-0.444-8.135-1.333-10.441s-2.466-4.147-4.729-5.522
	s-4.919-2.063-7.966-2.063c-4.867,0-9.067,1.546-12.601,4.634c-3.533,3.09-5.3,8.95-5.3,17.583v36.816H600.692z"/>
<path fill="#25A9E0" d="M660.156,153.738v-13.14h11.426v13.14H660.156z M660.156,233.655v-67.412h11.426v67.412H660.156z"/>
<path fill="#25A9E0" d="M723.764,208.963l11.235,1.46c-1.228,7.744-4.37,13.807-9.427,18.187s-11.267,6.569-18.63,6.569
	c-9.226,0-16.642-3.015-22.249-9.045s-8.41-14.673-8.41-25.931c0-7.277,1.206-13.647,3.618-19.106s6.083-9.553,11.013-12.282
	s10.294-4.095,16.092-4.095c7.32,0,13.309,1.852,17.964,5.555c4.654,3.703,7.638,8.961,8.95,15.773l-11.108,1.714
	c-1.059-4.527-2.931-7.935-5.618-10.22s-5.935-3.428-9.743-3.428c-5.756,0-10.432,2.063-14.028,6.189
	c-3.598,4.126-5.396,10.654-5.396,19.582c0,9.057,1.734,15.638,5.205,19.741c3.47,4.105,7.998,6.157,13.584,6.157
	c4.485,0,8.23-1.374,11.235-4.126C721.055,218.908,722.959,214.676,723.764,208.963z"/>
<path fill="#25A9E0" d="M737.304,213.533l11.299-1.777c0.635,4.529,2.401,7.998,5.3,10.41s6.951,3.618,12.156,3.618
	c5.247,0,9.141-1.068,11.68-3.205s3.809-4.644,3.809-7.522c0-2.58-1.122-4.611-3.364-6.094c-1.566-1.016-5.459-2.306-11.68-3.872
	c-8.379-2.115-14.187-3.945-17.425-5.49c-3.236-1.545-5.691-3.682-7.363-6.411s-2.507-5.745-2.507-9.046
	c0-3.004,0.688-5.786,2.063-8.347c1.374-2.561,3.247-4.687,5.617-6.38c1.777-1.311,4.199-2.422,7.268-3.332s6.358-1.365,9.871-1.365
	c5.289,0,9.934,0.762,13.934,2.285c3.998,1.523,6.95,3.587,8.854,6.189s3.216,6.084,3.936,10.441l-11.172,1.523
	c-0.508-3.469-1.979-6.178-4.411-8.125c-2.435-1.945-5.872-2.92-10.315-2.92c-5.248,0-8.993,0.868-11.235,2.603
	c-2.243,1.736-3.364,3.768-3.364,6.094c0,1.482,0.465,2.815,1.396,3.999c0.931,1.229,2.391,2.244,4.38,3.047
	c1.143,0.424,4.507,1.396,10.093,2.92c8.082,2.158,13.721,3.926,16.917,5.301c3.194,1.375,5.701,3.375,7.521,5.998
	c1.819,2.625,2.729,5.883,2.729,9.775c0,3.809-1.11,7.396-3.333,10.76c-2.221,3.364-5.427,5.967-9.616,7.808
	s-8.93,2.761-14.219,2.761c-8.76,0-15.436-1.818-20.026-5.459C741.503,226.081,738.574,220.686,737.304,213.533z"/>
<rect fill="#25A9E0" width="235.179" height="235.179"/>
<path fill="#FFFFFF" d="M235.179,60.135l-108.61,0c-4.877-26.438-28.032-46.472-55.881-46.472
	c-31.393,0-56.842,25.449-56.842,56.842s25.449,56.843,56.842,56.843c27.759,0,50.856-19.903,55.835-46.213l108.656,0V60.135z"/>
<path fill="#FFFFFF" d="M164.821,107.704c-27.804,0-50.93,19.968-55.858,46.343H0v21h108.963
	c4.928,26.375,28.054,46.342,55.858,46.342c31.393,0,56.842-25.449,56.842-56.842S196.214,107.704,164.821,107.704z"/>
<circle fill="#25A9E0" cx="164.821" cy="164.546" r="36.438"/>
<circle fill="#25A9E0" cx="70.688" cy="70.506" r="36.438"/>
<g>
	<path fill="#FFFFFF" d="M248.362,122.451V0h17.051v108.001h63.457v14.45H248.362z"/>
	<path fill="#FFFFFF" d="M394.668,93.885l16.348,1.921c-2.579,9.077-7.354,16.121-14.326,21.132
		c-6.974,5.012-15.879,7.517-26.719,7.517c-13.653,0-24.478-3.995-32.476-11.986c-7.998-7.99-11.997-19.197-11.997-33.62
		c0-14.923,4.043-26.506,12.129-34.747c8.086-8.24,18.574-12.362,31.465-12.362c12.48,0,22.676,4.038,30.586,12.111
		c7.91,8.075,11.865,19.435,11.865,34.079c0,0.891-0.03,2.228-0.088,4.009h-69.609c0.585,9.745,3.485,17.207,8.701,22.385
		c5.214,5.179,11.718,7.768,19.512,7.768c5.801,0,10.751-1.447,14.854-4.343C389.013,104.856,392.265,100.233,394.668,93.885z
		 M342.725,69.578h52.119c-0.703-7.461-2.696-13.058-5.977-16.789c-5.04-5.791-11.573-8.687-19.6-8.687
		c-7.266,0-13.375,2.311-18.325,6.933C345.99,55.658,343.252,61.839,342.725,69.578z"/>
	<path fill="#FFFFFF" d="M408.61,78.098c0-16.426,4.804-28.594,14.414-36.502c8.027-6.57,17.812-9.856,29.355-9.856
		c12.832,0,23.32,3.996,31.465,11.986c8.144,7.991,12.217,19.031,12.217,33.119c0,11.416-1.802,20.395-5.405,26.938
		c-3.604,6.544-8.848,11.625-15.732,15.244c-6.886,3.619-14.4,5.429-22.544,5.429c-13.067,0-23.629-3.981-31.685-11.944
		C412.638,104.549,408.61,93.078,408.61,78.098z M424.87,78.098c0,11.36,2.606,19.867,7.822,25.518
		c5.214,5.652,11.777,8.478,19.688,8.478c7.851,0,14.384-2.84,19.6-8.52c5.214-5.68,7.822-14.338,7.822-25.977
		c0-10.969-2.623-19.28-7.866-24.933c-5.245-5.651-11.764-8.478-19.556-8.478c-7.91,0-14.473,2.813-19.688,8.436
		C427.477,58.247,424.87,66.739,424.87,78.098z"/>
	<path fill="#FFFFFF" d="M533.175,122.451V0h48.34c9.844,0,17.738,1.24,23.686,3.717c5.947,2.478,10.605,6.293,13.975,11.443
		c3.369,5.151,5.055,10.539,5.055,16.163c0,5.235-1.494,10.163-4.482,14.784c-2.988,4.623-7.502,8.353-13.535,11.193
		c7.791,2.172,13.783,5.876,17.973,11.109c4.189,5.235,6.285,11.416,6.285,18.543c0,5.736-1.275,11.067-3.824,15.996
		s-5.699,8.729-9.447,11.402c-3.75,2.673-8.453,4.691-14.107,6.056c-5.654,1.365-12.582,2.046-20.785,2.046H533.175z
		 M550.226,51.453h27.861c7.559,0,12.977-0.472,16.26-1.42c4.336-1.224,7.602-3.258,9.799-6.098s3.297-6.403,3.297-10.692
		c0-4.064-1.025-7.643-3.076-10.733c-2.053-3.091-4.98-5.206-8.789-6.348c-3.811-1.141-10.342-1.712-19.6-1.712h-25.752V51.453z
		 M550.226,108.001h32.08c5.506,0,9.373-0.194,11.602-0.585c3.924-0.668,7.207-1.781,9.844-3.341
		c2.637-1.558,4.803-3.828,6.504-6.807c1.699-2.978,2.549-6.417,2.549-10.316c0-4.565-1.23-8.533-3.691-11.903
		c-2.461-3.368-5.875-5.735-10.24-7.1c-4.365-1.364-10.648-2.046-18.852-2.046h-29.795V108.001z"/>
	<path fill="#FFFFFF" d="M629.646,78.098c0-16.426,4.804-28.594,14.414-36.502c8.027-6.57,17.812-9.856,29.355-9.856
		c12.832,0,23.32,3.996,31.465,11.986c8.144,7.991,12.217,19.031,12.217,33.119c0,11.416-1.802,20.395-5.405,26.938
		c-3.604,6.544-8.848,11.625-15.732,15.244c-6.886,3.619-14.4,5.429-22.544,5.429c-13.066,0-23.629-3.981-31.685-11.944
		C633.674,104.549,629.646,93.078,629.646,78.098z M645.905,78.098c0,11.36,2.606,19.867,7.822,25.518
		c5.215,5.652,11.777,8.478,19.688,8.478c7.852,0,14.384-2.84,19.6-8.52c5.215-5.68,7.822-14.338,7.822-25.977
		c0-10.969-2.623-19.28-7.866-24.933c-5.244-5.651-11.764-8.478-19.556-8.478c-7.91,0-14.473,2.813-19.688,8.436
		C648.512,58.247,645.905,66.739,645.905,78.098z"/>
	<path fill="#FFFFFF" d="M779.818,122.451v-11.193c-5.919,8.799-14.62,13.197-26.104,13.197c-7.441,0-14.282-1.95-20.522-5.847
		c-6.24-3.897-11.074-9.341-14.502-16.33c-3.428-6.988-5.142-15.021-5.142-24.098c0-8.854,1.552-16.886,4.658-24.098
		c3.105-7.211,7.764-12.738,13.975-16.58c6.21-3.842,13.153-5.763,20.83-5.763c5.625,0,10.635,1.128,15.029,3.383
		s7.968,5.193,10.723,8.812V0h15.732v122.451H779.818z M729.809,78.182c0,11.36,2.519,19.852,7.559,25.476
		c5.039,5.625,10.986,8.436,17.842,8.436c6.913,0,12.788-2.686,17.622-8.06c4.834-5.373,7.251-13.573,7.251-24.599
		c0-12.139-2.461-21.049-7.383-26.729s-10.986-8.52-18.193-8.52c-7.031,0-12.906,2.729-17.622,8.186
		C732.167,57.83,729.809,66.433,729.809,78.182z"/>
	<path fill="#FFFFFF" d="M802.989,122.451V33.745h14.238v12.613c6.855-9.744,16.757-14.617,29.707-14.617
		c5.625,0,10.796,0.961,15.513,2.882c4.716,1.921,8.247,4.441,10.591,7.559c2.343,3.119,3.984,6.822,4.922,11.109
		c0.585,2.785,0.879,7.657,0.879,14.617v54.543h-15.82V68.493c0-6.125-0.615-10.705-1.846-13.74
		c-1.23-3.034-3.414-5.457-6.548-7.267c-3.135-1.809-6.812-2.715-11.03-2.715c-6.738,0-12.555,2.033-17.446,6.098
		c-4.893,4.065-7.339,11.777-7.339,23.137v48.446H802.989z"/>
	<path fill="#FFFFFF" d="M947.625,111.509c-5.859,4.734-11.5,8.075-16.919,10.023c-5.42,1.948-11.236,2.923-17.446,2.923
		c-10.254,0-18.136-2.381-23.643-7.142c-5.508-4.761-8.262-10.844-8.262-18.251c0-4.343,1.04-8.311,3.12-11.903
		c2.079-3.592,4.804-6.473,8.174-8.645c3.369-2.172,7.163-3.813,11.382-4.928c3.105-0.779,7.792-1.531,14.063-2.255
		c12.773-1.447,22.178-3.174,28.213-5.179c0.058-2.059,0.088-3.368,0.088-3.926c0-6.125-1.494-10.441-4.482-12.947
		c-4.043-3.396-10.05-5.095-18.018-5.095c-7.441,0-12.935,1.24-16.479,3.717c-3.546,2.478-6.167,6.864-7.866,13.156l-15.469-2.005
		c1.406-6.292,3.721-11.373,6.943-15.244c3.222-3.87,7.88-6.849,13.975-8.937c6.094-2.088,13.153-3.132,21.182-3.132
		c7.968,0,14.443,0.891,19.424,2.673c4.979,1.783,8.643,4.024,10.986,6.724c2.343,2.702,3.984,6.112,4.922,10.232
		c0.527,2.562,0.791,7.183,0.791,13.866v20.047c0,13.978,0.337,22.817,1.011,26.52c0.673,3.704,2.007,7.254,3.999,10.65h-16.523
		C949.148,119.334,948.094,115.686,947.625,111.509z M946.307,77.931c-5.743,2.228-14.356,4.122-25.84,5.68
		c-6.504,0.891-11.104,1.894-13.799,3.007c-2.695,1.115-4.776,2.743-6.24,4.886c-1.465,2.144-2.197,4.525-2.197,7.142
		c0,4.009,1.596,7.35,4.79,10.023c3.193,2.673,7.866,4.009,14.019,4.009c6.094,0,11.514-1.266,16.26-3.801
		c4.746-2.533,8.231-6,10.459-10.399c1.699-3.396,2.549-8.408,2.549-15.035V77.931z"/>
	<path fill="#FFFFFF" d="M970.269,122.451V33.745h14.238v13.448c3.633-6.292,6.987-10.441,10.063-12.446s6.46-3.007,10.151-3.007
		c5.331,0,10.752,1.616,16.26,4.845l-5.449,13.949c-3.867-2.172-7.734-3.258-11.602-3.258c-3.458,0-6.563,0.989-9.316,2.965
		c-2.755,1.977-4.717,4.719-5.889,8.227c-1.758,5.346-2.637,11.193-2.637,17.541v46.441H970.269z"/>
</g>
</svg>
