<?xml version="1.0" encoding="utf-8"?>
<!-- Generator: Adobe Illustrator 22.0.1, SVG Export Plug-In . SVG Version: 6.00 Build 0)  -->
<svg version="1.1" id="Layer_1" xmlns="http://www.w3.org/2000/svg" xmlns:xlink="http://www.w3.org/1999/xlink" x="0px" y="0px"
	 viewBox="0 0 69.5473 99.9335" enable-background="new 0 0 69.5473 99.9335" xml:space="preserve">
<path d="M62.2465,5.8367C58.3453,1.9556,52.8731,0,46.2229,0H20.9261C7.0406,0,0,9.3391,0,27.7578v8.5768
	C0,47.7791,2.5414,55.728,7.4611,60.6221c3.9013,3.881,9.2131,5.8685,15.8633,5.8685h15.9803
	c-0.7579,5.623-3.491,8.3735-8.2993,8.3735H5.1878v25.0694h43.4334c13.8856,0,20.9262-9.3391,20.9262-27.7578V30.1561
	C69.5473,18.7115,67.1662,10.7308,62.2465,5.8367z M39.5262,41.3548h-5.9516c-0.7645,0-1.7715,0.1655-2.4057-0.4346
	c-1.1332-1.0722-1.1477-3.4599-1.1477-6.509c0-8.3139,3.3967-9.2754,5.9517-9.2754c0.7645,0,1.7715-0.1655,2.4057,0.4346
	c1.1332,1.0722,1.1477,3.4599,1.1477,6.509V41.3548z"/>
<path fill="#FFFFFF" d="M1.163,27.7578c0-17.729,6.5877-26.5947,19.7631-26.5947h25.2968c13.1748,0,19.7631,8.8657,19.7631,26.5947
	v42.0197c0,17.7298-6.5883,26.5947-19.7631,26.5947H6.3509v-20.345h24.6545c6.4554,0,9.6839-4.3652,9.6839-13.0979H20.9261
	c-13.1754,0-19.7631-8.8649-19.7631-26.5947C1.163,36.3346,1.163,27.7578,1.163,27.7578z M33.5745,42.5179h7.1147V32.0794
	c0-7.0033-2.3716-10.5049-7.1147-10.5049s-7.1147,3.4802-7.1147,10.4384C26.4598,39.017,28.8314,42.5179,33.5745,42.5179z"/>
</svg>
