<?xml version="1.0" encoding="utf-8"?>
<!-- Generator: Adobe Illustrator 22.0.1, SVG Export Plug-In . SVG Version: 6.00 Build 0)  -->
<svg version="1.1" id="Layer_1" xmlns="http://www.w3.org/2000/svg" xmlns:xlink="http://www.w3.org/1999/xlink" x="0px" y="0px"
	 viewBox="0 0 140.6406 64.4058" enable-background="new 0 0 140.6406 64.4058" xml:space="preserve">
<path d="M67.3584,38.0493c0,1.6855-0.29,3.6865-0.8691,6.0039l-0.1582,0.6318c-1.2637,5.1094-3.7656,8.9541-7.5049,11.5342
	c-4.0029,2.792-9.875,4.1865-17.6172,4.1865H27.1475c-7.4795,0-13.207-1.6592-17.1826-4.9766C5.9873,52.1108,4,47.187,4,40.6558
	c0-3.792,0.7109-8.123,2.1328-12.9951c1.4219-4.8706,3.1865-8.9136,5.293-12.1265c2.6865-4.2129,6.1885-7.189,10.5078-8.9268
	C26.251,4.8691,31.9395,4,38.9971,4h28.3613l-3.2393,11.5342H37.9697c-5.1084,0-8.9795,0.7642-11.6123,2.291
	c-2.6348,1.5283-4.582,4.3452-5.8467,8.4526c3.6865-0.79,8.2959-1.1846,13.8252-1.1846h15.7998
	c6.3721,0,10.9814,1.3701,13.8252,4.1074C66.2246,31.3608,67.3584,34.3101,67.3584,38.0493z M53.7705,40.4194
	c0-1.5273-0.502-2.6338-1.501-3.3184c-1.0547-0.7373-2.8975-1.1064-5.5303-1.1064h-15.958c-4.1611,0-8.4014,0.3164-12.7188,0.9482
	c-0.1582,1.1592-0.2373,2.2393-0.2373,3.2393c0,3.1084,0.9082,5.293,2.7256,6.5566c1.8164,1.2646,4.9102,1.8965,9.2822,1.8965
	h10.9814c4.2656,0,7.3193-0.4209,9.1641-1.2646c1.7891-0.79,2.9229-2.2119,3.3965-4.2656l0.1582-0.6318
	C53.6914,41.7358,53.7705,41.0513,53.7705,40.4194z M21.6935,45.0974c1.0077,0.7015,3.2377,1.5378,8.1395,1.5378h10.9814
	c4.9288,0,7.2516-0.5892,8.3561-1.0942c1.2078-0.5333,1.9246-1.4503,2.2643-2.9218l0.1496-0.5975
	c0.1235-0.5839,0.186-1.1229,0.186-1.6023c0-1.2358-0.4588-1.5502-0.6469-1.6792c-0.3207-0.2242-1.3899-0.7456-4.3844-0.7456
	h-15.958c-3.5522,0-7.2108,0.2407-10.8976,0.7163c-0.0389,0.5126-0.0585,1.0043-0.0585,1.4712
	C19.8252,42.6154,20.436,44.223,21.6935,45.0974z M30.7813,39.9946h15.958c1.7511,0,2.6448,0.1941,3.029,0.3137
	c0.0014,0.0333,0.0023,0.0703,0.0023,0.1111c0,0.332-0.0456,0.72-0.1356,1.1541l-0.1401,0.5599l-0.0091,0.0363l-0.0084,0.0364
	c-0.2401,1.041-0.6823,1.3145-1.1146,1.5054l-0.024,0.0106l-0.0239,0.0109c-0.7367,0.337-2.6907,0.9022-7.5003,0.9022H29.833
	c-4.7863,0-6.4874-0.8246-6.9966-1.1792c-0.7639-0.5311-0.976-1.8455-1.0069-2.963C24.8579,40.1619,27.8574,39.9946,30.7813,39.9946
	z M50.1357,21.0933H34.3359c-2.0893,0-4.0677,0.0558-5.928,0.167c1.392-0.7935,4.175-1.7261,9.5618-1.7261h26.1494h3.0314
	l0.8196-2.9185l3.2393-11.5341L72.6365,0h-5.2781H38.9971c-7.6458,0-13.7159,0.9476-18.5574,2.8969
	c-5.079,2.0435-9.2422,5.5648-12.3729,10.4653c-2.3077,3.5259-4.2503,7.9594-5.7736,13.1776C0.7715,31.7535,0,36.5027,0,40.6558
	c0,7.7432,2.4905,13.747,7.4024,17.8449c4.6957,3.9182,11.339,5.9051,19.7451,5.9051H41.209c8.6616,0,15.1727-1.6047,19.9055-4.9057
	c4.5333-3.1279,7.6004-7.7932,9.0995-13.8547l0.1555-0.6207c0.6656-2.6634,0.9889-4.9445,0.9889-6.9754
	c0-4.8562-1.5598-8.8069-4.6359-11.7425C63.1326,22.8514,57.5479,21.0933,50.1357,21.0933z M68.4294,44.539l-0.1568,0.6262
	c-1.3784,5.5734-4.1745,9.8463-8.3022,12.6944c-4.325,3.0166-10.6371,4.5461-18.7614,4.5461H27.1475
	c-7.9251,0-14.1373-1.8306-18.4638-5.4409C4.2487,53.265,2,47.7778,2,40.6558c0-3.9633,0.7445-8.524,2.213-13.5556
	c1.4709-5.0385,3.3349-9.2988,5.5266-12.6414c2.9034-4.553,6.7549-7.8188,11.4471-9.7067C25.7224,2.926,31.7147,2,38.9971,2h28.3613
	h2.639l-0.7135,2.5408L66.0447,16.075l-0.4099,1.4592h-1.5157H37.9697c-4.7271,0-8.2964,0.68-10.6088,2.021
	c-1.4615,0.8478-2.6923,2.2398-3.678,4.1547c3.0923-0.4097,6.6591-0.6166,10.653-0.6166h15.7998
	c6.8772,0,11.9953,1.57,15.2059,4.6605c2.6653,2.5434,4.0167,6.0073,4.0167,10.2955C69.3584,39.8887,69.0459,42.0718,68.4294,44.539
	z M75.0205,48.4771h38.0781c3.7393,0,5.8984-1.4219,6.4785-4.2656l0.1582-0.79c0.1572-0.79,0.2363-1.5273,0.2363-2.2119
	c0-1.5273-0.4736-2.5684-1.4219-3.1211s-2.4756-0.8291-4.582-0.8291H87.5029l2.291-10.9814h26.3066
	c2.2119,0,3.7783-0.2373,4.7012-0.7109c0.9209-0.4736,1.5918-1.4478,2.0137-2.9229c0.2637-1.0527,0.3955-2.0537,0.3955-3.002
	c0-1.4736-0.3691-2.5278-1.1064-3.1597c-0.7373-0.6323-2.0273-0.9482-3.8701-0.9482h-35.708L84.9746,4h32.3906
	c4.1074,0,7.333,0.2642,9.6768,0.79c2.3428,0.5273,4.2783,1.3965,5.8066,2.6074c1.2646,1.001,2.2119,2.3301,2.8447,3.9893
	c0.6318,1.6592,0.9473,3.4897,0.9473,5.4907c0,3.002-0.54,5.8062-1.6191,8.4131c-1.0801,2.6074-2.6738,4.833-4.7793,6.6758
	c2.3701,2.0537,3.5547,5.0039,3.5547,8.8477c0,1.4756-0.1582,3.002-0.4736,4.582c-0.4229,2.4766-1.1455,4.6885-2.1729,6.6357
	c-1.0273,1.9492-2.3301,3.4766-3.9102,4.582c-1.7383,1.2646-3.8711,2.1465-6.3994,2.6465c-2.5283,0.501-5.8994,0.751-10.1123,0.751
	H72.5723L75.0205,48.4771z M140.6406,16.8774c0-2.4811-0.4068-4.8074-1.2091-6.9142c-0.8909-2.3357-2.2701-4.2536-4.1004-5.7022
	c-1.9942-1.5801-4.488-2.7155-7.4107-3.3734C125.2574,0.2902,121.8056,0,117.3652,0H84.9746h-3.2401l-0.6727,3.1694l-2.4482,11.5342
	l-1.0253,4.8306h4.9381h35.708c0.4216,0,0.7413,0.0223,0.9762,0.0502c0.0002,0.0187,0.0004,0.0379,0.0004,0.0577
	c0,0.5975-0.087,1.2571-0.2587,1.9617c-0.064,0.2141-0.124,0.3624-0.1696,0.4595c-0.3275,0.0782-1.1191,0.2146-2.682,0.2146H89.7939
	h-3.2516l-0.6641,3.1831l-2.291,10.9814l-1.0049,4.817h4.9206h26.4648c0.959,0,1.5975,0.0701,2.0003,0.142
	c-0.0136,0.3715-0.0659,0.7874-0.1558,1.2394l-0.1573,0.7854c-0.0889,0.4354-0.2144,1.051-2.5564,1.051H75.0205h-3.2401
	l-0.6728,3.1694l-2.4482,11.5342l-1.0253,4.8305h4.9381h38.1563c4.5184,0,8.0804-0.2706,10.8898-0.8273
	c3.075-0.6081,5.7484-1.7231,7.9453-3.314c2.0848-1.4663,3.8091-3.4758,5.1254-5.9732c1.2092-2.2922,2.0734-4.9076,2.5678-7.7731
	c0.3584-1.8127,0.54-3.5988,0.54-5.3097c0-3.3676-0.7417-6.2686-2.211-8.6693c1.2799-1.6038,2.3279-3.3842,3.1311-5.3234
	C139.9936,23.7374,140.6406,20.392,140.6406,16.8774z M136.8693,26.0559c-0.9238,2.23-2.2027,4.2285-3.8137,5.9634
	c1.8206,2.2872,2.7413,5.2355,2.7413,8.7947c0,1.5888-0.1705,3.2529-0.5069,4.9465c-0.4581,2.6672-1.2556,5.0911-2.3703,7.2038
	c-1.1728,2.2252-2.6979,4.0044-4.5028,5.2668c-1.9661,1.4304-4.3845,2.4368-7.1873,2.9911
	c-2.6426,0.5236-6.1757,0.7891-10.501,0.7891H72.5723h-2.4691l0.5126-2.4153l2.4482-11.5342l0.3364-1.5847h1.6201h38.0781
	c3.5029,0,4.2501-1.3474,4.5175-2.6583l0.1577-0.7877c0.1313-0.6597,0.1979-1.2726,0.1979-1.8215
	c0-0.5215-0.0744-1.1865-0.429-1.3932c-0.3569-0.208-1.2958-0.5569-3.5749-0.5569H87.5029h-2.4603l0.5025-2.4084l2.291-10.9814
	l0.332-1.5916h1.6258h26.3066c2.5567,0,3.5007-0.3429,3.7864-0.4895c0.3893-0.2002,0.7427-0.7903,0.9966-1.6633
	c0.2172-0.877,0.3273-1.7122,0.3273-2.483c0-0.8087-0.1525-1.4222-0.4084-1.6415c-0.0908-0.0779-0.6415-0.4664-2.5682-0.4664
	h-35.708h-2.4691l0.5126-2.4153l2.4482-11.5342L83.3546,2h1.6201h32.3906c4.2913,0,7.5998,0.2743,10.116,0.8389
	c2.6273,0.5914,4.851,1.5977,6.6087,2.9904c1.5439,1.222,2.7122,2.8521,3.4725,4.8457c0.7155,1.8788,1.0782,3.9656,1.0782,6.2025
	C138.6406,20.1282,138.0447,23.2162,136.8693,26.0559z"/>
</svg>
