<?xml version="1.0" encoding="utf-8"?>
<!-- Generator: Adobe Illustrator 22.0.1, SVG Export Plug-In . SVG Version: 6.00 Build 0)  -->
<svg version="1.1" id="Layer_1" xmlns="http://www.w3.org/2000/svg" xmlns:xlink="http://www.w3.org/1999/xlink" x="0px" y="0px"
	 viewBox="0 0 140.4177 64.4058" enable-background="new 0 0 140.4177 64.4058" xml:space="preserve">
<path d="M62.6716,8.9771c3.9756,3.3184,5.9648,8.2432,5.9648,14.7729c0,3.7915-0.7109,8.1245-2.1328,12.9956
	c-1.4229,4.8721-3.1875,8.9141-5.293,12.126c-2.6865,4.2148-6.1895,7.1895-10.5078,8.9277
	c-4.3184,1.7373-10.0068,2.6064-17.0635,2.6064H5.2781l3.2393-11.5342h26.1494c5.1074,0,8.9785-0.7627,11.6123-2.291
	c2.6328-1.5264,4.582-4.3447,5.8467-8.4521c-3.6875,0.79-8.2959,1.1846-13.8252,1.1846H22.5007
	c-6.374,0-10.9814-1.3691-13.8252-4.1084c-2.2656-2.1582-3.3975-5.1074-3.3975-8.8477c0-1.6846,0.2891-3.6855,0.8691-6.0039
	l0.1582-0.6318c1.2637-5.1079,3.7646-8.9531,7.5049-11.5342C17.8123,5.3965,23.6853,4,31.4275,4H45.489
	C52.9675,4,58.6951,5.6592,62.6716,8.9771z M41.8552,28.4106c4.1602,0,8.4004-0.3154,12.7188-0.9473
	c0.1582-1.2109,0.2373-2.291,0.2373-3.2393c0-3.1069-0.9082-5.293-2.7256-6.5571c-1.8174-1.2637-4.9111-1.896-9.2822-1.896H31.822
	c-4.2656,0-7.3213,0.4224-9.1641,1.2642c-1.791,0.79-2.9229,2.2119-3.3965,4.2661l-0.1582,0.6318
	c-0.1582,0.6851-0.2373,1.3701-0.2373,2.0542c0,1.5278,0.5,2.6343,1.501,3.3179c1.0537,0.7383,2.8965,1.1055,5.5303,1.1055H41.8552z
	 M21.5146,25.6672c0.319,0.2236,1.3847,0.7435,4.3826,0.7435h15.958c3.5538,0,7.2117-0.2404,10.8947-0.715
	c0.0408-0.528,0.0614-1.0198,0.0614-1.4715c0-2.4333-0.6109-4.0411-1.8674-4.9151c-1.0091-0.7017-3.2405-1.538-8.1404-1.538H31.822
	c-4.9272,0-7.2512,0.5891-8.3569,1.094c-1.2072,0.5325-1.9236,1.4495-2.2635,2.922l-0.1496,0.5961
	c-0.1234,0.5345-0.186,1.0742-0.186,1.6042C20.866,25.2241,21.3067,25.525,21.5146,25.6672z M22.9938,22.8636l0.1479-0.5908
	l0.0091-0.0363L23.1592,22.2c0.2402-1.0417,0.6816-1.3147,1.1131-1.5051l0.0239-0.0105l0.0237-0.0109
	c0.5941-0.2714,2.5142-0.9025,7.502-0.9025h10.9814c4.7849,0,6.4884,0.8253,6.9987,1.1801
	c0.7618,0.5299,0.9739,1.8443,1.0049,2.9618c-3.0268,0.3307-6.0259,0.4977-8.9518,0.4977h-15.958
	c-1.7681,0-2.6503-0.1907-3.0289-0.3099c-0.0014-0.0339-0.0023-0.0717-0.0023-0.1135
	C22.866,23.6185,22.9089,23.2407,22.9938,22.8636z M65.2349,5.9062C60.5375,1.9869,53.8943,0,45.489,0H31.4275
	c-8.6598,0-15.1708,1.6047-19.905,4.9059c-4.5334,3.1284-7.6005,7.7935-9.1,13.8547L2.267,19.3815
	c-0.6655,2.6597-0.989,4.9412-0.989,6.9755c0,4.8607,1.5606,8.812,4.6385,11.7439c3.585,3.4534,9.1701,5.2122,16.5841,5.2122
	h15.7998c2.0889,0,4.067-0.0558,5.9272-0.167c-1.3931,0.794-4.175,1.7256-9.561,1.7256H8.5173H5.486L4.6663,47.79L1.4271,59.3242
	L0,64.4058h5.2781h28.3613c7.6436,0,13.7134-0.9471,18.5565-2.8955c5.0829-2.046,9.2459-5.5677,12.3747-10.468
	c2.3069-3.5253,4.249-7.9578,5.7727-13.1754c1.5217-5.2131,2.2932-9.9626,2.2932-14.1169
	C72.6365,16.0092,70.1462,10.0057,65.2349,5.9062z M68.4235,37.3063c-1.4714,5.0384-3.3354,9.2984-5.5262,12.6403
	c-2.9014,4.5521-6.7529,7.8184-11.4479,9.7083c-4.5374,1.8254-10.5295,2.751-17.8099,2.751H5.2781H2.639l0.7136-2.5408
	l3.2393-11.5342l0.4098-1.4592h1.5157h26.1494c4.7284,0,8.2976-0.6799,10.6092-2.0213c1.4614-0.8472,2.692-2.2388,3.6777-4.154
	c-3.0927,0.4098-6.6595,0.6167-10.6531,0.6167H22.5007c-6.8788,0-11.9971-1.5706-15.2047-4.6603
	c-2.6661-2.5397-4.018-6.0038-4.018-10.2958c0-1.8425,0.3126-4.0258,0.9291-6.4897l0.1568-0.6263
	c1.3788-5.5732,4.1748-9.8461,8.3024-12.6944C16.9929,3.5297,23.305,2,31.4275,2H45.489c7.9243,0,14.1365,1.8307,18.4642,5.4416
	c4.4347,3.7016,6.6832,9.1885,6.6832,16.3084C70.6365,27.7146,69.892,32.2755,68.4235,37.3063z M74.7976,48.4771h38.0781
	c3.7393,0,5.8984-1.4219,6.4785-4.2656l0.1582-0.79c0.1572-0.79,0.2363-1.5273,0.2363-2.2119c0-1.5273-0.4736-2.5684-1.4219-3.1211
	s-2.4756-0.8291-4.582-0.8291H87.28l2.291-10.9814h26.3066c2.2119,0,3.7783-0.2373,4.7012-0.7109
	c0.9209-0.4736,1.5918-1.4478,2.0137-2.9229c0.2637-1.0527,0.3955-2.0537,0.3955-3.002c0-1.4736-0.3691-2.5278-1.1064-3.1597
	c-0.7373-0.6323-2.0273-0.9482-3.8701-0.9482h-35.708L84.7517,4h32.3906c4.1074,0,7.333,0.2642,9.6768,0.79
	c2.3428,0.5273,4.2783,1.3965,5.8066,2.6074c1.2646,1.001,2.2119,2.3301,2.8447,3.9893c0.6318,1.6592,0.9473,3.4897,0.9473,5.4907
	c0,3.002-0.54,5.8062-1.6191,8.4131c-1.0801,2.6074-2.6738,4.833-4.7793,6.6758c2.3701,2.0537,3.5547,5.0039,3.5547,8.8477
	c0,1.4756-0.1582,3.002-0.4736,4.582c-0.4229,2.4766-1.1455,4.6885-2.1729,6.6357c-1.0273,1.9492-2.3301,3.4766-3.9102,4.582
	c-1.7383,1.2646-3.8711,2.1465-6.3994,2.6465c-2.5283,0.501-5.8994,0.751-10.1123,0.751H72.3494L74.7976,48.4771z M140.4177,16.8774
	c0-2.4811-0.4068-4.8074-1.2091-6.9142c-0.8909-2.3357-2.2701-4.2536-4.1004-5.7022c-1.9942-1.5801-4.488-2.7155-7.4107-3.3734
	C125.0345,0.2902,121.5827,0,117.1423,0H84.7517h-3.2401l-0.6727,3.1694l-2.4482,11.5342l-1.0253,4.8306h4.9381h35.708
	c0.4216,0,0.7413,0.0223,0.9762,0.0502c0.0002,0.0187,0.0004,0.0379,0.0004,0.0577c0,0.5975-0.087,1.2571-0.2587,1.9617
	c-0.064,0.2141-0.124,0.3624-0.1696,0.4595c-0.3275,0.0782-1.1191,0.2146-2.682,0.2146H89.571h-3.2516l-0.6641,3.1831
	l-2.291,10.9814l-1.0049,4.817H87.28h26.4648c0.959,0,1.5975,0.0701,2.0003,0.142c-0.0136,0.3715-0.0659,0.7874-0.1558,1.2394
	l-0.1573,0.7854c-0.0889,0.4354-0.2144,1.051-2.5564,1.051H74.7976h-3.2401l-0.6727,3.1694l-2.4482,11.5342l-1.0253,4.8305h4.9381
	h38.1563c4.5184,0,8.0804-0.2706,10.8898-0.8273c3.075-0.6081,5.7484-1.7231,7.9453-3.314
	c2.0848-1.4663,3.8091-3.4758,5.1254-5.9732c1.2092-2.2922,2.0734-4.9076,2.5678-7.7731c0.3584-1.8127,0.54-3.5988,0.54-5.3097
	c0-3.3676-0.7417-6.2686-2.211-8.6693c1.2799-1.6038,2.3279-3.3842,3.1311-5.3234
	C139.7707,23.7374,140.4177,20.392,140.4177,16.8774z M136.6464,26.0559c-0.9238,2.23-2.2027,4.2285-3.8137,5.9634
	c1.8206,2.2872,2.7413,5.2355,2.7413,8.7947c0,1.5888-0.1705,3.2529-0.5069,4.9465c-0.4581,2.6672-1.2556,5.0911-2.3703,7.2038
	c-1.1728,2.2252-2.6979,4.0044-4.5028,5.2668c-1.9661,1.4304-4.3845,2.4368-7.1873,2.9911
	c-2.6426,0.5236-6.1757,0.7891-10.501,0.7891H72.3494h-2.4691l0.5126-2.4153l2.4482-11.5342l0.3364-1.5847h1.62h38.0781
	c3.5029,0,4.2501-1.3474,4.5175-2.6583l0.1577-0.7877c0.1313-0.6597,0.1979-1.2726,0.1979-1.8215
	c0-0.5215-0.0744-1.1865-0.429-1.3932c-0.3569-0.208-1.2958-0.5569-3.5749-0.5569H87.28h-2.4603l0.5025-2.4084l2.291-10.9814
	l0.332-1.5916h1.6258h26.3066c2.5567,0,3.5007-0.3429,3.7864-0.4895c0.3893-0.2002,0.7427-0.7903,0.9966-1.6633
	c0.2172-0.877,0.3273-1.7122,0.3273-2.483c0-0.8087-0.1525-1.4222-0.4084-1.6415c-0.0908-0.0779-0.6415-0.4664-2.5682-0.4664
	h-35.708h-2.4691l0.5126-2.4153l2.4482-11.5342L83.1317,2h1.6201h32.3906c4.2913,0,7.5998,0.2743,10.116,0.8389
	c2.6273,0.5914,4.851,1.5977,6.6087,2.9904c1.5439,1.222,2.7122,2.8521,3.4725,4.8457c0.7155,1.8788,1.0782,3.9656,1.0782,6.2025
	C138.4177,20.1282,137.8218,23.2162,136.6464,26.0559z"/>
</svg>
