<?xml version="1.0" encoding="utf-8"?>
<!-- Generator: Adobe Illustrator 22.0.1, SVG Export Plug-In . SVG Version: 6.00 Build 0)  -->
<svg version="1.1" id="Layer_1" xmlns="http://www.w3.org/2000/svg" xmlns:xlink="http://www.w3.org/1999/xlink" x="0px" y="0px"
	 viewBox="0 0 140.6406 64.4058" enable-background="new 0 0 140.6406 64.4058" xml:space="preserve">
<path d="M50.1357,21.0933H34.3359c-2.0893,0-4.0677,0.0558-5.928,0.167c1.392-0.7935,4.175-1.7261,9.5618-1.7261h26.1494h3.0314
	l0.8196-2.9185l3.2393-11.5341L72.6365,0h-5.2781H38.997c-7.6458,0-13.7159,0.9476-18.5574,2.8969
	c-5.079,2.0435-9.2421,5.5648-12.3729,10.4653c-2.3077,3.5259-4.2503,7.9594-5.7736,13.1776C0.7715,31.7535,0,36.5027,0,40.6558
	c0,7.7432,2.4905,13.747,7.4024,17.8449c4.6957,3.9182,11.3389,5.9051,19.745,5.9051h14.0615
	c8.6616,0,15.1727-1.6047,19.9055-4.9057c4.5333-3.1279,7.6004-7.7932,9.0995-13.8547l0.1555-0.6207
	c0.6656-2.6634,0.9889-4.9445,0.9889-6.9754c0-4.8562-1.5598-8.8069-4.6359-11.7425
	C63.1326,22.8514,57.5478,21.0933,50.1357,21.0933z M49.6349,41.5735l-0.1401,0.5599l-0.0091,0.0363l-0.0084,0.0364
	c-0.2401,1.041-0.6823,1.3145-1.1146,1.5054l-0.024,0.0106l-0.0239,0.0109c-0.7367,0.337-2.6907,0.9022-7.5003,0.9022H29.8329
	c-4.7863,0-6.4874-0.8246-6.9966-1.1792c-0.7639-0.5311-0.976-1.8455-1.0069-2.963c3.0284-0.3311,6.028-0.4984,8.9518-0.4984h15.958
	c1.7511,0,2.6448,0.1941,3.029,0.3137c0.0014,0.0333,0.0023,0.0703,0.0023,0.1111C49.7704,40.7514,49.7249,41.1394,49.6349,41.5735z
	"/>
<path fill="#FFCC33" d="M50.1357,23.0933H34.3359c-3.994,0-7.5607,0.2068-10.653,0.6166c0.9857-1.9149,2.2165-3.3068,3.678-4.1547
	c2.3124-1.341,5.8817-2.021,10.6088-2.021h26.1494h1.5157l0.4099-1.4592l3.2393-11.5342L69.9974,2h-2.639H38.9971
	c-7.2824,0-13.2747,0.926-17.8104,2.7521C16.4944,6.64,12.6429,9.9058,9.7395,14.4588c-2.1917,3.3425-4.0557,7.6028-5.5266,12.6414
	C2.7445,32.1317,2,36.6924,2,40.6558c0,7.122,2.2487,12.6092,6.6837,16.3091c4.3265,3.6102,10.5387,5.4409,18.4638,5.4409H41.209
	c8.1242,0,14.4364-1.5295,18.7614-4.5461c4.1277-2.8481,6.9238-7.121,8.3022-12.6944l0.1568-0.6262
	c0.6165-2.4672,0.929-4.6503,0.929-6.4897c0-4.2882-1.3514-7.7521-4.0167-10.2955C62.131,24.6633,57.0129,23.0933,50.1357,23.0933z
	 M51.5845,42.0217l-0.1496,0.5975c-0.3397,1.4716-1.0565,2.3885-2.2643,2.9218c-1.1046,0.5051-3.4273,1.0942-8.3561,1.0942H29.833
	c-4.9017,0-7.1318-0.8363-8.1395-1.5378c-1.2575-0.8744-1.8683-2.482-1.8683-4.9153c0-0.4669,0.0196-0.9586,0.0585-1.4712
	c3.6868-0.4756,7.3454-0.7163,10.8976-0.7163h15.958c2.9945,0,4.0637,0.5214,4.3844,0.7456c0.188,0.129,0.6469,0.4434,0.6469,1.6792
	C51.7705,40.8989,51.7079,41.4378,51.5845,42.0217z"/>
<path d="M140.6406,16.8774c0-2.4811-0.4068-4.8074-1.2091-6.9142c-0.8909-2.3357-2.2701-4.2536-4.1004-5.7022
	c-1.9942-1.5801-4.488-2.7155-7.4107-3.3734C125.2573,0.2902,121.8056,0,117.3652,0H84.9746h-3.2401l-0.6727,3.1694l-2.4482,11.5342
	l-1.0253,4.8306h4.9381h35.708c0.4216,0,0.7413,0.0223,0.9762,0.0502c0.0002,0.0187,0.0004,0.0379,0.0004,0.0577
	c0,0.5975-0.087,1.2571-0.2587,1.9617c-0.064,0.2141-0.124,0.3624-0.1696,0.4595c-0.3275,0.0782-1.1191,0.2146-2.682,0.2146H89.7939
	h-3.2516l-0.6641,3.1831l-2.291,10.9814l-1.0049,4.817h4.9206h26.4648c0.959,0,1.5975,0.0701,2.0003,0.142
	c-0.0136,0.3715-0.0659,0.7874-0.1558,1.2394l-0.1573,0.7854c-0.0889,0.4354-0.2144,1.051-2.5564,1.051H75.0205h-3.2401
	l-0.6728,3.1694l-2.4482,11.5342l-1.0253,4.8305h4.9381h38.1563c4.5184,0,8.0804-0.2706,10.8898-0.8273
	c3.075-0.6081,5.7484-1.7231,7.9453-3.314c2.0848-1.4663,3.8091-3.4758,5.1254-5.9732c1.2092-2.2922,2.0734-4.9076,2.5678-7.7731
	c0.3584-1.8127,0.54-3.5988,0.54-5.3097c0-3.3676-0.7417-6.2686-2.211-8.6693c1.2799-1.6038,2.3279-3.3842,3.1311-5.3234
	C139.9935,23.7374,140.6406,20.392,140.6406,16.8774z"/>
<path fill="#FFCC33" d="M136.8692,26.0559c-0.9238,2.23-2.2027,4.2285-3.8137,5.9634c1.8206,2.2872,2.7413,5.2355,2.7413,8.7947
	c0,1.5888-0.1705,3.2529-0.5069,4.9465c-0.4581,2.6672-1.2556,5.0911-2.3703,7.2038c-1.1728,2.2252-2.6979,4.0044-4.5028,5.2668
	c-1.9661,1.4304-4.3845,2.4368-7.1873,2.9911c-2.6426,0.5236-6.1757,0.7891-10.501,0.7891H72.5722h-2.4691l0.5126-2.4153
	l2.4482-11.5342l0.3364-1.5847h1.6201h38.0781c3.5029,0,4.2501-1.3474,4.5175-2.6583l0.1577-0.7877
	c0.1313-0.6597,0.1979-1.2726,0.1979-1.8215c0-0.5215-0.0744-1.1865-0.429-1.3932c-0.3569-0.208-1.2958-0.5569-3.5749-0.5569
	H87.5029h-2.4603l0.5025-2.4084l2.291-10.9814l0.332-1.5916h1.6258h26.3066c2.5567,0,3.5007-0.3429,3.7864-0.4895
	c0.3893-0.2002,0.7427-0.7903,0.9966-1.6633c0.2172-0.877,0.3273-1.7122,0.3273-2.483c0-0.8087-0.1525-1.4222-0.4084-1.6415
	c-0.0908-0.0779-0.6415-0.4664-2.5682-0.4664h-35.708h-2.4691l0.5126-2.4153l2.4482-11.5342L83.3545,2h1.6201h32.3906
	c4.2913,0,7.5998,0.2743,10.116,0.8389c2.6273,0.5914,4.851,1.5977,6.6087,2.9904c1.5439,1.222,2.7122,2.8521,3.4725,4.8457
	c0.7155,1.8788,1.0782,3.9656,1.0782,6.2025C138.6406,20.1282,138.0447,23.2162,136.8692,26.0559z"/>
<path d="M67.3584,38.0493c0,1.6855-0.29,3.6865-0.8691,6.0039l-0.1582,0.6318c-1.2637,5.1094-3.7656,8.9541-7.5049,11.5342
	c-4.0029,2.792-9.875,4.1865-17.6172,4.1865H27.1474c-7.4795,0-13.207-1.6592-17.1826-4.9766C5.9873,52.1108,4,47.187,4,40.6558
	c0-3.792,0.7109-8.123,2.1328-12.9951c1.4219-4.8706,3.1865-8.9136,5.293-12.1265c2.6865-4.2129,6.1885-7.189,10.5078-8.9268
	C26.2509,4.8691,31.9394,4,38.997,4h28.3613l-3.2393,11.5342H37.9697c-5.1084,0-8.9795,0.7642-11.6123,2.291
	c-2.6348,1.5283-4.582,4.3452-5.8467,8.4526c3.6865-0.79,8.2959-1.1846,13.8252-1.1846h15.7998
	c6.3721,0,10.9814,1.3701,13.8252,4.1074C66.2246,31.3608,67.3584,34.3101,67.3584,38.0493z M53.7705,40.4194
	c0-1.5273-0.502-2.6338-1.501-3.3184c-1.0547-0.7373-2.8975-1.1064-5.5303-1.1064h-15.958c-4.1611,0-8.4014,0.3164-12.7188,0.9482
	c-0.1582,1.1592-0.2373,2.2393-0.2373,3.2393c0,3.1084,0.9082,5.293,2.7256,6.5566c1.8164,1.2646,4.9102,1.8965,9.2822,1.8965
	h10.9814c4.2656,0,7.3193-0.4209,9.1641-1.2646c1.7891-0.79,2.9229-2.2119,3.3965-4.2656l0.1582-0.6318
	C53.6914,41.7358,53.7705,41.0513,53.7705,40.4194z"/>
<path d="M75.0205,48.4771h38.0781c3.7393,0,5.8984-1.4219,6.4785-4.2656l0.1582-0.79c0.1572-0.79,0.2363-1.5273,0.2363-2.2119
	c0-1.5273-0.4736-2.5684-1.4219-3.1211s-2.4756-0.8291-4.582-0.8291H87.5029l2.291-10.9814h26.3066
	c2.2119,0,3.7783-0.2373,4.7012-0.7109c0.9209-0.4736,1.5918-1.4478,2.0137-2.9229c0.2637-1.0527,0.3955-2.0537,0.3955-3.002
	c0-1.4736-0.3691-2.5278-1.1064-3.1597c-0.7373-0.6323-2.0273-0.9482-3.8701-0.9482h-35.708L84.9746,4h32.3906
	c4.1074,0,7.333,0.2642,9.6768,0.79c2.3428,0.5273,4.2783,1.3965,5.8066,2.6074c1.2646,1.001,2.2119,2.3301,2.8447,3.9893
	c0.6318,1.6592,0.9473,3.4897,0.9473,5.4907c0,3.002-0.54,5.8062-1.6191,8.4131c-1.0801,2.6074-2.6738,4.833-4.7793,6.6758
	c2.3701,2.0537,3.5547,5.0039,3.5547,8.8477c0,1.4756-0.1582,3.002-0.4736,4.582c-0.4229,2.4766-1.1455,4.6885-2.1729,6.6357
	c-1.0273,1.9492-2.3301,3.4766-3.9101,4.582c-1.7383,1.2646-3.8711,2.1465-6.3994,2.6465c-2.5283,0.501-5.8994,0.751-10.1123,0.751
	H72.5722L75.0205,48.4771z"/>
</svg>
