<?xml version="1.0" encoding="utf-8"?>
<!-- Generator: Adobe Illustrator 22.0.1, SVG Export Plug-In . SVG Version: 6.00 Build 0)  -->
<svg version="1.1" id="Layer_1" xmlns="http://www.w3.org/2000/svg" xmlns:xlink="http://www.w3.org/1999/xlink" x="0px" y="0px"
	 viewBox="0 0 62.14 35.5" enable-background="new 0 0 62.14 35.5" xml:space="preserve">
<path fill="#FFCD00" stroke="#000000" stroke-width="2.5" stroke-miterlimit="10" d="M5.02,34.25l5.19-24.73H1.54l1.74-8.27h12.87
	c1.41,0,2.46,0.27,3.2,0.81c0.56,0.42,1.22,1.22,1.22,2.72c0,0.51-0.08,1.12-0.24,1.86l-5.78,27.59H5.02z"/>
<path fill="#FFCD00" stroke="#000000" stroke-width="2.5" stroke-miterlimit="10" d="M42.46,34.25l1.32-6.34H20.14l1.08-4.88
	c0.25-1.18,0.58-2.18,0.98-2.95c0.43-0.83,1.2-1.66,2.34-2.54L40.77,4.61c1.56-1.25,2.78-2.1,3.74-2.58
	c1.02-0.52,2.13-0.78,3.29-0.78h10.97l-3.92,18.44h5.76l-1.69,8.22H53.1l-1.32,6.34H42.46z M45.53,19.69l2.17-10.21h-0.16
	c-0.31,0-0.42,0.05-0.43,0.06c-0.05,0.03-0.28,0.15-0.95,0.68l-12.03,9.48H45.53z"/>
</svg>
