<?xml version="1.0" encoding="utf-8"?>
<!-- Generator: Adobe Illustrator 22.0.1, SVG Export Plug-In . SVG Version: 6.00 Build 0)  -->
<svg version="1.1" id="Layer_1" xmlns="http://www.w3.org/2000/svg" xmlns:xlink="http://www.w3.org/1999/xlink" x="0px" y="0px"
	 viewBox="0 0 144.27681 100" enable-background="new 0 0 144.27681 100" xml:space="preserve">
<path d="M62.24652,5.90316c-3.90126-3.88104-9.3734-5.83667-16.02364-5.83667H20.92612C7.04056,0.06649,0,9.40556,0,27.82429
	v8.57677C0,47.8456,2.54141,55.79444,7.46107,60.68861c3.90126,3.88105,9.21308,5.8685,15.86332,5.8685h15.98027
	c-0.75788,5.62296-3.49095,8.37352-8.29934,8.37352H5.18777l0,25.06937h43.43338c13.88559,0,20.92615-9.33907,20.92615-27.75779
	V30.22255C69.5473,18.77801,67.16618,10.79733,62.24652,5.90316z M39.52617,41.42126h-5.95165
	c-0.76446,0-1.77146,0.1655-2.40566-0.43456c-1.13318-1.07218-1.14772-3.45992-1.14772-6.50898
	c0-8.31387,3.39668-9.27536,5.95165-9.27536c0.76446,0,1.77146-0.1655,2.40566,0.43456
	c1.13318,1.07218,1.14772,3.45992,1.14772,6.50899V41.42126z"/>
<path d="M137.39227,52.3946c-0.61911-0.61375-0.99928-0.9743-2.07933-1.57499c5.94946-3.11183,8.96387-10.94883,8.96387-23.43918
	c0-9.89992-2.69768-16.88198-7.23428-21.40232C133.11343,2.06312,127.99273,0,120.93589,0H78.13856v25.13586h29.78324
	c2.32957,0,4.45083-0.02174,5.54636,1.09213c0.81414,0.82776,0.78745,2.30411,0.78745,3.82396
	c0,5.03502-2.75953,7.38012-8.68439,7.38012H83.07935v25.13586h24.89012c2.30294,0,4.40433-0.02188,5.49195,1.08327
	c0.82159,0.83484,0.79417,2.32739,0.79417,3.86568c0,5.01259-2.77464,7.34726-8.73207,7.34726H78.13856V100h45.16267
	c13.91838,0,20.97559-8.40521,20.97559-24.98216C144.27681,63.80432,141.68042,56.64568,137.39227,52.3946z"/>
<path fill="#FFFFFF" d="M1.16304,27.82428c0-17.72905,6.5877-26.59472,19.76309-26.59472h25.29676
	c13.17483,0,19.76309,8.86567,19.76309,26.59472v42.01966c0,17.72981-6.58826,26.59472-19.76309,26.59472H6.35085V76.0937h24.65446
	c6.45537,0,9.68392-4.3652,9.68392-13.0979H20.92613c-13.17539,0-19.76309-8.86491-19.76309-26.59472V27.82428z M33.57451,42.58435
	h7.11472V32.14592c0-7.00328-2.37157-10.50492-7.11472-10.50492s-7.11471,3.48024-7.11471,10.43843
	C26.4598,39.08347,28.83137,42.58435,33.57451,42.58435z"/>
<path fill="#FFFFFF" d="M140.71545,72.61957c0,15.88042-6.60417,23.81909-19.8125,23.81909h-41.6013V76.02721h26.22187
	c6.59621,0,9.89518-2.83601,9.89518-8.51031c0-5.67354-3.28249-8.51031-9.84747-8.51031h-21.3288V38.59514h21.3288
	c6.56498,0,9.84747-2.84747,9.84747-8.54317c0-5.65214-3.29897-8.47745-9.89518-8.47745H79.30165V1.16307h41.63425
	c13.18619,0,19.77956,7.93944,19.77956,23.81909s-4.85899,23.81909-14.57528,23.81909
	C135.85646,48.80125,140.71545,56.74069,140.71545,72.61957z"/>
</svg>
