<?xml version="1.0" encoding="utf-8"?>
<!-- Generator: Adobe Illustrator 22.0.1, SVG Export Plug-In . SVG Version: 6.00 Build 0)  -->
<svg version="1.1" id="Layer_1" xmlns="http://www.w3.org/2000/svg" xmlns:xlink="http://www.w3.org/1999/xlink" x="0px" y="0px"
	 viewBox="0 0 135.3972 100.4607" enable-background="new 0 0 135.3972 100.4607" xml:space="preserve">
<path d="M128.225,52.9329c-0.5406-0.5326-1.8286-1.6072-1.8286-1.6072c5.974-3.0808,9.0008-10.9092,9.0008-23.41
	c0-10.0703-2.6591-17.1188-7.2972-21.7327C124.035,2.1392,118.67,0,111.391,0H87.4535c-13.9717,0-21.056,8.3828-21.056,24.9156
	c0,11.4409,2.5032,18.1352,6.89,22.4548c0.5457,0.5373,2.133,1.7682,2.133,1.7682c-5.989,3.0829-9.023,10.9102-9.023,23.4063
	c0,10.0703,2.7518,16.649,7.39,21.2629c4.065,4.0436,9.3373,6.6527,16.6162,6.6527h23.9375c13.9718,0,21.056-8.3828,21.056-24.9156
	C135.3972,64.0921,132.6057,57.2486,128.225,52.9329z M97.0975,70.5097c0-6.641,3.0389-7.4091,5.3248-7.4091
	c0.537,0,1.2527-0.2017,1.6868,0.1995c0.8006,0.74,0.5883,2.368,0.5883,4.1431c0,6.5931-3.0169,7.3861-5.2861,7.4091l-0.0882,0.0005
	c-0.5223,0-1.0844-0.0457-1.6399-0.1921C97.3206,73.6321,97.0975,72.2894,97.0975,70.5097z M104.6973,30.0507
	c0,6.6702-3.0106,7.4416-5.275,7.4416c-0.5466,0-1.1362-0.0473-1.7172-0.2057c-0.3758-1.046-0.6076-2.4151-0.6076-4.2359
	c0-6.6708,3.0389-7.4423,5.3248-7.4423c0.5319,0,1.2397-0.1986,1.6702,0.1982C104.9099,26.5602,104.6973,28.2251,104.6973,30.0507z"
	/>
<polygon points="0,0 0,25.6083 31.7124,25.6083 11.2914,100.4607 42.9418,100.4606 63.571,24.6031 63.57,0 "/>
<path fill="#FFFFFF" d="M39.101,96.3607H13.5511l20.4199-74.8523H1.1V1.1h58.3711v20.3563L39.101,96.3607z"/>
<path fill="#FFFFFF" d="M131.2972,72.545c0,15.8775-6.6523,23.8157-19.9561,23.8157H87.4037
	c-13.2715,0-19.9063-7.9381-19.9063-23.8157c0-15.8762,4.8809-23.8144,14.6426-23.8144c-9.7617,0-14.6426-7.9381-14.6426-23.815
	S74.1498,1.1,87.4535,1.1h23.9375c13.2705,0,19.9063,7.9388,19.9063,23.8157s-4.8643,23.815-14.5928,23.815
	C126.433,48.7306,131.2972,56.6688,131.2972,72.545z M105.7972,30.0506c0-5.6942-2.125-8.5423-6.375-8.5423
	c-4.2832,0-6.4248,2.8481-6.4248,8.5423c0,5.6948,2.1416,8.5416,6.4248,8.5416C103.6722,38.5923,105.7972,35.7455,105.7972,30.0506z
	 M105.7972,67.4432c0-5.6271-2.125-8.4426-6.375-8.4426c-4.2832,0-6.4248,2.8376-6.4248,8.509c0,5.674,2.1416,8.4869,6.4248,8.4426
	C103.6722,75.9092,105.7972,73.0716,105.7972,67.4432z"/>
</svg>
