<?xml version="1.0" encoding="utf-8"?>
<!-- Generator: Adobe Illustrator 22.0.1, SVG Export Plug-In . SVG Version: 6.00 Build 0)  -->
<svg version="1.1" id="Layer_1" xmlns="http://www.w3.org/2000/svg" xmlns:xlink="http://www.w3.org/1999/xlink" x="0px" y="0px"
	 viewBox="0 0 140.2997 64.572" enable-background="new 0 0 140.2997 64.572" xml:space="preserve">
<path d="M65.0205,5.8343c-4.7116-3.9021-11.3621-5.8647-19.7673-5.834L31.1918,0.0518C22.532,0.0834,16.027,1.712,11.3049,5.0304
	c-4.5219,3.1449-7.5719,7.8212-9.0493,13.8879l-0.1532,0.6215c-0.6558,2.6621-0.9709,4.9447-0.9634,6.979
	c0.0178,4.8607,1.5928,8.8062,4.6815,11.7269c3.5976,3.4402,9.1891,5.1786,16.603,5.1515l15.7997-0.0578
	c2.0889-0.0076,4.0667-0.0707,5.9265-0.1887c-1.3902,0.7991-4.1687,1.7408-9.5546,1.7605L8.4459,45.0068l-3.0314,0.0111
	l-0.809,2.9214L1.4085,59.4853L0,64.572l5.278-0.0193l28.3611-0.1037c7.6436-0.0279,13.7099-0.9973,18.5457-2.9633
	c5.0754-2.0646,9.2255-5.6015,12.3363-10.5131c2.294-3.5337,4.2198-7.9733,5.7245-13.1964
	c1.5027-5.2187,2.2568-9.9709,2.2416-14.1252C72.459,15.9102,69.9468,9.9158,65.0205,5.8343z M41.7087,24.4241l-15.9579,0.0583
	c-1.7681,0.0065-2.6509-0.181-3.03-0.2988c-0.0015-0.0339-0.0026-0.0716-0.0027-0.1135c-0.0013-0.3688,0.0402-0.7468,0.1237-1.1242
	l0.1458-0.5914l0.009-0.0363l0.0083-0.0365c0.2364-1.0426,0.6768-1.3172,1.1076-1.5091l0.0239-0.0106l0.0237-0.011
	c0.5931-0.2735,2.5109-0.9117,7.4987-0.9299l10.9814-0.0401c4.7849-0.0175,6.4914,0.8015,7.003,1.1545
	c0.7637,0.5271,0.9806,1.8407,1.0157,2.9581C47.6331,24.2354,44.6346,24.4134,41.7087,24.4241z"/>
<path fill="#FFCC33" d="M63.8352,7.4753C59.5075,3.8644,53.2953,2.0337,45.371,2.0337H31.3095
	c-8.1225,0-14.4346,1.5297-18.761,4.5464C8.4208,9.4284,5.6248,13.7013,4.246,19.2745l-0.1568,0.6263
	c-0.6165,2.4639-0.9291,4.6473-0.9291,6.4897c0,4.292,1.3519,7.756,4.018,10.2958c3.2076,3.0897,8.3259,4.6603,15.2046,4.6603
	h15.7998c3.9937,0,7.5604-0.2069,10.6531-0.6167c-0.9857,1.9152-2.2163,3.3068-3.6777,4.154
	c-2.3116,1.3414-5.8808,2.0213-10.6092,2.0213H8.3994H6.8837l-0.4098,1.4592L3.2346,59.8987l-0.7136,2.5408h2.639h28.3613
	c7.2805,0,13.2726-0.9256,17.8099-2.751c4.6949-1.8899,8.5464-5.1561,11.4479-9.7083c2.1909-3.3419,4.0548-7.6019,5.5262-12.6403
	c1.4685-5.0308,2.213-9.5917,2.213-13.5563C70.5184,16.6638,68.2699,11.1769,63.8352,7.4753z M52.6318,25.7293
	c-3.6829,0.4747-7.3409,0.715-10.8947,0.715h-15.958c-2.9979,0-4.0636-0.5199-4.3826-0.7435
	c-0.2079-0.1422-0.6486-0.4431-0.6486-1.6799c0-0.53,0.0626-1.0697,0.186-1.6042l0.1496-0.5961
	c0.3399-1.4725,1.0564-2.3895,2.2635-2.922c1.1057-0.5049,3.4296-1.094,8.3569-1.094h10.9814c4.9,0,7.1313,0.8364,8.1404,1.538
	c1.2565,0.874,1.8674,2.4818,1.8674,4.9151C52.6932,24.7094,52.6727,25.2013,52.6318,25.7293z"/>
<path d="M140.2997,16.9111c0-2.4811-0.4068-4.8074-1.2091-6.9142c-0.8909-2.3357-2.2701-4.2536-4.1004-5.7022
	c-1.9942-1.5801-4.488-2.7155-7.4107-3.3734c-2.663-0.5975-6.1148-0.8876-10.5552-0.8876H84.6337h-3.2401l-0.6727,3.1694
	l-2.4482,11.5342l-1.0253,4.8306h4.9381h35.708c0.4216,0,0.7413,0.0223,0.9762,0.0502c0.0002,0.0187,0.0004,0.0379,0.0004,0.0577
	c0,0.5975-0.087,1.2571-0.2587,1.9617c-0.064,0.2141-0.124,0.3624-0.1696,0.4595c-0.3275,0.0782-1.1191,0.2146-2.682,0.2146H89.453
	h-3.2516l-0.6641,3.1831l-2.291,10.9814l-1.0049,4.817h4.9206h26.4648c0.959,0,1.5975,0.0701,2.0003,0.142
	c-0.0136,0.3715-0.0659,0.7874-0.1558,1.2394l-0.1573,0.7854c-0.0889,0.4354-0.2144,1.051-2.5564,1.051H74.6796h-3.2401
	l-0.6727,3.1694l-2.4482,11.5342l-1.0253,4.8305h4.9381h38.1563c4.5184,0,8.0804-0.2706,10.8898-0.8273
	c3.075-0.6081,5.7484-1.7231,7.9453-3.314c2.0848-1.4663,3.8091-3.4758,5.1254-5.9732c1.2092-2.2922,2.0734-4.9076,2.5678-7.7731
	c0.3584-1.8127,0.54-3.5988,0.54-5.3097c0-3.3676-0.7417-6.2686-2.211-8.6693c1.2799-1.6038,2.3279-3.3842,3.1311-5.3234
	C139.6527,23.7711,140.2997,20.4257,140.2997,16.9111z"/>
<path fill="#FFCC33" d="M136.5284,26.0896c-0.9238,2.23-2.2027,4.2285-3.8137,5.9634c1.8206,2.2872,2.7413,5.2355,2.7413,8.7947
	c0,1.5888-0.1705,3.2529-0.5069,4.9465c-0.4581,2.6672-1.2556,5.0911-2.3703,7.2038c-1.1728,2.2252-2.6979,4.0044-4.5028,5.2668
	c-1.9661,1.4304-4.3845,2.4368-7.1873,2.9911c-2.6426,0.5236-6.1757,0.7891-10.501,0.7891H72.2313h-2.4691l0.5126-2.4153
	l2.4482-11.5342l0.3364-1.5847h1.62h38.0781c3.5029,0,4.2501-1.3474,4.5175-2.6583l0.1577-0.7877
	c0.1313-0.6597,0.1979-1.2726,0.1979-1.8215c0-0.5215-0.0744-1.1865-0.429-1.3932c-0.3569-0.208-1.2958-0.5569-3.5749-0.5569H87.162
	h-2.4603l0.5025-2.4084l2.291-10.9814l0.332-1.5916h1.6258h26.3066c2.5567,0,3.5007-0.3429,3.7864-0.4895
	c0.3893-0.2002,0.7427-0.7903,0.9966-1.6633c0.2172-0.877,0.3273-1.7122,0.3273-2.483c0-0.8087-0.1525-1.4222-0.4084-1.6415
	c-0.0908-0.0779-0.6415-0.4664-2.5682-0.4664h-35.708h-2.4691l0.5126-2.4153l2.4482-11.5342l0.3364-1.5847h1.6201h32.3906
	c4.2913,0,7.5998,0.2743,10.116,0.8389c2.6273,0.5914,4.851,1.5977,6.6087,2.9904c1.5439,1.222,2.7122,2.8521,3.4725,4.8457
	c0.7155,1.8788,1.0782,3.9656,1.0782,6.2025C138.2997,20.1619,137.7038,23.2499,136.5284,26.0896z"/>
<path d="M62.5536,9.0108c3.9756,3.3184,5.9648,8.2432,5.9648,14.7729c0,3.7915-0.7109,8.1245-2.1328,12.9956
	c-1.4229,4.8721-3.1875,8.9141-5.293,12.126c-2.6865,4.2148-6.1895,7.1895-10.5078,8.9277
	c-4.3184,1.7373-10.0068,2.6064-17.0635,2.6064H5.1601l3.2393-11.5342h26.1494c5.1074,0,8.9785-0.7627,11.6123-2.291
	c2.6328-1.5264,4.582-4.3447,5.8467-8.4521c-3.6875,0.79-8.2959,1.1846-13.8252,1.1846H22.3827
	c-6.374,0-10.9814-1.3691-13.8252-4.1084c-2.2656-2.1582-3.3975-5.1074-3.3975-8.8477c0-1.6846,0.2891-3.6855,0.8691-6.0039
	l0.1582-0.6318c1.2637-5.1079,3.7646-8.9531,7.5049-11.5342c4.002-2.7905,9.875-4.187,17.6172-4.187H45.371
	C52.8495,4.0337,58.5771,5.6929,62.5536,9.0108z M41.7372,28.4444c4.1602,0,8.4004-0.3154,12.7188-0.9473
	c0.1582-1.2109,0.2373-2.291,0.2373-3.2393c0-3.1069-0.9082-5.293-2.7256-6.5571c-1.8174-1.2637-4.9111-1.896-9.2822-1.896H31.704
	c-4.2656,0-7.3213,0.4224-9.1641,1.2642c-1.791,0.79-2.9229,2.2119-3.3965,4.2661l-0.1582,0.6318
	c-0.1582,0.6851-0.2373,1.3701-0.2373,2.0542c0,1.5278,0.5,2.6343,1.501,3.3179c1.0537,0.7383,2.8965,1.1055,5.5303,1.1055H41.7372z
	"/>
<path d="M74.6796,48.5108h38.0781c3.7393,0,5.8984-1.4219,6.4785-4.2656l0.1582-0.79c0.1572-0.79,0.2363-1.5273,0.2363-2.2119
	c0-1.5273-0.4736-2.5684-1.4219-3.1211s-2.4756-0.8291-4.582-0.8291H87.162l2.291-10.9814h26.3066
	c2.2119,0,3.7783-0.2373,4.7012-0.7109c0.9209-0.4736,1.5918-1.4478,2.0137-2.9229c0.2637-1.0527,0.3955-2.0537,0.3955-3.002
	c0-1.4736-0.3691-2.5278-1.1064-3.1597c-0.7373-0.6323-2.0273-0.9482-3.8701-0.9482h-35.708l2.4482-11.5342h32.3906
	c4.1074,0,7.333,0.2642,9.6768,0.79c2.3428,0.5273,4.2783,1.3965,5.8066,2.6074c1.2646,1.001,2.2119,2.3301,2.8447,3.9893
	c0.6318,1.6592,0.9473,3.4897,0.9473,5.4907c0,3.002-0.54,5.8062-1.6191,8.4131c-1.0801,2.6074-2.6738,4.833-4.7793,6.6758
	c2.3701,2.0537,3.5547,5.0039,3.5547,8.8477c0,1.4756-0.1582,3.002-0.4736,4.582c-0.4229,2.4766-1.1455,4.6885-2.1729,6.6357
	c-1.0273,1.9492-2.3301,3.4766-3.9102,4.582c-1.7383,1.2646-3.8711,2.1465-6.3994,2.6465c-2.5283,0.501-5.8994,0.751-10.1123,0.751
	H72.2313L74.6796,48.5108z"/>
</svg>
