<?xml version="1.0" encoding="utf-8"?>
<!-- Generator: Adobe Illustrator 22.0.1, SVG Export Plug-In . SVG Version: 6.00 Build 0)  -->
<svg version="1.1" id="Layer_1" xmlns="http://www.w3.org/2000/svg" xmlns:xlink="http://www.w3.org/1999/xlink" x="0px" y="0px"
	 viewBox="0 0 69.5473 99.9335" enable-background="new 0 0 69.5473 99.9335" xml:space="preserve">
<path d="M1.163,27.7578c0-17.729,6.5877-26.5947,19.7631-26.5947h25.2968c13.1748,0,19.7631,8.8657,19.7631,26.5947v42.0197
	c0,17.7298-6.5883,26.5947-19.7631,26.5947H6.3509v-20.345h24.6545c6.4554,0,9.6839-4.3652,9.6839-13.0979H20.9261
	c-13.1754,0-19.7631-8.8649-19.7631-26.5947C1.163,36.3346,1.163,27.7578,1.163,27.7578z M33.5745,42.5179h7.1147V32.0794
	c0-7.0033-2.3716-10.5049-7.1147-10.5049s-7.1147,3.4802-7.1147,10.4384C26.4598,39.017,28.8314,42.5179,33.5745,42.5179z"/>
</svg>
