<?xml version="1.0" encoding="utf-8"?>
<!-- Generator: Adobe Illustrator 22.0.1, SVG Export Plug-In . SVG Version: 6.00 Build 0)  -->
<svg version="1.1" id="Layer_1" xmlns="http://www.w3.org/2000/svg" xmlns:xlink="http://www.w3.org/1999/xlink" x="0px" y="0px"
	 viewBox="0 0 72.6366 64.4058" enable-background="new 0 0 72.6366 64.4058" xml:space="preserve">
<path d="M62.6718,8.9771C58.6952,5.6592,52.9677,4,45.4891,4H31.4276c-7.7422,0-13.6152,1.3965-17.6172,4.187
	c-3.7402,2.5811-6.2412,6.4263-7.5049,11.5342L6.1473,20.353c-0.5801,2.3184-0.8691,4.3193-0.8691,6.0039
	c0,3.7402,1.1318,6.6895,3.3975,8.8486c2.8438,2.7383,7.4512,4.1074,13.8252,4.1074h15.7998c5.5293,0,10.1377-0.3945,13.8252-1.1846
	c-0.1581,0.5134-0.3269,1.0067-0.5063,1.4799c-1.0768,2.8389-2.5386,4.9525-4.3851,6.34c-0.3077,0.2313-0.6262,0.4423-0.9553,0.6332
	c-2.6338,1.5283-6.5049,2.291-11.6123,2.291H8.5175L5.2782,60.4058h28.3613c7.0566,0,12.7451-0.8682,17.0635-2.6064
	s7.8213-4.7129,10.5078-8.9268c2.1055-3.2119,3.8701-7.2549,5.293-12.127c1.4219-4.8711,2.1328-9.2031,2.1328-12.9956
	C68.6366,17.2202,66.6473,12.2954,62.6718,8.9771z M54.5741,27.4634c-4.3184,0.6318-8.5586,0.9482-12.7188,0.9482h-15.958
	c-2.6338,0-4.4766-0.3682-5.5303-1.1064c-1.001-0.6836-1.501-1.7891-1.501-3.3179c0-0.6841,0.0791-1.3691,0.2373-2.0542
	l0.1582-0.6318c0.4736-2.0542,1.6055-3.4761,3.3965-4.2661c1.8428-0.8418,4.8984-1.2642,9.1641-1.2642h10.9814
	c4.3711,0,7.4648,0.6323,9.2822,1.896c1.8174,1.2642,2.7256,3.4502,2.7256,6.5571C54.8114,25.1724,54.7323,26.2524,54.5741,27.4634z
	"/>
<path d="M50.944,19.3091c-1.0091-0.7017-3.2405-1.5381-8.1404-1.5381H31.8221c-4.9272,0-7.2512,0.5891-8.3569,1.0941
	c-1.2072,0.5325-1.9236,1.4494-2.2635,2.922l-0.1496,0.5961c-0.1234,0.5344-0.186,1.0742-0.186,1.6041
	c0,1.2368,0.4407,1.5377,0.6486,1.6799c0.3195,0.2239,1.386,0.7444,4.3826,0.7444h15.958c3.5504,0,7.2083-0.2407,10.8947-0.7159
	c0.0408-0.528,0.0614-1.0199,0.0614-1.4716C52.8114,21.7908,52.2005,20.183,50.944,19.3091z M41.8553,24.4116h-15.958
	c-1.7532,0-2.6462-0.194-3.029-0.313c-0.0014-0.0334-0.0023-0.0704-0.0023-0.1113c0-0.3687,0.043-0.7466,0.1278-1.1237
	l0.1479-0.5908l0.0091-0.0363L23.1594,22.2c0.2402-1.0416,0.6816-1.3147,1.1131-1.505l0.0239-0.0106l0.0237-0.0109
	c0.5941-0.2714,2.5142-0.9025,7.502-0.9025h10.9814c4.7849,0,6.4884,0.8253,6.9987,1.1801c0.7618,0.53,0.9739,1.8444,1.0049,2.962
	C47.778,24.2443,44.7787,24.4116,41.8553,24.4116z"/>
<path d="M65.235,5.9063C60.5377,1.987,53.8944,0,45.4891,0H31.4276c-8.6598,0-15.1708,1.6047-19.905,4.9059
	c-4.5334,3.1283-7.6005,7.7935-9.1,13.8547l-0.1555,0.6209c-0.6655,2.6597-0.989,4.9412-0.989,6.9754
	c0,4.86,1.5604,8.8114,4.6379,11.7443c3.5865,3.4536,9.1714,5.2118,16.5848,5.2118h15.7998c2.0897,0,4.0684-0.0558,5.9291-0.1671
	c-1.3912,0.7938-4.1733,1.7266-9.5629,1.7266H8.5175H5.4861L4.6664,47.791L1.4272,59.3242L0,64.4058h5.2782h28.3613
	c7.6463,0,13.7164-0.9472,18.5571-2.8958c5.0812-2.0453,9.2439-5.5662,12.3727-10.4648c2.3071-3.5251,4.2496-7.9586,5.774-13.1783
	c1.5217-5.2131,2.2932-9.9625,2.2932-14.1169C72.6366,16.0092,70.1464,10.0057,65.235,5.9063z M68.4236,37.3063
	c-1.4717,5.0396-3.3357,9.2999-5.5263,12.6414c-2.9018,4.5515-6.7532,7.8174-11.4474,9.707
	c-4.535,1.8255-10.5273,2.7511-17.8103,2.7511H5.2782H2.6391l0.7136-2.5408L6.592,48.3317l0.4099-1.4592h1.5156h26.1494
	c4.7285,0,8.2977-0.6799,10.6087-2.021c1.4617-0.848,2.6924-2.24,3.6782-4.1552c-3.0927,0.4097-6.6595,0.6166-10.6531,0.6166
	H22.5009c-6.8783,0-11.9965-1.5701-15.205-4.6596c-2.666-2.5407-4.0177-6.0049-4.0177-10.2964c0-1.8425,0.3126-4.0258,0.9291-6.4897
	l0.1568-0.6263c1.3788-5.5732,4.1748-9.8461,8.3024-12.6945C16.993,3.5297,23.3051,2,31.4276,2h14.0615
	c7.9243,0,14.1365,1.8307,18.4642,5.4417c4.4347,3.7015,6.6832,9.1885,6.6832,16.3083
	C70.6366,27.7147,69.8921,32.2756,68.4236,37.3063z"/>
</svg>
