<?xml version="1.0" encoding="utf-8"?>
<!-- Generator: Adobe Illustrator 22.0.1, SVG Export Plug-In . SVG Version: 6.00 Build 0)  -->
<svg version="1.1" id="Layer_1" xmlns="http://www.w3.org/2000/svg" xmlns:xlink="http://www.w3.org/1999/xlink" x="0px" y="0px"
	 viewBox="0 0 144.27626 100" enable-background="new 0 0 144.27626 100" xml:space="preserve">
<path d="M65.986,69.84394c0,17.72981-6.58826,26.59472-19.76309,26.59472H20.92615c-13.17539,0-19.76309-8.86491-19.76309-26.59472
	V27.82428c0-17.72905,6.5877-26.59472,19.76309-26.59472h39.87204v20.34496H36.14373c-6.45594,0-9.68391,4.36597-9.68391,13.0979
	h19.76309c13.17483,0,19.76309,8.86567,19.76309,26.59472V69.84394z M33.57453,55.08387h-7.11471v10.43843
	c0,7.00404,2.37157,10.50492,7.11471,10.50492s7.11472-3.50088,7.11472-10.50492
	C40.68924,58.56411,38.31767,55.08387,33.57453,55.08387z"/>
<path d="M140.7149,72.61957c0,15.88042-6.60417,23.81909-19.8125,23.81909H79.3011V76.02721h26.22187
	c6.59621,0,9.89518-2.83601,9.89518-8.51031c0-5.67354-3.28249-8.51031-9.84747-8.51031h-21.3288V38.59514h21.3288
	c6.56498,0,9.84747-2.84747,9.84747-8.54317c0-5.65214-3.29897-8.47745-9.89518-8.47745H79.3011V1.16307h41.63425
	c13.18619,0,19.77956,7.93944,19.77956,23.81909s-4.85899,23.81909-14.57528,23.81909
	C135.85591,48.80125,140.7149,56.74069,140.7149,72.61957z"/>
</svg>
