<?xml version="1.0" encoding="utf-8"?>
<!-- Generator: Adobe Illustrator 22.0.1, SVG Export Plug-In . SVG Version: 6.00 Build 0)  -->
<svg version="1.1" id="Layer_1" xmlns="http://www.w3.org/2000/svg" xmlns:xlink="http://www.w3.org/1999/xlink" x="0px" y="0px"
	 viewBox="0 0 67.3 38.33" enable-background="new 0 0 67.3 38.33" xml:space="preserve">
<path fill="#FFCD00" d="M5.33,37.08L11,10.11H1.54l1.87-8.86h13.98c1.52,0,2.65,0.29,3.44,0.87c0.86,0.64,1.3,1.62,1.3,2.91
	c0,0.55-0.09,1.21-0.26,2.02l-6.29,30.04H5.33z"/>
<path d="M16.59,38.33H3.79l5.66-26.98H0L2.4,0h14.99c1.8,0,3.17,0.37,4.19,1.12c0.82,0.61,1.8,1.79,1.8,3.91
	c0,0.64-0.09,1.39-0.29,2.28L16.59,38.33z M6.87,35.83h7.68l6.08-29.04c0.16-0.73,0.23-1.3,0.23-1.76c0-0.88-0.26-1.51-0.8-1.9
	c-0.56-0.42-1.47-0.63-2.69-0.63H4.42L3.08,8.86h9.46L6.87,35.83z"/>
<path fill="#FFCD00" d="M46.18,37.08l1.44-6.91H21.83l1.15-5.22c0.27-1.28,0.63-2.36,1.06-3.2c0.46-0.89,1.29-1.79,2.53-2.74
	l17.7-14.1c1.69-1.36,3.03-2.28,4.07-2.81c1.1-0.56,2.3-0.84,3.55-0.84h11.86l-4.27,20.11h6.28l-1.81,8.81h-6.34l-1.44,6.91H46.18z
	 M49.49,21.36l2.4-11.3h-0.28c-0.34,0-0.47,0.06-0.51,0.07c-0.08,0.04-0.33,0.19-1.05,0.75L36.74,21.36H49.49z"/>
<path d="M57.2,38.33H44.65l1.44-6.91H20.28l1.49-6.74c0.29-1.38,0.69-2.57,1.18-3.51c0.55-1.06,1.49-2.09,2.87-3.16L43.5,3.92
	c1.76-1.41,3.16-2.38,4.28-2.95C49.06,0.33,50.44,0,51.9,0h13.41l-4.27,20.11h6.27l-2.32,11.31h-6.34L57.2,38.33z M47.72,35.83h7.44
	l1.44-6.91h6.34l1.29-6.31h-6.29L62.22,2.5H51.9c-1.06,0-2.06,0.24-2.99,0.71c-0.96,0.49-2.22,1.36-3.85,2.67l-17.7,14.11
	c-1.1,0.85-1.82,1.62-2.2,2.34c-0.38,0.74-0.7,1.71-0.95,2.88l-0.82,3.72h25.77L47.72,35.83z M50.5,22.61H33.13L49.28,9.89
	c0.81-0.63,1.11-0.81,1.27-0.88c0.27-0.14,0.62-0.2,1.06-0.2h1.82L50.5,22.61z M40.34,20.11h8.13l1.63-7.69L40.34,20.11z"/>
</svg>
