<?xml version="1.0" encoding="utf-8"?>
<!-- Generator: Adobe Illustrator 22.0.1, SVG Export Plug-In . SVG Version: 6.00 Build 0)  -->
<svg version="1.1" id="Layer_1" xmlns="http://www.w3.org/2000/svg" xmlns:xlink="http://www.w3.org/1999/xlink" x="0px" y="0px"
	 viewBox="0 0 135.3972 100.4607" enable-background="new 0 0 135.3972 100.4607" xml:space="preserve">
<path d="M39.101,96.3607H13.5511l20.4199-74.8523H1.1V1.1h58.3711v20.3563L39.101,96.3607z"/>
<path d="M131.2972,72.545c0,15.8775-6.6523,23.8157-19.9561,23.8157H87.4037c-13.2715,0-19.9063-7.9381-19.9063-23.8157
	c0-15.8762,4.8809-23.8144,14.6426-23.8144c-9.7617,0-14.6426-7.9381-14.6426-23.815S74.1498,1.1,87.4535,1.1h23.9375
	c13.2705,0,19.9063,7.9388,19.9063,23.8157s-4.8643,23.815-14.5928,23.815C126.433,48.7306,131.2972,56.6688,131.2972,72.545z
	 M105.7972,30.0506c0-5.6942-2.125-8.5423-6.375-8.5423c-4.2832,0-6.4248,2.8481-6.4248,8.5423
	c0,5.6948,2.1416,8.5416,6.4248,8.5416C103.6722,38.5923,105.7972,35.7455,105.7972,30.0506z M105.7972,67.4432
	c0-5.6271-2.125-8.4426-6.375-8.4426c-4.2832,0-6.4248,2.8376-6.4248,8.509c0,5.674,2.1416,8.4869,6.4248,8.4426
	C103.6722,75.9092,105.7972,73.0716,105.7972,67.4432z"/>
</svg>
