<?xml version="1.0" encoding="utf-8"?>
<!-- Generator: Adobe Illustrator 22.0.1, SVG Export Plug-In . SVG Version: 6.00 Build 0)  -->
<svg version="1.1" id="Layer_1" xmlns="http://www.w3.org/2000/svg" xmlns:xlink="http://www.w3.org/1999/xlink" x="0px" y="0px"
	 viewBox="0 0 139.2607 64.0112" enable-background="new 0 0 139.2607 64.0112" xml:space="preserve">
<path d="M139.2607,16.4824c0-5.3981-1.6627-9.4962-4.942-12.1803l-0.0246-0.0201l-0.0248-0.0197
	c-1.9935-1.5795-4.4712-2.7142-7.3641-3.3726C124.266,0.2909,120.8239,0,116.3798,0H99.5527c-4.425,0-7.9269,0.287-10.7061,0.8774
	c-2.9202,0.622-5.5829,1.6725-7.9162,3.1229c-3.3573,2.1077-5.8702,4.9421-7.4842,8.4338
	c-1.5292,3.3071-2.3046,6.8488-2.3046,10.5264c0,2.6929,0.4295,5.1479,1.2808,7.3387c-4.8895,4.3414-7.3638,9.9895-7.3638,16.8351
	c0,5.2147,1.6987,9.2982,5.049,12.1368c3.7134,3.1846,9.5526,4.7402,17.8329,4.7402h21.1719c4.5198,0,8.0925-0.2701,10.9223-0.8259
	c3.1002-0.6058,5.7897-1.7214,7.9908-3.3152c2.0494-1.4412,3.7935-3.4131,5.1842-5.862c1.2937-2.28,2.2582-4.8738,2.868-7.7118
	c0.487-1.9742,0.7339-4.0576,0.7339-6.1932c0-3.3505-0.841-6.2956-2.4619-8.7018c1.2064-1.5749,2.2042-3.3,2.982-5.1591
	C138.6117,23.1814,139.2607,19.898,139.2607,16.4824z M114.8937,42.7018l-0.123,0.6142c-0.1561,0.5721-0.3439,0.6882-0.4164,0.7331
	c-0.2079,0.1287-0.8502,0.4279-2.3192,0.4279H89.1249c-0.8015,0-1.3798-0.0384-1.7861-0.0848
	c0.0366-0.2896,0.0956-0.7019,0.1909-1.2771l0.1238-0.6179c0.1525-0.5745,0.441-1.2379,2.7352-1.2379h22.9102
	c0.8074,0,1.3885,0.0391,1.7955,0.0861C115.0586,41.6373,114.9977,42.0716,114.8937,42.7018z M117.54,21.4486
	c-0.1006,0.3069-0.192,0.4971-0.2524,0.6043c-0.2974,0.0758-1.0869,0.2249-2.7242,0.2249H93.0751
	c-0.3837,0-0.6779-0.0198-0.8971-0.0452c0.0106-0.3851,0.0879-1.0145,0.3695-1.947c0.0845-0.2584,0.1616-0.43,0.2171-0.5364
	c0.334-0.0784,1.1455-0.2151,2.7597-0.2151h21.4873c0.3773,0,0.671,0.0183,0.8942,0.0424
	C117.8875,19.9653,117.8031,20.5723,117.54,21.4486z"/>
<path d="M68.5859,0H8.6249H5.3806L4.7111,3.1746L2.2618,14.7879l-1.0177,4.8254h4.9316h34.0352L6.0547,57.3261L0,64.0112h9.0195
	h17.3008h1.7936l1.1931-1.3392l35.4476-39.7889c2.2104-2.3927,3.6151-4.1954,4.4197-5.6714
	c0.8273-1.5141,1.5025-3.5534,2.0624-6.2309l1.2676-6.1767L73.4902,0H68.5859z"/>
<path fill="#FFCC33" d="M70.545,4.4021l-1.2662,6.1694c-0.519,2.4825-1.1281,4.3421-1.8607,5.6831
	c-0.7166,1.3146-2.0766,3.0478-4.1329,5.2712L27.8136,61.3417l-0.5966,0.6696h-0.8968H9.0195H4.5098l3.0273-3.3426l37.1835-41.0554
	H6.1757H3.71l0.5089-2.4127L6.668,3.5873L7.0027,2h1.6222h59.9609h2.4521L70.545,4.4021z"/>
<path d="M6.1757,15.6133h43.0547L9.0195,60.0112h17.3008l35.4717-39.8159c1.9473-2.106,3.2383-3.7388,3.8701-4.8979
	c0.6328-1.1582,1.1855-2.8701,1.6592-5.1353L68.5859,4H8.6249L6.1757,15.6133z"/>
<path fill="#FFCC33" d="M137.2607,16.4824c0-4.7693-1.416-8.3467-4.2088-10.6326c-1.7822-1.4124-3.9913-2.4184-6.5906-3.0099
	C123.9705,2.2746,120.6732,2,116.3798,2H99.5527c-4.2241,0-7.6864,0.2805-10.2906,0.8337
	c-2.6921,0.5734-5.1397,1.5374-7.2759,2.8651c-3.016,1.8935-5.2759,4.4402-6.7245,7.5743
	c-1.4067,3.0423-2.1201,6.3016-2.1201,9.6873c0,2.9927,0.5781,5.6435,1.7215,7.9077c-5.1805,4.0727-7.8045,9.5363-7.8045,16.2662
	c0,4.5997,1.4608,8.1697,4.3419,10.6109c3.3444,2.8681,8.7576,4.2661,16.54,4.2661h21.1719c4.3889,0,7.8354-0.2579,10.5368-0.7885
	c2.8276-0.5526,5.2607-1.5592,7.2297-2.9917c1.7871-1.2499,3.3422-3.0103,4.5918-5.2107c1.1974-2.1102,2.0915-4.5236,2.6581-7.1743
	c0.4531-1.8262,0.6828-3.7581,0.6828-5.743c0-3.5598-1.0122-6.4927-3.0142-8.7489c1.5437-1.7405,2.7806-3.7122,3.6893-5.8839
	C136.6638,22.6554,137.2607,19.6316,137.2607,16.4824z M116.8615,43.061l-0.1417,0.7076c-0.2451,0.9488-0.663,1.579-1.3132,1.9813
	c-0.7798,0.4825-1.9142,0.7271-3.3715,0.7271H89.1249c-2.8681,0-3.5298-0.4616-3.5566-0.4812l-0.0507-0.0373l-0.053-0.034
	c-0.0605-0.0388-0.1854-0.3155-0.1854-0.9231c0-0.1644,0.0277-0.7115,0.2829-2.2466l0.1409-0.7039
	c0.3445-1.3102,1.2037-2.7917,4.6855-2.7917h22.9102c2.8671,0,3.531,0.4625,3.5579,0.4822l0.0496,0.0364l0.0518,0.0333
	c0.0306,0.0197,0.1864,0.2733,0.1864,1.0028C117.1445,40.9764,117.1168,41.5194,116.8615,43.061z M119.4434,22.0637
	c-0.2855,0.8864-0.6778,1.5103-1.0945,1.7247c-0.2864,0.1474-1.227,0.4894-3.7855,0.4894H93.0751
	c-1.8536,0-2.3986-0.3874-2.489-0.465c-0.3388-0.29-0.4094-0.9672-0.4094-1.4847c0-0.7452,0.1571-1.6388,0.4669-2.656
	c0.2807-0.8727,0.6583-1.4754,1.0541-1.6679c0.2902-0.1407,1.2473-0.47,3.8266-0.47h21.4873c1.8734,0,2.4315,0.3796,2.5244,0.4557
	c0.3252,0.2673,0.3741,1.0016,0.3741,1.4154C119.9101,20.1481,119.7531,21.0425,119.4434,22.0637z"/>
<path d="M131.7851,7.3975c-1.5283-1.2109-3.4502-2.0801-5.7676-2.6074C123.7001,4.2642,120.4882,4,116.3798,4H99.5527
	c-4.1074,0-7.3994,0.2642-9.875,0.79c-2.4756,0.5273-4.6875,1.3965-6.6357,2.6074c-2.6855,1.686-4.6748,3.9238-5.9648,6.7148
	c-1.291,2.792-1.9355,5.7412-1.9355,8.8481c0,3.3711,0.79,6.1885,2.3701,8.4531c-5.6357,3.792-8.4531,9.0332-8.4531,15.7207
	c0,4.003,1.2109,7.0313,3.6348,9.085c2.9482,2.5283,8.0303,3.792,15.2471,3.792h21.1719c1.0532,0,2.0546-0.0156,3.0041-0.0468
	c1.899-0.0624,3.5907-0.1872,5.0754-0.3751c0.7424-0.0939,1.433-0.2036,2.0719-0.3291c2.5537-0.499,4.7002-1.3818,6.4385-2.6465
	c1.5801-1.1055,2.9229-2.6328,4.0293-4.5811c1.1055-1.9482,1.9219-4.1602,2.4482-6.6367c0.4209-1.6846,0.6318-3.4482,0.6318-5.293
	c0-3.792-1.291-6.6875-3.8701-8.6895c2.0537-1.8965,3.6201-4.1338,4.7002-6.7153c1.0791-2.5801,1.6191-5.3188,1.6191-8.2158
	C135.2607,12.3223,134.1015,9.2935,131.7851,7.3975z M118.829,43.4214l-0.1582,0.79c-0.3691,1.4746-1.1055,2.5547-2.2119,3.2393
	s-2.5811,1.0264-4.4238,1.0264H89.1249c-0.2963,0-0.5802-0.0045-0.8517-0.0135c-1.6295-0.0542-2.8145-0.2711-3.5552-0.6517
	c-0.1235-0.0634-0.2346-0.1314-0.3333-0.2039c-0.7383-0.4736-1.1055-1.3428-1.1055-2.6064c0-0.356,0.0588-0.9333,0.1772-1.7332
	c0.0394-0.2666,0.0855-0.558,0.1382-0.8741l0.1582-0.7901c0.7373-2.8955,2.9492-4.3447,6.6357-4.3447h22.9102
	c2.3701,0,3.9502,0.29,4.7402,0.8691c0.7373,0.4736,1.1055,1.3701,1.1055,2.6855C119.1445,41.2886,119.039,42.1577,118.829,43.4214z
	 M121.3574,22.644c-0.4746,1.4751-1.1729,2.4492-2.0938,2.9229c-0.9219,0.4746-2.4883,0.7109-4.7002,0.7109H93.0751
	c-1.791,0-3.0557-0.3154-3.792-0.9478c-0.7383-0.6318-1.1064-1.6318-1.1064-3.002c0-0.9478,0.1846-2.0269,0.5537-3.2388
	c0.4736-1.4741,1.1709-2.4355,2.0928-2.8838c0.9209-0.4468,2.4883-0.6714,4.7012-0.6714h21.4873c1.79,0,3.0537,0.3037,3.792,0.9087
	c0.7373,0.606,1.1064,1.5933,1.1064,2.9624C121.9101,20.353,121.7245,21.4331,121.3574,22.644z"/>
</svg>
