<?xml version="1.0" encoding="utf-8"?>
<!-- Generator: Adobe Illustrator 22.0.1, SVG Export Plug-In . SVG Version: 6.00 Build 0)  -->
<svg version="1.1" id="Layer_1" xmlns="http://www.w3.org/2000/svg" xmlns:xlink="http://www.w3.org/1999/xlink" x="0px" y="0px"
	 viewBox="0 0 59.06 33" enable-background="new 0 0 59.06 33" xml:space="preserve">
<path fill="#FFCD00" d="M3.48,33L8.67,8.27H0L1.74,0h12.87c1.41,0,2.46,0.27,3.2,0.81c0.56,0.42,1.22,1.22,1.22,2.72
	c0,0.51-0.08,1.12-0.24,1.86L13.02,33H3.48z"/>
<path fill="#FFCD00" d="M40.92,33l1.32-6.34H18.6l1.08-4.88c0.25-1.18,0.58-2.18,0.98-2.95c0.43-0.83,1.2-1.66,2.34-2.54L39.23,3.36
	c1.56-1.25,2.78-2.1,3.74-2.58C43.98,0.26,45.09,0,46.25,0h10.97L53.3,18.44h5.76l-1.69,8.22h-5.81L50.24,33H40.92z M43.98,18.44
	l2.17-10.21h-0.16c-0.31,0-0.42,0.05-0.43,0.06c-0.05,0.03-0.28,0.15-0.95,0.68l-12.03,9.48H43.98z"/>
</svg>
