<?xml version="1.0" encoding="utf-8"?>
<!-- Generator: Adobe Illustrator 22.0.1, SVG Export Plug-In . SVG Version: 6.00 Build 0)  -->
<svg version="1.1" id="Layer_1" xmlns="http://www.w3.org/2000/svg" xmlns:xlink="http://www.w3.org/1999/xlink" x="0px" y="0px"
	 viewBox="0 0 102.2777 101.0565" enable-background="new 0 0 102.2777 101.0565" xml:space="preserve">
<path d="M102.2777,47.392h-3.4863V0.593l-3-0.0029l-27.7,0.0721v4.6505H46.3584L33.4771,48.3975l0,24.6028h34.6143v28.0532l30.7,0
	V73.0004h3.4863V47.392z M68.0913,47.392h-6.4871l6.4871-29.9498V47.392z"/>
<polygon points="0.4129,24.2571 0.0005,24.5874 0.0005,25.1157 0,101.0536 30.7005,101.0565 30.7005,0 "/>
<polygon fill="#FFFFFF" points="26.6005,96.9536 1.1005,96.8872 1.1005,25.1157 26.6005,4.693 "/>
<path fill="#FFFFFF" d="M94.6913,96.9536h-25.5V68.9004H34.5771V48.5585L47.1777,6.4128H65.705L56.5907,48.492h12.6006V1.7594
	l25.5-0.0665V48.492h3.4863v20.4084h-3.4863V96.9536z"/>
</svg>
