<?xml version="1.0" encoding="utf-8"?>
<!-- Generator: Adobe Illustrator 22.0.1, SVG Export Plug-In . SVG Version: 6.00 Build 0)  -->
<svg version="1.1" id="Layer_1" xmlns="http://www.w3.org/2000/svg" xmlns:xlink="http://www.w3.org/1999/xlink" x="0px" y="0px"
	 viewBox="0 0 98.4678 140.4883" enable-background="new 0 0 98.4678 140.4883" xml:space="preserve">
<path fill="#FFFFFF" d="M68.6328,2.25H31.085C11.2881,2.25,1.25,15.3164,1.25,41.085v12.3633
	c0,25.7686,10.0381,38.835,29.835,38.835H59.916c-0.1211,12.0293-4.6621,17.8789-13.8711,17.8789H8.9502v30.3262h59.6826
	c19.7969,0,29.835-13.0664,29.835-38.835V41.085C98.4678,15.3164,88.4297,2.25,68.6328,2.25z M59.9189,61.8604H49.8594
	c-6.7695,0-10.0605-4.7891-10.0605-14.6416c0-9.7881,3.291-14.5459,10.0605-14.5459s10.0596,4.7891,10.0596,14.6416V61.8604z"/>
<path fill="#003192" d="M67.1328,0.75H29.585C10.4512,0.75,0.75,13.4795,0.75,38.585v12.3633c0,25.1055,9.7012,37.835,28.835,37.835
	h29.834v0.5c0,12.8594-5.0039,19.3789-14.874,19.3789H8.4502v28.3262h58.6826c19.1338,0,28.835-12.7295,28.835-37.835V38.585
	C95.9678,13.4795,86.2666,0.75,67.1328,0.75z M59.4189,60.3604H48.3594c-7.3389,0-11.0605-5.2627-11.0605-15.6416
	c0-10.3154,3.7217-15.5459,11.0605-15.5459s11.0596,5.2627,11.0596,15.6416V60.3604z"/>
<path fill="#FFFFFF" d="M68.6328,140.4883H7.7002v-32.5762h36.8447c9.3086,0,14.0596-6.1836,14.123-18.3789H29.585
	C9.9541,89.5332,0,76.5518,0,50.9482V38.585C0,12.9814,9.9541,0,29.585,0h37.5479c19.6309,0,29.585,12.9814,29.585,38.585v60.5684
	C96.7178,124.7568,88.2637,140.4883,68.6328,140.4883z M9.2002,136.2383h57.9326c18.6357,0,28.085-12.4775,28.085-37.085V38.585
	c0-24.6074-9.4492-37.085-28.085-37.085H29.585C10.9492,1.5,1.5,13.9775,1.5,38.585v12.3633c0,24.6074,9.4492,37.085,28.085,37.085
	h30.584v1.25c0,13.3564-5.2568,20.1289-15.624,20.1289H9.2002V136.2383z M60.1689,61.1104H48.3594
	c-5.3877,0-11.8105-2.8438-11.8105-16.3916c0-13.4688,6.4229-16.2959,11.8105-16.2959c7.8359,0,11.8096,5.5146,11.8096,16.3916
	V61.1104z M48.3594,29.9229c-6.9375,0-10.3105,4.8398-10.3105,14.7959c0,10.0205,3.373,14.8916,10.3105,14.8916h10.3096V44.8145
	C58.6689,34.7939,55.2969,29.9229,48.3594,29.9229z"/>
</svg>
