<?xml version="1.0" encoding="utf-8"?>
<!-- Generator: Adobe Illustrator 22.0.1, SVG Export Plug-In . SVG Version: 6.00 Build 0)  -->
<svg version="1.1" id="Layer_1" xmlns="http://www.w3.org/2000/svg" xmlns:xlink="http://www.w3.org/1999/xlink" x="0px" y="0px"
	 viewBox="0 0 139.2607 64.0112" enable-background="new 0 0 139.2607 64.0112" xml:space="preserve">
<path d="M8.6249,4h59.9609l-1.2646,6.1621c-0.4736,2.2651-1.0264,3.9771-1.6592,5.1353c-0.6318,1.1592-1.9229,2.792-3.8701,4.8979
	L26.3203,60.0112H9.0195l40.2109-44.3979H6.1757L8.6249,4z M73.4902,0l-0.986,4.8041l-1.2676,6.1767
	c-0.5599,2.6775-1.2351,4.7168-2.0624,6.2309c-0.8046,1.4761-2.2093,3.2787-4.4197,5.6714L29.3069,62.6721l-1.1931,1.3392h-1.7936
	H9.0195H0l6.0547-6.6851l34.1563-37.7128H6.1757H1.2441l1.0177-4.8254L4.7111,3.1746L5.3806,0h3.2444h59.9609H73.4902z M71.038,2
	h-2.4521H8.6249H7.0027L6.668,3.5873L4.2188,15.2006L3.71,17.6133h2.4658h38.5449L7.5371,58.6686l-3.0273,3.3426h4.5097h17.3008
	h0.8968l0.5966-0.6696l35.4717-39.8159c2.0563-2.2234,3.4163-3.9565,4.1329-5.2712c0.7327-1.341,1.3417-3.2006,1.8607-5.6831
	l1.2662-6.1694L71.038,2z M135.2607,16.4824c0,2.897-0.54,5.6357-1.6191,8.2158c-1.0801,2.5815-2.6465,4.8188-4.7002,6.7153
	c2.5791,2.002,3.8701,4.8975,3.8701,8.6895c0,1.8447-0.2109,3.6084-0.6318,5.293c-0.5264,2.4766-1.3428,4.6885-2.4482,6.6367
	c-1.1064,1.9482-2.4492,3.4756-4.0293,4.5811c-1.7383,1.2646-3.8848,2.1475-6.4385,2.6465
	c-0.6389,0.1255-1.3295,0.2352-2.0719,0.3291c-1.4847,0.1879-3.1764,0.3127-5.0754,0.3751
	c-0.9495,0.0312-1.9509,0.0468-3.0041,0.0468H87.9404c-7.2168,0-12.2988-1.2637-15.2471-3.792
	c-2.4238-2.0537-3.6348-5.082-3.6348-9.085c0-6.6875,2.8174-11.9287,8.4531-15.7207c-1.5801-2.2646-2.3701-5.082-2.3701-8.4531
	c0-3.1069,0.6445-6.0562,1.9355-8.8481c1.29-2.791,3.2793-5.0288,5.9648-6.7148c1.9482-1.2109,4.1602-2.0801,6.6357-2.6074
	C92.1533,4.2642,95.4453,4,99.5527,4h16.8271c4.1084,0,7.3203,0.2642,9.6377,0.79c2.3174,0.5273,4.2393,1.3965,5.7676,2.6074
	C134.1015,9.2935,135.2607,12.3223,135.2607,16.4824z M119.1445,40.814c0-1.3154-0.3682-2.2119-1.1055-2.6855
	c-0.79-0.5791-2.3701-0.8691-4.7402-0.8691H90.3886c-3.6865,0-5.8984,1.4492-6.6357,4.3447l-0.1582,0.7901
	c-0.0527,0.3162-0.0988,0.6075-0.1382,0.8741c-0.1184,0.7999-0.1772,1.3773-0.1772,1.7332c0,1.2637,0.3672,2.1328,1.1055,2.6064
	c0.0988,0.0725,0.2098,0.1405,0.3333,0.2039c0.7407,0.3806,1.9257,0.5975,3.5552,0.6517c0.2715,0.009,0.5555,0.0135,0.8517,0.0135
	h22.9102c1.8428,0,3.3174-0.3418,4.4238-1.0264s1.8428-1.7646,2.2119-3.2393l0.1582-0.79
	C119.039,42.1577,119.1445,41.2886,119.1445,40.814z M121.9101,19.4053c0-1.3691-0.3691-2.3564-1.1064-2.9624
	c-0.7383-0.605-2.002-0.9087-3.792-0.9087H95.5244c-2.2129,0-3.7803,0.2246-4.7012,0.6714
	c-0.9219,0.4482-1.6191,1.4097-2.0928,2.8838c-0.3691,1.2119-0.5537,2.291-0.5537,3.2388c0,1.3701,0.3682,2.3701,1.1064,3.002
	c0.7363,0.6323,2.001,0.9478,3.792,0.9478h21.4883c2.2119,0,3.7783-0.2363,4.7002-0.7109c0.9209-0.4736,1.6191-1.4478,2.0938-2.9229
	C121.7245,21.4331,121.9101,20.353,121.9101,19.4053z M116.9581,39.8112c0.0306,0.0197,0.1864,0.2733,0.1864,1.0028
	c0,0.1624-0.0277,0.7054-0.283,2.2471l-0.1417,0.7076c-0.2451,0.9488-0.663,1.579-1.3132,1.9813
	c-0.7798,0.4825-1.9142,0.7271-3.3715,0.7271H89.1249c-2.8681,0-3.5298-0.4616-3.5566-0.4812l-0.0507-0.0373l-0.053-0.034
	c-0.0605-0.0388-0.1854-0.3155-0.1854-0.9231c0-0.1644,0.0277-0.7115,0.2829-2.2466l0.1409-0.7039
	c0.3445-1.3102,1.2037-2.7917,4.6855-2.7917h22.9102c2.8671,0,3.531,0.4625,3.5579,0.4822l0.0496,0.0364L116.9581,39.8112z
	 M115.0942,41.3454c-0.407-0.047-0.988-0.0861-1.7955-0.0861H90.3886c-2.2942,0-2.5826,0.6635-2.7352,1.2379l-0.1238,0.6179
	c-0.0953,0.5752-0.1543,0.9875-0.1909,1.2771c0.4064,0.0464,0.9846,0.0848,1.7861,0.0848h22.9102
	c1.469,0,2.1113-0.2993,2.3192-0.4279c0.0726-0.0449,0.2603-0.161,0.4164-0.7331l0.123-0.6142
	C114.9977,42.0717,115.0586,41.6373,115.0942,41.3454z M137.3316,26.2421c-0.7778,1.8591-1.7756,3.5842-2.982,5.1591
	c1.6208,2.4062,2.4619,5.3513,2.4619,8.7018c0,2.1357-0.2469,4.219-0.7339,6.1932c-0.6097,2.838-1.5743,5.4318-2.868,7.7118
	c-1.3907,2.4489-3.1348,4.4208-5.1842,5.862c-2.2012,1.5939-4.8907,2.7094-7.9908,3.3152
	c-2.8298,0.5558-6.4025,0.8259-10.9223,0.8259H87.9404c-8.2803,0-14.1194-1.5555-17.8329-4.7402
	c-3.3502-2.8386-5.049-6.9221-5.049-12.1368c0-6.8456,2.4743-12.4937,7.3638-16.8351c-0.8513-2.1908-1.2808-4.6459-1.2808-7.3387
	c0-3.6776,0.7755-7.2193,2.3046-10.5264c1.614-3.4918,4.1269-6.3261,7.4842-8.4338c2.3333-1.4503,4.996-2.5009,7.9162-3.1229
	C91.6257,0.287,95.1277,0,99.5527,0h16.8271c4.4441,0,7.8862,0.2909,10.5253,0.8898c2.8929,0.6583,5.3706,1.793,7.3641,3.3726
	l0.0248,0.0197l0.0246,0.0201c3.2793,2.6841,4.942,6.7822,4.942,12.1803C139.2607,19.898,138.6117,23.1815,137.3316,26.2421z
	 M137.2607,16.4824c0-4.7693-1.416-8.3467-4.2088-10.6326c-1.7822-1.4124-3.9913-2.4184-6.5906-3.0099
	C123.9705,2.2747,120.6732,2,116.3798,2H99.5527c-4.2241,0-7.6864,0.2805-10.2906,0.8337
	c-2.6921,0.5734-5.1397,1.5374-7.2759,2.8651c-3.016,1.8935-5.2759,4.4402-6.7245,7.5743
	c-1.4067,3.0423-2.1201,6.3016-2.1201,9.6873c0,2.9927,0.5781,5.6435,1.7215,7.9077c-5.1805,4.0727-7.8045,9.5363-7.8045,16.2662
	c0,4.5997,1.4608,8.1697,4.3419,10.6109c3.3444,2.8681,8.7576,4.2661,16.54,4.2661h21.1719c4.3889,0,7.8354-0.2579,10.5368-0.7885
	c2.8276-0.5526,5.2607-1.5592,7.2297-2.9917c1.7871-1.2499,3.3422-3.0103,4.5918-5.2107c1.1974-2.1102,2.0915-4.5236,2.6581-7.1743
	c0.4531-1.8262,0.6828-3.7581,0.6828-5.743c0-3.5598-1.0122-6.4927-3.0142-8.7489c1.5437-1.7405,2.7806-3.7122,3.6893-5.8839
	C136.6638,22.6555,137.2607,19.6316,137.2607,16.4824z M119.536,17.9899c0.3252,0.2673,0.3741,1.0016,0.3741,1.4154
	c0,0.7428-0.157,1.6372-0.4667,2.6584c-0.2855,0.8864-0.6778,1.5103-1.0945,1.7247c-0.2864,0.1474-1.227,0.4894-3.7855,0.4894
	H93.0751c-1.8536,0-2.3986-0.3874-2.489-0.465c-0.3388-0.29-0.4094-0.9672-0.4094-1.4847c0-0.7452,0.1571-1.6388,0.4669-2.656
	c0.2807-0.8727,0.6583-1.4754,1.0541-1.6679c0.2902-0.1407,1.2473-0.47,3.8266-0.47h21.4873
	C118.8851,17.5342,119.4432,17.9138,119.536,17.9899z M117.9059,19.5765c-0.2232-0.024-0.5169-0.0424-0.8942-0.0424H95.5244
	c-1.6142,0-2.4257,0.1367-2.7597,0.2151c-0.0555,0.1064-0.1326,0.278-0.2171,0.5364c-0.2816,0.9324-0.3589,1.5619-0.3695,1.947
	c0.2192,0.0254,0.5134,0.0452,0.8971,0.0452h21.4883c1.6373,0,2.4268-0.1491,2.7242-0.2249
	c0.0604-0.1072,0.1518-0.2974,0.2524-0.6043C117.8031,20.5723,117.8875,19.9653,117.9059,19.5765z"/>
</svg>
