<?xml version="1.0" encoding="utf-8"?>
<!-- Generator: Adobe Illustrator 22.0.1, SVG Export Plug-In . SVG Version: 6.00 Build 0)  -->
<svg version="1.1" id="Layer_1" xmlns="http://www.w3.org/2000/svg" xmlns:xlink="http://www.w3.org/1999/xlink" x="0px" y="0px"
	 viewBox="0 0 152.0771 143.0509" enable-background="new 0 0 152.0771 143.0509" xml:space="preserve">
<polygon points="40.7983,143.005 2.25,142.9073 2.25,34.3692 40.7983,4.1427 "/>
<polygon fill="#ED1C24" points="0.75,139.4093 37.2983,139.503 37.2983,3.6974 0.75,32.3556 "/>
<path d="M40.7983,143.005H0L0,31.9903L40.7983,0V143.005z M1.5,138.6612l35.0483,0.0898V5.2384L1.5,32.7208V138.6612z"/>
<polygon points="146.6533,143.0509 105.9697,143.0509 105.9697,102.6085 52.1011,102.6085 52.125,72.629 71.8457,11.5216 
	101.1733,9.2716 87.4888,72.1866 105.9697,72.1866 105.9697,4.8145 146.6533,4.7169 146.6533,72.1866 152.0771,72.1866 
	152.0771,102.6085 146.6533,102.6085 "/>
<polygon fill="#ED1C24" points="104.4697,139.5509 143.1533,139.5509 143.1533,99.1085 148.5771,99.1085 148.5771,70.6866 
	143.1533,70.6866 143.1533,3.2188 104.4697,3.3126 104.4697,70.6866 83.728,70.6866 97.9126,10.0216 70.0742,10.0216 
	50.6011,70.3614 50.6011,99.1085 104.4697,99.1085 "/>
<path d="M146.6533,143.0509l-42.9336-0.0459l0-40.3965h-53.872l0.0395-32.4775L69.5283,9.2716l32.0332,0l-13.5695,60.665h15.7277
	V2.5645l42.9336-0.1043v67.4764h5.4238v32.6719h-5.4238V143.0509z M105.2197,138.8009h37.1836V98.3585h5.4238V71.4366h-5.4238
	V3.9708l-37.1836,0.0898v67.376H82.7822l14.1846-60.665H70.6201l-19.269,59.708v27.8789h53.8686V138.8009z"/>
</svg>
