<?xml version="1.0" encoding="utf-8"?>
<!-- Generator: Adobe Illustrator 22.0.1, SVG Export Plug-In . SVG Version: 6.00 Build 0)  -->
<svg version="1.1" id="Layer_1" xmlns="http://www.w3.org/2000/svg" xmlns:xlink="http://www.w3.org/1999/xlink" x="0px" y="0px"
	 viewBox="0 0 111.9055 64.0112" enable-background="new 0 0 111.9055 64.0112" xml:space="preserve">
<path d="M106.9999,33.101h-5.4099l6.0042-28.27L108.6204,0h-4.9388H85.9863c-2.4706,0-4.8214,0.5581-6.9871,1.6588
	c-1.8719,0.9519-4.2047,2.5583-7.1323,4.9116L42.7532,29.7669c-2.3178,1.7913-3.8986,3.5351-4.8322,5.3303
	c-0.8347,1.6013-1.4847,3.539-1.9857,5.9207l-1.4925,6.7544l-1.0743,4.8629h4.9802h37.504l-1.3663,6.5605l-1.0029,4.8155h4.9188
	H91.832h3.2525l0.6634-3.1841l1.7067-8.1918h7.1752h3.2617l0.6565-3.1948l2.3701-11.5342l0.9874-4.8051H106.9999z M79.9812,33.101
	H68.3007l14.0273-11.0463L79.9812,33.101z"/>
<path fill="#FFCC33" d="M106.9999,35.101h-7.8792l6.5172-30.6855L106.151,2h-2.4694H85.9863c-2.1527,0-4.1986,0.485-6.0809,1.4417
	C78.1583,4.33,75.9388,5.8632,73.12,8.1291L43.9753,31.3503c-2.0717,1.5974-3.4799,3.1312-4.28,4.6697
	c-0.75,1.4389-1.34,3.2089-1.8029,5.4096l-1.4967,6.7742l-0.5372,2.4315h2.4901H78.312l-1.8677,8.9682l-0.5015,2.4078h2.4594H91.832
	h1.6263l0.3317-1.592l2.0384-9.7839h8.8015h1.6308l0.3282-1.5974l2.3702-11.5342l0.4937-2.4025H106.9999z M81.601,35.101H62.5283
	l20.7452-16.3364c1.1964-0.9296,1.5721-1.1353,1.6354-1.1671c-0.0002,0.0001-0.0003,0.0002-0.0002,0.0002
	c0.0018,0,0.1224-0.0457,0.4237-0.0596L81.601,35.101z"/>
<path d="M36.3511,1.936C34.5954,0.6326,32.2521,0,29.1845,0H7.3808H4.1364L3.4669,3.1746L1.0177,14.7878L0,19.6133h4.9316h10.6355
	L7.2582,59.1894l-1.0124,4.8218h4.927H24.997h3.2489l0.6661-3.1798l10.1123-48.269c0.3214-1.4809,0.4805-2.7403,0.4805-3.8221
	C39.5048,5.0553,37.7898,3.0062,36.3511,1.936z"/>
<path fill="#FFCC33" d="M37.0668,12.1523l-10.1123,48.269l-0.3331,1.5899H24.997H11.1728H8.7093l0.5062-2.4109l8.8151-41.987H4.9316
	H2.4658l0.5088-2.4127L5.4239,3.5873L5.7586,2h1.6222h21.8037c2.6227,0,4.5759,0.5037,5.973,1.5408
	c1.0709,0.7965,2.3474,2.3452,2.3474,5.1995C37.5048,9.6778,37.3606,10.7984,37.0668,12.1523z"/>
<path d="M33.9638,5.1455C32.9365,4.3828,31.3437,4,29.1845,4H7.3808L4.9316,15.6133h15.5625l-9.3213,44.3979H24.997l10.1123-48.269
	c0.2627-1.2109,0.3955-2.2119,0.3955-3.002C35.5048,7.1084,34.9911,5.9097,33.9638,5.1455z"/>
<path d="M103.6816,4H85.9863c-1.8447,0-3.5693,0.4087-5.1748,1.2246C79.204,6.042,77.0585,7.5293,74.373,9.688L45.2216,32.9146
	c-1.8438,1.4219-3.0947,2.7646-3.752,4.0283c-0.6592,1.2646-1.1992,2.8975-1.6201,4.8984l-1.501,6.7939h42.4229l-2.3691,11.376
	H91.832l2.3701-11.376h10.4277l2.3701-11.5342H96.6513L103.6816,4z M83.2206,37.1011H56.7558l25.2803-19.9077
	c0.9482-0.7368,1.6055-1.1973,1.9746-1.3828c0.3682-0.1836,0.8691-0.2764,1.501-0.2764h2.291L83.2206,37.1011z"/>
</svg>
