<?xml version="1.0" encoding="utf-8"?>
<!-- Generator: Adobe Illustrator 22.0.1, SVG Export Plug-In . SVG Version: 6.00 Build 0)  -->
<svg version="1.1" id="Layer_1" xmlns="http://www.w3.org/2000/svg" xmlns:xlink="http://www.w3.org/1999/xlink" x="0px" y="0px"
	 viewBox="0 0 111.9055 64.0112" enable-background="new 0 0 111.9055 64.0112" xml:space="preserve">
<path d="M35.5048,8.7402c0,0.79-0.1328,1.791-0.3955,3.002L24.997,60.0112H11.1728l9.3213-44.3979H4.9316L7.3808,4h21.8037
	c2.1592,0,3.752,0.3828,4.7793,1.1455C34.9911,5.9097,35.5048,7.1084,35.5048,8.7402z M39.5048,8.7402
	c0,1.0818-0.1591,2.3412-0.4805,3.8221L28.912,60.8314l-0.6661,3.1798H24.997H11.1728h-4.927l1.0124-4.8218l8.3089-39.5761H4.9316H0
	l1.0177-4.8254L3.4669,3.1746L4.1364,0h3.2444h21.8037c3.0676,0,5.4109,0.6326,7.1666,1.936
	C37.7898,3.0062,39.5048,5.0553,39.5048,8.7402z M37.5048,8.7402c0-2.8543-1.2765-4.403-2.3474-5.1995
	C33.7604,2.5037,31.8072,2,29.1845,2H7.3808H5.7586L5.4239,3.5873L2.9746,15.2006l-0.5088,2.4127h2.4658h13.099l-8.8151,41.987
	l-0.5062,2.4109h2.4635H24.997h1.6245l0.3331-1.5899l10.1123-48.269C37.3606,10.7984,37.5048,9.6778,37.5048,8.7402z
	 M96.6513,37.1011h10.3486l-2.3701,11.5342H94.2021l-2.3701,11.376H78.4023l2.3691-11.376H38.3486l1.501-6.7939
	c0.4209-2.001,0.9609-3.6338,1.6201-4.8984c0.6572-1.2637,1.9082-2.6064,3.752-4.0283L74.373,9.688
	c2.6855-2.1587,4.8311-3.646,6.4385-4.4634C82.4169,4.4087,84.1415,4,85.9863,4h17.6953L96.6513,37.1011z M87.8027,15.5342h-2.291
	c-0.6318,0-1.1328,0.0928-1.501,0.2764c-0.3691,0.1855-1.0264,0.646-1.9746,1.3828L56.7558,37.1011h26.4648L87.8027,15.5342z
	 M111.9055,33.1011l-0.9874,4.8051l-2.3701,11.5342l-0.6565,3.1948h-3.2617h-7.1752l-1.7067,8.1918l-0.6634,3.1841H91.832H78.4023
	h-4.9188l1.0029-4.8155l1.3663-6.5605h-37.504h-4.9802l1.0743-4.8629l1.4925-6.7544c0.501-2.3817,1.1511-4.3194,1.9857-5.9207
	c0.9337-1.7952,2.5144-3.539,4.8322-5.3303L71.8669,6.5704c2.9276-2.3533,5.2603-3.9597,7.1323-4.9116
	C81.1649,0.5581,83.5157,0,85.9863,0h17.6953h4.9388l-1.0261,4.8311l-6.0042,28.27h5.4099H111.9055z M109.4527,35.1011h-2.4528
	h-7.8792l6.5172-30.6855L106.151,2h-2.4694H85.9863c-2.1527,0-4.1986,0.485-6.0809,1.4417
	c-1.7471,0.8884-3.9665,2.4216-6.7853,4.6875L43.9753,31.3503c-2.0717,1.5974-3.4799,3.1312-4.28,4.6697
	c-0.75,1.4389-1.34,3.2089-1.8029,5.4096l-1.4967,6.7742l-0.5372,2.4315h2.4901H78.312l-1.8677,8.9682l-0.5015,2.4078h2.4594H91.832
	h1.6263l0.3317-1.592l2.0384-9.7839h8.8015h1.6308l0.3282-1.5974l2.3702-11.5342L109.4527,35.1011z M84.9086,17.5977
	c0.0018,0,0.1224-0.0457,0.4237-0.0596L81.601,35.1011H62.5283l20.7452-16.3364c1.1964-0.9296,1.5721-1.1353,1.6354-1.1671
	C84.9086,17.5977,84.9085,17.5977,84.9086,17.5977z M82.3281,22.0548L68.3007,33.1011h11.6805L82.3281,22.0548z"/>
</svg>
