<?xml version="1.0" encoding="utf-8"?>
<!-- Generator: Adobe Illustrator 22.0.1, SVG Export Plug-In . SVG Version: 6.00 Build 0)  -->
<svg version="1.1" id="Layer_1" xmlns="http://www.w3.org/2000/svg" xmlns:xlink="http://www.w3.org/1999/xlink" x="0px" y="0px"
	 viewBox="0 0 62.14 35.5" enable-background="new 0 0 62.14 35.5" xml:space="preserve">
<path d="M15.57,35.5H3.48l5.19-24.73H0L2.27,0h13.89c1.69,0,2.98,0.35,3.94,1.06c1.11,0.83,1.73,2.15,1.73,3.73
	c0,0.6-0.09,1.29-0.27,2.13L15.57,35.5z M6.56,33h6.98l5.57-26.6c0.14-0.67,0.21-1.19,0.21-1.61c0-0.79-0.24-1.37-0.72-1.72
	C18.1,2.69,17.28,2.5,16.16,2.5H4.3L3.08,8.27h8.67L6.56,33z"/>
<path d="M52.8,35.5H40.93l1.32-6.34H18.59l1.41-6.4c0.27-1.29,0.64-2.39,1.1-3.26c0.52-0.99,1.4-1.96,2.68-2.95L39.99,3.64
	c1.62-1.3,2.91-2.19,3.95-2.72C45.14,0.31,46.43,0,47.79,0H60.3l-3.92,18.44h5.75l-2.2,10.72h-5.81L52.8,35.5z M44,33h6.76
	l1.32-6.34h5.81l1.18-5.72H53.3L57.22,2.5h-9.42c-0.96,0-1.88,0.22-2.72,0.64c-0.88,0.45-2.03,1.25-3.52,2.44L25.32,18.52
	c-1.01,0.78-1.66,1.48-2.01,2.14c-0.35,0.67-0.64,1.56-0.87,2.63l-0.74,3.37h23.62L44,33z M46.54,20.94H30.5L45.37,9.23
	c0.83-0.64,1.08-0.77,1.17-0.81c0.22-0.12,0.57-0.19,0.99-0.19h1.71L46.54,20.94z M37.72,18.44h6.79l1.37-6.43L37.72,18.44z"/>
</svg>
