<?xml version="1.0" encoding="utf-8"?>
<!-- Generator: Adobe Illustrator 22.0.1, SVG Export Plug-In . SVG Version: 6.00 Build 0)  -->
<svg version="1.1" id="Layer_1" xmlns="http://www.w3.org/2000/svg" xmlns:xlink="http://www.w3.org/1999/xlink" x="0px" y="0px"
	 viewBox="0 0 144.27626 100" enable-background="new 0 0 144.27626 100" xml:space="preserve">
<path d="M61.81558,39.70376c-3.90125-3.88105-8.94242-6.19442-15.59266-6.19442H30.24265
	c0.75788-5.62292,3.49099-8.37348,8.29938-8.37348h25.8175L64.3589,0.06649H20.92615C7.04056,0.06649,0,9.40556,0,27.82429v42.01965
	c0,11.44454,2.63509,18.7768,7.55475,23.67097C11.45601,97.39596,16.67418,100,23.32442,100c6.32419,0,25.29676,0,25.29676,0
	c13.88556,0,20.92616-9.33907,20.92616-27.75779V63.6654C69.54734,52.22086,66.73521,44.59791,61.81558,39.70376z
	 M33.57455,74.86414c-0.76447,0-1.96045-0.01593-2.40566-0.4346c-1.20372-1.13195-1.14772-3.45992-1.14772-6.50899V58.6452h5.95165
	c0.76783,0,1.61137,0.08882,2.41616,0.43595c0.69007,1.38588,1.13718,3.42925,1.13718,6.44114
	C39.52617,73.89574,36.12948,74.86414,33.57455,74.86414z"/>
<path d="M137.22989,52.27593c-0.61911-0.61375-1.14293-1.01177-1.9175-1.45632c5.94946-3.11183,8.96387-10.94883,8.96387-23.43918
	c0-9.89992-2.5285-16.80704-7.06511-21.32738C133.28207,2.13806,127.99218,0,120.93534,0H78.13805v25.13586h29.7832
	c2.32957,0,4.45087-0.02174,5.54639,1.09213c0.81413,0.82776,0.78745,2.30411,0.78745,3.82396
	c0,5.03502-2.75953,7.38012-8.68439,7.38012H83.0788v25.13586h24.89016c2.30294,0,4.40433-0.02188,5.49195,1.08327
	c0.82159,0.83484,0.79417,2.32739,0.79417,3.86568c0,5.01259-2.77468,7.34726-8.73211,7.34726H78.13805V100h45.16263
	c13.91838,0,20.97559-8.40521,20.97559-24.98216C144.27626,63.80432,141.51804,56.52702,137.22989,52.27593z"/>
<path fill="#FFFFFF" d="M65.986,69.84394c0,17.72981-6.58826,26.59472-19.76309,26.59472H20.92615
	c-13.17539,0-19.76309-8.86491-19.76309-26.59472V27.82428c0-17.72905,6.5877-26.59472,19.76309-26.59472h39.87204v20.34496
	H36.14373c-6.45594,0-9.68391,4.36597-9.68391,13.0979h19.76309c13.17483,0,19.76309,8.86567,19.76309,26.59472V69.84394z
	 M33.57453,55.08387h-7.11471v10.43843c0,7.00404,2.37157,10.50492,7.11471,10.50492s7.11472-3.50088,7.11472-10.50492
	C40.68924,58.56411,38.31767,55.08387,33.57453,55.08387z"/>
<path fill="#FFFFFF" d="M140.7149,72.61957c0,15.88042-6.60417,23.81909-19.8125,23.81909H79.3011V76.02721h26.22187
	c6.59621,0,9.89518-2.83601,9.89518-8.51031c0-5.67354-3.28249-8.51031-9.84747-8.51031h-21.3288V38.59514h21.3288
	c6.56498,0,9.84747-2.84747,9.84747-8.54317c0-5.65214-3.29897-8.47745-9.89518-8.47745H79.3011V1.16307h41.63425
	c13.18619,0,19.77956,7.93944,19.77956,23.81909s-4.85899,23.81909-14.57528,23.81909
	C135.85591,48.80125,140.7149,56.74069,140.7149,72.61957z"/>
</svg>
