<?xml version="1.0" encoding="utf-8"?>
<!-- Generator: Adobe Illustrator 22.0.1, SVG Export Plug-In . SVG Version: 6.00 Build 0)  -->
<svg version="1.1" id="Layer_1" xmlns="http://www.w3.org/2000/svg" xmlns:xlink="http://www.w3.org/1999/xlink" x="0px" y="0px"
	 viewBox="0 0 138.3333 74.25" enable-background="new 0 0 138.3333 74.25" xml:space="preserve">
<g>
	<path fill="#F32735" d="M0,0v74.25h138.3333V0H0z M14.7771,10.5648h11.439l-5.932,27.932h15.178l-2.082,9.748H6.6361
		L14.7771,10.5648z M5.802,52.1158H123.69l-0.763,3.496H5.087L5.802,52.1158z M67.6457,10.6243h17.197l-17.659,15.027l10.663,22.665
		h-13.055l-6.855-14.706l-3.8,2.945l-2.421,11.761h-11.59l8.022-37.751h11.538l-1.91,9.799L67.6457,10.6243z M15.1705,70.334
		h-0.9268H13.317l-1.499-7.3438l-1.4653,7.3438H9.4259H8.4991L5.903,61.0029h1.0146h1.0146l1.5556,6.8254l1.3345-6.8254h1.0347
		h1.041l1.3481,6.7725h0.002l1.5483-6.7725h0.9854h0.9849L15.1705,70.334z M27.7267,70.334h-0.9268h-0.9268l-1.499-7.3438
		l-1.4653,7.3438h-0.9268h-0.9268l-2.5962-9.3311h1.0146h1.0146l1.5556,6.8254l1.3345-6.8254h1.0347h1.041l1.3481,6.7725h0.002
		l1.5483-6.7725h0.9854h0.9849L27.7267,70.334z M40.2823,70.334h-0.9268h-0.9268l-1.499-7.3438l-1.4653,7.3438h-0.9268H33.611
		l-2.5962-9.3311h1.0146h1.0146l1.5556,6.8254l1.3345-6.8254h1.0347h1.041l1.3481,6.7725h0.002l1.5483-6.7725h0.9854h0.9849
		L40.2823,70.334z M46.1417,70.334H44.193v-1.8916h1.9487V70.334z M54.8385,69.502v0.832h-6.5889v-9.3311h0.9712h0.9775v7.6748
		h4.6401V69.502z M63.6002,70.334h-1.2749l-2.8125-4.1045l-0.9478,0.9688v3.1357h-0.9712h-0.9775v-9.3311h0.9712h0.9775v3.8633
		l3.5752-3.8633h1.2437h1.2432l-3.7261,3.8076l3.9736,5.5234H63.6002z M75.1071,70.334h-0.9082h-0.9141v-7.8369l-1.7461,7.8369
		h-0.957h-0.959l-1.7441-8.0176h-0.0015v8.0176h-0.9077h-0.9141v-9.3311h1.4282h1.4282l1.6992,7.3955l1.6777-7.3955h1.4082h1.4102
		V70.334z M79.0553,70.334h-1.9482v-1.8916h1.9482V70.334z M83.3444,68.0518c0.4082,0.5654,0.9775,0.8477,1.7061,0.8477
		c0.5723,0,1.0439-0.165,1.415-0.4951c0.3701-0.3301,0.5879-0.7764,0.6514-1.3398h1.9482c-0.1182,1.0801-0.54,1.9365-1.2656,2.5713
		s-1.6494,0.9521-2.7715,0.9521c-1.3115,0-2.3535-0.4375-3.126-1.3145c-0.7725-0.875-1.1582-2.0605-1.1582-3.5547
		c0-1.5234,0.3857-2.7324,1.1582-3.627c0.7725-0.8955,1.8145-1.3428,3.126-1.3428c1.1094,0,2.0273,0.2998,2.7559,0.8984
		c0.7275,0.5986,1.1543,1.4102,1.2813,2.4346h-1.9482c-0.0635-0.5039-0.2813-0.9043-0.6514-1.2002
		c-0.3711-0.2959-0.8428-0.4443-1.415-0.4443c-0.7246,0-1.292,0.2891-1.7031,0.8662c-0.4111,0.5781-0.6162,1.3789-0.6162,2.4033
		C82.7311,66.7051,82.9352,67.4873,83.3444,68.0518z M98.1783,69.2734c-0.8057,0.877-1.8984,1.3145-3.2783,1.3145
		c-1.3711,0-2.4609-0.4375-3.2695-1.3145c-0.8076-0.875-1.2119-2.0605-1.2119-3.5547c0-1.5234,0.4043-2.7324,1.2119-3.627
		c0.8086-0.8955,1.8984-1.3428,3.2695-1.3428c1.3799,0,2.4727,0.4473,3.2783,1.3428c0.8066,0.8945,1.21,2.1035,1.21,3.627
		C99.3883,67.2129,98.985,68.3984,98.1783,69.2734z M110.192,70.334h-0.9082h-0.9141v-7.8413l-1.7461,7.8413h-0.958h-0.958
		l-1.7441-8.0176h-0.002v8.0176h-0.9082h-0.9141v-9.3311h1.4287h1.4287l1.6992,7.3955l1.6777-7.3955h1.4082h1.4102V70.334z
		 M114.1403,70.334h-1.9482v-1.8916h1.9482V70.334z M118.4293,68.0518c0.4082,0.5654,0.9775,0.8477,1.7061,0.8477
		c0.5723,0,1.0439-0.165,1.415-0.4951c0.3701-0.3301,0.5879-0.7764,0.6514-1.3398h1.9482c-0.1182,1.0801-0.54,1.9365-1.2656,2.5713
		s-1.6494,0.9521-2.7715,0.9521c-1.3115,0-2.3535-0.4375-3.126-1.3145c-0.7725-0.875-1.1582-2.0605-1.1582-3.5547
		c0-1.5234,0.3857-2.7324,1.1582-3.627c0.7725-0.8955,1.8145-1.3428,3.126-1.3428c1.1094,0,2.0273,0.2998,2.7559,0.8984
		c0.7275,0.5986,1.1543,1.4102,1.2813,2.4346h-1.9482c-0.0635-0.5039-0.2813-0.9043-0.6514-1.2002
		c-0.3711-0.2959-0.8428-0.4443-1.415-0.4443c-0.7246,0-1.292,0.2891-1.7031,0.8662c-0.4111,0.5781-0.6162,1.3789-0.6162,2.4033
		C117.816,66.7051,118.0201,67.4873,118.4293,68.0518z M112.8354,48.3162l4.572-22.0421l-9.105,22.0421l-8.725-0.011l-0.231-18.593
		l-4.08,18.604h-11.619l8.231-37.751h15.186l0.433,20.754l9.751-20.765l15.186,0.07l-7.98,37.671L112.8354,48.3162z
		 M133.4381,70.334h-0.9707h-0.9717l-3.8467-6.7285v6.7285h-0.9082h-0.9141v-9.3311h1.0225h1.0225l3.7441,6.5508v-6.5508h0.9082
		h0.9141V70.334z M133.4891,6.8253H15.691l0.724-3.458h117.8391L133.4891,6.8253z"/>
	<path fill="#F32735" d="M94.9,62.4063c-0.791,0-1.4111,0.291-1.8594,0.875c-0.4492,0.584-0.6738,1.3926-0.6738,2.4258
		c0,1.0107,0.2236,1.8008,0.6699,2.3701s1.0674,0.8545,1.8633,0.8545s1.418-0.2852,1.8662-0.8545s0.6729-1.3594,0.6729-2.3701
		c0-1.0332-0.2246-1.8418-0.6729-2.4258S95.6959,62.4063,94.9,62.4063z"/>
</g>
</svg>
