<?xml version="1.0" encoding="utf-8"?>
<!-- Generator: Adobe Illustrator 22.0.1, SVG Export Plug-In . SVG Version: 6.00 Build 0)  -->
<svg version="1.1" id="Layer_1" xmlns="http://www.w3.org/2000/svg" xmlns:xlink="http://www.w3.org/1999/xlink" x="0px" y="0px"
	 viewBox="0 0 138.3333 60.666" enable-background="new 0 0 138.3333 60.666" xml:space="preserve">
<path fill-rule="evenodd" clip-rule="evenodd" fill="#F32735" d="M0,0v60.666h138.3333V0H0z M14.7771,10.5648h11.439l-5.932,27.932
	h15.178l-2.082,9.748H6.6361L14.7771,10.5648z M122.927,55.6118H5.087l0.715-3.496H123.69L122.927,55.6118z M67.6457,10.6243h17.197
	l-17.659,15.027l10.663,22.665h-13.055l-6.855-14.706l-3.8,2.945l-2.421,11.761h-11.59l8.022-37.751h11.538l-1.91,9.799
	L67.6457,10.6243z M124.4544,48.2952l-11.619,0.021l4.572-22.0421l-9.105,22.0421l-8.725-0.011l-0.231-18.593l-4.08,18.604h-11.619
	l8.231-37.751h15.186l0.433,20.754l9.751-20.765l15.186,0.07L124.4544,48.2952z M133.4891,6.8253H15.691l0.724-3.458h117.8391
	L133.4891,6.8253z"/>
</svg>
