<?xml version="1.0" encoding="utf-8"?>
<!-- Generator: Adobe Illustrator 22.0.1, SVG Export Plug-In . SVG Version: 6.00 Build 0)  -->
<svg version="1.1" id="Layer_1" xmlns="http://www.w3.org/2000/svg" xmlns:xlink="http://www.w3.org/1999/xlink" x="0px" y="0px"
	 viewBox="0 0 710 350.68" enable-background="new 0 0 710 350.68" xml:space="preserve">
<path d="M125.08,321.52c0,5.12,1.24,8.76,3.72,10.92c2.4,2.16,6.6,3.24,12.6,3.24c3.12,0,6.04-0.4,8.76-1.2
	c1.2-0.32,2.52-0.88,3.96-1.68c1.2-0.56,2.36-1.36,3.48-2.4c2.08-1.84,3.24-4.16,3.48-6.96c0-2.8-1.04-4.8-3.12-6
	c-2.4-1.28-5.64-2.4-9.72-3.36l-14.28-3.6c-4.48-1.2-8.36-2.84-11.64-4.92c-3.28-2.08-5.28-4.96-6-8.64l-0.36-4.2
	c0-3.6,0.8-7.44,2.4-11.52c1.52-3.92,3.88-7.52,7.08-10.8c3.04-3.12,7.04-5.72,12-7.8c4.96-1.92,10.68-2.88,17.16-2.88
	c5.2,0,9.96,0.76,14.28,2.28c4.4,1.52,7.96,3.96,10.68,7.32c2.72,3.44,4.08,7.8,4.08,13.08l-0.24,5.16H166
	c0-4.88-1.36-8.28-4.08-10.2c-2.72-1.92-5.96-2.88-9.72-2.88c-4.48,0-8.76,1.04-12.84,3.12c-3.92,2.16-5.88,5.48-5.88,9.96
	c0,2,0.88,3.52,2.64,4.56c1.84,1.12,5.52,2.32,11.04,3.6l8.52,2.16l10.32,2.88c2.32,0.64,4.52,1.64,6.6,3
	c2.32,1.36,3.96,3,4.92,4.92c1.28,2.24,1.92,5.2,1.92,8.88c0,3.52-0.8,7.24-2.4,11.16c-1.68,3.92-4.2,7.56-7.56,10.92
	c-1.68,1.52-3.6,3-5.76,4.44c-1.92,1.2-4.36,2.4-7.32,3.6c-5.2,2-11.36,3-18.48,3c-5.84,0-11.16-0.8-15.96-2.4
	c-4.64-1.52-8.32-4-11.04-7.44c-1.36-1.84-2.32-3.84-2.88-6c-0.72-2.16-1.08-4.48-1.08-6.96l0.72-6.36H125.08z M200.8,262h38.76
	c7.68,0,13.28,1.88,16.8,5.64c3.44,3.76,5.16,8.76,5.16,15c0,5.92-1.48,11.56-4.44,16.92c-2.96,5.36-7.04,9.6-12.24,12.72
	c-5.12,3.2-10.8,4.8-17.04,4.8h-20.88l-6.48,31.2h-18.12L200.8,262z M227.8,302.32c3.04,0,5.68-0.76,7.92-2.28
	c1.36-0.96,2.44-1.84,3.24-2.64c1.04-1.12,1.84-2.24,2.4-3.36c1.28-2.48,1.92-5.2,1.92-8.16c0-3.12-0.96-5.44-2.88-6.96
	c-1.92-1.44-4.96-2.16-9.12-2.16h-15.84l-5.4,25.56H227.8z M276.28,262h45.6c4.24,0,7.96,0.88,11.16,2.64
	c3.2,1.84,5.56,4.16,7.08,6.96c1.6,3.04,2.4,6.24,2.4,9.6l-0.24,3.12c-0.24,2.16-0.92,4.56-2.04,7.2c-0.96,2.32-2.24,4.52-3.84,6.6
	c-1.44,1.84-3.24,3.6-5.4,5.28c-2.32,1.68-4.64,2.8-6.96,3.36c5.12,1.76,7.68,5.52,7.68,11.28v2.52l-0.12,0.6
	c-0.08,1.04-0.2,1.88-0.36,2.52l-1.56,8.04c-0.16,0.56-0.36,1.4-0.6,2.52c-0.08,0.56-0.2,1.12-0.36,1.68
	c-0.32,1.36-0.48,2.68-0.48,3.96l-0.24,2.28c0.24,2,1.12,3.24,2.64,3.72l-0.48,2.4h-19.92l-0.12-3l0.36-5.64l1.2-6.6l1.2-6.24
	l0.36-4.32c0-2.72-0.68-4.76-2.04-6.12c-1.44-1.2-4.12-1.8-8.04-1.8h-20.4l-7.2,33.72h-17.88L276.28,262z M307.36,300.04
	c2.88,0,5.56-0.6,8.04-1.8c2.64-1.12,4.68-2.76,6.12-4.92c1.52-2.24,2.28-4.76,2.28-7.56c0-2.72-0.84-4.84-2.52-6.36
	c-1.84-1.6-4.28-2.4-7.32-2.4h-23.4l-4.68,23.04H307.36z M357.04,262h18l-18.24,86.28h-18.12L357.04,262z M386.44,262h18.72
	L427,322.72L439.84,262h16.68l-18.36,86.28h-18l-22.32-61.92l-13.08,61.92h-16.92L386.44,262z M457.48,300.76
	c0.8-2.8,1.96-5.92,3.48-9.36c2.72-6.08,6.4-11.48,11.04-16.2c4.72-4.8,10.12-8.56,16.2-11.28c6.32-2.8,13.08-4.2,20.28-4.2
	c5.2,0,9.96,0.8,14.28,2.4c3.92,1.52,7.2,3.6,9.84,6.24c2.4,2.48,4.2,5.52,5.4,9.12c1.2,3.44,1.8,7.2,1.8,11.28h-17.52
	c-0.8-4.4-2.64-7.84-5.52-10.32c-2.96-2.48-6.2-3.72-9.72-3.72c-7.28,0-13.36,1.96-18.24,5.88c-4.88,3.92-8.6,9.04-11.16,15.36
	c-1.44,3.68-2.48,6.96-3.12,9.84c-0.8,3.12-1.2,6.48-1.2,10.08c0,6.32,1.6,11.08,4.8,14.28c3.12,3.36,7.68,5.04,13.68,5.04
	c4.56,0,8.8-1.04,12.72-3.12c3.76-2.08,6.76-4.6,9-7.56c2.24-2.96,3.84-5.76,4.8-8.4H498.4l2.76-14.28h36.12l-9.84,46.44h-12
	l0.48-10.8c-2.16,2.72-4.88,5.08-8.16,7.08c-2.88,1.84-6.32,3.32-10.32,4.44c-4,1.12-7.92,1.68-11.76,1.68
	c-5.36,0-10.44-1.2-15.24-3.6c-4.72-2.4-8.48-6.08-11.28-11.04c-2.8-4.96-4.2-11.08-4.2-18.36v-3.12c0-1.12,0.16-2.6,0.48-4.44
	C455.76,307.24,456.44,304.12,457.48,300.76z M558.04,321.52c0,5.12,1.24,8.76,3.72,10.92c2.4,2.16,6.6,3.24,12.6,3.24
	c3.12,0,6.04-0.4,8.76-1.2c1.2-0.32,2.52-0.88,3.96-1.68c1.2-0.56,2.36-1.36,3.48-2.4c2.08-1.84,3.24-4.16,3.48-6.96
	c0-2.8-1.04-4.8-3.12-6c-2.4-1.28-5.64-2.4-9.72-3.36l-14.28-3.6c-4.48-1.2-8.36-2.84-11.64-4.92c-3.28-2.08-5.28-4.96-6-8.64
	l-0.36-4.2c0-3.6,0.8-7.44,2.4-11.52c1.52-3.92,3.88-7.52,7.08-10.8c3.04-3.12,7.04-5.72,12-7.8c4.96-1.92,10.68-2.88,17.16-2.88
	c5.2,0,9.96,0.76,14.28,2.28c4.4,1.52,7.96,3.96,10.68,7.32c2.72,3.44,4.08,7.8,4.08,13.08l-0.24,5.16h-17.4
	c0-4.88-1.36-8.28-4.08-10.2c-2.72-1.92-5.96-2.88-9.72-2.88c-4.48,0-8.76,1.04-12.84,3.12c-3.92,2.16-5.88,5.48-5.88,9.96
	c0,2,0.88,3.52,2.64,4.56c1.84,1.12,5.52,2.32,11.04,3.6l8.52,2.16l10.32,2.88c2.32,0.64,4.52,1.64,6.6,3
	c2.32,1.36,3.96,3,4.92,4.92c1.28,2.24,1.92,5.2,1.92,8.88c0,3.52-0.8,7.24-2.4,11.16c-1.68,3.92-4.2,7.56-7.56,10.92
	c-1.68,1.52-3.6,3-5.76,4.44c-1.92,1.2-4.36,2.4-7.32,3.6c-5.2,2-11.36,3-18.48,3c-5.84,0-11.16-0.8-15.96-2.4
	c-4.64-1.52-8.32-4-11.04-7.44c-1.36-1.84-2.32-3.84-2.88-6c-0.72-2.16-1.08-4.48-1.08-6.96l0.72-6.36H558.04z"/>
<g>
	<path fill="#0696DC" d="M179.92,87.01c-10.17,0-10.74,9.06-11.03,10.84c-2.85,17.68-5.53,35.4-8.55,53.05
		c-0.95,5.55-0.02,9.99,5.8,11.3c5.75,1.3,9.56-2.55,10.47-7.56c3.52-19.41,9.63-58.89,9.63-58.89
		C186.83,91.58,185.17,87.01,179.92,87.01z"/>
	<path fill="#0696DC" d="M692.62,57.72c-0.08,0.65-0.96,0.78-1.24,0.18l-14.35-30.77c-6.49-13.91-18.24-23.88-36.99-23.88
		c-17.5,0-29.94,10.71-32.82,25.53l-5.37,27.61c-0.13,0.65-1.01,0.77-1.3,0.17l-11.96-24.52c-7.13-14.62-14.04-28.79-42.18-28.79
		c-15.86,0-27.09,10.32-29.87,24.62l-5.46,28.08c-0.1,0.53-0.83,0.63-1.06,0.14l-15.58-31.94c-6.65-13.64-18.03-22.12-35.76-22.27
		c-15.78-0.13-29.32,11.28-32.33,26.78l-5.05,25.96c-0.12,0.61-0.94,0.72-1.21,0.16l-14.22-29.15
		c-6.68-13.69-20.57-22.37-35.8-22.37c-15.9,0-29.89,11.05-33.49,26.64l-6.58,28.52c-0.11,0.49-0.78,0.56-0.99,0.11L313.1,25.94
		c-6.38-13.07-17.81-23.01-35.3-22.68c-15.44,0.29-28.58,11.4-32.05,26.45l-6.33,27.42c-0.08,0.35-0.56,0.4-0.71,0.08L222.2,23.36
		C215.24,9.1,201.09,0,185.23,0c-15.06,0-30.44,11.84-32.97,27.81l-3.6,22.71c-0.1,0.62-0.94,0.74-1.21,0.17L134.9,23.78
		C127.96,8.9,112.92-0.47,96.43,0.02C81.53,0.46,68.95,11.27,65.6,25.79l-7.81,33.81c-0.14,0.61-0.98,0.69-1.24,0.12L41.67,26.3
		C34.55,10.31,18.68,0,1.17,0H0v252.5c11.68,0,16.32-40.12,17.25-49.64c0.05-0.56,0.81-0.68,1.04-0.17l13.86,29.73
		c5.71,12.25,18.01,20.08,31.53,20.08h2.96c16.66,0,30.99-11.81,34.17-28.17l4.24-21.79c0.12-0.6,0.93-0.72,1.21-0.17l15.4,30.22
		c6.23,12.22,18.78,19.91,32.49,19.91h0c16.7,0,31.05-11.83,34.24-28.23l6.19-31.86c0.1-0.52,0.8-0.62,1.05-0.15l21.96,43.09
		c5.36,10.52,16.17,17.14,27.98,17.14h2.04c17.82,0,33.08-12.8,36.17-30.35l3.48-19.73c0.09-0.5,0.77-0.6,1-0.15l15.6,30.58
		c6.15,12.06,18.55,19.65,32.08,19.65h1.65c18.55,0,34.27-13.66,36.85-32.03l3.4-24.19c0.08-0.55,0.82-0.66,1.05-0.16l16.41,35.2
		c6.03,12.92,19,21.19,33.26,21.19h0.58c18.23,0,33.68-13.41,36.26-31.46l2.89-20.28c0.08-0.55,0.83-0.66,1.06-0.16l14.18,30.4
		c5.84,12.51,18.1,21.03,31.9,21.47c18.61,0.6,34.79-12.4,38.32-30.56l4.78-24.6c0.09-0.46,0.72-0.55,0.93-0.13l18.68,36.67
		c5.83,11.44,14.28,18.64,31.66,18.64c17.87,0,32.28-11.9,35.49-28.39l5.01-25.78c0.09-0.49,0.75-0.58,0.98-0.14l17.81,34.95
		c6.05,11.88,18.25,19.35,31.58,19.35l9.34,0V9.17C699.37,11.09,693.87,48.14,692.62,57.72z M33.45,223.66l-13.75-28.2l0.94-6.94
		l13.75,28.2L33.45,223.66z M35.69,206.34l-13.75-28.2l0.94-6.94l13.75,28.2L35.69,206.34z M38.07,189.77l-13.75-28.2l0.94-6.94
		l13.75,28.2L38.07,189.77z M40.24,173.21l-13.75-28.2l0.94-6.94l13.75,28.2L40.24,173.21z M42.62,155.64l-13.75-28.2l0.94-6.94
		l13.75,28.2L42.62,155.64z M44.74,138.08l-13.75-28.2l0.94-6.94l13.75,28.2L44.74,138.08z M46.75,121.3L33,93.1l0.94-6.94
		l13.75,28.2L46.75,121.3z M49.4,105.87l-13.75-28.2l0.94-6.94l13.75,28.2L49.4,105.87z M51.36,90.53l-13.75-28.2l0.94-6.94
		l13.75,28.2L51.36,90.53z M53.61,73.87l-13.75-28.2l0.94-6.94l13.75,28.2L53.61,73.87z M96.03,174.85c-13.14,0-25.74,0-39.22,0
		c5.4-33.45,10.74-66.52,16.14-99.92c5.6,0,10.55,0,16.25,0c-4.58,27.93-9.1,55.52-13.73,83.76c8.17,0,15.6,0,23.75,0
		C98.07,164.46,97.07,169.56,96.03,174.85z M122.68,215.67l-13.75-28.2l0.94-6.94l13.75,28.2L122.68,215.67z M124.92,198.35
		l-13.75-28.2l0.94-6.94l13.75,28.2L124.92,198.35z M127.3,181.78l-13.75-28.2l0.94-6.94l13.75,28.2L127.3,181.78z M129.47,165.23
		l-13.75-28.2l0.94-6.94l13.75,28.2L129.47,165.23z M131.85,147.66l-13.75-28.2l0.94-6.94l13.75,28.2L131.85,147.66z M133.97,130.09
		l-13.75-28.2l0.94-6.94l13.75,28.2L133.97,130.09z M135.98,113.31l-13.75-28.2l0.94-6.94l13.75,28.2L135.98,113.31z M138.63,97.88
		l-13.75-28.2l0.94-6.94l13.75,28.2L138.63,97.88z M140.59,82.55l-13.75-28.2l0.94-6.94l13.75,28.2L140.59,82.55z M142.84,65.89
		l-13.75-28.2l0.94-6.94l13.75,28.2L142.84,65.89z M191.48,159.12c-2.52,12.21-14.94,18.08-29.03,15.27
		c-14.74-2.94-19.2-9.3-16.92-24.43c2.75-18.24,5.15-36.54,8.62-54.64c1.7-8.85,5.56-17.3,14.95-21.18
		c17.34-7.16,35.82,3.45,31.74,31.24C198.54,118.88,195.61,139.12,191.48,159.12z M213.1,215.67l-13.75-28.2l0.94-6.94l13.75,28.2
		L213.1,215.67z M215.35,198.35l-13.75-28.2l0.94-6.94l13.75,28.2L215.35,198.35z M217.73,181.78l-13.75-28.2l0.94-6.94l13.75,28.2
		L217.73,181.78z M219.89,165.23l-13.75-28.2l0.94-6.94l13.75,28.2L219.89,165.23z M222.28,147.66l-13.75-28.2l0.94-6.94l13.75,28.2
		L222.28,147.66z M224.39,130.09l-13.75-28.2l0.94-6.94l13.75,28.2L224.39,130.09z M226.41,113.31l-13.75-28.2l0.94-6.94l13.75,28.2
		L226.41,113.31z M229.06,97.88l-13.75-28.2l0.94-6.94l13.75,28.2L229.06,97.88z M231.02,82.55l-13.75-28.2l0.94-6.94l13.75,28.2
		L231.02,82.55z M233.27,65.89l-13.75-28.2l0.94-6.94l13.75,28.2L233.27,65.89z M260.14,174.36c-4.71,0-9.26,0-13.76,0
		c0-33.12,0-66.02,0-99.29c5.41,0,10.29,0,15.2,0c0,18.2,0,36.31,0,56.15c6.56-19.75,12.61-37.96,18.68-56.22c4.4,0,8.64,0,13.43,0
		C282.44,108.33,271.34,141.22,260.14,174.36z M304.59,222.55l-13.75-28.2l0.94-6.94l13.75,28.2L304.59,222.55z M306.83,205.23
		l-13.75-28.2l0.94-6.94l13.75,28.2L306.83,205.23z M309.21,188.66l-13.75-28.2l0.94-6.94l13.75,28.2L309.21,188.66z M311.38,172.11
		l-13.75-28.2l0.94-6.94l13.75,28.2L311.38,172.11z M313.76,154.54l-13.75-28.2l0.94-6.94l13.75,28.2L313.76,154.54z M315.88,136.97
		l-13.75-28.2l0.94-6.94l13.75,28.2L315.88,136.97z M317.89,120.19l-13.75-28.2l0.94-6.94l13.75,28.2L317.89,120.19z M320.54,104.76
		l-13.75-28.2l0.94-6.94l13.75,28.2L320.54,104.76z M322.5,89.43l-13.75-28.2l0.94-6.94l13.75,28.2L322.5,89.43z M311,44.57
		l0.94-6.94l13.75,28.2l-0.94,6.94L311,44.57z M355.16,89.6c-1.27,7.62-2.47,14.9-3.8,22.87c8.13,0,15.69,0,24.15,0
		c-1.11,5.98-2.08,11.23-3.17,17.07c-7.7,0-15.28,0-23.31,0c-1.87,10.43-3.65,20.33-5.56,31c9.96,0,19.35,0,29.3,0
		c-0.94,5.08-1.74,9.41-2.56,13.84c-15.19,0-29.93,0-45.29,0c5.47-33.29,10.88-66.18,16.37-99.63c15.04,0,29.61,0,44.95,0
		c-0.76,5.12-1.45,9.79-2.2,14.86C374.37,89.6,365.1,89.6,355.16,89.6z M394.68,218.71l-13.75-28.2l0.94-6.94l13.75,28.2
		L394.68,218.71z M396.92,201.39l-13.75-28.2l0.94-6.94l13.75,28.2L396.92,201.39z M399.31,184.82l-13.75-28.2l0.94-6.94l13.75,28.2
		L399.31,184.82z M401.47,168.27l-13.75-28.2l0.94-6.94l13.75,28.2L401.47,168.27z M403.86,150.7l-13.75-28.2l0.94-6.94l13.75,28.2
		L403.86,150.7z M405.97,133.13l-13.75-28.2l0.94-6.94l13.75,28.2L405.97,133.13z M407.99,116.35l-13.75-28.2l0.94-6.94l13.75,28.2
		L407.99,116.35z M410.64,100.92l-13.75-28.2l0.94-6.94l13.75,28.2L410.64,100.92z M412.6,85.59l-13.75-28.2l0.94-6.94l13.75,28.2
		L412.6,85.59z M414.85,68.92l-13.75-28.2l0.94-6.94l13.75,28.2L414.85,68.92z M459.69,174.81c-13.92,0-27.49,0-41.63,0
		c5.21-33.48,10.35-66.53,15.52-99.72c5.94,0,11.22,0,17.25,0c-4.46,27.76-8.87,55.21-13.41,83.45c8.65,0,16.69,0,25.51,0
		C461.75,164.47,460.73,169.56,459.69,174.81z M484.78,218.71l-13.75-28.2l0.94-6.94l13.75,28.2L484.78,218.71z M487.03,201.39
		l-13.75-28.2l0.94-6.94l13.75,28.2L487.03,201.39z M489.41,184.82l-13.75-28.2l0.94-6.94l13.75,28.2L489.41,184.82z M491.58,168.27
		l-13.75-28.2l0.94-6.94l13.75,28.2L491.58,168.27z M493.96,150.7l-13.75-28.2l0.94-6.94l13.75,28.2L493.96,150.7z M496.08,133.13
		l-13.75-28.2l0.94-6.94l13.75,28.2L496.08,133.13z M498.09,116.35l-13.75-28.2l0.94-6.94l13.75,28.2L498.09,116.35z M500.74,100.92
		l-13.75-28.2l0.94-6.94l13.75,28.2L500.74,100.92z M502.7,85.59l-13.75-28.2l0.94-6.94l13.75,28.2L502.7,85.59z M504.95,68.92
		l-13.75-28.2l0.94-6.94l13.75,28.2L504.95,68.92z M551.32,174.29c-13.73,0-27.28,0-41.73,0c5.14-33.1,10.26-66.01,15.44-99.35
		c5.76,0,11.03,0,17.28,0c-4.45,27.65-8.85,54.91-13.35,82.86c8.45,0,16.51,0,25.48,0C553.32,163.69,552.36,168.81,551.32,174.29z
		 M584.01,35.2l13.75,28.2l-0.94,6.94l-13.75-28.2L584.01,35.2z M576.66,220.12l-13.75-28.2l0.94-6.94l13.75,28.2L576.66,220.12z
		 M578.9,202.8l-13.75-28.2l0.94-6.94l13.75,28.2L578.9,202.8z M581.28,186.23l-13.75-28.2l0.94-6.94l13.75,28.2L581.28,186.23z
		 M583.45,169.67l-13.75-28.2l0.94-6.94l13.75,28.2L583.45,169.67z M585.83,152.11l-13.75-28.2l0.94-6.94l13.75,28.2L585.83,152.11z
		 M587.95,134.54l-13.75-28.2l0.94-6.94l13.75,28.2L587.95,134.54z M589.96,117.76l-13.75-28.2l0.94-6.94l13.75,28.2L589.96,117.76z
		 M592.61,102.33l-13.75-28.2l0.94-6.94l13.75,28.2L592.61,102.33z M594.57,86.99l-13.75-28.2l0.94-6.94l13.75,28.2L594.57,86.99z
		 M643.29,104.02c-1.88-11.77-7.96-13.11-11.21-12.77c-2.57,0.26-9.08,2-9.08,9.25c0,3.56,0,3.56,2.42,6.9
		c5.13,7.09,10.03,14.46,15.1,21.67c9.47,13.45,10.29,28.17,1.94,40.58c-6.29,9.36-15.77,11.69-26.32,10.54
		c-9.54-1.04-16.34-6.19-18.47-15.64c-1.24-5.53-0.69-11.46-0.96-17.55c5.16,0,9.57,0,14.59,0c0.13,2.95,0.19,8.24,0.19,8.24
		c-0.17,7.67,4.17,10,10.5,9.67c5.25-0.28,10.5-4.42,10.42-11.92c-0.07-6.6-0.33-8.11-4-13.67c-5.22-7.91-9.79-13.22-15.37-20.88
		c-4.66-6.4-7.42-13.16-6.52-21.36c1.74-15.81,11.5-23.93,27.13-22.12c15.17,1.75,22.91,12.26,20.63,29.05
		C650.58,104.02,647.03,104.02,643.29,104.02z M666.1,218.71l-13.75-28.2l0.94-6.94l13.75,28.2L666.1,218.71z M668.34,201.39
		l-13.75-28.2l0.94-6.94l13.75,28.2L668.34,201.39z M670.73,184.82l-13.75-28.2l0.94-6.94l13.75,28.2L670.73,184.82z M672.89,168.27
		l-13.75-28.2l0.94-6.94l13.75,28.2L672.89,168.27z M675.28,150.7l-13.75-28.2l0.94-6.94l13.75,28.2L675.28,150.7z M677.39,133.13
		l-13.75-28.2l0.94-6.94l13.75,28.2L677.39,133.13z M679.41,116.35l-13.75-28.2l0.94-6.94l13.75,28.2L679.41,116.35z M682.06,100.92
		l-13.75-28.2l0.94-6.94L683,93.98L682.06,100.92z M684.02,85.59l-13.75-28.2l0.94-6.94l13.75,28.2L684.02,85.59z M686.27,68.92
		l-13.75-28.2l0.94-6.94l13.75,28.2L686.27,68.92z"/>
</g>
</svg>
