<?xml version="1.0" encoding="utf-8"?>
<!-- Generator: Adobe Illustrator 22.0.1, SVG Export Plug-In . SVG Version: 6.00 Build 0)  -->
<svg version="1.1" id="Layer_1" xmlns="http://www.w3.org/2000/svg" xmlns:xlink="http://www.w3.org/1999/xlink" x="0px" y="0px"
	 viewBox="0 0 760.75 422.5" enable-background="new 0 0 760.75 422.5" xml:space="preserve">
<path fill="#0696DC" d="M0,13v396.5c0,7.18,5.82,13,13,13h734.75c7.18,0,13-5.82,13-13V13c0-7.18-5.82-13-13-13H13
	C5.82,0,0,5.82,0,13z"/>
<rect x="11.75" y="14" fill="#FFFFFF" width="735.25" height="398.25"/>
<path d="M150.17,362.27c0,5.12,1.24,8.76,3.72,10.92c2.4,2.16,6.6,3.24,12.6,3.24c3.12,0,6.04-0.4,8.76-1.2
	c1.2-0.32,2.52-0.88,3.96-1.68c1.2-0.56,2.36-1.36,3.48-2.4c2.08-1.84,3.24-4.16,3.48-6.96c0-2.8-1.04-4.8-3.12-6
	c-2.4-1.28-5.64-2.4-9.72-3.36l-14.28-3.6c-4.48-1.2-8.36-2.84-11.64-4.92c-3.28-2.08-5.28-4.96-6-8.64l-0.36-4.2
	c0-3.6,0.8-7.44,2.4-11.52c1.52-3.92,3.88-7.52,7.08-10.8c3.04-3.12,7.04-5.72,12-7.8c4.96-1.92,10.68-2.88,17.16-2.88
	c5.2,0,9.96,0.76,14.28,2.28c4.4,1.52,7.96,3.96,10.68,7.32c2.72,3.44,4.08,7.8,4.08,13.08l-0.24,5.16h-17.4
	c0-4.88-1.36-8.28-4.08-10.2c-2.72-1.92-5.96-2.88-9.72-2.88c-4.48,0-8.76,1.04-12.84,3.12c-3.92,2.16-5.88,5.48-5.88,9.96
	c0,2,0.88,3.52,2.64,4.56c1.84,1.12,5.52,2.32,11.04,3.6l8.52,2.16l10.32,2.88c2.32,0.64,4.52,1.64,6.6,3
	c2.32,1.36,3.96,3,4.92,4.92c1.28,2.24,1.92,5.2,1.92,8.88c0,3.52-0.8,7.24-2.4,11.16c-1.68,3.92-4.2,7.56-7.56,10.92
	c-1.68,1.52-3.6,3-5.76,4.44c-1.92,1.2-4.36,2.4-7.32,3.6c-5.2,2-11.36,3-18.48,3c-5.84,0-11.16-0.8-15.96-2.4
	c-4.64-1.52-8.32-4-11.04-7.44c-1.36-1.84-2.32-3.84-2.88-6c-0.72-2.16-1.08-4.48-1.08-6.96l0.72-6.36H150.17z M225.89,302.75h38.76
	c7.68,0,13.28,1.88,16.8,5.64c3.44,3.76,5.16,8.76,5.16,15c0,5.92-1.48,11.56-4.44,16.92c-2.96,5.36-7.04,9.6-12.24,12.72
	c-5.12,3.2-10.8,4.8-17.04,4.8h-20.88l-6.48,31.2h-18.12L225.89,302.75z M252.89,343.07c3.04,0,5.68-0.76,7.92-2.28
	c1.36-0.96,2.44-1.84,3.24-2.64c1.04-1.12,1.84-2.24,2.4-3.36c1.28-2.48,1.92-5.2,1.92-8.16c0-3.12-0.96-5.44-2.88-6.96
	c-1.92-1.44-4.96-2.16-9.12-2.16h-15.84l-5.4,25.56H252.89z M301.37,302.75h45.6c4.24,0,7.96,0.88,11.16,2.64
	c3.2,1.84,5.56,4.16,7.08,6.96c1.6,3.04,2.4,6.24,2.4,9.6l-0.24,3.12c-0.24,2.16-0.92,4.56-2.04,7.2c-0.96,2.32-2.24,4.52-3.84,6.6
	c-1.44,1.84-3.24,3.6-5.4,5.28c-2.32,1.68-4.64,2.8-6.96,3.36c5.12,1.76,7.68,5.52,7.68,11.28v2.52l-0.12,0.6
	c-0.08,1.04-0.2,1.88-0.36,2.52l-1.56,8.04c-0.16,0.56-0.36,1.4-0.6,2.52c-0.08,0.56-0.2,1.12-0.36,1.68
	c-0.32,1.36-0.48,2.68-0.48,3.96l-0.24,2.28c0.24,2,1.12,3.24,2.64,3.72l-0.48,2.4h-19.92l-0.12-3l0.36-5.64l1.2-6.6l1.2-6.24
	l0.36-4.32c0-2.72-0.68-4.76-2.04-6.12c-1.44-1.2-4.12-1.8-8.04-1.8h-20.4l-7.2,33.72h-17.88L301.37,302.75z M332.45,340.79
	c2.88,0,5.56-0.6,8.04-1.8c2.64-1.12,4.68-2.76,6.12-4.92c1.52-2.24,2.28-4.76,2.28-7.56c0-2.72-0.84-4.84-2.52-6.36
	c-1.84-1.6-4.28-2.4-7.32-2.4h-23.4l-4.68,23.04H332.45z M382.13,302.75h18l-18.24,86.28h-18.12L382.13,302.75z M411.52,302.75
	h18.72l21.84,60.72l12.84-60.72h16.68l-18.36,86.28h-18l-22.32-61.92l-13.08,61.92h-16.92L411.52,302.75z M482.56,341.51
	c0.8-2.8,1.96-5.92,3.48-9.36c2.72-6.08,6.4-11.48,11.04-16.2c4.72-4.8,10.12-8.56,16.2-11.28c6.32-2.8,13.08-4.2,20.28-4.2
	c5.2,0,9.96,0.8,14.28,2.4c3.92,1.52,7.2,3.6,9.84,6.24c2.4,2.48,4.2,5.52,5.4,9.12c1.2,3.44,1.8,7.2,1.8,11.28h-17.52
	c-0.8-4.4-2.64-7.84-5.52-10.32c-2.96-2.48-6.2-3.72-9.72-3.72c-7.28,0-13.36,1.96-18.24,5.88c-4.88,3.92-8.6,9.04-11.16,15.36
	c-1.44,3.68-2.48,6.96-3.12,9.84c-0.8,3.12-1.2,6.48-1.2,10.08c0,6.32,1.6,11.08,4.8,14.28c3.12,3.36,7.68,5.04,13.68,5.04
	c4.56,0,8.8-1.04,12.72-3.12c3.76-2.08,6.76-4.6,9-7.56c2.24-2.96,3.84-5.76,4.8-8.4h-19.92l2.76-14.28h36.12l-9.84,46.44h-12
	l0.48-10.8c-2.16,2.72-4.88,5.08-8.16,7.08c-2.88,1.84-6.32,3.32-10.32,4.44c-4,1.12-7.92,1.68-11.76,1.68
	c-5.36,0-10.44-1.2-15.24-3.6c-4.72-2.4-8.48-6.08-11.28-11.04c-2.8-4.96-4.2-11.08-4.2-18.36v-3.12c0-1.12,0.16-2.6,0.48-4.44
	C480.84,347.99,481.52,344.87,482.56,341.51z M583.12,362.27c0,5.12,1.24,8.76,3.72,10.92c2.4,2.16,6.6,3.24,12.6,3.24
	c3.12,0,6.04-0.4,8.76-1.2c1.2-0.32,2.52-0.88,3.96-1.68c1.2-0.56,2.36-1.36,3.48-2.4c2.08-1.84,3.24-4.16,3.48-6.96
	c0-2.8-1.04-4.8-3.12-6c-2.4-1.28-5.64-2.4-9.72-3.36l-14.28-3.6c-4.48-1.2-8.36-2.84-11.64-4.92c-3.28-2.08-5.28-4.96-6-8.64
	l-0.36-4.2c0-3.6,0.8-7.44,2.4-11.52c1.52-3.92,3.88-7.52,7.08-10.8c3.04-3.12,7.04-5.72,12-7.8c4.96-1.92,10.68-2.88,17.16-2.88
	c5.2,0,9.96,0.76,14.28,2.28c4.4,1.52,7.96,3.96,10.68,7.32c2.72,3.44,4.08,7.8,4.08,13.08l-0.24,5.16h-17.4
	c0-4.88-1.36-8.28-4.08-10.2c-2.72-1.92-5.96-2.88-9.72-2.88c-4.48,0-8.76,1.04-12.84,3.12c-3.92,2.16-5.88,5.48-5.88,9.96
	c0,2,0.88,3.52,2.64,4.56c1.84,1.12,5.52,2.32,11.04,3.6l8.52,2.16l10.32,2.88c2.32,0.64,4.52,1.64,6.6,3
	c2.32,1.36,3.96,3,4.92,4.92c1.28,2.24,1.92,5.2,1.92,8.88c0,3.52-0.8,7.24-2.4,11.16c-1.68,3.92-4.2,7.56-7.56,10.92
	c-1.68,1.52-3.6,3-5.76,4.44c-1.92,1.2-4.36,2.4-7.32,3.6c-5.2,2-11.36,3-18.48,3c-5.84,0-11.16-0.8-15.96-2.4
	c-4.64-1.52-8.32-4-11.04-7.44c-1.36-1.84-2.32-3.84-2.88-6c-0.72-2.16-1.08-4.48-1.08-6.96l0.72-6.36H583.12z"/>
<g>
	<path fill="#0696DC" d="M205,127.76c-10.17,0-10.74,9.06-11.03,10.84c-2.85,17.68-5.53,35.4-8.55,53.05
		c-0.95,5.55-0.02,9.99,5.8,11.3c5.75,1.3,9.56-2.55,10.47-7.56c3.52-19.41,9.63-58.89,9.63-58.89
		C211.92,132.33,210.25,127.76,205,127.76z"/>
	<path fill="#0696DC" d="M717.7,98.47c-0.08,0.65-0.96,0.78-1.24,0.18l-14.35-30.77C695.63,53.97,683.88,44,665.13,44
		c-17.5,0-29.94,10.71-32.82,25.53l-5.37,27.61c-0.13,0.65-1.01,0.77-1.3,0.17l-11.96-24.52C606.54,58.18,599.63,44,571.49,44
		c-15.86,0-27.09,10.32-29.87,24.62l-5.46,28.08c-0.1,0.53-0.83,0.63-1.06,0.14L519.52,64.9c-6.65-13.64-18.03-22.12-35.76-22.27
		c-15.78-0.13-29.32,11.28-32.33,26.78l-5.05,25.96c-0.12,0.61-0.94,0.72-1.21,0.16l-14.22-29.15C424.27,52.68,410.38,44,395.15,44
		c-15.9,0-29.89,11.05-33.49,26.64l-6.58,28.52c-0.11,0.49-0.78,0.56-0.99,0.11l-15.89-32.59c-6.38-13.07-17.81-23.01-35.3-22.68
		c-15.44,0.29-28.58,11.4-32.05,26.45l-6.33,27.42c-0.08,0.35-0.56,0.4-0.71,0.08l-16.51-33.85c-6.95-14.26-21.1-23.36-36.97-23.36
		c-15.06,0-30.44,11.84-32.97,27.81l-3.6,22.71c-0.1,0.62-0.94,0.74-1.21,0.17l-12.55-26.92c-6.94-14.88-21.98-24.25-38.47-23.76
		c-14.9,0.44-27.48,11.25-30.83,25.77l-7.81,33.81c-0.14,0.61-0.98,0.69-1.24,0.12L66.76,67.05c-7.12-16-22.99-26.3-40.5-26.3h-1.17
		v252.5c11.68,0,16.32-40.12,17.25-49.64c0.05-0.56,0.81-0.68,1.04-0.17l13.86,29.73c5.71,12.25,18.01,20.08,31.53,20.08h2.96
		c16.66,0,30.99-11.81,34.17-28.17l4.24-21.79c0.12-0.6,0.93-0.72,1.21-0.17l15.4,30.22c6.23,12.22,18.78,19.91,32.49,19.91h0
		c16.7,0,31.05-11.83,34.24-28.23l6.19-31.86c0.1-0.52,0.8-0.62,1.05-0.15l21.96,43.09c5.36,10.52,16.17,17.14,27.98,17.14h2.04
		c17.82,0,33.08-12.8,36.17-30.35l3.48-19.73c0.09-0.5,0.77-0.6,1-0.15l15.6,30.58c6.15,12.06,18.55,19.65,32.08,19.65h1.65
		c18.55,0,34.27-13.66,36.85-32.03l3.4-24.19c0.08-0.55,0.82-0.66,1.05-0.16l16.41,35.2c6.03,12.92,19,21.19,33.26,21.19h0.58
		c18.23,0,33.68-13.41,36.26-31.46l2.89-20.28c0.08-0.55,0.83-0.66,1.06-0.16l14.18,30.4c5.84,12.51,18.1,21.03,31.9,21.47
		c18.61,0.6,34.79-12.4,38.32-30.56l4.78-24.6c0.09-0.46,0.72-0.55,0.93-0.13l18.68,36.67c5.83,11.44,14.28,18.64,31.66,18.64
		c17.87,0,32.28-11.9,35.49-28.39l5.01-25.78c0.09-0.49,0.75-0.58,0.98-0.14l17.81,34.95c6.05,11.88,18.25,19.35,31.58,19.35l9.34,0
		V49.92C724.46,51.84,718.95,88.89,717.7,98.47z M58.53,264.41l-13.75-28.2l0.94-6.94l13.75,28.2L58.53,264.41z M60.77,247.09
		l-13.75-28.2l0.94-6.94l13.75,28.2L60.77,247.09z M63.15,230.52l-13.75-28.2l0.94-6.94l13.75,28.2L63.15,230.52z M65.32,213.96
		l-13.75-28.2l0.94-6.94l13.75,28.2L65.32,213.96z M67.7,196.39l-13.75-28.2l0.94-6.94l13.75,28.2L67.7,196.39z M69.82,178.83
		l-13.75-28.2l0.94-6.94l13.75,28.2L69.82,178.83z M71.84,162.05l-13.75-28.2l0.94-6.94l13.75,28.2L71.84,162.05z M74.49,146.62
		l-13.75-28.2l0.94-6.94l13.75,28.2L74.49,146.62z M76.44,131.28l-13.75-28.2l0.94-6.94l13.75,28.2L76.44,131.28z M78.7,114.62
		l-13.75-28.2l0.94-6.94l13.75,28.2L78.7,114.62z M121.11,215.6c-13.14,0-25.74,0-39.22,0c5.4-33.45,10.74-66.52,16.14-99.92
		c5.6,0,10.55,0,16.25,0c-4.58,27.93-9.1,55.52-13.73,83.76c8.17,0,15.6,0,23.75,0C123.16,205.21,122.15,210.31,121.11,215.6z
		 M147.76,256.42l-13.75-28.2l0.94-6.94l13.75,28.2L147.76,256.42z M150,239.1l-13.75-28.2l0.94-6.94l13.75,28.2L150,239.1z
		 M152.38,222.53l-13.75-28.2l0.94-6.94l13.75,28.2L152.38,222.53z M154.55,205.98l-13.75-28.2l0.94-6.94l13.75,28.2L154.55,205.98z
		 M156.93,188.41l-13.75-28.2l0.94-6.94l13.75,28.2L156.93,188.41z M159.05,170.84l-13.75-28.2l0.94-6.94l13.75,28.2L159.05,170.84z
		 M161.07,154.06l-13.75-28.2l0.94-6.94l13.75,28.2L161.07,154.06z M163.72,138.63l-13.75-28.2l0.94-6.94l13.75,28.2L163.72,138.63z
		 M165.67,123.3l-13.75-28.2l0.94-6.94l13.75,28.2L165.67,123.3z M167.93,106.64l-13.75-28.2l0.94-6.94l13.75,28.2L167.93,106.64z
		 M216.56,199.87c-2.52,12.21-14.94,18.08-29.03,15.27c-14.74-2.94-19.2-9.3-16.92-24.43c2.75-18.24,5.15-36.54,8.62-54.64
		c1.7-8.85,5.56-17.3,14.95-21.18c17.34-7.16,35.82,3.45,31.74,31.24C223.62,159.63,220.69,179.87,216.56,199.87z M238.19,256.42
		l-13.75-28.2l0.94-6.94l13.75,28.2L238.19,256.42z M240.43,239.1l-13.75-28.2l0.94-6.94l13.75,28.2L240.43,239.1z M242.81,222.53
		l-13.75-28.2l0.94-6.94l13.75,28.2L242.81,222.53z M244.98,205.98l-13.75-28.2l0.94-6.94l13.75,28.2L244.98,205.98z M247.36,188.41
		l-13.75-28.2l0.94-6.94l13.75,28.2L247.36,188.41z M249.48,170.84l-13.75-28.2l0.94-6.94l13.75,28.2L249.48,170.84z M251.49,154.06
		l-13.75-28.2l0.94-6.94l13.75,28.2L251.49,154.06z M254.14,138.63l-13.75-28.2l0.94-6.94l13.75,28.2L254.14,138.63z M256.1,123.3
		l-13.75-28.2l0.94-6.94l13.75,28.2L256.1,123.3z M258.35,106.64l-13.75-28.2l0.94-6.94l13.75,28.2L258.35,106.64z M285.23,215.11
		c-4.71,0-9.26,0-13.76,0c0-33.12,0-66.02,0-99.29c5.41,0,10.29,0,15.2,0c0,18.2,0,36.31,0,56.15
		c6.56-19.75,12.61-37.96,18.68-56.22c4.4,0,8.64,0,13.43,0C307.53,149.08,296.42,181.97,285.23,215.11z M329.67,263.3l-13.75-28.2
		l0.94-6.94l13.75,28.2L329.67,263.3z M331.91,245.98l-13.75-28.2l0.94-6.94l13.75,28.2L331.91,245.98z M334.29,229.41l-13.75-28.2
		l0.94-6.94l13.75,28.2L334.29,229.41z M336.46,212.86l-13.75-28.2l0.94-6.94l13.75,28.2L336.46,212.86z M338.84,195.29l-13.75-28.2
		l0.94-6.94l13.75,28.2L338.84,195.29z M340.96,177.72l-13.75-28.2l0.94-6.94l13.75,28.2L340.96,177.72z M342.98,160.94l-13.75-28.2
		l0.94-6.94l13.75,28.2L342.98,160.94z M345.63,145.51l-13.75-28.2l0.94-6.94l13.75,28.2L345.63,145.51z M347.58,130.18l-13.75-28.2
		l0.94-6.94l13.75,28.2L347.58,130.18z M336.08,85.32l0.94-6.94l13.75,28.2l-0.94,6.94L336.08,85.32z M380.24,130.35
		c-1.27,7.62-2.47,14.9-3.8,22.87c8.13,0,15.69,0,24.15,0c-1.11,5.98-2.08,11.23-3.17,17.07c-7.7,0-15.28,0-23.31,0
		c-1.87,10.43-3.65,20.33-5.56,31c9.96,0,19.35,0,29.3,0c-0.94,5.08-1.74,9.41-2.56,13.84c-15.19,0-29.93,0-45.29,0
		c5.47-33.29,10.88-66.18,16.37-99.63c15.04,0,29.61,0,44.95,0c-0.76,5.12-1.45,9.79-2.2,14.86
		C399.45,130.35,390.18,130.35,380.24,130.35z M419.77,259.46l-13.75-28.2l0.94-6.94l13.75,28.2L419.77,259.46z M422.01,242.14
		l-13.75-28.2l0.94-6.94l13.75,28.2L422.01,242.14z M424.39,225.57l-13.75-28.2l0.94-6.94l13.75,28.2L424.39,225.57z M426.56,209.02
		l-13.75-28.2l0.94-6.94l13.75,28.2L426.56,209.02z M428.94,191.45l-13.75-28.2l0.94-6.94l13.75,28.2L428.94,191.45z M431.06,173.88
		l-13.75-28.2l0.94-6.94l13.75,28.2L431.06,173.88z M433.07,157.1l-13.75-28.2l0.94-6.94l13.75,28.2L433.07,157.1z M435.72,141.67
		l-13.75-28.2l0.94-6.94l13.75,28.2L435.72,141.67z M437.68,126.34l-13.75-28.2l0.94-6.94l13.75,28.2L437.68,126.34z M439.93,109.67
		l-13.75-28.2l0.94-6.94l13.75,28.2L439.93,109.67z M484.77,215.56c-13.92,0-27.49,0-41.63,0c5.21-33.48,10.35-66.53,15.52-99.72
		c5.94,0,11.22,0,17.25,0c-4.46,27.76-8.87,55.21-13.41,83.45c8.65,0,16.69,0,25.51,0C486.83,205.22,485.82,210.31,484.77,215.56z
		 M509.87,259.46l-13.75-28.2l0.94-6.94l13.75,28.2L509.87,259.46z M512.11,242.14l-13.75-28.2l0.94-6.94l13.75,28.2L512.11,242.14z
		 M514.49,225.57l-13.75-28.2l0.94-6.94l13.75,28.2L514.49,225.57z M516.66,209.02l-13.75-28.2l0.94-6.94l13.75,28.2L516.66,209.02z
		 M519.04,191.45l-13.75-28.2l0.94-6.94l13.75,28.2L519.04,191.45z M521.16,173.88l-13.75-28.2l0.94-6.94l13.75,28.2L521.16,173.88z
		 M523.17,157.1l-13.75-28.2l0.94-6.94l13.75,28.2L523.17,157.1z M525.83,141.67l-13.75-28.2l0.94-6.94l13.75,28.2L525.83,141.67z
		 M527.78,126.34l-13.75-28.2l0.94-6.94l13.75,28.2L527.78,126.34z M530.04,109.67l-13.75-28.2l0.94-6.94l13.75,28.2L530.04,109.67z
		 M576.41,215.04c-13.73,0-27.28,0-41.73,0c5.14-33.1,10.26-66.01,15.44-99.35c5.76,0,11.03,0,17.28,0
		c-4.45,27.65-8.85,54.91-13.35,82.86c8.45,0,16.51,0,25.48,0C578.41,204.44,577.44,209.56,576.41,215.04z M609.1,75.95l13.75,28.2
		l-0.94,6.94l-13.75-28.2L609.1,75.95z M601.74,260.87l-13.75-28.2l0.94-6.94l13.75,28.2L601.74,260.87z M603.98,243.55l-13.75-28.2
		l0.94-6.94l13.75,28.2L603.98,243.55z M606.36,226.98l-13.75-28.2l0.94-6.94l13.75,28.2L606.36,226.98z M608.53,210.42l-13.75-28.2
		l0.94-6.94l13.75,28.2L608.53,210.42z M610.91,192.86l-13.75-28.2l0.94-6.94l13.75,28.2L610.91,192.86z M613.03,175.29l-13.75-28.2
		l0.94-6.94l13.75,28.2L613.03,175.29z M615.05,158.51l-13.75-28.2l0.94-6.94l13.75,28.2L615.05,158.51z M617.7,143.08l-13.75-28.2
		l0.94-6.94l13.75,28.2L617.7,143.08z M619.65,127.74l-13.75-28.2l0.94-6.94l13.75,28.2L619.65,127.74z M668.38,144.77
		c-1.88-11.77-7.96-13.11-11.21-12.77c-2.57,0.26-9.08,2-9.08,9.25c0,3.56,0,3.56,2.42,6.9c5.13,7.09,10.03,14.46,15.1,21.67
		c9.47,13.45,10.29,28.17,1.94,40.58c-6.29,9.36-15.77,11.69-26.32,10.54c-9.54-1.04-16.34-6.19-18.47-15.64
		c-1.24-5.53-0.69-11.46-0.96-17.55c5.16,0,9.57,0,14.59,0c0.13,2.95,0.19,8.24,0.19,8.24c-0.17,7.67,4.17,10,10.5,9.67
		c5.25-0.28,10.5-4.42,10.42-11.92c-0.07-6.6-0.33-8.11-4-13.67c-5.22-7.91-9.79-13.22-15.37-20.88c-4.66-6.4-7.42-13.16-6.52-21.36
		c1.74-15.81,11.5-23.93,27.13-22.12c15.17,1.75,22.91,12.26,20.63,29.05C675.66,144.77,672.12,144.77,668.38,144.77z
		 M691.18,259.46l-13.75-28.2l0.94-6.94l13.75,28.2L691.18,259.46z M693.43,242.14l-13.75-28.2l0.94-6.94l13.75,28.2L693.43,242.14z
		 M695.81,225.57l-13.75-28.2l0.94-6.94l13.75,28.2L695.81,225.57z M697.98,209.02l-13.75-28.2l0.94-6.94l13.75,28.2L697.98,209.02z
		 M700.36,191.45l-13.75-28.2l0.94-6.94l13.75,28.2L700.36,191.45z M702.48,173.88l-13.75-28.2l0.94-6.94l13.75,28.2L702.48,173.88z
		 M704.49,157.1l-13.75-28.2l0.94-6.94l13.75,28.2L704.49,157.1z M707.14,141.67l-13.75-28.2l0.94-6.94l13.75,28.2L707.14,141.67z
		 M709.1,126.34l-13.75-28.2l0.94-6.94l13.75,28.2L709.1,126.34z M711.35,109.67l-13.75-28.2l0.94-6.94l13.75,28.2L711.35,109.67z"
		/>
</g>
</svg>
