<svg xmlns="http://www.w3.org/2000/svg" viewBox="0 0 351.5 275.5"><path fill="#231F20" d="M351.4 241.5l-11.6-45.1 5.4-22.8c1-4.7 6-15.8 3.1-20-4 1.1-4.6-15.4-9.7-16.5-5.8-1.2-9.2-5.2-12-10a11.8 11.8 0 0 0-5.8-5.6c-5.3-2.1-12-.7-17.6-1 1.5-6.5-11.1-9.6-15.4-8.8-5.5 1-12 6.6-17.7 6.9-7.9.3-12-7.8-18.7-11.4-1.8-.1-3.5-.5-5.2-1.1a50.6 50.6 0 0 1-4.1-3.6c-3.7-1.6-7-3-11-1.2-.5.2-1.2.4-1.4.8-.6 1.2-1.5 1.3-2.7 1.3-1 0-1.9.1-1.8 1.6 0 .5-.6 1-.9 1.5l-.3-.2c-.4-2.3-.3-1.7-4-2.3l-2.3-.1c-.8 0-1.3-.2-1.4-1-.6-2.5-1.4-5-1.9-7.4-.9-5-4.5-8.7-10.5-9.5l-1-.1-3.9-16.7c-.2-1.1-.8-1.7-2.5-2.1-2.1-.6-4.2-1.6-6-3-1.8-1.4-3.4-1.8-5.5-1a62.3 62.3 0 0 1-13 3.3c-4.2.5-5.6 1.3-5.8 4.7-.3 2.9-.4 5.7-.6 9l-1-1-9.6-23.4c.6-1.5.4-2.7-.7-3.7-1-1-2.3-.9-3.5-.3h-.3l-4.4-7.6a158.2 158.2 0 0 0-22.6-29.8c-.8-.8-1.5-1.7-2.4-2.2-1-.6-2.2-.7-3.5-1.1l.8-5.9c.4-2.8-.8-4.3-3.6-4.8l-1.5-.3h-6l-2.7.7c-3.8 1.1-7 3-9 6.7-.5.9-1 1.1-2.4 1-.5 0-1.3.2-1.7.5L66.9 25c-1.8 1-2.6 2.8-2.7 5L42.4 48.2c-2.5-2.8-5.6-3.5-9-1.7-.6.3-1.1.8-1.4 1.5-1.7 3.4-1.1 6.2 1.4 8.1.8.6.8 1 .7 1.8l-5.4 22.4c-13.1 2.7-18.2 19-7.1 27.6-2 2-6.8 6.8-9.5 12l-4.8-.5c-7.3 13.2-12.4 45 1.2 57.8l54.2 15.5v70c0 .4.2.8.4 1l-4.7.8a1.4 1.4 0 0 0-.5 2.6l14 8.3a1.4 1.4 0 0 0 1 .2l240.3-27.2 13.6-1.8.4-2 .7-4 7.1 4.5c.3.2.6.3 1 .2l14.3-2a1.4 1.4 0 0 0 1.1-1.7zM87.3 69.3c2-.2 3-2.2 2.9-4.3 0-.5 0-1 .2-1.4l20.9-25.9.5-.4c4 3.7 8.3 7 12.2 11 4.5 4.5 8.6 9.5 12.9 14.3l.6 1 7.1 19.6c.2.4 0 1 0 1.5 0 .8-.3 1.7 0 2.5.8 2.5 1.8 5 2.8 7.5l-2.3.5c-1 0-1.3.4-1.1 1.5.6 2.8 1 5.6 1.5 8.5l-6 1.1c-1.7.3-1.7.3-1.4 2l1.4 8.1c-.8.2-1.5.4-2.2.4-.8.1-1.4.4-1.1 1.3.2.8-.1 2 1.5 2 3.5-.3 7-.4 10.6-.6l7-.3c.3 0 .6 0 1 .2l-7.1 1-19.6 3.5c-1.5.2-2.9 1-4.1 1.5a4.4 4.4 0 0 0-3.2 4.9c.6 3.4 2 6.5 3.3 9.7.4.9.3 1.5-.8 2.4-.9.7-1.6 1.7-1.7 2.9-.3 2.4-2.5 4.4-5 5.3l-3.6 1c-.8-2.6-1.6-5.4-2.6-8.2-1.7-4.7-3.6-9.4-5.4-14-.3-.9-.8-1.2-1.7-1.3L82 125.4l.4-1 5.6-10.9c-.5-3.9-1.2-7.7-1.8-11.6 0-.7-.4-1-1.2-1.2-2.6-.4-5.3-1-8-1.3-.7-.2-1.1-.4-1.4-1.2a6.5 6.5 0 0 0-3.2-3.7l3.7-7.3 3.5-7c.4-1 .5-2.2.7-3.2.2-.6.3-1.2.6-1.7l3-3.6c.8-1.2 1.7-2.2 3.4-2.4zM54.8 45.7l13-10.7a6 6 0 0 0 5.9-1.2l9-7.5s1.1-.5 1.2-.4L66.7 53.3 60 50.8c-.5-2.9-2.2-4.5-5-5.1zm8.5 13l-5 8 .8-10 4.2 2z"/><path fill="#FFF200" d="M65.7 261.8v-68.4l20.1 6-10.4 1.6v20l6.6-1v9.2l-6.6.9v21.3l10.9-1.5v9.2l-20.6 2.7m39.7-5.6l9.7-1.3-7.7-63.3-13.6 11-7.1 56.1 9.3-1.2 1.3-10 7-1 1.1 9.7M98.2 239c1-9.1 2-18.4 2.6-27.9.7 9.3 1.6 18.3 2.5 27.2l-5.1.7zm35.5 13.3l10.6-1.5c-1.4-10.6-3-21.5-4.8-32.2 3-2.1 4.2-5.1 4.2-10.4v-14.4c0-9.2-4.4-11.9-13.1-10.6l-11.6 1.8v69.2l9.7-1.3v-31l1.6-.2c1.5 10.1 2.4 20.4 3.4 30.6m.2-42.6c0 2-1 3.3-3.2 3.6l-2 .3v-20.9l1.9-.3c2.2-.3 3.3.6 3.3 2.8v14.5zm17.8 39.9l9.6-1.4v-60.6l7-1v-9.3l-23.8 3.5v9.3l7.2-1v60.5m33.7-4.7l9.6-1.4v-70.4l-9.6 1.5v29.8l-4.5.6v-29.8l-9.7 1.5v70l9.7-1.2v-31.2l4.5-.6V245m40.2-5.5l11.2-1.5 8.1-72.3-10.1 1.5c-3.4 37.8-4 44-4.2 50.1-.4-6-1-12-4.4-48.8l-8.6 1.3c-4.1 37.7-4.8 44-5.2 50.1l-3.5-48.8-10.1 1.5 7 69.6 11.3-1.6c3.7-35.7 4.2-41 4.5-46.2.1 5.2.6 10.3 4 45.1m21.7-62.8v48.5c0 7.9 4 11.6 12 10.5 8-1 11.9-5.9 11.9-13.8v-48.8c0-7.9-4-11.5-12-10.3-8 1.2-11.9 6-11.9 13.9m14.2 46.6c0 1.8-.7 2.7-2.2 3-1.5.1-2.3-.6-2.3-2.4v-48.7c0-1.8.8-2.8 2.3-3 1.5-.2 2.2.6 2.2 2.4v48.7zm29.8 7.3L302 229c-1.4-11-3-22.2-4.8-33.3 3-2.2 4.2-5.2 4.2-10.8v-14.8c0-9.5-4.4-12.3-13-11l-11.6 1.7v71.7l9.7-1.4v-32l1.6-.2c1.4 10.5 2.4 21 3.3 31.6m.2-44c0 2.1-1 3.4-3.2 3.7l-2 .3V169l2-.3c2.2-.3 3.2.6 3.2 3v14.8zm34.5 49.7l12.2-1.7-11.4-44.3 9.5-40.5-11.8 1.8c-2.6 16.3-3.2 21.8-3.9 27.2a307 307 0 0 0-3.8-26l-12.1 1.7 9 38-10.6 45.3h11.2c4-21 5-28 5.8-34.6 1 6.5 2 13 5.9 33M96.2 9.3c1.7 2.6 1.7 4 .2 5.7a5 5 0 0 1-2 4c-3 2.6-9.4 8.7-9.8 9L68 53.8l6 2.2 7.2-11.3-6 11.8 1.8.6S97.2 22 102.6 13c1.9-3.2 8.6-11.1 14.2-10C108-.4 98.7 4 96.2 9.1zm59.4 64.5l5.7 10.5s-.6-5.5-.5-7L152.2 58c-.2-.4-.6-.7-1-.9a3.2 3.2 0 0 1-1.8-3.2c0-.6 0-1.2-.3-1.7-11.2-19-10.9-18.4-30.2-39.3l3.5 14.5c10.6 9.7 33.2 46.4 33.2 46.4zM32.2 104c-1.4 0-3-.2-4.4-.5-.3 0-.7-.6-.6-1C28 98.2 38 57.8 38.3 57.3c.2-.3.7-.7 1-.7l10 .9c-.2-.2-.4-.5-.6-.5L36 55.7 23.6 108l16.7 1.8s3-1.1 2.9-1.7c-.2-1-2-5-2-5s-8 1.2-9 1.1zM71 94l7.5-14.7c.9-1.8.6-3.5-.7-5-1-1.3-2.5-1-3.9-.6-2.4.6-4.3 2-5.4 4.2a9.7 9.7 0 0 1-3.8 4.1l-10.5 5.8c-1.7 1-3.4 2-4.7 3.2-2.8 2.8-3.6 6.3-3.2 10 .3 3.2 1.3 6.1 2.8 9a40 40 0 0 1 22-16zm87 23.6c3.3-.1 6.6 0 9.9-.6l47-8.3 7.8-1.4-.2-1.2-5 .8-21 3.7c-7.7 1.4-15.4 2.5-23 4-6.7 1.3-13.5 1.9-20.3 2.5l-12.6 1c-.3 0-2.6 0-2.8.2.6 0 14.7-.4 20.2-.7zM49.6 85.8l2.8-25.5-2.6-2.2-1.3 5.4-3 26.6 4-4.3zm80 39.5l-.3.2c-4.2 1.3-5.8 3.8-4.8 7.5 1.4 5 3.7 9.7 7.2 13.7l2.3 2.2 2.2-3a35.6 35.6 0 0 1-6.6-20.6zm77-27.6c-.3-1.3-.5-3.9-.4-4l2 5.6.2-3.2 2.6 5.9c0-1 .4-2.4.4-2.4l1 2.3c-.2-4.4-.6-6-1-7.8 3 5.6 3.2 9.8 3.4 10.2l.4-.2c-.9-3.5-1.6-7-2.7-10.4-1.2-3.7-5.1-6.2-9.2-6.3 1.1 3.5 1.3 7.2 3.3 10.3zM141 116.3l8.3-1.5-1.5-8.5-8.3 1.5 1.5 8.5zm.5-7l.2 3.5h-.3l-.8-4.4 4.5-.8v.4l-3.6 1.2zM64 60.4L58 70l-.5 6.3L65 64l-2 6.5 3.2-3.5-1 4 4.5-7.6-5.6-2.9zM54.7 86c14.8-8.5 8.5-5.5 15-11.8l-3.2 3c-1 1-1.8 2.4-3 3.1-2.4 1.5-4.9 3-7.5 4-2.8 1.1-19.6 9.3-9.2 24.6-7.1-15.8 6-21.8 8-22.9zm123 32.7c-3.6 1.4-5 3.9-3.7 7.6.9 2.6 2 5.2 3.2 7.8l1.3 2 1-2.4c-1-2.6-4.7-6.8-1.8-15zM73.7 65l-2.6-.4L65 76.4l3.9-3.6 4.9-7.8z"/><path fill="#CFD0D2" d="M80.3 127zm46 48c-6 1.3-19.5-39.5-21-45.4-.2-.6-25-2.6-25-2.6l-3.1 7.9s18.1 2 18 2.9l6.2-4.8c-5.3 8.4-20.5 32.3-13.7 58.4L86 187l-21.2-5-3.8 1.2-4.2-1-1-2.5-11-2.5-3.3 1-4.5-1.4-.9-1.7-10-2.7-2.1.5-3.6-1-1.3-1.4-7.9-2.2-2.5 1.7c.3 2.2 1 4.3 2.2 6.2l6.5 2 2.2-2L81 192.7 88 195c4 1.2 8.7 0 30-13.1l8.5-5.2-.3-1.8zm-72.8-55.7c.8-1.7 11.2-21 19.3-21.7h.8c-1.2-1.9-2.4-2.3-4.2-1.8-.7.1-1.3.3-2 .6a42.4 42.4 0 0 0-17.9 16l-24.7-3c-2 1.4-9.5 10.7-10 13l.8 3 5.5.2 2.2-4.7 7.4.4 1 5.5 7 .5 1.8-4.4 8 .2c0 1.2.6 3.9.8 5l9.7 1.1 1-2.2 7 .8c4-6 17.1-25.3 17.3-25.8-2.3-.4-4.7-.7-7-1.2-2-.5-3.8 0-5.6.9-6.6 3.4-9.7 9.5-12.3 16l2.4 1.7-2.9-.1h-5.4zm149.2 2.9c0 .6-.5 2.7 2.4 12.1l2.2-.2-.5-1c-1.2-3.2-2-6.4-2.2-9.7-.1-2.3.1-4.4 1.7-6.1 1-1 2-1.9 3.3-2.3 3.6-1.4 7.5-1.8 11.2-1.4l-7 1 8.6.8-6.8.7 2.5.6-2.8.8 5.4.1-6.8 1.8 9.8-.5c-1.3.3-8.9 2.7-8.9 2.8 1.6-.2 4.8-.4 4.9-.3l-7 3a167 167 0 0 1 10.2-2 67 67 0 0 0-5.6 2.3 146 146 0 0 1 8.1-1.4l-2.9 1.7c.5 0 .7 0 1.3.2-3.8 1.5-11 4.6-10.9 4.7l6.9-1.6c0 .1-4.5 2.3-6.7 3.2 3.7 0 7.2-.9 10.6-2.2 1-.4 2-1.1 3.2-.4h1l.2-.7c0-3.5.2-7-.1-10.5-.4-3.8-2.5-5.6-6.4-5.5-4.4.2-8.8.8-13.1 1.1-7 2.8-5.4 8.6-5.8 8.9zm-141.9 6.4a76.5 76.5 0 0 0-3.1 52.3l2 .7A71.1 71.1 0 0 1 66 129l-5.2-.5zm-14.1-4l-5.2.1a77 77 0 0 0-3 51l2 .6c-5-19.5-.5-42 6.2-51.6zM196.4 73c.4 1 .5 2.2.8 3.3 0-1.2 7.1 26.3 7.1 26.3l1.1-.2-7.6-32.2c-.1-.6-.5-1.3-1-1.5-2.7-1.5-5.5-2.9-8.4-4.3-.5-.2-1.2-.4-1.7-.3l-17 4.2c-1.2.3-1.9 1.1-2 2.4-.8 6.9-.6 13.7.5 20.5l1.6-.2-1-14.6c0-1.5.3-3 .5-4.5 0-1 .7-1.8 1.7-2l9.1-2.5 1.4-.3.2-.3c2.6-.9 5.2-2 8-.4.6.4 1.3.6 2 .8l5.3 2.3-1.9.3c.5 1 1 2.1 1.3 3.2zM22.2 170.6l.9.3c-3.6-16.8-3-33 5.7-48.3l-2.8-.2c-2.7 5.9-11.2 24-3.8 48.2zM95.8 11.5c-.7-1.9-2.2-2.3-4.1-1L70.9 24l2 .6c.3-.4 14-7.9 14-7.8l-1.4 1.4s1 .4 10.3-6.7zM65.5 181.3l4.6 1c1.2 0 7.3.7 9.2.9l-.5-5.1-13.7-3.6c0 2 .2 4.9.4 6.8zm-19.8-11.8l.3 6.5 9.4 2.1-1.6-6.7-8-2zM64.1 34l.6-.3 4.6-4 1.1-1c-1-.9-1.4-.8-2.6.1L45.4 47.4c1.2.4 2 0 3-.7L64 34.1zM28 164.9c0 1.7 0 4.2.2 6l7.8 1.8-1.5-6.4-6.5-1.4zm-16.2-4c0 1.6.3 4.2.4 6l7 1.5-1.7-6.4-5.7-1.2zM48 52.5V51s-7.7-.7-10.3-.8c-1.4-.1-1.9.4-1.8 1.6l12.1.8zm144.2 33.7l-4-17.5c-.2-.8-.5-1.2-1.4-1.1l4.2 19.2 1.2-.6zm96.2 117.2l.9 7.1 9.8-1.5a768 768 0 0 0-1-7.1l-9.7 1.5m-29.2 32.2c8-1 11.9-5.9 11.9-13.8v-5.1l-9.7 1.5v5c0 1.8-.7 2.7-2.2 3-1.5.1-2.3-.6-2.3-2.4V219l-9.7 1.6v4.6c0 7.9 4 11.6 12 10.5m17.4-23l9.7-1.6v-7.2l-9.7 1.5v7.3M195 229l-9.6 1.5V245l9.6-1.4V229m91.4-14.7l-9.7 1.6v16.7l9.7-1.4v-16.9m-101 13l9.6-1.6v-7.2l-9.6 1.6v7.2m31.7 13.3l1.6-15.4-14.4 2.3 1.5 14.7 11.3-1.6m30.2-23.2l9.7-1.6v-7.2l-9.7 1.5v7.3m14.2-2.3l9.7-1.6v-7.2l-9.7 1.6v7.2m-80.6 16.1l-9.7 1.6v14l9.7-1.2v-14.4m23.1-7l15-2.3.8-7.4-7 1.2-.4 4.2-.3-4.1-8.8 1.4.7 7m19.8-3l15.1-2.5.9-7.4-9 1.5a182 182 0 0 0-.2 4.5l-.3-4.4-7.2 1.1.7 7.1M98.8 234l-9.2 1.5-.9 7.3 24.5-3.9-1-7-9.4 1.5.5 5-5.1.8.5-5.2m113.1-22.6l-.2-3.6-9.1 1.5.4 3.6 9-1.5M97.2 247.5l7-1 1.1 9.7 9.7-1.3-1.5-13-25.3 4.1-1.6 12.7 9.3-1.2 1.3-10m31.4-8l-9.7 1.6v13.2l9.7-1.3v-13.4m42.5-10l9.7-1.6v-7.2l-9.7 1.5v7.2m120.1 1l10.6-1.4-2.3-16.9-9.9 1.6 1.6 16.8m-130 3.7l-9.6 1.6v13.8l9.6-1.4v-14m-27.6 18l10.6-1.4-1.9-13.5-10 1.6 1.3 13.4m103-14.4l1.9-16-14.5 2.3 1.5 15.2 11.2-1.5m-75.5-18.6v-3.6l-9.6 1.5v3.6l9.6-1.5m-32.6 5.2v-2.5l1.6-.3.4 2.5 9.5-1.5-.6-3.5-20.6 3.3v3.6l9.7-1.6m52.2-8.3v-1.9l4.5-.6v1.7l9.6-1.5v-3.6l-23.8 3.8v3.6l9.7-1.5m-29.2 16.4l9.6-1.6V224l-9.6 1.5v7.3m71-23.1l7.2-1.2-.3-3.5-7.2 1.1.3 3.6M99.2 229.3l.4-3.6-8.9 1.4-.5 3.7 9-1.5m-13 29.8v-9.2l-10.8 1.5v-3.3l-9.7 1.5v12.2l20.6-2.7m-10.9-14.2v-7.2l-9.7 1.5v7.2l9.7-1.5m0-11.7V230l6.6-1v-.6L65.7 231v3.6l9.7-1.5M220.3 210c0-1.4.2-2.6.3-3.7l-7 1.1-.4 3.7 7-1.1m94 27.9c3-15.4 4.4-23.2 5.2-28.9l-10 1.6-4.4 19.1-242.1 36.9 251.4-28.7zm11.8-1.6l12.2-1.7-7-27.4-10.2 1.6c.8 5.5 2.2 13 5 27.5m-207 1.6l9.7-1.6v-7.2l-9.7 1.6v7.2m13-2l10-1.7-1.1-7-9.7 1.5.8 7.1m180-36l-1.7 7.5 9.5-1.6.3-2.5.4 2.4 9.8-1.5-1.8-7-16.5 2.7m-25.6-.4v-.2l1.6-.2v.1l9.4-1.5-.3-1.8c.8-.6 1.5-1.3 2-2l-22.4 3.5v3.6l9.7-1.5M257 204v-3.6l-9.7 1.5v3.6l9.7-1.5m4.5-.7l9.7-1.6v-3.6l-9.7 1.6v3.6m-21.2 3.4l.4-3.7-9.2 1.5-.3 3.6 9-1.4m73-11.7l14.2-2.3-.6-2.5.3-1-13.6 2.1.2 1.1-.6 2.6M54.1 54s-1.4-4.8 4-4c-4-6.2-9.8.2-8.2 3.2l4.2.8"/><path fill="#919396" d="M97.6 133.9c1.8-1.2 2.6-1.4 5.8-2.8-3.4 3-6.9 8.3-6.9 8.3l-20.2-2.7.9-1.8 13.6 1 2.6-2.3-.2 2.6 4.8-4.5-.4 2.2zm-18 59.2l-60-17-8.2-2.3 6.2 4.5 67.1 19.2a18 18 0 0 0 16-3c3.8-2.6 15.5-11.1 17.5-12.6-.4.1-20 10.8-22.3 12-.2-.2-8.6-14 0-45.9a66.2 66.2 0 0 0-4.5 46.6c-4.7.3-11.7-1.5-11.7-1.5zm53.9-51c4.3-.9 8.7-1.7 13-2.4 1.2-.2 2.3-.3 2.6-1.5l7.3-.7c-.3-1.5-.7-3-.9-4.7-.3-2.6-.7-5.4 1.1-7.7 1.2-1.5.7-2.8.3-4.5l-27.3 4.7c-.3 1.5.3 9.8 3.9 16.7zm-65.1 5.2l-3 13 19.7 4 3.7-13.3-20.4-3.7zm16.1 26.9l-19.4-4.8v5.1l13.7 3.6-10 1.1 10.5 4-9.2-.9L86 187l-1.5-12.8zM197 69.5s-8.2-3.6-8.7-3.7c-2-.5-4 .1-6.6 1l-.2.3c1 0 1.8-.2 2.7-.1 1 0 1.8.4 2.7.7.9 0 1.2.3 1.4 1.1l4 17.5-1.2.6 3.2 15.7-21 3.7-3.5-15.3-1.6.2c.7 5.8 2 11.6 3.8 17.2l26-4.5-8.2-34.4v-1.3c.5-.2 1.2-.2 1.6 0 1.3.4 2.5 1 3.7 1.6l2-.3zm-123.3 51l-2.6 8.2 7.8-12.5-4 11.9 3.5-3.7-2.7 8 4.6-5.4c-.2-2 6.3-13.7 6.3-13.7L85 103c0-.4-.4-.7-.7-1-.2.5-8 10.9-10.6 18.6zM200 89.4l-4.2-.3 3.5 14.6 5-1-.2-1.2-5.4-24.3-1.5-6.5v2l-.1 3.7 2.9 13zm-151.5 54c-.5 2.2-2.3 11.4-2.5 13.3l6.3 1.2 1.4-13.2-5.2-1.3zM64 101.6a45 45 0 0 0-10.5 17.7H59l-2.1-.4c.2-1.6 6.9-16.9 16-21.3-8.4 0-15 7.9-15 8l6.2-4zm-29.4 40l-3.9-.6a43 43 0 0 0-2.3 12.1l5.2 1c-.5-5 .7-10.4 1-12.6zM12.3 150l4 .7 1-12.7-2.3-.5a51.2 51.2 0 0 0-2.7 12.5zm40.8 16.3l-7.4-1.7v4.9l8.1 1.9-.7-5zM34 161.2s-4-.4-6-.9v4.6l6.6 1.4-.6-5.1zM64 34c-.3.5-12 11.6-12.2 11.8A482 482 0 0 0 70 31.4c1-.9 1.2-1.5.4-2.6-1.6 1.5-5.8 5-6.3 5.3zM17 157.4l-5.1-1v4.4l5.7 1.2-.6-4.6zm49.1-129l1-.7c1.5-1.2 3.4-1.1 4.5.2 1.2 1.4 1 3.2-.6 4.5l-1.6 1.4a4 4 0 0 0 3.5-1.1 4.2 4.2 0 0 0 1-4.9 4.2 4.2 0 0 0-4.4-2.4c-1.7.2-3 1.3-3.4 2.9zm11.7-2.6l17.6-13.3c.3-.2.3-.7.4-1l-.8.4-8.3 5.9-1.2.4-7.7 7.6zm40.5 145.8c-11.3 6.3-15.5 6.3-15.5 6.3l6-6.6-4 1.1 4.3-6.3-6 4.6 1-3.4-3.4 1.7 3.1-9.9-3 3 3.2-10.4-3.5 3.7s.6-8.6 3-15.2c-7.1 17.8-6.9 35-6.3 37.1.5 2 2.4 3.3 4.4 3.3 2.8 0 11.8-2.9 16.7-9zm88.9-58.2c-6.9 1-13.7 2.1-20.6 3.3-3 .5-6 1.2-9 1.9-3.2 6.5.7 13 1.8 15l1.3-.5c3.6-.3 7.2-1 10.8-.4h3l9.7-1.8c-3.8-13 .4-16 3.7-17l.6-.6h-1.3zM49.3 128.2c3 .2 9.7 1 9.7 1l-2.3 5c-4.3.1-6-2.5-7.4-6zM31.7 126.8l7 .5-2 5.3a14 14 0 0 1-5-5.8zM15.6 125.4l5.5.2-1.9 4.8c-1.2-.7-3-3.6-3.6-5z"/><path fill="#FEFEFE" d="M7 168.3H5.4c-5.9-18.7-3.6-33 2.8-47.4l4.4.4a64 64 0 0 0-5.6 47zm17-45.7c-6 11.3-8.4 34.5-2.8 47.7l1 .3a64.8 64.8 0 0 1 3.8-48.2l-2 .2zm117.8-53.2c1.5 4.6 3.2 9.1 4.9 13.6 0 .2.3.5.5.5 1 .3 1.6 1.1 2 2.1l3.1 8.2h.5l1.5-.3c-3.1-8.6-7.3-16.6-12.5-24zM22 109.4a30.5 30.5 0 0 0-8 10c.2.8.8 1.5.8 3 1.2-2.2 8-11.5 10-13H22zM5.1 169.5l3.4 5.2a3 3 0 0 0 2.4 1.4c-1.2-1.9-1.9-4-2.2-6.2l-3.6-.4zm147.3-117c-.8 0-1.6.8-1.6 1.7 0 1 .6 1.4 1.5 1.6.8 0 1.6-.7 1.7-1.6 0-.8-.7-1.6-1.6-1.6zm24 25.7l13.4 7.5-1.4-6.3-18.4-6.3-.2 2.7 8.1 5-1.5-2.6zm-6.3 3.6L191.4 94l-.6-3L170 80.5v1.5zm15 87.3l.2-23.9-8.2 1.3-7 19.6-6.8-17.4-8.2 1.3-.2 23.7 5-.8.2-18.7 7 17.6 6-.9 7.1-19.6-.1 18.6 5-.8m30.7-4.7l-11.3-22.2-5.8.9-11.5 25.7 5.8-1 2.4-6 11.8-1.9 2.5 5.4 6-1m-18.4-7l4-10.1 4.1 8.8-8.1 1.3zM238 161v-4l-9.2 1.4c-2.8.4-4.7 0-5.7-1.5-.7-1-1-2.3-1-4.3l.1-1.1c0-2.5.4-4.4 1.2-5.8 1.1-1.8 3-3 5.5-3.3l9.3-1.5v-4l-9.3 1.5c-4.6.7-8 2.4-10 5.2a15 15 0 0 0-2.8 9.3c0 4 1.1 6.7 3.4 8.3 2.2 1.5 5.2 1.9 9 1.3l9.5-1.5m27.3-4.2L254.6 146l10.9-13.6-6.7 1.1-10.7 13.3v-11.6l-5.5.9-.2 24.1 5.6-.8v-12l10.2 10.4 7.2-1.1m27.2-4.3L281.4 130l-5.9 1-11.5 26 5.8-1 2.4-6.1 11.9-1.9 2.4 5.5 6.1-1m-18.5-7.2l4.1-10.2 4 9-8 1.2zm37.6-20.2l-6.4 1-6.8 10.5-6.6-8.3-6.2 1 10 12V152l5.6-.9v-10.7l10.4-15.3"/><path fill="#D1D3D4" d="M102.4 228.8l9.4-1.5-.5-3.5-9.3 1.5.4 3.5"/><path fill="#252122" d="M100.6 148.7c-5.5 19.7-2.6 27-2 29.2.4 2 2.6 5.2 17.1-3.7-13 10.6-17.9 7.3-19 3.3-1-3.8-3-13.3 4-28.8zm53.4-16c.4 0 1-.4 1-.8-.1-.4-.8-.5-1.2-.4-1.3.1-25.5 4.3-26.5 4.6-.3 0-1 .4-1 .8.1.5 1 .6 1.3.5 1.3 0 19.2-3.4 26.4-4.7zm.7 3.4c.3 0 .8-.4.7-.7 0-.4-.6-.4-.9-.6-.2 0-24.8 4.3-25.9 4.6-.3 0-1 .4-.9.8 0 .4.8.5 1.2.5 1.3-.1 24.1-4.2 25.8-4.6zm-1.4-10.3c.3 0 1-.4.9-.8-.1-.4-.8-.4-1.1-.4-.7 0-25.7 4.4-26.8 4.7-.4 0-.9.4-.8.8 0 .4.7.5 1 .5 1.1-.1 24.7-4.3 26.8-4.8zm50.6-4.6c0-.4-.8-.4-1.2-.5-.4 0-27 4.7-27.4 4.9-.4.1-1 .4-.9.8 0 .3.7.5 1 .5l27.3-4.7c.4-.3 1.3-.5 1.2-1zm-27.3 7.6c-.3.3-1 .5-.8 1 0 .3.7.3 1.1.4l26.3-4.6c.5-.2 1.3-.1 1.1-1 0-.2-.8-.3-1.3-.5h-.3l-26.1 4.7zm-127.8-24c.3.6 1 .9 1.4.4 2.1-2 4-4.2 6-6.3l-1.2.6-5.4 4.4c-1.4-2.4-.8-8.8-.8-9.3-1.4 4-1.5 7.4 0 10.2zm103.9 24.6c.4 0 1-.4 1-.9 0-.4-.8-.4-1.2-.4-1.3.2-25.5 4.4-26.5 4.7-.3 0-1 .4-.9.8 0 .4.8.5 1.2.5 1.3-.1 19.3-3.4 26.4-4.7zm51.8-11.8c0-.5-.9-.4-1.3-.6-.4 0-27 4.7-27.4 4.9-.3.2-.9.4-.8.8 0 .4.6.5 1 .6l27.2-4.8c.4-.3 1.3-.4 1.3-1zm.2 10.3c-.2-.7-1-.2-1.5-.4l-25.5 4.5c-.3.2-.8.5-.8.8 0 .4.7.5 1 .6l25.6-4.5c.5-.3 1.4-.4 1.2-1z"/><path fill="#E4C021" d="M105.9 23.6S88.3 48 87.9 48.2l12.3-22.5L78.9 58l-1.2-.4L98.2 23c2-3.2 7.9-18.7 18.6-20.3 0 .6.4 1.3.3 1.8l-3.9 28.5L90.5 61l11.8-16.3-13.7 14.1 5.4-9.5-7.2 7.7 19-33.3zM48.6 63.4l.7-5.5-10.1-.8L28.3 103l13.6 2.6.6 2.8-13.7-1.3 11.5 2.7 5.5.8a17.6 17.6 0 0 1-.3-20.4l3-26.7zm120 53l54-10.3s-11.2-.7-13.5-.3c-7.8 1.2-15.5 2.7-23.2 4l-48.1 8.5 30.7-2zm-11.3-5l-2-11.7-1-4.7-8.8 1.5 1.4 8.3h6c1 0 1.3.3 1.4 1.2.3 2.6 1.3 5 1 7.7 2.3 0 2.4 0 2-2.2zm-40.1-97.2c-.3 3.2-2 14.5-2 14.5l6-1.2-2.3-14.7c-1-.2-1.6.1-1.7 1.4zm34.9 100.2c1.5-.3 2-.8 1.8-2.3-.2-2-.6-3.8-1-5.8h-3.6l1.4 8.3 1.4-.2zM36 46.9c-1.9.4-3.3 2-3.5 3.8-.3 1.8.5 3.5 2.3 4.4 0-.8.1-1.5-.1-2-1-2.6.4-4.5 3.2-4.4l2.9.3c-1.2-1.8-3-2.6-4.9-2.1zm13.5 57c1.8-1.5 6.3-4.8 6.7-5 1-.7 2.2-1.5 3.3-2 3-1.5 5.8-3 8.8-4.2 1.3-.5 2.4-1 2.5-2.5 1.8-3.6 8.3-12.5 5-14.6-2-1.2-4.3-.1-5.8 2-.8 1.1-1.2 2.5-2 3.5-3 3.3-6.6 5.7-10.9 7-1.4.4-3 1-4.3 1.7a10 10 0 0 0-4 4.8c0 .5-1.5 7.2.7 9.3zm51 110.9l.2-3.6.3 3.4c1.6-.6 8.2-7.3 8.2-7.3l-2-15.7c-2 1.5-7.4 5.5-13.1 8.2l-2 16c2.6 0 8.1-1.2 8.4-1zM75.4 201l10.4-1.6-20-6v15.4l9.6 3.5V201zm56.7-17.9l-13 2v12.7s10.2-8.8 13-14.7z"/></svg>