<?xml version="1.0" encoding="utf-8"?>
<!-- Generator: Adobe Illustrator 22.0.1, SVG Export Plug-In . SVG Version: 6.00 Build 0)  -->
<svg version="1.1" id="Layer_1" xmlns="http://www.w3.org/2000/svg" xmlns:xlink="http://www.w3.org/1999/xlink" x="0px" y="0px"
	 viewBox="0 0 72.737 37.183" enable-background="new 0 0 72.737 37.183" xml:space="preserve">
<polyline fill="#231F20" points="31.563,10.908 30.334,11.096 30.372,6.499 28.606,11.361 27.145,11.585 25.398,7.236 
	25.359,11.857 24.101,12.05 24.149,6.18 26.185,5.859 27.847,10.171 29.606,5.321 31.611,5.004 31.563,10.908 "/>
<path fill="#231F20" d="M39.157,9.738L37.65,9.97l-0.611-1.33l-2.922,0.453l-0.598,1.515l-1.429,0.219l2.834-6.347l1.451-0.229
	L39.157,9.738 M36.594,7.674L35.596,5.49l-1.017,2.499L36.594,7.674z"/>
<path fill="#231F20" d="M44.678,8.883l-2.341,0.363c-0.961,0.149-1.703,0.043-2.224-0.32c-0.572-0.393-0.853-1.079-0.845-2.06
	c0.008-0.954,0.231-1.718,0.67-2.29c0.517-0.677,1.346-1.107,2.484-1.288l2.304-0.368l-0.007,0.991l-2.286,0.363
	c-0.639,0.102-1.092,0.378-1.358,0.829c-0.201,0.343-0.304,0.816-0.309,1.418c-0.007,0.12-0.011,0.218-0.012,0.293
	c-0.004,0.477,0.072,0.825,0.23,1.044c0.254,0.357,0.726,0.482,1.416,0.374l2.286-0.356L44.678,8.883"/>
<polyline fill="#231F20" points="51.411,7.835 49.653,8.109 47.134,5.525 47.109,8.505 45.735,8.719 45.784,2.751 47.159,2.531 
	47.135,5.406 49.789,2.109 51.441,1.844 48.757,5.202 51.411,7.835 "/>
<path fill="#231F20" d="M58.151,6.78l-1.508,0.236l-0.611-1.35l-2.92,0.461l-0.598,1.536l-1.431,0.224l2.835-6.441l1.451-0.233
	L58.151,6.78 M55.587,4.686L54.59,2.471l-1.018,2.535L55.587,4.686z"/>
<polyline fill="#231F20" points="62.867,0 60.305,3.781 60.284,6.445 58.9,6.662 58.913,4.003 56.444,1.039 57.979,0.791 
	59.601,2.842 61.283,0.257 62.867,0 "/>
<path fill="#231F20" d="M3.838,37.183c-0.062,0-0.124-0.017-0.178-0.048l-3.488-2.06C0.044,35-0.022,34.853,0.006,34.708
	c0.028-0.145,0.145-0.257,0.29-0.279l1.177-0.179c-0.065-0.065-0.102-0.153-0.102-0.247V16.577c0-0.173,0.126-0.32,0.298-0.346
	l5.386-0.81c0.079-0.011,0.16,0.004,0.229,0.045l1.385,0.818l0.118-0.936c0.019-0.155,0.14-0.278,0.295-0.301l3.153-0.474
	c0.08-0.012,0.16,0.004,0.23,0.045l2.084,1.231v-1.323c0-0.173,0.127-0.32,0.298-0.345l3.154-0.475
	c0.589-0.089,1.11-0.107,1.556-0.053c0.346,0.012,0.773,0.143,1.294,0.396v-0.54c0-0.173,0.126-0.32,0.298-0.345l6.308-0.949
	c0.039-0.006,0.078-0.005,0.115,0.002c0.049-0.042,0.109-0.07,0.176-0.08l2.815-0.423c0.08-0.012,0.16,0.004,0.23,0.045l0.166,0.098
	c0.038-0.127,0.146-0.225,0.283-0.245l2.793-0.419c0.08-0.012,0.161,0.004,0.23,0.045l0.034,0.02
	c0.053-0.072,0.134-0.124,0.229-0.138l2.957-0.445c0.079-0.011,0.16,0.004,0.23,0.044l1.144,0.676l0.073-0.674
	c0.017-0.158,0.139-0.284,0.296-0.308l2.52-0.379c0.079-0.011,0.16,0.004,0.23,0.045l1.151,0.68l0.06-0.671
	c0.015-0.161,0.137-0.291,0.296-0.314l2.899-0.436c0.08-0.012,0.16,0.004,0.23,0.045l0.702,0.415
	c0.598-0.615,1.431-1.007,2.482-1.165c0.674-0.101,1.276-0.079,1.782,0.067c0.047,0.003,0.093,0.015,0.136,0.037l0.037,0.019
	c0.025,0.01,0.053,0.021,0.083,0.035c0.174,0.067,0.351,0.161,0.511,0.271c0.328,0.184,0.76,0.438,1.162,0.678v-1.17
	c0-0.173,0.126-0.32,0.298-0.346l3.153-0.474c0.84-0.126,1.515-0.107,2.078,0.058c0.063-0.005,0.128,0.013,0.185,0.046l0.083,0.047
	c0.222,0.089,0.426,0.208,0.609,0.352l0.836,0.484l-0.396-1.655c-0.023-0.095-0.005-0.196,0.05-0.277
	c0.055-0.081,0.141-0.136,0.238-0.15l3.494-0.525c0.079-0.011,0.16,0.004,0.229,0.045l0.927,0.548l0.085-0.533
	c0.024-0.151,0.143-0.268,0.293-0.291l3.293-0.495c0.079-0.012,0.16,0.004,0.23,0.045l2.871,1.695
	c0.131,0.078,0.197,0.232,0.162,0.381l-2.368,10.107l2.869,11.161c0.025,0.097,0.007,0.199-0.049,0.282
	c-0.055,0.083-0.144,0.138-0.243,0.151l-3.536,0.48c-0.082,0.01-0.165-0.007-0.234-0.051l-1.753-1.107
	c-0.059,0.31-0.121,0.634-0.187,0.973l-0.047,0.246c-0.028,0.147-0.148,0.26-0.296,0.28l-3.114,0.424L3.877,37.181
	C3.864,37.183,3.851,37.183,3.838,37.183"/>
<polyline fill="#FFF200" points="2.071,33.803 2.071,16.877 7.037,16.131 7.037,18.382 4.466,18.764 4.466,23.709 6.092,23.475 
	6.092,25.724 4.466,25.956 4.466,31.231 7.146,30.862 7.146,33.114 2.071,33.803 "/>
<path fill="#FFF200" d="M11.887,32.407l-0.264-2.391l-1.758,0.242l-0.307,2.465l-2.307,0.313l2.197-17.338l2.768-0.416l2.065,16.799
	L11.887,32.407 M11.36,27.999c-0.22-2.188-0.439-4.417-0.615-6.713c-0.176,2.347-0.396,4.637-0.659,6.891L11.36,27.999z"/>
<path fill="#FFF200" d="M18.874,31.457c-0.241-2.513-0.483-5.046-0.835-7.541l-0.395,0.057v7.652l-2.395,0.325V14.826l2.856-0.43
	c2.153-0.324,3.23,0.352,3.23,2.609v3.556c0,1.317-0.308,2.051-1.033,2.573c0.461,2.652,0.835,5.338,1.187,7.967L18.874,31.457
	 M18.918,17.363c0-0.543-0.264-0.775-0.813-0.693l-0.461,0.068v5.17l0.483-0.07c0.527-0.075,0.791-0.385,0.791-0.906V17.363z"/>
<polyline fill="#FFF200" points="23.307,30.792 23.307,15.829 21.55,16.089 21.55,13.809 27.438,12.923 27.438,15.216 
	25.702,15.473 25.702,30.467 23.307,30.792 "/>
<polyline fill="#FFF200" points="31.643,29.628 31.643,21.924 30.544,22.08 30.544,29.777 28.149,30.103 28.149,12.781 
	30.544,12.421 30.544,19.782 31.643,19.623 31.643,12.256 34.015,11.899 34.015,29.307 31.643,29.628 "/>
<path fill="#FFF200" d="M41.573,28.28c-0.835-8.608-0.945-9.868-0.988-11.137c-0.066,1.285-0.176,2.577-1.099,11.42l-2.791,0.379
	L34.96,11.758l2.504-0.377c0.659,9.07,0.769,10.561,0.857,12.055c0.11-1.522,0.263-3.052,1.274-12.376l2.131-0.32
	c0.857,9.074,0.989,10.567,1.099,12.064c0.066-1.522,0.198-3.053,1.032-12.385l2.505-0.376l-2.022,17.862L41.573,28.28"/>
<path fill="#FFF200" d="M46.956,12.755c0-1.946,0.967-3.138,2.945-3.437c1.977-0.298,2.944,0.61,2.944,2.565v12.053
	c0,1.955-0.967,3.139-2.944,3.407c-1.978,0.268-2.945-0.648-2.945-2.594V12.755 M50.449,12.237c0-0.45-0.176-0.639-0.549-0.583
	c-0.352,0.052-0.55,0.296-0.55,0.746v12.018c0,0.449,0.198,0.637,0.55,0.589c0.373-0.052,0.549-0.29,0.549-0.74V12.237z"/>
<path fill="#FFF200" d="M57.831,26.072c-0.242-2.599-0.483-5.217-0.835-7.798l-0.395,0.056v7.909l-2.395,0.325V8.863l2.856-0.429
	c2.153-0.324,3.23,0.379,3.23,2.714v3.675c0,1.361-0.308,2.119-1.033,2.654c0.461,2.743,0.835,5.522,1.186,8.24L57.831,26.072
	 M57.875,11.505c0-0.561-0.264-0.803-0.813-0.721l-0.461,0.069v5.345l0.483-0.07c0.527-0.076,0.792-0.394,0.792-0.934V11.505z"/>
<path fill="#FFF200" d="M66.389,27.487c-0.955-4.944-1.213-6.565-1.446-8.189c-0.18,1.656-0.439,3.349-1.446,8.581l-2.866,0.389
	l2.737-11.599l-2.246-9.388l2.995-0.45c0.671,3.798,0.826,5.152,0.955,6.458c0.155-1.347,0.31-2.696,0.955-6.745l2.917-0.438
	L66.595,16.13l2.814,10.947L66.389,27.487"/>
<path fill="#D1D3D4" d="M57.137,19.392c0.072,0.583,0.141,1.166,0.206,1.751l2.426-0.388c-0.085-0.581-0.172-1.162-0.263-1.742
	L57.137,19.392"/>
<path fill="#D1D3D4" d="M49.9,27.343c1.977-0.269,2.944-1.453,2.944-3.407V22.66l-2.395,0.383v1.223c0,0.45-0.176,0.688-0.549,0.74
	c-0.352,0.049-0.55-0.139-0.55-0.589v-1.198l-2.395,0.384v1.145C46.956,26.694,47.923,27.61,49.9,27.343"/>
<polyline fill="#D1D3D4" points="54.206,21.646 56.601,21.263 56.601,19.478 54.206,19.862 54.206,21.646 "/>
<polyline fill="#D1D3D4" points="34.015,25.675 31.643,26.054 31.643,29.628 34.015,29.307 34.015,25.675 "/>
<polyline fill="#D1D3D4" points="56.601,22.059 54.206,22.443 54.206,26.564 56.601,26.24 56.601,22.059 "/>
<polyline fill="#D1D3D4" points="31.643,25.258 34.015,24.878 34.015,23.094 31.643,23.474 31.643,25.258 "/>
<path fill="#D1D3D4" d="M39.486,28.563c0.154-1.476,0.285-2.738,0.397-3.828l-3.555,0.569l0.367,3.638L39.486,28.563"/>
<polyline fill="#D1D3D4" points="46.956,22.807 49.351,22.424 49.351,20.639 46.956,21.022 46.956,22.807 "/>
<polyline fill="#D1D3D4" points="50.449,22.248 52.844,21.864 52.844,20.08 50.449,20.463 50.449,22.248 "/>
<polyline fill="#D1D3D4" points="30.544,26.23 28.149,26.614 28.149,30.103 30.544,29.777 30.544,26.23 "/>
<path fill="#D1D3D4" d="M36.249,24.521l3.717-0.595c0.069-0.677,0.13-1.278,0.184-1.813l-1.746,0.279
	c-0.035,0.398-0.06,0.722-0.084,1.045c-0.019-0.316-0.038-0.633-0.064-1.021l-2.186,0.35L36.249,24.521"/>
<path fill="#D1D3D4" d="M41.135,23.739l3.746-0.599l0.206-1.817l-2.198,0.352c-0.029,0.438-0.048,0.785-0.063,1.131
	c-0.025-0.34-0.051-0.679-0.086-1.107l-1.771,0.284C41.017,22.501,41.072,23.083,41.135,23.739"/>
<path fill="#D1D3D4" d="M10.228,26.902l-2.245,0.359l-0.23,1.821l6.042-0.967l-0.215-1.75l-2.345,0.375
	c0.042,0.42,0.083,0.84,0.125,1.258l-1.274,0.178C10.135,27.753,10.182,27.328,10.228,26.902"/>
<path fill="#D1D3D4" d="M38.182,21.314c-0.018-0.261-0.039-0.554-0.062-0.882l-2.248,0.36l0.089,0.878L38.182,21.314"/>
<polyline fill="#D1D3D4" points="9.866,30.257 11.624,30.015 11.887,32.407 14.282,32.081 13.891,28.896 7.65,29.896 7.252,33.036 
	9.559,32.722 9.866,30.257 "/>
<polyline fill="#D1D3D4" points="17.644,28.296 15.249,28.679 15.249,31.95 17.644,31.625 17.644,28.296 "/>
<polyline fill="#D1D3D4" points="28.149,25.818 30.544,25.434 30.544,23.65 28.149,24.033 28.149,25.818 "/>
<path fill="#D1D3D4" d="M57.831,26.072l2.614-0.355c-0.178-1.383-0.364-2.782-0.563-4.183l-2.454,0.393
	C57.574,23.308,57.703,24.693,57.831,26.072"/>
<polyline fill="#D1D3D4" points="25.702,27.006 23.307,27.389 23.307,30.792 25.702,30.467 25.702,27.006 "/>
<path fill="#D1D3D4" d="M18.874,31.457l2.615-0.355c-0.148-1.108-0.303-2.227-0.463-3.348l-2.48,0.397
	C18.661,29.254,18.768,30.357,18.874,31.457"/>
<path fill="#D1D3D4" d="M44.342,27.905l0.448-3.955l-3.579,0.573c0.103,1.068,0.223,2.306,0.363,3.757L44.342,27.905"/>
<polyline fill="#D1D3D4" points="25.702,23.312 25.702,22.42 23.307,22.804 23.307,23.696 25.702,23.312 "/>
<path fill="#D1D3D4" d="M17.644,24.602v-0.629l0.395-0.057c0.029,0.203,0.052,0.407,0.079,0.61l2.352-0.377
	c-0.048-0.289-0.094-0.58-0.144-0.869l-5.077,0.813v0.892L17.644,24.602"/>
<polyline fill="#D1D3D4" points="30.544,22.537 30.544,22.08 31.643,21.924 31.643,22.361 34.015,21.981 34.015,21.089 
	28.149,22.028 28.149,22.92 30.544,22.537 "/>
<path fill="#D1D3D4" d="M11.128,25.645l2.317-0.371L13.338,24.4l-2.294,0.367C11.072,25.061,11.101,25.353,11.128,25.645"/>
<polyline fill="#D1D3D4" points="23.307,26.593 25.702,26.209 25.702,24.425 23.307,24.808 23.307,26.593 "/>
<path fill="#D1D3D4" d="M40.866,20.885l1.779-0.285c-0.023-0.262-0.049-0.552-0.079-0.879l-1.78,0.285
	C40.81,20.27,40.836,20.562,40.866,20.885"/>
<path fill="#D1D3D4" d="M10.347,25.771c0.031-0.302,0.062-0.603,0.092-0.907l-2.196,0.352l-0.116,0.91L10.347,25.771"/>
<polyline fill="#D1D3D4" points="7.146,33.114 7.146,30.862 4.466,31.231 4.466,30.405 2.071,30.789 2.071,33.803 7.146,33.114 "/>
<polyline fill="#D1D3D4" points="4.466,29.609 4.466,27.825 2.071,28.208 2.071,29.992 4.466,29.609 "/>
<polyline fill="#D1D3D4" points="4.466,26.712 4.466,25.956 6.092,25.724 6.092,25.56 2.071,26.203 2.071,27.095 4.466,26.712 "/>
<path fill="#D1D3D4" d="M40.264,20.981c0.033-0.333,0.062-0.633,0.087-0.906l-1.749,0.28c-0.034,0.337-0.065,0.638-0.091,0.907
	L40.264,20.981"/>
<path fill="#D1D3D4" d="M60.632,28.269l2.865-0.389c0.729-3.788,1.065-5.721,1.264-7.128l-2.449,0.392l-1.114,4.721L1.372,34.972
	L60.632,28.269"/>
<path fill="#D1D3D4" d="M66.389,27.487l3.02-0.41l-1.745-6.789l-2.512,0.402C65.368,22.05,65.693,23.888,66.389,27.487"/>
<polyline fill="#D1D3D4" points="15.249,27.883 17.644,27.499 17.644,25.715 15.249,26.099 15.249,27.883 "/>
<path fill="#D1D3D4" d="M18.462,27.368l2.451-0.393c-0.086-0.58-0.174-1.161-0.265-1.741l-2.388,0.382
	C18.332,26.199,18.399,26.783,18.462,27.368"/>
<path fill="#D1D3D4" d="M62.945,18.463l-0.437,1.854l2.361-0.378c0.027-0.218,0.051-0.43,0.074-0.64
	c0.029,0.202,0.058,0.405,0.09,0.614l2.434-0.39l-0.44-1.714L62.945,18.463"/>
<path fill="#D1D3D4" d="M56.601,18.365v-0.035l0.395-0.056c0.002,0.009,0.002,0.019,0.004,0.028l2.332-0.373
	c-0.025-0.15-0.047-0.302-0.072-0.452c0.203-0.15,0.371-0.318,0.512-0.511l-5.565,0.891v0.892L56.601,18.365"/>
<polyline fill="#D1D3D4" points="49.351,19.526 49.351,18.634 46.956,19.018 46.956,19.91 49.351,19.526 "/>
<polyline fill="#D1D3D4" points="50.449,19.35 52.844,18.967 52.844,18.075 50.449,18.458 50.449,19.35 "/>
<path fill="#D1D3D4" d="M45.215,20.189l0.103-0.909l-2.273,0.364c-0.028,0.336-0.052,0.635-0.073,0.904L45.215,20.189"/>
<polyline fill="#D1D3D4" points="63.218,17.306 66.752,16.741 66.595,16.13 66.657,15.863 63.304,16.401 63.368,16.67 
	63.218,17.306 "/>
</svg>
