<?xml version="1.0" encoding="utf-8"?>
<!-- Generator: Adobe Illustrator 22.0.1, SVG Export Plug-In . SVG Version: 6.00 Build 0)  -->
<svg version="1.1" id="Layer_1" xmlns="http://www.w3.org/2000/svg" xmlns:xlink="http://www.w3.org/1999/xlink" x="0px" y="0px"
	 viewBox="0 0 134.8 9.84" enable-background="new 0 0 134.8 9.84" xml:space="preserve">
<g>
	<path d="M0,0.21h3.44l1.04,3.76c0.3,1.09,0.3,1.23,0.56,3.36C5.28,5.63,5.42,4.8,5.64,3.97l0.98-3.76h3.44v9.42H8.04V1.91
		L5.91,9.63H4.1L1.95,2.37v7.26H0V0.21z"/>
	<path d="M13.94,0.21h2.52l3.3,9.42h-2.4l-0.61-1.89h-3.31l-0.58,1.89h-2.19L13.94,0.21z M16.23,5.99l-1.12-3.97l-1.1,3.97H16.23z"
		/>
	<path d="M20.36,0.21h2.28v9.42h-2.28V0.21z"/>
	<path d="M24.18,0.21h3l0.85,2.05c0.36,0.85,1.15,3.21,1.76,5.22V0.21h2.03v9.42h-3.23l-0.85-2.06c-0.66-1.58-1.13-3.13-1.61-4.93
		v6.99h-1.95V0.21z"/>
	<path d="M33.25,0.21h2.97c1.46,0,1.99,0.11,2.57,0.55c0.64,0.48,1.01,1.36,1.01,2.41c0,1-0.34,1.87-0.92,2.36
		c-0.56,0.48-1.07,0.61-2.37,0.61h-1.09v3.49h-2.16V0.21z M36.38,4.36c0.88,0,1.26-0.37,1.26-1.19c0-0.79-0.43-1.21-1.26-1.21h-0.97
		v2.4H36.38z"/>
	<path d="M40.49,4.91c0-3.08,1.48-4.91,3.96-4.91c2.58,0,4.05,1.81,4.05,5c0,2.98-1.52,4.84-3.98,4.84c-1.16,0-2.22-0.44-2.9-1.21
		C40.87,7.78,40.49,6.52,40.49,4.91z M45.98,6.74c0.16-0.51,0.24-1.21,0.24-1.82c0-1.93-0.65-3.08-1.74-3.08
		c-1.1,0-1.71,1.1-1.71,3.06c0,1.99,0.62,3.11,1.73,3.11C45.19,8.01,45.74,7.54,45.98,6.74z"/>
	<path d="M49.71,0.21h2.28v9.42h-2.28V0.21z"/>
	<path d="M53.53,0.21h3l0.85,2.05c0.36,0.85,1.15,3.21,1.76,5.22V0.21h2.03v9.42h-3.23l-0.85-2.06c-0.66-1.58-1.13-3.13-1.61-4.93
		v6.99h-1.95V0.21z"/>
	<path d="M64.37,2.05h-2.54V0.21h7.29v1.84h-2.47v7.58h-2.28V2.05z"/>
	<path d="M75.09,0.21h2.52l3.3,9.42h-2.4L77.9,7.74h-3.31l-0.58,1.89h-2.19L75.09,0.21z M77.38,5.99l-1.12-3.97l-1.1,3.97H77.38z"/>
	<path d="M81.51,0.21h2.99c1.81,0,2.84,0.37,3.66,1.29c0.67,0.76,1.03,1.95,1.03,3.43c0,1.65-0.41,2.85-1.21,3.62
		c-0.83,0.78-1.81,1.09-3.5,1.09h-2.96V0.21z M84.55,7.79c0.65,0,1.08-0.11,1.44-0.38c0.61-0.44,0.92-1.29,0.92-2.44
		c0-1.91-0.79-2.92-2.29-2.92h-0.83v5.75H84.55z"/>
	<path d="M89.53,0.21h2.48l0.91,3.33c0.35,1.28,0.62,2.33,1,4.01c0.25-1.27,0.65-2.84,1.02-4.11l0.94-3.23h2.15l-2.91,9.42h-2.58
		L89.53,0.21z"/>
	<path d="M98.65,0.21h2.28v9.42h-2.28V0.21z"/>
	<path d="M102.14,6.61h2.23c0.04,0.58,0.1,0.78,0.24,0.99c0.2,0.3,0.6,0.49,1.01,0.49c0.71,0,1.24-0.48,1.24-1.13
		c0-0.52-0.32-0.82-1.19-1.06c-1.83-0.51-2.35-0.72-2.73-1.14c-0.42-0.47-0.65-1.1-0.65-1.82c0-1.81,1.28-2.94,3.35-2.94
		c1.24,0,2.23,0.38,2.72,1.06c0.32,0.42,0.44,0.9,0.48,1.89h-2.21c-0.02-0.49-0.05-0.62-0.17-0.8c-0.18-0.27-0.48-0.41-0.86-0.41
		c-0.62,0-1.03,0.34-1.03,0.88c0,0.69,0.28,0.9,1.57,1.24c1.16,0.3,1.83,0.59,2.3,1.02c0.44,0.41,0.7,1.07,0.7,1.85
		c0,1.92-1.42,3.12-3.67,3.12c-1.26,0-2.21-0.41-2.77-1.19C102.35,8.18,102.19,7.6,102.14,6.61z"/>
	<path d="M109.93,4.91c0-3.08,1.47-4.91,3.96-4.91c2.58,0,4.05,1.81,4.05,5c0,2.98-1.52,4.84-3.98,4.84c-1.16,0-2.22-0.44-2.9-1.21
		C110.32,7.78,109.93,6.52,109.93,4.91z M115.42,6.74c0.16-0.51,0.24-1.21,0.24-1.82c0-1.93-0.65-3.08-1.74-3.08
		c-1.1,0-1.71,1.1-1.71,3.06c0,1.99,0.62,3.11,1.73,3.11C114.63,8.01,115.18,7.54,115.42,6.74z"/>
	<path d="M119.16,0.21h3.33c1.15,0,1.81,0.11,2.34,0.37c0.65,0.32,1.06,1.12,1.06,2.03c0,0.72-0.23,1.33-0.66,1.75
		c-0.29,0.28-0.55,0.41-1.12,0.54c1.14,0.27,1.49,0.68,1.61,1.91c0.18,1.85,0.28,2.34,0.53,2.82h-2.45c-0.12-0.37-0.24-1.1-0.3-1.89
		c-0.08-1.07-0.12-1.3-0.31-1.51c-0.17-0.18-0.42-0.25-0.94-0.25h-0.94v3.66h-2.16V0.21z M122.25,4.19c0.6,0,0.79-0.03,1.02-0.17
		c0.28-0.17,0.46-0.55,0.46-0.96c0-0.38-0.17-0.75-0.41-0.9c-0.19-0.13-0.52-0.2-0.97-0.2h-1.03v2.23H122.25z"/>
	<path d="M129.65,6.34l-3.11-6.13h2.63l0.44,1.14c0.52,1.31,0.83,2.02,1.21,3.14c0.17-0.58,0.6-1.75,1.21-3.14l0.5-1.14h2.27
		l-3,6.13v3.29h-2.16V6.34z"/>
</g>
</svg>
