<?xml version="1.0" encoding="utf-8"?>
<!-- Generator: Adobe Illustrator 22.0.1, SVG Export Plug-In . SVG Version: 6.00 Build 0)  -->
<svg version="1.1" id="Layer_1" xmlns="http://www.w3.org/2000/svg" xmlns:xlink="http://www.w3.org/1999/xlink" x="0px" y="0px"
	 viewBox="0 0 158.4915 46.459" enable-background="new 0 0 158.4915 46.459" xml:space="preserve">
<path d="M35.0892,2.6953v34.5502h-6.028V15.8783L17.5446,33.0308L6.028,15.8783v21.3672H0V2.6953h2.9893l14.5553,21.0242
	L32.0999,2.6953H35.0892z M66.6503,10.6836v26.5619h-5.8808v-2.2053c-2.4506,1.699-5.1949,2.5484-8.2333,2.5484
	c-3.9861,0-7.2041-1.3559-9.6544-4.0676c-2.4506-2.7117-3.6757-5.9299-3.6757-9.6544s1.2252-6.9427,3.6757-9.6546
	c2.4503-2.7117,5.6683-4.0676,9.6544-4.0676c3.0057,0,5.75,0.8333,8.2333,2.4994v-1.9601H66.6503z M60.7695,17.9855
	c-1.9277-1.7642-4.3455-2.6463-7.2531-2.6463c-2.5484,0-4.6313,0.833-6.2485,2.4994c-1.6173,1.6663-2.4259,3.6755-2.4259,6.028
	c0,2.3522,0.8169,4.3697,2.4506,6.0524c1.6334,1.6827,3.7082,2.5238,6.2239,2.5238c2.9403,0,5.3582-0.8657,7.2531-2.5972V17.9855z
	 M71.5515,0.294h5.8318v36.9515h-5.8318V0.294z M105.6605,14.212c2.8424,2.6792,4.2638,5.9138,4.2638,9.7037
	c0,3.7572-1.4213,6.9752-4.2638,9.6544c-2.8424,2.679-6.2566,4.0186-10.2425,4.0186S88.0178,36.249,85.1754,33.57
	c-2.8422-2.6792-4.2635-5.8972-4.2635-9.6544c0-3.7899,1.4213-7.0245,4.2635-9.7037c2.8424-2.679,6.2568-4.0186,10.2427-4.0186
	S102.8181,11.533,105.6605,14.212z M101.6175,29.9434c1.7151-1.6661,2.5728-3.6755,2.5728-6.0277
	c0-2.3852-0.8577-4.4107-2.5728-6.077c-1.7154-1.6663-3.7819-2.4994-6.1995-2.4994s-4.4841,0.833-6.1995,2.4994
	c-1.7151,1.6663-2.5728,3.6918-2.5728,6.077c0,2.3522,0.8577,4.3616,2.5728,6.0277c1.7154,1.6663,3.7819,2.4994,6.1995,2.4994
	S99.9022,31.6097,101.6175,29.9434z M138.2018,10.6836v26.5619h-5.8811v-2.1563c-2.1561,1.6663-4.7864,2.4994-7.8902,2.4994
	c-3.8224,0-6.6809-0.9882-8.5759-2.9649c-1.895-1.9767-2.8424-5.0397-2.8424-9.1888V10.6836h5.8318v14.7512
	c0,2.2868,0.58,4.0266,1.7398,5.2191c1.1598,1.1927,2.769,1.7888,4.8272,1.7888c2.7768,0,5.0802-0.8167,6.9098-2.4503V10.6836
	H138.2018z M158.4915,5.1456c-1.1107-0.1959-2.1399-0.294-3.0877-0.294c-1.9277,0-3.2099,0.4329-3.8468,1.2988
	c-0.6373,0.8657-0.9558,2.2134-0.9558,4.043v0.4902h7.5959v4.7047h-7.5959v22.8864c0,2.3849-0.7108,4.3453-2.1319,5.8808
	c-1.4211,1.5355-3.4388,2.3034-6.0521,2.3034c-1.2742,0-2.4015-0.1144-3.3815-0.3431v-4.5578c2.2541,0,3.7653-0.3758,4.5329-1.1271
	c0.7676-0.7515,1.1515-2.3852,1.1515-4.9009V15.3883h-3.9695v-4.7047h3.9695V9.1644c0-3.2673,0.7601-5.6114,2.2793-7.0328
	C148.5186,0.7106,150.5197,0,153.0028,0c1.6334,0,3.463,0.2777,5.4887,0.833V5.1456z"/>
</svg>
