<?xml version="1.0" encoding="utf-8"?>
<!-- Generator: Adobe Illustrator 22.0.1, SVG Export Plug-In . SVG Version: 6.00 Build 0)  -->
<svg version="1.1" id="Layer_1" xmlns="http://www.w3.org/2000/svg" xmlns:xlink="http://www.w3.org/1999/xlink" x="0px" y="0px"
	 viewBox="0 0 918.1 436.23" enable-background="new 0 0 918.1 436.23" xml:space="preserve">
<path fill="#D2AA64" d="M677.64,218.11c0-37.18-9.34-72.22-25.79-102.88C615.07,46.68,542.69,0,459.52,0
	c-83.24,0-155.67,46.77-192.43,115.42c-16.38,30.61-25.68,65.58-25.68,102.69c0,38.73,10.12,75.12,27.86,106.67
	c37.39,66.49,108.63,111.46,190.25,111.46c81.59,0,152.79-44.92,190.2-111.36C667.5,293.31,677.64,256.89,677.64,218.11z"/>
<ellipse fill="#D2AA64" cx="459.05" cy="219.9" rx="649.2" ry="148.01"/>
<path fill="#EC2124" d="M660.19,218.11c0-30.76-6.94-59.91-19.34-85.98C608.61,64.36,539.49,17.45,459.52,17.45
	c-79.86,0-148.91,46.79-181.2,114.42c-12.47,26.14-19.47,55.39-19.47,86.25c0,32.23,7.62,62.69,21.15,89.69
	c32.96,65.77,101.02,110.98,179.52,110.98c78.4,0,146.38-45.09,179.39-110.71C652.52,281.01,660.19,250.45,660.19,218.11z"/>
<path d="M17.03,132.27c294.54,0,589.09,0,883.63,0c0,58.51,0,117.03,0,175.54c-294.54,0-589.09,0-883.63,0
	C17.03,249.3,17.03,190.78,17.03,132.27z"/>
<path fill="#FFFFFF" d="M483.53,255.27c-14.06,12.46-35.06,23.67-60.7,23.67c-38.98,0-64.79-27.77-64.79-61.76
	c0-33.29,25.99-61.59,63.9-61.59c21.36,0,43.08,8.19,58.03,19.94l-18.69,20.29c-10.86-8.9-24.92-14.06-35.42-14.06
	c-21.54,0-35.42,16.2-35.42,35.6s14.24,35.6,36.31,35.6c13.53,0,27.59-8.01,37.91-17.62L483.53,255.27z"/>
<path fill="#FFFFFF" d="M800.9,195.28c-10.68-8.72-25.63-13.53-36.31-13.53c-19.22,0-32.57,16.2-32.57,35.6
	c0,18.16,11.75,35.24,34.35,35.24c8.72,0,18.16-2.14,24.74-6.23v-15.84h-33.46v-24.21h63.19v53.4
	c-15.84,11.57-37.38,18.87-55.53,18.87c-37.56,0-65.5-27.41-65.5-61.41s28.48-61.59,64.61-61.59c18.16,0,38.63,7.12,56.25,20.47
	L800.9,195.28z"/>
<path fill="#FFFFFF" d="M501.88,275.25c0-38.56,0-77.12,0-115.68c12.13,0,24.25,0,36.37,0c0,38.56,0,77.12,0,115.68
	C526.13,275.25,514.01,275.25,501.88,275.25z"/>
<path fill="#FFFFFF" d="M566.67,275.42c0-38.65,0-77.29,0-115.94c10.79,0,21.59,0,32.39,0c15.51,21.93,31.02,43.87,46.53,65.8
	c0.01-21.93,0.01-43.87,0.01-65.8c10.66,0,21.32,0,31.98,0c-0.02,38.65-0.04,77.29-0.06,115.93c-11.52,0-23.05,0-34.57,0
	c-14.32-19.93-28.65-39.86-42.98-59.78c0,19.93,0,39.86,0,59.79C588.86,275.42,577.77,275.42,566.67,275.42z"/>
<path fill="#FFFFFF" d="M179.96,239.1c5.41-5.05,12.84-8.8,16.24-15.15c3.4-6.35,5.04-15.08,4.18-22.95
	c-0.86-7.88-4.47-17.77-9.32-24.31c-4.85-6.53-11.35-12.03-19.79-14.92c-8.45-2.89-16.17-2.42-30.89-2.42c0,0-21.37,0-42.73,0
	c0,38.89,0,77.78,0,116.67c10.16,0.02,20.31,0.03,30.47,0.05c0-11.65,0-23.3,0-34.95c6.56,0,13.12,0,19.68,0
	c7.14,11.43,14.27,22.87,21.4,34.3c12.18,0,24.37,0,36.55,0C197.15,263.31,188.55,251.2,179.96,239.1z M158.31,215.42
	c-8.29,0-19.3,0-30.31,0c0.01-8.76,0.02-17.51,0.02-26.27c10.73,0,21.44,0,29.89,0c7.2,0,13.09,5.93,13.21,13.13
	C171.23,209.43,165.46,215.42,158.31,215.42z"/>
<path fill="#FFFFFF" d="M305.37,159.26c-12.12,0-24.25,0-36.37,0c-16.75,38.68-33.5,77.36-50.24,116.04c12.36,0,24.72,0,37.09,0
	c2.35-6.48,4.69-12.97,7.04-19.46c15.69,0,31.38,0,47.06,0c2.2,6.57,4.39,13.13,6.59,19.69c12.25,0,24.51,0,36.76,0
	C337.32,236.77,321.35,198.01,305.37,159.26z M269.82,233.32c5.58-14.97,11.16-29.93,16.75-44.89
	c5.48,14.96,10.97,29.93,16.46,44.89C291.95,233.32,280.88,233.32,269.82,233.32z"/>
</svg>
