<?xml version="1.0" encoding="utf-8"?>
<!-- Generator: Adobe Illustrator 22.0.1, SVG Export Plug-In . SVG Version: 6.00 Build 0)  -->
<svg version="1.1" id="Layer_1" xmlns="http://www.w3.org/2000/svg" xmlns:xlink="http://www.w3.org/1999/xlink" x="0px" y="0px"
	 viewBox="0 0 918.102 436.234" enable-background="new 0 0 918.102 436.234" xml:space="preserve">
<path fill="#D2AA64" d="M677.64,218.112c0-37.184-9.34-72.215-25.79-102.876C615.066,46.682,542.689,0,459.518,0
	c-83.236,0-155.671,46.77-192.43,115.425c-16.385,30.612-25.682,65.575-25.682,102.687c0,38.734,10.122,75.123,27.86,106.666
	c37.391,66.487,108.632,111.456,190.252,111.456c81.59,0,152.79-44.923,190.2-111.358
	C667.496,293.306,677.64,256.886,677.64,218.112z"/>
<rect y="115.236" fill="#D2AA64" width="918.102" height="209.321"/>
<path fill="none" stroke="#000000" d="M660.188,218.112c0-110.723-89.944-200.666-200.669-200.666
	c-110.723,0-200.666,89.943-200.666,200.666c0,110.732,89.943,200.669,200.666,200.669
	C570.244,418.781,660.188,328.844,660.188,218.112z"/>
<path fill="#EC2124" d="M660.188,218.112c0-30.758-6.938-59.913-19.341-85.981C608.612,64.362,539.486,17.446,459.518,17.446
	c-79.857,0-148.905,46.789-181.198,114.418c-12.474,26.14-19.468,55.389-19.468,86.247c0,32.228,7.623,62.693,21.149,89.69
	c32.964,65.77,101.02,110.979,179.517,110.979c78.4,0,146.377-45.088,179.387-110.713
	C652.522,281.007,660.188,250.447,660.188,218.112z"/>
<path d="M17.034,132.27c294.543,0,589.092,0,883.635,0c0,58.514,0,117.028,0,175.539c-294.543,0-589.092,0-883.635,0
	C17.034,249.298,17.034,190.784,17.034,132.27z"/>
<path fill="#FFFFFF" d="M483.525,255.267c-14.062,12.459-35.064,23.673-60.695,23.673c-38.981,0-64.79-27.767-64.79-61.764
	c0-33.285,25.987-61.586,63.899-61.586c21.359,0,43.075,8.188,58.026,19.936l-18.689,20.291
	c-10.857-8.899-24.919-14.061-35.421-14.061c-21.537,0-35.421,16.197-35.421,35.598s14.239,35.599,36.311,35.599
	c13.528,0,27.59-8.01,37.913-17.621L483.525,255.267z"/>
<path fill="#FFFFFF" d="M800.897,195.282c-10.68-8.722-25.632-13.527-36.312-13.527c-19.223,0-32.572,16.197-32.572,35.598
	c0,18.155,11.747,35.243,34.353,35.243c8.722,0,18.155-2.136,24.741-6.23v-15.841h-33.463v-24.207h63.188v53.397
	c-15.841,11.57-37.379,18.868-55.534,18.868c-37.557,0-65.501-27.411-65.501-61.408s28.479-61.586,64.611-61.586
	c18.155,0,38.625,7.12,56.246,20.47L800.897,195.282z"/>
<path fill="#FFFFFF" d="M501.879,275.25c0-38.563,0-77.122,0-115.684c12.127,0,24.251,0,36.372,0c0,38.563,0,77.122,0,115.684
	C526.13,275.25,514.006,275.25,501.879,275.25z"/>
<path fill="#FFFFFF" d="M566.667,275.422c0-38.647,0-77.293,0-115.94c10.794,0,21.593,0,32.387,0
	c15.512,21.931,31.024,43.872,46.529,65.802c0.007-21.931,0.007-43.872,0.007-65.802c10.66,0,21.321,0,31.981,0
	c-0.019,38.647-0.039,77.293-0.058,115.934c-11.524,0-23.051,0-34.574,0c-14.321-19.925-28.652-39.857-42.979-59.783
	c0,19.925,0,39.857,0,59.789C588.861,275.422,577.766,275.422,566.667,275.422z"/>
<path fill="#FFFFFF" d="M179.959,239.095c5.41-5.053,12.838-8.801,16.242-15.148c3.404-6.351,5.037-15.077,4.18-22.947
	c-0.857-7.876-4.472-17.767-9.324-24.306c-4.852-6.533-11.345-12.03-19.792-14.921c-8.447-2.888-16.17-2.417-30.891-2.417
	c0,0-21.37,0-42.729,0c0,38.894,0,77.78,0,116.667c10.158,0.019,20.312,0.032,30.472,0.045c0-11.65,0-23.3,0-34.954
	c6.562,0,13.121,0,19.679,0c7.139,11.433,14.269,22.872,21.402,34.302c12.182,0,24.371,0,36.554,0
	C197.152,263.314,188.552,251.203,179.959,239.095z M158.311,215.422c-8.288,0-19.299,0-30.307,0
	c0.01-8.759,0.016-17.514,0.016-26.273c10.726,0,21.444,0,29.892,0c7.204,0,13.094,5.929,13.208,13.133
	C171.233,209.428,165.457,215.422,158.311,215.422z"/>
<path fill="#FFFFFF" d="M305.373,159.261c-12.121,0-24.252,0-36.372,0c-16.748,38.683-33.497,77.362-50.239,116.041
	c12.361,0,24.722,0,37.086,0c2.346-6.484,4.692-12.971,7.036-19.464c15.694,0,31.378,0,47.062,0
	c2.2,6.565,4.394,13.133,6.588,19.692c12.254,0,24.511,0,36.765,0C337.321,236.775,321.352,198.015,305.373,159.261z
	 M269.818,233.319c5.581-14.967,11.163-29.934,16.745-44.894c5.484,14.96,10.969,29.927,16.456,44.894
	C291.947,233.319,280.881,233.319,269.818,233.319z"/>
</svg>
