<?xml version="1.0" encoding="utf-8"?>
<!-- Generator: Adobe Illustrator 22.0.1, SVG Export Plug-In . SVG Version: 6.00 Build 0)  -->
<svg version="1.1" id="Layer_1" xmlns="http://www.w3.org/2000/svg" xmlns:xlink="http://www.w3.org/1999/xlink" x="0px" y="0px"
	 viewBox="0 0 748.5433 103.6296" enable-background="new 0 0 748.5433 103.6296" xml:space="preserve">
<path d="M113.9926,0c0,5.5803,0,11.1605,0,16.7277c-19.0343,15.195-38.032,30.3607-57.0833,45.5692
	c-8.6161-6.8889-17.1453-13.7082-25.7879-20.6183c0,13.773,0,27.374,0,41.0761c-0.6589,0.5719-1.321,1.188-2.0258,1.7507
	c-2.2507,1.7972-4.5156,3.5766-6.7781,5.359c-2.6029,2.0507-5.2195,4.0841-7.8099,6.1502
	c-1.8237,1.4546-3.6053,2.9619-5.4222,4.4251c-0.9815,0.7904-2.0085,1.5241-2.9917,2.3124c-0.3034,0.2433-0.53,0.5823-0.7917,0.8775
	c-1.7673,0-3.5347,0-5.302,0C0,90.937,0,78.2444,0,65.5518c0.387-0.2667,0.7922-0.5106,1.158-0.8038
	c2.1262-1.7045,4.235-3.4308,6.3657-5.1296c1.8185-1.4499,3.6663-2.8631,5.4872-4.3101c1.7318-1.3761,3.4387-2.7836,5.1693-4.1614
	c1.8195-1.4486,3.6596-2.8713,5.4804-4.3182c1.7318-1.3763,3.4455-2.7754,5.1761-4.1532c1.8194-1.4486,3.6491-2.8842,5.4747-4.325
	c1.4542-1.1477,2.9137-2.2886,4.3622-3.4434c2.0997-1.6739,4.1887-3.3612,6.2878-5.0358c1.4175-1.1308,2.8468-2.2468,4.2666-3.3746
	c1.7004-1.3506,3.394-2.7098,5.0951-4.0595c1.4512-1.1514,2.9124-2.2904,4.3629-3.4426c1.6697-1.3263,3.3374-2.655,4.997-3.9938
	c1.7838-1.4389,3.5431-2.9085,5.339-4.3321c2.0996-1.6644,4.2427-3.2742,6.3385-4.9433C77.7307,3.8374,80.0694,1.9101,82.4217,0
	C92.9453,0,103.469,0,113.9926,0z M748.5433,19.5209c-17.0108,0-34.0216,0-51.1119,0c0,0.951,0,1.7337,0,2.5758
	c-0.2737-0.1041-0.468-0.1549-0.6402-0.2468c-2.7556-1.4708-5.6393-2.5766-8.7176-3.1687c-2.175-0.4184-4.3537-0.7902-6.572-0.8432
	c-2.5105-0.06-5.0183-0.0123-7.4926,0.4806c-1.7698,0.3526-3.5566,0.6542-5.2922,1.1361c-3.9794,1.105-7.7023,2.8464-10.8898,5.4611
	c-2.2054,1.8091-4.2638,3.8689-6.0635,6.0806c-1.7276,2.1231-3.0091,4.5929-4.0023,7.1898
	c-1.3918,3.6389-2.2369,7.3889-2.3412,11.275c-0.0566,2.109,0.0886,4.2279,0.2322,6.3363c0.0937,1.3744,0.2512,2.7594,0.5494,4.102
	c0.7437,3.3475,1.9065,6.5383,3.6439,9.5247c1.9528,3.3564,4.3705,6.3122,7.369,8.7561c2.5449,2.0742,5.4186,3.6228,8.4586,4.8793
	c3.3793,1.3968,6.9127,2.2012,10.5229,2.4425c2.7377,0.183,5.5087-0.0697,8.2617-0.1967c2.572-0.1187,5.0284-0.7718,7.4528-1.6478
	c5.0358-1.8195,9.199-4.8289,12.6066-8.9238c0.114-0.1371,0.1294-0.3562,0.225-0.6379c-3.0854-2.1645-6.1581-4.3199-9.0757-6.3666
	c-1.3185,1.2207-2.4343,2.3463-3.6458,3.3572c-3.3149,2.7661-7.2753,3.8101-11.4783,4.084
	c-0.9787,0.0638-1.9734-0.1657-2.9631-0.2129c-2.1077-0.1005-4.0903-0.6439-6.0625-1.394
	c-4.666-1.7746-7.9921-5.0121-10.3648-9.2876c-2.0097-3.6213-2.7074-7.6197-2.9666-11.6936
	c-0.1517-2.3845,0.1974-4.7493,0.7137-7.0764c0.9711-4.3769,2.992-8.2059,6.2149-11.3386c1.8171-1.7663,3.9269-3.1045,6.2541-4.1751
	c2.2665-1.0427,4.6332-1.54,7.0549-1.7637c2.4576-0.227,4.9227-0.0235,7.3112,0.6963c2.8596,0.8618,5.5893,1.9602,7.664,4.2484
	c0.5043,0.5563,1.0604,1.0658,1.6356,1.6398c2.2222-1.76,4.3542-3.4484,6.4349-5.0963c5.2507,0,10.4554,0,15.7892,0
	c0,18.1604,0,36.2472,0,54.3325c3.9703,0,7.8101,0,11.7795,0c0-18.1455,0-36.2323,0-54.4065c6.5886,0,13.0471,0,19.5057,0
	C748.5433,26.2689,748.5433,22.8949,748.5433,19.5209z M113.9926,103.6296c-0.017-24.8502-0.0339-49.7004-0.0536-74.5506
	c0-0.0288-0.0351-0.0658-0.0634-0.0842c-0.0323-0.021-0.0754-0.0254-0.2487-0.0779c-10.2918,8.21-20.6461,16.4698-30.9443,24.6849
	c0,9.7945,0,19.4684,0,29.2155c0.617,0.497,1.2544,1.0192,1.9011,1.5298c1.7027,1.3444,3.4188,2.6721,5.112,4.0284
	c1.7891,1.4332,3.5499,2.9016,5.3377,4.3364c1.8765,1.506,3.7704,2.9902,5.6566,4.4841c1.3916,1.1021,2.7892,2.1966,4.1727,3.3087
	c1.2838,1.0319,2.5525,2.0825,3.8278,3.1249C110.4579,103.6296,112.2253,103.6296,113.9926,103.6296z M49.2708,14.4388
	c-0.683-0.5956-1.3095-1.1804-1.9755-1.7159c-3.2002-2.5731-6.405-5.1407-9.6206-7.6945c-1.7908-1.4222-3.6115-2.8067-5.4042-4.2265
	C31.9971,0.5854,31.8021,0.2698,31.5709,0C21.0472,0,10.5235,0,0,0c0,17.9648,0,35.8538,0,53.7428
	C16.3837,40.6733,32.7674,27.6038,49.2708,14.4388z M202.5403,32.6806c0.0595,0.0116,0.1191,0.0232,0.1786,0.0348
	c0,17.0951,0,34.1903,0,51.3381c7.9789,0,15.871,0,23.7959,0c1.9754-4.9877,3.9363-9.9391,5.877-14.8391
	c9.2795,0,18.4296,0,27.5571,0c2.0363,4.9854,4.0527,9.9222,6.0677,14.8555c6.644,0,13.1848,0,19.8511,0
	c4.9677-8.3104,9.9592-16.6606,15.0088-25.1079c5.266,8.4642,10.4511,16.7985,15.5966,25.069c4.9311,0,9.7662,0,14.839,0
	c-7.8118-11.5389-15.5131-22.9148-23.1561-34.2046c1.07-1.6676,2.0238-3.157,2.9806-4.6445
	c1.8712-2.9091,3.7291-5.8269,5.6193-8.7236c3.3736-5.1701,6.769-10.3259,10.1489-15.4919
	c0.2818-0.4307,0.5157-0.8927,0.8205-1.4252c-4.5513,0-8.9267,0-13.4857,0c-4.2622,7.1548-8.5645,14.3769-12.9265,21.699
	c-4.4154-7.3159-8.7581-14.5114-13.0726-21.6601c-4.7079,0-9.311,0-14.1762,0c6.7448,10.1248,13.3823,20.0886,19.976,29.9867
	c-5.9414,9.1617-11.8122,18.2144-17.7097,27.3083C268.065,57.695,259.8466,38.6239,251.63,19.557c-3.4225,0-6.7501,0-10.1995,0
	c-8.9905,20.662-17.9885,41.3411-26.9865,62.0203c-0.0805-0.0227-0.1609-0.0454-0.2414-0.068c0-20.629,0-41.258,0-61.9375
	c-6.0978,0-12.1094,0-18.1468,0c-0.1115,0.196-0.2574,0.3876-0.3375,0.6036c-1.1321,3.0521-2.2755,6.1002-3.3763,9.1637
	c-1.9493,5.4247-3.864,10.8617-5.8068,16.2887c-2.0222,5.6488-4.0568,11.2931-6.0962,16.9357
	c-0.2922,0.8086-0.642,1.5964-1.031,2.5563c-0.2722-0.7596-0.4883-1.3748-0.7127-1.9869c-1.7683-4.823-3.5482-9.6418-5.3043-14.4692
	c-1.3539-3.7218-2.6615-7.4605-4.0202-11.1806c-2.0583-5.6358-4.1414-11.2626-6.2205-16.8909
	c-0.133-0.3602-0.3227-0.6995-0.4613-0.9958c-6.0771,0-12.0423,0-18.0011,0c0,21.5356,0,42.9957,0,64.4522
	c3.6875,0,7.2862,0,10.9704,0c0-17.0699,0-34.0801,0-51.0902c0.0751-0.0175,0.1503-0.0349,0.2254-0.0524
	c6.3565,17.0574,12.713,34.1148,19.0679,51.1681c2.749,0,5.394,0,8.1676,0C189.6057,66.9091,196.073,49.7948,202.5403,32.6806z
	 M246.2117,33.6623c3.2767,8.6499,6.4746,17.0915,9.6819,25.5581c-6.5337,0-12.9729,0-19.5354,0
	C239.6334,50.7251,242.8707,42.3281,246.2117,33.6623z M547.7787,34.798c10.0902,16.4216,20.1804,32.8433,30.2411,49.2171
	c4.9621,0,9.8776,0,14.7774,0c0-21.523,0-42.9524,0-64.42c-3.9285,0-7.7961,0-11.7579,0c0,15.8642,0,31.6544,0,47.4447
	c-0.0638,0.02-0.1277,0.04-0.1915,0.06c-9.8385-15.8437-19.677-31.6875-29.4991-47.5049c-5.1193,0-10.2007,0-15.283,0
	c0,21.532,0,42.9898,0,64.4162c3.8722,0,7.6599,0,11.4843,0c0-16.4393,0-32.7811,0-49.123
	C547.6263,34.8582,547.7026,34.8281,547.7787,34.798z M471.9719,19.6073c0,21.5441,0,43.0017,0,64.4348c3.8549,0,7.614,0,11.4629,0
	c0-16.5046,0-32.943,0-49.3814c0.0711-0.0252,0.1422-0.0503,0.2133-0.0755c10.1325,16.4927,20.265,32.9854,30.3903,49.4664
	c4.9094,0,9.7521,0,14.6473,0c0-21.5147,0-42.9722,0-64.4505c-3.8542,0-7.6415,0-11.5245,0c0,15.946,0,31.8123,0,47.6786
	c-0.0582,0.0162-0.1164,0.0323-0.1747,0.0485c-9.8988-15.9438-19.7977-31.8877-29.6279-47.7208
	C482.016,19.6073,476.9758,19.6073,471.9719,19.6073z M399.1055,58.2437c0.5125,3.7325,1.8084,7.2067,3.608,10.5135
	c1.9802,3.6385,4.6301,6.6807,7.8017,9.3306c3.007,2.5124,6.4098,4.2471,10.064,5.5553c2.9047,1.0399,5.9203,1.7077,8.975,1.8573
	c3.1441,0.1539,6.3334,0.0993,9.4574-0.2599c2.9063-0.3342,5.7521-1.1465,8.4929-2.2979c3.8246-1.6068,7.3166-3.6941,10.2966-6.5869
	c1.0278-0.9977,2.0259-2.0433,2.9096-3.1676c0.9699-1.2339,1.911-2.52,2.6531-3.8972c1.36-2.5239,2.5821-5.1108,3.2752-7.935
	c0.5755-2.345,1.0587-4.7016,1.1107-7.1026c0.0535-2.4704-0.1413-4.9456-0.2077-7.4193c-0.0683-2.5481-0.704-5.001-1.5161-7.3706
	c-1.0592-3.091-2.5219-6.0206-4.5191-8.645c-1.7957-2.3596-3.8827-4.4424-6.247-6.216c-2.3047-1.7289-4.8424-3.0716-7.5301-4.1331
	c-3.9551-1.5622-8.0726-2.4048-12.2962-2.6068c-3.3351-0.1595-6.6583,0.0384-9.9768,0.6453
	c-3.0816,0.5636-6.0554,1.4232-8.846,2.762c-3.8632,1.8534-7.3216,4.2774-10.1705,7.5923
	c-2.644,3.0765-4.5321,6.5159-5.9256,10.2733c-1.4915,4.0217-2.028,8.1936-2.0905,12.4834
	C398.6464,53.8277,398.8036,56.0456,399.1055,58.2437z M443.4308,30.6271c2.4808,1.3367,4.673,3.0378,6.4632,5.2965
	c2.1982,2.7735,3.6727,5.86,4.5344,9.2446c0.3475,1.3652,0.4041,2.8057,0.5748,4.2142c0.1,0.8246,0.2563,1.6566,0.2292,2.48
	c-0.1666,5.0503-1.3082,9.8588-4.1794,14.0718c-2.3805,3.493-5.5847,6.0608-9.5852,7.607
	c-2.0029,0.7742-4.0405,1.1927-6.1691,1.4474c-3.418,0.4091-6.6765-0.0723-9.8696-1.228c-2.2381-0.8101-4.245-2.0012-6.1219-3.4913
	c-1.7085-1.3565-3.0466-2.992-4.222-4.7732c-1.6129-2.4441-2.6889-5.1112-3.2497-8.0124c-0.4308-2.2288-0.7902-4.459-0.6694-6.7178
	c0.1665-3.1133,0.7201-6.1618,1.8983-9.0819c1.2652-3.1357,3.1336-5.8507,5.6206-8.1131c2.7296-2.4831,5.9279-4.1414,9.5527-4.8728
	c1.6221-0.3273,3.2859-0.4479,4.9307-0.6622C436.817,28.1075,440.252,28.9143,443.4308,30.6271z M599.9336,84.0507
	c14.8514,0,29.616,0,44.4257,0c0-3.5248,0-6.9912,0-10.5882c-10.9294,0-21.7869,0-32.6451,0c0-5.9791,0-11.8271,0-17.8057
	c9.7903,0,19.5233,0,29.2565,0c0-3.3574,0-6.5831,0-9.8957c-9.7908,0-19.4949,0-29.2418,0c0-5.4027,0-10.7167,0-16.1614
	c10.3675,0,20.6627,0,30.9569,0c0-3.4088,0-6.6862,0-10.0208c-14.2612,0-28.4635,0-42.7521,0
	C599.9336,41.1276,599.9336,62.5881,599.9336,84.0507z M391.5191,69.634c-3.6377,3.7504-8.1986,5.3401-13.2934,5.5246
	c-1.5255,0.0552-3.0682-0.2622-4.5979-0.4502c-2.6535-0.326-5.0912-1.2759-7.3619-2.6631
	c-3.4007-2.0775-5.9196-4.9645-7.6087-8.5504c-1.561-3.3138-2.5048-6.8007-2.4505-10.4953c0.0304-2.072-0.0305-4.1727,0.2903-6.2067
	c0.4664-2.9566,1.5179-5.7544,3.0914-8.339c1.4904-2.4481,3.434-4.4824,5.7005-6.1863c3.1546-2.3715,6.787-3.6593,10.6821-4.0357
	c3.056-0.2953,6.0802,0.1058,9.0174,1.1083c2.8185,0.9621,5.2903,2.3948,7.1487,4.7782c0.2067,0.2651,0.5137,0.4521,0.7929,0.6914
	c3.0185-2.3937,5.9399-4.7105,8.9493-7.097c-0.9749-0.9694-1.8639-1.8542-2.7538-2.7382c-2.2049-2.1903-4.968-3.5072-7.7583-4.6832
	c-3.4605-1.4586-7.153-2.1954-10.8912-2.4122c-2.5003-0.145-5.0424-0.0343-7.5326,0.2517
	c-2.1697,0.2492-4.2995,0.8759-6.4348,1.3864c-2.9709,0.7103-5.6819,2.0426-8.267,3.6322c-3.0638,1.884-5.7944,4.1722-7.9852,7.0384
	c-0.9993,1.3073-1.9272,2.6871-2.7328,4.1209c-1.8216,3.2417-3.1928,6.6625-3.6688,10.388c-0.2299,1.7997-0.555,3.5959-0.6395,5.403
	c-0.074,1.5829,0.1671,3.178,0.1998,4.7691c0.0623,3.0271,0.7622,5.9297,1.6994,8.7771c0.7635,2.3197,1.8184,4.5108,3.0796,6.6151
	c1.7593,2.9353,4.0092,5.4658,6.5798,7.6504c2.5169,2.139,5.3832,3.7917,8.4906,5.0323c4.0364,1.6116,8.1913,2.5217,12.5292,2.6064
	c1.4048,0.0274,2.8106-0.0034,4.2159,0.0061c2.15,0.0145,4.2455-0.3891,6.3253-0.8599c2.8082-0.6358,5.4591-1.6659,7.9672-3.1149
	c3.3015-1.9073,6.1103-4.3352,8.4655-7.3772c-3.1691-2.2302-6.2712-4.4132-9.305-6.5481
	C392.735,68.396,392.1232,69.0112,391.5191,69.634z"/>
</svg>
