<?xml version="1.0" encoding="utf-8"?>
<!-- Generator: Adobe Illustrator 22.0.1, SVG Export Plug-In . SVG Version: 6.00 Build 0)  -->
<svg version="1.1" id="Layer_1" xmlns="http://www.w3.org/2000/svg" xmlns:xlink="http://www.w3.org/1999/xlink" x="0px" y="0px"
	 viewBox="0 0 116.51 26.53" enable-background="new 0 0 116.51 26.53" xml:space="preserve">
<g>
	<path d="M6.26,26.07L0,25.9V6.51c0-1.66,0.53-3.09,1.59-4.3C2.65,0.99,4,0.3,5.63,0.14C5.8,0.12,6.02,0.1,6.3,0.1
		c1.56,0,2.96,0.52,4.2,1.57c1.14,0.98,2.05,2.31,2.73,3.99l5.84,14.38L25.48,4.9c0.61-1.49,1.44-2.67,2.5-3.52
		c1.06-0.85,2.35-1.28,3.87-1.28c1.91,0,3.46,0.71,4.65,2.12c1.19,1.41,1.79,3.1,1.79,5.06V25.9h-6.27V6.93l-6.19,13.55
		c-1.07,2.36-2.05,3.91-2.92,4.67s-1.88,1.21-3.03,1.35c-0.16,0.02-0.4,0.03-0.7,0.03c-1.52,0-2.88-0.62-4.09-1.85
		c-1-1.03-1.91-2.44-2.73-4.23L6.26,7.17V26.07z"/>
	<path d="M41.82,25.9V8.5c0-1.21,0.17-2.26,0.52-3.13s0.94-1.77,1.79-2.68c0.96-1,2.08-1.68,3.36-2.03
		c0.96-0.26,2.32-0.39,4.09-0.39h25.69v6.58H48.3v2.8h28.91v6.48H48.3v9.77H41.82z"/>
	<path d="M82.88,23.59c-0.86-0.82-1.5-1.66-1.91-2.54s-0.61-1.91-0.61-3.1V0h6.75v19.15h29.4v6.75H88.37
		c-0.91,0-1.85-0.19-2.82-0.58C84.59,24.94,83.7,24.36,82.88,23.59z"/>
</g>
</svg>
