<?xml version="1.0" encoding="utf-8"?>
<!-- Generator: Adobe Illustrator 22.0.1, SVG Export Plug-In . SVG Version: 6.00 Build 0)  -->
<svg version="1.1" id="Layer_1" xmlns="http://www.w3.org/2000/svg" xmlns:xlink="http://www.w3.org/1999/xlink" x="0px" y="0px"
	 viewBox="0 0 159.92 24.36" enable-background="new 0 0 159.92 24.36" xml:space="preserve">
<g>
	<path d="M31.15,9.91l-2.33-0.07v-7.2c0-0.62,0.2-1.15,0.59-1.6c0.39-0.45,0.89-0.71,1.5-0.77c0.06-0.01,0.14-0.01,0.25-0.01
		c0.58,0,1.1,0.2,1.56,0.58c0.42,0.36,0.76,0.86,1.01,1.48l2.17,5.34l2.38-5.63c0.23-0.55,0.54-0.99,0.93-1.31
		c0.39-0.32,0.87-0.47,1.44-0.47c0.71,0,1.29,0.26,1.73,0.79c0.44,0.52,0.66,1.15,0.66,1.88v6.92h-2.33V2.79l-2.3,5.03
		c-0.4,0.88-0.76,1.45-1.09,1.74s-0.7,0.45-1.12,0.5c-0.06,0.01-0.15,0.01-0.26,0.01c-0.56,0-1.07-0.23-1.52-0.69
		C34.06,9,33.72,8.48,33.42,7.81l-2.26-4.93V9.91z"/>
	<path d="M46.68,9.84l-2.74,0.04l3.73-7.24c0.51-0.99,0.99-1.64,1.43-1.96c0.38-0.28,0.83-0.42,1.34-0.42
		c0.49,0,0.92,0.15,1.31,0.45c0.39,0.3,0.85,0.97,1.38,1.99l3.73,7.18L54.2,9.84l-1.44-2.51H48L46.68,9.84z M49.25,4.88h2.27
		L50.4,2.85L49.25,4.88z"/>
	<path d="M60.92,0.26l2.73,3.19c0.34,0.41,0.53,0.65,0.58,0.74c0.16,0.27,0.25,0.56,0.25,0.88c0,0.4-0.13,0.78-0.4,1.14
		c-0.23,0.27-0.39,0.47-0.51,0.61l-2.51,3.01h-3.2L62,5.04l-4.32-4.78H60.92z M71.09,0.26L67,5.08l4.16,4.76h-2.98l-2.69-2.83
		c-0.49-0.52-0.76-0.82-0.82-0.9c-0.24-0.33-0.36-0.69-0.36-1.08c0-0.42,0.17-0.83,0.51-1.23c0.26-0.29,0.46-0.52,0.6-0.67
		l2.52-2.87H71.09z"/>
	<path d="M74.74,0.25l1.3,7.08l1.61-5.42c0.17-0.6,0.48-1.07,0.92-1.4S79.54,0,80.17,0c0.54,0,1,0.16,1.38,0.49
		c0.38,0.33,0.65,0.76,0.82,1.31l1.61,5.39l1.37-6.94h2.44l-1.44,7.58c-0.11,0.62-0.38,1.12-0.81,1.51
		c-0.43,0.39-0.95,0.58-1.55,0.58c-0.6,0-1.11-0.18-1.55-0.53s-0.73-0.84-0.9-1.44l-1.47-5.25L78.47,7.9
		c-0.18,0.61-0.5,1.09-0.94,1.44c-0.45,0.36-0.98,0.53-1.61,0.53c-0.59,0-1.09-0.2-1.51-0.58s-0.68-0.89-0.79-1.5L72.2,0.25H74.74z"
		/>
	<path d="M92.49,0.22h10.06V2.7H91.53v1.1h11.02v2.48L91.59,6.32v1.01h10.96v2.55H92.46c-0.56,0-1.05-0.08-1.46-0.25
		s-0.79-0.46-1.12-0.86c-0.28-0.32-0.48-0.63-0.61-0.93c-0.13-0.3-0.19-0.65-0.19-1.05V3.3c0-0.48,0.08-0.89,0.23-1.25
		c0.15-0.36,0.4-0.69,0.75-1.01s0.7-0.54,1.07-0.65C91.49,0.28,91.94,0.22,92.49,0.22z"/>
	<path d="M104.47,8.98c-0.32-0.3-0.56-0.62-0.71-0.94c-0.15-0.33-0.23-0.71-0.23-1.15V0.22h2.51v7.11h10.92v2.51h-10.45
		c-0.34,0-0.69-0.07-1.05-0.21C105.11,9.48,104.78,9.27,104.47,8.98z"/>
	<path d="M118.97,8.98c-0.32-0.3-0.56-0.62-0.71-0.94c-0.15-0.33-0.23-0.71-0.23-1.15V0.22h2.51v7.11h10.92v2.51h-10.45
		c-0.34,0-0.69-0.07-1.05-0.21C119.6,9.48,119.27,9.27,118.97,8.98z"/>
</g>
<g>
	<path d="M0,24.22v-6.46c0-0.45,0.06-0.84,0.19-1.16c0.13-0.33,0.35-0.66,0.66-1c0.36-0.37,0.77-0.62,1.25-0.75
		c0.35-0.1,0.86-0.14,1.52-0.14h9.54v2.44H2.4v1.04h10.74v2.41H2.4v3.63H0z"/>
	<path d="M14.86,14.63h10.48c0.57,0,1.07,0.14,1.5,0.43c0.39,0.26,0.74,0.66,1.05,1.2c0.14,0.24,0.24,0.46,0.29,0.69
		c0.06,0.22,0.08,0.45,0.08,0.69c0,0.41-0.09,0.81-0.27,1.22c-0.06,0.13-0.15,0.29-0.27,0.47c0.14,0.18,0.24,0.34,0.31,0.47
		c0.22,0.41,0.32,0.79,0.32,1.16v3.26h-2.47v-3.59h-8.52v3.59h-2.52L14.86,14.63z M17.43,18.22h8.41v-1.18h-8.41V18.22z"/>
	<path d="M33.32,14.6h10.06v2.48H32.36v1.1h11.02v2.48l-10.96,0.03v1.01h10.96v2.55H33.29c-0.56,0-1.05-0.08-1.46-0.25
		s-0.79-0.46-1.12-0.86c-0.28-0.32-0.48-0.63-0.6-0.93s-0.19-0.65-0.19-1.05v-3.48c0-0.48,0.08-0.89,0.23-1.25s0.4-0.69,0.75-1.01
		s0.7-0.54,1.07-0.65C32.32,14.65,32.77,14.6,33.32,14.6z"/>
	<path d="M47.68,14.63v9.66h-2.69v-9.66H47.68z"/>
	<path d="M50.48,15.39c0.34-0.29,0.71-0.48,1.13-0.59c0.42-0.11,0.85-0.16,1.3-0.16h10.21v2.42H51.83v4.64h8.77v-1.07h-4.32v-2.48
		h6.79v3.06c0,0.39-0.06,0.73-0.19,1.02c-0.13,0.29-0.33,0.6-0.6,0.92c-0.36,0.41-0.78,0.69-1.27,0.84c-0.41,0.13-0.94,0.2-1.6,0.2
		h-6.46c-0.6,0-1.07-0.06-1.43-0.17c-0.43-0.14-0.83-0.39-1.2-0.77c-0.32-0.32-0.55-0.64-0.7-0.97c-0.15-0.33-0.22-0.71-0.22-1.15
		V17.3c0-0.27,0.1-0.59,0.31-0.95C49.92,15.97,50.17,15.66,50.48,15.39z"/>
	<path d="M67.33,14.63v3.51h8.8v-3.51h2.51v9.58h-2.55v-3.63h-8.66v3.63h-2.51v-9.58H67.33z"/>
	<path d="M80.35,14.63h13.64v2.43H88.4l0.01,7.15h-2.43l-0.05-7.15h-5.58V14.63z"/>
	<path d="M96.55,23.36c-0.32-0.3-0.56-0.62-0.71-0.94s-0.23-0.71-0.23-1.15V14.6h2.51v7.11h10.92v2.51H98.59
		c-0.34,0-0.69-0.07-1.05-0.21C97.19,23.86,96.85,23.64,96.55,23.36z"/>
	<path d="M113.42,14.63v9.66h-2.69v-9.66H113.42z"/>
	<path d="M115.14,16.74c0-0.48,0.12-0.89,0.37-1.24s0.6-0.63,1.06-0.84c0.17-0.08,0.33-0.13,0.49-0.17
		c0.16-0.04,0.32-0.05,0.49-0.05c0.35,0,0.7,0.08,1.03,0.24c0.33,0.16,0.66,0.39,0.97,0.7l6.54,6.43v-7.15h2.44v7.01
		c0,0.57-0.1,1.05-0.3,1.44c-0.2,0.39-0.53,0.71-0.99,0.96c-0.16,0.09-0.35,0.16-0.55,0.21c-0.2,0.05-0.39,0.08-0.56,0.08
		c-0.36,0-0.71-0.08-1.05-0.24c-0.35-0.16-0.67-0.39-0.98-0.7l-6.54-6.38v7.21l-2.43-0.04V16.74z"/>
	<path d="M133.61,14.6h10.06v2.48h-11.02v1.1h11.02v2.48l-10.96,0.03v1.01h10.96v2.55h-10.09c-0.56,0-1.05-0.08-1.46-0.25
		c-0.41-0.17-0.79-0.46-1.12-0.86c-0.28-0.32-0.48-0.63-0.6-0.93c-0.13-0.3-0.19-0.65-0.19-1.05v-3.48c0-0.48,0.08-0.89,0.23-1.25
		c0.15-0.36,0.4-0.69,0.75-1.01s0.7-0.54,1.07-0.65C132.61,14.65,133.07,14.6,133.61,14.6z"/>
	<path d="M156.66,18.22c0.88,0,1.64,0.29,2.29,0.88c0.65,0.59,0.97,1.31,0.97,2.16c0,0.84-0.32,1.54-0.96,2.11s-1.4,0.84-2.28,0.84
		l-10.88,0.04v-2.44h11.64v-1.14h-8.97c-0.88,0-1.65-0.29-2.3-0.86c-0.65-0.57-0.97-1.28-0.97-2.13c0-0.88,0.37-1.6,1.12-2.17
		c0.69-0.54,1.52-0.81,2.48-0.81l10.48-0.07v2.42l-11.45,0.01v1.16H156.66z"/>
</g>
</svg>
