<?xml version="1.0" encoding="utf-8"?>
<!-- Generator: Adobe Illustrator 22.0.1, SVG Export Plug-In . SVG Version: 6.00 Build 0)  -->
<svg version="1.1" id="Layer_1" xmlns="http://www.w3.org/2000/svg" xmlns:xlink="http://www.w3.org/1999/xlink" x="0px" y="0px"
	 viewBox="0 0 129.12 11.12" enable-background="new 0 0 129.12 11.12" xml:space="preserve">
<g>
	<path d="M0,0h3.49l1.35,5.23L6.17,0h3.49v8.59H7.49V2.04L5.81,8.59H3.85L2.17,2.04v6.55H0V0z"/>
	<path d="M15.84,6.15l2.27,0.26c-0.13,0.47-0.33,0.88-0.62,1.23s-0.65,0.61-1.09,0.81s-1.01,0.29-1.69,0.29
		c-0.66,0-1.21-0.06-1.65-0.18c-0.44-0.12-0.82-0.32-1.13-0.6c-0.32-0.28-0.56-0.6-0.74-0.97C11,6.61,10.91,6.12,10.91,5.5
		c0-0.64,0.11-1.17,0.33-1.6c0.16-0.31,0.38-0.59,0.66-0.84c0.28-0.25,0.56-0.43,0.86-0.55c0.46-0.19,1.06-0.29,1.79-0.29
		c1.02,0,1.79,0.18,2.32,0.54s0.91,0.89,1.12,1.59l-2.24,0.3c-0.07-0.27-0.2-0.47-0.38-0.6s-0.43-0.2-0.75-0.2
		c-0.39,0-0.71,0.14-0.96,0.42C13.41,4.57,13.28,5,13.28,5.57c0,0.51,0.12,0.9,0.36,1.16c0.24,0.26,0.55,0.4,0.93,0.4
		c0.31,0,0.58-0.08,0.79-0.24S15.73,6.48,15.84,6.15z"/>
	<path d="M19.39,0h3.94c0.78,0,1.41,0.11,1.88,0.32s0.87,0.51,1.19,0.91s0.54,0.85,0.68,1.38s0.21,1.08,0.21,1.66
		c0,0.92-0.1,1.63-0.31,2.14s-0.5,0.93-0.87,1.27s-0.77,0.57-1.2,0.68c-0.58,0.16-1.11,0.23-1.58,0.23h-3.94V0z M22.05,1.95v4.69
		h0.65c0.55,0,0.95-0.06,1.18-0.18s0.42-0.34,0.55-0.64s0.2-0.8,0.2-1.49c0-0.91-0.15-1.53-0.45-1.87s-0.79-0.5-1.48-0.5H22.05z"/>
	<path d="M35.44,6.07h-4.78c0.04,0.38,0.15,0.67,0.31,0.86c0.23,0.27,0.53,0.4,0.9,0.4c0.23,0,0.46-0.06,0.67-0.18
		c0.13-0.07,0.27-0.21,0.42-0.39l2.35,0.22c-0.36,0.63-0.79,1.07-1.3,1.34s-1.24,0.41-2.19,0.41c-0.82,0-1.47-0.12-1.95-0.35
		s-0.86-0.6-1.17-1.11s-0.47-1.1-0.47-1.78c0-0.97,0.31-1.76,0.93-2.36s1.48-0.9,2.58-0.9c0.89,0,1.59,0.13,2.11,0.4
		s0.91,0.66,1.18,1.17s0.4,1.18,0.4,2V6.07z M33.02,4.93c-0.05-0.46-0.17-0.79-0.37-0.99s-0.47-0.3-0.79-0.3
		c-0.38,0-0.68,0.15-0.91,0.45c-0.14,0.19-0.24,0.47-0.28,0.84H33.02z"/>
	<path d="M36.56,2.37h2.23v1.02c0.21-0.44,0.44-0.75,0.67-0.91s0.51-0.25,0.85-0.25c0.35,0,0.74,0.11,1.15,0.33l-0.74,1.7
		c-0.28-0.12-0.5-0.18-0.67-0.18c-0.31,0-0.55,0.13-0.73,0.39c-0.25,0.36-0.37,1.04-0.37,2.04v2.09h-2.4V2.37z"/>
	<path d="M42.48,2.37h2.23v0.91c0.32-0.38,0.64-0.65,0.97-0.81s0.72-0.24,1.18-0.24c0.5,0,0.89,0.09,1.18,0.26s0.53,0.44,0.71,0.79
		c0.37-0.41,0.72-0.68,1.02-0.83s0.69-0.22,1.14-0.22c0.67,0,1.19,0.2,1.56,0.59c0.38,0.4,0.56,1.02,0.56,1.86v3.91h-2.39V5.04
		c0-0.28-0.05-0.49-0.16-0.63c-0.16-0.21-0.36-0.32-0.6-0.32c-0.28,0-0.51,0.1-0.68,0.3s-0.26,0.53-0.26,0.98v3.21h-2.39V5.16
		c0-0.27-0.02-0.46-0.05-0.56c-0.05-0.16-0.14-0.28-0.26-0.38s-0.27-0.14-0.44-0.14c-0.27,0-0.5,0.1-0.68,0.31s-0.26,0.55-0.26,1.02
		v3.18h-2.39V2.37z"/>
	<path d="M54.17,5.5c0-0.95,0.32-1.73,0.96-2.35s1.51-0.92,2.6-0.92c1.25,0,2.19,0.36,2.82,1.08c0.51,0.58,0.77,1.3,0.77,2.15
		c0,0.96-0.32,1.74-0.95,2.35s-1.51,0.92-2.63,0.92c-1,0-1.81-0.25-2.43-0.76C54.55,7.34,54.17,6.52,54.17,5.5z M56.56,5.49
		c0,0.55,0.11,0.96,0.34,1.23s0.51,0.4,0.85,0.4c0.34,0,0.63-0.13,0.85-0.39s0.33-0.68,0.33-1.26c0-0.54-0.11-0.94-0.33-1.2
		s-0.5-0.4-0.83-0.4c-0.35,0-0.63,0.13-0.86,0.4S56.56,4.94,56.56,5.49z"/>
	<path d="M65.34,0v2.37h1.31v1.75h-1.31v2.2c0,0.27,0.03,0.44,0.08,0.53c0.08,0.13,0.21,0.2,0.41,0.2c0.18,0,0.42-0.05,0.74-0.15
		l0.18,1.65c-0.59,0.13-1.14,0.19-1.65,0.19c-0.59,0-1.03-0.08-1.31-0.23c-0.28-0.15-0.49-0.38-0.62-0.69
		C63.02,7.5,62.95,7,62.95,6.3V4.11h-0.88V2.37h0.88V1.22L65.34,0z"/>
	<path d="M70.67,0v2.37h1.31v1.75h-1.31v2.2c0,0.27,0.03,0.44,0.08,0.53c0.08,0.13,0.21,0.2,0.41,0.2c0.18,0,0.42-0.05,0.74-0.15
		l0.18,1.65c-0.59,0.13-1.14,0.19-1.65,0.19c-0.59,0-1.03-0.08-1.31-0.23c-0.28-0.15-0.49-0.38-0.62-0.69
		C68.35,7.5,68.28,7,68.28,6.3V4.11H67.4V2.37h0.88V1.22L70.67,0z"/>
	<path d="M77.29,0h6.56v1.85h-3.9v1.5h3.33v1.73h-3.33v3.51h-2.67V0z"/>
	<path d="M85.3,0h2.39v8.59H85.3V0z"/>
	<path d="M88.92,5.5c0-0.95,0.32-1.73,0.96-2.35s1.51-0.92,2.6-0.92c1.25,0,2.19,0.36,2.82,1.08c0.51,0.58,0.77,1.3,0.77,2.15
		c0,0.96-0.32,1.74-0.95,2.35s-1.51,0.92-2.63,0.92c-1,0-1.81-0.25-2.43-0.76C89.3,7.34,88.92,6.52,88.92,5.5z M91.31,5.49
		c0,0.55,0.11,0.96,0.34,1.23s0.51,0.4,0.85,0.4c0.34,0,0.63-0.13,0.85-0.39s0.33-0.68,0.33-1.26c0-0.54-0.11-0.94-0.33-1.2
		s-0.5-0.4-0.83-0.4c-0.35,0-0.63,0.13-0.86,0.4S91.31,4.94,91.31,5.49z"/>
	<path d="M96.93,5.5c0-0.95,0.32-1.73,0.96-2.35s1.51-0.92,2.6-0.92c1.25,0,2.19,0.36,2.82,1.08c0.51,0.58,0.77,1.3,0.77,2.15
		c0,0.96-0.32,1.74-0.95,2.35s-1.51,0.92-2.63,0.92c-1,0-1.81-0.25-2.43-0.76C97.31,7.34,96.93,6.52,96.93,5.5z M99.32,5.49
		c0,0.55,0.11,0.96,0.34,1.23s0.51,0.4,0.85,0.4c0.34,0,0.63-0.13,0.85-0.39s0.33-0.68,0.33-1.26c0-0.54-0.11-0.94-0.33-1.2
		s-0.5-0.4-0.83-0.4c-0.35,0-0.63,0.13-0.86,0.4S99.32,4.94,99.32,5.49z"/>
	<path d="M105.25,2.37h2.23v1.02c0.21-0.44,0.44-0.75,0.67-0.91s0.51-0.25,0.85-0.25c0.35,0,0.74,0.11,1.15,0.33l-0.74,1.7
		c-0.28-0.12-0.5-0.18-0.67-0.18c-0.31,0-0.55,0.13-0.73,0.39c-0.25,0.36-0.37,1.04-0.37,2.04v2.09h-2.4V2.37z"/>
	<path d="M110.64,0h2.38v1.62h-2.38V0z M110.64,2.37h2.38v6.22h-2.38V2.37z"/>
	<path d="M114.55,2.37h2.22v1.01c0.33-0.41,0.67-0.71,1.01-0.89s0.75-0.27,1.24-0.27c0.66,0,1.18,0.2,1.55,0.59s0.56,1,0.56,1.82
		v3.96h-2.4V5.17c0-0.39-0.07-0.67-0.22-0.83s-0.35-0.24-0.61-0.24c-0.29,0-0.52,0.11-0.7,0.33s-0.27,0.61-0.27,1.18v2.99h-2.38
		V2.37z"/>
	<path d="M126.88,2.37h2.23v5.88l0.01,0.28c0,0.39-0.08,0.76-0.25,1.12s-0.39,0.64-0.66,0.86s-0.63,0.38-1.05,0.47
		s-0.91,0.15-1.46,0.15c-1.25,0-2.11-0.19-2.58-0.56s-0.7-0.88-0.7-1.51c0-0.08,0-0.18,0.01-0.32l2.31,0.26
		c0.06,0.21,0.15,0.36,0.27,0.45c0.18,0.12,0.4,0.18,0.66,0.18c0.34,0,0.6-0.09,0.77-0.28s0.25-0.5,0.25-0.96V7.44
		c-0.23,0.28-0.47,0.48-0.7,0.6c-0.37,0.2-0.76,0.29-1.19,0.29c-0.83,0-1.5-0.36-2.02-1.09c-0.36-0.52-0.54-1.2-0.54-2.04
		c0-0.97,0.23-1.71,0.7-2.21s1.08-0.76,1.84-0.76c0.48,0,0.88,0.08,1.2,0.25s0.61,0.44,0.88,0.81V2.37z M124.64,5.38
		c0,0.45,0.1,0.78,0.29,1s0.44,0.33,0.76,0.33c0.3,0,0.55-0.11,0.75-0.34s0.3-0.56,0.3-1.02s-0.11-0.8-0.32-1.04
		s-0.47-0.36-0.77-0.36s-0.55,0.11-0.73,0.33S124.64,4.87,124.64,5.38z"/>
</g>
</svg>
