<?xml version="1.0" encoding="utf-8"?>
<!-- Generator: Adobe Illustrator 22.0.1, SVG Export Plug-In . SVG Version: 6.00 Build 0)  -->
<svg version="1.1" id="Layer_1" xmlns="http://www.w3.org/2000/svg" xmlns:xlink="http://www.w3.org/1999/xlink" x="0px" y="0px"
	 viewBox="0 0 237 73.0003" enable-background="new 0 0 237 73.0003" xml:space="preserve">
<path fill="#993399" d="M3.228,0h8.987l4.519,17.025c0.645,2.446,0.893,3.425,1.192,5.185c0.348-1.76,0.695-3.328,1.24-5.332
	L23.834,0h9.087L36,34h-6.853l-1.29-18.15c-0.15-2.152-0.298-3.619-0.298-5.43c-0.398,1.956-0.647,2.934-1.242,4.99L20.856,34
	h-6.108L9.832,16.143c-0.447-1.663-1.39-5.92-1.39-5.92c0,2.008-0.1,3.915-0.25,6.018L7.003,34H0L3.228,0z M40,0h19.555
	l-0.889,5.576H46.914v7.878h9.827v5.576h-9.728v9.1H60V34H40V0z M62.806,0H88l-1.157,5.676h-8.347V34h-7.14V5.676H62L62.806,0z
	 M92.722,20.292h6.368c0,0-1.076-3.562-1.778-6.83c-0.329-1.56-1.312-6-1.312-6s-0.937,4-1.545,6.537
	C93.847,16.438,93.425,18.049,92.722,20.292z M92.675,0h7.07L110,34h-7.023l-2.295-8.048H91.13L88.836,34H82L92.675,0z M116.228,0
	h8.987l4.519,17.025c0.645,2.446,0.893,3.425,1.192,5.185c0.348-1.76,0.695-3.328,1.24-5.332L136.834,0h9.087L149,34h-6.852
	l-1.291-18.15c-0.15-2.152-0.298-3.619-0.298-5.43c-0.398,1.956-0.646,2.934-1.242,4.99L133.856,34h-6.108l-4.916-17.857
	c-0.446-1.663-1.39-5.92-1.39-5.92c0,2.008-0.1,3.915-0.249,6.018L120.003,34H113L116.228,0z M160.723,20.292h6.368
	c0,0-1.077-3.562-1.778-6.83c-0.329-1.56-1.312-6-1.312-6s-0.937,4-1.545,6.537C161.847,16.438,161.426,18.049,160.723,20.292z
	 M160.675,0h7.072L178,34h-7.023l-2.294-8.048h-9.553L156.835,34H150L160.675,0z M189.12,5.52l-0.052,9.183h2.425
	c3.095,0,4.436-0.292,5.417-1.124c0.875-0.781,1.392-2.002,1.392-3.418c0-2.102-0.877-3.52-2.58-4.153
	c-0.825-0.292-2.321-0.488-4.075-0.488L189.12,5.52L189.12,5.52z M182,0l13.361,0.048c6.346,0,10.524,4.006,10.524,9.965
	c0,5.083-3.56,9.283-7.996,9.38c0.722,0.538,1.03,0.831,1.497,1.416C201.448,23.251,208,34,208,34h-8.511
	c-1.1509-1.8367-2.269-3.6936-3.354-5.57c-3.56-6.105-4.694-7.717-5.931-8.304c-0.362-0.146-0.569-0.244-1.136-0.293V34H182V0z
	 M210,0h7.175v15.749L227.113,0h8.631l-11.14,15.751L237,34h-9.235l-10.59-18.251V34H210V0z M105.605,59
	c-27.673-5.281-45.813-13.948-61.283-15.623C14.541,40.154,1,58.645,1,58.645s22.007-6.478,43.322-0.887
	c13.345,3.499,41.214,14.548,61.596,15.205C136.174,73.939,148,55.45,148,55.45S133.296,64.284,105.605,59z"/>
<path fill="#868686" d="M82,37.87v1.657h2.634V47.8h2.2v-8.272h2.573l0.357-1.657L82,37.87z M92.663,37.213
	c0.093,0.4,0.14,1.086,0.14,1.786v1.457c0,0.228-0.032,0.529-0.032,0.614c0.542-0.472,1.441-0.786,2.247-0.786
	c1.007,0,1.813,0.4,2.061,1.044c0.155,0.413,0.201,0.656,0.201,1.357V47.8h-2.03v-4.915c0-0.729-0.217-1-0.805-1
	c-0.512,0-1.178,0.286-1.643,0.67V47.8h-2.108v-8.46c0-0.685-0.061-1.371-0.154-1.671l2.123-0.457V37.213z M103.263,43.342v-0.086
	c0-0.543-0.062-0.828-0.248-1.1c-0.201-0.285-0.496-0.428-0.914-0.428c-0.79,0-1.24,0.571-1.24,1.585v0.029H103.263z
	 M105.323,46.985c-0.913,0.686-1.874,1.015-2.99,1.015c-2.278,0-3.75-1.486-3.75-3.786c0-1.315,0.295-2.187,0.992-2.9
	c0.65-0.672,1.441-0.987,2.495-0.987c0.914,0,1.782,0.286,2.293,0.772c0.728,0.686,1.054,1.671,1.054,3.2v0.443h-4.587v0.057
	c0,1.129,0.605,1.772,1.674,1.772c0.712,0,1.38-0.243,2.014-0.73l0.806,1.144H105.323z M114.655,37.87l1.41,4.972
	c0.201,0.714,0.278,1.057,0.372,1.571c0.093-0.514,0.216-1.028,0.387-1.614l1.457-4.93h2.758l0.96,9.93h-2.123l-0.402-5.3
	c-0.047-0.5511-0.073-1.1039-0.078-1.657c-0.124,0.571-0.217,0.928-0.403,1.529L117.29,47.8h-1.844l-1.534-5.215
	c-0.1693-0.5796-0.3141-1.1662-0.434-1.758c0,0.586-0.031,1.172-0.078,1.786l-0.372,5.187h-2.153l1.007-9.93h2.774H114.655z
	 M127.642,44.6c-1.44,0-1.936,0.242-1.936,1.114c0,0.571,0.386,0.957,0.913,0.957c0.388,0,0.775-0.186,1.085-0.5l0.032-1.572h-0.094
	V44.6z M124.946,40.756c0.775-0.3,1.44-0.429,2.17-0.429c1.332,0,2.246,0.457,2.556,1.272c0.109,0.3,0.155,0.528,0.14,1.314
	l-0.047,2.458v0.128c0,0.786,0.14,1.086,0.744,1.5l-1.1,1.172c-0.48-0.186-0.915-0.514-1.116-0.886
	c-0.1494,0.1413-0.3099,0.2704-0.48,0.386c-0.387,0.257-0.945,0.4-1.596,0.4c-1.767,0-2.727-0.828-2.727-2.286
	c0-1.714,1.286-2.515,3.812-2.515c0.155,0,0.294,0,0.464,0.015v-0.3c0-0.815-0.17-1.086-0.93-1.086c-0.666,0-1.44,0.3-2.293,0.828
	l-0.884-1.371C124.069,41.1175,124.4998,40.9167,124.946,40.756z M135.267,41.799h-1.332v3.671c0,0.93,0.185,1.172,0.899,1.172
	c0.185,0,0.371-0.042,0.743-0.143l0.264,1.143c-0.5381,0.2135-1.1111,0.325-1.69,0.329c-1.054,0-1.89-0.429-2.138-1.071
	c-0.124-0.314-0.14-0.457-0.14-1.13V41.8h-0.79v-1.314h0.79c0-0.715,0-1.187,0.079-1.73l2.107-0.485
	c-0.0821,0.7355-0.1235,1.4749-0.124,2.215h1.86l-0.528,1.314V41.799z M141.312,43.342v-0.086c0-0.543-0.062-0.828-0.248-1.1
	c-0.2-0.285-0.495-0.428-0.914-0.428c-0.79,0-1.24,0.571-1.24,1.585v0.029H141.312L141.312,43.342z M143.373,46.985
	c-0.914,0.686-1.875,1.015-2.99,1.015c-2.279,0-3.75-1.486-3.75-3.786c0-1.315,0.294-2.187,0.99-2.9
	c0.651-0.672,1.442-0.987,2.496-0.987c0.914,0,1.782,0.286,2.293,0.772c0.728,0.686,1.054,1.671,1.054,3.2v0.443h-4.587v0.057
	c0,1.129,0.605,1.772,1.674,1.772c0.712,0,1.38-0.243,2.015-0.73L143.373,46.985L143.373,46.985z M146.319,40.313
	c0.185,0.3,0.293,0.629,0.324,1.043c0.295-0.371,0.791-0.772,1.178-0.93c0.17-0.07,0.45-0.113,0.682-0.113
	c0.31,0,0.45,0.029,0.775,0.157l-0.573,1.686c-0.1864-0.0978-0.3945-0.147-0.605-0.143c-0.465,0-0.883,0.2-1.27,0.614V47.8h-2.077
	v-4.886c0-0.986-0.124-1.728-0.294-2.143l1.86-0.457V40.313z M152.3,40.313v7.486h-2.076v-7.186L152.3,40.313z M152.549,38.47
	c0,0.657-0.574,1.186-1.287,1.186c-0.697,0-1.27-0.529-1.27-1.186c0-0.658,0.588-1.186,1.301-1.186
	C151.99,37.284,152.549,37.812,152.549,38.47L152.549,38.47z M157.957,44.6c-1.44,0-1.936,0.242-1.936,1.114
	c0,0.571,0.386,0.957,0.914,0.957c0.387,0,0.774-0.186,1.084-0.5l0.031-1.572h-0.093V44.6z M155.261,40.756
	c0.775-0.3,1.44-0.429,2.17-0.429c1.332,0,2.246,0.457,2.556,1.272c0.109,0.3,0.155,0.528,0.14,1.314l-0.047,2.458v0.128
	c0,0.786,0.14,1.086,0.744,1.5l-1.1,1.172c-0.48-0.186-0.915-0.514-1.116-0.886c-0.1493,0.1414-0.3098,0.2705-0.48,0.386
	c-0.388,0.257-0.946,0.4-1.596,0.4c-1.767,0-2.728-0.828-2.728-2.286c0-1.714,1.286-2.515,3.813-2.515c0.154,0,0.294,0,0.464,0.015
	v-0.3c0-0.815-0.17-1.086-0.93-1.086c-0.666,0-1.44,0.3-2.293,0.828l-0.883-1.371C154.3847,41.1176,154.8151,40.9168,155.261,40.756
	L155.261,40.756z M164.157,44.827c0,1.258,0.015,1.43,0.14,1.63c0.077,0.128,0.247,0.2,0.418,0.2c0.077,0,0.124,0,0.233-0.029
	l0.356,1.143c-0.356,0.129-0.79,0.2-1.24,0.2c-0.884,0-1.596-0.385-1.844-1c-0.155-0.372-0.186-0.6-0.186-1.643V39.87
	c0-0.957-0.03-1.543-0.109-2.2l2.123-0.443c0.078,0.4,0.11,0.871,0.11,1.9L164.157,44.827z M171.58,42.256
	c-0.79-0.371-1.364-0.528-1.952-0.528c-0.605,0-1.008,0.286-1.008,0.714c0,0.371,0.264,0.571,0.992,0.743l0.96,0.228
	c0.977,0.229,1.302,0.5,1.582,0.83c0.293,0.342,0.434,0.756,0.434,1.242c0,1.514-1.364,2.543-3.395,2.543
	c-0.976,0-2.045-0.286-3.207-0.843l0.743-1.4c0.636,0.357,1.736,0.829,2.635,0.829c0.589,0,1.054-0.357,1.054-0.829
	c0-0.5-0.388-0.757-1.225-0.9l-0.93-0.157c-0.526-0.086-1.177-0.429-1.455-0.743c-0.28-0.314-0.45-0.843-0.45-1.315
	c0-1.429,1.224-2.386,3.069-2.386c1.27,0,2.107,0.358,2.835,0.686L171.58,42.256L171.58,42.256z M184.211,39.798
	c-0.543-0.37-1.116-0.556-1.72-0.556c-0.728,0-1.44,0.328-1.829,0.857c-0.418,0.571-0.604,1.4-0.604,2.557
	c0,1.357,0.124,2.114,0.45,2.658c0.433,0.728,1.146,1.114,2.076,1.114c0.635,0,1.209-0.171,1.844-0.643l0.991,1.258
	c-0.852,0.642-1.766,0.928-2.99,0.928c-1.488,0-2.635-0.443-3.518-1.372c-0.868-0.9-1.301-2.1-1.301-3.557
	c0-1.243,0.232-2.229,0.728-3.086c0.836-1.443,2.386-2.3,4.122-2.3c1.07,0,2.139,0.314,2.727,0.786L184.211,39.798L184.211,39.798z
	 M188.396,42.499c-0.1439,0.3846-0.217,0.9-0.217,1.629c0,0.843,0.094,1.471,0.263,1.843c0.186,0.4,0.651,0.6,1.055,0.6
	c0.898,0,1.286-0.743,1.286-2.472c0-0.986-0.14-1.628-0.419-1.957c-0.201-0.243-0.526-0.386-0.9-0.386
	C188.969,41.756,188.567,42.042,188.396,42.499z M192.13,41.442c0.6316,0.6891,0.915,1.486,0.915,2.672
	c0,1.257-0.31,2.114-0.992,2.829c-0.604,0.628-1.395,1.014-2.619,1.014c-2.153,0-3.564-1.486-3.564-3.786s1.426-3.83,3.564-3.83
	C190.565,40.341,191.449,40.699,192.13,41.442z M195.913,40.356c0.139,0.2,0.202,0.371,0.28,0.743
	c0.5293-0.4818,1.2203-0.747,1.936-0.743c0.65,0,1.193,0.2,1.61,0.6c0.11,0.1,0.218,0.228,0.311,0.357
	c0.729-0.686,1.38-0.957,2.247-0.957c0.62,0,1.209,0.171,1.565,0.457c0.45,0.357,0.589,0.786,0.589,1.786v5.2h-2.014V42.97
	c0-0.87-0.108-1.043-0.651-1.043c-0.387,0-0.93,0.243-1.38,0.615V47.8h-1.967v-4.758c0-0.914-0.14-1.129-0.713-1.129
	c-0.388,0-0.915,0.186-1.364,0.557v5.33h-2.03v-5.1c0-1.058-0.077-1.516-0.294-1.873L195.913,40.356L195.913,40.356z
	 M209.226,46.442c1.023,0,1.425-0.642,1.425-2.314c0-0.7-0.061-1.258-0.2-1.615c-0.156-0.4-0.481-0.614-0.993-0.614
	c-0.511,0-1.006,0.2-1.38,0.557v3.558C208.358,46.228,208.807,46.442,209.226,46.442z M207.784,40.342
	c0.078,0.256,0.125,0.457,0.14,0.685c0.356-0.4,1.147-0.686,1.952-0.686c0.558,0,1.132,0.172,1.566,0.444
	c0.851,0.528,1.472,1.47,1.472,3.157c0,1.572-0.279,2.372-1.1,3.186c-0.543,0.529-1.255,0.829-2.123,0.829
	c-0.62,0-1.208-0.143-1.658-0.386c0.03,0.171,0.03,0.386,0.03,0.6v2.286l-1.998,0.486v-8.458c0-0.958-0.016-1.23-0.124-1.843
	L207.784,40.342L207.784,40.342z M217.812,44.6c-1.441,0-1.937,0.242-1.937,1.114c0,0.571,0.387,0.957,0.914,0.957
	c0.388,0,0.775-0.186,1.085-0.5l0.031-1.572h-0.093L217.812,44.6z M215.116,40.756c0.774-0.3,1.44-0.429,2.17-0.429
	c1.331,0,2.246,0.457,2.556,1.272c0.109,0.3,0.155,0.528,0.14,1.314l-0.047,2.458v0.128c0,0.786,0.14,1.086,0.744,1.5l-1.1,1.172
	c-0.481-0.186-0.915-0.514-1.116-0.886c-0.1493,0.1414-0.3098,0.2705-0.48,0.386c-0.388,0.257-0.945,0.4-1.597,0.4
	c-1.766,0-2.727-0.828-2.727-2.286c0-1.714,1.286-2.515,3.812-2.515c0.155,0,0.294,0,0.465,0.015v-0.3
	c0-0.815-0.17-1.086-0.93-1.086c-0.666,0-1.441,0.3-2.293,0.828l-0.884-1.371C214.239,41.1175,214.6698,40.9167,215.116,40.756z
	 M223.19,40.299c0.186,0.3,0.294,0.614,0.294,0.914c0.31-0.2,0.574-0.371,0.915-0.543c0.418-0.2,0.96-0.314,1.426-0.314
	c0.882,0,1.657,0.428,1.905,1.057c0.109,0.272,0.155,0.586,0.155,1.043V47.8h-2.045v-4.758c0-0.829-0.155-1.072-0.697-1.072
	c-0.419,0-0.961,0.258-1.442,0.658V47.8h-2.076v-5.301c0-0.629-0.093-1.229-0.28-1.715L223.19,40.299L223.19,40.299z M230.66,40.37
	l1.38,4.272c0.139,0.443,0.418,1.514,0.418,1.514s0.155-0.814,0.247-1.17c0.063-0.244,0.186-0.673,0.311-1.015l1.193-3.487h2.185
	l-2.883,7.43c-0.542,1.414-0.945,2.029-1.518,2.414c-0.527,0.358-1.209,0.586-1.921,0.672l-0.713-1.257
	c0.45-0.115,0.976-0.286,1.287-0.486c0.2315-0.1619,0.4308-0.3653,0.588-0.6c0.2-0.3,0.263-0.429,0.45-0.857h-0.527
	c-0.248-0.686-0.667-1.83-0.744-2.058l-1.875-5.144l2.123-0.228L230.66,40.37z"/>
</svg>
