<?xml version="1.0" encoding="utf-8"?>
<!-- Generator: Adobe Illustrator 22.0.1, SVG Export Plug-In . SVG Version: 6.00 Build 0)  -->
<svg version="1.1" id="Layer_1" xmlns="http://www.w3.org/2000/svg" xmlns:xlink="http://www.w3.org/1999/xlink" x="0px" y="0px"
	 viewBox="0 0 77.54 15.361" enable-background="new 0 0 77.54 15.361" xml:space="preserve">
<polygon points="20.661,0 20.149,0 0.511,0 0,0 0,0.512 0,14.84 0,15.352 0.511,15.352 5.092,15.352 5.604,15.352 5.604,14.84 
	5.604,5.813 7.55,5.813 7.55,14.84 7.55,15.352 8.062,15.352 12.642,15.352 13.154,15.352 13.154,14.84 13.154,5.813 15.056,5.813 
	15.056,14.84 15.056,15.352 15.568,15.352 20.149,15.352 20.661,15.352 20.661,14.84 20.661,0.512 "/>
<polygon fill="#FFDD00" points="20.149,0.512 20.149,14.84 15.568,14.84 15.568,5.301 12.642,5.301 12.642,14.84 8.062,14.84 
	8.062,5.301 5.092,5.301 5.092,14.84 0.511,14.84 0.511,0.512 "/>
<polygon points="60.332,0 59.82,0 40.183,0 39.671,0 39.671,0.512 39.671,14.84 39.671,15.352 40.183,15.352 44.763,15.352 
	45.275,15.352 45.275,14.84 45.275,5.813 47.221,5.813 47.221,14.84 47.221,15.352 47.733,15.352 52.313,15.352 52.825,15.352 
	52.825,14.84 52.825,5.813 54.728,5.813 54.728,14.84 54.728,15.352 55.24,15.352 59.82,15.352 60.332,15.352 60.332,14.84 
	60.332,0.512 "/>
<polygon fill="#FFDD00" points="59.82,0.512 59.82,14.84 55.24,14.84 55.24,5.301 52.313,5.301 52.313,14.84 47.733,14.84 
	47.733,5.301 44.763,5.301 44.763,14.84 40.183,14.84 40.183,0.512 "/>
<path d="M37.357,0H22.975h-0.512v0.512V14.84v0.512h0.512h14.382h0.512V14.84V0.512V0H37.357z M32.009,9.546h-3.686V5.86h3.686
	V9.546z"/>
<path fill="#FFDD00" d="M22.975,0.512V14.84h14.382V0.512H22.975z M32.521,10.058h-4.71v-4.71h4.71V10.058z"/>
<path d="M77.028,0.009H62.646h-0.512v0.512v14.328v0.512h0.512h14.382h0.512v-0.512V0.521V0.009H77.028z M71.68,9.555h-3.686V5.869
	h3.686V9.555z"/>
<path fill="#FFDD00" d="M62.646,0.521v14.328h14.382V0.521H62.646z M72.192,10.067h-4.71v-4.71h4.71V10.067z"/>
</svg>
