<?xml version="1.0" encoding="utf-8"?>
<!-- Generator: Adobe Illustrator 22.0.1, SVG Export Plug-In . SVG Version: 6.00 Build 0)  -->
<svg version="1.1" id="Layer_1" xmlns="http://www.w3.org/2000/svg" xmlns:xlink="http://www.w3.org/1999/xlink" x="0px" y="0px"
	 viewBox="0 0 225.665 15.9365" enable-background="new 0 0 225.665 15.9365" xml:space="preserve">
<path fill="#EFA225" d="M9.0742,0.3032l4.7954,15.3296h-3.8633l-0.9321-3.1558H4.1104l-0.9658,3.1558H0L4.9077,0.3032H9.0742z
	 M4.9751,9.6582h3.2568L6.6035,4.2676L4.9751,9.6582z M27.189,0.3032v9.5459c0,1.6396-0.1836,2.8003-0.5503,3.4814
	c-0.9136,1.6841-2.7515,2.5269-5.5142,2.5269c-2.1489,0-3.751-0.5088-4.8066-1.5273c-0.4941-0.4717-0.8462-1.0518-1.0557-1.7407
	s-0.3145-1.6021-0.3145-2.7402V0.3032h3.897v9.5459c0,0.6216,0.0317,1.0913,0.0957,1.4097
	c0.0635,0.3179,0.1777,0.5933,0.3423,0.8252c0.4116,0.5615,1.1343,0.8423,2.1675,0.8423c1.0708,0,1.8193-0.2769,2.2461-0.8311
	c0.1646-0.2173,0.2769-0.481,0.3369-0.7915c0.0601-0.311,0.0898-0.7959,0.0898-1.4546V0.3032H27.189z M40.6318,3.6724l-3.0547,1.022
	c-0.2695-0.6812-0.5991-1.1528-0.9883-1.415s-0.9507-0.3931-1.6846-0.3931c-1.3853,0-2.0776,0.4565-2.0776,1.3701
	c0,0.4341,0.1611,0.7676,0.4829,0.9995s0.8945,0.4307,1.7183,0.5952c1.1606,0.2397,2.0254,0.4512,2.5942,0.6343
	c0.5688,0.1836,1.0518,0.4102,1.4487,0.6797c1.3179,0.8984,1.9766,2.104,1.9766,3.6162c0,1.168-0.397,2.2163-1.1904,3.1445
	c-1.0854,1.2881-2.7891,1.9316-5.1099,1.9316c-1.7969,0-3.2642-0.4424-4.4023-1.3252c-0.4868-0.3667-0.8608-0.7598-1.123-1.1792
	s-0.5015-0.9995-0.7188-1.7407l3.3242-0.7524c0.2095,0.7339,0.5674,1.2729,1.0723,1.6172c0.5059,0.3442,1.1924,0.5166,2.061,0.5166
	c0.7788,0,1.3701-0.146,1.7744-0.438c0.4419-0.3145,0.6626-0.7075,0.6626-1.1792c0-0.4644-0.1855-0.8159-0.5557-1.0557
	c-0.3711-0.2397-1.0767-0.4644-2.1172-0.6738c-1.5874-0.3296-2.7739-0.73-3.5601-1.2017c-1.2427-0.7412-1.8643-1.9092-1.8643-3.5039
	c0-1.4302,0.5205-2.6055,1.561-3.5264c1.0107-0.8911,2.3545-1.3364,4.0317-1.3364c1.6548,0,2.9985,0.3892,4.0317,1.168
	c0.4043,0.2993,0.73,0.625,0.9771,0.9771S40.3921,3.0586,40.6318,3.6724z M53.9849,3.6724l-3.0547,1.022
	c-0.2695-0.6812-0.5991-1.1528-0.9883-1.415s-0.9507-0.3931-1.6846-0.3931c-1.3853,0-2.0776,0.4565-2.0776,1.3701
	c0,0.4341,0.1611,0.7676,0.4829,0.9995s0.8945,0.4307,1.7183,0.5952c1.1606,0.2397,2.0254,0.4512,2.5942,0.6343
	c0.5688,0.1836,1.0518,0.4102,1.4487,0.6797c1.3179,0.8984,1.9766,2.104,1.9766,3.6162c0,1.168-0.397,2.2163-1.1904,3.1445
	c-1.0854,1.2881-2.7891,1.9316-5.1099,1.9316c-1.7969,0-3.2642-0.4424-4.4023-1.3252c-0.4868-0.3667-0.8608-0.7598-1.123-1.1792
	s-0.5015-0.9995-0.7188-1.7407l3.3242-0.7524c0.2095,0.7339,0.5674,1.2729,1.0723,1.6172c0.5059,0.3442,1.1924,0.5166,2.061,0.5166
	c0.7788,0,1.3701-0.146,1.7744-0.438c0.4419-0.3145,0.6626-0.7075,0.6626-1.1792c0-0.4644-0.1855-0.8159-0.5557-1.0557
	c-0.3711-0.2397-1.0767-0.4644-2.1172-0.6738c-1.5874-0.3296-2.7739-0.73-3.5601-1.2017c-1.2427-0.7412-1.8643-1.9092-1.8643-3.5039
	c0-1.4302,0.5205-2.6055,1.561-3.5264c1.0107-0.8911,2.3545-1.3364,4.0317-1.3364c1.6548,0,2.9985,0.3892,4.0317,1.168
	c0.4043,0.2993,0.73,0.625,0.9771,0.9771S53.7451,3.0586,53.9849,3.6724z M60.3301,0.3032v15.3296h-3.5825V0.3032H60.3301z
	 M74.3682,3.2344h-7.311v3.1333h5.75v2.8862h-5.75v3.3467h7.311v3.0322H63.4072V0.3032h10.9609V3.2344z M82.2632,0.3032h7.1426
	c0.9058,0,1.6343,0.0728,2.1841,0.2192c0.5508,0.1455,1.0542,0.4023,1.5107,0.769c0.9434,0.7563,1.415,1.748,1.415,2.9761
	c0,1.6846-0.9248,2.8149-2.7739,3.3916c0.8311,0.2095,1.4824,0.5239,1.9541,0.9434c0.8311,0.7485,1.2466,1.6885,1.2466,2.8188
	c0,1.2354-0.4717,2.2534-1.415,3.0542c-0.4717,0.3975-1.0371,0.6895-1.6958,0.877c-0.6587,0.1865-1.4673,0.2803-2.4258,0.2803
	h-7.1426V0.3032z M85.8457,3.021v3.3467h2.7178c0.771,0,1.3101-0.1162,1.6172-0.3481c0.4341-0.3218,0.6514-0.7788,0.6514-1.3701
	c0-0.5015-0.1758-0.9097-0.5278-1.2241c-0.2021-0.1724-0.4194-0.2827-0.6514-0.3315c-0.2319-0.0483-0.6851-0.0728-1.3589-0.0728
	H85.8457z M85.8457,9.0967v3.6948h2.7515c0.8462,0,1.4375-0.1084,1.7744-0.3257c0.2397-0.1572,0.4341-0.3779,0.584-0.6626
	s0.2246-0.5801,0.2246-0.8872c0-0.5767-0.2095-1.0239-0.6289-1.3418c-0.4194-0.3184-1.0146-0.4775-1.7856-0.4775H85.8457z
	 M103.062,0.0786c2.0664,0,3.6499,0.7412,4.7505,2.2236c1.1606,1.5796,1.7407,3.5039,1.7407,5.7725
	c0,1.3926-0.2769,2.729-0.8311,4.0093c-1.0854,2.5156-3.0098,3.7734-5.7725,3.7734c-2.0215,0-3.5938-0.7334-4.7168-2.2012
	c-1.1831-1.5498-1.7744-3.4629-1.7744-5.7388c0-2.2686,0.5728-4.1367,1.7183-5.604C99.3149,0.8535,100.9434,0.1084,103.062,0.0786z
	 M103.0508,3.0098c-1.0181,0-1.7368,0.438-2.1563,1.314c-0.4492,0.9282-0.6738,2.1377-0.6738,3.6274
	c0,3.3169,0.9434,4.9751,2.8301,4.9751c0.9883,0,1.6885-0.4307,2.1001-1.2915c0.4268-0.8911,0.6401-2.1113,0.6401-3.6611
	c0-1.6021-0.2246-2.8413-0.6738-3.7173C104.6978,3.4404,104.0093,3.0249,103.0508,3.0098z M115.5054,9.5571v6.0757h-3.6162V0.3032
	h6.7383c0.9883,0,1.7837,0.0786,2.3862,0.2358c0.603,0.1572,1.1401,0.4268,1.6118,0.8086s0.8535,0.8833,1.1455,1.5049
	c0.3071,0.6514,0.4604,1.3291,0.4604,2.0327c0,1.1753-0.3818,2.1714-1.1455,2.9873c-0.3218,0.3521-0.8271,0.6812-1.5161,0.9883
	l2.8301,6.772h-3.9644l-2.3584-6.0757H115.5054z M115.5054,3.0322v3.9082h2.2012c0.6064,0,1.0239-0.0186,1.2524-0.0562
	c0.228-0.0376,0.4507-0.1235,0.668-0.2583c0.2622-0.1646,0.4775-0.4043,0.6455-0.7188c0.1689-0.3145,0.2529-0.6362,0.2529-0.9658
	c0-0.644-0.2432-1.1494-0.73-1.5161c-0.2173-0.1724-0.4531-0.2808-0.7075-0.3257s-0.7412-0.0674-1.46-0.0674H115.5054z
	 M138.8086,0.3032v15.3296h-3.0659l-6.0195-10.3545c0.0151,0.2695,0.0264,0.4453,0.0337,0.5278
	c0.0225,0.3442,0.0337,0.5615,0.0337,0.6514v9.1753h-2.7852V0.3032h3.8745l5.2222,9.0405c-0.0449-0.4194-0.0674-0.7598-0.0674-1.022
	V0.3032H138.8086z M162.2129,7.2661c-0.2173,0.9209-0.5278,1.7744-0.9321,2.5605s-0.9248,1.561-1.561,2.3247
	c0.4868,0.4717,1.0107,0.7075,1.5723,0.7075c0.1797,0,0.4868-0.0225,0.9209-0.0674v2.729
	c-0.5688,0.1426-1.0781,0.2129-1.5273,0.2129c-0.7339,0-1.3418-0.1064-1.8252-0.3193c-0.4824-0.2139-0.9824-0.5967-1.499-1.1514
	c-0.8237,0.6289-1.5854,1.0645-2.2852,1.3086c-0.7002,0.2432-1.5405,0.3652-2.5215,0.3652c-1.7671,0-3.1484-0.4199-4.144-1.2578
	c-0.479-0.3975-0.8687-0.8989-1.168-1.5054c-0.3369-0.6812-0.5054-1.3701-0.5054-2.0664c0-1.3179,0.5127-2.3921,1.5386-3.2231
	c0.5391-0.4268,1.2915-0.8311,2.2573-1.2129c-0.5767-0.7563-0.9546-1.3311-1.1343-1.7236
	c-0.1797-0.3936-0.2695-0.8442-0.2695-1.3535c0-1.168,0.4868-2.0776,1.46-2.729C151.4502,0.2881,152.5361,0,153.8462,0
	c1.228,0,2.2461,0.2808,3.0547,0.8423c1.0034,0.6963,1.5049,1.6846,1.5049,2.9648c0,0.8687-0.2246,1.5928-0.6738,2.1733
	c-0.4492,0.5801-1.1831,1.0908-2.2012,1.5327l2.145,2.3472c0.6289-0.644,1.082-1.6548,1.3589-3.0322L162.2129,7.2661z
	 M152.375,8.7036c-0.5317,0.2095-0.917,0.4155-1.1567,0.6177c-0.4341,0.3818-0.6514,0.8911-0.6514,1.5273
	c0,0.7188,0.2769,1.2988,0.8311,1.7407c0.4268,0.3369,0.9473,0.5054,1.561,0.5054c0.876,0,1.7256-0.3032,2.5493-0.9097
	L152.375,8.7036z M153.981,5.6377c1.0933-0.4419,1.6396-1.0371,1.6396-1.7856c0-0.4492-0.1553-0.8159-0.4663-1.1006
	c-0.3105-0.2847-0.709-0.4268-1.1958-0.4268c-0.4268,0-0.7749,0.1069-1.0444,0.3198c-0.2695,0.2139-0.4043,0.4927-0.4043,0.8369
	c0,0.4268,0.2769,0.9248,0.8311,1.4937L153.981,5.6377z M169.8833,0.3032h7.1426c0.9058,0,1.6343,0.0728,2.1841,0.2192
	c0.5508,0.1455,1.0542,0.4023,1.5107,0.769c0.9434,0.7563,1.415,1.748,1.415,2.9761c0,1.6846-0.9248,2.8149-2.7739,3.3916
	c0.8311,0.2095,1.4824,0.5239,1.9541,0.9434c0.8311,0.7485,1.2466,1.6885,1.2466,2.8188c0,1.2354-0.4717,2.2534-1.415,3.0542
	c-0.4717,0.3975-1.0371,0.6895-1.6958,0.877c-0.6587,0.1865-1.4673,0.2803-2.4258,0.2803h-7.1426V0.3032z M173.4658,3.021v3.3467
	h2.7178c0.771,0,1.3101-0.1162,1.6172-0.3481c0.4341-0.3218,0.6514-0.7788,0.6514-1.3701c0-0.5015-0.1758-0.9097-0.5278-1.2241
	c-0.2021-0.1724-0.4194-0.2827-0.6514-0.3315c-0.2319-0.0483-0.6851-0.0728-1.3589-0.0728H173.4658z M173.4658,9.0967v3.6948h2.7515
	c0.8462,0,1.4375-0.1084,1.7744-0.3257c0.2397-0.1572,0.4341-0.3779,0.584-0.6626s0.2246-0.5801,0.2246-0.8872
	c0-0.5767-0.2095-1.0239-0.6289-1.3418c-0.4194-0.3184-1.0146-0.4775-1.7856-0.4775H173.4658z M188.481,9.5571v6.0757h-3.6162
	V0.3032h6.7383c0.9883,0,1.7837,0.0786,2.3862,0.2358c0.603,0.1572,1.1401,0.4268,1.6118,0.8086s0.8535,0.8833,1.1455,1.5049
	c0.3071,0.6514,0.4604,1.3291,0.4604,2.0327c0,1.1753-0.3818,2.1714-1.1455,2.9873c-0.3218,0.3521-0.8271,0.6812-1.5161,0.9883
	l2.8301,6.772h-3.9644l-2.3584-6.0757H188.481z M188.481,3.0322v3.9082h2.2012c0.6064,0,1.0239-0.0186,1.2524-0.0562
	c0.228-0.0376,0.4507-0.1235,0.668-0.2583c0.2622-0.1646,0.4775-0.4043,0.6455-0.7188c0.1689-0.3145,0.2529-0.6362,0.2529-0.9658
	c0-0.644-0.2432-1.1494-0.73-1.5161c-0.2173-0.1724-0.4531-0.2808-0.7075-0.3257s-0.7412-0.0674-1.46-0.0674H188.481z
	 M210.9419,3.2344h-7.311v3.1333h5.75v2.8862h-5.75v3.3467h7.311v3.0322H199.981V0.3032h10.9609V3.2344z M213.0869,0.3032h4.6831
	c2.0063,0,3.5078,0.3105,4.5034,0.9321c1.1978,0.7485,2.0962,1.812,2.6953,3.1895c0.4644,1.0557,0.6963,2.2197,0.6963,3.4927
	c0,2.186-0.6362,4.0093-1.9092,5.4692c-1.3027,1.4971-3.0996,2.2461-5.3906,2.2461h-5.2783V0.3032z M216.6133,3.1221v9.6245h1.4824
	c1.2056,0,2.1265-0.4155,2.7627-1.2466c0.7412-0.981,1.1118-2.1899,1.1118-3.6274c0-1.3999-0.3633-2.5757-1.0894-3.5264
	c-0.6289-0.8159-1.5459-1.2241-2.7515-1.2241H216.6133z"/>
</svg>
