<svg xmlns="http://www.w3.org/2000/svg" viewBox="0 0 310.6542 30.1135"><path fill-rule="evenodd" clip-rule="evenodd" fill="#010101" d="M236.5554 29.9218c-2.7918-.1658-6.4976.3699-10.1623-.2729-5.084-.892-7.1038-2.9311-7.3965-8.0906-.2459-4.3221-.2408-8.6798.0011-13.0031.2791-4.9898 2.2792-7.4517 7.1686-7.9406 7.7929-.7799 15.663-.8881 23.4536.088 4.4873.5616 6.8811 3.5367 6.6916 8.0404-.1584 3.7724.2222 7.5143.1179 11.2776-.1855 6.6899-2.8515 9.5922-9.5696 9.8787-3.1323.133-6.2754.0225-10.3044.0225zm-97.3318-17.565c4.2619-.0982 5.6772-1.5913 5.6947-5.9941.0181-4.3594-1.5027-6.1006-5.5988-6.1305a1509.2033 1509.2033 0 0 0-22.4279.0017c-3.8575.0299-5.4961 1.5738-5.548 5.3264-.0879 6.3674-.0845 12.737 0 19.1044.0463 3.4352 1.6714 5.1787 5.1066 5.23 7.9361.1178 15.8761.1178 23.8111-.0084 3.2113-.0513 4.6628-1.7362 4.828-4.868.3395-6.4147-.7206-7.5233-7.2712-7.6237-.3395-.0051-.6773-.088-1.0173-.1343v-4.9012c.9764 0 1.6999.0147 2.4228-.0023zm-111.6829.0011c4.6523-.0643 6.1331-1.5557 6.113-6.1553-.0189-4.4017-1.5461-5.9569-6.0296-5.9772C20.3323.1927 13.0407.1899 5.7491.2277 1.6784.2491.0547 1.8799.0271 5.9573-.013 11.9565-.0042 17.9556.0246 23.9554c.0208 4.3515 1.6499 5.9569 6.0719 5.9743 6.8297.0282 13.66.0091 20.4901.0079 6.17-.0011 7.7833-1.7333 7.2626-7.794-.2749-3.2051-1.6951-4.5336-4.9628-4.753-1.1486-.0767-2.3666.3643-3.3241-.2408v-4.7907c.8773 0 1.4277.0068 1.9784-.0012zm46.9514-3.4098C71.119 6.542 67.7836 4.0824 64.4065 1.6808 61.5002-.3864 58.2658-.3689 55.2163.9821c-2.6762 1.1853-2.2307 3.9551-2.2335 6.3397-.0057 5.7144-.0333 11.4288.0096 17.1426.0271 3.6427 1.5681 5.2498 5.137 5.4584 1.1937.0699 2.4044.0914 3.5919-.0237 3.3088-.3214 4.714-1.836 4.8528-5.1877.0631-1.5219.0107-3.0494.0107-4.934 1.0167.649 1.6392 1.0049 2.2177 1.4221 3.4346 2.4783 6.8185 5.0298 10.3005 7.4399 2.7331 1.8918 5.843 1.801 8.7216.6389 2.7185-1.0973 2.4202-3.818 2.4134-6.2348-.0181-5.8988.0327-11.7976-.0214-17.6958-.031-3.336-1.5687-4.9103-4.8533-5.1127-1.2851-.0789-2.5865-.0947-3.8682.0135-3.2395.2735-4.6272 1.6776-4.8297 4.9019-.0981 1.5529-.0169 3.1177-.0169 4.8522-1.1211-.0051-1.5852-.6479-2.1564-1.0545zm109.4045 17.7686c4.131 4.2968 9.2105 3.4217 14.2347 2.8397 1.8083-.2104 2.9778-1.3945 3.3286-3.2288.3434-1.796-.2131-3.2677-1.7306-4.343-.9636-.6834-1.92-1.3759-2.8712-2.0593 2.3835-3.6714 3.1385-8.5874 2.1602-13.161-.7122-3.3281-2.635-5.5351-6.0223-6.011-8.1673-1.1481-16.3881-.4703-24.5836-.3829-2.5025.0265-4.0701 1.77-4.0932 4.378-.0609 6.9211-.1009 13.845.0265 20.7644.0497 2.688 1.7813 4.0746 4.7637 4.404 5.0766.5616 8.1098-.4635 8.9528-3.0467.1415-.4342.2177-.9039.2363-1.3606.0361-.9062.0107-1.8152.0107-3.3534 2.2019 1.775 4.0785 2.9913 5.5874 4.5606zM290.9955 6.2251c-.4145-.3637-.8785-.7014-1.1903-1.1436-3.3687-4.7778-8.2293-5.393-13.4938-4.8505-2.0846.2142-4.0537.7404-4.8223 3.0286-.7664 2.2837.4218 3.8513 2.0221 5.2943 3.4859 3.1425 6.9268 6.3352 10.4065 9.5257 0 1.9882-.0096 3.919.0017 5.8492.0265 4.453 1.5073 5.9444 5.9659 6.0059 1.1052.0152 2.2183.0722 3.3167-.0259 3.2818-.2932 4.7918-1.8304 4.9362-5.1325.0998-2.2922.0186-4.5917.0186-6.8793 3.5699-3.2406 7.0395-6.3962 10.5158-9.5437 1.545-1.3996 2.4472-3.0473 1.7333-5.1567-.7257-2.1456-2.5651-2.7596-4.5765-2.957-4.7744-.4697-9.2059.0299-12.2966 4.378-.5199.7319-1.3076 1.2744-1.9397 1.8738-.2728-.1179-.4696-.154-.5976-.2663z"/><path fill-rule="evenodd" clip-rule="evenodd" fill="#7FBC01" d="M252.0374 9.5752c-1.5304.953-3.3974.3265-4.7552 1.0488-1.0127-.6028-.4167-1.6026-1.1204-2.1541h-17.203v13.0697h17.5334v-4.5461h-8.6449c-.7314-1.2558-.4009-2.2392-.3947-3.4075h14.7275c.0829 3.0568.3524 6.1311-.2673 9.2082-.4342 2.1586-2.1806 2.7388-3.9579 2.7659-6.8179.1032-13.6415.146-20.4588.0062-3.1126-.0637-4.308-1.456-4.3672-4.5364a311.6952 311.6952 0 0 1-.0017-11.89c.0598-3.1115 1.2992-4.4823 4.3414-4.5286 6.7265-.1009 13.457-.1072 20.1836-.0073 3.3945.0502 4.2893 1.1948 4.3852 4.9712zM140.5087 7.9349c.0293-1.3483.4094-2.3655-.3135-3.2474H115.783v20.7932h24.9541c.2836-1.3252.4692-2.4738-.2515-3.8243h-19.0632v-5.3856h11.0087c.234-1.3404.4612-2.3249-.3344-3.4865h-10.5458c-.4872-1.5822-.3119-2.9395-.1376-4.8494h19.0954zM10.0191 21.6073c.0959-1.8574-.4181-3.46.4204-5.2892h10.6057c.4717-1.2281.4576-2.1879-.0163-3.5102H9.9861c.1271-1.7728-.384-3.204.5489-4.8539h18.5715c.2459-1.2704.4342-2.2454-.113-3.2305H4.5139v20.7436h24.9315c.3191-1.2574.3479-2.3249-.1167-3.8597l-19.3096-.0001zm75.692-16.8381c-.1815-.0422-.3631-.0851-.5447-.1274-1.3556-.1179-2.7156-.3062-4.2213.1923v13.9803c-6.0205-4.343-11.8624-8.4605-17.5824-12.7421-1.6758-1.2541-3.3156-1.8461-5.3349-1.4311-.746.1308-.7252.7268-.7224 1.2636.0378 6.4108.0869 12.8221.1331 19.2329 1.5112 1.0692 3.098.3795 4.9023.3699V11.2679c6.077 4.4236 11.9301 8.5834 17.6569 12.9101 1.8647 1.4086 3.6934 1.8185 6.1181 1.1712 0-4.5184.0688-9.0233-.0287-13.5242-.0512-2.3508.4924-4.7461-.376-7.0558zm88.4986 20.6956V17.977c3.1984-.5064 5.7894-.4399 8.1301 1.9093 2.131 2.1399 4.6938 3.8485 6.8309 5.5587h8.1408c-2.0852-1.4717-3.6562-2.5764-5.2232-3.6866-1.6263-1.1526-3.2491-2.3113-5.1234-3.6449 9.5584-1.1819 7.7218-1.7029 7.9507-9.6774.0688-2.3841-1.3144-3.7324-3.5231-3.7661-7.5403-.1139-15.0833-.0434-22.7848-.0434v20.8315c1.8838.2932 3.5844.2729 5.602.0067zm114.2906.1151c1.8574.0372 3.5626.296 5.4403-.2447v-9.2894c4.1299-3.7983 8.0799-7.4325 12.4055-11.4107h-6.5851c-2.8194 2.6491-5.5492 5.2153-8.8564 8.3235a55571.542 55571.542 0 0 0-6.8619-8.2941h-8.4182l12.45 11.4959c.4106 3.3059-.2187 6.3435.4258 9.4195z"/><path fill-rule="evenodd" clip-rule="evenodd" fill="#020301" d="M188.9981 13.8387c-4.7654.4088-9.5894.1375-14.6085.1455-.2825-1.977-.3068-3.7611.0496-5.8678 4.8579.0333 9.683-.2622 14.4439.1979.7556 1.9144.6417 3.5119.115 5.5244z"/></svg>