<svg xmlns="http://www.w3.org/2000/svg" viewBox="0 0 219.6 308.4"><path fill-rule="evenodd" clip-rule="evenodd" fill="#BFD849" d="M119.7 164a57 57 0 0 1 2.8-12.1h-2.7c-1.3 3.5-2.2 7-2.5 10.8-.3 3-.5 6.4-2.2 9.1a5 5 0 0 0-2 4c0 2-.8 3.6-1.6 5.3-2.2 4.2-2.5 8.3.5 12.3 2 2.5 2.3 5.5 1.8 8.7-.5 3.2-.2 6.5.2 9.8.5 4 2.1 8 1.9 12.3-.1 2-.9 3.8-.5 5.8.6 1.9.2 3.7 0 5.5.2 1.5-1 3.4 1.3 4.3 1.2-1.6.3-3.6 1-5.2 0-5.4 1.2-10.7.3-16.2-.8-5-1.6-10-1.4-15 .2-4.8-1.1-9-2.6-13.5a12 12 0 0 1 0-7.1c1.8-6.3 5-12.2 5.7-18.8z"/><path fill-rule="evenodd" clip-rule="evenodd" fill="#51B94E" d="M134.2 153.6c-.5.9-1.3 1.7-1 2.8 1.2 1 1.8-.2 2.3-.9.6-.9 1-1.9 1.8-2.7l.5-1h-2.4c-.4.7-.7 1.3-1.2 1.8z"/><path fill-rule="evenodd" clip-rule="evenodd" fill="#4EB84F" d="M133.4 156.7c2-.7 1.9-3.3 4-4-.3 1.8-1.3 3.2-2.3 4.6-1 1.7-1.5 3.6-2.4 5.3-1.7 5.5-4.2 10.6-6 16 0 .4-.2.7-.3 1-1 3-.2 6.2-.1 9.4.2 5.5-.1 11.1.1 16.7.3 6.2-1.3 12.2-1.5 18.3-.2 5.8-1.2 11.5-.6 17.3.3 1.4.6 2.8 1.1 4.2.5 1.3 1 2.6 1.7 3.7l.7 2a14.5 14.5 0 0 1-.2 9.3c-1.2 4.7-1.4 9.6-1.8 14.5-.2 2.8-.7 5.5-.8 8.3a2 2 0 0 1-.5.8c-.4 0-.7 0-.9-.3-1-2.9-.3-5.8-.5-8.7.8-6.2 1.2-12.6 2.7-18.7.5-2.4-.4-4.5-1.4-6.5a31.6 31.6 0 0 1-2.6-16.5c1.3-14.7 3-29.4 1.7-44-.6-6.8.8-12.7 3.4-18.7 1.5-3.3 2.5-6.8 3.7-10.2.6-1.5.7-3.4 2.8-3.8z"/><path fill-rule="evenodd" clip-rule="evenodd" fill="#3AB54F" d="M125 245.9a5.7 5.7 0 0 1-1-4c-.5-2.6-.4-5.3 0-8 .6-3.7.1-7.6.7-11.4 1.7-10.6 1.1-21.3 1.2-32 0-4-1.2-8 .3-12 .8-1 .5-2.9 2.3-3.3l-.1 3.4c-1.7 2.4-.9 5-.7 7.5.5 8.2.3 16.3.4 24.5 0 1.2-.3 2.3-.8 3.5-.1.4-.5.8-.5 1.2 1.6 7.7.6 15.2-1.1 22.7a24 24 0 0 0 2 8.2c1.3 3 2.6 5.9 3 9.2l-.7 1.2-2.4 13.4a3 3 0 0 1-.8 1.7c-.4.1-.7 0-.9-.2-.2-4 .6-7.8 1.4-11.6 1-3 1.2-6 0-9-.7-.4-.6-1-.6-1.7-.9-1-.7-2.4-1.7-3.3z"/><path fill-rule="evenodd" clip-rule="evenodd" fill="#DBDD46" d="M120 151.9h-.2.3z"/><path fill-rule="evenodd" clip-rule="evenodd" fill="#2CB24E" d="M127.3 214v-15.6c.1-5-.4-9.8-.5-14.8-.1-1.8 0-3.7 1.6-5l-.5 2.4c.1 1.6 1 2.7 2 3.7.3 2.6-1.9 4.6-1.5 7.5 2.3 1.9 1.6 4.3.2 6.7.9 4.3-.4 8.8 1.2 12.4a7 7 0 0 1-2.5 2.8z"/><path fill-rule="evenodd" clip-rule="evenodd" fill="#37B34E" d="M126.2 271.7h.5c1 1.2 1 2.5.6 4l-.8 13.6c-2 3.2-2.5 7.3-6 9.6-.7-.7-.6-1.5-.2-2.3 2-3.7 2.7-7.9 3.7-12 0-.2.3-.4.5-.6v-.6c.2-2.7.8-5.3.8-8 0-1.4 0-2.7.9-3.7z"/><path fill-rule="evenodd" clip-rule="evenodd" fill="#26AF4E" d="M130.6 255.4c-1.7-1.4-1.3-3.7-2-5.5-1.4-3-3-5.8-3.3-9.1-.1-1-.6-2 .4-2.8.5.4 1.6.2 1.6 1.2-.3 3.4 2.1 5.4 3.8 7.8 2.4 3.5 2.4 4.8-.5 8.4z"/><path fill-rule="evenodd" clip-rule="evenodd" fill="#D4DE47" d="M112.1 180.8v1.1c-2.8 4.3-1.5 8.1 1 11.9 1.6 2.4 2 5 1.5 8-.9 5.2-.1 10.5 1.2 15.7.8 3.4 1.1 6.7.3 10.1-.2.9 0 1.7 0 2.6-2-.7-1.3-2.3-1-3.4.5-2 .5-4 .2-6l-.4-.8c-.7-2-1.1-4-1.8-5.9-.6-3.7-.7-7.5 0-11.2.2-1 .3-2 .2-3v-1.2c-.1-3-2.4-5-3.6-7.6-1.7-3.5-.6-9 2.4-11.5.4.4.4.8 0 1.2z"/><path fill-rule="evenodd" clip-rule="evenodd" fill="#D1DA47" d="M118.2 267.8c-1.1-3.3-5.2-4.8-5.3-8.7l-.2-1.1 3.4-5.4c.7-.2 1.1.1 1.3.8 0 .6-.1 1.1-.5 1.5-1.7 2.1-1.2 4.3.1 6.2 2.3 3.2 3.5 6.7 4 10.5a4 4 0 0 1 0 2.1c-.3.7-.6 1.4-1.5 1.3-.3-1.4-.9-2.7-.7-4.2-.5-1 .3-2.2-.6-3z"/><path fill-rule="evenodd" clip-rule="evenodd" fill="#2DB14E" d="M127.3 275.6c-.8-1.2-.6-2.6-.6-4 .9-5 1.1-10.2 3.3-15 0 3.9.9 7.7-1.3 11.6-.8 1.4.1 3.7.2 5.6-.1 1-1 1.3-1.6 1.8z"/><path fill-rule="evenodd" clip-rule="evenodd" fill="#E1E246" d="M112.1 179.7c-.8 2-1.8 3.8-2.5 5.8-1 2.8.7 5 1.9 7.3.9 1.9 3 3.4 1.8 6-1.3-2.6-3-5-4.6-7.2-1.4-2-1.8-4.1-.3-6.4 1.4-2 1.4-4.7 3-6.7.6-.2.8 0 1 .5 0 .2 0 .5-.3.7z"/><path fill-rule="evenodd" clip-rule="evenodd" fill="#DEE047" d="M117.2 253.1l-1-.5c.6-2.1-.8-3.8-1.3-5.6-.8-3.1 0-6.4-1.5-9.3-.3-.9.2-1.8 1-2.5 1 0 1 .8 1 1.5.2 1 0 2 .4 3 1.6 3.7 1.5 7.7 2.4 11.6.2.7-.3 1.4-1 1.8z"/><path fill-rule="evenodd" clip-rule="evenodd" fill="#D3DE48" d="M120.5 151.7h-1.2l-.2.2h1.4v-.2zM119.1 151.9c-1.2 2.2-3 4.2-2.4 7 .6 1.5-.2 3-.2 4.4-.8 2.7-.7 5.6-1.3 8.3 0 .3 0 .6.3.8 1-.8 1.3-2 1.5-3.2 1.2-5.8 1.1-11.8 3.5-17.3H119z"/><path fill-rule="evenodd" clip-rule="evenodd" fill="#E3E547" d="M113.3 199.9c.9 1 .5 2 .3 3.1-.6 3.8-.6 7.7.2 11.5.3 2 .7 3.8 1.7 5.6.2.7.8 1.5-.6 1.7-.7-1-1-2.3-2-2.8-1-6.5-1.7-12.8.4-19.1z"/><path fill-rule="evenodd" clip-rule="evenodd" fill="#43B64F" d="M128.5 175.2c-1.3.8-1.2 2.5-2.3 3.4 1.6-5.6 4-11 6.1-16.3.8.8.9 1.7.6 2.7-.6 3.8-2.3 7.1-4.4 10.2z"/><path fill-rule="evenodd" clip-rule="evenodd" fill="#DBDF47" d="M115 221.8c.6-.4.5-1.1.5-1.7 1 2 .6 4 .3 6.1-.3 1.4-.7 2.7.3 4 1.2 1.6 0 3.3 0 5-.8 1.4.1 3-.6 4.5-1.3-1.3.2-3.2-1.1-4.5.7-1.4 1-2.7 0-4-.8-1-.7-2.1-.3-3.2.8-2 1-4.1.8-6.2z"/><path fill-rule="evenodd" clip-rule="evenodd" fill="#43B64F" d="M124.5 284a31 31 0 0 1-2.8 11c-.5 1.3-1.4 2.4-1.2 4-.7.4-.2 1.5-1 1.9-1.4-1.4-.1-3-.2-4.4 0-.8.4-1.5.8-2.1 1.2-1.7 1.6-3.7 2-5.6.5-1.7.4-3.5 1.8-4.8h.6z"/><path fill-rule="evenodd" clip-rule="evenodd" fill="#39B14E" d="M132.9 165c-.6-.8-.6-1.7-.6-2.7.7-1.8.8-4 2.8-5 .1 2.8.5 5.7-2.2 7.7z"/><path fill-rule="evenodd" clip-rule="evenodd" fill="#BFD349" d="M117.8 298.6c0-.7-.2-1.4 0-2 1.5-3.2 2.1-6.7 2.8-10.2 1 1.2.4 2.8 1 4.1.1 1-.5 2-.6 3-.6.8-1.4 1.6-1.4 2.8-.3.8 0 1.7-.6 2.4-.5.2-.8.2-1.2-.1z"/><path fill-rule="evenodd" clip-rule="evenodd" fill="#C1D849" d="M120.5 274v-2.3l.4-.2c.2 0 .4.2.6.4l.7 1.8c.4 1 .7 2.1.5 3.3-.5 2.7-.3 5.4-.2 8.1v1c-.2.2-.4.4-.7.4a1 1 0 0 1-.8-.3c0-3.4 1-6.7-.6-10 0-.8-.5-1.5.1-2.3z"/><path fill-rule="evenodd" clip-rule="evenodd" fill="#E3E246" d="M117.2 163.4c-.8 2.8-.7 5.7-1.7 8.4-.5.1-.8 0-.6-.6v-1.6c.6-1.2 0-2.5.5-3.7-.2-1.1 0-2.1.7-3 .6-.3.8.3 1 .5z"/><path fill-rule="evenodd" clip-rule="evenodd" fill="#6EB64A" d="M118.8 298.6c.2-.8-.2-1.7.6-2.3.2-.3.4-.2.6 0l-.5 4.6c-.2.7.4 1.6-.5 2.4-1.5-.3-1.2-1.4-1.1-2.4.2-.1.4 0 .6.4-.1-1-.4-2 .3-2.7z"/><path fill-rule="evenodd" clip-rule="evenodd" fill="#D4DE47" d="M114.9 171.2l.6.6v.6c-1.3.8-1.7 2-1.7 3.4-.7.4.3 1.9-1.2 1.7-1.1-1.3.1-2.7 0-4l2.3-2.3z"/><path fill-rule="evenodd" clip-rule="evenodd" fill="#F0F24C" d="M117.2 163.4l-1-.5c-.4-1.4.4-2.6.5-4 1 1.5.3 3 .5 4.5z"/><path fill-rule="evenodd" clip-rule="evenodd" fill="#F1F149" d="M112.6 173.5c1 1.3-.4 2.6.1 4l.1.4-.4.2c-1-1.1-.5-2.4-.4-3.7 0-.4 0-.8.6-.9z"/><path fill-rule="evenodd" clip-rule="evenodd" fill="#B5C44C" d="M118.8 298.6v3l-1-.7v-2.3h1z"/><path fill-rule="evenodd" clip-rule="evenodd" fill="#E8ED4A" d="M121 286.2h.6c.6 1 0 2.1.1 3.1l-.1.8-.6.6c-.9-1.4-.2-2.9-.4-4.3 0-.2.2-.2.4-.2z"/><path fill-rule="evenodd" clip-rule="evenodd" fill="#D4DE47" d="M112 174.4c.4 1.2-.3 2.6.7 3.6.3.6.5 1.2-.6 1.1l-.6-.6c.4-1.3-.3-2.8.5-4z"/><path fill-rule="evenodd" clip-rule="evenodd" fill="#D3DE48" d="M115.4 166c0 1.2.5 2.5-.4 3.6 0-1.2-.1-2.5.4-3.7z"/><path fill-rule="evenodd" clip-rule="evenodd" fill="#EFF04B" d="M120.5 274c-.2.7.7 1.5 0 2.2-.6-.3-1-.5-1-1.2l1-1z"/><path fill-rule="evenodd" clip-rule="evenodd" fill="#C1D849" d="M118.2 267.8c1.2.8.5 2 .6 3l-.6-3z"/><path fill-rule="evenodd" clip-rule="evenodd" fill="#B4D44B" d="M122 151.9l-1.5 3.3c-.3.5-.4 1.2-.5 1.9a73.8 73.8 0 0 1-5.4 21.2c-2.3 5.5-3 11 .3 16.6.9 1.5 1.5 3.4 1 5.1-.8 3.3.3 6.5.5 9.7.4 4.7 1.4 9.4 1.2 14l-.4 11h.5c1-1 .8-2.1.8-3.2 0-1.6 0-3.2.2-4.7.7-4.5.4-9 .2-13.4-.4-10.2-2.7-20.2-1.6-30.5.4-3.4 1.6-6.5 2.3-9.7-.3-2.4.9-4.6 1.3-6.9.7-4 1-8.4 2.4-12.3l.7-2.1h-2z"/><path fill-rule="evenodd" clip-rule="evenodd" fill="#C1D849" d="M115.5 239.7c.2-1.5-.6-3.1.6-4.5.2 1.5-.6 3.1.5 4.5 1 1 .6 2.3 1.2 3.4 1 4.4 2.3 8.7 1 13.4-1 3 .8 5.8 1.8 8.5.3 2.2 1.5 4.5 0 6.6-.5-5.5-4.8-9.6-5.8-14.6l2.4-3.9c.4-1.2.4-2.4 0-3.7-.7-3.2-1.1-6.5-1.7-9.7z"/><path fill-rule="evenodd" clip-rule="evenodd" fill="#B4D44B" d="M117.2 243c-1-1-.4-2.2-.6-3.3.3-1.7-.5-3.5.6-5 1.2 2.8 1.2 5.6 0 8.4z"/><path fill-rule="evenodd" clip-rule="evenodd" fill="#D3DE48" d="M112.1 179.1c.5-.2.6-.6.6-1v-.6l1.1-1.7c0 1.8-.4 3.6-1.7 5v-1.1-.6z"/><path fill-rule="evenodd" clip-rule="evenodd" fill="#76C04D" d="M127.2 170.7c2.4-6.4 4.1-13.1 8.3-18.8H133l-1.8 2.8c-3.7 7-5.6 14.8-8.7 22.1-1 2.5-1.1 5.3-1.2 8 0 5.5.2 11 .6 16.5.2 2.1-.7 4.2-.5 6.4.8 6-.6 11.8-1 17.7-.3 8.6-2.1 17.2 2.2 25.3 0 .3.2.6.4.8 1 2.4.7 4.7.3 7.1-.9 5.2-1.8 10.4-1.1 15.7.1.5.1 1.3 1 1.4.2-.2.3-.5.3-.8 0-1 .3-1.8.3-2.8 0-1.3-.2-2.7.3-4 .3-3.3.4-6.5 1.4-9.6 1-3.2.3-6.1-1-9-1.1-2.4-2-5-2.6-7.5-.5-2.5-.5-5 0-7.4.3-1 .2-2 .2-2.9 0-1.8-.2-3.6.3-5.3.4-7.7 2-15.4 1.4-23.1V197c0-3.3.1-6.5-.1-9.7-.7-2-.6-3.9-.2-5.9.4-3.8 2.2-7.2 3.6-10.8z"/><path fill-rule="evenodd" clip-rule="evenodd" fill="#6CBE4E" d="M134.7 151.9c-2.6 5-5.5 9.9-7 15.5-1.1 4.7-4.2 8.9-4.4 14a12 12 0 0 0 0 5.6v10c.5 2.1.5 4.2 0 6.2.7 8-1.4 15.7-1 23.6-.8 1.6.1 3.4-.6 5v2.8c-.5 2.5-.5 5 0 7.3 0 2.5 1 4.7 2 6.9 1.6 3.4 2.4 6.7 1.2 10.4-1 3-1.2 6-1 9-.7 1.3.2 2.8-.6 4v2.8c.2.3.4.3.6 0 .6-4.5.7-9 1.8-13.5 1.3-5.2.8-10-1.7-14.7a19.1 19.1 0 0 1-1.7-11.2c.9-7.5 1.3-15 2-22.4.7-8 .2-16.3.1-24.4 0-2.5-.6-4.9-.3-7.4.6-4.1 2.4-7.7 4-11.3 1.8-4.5 2.4-9.4 5.3-13.4.2-1.3 1.2-2 1.7-3.1l1-1.7h-1.4z"/><path fill-rule="evenodd" clip-rule="evenodd" fill="#43B64F" d="M126.2 178.6c0 8.4-.2 16.9 0 25.3.2 7.7-1 15.2-1.6 22.7-.5 5.1-.5 10.2-.7 15.3-1.2-2-.8-4.4-.4-6.5.9-4.5.1-9 .9-13.6 1.8-10.6 1.2-21.4 1.2-32 0-3.5-1.2-6.9 0-10.3l.6-1zM126.2 271.7c-1 3.8-.4 8-1.7 11.7.4-7.5.8-15 2.2-22.3 0-.4.4-.8.6-1.2-.2 4-1.3 7.8-1.1 11.8z"/><path fill-rule="evenodd" clip-rule="evenodd" fill="#6FBF4E" d="M123.4 275h.5v9c-1 3.6-.8 7.6-3.3 10.7-.4-.4-.4-.8 0-1.2l.4-2.8.1-.5c1-.9.4-2 .8-3l.4-.7c.3-2.7.3-5.3.3-8 0-1 0-2 .7-3v-.5z"/><path fill-rule="evenodd" clip-rule="evenodd" fill="#43B64F" d="M127.3 251c1.6 2.9 1.6 5.9 0 8.9.3-3 .8-6 0-9zM125 245.9c1.4.7 1.3 2.1 1.7 3.3-1.4-.7-1.3-2.1-1.7-3.3z"/><path fill-rule="evenodd" clip-rule="evenodd" fill="#DBDF47" d="M115.5 220c-1.6-1.5-1.8-3.5-1.7-5.5l1.7 5.6z"/><path fill-rule="evenodd" clip-rule="evenodd" fill="#98CA4C" d="M120.5 293.5v1.2l-.5 1.6h-.6c0-1 .3-2 1.1-2.8z"/><path fill-rule="evenodd" clip-rule="evenodd" fill="#8EC74C" d="M123.3 275.6c-.2 4 .7 8-1 11.7a387.9 387.9 0 0 0 0-1.7c-.5-3-.6-6 0-8.9-.3-1.1-.5-2.2-.6-3.4-.8-4.5-1.3-9.2-.2-13.7a15 15 0 0 0-1-9.8c-.8-1.8-2-3.6-1.8-5.8-.1-1.1.2-2.3-.4-3.5-.9-1.4-.3-2.9 0-4.3.6-1.6.2-3.2.5-4.9l.1-.9c.7-2.8 0-5.6.5-8.4.1-.4.3-.6.5-.9.4 0 .7 0 .9.4.7 3.3.2 6.7-.1 10-.9 6.7-.8 13.3 2.6 19.4 1 2.5 1 5 .5 7.6-1 5.3-1.8 10.6-1 16 0 .4.1.8.5 1z"/><path fill-rule="evenodd" clip-rule="evenodd" fill="#9ECC4C" d="M118.9 236.3c.1 1.3-1.1 2.6 0 4 .7 1-.2 2.3.5 3.3-.4 2.2 1 3.9 1.8 5.7a15 15 0 0 1 1.1 10c-1.3 4.6-.4 9.3-.6 14-.7-.4-.6-1-.6-1.6-.2-5-2.1-9.6-.9-14.6.5-1.8.3-3.7-.7-5.4-2.8-8.3-1.9-16.8-1-25.2.3-2.8-.6-5.8.7-8.6.3-.2.6-.3 1 0 .7 1 .7 2.2-.2 3.3v.6c-.8 2.9.2 6-.6 9v.5c-.7 1.6.2 3.4-.5 5z"/><path fill-rule="evenodd" clip-rule="evenodd" fill="#A9D04B" d="M120 251.5c1.2 1 1.3 2.5 1 3.8-1 5.5.1 11 .1 16.4h-.6c.4-2.3-.4-4.5-.5-6.8-1-4.5-1.6-9 0-13.4z"/><path fill-rule="evenodd" clip-rule="evenodd" fill="#DBEA4C" d="M122.2 276.7v9c-.8-3-.9-6 0-9z"/><path fill-rule="evenodd" clip-rule="evenodd" fill="#BFD349" d="M122.2 286.2v1.1c-.8.6.5 2.1-1 2.3-.1-1.2-.2-2.3.4-3.4h.6z"/><path fill-rule="evenodd" clip-rule="evenodd" fill="#8EC74C" d="M121.1 289.6c1-.5.2-1.8 1.1-2.3-.2 1 .7 2.5-1 2.9v-.6z"/><path fill-rule="evenodd" clip-rule="evenodd" fill="#AFD14B" d="M123 151.9c-.7 2.3-1.3 4.7-1.7 7.2L119 173c1 .2 1.4-.5 1.6-1.2 1.4-3.7 3.3-7.3 4.1-11.2.6-3 1.7-5.8 3.5-8.2 0-.2.2-.3.3-.5H123z"/><path fill-rule="evenodd" clip-rule="evenodd" fill="#ABD04B" d="M127.6 151.9l-.3.4a22.4 22.4 0 0 0-3.5 8.4 45 45 0 0 1-5 12.3c-.7 2.2-2 4.4-2 6.6 0 5.3-2.1 10.5-.3 15.9 1.4 3.9 0 8.2.8 12.2 1.8 8.5.5 17 .4 25.4 0 .6 0 1.2-.5 1.5v8.5l.2 1.6c.4 3.1 2.2 6 1 9.4-1.5 3.9-.4 7.4 1.6 10.8v-13.4a42.4 42.4 0 0 1-2.1-14.8c.3-4.7 1.1-9.4 1-14.2-.1-1.6 0-3.1.5-4.7 1-1 .7-2.4.8-3.7.4-9.4-.8-18.7-.6-28.1 0-4 .3-7.8 1.8-11.5.6-1.6 1.5-3.1 1.9-4.9 1.7-6 3.1-12.3 6.6-17.7h-2.3z"/><path fill-rule="evenodd" clip-rule="evenodd" fill="#87C54C" d="M132.2 151.9l-2.4 3.3c-3 6.4-5.2 13.3-7.7 20a40 40 0 0 0-1.4 13.2c.5 8.9.3 17.8.1 26.8l-.2 1c-.2 1.5 0 3 0 4.6v.4c.4 6.5-.8 13-.6 19.4 0 3.8 1 7.3 3.3 10.3.1-.8-.1-1.5-.5-2.1-1.6-3.4-2.5-7-2.3-10.8.6-8.3.9-16.5 2-24.7.3-2.8-.7-5.3-.1-8 .7-3 .2-6 0-9.1-.2-6.1-1.2-12.3.8-18.3 1.4-4.5 3.4-8.9 4.9-13.4a40.8 40.8 0 0 1 6-12.6h-2zM122.8 274.5c-1.2-3.4-.8-6.9-.4-10.2.5-4.5 2.2-8.8 1-13.4 2 2.2 1.3 4.9.9 7.2-1 5.4-1.6 10.8-1.5 16.4z"/><path fill-rule="evenodd" clip-rule="evenodd" fill="#6FBF4E" d="M121.7 234.6v7.3a10 10 0 0 1 0-7.3zM123.3 197c1 2.1 1 4.2 0 6.2v-6.1zM123.3 181.4v5.6a6.3 6.3 0 0 1 0-5.6zM122.2 226.8c-.2 1.7.6 3.5-.5 5 .2-1.6-.6-3.4.5-5zM124 268.3c-.3 1.3.4 2.7-.7 4 .3-1.4-.5-2.8.6-4z"/><path fill-rule="evenodd" clip-rule="evenodd" fill="#98CA4C" d="M120 221.2v-3.4c-.5-.8-.3-1.6-.1-2.4 0-5.8.6-11.6-.4-17.3-.1-5.4-.2-10.8 0-16.2 0-2-.5-4.5 2.2-5.5.7 1.1-.1 2.2-.4 3.2-.8 3.4 0 6.8 0 10.3.2 8.4 0 16.8 0 25.2 0 .4 0 .7-.2 1-.8 1.7.2 3.5-.6 5h-.5zM119.4 230.7c.3-3-.6-6 .6-9-.3 3 .6 6-.6 9zM118.9 236.3c.2-1.6-.6-3.4.5-5-.2 1.7.6 3.5-.5 5zM119.4 243.6c-1-1-.4-2.2-.5-3.3 1 1 .3 2.2.5 3.3z"/><path fill-rule="evenodd" clip-rule="evenodd" fill="#9ECC4C" d="M121.7 176.3c-1.6 2-1.6 4.3-1.7 6.6v15.3c.4 5.8.4 11.6 0 17.4v2.2h-.6c.5-10.2-.4-20.5-.6-30.7a40.2 40.2 0 0 1 4-18c.7-.7 0-2.5 1.8-2.1.7 1.4-.3 2.5-.8 3.6a24 24 0 0 0-1.3 3.9c-.3.6-.2 1.4-.8 1.8z"/><path fill-rule="evenodd" clip-rule="evenodd" fill="#A5CE4C" d="M129 151.9c-2.5 4.4-4 9.1-5.5 14-.3 1-.8 2-.7 3.1l1.7-2.2.3-.3c1.9-4.6 2.8-9.5 5.8-13.6l.6-1H129z"/><path fill-rule="evenodd" clip-rule="evenodd" fill="#91C84C" d="M130.8 151.9c-.4.8-.9 1.7-1.2 2.6 0 .4.1.8.5 1 1.2-1 2.2-2.2 3-3.6h-2.3z"/><path fill-rule="evenodd" clip-rule="evenodd" fill="#8EC74C" d="M121.7 176.3c0-.6-.1-1.2.5-1.6.2-.2.4-.2.6 0 .3 2-1 3.7-1.2 5.7-.7 7 .5 14 .1 21-.2 4 0 8.1 0 12.1 0 1 .3 2-.6 2.6v-18.4c0-3.5.1-6.9-.5-10.3-.6-3.7.3-7.4 1-11z"/><path fill-rule="evenodd" clip-rule="evenodd" fill="#98CA4C" d="M122.8 174.7h-.6c-.4-3 2.3-5 2.3-7.9 1.6-3.8 2.1-8 4.4-11.5.3-.4.4-1 1.2-.8v1c-2.5 6.4-4.5 13-7.3 19.2z"/><path fill-rule="evenodd" clip-rule="evenodd" fill="#8EC74C" d="M120.5 221.2c.3-1.7-.5-3.5.6-5-.2 1.6.6 3.4-.6 5z"/><path fill-rule="evenodd" clip-rule="evenodd" fill="#9ECC4C" d="M120 215.6v-17.4c1 1 .5 2 .5 3.2V213c0 .9.3 1.9-.5 2.6zM130.2 151.9c-2.9 4.5-5 9.5-5.7 15 1-.8 1-2 1.4-3 1.4-3.1 1.7-6.8 4.2-9.4l1.4-2.6h-1.3z"/></svg>