<svg xmlns="http://www.w3.org/2000/svg" viewBox="0 0 219.6 308.4"><path fill-rule="evenodd" clip-rule="evenodd" fill="#75C04E" d="M70.1 128.1c1.7 3.6 2.1 7 0 10.4-5 8.4-2.3 17.3-2.1 26 0 .7.4 1.2.6 1.8a14 14 0 0 1 .8 9.3c-2 7.1-3.6 14.3-5.2 21.5-1 4-1.5 7.9-.6 12a63.9 63.9 0 0 1 1.2 16.6c-.1 5.2-.3 10.4.3 15.6.1.3.3.6.6.8.3 0 .6-.1.8-.4.4-.7.4-1.4.4-2.2.1-6.1-.2-12.3.5-18.4.3-2.2 0-4.5-.4-6.7-1-5-2-10.2-.9-15.2 1.6-7.7 3.3-15.3 5.7-22.8.8-2.6 1.1-5.2 0-7.7-2.3-5.5-2-11.3-2.1-17-.1-4.2.5-8.1 2.6-11.8 2.5-4.4 2.5-8.9-.1-13.4-1.6-2.6-2.6-5.5-3.7-8.4-.5-1-.8-2.2-1.1-3.3h-2.6c1.4 4.6 3.2 9 5.3 13.3z"/><path fill-rule="evenodd" clip-rule="evenodd" fill="#56BA4E" d="M71.4 159c0-2.4.2-4.8 0-7.2-.5-4.5.8-8.7 3-12.5 2.2-4.1 1.8-8-.1-12l-3-6.4a5 5 0 0 0-.2-.8 12 12 0 0 1-1.4-4.2l-.3-1.1H67c1.2 4 3 7.8 4.8 11.5 2.5 5 2.7 9.3 0 14a17.9 17.9 0 0 0-2.5 10.8c.3 2.8.4 5.6.3 8.4 0 2.4.5 4.7 1.4 7 1.2 3 2 5.9.9 9-1.7 5-3 10-4.1 15.1-1.6 6.4-3.4 12.8-1.8 19.6 1.3 5.5 1.3 11 .7 16.6-.7 5.8-.2 11.7-.4 17.6-.2 4.3.5 8.7 1 13 0 .9-.2 2.1 1.4 1.8 1-2.5.6-5 .3-7.7-.6-7.6-.8-15.3 0-22.9.6-6 .9-12-.4-18-.7-3-1.3-6.1-.7-9.4a188 188 0 0 1 6.6-24.8 11 11 0 0 0-.8-9.7 12.4 12.4 0 0 1-2.2-7.6z"/><path fill-rule="evenodd" clip-rule="evenodd" fill="#70BE4D" d="M69.9 154.8c-.7-5.9.3-11 3-16 2-3.8 1.8-7.4-.2-11.2-1.8-3.2-3-6.7-4.4-10.2l-.8-2.6h-1c1.1 4.3 2.8 8.5 5.1 12.4 2.4 4 2.2 8 .2 12-4.6 9-3.5 18.3-1.2 27.7.6 2.4 1.8 4.8 1 7.4-1.8 5.6-3 11.3-4.5 17-1.9 6.7-3 13.6-1.4 20.6.7 2.8 1.3 5.6 1 8.5-.8 7.2-.5 14.4-.5 21.5-.9 1-.8 2.1-.8 3.2l.2 1.4c.6 1.6.3 3.2.4 4.9 0 .7 0 1.4.2 2 .4 1.4.5 2.7.1 4v2c.3.3.4.7.6 1 .6.8-.1 2.5 1.7 2.2.5-.8.5-1.7.3-2.6l-.5-.7c-.8-.6-.6-1.5-.5-2.3 0-3.4-.5-6.7-.7-10-.6-7.3-.6-14.5 0-21.7.3-3.8.3-7.6-.3-11.5-.7-4-2-8-1.2-12.1 1.6-8.3 3.5-16.5 6-24.6.7-2.2 1.9-4.5 1-6.8-2.2-5-2.2-10.2-2.8-15.5z"/><path fill-rule="evenodd" clip-rule="evenodd" fill="#40B54F" d="M68.4 259.9v-.6c-.3-7-.8-14-.8-20.9 0-4.7.2-9.5 1-14.1.6-4.2.3-8.2-.8-12.1-2.2-8.3 0-16.2 2.2-24 1.2-4.2 2.4-8.4 3.8-12.6 1-3.1.7-6-1-8.8-2.6-5.2-1.8-10.8-1.8-16.4 0-2-.5-4.2 1-6.1.6 0 .6.5.6 1-.5 4.6.7 9.2.5 13.8-.2 3.3 1 6.2 2.7 8.9 1.1-.2 1-1.5 1.9-1.8.9.5.4 1.2.3 1.9l-8.6 30.7a14.7 14.7 0 0 0-.5 9.8c2 7.8 1 15.4.4 23.2-.5 6.3-.3 12.7 0 19 .2 3 .7 5.9 0 8.8l-.4.4-.5-.1z"/><path fill-rule="evenodd" clip-rule="evenodd" fill="#2AB24F" d="M80.1 127.6c-3-4-5.3-8.2-6.7-12.8h-3.7l.9 2.4c2.2 5.5 4.7 10.9 7.4 16.3 2-1.9 2.3-3.8 2.1-6z"/><path fill-rule="evenodd" clip-rule="evenodd" fill="#CBDC48" d="M59.3 172.3v0zM60.6 159.8c0-1.9-.5-3.8-2-5.4-1-1-1.2-2.3-1-3.9 2.3-12.2.3-24-3.6-35.7h-3c.4 1.2.8 2.3 1 3.5 2.2 7.2 4.2 14.4 4 22.1 0 3.4.5 6.7-.6 10-.8 2.2-.2 3.9 1.3 5.5.6.6 1.4 1 1.6 2 .2 3.8-.3 7.7.6 11.6a18 18 0 0 1 .4 3.6c0 1.3 0 2.5-.2 3.7-.1-1.2.2-2.4.2-3.7v-.8c-.1-.7-.4-1.4-1-2.1 0 3.2.7 6.4-.5 9.5-.3 2-1.8 3.3-2.5 5-.4 1.2-1.5 2.3-.2 3.5 1-.1 1.4-1 1.8-1.8 1.7-2.5 2.9-5.3 3.8-8.2 1.5-6.1-.2-12.3-.1-18.4z"/><path fill-rule="evenodd" clip-rule="evenodd" fill="#DDE247" d="M56.8 140.2a82 82 0 0 0-2.4-16.4c-.8-3-1.6-6-2.6-9h-2c.7 1.7 1.2 3.3 1.7 5 1.4 2.8 2.1 5.9 2.2 9l.5 2.5c1.4 6.8 1.9 13.6.2 20.4 0 1.6.3 3 1.1 4.5l2.2 1.4v2c1.6-.3.4-1.8 1.2-2.3-1-1.8-3.2-2.7-3.4-5.3a37 37 0 0 0 1.3-11.8z"/><path fill-rule="evenodd" clip-rule="evenodd" fill="#3DB54F" d="M69 259.9c.2-7.2-.7-14.3-.7-21.5 0-7 1.5-13.9 1.2-20.9-.3-5.3-2.4-10.5-1.7-16 .2-1.2-.1-2.5 1.6-2.7 0 2.5.9 4.8 1.3 7.2.1 1.2-.7.4-1.2.6.3 5.1 2.8 10 1.4 15.3 0 3.2-.6 6.3-.8 9.4-.7 1.1 0 2.5-.4 3.6.3 5.7 0 11.3.1 17 0 1-.2 2 .2 3 .3 3.9 1.6 7.7 1.2 11.7-2 0-2.3-1.6-2.5-3-.1-1.2-.3-2.5.3-3.7z"/><path fill-rule="evenodd" clip-rule="evenodd" fill="#D8DE47" d="M57.8 179.7c1 1.1-.3 1.8-.6 2.6-.6 2-2.2 3.6-2.3 5.8.6 1.6-1.2 2.7-.9 4.3.2.6.6 1 1.2 1.5 3.7 2.7 4.5 6.4 3.6 10.7-.4 2.1-.1 4 .9 6a6.8 6.8 0 0 1 1 4.8c-1 4.1.4 7.9 1.6 11.7.4 1.4 1.1 2.8 0 4.3H62c-1.8-5-6-9.5-3.2-15.4v-1.5c-.2-2.2-2-3.5-2.6-5.5-.2-.9-.3-1.8 0-2.8.5-2.4 1.8-4.7.4-7.2l-.4-.7c-.4-.8-1-1.4-1.7-1.8l-.6-.5-2.8-2.5c-.2-.4-.5-.7-.1-1 2.3-4.3 3.6-9 6.8-12.8z"/><path fill-rule="evenodd" clip-rule="evenodd" fill="#3FB54F" d="M70.6 114.8h-1.9l.3 1.5c1 1.1.9 2.7 1.6 4 .7.6.2 2.3 2 2 .1-1.7-.9-3.2-1.4-4.8a16 16 0 0 0-.6-2.7z"/><path fill-rule="evenodd" clip-rule="evenodd" fill="#39B34E" d="M72.3 122.5l-1-5 6 13.4c.3.6.3 1.3.8 1.8 2-1.3 1-3.6 2-5.1.9 1 1 2.4.2 3.3-3.2 4.1-4.3 9.4-7.4 13.5l-.3-.4c-.5-1.7.6-3 1.3-4.3 2.5-4.4 2.2-8.6-.2-13-.7-1.2-1.8-2.5-1.4-4.2z"/><path fill-rule="evenodd" clip-rule="evenodd" fill="#D9E047" d="M58.8 216c-1.4 5.7 1.9 10.3 3.4 15.3 1.6.7 1.2 2.4 1.7 3.5.3 3 1.2 5.8 1.3 8.7-.2.8 0 1.7-1.2 1.8-.7-2.9-1.5-5.7-2.1-8.6-.9-4.8-2-9.5-4.5-13.8-1.7-2.7-.7-5 1.4-7z"/><path fill-rule="evenodd" clip-rule="evenodd" fill="#2BB04E" d="M70.6 221.8c.5-5.8-1.7-11.4-2-17 1.3-.4.9 1.6 2 1.2 1.6 3 .7 6.7 3 9.3-.7 2.4-1.4 4.5-2.4 6.4-.2.3-.4.3-.6 0z"/><path fill-rule="evenodd" clip-rule="evenodd" fill="#2EB14E" d="M73.4 146.7c2 1.1 2.4 2.7 1.9 5-.8 3-1.5 6-1.2 9.3l2.7 2.4c.3.6.8 1 .5 1.9-1.2 1.4-2.3 1-3.2-.5-.7-1.2-1-2.5-1.3-4-.4-3.7 0-7.6-.7-11.3-.2-1 0-2.3 1.3-2.8z"/><path fill-rule="evenodd" clip-rule="evenodd" fill="#2EB24E" d="M70 254.8a57.7 57.7 0 0 1-.5-20.2c.2-.2.4-.2.6 0 2.7 3.3 1.1 7 .9 10.5-.3 3.2-1.1 6.4-1 9.7z"/><path fill-rule="evenodd" clip-rule="evenodd" fill="#3AB44F" d="M73.4 146.7l-1.1 2.5c1.3 4-.2 8.4 1.2 12.4.5 1.6.6 3.8 2.9 4 1-.8.3-1.6.4-2.2 2.2 1.1 2 2.8 1.2 4.7l-.1-1.4c-1 1-.6 2.5-2 3.4-1.5-3-3.6-5.9-3.5-9.3.2-5.5-1.5-11 0-16.4 0-.2.2-.2.4 0 0 .8-.3 1.7.6 2.3z"/><path fill-rule="evenodd" clip-rule="evenodd" fill="#D0D849" d="M64 245.3c.6-.5.5-1.1.5-1.7h.7l.3.8c0 1.1 0 2.2.6 3.3v1.2c.2 1.6-.2 3.2.3 4.8.2.5.3 1 .3 1.7.3 1.1-.6 2.2 0 3.4v.5c.6.8.5 1.9.8 2.8.3 1 1.2 1.7 1 2.8-.3.6-.4 1.3-1.2 1.1-2-3.6-2.4-7.5-2.3-11.5-.6-1.5.1-3.2-.5-4.7l-.5-4.5z"/><path fill-rule="evenodd" clip-rule="evenodd" fill="#56BA4E" d="M69 259.9c0 2.5 0 5 2.2 6.7.4.8.7 1.7 1.2 2.5 2 3 2 5.8-.2 8.7-.3.2-.5 0-.7-.2-.4-.7-.4-1.4-.3-2.2.1-1.3.4-2.6.3-3.9-.2-1.1-.5-2.2-1.3-3-1.2-1.8-2.3-3.5-1.8-5.8v-2.8h.6z"/><path fill-rule="evenodd" clip-rule="evenodd" fill="#E1E447" d="M57.8 159.5c.9-.5.2-1.7 1-2.2-.4 6.7 1.4 13.4.5 20.7-.9-3 .3-5.5-1-7.8l-.6-4c0-1.4.6-3 0-4.4v-2.3z"/><path fill-rule="evenodd" clip-rule="evenodd" fill="#2DB04E" d="M70.6 221.8h.6c0 3.2 1.6 6.6-1 9.5-1.1-2-.7-4-.1-6l.5-3.5z"/><path fill-rule="evenodd" clip-rule="evenodd" fill="#E3E247" d="M51.5 119.7c.3.2 1 .3 1 .5.5 2.9 2.6 5.5 1.2 8.7-1-3-1.7-6-2.2-9.2z"/><path fill-rule="evenodd" clip-rule="evenodd" fill="#EEEC49" d="M51 192.4l.6.8c.7 1 1.6 2 2.8 2.8.9.5 1.6 1.3 2.2 2.2.4.6.4 1-.4 1.1-2.1-2.2-5.2-3.5-6.3-6.7l1-.2z"/><path fill-rule="evenodd" clip-rule="evenodd" fill="#9CCB4C" d="M68.4 262.7c.4 2 1.3 3.8 2.3 5.6.3.7.3 1.2-.7 1.2l-.5-.5c-.6-1.4-1.4-2.6-1.6-4.1l-.6-2.8c-.4-.7-.4-1.5 0-2.2 1 .6 0 2.1 1.1 2.8z"/><path fill-rule="evenodd" clip-rule="evenodd" fill="#DAE047" d="M56.2 199.3l.4-1.1c2.2 2.6.9 5.2 0 7.9-.6-.4-.1-1.3-.5-1.7.3-1.7 1-3.4 0-5.1z"/><path fill-rule="evenodd" clip-rule="evenodd" fill="#E3E548" d="M56 204.4c.7.4.6 1 .6 1.7v3.3c.3.6 0 .6-.4.6-1.4-1.9-1.2-3.7-.1-5.6z"/><path fill-rule="evenodd" clip-rule="evenodd" fill="#EBE948" d="M54.4 151.7c.9 1.1.5 3 1.8 4 .2.1-.4.4-.7.5-.8-.3-1.4-.9-1.8-1.6 0-1 0-2 .7-3z"/><path fill-rule="evenodd" clip-rule="evenodd" fill="#DAE047" d="M56.2 210l.4-.6c1 1.6 3 2.7 2.3 5-1-1.4-1.8-3-2.7-4.4z"/><path fill-rule="evenodd" clip-rule="evenodd" fill="#A3B744" d="M71.8 271.1v4.5c-.7.4.3 2-1.3 1.8-.9-2.2 1.2-4.1.6-6.3.2-.2.5-.2.7 0z"/><path fill-rule="evenodd" clip-rule="evenodd" fill="#2F8C44" d="M71.8 277.8h.4c-.3 1.3.9 2.3 1.3 3.8-1.7-.5-2-1.6-2.3-2.7-.2-.6 0-.9.6-1.1z"/><path fill-rule="evenodd" clip-rule="evenodd" fill="#F4F34B" d="M57.8 161.8c.8 1.5.8 3 0 4.5-.8-1.6-.3-3 0-4.5z"/><path fill-rule="evenodd" clip-rule="evenodd" fill="#CED747" d="M67.9 264.9c.6 1.3 1.8 2.4 1.6 4-1.1-.6-1.7-1.7-2.2-2.9.5-.2.5-.7.6-1.1z"/><path fill-rule="evenodd" clip-rule="evenodd" fill="#90C64E" d="M71.8 271.1H71l-1.1-1.6c.5-.3.6-.7.7-1.2 1.2.6 1.1 1.7 1 2.8z"/><path fill-rule="evenodd" clip-rule="evenodd" fill="#C5CD45" d="M64.5 249.8c1 1.5.4 3.1.5 4.7-.6-1.5-.5-3.1-.5-4.7z"/><path fill-rule="evenodd" clip-rule="evenodd" fill="#8BC74D" d="M71.8 277.8l-.6 1c-.9 0-.5-1-.7-1.4.8-.3.5-1.4 1.3-1.8v2.2z"/><path fill-rule="evenodd" clip-rule="evenodd" fill="#2DB04E" d="M70 234.6h-.5c.2-1-.5-2.4.6-3.3v3.3z"/><path fill-rule="evenodd" clip-rule="evenodd" fill="#8BC64C" d="M66.1 122.8c.3 1.2.9 2.4 1.6 3.5 2.8 4.4 2.7 8.6.5 13.2-1.6 3.3-3 6.8-2.7 10.5.3 2.7.5 5.4.4 8a26 26 0 0 0 1.4 9.4c1 2.7 1.4 5.5.6 8.2-1.5 5-2.4 10.2-3.8 15.2a46 46 0 0 0-1.2 22.6c.7 2.8.9 5.7.8 8.6A146.5 146.5 0 0 0 64 237c.5 1 .5 2.2.5 3.3l.4 1.2c.2.2.5.2.7 0 0-3.2-.5-6.4-.3-9.5.4-6.6.6-13.2-.3-19.7-.5-3.2-1.5-6.3-1-9.4 1-7.1 2.8-14 4.5-21 1.1-4.4 3.4-8.9 1.5-13.5a25.7 25.7 0 0 1-1.6-11c0-1 0-2-.2-3-.7-4.2-.8-8.4 1.4-12.3 3.3-5.6 3.5-11 0-16.8-2-3.2-3-6.8-4-10.4h-2c.9 2.6 2 5.2 2.5 8zM66.2 242v3.3c-.3.2-.6.2-.8 0v-1.4c-.2-.7-.5-1.4.2-2h.6z"/><path fill-rule="evenodd" clip-rule="evenodd" fill="#9CCB4C" d="M65.6 242v2.2c-.2.2-.4.2-.6 0v-.6c-.4-.7-.4-1.5 0-2.2h.6v.5z"/><path fill-rule="evenodd" clip-rule="evenodd" fill="#4EB84E" d="M72.8 144.3h-.5c-.8 1-1.1 2.2-1 3.4 0 6.1-.8 12.4 1.5 18.3.1.2 0 .5 0 .8-1.6-2-2-4.3-2.1-6.7v-5.6c-.7-6.2.7-11.8 3.7-17.2 1.8-3.4.6-6.8-1-10.1-1-2.2-2.4-4.4-2.8-7l1.7 2.3c.6 2.3 2 4.2 2.9 6.3 1.4 3.3 1.3 6.6-.3 9.9-.9 1.8-2.2 3.4-2 5.6z"/><path fill-rule="evenodd" clip-rule="evenodd" fill="#4EB84E" d="M69 116.3c1.7.8 1.2 2.6 1.6 4-1.1-1-1.2-2.6-1.6-4z"/><path fill-rule="evenodd" clip-rule="evenodd" fill="#8BC64C" d="M66.2 246.4c1 1.6.3 3.4.5 5-.3.3-.5.2-.7 0-.2-1 0-1.9-.1-2.8.1-.7-.4-1.5.3-2.2zM66.7 253.7c.9 1.3.9 2.6 0 4-.5-.7-.1-1.5-.3-2.2.1-.6-.1-1.3.3-1.8z"/><path fill-rule="evenodd" clip-rule="evenodd" fill="#9CCB4C" d="M66.7 253.7v1.7c-.2.2-.4.2-.5 0v-1.7c-.4-.7-.5-1.5 0-2.2h.5v2.2z"/><path fill-rule="evenodd" clip-rule="evenodd" fill="#B3D34A" d="M66.2 255.4h.5v3.3c-1-1-.4-2.2-.5-3.3z"/><path fill-rule="evenodd" clip-rule="evenodd" fill="#9CCB4C" d="M66.2 246.4v2.3c-.2.2-.4.2-.6 0v-1.2c-.4-.7-.4-1.5 0-2.2h.6v1.1z"/><path fill-rule="evenodd" clip-rule="evenodd" fill="#B3D34A" d="M67.3 259.9v2.2c-1-.8-.5-1.9-.6-2.8l.6.6z"/><path fill-rule="evenodd" clip-rule="evenodd" fill="#AFD14B" d="M61.1 114.8H58a62.2 62.2 0 0 1 4 20.4c0 2.5 0 5-1 7.2-3.2 6.5-.8 12.7.8 19h.9c1-.7.5-1.7.6-2.6 0-1.4.3-2.7.3-4 0-.7 0-1.4-.2-2-.4-1.1-.3-2.2-.3-3.3v-1.2c0-1 .1-1.7.4-2.5 1-2.9 1.8-5.8 3-8.5a8.3 8.3 0 0 0 0-7.7 96.3 96.3 0 0 1-5.3-14.8z"/><path fill-rule="evenodd" clip-rule="evenodd" fill="#B4D44B" d="M64 231.5c0-1-.2-1.8-.4-2.7 0-1.6-.5-3.2-.8-4.8-.6-1.5-.3-3.1-.5-4.7l-.2-.8c-.4-2-.2-4-.3-6.1 0-.6 0-1.2-.2-1.7L61 209c-.5-1.4-.1-2.9-.5-4.3-.4-1-.2-2.2-.2-3.3 0-2 .4-4.2-.5-6-2.3-4.8-1.2-9 1-13.4a27 27 0 0 0 1.4-20.8c-.8-4.2-2.3-8.4-2.2-12.7 0-1.6.2-3.3 1-4.6 1.6-2.8 1.6-5.8 1.6-8.9.1-4.8-1.1-9.4-1.7-14.4-1.7-.9-.8-3-1.5-4.5l-.6-1.3h-4.7l1 2.8a63.6 63.6 0 0 1 2.8 30c-.4 2.4-.9 5 .8 7.1 1 1.5 1.5 3.1 1.5 4.7-.1 4.3.7 8.6.7 12.9 0 2.1-.2 4.2-1 6.3-1.4 3.3-2.6 6.7-5 9.5-.5 1.6-2 2.7-2.1 4.6.2.3.4.8.8 1 4.7 2.7 5.6 6.8 4.3 11.7-.4 1.6-.2 3.2.7 4.6 1.5 2.4 1.8 5 1 7.8-.4 1.5-.1 3 .4 4.6.9 3 2.3 5.7 2.2 8.9.9 1 .2 2.4 1.2 3.4.8-1 .4-2.1.5-3.2z"/><path fill-rule="evenodd" clip-rule="evenodd" fill="#BED74A" d="M59.4 155a14.7 14.7 0 0 1-.9-8.4c.6-5.1 1.4-10.3.6-15.5-1-5.6-2.3-11-4.2-16.3h-1.7c1.6 4.5 2.6 9.2 3.6 13.9 1.2 6.3 1.3 12.7.5 19.1-.5 3.1-1.5 6.4 2.1 8.5.5 7.5 1.8 14.8.6 22.3 1-1.2 1-2.7 1.1-4.2.4-4.7-.7-9.3-.5-14 0-1.9-.3-3.7-1.2-5.4z"/><path fill-rule="evenodd" clip-rule="evenodd" fill="#DAE047" d="M54.4 196a3.4 3.4 0 0 1-2.8-2.8c1.1.7 2 1.6 2.8 2.8zM56.6 198.2c-1-.5-1.7-1.3-2.2-2.2 1.3.1 2 .9 2.2 2.2z"/><path fill-rule="evenodd" clip-rule="evenodd" fill="#B3D34A" d="M63.4 234.7v-3.4c1.2 0 .7 1 .8 1.6.2 1.3-.3 2.7.3 4 .7 1-.2 2.3.5 3.4v3.3h-.5c.1-3-1.4-5.9-1.1-9zM65.6 248.7h.5v5c-1-1.6-.3-3.4-.5-5zM65.6 245.3v2.2c-1-1-.4-2.2-.6-3.3h.6v1z"/><path fill-rule="evenodd" clip-rule="evenodd" fill="#96C94C" d="M64.4 114.8h-1.6c.5 1.8 1.2 3.6 1.9 5.4.4 1 .5 2.3 2 2.3 0-2.3-.9-4.4-1.8-6.4l-.5-1.3z"/><path fill-rule="evenodd" clip-rule="evenodd" fill="#9CCB4C" d="M66.7 122.5c-.6-.4-.8-1.2-1-1.9-.9-1.9-1.5-3.8-2.1-5.8h-1.7c1.2 4.3 2.9 8.4 4.8 12.4a13 13 0 0 1 0 12.4c-1.9 4-3 8.2-2.3 12.7.4 2.6.5 5.2.4 7.8 0 3.1.5 6.1 1.7 9 .6 1.5.7 3 .4 4.6-1.2 5.5-2.7 10.9-4 16.3-1.2 5.6-2.4 11.1-2 16.9.1 2.2 1.2 4.3.8 6.6l.1 2.5c.1 4.3 1.4 8.6 1 13 .4.7.6 1.5.6 2.3 1.4 1.6-.4 4 1 5.6v-2.2c-.1-8 .6-16-1.1-23.9-.9-4-1-8-.2-12 1.5-7.2 3-14.4 5.2-21.5 1-3 1.1-6.1 0-9-1.6-4.4-1.8-9-1.6-13.5.2-3-1.2-5.8 0-8.8 1-2.5 1.5-5 2.6-7.4 1.9-3.7 2-7.4-.2-11.1-.9-1.6-1.6-3.3-2.4-5zM65 240.3c-1-1-.4-2.3-.5-3.4 1 1 .4 2.2.5 3.4z"/><path fill-rule="evenodd" clip-rule="evenodd" fill="#AAD04B" d="M62.3 114.8h-2a96 96 0 0 0 5.8 16c.9 1.9.9 3.7-.1 5.8-1.4 3-2.7 6.1-3.2 9.5-.3.7 0 1.6-.6 2.2v1.1c.8 1-.1 2.4.6 3.4v2.2c.7 1.3 0 2.6 0 4-.6.7.3 1.5 0 2.2-.3 2-.1 3.8.5 5.7 1 3.3 1.2 6.7.2 10.2-1.5 5.4-2.5 11-3.6 16.5-.4 2.3-.9 4.8.7 7 1.6-1.3.9-3.3 1.3-4.9 1.7-7 3.2-14.1 5-21.1.5-1.7.7-3.4 0-5a23.8 23.8 0 0 1-1.9-11.1c0-1.4.3-2.7 0-4a24 24 0 0 1 2.5-16.1c1.4-3.1 2-6.2.1-9.6a60.8 60.8 0 0 1-5.3-14z"/><path fill-rule="evenodd" clip-rule="evenodd" fill="#ADD14B" d="M62.8 161.2c0 3.2 1.4 6 2 9 .7 2.8-.2 5.5-.8 8.3l-4 17.8c-.3 1.4.2 2.8.6 4.1.3.3.4.7.3 1.1-.2 1-.1 2.2-.6 3.2l-.3.2c-1-.8-.5-1.9-.5-2.9 0-3 .2-5.8-1.3-8.6-1.5-3-.8-6.4.7-9a26.9 26.9 0 0 0 3.4-19.6c-.3-1.1 0-2.4 0-3.6h.5zM62.8 155c.9 1.3.9 2.6 0 4-1-1.4.3-2.7 0-4zM62.2 149.4c1 1 .4 2.3.6 3.4-1-1-.4-2.3-.6-3.4zM62.8 146c.5 1 .2 1.7-.6 2.3.1-.8-.2-1.7.6-2.2z"/><path fill-rule="evenodd" clip-rule="evenodd" fill="#A3CE4C" d="M62.9 114.8h-1.2a90.2 90.2 0 0 0 6 15.7c.9 1.8.7 3.5 0 5.5-1.6 5-4.7 9.7-3.7 15.2.6 3.8.4 7.5.5 11.2 0 1 .1 1.8.5 2.7a17 17 0 0 1 .4 13.5c-.8 1.9-1 4.1-1.5 6.2l-3.3 15.6v1.2c-.6 1-.2 2-.3 3l.2.8c.2 1.7-.2 3.5.6 5.1v1.7c.4.3.2 1 .5 1.3.3 0 .5 0 .6-.2V210c-.8-4-.7-8 0-12 1-6.1 2.6-12.3 4-18.4 1.2-4.5 2.5-8.9 0-13.5-.8-1.6-.7-3.6-.6-5.5 0-2.2.3-4.5-.2-6.7-1.1-5.3.2-10 2.4-14.8 1.5-3.4 2.7-7 .5-10.6a59 59 0 0 1-5.4-13.7z"/><path fill-rule="evenodd" clip-rule="evenodd" fill="#AAD04B" d="M61.7 213.3h.5c1.1 3.9.1 7.9 1 11.8.3 1.2.7 2.7-.4 4l-.6-5.1c-.7-1.6.2-3.4-.5-5a12 12 0 0 1 0-5.7z"/><path fill-rule="evenodd" clip-rule="evenodd" fill="#ADD14B" d="M61.7 213.3v5.6c-1.2-2.1-.3-4.4-.6-6.7.5.3.6.7.6 1.1z"/><path fill-rule="evenodd" clip-rule="evenodd" fill="#AAD04B" d="M60.6 205c1 1.7.3 3.7.5 5.5-.4-.2-.5-.6-.5-1-.5-1.6-.5-3 0-4.6z"/><path fill-rule="evenodd" clip-rule="evenodd" fill="#ADD14B" d="M61.7 219c1.1 1.5.3 3.3.5 5-1-1.6-.3-3.4-.5-5zM60.6 205v4.4c-1.2-1.4-.4-3-.6-4.5.2-.2.4-.2.6 0z"/><path fill-rule="evenodd" clip-rule="evenodd" fill="#AAD04B" d="M60.6 205H60c.2-1.2-.5-2.5.6-3.4v3.3z"/></svg>