<svg xmlns="http://www.w3.org/2000/svg" viewBox="0 0 219.6 308.4"><path fill-rule="evenodd" clip-rule="evenodd" fill="#25B14F" d="M213.1 48.7a8.6 8.6 0 0 1-2.2 3.2c-1.7-.2-1.6-1.6-1.8-2.7-1.2-6.6-3-13-6-19-2.2-4.3-4.7-8.3-9.6-10-1.8-.7-3.8-.8-5.7-1.2-.9-.2-1.8 0-2.6-.6-.6-.7.2-1 .3-1.5 1.3-1.3 2.6-2.5 4.5-3.6.9 4.4 4.2 4.5 7.7 4.5a6 6 0 0 1 5.5 3.2c1 1.8 2.2 3.5 4.5 3.5 2.2 2.6-1.1 4.5-.4 7 1 .8 2.6.8 3.8 1.5 1.8 3.3 2.4 6.6-.7 9.4l3.2 3.4c.9 1.2-.3 2-.5 2.9z"/><path fill-rule="evenodd" clip-rule="evenodd" fill="#8FC74C" d="M153.2 35c.3-.7.8-1.2 1.5-1.6 1-.2.8 1.2 1 1.2 2.3.4 4.1.2 5.9.3 5 0 9.2-2.2 12.7-5.7 6.5-6.4 13.4-5.6 18.6 2.2 3.3 5 6 10.2 7.1 16.2 1 4.8.4 9.4-1.1 13.8-3 8.4-4.6 17-6.7 25.6-1.4 6.4-.7 13-.6 19.4 0 .7.3 1.4 0 2.2-.4.8-1 .7-1.5.2-1-1-.6-2.3-1-3.4l-.2-.9c-.7-9 1-17.6 2.9-26.2l4.4-19c2.2-9.7-1-18.2-7-25.8L188 32c-4.4-5.2-7.8-5.4-12.6-.6l-1.8 1.8c-4.1 3-8.8 4.2-13.9 4.3-2.1-.2-4.4.4-6.3-.5-.7-.7 0-1.3-.2-2z"/><path fill-rule="evenodd" clip-rule="evenodd" fill="#BED74A" d="M190.1 124c-.8-3.7-1.1-7.5-2.7-11a28.6 28.6 0 0 1-2.3-17.7 6 6 0 0 0-2-5.8c-1.3-1-2.1-2.4-3.2-3.5l-1 .7c-1.3 2.2.4 3.2 1.7 4.4 2.4 1.5 2.3 3.8 1.7 6.3l-.2.8c-.2 1.8.2 3.7-.3 5.5l-.2.8c-.4 2.2.3 4.2 1.1 6.2 1.8 3.8 4.3 7.4 4.4 11.8 0 .5.2 1 .3 1.3 1 1.5 1.1 3.1.7 4.8h2.2a20 20 0 0 0-.2-4.6z"/><path fill-rule="evenodd" clip-rule="evenodd" fill="#69BD4E" d="M195 128a9 9 0 0 1 .1-5.1l.2-1c.2-3.3.9-6.6.5-10 0-1-.4-1.8-.7-2.7a43 43 0 0 1 1-25.7c1.5-5 2-10.4 4.1-15.2.9-2.6 2-5 2.8-7.6 1.2-3.5 2.4-7 2.2-10.6a43.8 43.8 0 0 0-7.5-21.4c-5-8-15-9-20.7-5l-.3.7c1 1.8 2.5.7 3.7.3 5.4-1.7 9.8-.1 13.2 4.1 3 3.7 5.3 8 6.8 12.5 1.4 3.7 2.4 7.7 1.7 11.8-1.2 7-4 13.5-6.8 20L195 75a12 12 0 0 1-1.4 6.2c-.2.8-.4 1.5-.4 2.3-1.3 4.4-1.5 8.9-1.8 13.5-.3 5.2 0 10.2 1.7 15 1.1 2 .8 4 .4 6l-.2 1.4c0 1.2 0 2.4-.5 3.5-.2 2-.2 3.9-.1 5.8h2.5l-.2-.6z"/><path fill-rule="evenodd" clip-rule="evenodd" fill="#7BC14D" d="M176.7 24.4c1 .8 2 .2 2.9-.1 5.9-2.3 11-.8 14.6 4a38 38 0 0 1 8.8 23.1c0 3.5-1.3 6.8-2.3 10-1.1 3.4-2.7 6.6-3.6 10-.2.7-.2 1.7-1.4 1.8-.8-2.9.8-5.2 1.6-7.7 1.7-5 3.7-10 3.2-15.5a36 36 0 0 0-10.8-22.5c-3.6-3.6-9.9-3.2-13.9.8s-8.7 6.5-14.3 7.3h-6c-1.2-.8-.1-1.7-.8-2.2.4-.7.9-1 1.6-1.2 1-.4 1 1 1.7 1.1 5-.3 9.7-1.6 13.6-5 2-1 4-1.7 5-3.9z"/><path fill-rule="evenodd" clip-rule="evenodd" fill="#3BB54F" d="M178.1 21c.2-.6 0-1.3.7-1.7 3.8-.1 7.5-.8 11.4-.1 4.2.7 7.4 2.7 9.7 6a44 44 0 0 1 8.9 25.7 33 33 0 0 1-3.5 12.8 58 58 0 0 0-5.5 17.4l-2.4 3.5c-1-1.1-.3-2.3-.1-3.5a93.8 93.8 0 0 1 4-14.8c2-3.9 3-8 4.3-12.1 1.5-5 0-9.9-1.4-14.6-1.2-3.7-3.2-7.3-5.1-10.8-3.4-6.2-10.5-9-17.5-7.2-1.2.3-2.6 1-3.5-.6z"/><path fill-rule="evenodd" clip-rule="evenodd" fill="#2DB24F" d="M205.3 63.7c0-2 .7-3.8 1.3-5.6a28.9 28.9 0 0 0-1.2-21.1 59.8 59.8 0 0 0-5.8-11.1c-4.1-6-10.3-7-17-6.4-1.3.1-2.5.7-3.8-.2 2.3-.7 4.7-1 6.7-2.4l-.1 1.2c4.1.1 8 .9 11.5 3 3.5 1.9 5 5.3 6.7 8.5 3.3 6.3 5.2 13 6.2 20 .1.8.3 1.8 1 2.3-1.1 2.5-2 5.1-1 7.9l-4.5 4z"/><path fill-rule="evenodd" clip-rule="evenodd" fill="#57B94E" d="M199.6 68.1c1-4 2.9-7.8 4-11.8 1.4-5.1 1-10-.7-14.8a42 42 0 0 0-7.4-14.2 13.4 13.4 0 0 0-13.6-4.7c-1.7.3-3.3.8-4.9 1.2l.7-1.6c2.6-.4 5-1.5 7.6-1.5 6.3.1 11 3 14 8.3 3 5.7 6.1 11.4 6.8 18 .2 2.4.5 4.7-.2 7-1 3.4-2 7-3.5 10.2-.3 1-.9 1.9-1.1 2.9l-.4.7c-.4.3-.7.7-1.3.3z"/><path fill-rule="evenodd" clip-rule="evenodd" fill="#3FB54F" d="M197.6 119.7c.7-4 .8-8-.5-11.9-.9-2.6-1.1-5.4-1.3-8.2-.2-4.4 1.1-8.7 1-13 0-.8 0-1.5.6-2 0-.7.1-1.3.3-2 .9-5.3 2.7-10.4 4.1-15.6-.6-.3-.8.3-1 .6-1.2 1.8-1.9 3.8-2.4 6-1.1 3.8-1.4 8-3.3 11.7-.6 1.5-1 3.2-1.1 4.9 0 2.1.1 4.3-.5 6.5v6.1c.2 2.5.6 5 1.6 7.4.9 1 .5 2.1.6 3.2.2 1 0 1.9 0 2.8 0 1.5-.2 3-.5 4.4-.2 2.7-.5 5.4-.2 8h2.3c-.5-3-.2-6 .3-9z"/><path fill-rule="evenodd" clip-rule="evenodd" fill="#B4D44A" d="M189.5 123.6c-1.3-6.1-3.5-12-5.4-18-.8-2.5-.6-5.6 0-8.3.9-4-.2-6.9-3.6-8.8-.7-.8-.5-1.7-.6-2.5l1.3-1.6c1.7-.6 2.2-2.3 3.2-3.5v-.4c.7-.5 1-1.6 2-1.4.4.1.6.3.7.6.2 1-.2 1.7-.7 2.4-2 2.2-2 4.4-1.2 7.2 1 3.2 1.4 6.6.7 10-.6 3.4.5 6.7 1.8 9.8 1.2 3.1 2 6.4 2.4 9.7.2 1.6.6 3.4-.6 4.8z"/><path fill-rule="evenodd" clip-rule="evenodd" fill="#47B74F" d="M201.8 64.8c.8-2 1.3-4.1 2.2-6 3.1-7 1.8-13.9-1-20.6a80 80 0 0 0-4.2-8.7 15 15 0 0 0-18.4-7.6c-.9.3-1.7.8-2.7.3 0-.5 0-1 .4-1.2.9.5 1.7.3 2.7 0 8.9-2 16 1 20 9.7l3.2 6.8c4.9 10.1 2.6 19.6-2.2 29-.3-.6-.3-1.2 0-1.7z"/><path fill-rule="evenodd" clip-rule="evenodd" fill="#C2D849" d="M150.7 37.8l1.1-1.1c2 .5 4.1.2 6.2.4 2 .2 3.8.6 5.7 1.3 2 .7 4.3.9 6.5.8 6.2-.4 11.6 1.3 15.5 6.5 1.2 1.8 2 3.6 1.8 5.7-.4 5.4-.7 10.8-.6 16.2 0 2.2-.1 2.2-1.6 2.5-.9-5.4-.4-11-.5-16.4-.2-1.3 1.6-2.4.6-3.8-.7-.7-1.4-1.3-1.9-2-3-4.8-7.7-5.8-12.8-6.1-2.4.3-4.8.4-7.2-.5l-.8-.4c-2.5-2.2-5.4-2-8.4-2-1.2 0-2.8.6-3.6-1.1z"/><path fill-rule="evenodd" clip-rule="evenodd" fill="#50B84E" d="M195.7 120.3c.3-.4.3-.9 0-1.3-1.8.8-.2 2.5-1.1 3.5v.6a10 10 0 0 0 0 5v.5h1.1c-.2-2.7 0-5.5 0-8.3z"/><path fill-rule="evenodd" clip-rule="evenodd" fill="#2DB24F" d="M197.7 126.4c-.2-.5-.5-.7-1.2-.2.2.8.4 1.6.4 2.4h1.5a10 10 0 0 1-.7-2.2z"/><path fill-rule="evenodd" clip-rule="evenodd" fill="#35B24E" d="M197 127.1c-.4-.6-.2-1 .7-.7 0-3 .1-5.9.9-8.7.2-1.7.8-3.2.4-5-.7-3-1.4-6-2.5-9-.3-5.2.7-10.3 1-15.5 0-.6 0-1.3-.7-1.6a34.8 34.8 0 0 0-1.2 17.8c1.2 5.6 2.5 11 1.2 16.8-.5 2.5-.8 5-.3 7.4h.8c0-.5-.2-1-.4-1.5z"/><path fill-rule="evenodd" clip-rule="evenodd" fill="#DAE148" d="M185.6 49.6c1.3 1.1 0 2.3 0 3.4-.5 4.6-.6 9.2-.3 13.8.1 2.5.2 5-.6 7.2.5 2 2.8 3.2 1.4 5.3-.5.4-.8 1.3-1.6 1.2l.7-2.3c-1.3-1-2.8-1.6-3-3.7-.1-.9.6-1.8 1-2.8 1-2.2 1.4-4.3.3-6.7-.6-1.5-.3-3.1 0-4.7.3-1 .8-2.2.5-3.3-.7-2.4-.5-4.5 1.6-6.3l-1.2-1c.4-.4.8-.4 1.2 0z"/><path fill-rule="evenodd" clip-rule="evenodd" fill="#DFE448" d="M185.6 49.6h-1.2c-.3 0-.7 0-.8-.2-1.7-5.3-7.3-4.8-11-7.3-4.1 1.6-8.3 2.8-11.8-1.3.6-1.2.6-1.2 2.4-.1a10 10 0 0 0 7.8.5c6.5 0 11.5 2.4 14.6 8.4z"/><path fill-rule="evenodd" clip-rule="evenodd" fill="#29B14F" d="M198.6 117.7c.1-4.7-1.7-9.1-2.4-13.7.3-.3.5-.3.8 0 2 .6 4 1.6 5 3.8-2 3-1.2 7-3.4 9.9z"/><path fill-rule="evenodd" clip-rule="evenodd" fill="#55B34C" d="M171.6 28.3c-1 3.1-4.1 3.4-6.6 4.4-2.4 1-5.1 1.4-7.7 1.5-1.3-.3-.2-1.5-1-2 1.4-1 3-1 4.5-.9 1.5 0 3 0 4.5-.8 2.2-.3 3.6-2.3 6-2.3h.3z"/><path fill-rule="evenodd" clip-rule="evenodd" fill="#2DB04E" d="M199.8 81.1c-.7-.4-1-1-.7-1.7 1.5-5.3 2.6-11 6-15.6l.2-.1c-.3 3.6-1.6 6.8-3.4 10 1.2 3 0 5.3-2.1 7.4z"/><path fill-rule="evenodd" clip-rule="evenodd" fill="#2BB04E" d="M197 104h-.8a31 31 0 0 1 1.2-15.8c.9 4.5 1.9 9.1-.4 13.6-.3.7-.4 1.4 0 2.1z"/><path fill-rule="evenodd" clip-rule="evenodd" fill="#D5DB46" d="M178.8 86.7c-.2 1.9.9 3 2.3 3.9 1.8 1.9 2.5 4 1.7 6.7v.5c-1.2 2 .2 4.2-.6 6.2-.7.4.3 2-1.2 1.7l-.2-.9c.2-2-.3-4 .3-5.9 2.6-5-2-7.3-4-10.3.3-1.2 1-1.6 1.7-1.9z"/><path fill-rule="evenodd" clip-rule="evenodd" fill="#D7DF46" d="M187.8 122.5v1.1c.2.2.2.3.2.5l-.1.2c-1.7-.2-1.7-1.8-2.3-2.8-.1-.3.1-1.2-.7-.5l-1.1-2.4c-1.3-2.2-2.7-4.5-2.7-7.2a8.6 8.6 0 0 1-1.1-5.1l.5-.6c.2-.3.4-.3.6 0 1.2 6 5.1 11 6.7 16.8z"/><path fill-rule="evenodd" clip-rule="evenodd" fill="#D2DB47" d="M187.8 123.6v.6c-.2.2-.6.3-.7.7.8.7.7 1.5.4 2.5l-.2 1.2h1.5c.4-1.7.2-3.4-1-5z"/><path fill-rule="evenodd" clip-rule="evenodd" fill="#D6E048" d="M163.2 40.7c-.8.1-1.7-1.1-2.4.1-1.7-1.4-3.7-1.4-5.7-1.3-2 .1-4 .5-6-.1.2-1.2 1-1.2 1.6-1.6 2.3 1.2 4.7.5 7.1.6 2.1 0 4 .5 5.4 2.3z"/><path fill-rule="evenodd" clip-rule="evenodd" fill="#E9E849" d="M181.7 111.3c-.3 2.2.5 4 1.9 5.6.4.5 1.3 1 .2 1.7-2.7-1.5-3-4-3.2-6.7.3-.4.4-1 1-.6z"/><path fill-rule="evenodd" clip-rule="evenodd" fill="#4CB34E" d="M171.2 28.2c-1.8 1-3.4 3-5.9 2.3 1.8-1.3 3.2-3.5 6-2.3z"/><path fill-rule="evenodd" clip-rule="evenodd" fill="#E0E047" d="M181.7 111.3l-1 .6c-.5-1.9-2.5-3.6-.7-5.6 1 1.5.4 3.6 1.7 5z"/><path fill-rule="evenodd" clip-rule="evenodd" fill="#A5CE4C" d="M158.1 37.3c-2-.2-4.3.5-6.3-.6l1.4-1.6c.6.3 0 1 .5 1.6h6c.3.3.3.5 0 .8-.5 0-1 .2-1.6-.2z"/><path fill-rule="evenodd" clip-rule="evenodd" fill="#E7E547" d="M187.8 124.2l-.7.7c-1.5-1-2-2.3-2.2-3.9l.3-1 2.6 4.2z"/><path fill-rule="evenodd" clip-rule="evenodd" fill="#CAD247" d="M184.4 80.9c-.5 1.7-.6 3.7-3.2 3.5.8-1.4 1.5-2.9 3.2-3.5z"/><path fill-rule="evenodd" clip-rule="evenodd" fill="#CBDB48" d="M181.1 105.7h-.6c.8-2.2-.8-4.6.6-6.8v6.8z"/><path fill-rule="evenodd" clip-rule="evenodd" fill="#36A94D" d="M213.1 48.7l.5-2.9c.6.2.7.8 1 1.3l-1.5 1.6z"/><path fill-rule="evenodd" clip-rule="evenodd" fill="#87C54D" d="M193.3 122c.1-3.1 1.5-6.3.4-9.4a38.7 38.7 0 0 1-2-15.9c.1-3.2.7-6.4.4-9.7l-.4-.4a9 9 0 0 0-1 5c0 5.8-.5 11.7.5 17.5-.8 1-.3 2 0 3 .5 2.1.5 4.4.2 6.6-.5 3.4-.6 6.7-.4 10h2.1l.2-6.7z"/><path fill-rule="evenodd" clip-rule="evenodd" fill="#9ECC4C" d="M159.8 37.3v-.6c4.9.1 9.3-1.4 13.4-3.9 1.8-1.2 3.2-3 5.1-3.9 2.4-1.1 4.3-1 6.2.8 4.9 4.7 8.7 9.8 10.7 16.6 2 7.3.8 14-1 20.9-1.4 5.7-1.9 11.7-3.4 17.5-1.7 6.4-1.6 12.9-1.6 19.4 0 .4 0 .7.3 1 .4 1.1.4 2.2 0 3.3-2-.4-1.7-2.3-1.8-3.5-.1-7-.6-14.2 1.1-21.2 1.2-4.3 1.6-8.8 2-13.2.2-4.2 1.2-8.3 1.5-12.4.8-10.6-3.1-18.7-11.5-25-1.2-.8-2.4-.8-3.6 0-2 1.3-4 2.4-6.1 3.4-3 1.5-6.2 1.9-9.5 1.3-.6-.2-1.3-.1-1.8-.5z"/><path fill-rule="evenodd" clip-rule="evenodd" fill="#99CA4C" d="M192 120.6c.4-4 .3-7.7-.8-11.5l-1.1-.6-.3.4c1 6.6.6 13.2.6 19.7h1.3a42 42 0 0 1 .2-8zM189.5 105.1a39 39 0 0 1-.3-13.8c.8-7.2 3-14.3 3.8-21.6.4-3.5 2.2-6.8 2.3-10.5.1-4 1-8-.9-12-1-2.2-1.4-4.8-2.5-7.2a32 32 0 0 0-8.9-10.5c-2.4-2.1-5 .3-7.2 1.7-.9.5-1.4 1.6-2.6 1.6a16 16 0 0 1 6.1-5.2c2.3-1.2 6 0 8 2.3 4.5 5 7.9 10.4 9.5 16.8 1.3 5 1.2 10.1-.5 15.2-2.4 7.4-3.2 15.2-5.1 22.8-1.7 6.7-1.7 13.6-1.7 20.4z"/><path fill-rule="evenodd" clip-rule="evenodd" fill="#87C54D" d="M161.5 35.6c5.8-1.5 11.1-4 15.2-8.6.8-.8 2.2-1.1 3.3-1.6 4.4-1.7 8.2-.7 11.3 2.8 6.1 6.8 10 14.7 10 24.1-.1 4.8-2 9.2-3.7 13.7-.9 2.3-1.8 4.6-2 7.2v1.7c-.8 2-.5 4.2-1.6 6.1v2.3c-1.3.7-.2 3-2.2 3.3C193 79.3 194.3 72 197 65c2.3-6.4 3.8-13 1.9-19.6a36 36 0 0 0-10-17.4c-3.8-3.5-7.9-4-13.4 1.1-4 3.7-8.3 6.5-14 6.5z"/><path fill-rule="evenodd" clip-rule="evenodd" fill="#99CA4C" d="M189.5 108.5v-3.4c1 1 .4 2.3.6 3.4l-.3.2-.3-.2z"/><path fill-rule="evenodd" clip-rule="evenodd" fill="#ADD14B" d="M190.7 119.6c-.1-4 0-8.2-2.2-11.9-.4-.6-.7-1.5-.7-2.4.2-6.9-.5-13.7 1-20.6.6-3 1-6.1.7-9.4-.5-5.7-1.3-11.6.3-17.2 2.2-7.5-2.2-16.4-9.8-20.7-2.9-1.5-6.1-2.1-9.5-.7-2.8 1.3-6 1.2-9 .6H158c4.5 1.4 8.9 4 14 2.3h1.3c5.5 1.5 10.8 3.1 13.3 9.7-.3 6.2-.7 13-.6 19.8 0 .5-.3.9-.5 1.3-.7 1.2-1 2.7-.5 4 .6 1.6 1.2 3.2 1.6 5-.3 2.6-3 4-3.3 6.8a19 19 0 0 1 2 10.6c-.7 4.5-.1 8.5 1.5 12.5 1.9 4.6 2.8 9.4 2.6 14.3v5h1l.2-9z"/><path fill-rule="evenodd" clip-rule="evenodd" fill="#CBDB48" d="M187.8 122.5c-2.4-5.5-6.7-10.3-6.7-16.8l1.1-1.7c-.7 3.9 1.3 7.1 3 10.2a24 24 0 0 1 2.6 8.3zM182.8 97.3c.5-2.5-.7-4.6-1.7-6.7 2.5 1.7 2.8 4 1.7 6.7zM182.2 104c.3-2-1.3-4.3.6-6.2-.3 2 .6 4.2-.6 6.2z"/><path fill-rule="evenodd" clip-rule="evenodd" fill="#7AC14D" d="M193.4 122.5c.7-1-.1-2.3.6-3.4v-1c.4-2.1.4-4.2 0-6.2l-.5-1a54.2 54.2 0 0 1 .5-27.6c-1.9.3-.8 2.7-2.2 3.3l-.2 4.2c-.6 5.8-1 11.7.4 17.4 1 4 1.6 7.6 1 11.8-.3 2.8-.6 5.7-.2 8.6h.6v-6z"/><path fill-rule="evenodd" clip-rule="evenodd" fill="#50B84E" d="M194 96.7v1.7c-.5 1.5-.5 3 0 4.5 0 2.6.3 5 1.7 7.3.4.5.2 1 .1 1.6-.2.2-.4.3-.7 0a44.4 44.4 0 0 1-.6-26.1c.2-1 .4-1.8 1.2-2.4.4.7.4 1.5 0 2.2-1.1 1.3-1.2 2.9-1.1 4.5-.8 2.2.1 4.5-.6 6.7z"/><path fill-rule="evenodd" clip-rule="evenodd" fill="#50B84E" d="M195.7 85.5v-2.2c1-5.2 1.7-10.4 3.9-15.2l1.1-.5c-2 5.9-2.7 12-5 18z"/><path fill-rule="evenodd" clip-rule="evenodd" fill="#5CBB4E" d="M195.1 111.9h.6c.4.5.2 1.1.3 1.7.2.8 0 1.6 0 2.3-.2 1 .2 2.2-.3 3.2-1.2.9 0 2.6-1.1 3.4 0-3.6.9-7 .5-10.6z"/><path fill-rule="evenodd" clip-rule="evenodd" fill="#7AC14D" d="M194 81c.3-2 .1-4.4 1.7-6.1-.2 2.1.4 4.5-1.7 6.1z"/><path fill-rule="evenodd" clip-rule="evenodd" fill="#72BF4E" d="M194 118V112c.9 2 .9 4 0 6.1z"/><path fill-rule="evenodd" clip-rule="evenodd" fill="#5CBB4E" d="M194.6 123v5.1a5 5 0 0 1 0-5z"/><path fill-rule="evenodd" clip-rule="evenodd" fill="#72BF4E" d="M193.4 122.5c.2-1.1-.4-2.4.6-3.4-.2 1.2.4 2.4-.6 3.4z"/><path fill-rule="evenodd" clip-rule="evenodd" fill="#50B84E" d="M201.8 64.8V67l-1 .6c.2-1 .3-2 1-2.8zM194 96.7c.3-2.2-.6-4.5.6-6.7-.3 2.2.6 4.6-.6 6.7zM195.7 119.1v-3.3c.2-.3.3-.3.5 0-.2 1.5.6 3-.5 4.5V119zM194 102.9c-.9-1.5-.9-3 0-4.5v4.5z"/><path fill-rule="evenodd" clip-rule="evenodd" fill="#50B84E" d="M196.2 115.8h-.5v-2.3c.2-.2.3-.2.5 0 .5.8.5 1.5 0 2.3z"/><path fill-rule="evenodd" clip-rule="evenodd" fill="#50B84E" d="M196.2 113.5h-.5V112v-1.7c1 1 .4 2.2.5 3.3z"/><path fill-rule="evenodd" clip-rule="evenodd" fill="#C2D949" d="M185.6 70.4c-.7 3 1.6 5.8 1.1 9h-.6c.2-2-1.2-3-2.2-4.6 0-2.7 1.8-5.4 1-8.2-1-4 .3-7.7.1-11.6 0-.7-.1-1.5.6-2v17.4z"/><path fill-rule="evenodd" clip-rule="evenodd" fill="#D6E048" d="M171 41.2c-2.8 1.8-5.3 1.2-7.8-.5 2.5.6 5.2.6 7.8.5z"/><path fill-rule="evenodd" clip-rule="evenodd" fill="#A5CE4C" d="M190.9 124c-.2-5.1.8-10.5-1.4-15.5-2.2-6.3-1-12.7-.8-19 0-3.4 1.3-6.7 1.9-10.1 1-5.4 1.1-11 2-16.4 1.2-6.6 1-13.3-2-19.7-2.6-5.7-7.1-8.9-11.7-12.3-5.5 3.7-10.7 7.2-17.4 6.3 2.8 1.2 6.2 1.2 8.7.3 3.7-1.5 6.7-.2 10 .5.4.7.6 1.5 1.4 2a16 16 0 0 1 7.5 16.9c-.7 3.1-1 6.3-.8 9.6.3 4.5 1 9.2.4 13.6a160 160 0 0 0-1.5 24.4 8 8 0 0 0 .8 3.5c1.5 3 2.1 6.1 2 9.4v11.1h.9v-4.5z"/><path fill-rule="evenodd" clip-rule="evenodd" fill="#9ECC4C" d="M190 108.5h-.5c.8 3.7 1.4 7.4 1.2 11.2-.2 3-.1 6 0 9h.4c.1-6.8.8-13.6-1-20.2z"/></svg>