<svg xmlns="http://www.w3.org/2000/svg" viewBox="0 0 219.6 308.4"><path fill-rule="evenodd" clip-rule="evenodd" fill="#75C04E" d="M73.3 28.1l-1.6-.5c-4.3-1.8-9-1.7-13.3-3.3a18.2 18.2 0 0 0-14.4.5c-2 .8-4 1.7-6.1 1.6-6.3 1-12.6 1-18.9 2l-7.8 1.1c.3 1.5 1.5 1.2 2.5 1.2 2.6.1 5.2.2 7.8 0 1.5-.6 3-.5 4.5-.5 2.6 0 5.2 0 7.8-.2 4.9-.6 9.4-2.2 14-4a10 10 0 0 1 7.3-.3c3.6 1.4 7.3 2.2 11.1 2.8 2.1.3 4.1 1.1 6.1 1.9 2 .7 2.7 2 2.3 4.2-.6 3-1 6-1.5 9.1-.5 3-1.8 5.7-4.3 7.9-2.6 2.2-4.7 5-5.3 8.7-.7 4.5-.3 8.9 1.1 13.2 1.1 3.2 1.2 6.3-.5 9.5a22.2 22.2 0 0 0-1.9 16.2c.2.6.3 1.1.3 1.7.1 4.8 1 9.4 2.3 13.9h2.6c-1.5-5.1-2.1-10.4-2.8-15.8-.7-5.5-.7-10.7 2-15.7 1.8-3.1 2-6.5.7-9.7A28.3 28.3 0 0 1 65.8 63c0-4.7 2.2-8 6-10.7l1.6-1.8c.6-1.3 1-2.6 1.4-4C76 43 76 39.1 77.1 35.4c1.4-5.2 1.2-5.5-3.8-7.3z"/><path fill-rule="evenodd" clip-rule="evenodd" fill="#56BA4E" d="M67.7 108.6l-.5-1.1c-.6-1.8-.2-3.7-.3-5.5l-.2-1.2c-.4-1-.4-2.1-.6-3.2 0-.2 0-.5-.2-.7-.3-1-.2-2.1-.1-3.1 0-1 0-2 .3-2.8.2-1.8 1-3.4 1.4-5.2.3-2 1.6-3.4 2-5.2.3-1.7.2-3.3.2-5-.5-2.2-1.4-4.2-1.9-6.4-.5-1.3-.3-2.6-.3-3.9v-2c0-1.1-.2-2.2.2-3.2.4-1.7 1.4-3 2.3-4.3.2-.6 1-1 .6-1.7-3 .3-4 2.8-4.6 5-1.4 4.7-1 9.3.7 13.8 1.4 3.6 1.6 7-.4 10.5-2.8 5-3.4 10.3-1.9 16 .2.6.4 1.4.4 2.1 0 4.6.7 9 2 13.3h2.6c-.5-2-1.4-4-1.7-6.2z"/><path fill-rule="evenodd" clip-rule="evenodd" fill="#3BB54F" d="M75.4 25.5c-5-2-10.2-3-15.2-4.6-3.8-1.2-7.6-2-11.5-1.7-1 .1-1.6 1-2.2 1.6-.1.5-1 .8-.2 1.6 1 .2 2.1 0 3.2-.2 1.8-.5 3.7-.6 5.5 0 4.5 1.7 9.4 2.4 14 3.9 1.6.4 3.1 1.2 4.7 1.5 2.9.5 5.8.7 8.3-.6l-1.7-1.6c-1.6.5-3.3.7-5 0z"/><path fill-rule="evenodd" clip-rule="evenodd" fill="#70BE4D" d="M64.4 97.2c-.7-4.4-.3-8.4 1.8-12.4 2-3.9 2.9-7.8 1-12.2-1.4-3-2-6.5-1.6-9.9.4-3.5 1-7 5-8.6l1.1-1.7c-.4-.1-.8-.4-1.2 0-2 2-4.3 3.7-5 6.6-.9 4.6-1 9.1.6 13.5 1.5 3.9 1.7 7.6-.5 11.3-1.1 2-2 4.2-2.2 6.5-.4 6.3.7 12.5 1.7 18.6.3 2 .8 4 1.3 5.9h1c-1.6-5.7-2-11.7-3-17.6z"/><path fill-rule="evenodd" clip-rule="evenodd" fill="#C3D949" d="M8.3 31.6l.7-.5c5.6-1 11.3-.7 17 0 2.8.6 5.7.5 8.5 1.1 6.8 1.1 10.6 5.3 12.4 11.7 1.4 5 4.6 9.2 5.4 14.4l.1.6c.4 7 1.3 14.3-1.8 21-1 2-1.1 4.4-2.7 6.2a1 1 0 0 1-.8 0c-.3-.2-.4-.4-.5-.7.2-2.8 1.7-5.1 2.5-7.7.8-2.5 1.7-4.9.7-7.6-.4-1.1 0-2.4.1-3.6.4-5.4-.3-10.5-4.5-14.5-1.4-1.3-1.8-3-1.7-4.8.2-5.7-2.8-10.3-8.2-11.9-4.5-1.3-9.3-1.8-14-2.5-.8-.1-1.6.5-2.5 0-1.2-1.4-2.9-.7-4.4-.8h-3 5.2c.5 0 1.2-.1 1.1.7l-9 .1c-.3-.3-.5-.7-.6-1.2z"/><path fill-rule="evenodd" clip-rule="evenodd" fill="#2AB24F" d="M72.4 109.6c0-.7-.4-1.5-1-2-1.9-2-2-4.4-1.5-7 .5-3 1.9-6.2-1.7-8.5-.4-.1-.3-1-.4-1.5-1.7 0-1.9 1.4-1.7 2.5 1.2 7.3 1.2 14.7 3.6 21.7h3.7c-.4-1.7-.8-3.4-1-5.2z"/><path fill-rule="evenodd" clip-rule="evenodd" fill="#CBDC48" d="M53.4 112.9c-2.2-6-7.2-10.6-7.8-17.2a.8.8 0 0 0-.8-.2c-2.1 3-1 5.8.8 8.3 2.3 3.5 4 7.2 5.4 11h3l-.6-1.9z"/><path fill-rule="evenodd" clip-rule="evenodd" fill="#DDE247" d="M46.8 104.5c-1.9-2.7-3.2-5.5-2-8.9.3-.2.3-.4.1-.6-.2-.2-.4-.2-.6 0-1.4 2.8-2.8 5.6-.6 8.6 2.5 3.5 4.5 7.3 6.1 11.3h2a39.6 39.6 0 0 0-5-10.4z"/><path fill-rule="evenodd" clip-rule="evenodd" fill="#2DB34F" d="M70.5 22.8zM79 25c-3 .1-5.7-1.2-8.5-2.2a24.5 24.5 0 0 1 0 0H72c1.1-.1 2.7.7 3.2-1.2h-3.3c-4 0-8-.3-11.6-2.3-3-.4-5.7-1.7-8.7-1.1-1-.1-2 0-2.8 1 .7 1 1.8.8 2.8.7 2.4-.2 4.7.3 6.8 1.2 2.5 1.2 5.1 1.6 7.8 2.1 2 .4 4.1 1 6 2 3 1.4 5.8 1.8 8.8.7l-1.4-1.3-.4.3z"/><path fill-rule="evenodd" clip-rule="evenodd" fill="#70BE4D" d="M81 27.5c-.8-.1-1.3.3-2 .6-.8.7-1.7.4-2.6.2-5.8-1.8-11.7-3-17.5-4.8-4.7-1.4-9-2.1-13.6 0-.7.4-1.4.6-2.2.8l-.7.3c-1.3 1.1-3.6.5-4.3 2.6 2.3 0 4.4-.9 6.4-1.8 3.3-1.5 6.7-2 10.1-1.5 2.7.4 5 1.8 7.8 2.2A47 47 0 0 1 77 30.6c.7 1.3 0 2.2-.2 3.2-1.5 5.5-2.4 11.1-3.4 16.8l1.2-1c1.4-2 1.3-4.6 1.8-6.9.7-3 .3-6.2 2.6-8.7.5 0 1.1.2 1.6 0l.3-.2-.1-.4c-.6-1.1-.7-2.2 0-3.3-.4-1 1.5-1.7.2-2.6z"/><path fill-rule="evenodd" clip-rule="evenodd" fill="#4EB84F" d="M46.5 20.8l-.2 1.3c8.2-2.7 15.2 1.8 22.7 3.4l-.4.3c-3.5-.2-7-.8-10.2-2.1-5.6-2.3-10.7-1.2-15.8 1.3-6.4 2.6-13.2 2.7-20 3-.8.1-1.5 0-1.8-.8 1.2-1 2.9-.6 4.3-1.2 3-1.3 6.4-.4 9.4-1.3.9-.2 1.9 0 2.5-.9 3.4-.3 6.7-.9 9.5-3z"/><path fill-rule="evenodd" clip-rule="evenodd" fill="#3FB54F" d="M69 109.5c-.8-4.7-1.2-9.4-1.7-14.2-.2-1.6-1.7-3.4.5-4.7.3-1.7.8-3.4.7-5-.6-.6-1.2-.5-1.8 0 0 1.9-1.6 3.5-1.1 5.5-.5 1-.2 2-.3 2.9.2 1-.3 2.2.3 3.3.4.4.2 1 .5 1.4 0 1 .4 2.1.3 3.2 0 .4 0 .9.2 1.3.4 1.7-.3 3.6.7 5.3-.3 2.3.9 4.2 1.4 6.3h1.9c-.6-1.8-1.3-3.5-1.6-5.3z"/><path fill-rule="evenodd" clip-rule="evenodd" fill="#DEE046" d="M21.3 32.2c5.7.8 11.5 1 16.8 3.4 4.2 2 6 5.6 6.1 10 0 3 1 5 3 7.4 3.3 3.7 4.1 8.5 3.3 13.4-.3.3-.6.2-.8 0-.3-1.3.2-2.6-.3-3.9l-.2-.5c0-2.2-1.2-4.1-1.3-6.3-.8-1.4-2.2-2.1-3.4-3.1-1.8-1.5-2.6-3.1-1.4-5.3v-2C41.8 39 37.6 35.9 31.4 35c-2.3.2-4.6-.1-6.8-1-1-.7-2.2-.4-3.3-.6-.3-.4-.3-.8 0-1.2z"/><path fill-rule="evenodd" clip-rule="evenodd" fill="#47B74F" d="M68.5 85.5h-1.8L69 81c.4-1.8.4-3.7 0-5.6-.6-2-1.7-4-1.7-6.2-.7-1.2.2-2.6-.6-3.9v-2.2c.7-1-.1-2.3.6-3.4.3-1.7.8-3.3 2.7-3.9v1.7c-2.4 7.6.6 14.6 2 21.9-.7 2.3-3.6 3.3-3.5 6.1z"/><path fill-rule="evenodd" clip-rule="evenodd" fill="#2CB14E" d="M72 79.4l-1.5.2c1.2-5.2-2.6-9.4-2.2-14.5.2-2.6 0-5.3 1.7-7.6.5 4.1.8 8.2.7 12.4.4.4 1 0 1.7.6-.9 2 .3 3.8 1.1 5.7 0 1.2-.9 2.1-1.5 3.2z"/><path fill-rule="evenodd" clip-rule="evenodd" fill="#D7DE48" d="M50 66.4h.5c1 5.7-.3 11-2.7 16.2-.4.9-.5 2-.7 3-.5.8.4 1.6 0 2.5l-.1.7c-.4 1-.4 2-.5 3l-.2.7c-.3.8-.2 1.7-.4 2.5-.1.3-.3.4-.5.6H45V95a4 4 0 0 1-.1-2.9c-.2-4 1-7.6 2.5-11.2 1-2.5 1.7-5 2.6-7.5-.4-1-.8-1.7-1-2.5a5 5 0 0 0-.1-2.2c0-.7.2-1.2.5-1.7.2-.2.3-.5.6-.6z"/><path fill-rule="evenodd" clip-rule="evenodd" fill="#4CB74E" d="M80.7 33.9v-.5c.9.8.6 1.8.7 2.8-3.5 2-2.8 5.4-2.7 8.3.5.9 1.2.2 1.6.6l.6 1.9-2.4 1.4c-.7-.4-1.6.2-2.3-.5-1.3-1.4 0-3 0-4.6a24 24 0 0 1 1.2-6.9C78 35 79 34 80.7 34z"/><path fill-rule="evenodd" clip-rule="evenodd" fill="#25AF4E" d="M60.2 19.3c-3 1-5.8-.8-8.7-1.1 2.4-.5 2.5-3.7 4.9-4.4 1.4 1.8 2 4 3.8 5.5z"/><path fill-rule="evenodd" clip-rule="evenodd" fill="#30B04F" d="M37 23.8l.7 1A36.6 36.6 0 0 1 25.1 26c.8-2.5 3-2.7 5-2.5l6.9.3z"/><path fill-rule="evenodd" clip-rule="evenodd" fill="#5BBB4E" d="M80.7 33.9c-2.2 1-3 2.9-3.4 5.2-.6 2.7-.2 5.5-1 7.8.4 1.3 1.6.8 2.2 1.5l-4 1.2c1.3-5.5 1-11.5 3.8-16.5 1.3-.3 1.7.6 2.4.8z"/><path fill-rule="evenodd" clip-rule="evenodd" fill="#25B04E" d="M67.8 22.5c4.1 1.1 7 4.3 11.3 2.4l-4-3.3c-2.1 1.3-4.5 0-7.3 1z"/><path fill-rule="evenodd" clip-rule="evenodd" fill="#57BA4E" d="M20.8 27.2c1.4.8 2.8.4 4.3.4 6-.2 11.8-1.2 17.5-2.6-1.1 1.4-3.2 1-4.5 2.2L22 28.8c-1 0-2 0-3-.5l1.8-1z"/><path fill-rule="evenodd" clip-rule="evenodd" fill="#E2E246" d="M32 34.5a18 18 0 0 1 6.6 2.5c3 2 4.4 4.8 4.5 8.3-.7-.3-1-1-1.3-1.7-1.9-6-6.6-7.7-12.3-8-.9 0-1.8.2-2.6-.6 1.6-.7 3.4.3 5-.5z"/><path fill-rule="evenodd" clip-rule="evenodd" fill="#3EB34E" d="M80.3 45l-1.8 2.4c-1-4.6-.3-8 .7-11 1-1 1.6-.4 2.2-.2 1 .5.3 1-.1 1.4a8.2 8.2 0 0 0-2.3 3.6c.4 1.4 1.6 2.4 1.3 3.9z"/><path fill-rule="evenodd" clip-rule="evenodd" fill="#E2E246" d="M43.1 47.3v2.4c1.1 3 4.6 3.3 5.1 6l-.2.3h-.2l-.2-.2c-2.2-2-5.3-3-7-5.8 1-1 1-2.5 2.5-2.7z"/><path fill-rule="evenodd" clip-rule="evenodd" fill="#29B04E" d="M73.5 76.2c-1.2-1.6-3-3-1.8-5.6l-1-.7h3.2c1.3 2.3.2 4.3-.4 6.3z"/><path fill-rule="evenodd" clip-rule="evenodd" fill="#A8CF4B" d="M26.4 31.7c-5.8-.8-11.6-.5-17.4-.6l.9-.6c3.1-.5 6.3-.1 9.5-.2 1.2 0 2.4 0 3.6-.3h1.5c1.5.6 3.2 0 4.6 1 .2.2.2.5 0 .8-1 .2-1.8.4-2.7-.1z"/><path fill-rule="evenodd" clip-rule="evenodd" fill="#C5DA4A" d="M81.3 29.5L84 29l-1.4-1.4c-.6.4-1 1-1.2 2z"/><path fill-rule="evenodd" clip-rule="evenodd" fill="#96C94C" d="M23.5 30.6L10 30.5c.4-.4.6-1 1.3-1 3.5 1 7.1.2 10.7.5.7-.2 1.5-.8 1.6.6z"/><path fill-rule="evenodd" clip-rule="evenodd" fill="#87C54C" d="M81.3 27.8c0 .7-1.8 1.2-.5 2.3l.5-.6c.4-.7 1-1.2 1.7-1.5l-1-1c-.3.2-.5.4-.7.8z"/><path fill-rule="evenodd" clip-rule="evenodd" fill="#E6EE49" d="M18 32.7c-2.4-1.2-5 0-7.3-1h7.1c.8 0 1.2.4 1.2 1.2l-1-.2z"/><path fill-rule="evenodd" clip-rule="evenodd" fill="#E6E747" d="M48.2 55.8c.2 2.1 2.1 4 1 6.2l-1-2.8a4.8 4.8 0 0 1 0-3.4z"/><path fill-rule="evenodd" clip-rule="evenodd" fill="#EFF049" d="M32 34.5c-1.6 1.1-3.4.3-5 .5-1 0-1.9-.1-2.4-1 2.5.1 4.9.8 7.4.5z"/><path fill-rule="evenodd" clip-rule="evenodd" fill="#E6F04C" d="M8.3 31.6c.5.3.7.7.7 1.2-.8.5-1.7.6-2.7.5.3-1.1 1.3-1.2 2-1.7z"/><path fill-rule="evenodd" clip-rule="evenodd" fill="#C3D949" d="M50 66.4l-.7.6.1-4.5c1 1.2.4 2.6.5 4z"/><path fill-rule="evenodd" clip-rule="evenodd" fill="#E2E246" d="M21.3 32.2v1.2c-.8 0-1.6 0-2.3-.6l2.3-.6z"/><path fill-rule="evenodd" clip-rule="evenodd" fill="#DEE046" d="M48.2 55.8v3.4c-1-1-.2-2.3-.6-3.4h.6z"/><path fill-rule="evenodd" clip-rule="evenodd" fill="#F2F24A" d="M48.8 68.7c.8.7.8 1.5 0 2.2-.6-.7-.6-1.5 0-2.2z"/><path fill-rule="evenodd" clip-rule="evenodd" fill="#CBDC48" d="M44.8 92.1v3h-.5c0-1 0-2 .5-3z"/><path fill-rule="evenodd" clip-rule="evenodd" fill="#8BC64C" d="M72.2 49c1.6-3 1.8-6.4 2.3-9.7.3-2.4 1.5-4.8 1-7.2-1-1.6-2.3-2.2-3.8-2.8-4.8-2-10.1-1.8-14.9-3.8-3.4-1.5-6.9-1.4-10.2.1-6.9 3.1-14 4.2-21.5 3.9-1.1 0-2.3-.5-3.2.5.6 0 1.2-.1 1.6.6h1.2c8 .5 15.8.3 23.1-3.6 2.5-1.3 5.3-1 7.9.1 3.1 1.3 6.4 1.9 9.7 2.6 2.4.5 4.9.6 6.7 2.2 1.7 1.8.7 3.8.6 5.7-.5 5.7-1.6 11-6.5 14.8-2.6 2-3.8 5.1-4 8.4-.4 4.3-.4 8.8 1.2 13a11 11 0 0 1-.7 9.6c-1.8 3.4-2.7 7-2.3 10.8l1.5 14.1c.3 2.2 1 4.4 1.7 6.5h2l-1.1-4.2c-1.3-4.4-.7-9.1-1.8-13.5-1.1-4.6-.4-8.9 1.7-12.8 2.2-4.1 2-8 .6-12.3-2-6.6-2-13 2.9-18.7 1.3-1.5 3.2-2.3 4.3-4.3z"/><path fill-rule="evenodd" clip-rule="evenodd" fill="#4EB84E" d="M66.7 101.8v1a10 10 0 0 1 0 5.1c-1.2-2-.2-4-.5-6.1.1-.3.3-.3.5 0z"/><path fill-rule="evenodd" clip-rule="evenodd" fill="#47B74F" d="M66.7 108v-5.1c1.2 1.8.3 3.7.6 5.6l-.6-.6z"/><path fill-rule="evenodd" clip-rule="evenodd" fill="#4EB84E" d="M69 75.4c.8 1.9.8 3.8 0 5.6v-5.6zM66.7 65.3c1.1 1.2.4 2.6.6 4-1-1.2-.4-2.7-.6-4zM67.3 59.7c-.2 1.1.4 2.4-.6 3.4.2-1.1-.4-2.4.6-3.4zM65.6 94v3.3c-1-1-.4-2.3-.6-3.4.2-.2.4-.2.6 0zM65.6 97.3c.5.2.5.6.6 1.1.4.8.4 1.5 0 2.2-1-1-.4-2.2-.6-3.3z"/><path fill-rule="evenodd" clip-rule="evenodd" fill="#47B74F" d="M66.2 100.6v-2.2c1 1 .3 2.2.5 3.4h-.5v-1.2zM65.6 94H65c.2-1-.3-2.1.6-2.9V94z"/><path fill-rule="evenodd" clip-rule="evenodd" fill="#4EB84F" d="M81.4 26.5c-2 .6-4.1 1-6.4.7-2-.4-3.9-1.6-6-1.7 3.1 2.5 6.6 3.7 10.6 2.8l1.7-.5.9-.6-.8-.7z"/><path fill-rule="evenodd" clip-rule="evenodd" fill="#AFD14B" d="M60 111.1c-1.1-4-.8-8.4-1.8-12.4a22.5 22.5 0 0 1 1.9-16c1.3-2.5 1.6-5.3.7-8.1-.8-2.6-1.2-5.2-1.3-8-.2-6.4.6-12.6 5.6-17.2 3.5-3.3 4.6-7.2 4.6-11.8 0-3.6-1-4.8-4.5-5.6-3-.6-6.3-.8-9.2-2a11.4 11.4 0 0 0-9.7 0 16.2 16.2 0 0 1-8.2 1.5c-1.4 0-2.8 0-4.2-.4-1.6-.1-3.3-.6-4.7.6h-2.8c2.7.8 5.5 1 8.4 1.1.4.4 1 .1 1.6.3 2.4.8 5.4.5 7.3 2.4a25 25 0 0 1 8.8 18.3c0 1.7.2 3.4.3 5 .4 6.1.8 12.2-1 18.1-1.3 4.4-2.2 8.8-3.3 13.2-.8 3.6-1.4 7.3 1.2 10.5 3.5 4.5 6.2 9.2 8.2 14.2H61l-1-3.7z"/><path fill-rule="evenodd" clip-rule="evenodd" fill="#B4D44B" d="M49.8 99.7c-.8-1-1-2.1-1-3.4-.4-6 1.7-11.5 3.1-17.1.9-3.5 1.7-7 1.9-10.6.2-4.3-.4-8.7-.4-13 0-8.2-3.2-14.7-8.7-20.4-.7-.8-1.6-1.7-2.7-1.7-2.5-.1-4.8-1-7.2-.7.4.2.7.5 1.2.6 4.2.9 7.3 3.2 8.8 7.2 1.3 3.4 2 7.1 3.9 10 4.6 7.2 3.1 15 3 22.6 0 4.6-3 8.4-4 12.9-1 1-.8 2.5-1 3.7-1 5-1 9.7 2.1 14.2 2.3 3.3 4 7 5.3 10.8h4.7c-2.5-5.3-4.9-10.7-9-15.1z"/><path fill-rule="evenodd" clip-rule="evenodd" fill="#BED74A" d="M49.8 104l-2.3-4.3a8.4 8.4 0 0 1-.6-5.6c.6-2.6.5-5.4.8-8H47c-.6.6 0 1.6-.6 2.2v.6c-.7 1 .2 2.3-.5 3.3-.7.9.1 2-.6 2.8v.6c-.3 3 .4 5.9 2.4 8.4a44.6 44.6 0 0 1 5.5 10.9h1.6a68 68 0 0 0-5.1-11z"/><path fill-rule="evenodd" clip-rule="evenodd" fill="#CBDC48" d="M47.1 86c0 .8.3 1.7-.6 2.3.2-1-.3-2 .6-2.8v.6z"/><path fill-rule="evenodd" clip-rule="evenodd" fill="#57BA4E" d="M59.2 23.6c-5.8-2-11.3-2.3-16.6 1.4 1-.3 2.2-.4 3.2-.9 3.7-1.5 7.2-1.7 11.1-.4 6.5 2.1 13.2 3.1 19.6 5.4 1.2.4 2.4.7 3.1-.8-3.8 0-7.4-.8-10.6-2.8-3.4-.1-6.7-.8-9.8-1.9z"/><path fill-rule="evenodd" clip-rule="evenodd" fill="#CBDC48" d="M46.5 88.9c-.1 1 .5 2.4-.5 3.3.2-1-.5-2.3.5-3.3zM46 92.2c-.2 1 .3 2-.6 2.8.1-.9-.4-2 .6-2.8z"/><path fill-rule="evenodd" clip-rule="evenodd" fill="#96C94C" d="M61.6 99a24 24 0 0 1 2.5-16.7c1.5-2.8 1-5.7.1-8.7-2.7-8.9-2.7-17.3 5.4-23.8a7 7 0 0 0 2.6-4.5l1.7-10.6c-.1-3.8-2.7-4.7-5.4-5.2-4.3-1-8.6-1.4-12.7-3.2-3-1.3-6.2-1.1-9.2.3A33.5 33.5 0 0 1 29.3 30c-1.5 0-3.2-.3-4.6.6 1.3 1 3 .3 4.5.5 4.2.6 8.5 1 12.6-.6 2.3-1 4.7-1.7 7-2.6 1.7-.5 3.2-.6 4.7 0 4.1 1.3 8.3 2.2 12.5 3 4.4.7 5.8 2.4 5.5 6.2-.4 5.7-1.5 11-6.6 14.7l-.9 1c-4.3 7-3.8 14.2-1.7 21.6.7 2.4.8 4.6-.2 7-1 2.7-2.2 5.3-2.8 8.1-.5 4 .8 7.7 1 11.6a62 62 0 0 0 2.5 13.7h1.6c-2-5.1-1.8-10.5-2.8-15.8z"/><path fill-rule="evenodd" clip-rule="evenodd" fill="#A4CE4C" d="M29.2 31.1c6.8.8 13.1-1.5 19.4-3.9 1.9-.7 3.6-.7 5.4 0 4 1.3 8 2.2 12.2 2.9 1.7.2 3.3 1.2 4.9 1.8 3.3 5.2 0 15.9-6.6 21-1.3 1.1-.9 3.8-3.4 3.6-.4-3 2-4.4 3.3-6.3 1.3-1.6 3-2.9 4-4.7.9-1 1-2.2 1.2-3.4l.1-.8c.4-1.1.2-2.3.2-3.4.3-2.8-.6-4.8-3.5-5.7-.9-.4-1.9-.3-2.8-.5a22 22 0 0 1-8.1-1.8 11.2 11.2 0 0 0-9.5.2 19.3 19.3 0 0 1-8 1.9c-1.3-.2-2.6.2-3.8-.3h-5V31z"/><path fill-rule="evenodd" clip-rule="evenodd" fill="#9CCB4C" d="M60 89.4c-1.6.3-1.3 1.7-1.3 2.7-.2 3.3.9 6.4 1 9.7a54 54 0 0 0 2.2 13h1.7c-2.4-8.2-3-16.8-3.6-25.4z"/><path fill-rule="evenodd" clip-rule="evenodd" fill="#AAD04B" d="M58.9 94.4c-.5-4.3 1.2-8 2.7-11.8.2-1.2.7-2.3 1.1-3.4.2-.9.2-1.8 0-2.7-.7-2-1.2-4-1.7-6-.2-4-.9-8.2.5-12.3.2-.7 0-1.3-.4-1.8 0-.7.5-1.2.8-1.8 1.6-3.5 5.4-5.4 7-8.9.8-1.2.7-2.6 1.2-4 .7-1.2-.2-2.6.5-3.8.4-3.1-.6-5.4-3.9-6.2-.8-.7-2 .1-2.8-.6-3 0-5.8-.9-8.6-1.8-3.1-1-6.2-1.5-9.2 0-2.5 1.4-5.2 1.9-8 2.4l-.2.2c0 .1 0 .2.2.3 2.9.2 5.5-.3 8.2-1.4 2.5-1.2 5.3-2 8-.7 3.6 1.6 7.3 2.1 11 2.7 1.6.2 2.7.8 3.6 2.1.4 5.6 0 10.7-5 14.6a12.6 12.6 0 0 0-3.3 5c-2.5 6-2.5 12.3-.9 18.6 1 3.5 1.1 6.8-.7 10.2-1.8 3.4-3 7.1-2.3 11 .8 4.7.9 9.4 2 14 .4 2.2 1 4.4 1.5 6.5h2c-1.7-6.6-2.5-13.5-3.3-20.4z"/><path fill-rule="evenodd" clip-rule="evenodd" fill="#A8CF4B" d="M38.1 31.7v.5c-1.3-.2-2.7.6-3.9-.5h4z"/><path fill-rule="evenodd" clip-rule="evenodd" fill="#A3CE4C" d="M62 111.9c-1.5-4.6-1.3-9.4-2-14-.4-2.8-1.3-5.7 0-8.5.6-1.5 1.3-3 1.7-4.6 1-3.4 3.3-6.6 1.4-10.4-1.2-2.5-1.3-5.1-1.5-7.8-.3-4.9.6-9.4 2.9-13.6-1.6.7-1.5 3-3.4 3.4V58c-1.4 4.2-.8 8.4-.4 12.7l1.5 5.8v2.8c-.5 1-.4 2-1 2.8-.6 1.3-1.3 2.5-1.7 3.8a25.1 25.1 0 0 0-.3 13.8c.8 4.6.7 9.5 2.1 14l.4 1.1h1.2l-1-3z"/><path fill-rule="evenodd" clip-rule="evenodd" fill="#A8CF4B" d="M69 45.7c0-1.4.3-2.7 1-4 0 1.5.3 3-1 4z"/><path fill-rule="evenodd" clip-rule="evenodd" fill="#A8CF4B" d="M70 41.8c.3-1.3-.4-2.8.6-4-.2 1.4.6 2.8-.5 4zM66.7 31.7c-1-.2-2 .4-2.8-.6 1 .2 2-.4 2.8.6z"/><path fill-rule="evenodd" clip-rule="evenodd" fill="#A4CE4C" d="M61.1 58c-.6 4.3-.6 8.6 0 13-.2.2-.4.2-.5 0-1.2-4-.5-8-.4-12 0-.3.6-.7 1-1z"/><path fill-rule="evenodd" clip-rule="evenodd" fill="#A8CF4B" d="M60.6 71h.5c.3 1.8 1.2 3.6 1.1 5.5C61.1 75 61 73 60.6 71zM62.2 79.3c0 1.1.2 2.3-1 2.8-.1-1 .1-2 1-2.8z"/></svg>