<svg xmlns="http://www.w3.org/2000/svg" viewBox="0 0 219.6 308.4"><path fill-rule="evenodd" clip-rule="evenodd" fill="#BED74A" d="M189.7 135.4c0-2.3.4-4.5.6-6.8H188v.3c-.6 2-1 4-1.4 6.1a22 22 0 0 0 2 13c2.4 4.7 2 10 2.6 15.2l-.2.9A61 61 0 0 0 190 180c.2 1-.2 1.8-.4 2.7-.6 3.4-.7 6.8-.8 10.2-.1.8-.3 1.7-.6 2.5-.7 1.7-2.1 3-2.2 4.9 0 .7-.2 1.5 0 2.2 1.1 2.7 1.8 5.4 1.8 8.3 0 .4.3.7.6 1 1.3-.2 1.2-1.3 1.3-2.2.1-1.8 0-3.7-.6-5.5-.7-2.2-.9-4.5.3-6.7 1-2 1.5-4.2 2-6.4 0-3.7.8-7.4.6-11.1-.2-3.6.4-7 1-10.6a56.4 56.4 0 0 0-2.2-27.6c-.7-2-1-4.1-1-6.3z"/><path fill-rule="evenodd" clip-rule="evenodd" fill="#69BD4E" d="M195.2 128.6h-2.5l.1 2.2.4.9.8.5c.3 0 .6 0 .8-.3.5-.8.5-1.7.4-2.6v-.7z"/><path fill-rule="evenodd" clip-rule="evenodd" fill="#4BB84F" d="M190.2 249l-1.2 2c-1.6-1.5-.8-3.2-.6-4.8.6-4 2-7.7 3.4-11.4.7-1.4.9-2.9.9-4.4-.2-6 .7-11.8 1.5-17.7.4-3.3.3-6.6-.5-9.7a12 12 0 0 1 .7-8.2c2.4-5.5 2.1-11 1.3-16.7-.4-3 0-5.7 1.3-8.4.3-.2.6-.3.9 0v1c.3.5.8 1.1.6 1.8-1 4.9.6 9.7.3 14.6-.1 1.8-.2 3.5-.8 5.2-.4.6-1.3 1-.8 2l-.4.8c-.9 3-1.2 6-.4 9.1 1 3.9.7 7.8 0 11.7-.8 4-1.2 8-1 12.2 0 3.1-.5 6.2-1.6 9-1.4 4-2.4 7.9-3.6 11.8z"/><path fill-rule="evenodd" clip-rule="evenodd" fill="#3FB54F" d="M197.8 131l-.5-2.4H195l.2 1.2c.5 2.7.3 5.7 3 7.4.8-.4.8-1 .8-1.7-.3-1.5-.6-3-1.2-4.5z"/><path fill-rule="evenodd" clip-rule="evenodd" fill="#3BB44F" d="M190.2 249c-.3-3 .7-5.8 1.7-8.4 1.6-4.4 2.8-8.9 2.7-13.6-.2-5 .7-9.8 1.5-14.6.5-3.2-.2-6.2-.8-9.4-.5-3-.5-6 1.5-8.7-.5 6.2 2 12.2 1 18.4-.7 1.5.3 3-.3 4.6-.6 3.4-1.1 7-1 10.4.2 4.1-.6 8-2.4 11.6-.9 1.7-1.4 3.6-1.8 5.5-.3 1.6-1 3-2.1 4.1z"/><path fill-rule="evenodd" clip-rule="evenodd" fill="#26B14E" d="M200.3 132c1.9 1.9 3.3 4 4.5 6.4 1.6 3 2.6 6-.3 9 1.4 2.3 1.9 4.4.2 6.6-.5 0-.7.7-1.5.1-.9-3.7 0-7.8-1-11.7-1.1-3.9-3.7-7.2-4-11.3 1.3-.4 1.5.6 2.1.9z"/><path fill-rule="evenodd" clip-rule="evenodd" fill="#2AB24F" d="M192.3 244.8c-.3-3.6 2-6.5 2.7-9.9.4-1.6.8-3.2.7-5-.4-4.2.8-8.4.5-12.8l1.3.2c.6 1.6.6 3.4.5 5.2-.1 2 0 4 .7 6 .7 1.7.9 3.6-.3 5-2.8 3.4-4.4 7.4-6 11.3z"/><path fill-rule="evenodd" clip-rule="evenodd" fill="#50B84E" d="M196.8 133.7a17 17 0 0 1-1-5h-1.2v.5c.4 4 1.3 7.7 3.1 11.2 1.4 2.7 1.7 5.6 1.7 8.7 0 4.6-1 9-1.8 13.5-.4 2.3-1.6 4.6-.2 7h.5l1.2-3.7a73 73 0 0 0 2.8-14c.5-5.3 0-10.4-3.4-14.8-1-1-1.3-2.2-1.7-3.4z"/><path fill-rule="evenodd" clip-rule="evenodd" fill="#2DB24F" d="M203.3 153.5c1.5-7.8-1.5-15-5.1-22.5l2.1 1-1.9-3.4H197c.1 1 .2 2 .5 2.9.5 1.2.2 2.8 1 4a34 34 0 0 1 2.4 23c-.2.9-.2 1.8.6 2.4 1.3-2.2 2.6-4.5 3.3-7-.3-.6-.8.4-1.4-.4z"/><path fill-rule="evenodd" clip-rule="evenodd" fill="#2CB14E" d="M197.9 212.7c-.4-5.2-2.4-10.3-1.2-15.6.2-1 0-1.9.1-2.8h.4c0 2.5.8 4.6 1.9 7 1.6 3.6 2.1 7.9-1.2 11.4z"/><path fill-rule="evenodd" clip-rule="evenodd" fill="#3CB54F" d="M198.5 135.4c4 5.7 4.4 12.2 3.7 18.9-.3 2.2-1 4.3-.8 6.6-.5 1.8-1.3 3.4-2.3 5-.3-4.2 1.3-8.2 1.8-12.3.6-5.2.2-10-1.9-14.6l-.5-2v-1.6z"/><path fill-rule="evenodd" clip-rule="evenodd" fill="#DAE148" d="M190.6 180.3c0 .7.3 1.6-.5 2.2-.5-.2-.6-.7-.7-1.2l-.4-2.7v-6.7c.6-3.2-.3-6.5 1.7-9.2-.3-1.5-2-2.4-1.2-4-.6-2.1 0-4.3-.5-6.5l-3-6c.2-.6.2-1.3 1-1.4 2.2 2.6 3.5 5.6 3.6 8.9 0 3.3 1.5 6.4 1.2 9.7a46.6 46.6 0 0 0-1.2 16.9z"/><path fill-rule="evenodd" clip-rule="evenodd" fill="#35B24E" d="M197.3 128.6h-.8c.2 1 .4 2 .9 2.9v-2.9z"/><path fill-rule="evenodd" clip-rule="evenodd" fill="#2AB14F" d="M199 174.1c0 1 .3 1.8.9 2.6 3.4 4.5 3.5 7.8.3 12.6-1.1-.5-1.3-1.5-1.4-2.6l-.8-10.2c0-.8-.6-2.2 1-2.4z"/><path fill-rule="evenodd" clip-rule="evenodd" fill="#3BB34E" d="M199 174.1c-.6.5-.6 1.1-.5 1.8.4 4.5.4 9 1.7 13.4l-2.2 3c.4-7.2-1.3-14.5 0-21.7l1.3 1.1c.4 1.3 0 1.8-.3 2.4z"/><path fill-rule="evenodd" clip-rule="evenodd" fill="#D5DB46" d="M185 234.7c-2-3.8-3.8-7.6-3.8-12l2.6-1.6c.5 0 .8.4.9.8-1.5 3.6.9 6.6 1.5 9.8 0 .6 0 1.1-.2 1.7-.2.5-.5 1-1 1.3z"/><path fill-rule="evenodd" clip-rule="evenodd" fill="#DEDF47" d="M188.4 195.4l-1.7 4.5c-.6 1.5-.4 3 .4 4.4a9.5 9.5 0 0 1 .6 7.4c-.3.1-.6 0-.7-.4-.1-1 .2-2-.2-3a38.2 38.2 0 0 1-3-7l4.1-6 .5.1z"/><path fill-rule="evenodd" clip-rule="evenodd" fill="#D2DB47" d="M187.3 128.6c-.6 2.5-1.1 5-1.8 7.4-.2 1-.4 1.9.1 2.8.3.4 0 1.3 1 1.2 1-1.6-.2-3.5.7-5.2l1.4-5.6.1-.6h-1.5z"/><path fill-rule="evenodd" clip-rule="evenodd" fill="#67BD4E" d="M192.3 235.2c-1.4 4.5-3.1 8.8-3.5 13.6l.2 2.1-1.1 2.3c-.2 0-.3-.2-.4-.3-1.4-2.8-.2-5.6.4-8.3.6-3.5 2-6.9 3.1-10.3.2-.7.3-1.5 1.4-1.3.3.7.3 1.5 0 2.2z"/><path fill-rule="evenodd" clip-rule="evenodd" fill="#DEE148" d="M184.3 254.9c-.9-.8-1.1-1.9-1-3a85 85 0 0 1 1.8-12.8c.2-.1.5-.2.7 0 .3.2.5.5.6.9v.7c-.2 1 0 2.1-.2 3.2l-.7 3.2c-.5 2.1-.4 4.2-.1 6.4v.8c-.2.5-.5.8-1 .6z"/><path fill-rule="evenodd" clip-rule="evenodd" fill="#67BD4E" d="M187.9 253.2c-.3 2.8 0 5.6 1 8.3-.7 1-1.1 2.2-2.3 2.8-.4-.5-.4-1.1-.5-1.7a20.4 20.4 0 0 1 0-5.6c.8-1.2-.3-3.2 1.7-3.9z"/><path fill-rule="evenodd" clip-rule="evenodd" fill="#E3EB49" d="M189.4 181.3c.5.3.7.7.7 1.2-.5 3.6-.2 7.2-1.1 10.7-.8-1.8.2-3.8-.6-5.7-.3-1.2.3-2.2.6-3.3.5-1 0-2 .4-3v.1z"/><path fill-rule="evenodd" clip-rule="evenodd" fill="#EAED49" d="M185.6 138.8c.5.2.5.6.6 1 .7 1.7 1 3.4.5 5.1 0 .6-.2 1-.7 1.2a8.2 8.2 0 0 1-.4-7.3z"/><path fill-rule="evenodd" clip-rule="evenodd" fill="#DEE247" d="M184.5 221.8l-.7-.7c1.5-1.4 1.7-3.3 2.3-5.1.8.5.7 1.4 1 2.2v1.3c-.6 1-1 2.5-2.6 2.3z"/><path fill-rule="evenodd" clip-rule="evenodd" fill="#F1F04A" d="M189 171.9c.8 2.2.8 4.4 0 6.7-.6-2.3-.5-4.5 0-6.7z"/><path fill-rule="evenodd" clip-rule="evenodd" fill="#C8D948" d="M184.3 254.9l.7-.6c.4-.2.7-.1.9.2.7 1.7.3 3.4 0 5.2-.3.3-.5.3-.9.2-.7-1.6-.2-3.4-.7-5z"/><path fill-rule="evenodd" clip-rule="evenodd" fill="#E8E949" d="M186.7 218.4c-.8-.7-.4-1.6-.6-2.4 0-1.7-.7-3.4.6-4.9.2-.3.4-.2.6 0v.6c.6 2.3.5 4.5-.6 6.7z"/><path fill-rule="evenodd" clip-rule="evenodd" fill="#EDEF4E" d="M188.4 187.5c1.1 1.8.3 3.8.6 5.7-.1.7.2 1.6-.6 2.2h-.5l.5-7.9z"/><path fill-rule="evenodd" clip-rule="evenodd" fill="#B1C449" d="M185 259.9h.6c.6.3.5 1 .7 1.5.2.4 0 1 .4 1.3v1.6l-1 1.2-.7-5.6z"/><path fill-rule="evenodd" clip-rule="evenodd" fill="#EFF04A" d="M186.1 239.7l-.5-.6c-.7-1.2 0-2.6-.5-3.9l-.1-.5.6-1.2c1.9 2 1.7 4 .5 6.2z"/><path fill-rule="evenodd" clip-rule="evenodd" fill="#D0DD48" d="M189 152.2c1 2.1.3 4.4.5 6.5-.6-2.1-.6-4.3-.5-6.5z"/><path fill-rule="evenodd" clip-rule="evenodd" fill="#C8D948" d="M185.1 235.2c1 1.2.4 2.6.5 4h-.5v-4z"/><path fill-rule="evenodd" clip-rule="evenodd" fill="#C2D949" d="M187.3 211.1h-.6v-2.8c1 .8.5 1.9.6 2.8z"/><path fill-rule="evenodd" clip-rule="evenodd" fill="#A5CE4C" d="M189.4 181.3c0 1 .4 2-.4 2.9 0-1-.5-2 .4-3z"/><path fill-rule="evenodd" clip-rule="evenodd" fill="#87C54D" d="M194.5 134.2c-.3-1-.5-1.9-1-2.7l-.4-2.9h-2c.2 4 1.2 7.9 3 11.7 2 4.4 2.2 9 1.6 13.9-1.2 10.2-3.8 20.4-3 30.8.2 2.8-.5 5.5-1.5 8.2a18.8 18.8 0 0 0-1 10.1c.4 2.6 1 5.3.6 8-1 5.3-1.3 10.6-1.4 15.9-.1 5-1 10-2.7 14.7a39.4 39.4 0 0 0-.8 16c.2.4.4.5.8.3V257c.5-5.4.7-10.7 2.4-15.9a56 56 0 0 0 3.2-13.5c.3-4.3-.1-8.6.8-12.8 1-4.3.5-8.6-.2-12.8-.2-1.3-.4-2.6 0-3.8 2.9-7.7 2.7-15.7 2.5-23.7 0-3.7 1.2-7.3 1.6-11 0-1 0-2 .3-3 1.8-7.9 2.4-15.7-1.5-23.1-.5-1.1-1-2.1-1.3-3.3z"/><path fill-rule="evenodd" clip-rule="evenodd" fill="#99CA4C" d="M191.7 128.6h-1.3v5c.3 2.3 1.2 4.4 2.2 6.6.8 2 1.6 4.1 1.7 6.4a120.3 120.3 0 0 1-2 24.2c0 1.6.3 3.2-.5 4.7v4.4c.1 5.8-.2 11.5-2.4 17-.7 1.8-.7 3.6-.4 5.5.5 3.3 1 6.5.5 10-.8 4.7-1.6 9.5-1.3 14.4.1 3.2 0 6.5-.7 9.7l-.5 1.3a3 3 0 0 0-.3.8v1.4c0 .7 0 1.4.6 2a29 29 0 0 0 2.7-11.8c.2-4.9.7-9.7 1-14.5.3-3.4 1.2-6.9.3-10.5-1-3.6-1.3-7.4.3-11 1.5-3.5 2-7 1.8-10.8-.5-8.8 1.5-17.4 2.7-26 1-6.1 1.4-12.2-1.5-18-1.8-3.5-2.6-7-3-10.8z"/><path fill-rule="evenodd" clip-rule="evenodd" fill="#ADD14B" d="M191.2 136c-.5-2.4-.7-4.9-.7-7.4h-1c0 1 0 1.9-.2 2.8-.7 3.7-.5 7.4.8 11a44.2 44.2 0 0 1 2.6 21.4c-1.3 9.2-1.4 18.4-2 27.7 1.4-1 1.2-2.6 1.3-4 .2-2.6-.3-5.2.3-7.8v-4.5c.8-1.4-.2-3 .6-4.5v-.5c.2-2.5.6-5 .9-7.4 1-8.6 2-17-2.2-25.1l-.4-1.6z"/><path fill-rule="evenodd" clip-rule="evenodd" fill="#A5CE4C" d="M190.6 191.5c1.4-2.3 1-4.8 1.2-7.3 0-1.5-.6-3.1.5-4.5.1 5.5.2 11-2.1 16.2-1.5 3.1-.6 6.5 0 9.6.7 3.2.2 6.2-.3 9-1 5.6-1 11-1 16.5a18 18 0 0 1-1 6.5c-.6-.5-.8-1.1-.8-1.8.1-6.1-.6-12.2.6-18.4.8-3.5 2-7 1.5-10.6-.3-2.3-1.1-4.5-.8-7 .1-.8.1-1.8.5-2.6l1.7-5.6z"/><path fill-rule="evenodd" clip-rule="evenodd" fill="#AED14B" d="M189 197c0 3 0 5.8.4 8.7a30 30 0 0 1-.7 11.3c-1.6 6.8-.5 13.6-.9 20.5l-.5.5c-.9-4.7-2-9.3-2.4-14-.2-1.6 1-2.5 1.6-3.8 1.1-1.6.5-3.6 1-5.4.2-1 .1-2.2.9-3.1 1.1-2.5.6-4.8 0-7.3-.7-2.5-1.3-5 .5-7.3z"/><path fill-rule="evenodd" clip-rule="evenodd" fill="#D0DD48" d="M186.7 145c-1-1.7-.4-3.4-.5-5.1 1.3-1.5-.3-3.6 1-5-.1 4.7.2 9.3 2.6 13.7 2.3 4.3 1.3 9.3 2.4 14 .1.2-.3.5-.4.8-1.7-6.1-.7-13-5-18.5z"/><path fill-rule="evenodd" clip-rule="evenodd" fill="#C2D949" d="M188.4 211.7c-.1 2.9-.2 5.8-1.7 8.4l-.2-.4.2-.2v-1.1c0-2.3 0-4.5.6-6.7 1.2-2.5.5-4.8-.5-7.1-.7-1.6-1.2-3.1-.1-4.7-.1 1.6.1 3.2 1 4.7 1 2.3.6 4.7.7 7z"/><path fill-rule="evenodd" clip-rule="evenodd" fill="#D0DD48" d="M190.6 180.3c-1.1-3.4-.7-6.9-.3-10.2.3-2.2-.3-4.7 1.5-6.7-.7 5.6-1.4 11.2-1.2 16.9z"/><path fill-rule="evenodd" clip-rule="evenodd" fill="#72BF4E" d="M186.7 257c-.3-7.1 1.2-14 3.6-20.6 1.4-3.9 1-8 1.4-11.9.2-4 .4-8 1-11.9a17 17 0 0 0 0-6.4c-1.2-5-.8-9.7 1-14.4 1.3-3 1.4-6.2 1-9.6-.7-5.5 0-11 1.3-16.6l.2-2.2a95 95 0 0 0 2-12.4c.4-5-1-9.5-3-14-1-.6-1.2-1.6-1.2-2.7-.4-.8-.4-1.5 0-2.3h.6c3.7 7.7 6.7 15.5 4.6 24.3-1.1 4.6-1.7 9.4-2.6 14a34 34 0 0 0-.2 11.7c.7 4.3 0 8.3-1.6 12.3-1 2.3-1.5 4.7-1 7 1 5.1 1 10 .1 15-.7 2-.4 4-.5 6 0 .4-.1.7-.3 1-.6 3 0 6-.3 8.9a77.2 77.2 0 0 0-5.3 19l.3 2c-1.2 1 .1 2.8-1 3.9z"/><path fill-rule="evenodd" clip-rule="evenodd" fill="#5CBB4E" d="M194.6 129.2v2.8c.7 2.8 1.9 5.4 3 8 1.6 3.5 2.4 7.2 2 11-.7 4.7-1.7 9.5-2.6 14.2-1 5.4-2 10.9-1.2 16.3.6 4 .5 7.6-1 11.2-1.3 3-1.8 6.1-1.3 9.3.7 5 .6 9.8 0 14.7-.8 2 .2 4.2-.6 6.2-.8 3.1.2 6.4-.6 9.5V235.2c1-1.3 1.2-2.9 1.1-4.5 0-4.6.5-9.2 1-13.8.5-4 1.4-8 .4-11.9-1-4-.7-7.6.8-11.4 1.3-3.3 1.9-6.8 1.3-10.5-.6-4.5-1.2-9 .5-13.5.1-3 .6-5.9 1.3-8.7a35.5 35.5 0 0 0 1-17c-1.2-5-3.7-9.7-5.1-14.7z"/><path fill-rule="evenodd" clip-rule="evenodd" fill="#7AC14D" d="M193.4 128.6h-.6c.1 1 .3 2 .6 2.9v-2.9zM194 132v2.3c-1-.8-.4-1.9-.6-2.8l.6.5z"/><path fill-rule="evenodd" clip-rule="evenodd" fill="#C3D949" d="M186.7 219.5v.6c-1.8 3-.9 6.1-.3 9.1.5 3 1 5.8.9 8.8v.6c-1.2 0-.9-.9-.8-1.4 0-1.8-.4-3.6-1-5.4-.5-1.6-.9-3.3-1.6-4.9-.8-1.9-.8-3.6.6-5.1 1-.4 1.4-1.6 2.2-2.3z"/><path fill-rule="evenodd" clip-rule="evenodd" fill="#C8D948" d="M185.6 231.8c2 2 .4 4.7 1.6 6.8v1c-.2.3-.2.6-.5.8h-.3s-.2 0-.3-.2v-.5c0-2.1.2-4.2-.5-6.2v-1.7z"/><path fill-rule="evenodd" clip-rule="evenodd" fill="#AED14B" d="M185.6 254.3h-.6v-.6c-.4-2.2-.4-4.5 0-6.7-.2-1.2.4-2.3.6-3.4.4-.2.6 0 .8.3-.6 3.4-.3 7-.8 10.4z"/><path fill-rule="evenodd" clip-rule="evenodd" fill="#C8D948" d="M185 247v6.7a8.8 8.8 0 0 1 0-6.7zM186.1 243.6h-.5c.1-1.1-.4-2.4.5-3.4.7.8.6 1.7.5 2.7 0 .2-.2.5-.5.7z"/><path fill-rule="evenodd" clip-rule="evenodd" fill="#72BF4E" d="M186.1 258.2h.6v4.5l-.5-1.1a4.4 4.4 0 0 1 0-3.4z"/><path fill-rule="evenodd" clip-rule="evenodd" fill="#A5CE4C" d="M186.1 258.2v3.4c-.6-.4-.5-1.1-.5-1.7v-5.6c0-3.6 0-7.2.5-10.7v-.5c.7-.9 0-2 .6-2.9l.6-.5v2.2a64.4 64.4 0 0 0-1.2 16.3z"/><path fill-rule="evenodd" clip-rule="evenodd" fill="#7AC14D" d="M195.1 137c4 5.4 3.8 11.6 3.1 17.6-.3 3-.5 6.1-2 8.8.2-4.4 1.6-8.7 1.8-13.1.1-3.8-.8-7.2-2.1-10.6-.4-.8-.9-1.6-.8-2.6z"/><path fill-rule="evenodd" clip-rule="evenodd" fill="#A5CE4C" d="M191.2 133.7c-.3-1.7-.4-3.4-.3-5h-.8v3.1c0 3 .6 6 2 8.6 1.2 2.8 1.8 5.6 2 8.6.2 7.1-.7 14.1-1.2 21.2l.4-.7c.6-4.3 1.6-8.6 1.7-12.9.2-5 1-10.2-1-15.1-1-2.6-2.4-5-2.8-7.8z"/><path fill-rule="evenodd" clip-rule="evenodd" fill="#9ECC4C" d="M191.1 128.6h-.5v2.5c0 1-.3 1.9.6 2.6a69 69 0 0 1-.1-5z"/><path fill-rule="evenodd" clip-rule="evenodd" fill="#A5CE4C" d="M192.3 175.2c.3-1.5-.5-3 .6-4.5-.3 1.5.5 3.1-.6 4.5z"/><path fill-rule="evenodd" clip-rule="evenodd" fill="#67BD4E" d="M192.9 222.9c-.3 3.1.6 6.4-.6 9.5.3-3.2-.6-6.4.6-9.5zM193.4 216.7c-.3 2 .7 4.2-.5 6.2.3-2-.7-4.2.5-6.2z"/><path fill-rule="evenodd" clip-rule="evenodd" fill="#AED14B" d="M186.7 240.2c-.1 1 .4 2-.6 2.9v-2.8h.6z"/></svg>