<svg xmlns="http://www.w3.org/2000/svg" viewBox="0 0 424.1 83.62"><path fill="#010101" d="M419.66 59.47c-6.15-2.73-9.63-8.19-13.56-13.17-1.4-1.77-2.82-3.59-3.76-5.92 2.76-.36 4.68-1.6 4.88-4.34.18-2.62 1.38-4.67 2.74-6.8 2.21-3.49 2.24-7.26.22-9.41-1.76-1.89-3.7-3.62-5.6-5.36-2.45-2.25-5.35-2.69-8.43-1.73a16.5 16.5 0 0 1-6.11.63c-3.18-.22-6.36-.56-9.32.18-3.1-2.14-6.29-2.98-9.49-1.44-4.6 2.22-9.01 4.83-13.52 7.28-3.43-3.92-6.92-6.17-10.18-5.45-4.76 1.05-9.45-.2-13.95.43-4.28-3-7-4-10.24-2.2-3.97 2.2-8.05 4.05-12.21 5.8-.24.09-.45.25-.74.43-.47-.6-.89-1.26-1.42-1.8-2.73-2.78-5.9-4.75-9.92-3.58-3.22.94-6.43 1-9.7 1-8.11.03-16.22.1-24.33.1-1.2 0-2.45-.1-3.56-.48-2.08-.7-4.03-.44-6.06.15-2.47.7-4.4 2.24-6.1 3.72-3.6-.67-6.42-2.53-9.25-4.32-4.06-2.56-8.1-2.49-12.56-.83-5.02 1.87-10.16 3.66-15.74 2.96a7.5 7.5 0 0 0-4.7 1.16 80.72 80.72 0 0 0-5.42 3.48 7.69 7.69 0 0 0-2.13 10.56c2.67 4.33 5.48 8.56 8.24 12.83 1.79 2.78 4.5 4.04 7.66 4.09 2.63.03 5.02-1.04 6.97-2.78 1.38.1 2.66-.2 4.12.34-1.57 4.93-3.4 9.67-6.25 14.2-2.14-1.6-4.05-3.05-6-4.45-5.64-4.02-12.3-2.42-15.47 3.7l-.5 4.18c.3 1.83.94 3.57 2.3 4.82 3.52 3.23 7.37 6 10.44 9.83 2.49 3.12 6.78 3.07 10.63 2.69 7.6-.76 13.28-4.94 18.08-10.52 5.86-6.81 9.81-14.74 13.45-22.87 1.36-3.02 3.43-5.79 2.55-9.44 3.97-.56 5.86-3.24 7.43-6.01 1.4-.6 2.63-.56 4.15-.44-.58 8.07.35 16.01-2 23.77-1.53 5.02.6 9.12 5.45 11.4 1.24.57 2.62.94 3.61 1.95 3.02 3.07 6.58 3.71 10.4 2 3.74-1.66 4.62-4.99 4.62-8.78-.01-9.24.06-18.47.14-27.7 0-.91-.24-1.9.42-2.78 1.7-.1 3.4-.18 5.3.37a8.73 8.73 0 0 0 6.98 5.3c3.37.48 6.1-.85 8.68-3.35.2 6.12.09 11.79-.13 17.46-.03.73-.34 1.3-.67 1.9-3.33 6-1.41 11.43 4.96 14.06 1.99.82 3.93 1.61 5.64 3.03a7.1 7.1 0 0 0 7.8 1.03c2-.95 3.96-.88 6-.9 2.6-.05 5.18-.15 7.77-.11 2.73.03 5.45-.92 8.2.07 2.46.88 4.73.04 6.92-1.08 1.88-.96 3.06-2.67 4.38-4.25a17.17 17.17 0 0 1 4.13 3.75 8.5 8.5 0 0 0 8.33 3.03c4.25-.72 6.77-3.92 6.83-8.73.07-5.3.02-10.6.02-15.9 1.39 1.1 2.3 2.3 3.07 3.6 3.65 6.15 7.2 12.36 10.9 18.47 1.94 3.2 4.36 6 7.58 8.03 3.53 2.2 7.27 2.1 10.59-.4a11.18 11.18 0 0 1 4.13-2.03c2.97-.73 5.08-2.44 5.91-5.51.12-.46.12-1.08.84-1.12v-1.55c-1.25-2.25-1.78-5.06-4.44-6.25zM359.32 45.2c-2.53-.57-4.98-.7-7.28.41-2.4 1.17-3.67 3.27-4.51 5.9-4.63 1.28-9.34 1-14.1.82-.66-1.77-.48-3.46-.39-5.1 1.12-.54 1.64.16 2.26.8 3.88 3.98 12.07 2.68 13.64-3.72.44-1.82 1.12-3.59 1.7-5.39 3.36-.12 6.38-.8 8.68-4.07V45.2zM196.95 17.97c3.05-4.47 2.84-9-.61-11.82-1.86-1.53-3.8-2.98-5.75-4.38-3.48-2.5-8.22-2.32-11.26.36-3.06 2.7-3.6 6.66-1.48 10.82.2.38.47.78.47 1.17.03 4.97.02 9.93.02 15.42l-2.64-2.06c-6.14-4.9-12.27-9.79-18.42-14.67-3-2.37-5.07-2.43-7.82.04-1.74 1.55-3.78 2.36-5.87 3.15-2.17.81-4.35 1.6-6.99 2.57-4.56-4.96-10.7-4.34-16.9-2.87 0-2.45.02-4.25-.01-6.05-.12-5.98-4.62-9.7-10.52-8.76-1 .15-1.93.46-3.03.33-5.29-.66-8.6 2.8-7.83 8.13.26 1.81.9 3.57 1.4 5.5-1.6-.21-3.06.42-4.6-.53-3.32-2.04-6.64-1.9-9.93.34-3.06 2.08-6.18 4.1-10 4.57-3.31-2.53-7.1-4.24-10.52-6.55-3.9-2.63-9.6-1.63-12.04 2.16-1.85 2.87-4.38 5.06-6.44 7.69l-8.55 10.9c-3.3-4.41-6.47-8.73-9.74-12.94-2.17-2.79-4.25-5.65-7.2-7.74-2.13-1.5-4.18-1.74-6.52-.52-3.28 1.7-6.64 3.28-9.96 4.92-5 2.47-5.62 5.9-1.46 9.54 2.08 1.84 2.84 3.89 2.84 6.55 0 4.4-.1 8.8-.37 13.2a14.84 14.84 0 0 1-1.28 5.71c-2.14 4.48-1.21 8.86 2.3 12.28.76.73 1.33 1.55 1.87 2.43a8.21 8.21 0 0 0 9.58 3.82c3.79-1.02 6.05-4.08 6.08-8.29.01-2.76-.06-5.52-.03-8.28.01-.58-.44-1.37.45-1.8 1.73 2.3 3.37 4.63 5.16 6.84 2.73 3.34 6.47 4.44 10.16 2.9 3.25-1.34 6.4-2.9 9.6-4.4.83-.4 1.75-.76 2.14-1.74l.66-1.59.12 1.88.06.9c.3 5.36.43 10.69.1 16.02v-.03.03c.06 3.44 1.66 5.99 4.76 7.37 3.06 1.36 6.22 1.14 8.73-1.13 2.07-1.87 4.43-3.23 6.65-4.84 3.08-2.23 4.28-5.59 3.5-9.3-.35-1.7-1.22-3.23-1.24-5-.08-9.24-.2-18.47-.3-27.7 0-1-.02-2 1.42-2.35l.13 1.34c.8 14.49 6.41 26.3 19.07 34.15a4.59 4.59 0 0 1 2 2.22c-.42 8.75 4.14 16.2 9.96 15.72 3.48-.3 7.3-.28 9.96-3.45 3.46-4.14 2.41-8.69 1.25-13.04.87-1.19 1.96-1.52 2.98-1.98 4.06-1.88 8.24-3.5 11.87-6.23a14.5 14.5 0 0 0 5.84-9.11 123 123 0 0 0 1.67-13.86c.11-1.37-.12-2.93 1.53-4.34v13.3c0 3.26.1 6.51-1.22 9.63a8.19 8.19 0 0 0 .32 6.8 24.52 24.52 0 0 0 5.89 7.77c4.6 4.08 11.7 1.56 13.25-4.43.34-1.28.3-2.56.31-3.85V42.37l18.18 14.79c-.12 1.86-.26 3.49-.31 5.12-.12 3.77 1.75 6.87 4.83 8.13a8.42 8.42 0 0 0 9.66-2.28c1.6-1.9 3-3.99 4.48-5.98l.57-3.74c.4-2.21-.93-4.19-.94-6.3-.08-11.39-.04-22.78-.04-34.14zM52.14 46.64c.03.34.03.69 0 1.03v4.46l-.93-1.86-2.5-2.1 2.52-4.21.9-1.2v3.88z"/><path fill="#999799" d="M130.65 20.3a5.3 5.3 0 0 0-5.14-.77c-3.66 1.32-7.28.24-11.08 0 .19-3.42.38-6.59.52-9.76.08-1.9-.61-3.59-2.55-4.02-3.02-.68-5.97.77-8.88.21a5.94 5.94 0 0 0 .3 5.65c1.46 2.53 1.07 5.07.37 7.92-1.3 0-2.5-.02-3.7 0-2.96.03-5.99.69-8.62-1.53-.98-.83-2.3-.55-3.4.18-3.66 2.45-7.35 4.83-12.21 5.66l4.42 4.8v1.38c-.36 7.96 1.97 15.15 6.28 21.75C91.3 58.41 98 62.23 104.51 66.7c.03.79.31 1.97-.17 3.05-.94.44-1.66-.73-2.58-.14.12 3.88.37 7.67 5.03 9.22.5-.13 1.07-.36 1.66-.41 5.4-.46 6.84-2.42 5.67-7.75-.42-1.92-1.14-3.81-.78-5.5 1.89-2.87 4.67-3.9 7.34-5.07a70.22 70.22 0 0 0 8.1-4.05 11.4 11.4 0 0 0 5.77-8.99c.21-1.97.37-3.95.68-5.9.69-4.2.01-8.63 2.43-12.56.95-1.55.02-3.15-1.22-4.42-1.66-1.7-3.9-2.53-5.79-3.88zm-27.1 30.18c-4.65-2.58-11.21-17.33-9.26-22 1.6.52 3.24.73 4.92-.05 1.41-.66 2.44-2.24 4.62-1.95.19 8.01-1.68 15.91-.28 24zm19.4-6.9c-.32 6.39-4.79 8.56-9.68 11.07-.39-2.54.2-25.66.65-27.5 2.8.2 5.59.56 8.5 1.49 1.83 4.89.8 9.88.54 14.93zM69.6 28.5c0 7.2-.02 14.52.02 21.83 0 2.94.18 5.87.23 8.8.03 2 .28 3.9 1.03 5.8 1.15 2.9.56 4.47-1.96 6.2-2.1 1.47-4.45 2.57-6.23 4.55-.97 1.09-2.46 1.14-3.85.44-1.48-.75-1.98-2-1.98-3.61 0-10.7-.04-21.4-.05-32.09v-11a125.9 125.9 0 0 0-13.93 19.2c1.04 2.05 3.14 2.82 4.5 4.37-3.01 2.4-6.78 3.01-10.04 4.75-1.97 1.05-3.57-.54-4.76-2.13-3.65-4.92-7.28-9.85-10.92-14.78-.7-.95-1.42-1.88-2.63-3.46 0 8.56-.04 16.31.03 24.07.02 2.18-.34 4.07-2.68 4.7-2.28.61-3.7-.55-4.67-2.64-.45-.97-1.39-1.75-2.21-2.49-2-1.8-2.63-4.19-1.45-6.33 2.12-3.86 1.82-8 2.15-12.08.17-2.23.06-4.48.12-6.72.15-5.21.05-10.32-5.78-13.55l12.86-6.41c7.93 7.51 13.53 16.96 20.41 25.83l3.14-4.46c4.11-5.87 8.24-11.72 13.61-16.55.54-.48.77-1.07 1.04-1.72 1.2-2.9 4.13-3.93 6.8-2.23 2.6 1.67 5.22 3.33 7.93 4.84 3.12 1.74 2.83 4.46-.73 6.87zm289.6 24.7a30.36 30.36 0 0 1-.7 6.15c-1.11 4.52-4.14 6.12-8.65 4.89a6.57 6.57 0 0 0-2.3-.06c-6.2.6-12.4.6-18.58.43-3.06 2.3-3.82 2.24-6.7-.19-1.62-1.36-3.72-1.76-5.6-2.6-3.6-1.58-4.43-4.17-2.31-7.44.52-.8.99-1.55 1.07-2.57.61-7.75.32-15.5.3-23.4-2-1.06-3.51-2.2-3.07-4.5.43-2.3 2.23-2.92 4.2-3.16 2.06-.26 3.7-1.31 5.3-2.52 3.96-2.99 5.65-2.83 9.15.98 5.32-.91 10.82.74 16.31-.57 2.43-.59 5.67 1.95 6.63 4.82.68 2.04 1.1 4.17 1.5 6.28.37 1.98-.58 3.35-2.41 4.05-1.9.73-4 .54-4.78-1.31-2.6-6.14-7.7-6.39-13.16-6.18-2.07.09-4.14.11-6.26.86-1.1 2.38-.84 4.94-.79 7.78h9.55c.7.17.96-.46 1.4-.85 1.56-1.38 3.3-1.4 5.03-.44 1.78 1 2.08 2.72 1.58 4.5-.6 2.15-1.41 4.25-2.08 6.22-3.6 1.98-4.7 1.6-6.62-2.34-2.71.2-5.51.4-8.48.6-.8 4.63-.6 8.95.3 13.22 1.66 1.21 3.53 1.06 5.3 1.25 4.4.47 8.79.19 13.12-.71 2.4-.5 4.27-1.63 4.96-4.3.53-2.02 2.11-2.9 4.2-2.52 1.98.35 2.66 1.87 2.6 3.63zM193.85 10.65c1.7 1.83.24 3.67-1.65 4.89v37.54c0 .25-.02.56.1.76 2.8 4.62-.17 7.76-2.8 10.98-1.07 1.32-2.5 1.9-4.14 1.33-1.7-.6-2.24-2-2.21-3.7.04-2.42 0-4.83 0-7.6a593.2 593.2 0 0 0-27.33-22.05v28.26c0 1.03.1 2.06-.35 3.06-1 2.19-3.76 3.12-5.33 1.42-1.78-1.94-3.66-3.9-4.81-6.33a4.93 4.93 0 0 1 .28-4.5c.84-1.6 1.05-3.25 1.04-4.99-.03-6.38-.2-12.77-.04-19.14.08-3.42-.89-5.85-4.23-7.1-.58-.22-1.31-.43-1.58-1.38 4.17-1.9 8.99-2.54 12.49-6.43l29.8 23.79v-14.7c0-3.1 0-6.21.05-9.32.04-1.9.08-3.7-1.38-5.3-1.04-1.14-.71-2.63.2-3.82.96-1.23 2.21-2.07 3.82-1.49 3.22 1.18 5.83 3.41 8.07 5.82zm222.4 52.3c-3.18-1.25-5.45-3.58-7.63-6.04-5.1-5.77-9.9-11.77-12.6-19.17 1.94-1.16 4.41-1.4 6.85-2.46-1.06-4.8 3.91-7.52 4-12.15l-5.19-4.96c-1.24-1.19-2.82-1.59-4.3-.93-2.68 1.17-5.4.88-8.15.81-3.5-.09-7.04-.54-10.32.99-2.15-3.26-4.07-3.71-7.26-1.88-2.75 1.6-5.34 3.42-8.42 4.45-2.76.92-3.07 4.2-.78 5.99.52.41 1.34.43 1.54.96v19.35c0 2-.31 3.9-1.16 5.77-1.21 2.65-.52 4.84 1.82 6.59a23.78 23.78 0 0 1 4.93 4.52 3.7 3.7 0 0 0 4.4 1.3c1.66-.6 2.31-1.99 2.38-3.67.03-.78.02-1.55.02-2.33V42.62c5-3.29 6.28-3.1 9.4 1.13 1.13 1.52 2.13 3.14 3.13 4.75 3.67 5.94 6.68 12.27 10.65 18.03 1.53 2.21 3.2 4.27 5.53 5.73 1.89 1.19 3.67 1.32 5.45-.21a11.57 11.57 0 0 1 5.03-2.54c1.74-.4 3.15-1.14 3.3-3.1.14-1.84-1.14-2.88-2.62-3.47zM388.9 30.42c-4.4 1.1-8.74 2.5-13.46 3.88.37-4.04 2.6-6.38 5.52-8.47 3.96 2.44 7.7-2.23 11.91-.45-.4 2.5-1.2 4.35-3.97 5.04zm-81.51-3.5c.4 2.07-.36 3.6-2.3 4.35-1.86.73-3.96.53-4.8-1.3-1.8-3.94-5.11-4.19-8.65-4.2-2.05-.02-4.12-.16-6.14.37a14.67 14.67 0 0 0-.64 4.9c-.1 9.83-.16 19.66-.24 29.49-.01 1.89.32 3.99-1.85 4.96-2.15.97-3.9.28-5.5-1.5-1.21-1.33-3.13-1.76-4.75-2.54-2.54-1.22-3.75-3.13-2.67-5.67 1.66-3.9 1.42-7.94 1.72-11.94.44-5.76.43-11.53.26-17.25-5.57-2.2-10.57-.72-13.98 4.06a4.41 4.41 0 0 1-5.72 1.45c-2.06-1.05-2.43-2.71-1.66-4.79.44-1.21.75-2.47 1.18-3.69 1.69-4.8 5-6.47 9.9-5.1 1.16.31 2.37.38 3.56.57 5.65-.23 11.3-.27 16.94-.07 2.56-.5 5.15-.18 7.72-.23 3.28-.06 6.5-.03 9.7-1.08 3.04-1 6.15 1 6.96 4.12.43 1.67.63 3.39.96 5.08zm-56.62 13.89c-3.04 5.7-5.29 11.8-8.73 17.3-2.67 4.26-5.52 8.37-9.33 11.7-4.45 3.88-9.44 6.33-15.59 5.3-1.86-.31-3.35-.95-4.06-3.04-.56-1.67-2.41-2.38-3.7-3.5-1.5-1.3-3.05-2.54-4.62-3.76-1.51-1.18-2.26-2.66-1.56-4.52.7-1.87 2.18-2.8 4.17-2.96 1.74-.13 3.2.5 4.55 1.52 1.85 1.41 3.7 2.82 5.64 4.12 2.42 1.64 4.77 1.43 6.36-.91 4.46-6.57 6.96-13.94 8.67-22.1-3.94 0-7.38-.08-10.8.03-1.31.03-2.36.88-3.42 1.67-2.42 1.8-5.08 1.4-6.74-1.1-2.74-4.07-5.35-8.25-7.99-12.39-.97-1.52-.9-3.07.54-4.17a47.27 47.27 0 0 1 5.63-3.61c1.48-.83 3.02-.15 4.53.4 5.52-1.91 11.48-2.18 16.89-4.67 1.84-.85 3.88-.34 5.7.72 2.98 1.72 5.77 3.76 9.17 4.7 1.72.48 2.37 1.99 2 3.72-.44 2.11-2.03 3.08-4 2.9-7.96-.68-15.92 1.79-23.87-.11-.12-.03-.29.12-.58.26a9.28 9.28 0 0 0 2.28 3.43h12.89a6.7 6.7 0 0 0 3.16-1 4.88 4.88 0 0 1 6.16 1 23.38 23.38 0 0 0 4.87 3.77c2.02 1.23 2.93 3.12 1.78 5.3z"/><path fill="#FEFEFE" d="M248.73 38.54c-5.29 10.74-9.31 21.88-18.55 29.78-4.07 3.48-8.66 5.18-13.9 3.79-2.47-4.74-7.32-6.68-10.62-10.41.94-2.13 2.45-2.07 4.1-.95 2.13 1.45 4.14 3.09 6.28 4.53 3.72 2.5 7.63 1.91 10.18-1.78 4.56-6.62 7.19-14.1 8.78-21.92.58-2.83-.8-4.28-3.63-4.34-2.93-.06-5.87-.04-8.8-.02a8.2 8.2 0 0 0-5.06 1.66c-.85.64-1.66 1.28-3.17.72-2.94-4.04-5.7-8.57-8.55-13.23l5.45-3.69 2.92 1.1c5.65-2.22 12.04-2.29 17.7-5 .64-.3 1.6-.32 2.28-.09 4.03 1.4 7 4.81 11.45 5.5l-.24 1.22c-5.01-1.17-9.74.55-14.59.78-4.9.23-9.82-1.78-14.75-.2.17 2.81 2.1 6.14 4.92 8.58h14.58c.09 0 .2.02.25-.03 6.03-4.06 8.6 2.3 12.97 4zM354.7 53.69c-.8 2.9-2.96 4.48-5.67 5.12a43.79 43.79 0 0 1-19.73.33c-1.77-.39-2.67-1.36-3.04-3.05-.96-4.35-.8-8.74-.42-13.13.07-.83.34-1.7 1.31-2.61 3.87-.81 8.07-1.3 12.33-.66 1.26.71.11 2.83 1.88 3.14 2.46-5.32 2.49-6.3.7-6.86-5.31 3.49-10.66 1.3-16.05 1.68-.6-3.7-.5-6.85-.06-10 .27-1.94 1.37-3 3.32-3.43 2.64-.6 5.3-.48 7.97-.6 5.87-.26 10.8 1.17 13.35 7.1.1.22.36.36.54.53.9.3 1.51 0 1.98-.9-1.09-3.43-.32-8.01-4.45-8.9-7.82 1.05-14.71-.62-21.42.98-.34-1.33 1.14-1.59.85-2.6-.68-.86-1.74-1.17-2.5-.56-3.01 2.42-6.43 3.9-10.08 4.94-.07.02-.06.3-.1.5.43 1.3 2.07.68 2.98 2.04 0 8.13.28 16.64-.17 25.17-.13 2.38-2.2 3.86-2.32 6.27 3.1 2.25 7.23 2.4 9.8 5.65l1.4-2.29c7.83 1.04 15.54.33 23.3-.37l1.9 1.02c3.5-1.19 4.8-4.67 3.67-9.86-.95.17-1.1.77-1.27 1.35zm61.47 12.66c-3.15 1-5.93 2.06-8.08 4.2-2.82-.92-4.4-2.97-5.9-5.06-4.12-5.77-7.12-12.2-10.83-18.22a86.36 86.36 0 0 0-3.42-5.18c-4.01-5.56-8.85-5.9-13.83-1.02-1.3 7.4.31 14.93-.9 23-3-2.42-5.1-5.12-8.24-6.9 2.74-10.23 1.98-20.54 1.86-30.63-2.12-.83-2.26-.93-3.13-2.22 3.97-.94 6.92-3.75 10.56-5.25.4-.17.98.1 1.5.17.2 1.58-1.54 1.85-1.81 3.01-.25 1.06-.9 2.1-.1 3.17.2.02.42.11.5.04 4.18-4.09 9.2-5.5 14.93-4.74 3.19.42 6.36.5 9.24-1.14 2.4 1 3.74 2.96 5.52 4.72-1.26 2.97-4.04 5.28-3.8 8.79-4.66 1.8-8.94 4.08-14.08 3.29 2.4 2.4 5.5 3.03 7.66 3.97 5.67 10.57 11.94 19.74 22.35 26zM390.2 32.87c3.94-1.17 6.1-5.25 4.93-9.54-3.92-2.44-7.8-.35-11.58.52l-2.31-1.2c-6.56 2.86-10.13 9.74-8.07 15.27 5.68-1.68 11.36-3.35 17.03-5.05zm-89.2-12.75c-2.48.57-4.98 1.54-7.7 1.53-9.58-.04-19.16.01-28.73.02-1.12 0-2.22 0-3.33-.33-4.09-1.25-5.8-.33-7.16 3.76-.46 1.37-.89 2.74-1.32 4.09 2.13.85 2.17.84 3.27-.78 3.62-5.27 12.43-7.22 18.48-3.85-.17 11.12.97 22.45-2.26 33.6 3.31 1.6 6.3 3.08 9.44 5.52.31-13.6-.54-26.52 1.17-39.62 4.04-1.34 7.87-.97 11.73-.92 4.38.06 6.54 3.5 9.42 6.21 1.21-4.04-.16-7.8-3.01-9.23zM37.95 46.7c-7.14-9.45-13.25-19.04-20.94-27.54l-7.27 3.69c2.18 2.03 2.9 4.57 3.05 7.1.32 5.78.37 11.56-.16 17.33-.26 2.82-.24 5.69-2.01 8.15-.46.64-.58 1.63-.13 2.24 1.51 2.08 3.44 3.8 4.78 6.06l.84-.32v-32.8l.87-.29c6.88 7.93 12.21 17.1 19.17 25.23 1.76-1.92 4.25-1.72 6.07-3.02-.84-1.3-1.94-2.2-2.5-3.94 5.2-8.93 11.26-17.47 18.7-24.97l1.05.27v49.77l.94.35c2.23-2.9 5.92-3.82 8.02-6.07-2.78-14.23-1.2-28.04-1.36-41.8 1.02-.6 2.17-.27 2.7-1.72-3.9-1.32-6.67-5-9.6-5.44-9.4 8.61-15.83 17.82-22.22 27.72zM184 8.65c1.64 1.42 1.92 3.28 1.9 5.37-.07 9.23-.03 18.47-.06 27.7 0 .82.31 1.75-.92 2.71L153.5 19.32c-2.02 1.54-4.13 2.47-6.4 3.46 1.22 1.65 1.9 3.31 2.07 5.26.6 6.9.36 13.8.37 20.7 0 1.9-.1 3.8-.76 5.6-1.32 3.56.15 7.23 4.06 9.25V28.07c1.53.05 2.33.92 3.2 1.56a609.55 609.55 0 0 1 27.14 21.57c2.58 2.15 3.42 4.54 2.9 7.7-.25 1.48-.4 3.03.02 4.8 2.33-1.12 2.86-3.45 4-4.32-1.28-15.58-.29-30.71-.54-45.82.54-.74 1.76-.32 1.95-1.3-3.69-3.93-6.16-5.15-7.52-3.61zM135.34 27.1c-3.37 5.63-2.46 11.87-3.18 17.77-.57 4.67-2.43 7.95-6.65 9.92-1.18.55-2.32 1.17-3.5 1.7-3.97 1.76-8.1 3.26-11.52 6.9-.87 3.62 1.9 7.73.9 12.06-1.86.12-3.3.2-4.7.3-.73-.45-1.31-.94-1.51-1.74 3.48-3.06 1.64-6.96 1.9-9.95-7.67-3.44-14-7.83-18.33-14.64-3.64-5.71-5.64-11.99-5.38-18.85.07-1.88-.14-3.6-1.7-5.08l8.8-5.22 4.02 2.4c3.92-.73 7.9-.28 12.05-.6 1.23-4.41 1.95-8.72-1.14-13.17 2.45.21 4.3-1.01 6.86-.39l-.76 13.6c5.31.28 10.62 1.71 16.12-.36 2.48 1.8 5.68 2.66 7.72 5.35zm-28.59 29.54c-2.02-11.23-.02-21.93-.16-32.86-2.42.08-4.64-.76-6.48.81-2 1.7-3.95 2.44-6.05.62-2.84 1.5-3.51 3.45-2.75 7.64a39.16 39.16 0 0 0 6.62 15.83c2.18 3.08 4.64 5.93 8.82 7.96zm18.9-27.32c-.27-1.15-.46-2.53-1.76-3a34.5 34.5 0 0 0-13.15-1.98c.45 11.32-.94 22.35-.34 33.63 4.48-.38 7.77-2.68 11-5.11 1.31-1 2.82-2 3.17-3.63 1.43-6.57 2.62-13.18 1.08-19.91z"/></svg>