<svg xmlns="http://www.w3.org/2000/svg" viewBox="0 0 219.6 308.4"><path fill-rule="evenodd" clip-rule="evenodd" fill="#BFD849" d="M123.2 150c.9-2.1.6-4.6.2-7-.7-4.2-2-8.3-3.3-12.3a26.6 26.6 0 0 1-.8-14.3c1.1-6 2.5-12.1.2-18.2-.7-1.9-.8-3.8-1-5.8-.6-3.5-.6-7.1-1.6-10.5a24.7 24.7 0 0 1-.4-12.7c.8-3.3.4-6.6-1.5-9.7a10.8 10.8 0 0 1-1.5-5.8c0-5 .5-10-.6-14.8-1.8-7.6-8-15.2-18.5-12 .2 1.6.5 1.7 3.2 1.9l.9-.4c4.5 0 11.3 5.6 11.8 10 .6 4.8 1 9.5.2 14.2-.1.4 0 1-.7.8l-.5 1c-1.5 3 .3 4.9 2.4 6.4 2.6 2 3.2 4.6 2.3 7.7-.3 1-.8 2-.8 3.2-.2 2.7-.6 5.5 0 8.1a52.8 52.8 0 0 1 1.5 15.5c0 2.4.5 4.6 1.8 6.6s1.9 4.1 1.3 6.4c-1.5 6.4-2 13-2.3 19.4 0 .9 0 1.7.5 2.4 2.5 4.2 3 9 4.6 13.4.9 2.7.8 5.4-.6 7.9l-.2.5h2.7l.7-1.9z"/><path fill-rule="evenodd" clip-rule="evenodd" fill="#51B94E" d="M139.8 95.5c-1.4-7.6-2.4-15.2-2.7-22.9 0-.4 0-.7-.2-1a29.6 29.6 0 0 1-1.8-10.1c-.5-2.8-.6-5.6 0-8.3l.4-.8c.3-.7.4-1.4.4-2.2.8-2.6 2-5 3.2-7.3 2.4-4.6 4.3-9.4 2.7-14.7-1-3.4-3.1-6-5.3-8.8-.6-.6-1.5-1-2.2-1.7-5.1-4.3-10.9-5.7-17.4-4-1 .2-2 .5-3 .4-2.9.5-5.6 1.4-8.3 2.4-4.3 1.6-8.5 3.4-13 4.4-3.1.7-6 2.2-8.6 4.3a1 1 0 0 0 0 1c.4.2.8.3 1.2.2 1.6-.3 3-1 4.5-1.7 4.6-1.8 9.5-2.5 14-4.5a62.3 62.3 0 0 1 16.1-4.6c10.5-1.7 21 9 18.7 20.1-.7 3.2-1.5 6.4-3.1 9.3-3.7 6.4-3 13.3-2.3 20.1.6 5.5 3.3 10.8 1.9 16.5a62.6 62.6 0 0 0 2 9.8c1 3.2.8 6.3-.6 9.3a35 35 0 0 0-2.9 10.7c-.6 5.4-2.4 10.7-.3 16 .2.7 0 1.5.1 2.3 0 .4.2.9.4 1.3 1.4 2 1.6 4.5 2.4 6.8 1.7 4.9 1.8 9.6-.7 14h2.4l.1-.2c1.8-2.8 2.1-5.8 1.6-9-.5-3.4-1.3-6.7-2.5-9.8-3.8-9.6-2-19 .5-28.4.8-3 2.8-5.7 2.3-8.9z"/><path fill-rule="evenodd" clip-rule="evenodd" fill="#3BB54F" d="M148 32.3c.2-1.4-1.6-.4-1.8-1.4-3.4-8.7-5-11.3-11.2-15.7-4.2-2.9-8.8-5.2-14.1-4.2a66 66 0 0 0-17.1 5c-.8.9-2 .7-2.9 1-1 .9-2.3 1-3.4 1.2-5.8 1.2-11 4.1-16.2 6.7l-1 .5L82 27c.7-.3 1.4-.8 2.1-1.5 6.2-4 13.8-4.7 20.4-7.8 3-1.4 6.1-2.3 9.3-2.8 8.4-3 15.8-1.6 22.3 4.6 7.1 7.8 8 13 3.5 22.4-.4.8-1.3 1.6-.6 2.8.4.2.8.2 1.2-.1 0-1 .9-1.4 1.5-1.8 2.8-2.1 5-4.5 4-8.2 1-.9 2-1.2 2.4-2.3z"/><path fill-rule="evenodd" clip-rule="evenodd" fill="#25B14F" d="M123.3 8.6c2-.8 2.7-4 6-3.1.7 3.4 3.7 4.5 6.8 5.3 1.2.3 2.3.7 3.2 1.6 2.2 2.1 4.5 4 7.5 4.7 1.1.3 2 1 2.3 2.3-.5 1.1-1.6 2-1.4 3.4 2.2 3.3 7 .7 9.1 4-1.6 2.7-4.6 2.2-6.8 3.3-1.8 1.3-2.9.3-3.9-1.2-1.8-2.7-3-5.7-5-8.3a25 25 0 0 0-18.4-9.7c-.6 0-1.3 0-1.6-.8.3-1 1.6-.7 2.2-1.5z"/><path fill-rule="evenodd" clip-rule="evenodd" fill="#2DB34F" d="M138.6 104l.5.4a7 7 0 0 1 0 3.7c-.7 2.6-1 5.3-2.2 7.9-.3.8 0 1.8.2 2.7 1.4 5.5 3 10.9 5 16.1 1.1 3.2 1.7 6.4 1 9.9-.4 2-1 3.7-3 4.8-.4-.4-.7-1-.6-1.5.8-6.3-1.6-12.1-3.5-17.8a30.6 30.6 0 0 1-.7-16c.5-2.3.2-4.8 1-7 .5-1.2 0-3.2 2.3-3.2z"/><path fill-rule="evenodd" clip-rule="evenodd" fill="#2BB24F" d="M138 49c-.5 2.2.2 4.2 1 6 .7 1.6 1 3.1 0 4.6-1.7 2.7-.7 4.9 1.2 7 .8.9 1.8 1.6 2.2 3 0 1.7-.6 3.4-1.4 5a8.4 8.4 0 0 0 .2 8c1.8 3.5 1.8 7.6 2.7 11.4.4 2-.8 3.7-2.6 4.8-1.5-1.6-.6-3.7-1.1-5.6-1-3.4-2.5-6.9-2-10.3 1.2-9.4-3.7-18-2.7-27.2.2-2.5 0-5 2.4-6.6z"/><path fill-rule="evenodd" clip-rule="evenodd" fill="#DBDD46" d="M120 151.9h-.2.3zM120.5 151.7c1.5-2.9 1.7-5.7.8-8.8-1.5-5-2.8-10-5.3-14.6.4-1.5.7-3 .6-4.4-.2-5 .9-9.8 1.8-14.6.6-3 .3-5.5-1.3-8a9 9 0 0 1-1.6-5.4c0-3.1.3-6.3-.2-9.3-.8-5-1.9-10-1.5-15.1l-.4-.2-.4.4a14 14 0 0 0 0 9.8c1 3.2 1.3 6.5 1 10-.5 4-1.7 8.5 2.4 11.7.4.3.4.9.3 1.4.3 1 .5 2.1.3 3.2l-2.7 14.1c1.8 2.8-.6 5.8.2 9l2.5 2c-.3 2.7.7 5 1.4 7.6 1 3.6 3 7.2.9 11.1.1.2.3.3.5.3h.3l.4-.2z"/><path fill-rule="evenodd" clip-rule="evenodd" fill="#2DB34F" d="M97.6 16.7c-1.7-.1-3.5-1.2-5 .4-3.7 3.7-9.2 4.3-13.1 7.5l1.4 1.3 1.1-.5C87.2 23 92.2 20 98 18.8c1-.2 2.5-.3 3-1.7l-3.3-.4z"/><path fill-rule="evenodd" clip-rule="evenodd" fill="#2CB24F" d="M123.3 8.6c.2 1.3-1.7.4-1.6 1.6 13.3.5 20.7 8.8 25.5 19.4 1.3 1 2 .2 2.8.5l-2 2.2c-.7-1-1.1.8-2.3-.2-.6-2.9-2.3-6-4-9-3.1-6.2-13.7-12.4-20.3-11.5-5.3.7-10.5 2.3-15.5 4.2-.7.2-1.4.7-2.1.2 1.5-3 4.3-3.5 7.2-3.8 4.3-.5 8.3-2 12.3-3.6z"/><path fill-rule="evenodd" clip-rule="evenodd" fill="#4EB84F" d="M138.6 104c-2 1.2-1.6 3.3-2 5.2l-1.5 10.6c-.6 5 1.1 9.6 2.7 14.1 1.8 5 2.7 10.2 2.4 15.6-.7.8-1.3 1.7-2.3 2.1 2.7-7.7-.4-14.8-2.6-21.9a24 24 0 0 1-1.2-10.2c.6-5.7.7-11.6 3.4-17 2-4 2-8.1.8-12.3-1.3-4-1.7-8.1-1.5-12.3.1-2.2 0-4.3-.6-6.4a1 1 0 0 1 1-.1c1.4 1.6 1.1 3.5 1 5.3-.6 5.2.4 10 1.7 15 .8 2.8 1 5.7-.2 8.5-.8 1.2-1.5 2.3-1 3.8z"/><path fill-rule="evenodd" clip-rule="evenodd" fill="#3AB54F" d="M139.7 100.2c.2-5.2-.6-10.3-2-15.3-1-3.3-.2-6.8-.3-10.2-.1-1.1.4-2.3-.6-3.2a35.9 35.9 0 0 1-1.7-19v-2.3c1-1 1.3-2.2 1.9-3.4.3-1 .6-2.2 2-2.2h1.2c.4 2-.4 3.5-2.3 4.5-2.2 4.2-1.6 8.8-1.5 13.3.2 5.2 3.4 9.8 2.6 15-.8 5 .4 9.8 1.7 14.5.6 2.3.6 4.6.6 7l-1.6 1.3z"/><path fill-rule="evenodd" clip-rule="evenodd" fill="#E0E347" d="M113.8 71.5h-.5c-.5-.3-.2-.8-.5-1.1l.5-2.1c1-3.5.7-4.9-2.6-6.5-3-1.5-3.9-3.9-3.6-6.9.7-.7 1.5-.3 2.2-.4-.2 2.6.8 4.5 3 6 2.6 1.5 3.4 5.2 2.2 8.4-.3.8-.8 1.6-.7 2.6z"/><path fill-rule="evenodd" clip-rule="evenodd" fill="#E1E247" d="M113.3 81.6c1.4 3 1.7 6.2 1.4 9.6-.4 4-1.7 8.3 2 11.7.6.4.6 1.1 0 1.7-.9-2-3.2-2.6-4-4.5-.2-1.5.5-3 0-4.5.9-3.6.6-7.3.9-10.9 0-.8-.5-1.7-.8-2.6 0-.2.2-.4.5-.5z"/><path fill-rule="evenodd" clip-rule="evenodd" fill="#D3DE48" d="M120.5 151.7h-1.2l-.2.2h1.4v-.2z"/><path fill-rule="evenodd" clip-rule="evenodd" fill="#DDE248" d="M110.5 53.6l-.4.2-.3-.4c-1.5-3.6-.3-7.3-.1-11-.2-1-1.6-.8-2-2 .5-.6 2-.4 2.1-1.8l-.2-.5.5-.4c1.4 1 .6 2.5.7 3.6.3 4.1.6 8.2-.3 12.3z"/><path fill-rule="evenodd" clip-rule="evenodd" fill="#D3DE47" d="M94.2 27.2c1.2.8 2.5 1 4 1.1l.1.5-.1.2-.8 1.7-6.6-2.4c-1.4-.9-3.3.7-4.6-1 1-1 2.3-1 3.5-1.3 1.6 0 3.2.1 4.5 1.2z"/><path fill-rule="evenodd" clip-rule="evenodd" fill="#E1E147" d="M98.2 29v-.7a6 6 0 0 1 6.7 2c1.9 2.4 4.5 4.3 5 7.5v.8c-2.4-1.5-3.9-3.7-5.4-5.9a8.1 8.1 0 0 0-6.3-3.7z"/><path fill-rule="evenodd" clip-rule="evenodd" fill="#ECEE4A" d="M113.3 81.6l-.5.5c-.8-.7-.7-1.6-.7-2.6-.3-2.1-.4-4.3 0-6.4-.3-1 .5-1.8.7-2.7l.5 1c-.8 3.5-.8 6.8 0 10.2z"/><path fill-rule="evenodd" clip-rule="evenodd" fill="#C5DA4A" d="M90.8 28.3c-1.3-1.3-3.2.2-4.5-1-.3-.5-.7-.6-1.1-.6-1 .2-2 .3-2.7.8l1.4 1.4a18 18 0 0 1 7-.6z"/><path fill-rule="evenodd" clip-rule="evenodd" fill="#87C54C" d="M87.4 26c-.7-.3-1.5-.4-2.2 0l-1 .1c-.9.2-1.7.4-2.3.9l1 1c.8-.4 1.6-.6 2.3-.8.5-.9 2.3.6 2.2-1.3z"/><path fill-rule="evenodd" clip-rule="evenodd" fill="#F8F64A" d="M112.8 95.6c.7 1.5.8 3 0 4.5-.9-1.5-.4-3 0-4.5z"/><path fill-rule="evenodd" clip-rule="evenodd" fill="#DCDB46" d="M112.1 73v6.5a8.9 8.9 0 0 1 0-6.4z"/><path fill-rule="evenodd" clip-rule="evenodd" fill="#2EAB4C" d="M139.1 108.1v-3.7c.7 1.2.7 2.5 0 3.7z"/><path fill-rule="evenodd" clip-rule="evenodd" fill="#B4D44B" d="M123 134a37 37 0 0 1-2.4-12.8c.2-7 1.6-13.7 2.2-20.6.3-4 0-7.8-1.7-11.5-3-6.2-4-12.8-3.5-19.6.2-2.9.3-5.7-.4-8.5-.8-2.3-2.1-4.4-1.7-7 .8-5.6-.2-11.1-1.5-16.6-.5-2.4-1.7-4.5-3-6.5-3-4.5-7.1-6-12.3-5.2-2 .3-4 .4-6.1-.1-1-.2-1.9-.3-2.8.2-.2.3-.3.5 0 .8l4.4.6c2.3 0 4.6-.4 7-.1 4.6.4 10.2 6.7 11 11.6.8 5.2.4 10.4.5 15.6 0 2 .3 3.8 1.4 5.3 2.2 3 2.4 6.4 1.6 9.9-.8 3.5-1 7-.2 10.5.4 1.5 1 2.9 1.2 4.5.3 4.5.6 9 2 13.5 1.4 4.9 1.8 9.8.3 14.8-2.3 8-1.2 15.6 1.8 23.3 2 5.2 3 10.5 1.2 15.8h2c1.7-6 1-12-1-17.9z"/><path fill-rule="evenodd" clip-rule="evenodd" fill="#D3DE47" d="M109.9 37.8c-1.3-2.5-3.2-4.7-5-6.9-1.8-2-4.1-2.9-6.8-2.6 3-1.5 5.3-.1 7.4 2 5.8 6 8.2 16.8 5 23.3V40.5c0-1 .2-2-.6-2.7z"/><path fill-rule="evenodd" clip-rule="evenodd" fill="#76C04D" d="M135.6 151.7a9 9 0 0 0 1.7-4.4v-6a58 58 0 0 0-3.3-10.4v-1.1a24.4 24.4 0 0 1-.6-14.6c.1-1.2-.1-2.4.3-3.6.5-3.6 1.3-7.1 2.9-10.4a13 13 0 0 0 .6-9.9 31.7 31.7 0 0 1-1.5-14.3c.1-1 0-2-.4-3-2-6.2-2.8-12.6-2.5-19.2.2-3 .8-5.7 2-8.4 3-6.4 4.3-12.9 2.2-20-1.8-6.5-10.7-12.5-17.3-11.1-4.8 1-9.6 1.8-14 3.8-4.7 2.1-9.7 3-14.4 5 0 .3.2.6.6.7 2.3.4 4.6-.1 6.8-1 6.7-2.5 13.4-5.1 20.6-6 5.3-.7 11 2.2 12.8 7.2 2.4 6.8 2 13.8 0 20.6a44 44 0 0 0 0 25.1c.7 2.4 1.3 4.7 1.1 7.1-.2 4.3.2 8.4 1.6 12.5 1.3 3.7.9 7.5-.7 11.2-2.6 6-3 12.6-3.6 19.1-.5 5.4 1.5 10.5 3.3 15.5 1.6 4.6 2.7 9.3.3 14l-1 1.8h2.4l.1-.2z"/><path fill-rule="evenodd" clip-rule="evenodd" fill="#6ABD4E" d="M133.4 111.9c-.1-2.9.5-5.7 1.7-8.1 2.4-4.8 3-9.6 1-14.6a18 18 0 0 1-1-8.5c.7-5.4-1.7-10.4-2.4-15.6-1-7.6-.5-15 2.7-22.3 3-6.8 3.3-14-1.4-20.3-3.6-5-8.4-7.9-15-6.6-6.3 1.2-12.3 3-18.1 5.5-3.1 1.3-6.5 1.4-9.5 3-.8.6-1.5.6-2.3 0 1-1.3 2.5-1.2 3.8-1.5 7.6-1.7 14.5-5.4 22-7.3 6.7-1.6 12.8-1.2 18.3 3.4a17.7 17.7 0 0 1 6 17c-1 4-2.3 8-4.2 11.7-1 2-1.5 4.2-1.6 6.4-.3 6.8.4 13.4 2.4 19.9.2.7.5 1.5.4 2.1-1.2 5.6.3 11 1.8 16.2 1.2 4.2-1 7.7-1.9 11.5-2 7.6-4.3 15.2-2.2 23.2.2.9 0 1.9.1 2.8-2.3-2.6-1.7-5.9-1.9-8.9 0-1.8 0-3.9.8-5.7.7-1-.2-2.3.5-3.3z"/><path fill-rule="evenodd" clip-rule="evenodd" fill="#6CBE4E" d="M137.9 147.6c.8-5.6-1.2-10.7-2.8-16-.2-.5-.6-.6-1-.7.8 3.4 1.8 6.7 2.7 10.1a16 16 0 0 1 0 6.7l-2 4.2h1.3a12 12 0 0 0 1.8-4.3z"/><path fill-rule="evenodd" clip-rule="evenodd" fill="#48B74F" d="M139 44.6c-1 1-1.5 2.2-2 3.5-.4.8-.6 2-1.9 2 .9-3.7 3.1-6.8 4.7-10.3 3-6.7 2.4-12.7-2.6-18.2l-1-1.7c-.1-.1-.2-.2-.1-.4l.1-.2c6.6 5.9 9 12.6 4 22.5-.5.9-.8 1.8-1.2 2.8z"/><path fill-rule="evenodd" clip-rule="evenodd" fill="#4CB84F" d="M136.2 19.3v.6c-2-1.4-4-3-6.2-4.2a18 18 0 0 0-13.7-1.2l-2.5.4a18.9 18.9 0 0 1 22.4 4.4z"/><path fill-rule="evenodd" clip-rule="evenodd" fill="#48B74F" d="M135.1 52.4c-.2 6.5 0 12.8 1.7 19h-.6a20.6 20.6 0 0 1-1.6-10c-.5-3-.5-6 0-9h.5z"/><path fill-rule="evenodd" clip-rule="evenodd" fill="#4EB84F" d="M84.1 26.1v-.6l-2.7 1 .8.7 2-1.1zM134.6 52.4v9c-1-3-1-6 0-9z"/><path fill-rule="evenodd" clip-rule="evenodd" fill="#76C04D" d="M89.1 24.4h2.3c0 1.5-1.3.8-1.9 1.4a6 6 0 0 1-1 .5c-.4.2-.7.1-1-.2h-2.3c1.2-.8 2.5-1.4 4-1.7z"/><path fill-rule="evenodd" clip-rule="evenodd" fill="#ABD04B" d="M87.5 26h1c.5-.2.8-.3 1.2 0v.6l-3.4.6h-1l2.2-1.1z"/><path fill-rule="evenodd" clip-rule="evenodd" fill="#AFD14B" d="M130.3 138.2c-.4-1.5-1.2-3-1.5-4.5a15 15 0 0 1-1.1-3.7c-1-3.6-1.9-7.3-1.2-11 1.1-6.6 1-13.4 3.9-19.7.5-1.2.5-2.6.4-3.9-.6-4.5-2.4-8.5-4.6-12.5-3.5-6.1-7.6-12-7.7-19.5 0-1.2-.1-2.5-1.9-2.6-.2 2.3 1 4.4.5 6.7a29 29 0 0 0 2.2 19c3.6 7.1 2.7 14.1 1.9 21.3-.6 5.5-1.6 11-1.3 16.6.3 4 1.8 7.6 2.7 11.3 1.2 4.6 2.7 9.2 1.1 14l-.7 2.2h5.4c3-4.2 3.9-8.7 1.9-13.7z"/><path fill-rule="evenodd" clip-rule="evenodd" fill="#ABD04B" d="M127.3 130.4c-2.3-5.2-2-10.5-1-15.8 1-5.5 1.4-11 3.5-16.3 1.2-2.9-.2-6.2-1.4-9.1-1.8-4.5-5-8.4-6.9-12.8-1.8-4.2-4.6-8.2-3.8-13.2.2-1 0-1.9-1-2.4-3-3.4-1.6-7.5-1.8-11.4-.3-7.1-1-14.3-6-20-2.5-3-6-3.5-9.6-3-2.3.2-4.6.7-6.8-.3 1.8-1.5 4-.4 5.9-1 1-.3 2-.2 3-.6 1-.3 2-.7 3-.8 2.3-.2 4.4-1 6.6-1.3 4.3-.6 5.9.6 6.8 4.8 2.3 10.4 3.3 21 5.2 31.4.9 5.3 3 10.4 5 15.4 1.5 3.6 1.2 7.5 2.1 11.2.4 1.7.8 3.4 1.5 5a12 12 0 0 1 0 9.9c-2.7 5.8-2.5 12.1-3.5 18.2-1 5.5.6 10.7 2.2 15.9.5 1.3 1.3 2.6.5 4-.4.3-.9.4-1.3 0-.2-1.5-1.5-2.8-1.1-4.5-.6-1-.7-2.2-1.1-3.3z"/><path fill-rule="evenodd" clip-rule="evenodd" fill="#ABD04B" d="M130.4 151c1.2-1.7 2.3-3.7 2.2-5.9 0-2.4.6-5.1-2-6.9h-1c2 5 1 9.5-2 13.7h2.3l.5-.9z"/><path fill-rule="evenodd" clip-rule="evenodd" fill="#9ECC4C" d="M98.7 25.5c-2 1.2-4.1.3-6.2.6h-3.9l.5-.6c1.3-.4 2.6-.4 3.9-.5 1.8 0 3.6-.6 5.3.2l.4.3z"/><path fill-rule="evenodd" clip-rule="evenodd" fill="#87C54C" d="M135.6 139.4c-1-3.4-2.3-6.6-3.2-10a48.6 48.6 0 0 1 2.2-27c.8-2.8 2.2-5.4 1.6-8.2a81.4 81.4 0 0 1-2.4-20.7c0-.5-.3-1-.5-1.6-2.8-9-3.2-18-.3-27 2.2-7 2-13.9-.3-20.8-1.4-4.4-8.7-7.9-11.8-7.4-5.5.8-11 2-16.2 4-4.3 1.8-8.5 3.7-13.3 3.7-.5.9-1.8.2-2.3 1.1h4c1.9-.6 4 0 5.8-.7 6.7-2.8 13.4-5.6 20.8-6 5-.3 8.7 2.3 9.7 7.2 1 4.3 1.1 8.7 1.5 13a16 16 0 0 1-.5 6.5c-2 6.1-1.5 12.5-.8 18.7.2 1.9.1 3.8 1 5.5 1.3 2.8 1.7 5.7 1.5 8.7a32 32 0 0 0 2 12.7c.8 2.4 1 5.2 0 7.6a50.5 50.5 0 0 0-3.5 13.2c-.8 5.5-1.8 11-.1 16.6.8 2.8 1.6 5.7 2.6 8.5 2 5.4 1.7 10.4-1 14.9h2c2.3-3.9 2.8-8 1.5-12.5z"/><path fill-rule="evenodd" clip-rule="evenodd" fill="#6FBF4E" d="M136.8 141c.9 2.3.9 4.5 0 6.7V141z"/><path fill-rule="evenodd" clip-rule="evenodd" fill="#6CBE4E" d="M133.4 111.9c-.1 1 .5 2.3-.5 3.3.2-1.1-.5-2.4.5-3.3z"/><path fill-rule="evenodd" clip-rule="evenodd" fill="#ABD04B" d="M127.3 130.4c.8 1 1 2.1 1 3.3-1-.9-1-2-1-3.3z"/><path fill-rule="evenodd" clip-rule="evenodd" fill="#A5CE4C" d="M132.2 136.7a36 36 0 0 1-3-19.9c.9-4.2.3-8.8 2.2-12.8 2.2-4.8 2.7-9.4 1.5-14.4l-.8-2.2c-.9-2.2-1.3-4.5-1.2-6.8.1-3.4-.5-6.5-1.6-9.6-.6-1.7-1-3.4-1.3-5.2-1.9-13.3-5.2-26.5-6.2-40-.3-3.8-3-5.8-6.8-5.3-2 .3-3.9.4-5.8 1l-3.7 1.4c-.6.3-1.4.5-1.2 1.5 1.6.1 3-.5 4.6-.9 2.5-.6 5-1 7.1.4 1.4 1.3.5 2.9.9 4.2a128 128 0 0 1 4.1 23.4c.6 6 2.3 11.5 4.2 17.1 1 3.2 2.7 6 3.2 9.4.6 4.4.8 8.8 2.6 13 1.1 2.3 1.5 5.1.4 7.4-2.8 5.7-2.8 12-4 18-.5 3.2-.5 6.4 0 9.7.8 4.2 2.6 8 3.2 12.1 1.6 3.7 2.3 7.6 0 11a35 35 0 0 0-1.7 2.7h2.3c3-4.8 3-9.8 1-15.2z"/><path fill-rule="evenodd" clip-rule="evenodd" fill="#9ECC4C" d="M105.4 23.3l-1.1 1.1-2.8.6-.1-.4c.2-.7.7-1 1.2-1.3l.7-.4c.6-.2 1.2-.2 1.8.1l.3.3zM101.5 25c-.8.9-1.9.4-2.8.5.6-1.7 1.7-1.2 2.8-.5z"/><path fill-rule="evenodd" clip-rule="evenodd" fill="#99CA4C" d="M101.5 25c-1 0-2-.4-2.8.5H93c1.7-1.1 3.8-.1 5.6-1.1 1.5-.4 2.8-1.6 4.5-1.1-.6.5-1.2 1-1.7 1.7z"/><path fill-rule="evenodd" clip-rule="evenodd" fill="#91C84C" d="M134.5 138.8c-2.1-7-5.4-14-3.9-21.6 1.1-5.7 1-11.5 3.6-16.8 1-2.2 1.2-4.3 1-6.7 0-2.8-1.7-5-1.8-7.7-.2-7.6-1.7-15-3-22.5-.7-3.7-1.1-7.6-.5-11.6.7-4 2.3-7.7 1.9-11.8l-1.3-13c-.8-7.4-5.4-9.2-9.9-9.1-7.7.2-15 2.7-22 6.4l4.6-1.1c1-.5 2.1-.5 3.2-.7l.7-.3c1.6-.8 3.4-1.2 5.3-1.4l.8-.2a22 22 0 0 1 7.8-.5c2.9.1 5 1.9 5.3 4.8.8 7.1 2.2 14.2 1.9 21.5-.1 1.8-.7 3.6-.6 5.5.3 7 .5 14 2.9 20.7.4 1.2.5 2.5.5 3.8-.2 4.3.5 8.4 1.6 12.4 1 3.3 2 6.7.6 10.2-1 1.6-1.5 3.4-2 5.2-1 6.9-3 13.7-2.2 20.8v.9c.5 1.5 1 3 1 4.6.4 2.4 1.4 4.6 2.3 6.8 1.2 3 2 6 1.2 9.3-.6 1.8-1.7 3.5-2.7 5.2h2.3c2.1-3.9 2.7-8.8 1.4-13.1z"/><path fill-rule="evenodd" clip-rule="evenodd" fill="#9ECC4C" d="M131.8 87.8c-1.6-1.3-1.7-3.5-1.6-5 .7-6.3-2.2-12-3.2-18-1.7-11-4-21.8-5.4-32.9-.3-2-.4-4-.5-6-.2-3-2-4.5-4.8-4.8l-7.5 1-.1-.3c.8-1.3 2.3-.8 3.4-1.3 2.5-.7 5-1 7.7-.7 2.6.4 4 1.8 4.8 4.1.2.7.4 1.4.4 2.2-.1 7 2 13.6 2.7 20.4.2 2.2-.2 4.3 0 6.4.6 6.6.6 13.2 3.1 19.5.5 1.2.7 2.7.7 4 0 3.2-.1 6.2.6 9.3.1.7.3 1.4-.3 2z"/><path fill-rule="evenodd" clip-rule="evenodd" fill="#99CA4C" d="M131.8 87.8c-1-6.3-.4-12.7-2.5-19a58 58 0 0 1-2.3-18.5c0-3.4-.6-6.7-1.1-10-.7-4.3-1.8-8.6-1.7-13 .2-5.8-2.8-7.8-9-7.1l-3 .3c3.4-1.8 7-1.4 10.6-.8 2.1.3 3.8 1.8 4 4 1.2 8 3 16.2 2 24.4-.8 6.8-.6 13.7 1.4 20.1 2 7 .8 14.5 3.2 21.4.7 2 1.3 4 1.2 6.3-.1 1.3-.3 2.6-1.2 3.6 0-3.4 0-6.8-1-10-.7-.5-.6-1.1-.6-1.7z"/><path fill-rule="evenodd" clip-rule="evenodd" fill="#9ECC4C" d="M134 147.2c1-3.5-.7-6.8-1.1-10.1-1.3-2-2-4.3-2.3-6.7-.8-1.4-.6-3-1-4.5-1.1-7.5.8-14.7 2.2-21.9l1.6-4.5a15 15 0 0 0-1-10c-.2 3 1.5 6.2.2 9-2 4.4-3.1 8.9-3.5 13.6-.3 3.6-1.5 7.2-1.2 10.8.6 5.3 2.3 10.2 4 15.3 1.4 4.2 1.7 8.6-1.1 12.8l-.6.9h1.3l2.5-4.7zM108.8 22.2c-1 1-2.1 1.1-3.4 1-.3-1 .9-.5 1.1-1 .8-.4 1.5-.6 2.3 0z"/><path fill-rule="evenodd" clip-rule="evenodd" fill="#99CA4C" d="M106.5 22.2l-1 1h-2.3c1-.7 2.1-1 3.3-1z"/><path fill-rule="evenodd" clip-rule="evenodd" fill="#98CA4C" d="M129.5 125.9a18 18 0 0 1-.3-9.3l1.4-9.9c.1-1 .3-2 1.2-2.7-.6 4.4-1 8.8-2 13-.5 3 0 6-.3 8.9zM134 147.2c.6-3.5-1.3-6.7-1.1-10.1 1.2 3.3 2.5 6.5 1.1 10z"/><path fill-rule="evenodd" clip-rule="evenodd" fill="#99CA4C" d="M108.8 22.2h-2.3c1.6-1.5 3.6-1.8 5.6-1.7-.9 1-2.6.4-3.3 1.7z"/><path fill-rule="evenodd" clip-rule="evenodd" fill="#98CA4C" d="M130.6 130.4c-1.4-1.3-1-3-1-4.5a8.4 8.4 0 0 1 1 4.5z"/></svg>