<svg xmlns="http://www.w3.org/2000/svg" viewBox="0 0 228.0862 320.383"><path fill-rule="evenodd" clip-rule="evenodd" d="M122.2339 320.1968c-2.7355-.4057-4.1371-1.9773-4.7263-4.7059-.7811-3.6164-.6758-7.1617.4409-10.6073 2.1922-6.7661 3.4014-13.4272.746-20.4413-1.1209-2.9599-1.7973-5.8564-4.141-8.343-3.7483-3.9753-3.3478-9.1401.4074-14.4213-.4083-6.5959-3.6858-12.9836-1.3343-20.2088-1.893-2.8395.2025-5.953.5515-9.0417-3.3116-3.9088-2.7138-8.6556-3.1666-13.0774-.3223-3.1526-.0442-6.38.6731-9.5249.4821-2.1107-.0252-3.8478-1.4948-5.6049-3.7173-4.4449-5.4312-9.1686-2.0315-14.8465 1.3768-2.2981 2.4979-4.9479 2.6046-7.8906.0866-2.3674 1.3777-4.3731 3.1046-5.679 1.2878-7.7245 1.3391-15.4881 6.179-22.2196-2.2827-4.9345-2.1916-10.6738-5.65-15.2218-.8988-1.1832-1.0313-2.6992-.9192-4.1793.5266-6.968.6832-13.9803 2.4481-20.8042.1924-.7425.306-1.5046.4904-2.43-2.1127-1.8874-4.3633-3.5892-4.9463-6.778-.4098-2.2385-.0519-4.3206.4504-6.2855 1.1689-4.5772.314-8.988-.7383-13.3099-1.3095-5.3774-.148-10.3016 1.8491-15.3941-5.2785-2.392-7.4167-6.6104-7.1151-12.1682.0466-.8498.1047-1.8891.5904-2.4914 1.8657-2.3141 1.5858-5.0425 1.8485-8.0833-3.2434-2.2112-.2912-7.3743-4.7245-9.6848-4.5164 1.8156-8.6253-3.0112-13.7164-1.8826 1.6179 3.2182 1.1149 6.0557-1.4118 8.3664 2.9436 9.4112-.2322 10.2162-8.5222 13.3985-3.0281 3.3543-.8229 7.2803-1.101 11.0726 3.9044 1.7866 4.3524 5.1142 3.8853 8.645-.456 3.451-1.283 6.8367-3.5874 9.6478-1.6893 2.0603-2.9714 4.3053-2.803 7.2735 3.7312 4.2757 2.3052 9.2839 1.4891 14.5417 3.5278 2.8941 2.4861 7.7046 4.2593 11.5271 1.4583 3.1432 2.5436 6.4138 5.0089 9.0764 2.7938 3.0183 2.9976 6.8738 1.144 10.3037-2.0484 3.7905-4.9277 7.1323-5.6986 12.0843 3.8255 4.1638-.5578 9.2531.1906 14.2428 4.1467 2.7084 4.9511 6.52 3.5892 11.1215-2.7041 9.1366-5.3052 18.304-7.9896 27.4471-.76 2.5875-.8371 5.1139.1094 7.6664 1.3065 3.5216 1.3264 7.3984 2.9772 10.8339.1983.4139.3161 1.0171.1699 1.4239-1.952 5.4389-1.149 11.2982-2.6097 16.7911-.3333 1.2537-.5373 2.2109.0074 3.515 1.732 4.1442.776 8.4468-.0157 12.5822-1.0443 5.4495-.4439 10.7384.3695 16.1049.4377 2.8805 1.2448 5.5996 2.3799 8.2494.7624 1.778.9024 3.7706.2402 5.4015-.8896 2.1931-.4955 4.1021.1479 6.0539-.6087 3.0192-2.0831 5.0231-5.3221 5.3054-3.1464.2746-5.2301-.9946-6.8951-3.7339-2.0834-3.4266-2.9486-6.8533-1.4787-10.7657-4.657-3.9901-5.6542-9.5375-6.0272-14.9829-.6168-9.0161-2.4072-17.7862-4.3139-26.5628-.6254-2.8751-2.2874-5.3131-3.4558-7.9558-1.5591-3.5269-1.7827-6.8835.5079-10.3226-3.1921-4.149-4.0158-8.6817-1.7631-13.5364-2.7224-2.1895-5.2595-4.1442-6.3412-7.5703-.768-2.4303.1575-4.0636 1.2081-5.9294 3.843-6.8236 9.4049-13.142 6.4755-21.9838-.8101-2.4427-.3123-4.9857-.1008-7.3372-4.6932-3.9254-5.1824-5.5949-3.0596-11.7747.7193-2.0968.5903-4.1235.6144-6.2534.1115-9.7845-2.7725-18.9406-5.5946-28.1172-1.1535-3.7514-3.5215-6.8669-5.6204-10.1056-2.0819-3.2132-2.7565-6.6212-1.3355-10.2052 2.3292-5.8754 1.6787-12.474 4.5641-18.213.7748-1.5398 1.2087-3.2508 1.8788-5.1043-1.2792-2.7595-1.2867-5.6314-.2293-8.7434.9625-2.8303-1.4367-5.2387-1.7951-7.8662-2.1124-1.3578-4.0467-2.6533-5.4276-4.5932-1.59-2.2307-2.0484-4.5941-.6462-7.0662 1.2196-2.1513.2794-3.6856-1.4037-4.8628-1.0094-.7054-2.3049-1.5161-3.4255-1.4529-4.4004.2464-8.282-1.6647-12.4082-2.5273-4.3737-.9138-8.7463-1.1146-13.1521.416-3.252 1.1289-4.9487.0083-7.5955-3.9871v-2.3298c2.3619-6.0346 7.3052-8.945 13.2333-9.9001 3.5622-.5735 6.7315-1.7445 9.756-3.4368 3.3196-1.8571 6.5915-2.9113 10.5239-2.2248 4.5028.7855 8.8009.11 12.6006-2.9919 2.4369-1.9891 5.3502-3.2939 7.7983-5.4362 3.4824-3.0476 8.3902-2.1453 10.4798 1.896 1.7201 3.3246 4.3094 4.1807 7.5336 4.382 3.5538.2218 7.0863-.07 10.6483 1.0171 2.1545.6583 4.4787-.8656 6.4452-2.1522 1.2167-.7959 2.3826-1.6698 3.6046-2.4609 1.5811-1.0233 3.4616-2.0647 5.1509-1.7444 4.3823.8321 7.7405-1.0046 11.3072-3.0192 2.4327-1.375 5.4116-1.458 8.1793-1.9209 3.7226-.623 7.1048-1.9091 9.9612-4.4153C128.7101.368 130.5181.146 132.3705.0158c.9311.0741 1.8844-.1785 2.7936.1945 2.7497.5296 3.9557 2.5643 4.8052 5.1495 4.2726.7215 7.9795 2.6053 10.9368 5.9133.5302.5933 1.4861.8875 2.3019 1.1297 4.0841 1.2152 6.7246 3.7042 7.2489 8.236 3.7618.7137 6.7804 2.3906 7.8668 6.7012 3.1002-2.2106 6.0483-4.2121 9.7928-3.8044 1.216-1.2045 1.6905-2.7604 2.0466-4.1962.7701-3.0981 2.7304-4.6077 5.7022-4.8746 2.1771-.1957 3.7884-1.2252 5.327-2.6376 1.0649-.9774 2.2151-1.9396 3.4887-2.5967 3.4883-1.8008 6.179-.5198 8.2894 3.8658 5.6426.0546 10.7891 1.286 13.1776 6.9565 4.7171 1.8127 5.7905 3.5618 5.8445 9.114 3.631 3.9379 4.8613 8.5717 3.7543 14.1413 3.1203 4.7088 3.1123 5.9919.016 10.6545-.9625 1.4476-1.8607 2.938-2.8739 4.5443.7351 4.1178.5325 7.9949-3.2802 9.4254-4.5504 7.2127-2.9279 15.9809-9.5021 21.639 2.4964 5.1231.6001 10.5024 1.6404 16.2718 1.966 1.7818 4.2492 4.3658 3.1115 7.815-.9261 2.8078-1.2247 5.7769-2.4754 8.4869-2.1706 4.7029-2.5825 9.1493 1.3447 13.4098 2.8247 3.0649 4.9099 6.7063 5.6699 10.9371.0854.475.2811.9693.2173 1.4263-.8249 5.9071.0249 12.0781-3.3036 17.59-1.888 3.1259-3.4483 6.488-4.6554 10.105 1.2754 1.485 1.0162 3.3615.9741 5.3322 2.9816 3.2879 3.5441 7.323 2.8111 11.5776-.7018 4.0766-2.9614 7.4843-5.4892 10.9162 3.0266 3.8614 3.1944 8.2933 3.2804 12.7619.0347 1.8041-.3232 3.5447-1.2952 4.9686-1.0079 1.4767-1.2774 3.0186-1.0977 4.6347.4454 4.0072-.1239 8.0845 1.1591 12.0496.9892 3.0577.0024 5.9483-1.8714 8.4611-1.6869 2.2625-3.2217 4.5671-4.0932 7.2922-1.0352 3.2357-2.4822 6.3077-4.5084 9.0393-1.7018 2.2945-.9545 4.621-.3914 6.9517 1.037 4.2919-2.8434 10.554-7.1397 11.4026-2.8985.5729-6.2057-1.8225-6.4584-4.8417-.3377-4.0399-.9373-7.9961-2.1948-11.88-.7215-2.2269-.6035-4.7473.0112-6.9233.9038-3.1965.5693-6.5372 1.5968-9.678.4902-1.4981-.1263-2.8544-.8021-4.1662-1.5164-2.9427-2.5169-6.0272-2.9759-9.3305-.6384-4.5879.0819-6.2668 4.1772-8.5951.6986-1.3059.3196-2.7856.4676-4.2042.1388-1.3367.4131-2.6592.653-4.1449-1.3456-2.8988-3.0341-5.9038-2.1217-9.4906.1411-.5551.172-1.2312.5133-1.6303 4.5096-5.2681 3.87-11.8598 3.953-17.941.0866-6.2952 1.0438-12.549.8851-18.7476-.1233-4.8091-.0125-9.9529-2.8137-14.6057-2.798-4.6474-2.8727-10.0089-.9598-15.1021 2.2192-5.9106.0086-10.4561-3.0999-15.4202-2.9466-4.704-5.0949-10.1696-2.9715-16.0394.9966-2.7571-.5266-5.9157 1.7365-8.3131-1.2935-1.5052-2.5071-2.7583-3.5373-4.1472-2.2948-3.0972-1.7077-6.7644 1.3231-9.1979 1.5105-1.2122 2.9581-2.5045 3.9725-4.4206-1.8998-3.1924-1.9072-6.4898.0442-9.7711.2396-.4032.542-.9984.4118-1.3578-1.6825-4.6285.4836-9.364-.4466-14.0254-.3537-1.773.8721-3.8213-1.3655-5.6295-2.4789-.9504-5.2503-1.9023-8.6853-1.0951-4.5956 1.0791-8.6381-1.0811-12.3467-3.9052-3.0018-.148-6.1158.676-9.2848-.3488-.832.6438-1.6576 1.2825-2.5528 1.9767-.1797 2.0333-.6342 3.993-2.2838 5.6482 2.2565 3.7137 2.0558 7.538.2434 11.6123 6.5408 4.8093 3.8599 10.6865 1.6098 16.6591 2.9172 4.4962 3.1381 9.821 4.114 14.909.8294 4.3254-1.3759 7.6569-4.7847 10.352 1.0898 5.1528-.9272 9.869-1.9419 14.3797.8237 7.7352 4.5567 14.3714 5.8576 21.6778 1.0776 6.0483.5779 11.6814-4.6244 16.0533-2.1877 1.8384-3.3401 4.4188-3.4631 7.3859-.1011 2.4564-1.3537 4.5659-2.1012 6.8278-1.5176 4.5891-5.0326 8.432-5.0462 13.5513 2.2613 4.7533 2.2704 4.9277.4196 11.1239 2.5608 4.0825.1219 8.5737.1992 13.0466.0243 1.4464-.3517 2.9368.2354 4.3162 1.56 3.6633.58 6.7745-1.925 9.5262 1.09 5.7739.2464 11.4762-.3811 17.1036-.4119 3.6953.0261 7.0318 2.2145 9.7522 4.0117 4.987 5.4419 9.9087 1.4942 15.564-.9566 1.3711-.2702 3.0364-.183 4.5499.0783 1.3622.2132 2.6563-.3312 3.9806-1.1125 2.7084-1.3071 5.5272-1.1775 8.4628.1361 3.0649-2.4184 5.6073-2.0045 8.8691.1913 1.5099-.2911 3.0916-.2728 4.6383.0614 5.2734-2.1412 9.6335-5.483 13.4676-1.1494 1.3189-1.7685 2.7523-2.0959 4.3708-.4711 2.3319-1.7919 3.7855-4.1309 4.2883-1.0091.3517-2.0262.2734-3.0466.0552z"/></svg>