<?xml version="1.0" encoding="utf-8"?>
<!-- Generator: Adobe Illustrator 22.0.1, SVG Export Plug-In . SVG Version: 6.00 Build 0)  -->
<svg version="1.1" id="Layer_1" xmlns="http://www.w3.org/2000/svg" xmlns:xlink="http://www.w3.org/1999/xlink" x="0px" y="0px"
	 viewBox="0 0 544.0833 257" enable-background="new 0 0 544.0833 257" xml:space="preserve">
<ellipse fill="#EF3125" cx="78.875" cy="128.5" rx="78.875" ry="128.5"/>
<path fill="#FFFFFF" d="M197.5833,86.5H241.5v21.75h-12.0833v76.5h-19.8333v-76.5h-12V86.5z M354.8333,108.25H367v76.5h19.8333
	v-76.5H399V86.5h-44.1667V108.25z M402.8333,184.75h35.3333v-21.8333H422.25V146h13.9167v-21.3333H422.25V108.25h15.9167V86.5
	h-35.3333V184.75z M493.9167,184.75h19.4167v-39.6667H525V184.75h19.0833V86.5H525v37.1667h-11.6667V86.5h-19.4167V184.75z
	 M356.375,184.75H336L325.25,152v32.75h-19.5833V86.5H325.25c15.375,0,27.75,7.625,27.75,28.125c0,15.75-5.5,21.5-10.625,26.625
	L356.375,184.75z M333.8125,115.75c0-7.5-3.3125-9.6875-6.6875-9.6875h-1.875V127h1.875C330.5,127,333.8125,124,333.8125,115.75z
	 M20.0828,197.3333h27.9167L50.625,88.375l18.25,74.5417H87.75L104.0329,86.5l4.1332,110.8333h26.8333L121.875,46h-33.75
	l-10.5839,58.375L66.625,46H30L20.0828,197.3333z M198,135.5833C198,163.4277,187.6656,186,168.1667,186
	c-19.501,0-29.8333-22.5723-29.8333-50.4167s10.3323-50.4167,29.8333-50.4167C187.6656,85.1666,198,107.739,198,135.5833z
	 M177,135.5833c0-16.2464-3.0625-29.4167-8.8333-29.4167c-5.3542,0-8.8333,13.1703-8.8333,29.4167S162.8125,165,168.1667,165
	C173.9375,165,177,151.8297,177,135.5833z M300.6,135.5833C300.6,163.4277,290.2657,186,270.7667,186
	c-19.501,0-29.8333-22.5723-29.8333-50.4167s10.3323-50.4167,29.8333-50.4167C290.2657,85.1666,300.6,107.739,300.6,135.5833z
	 M279.6,135.5833c0-16.2464-3.0625-29.4167-8.8333-29.4167c-5.3542,0-8.8333,13.1703-8.8333,29.4167S265.4125,165,270.7667,165
	C276.5375,165,279.6,151.8297,279.6,135.5833z M466.0417,166.1656c-6.8761,0-11.3761-9.6666-11.3761-30.9156
	c0-18.751,4.3334-30.5844,11.3761-30.5844c4.0117,0,9.0417,6.8344,9.8194,18.4726l14.2629-11.4636
	C486.6667,96.5833,478.3087,86.5,466.0417,86.5c-18.0427,0-27.875,18.1656-27.875,48.75c0,30.9156,9.6541,48.75,27.875,48.75
	c13.341,0,22.0837-11.71,25.8126-28.5482l-16.8636-6.5718C475,159,469.8125,166.1656,466.0417,166.1656z"/>
</svg>
