<?xml version="1.0" encoding="utf-8"?>
<!-- Generator: Adobe Illustrator 22.0.1, SVG Export Plug-In . SVG Version: 6.00 Build 0)  -->
<svg version="1.1" id="Layer_1" xmlns="http://www.w3.org/2000/svg" xmlns:xlink="http://www.w3.org/1999/xlink" x="0px" y="0px"
	 viewBox="0 0 118.0739 28.0466" enable-background="new 0 0 118.0739 28.0466" xml:space="preserve">
<linearGradient id="SVGID_1_" gradientUnits="userSpaceOnUse" x1="58.6227" y1="13.754" x2="67.5793" y2="13.754">
	<stop  offset="0" style="stop-color:#3B9F3F"/>
	<stop  offset="1" style="stop-color:#79B52F"/>
</linearGradient>
<path fill="url(#SVGID_1_)" d="M65.4973,8.1178v16.3508l2.082,0.1539v2.8855h-8.8782v-2.7701l1.2571-0.1154
	c0.7465-0.1154,0.9036-0.3077,0.9036-1.2695V12.2728c0-0.8849-0.1965-1.0388-0.9821-1.1542l-1.2571-0.077V8.1178H65.4973z
	 M62.9044,5.2708c-1.6892,0-2.7891-1.1157-2.7891-2.6546C60.1153,1.0772,61.2546,0,62.9438,0c1.6892,0,2.8678,1.0772,2.8678,2.5776
	C65.8116,4.155,64.5937,5.2708,62.9044,5.2708z"/>
<linearGradient id="SVGID_2_" gradientUnits="userSpaceOnUse" x1="69.9255" y1="13.754" x2="78.8821" y2="13.754">
	<stop  offset="0" style="stop-color:#3B9F3F"/>
	<stop  offset="1" style="stop-color:#79B52F"/>
</linearGradient>
<path fill="url(#SVGID_2_)" d="M76.8001,8.1178v16.3508l2.082,0.1539v2.8855h-8.8782v-2.7701l1.2571-0.1154
	c0.7465-0.1154,0.9036-0.3077,0.9036-1.2695V12.2728c0-0.8849-0.1965-1.0388-0.9821-1.1542l-1.2571-0.077V8.1178H76.8001z
	 M74.2073,5.2708c-1.6892,0-2.7891-1.1157-2.7891-2.6546C71.4182,1.0772,72.5574,0,74.2466,0c1.6892,0,2.8678,1.0772,2.8678,2.5776
	C77.1144,4.155,75.8965,5.2708,74.2073,5.2708z"/>
<path fill="#FFFFFF" d="M2.2392,12.2728c0-0.8849-0.1965-1.0388-0.9821-1.1542L0,11.0417V8.1178h6.5603v2.6546h0.0394
	c1.2177-2.116,3.2212-3.1548,6.0104-3.1548c4.0462,0,6.0888,2.193,6.0888,6.5789v10.3107l2.0035,0.1154v2.8855h-8.721v-2.7316
	l1.1786-0.1154c0.6678-0.1155,0.9034-0.3463,0.9034-1.1157v-8.2716c0-2.5776-0.7071-3.8857-3.1034-3.8857
	c-2.4748,0-4.0853,1.9236-4.0853,4.1166v9.0026l1.8855,0.1154v2.8855H0.0785v-2.7701l1.218-0.1154
	c0.7462-0.0384,0.9427-0.3077,0.9427-1.1157V12.2728z M40.4618,23.5837c0,0.7695,0.1965,1.0388,0.8643,1.0773l1.1393,0.0768v2.7701
	h-5.8141l-0.1178-2.039l-0.1178-0.0385c-1.2177,1.7313-3.0247,2.5778-5.4211,2.5778c-5.2248,0-7.8567-3.1164-7.8567-9.3489
	c0-6.925,3.614-11.0416,10.3709-11.0416c2.2392,0,4.5568,0.4232,6.9531,1.3081V23.5837z M35.8656,11.5803
	c-0.7465-0.3463-1.7286-0.5002-2.9463-0.5002c-3.3391,0-5.0283,2.4623-5.0283,7.4253c0,4.0396,1.3358,6.0401,4.0462,6.0401
	c2.3963,0,3.9284-1.6158,3.9284-3.501V11.5803z M43.5485,11.4649l0.4321-3.001c2.475-0.3461,3.4962-1.9621,4.3999-4.732h2.5532
	v4.3859h5.107l-0.2356,3.3471h-4.8713v9.8874c0,2.2699,0.7858,3.0394,2.5535,3.0394c0.9427,0,1.8464-0.2309,2.7498-0.7311
	l0.9036,3.1548c-1.2177,0.8079-2.8285,1.2311-4.8318,1.2311c-2.2392,0-3.8499-0.6156-4.6748-1.3465
	c-0.3928-0.3848-0.7071-0.8849-0.9427-1.539c-0.4321-1.3465-0.4321-2.039-0.4321-3.6164V11.4649H43.5485z M92.554,8.1178h7.8174
	v2.8469l-0.9427,0.077c-0.668,0.1154-0.9036,0.3077-1.218,1.1156L92.6718,27.508h-5.4604l-5.8532-16.3125l-1.7677-0.2308V8.1178
	h8.9173v2.9239l-1.2571,0.1154c-0.5893,0.077-0.7856,0.4232-0.5893,1.0772l3.5356,10.9263h0.0394l4.0853-11.9266l-1.7677-0.1539
	V8.1178z M118.0739,13.0423c0,1.7697-0.5106,3.1547-1.532,4.1934c-2.0033,2.039-5.0674,2.5776-9.8994,2.4238
	c0.1965,2.8855,1.7286,4.809,4.9105,4.809c1.7286,0,3.3784-0.5386,4.9498-1.5773l1.3749,3.1932
	c-0.4715,0.3847-1.3358,0.8079-2.6319,1.2695c-1.2571,0.4618-2.6713,0.6925-4.2033,0.6925c-6.2853,0-9.1138-3.8473-9.1138-9.6951
	c0-3.1164,0.8643-5.6554,2.5535-7.6946c1.7283-2.039,4.1246-3.0393,7.1494-3.0393C115.717,7.6176,118.0739,9.4643,118.0739,13.0423z
	 M111.4352,11.0032c-2.8678,0-4.439,2.4238-4.7926,5.3863c0.3928,0.0384,0.9036,0.0384,1.5714,0.0384
	c3.7712,0,5.6567-1.0388,5.6567-3.1548C113.8706,11.7727,113.0457,11.0032,111.4352,11.0032z"/>
</svg>
