<?xml version="1.0" encoding="utf-8"?>
<!-- Generator: Adobe Illustrator 22.0.1, SVG Export Plug-In . SVG Version: 6.00 Build 0)  -->
<svg version="1.1" id="Layer_1" xmlns="http://www.w3.org/2000/svg" xmlns:xlink="http://www.w3.org/1999/xlink" x="0px" y="0px"
	 viewBox="0 0 270.623 25.72" enable-background="new 0 0 270.623 25.72" xml:space="preserve">
<path d="M204.399,7.79c-0.425-0.324-1.008-0.486-1.752-0.486h-1.906v3.943h1.509c1.852,0,2.788-0.664,2.788-1.99
	C205.038,8.604,204.821,8.113,204.399,7.79"/>
<polygon points="218.388,13.102 221.311,13.102 219.899,8.021 "/>
<path d="M183.413,7.27c-1.295,0-2.389,0.482-3.29,1.455c-0.903,0.97-1.353,2.393-1.353,4.268c0,1.657,0.445,2.983,1.335,3.977
	c0.89,0.992,1.99,1.492,3.308,1.492c1.298,0,2.393-0.489,3.301-1.46c0.902-0.976,1.356-2.379,1.356-4.216
	c0-1.641-0.431-2.97-1.296-3.988C185.911,7.778,184.788,7.27,183.413,7.27"/>
<path d="M137.812,0v25.72h132.811V0H137.812z M154.667,20.271c-0.972,0.841-2.119,1.259-3.443,1.259
	c-1.482,0-2.619-0.551-3.422-1.64v1.434h-2.862v-5.747h2.862c0.034,1.05,0.306,1.821,0.827,2.323
	c0.515,0.496,1.106,0.747,1.768,0.747c0.52,0,0.953-0.181,1.314-0.542c0.351-0.359,0.531-0.78,0.531-1.272
	c0-0.513-0.175-0.945-0.522-1.298c-0.349-0.351-0.983-0.751-1.905-1.206c-1.951-0.935-3.277-1.766-3.973-2.487
	c-0.7-0.723-1.048-1.691-1.048-2.913c0-1.476,0.463-2.617,1.384-3.43c0.926-0.809,1.971-1.214,3.143-1.214
	c1.337,0,2.38,0.523,3.112,1.571V4.46h2.851v5.125h-2.851c-0.085-0.793-0.358-1.403-0.816-1.836c-0.455-0.433-0.987-0.65-1.596-0.65
	c-0.47,0-0.864,0.125-1.189,0.378c-0.323,0.248-0.483,0.574-0.483,0.98c0,0.348,0.131,0.678,0.398,0.989
	c0.268,0.311,1.047,0.751,2.344,1.325c1.246,0.554,2.205,1.056,2.87,1.507c0.668,0.447,1.191,1.031,1.579,1.745
	c0.388,0.712,0.585,1.545,0.585,2.483C156.125,18.174,155.637,19.429,154.667,20.271z M172.682,11.236h-2.864V7.304h-2.603v11.169
	h2.533v2.851h-9.461v-2.851h2.537V7.304h-2.537v3.932h-2.898V4.46h15.293V11.236z M190.277,19.013
	c-1.673,1.677-3.958,2.517-6.864,2.517c-3.013,0-5.33-0.864-6.946-2.589c-1.621-1.724-2.426-3.753-2.426-6.081
	c0-2.412,0.828-4.458,2.492-6.143c1.66-1.685,3.953-2.525,6.88-2.525c2.912,0,5.199,0.84,6.872,2.523
	c1.669,1.678,2.504,3.725,2.504,6.145C192.789,15.285,191.954,17.338,190.277,19.013z M228.938,21.324h-8.293v-2.851h2.157
	l-0.801-2.896h-4.378l-0.895,2.896h2.253v2.851h-12.496l-3.81-7.383h-1.934v4.532h2.113v2.851h-8.816v-2.851h2.314V7.304h-2.314
	V4.46h10.173c1.916,0,3.295,0.48,4.14,1.446c0.848,0.964,1.269,2.06,1.269,3.28c0,1.916-0.972,3.312-2.921,4.194l2.739,5.093h4.159
	l3.284-11.169h-2.241V4.46h11.01v2.844h-2.267l3.545,11.169h2.01V21.324z M246.563,17.675c-0.738,1.195-1.778,2.096-3.225,2.823
	c-1.4,0.704-2.992,1.032-4.745,1.032c-3.05,0-5.389-0.816-7.015-2.447c-1.629-1.635-2.445-3.708-2.445-6.223
	c0-1.748,0.406-3.289,1.213-4.626c0.807-1.338,1.897-2.347,3.264-3.027c1.365-0.68,2.849-1.015,4.446-1.015
	c2.265,0,4.029,0.548,5.291,1.649V4.46h2.862v5.984h-2.862c-0.298-1.009-0.894-1.806-1.786-2.389
	c-0.885-0.578-1.84-0.873-2.859-0.873c-1.343,0-2.487,0.478-3.432,1.43c-0.946,0.949-1.417,2.262-1.417,3.944
	c0,1.924,0.477,3.394,1.44,4.395c0.96,1.008,2.135,1.511,3.518,1.511c1.018,0,1.865-0.245,2.537-0.741
	c0.668-0.492,1.135-1.181,1.39-2.06h-2.969v-2.85h7.907C247.676,14.857,247.303,16.476,246.563,17.675z M263.642,9.803h-3.224V7.304
	h-5.224V11.2h4.215v2.848h-4.215v4.425h5.224v-2.52h3.224v5.371h-14.865v-2.851h2.024V7.304h-2.024V4.46h14.865V9.803z"/>
<path d="M0,21.126v-2.779h2.204V7.437H0V4.654h6.924l6.06,10.272V7.437h-2.145V4.654h7.395v2.783h-2.31v13.811h-3.675L5.144,9.036
	v9.311h2.074v2.779H0z M32.978,18.347l-3.459-10.91h2.217V4.654h-10.76v2.783h2.195l-3.211,10.91h-2.039v2.779h7.298v-2.779h-2.206
	l0.881-2.832h4.277l0.78,2.832h-2.11v2.779h8.101v-2.779H32.978z M24.638,13.099l1.481-4.962l1.371,4.962H24.638z M47.009,21.126
	v-2.779h-2.474V7.437h2.548v3.836h2.797V4.654H34.941v6.619h2.833V7.437h2.475v10.91h-2.475v2.779H47.009z M60.687,21.126v-2.779
	h-2.522V7.437h2.522V4.654H51.38v2.783h2.494v10.91H51.38v2.779H60.687z M70.847,4.389c-2.856,0-5.095,0.828-6.719,2.471
	c-1.625,1.648-2.433,3.65-2.433,6.001c0,2.275,0.79,4.257,2.366,5.938c1.578,1.688,3.843,2.532,6.786,2.532
	c2.838,0,5.07-0.822,6.707-2.458c1.634-1.639,2.451-3.641,2.451-6.012c0-2.364-0.817-4.363-2.443-6.003
	C75.93,5.213,73.691,4.389,70.847,4.389 M70.847,7.403c1.342,0,2.438,0.497,3.284,1.491c0.842,0.994,1.268,2.293,1.268,3.898
	c0,1.791-0.448,3.165-1.33,4.112c-0.885,0.955-1.956,1.429-3.222,1.429c-1.286,0-2.362-0.486-3.234-1.456
	c-0.865-0.971-1.302-2.267-1.302-3.885c0-1.83,0.442-3.222,1.321-4.17C68.514,7.873,69.585,7.403,70.847,7.403 M87.742,21.126
	v-2.779h-2.073V9.036l7.108,12.212h3.669V7.437h2.311V4.654h-7.39v2.783h2.143v7.489L87.447,4.654h-6.918v2.783h2.202v10.91h-2.202
	v2.779H87.742z M113.449,18.347l-3.458-10.91h2.215V4.654H101.45v2.783h2.192l-3.209,10.91h-2.04v2.779h7.298v-2.779h-2.204
	l0.874-2.832h4.279l0.782,2.832h-2.11v2.779h8.105v-2.779H113.449z M105.111,13.099l1.48-4.962l1.372,4.962H105.111z
	 M131.669,21.126v-7.874h-3.211v5.095h-4.869V7.437h2.405V4.654h-9.046v2.783h2.354v10.91h-2.354v2.779H131.669z"/>
</svg>
