<?xml version="1.0" encoding="utf-8"?>
<!-- Generator: Adobe Illustrator 22.0.1, SVG Export Plug-In . SVG Version: 6.00 Build 0)  -->
<svg version="1.1" id="Layer_1" xmlns="http://www.w3.org/2000/svg" xmlns:xlink="http://www.w3.org/1999/xlink" x="0px" y="0px"
	 viewBox="0 0 132.811 47.214" enable-background="new 0 0 132.811 47.214" xml:space="preserve">
<polygon points="0.571,16.737 0.571,13.958 2.775,13.958 2.775,3.048 0.571,3.048 0.571,0.265 7.495,0.265 13.555,10.537 
	13.555,3.048 11.41,3.048 11.41,0.265 18.805,0.265 18.805,3.048 16.495,3.048 16.495,16.859 12.82,16.859 5.715,4.647 
	5.715,13.958 7.789,13.958 7.789,16.737 "/>
<path d="M35.513,13.958v2.779h-8.101v-2.779h2.11l-0.78-2.832h-4.277l-0.881,2.832h2.206v2.779h-7.298v-2.779h2.039l3.211-10.91
	h-2.195V0.265h10.76v2.783H30.09l3.459,10.91H35.513z M28.061,8.71L26.69,3.748L25.209,8.71H28.061z"/>
<polygon points="38.345,16.737 38.345,13.958 40.82,13.958 40.82,3.048 38.345,3.048 38.345,6.884 35.512,6.884 35.512,0.265 
	50.451,0.265 50.451,6.884 47.654,6.884 47.654,3.048 45.106,3.048 45.106,13.958 47.58,13.958 47.58,16.737 "/>
<polygon points="51.951,16.737 51.951,13.958 54.445,13.958 54.445,3.048 51.951,3.048 51.951,0.265 61.258,0.265 61.258,3.048 
	58.736,3.048 58.736,13.958 61.258,13.958 61.258,16.737 "/>
<path d="M71.418,0c2.844,0,5.083,0.824,6.715,2.469c1.626,1.64,2.443,3.639,2.443,6.003c0,2.371-0.817,4.373-2.451,6.012
	c-1.637,1.636-3.869,2.458-6.707,2.458c-2.943,0-5.208-0.844-6.786-2.532c-1.576-1.681-2.366-3.663-2.366-5.938
	c0-2.351,0.808-4.353,2.433-6.001C66.323,0.828,68.562,0,71.418,0 M71.418,3.014c-1.262,0-2.333,0.47-3.215,1.419
	c-0.879,0.948-1.321,2.34-1.321,4.17c0,1.618,0.437,2.914,1.302,3.885c0.872,0.97,1.948,1.456,3.234,1.456
	c1.266,0,2.337-0.474,3.222-1.429c0.882-0.947,1.33-2.321,1.33-4.112c0-1.605-0.426-2.904-1.268-3.898
	C73.856,3.511,72.76,3.014,71.418,3.014"/>
<polygon points="81.101,16.737 81.101,13.958 83.302,13.958 83.302,3.048 81.101,3.048 81.101,0.265 88.018,0.265 94.081,10.537 
	94.081,3.048 91.938,3.048 91.938,0.265 99.328,0.265 99.328,3.048 97.018,3.048 97.018,16.859 93.348,16.859 86.24,4.647 
	86.24,13.958 88.313,13.958 88.313,16.737 "/>
<path d="M115.988,13.958v2.779h-8.105v-2.779h2.11l-0.782-2.832h-4.279l-0.874,2.832h2.204v2.779h-7.298v-2.779h2.04l3.209-10.91
	h-2.192V0.265h10.756v2.783h-2.215l3.458,10.91H115.988z M108.534,8.71l-1.372-4.962l-1.48,4.962H108.534z"/>
<polygon points="117.519,16.737 117.519,13.958 119.873,13.958 119.873,3.048 117.519,3.048 117.519,0.265 126.565,0.265 
	126.565,3.048 124.16,3.048 124.16,13.958 129.029,13.958 129.029,8.863 132.24,8.863 132.24,16.737 "/>
<path d="M66.587,29.284c-0.425-0.324-1.008-0.486-1.752-0.486h-1.906v3.943h1.509c1.852,0,2.788-0.664,2.788-1.99
	C67.226,30.098,67.009,29.607,66.587,29.284 M80.576,34.596h2.923l-1.412-5.081L80.576,34.596z M45.601,28.764
	c-1.295,0-2.389,0.482-3.29,1.455c-0.903,0.97-1.353,2.393-1.353,4.268c0,1.657,0.445,2.983,1.335,3.977
	c0.89,0.992,1.99,1.492,3.308,1.492c1.298,0,2.393-0.489,3.301-1.46c0.902-0.976,1.356-2.379,1.356-4.216
	c0-1.641-0.431-2.97-1.296-3.988C48.099,29.272,46.976,28.764,45.601,28.764 M0,21.494v25.72h132.811v-25.72H0z M16.855,41.765
	c-0.972,0.841-2.119,1.259-3.443,1.259c-1.482,0-2.619-0.551-3.422-1.64v1.434H7.128v-5.747H9.99
	c0.034,1.05,0.306,1.821,0.827,2.323c0.515,0.496,1.106,0.747,1.768,0.747c0.52,0,0.953-0.181,1.314-0.542
	c0.351-0.359,0.531-0.78,0.531-1.272c0-0.513-0.175-0.945-0.522-1.298c-0.349-0.351-0.983-0.751-1.905-1.206
	c-1.951-0.935-3.277-1.766-3.973-2.487c-0.7-0.723-1.048-1.691-1.048-2.913c0-1.476,0.463-2.617,1.384-3.43
	c0.926-0.809,1.971-1.214,3.143-1.214c1.337,0,2.38,0.523,3.112,1.571v-1.396h2.851v5.125h-2.851
	c-0.085-0.793-0.358-1.403-0.816-1.836c-0.455-0.433-0.987-0.65-1.596-0.65c-0.47,0-0.864,0.125-1.189,0.378
	c-0.323,0.248-0.483,0.574-0.483,0.98c0,0.348,0.131,0.678,0.398,0.989c0.268,0.311,1.047,0.751,2.344,1.325
	c1.246,0.554,2.205,1.056,2.87,1.507c0.668,0.447,1.191,1.031,1.579,1.745c0.388,0.712,0.585,1.545,0.585,2.483
	C18.313,39.668,17.825,40.923,16.855,41.765z M34.87,32.73h-2.864v-3.932h-2.603v11.169h2.533v2.851h-9.461v-2.851h2.537V28.798
	h-2.537v3.932h-2.898v-6.776H34.87V32.73z M52.465,40.507c-1.673,1.677-3.958,2.517-6.864,2.517c-3.013,0-5.33-0.864-6.946-2.589
	c-1.621-1.724-2.426-3.753-2.426-6.081c0-2.412,0.828-4.458,2.492-6.143c1.66-1.685,3.953-2.525,6.88-2.525
	c2.912,0,5.199,0.84,6.872,2.523c1.669,1.678,2.504,3.725,2.504,6.145C54.977,36.779,54.142,38.832,52.465,40.507z M91.126,42.818
	h-8.293v-2.851h2.157l-0.801-2.896h-4.378l-0.895,2.896h2.253v2.851H68.673l-3.81-7.383h-1.934v4.532h2.113v2.851h-8.816v-2.851
	h2.314V28.798h-2.314v-2.844h10.173c1.916,0,3.295,0.48,4.14,1.446c0.848,0.964,1.269,2.06,1.269,3.28
	c0,1.916-0.972,3.312-2.921,4.194l2.739,5.093h4.159l3.284-11.169h-2.241v-2.844h11.01v2.844h-2.267l3.545,11.169h2.01V42.818z
	 M108.751,39.169c-0.738,1.195-1.814,2.136-3.225,2.823c-1.408,0.688-2.992,1.032-4.745,1.032c-3.05,0-5.389-0.816-7.015-2.447
	c-1.629-1.635-2.445-3.708-2.445-6.223c0-1.748,0.406-3.289,1.213-4.626c0.807-1.338,1.897-2.347,3.264-3.027
	c1.365-0.68,2.849-1.015,4.446-1.015c2.265,0,4.029,0.548,5.291,1.649v-1.381h2.862v5.984h-2.862
	c-0.298-1.009-0.894-1.806-1.786-2.389c-0.885-0.578-1.84-0.873-2.859-0.873c-1.343,0-2.487,0.478-3.432,1.43
	c-0.946,0.949-1.417,2.262-1.417,3.944c0,1.924,0.477,3.394,1.44,4.395c0.96,1.008,2.135,1.511,3.518,1.511
	c1.018,0,1.865-0.245,2.537-0.741c0.668-0.492,1.135-1.181,1.39-2.06h-2.969v-2.85h7.907
	C109.864,36.351,109.491,37.97,108.751,39.169z M125.83,31.297h-3.224v-2.499h-5.224v3.896h4.215v2.848h-4.215v4.425h5.224v-2.52
	h3.224v5.371h-14.865v-2.851h2.024V28.798h-2.024v-2.844h14.865V31.297z"/>
</svg>
