<?xml version="1.0" encoding="utf-8"?>
<!-- Generator: Adobe Illustrator 22.0.1, SVG Export Plug-In . SVG Version: 6.00 Build 0)  -->
<svg version="1.1" id="Layer_1" xmlns="http://www.w3.org/2000/svg" xmlns:xlink="http://www.w3.org/1999/xlink" x="0px" y="0px"
	 viewBox="0 0 407.9615 163.0394" enable-background="new 0 0 407.9615 163.0394" xml:space="preserve">
<path d="M40.8511,113.7735v45.8999c0,1.377-0.4595,2.2185-2.2188,2.2185h-6.9614c-1.9126,0-2.4482-1.071-3.4424-2.6011
	l-16.2183-26.2395v26.6221c0,1.7595-0.8413,2.2185-2.2183,2.2185H2.2183c-1.377,0-2.2183-0.459-2.2183-2.2185v-45.8999
	c0-1.377,0.459-2.2185,2.2183-2.2185h7.1909c1.9126,0,2.4482,1.071,3.4429,2.6011l16.2178,26.1628v-26.5454
	c0-1.7595,0.8413-2.2185,2.2188-2.2185h7.3438C40.0093,111.555,40.8511,112.014,40.8511,113.7735z M92.8209,161.892h-8.0327
	c-1.6831,0-2.2949-0.459-2.9072-2.2949l-1.5516-4.3785c-0.3537-0.998-1.2976-1.665-2.3564-1.665h-15.21
	c-1.0587,0-2.0027,0.6669-2.3564,1.6648l-1.552,4.3787c-0.6118,1.8359-1.2236,2.2949-2.9067,2.2949h-8.0327
	c-1.6831,0-1.6831-1.2241-1.3003-2.1421l16.9829-45.8235c0.6118-1.6064,1.4536-2.3713,3.1362-2.3713h7.3442
	c1.6831,0,2.4478,0.7649,3.1367,2.3713l16.9063,45.8235C94.5035,160.6678,94.5035,161.892,92.8209,161.892z M75.2468,140.2007
	l-3.4201-10.0783c-0.4606-1.3573-2.3802-1.3573-2.8409,0l-3.4204,10.0783c-0.4402,1.297,0.5242,2.6428,1.8939,2.6428h5.8936
	C74.7226,142.8434,75.687,141.4977,75.2468,140.2007z M139.1098,113.7735l-16.3711,45.8235
	c-0.918,1.989-1.4536,2.2949-3.1367,2.2949h-7.3438c-1.6831,0-2.2188-0.3059-3.1367-2.2949l-16.4473-45.8235
	c-0.3828-0.9946-0.0767-2.2185,1.377-2.2185h8.4912c1.9893,0,2.5249,0.6121,3.1367,2.448l8.9735,27.3168
	c0.4525,1.3774,2.4017,1.3753,2.8512-0.0031l8.9068-27.3137c0.6118-1.8359,1.1475-2.448,3.2129-2.448h8.1089
	C139.1859,111.555,139.4921,112.7789,139.1098,113.7735z M169.6702,153.63v6.0435c0,1.377-0.459,2.2185-2.2183,2.2185h-21.6494
	c-1.7598,0-2.2188-0.8416-2.2188-2.2185V153.63c0-1.377,0.459-2.2185,2.2188-2.2185h2.8193c1.1046,0,2-0.8954,2-2v-24.2229
	c0-1.6569-1.3431-3-3-3h-1.6665c-1.7593,0-2.2183-0.8416-2.2183-2.2185v-6.1965c0-1.377,0.459-2.2185,2.2183-2.2185h21.2671
	c1.7593,0,2.2183,0.8416,2.2183,2.2185v6.1965c0,1.377-0.459,2.2185-2.2183,2.2185h-1.5898c-1.6568,0-3,1.3431-3,3v24.2229
	c0,1.1046,0.8954,2,2,2h2.8193C169.2112,151.4115,169.6702,152.253,169.6702,153.63z M219.4148,136.035v11.0925
	c-0.6885,11.0159-11.8574,15.9119-20.5786,15.9119c-9.0269,0-20.5786-4.5898-20.5786-16.6003V127.62
	c0-12.0869,11.5518-17.2124,20.5786-17.2124c9.5625,0,20.5786,5.5078,20.5786,15.7588c0,1.8362-0.459,2.1421-2.2188,2.1421h-7.4204
	c-2.1421,0-1.8359-1.53-2.2183-2.6011c-0.8418-2.3713-3.5957-4.6665-8.7212-4.6665c-5.0488,0-8.415,3.3662-8.415,8.2622v15.3765
	c0,4.896,3.3662,7.7263,8.415,7.7263c3.766,0,6.6983-1.3163,7.8996-4.5138c0.668-1.7779-0.6944-3.6715-2.5936-3.6715h-3.6995
	c-1.7593,0-2.2183-0.8416-2.2183-2.2185v-5.967c0-1.377,0.459-2.2185,2.2183-2.2185h16.7534
	C218.9559,133.8165,219.4148,134.6581,219.4148,136.035z M270.9049,161.892h-8.0327c-1.6831,0-2.2949-0.459-2.9072-2.2949
	l-1.5516-4.3785c-0.3537-0.998-1.2976-1.665-2.3564-1.665h-15.21c-1.0587,0-2.0027,0.6669-2.3564,1.6648l-1.552,4.3787
	c-0.6118,1.8359-1.2236,2.2949-2.9067,2.2949h-8.0327c-1.6831,0-1.6831-1.2241-1.3003-2.1421l16.9829-45.8235
	c0.6118-1.6064,1.4536-2.3713,3.1362-2.3713h7.3442c1.6831,0,2.4478,0.7649,3.1367,2.3713l16.9063,45.8235
	C272.5875,160.6678,272.5875,161.892,270.9049,161.892z M253.3308,140.2007l-3.4201-10.0783c-0.4606-1.3573-2.3802-1.3573-2.8409,0
	l-3.4204,10.0783c-0.4402,1.297,0.5242,2.6428,1.8939,2.6428h5.8936C252.8066,142.8434,253.771,141.4977,253.3308,140.2007z
	 M310.9821,113.7735v6.3494c0,1.377-0.459,2.2185-2.2183,2.2185h-9.7046c-1.1046,0-2,0.8954-2,2v35.332
	c0,1.7595-0.8413,2.2185-2.2188,2.2185h-7.5732c-1.377,0-2.2188-0.459-2.2188-2.2185v-35.332c0-1.1046-0.8954-2-2-2h-9.7808
	c-1.7593,0-2.2188-0.8416-2.2188-2.2185v-6.3494c0-1.377,0.4595-2.2185,2.2188-2.2185h35.4961
	C310.5231,111.555,310.9821,112.3966,310.9821,113.7735z M357.0318,145.7504c0,12.0872-11.4751,17.2891-20.5786,17.2891
	s-20.4253-5.2019-20.4253-17.2891v-18.054c0-12.0869,11.3218-17.2888,20.4253-17.2888s20.5786,5.2019,20.5786,17.2888V145.7504z
	 M345.0216,128.7674c0-4.896-3.519-7.7266-8.5684-7.7266c-4.9722,0-8.4912,2.8306-8.4912,7.7266v15.9121
	c0,4.896,3.519,7.7263,8.4912,7.7263c5.0493,0,8.5684-2.8303,8.5684-7.7263V128.7674z M406.5115,161.892h-8.6606
	c-1.5148,0-2.9279-0.7621-3.7601-2.0279l-9.1508-13.9182c-0.4827-0.7341-0.7399-1.5935-0.7399-2.4722v-6.4333c0-1.1046,0.8954-2,2-2
	h0.9668h1.4998c3.6739,0,7.1229-2.6008,7.1229-6.1963c0-3.978-2.9991-6.5027-6.898-6.5027h-9.9718v37.332
	c0,1.7595-0.825,2.2185-2.1746,2.2185h-7.4225c-1.35,0-2.0995-0.459-2.0995-2.2185V113.85c0-1.377,0.3747-2.2185,2.0995-2.2185
	h18.8942c8.1725,0,11.7712,1.6831,14.9207,4.896c2.7737,2.7542,4.3487,7.1145,4.3487,12.0105
	c0,7.1596-4.5868,12.3743-8.8757,14.5609c-0.792,0.4038-1.0336,1.4236-0.5367,2.1608l9.5621,14.1843
	C408.3109,160.515,407.9362,161.892,406.5115,161.892z M131,33.4909l25.6876-25.6874c0.9763-0.9763,0.9763-2.5592,0-3.5355
	l-3.5358-3.5357c-0.9763-0.9763-2.5592-0.9763-3.5355,0L131,19.3488c-0.9763,0.9763-2.5592,0.9763-3.5355,0L108.8482,0.7322
	c-0.9763-0.9763-2.5592-0.9763-3.5355,0l-3.5357,3.5357c-0.9763,0.9763-0.9763,2.5592,0,3.5355l25.6876,25.6874
	C128.4408,34.4672,130.0237,34.4672,131,33.4909z M276.3832,0.9617l-17.8849,17.8851c-0.9763,0.9763-2.5592,0.9763-3.5355,0
	l-17.275-17.275c-0.9763-0.9763-2.5592-0.9763-3.5355,0l-17.798,17.7978c-0.9763,0.9763-2.5592,0.9763-3.5355,0L194.7083,1.2591
	c-0.9723-0.9723-2.5633-0.9723-3.5355,0l-44.4344,44.4344l-16.1968,16.1968c-0.9723,0.9723-2.5633,0.9723-3.5355,0l-18.0954-18.0954
	c-0.9722-0.9722-2.5632-0.9723-3.5355-0.0001l-3.5356,3.5354c-0.9723,0.9723-0.9724,2.5633-0.0001,3.5356l25.1665,25.1665
	c0.9723,0.9723,2.5633,0.9723,3.5355,0l17.9646-17.9645c0.9763-0.9763,2.5592-0.9763,3.5355,0l17.0161,17.0163
	c0.9763,0.9763,2.5592,0.9763,3.5355,0l17.7979-17.7979c0.9723-0.9723,2.5633-0.9723,3.5356,0l18.369,18.3692
	c0.9763,0.9763,2.5592,0.9763,3.5355,0l44.4349-44.4342l-0.0002-0.0002l16.1172-16.1173c0.9763-0.9763,2.5592-0.9763,3.5356,0
	l19.1808,19.1808c0.9763,0.9763,2.5591,0.9763,3.5355,0.0001l3.5356-3.5354c0.9764-0.9763,0.9764-2.5593,0.0001-3.5356
	l-26.252-26.252C278.9424-0.0146,277.3595-0.0146,276.3832,0.9617z M190.3913,43.1441L172.5933,60.942
	c-0.9763,0.9763-2.5592,0.9763-3.5356,0l-9.9451-9.9452c-0.9763-0.9763-0.9763-2.5592,0-3.5355l32.0601-32.0601
	c0.9723-0.9723,2.5633-0.9723,3.5355,0l18.1105,18.1105c0.9763,0.9763,2.5592,0.9763,3.5355,0l17.798-17.7978
	c0.9763-0.9763,2.5592-0.9763,3.5355,0l10.2039,10.2039c0.9763,0.9763,0.9763,2.5592,0,3.5355l-32.0603,32.0601
	c-0.9763,0.9763-2.5592,0.9763-3.5355,0l-18.369-18.3692C192.9505,42.1678,191.3676,42.1678,190.3913,43.1441z M258.3274,77.1637
	l18.6373-18.6373c0.9763-0.9763,2.5592-0.9763,3.5355,0l18.6369,18.6371c0.9763,0.9763,2.5592,0.9763,3.5355,0l3.5357-3.5356
	c0.9763-0.9763,0.9763-2.5592,0-3.5356l-25.7081-25.7081c-0.9763-0.9763-2.5592-0.9763-3.5355,0l-25.7086,25.7081
	c-0.9763,0.9763-0.9763,2.5592,0,3.5356l3.5357,3.5357C255.7682,78.14,257.3511,78.14,258.3274,77.1637z"/>
</svg>
