<?xml version="1.0" encoding="utf-8"?>
<!-- Generator: Adobe Illustrator 22.0.1, SVG Export Plug-In . SVG Version: 6.00 Build 0)  -->
<svg version="1.1" id="Layer_1" xmlns="http://www.w3.org/2000/svg" xmlns:xlink="http://www.w3.org/1999/xlink" x="0px" y="0px"
	 viewBox="0 0 236.0034 147.7215" enable-background="new 0 0 236.0034 147.7215" xml:space="preserve">
<g>
	<g>
		<path d="M87.804,46.648l61.5067-9.0457c0.3499,3.1403,0.7068,6.2728,1.0694,9.3981c0.3626,3.1253,0.647,6.2961,0.8533,9.5125
			c-0.8677-1.7643-1.8243-3.0872-2.8693-3.9685c-1.0468-0.8816-2.2075-1.5419-3.4834-1.9805
			c-1.2755-0.4386-2.656-0.7092-4.1408-0.8101c-1.4848-0.1013-3.0498-0.2351-4.696-0.4024
			c-1.3016-0.1147-2.6464-0.128-4.0345-0.0391c-1.3881,0.0889-2.7563,0.2074-4.1057,0.3547
			c-1.6931,0.1721-3.3605,0.379-5.002,0.6203c-0.4169,0.0615-0.8333,0.1225-1.2502,0.184
			c-2.0592,0.3287-4.1431,0.6475-6.2517,0.9576l0.569,16.8654l8.8831-1.3064c1.0561-0.1554,2.0149-0.6351,2.8768-1.4389
			c0.862-0.8046,1.6387-1.7555,2.3299-2.854c0.6921-1.0987,1.2709-2.2325,1.7381-3.4004c0.4667-1.1676,0.8441-2.2211,1.1336-3.1584
			l0.931,28.6872c-0.2806-1.0105-0.7118-2.1024-1.2929-3.2755c-0.5817-1.1717-1.2896-2.2485-2.124-3.2299
			c-0.834-0.981-1.7662-1.7681-2.7965-2.3613c-1.0295-0.5929-2.1449-0.8012-3.3468-0.6246l-8.0553,1.1846l0.6735,19.9631
			c3.3834-0.4975,6.4975-0.9421,9.3435-1.3355c0.2201-0.0324,0.4406-0.0648,0.6616-0.0973c2.587-0.3805,4.9741-0.8601,7.1622-1.4394
			c2.3808-0.6575,4.5527-1.5226,6.516-2.5951c1.9623-1.0716,3.7526-2.5288,5.3708-4.3733c1.6172-1.843,3.0838-4.152,4.401-6.9274
			c1.3171-2.7744,2.8635-5.8546,3.9264-9.9668c-0.0239,5.1139-0.6729,30.6407-0.6729,30.6407l-63.5651,8.8836l1.1879-0.7133
			c0.7928-0.4491,1.6599-1.237,2.6011-2.3629c0.9408-1.1254,1.7774-2.6519,2.5081-4.5795c0.7307-1.9279,1.0474-4.3459,0.9494-7.2537
			l-0.3175-9.4136c-0.0386-1.1476-0.2053-2.0974-0.5003-2.8492c-0.295-0.7509-0.7022-1.4027-1.223-1.9543
			c-0.5203-0.5516-1.1421-1.0172-1.8647-1.3979c-0.7235-0.381-1.4963-0.8079-2.3202-1.2818
			c1.4485-1.3202,2.7174-2.7494,3.8029-4.2865c1.0874-1.5374,1.596-3.3306,1.527-5.3807c-0.0504-1.5009-0.089-2.9904-0.1141-4.4696
			c-0.0161-0.4835-0.0326-0.9669-0.0487-1.4501c-0.0327-0.9657-0.0782-1.9293-0.1342-2.8914
			c-0.0929-1.2885-0.3395-2.6123-0.7403-3.9706c-0.4008-1.3581-0.9325-2.6137-1.5964-3.7675
			c-0.6626-1.1533-1.4986-2.1417-2.505-2.9639C90.2675,47.4604,89.1107,46.916,87.804,46.648z"/>
		<path d="M154.6967,37.2043l32.8817-4.8333c3.0752-0.4521,6.2304-0.7221,9.4665-0.8106c3.236-0.0876,6.3366,0.2185,9.3031,0.9186
			c2.9655,0.7014,5.6873,1.877,8.167,3.5273c2.4783,1.6503,4.5334,3.945,6.166,6.8823c0.7099,1.2646,1.261,2.5721,1.6528,3.9221
			c0.3917,1.351,0.784,2.7335,1.1781,4.1475c0.3977,1.5161,1.2276,2.8461,2.4894,3.9904c1.2632,1.1443,2.5119,2.0769,3.7479,2.7985
			c-0.9858,0.8416-1.8076,1.5695-2.4671,2.183c-0.659,0.6131-1.2067,1.2427-1.6421,1.8873
			c-0.4359,0.6448-0.7816,1.3864-1.0379,2.2242c-0.2559,0.8378-0.4858,1.9041-0.6889,3.1993
			c-0.8017,4.8162-2.2587,8.8983-4.371,12.2465c-2.1123,3.3483-4.6895,6.1099-7.7315,8.284
			c-3.0419,2.1734-6.4525,3.8694-10.2312,5.0869c-3.7786,1.217-7.735,2.1298-11.8679,2.7374l-32.5863,4.79
			c1.5999-0.936,2.881-1.8062,3.8431-2.6101c0.9611-0.8029,1.6912-1.709,2.1892-2.7171c0.4971-1.0079,0.8224-2.1722,0.9759-3.4933
			c0.1534-1.3207,0.2222-2.9409,0.2067-4.8605c-0.014-1.1405-0.0389-2.2665-0.0766-3.3774
			c-0.019-0.5652-0.0376-1.1174-0.0555-1.6568c-0.0807-1.6404-0.1492-3.3078-0.2063-5.0039
			c-0.0427-1.2584-0.214-2.3113-0.5145-3.1577c-0.301-0.846-0.7151-1.5793-1.2425-2.1989
			c-0.5279-0.6193-1.1826-1.1426-1.9625-1.5702c-0.7812-0.4273-1.6378-0.8953-2.5697-1.4037
			c0.8394-0.7685,1.6407-1.5509,2.4053-2.3476c0.7651-0.7964,1.4004-1.735,1.908-2.8172c0.5776-1.1944,0.9472-2.3206,1.1099-3.3771
			c0.1623-1.0567,0.2216-2.2138,0.1794-3.4724c0.0014-1.4201-0.0217-2.8495-0.0706-4.2883
			c-0.0478-1.4136-0.1447-2.8206-0.2908-4.2212c-0.1376-1.1422-0.3709-2.3801-0.6999-3.7142
			c-0.3299-1.3342-0.8153-2.5355-1.4566-3.6043c-0.6423-1.068-1.4689-1.9224-2.479-2.562
			C157.3077,37.2926,156.1007,37.0501,154.6967,37.2043z M184.5618,86.9653l4.7605-0.6997c2.928-0.4304,5.1977-1.4867,6.8101-3.1695
			c1.6115-1.6828,2.7686-3.6856,3.4684-6.0084c0.7008-2.3233,1.0981-4.8145,1.1942-7.4751
			c0.0952-2.6601,0.1036-5.1716,0.0236-7.5353c-0.0779-2.3117-0.2538-4.7702-0.5267-7.3765
			c-0.2738-2.6058-0.8344-4.9565-1.6846-7.0514c-0.8488-2.0954-2.129-3.7465-3.8385-4.9543
			c-1.71-1.2066-4.0284-1.5959-6.9564-1.1655l-4.7605,0.6997l0.4264,12.6385c0.0783,2.3127,0.6821,4.1151,1.8142,5.4066
			c1.1316,1.292,2.5539,2.4188,4.2681,3.3803c-0.8887,0.7764-1.693,1.4886-2.4126,2.1366
			c-0.7204,0.6472-1.3097,1.3216-1.7673,2.0211c-0.4595,0.7002-0.7969,1.505-1.0131,2.4145
			c-0.2167,0.9092-0.3026,2.0189-0.2587,3.329L184.5618,86.9653z"/>
		<g>
			<path d="M14.7397,57.0659l29.6884-4.2693l23.6501,38.8342l-1.6211-27.8343c-0.0811-1.3918-0.2742-2.8766-0.5795-4.4542
				c-0.3052-1.5768-0.8028-3.0112-1.4939-4.3035c-0.691-1.2916-1.5804-2.325-2.6676-3.1009
				c-1.0878-0.7751-2.4463-1.1224-4.0754-1.0413l26.4106-3.798c-0.0445,0.058-0.1535,0.1119-0.3285,0.1621
				c-0.1749,0.0509-0.2861,0.0794-0.3329,0.0862c-0.8117,0.3215-1.5303,0.8077-2.1559,1.4588
				c-0.7837,0.8019-1.4006,1.708-1.8514,2.7169c-0.4515,1.0097-0.792,2.08-1.0224,3.2103c-0.231,1.1312-0.3601,2.2727-0.3874,3.4253
				c-0.028,1.1528-0.0128,2.2227,0.0447,3.21l0.4534,7.7845c0.003,0.0511,0.0081,0.3501,0.0167,0.8974
				c0.008,0.5482,0.1213,1.272,0.3399,2.172c0.218,0.9009,0.5989,1.7327,1.1414,2.4971c0.5923,0.8088,1.2411,1.4622,1.9459,1.9602
				c0.7049,0.4988,1.4868,1.0056,2.3471,1.5196c-0.6997,0.6117-1.3592,1.1977-1.9783,1.7587
				c-0.6198,0.5619-1.1418,1.1598-1.5672,1.7953c-0.4254,0.6355-0.7527,1.3336-0.9807,2.0939
				c-0.2286,0.7604-0.3109,1.6854-0.2475,2.7734l1.0151,17.4297c0.084,1.443,0.5514,2.5503,1.4028,3.3211
				c0.8507,0.7716,1.7856,1.5562,2.8047,2.3536l-24.6101,3.539L35.0603,71.9109l1.7582,30.1887
				c0.1062,1.8227,0.3867,3.6911,0.8416,5.6035c0.4548,1.9132,1.2766,3.5248,2.4661,4.8338
				c0.3521,0.3581,0.794,0.7224,1.3246,1.0923c0.5307,0.3707,1.0589,0.6901,1.5837,0.9593
				c0.5248,0.2692,0.9816,0.4781,1.3691,0.6264l0.5463,0.2278l-25.9528,3.7321c0.0468-0.0067,0.1911-0.0783,0.4321-0.2153
				c0.241-0.1363,0.5173-0.2784,0.8289-0.4255c0.3116-0.1464,0.6044-0.31,0.8785-0.4901c0.2741-0.1793,0.4787-0.3302,0.6139-0.452
				c0.8357-0.7071,1.4948-1.5102,1.976-2.4093c0.4812-0.8983,0.8403-1.8498,1.0786-2.8546c0.2377-1.004,0.3738-2.0258,0.4084-3.0646
				c0.0339-1.0387,0.0458-2.0552,0.0358-3.0493c-0.0238-1.6298-0.0829-3.2553-0.1773-4.8758
				c-0.0236-0.4045-0.0472-0.8098-0.0708-1.2151c-0.1417-2.0216-0.2712-4.0449-0.3891-6.0706
				c-0.0545-0.9362-0.2432-1.7323-0.5659-2.3884c-0.3227-0.6553-0.7529-1.2186-1.29-1.6908
				c-0.5377-0.4713-1.137-0.8954-1.7992-1.2729c-0.6622-0.3768-1.3362-0.746-2.0207-1.107
				c0.7889-0.7003,1.4838-1.3938,2.0841-2.0802c0.6003-0.6857,1.1446-1.5107,1.6343-2.4751l0.0044,0.076
				c0.3894-0.6429,0.6502-1.5545,0.7832-2.7356c0.1323-1.1803,0.1839-2.4322,0.1547-3.7556
				c-0.0259-0.8637-0.0633-1.7265-0.1135-2.5875c-0.0236-0.4045-0.0479-0.8223-0.073-1.2531
				c-0.0955-1.2116-0.1615-2.1336-0.1984-2.7667c-0.0781-1.3415-0.2583-2.8023-0.5398-4.3833
				c-0.2822-1.5802-0.7281-3.0352-1.339-4.3641c-0.6109-1.3289-1.4501-2.3953-2.5161-3.1993
				C17.7506,57.2648,16.3912,56.9308,14.7397,57.0659z"/>
		</g>
	</g>
	<path d="M234.4257,82.3821c1.2355,22.673-33.6674,21.4474-79.3809,27.8817c-28.7254,4.2895-64.5549,8.2726-93.5891,12.562
		c-25.6366,3.6767-40.1538,5.8215-44.478,10.7237c-1.8533,1.8383-2.471,4.2895-2.1621,7.047
		c0.6177,4.5959,4.942,7.6598,9.5751,7.047c4.6331-0.6128,7.7219-4.9023,7.1041-9.4982c0-0.3064,0-0.6128-0.3089-0.9192
		c11.1195-4.9023,50.3466-13.1749,95.1335-20.5283c4.3243,3.6767,14.826,10.1109,26.8721,6.1279
		c17.6059,15.626,43.2425,4.9023,46.6402-16.5452C227.0127,102.9104,240.9121,98.3145,234.4257,82.3821z M133.1147,115.7788
		c4.0154-0.6128,8.0307-1.2255,12.355-1.8383c1.8532,2.7576,3.7065,4.9023,5.5598,7.047
		C142.6898,122.2131,136.2034,118.5364,133.1147,115.7788z M152.2649,112.7149c0.9266,0,8.3396-1.2256,10.8107-1.5319
		c-1.2355,3.6767-3.7065,5.515-6.1775,7.3534C154.7359,116.698,153.5004,114.8597,152.2649,112.7149z M158.1335,120.3747
		c3.0887-2.4511,5.2509-5.515,6.4864-9.1917c12.355-1.532,23.4745-2.7575,33.0496-4.2895
		C194.8897,123.745,173.2684,133.856,158.1335,120.3747z"/>
	<path d="M220.9524,7.1249c-0.6171-4.5959-4.9367-7.6598-9.5649-7.047c-4.6282,0.6128-7.7137,4.9023-7.0966,9.4982
		c0,0.3064,0,0.6128,0.3085,0.9192c-11.1077,4.9023-50.293,13.1748-95.0322,20.5283c-4.3196-3.6767-14.8102-10.1109-26.8435-6.1279
		c-17.5871-15.626-43.1965-4.9023-46.5905,16.5452C8.9812,45.1175-4.9034,49.7134,1.5761,65.6458
		C0.959,42.6664,35.5161,43.892,81.181,37.4577c28.6948-3.9831,64.4861-7.9662,93.1809-12.5621
		c25.6093-3.6767,40.111-5.8214,44.4306-10.7237C220.6438,12.3336,221.2609,9.8824,220.9524,7.1249z M38.6016,41.1344
		c2.7769-17.1579,24.3751-27.2689,39.4939-13.4813c-3.0855,2.4512-5.2453,5.5151-6.4795,9.1918
		C59.2742,38.3769,48.1665,39.6025,38.6016,41.1344z M73.1588,36.5385c1.2342-3.6767,3.7026-5.515,6.1709-7.3534
		c2.1598,1.8384,3.394,3.6767,4.6282,5.8215C83.0323,35.0066,75.6271,36.2321,73.1588,36.5385z M90.7459,33.781
		c-1.8513-2.7575-3.7026-4.9023-5.5538-7.047c8.3307-1.2256,14.8102,2.7575,17.8957,5.2086
		C99.0767,32.5554,95.0656,33.1682,90.7459,33.781z"/>
</g>
</svg>
