<?xml version="1.0" encoding="utf-8"?>
<!-- Generator: Adobe Illustrator 22.0.1, SVG Export Plug-In . SVG Version: 6.00 Build 0)  -->
<svg version="1.1" id="Layer_1" xmlns="http://www.w3.org/2000/svg" xmlns:xlink="http://www.w3.org/1999/xlink" x="0px" y="0px"
	 viewBox="0 0 211.1055 53.9879" enable-background="new 0 0 211.1055 53.9879" xml:space="preserve">
<path d="M18.4414,17.1934l-0.5615,1.666h-7.2441L9.9492,17.209c0.5684-0.083,0.874-0.1318,0.916-0.1465
	c0.499-0.1104,0.8115-0.2637,0.9365-0.459c0.083-0.125,0.125-0.2852,0.125-0.4805c0-0.125-0.0176-0.2578-0.0518-0.3965
	c-0.0352-0.1396-0.0869-0.3271-0.1563-0.5645l-0.833-2.5898H5.7256l-0.8984,2.6719c-0.0459,0.1104-0.0986,0.2422-0.1582,0.3936
	c-0.0605,0.1523-0.0898,0.3184-0.0898,0.498c0,0.1387,0.0342,0.291,0.1035,0.457c0.0693,0.165,0.4795,0.3311,1.2285,0.4971
	c0.3047,0.0693,0.541,0.1035,0.708,0.1035l-0.5205,1.666H0.582L0,17.2061c0.208-0.0283,0.4229-0.0635,0.6455-0.1055
	c0.499-0.1387,0.8564-0.334,1.0713-0.585c0.2158-0.251,0.3789-0.4814,0.4902-0.6914c0.041-0.0693,0.1455-0.334,0.3115-0.7949
	L7.7012,0.3545h3.0391l5.2871,15.0908c0.042,0.125,0.083,0.2432,0.125,0.3535c0.0967,0.2227,0.2188,0.4268,0.3643,0.6143
	s0.5029,0.3711,1.0723,0.5518C17.8662,17.0479,18.1504,17.124,18.4414,17.1934z M10.2617,10.5742L8.4551,4.7197l-2.0703,5.8604
	L10.2617,10.5742z M41.6582,2.082c-0.4717,0-0.8779,0.0244-1.2178,0.0732c-0.3408,0.0488-0.5586,0.1494-0.6563,0.3018
	c-0.0967,0.1533-0.1699,0.3574-0.2178,0.6152c-0.0488,0.2568-0.0732,0.5313-0.0732,0.8232v9.6484
	c0,1.5146-0.5342,2.7998-1.6025,3.8555c-1.249,1.2363-3.0049,1.8555-5.2666,1.8555c-2.8447,0-4.7666-0.7852-5.7656-2.3555
	c-0.5693-0.8896-0.8535-2.2227-0.8535-4.001V3.749c0-0.25-0.0283-0.4727-0.083-0.667c-0.0557-0.1943-0.1602-0.3682-0.3125-0.5205
	c-0.1943-0.1943-0.6172-0.3408-1.2695-0.4385c-0.292-0.041-0.4863-0.0547-0.583-0.041l0.4785-1.707h7.3896l0.458,1.7275
	C32,2.0605,31.7393,2.0713,31.3027,2.1338c-0.4375,0.0625-0.7598,0.1699-0.9678,0.3223c-0.1396,0.1113-0.2295,0.3027-0.2715,0.5732
	c-0.041,0.2705-0.0625,0.5029-0.0625,0.6973v9.0127c0,1.332,0.2363,2.3457,0.708,3.0391c0.5693,0.8467,1.499,1.2695,2.7891,1.2695
	c1.4014,0,2.4219-0.4297,3.0605-1.29c0.5273-0.708,0.791-1.7139,0.791-3.0186V4.0801c0-0.3604-0.0107-0.6377-0.0313-0.833
	c-0.0215-0.1934-0.1084-0.416-0.2607-0.666c-0.083-0.1523-0.291-0.2734-0.624-0.3643c-0.333-0.0898-0.6592-0.1348-0.9785-0.1348
	c-0.1533,0-0.2568,0-0.3125,0l0.458-1.707h5.5996L41.6582,2.082z M60.3564,13.4053c0,1.749-0.6006,3.1748-1.8008,4.2773
	c-1.2002,1.1035-2.751,1.6553-4.6523,1.6553c-0.8047,0-1.5537-0.083-2.248-0.25c-1.498-0.3604-2.3447-0.541-2.5391-0.541
	c-0.208,0-0.4443,0.0557-0.708,0.166c-0.2637,0.1113-0.5547,0.2568-0.874,0.4375l-0.3125-6.5986l2.1855-0.5615l0.1465,0.916
	c0.208,1.248,0.6758,2.293,1.4043,3.1318c0.7285,0.8398,1.5996,1.2598,2.6123,1.2598c0.916,0,1.6582-0.1875,2.2275-0.5625
	c0.6523-0.4297,0.9785-1.0615,0.9785-1.8936c0-0.9297-0.292-1.6719-0.874-2.2275c-0.3477-0.333-1.0342-0.7354-2.0615-1.207
	l-3.2051-1.4775c-0.9023-0.4023-1.624-1-2.165-1.791c-0.583-0.8457-0.874-1.7969-0.874-2.8516c0-1.4844,0.5615-2.7373,1.6855-3.7568
	S51.7461,0,53.2998,0c0.6104,0,1.1523,0.0283,1.624,0.084c0.041,0,0.9785,0.166,2.8096,0.499
	c0.1807,0.042,0.4551-0.0205,0.8223-0.1875c0.3682-0.166,0.5723-0.2559,0.6143-0.2705l0.2285,5.5371l-1.998,0.375
	c-0.0693-0.625-0.2568-1.2705-0.5615-1.9365c-0.4443-0.9707-0.9922-1.582-1.6445-1.8311c-0.458-0.167-0.9365-0.25-1.4365-0.25
	c-0.7354,0-1.332,0.166-1.79,0.499c-0.541,0.3887-0.8115,0.958-0.8115,1.707c0,0.9297,0.416,1.5957,1.249,1.998l4.5586,2.1865
	c1.082,0.5127,1.918,1.1855,2.5078,2.0186S60.3564,12.2539,60.3564,13.4053z M81.2627,5.8496l-2.082,0.499l-0.25-1.6025
	c-0.041-0.208-0.083-0.416-0.125-0.624c-0.1797-0.7637-0.4512-1.3047-0.8115-1.624c-0.1523-0.1104-0.3398-0.1797-0.5615-0.208
	c-0.2227-0.0273-0.4512-0.042-0.6875-0.042h-1.3115v12.6924c0,0.5283,0.0107,0.8691,0.0313,1.0215
	c0.0215,0.1533,0.0938,0.3232,0.2188,0.5107s0.416,0.3506,0.874,0.4902c0.6943,0.208,1.2148,0.291,1.5615,0.25l-0.541,1.6465
	h-8.1387l-0.4785-1.666c0.333,0,0.6309-0.0205,0.8945-0.0625c0.5137-0.083,0.9092-0.2285,1.1865-0.4365
	c0.1797-0.1387,0.291-0.3467,0.333-0.625c0.042-0.2773,0.0625-0.5752,0.0625-0.8945V2.248H70.376
	c-0.2637,0.0146-0.4648,0.0352-0.6035,0.0625c-0.4307,0.084-0.7285,0.2432-0.8955,0.4795c-0.166,0.2354-0.3115,0.5234-0.4365,0.8633
	s-0.209,0.6553-0.25,0.9473l-0.2705,1.332l-2.082,0.5V0.375h15.4248V5.8496z M105.5391,17.2148l-0.582,1.6445h-4.8086
	l-3.2891-6.2813c-0.1113-0.2354-0.3398-0.6182-0.6865-1.1465c-0.4307-0.6543-0.7637-1.0439-0.999-1.1689
	c-0.0977-0.042-0.2334-0.0801-0.4063-0.1143c-0.1738-0.0352-0.3301-0.0527-0.4688-0.0527l-0.6035-1.915h1.3535
	c1.3037,0,2.2617-0.3066,2.8721-0.9189c0.541-0.543,0.8115-1.3369,0.8115-2.3809c0-0.8223-0.2568-1.4766-0.7695-1.9639
	c-0.5137-0.4873-1.2842-0.7314-2.3105-0.7314h-2.3525v12.3779c0,0.209,0.0107,0.5566,0.0313,1.0439
	c0.0215,0.4873,0.1426,0.835,0.3643,1.0439c0.1807,0.167,0.4824,0.3027,0.9053,0.4063c0.4238,0.1045,0.8223,0.1572,1.1973,0.1572
	l-0.5,1.6445h-7.8682l-0.4785-1.6484c0.333-0.0137,0.6699-0.042,1.0098-0.084c0.3398-0.041,0.6064-0.1523,0.8018-0.333
	c0.125-0.1113,0.208-0.2158,0.249-0.3135c0.042-0.0967,0.0625-0.2285,0.0625-0.3965c0-0.2363,0-0.4521,0-0.6465V3.7549
	c0-0.167,0-0.292,0-0.376c0-0.2637-0.0205-0.4521-0.0625-0.5635c-0.083-0.208-0.2285-0.3643-0.4365-0.4688
	s-0.4785-0.1738-0.8115-0.209c-0.334-0.0342-0.6182-0.0518-0.8535-0.0518l0.499-1.7314h7.6182c0.125,0,0.2637,0,0.417,0
	c0.1523,0,0.3252,0,0.5205,0c1.8174,0,3.2744,0.2217,4.3711,0.666c1.8037,0.7354,2.7061,2.0332,2.7061,3.8926
	c0,1.415-0.5625,2.5459-1.6865,3.3926c-0.8193,0.6104-1.7559,0.9854-2.8096,1.124c0.0967,0.0557,0.1934,0.1045,0.291,0.1455
	c0.2217,0.0977,0.4648,0.2549,0.7285,0.4697c0.2637,0.2168,0.4785,0.4248,0.6455,0.627c0.166,0.2012,0.291,0.4063,0.374,0.6152
	l2.623,4.6748c0.1113,0.1816,0.2393,0.335,0.3848,0.46c0.1465,0.125,0.3301,0.2471,0.5518,0.3652s0.4961,0.2256,0.8223,0.3232
	S105.4834,17.2422,105.5391,17.2148z M129.0879,17.1934l-0.5615,1.666h-7.2441l-0.6865-1.6504
	c0.5684-0.083,0.874-0.1318,0.916-0.1465c0.499-0.1104,0.8115-0.2637,0.9365-0.459c0.083-0.125,0.125-0.2852,0.125-0.4805
	c0-0.125-0.0176-0.2578-0.0518-0.3965c-0.0352-0.1396-0.0869-0.3271-0.1563-0.5645l-0.833-2.5898h-5.1602l-0.8984,2.6719
	c-0.0459,0.1104-0.0986,0.2422-0.1582,0.3936c-0.0605,0.1523-0.0898,0.3184-0.0898,0.498c0,0.1387,0.0342,0.291,0.1035,0.457
	c0.0693,0.165,0.4795,0.3311,1.2285,0.4971c0.3047,0.0693,0.541,0.1035,0.708,0.1035l-0.5205,1.666h-5.5166l-0.582-1.6533
	c0.208-0.0283,0.4229-0.0635,0.6455-0.1055c0.499-0.1387,0.8564-0.334,1.0713-0.585c0.2158-0.251,0.3789-0.4814,0.4902-0.6914
	c0.041-0.0693,0.1455-0.334,0.3115-0.7949l5.1826-14.6748h3.0391l5.2871,15.0908c0.042,0.125,0.083,0.2432,0.125,0.3535
	c0.0967,0.2227,0.2188,0.4268,0.3643,0.6143s0.5029,0.3711,1.0723,0.5518C128.5127,17.0479,128.7969,17.124,129.0879,17.1934z
	 M120.9082,10.5742l-1.8066-5.8545l-2.0703,5.8604L120.9082,10.5742z M149.8486,12.4482l-0.375,6.4111h-14.3418l-0.541-1.6445
	c0.1523,0.041,0.4541,0.0176,0.9053-0.0732c0.4512-0.0898,0.7939-0.2324,1.0303-0.4277c0.0557-0.041,0.0967-0.1348,0.125-0.2813
	c0.0273-0.1455,0.042-0.2744,0.042-0.3857c0-0.1797,0-0.2842,0-0.3125V4.166c0-0.0967,0-0.1738,0-0.2295
	c0-0.3887-0.0283-0.708-0.084-0.958s-0.1699-0.4385-0.3428-0.5625c-0.1738-0.125-0.3818-0.2119-0.625-0.2607
	s-0.4893-0.0732-0.7383-0.0732c-0.2227,0-0.3613,0-0.417,0l0.458-1.707h7.4941l0.4785,1.707c-0.168,0-0.3438,0-0.5254,0
	c-0.2666,0-0.4971,0.0176-0.6934,0.0518c-0.1963,0.0352-0.3926,0.1191-0.5889,0.251c-0.1953,0.1318-0.3291,0.4346-0.3984,0.9072
	c-0.0146,0.1533-0.0283,0.376-0.042,0.668v10.959c0,0.251,0.0205,0.5088,0.0625,0.7725c0.041,0.2646,0.1387,0.4912,0.291,0.6787
	s0.3779,0.3301,0.6768,0.4277c0.2979,0.0977,0.6621,0.1465,1.0928,0.1465h0.9365c0.3047-0.0283,0.5479-0.0557,0.7285-0.084
	c0.541-0.083,0.9502-0.1934,1.2285-0.333c0.6104-0.3047,1.0889-0.9502,1.4355-1.9355c0.292-0.833,0.3955-1.3525,0.3125-1.5615
	L149.8486,12.4482z M163.7588,17.2129l-0.458,1.6465h-7.3271l-0.624-1.6465c0.2354-0.0137,0.4707-0.0352,0.707-0.0625
	c0.5137-0.0967,0.8467-0.208,0.999-0.334c0.209-0.1797,0.333-0.3955,0.375-0.6455s0.0625-0.4932,0.0625-0.7295V3.709
	c0-0.333-0.0137-0.5791-0.042-0.7393c-0.0273-0.1602-0.1426-0.3193-0.3428-0.4795c-0.2021-0.1602-0.5664-0.2744-1.0928-0.3438
	c-0.167-0.0137-0.417-0.0283-0.75-0.042l0.4795-1.7295h7.4727l0.457,1.7295c-0.0273-0.0693-0.3291-0.0547-0.9053,0.042
	c-0.5762,0.0977-0.9121,0.2568-1.0088,0.4795c-0.1807,0.375-0.2715,0.75-0.2715,1.125v11.8779c0,0.2227,0.0664,0.4482,0.1982,0.6777
	c0.1318,0.2285,0.3018,0.3916,0.5098,0.4893c0.3193,0.167,0.7285,0.292,1.2285,0.375
	C163.5088,17.1846,163.6201,17.1992,163.7588,17.2129z M187.5781,17.1934l-0.5615,1.666h-7.2441l-0.6865-1.6504
	c0.5684-0.083,0.874-0.1318,0.916-0.1465c0.499-0.1104,0.8115-0.2637,0.9365-0.459c0.083-0.125,0.125-0.2852,0.125-0.4805
	c0-0.125-0.0176-0.2578-0.0518-0.3965c-0.0352-0.1396-0.0869-0.3271-0.1563-0.5645l-0.833-2.5898h-5.1602l-0.8984,2.6719
	c-0.0459,0.1104-0.0986,0.2422-0.1582,0.3936c-0.0605,0.1523-0.0898,0.3184-0.0898,0.498c0,0.1387,0.0342,0.291,0.1035,0.457
	c0.0693,0.165,0.4795,0.3311,1.2285,0.4971c0.3047,0.0693,0.541,0.1035,0.708,0.1035l-0.5205,1.666h-5.5166l-0.582-1.6533
	c0.208-0.0283,0.4229-0.0635,0.6455-0.1055c0.499-0.1387,0.8564-0.334,1.0713-0.585c0.2158-0.251,0.3789-0.4814,0.4902-0.6914
	c0.041-0.0693,0.1455-0.334,0.3115-0.7949l5.1826-14.6748h3.0391l5.2871,15.0908c0.042,0.125,0.083,0.2432,0.125,0.3535
	c0.0967,0.2227,0.2188,0.4268,0.3643,0.6143s0.5029,0.3711,1.0723,0.5518C187.0029,17.0479,187.2871,17.124,187.5781,17.1934z
	 M179.3984,10.5742l-1.8066-5.8545l-2.0703,5.8604L179.3984,10.5742z M211.1055,2.1025c-0.333,0.0283-0.666,0.0557-0.999,0.083
	c-0.333,0.0283-0.5898,0.1328-0.7695,0.3135c-0.125,0.1113-0.2051,0.2217-0.2393,0.333c-0.0352,0.1113-0.0527,0.2646-0.0527,0.459
	c0,0.166,0,0.291,0,0.375v15.1934h-3.2676l-8.4307-14.0713v10.4492c0,0.1113,0,0.2148,0,0.3125c0,0.249,0.0176,0.4678,0.0527,0.6553
	c0.0342,0.1875,0.1172,0.3535,0.249,0.499c0.1318,0.1465,0.4023,0.2646,0.8125,0.3545c0.4092,0.0898,0.7871,0.1348,1.1338,0.1348
	l-0.458,1.666h-5.6201l-0.5195-1.6465c0.1797,0.0273,0.4717,0.0098,0.874-0.0527s0.6865-0.1592,0.8535-0.291
	c0.166-0.1328,0.2734-0.3125,0.3223-0.542s0.0732-0.4971,0.0732-0.8027V3.751c-0.0283-0.1943-0.0488-0.3477-0.0625-0.459
	c-0.0703-0.3467-0.1631-0.5859-0.2813-0.7188c-0.1182-0.1318-0.4551-0.2461-1.0098-0.3438c-0.291-0.042-0.583-0.083-0.874-0.125
	l0.4375-1.7295h5.8281l7.6602,12.9678l0.0205-9.7412c0-0.6104-0.2295-1.0273-0.6865-1.249
	c-0.167-0.0693-0.3994-0.1211-0.6973-0.1563c-0.2988-0.0342-0.6006-0.0654-0.9063-0.0938l0.5-1.7275h5.5576L211.1055,2.1025z
	 M65.7061,36.7525c-0.2637,0.0557-0.5273,0.1113-0.791,0.166c-0.2363,0.084-0.4512,0.2021-0.6455,0.3545
	s-0.3604,0.3672-0.499,0.6455c-0.083,0.1797-0.167,0.4092-0.25,0.6865l-4.8291,14.9033h-2.29l-3.3301-10.3037l-3.2471,10.3037
	h-2.3945L42.7051,38.526c-0.1523-0.4727-0.249-0.75-0.291-0.834c-0.1113-0.1807-0.2783-0.3545-0.5-0.5205
	c-0.1523-0.0977-0.3535-0.1807-0.6035-0.25c-0.291-0.0557-0.5762-0.1113-0.8535-0.167l0.6035-1.7295h6.7656l0.4365,1.7314
	c-0.2354,0.0137-0.458,0.0313-0.666,0.0518s-0.4092,0.1006-0.6035,0.2402c-0.0967,0.0557-0.1631,0.1387-0.1973,0.25
	c-0.0352,0.1113-0.0527,0.2578-0.0527,0.4385c0,0.0693,0.0068,0.167,0.0215,0.292c0.0137,0.125,0.0342,0.2295,0.0625,0.3125
	l2.7559,9.4922l2.4629-8.0234c-0.083-0.2627-0.1455-0.4707-0.1865-0.624c-0.291-0.9287-0.5264-1.5469-0.7061-1.8516
	c-0.0967-0.1797-0.3535-0.3262-0.7686-0.4375c-0.166-0.041-0.4023-0.0898-0.7061-0.1455l0.4365-1.7266h6.7236l0.375,1.7305
	c-0.3193,0.0283-0.6113,0.0732-0.875,0.1357s-0.4541,0.1494-0.5723,0.2607s-0.1973,0.2324-0.2393,0.3652
	c-0.041,0.1318-0.0625,0.2607-0.0625,0.3857c0,0.1523,0.0137,0.3125,0.042,0.4795s0.042,0.2568,0.042,0.2705l2.8379,9.1133
	l2.9932-9.5762c0.0537-0.1943,0.0801-0.3887,0.0801-0.584c0-0.166-0.0283-0.3047-0.083-0.416
	c-0.1113-0.2217-0.3574-0.3467-0.7393-0.375c-0.3818-0.0273-0.7109-0.0479-0.9883-0.0615l0.333-1.7285h5.3906L65.7061,36.7525z
	 M90.1289,51.8639l-0.582,1.6445h-7.3271l-0.625-1.6484c0.2363-0.041,0.417-0.0762,0.542-0.1035
	c0.291-0.0693,0.5684-0.1465,0.832-0.2295c0.375-0.125,0.6104-0.3691,0.708-0.7305c0.0273-0.1113,0.041-0.2852,0.041-0.5215v-5.6543
	h-6.4521v5.1143c0,0.1113,0.0029,0.2959,0.0107,0.5537c0.0068,0.2568,0.0859,0.5527,0.2393,0.8867
	c0.0967,0.1953,0.3184,0.3584,0.666,0.4902c0.3467,0.1328,0.8115,0.1982,1.3945,0.1982l-0.541,1.6445H71.749l-0.541-1.6504
	c0.208-0.0137,0.4238-0.0273,0.6455-0.042c0.458-0.083,0.791-0.2051,0.999-0.3652s0.3398-0.4209,0.3955-0.7832
	c0.0137-0.0977,0.0205-0.293,0.0205-0.585V38.3189c0-0.2783-0.0205-0.5107-0.0615-0.6992c-0.042-0.1875-0.1533-0.3516-0.334-0.4912
	c-0.2354-0.1807-0.6729-0.3066-1.3105-0.376c-0.0977,0-0.2363-0.0137-0.417-0.042l0.4375-1.6855h7.2227l0.541,1.6855
	c-0.3193,0-0.6904,0.0322-1.1133,0.0947c-0.4238,0.0625-0.6797,0.1855-0.7705,0.3672c-0.0898,0.1816-0.1416,0.3389-0.1553,0.4717
	c-0.0146,0.1328-0.0283,0.2549-0.042,0.3662v4.5908h6.4521v-4.3389c0-0.21-0.042-0.458-0.127-0.7441
	c-0.085-0.2871-0.208-0.4785-0.3711-0.5771c-0.1621-0.0977-0.3955-0.1602-0.6992-0.1885c-0.3037-0.0273-0.5762-0.042-0.8154-0.042
	c-0.1563,0-0.2471,0-0.2754,0c-0.0146,0-0.0283,0-0.043,0l0.5205-1.6855h7.5352l0.4785,1.6855c-0.041,0-0.1182,0-0.2285,0
	c-0.1113,0-0.2158,0-0.3125,0c-0.2217,0-0.4268,0.0176-0.6143,0.0527c-0.1865,0.0342-0.374,0.0938-0.5615,0.1768
	c-0.1875,0.084-0.3164,0.2637-0.3848,0.542c-0.0146,0.083-0.0283,0.2227-0.042,0.417v12.0479
	c0.0137,0.2363,0.0342,0.417,0.0625,0.542c0.0967,0.4033,0.2568,0.6699,0.4785,0.8027c0.2217,0.1318,0.5547,0.2637,0.999,0.3955
	S90.0322,51.8785,90.1289,51.8639z M103.999,51.8619l-0.458,1.6465h-7.3271l-0.624-1.6465c0.2354-0.0137,0.4707-0.0342,0.707-0.0615
	c0.5137-0.0977,0.8467-0.209,0.999-0.334c0.209-0.1807,0.333-0.3955,0.375-0.6455s0.0625-0.4941,0.0625-0.7295V38.359
	c0-0.333-0.0137-0.5801-0.042-0.7402c-0.0273-0.1592-0.1426-0.3193-0.3428-0.4785c-0.2021-0.1602-0.5664-0.2744-1.0928-0.3438
	c-0.167-0.0137-0.417-0.0283-0.75-0.042l0.4795-1.7295h7.4727l0.457,1.7295c-0.0273-0.0693-0.3291-0.0557-0.9053,0.042
	c-0.5762,0.0967-0.9121,0.2568-1.0088,0.4785c-0.1807,0.376-0.2715,0.751-0.2715,1.126v11.8779
	c0,0.2227,0.0664,0.4482,0.1982,0.6768c0.1318,0.2295,0.3018,0.3926,0.5098,0.4902c0.3193,0.167,0.7285,0.292,1.2285,0.375
	C103.749,51.8346,103.8604,51.8482,103.999,51.8619z M122.7607,48.0553c0,1.748-0.6006,3.1738-1.8008,4.2773
	s-2.751,1.6553-4.6523,1.6553c-0.8047,0-1.5537-0.084-2.248-0.25c-1.498-0.3613-2.3447-0.541-2.5391-0.541
	c-0.208,0-0.4443,0.0557-0.708,0.166c-0.2637,0.1113-0.5547,0.2568-0.874,0.4375l-0.3125-6.5986l2.1855-0.5625l0.1465,0.916
	c0.208,1.249,0.6758,2.2939,1.4043,3.1328c0.7285,0.8398,1.5996,1.2598,2.6123,1.2598c0.916,0,1.6582-0.1875,2.2275-0.5625
	c0.6523-0.4297,0.9785-1.0615,0.9785-1.8936c0-0.9297-0.292-1.6729-0.874-2.2275c-0.3477-0.333-1.0342-0.7354-2.0615-1.207
	l-3.2051-1.4785c-0.9023-0.4023-1.624-0.999-2.165-1.79c-0.583-0.8457-0.874-1.7969-0.874-2.8516
	c0-1.4844,0.5615-2.7373,1.6855-3.7568c1.124-1.0205,2.4639-1.5303,4.0176-1.5303c0.6104,0,1.1523,0.0283,1.624,0.083
	c0.041,0,0.9785,0.167,2.8096,0.5c0.1807,0.042,0.4551-0.0205,0.8223-0.1875c0.3682-0.166,0.5723-0.2568,0.6143-0.2705
	l0.2285,5.5371l-1.998,0.374c-0.0693-0.624-0.2568-1.2695-0.5615-1.9355c-0.4443-0.9707-0.9922-1.582-1.6445-1.832
	c-0.458-0.166-0.9365-0.249-1.4365-0.249c-0.7354,0-1.332,0.166-1.79,0.499c-0.541,0.3887-0.8115,0.958-0.8115,1.707
	c0,0.9297,0.416,1.5957,1.249,1.998l4.5586,2.1855c1.082,0.5137,1.918,1.1865,2.5078,2.0195
	C122.4658,45.9107,122.7607,46.9039,122.7607,48.0553z M147.4531,51.8434l-0.6455,1.665h-7.5352l-0.499-1.6494
	c0.3184-0.041,0.5547-0.0762,0.707-0.1035c0.4863-0.1113,0.7773-0.2646,0.875-0.46c0.0273-0.083,0.041-0.1523,0.041-0.209
	c0-0.166-0.0557-0.375-0.167-0.626c-0.0273-0.083-0.0898-0.1943-0.1875-0.334l-3.625-6.0537l-1.8066,1.6855v4.3125
	c0,0.3057,0.0352,0.584,0.1055,0.834s0.208,0.4307,0.4131,0.541c0.2051,0.1113,0.5684,0.209,1.0918,0.292
	c0.2539,0.042,0.5078,0.083,0.7627,0.125l-0.542,1.6455h-7.5762l-0.5-1.6504c0.3613-0.0137,0.6387-0.0352,0.833-0.0625
	c0.6104-0.1113,1.0127-0.3271,1.207-0.6475c0.0967-0.167,0.1494-0.3174,0.1563-0.4492s0.0107-0.2334,0.0107-0.3037V38.9254
	c0-0.2646-0.0459-0.5957-0.1357-0.9922c-0.0908-0.3965-0.2148-0.6758-0.375-0.8359c-0.1592-0.1602-0.4893-0.2754-0.9883-0.3447
	c-0.5-0.0693-0.7979-0.083-0.8955-0.042l0.5205-1.6855h7.5557l0.4795,1.6855c-0.3193,0-0.6494,0.0146-0.9893,0.042
	c-0.3398,0.0283-0.5859,0.1191-0.7383,0.2725c-0.0703,0.0557-0.1396,0.1123-0.209,0.168c-0.124,0.1396-0.1865,0.5029-0.1865,1.0898
	v4.6309l5.6826-4.9541c0.124-0.0967,0.2246-0.1943,0.3018-0.291c0.0762-0.0977,0.1006-0.2217,0.0723-0.375
	c-0.041-0.208-0.1836-0.3574-0.4268-0.4473s-0.5029-0.1357-0.7803-0.1357c-0.1533,0-0.2705,0-0.3535,0l0.4785-1.6855h6.4111
	l0.4785,1.6855c-0.2773,0-0.5693,0.0186-0.874,0.0547c-0.3057,0.0352-0.5479,0.0889-0.7285,0.1611
	c-0.3467,0.1436-0.7012,0.3516-1.0615,0.624c-0.166,0.1445-0.3262,0.2813-0.4785,0.4102l-3.7637,3.2539l5.1797,9.0693
	c0.208,0.374,0.416,0.6377,0.624,0.79c0.0283,0.0283,0.2012,0.1182,0.5205,0.2705c0.1943,0.083,0.4922,0.1875,0.8945,0.3125
	S147.4111,51.8434,147.4531,51.8434z M170.6484,36.7525c-0.3057,0.042-0.5938,0.0762-0.8643,0.1035
	c-0.2705,0.0283-0.5303,0.1328-0.7803,0.3125c-0.25,0.1807-0.4756,0.3994-0.6768,0.6563s-0.3438,0.4961-0.4268,0.7178
	l-3.8096,6.9727v4.6572c0,0.2646,0.0283,0.4951,0.084,0.6895c0.0547,0.1953,0.1387,0.3408,0.249,0.4385
	c0.25,0.2363,0.6113,0.3828,1.083,0.4385c0.4717,0.0566,0.8535,0.0977,1.1445,0.125l-0.4785,1.6445h-8.1592l-0.5205-1.6445
	c0.3877,0,0.7383-0.0166,1.0508-0.0518c0.3125-0.0342,0.5967-0.1182,0.8535-0.25s0.4229-0.292,0.5-0.4795
	c0.0752-0.1875,0.1143-0.4619,0.1143-0.8232v-4.543l-4.6836-7.6074c-0.1533-0.291-0.2363-0.4443-0.25-0.458
	c-0.1113-0.1533-0.291-0.3027-0.541-0.4482s-0.666-0.2744-1.249-0.3857c-0.0977-0.0137-0.2363-0.0342-0.416-0.0625l0.4365-1.7295
	h7.7852l0.458,1.7275c-0.458,0.0137-0.8467,0.0518-1.166,0.1143s-0.5127,0.1631-0.582,0.3018
	c-0.0703,0.1387-0.1045,0.2773-0.1045,0.416c0,0.125,0.0342,0.2568,0.1045,0.3955c0.0137,0.041,0.0342,0.0762,0.0625,0.1035
	l3.0791,5.0576l2.7725-5.1182c0.0273-0.0547,0.0576-0.1377,0.0918-0.249s0.0508-0.2295,0.0508-0.3545
	c0-0.0967-0.0205-0.1875-0.0625-0.2705c-0.0967-0.1523-0.3955-0.2637-0.8945-0.334c-0.2783-0.0137-0.5557-0.0342-0.833-0.0615
	l0.3955-1.7285h5.7871L170.6484,36.7525z"/>
</svg>
