<?xml version="1.0" encoding="utf-8"?>
<!-- Generator: Adobe Illustrator 22.0.1, SVG Export Plug-In . SVG Version: 6.00 Build 0)  -->
<svg version="1.1" id="Layer_1" xmlns="http://www.w3.org/2000/svg" xmlns:xlink="http://www.w3.org/1999/xlink" x="0px" y="0px"
	 viewBox="0 0 373.12 203.63" enable-background="new 0 0 373.12 203.63" xml:space="preserve">
<path d="M372.16,3.16c-0.8-0.98-2-1.54-3.26-1.54h-12.07c-1.4,0-2.65,0.68-3.43,1.75c-0.77-1.07-2.03-1.75-3.43-1.75h-12.07
	c-0.39,0-0.77,0.06-1.13,0.16c-0.36-0.1-0.75-0.16-1.15-0.16h-13.14c-0.71,0-1.38,0.17-1.97,0.48c-0.59-0.31-1.26-0.48-1.97-0.48
	H305.4c-2.34,0-4.23,1.89-4.23,4.23v0.7c-1.25-1.36-2.81-2.46-4.65-3.28c-2.5-1.11-5.76-1.65-9.98-1.65H273.3
	c-2.34,0-4.23,1.89-4.23,4.23v13.01l-1.31-13.42c-0.21-2.17-2.03-3.82-4.21-3.82h-19c-2.19,0-4.02,1.68-4.21,3.86l-1.02,11.72
	c-0.41-2.56-1.01-4.7-1.81-6.44c-1.89-4.09-4.54-6.72-7.87-7.83c-2.69-0.89-7.12-1.31-13.93-1.31h-9.3c-2.34,0-4.23,1.89-4.23,4.23
	V10c-1.06-1.9-2.41-3.65-4.06-5.22C194.77,1.61,190.56,0,185.61,0c-5.16,0-9.44,1.88-12.73,5.59c-2.02,2.28-3.52,4.75-4.48,7.38
	c-0.31-0.85-0.67-1.68-1.06-2.49c-1.66-3.41-3.93-6.04-6.76-7.81C157.76,0.9,154.55,0,151.05,0c-3.69,0-7,0.96-9.84,2.85
	c-1.4,0.93-2.65,2.06-3.76,3.38V5.85c0-2.34-1.89-4.23-4.23-4.23H104.5c-2.34,0-4.23,1.89-4.23,4.23v0.44
	c-1.2-1.45-2.56-2.66-4.09-3.62C93.35,0.9,90.15,0,86.65,0c-3.69,0-7,0.96-9.84,2.85c-2.48,1.65-4.5,3.93-6.04,6.78V5.85
	c0-2.34-1.89-4.23-4.23-4.23H53.4c-0.71,0-1.38,0.17-1.97,0.48c-0.59-0.31-1.26-0.48-1.97-0.48H36.32c-2.34,0-4.23,1.89-4.23,4.23
	v0.7c-1.25-1.36-2.81-2.46-4.65-3.28c-2.5-1.11-5.76-1.65-9.98-1.65H4.23C1.89,1.62,0,3.51,0,5.85v77.08c0,2.34,1.89,4.23,4.23,4.23
	h13.14c2.34,0,4.23-1.89,4.23-4.23V56.1c3.42-0.1,6.32-0.95,8.65-2.53c0.67-0.45,1.28-0.95,1.84-1.5v30.85
	c0,2.34,1.89,4.23,4.23,4.23h13.14c0.71,0,1.38-0.17,1.97-0.48c0.59,0.31,1.26,0.48,1.97,0.48h13.14c2.34,0,4.23-1.89,4.23-4.23
	v-3.81c1.61,3.02,3.74,5.37,6.34,6.99c2.83,1.77,6.04,2.67,9.53,2.67c3.69,0,7-0.96,9.84-2.85c2.78-1.85,5-4.5,6.58-7.85
	c1.48-3.12,2.36-6.6,2.64-10.32c0.25-3.36,0.37-8.84,0.37-16.76V37.79c0-5.07-0.05-9.14-0.15-12.29h2.12v57.42
	c0,2.34,1.89,4.23,4.23,4.23h13.14c2.34,0,4.23-1.89,4.23-4.23V25.5h2.12c-0.1,3.15-0.15,7.22-0.15,12.29v13.19
	c0,8.12,0.13,13.68,0.39,16.99c0.29,3.69,1.22,7.16,2.75,10.32c1.66,3.41,3.93,6.04,6.76,7.81c2.83,1.77,6.04,2.67,9.53,2.67
	c3.69,0,7-0.96,9.84-2.85c2.78-1.85,5-4.5,6.58-7.85c0.35-0.74,0.67-1.51,0.95-2.29c0.21,0.63,0.44,1.25,0.7,1.87
	c1.26,3.03,3.13,5.61,5.56,7.68c2.7,2.29,5.71,3.46,8.94,3.46c2.61,0,5.02-0.81,7.04-2.36c0.69,0.47,1.51,0.74,2.39,0.74h8.26
	c0.96,0,1.84-0.32,2.54-0.86c0.71,0.54,1.59,0.86,2.54,0.86h13.14c0.72,0,1.4-0.18,2-0.5c0.6,0.32,1.28,0.5,2,0.5h12.21
	c0.37,0,0.72-0.05,1.06-0.14c0.34,0.09,0.69,0.14,1.05,0.14h13.59c1.22,0,2.32-0.52,3.1-1.35c0.77,0.83,1.88,1.35,3.1,1.35h13.43
	c0.38,0,0.75-0.06,1.11-0.15c0.36,0.1,0.73,0.15,1.12,0.15h13.14c2.34,0,4.23-1.89,4.23-4.23V56.1c3.42-0.1,6.32-0.95,8.65-2.53
	c0.67-0.45,1.28-0.95,1.84-1.5v30.85c0,2.34,1.89,4.23,4.23,4.23h13.14c0.71,0,1.38-0.17,1.97-0.48c0.59,0.31,1.26,0.48,1.97,0.48
	h13.14c2.34,0,4.23-1.89,4.23-4.23V39.14l3.06,16.28v27.5c0,2.34,1.89,4.23,4.23,4.23h12.18c2.34,0,4.23-1.89,4.23-4.23V55.44
	l9.51-48.78C373.29,5.42,372.96,4.13,372.16,3.16z M237.13,42.43l-0.12,1.43c-0.15-0.23-0.31-0.45-0.48-0.67
	C236.75,42.94,236.95,42.69,237.13,42.43z"/>
<path fill="#FFFFFF" d="M4.23,5.85h13.24c3.58,0,6.33,0.43,8.26,1.29c1.92,0.86,3.37,2.09,4.34,3.71c0.97,1.62,1.62,3.58,1.97,5.88
	c0.34,2.3,0.52,5.86,0.52,10.69v6.71c0,4.92-0.33,8.51-1,10.76c-0.67,2.25-1.89,3.98-3.67,5.19c-1.78,1.21-4.11,1.81-6.98,1.81
	h-3.53v31.04H4.23V5.85z M17.37,19.04v19.61c0.37,0.03,0.7,0.05,0.97,0.05c1.21,0,2.04-0.45,2.51-1.36c0.47-0.9,0.7-2.79,0.7-5.64
	v-6.33c0-2.63-0.27-4.35-0.81-5.14C20.2,19.43,19.08,19.04,17.37,19.04z M66.54,5.85v77.08H53.4V50.55h-3.93v32.37H36.32V5.85h13.14
	v27.56h3.93V5.85H66.54z M101.85,50.98c0,7.74-0.12,13.23-0.36,16.45c-0.24,3.22-0.99,6.16-2.25,8.83c-1.26,2.67-2.96,4.71-5.1,6.14
	c-2.14,1.43-4.64,2.14-7.49,2.14c-2.71,0-5.14-0.67-7.29-2.02c-2.15-1.35-3.89-3.37-5.2-6.07c-1.31-2.7-2.09-5.63-2.34-8.81
	c-0.25-3.17-0.37-8.73-0.37-16.66V37.79c0-7.74,0.12-13.23,0.36-16.45c0.24-3.22,0.99-6.17,2.25-8.83c1.26-2.67,2.96-4.71,5.1-6.14
	c2.14-1.43,4.64-2.14,7.49-2.14c2.71,0,5.14,0.67,7.29,2.02c2.15,1.35,3.89,3.37,5.2,6.07c1.31,2.7,2.09,5.63,2.34,8.81
	c0.25,3.17,0.37,8.73,0.37,16.66V50.98z M88.71,25.65c0-3.59-0.13-5.88-0.39-6.88c-0.26-1-0.8-1.5-1.61-1.5
	c-0.69,0-1.21,0.4-1.58,1.21c-0.36,0.81-0.55,3.2-0.55,7.16v35.99c0,4.48,0.12,7.24,0.36,8.28c0.24,1.05,0.8,1.57,1.67,1.57
	c0.89,0,1.47-0.6,1.72-1.81c0.25-1.21,0.37-4.08,0.37-8.62V25.65z M133.23,5.85v15.42h-7.8v61.65h-13.14V21.27h-7.77V5.85H133.23z
	 M166.25,50.98c0,7.74-0.12,13.23-0.36,16.45c-0.24,3.22-0.99,6.16-2.25,8.83c-1.26,2.67-2.96,4.71-5.1,6.14
	c-2.14,1.43-4.64,2.14-7.49,2.14c-2.71,0-5.14-0.67-7.29-2.02c-2.15-1.35-3.89-3.37-5.2-6.07c-1.31-2.7-2.09-5.63-2.34-8.81
	c-0.25-3.17-0.37-8.73-0.37-16.66V37.79c0-7.74,0.12-13.23,0.36-16.45c0.24-3.22,0.99-6.17,2.25-8.83c1.26-2.67,2.96-4.71,5.1-6.14
	c2.14-1.43,4.64-2.14,7.49-2.14c2.71,0,5.14,0.67,7.29,2.02c2.15,1.35,3.89,3.37,5.2,6.07c1.31,2.7,2.09,5.63,2.34,8.81
	c0.25,3.17,0.37,8.73,0.37,16.66V50.98z M153.11,25.65c0-3.59-0.13-5.88-0.39-6.88c-0.26-1-0.8-1.5-1.61-1.5
	c-0.69,0-1.21,0.4-1.58,1.21c-0.36,0.81-0.55,3.2-0.55,7.16v35.99c0,4.48,0.12,7.24,0.36,8.28c0.24,1.05,0.8,1.57,1.67,1.57
	c0.89,0,1.47-0.6,1.72-1.81c0.25-1.21,0.37-4.08,0.37-8.62V25.65z M201.31,34.22h-13.14v-7c0-4.41-0.12-7.17-0.37-8.28
	c-0.25-1.11-0.84-1.67-1.78-1.67c-0.81,0-1.36,0.48-1.65,1.43c-0.29,0.95-0.44,3.4-0.44,7.33v36.99c0,3.46,0.15,5.74,0.44,6.83
	c0.29,1.1,0.87,1.64,1.75,1.64c0.96,0,1.61-0.62,1.95-1.86c0.34-1.24,0.52-3.65,0.52-7.24v-9.14h-2.65V41.55h15.39v41.37h-8.26
	l-1.22-5.52c-0.9,2.38-2.03,4.17-3.39,5.36c-1.36,1.19-2.97,1.79-4.83,1.79c-2.21,0-4.28-0.82-6.2-2.45
	c-1.93-1.63-3.39-3.66-4.39-6.07c-1-2.41-1.62-4.94-1.87-7.59c-0.25-2.65-0.37-6.62-0.37-11.93V33.6c0-7.36,0.26-12.71,0.78-16.04
	c0.52-3.33,2.01-6.39,4.48-9.16c2.47-2.78,5.66-4.17,9.57-4.17c3.85,0,7.04,1.21,9.58,3.62c2.54,2.41,4.19,5.28,4.96,8.59
	c0.77,3.32,1.16,8.13,1.16,14.45V34.22z M206.4,5.85h9.3c6.2,0,10.4,0.37,12.6,1.1c2.2,0.73,3.99,2.59,5.37,5.59
	c1.38,3,2.08,7.78,2.08,14.35c0,6-0.49,10.03-1.47,12.09c-0.98,2.06-2.9,3.3-5.78,3.71c2.6,0.98,4.35,2.3,5.24,3.95
	c0.89,1.65,1.45,3.17,1.67,4.55c0.22,1.38,0.33,5.18,0.33,11.4v20.33h-12.21V57.31c0-4.13-0.21-6.68-0.64-7.67
	c-0.43-0.98-1.55-1.48-3.36-1.48v34.75H206.4V5.85z M219.54,19.04v17.14c1.48,0,2.51-0.31,3.11-0.93c0.59-0.62,0.89-2.63,0.89-6.02
	v-4.24c0-2.44-0.29-4.05-0.86-4.81C222.11,19.42,221.06,19.04,219.54,19.04z M263.56,5.85l7.52,77.08h-13.43l-0.71-13.85h-4.7
	l-0.79,13.85h-13.59l6.7-77.08H263.56z M256.59,55.41c-0.67-8.73-1.33-19.52-2-32.37c-1.34,14.76-2.18,25.55-2.52,32.37H256.59z
	 M273.3,5.85h13.24c3.58,0,6.33,0.43,8.26,1.29c1.92,0.86,3.37,2.09,4.34,3.71c0.97,1.62,1.62,3.58,1.97,5.88
	c0.34,2.3,0.52,5.86,0.52,10.69v6.71c0,4.92-0.33,8.51-1,10.76c-0.67,2.25-1.89,3.98-3.67,5.19c-1.78,1.21-4.1,1.81-6.98,1.81h-3.53
	v31.04H273.3V5.85z M286.45,19.04v19.61c0.37,0.03,0.7,0.05,0.97,0.05c1.21,0,2.04-0.45,2.51-1.36c0.47-0.9,0.7-2.79,0.7-5.64v-6.33
	c0-2.63-0.27-4.35-0.81-5.14C289.28,19.43,288.15,19.04,286.45,19.04z M335.62,5.85v77.08h-13.14V50.55h-3.93v32.37H305.4V5.85
	h13.14v27.56h3.93V5.85H335.62z M368.89,5.85l-9.58,49.18v27.9h-12.18v-27.9l-9.24-49.18h12.07c1.89,15.04,2.95,25.17,3.19,30.37
	c0.73-8.22,1.95-18.35,3.66-30.37H368.89z"/>
<path fill="#FFFFFF" d="M358.57,141.84c-2.71-5.43-8.73-11.94-18.37-19.86h16.54c2.34,0,4.23-1.89,4.23-4.23v-4.49
	c0-9.59-0.7-16.32-2.15-20.57c-1.6-4.69-4.83-8.59-9.61-11.59c-4.62-2.9-10.21-4.37-16.6-4.37c-5.92,0-11.1,1.36-15.39,4.05
	c-4.39,2.74-7.6,6.59-9.56,11.44c-0.76,1.88-1.35,4.13-1.8,6.77c-0.75-2.83-1.82-5.55-3.21-8.11c-2.53-4.67-5.96-8.25-10.2-10.62
	c-4.17-2.34-8.9-3.53-14.06-3.53c-5.44,0-10.32,1.26-14.5,3.76c-4.19,2.5-7.54,6.11-9.97,10.72c-1.93,3.65-3.22,7.65-3.85,11.92
	V83.35c0-2.34-1.89-4.23-4.23-4.23h-21.62c-2.34,0-4.23,1.89-4.23,4.23v16.78c-0.65-3.86-2.01-7.43-4.06-10.63
	c-2.43-3.79-5.98-6.54-10.54-8.16c-4.18-1.49-11.58-2.21-22.61-2.21h-16.18c-1.78,0-3.3,1.1-3.92,2.65
	c-0.63-1.55-2.14-2.65-3.92-2.65h-21.62c-1.23,0-2.33,0.52-3.11,1.36c-0.77-0.84-1.88-1.36-3.11-1.36h-21.62
	c-0.74,0-1.44,0.19-2.05,0.53c-0.61-0.34-1.3-0.53-2.05-0.53H57.92c-2.34,0-4.23,1.89-4.23,4.23v5.21c-1.8-2.89-4.36-5.39-7.66-7.46
	c-4.62-2.9-10.21-4.37-16.6-4.37c-5.92,0-11.1,1.36-15.39,4.05c-4.39,2.74-7.6,6.59-9.56,11.44c-1.85,4.57-2.75,11.34-2.75,20.68
	c0,6.51,0.62,11.77,1.89,16.08c1.31,4.45,2.98,7.9,5.08,10.56c1.91,2.4,5.56,6.04,11.16,11.11c0,0,0.01,0.01,0.01,0.01
	c0.54,0.49,1.06,0.95,1.54,1.4H6.62c-2.34,0-4.23,1.89-4.23,4.23v7.44c0,8.98,0.67,15.8,2.05,20.84c1.52,5.56,4.76,10.18,9.62,13.74
	c4.81,3.52,10.64,5.31,17.32,5.31c6.08,0,11.53-1.54,16.18-4.59c4.74-3.1,8-7.05,9.7-11.76c1.57-4.34,2.33-10.67,2.33-19.34
	c0-11.91-1.37-20.45-4.19-26.11c-2.71-5.43-8.73-11.94-18.37-19.86h16.54c2.34,0,4.23-1.89,4.23-4.23v-4.49
	c0-1.01-0.01-1.99-0.03-2.94c0.05,0,0.1,0.01,0.15,0.01h8.56v86.69c0,2.34,1.89,4.23,4.23,4.23h21.62c2.34,0,4.23-1.89,4.23-4.23
	v-86.69h8.48v40.28c0,13.07,0.17,21.44,0.53,25.6c0.39,4.54,1.67,8.92,3.8,13.01c2.24,4.29,5.65,7.81,10.12,10.46
	c4.44,2.63,9.59,3.96,15.3,3.96c5.21,0,9.85-1.15,13.79-3.4c3.97-2.28,7.2-5.64,9.59-9.98c2.27-4.14,3.67-8.27,4.14-12.28
	c0.01-0.09,0.02-0.19,0.03-0.29v19.35c0,2.34,1.89,4.23,4.23,4.23h27.27c5.64,0,9.83-0.44,12.83-1.34c3.31-1,6.14-2.78,8.4-5.3
	c2.25-2.5,3.82-5.88,4.67-10.05c0.08-0.37,0.15-0.78,0.22-1.22v13.67c0,2.34,1.89,4.23,4.23,4.23h21.62c2.34,0,4.23-1.89,4.23-4.23
	v-19.75c0.65,4.34,2.01,8.44,4.06,12.22c2.53,4.67,5.97,8.25,10.2,10.62c4.17,2.34,8.9,3.52,14.06,3.52c5.44,0,10.32-1.26,14.5-3.76
	c4.19-2.5,7.54-6.11,9.97-10.72c1.7-3.23,2.9-6.72,3.6-10.44c0.31,2.17,0.7,4.12,1.17,5.86c1.52,5.56,4.76,10.18,9.62,13.74
	c4.81,3.52,10.64,5.31,17.32,5.31c6.08,0,11.53-1.54,16.18-4.59c4.74-3.1,8-7.05,9.7-11.76c1.57-4.34,2.33-10.67,2.33-19.34
	C362.76,156.04,361.39,147.5,358.57,141.84z M309.79,152.06c-0.8,0-1.54,0.23-2.18,0.61c0-0.9,0-1.82,0-2.77v-18.38
	c1.17,3.25,2.57,5.9,4.26,8.02c1.91,2.4,5.56,6.04,11.16,11.11c0,0,0.01,0.01,0.01,0.01c0.54,0.49,1.06,0.95,1.54,1.4H309.79z"/>
<path d="M53.57,117.75H33.48v-8.42c0-3.93-0.26-6.43-0.77-7.51c-0.51-1.08-1.37-1.61-2.57-1.61c-1.3,0-2.29,0.73-2.95,2.18
	c-0.67,1.45-1,3.65-1,6.6c0,3.79,0.37,6.65,1.13,8.57c0.72,1.92,2.75,4.24,6.11,6.95c9.63,7.81,15.69,14.22,18.19,19.23
	c2.5,5.01,3.75,13.08,3.75,24.22c0,8.1-0.69,14.07-2.08,17.9c-1.39,3.84-4.07,7.06-8.04,9.65c-3.97,2.6-8.6,3.9-13.87,3.9
	c-5.79,0-10.73-1.5-14.82-4.49c-4.09-2.99-6.77-6.81-8.04-11.44c-1.27-4.63-1.9-11.21-1.9-19.73v-7.44h20.08v13.83
	c0,4.26,0.28,7,0.85,8.21c0.57,1.22,1.57,1.83,3,1.83c1.44,0,2.51-0.77,3.21-2.32c0.7-1.54,1.05-3.84,1.05-6.88
	c0-6.69-0.67-11.07-2-13.13c-1.37-2.06-4.74-5.5-10.12-10.32c-5.38-4.87-8.94-8.4-10.68-10.6c-1.75-2.2-3.19-5.24-4.34-9.13
	c-1.15-3.88-1.72-8.85-1.72-14.88c0-8.71,0.81-15.07,2.44-19.1c1.63-4.02,4.25-7.17,7.88-9.44c3.63-2.27,8.01-3.41,13.15-3.41
	c5.62,0,10.4,1.24,14.36,3.72c3.96,2.48,6.57,5.61,7.86,9.37c1.28,3.77,1.93,10.17,1.93,19.2V117.75z M105.17,83.35v22.75H92.33
	v90.92H70.71V106.1H57.92V83.35H105.17z M158.73,83.35v75.96c0,8.61-0.21,14.66-0.62,18.15c-0.41,3.49-1.63,7.07-3.65,10.74
	c-2.02,3.67-4.68,6.46-7.99,8.35c-3.3,1.9-7.2,2.84-11.68,2.84c-4.97,0-9.35-1.12-13.15-3.37c-3.8-2.25-6.64-5.17-8.53-8.78
	c-1.88-3.6-3-7.41-3.34-11.41c-0.34-4-0.51-12.41-0.51-25.24V83.35h21.62v85.23c0,4.96,0.2,8.13,0.59,9.51
	c0.39,1.38,1.19,2.07,2.39,2.07c1.37,0,2.25-0.76,2.65-2.28c0.39-1.52,0.59-5.11,0.59-10.78V83.35H158.73z M166.58,83.35h16.18
	c10.44,0,17.51,0.66,21.19,1.97c3.68,1.31,6.48,3.46,8.4,6.46c1.92,3,3.12,6.33,3.6,10c0.48,3.67,0.72,10.89,0.72,21.66v39.81
	c0,10.2-0.35,17.02-1.05,20.47c-0.7,3.44-1.93,6.13-3.67,8.07c-1.75,1.94-3.9,3.3-6.47,4.07c-2.57,0.77-6.44,1.16-11.61,1.16h-27.27
	V83.35z M188.2,102.8v74.77c3.11,0,5.03-0.85,5.75-2.56c0.72-1.71,1.08-6.35,1.08-13.94v-44.16c0-5.15-0.12-8.45-0.36-9.9
	c-0.24-1.45-0.79-2.52-1.64-3.19C192.17,103.14,190.56,102.8,188.2,102.8z M245.82,83.35v113.66h-21.62V83.35H245.82z
	 M303.38,149.91c0,11.42-0.2,19.51-0.59,24.26c-0.39,4.75-1.63,9.09-3.7,13.02c-2.07,3.93-4.87,6.95-8.4,9.06
	c-3.53,2.11-7.64,3.16-12.33,3.16c-4.45,0-8.45-1-11.99-2.98c-3.54-1.99-6.39-4.97-8.55-8.95c-2.16-3.98-3.44-8.31-3.85-12.99
	c-0.41-4.68-0.62-12.87-0.62-24.57v-19.45c0-11.42,0.2-19.5,0.59-24.26c0.39-4.75,1.63-9.09,3.7-13.02c2.07-3.93,4.87-6.95,8.4-9.06
	c3.53-2.11,7.64-3.16,12.33-3.16c4.45,0,8.45,1,11.99,2.98c3.54,1.99,6.39,4.97,8.55,8.95c2.16,3.98,3.44,8.31,3.85,12.99
	c0.41,4.68,0.62,12.87,0.62,24.57V149.91z M281.76,112.56c0-5.29-0.21-8.67-0.64-10.14c-0.43-1.47-1.31-2.21-2.65-2.21
	c-1.13,0-2,0.6-2.59,1.79c-0.6,1.19-0.9,4.72-0.9,10.57v53.07c0,6.6,0.2,10.67,0.59,12.22c0.39,1.54,1.31,2.32,2.75,2.32
	c1.47,0,2.41-0.89,2.83-2.67c0.41-1.78,0.62-6.01,0.62-12.71V112.56z M356.73,117.75h-20.08v-8.42c0-3.93-0.26-6.43-0.77-7.51
	c-0.51-1.08-1.37-1.61-2.57-1.61c-1.3,0-2.29,0.73-2.95,2.18c-0.67,1.45-1,3.65-1,6.6c0,3.79,0.37,6.65,1.13,8.57
	c0.72,1.92,2.75,4.24,6.11,6.95c9.63,7.81,15.69,14.22,18.19,19.23c2.5,5.01,3.75,13.08,3.75,24.22c0,8.1-0.69,14.07-2.08,17.9
	c-1.39,3.84-4.07,7.06-8.04,9.65c-3.97,2.6-8.6,3.9-13.87,3.9c-5.79,0-10.73-1.5-14.82-4.49c-4.09-2.99-6.77-6.81-8.04-11.44
	c-1.27-4.63-1.9-11.21-1.9-19.73v-7.44h20.08v13.83c0,4.26,0.28,7,0.85,8.21c0.57,1.22,1.57,1.83,3,1.83s2.51-0.77,3.21-2.32
	c0.7-1.54,1.05-3.84,1.05-6.88c0-6.69-0.67-11.07-2-13.13c-1.37-2.06-4.74-5.5-10.12-10.32c-5.38-4.87-8.94-8.4-10.68-10.6
	c-1.75-2.2-3.19-5.24-4.34-9.13c-1.15-3.88-1.72-8.85-1.72-14.88c0-8.71,0.81-15.07,2.44-19.1c1.63-4.02,4.25-7.17,7.88-9.44
	c3.63-2.27,8.01-3.41,13.15-3.41c5.62,0,10.4,1.24,14.36,3.72c3.96,2.48,6.57,5.61,7.86,9.37c1.28,3.77,1.93,10.17,1.93,19.2V117.75
	z"/>
</svg>
