<?xml version="1.0" encoding="utf-8"?>
<!-- Generator: Adobe Illustrator 22.0.1, SVG Export Plug-In . SVG Version: 6.00 Build 0)  -->
<svg version="1.1" id="Layer_1" xmlns="http://www.w3.org/2000/svg" xmlns:xlink="http://www.w3.org/1999/xlink" x="0px" y="0px"
	 viewBox="0 0 613.33 72.15" enable-background="new 0 0 613.33 72.15" xml:space="preserve">
<path d="M53.52,1.23c1.7,0,3.07,0,4.78,0c0.94,18.44,1.88,36.84,2.82,55.24c0.1,0,0.2-0.01,0.3-0.01
	c0.72-18.33,1.44-36.66,2.17-55.17c1.47,0,2.82,0,4.59,0c0.72,18.43,1.43,36.85,2.15,55.28c0.09,0,0.19,0,0.28,0
	c0.95-18.39,1.91-36.79,2.86-55.31c1.63,0,3.05,0,4.78,0c-1.64,23.32-3.27,46.46-4.91,69.73c-1.73,0-3.29,0-5.15,0
	c-0.74-12.08-1.47-24.16-2.21-36.24c-0.08-0.01-0.15-0.01-0.23-0.02C65.01,46.78,64.25,58.85,63.5,71c-1.79,0-3.29,0-5.12,0
	C56.76,47.81,55.15,24.67,53.52,1.23z M17.05,56.64c-0.1,0-0.19-0.01-0.29-0.01c-0.7-18.43-1.41-36.87-2.11-55.36
	c-1.68,0-3.03,0-4.58,0C9.33,19.79,8.59,38.14,7.85,56.5c-0.1,0-0.19-0.01-0.29-0.01C6.64,38.11,5.71,19.73,4.78,1.3
	c-1.69,0-3.09,0-4.78,0c1.62,23.38,3.23,46.53,4.84,69.68c1.86,0,3.42,0,5.14,0c0.73-12.01,1.45-23.89,2.18-35.77
	c0.09,0,0.19-0.01,0.28-0.01c0.75,11.94,1.49,23.87,2.24,35.81c1.86,0,3.37,0,5.12,0c1.64-23.25,3.27-46.4,4.91-69.75
	c-1.69,0-3.05,0-4.78,0C18.97,19.82,18.01,38.23,17.05,56.64z M147.97,56.31c-0.1,0-0.2,0-0.31,0c-0.71-18.32-1.42-36.64-2.14-55.07
	c-1.65,0-3.01,0-4.57,0c-0.74,18.44-1.47,36.73-2.2,55.02c-0.11-0.01-0.21-0.01-0.32-0.02c-0.92-18.31-1.84-36.62-2.77-55
	c-1.71,0-3.07,0-4.78,0c1.62,23.37,3.24,46.56,4.84,69.7c1.92,0,3.47,0,5.14,0c0.72-11.69,1.43-23.22,2.14-34.75
	c0.14,0.01,0.28,0.01,0.42,0.02c0.71,11.57,1.42,23.15,2.13,34.78c1.81,0,3.36,0,5.14,0c1.64-23.31,3.27-46.5,4.91-69.89
	c-1.45,0-2.45-0.02-3.46,0.01c-0.37,0.01-0.73,0.13-1.33,0.25C149.87,19.69,148.92,38,147.97,56.31z M143.26,34.6l-0.12-0.06
	l0.11-0.08L143.26,34.6z M31.61,70.96c1.86,0,3.42,0,5.14,0c0.72-11.68,1.43-23.22,2.13-34.77c0.14,0,0.28,0.01,0.42,0.01
	c0.71,11.56,1.42,23.13,2.13,34.73c1.83,0,3.43,0,5.15,0c1.64-23.32,3.26-46.47,4.89-69.64c-1.81,0-3.21,0-4.78,0
	c-0.95,18.48-1.9,36.77-2.84,55.05c-0.1,0-0.2,0-0.31,0.01c-0.71-18.32-1.42-36.64-2.14-55.05c-1.66,0-3.06,0-4.58,0
	c-0.73,18.47-1.46,36.74-2.19,55.02c-0.11-0.01-0.22-0.01-0.33-0.02c-0.92-18.31-1.84-36.63-2.77-55.07c-1.65,0-3.01,0-4.79,0
	C28.39,24.65,30,47.81,31.61,70.96z M39.18,34.49l-0.06,0.12l-0.08-0.12L39.18,34.49z M613.33,1.25c-1.39,0-2.68,0-4.33,0
	c-2.31,7.53-4.63,15.1-6.95,22.67c-0.15-0.02-0.3-0.04-0.44-0.05c-2.31-7.56-4.61-15.11-6.9-22.61c-1.67,0-2.97,0-4.31,0
	c0,23.32,0,46.48,0,69.72c1.56,0,2.98,0,4.85,0c-0.24-18.35-0.48-36.56-0.73-54.77c0.78,1.56,1.33,3.17,1.8,4.79
	c1.5,5.12,2.96,10.25,4.45,15.37c0.24,0.81,0.28,1.92,1.75,1.32c2.09-7.17,4.2-14.39,6.31-21.61c0.19,0.03,0.38,0.06,0.57,0.09
	c-0.74,18.27-0.96,36.53-0.68,54.84c1.71,0,3.08,0,4.62,0C613.33,47.64,613.33,24.53,613.33,1.25z M104.95,47.83
	c-3.49-15.54-6.2-31.21-9.89-46.57c-1.41,0-2.45,0-3.55,0c0,23.33,0,46.48,0,69.71c1.56,0,2.98,0,4.36,0
	c0-8.13,0.09-16.12-0.03-24.1c-0.12-7.9-0.44-15.8-0.67-23.7c0.09,0,0.18-0.01,0.27-0.01c3.16,15.97,6.33,31.94,9.47,47.78
	c1.58,0,2.68,0,3.83,0c0-23.29,0-46.4,0-69.68c-1.51,0-2.93,0-4.81,0C104.27,16.94,104.61,32.38,104.95,47.83z M303.5,40.83
	c0,8.52-0.03,17.03,0.01,25.55c0.02,4.39,2.15,5.92,6.83,4.74c-2.65-2.68-2.01-6.01-2.03-9.19c-0.03-7.25-0.04-14.49,0.01-21.74
	c0.02-2.11-0.26-4.03-2.04-5.51c1.5-1.33,1.74-2.97,1.71-4.75c-0.06-3.24-0.02-6.48-0.02-9.72c0-4.19,0.06-8.39-0.03-12.58
	c-0.09-4.19-1.95-6.34-5.67-6.49c-3.3-0.13-6.61-0.04-9.91-0.01c-0.35,0-0.69,0.2-0.95,0.28c0,23.28,0,46.43,0,69.59
	c1.57,0,2.94,0,4.61,0c0-10.95,0-21.77,0-32.75c2.6,0,4.91,0,7.48,0C303.5,39.21,303.5,40.02,303.5,40.83z M296.19,31.23
	c0-7.78,0-15.41,0-23.22c2.22,0,4.35,0,6.51,0c0.68,1.16,0.98,19.55,0.3,23.22C300.73,31.23,298.54,31.23,296.19,31.23z
	 M585.13,36.25c0-7.82,0.04-15.64-0.02-23.46c-0.02-2.91-0.02-5.87-1.42-8.57c-0.84-1.61-1.83-3.34-3.71-3.56
	c-2.55-0.3-5.17-0.15-7.75-0.02c-0.65,0.03-1.35,0.66-1.9,1.16c-2.75,2.56-3.24,6-3.25,9.46c-0.07,16.59-0.08,33.18,0.03,49.77
	c0.01,2.23,0.65,4.52,1.35,6.66c0.62,1.91,1.94,3.71,4.05,3.93c2.97,0.31,6.14,1.08,8.88-0.79c0.99-0.67,1.83-1.84,2.28-2.97
	c0.65-1.62,1.21-3.41,1.23-5.13c0.12-8.83,0.06-17.67,0.06-26.5C585.02,36.25,585.07,36.25,585.13,36.25z M571.85,62.33
	c0.02-16.32,0.03-32.63,0.05-48.95c0.01-5.61,0.65-6.26,6.17-6.19c0.68,0.01,1.36,0.1,2.25,0.16c0,0.9,0,1.65,0,2.4
	c0,16.44,0,32.89,0,49.33c0,5.5-0.49,5.98-5.98,5.94c-0.74,0-1.49-0.08-2.49-0.13C571.85,63.94,571.85,63.14,571.85,62.33z
	 M179.98,70.97c1.56,0,2.98,0,4.69,0c0-12.81,0-25.47,0-38.22c2.86,0,5.42,0,8.27,0c0,12.83,0,25.5,0,38.22c1.72,0,3.14,0,4.65,0
	c0-23.3,0-46.45,0-69.71c-1.57,0-2.99,0-4.74,0c0,8.24,0,16.33,0,24.42c-2.89,0-5.45,0-8.27,0c0-8.23,0-16.27,0-24.43
	c-1.68,0-3.1,0-4.6,0C179.98,24.57,179.98,47.73,179.98,70.97z M360.53,32.73c2.88,0,5.39,0,8.2,0c0,12.8,0,25.47,0,38.2
	c1.76,0,3.23,0,4.73,0c0-23.3,0-46.41,0-69.63c-1.59,0-3.06,0-4.78,0c0,8.24,0,16.28,0,24.41c-2.83,0-5.38,0-8.27,0
	c0-8.25,0-16.33,0-24.41c-1.75,0-3.16,0-4.54,0c0,23.36,0,46.52,0,69.71c1.56,0,2.93,0,4.67,0
	C360.53,58.18,360.53,45.46,360.53,32.73z M203.04,60.85c0.06,2.47,0.66,5.04,1.53,7.36c0.93,2.48,2.98,3.88,5.85,3.68
	c1.27-0.09,2.6,0.21,3.8-0.08c1.35-0.33,2.83-0.85,3.81-1.77c2.22-2.07,2.82-4.95,2.83-7.86c0.07-16.84,0.12-33.69,0.02-50.53
	c-0.01-2.48-0.51-5.1-1.42-7.39c-1.62-4.05-9.46-5.64-12.89-2.86c-0.29,0.24-0.55,0.53-0.81,0.81c-2.32,2.59-2.79,5.77-2.79,9.07
	c-0.02,8.26-0.01,16.53-0.01,24.79C202.97,44.33,202.85,52.59,203.04,60.85z M207.67,62.45c-0.01-15.06-0.02-30.13,0.01-45.19
	c0-2.28,0.09-4.58,0.28-6.85c0.2-2.35,1.12-3.15,3.43-3.21c1.5-0.04,3.01-0.01,4.77-0.01c0,1.06,0,1.81,0,2.56c0,16.33,0,32.67,0,49
	c0,5.94-0.45,6.38-6.42,6.28c-0.56-0.01-1.13-0.07-1.96-0.12C207.73,63.95,207.67,63.2,207.67,62.45z M492.11,61.15
	c0.02,1.82,0.26,3.7,0.81,5.42c1.27,3.94,3.45,5.69,7.26,5.31c0.5-0.05,1.02-0.05,1.52,0c4.49,0.48,6.63-2.14,7.55-5.69
	c0.59-2.24,0.77-4.64,0.78-6.97c0.06-15.38,0.04-30.76,0.02-46.15c0-1.71-0.11-3.43-0.34-5.13c-0.38-2.87-1.34-5.71-4.07-6.95
	c-2.87-1.31-6.11-1.06-9.12-0.11c-0.92,0.29-1.73,1.29-2.35,2.14c-1.66,2.31-2.1,5-2.1,7.78c0,8.39,0,16.78,0,25.17
	S492.02,52.76,492.11,61.15z M496.77,62.5c-0.01-15.7-0.01-31.39,0.01-47.09c0-1.78,0.07-3.56,0.29-5.32
	c0.24-2.01,1.16-2.79,3.15-2.87c1.57-0.06,3.14-0.01,4.89-0.01c0.06,0.93,0.15,1.61,0.15,2.28c-0.02,16.97-0.04,33.93-0.08,50.9
	c0,0.88-0.12,1.78-0.35,2.62c-0.34,1.22-1.22,1.95-2.5,1.99c-1.71,0.05-3.42,0.01-5.41,0.01C496.85,63.99,496.77,63.24,496.77,62.5z
	 M264.7,9.56c-0.02-1.73-0.51-3.54-1.19-5.15c-1.68-4-9.44-5.86-12.84-3.1c-1.04,0.85-2.01,2.05-2.48,3.29
	c-0.68,1.81-1.2,3.8-1.21,5.72c-0.09,17.22-0.1,34.45,0.01,51.68c0.01,2.08,0.73,4.24,1.48,6.22c0.66,1.74,1.98,3.37,3.97,3.48
	c2.91,0.16,5.96,0.95,8.72-0.83c0.16-0.1,0.28-0.26,0.42-0.39c2.25-2.09,3.12-4.8,3.14-7.73c0.08-8.9,0.03-17.8,0.03-26.69
	C264.76,27.23,264.82,18.39,264.7,9.56z M260.17,9.76c0.01,15.38,0.01,30.76,0,46.15c0,1.97-0.07,3.94-0.23,5.9
	c-0.18,2.26-1.2,3.17-3.43,3.22c-1.51,0.03-3.02,0.01-4.68,0.01c-0.08-0.98-0.19-1.72-0.19-2.46c-0.01-15.76-0.01-31.53,0-47.29
	c0-1.65,0.08-3.3,0.24-4.95c0.2-2.17,1.17-3.05,3.33-3.12c1.51-0.05,3.03-0.01,4.83-0.01C260.08,8.27,260.17,9.01,260.17,9.76z
	 M460.65,71.05c3.68,0,7.22,0.09,10.75-0.06c0.83-0.04,1.76-0.74,2.41-1.37c2.12-2.06,2.94-4.74,2.98-7.61
	c0.1-7.5,0.14-14.99,0.14-22.49c0-9.72,0.01-19.44-0.18-29.16c-0.04-1.96-0.64-4.06-1.54-5.8c-0.7-1.34-2.2-2.99-3.5-3.14
	c-3.6-0.43-7.29-0.15-11.05-0.15C460.65,24.56,460.65,47.71,460.65,71.05z M465.38,7.9c2.26,0,4.34,0,6.64,0
	c0,18.75,0,37.43,0,56.31c-2.14,0-4.25,0-6.64,0C465.38,45.39,465.38,26.69,465.38,7.9z M438.07,2.58
	c-0.01,19.7-0.05,39.4,0.06,59.1c0.01,2.15,0.63,4.43,1.5,6.42c1.7,3.88,9.5,5.38,12.78,2.67c0.29-0.24,0.55-0.52,0.81-0.81
	c1.98-2.21,2.66-4.9,2.67-7.75c0.05-19.76,0.05-39.53,0.06-59.29c0-0.54-0.12-1.08-0.19-1.65c-1.53,0-2.89,0-4.5,0
	c0,1.12,0,2.06,0,3c0,16.71,0.01,33.43-0.01,50.14c0,2.54-0.07,5.08-0.27,7.61c-0.16,2.05-1.2,2.91-3.23,3.01
	c-3.03,0.15-4.09-0.39-4.55-2.58c-0.24-1.17-0.25-2.4-0.25-3.6c-0.01-18.37-0.01-36.73-0.01-55.1c0-0.8,0-1.6,0-2.53
	c-1.72,0-3.14,0-4.74,0C438.14,1.83,438.07,2.2,438.07,2.58z M275.27,62.19c-0.01-15.76-0.01-31.51,0.01-47.27
	c0-1.58,0.1-3.17,0.24-4.75c0.14-1.53,0.89-2.75,2.5-2.92c1.6-0.17,3.24-0.04,5.18-0.04c0,2.7,0,5.19,0,7.68c1.74,0,3.16,0,4.79,0
	c-0.14-3.76,0.17-7.39-1.55-10.75c-1.21-2.36-2.94-3.95-5.87-3.67c-1.2,0.12-2.46-0.18-3.61,0.08c-1.23,0.28-2.62,0.73-3.48,1.57
	c-2.64,2.59-2.98,6.05-2.98,9.54c-0.01,16.33-0.06,32.65,0.05,48.98c0.02,2.36,0.51,4.81,1.3,7.04c0.98,2.79,3.07,4.46,6.31,4.14
	c0.75-0.08,1.53-0.07,2.28,0c3.06,0.29,5-1.28,6.11-3.88c0.66-1.55,1.2-3.27,1.24-4.93c0.19-8.82,0.21-17.65,0.27-26.48
	c0-0.35-0.15-0.71-0.22-1.04c-2.86,0-5.61,0-8.4,0c0,2.18,0,4.17,0,6.23c1.3,0.13,2.42,0.25,3.76,0.38c0,0.8,0,1.48,0,2.16
	c0,3.81,0.01,7.62,0,11.44c-0.01,1.97,0.05,3.94-0.09,5.9c-0.17,2.44-1.24,3.41-3.64,3.48c-1.26,0.04-2.53,0.01-4.06,0.01
	C275.35,63.94,275.27,63.06,275.27,62.19z M313.43,70.99c1.81,0,3.24,0,4.91,0c0.4-5.77,0.8-11.44,1.19-17.17c1.82,0,3.42,0,5.11,0
	c0.41,5.85,0.81,11.51,1.21,17.15c1.8,0,3.23,0,4.9,0c-1.78-23.31-3.54-46.46-5.31-69.73c-2.25,0-4.3,0-6.6,0
	C317.03,24.56,315.23,47.74,313.43,70.99z M324.19,46.71c-1.49,0-2.71,0-4.28,0c0.65-10.3,1.3-20.5,1.95-30.7
	c0.15,0.01,0.3,0.02,0.46,0.03C322.94,26.21,323.56,36.38,324.19,46.71z M322.09,14.33l0.13,0.06l-0.12,0.09L322.09,14.33z
	 M163.83,43.7c1.46,0,2.72-0.11,3.96,0.02c2.94,0.3,4.73-1.27,5.84-3.66c0.68-1.47,1.22-3.14,1.26-4.73
	c0.18-7.87,0.27-15.74,0.16-23.61c-0.03-2.23-0.62-4.51-1.31-6.66c-0.57-1.76-1.83-3.55-3.76-3.71c-3.56-0.29-7.16-0.08-10.83-0.08
	c0,23.33,0,46.51,0,69.72c1.58,0,2.96,0,4.68,0C163.83,61.82,163.83,52.9,163.83,43.7z M163.84,7.98c2.12,0,4.16,0,6.38,0
	c0,9.6,0,19.15,0,28.91c-2.07,0-4.12,0-6.38,0C163.84,27.19,163.84,17.67,163.84,7.98z M344.16,43.72c1.75,0.1,3.06-0.6,4.15-1.9
	c1.62-1.94,2.41-4.2,2.45-6.67c0.13-7.5,0.29-15,0.16-22.49c-0.05-2.61-0.62-5.3-1.49-7.77c-0.9-2.57-2.96-4.01-5.94-3.83
	c-2.22,0.13-4.45,0.01-6.67,0.04c-0.61,0.01-1.21,0.11-1.87,0.18c0,23.36,0,46.51,0,69.68c1.61,0,3.03,0,4.67,0
	c0-9.09,0-18.02,0-27.25C341.28,43.7,342.72,43.64,344.16,43.72z M346.06,36.91c-2.12,0-4.17,0-6.35,0c0-9.67,0-19.23,0-28.95
	c2.11,0,4.15,0,6.35,0C346.06,17.61,346.06,27.17,346.06,36.91z M529.23,3.96c-1.39-2.69-3.54-3.6-6.55-3.55
	c-2.84,0.05-4.72,1.3-5.65,3.69c-0.84,2.15-1.42,4.51-1.51,6.8c-0.21,5.26-0.17,10.55,0.02,15.81c0.08,2.11,0.56,4.3,1.32,6.28
	c0.99,2.61,2.9,4.28,6.01,3.97c1.11-0.11,2.23-0.02,3.48-0.02c0,9.4,0,18.45,0,27.63c-2.19,0-4.24,0-6.67,0c0-3.92,0-7.74,0-11.55
	c-1.73,0-3.09,0-4.52,0c0,3.73-0.42,7.34,0.1,10.81c0.8,5.36,2.58,8.6,9.28,8.02c2.42-0.21,3.98-1.42,4.91-3.36
	c0.8-1.68,1.48-3.59,1.54-5.43c0.22-6.92,0.22-13.84,0.19-20.77c-0.01-2.84,0.03-5.74-1.3-8.39c-1.25-2.49-2.94-4.28-6.06-3.97
	c-1.1,0.11-2.21,0.02-3.35,0.02c0-7.67,0-14.94,0-22.32c1.9,0,3.63,0,5.69,0c0,2.13,0,4.12,0,6.18c1.63,0,2.94,0,4.54,0
	C530.79,10.29,530.82,7.03,529.23,3.96z M411.23,3.81c-1.41-2.7-3.67-3.47-6.64-3.4c-2.78,0.06-4.5,1.4-5.49,3.65
	c-0.78,1.76-1.39,3.75-1.44,5.66c-0.17,6.03-0.13,12.07,0.02,18.1c0.04,1.73,0.54,3.53,1.22,5.14c1.08,2.56,2.91,4.29,6.02,3.98
	c1.11-0.11,2.23-0.02,3.4-0.02c0,9.45,0,18.53,0,27.64c-2.23,0-4.23,0-6.58,0c0-3.95,0-7.77,0-11.55c-1.71,0-3.06,0-4.87,0
	c0.25,4.31,0.1,8.47,0.83,12.48c0.77,4.22,2.89,6.6,7.95,6.39c3.14-0.13,5.07-1.47,6.21-4.1c0.65-1.48,1.16-3.16,1.19-4.76
	c0.12-8.06,0.12-16.13,0-24.2c-0.02-1.66-0.53-3.41-1.2-4.95c-1.09-2.55-2.91-4.29-6.03-3.96c-1.05,0.11-2.13,0.02-3.37,0.02
	c0-7.57,0-14.88,0-22.33c1.9,0,3.63,0,5.73,0c0,2.12,0,4.1,0,6.18c1.67,0,2.98,0,4.55,0C412.96,10.23,412.85,6.91,411.23,3.81z
	 M561.54,4.16c-1.2-2.38-2.93-3.97-5.85-3.69c-1.07,0.1-2.16,0.05-3.24,0.01c-1.52-0.05-2.68,0.58-3.66,1.7
	c-2,2.27-2.76,5.03-2.77,7.93c-0.05,17.35-0.07,34.7,0.04,52.05c0.01,1.96,0.67,4.01,1.43,5.86c1.05,2.53,2.99,4.05,5.97,3.79
	c1.07-0.09,2.21,0.2,3.23-0.07c1.29-0.34,2.8-0.75,3.65-1.66c3.49-3.71,2.95-8.32,2.75-12.87c-1.65,0-3.01,0-4.42,0
	c-0.11,1.63-0.13,3.09-0.31,4.53c-0.32,2.58-1.37,3.43-3.93,3.33c-2.38-0.09-3.4-1.05-3.53-3.57c-0.15-2.79-0.23-5.59-0.24-8.38
	c-0.03-11.31-0.03-22.63,0-33.94c0.01-2.86,0.12-5.72,0.25-8.57c0.07-1.46,0.5-2.92,2.14-3.22c1.63-0.3,3.32-0.23,5.22-0.33
	c0,2.87,0,5.32,0,7.88c1.6,0,2.97,0,4.7,0C562.98,11.15,563.24,7.54,561.54,4.16z M128.04,7.77c0-2.28,0-4.33,0-6.46
	c-4.93,0-9.69,0-14.42,0c0,23.37,0,46.52,0,69.63c5.12,0,10.03,0,15.04,0c0-2.18,0-4.19,0-6.54c-3.51,0-6.89,0-10.36,0
	c0-10.65,0-20.96,0-31.56c2.18,0,4.17,0,6.3,0c0-2.33,0-4.38,0-6.66c-2.16,0-4.16,0-6.31,0c0-6.22,0-12.2,0-18.42
	C121.62,7.77,124.77,7.77,128.04,7.77z M387.64,68.15c0.05-6.99-0.41-14.03,0.28-20.96c1.32-13.4,3.29-26.73,4.98-40.09
	c0.24-1.92,0.41-3.85,0.62-5.9c-1.67,0-3.04,0-4.67,0c-1.16,11.63-2.31,23.17-3.46,34.71c-0.06-0.01-0.12-0.01-0.18-0.02
	c-1.09-11.53-2.18-23.06-3.27-34.64c-1.68,0-3.1,0-4.66,0c0.06,0.93,0.06,1.68,0.15,2.43c0.94,7.82,1.92,15.64,2.84,23.46
	c0.87,7.44,1.96,14.87,2.45,22.34c0.41,6.33,0.1,12.71,0.12,19.06c0,0.8,0.11,1.6,0.17,2.47c1.57,0,2.95,0,4.63,0
	C387.64,69.91,387.63,69.03,387.64,68.15z M231.52,7.56c0,21.32,0,42.36,0,63.36c1.75,0,3.16,0,4.8,0c0-21.19,0-42.2,0-63.47
	c2.21,0,4.21,0,6.37,0c0-2.19,0-4.12,0-6.16c-5.99,0-11.83,0-17.72,0c0,2.09,0,3.98,0,6.27C227.2,7.56,229.2,7.56,231.52,7.56z
	 M427.82,7.47c2.38,0,4.44,0,6.6,0c0-2.22,0-4.15,0-6.23c-5.92,0-11.73,0-17.65,0c0,2.11,0,4.08,0,6.34c2.2,0,4.19,0,6.47,0
	c0,21.34,0,42.38,0,63.41c1.62,0,2.93,0,4.58,0C427.82,49.84,427.82,28.8,427.82,7.47z M486.72,1.28c-1.51,0-2.91,0-4.39,0
	c0,23.33,0,46.47,0,69.72c1.49,0,2.8,0,4.39,0C486.72,47.7,486.72,24.56,486.72,1.28z M540.53,63.71c-1.67,0-3.15,0-4.68,0
	c0,2.5,0,4.86,0,7.31c1.58,0,3.01,0,4.68,0C540.53,68.46,540.53,66.11,540.53,63.71z M86.52,63.74c-1.67,0-3.15,0-4.61,0
	c0,2.53,0,4.88,0,7.26c1.66,0,3.09,0,4.61,0C86.52,68.4,86.52,66.04,86.52,63.74z"/>
</svg>
