<svg version="1" xmlns="http://www.w3.org/2000/svg" viewBox="0 0 371 191"><path d="M370 42v-2l1-5-1-2v-2-2l1-3V14a10 10 0 0 0-10-10h-37c-4 1-8 4-9 8-1-5-5-8-9-8l-40 1c-4 1-7 3-8 6h-1l-1 3c0-5-4-9-8-9l-3-1a11 11 0 0 0-4 1 10 10 0 0 0-4 0 10 10 0 0 0-6 0 11 11 0 0 0-4 0l-1-1h-13l-7-2h-23a10 10 0 0 0-6-1h-3l-6 2h-2l-4 1h-1a21 21 0 0 0-10-1c-4-2-9-3-14-3l-8 1h-5l-3 1h-4l-5 2h-1l-6-2a10 10 0 0 0-7 1 10 10 0 0 0-13 2l-2 3c-2 2-2 6-1 9v4a92 92 0 0 1 0 7v3l-5-21c-1-4-5-7-9-7h-7L50 2c-7 0-13 1-17 3l-6-1a10 10 0 0 0-7 0A20 20 0 0 0 6 4c-3 2-6 5-6 9v39c0 4 3 7 6 9v16l1 3v9a81 81 0 0 1-1 10l1 8v29l-3 3c-2 2-2 5-2 8l2 6-2 11a166 166 0 0 0 1 10v2c-1 2 0 4 1 5v1a10 10 0 0 0 8 8l4 1a10 10 0 0 0 3 0 50 50 0 0 0 15 0l12-1c5 0 9-5 9-10v-33 1a407 407 0 0 0 6 33c1 5 5 8 10 8h53a40 40 0 0 0 10-1l2 1 15-1a10 10 0 0 0 7 2 9 9 0 0 0 2 0l13-1h6a10 10 0 0 0 8 2h3l4-1h1l6-2 8 2a10 10 0 0 0 9-13l1-4 2 11c1 4 5 7 9 7l45-1c4 0 8-3 9-7 2-6 2-11 2-15v-2l1-4-1-6 1-1v5l1 4v2c0 11 1 15 2 17a10 10 0 0 0 11 7h4l6 1 7-2 6 1h3l5 1h2l5-2 5 1h1a10 10 0 0 0 9-13v-1l2-33c0-12 2-22 4-28v-7a99 99 0 0 0 2-38l1-2v-7l1-3a10 10 0 0 0 7-10l-1-6zm-167 69l-3 1V80v-3l8 1h2l1 8v12a39 39 0 0 1 0 5l1 5v5l-9-2z"/><path fill="red" d="M125 38l-1 2 1 7-2 2-2-2-1 1-3-6-2 1-2-1-1 1 3 2v4h1l2-1-1-2 3 6v1l-1 4 1 12 1 33v33l-1 1c1 6 2 11 1 18h-1l1 4-1 6a85 85 0 0 0 2 15H71l-2-16-1 2a414 414 0 0 1-7-37l2-1 2 8 1-6-1-2 3-1v7h1l2-1-2-2 2-1-2-2 1-1 2 3-1-1h1l-1 1 3 4v-7l2 4-2 3h2l1 2 2-5-1 3 2 2 3-2 4 4 2-5-3 1c-4-6-8-9-10-9l-2 1-2-5-4-1c-1-3-2-5-5-6v5h-1l-4 4 1-4c0-3-1-7-3-10 4-2 6-6 6-10l-1-3-1 1 1-4-2-1-1 6h1l-1 2 1 3-1 1-1-3-2 2-2-5 1-5-2-4v1l-3-8 1-3-1-6c-1-2-1-4-3-5v-8l-3-6-1 9 1 11a136 136 0 0 1 0 17l-1 1c2 3 3 7 3 12 0 7-2 13-4 19h-1l-2 3v1l2-2 3-2 1 5-1 2 1 4 1-1v48l-12 1H21a285 285 0 0 1 0-20l-1 3 1-4-3-1-1-7 1-1-1-3-3 4-1-1-1-6h3l2-2a1920 1920 0 0 0 0-35l1-1-2-8a94 94 0 0 1 0-10l1-1-1-9 2-1-2-1V53l-6-1V13c4-1 8 0 11 2l3-2 10 3c3-3 8-4 16-4a190 190 0 0 1 18 1 662 662 0 0 1 15 75c4 9 5 18 5 25h1l1 8 3 7 3-8-3-10 2-3a582 582 0 0 1-2-64l-2-3v-5l2-1-1-6a105 105 0 0 1 0-7l-1-7 2-3c3 3 7 3 10 0l5 2-1 1 1 1-1 3 6 4v-2h1l1-3 3 3v-3h1v1h2l-4-6h5v1l-1 2 2 1v-5h1v8l-2 9c2 2 3 5 3 8v2zM18 181l-4-1-2-4v-2a174 174 0 0 0 0-10c0-8 1-12 4-12v4l1 5-1 4-1 3 1 3-1 1 1 1-1 1 3 7zm6-86V84h-1l-2-2-1-3h-1l-1 2-1 1h3l2 5 1 6v2h1zm-4 71l-1 4h-1l2-4zm12-18v-3h-2v3l-3 1v-1l1 2-3 4-2-1-1 1-1 2 2-1 1 7v-1l1-2 2-1h1l-4-2 8-8zm0-60l-1-2-1-2 1-1-1-2-2 1-3-2 2 3c0 2-1 3-2 3l1-1 3 4-1-2-1-3 1-1 3 6 1-1zm-3 9l-1-5v2l1 2-1 1h1zm12-67h-1c-1 0-2-1-2-3l-2-4 1-1-4-5 1 2v3l-2-3c-2-1-2-2-2-3v3h1l4 5c2 2 3 4 3 7 2 1 3 1 3-1zm-9 96l-1-3v2l1 1zm4-20v-1l-2-1 2 3v-1zm0 7l-2-1 1 2 1-1zm4-23v-4l-1 1 1 4v-1zm7-51l-5-5-1 4v-1l-1 3 3 8v-4l2 4v1l1-1v1l1 4-1-3 1-3v-3l-1-4 1-1zm-5 75v-1h-2v1h2zm22-80c-1-1-2 0-3 1-3-1-4-2-4-4l-1 4-2-1v4l-5 1v1l1-1h1v1l2-1 2 1 3 1 2-1-3-1 2-2 4-2v3l1-4zm-6 63l-1-1v1l-2-2 1-1 1-1-1-1-2 1c0 1 1 3 4 4zm-1-50l-2-2 1 7 1-5zm0 12v-2l-1-1v3h1zm3 11l-3-7v1l3 6zm23 39l-2-5v4l-3-3-2-3 1-1-1-2v-3l1-3-1-2-2-1 1 1-1 1v1l1 2v1h-1l-2-2-1-3v-1l-1 1v-1h-1l1 1-1 1-2-1v2h-1l-1-3-2 3h1l-1 4-1 3 1-1h2l3 4c0 4 1 6 2 7v-1c0-2 1-3 3-4l-1-3 1-2 1 2h1l2 4c0 2 1 4 2 3l1 1 3-1zm-13 4v-1l-3-3-2 3c-2-1-3-3-3-7l2 6-1 1 1 1 2-1 2-1 2 2zm-4-9l-1-1-1 1h2zm0-7h-1v-2l1 2zm3-26l-1-1-1 2 1 2 1-3zm0 9v-2h-1l1 2zm4 75l-2-2v4l-3 2 1 1-1 1h1v-1-1h1l1 1 1-1-1-2 2-2zM70 34h-2 2zm0 64l-1 1h-1l2-1zm0-34l-1-5h1l-1 2v4l1-1zm2 9l-1 5h1v-5zm2 25l-2-1h2v1zm1-49l-1 2-1 2 1 1 1-5zm-1 10l-1-3v4l1-1zm5 95l-2-2-2-3 1 4-1 2-2 1h1v1l5-3zm-3-18l-2 4 1 1-1 4 1-4 1-5zm4-20l-2 2 1 1v3l1-6zm-1 34v-2l-1 2h1zm3 21l-1-3-1-4v-1c1 1 2 3 2 7a12 12 0 0 1 0 3v-2zm1-17l-1-6v-7h-2v1-1c2 1 2 2 2 4v5l-1 4v2-3l1-1 1 2zm-2 4v-1l-1 3h1v-2zm2-19v-4 4zm2-32l-1-3h-1l1 3h1zm2 4l-3-1 2 2 1-1zm1 46l-1-3-1-3h-1l1 2h-2v2l4 3v-1zm0 13l-2-2v2h2zm0-52l-1 4 1-4zm1 55v4l1-1-1-3zm2-2v-4l-1 1 1 3zm5-12v-2l-1 2-2-1 1-3-1 2-2 1 3 2-1 3 2-2 1-2zm-2-18l-1-5-1 4 2 1zm9-19l-4-6v1l-2-2 2-3c-2 2-2 4-2 5l1 1-1 2 2 2 1 3c1-2 1-2 2-1l1-2zm-3 17l-2 2v2l1 1 1-5zm14 16l-1-7-1 1c-1 0-2-1-2-3v-2l-1 1h-3c-1-1-2 0-3 1l-2-1 2-2c-2 1-2 2-2 3l-1 1 1 1-1 4-1 3 1 1c0-2 1-4 3-4l3-2 1 1 2-3v2l1 1c2-1 3 0 3 1 0 2-1 3-2 3l-1-2v1l4 1zM104 42l-3-1 2 4v-3h1zm2 64l-4 1 4-1zm-2 44h-2v-1l1-1h1v2zm1-123l-1-3-2 4 3-1zm-2 127v-1 1zm5-116l-2-4-2 5 4-1zm0 88l-2-1h-1l2 3 1-2zm1-38l-1 4 1-4zm2-36l-1-2-1 2-1 2 1 2 2-4zm-2 26l-1-3v4l1-1zm4-38h-1l-1 1-1-2 3 1zm1 89h-3l2 4 1-4zm2 6v-2h-1v2h-2l1 1 2-1zm3-108l-2-3-1 1-1-2-1 1 1 6v-3l2-1 2 1zm0 122v2h-2l-1-2v1l1 2 1 2-1 1v1l2-7zm-2-111l-1 2v1l1-3zm95 102l-1 8-2 4 1 13-1 13v2l-7-2-1-8v-2h1l-3-4v6l1 6v-1 2-1c-1 3-3 4-6 5h-10c-1-1-5-2-12-2l-13 1-3-5v1l1 4-2-3-1 1-18 1 1-2-1-2-2 3-9 1 3-8 1 1 3-2-1-2h5v-7c-1 2-2 4-5 4-3 1-5 2-6 4v-26l5-1a4692 4692 0 0 0 0-93l-4-2-2-36 7-1h6c5 0 9 1 12 4 3-2 6-2 9-1l-5 4-4 5 1 3 1-2 3 6 1-5 2 2-1 4v3c2 0 3-2 3-4v-4l2-2v1l-1 2 2 1c0-4 1-6 3-7l-1-1-3 2v-5l-2-2 8-1 7-2 2 1-1 3 1 2 2-4-1 1v-2l2 1v-2l1 1h2l2 2 1-3h20l3 57-20-1-2-3-3 4-3-9-3-11-5-2-8 3v30a452 452 0 0 1 21-1v-1l5 3v31a1048 1048 0 0 1-26-2v35c2 1 6 2 14 1l1 3 1-5 2-5 2-16h12l1 3c1-3 3-4 6-4l8 2c-1 4 0 10 1 17zM128 40v1l-2-2v5l2-4zm12-4l-2-1-1 1-1 1 1-1 3-2v2zm10 121l-2-3-1-1c-2 1-3 2-3 5l-2 6-2-2-1 2v1l1 1v2l1 2-1 1-1-2-1-2-1 1 1 1-2 2 2 4v-1h-1a623 623 0 0 0 6-6v-1l2-2v-9l5 1zm-7-41c-1 2-3 2-5 0v3c1 0 2 0 3-2l1 2 1-3zm-1-92h-1v-1-1l1 2zm5 120l-3-7-2-3v-1l2-2-1-4-1-4-1 1 1 4 1 4-2 4 1 6-1 2c1 4 2 6 5 7v-7h1zm-3-127v-2l-2 6 2-4zm1 95v-2l-1 1v1h1zm11 63l-3-6-3-6 1-2-2 2-1-5-1 2v2l1 3v-1l2 1c-2 0-3 2-3 5v-1l2 2 2 3 1-1-1-2h1l2 1 2 3zm-2-146c-1-1-2 0-4 2h1l1-2 1 2 1-2zm-2 142l-1-1v-1-1l1 1v2zm8-150l-5 1v-1h5zm-1 37v-3-3l-1 6h1zm0-39v-2 2zm13 79l-2-4-1-5-2-2 1-2v-2c-2 0-2 1-2 3l-1 4 2-1 1 1 1 1-3 3-1-1v2l3 2-1 2-1 2 2-1 2 5-1-4-1-4 1-2c1 0 2 0 2 2l-1 1h2zm4-81h-1l-1 3h1l1-3zm11 43c-1 0-2-1-2-3l1-3v-3c0-2 0-3-2-4l1-1-1-4v8l1 2-1 3v6l3-1zm2 2l-1-1 1 2v-1zm0 98v-6l-1 2 1 2v2zm3-135l-1-1h-1l2 1zm4 146zm1-20l-1-2-1-3 1 3 1 2zm1 4h-2l1 1 1-2v1zm5-91l-1-4-2-3v2l2 2 1 3zm0 107l-1 1v2l1-3zm6 4l-2-1v2l2-1zM361 36l-5 7h2l1-1-1 3h1l1-2 1 5h-4l-4 4 1 3-1 7-2 1 3 1-2 4 1 13c0 10-1 19-3 26v5c-2 7-3 18-4 31l-2 31-1 1 2 5-6-1v-1l-2-1-1 2-4-4-2 1h1v2l-3-5h-4l-4-4-1 1-2-3-2 1-3-3-4-3-2-3-2 2 1-1-5-8v-1l-1-1-2 1v-4l-2 2-3-42-5-42h-1v-6c0 4-3 9-9 16l2 3 4-3-1 18-4 49-8-2 4 5 2-2-1 2 3 1-2 3 2 2-2 4 1 8-1 4-1 13-45 1-2-13-1-14 5-1-2-3-3 1h1c-2-1-3-5-4-13v-16c-2-3-2-8-2-16h3l-4-2v-2-6l-1-5 1-5c-2-7-2-16-2-28l-2-6h-6V14h14l1 2 2-2c2 4 2 9 1 15l4-6-2-5v-1l3-3 1 1 4-1 3 3 2-3h3a1641 1641 0 0 0 4 64v12h-1c2 4 3 12 4 23l2 26 1-2-1-4 2-2-1-4c2-9 3-24 3-44l1-2V69l2-26 3-27v-1l40-1a195 195 0 0 1 2 43c2 1 3 5 3 11l-1 6 2 5-1 15c0 10 1 18 3 25l-1 6 3 2-1 4 2 6 4 1v-2l-2-5v-2l-1-4 1-3 1 1c1-3 3-6 6-8l-7 1v-10l3-1-1-2-1 2v-1l2-9-1-2h-1l5-7-1-3-3 3 1-8a89 89 0 0 0 0-12v-3-6l2-9 1 2-1 3 2 2 2-2-2-5 1-4-2-1v3l-2-4 1-28h37v12l-1-1-1 3-3 1 4 3v-1l-1 2 2 1v2zm-140-4l-2 8 1 3a17 17 0 0 1 1-6 24 24 0 0 0 0-5zm2 43l-2-2v1l2 2v-1zm1 7l-3 2v2l3-4zm14 46c0-2-2-2-4-2h-1l-1-2v-3l1-3-1-2 1 1-3 6-2-5v1h-3l1 2-1 1v3l1-3 3 2h1l1 2h1c2 0 3 1 3 3v-3l2 2-1 1h2v-1zm-11-57l-1 1v1l1-2zm1 37l-2 1h1l-2 3 1 1 1-2 1-3zm-1-4l-1-2 1 3v-1zm2 40l-1 2h1l1-1v-2l-1-2-1 2 1 1zm6-51l-1 1-3-3-2-4c0 2 0 4 2 5l2 5 2-4zm-2 14l-2-4v3c1-1 1-1 2 1zm43 54l-1-2h-3l1 2-1 2h-3v-5l-1-4c-2 0-3-1-3-3l-1 1 3 2-1 5-2 2-1-4-2 1-1 1h-1l1-1-2-2 1 3-2 1c-3-3-6-5-10-5h-3c-3 0-5-1-6-4l1-1-1-3 1-2-1-2-1 3h-2c2 1 3 2 3 5l-1 2-2-1h-2v3l3 1h2l2-1c2 0 4 1 5 3l1-1 1 2c3 2 4 1 4-2l1 2 3 1 1 2c2 1 3 1 4-1l6 2c3 0 5 1 7 3l-3 1v1l-2 3h-3 2l4-1 5-2-2-3 1-2 1-2zm-26-70l-6 2v-2l-1 2v-3l-1 3-2-2-1 1h1l-2 1 1 4c-1 0-2 0-2 2l-2 3-2-1 1 4c0-2 1-3 3-4s3-2 3-4l1-2 1-1 1 1-1 5-2-2 1 3 1-1 1 3h1v3c2-1 3-3 4-6l2-9zm-11-19l-1-1 1 1zm5 59l-4-4 2 3 2 1zm2-45c0 2-1 2-3 1-1-1-2 0-3 1v-2c1 1 2 0 2-1l-1-2 3 5 1-2h1zm-2 61l-3-1 2 3 1-2zm1-50l-1 4v-4h1zm1 0l-1-3h1v3zm5 47v-3c-1 0-2 0-2-2l1-2v1l-1-4-1 2v2l1 1-2 2 2-1 2 4zm3 3h-1 1l-2 2-2 1-2-1 2 1-1 2 1-1 1 1v2l3-2-1-1 1-4zm-4-41l-1-4v4h1zm12 67l-2-1-3-1v1c1 2 1 2 3 2l2-1zm0-22v-1l-2-1v-1l-2 3 1-1 3 1zm7-22c-1-4-3-7-5-7l2 2 2 4-1 1h2zm-2-49l-2 3v1l2-4zm2 60l-2-6v4l-1 2h3zm5 11v-2c-1 1-2 2-4 1l-1-1v1l5 1zm-2 5l-2-1v1h2zm2-117v-3l-4-1 4 4zm13 7l-1-3-3-1 2 1 2 3zm10 113v-6 3a26 26 0 0 0 0 3zm29 21c-4 1-6 0-8-2-2 2-4 3-7 3l-5-1h-7l-1-15 1-1-2-3 3-2-1 2h1l1-4 1 4 2 4 2-2h-1v-2h1l1 2-1 1 1 2-4 1v-1l-1-1-4 2 2 1c0 2 1 3 2 3h2l3-1v2l1-1 1 1-1 2 1 2 2-1h3c2 0 3-1 3-4l3 4 2 4h3l1 1zM307 58v-4c-1 2-3 3-7 3l3 1 1 2 1-1 1-2 1 1zm-3 83v-2l-2 3 1-2 1 1zm0-6v-3 6-1l-1-2 1-1v1zm9 3l-2-3-2-2-1 1v-2l-1-1v2l1 4v1l1 3v2l-1 3v3l1 3 1-1v-4a50 50 0 0 0 0-4c0-3 1-4 3-5zm-2 32l-3-1v-3c2-1 3 0 3 2v2zm0-32l-2 2v-1l1-1-1-2 1-1 1 3zm3-82l-2 1 1-3 1 2zm4 95c0-4-1-6-2-6v2h1l-1 3h2v1zm5-42h-2v3l2-3zm4-25l-1 4-2 2-1-1c0 1-1 2-2 1l1 2 3-3 3-3-1-2zm-3 80l1-3-1-2v-3l-1 3 1 3v2l-2-3v3h2zm0 6v-2h-2v2h2zm1-92l-2-1v2l1-1h1zm3-21h-2l1 1-2 4-2-1 3 7-1 3c2-1 3-2 2-4v-5-2l1-3zm0 42v-4h-1v4h1zm22-68h-1v1l-2-3c0 2 0 4-2 4s-3 1-4 3v-1h-1l-1 2-1-1-1 3-3-1-1 3-3 2-2-1v3a879 879 0 0 1 12-6c1 0 2 0 2 2v3l1 2c0-2-1-3-2-3l3-4 2 2 2-7-1-1 3-2zm-13 48l-2 4-1-3 1-1c0 3-1 4-2 5l-1-1v1c0 1 0 2-2 3l-2 3 4-3 3-4 2-2v-2zm-6 40v-3l-2 1 2 2zm2-21h-1l-1 4v1l-1 3 1 3 1-3v-2-3c-1-1 0-2 1-3zm1 83h-2l2-1v1zm1-125l-2 1 2-1zm4 0c-3 2-4 3-4 5 1 0 2 0 2-2l2-3zm0 37v-1l-1-2 1 4v-1zm1-17v1-1zm1-54l-1-4v6l1-2zm2 7l-2-3-1 1 1 1 1 2-1 1 2-2zm-1 24v-1l-1 1h1zm3 8h-2l-1-2-1 2h4zm0 7l-1 1-1 3-1 3 3-7zm7-18l-1 1-3-4 3 5 1-2zm2-21v-1l-2 1 1 2c0 1-1 2-4 2l1 1 2-1 2-2v-2zm1 16v-1l-1 1-1-1h-2-1l3 4 1-2 1-1z"/></svg>