<?xml version="1.0" encoding="utf-8"?>
<!-- Generator: Adobe Illustrator 22.0.1, SVG Export Plug-In . SVG Version: 6.00 Build 0)  -->
<svg version="1.1" id="Layer_1" xmlns="http://www.w3.org/2000/svg" xmlns:xlink="http://www.w3.org/1999/xlink" x="0px" y="0px"
	 viewBox="0 0 599.85 398.36" enable-background="new 0 0 599.85 398.36" xml:space="preserve">
<g>
	<path d="M598.34,183.63c-1.85-2.65-3.74-5.27-5.53-7.97c-10.12-15.25-19.6-30.98-30.5-45.66c-11.87-15.98-28.36-25.41-48.14-28.73
		c-1.3-0.22-2.66-0.36-3.97-0.26c-5.08,0.36-6.9,2.82-5.3,7.66c1.4,4.26,3.18,8.4,4.91,12.54c10.49,25.05,20.23,50.34,24.84,77.28
		c3.03,17.7,3.86,35.44,0.03,53.14c-5.64,26.07-20.36,45.63-43.17,59.11c-30.94,18.28-64.72,28.54-99.87,34.77
		c-43.16,7.64-86.79,8.66-130.46,8.94c-9.16,0.06-18.32,0.01-29.3,0.01c3.4,4.23,5.59,7.91,8.66,10.59
		c12,10.48,25.36,18.85,40.45,24.24c4.86,1.73,9.75,3.37,14.56,5.22c1.92,0.74,3.66,1.95,5.15,3.81
		c-24.65,0.9-46.5-8.22-67.88-18.86c-22.12-11.01-37.49-28.86-49.3-51.64c-2.71,3.22-4.59,5.2-6.18,7.39
		c-3.61,4.99-6.78,10.33-10.67,15.08c-10.45,12.75-24.13,16.4-39.94,13.23c-0.91-0.18-1.73-0.74-3.48-1.52
		c10.69-5.01,24.62-3.24,29.49-17.56c-8.88-2-17.53-3.55-25.95-5.94c-17.9-5.07-35.93-9.89-53.46-16.06
		c-34.92-12.29-44.43-42.58-42.61-69.21c0.42-6.15,1.13-12.29,1.27-18.44c0.2-9.14-5.11-12.99-13.6-9.39
		c-4.49,1.91-8.33,5.36-12.46,8.13c-1.46,0.98-2.89,1.99-4.34,2.99c-0.53-0.35-1.06-0.71-1.58-1.06c2.59-5.05,4.58-10.53,7.87-15.08
		c10.86-14.98,30.51-20.09,49.4-13.39c12.59,4.47,22.8,12.38,31.42,22.34c19.62,22.68,39.04,45.54,58.57,68.3
		c2.05,2.39,4.1,4.9,6.58,6.78c1.54,1.17,4.32,2.24,5.76,1.59c1.37-0.61,2.58-3.6,2.38-5.38c-0.92-8.41-2.25-16.77-3.63-25.12
		c-0.75-4.53-1.89-8.99-2.24-13.75c10.79,6.02,13.32,18.16,20.87,27.34c5.75-11.18,3.69-24.26,9.97-34.68
		c0.51-0.04,1.03-0.08,1.54-0.12c1.2,4.53,2.58,9.03,3.58,13.61c2.09,9.59,3.91,19.23,6.01,28.82c0.53,2.41,1.47,4.79,2.6,6.99
		c5.63,10.97,15.91,13.36,25.77,5.96c2.25-1.69,4.22-3.77,6.18-5.8c52.06-54.02,100.6-111.2,150.36-167.28
		c23.34-26.31,47.5-51.88,74.76-74.27c10.32-8.48,21.22-16.05,33.69-21.2c15.3-6.32,29.72-5.04,41.9,6.18
		c8.62,7.94,16.92,16.7,23.4,26.41c21.14,31.66,33.53,67.12,42.38,103.91c0.42,1.73,0.49,3.54,0.73,5.31
		C599.35,183.16,598.84,183.39,598.34,183.63z M314.78,263.06c-24.12,25.16-48.23,50.3-73.14,76.27c2.3,0.48,2.92,0.75,3.52,0.7
		c8.3-0.62,16.65-0.88,24.89-2c42.3-5.74,83.69-15.69,124.56-27.81c21.2-6.28,42.31-12.88,61.65-24.1
		c23.61-13.69,34.85-34.34,35.79-61.2c1.26-36.03-14.14-66.01-33.96-94.46c-2.41-3.46-4.67-2.64-7.45-0.74
		c-17,11.57-32.48,24.93-46.67,39.8c-0.98,1.02-1.67,2.31-2.44,3.39c3.54,3.31,7.01,6.2,10.06,9.48
		c14.93,16.02,21.67,34.72,18.61,56.73c-4.2,30.19-29.73,51.9-59.76,50.27c-15.05-0.82-28.38-6.77-40.67-15.14
		C324.85,270.9,320.21,267.13,314.78,263.06z M151.51,330.75c0.38-0.74,0.75-1.49,1.13-2.23c-6.67-8.45-13.21-17.01-20.05-25.32
		c-7.11-8.66-7.24-8.56-15.98-1.39c-0.13,0.11-0.25,0.22-0.38,0.32c-11.8,9.41-26.52,4.32-30.32-10.31
		c-2.26-8.72,1.01-16.06,5.21-23.15c2.45-4.14,2.16-7.64-1.27-10.69c-6.44-5.74-12.77-11.69-19.69-16.82
		c-9.53-7.07-11.47-6.17-14.97,5.28c-7.42,24.25,3.51,51.76,25.95,65.04c12.57,7.44,26.24,12.16,40.51,14.92
		C131.52,328.3,141.55,329.33,151.51,330.75z M400.67,197.8c-0.34-1.06-0.71-3.24-1.71-5.07c-2.17-3.98-5.62-6.09-10.27-5.24
		c-4.32,0.79-5.56,4.31-6.23,8.01c-0.29,1.6-0.27,3.32-0.07,4.94c0.8,6.34,4.72,10.34,9.63,9.98
		C396.99,210.04,400.76,205.02,400.67,197.8z M372.86,272.53c-15.15-2.17-23.93-15.06-36.9-22.54c-1.5,6.68,1.38,10.3,4.97,13.26
		C350.11,270.83,360.28,275.55,372.86,272.53z"/>
	<path d="M464.17,53.19c-4.81-10.35-5.92-21.75-14.19-29.78c5.74-6.33,5.72-6.28,13.09-2.94c4.17,1.89,8.44,3.58,12.67,5.36
		c0.31-0.39,0.62-0.77,0.92-1.16c-4.67-5.33-9.34-10.65-14.16-16.15c3.4-2.49,7.25-5.31,11.63-8.52c4.78,8.58,9.66,17.02,14.2,25.65
		c1.75,3.32-2.13,7.24-6.42,6.69c-4.72-0.6-9.42-1.38-15.53-2.29c1.72,4.59,2.62,8.08,4.29,11.16c1.8,3.33,1.19,5.51-1.7,7.62
		C467.28,50.06,465.84,51.65,464.17,53.19z"/>
	<path d="M349.98,113.96c6.71-6.27,6.7-6.26,14.51-2.59c3.46,1.62,6.93,3.21,10.41,4.77c0.42,0.19,0.96,0.11,3.21,0.32
		c-5.39-6.48-9.95-11.96-14.8-17.8c3.12-2.23,6.96-4.97,11.43-8.16c4.68,8.55,9.31,16.76,13.61,25.13c0.6,1.17,0.15,3.89-0.79,4.62
		c-1.72,1.33-4.19,2.38-6.32,2.32c-4.37-0.11-8.72-1.04-14.52-1.82c1.61,4.4,2.29,7.67,3.91,10.38c2.28,3.82,1.62,6.41-1.88,8.83
		c-1.47,1.02-2.61,2.52-4.22,4.12C360.36,133.65,358.86,122.09,349.98,113.96z"/>
	<path d="M216.32,285.88c1.79,2.9,3.26,6.06,5.45,8.63c2.47,2.89,2.3,5.17-0.06,7.84c-1.42,1.6-2.57,3.44-3.55,4.78
		c-6.12-9.03-12.34-18.2-18.94-27.93c3.58-5.88,3.7-5.92,11.71-3.84c4.42,1.15,8.84,2.29,13.27,3.44c0.28-0.5,0.55-1,0.83-1.5
		c-5.49-4.61-10.98-9.22-17.04-14.3c3.1-2.36,6.79-5.18,11.04-8.42c4.98,6.12,11.09,13.47,16.96,21.01c0.76,0.97,0.92,3.5,0.21,4.29
		c-1.48,1.67-3.61,3.49-5.67,3.75c-4.35,0.56-8.83,0.17-13.26,0.17C216.95,284.5,216.64,285.19,216.32,285.88z"/>
	<path d="M313.5,169.18c-0.91,2.57-1.94,5.47-3.24,9.12c6.33-2.37,11.79-4.41,18.19-6.8c0,1.94,0.64,3.98-0.1,5.1
		c-5.25,7.87-10.39,15.88-16.47,23.09c-1.89,2.25-6.55,2.16-9.94,3.15c-0.44-0.63-0.88-1.25-1.32-1.88
		c5.49-6.15,10.98-12.3,17.46-19.57c-7.96,3.29-14.59,6.03-21.22,8.77c-0.41-0.44-0.82-0.88-1.23-1.32
		c1.11-3.01,2.14-6.06,3.35-9.03c2.76-6.77,5.43-13.58,8.54-20.19c0.74-1.57,3.11-3.5,4.57-3.37c2.46,0.21,5.03,1.61,7.07,3.15
		c1.09,0.83,1.55,2.99,1.6,4.58c0.07,2.03-0.07,4.42-1.13,5.98C319.19,170.62,316.21,169.58,313.5,169.18z"/>
	<path d="M272.31,226.68c5.97-5.15,11.94-10.3,18.9-16.32c-0.65,15.59-15.04,16.61-22.62,25.41c1.56,0.99,3.36,2.13,5.37,3.41
		c-2.3,3.23-4.15,5.84-5.89,8.28c-3.32-2.16-6.37-4.15-9.84-6.41c0.29-4.67-3.73-7.11-7.7-9.41c-3.27-1.9-4.65-6.56-1.59-8.32
		c9.81-5.63,20.01-10.61,30.05-15.85c0.42,0.42,0.84,0.84,1.27,1.26c-1.79,3.78-3.65,7.53-5.35,11.35c-0.97,2.18-1.68,4.47-2.51,6.7
		c-0.25-0.04-0.49-0.07-0.73-0.1c0.08,0.06,0.16,0.18,0.22,0.17C272.04,226.85,272.17,226.75,272.31,226.68z M264.28,231.29
		c1.29-3.24,2.25-5.63,3.52-8.83c-3.35,1.57-5.91,2.76-8.89,4.15C260.91,228.35,262.36,229.61,264.28,231.29z"/>
	<path d="M428.49,37.55c-3.69,4.35-7.24,8.83-11.13,12.99c-2.65,2.83-3.64,5.18,0.42,7.79c2.03-1.87,4.15-3.82,6.94-6.38
		c0.5,4.62,0.85,7.86-2.25,10.91c-1.19,1.17-1.69,4.34-0.97,5.9c1.72,3.72,4.34,7.02,6.5,10.33c-2.53,4.09-5.03,8.14-7.93,12.83
		c-2.66-5.71-5.2-11.17-7.59-16.31c-2.01-0.13-3.57-0.23-5.13-0.33c0.33-1.36,0.8-2.7,0.94-4.08c0.16-1.59,0.04-3.21,0.04-4.99
		c-4.67,0.11-7.03,9.06-12.2,0.85c9.91-10.36,20.04-20.95,30.17-31.54C427.03,36.18,427.76,36.87,428.49,37.55z"/>
	<path d="M340.53,126.61c-1.16,7.58-2.33,15.16-3.55,23.15c6.34,1.38,12.47,2.71,19.58,4.26c-2.57,2.86-5.17,5.76-7.72,8.6
		c-4.94-2.77-9.32-5.23-13.7-7.69c-0.23,0.33-0.46,0.66-0.69,0.99c1.96,3.78,3.93,7.55,5.88,11.33c2.5,4.84-2.31,5.01-4.46,6.58
		c-2.51,1.83-3.64-0.14-4.77-2.32c-4.08-7.82-8.87-15.13-16.64-20.48c3.75-2.86,7.42-5.65,11.65-8.87c1.73,2.73,3.44,5.45,5.5,8.71
		c3.02-8.47,2.62-17.35,5.93-25.08C338.53,126.09,339.53,126.35,340.53,126.61z"/>
	<path d="M436.03,36.07c2.46,5.65,4.35,10.53,6.7,15.17c1.32,2.6,3.41,4.82,5.15,7.21c1.14-2.89,3.07-5.72,3.28-8.68
		c0.49-7.04-1.34-9.71-10.92-19.4c1.78-1.63,3.56-3.26,6.13-5.62c5.27,10.29,11.51,19.74,10.53,31.63
		c-0.42,5.06-3.73,8.48-8.55,10.04c-4.67,1.52-8.98,0-11.48-3.85c-3.49-5.35-6.18-11.25-8.94-17.04c-0.44-0.92,0.19-2.89,0.99-3.74
		C430.6,40.03,432.72,38.68,436.03,36.07z"/>
	<path d="M407.96,98.85c-0.25,4.4-2.54,8.15-6.67,10.58c-3.88,2.28-7.8,1.44-11.28-1.01c-6.76-4.75-10.68-11.38-11.71-19.54
		c-0.61-4.82,2.13-8.4,6.48-9.25C393.51,77.93,407.85,89.53,407.96,98.85z M388.83,90.69c-0.36,0.69-1.41,1.8-1.48,2.97
		c-0.18,3.4,4.56,9.98,7.93,10.61c1.43,0.26,4.17-0.71,4.57-1.78C401.22,98.88,393.68,90.37,388.83,90.69z"/>
	<path d="M234.06,242.42c5.93,0.82,12.36,3.24,17.26,8.67c4.53,5.03,4.52,11.67,0.26,16.77c-3.65,4.37-8.85,4.98-14.83,1.47
		c-6.06-3.56-10.54-8.6-12.71-15.37C221.74,246.82,225.37,242.2,234.06,242.42z M243.65,265.5c3.42,0.29,5.38-1.95,3.33-4.37
		c-2.76-3.26-6.47-5.9-10.2-8.08c-1.91-1.11-3.92,0.28-3.38,3.13C234.1,259.84,240.02,265.2,243.65,265.5z"/>
	<path d="M276.82,192.38c3.45-2.58,7.15-5.36,11.43-8.55c3.48,6.21,6.93,12.37,10.39,18.53c1.14,2.03,2.24,4.08,3.49,6.04
		c1.73,2.73,1.41,5.01-1.23,6.9c-2.78,2-4.9,1.14-6.71-1.49c-3.3-4.79-6.51-9.66-10.07-14.25
		C282.13,197.01,279.5,194.97,276.82,192.38z"/>
</g>
</svg>
