<svg version="1" id="Layer_1" xmlns="http://www.w3.org/2000/svg" viewBox="0 0 1000 480"><style>.st0{fill:#ee0616}</style><path class="st0" d="M293 426l-16 5-7 1c1-3 0-6 3-9l-3-3c0-1 2-3-1-5l-1 2-3-1v2c3 5 4 9 2 15l-76 21-3-3-1 1 1 3-11 3-2-6-1 1v5l-65 18-2-2-1 2c-15 6-30 5-44-4-9-6-15-15-18-25l-5-18 5-4-1-2c-1-3-3-4-6-3l-26-94h3l-1-4-2 2-4-15 4 3v-8c-3-1-3 2-4 3l-1-3-5-18-1-2v-12l1-3c5-18 15-30 33-35l44-12 10-3 5 3 2-4 74-20 5 7c4 1 6 6 11 7l-1-3 3 1c1 1 1 2 2 1 2-1 4 1 6 2 2-1 1-2 0-3l-6-3-3-3-2 3-5-3-4-4-1-4 5 1c2-1 4-5 9-3l-1 3 7-1-1-5 30-8 3 6h2c-1-3-2-5 0-7l76-21 1 1-4 3 11 11 1-5h-3v-6l-2-4 5-2 82-22h3c2 5 2 11 5 17 1-6-2-12-2-18l26-7 5 11c3-5 1-8 0-13l94-25 4 11 3-13 7-1c3 3 3 8 9 8 0-3-2-8-5-9l4-2 47-12c2-1 4-1 6 2v-4l15-4 5 3-2-4 4-1 9 5-2 21-16 4-3-4c2-3 6-6 3-5l-4-6c2-1 0-4 0-3-2 0-6 5-6 6l5 1c-2-2-1-6 0-5l2 9-2 3 1 5c-4 1-61 17-65 17 0-5-1-9-4-13l-5 16-74 19c-1-8 1-9-1-17-3 2-2 11-3 19l-18 5c-1-3-1-13-4-14-3 2 0 12 1 14l-33 9-1-2-2-3-1 7-20 5-2-4-1 1v4l-57 15-6-3 3 4-16 4-16 4-14 4-15 3-15 5-15 4-3-4-2 5-31 8v-4l-3 4-2 2c-1-2-1-4-3-5-1-1-2-3-5-1l3 2-4 3 2 3a7479 7479 0 0 1-40 11c-3 0-3 0-3-3s-1-3-4-3l2 7-4 1-16 4-15 4-30 8-27 8c-11 3-16 12-13 24l29 109 12 43-2 1 3 4c3 7 8 11 15 12v1l-4 2c3 2 5 1 7 0l1 1-2 3 4 1 1 5h1l2-8-3-1 2-5 5-1 2 5 1-1v-5l127-34 2 1 2 1c3-3 4-3 8 0h-6c2 3-3 5 0 9l9-1-5-3 10-10h-4v-1l14-4 1 5 3-6 4 2v4l11 2-1-3 5 1 2-4 3 6c-3-2-3-2-6 2l6-2 3-6c2-3 2-3 0-7l-4 5 1 2-7-2 1-4 84-23c2 1 4 3 6 2l-1-3 2-1 97-26 6 1h1v-2l8-2c-1 2-3 2-2 5l7-7 3 3 3-5 19-5 3 4 4-2-4-2v-1l9-2 2 4 1-5c18-6 31-9 36-8l-1 2 4 3 1-1-1-2-1-2 3 2-1 6c3-2 3-5 4-8l-4-3 8-2c0 3-1 5 1 6l2-7 9-2 9-3 9-2c4-1 7-1 10-3l8-1c2-2 6-2 9-3l9-3 9-2 9-2 3 2 2-3 35-10h2c3 1 4-1 6-2 2 5 3 9 6 9h8c1 6 6 12 9 10l2-3c0-2-7-2-7-1-3-4-3-6-4-12l-1-6 15-5-1 3 5 1 5-2-3-3c4-2 7-2 10-1l-4 3h4l1 1-10 3 2 3-5 1c2 3 5 3 7 2l-1-5 5-1c4-4 8-7 12-8-1-4-4 1-5-3l85-22 4 5 1-7 17-4 16-5 17-4 17-5 16-4 17-5c1 2 3 1 3 0l6-2 3 8c5-1 3-7 1-7l1-3 2-1c7-5 9-12 7-21v-3l-17-61c2-2 4-3 3-6l-4 3-5-22-7-26-6-21-5-19c-3-12-13-17-24-15l-3 1-3-5v6l-7 2-3-5-2 6-76 21c-3 0-6 2-9 0h-3l-4 2c-1-2-6-3-7-2h4v4l-64 18c-1-2-11 2-14 3l-2-7c5 2 7-1 7 0l-4-2 5-3c2 0 2-2 1-2-2 0-9 5-11 7l1 6-2 2c-3-1-4 3-7 2l3-6c1 1 3-1 3-3l-8 2c0-1-7 0-7 2-3 0-10 7-9 10-2 1-4-1-5 2-4 1-8 3-12 1l-5-1 2 4-6 1c-1 1-2 0-3-1 3-1 3-4 3-6 3 3 5 1 7-1 2 1 4 2 6-2-5-1-21 7-17 11l-24 7c1-4-1-15 3-20h-3l3-4-3-4 15-4 1 2c3 0 3 0 4-3l4-1 3 4h1l-1-5 10-2-1 6-4-5-2 6h6c4-1 3-5 5-8l28-8 3 6 1-7 77-21c0 1 0 5 2 5l2 5 7 7-1-4-3-15 26-7 3 2c1-3 4-4 7-4l4 11c4-3 4-6 5-9 0-5 0-5 4-6l19-5h2c2 8 2 16 7 24 2-3-2-22-3-26l36-9v12c2 0 4-8 3-13l12-1c22 1 38 15 42 33l43 157c0 2 2 14 1 17l-1 3-5 3-1 4 5-3c-2 9-7 15-13 21l-2-2-1 4c-4 4-10 7-15 8l-72 20h-5l-4 2-18 5-4-3v4l-8 2c-1-3-4-3-7-3l-5 1 6-4-4-1c4-2 3-5 2-8 0-2-2-2-4 0l3 3c-5 1-4 6-6 9l3 1v1h2l1 4-73 19c2-4 1-7-1-11-2 4-2 7 0 12l-4-6-4-4c-1 2 0 4 1 6l3 4c-9 4-13 4-16 3l-5 4-1-5-2 5-10 3-10 2c-3-11-9-9-7-9l3 4c-1 2 1 3 2 4-2 3-5 3-8 4-8 1-15 4-22 6l-9 2-1-2-6 4-65 17-12 4-40 10c0-2-2-2-3 1l-3 1-42 11c-1 1-3 2-4 0l-6 3-109 29-9 3c-3 1-6-1-9-1-3-2-3-5-2-8-7 2-7 2-7 4l3-1c3 2 3 5 2 9l-42 11-1-1-3 2-28 8c0-3 1-6-2-9l-1 3c2 2 1 5-1 6 0-4 0-4-4-4 2 1 1 5 4 5zM686 67c2-3 1-4-2-4l2 4zM131 218c0-1 2-3-1-4-1 2-1 2 1 4l-2 3c-1 3-3 5-5 6v1l3 1 4-9v-2zM961 91l6-3c-1-2-2-5-6-6-1 1-2 2-2 5 1-1 2 0 2 1l-4 2 4 1zM768 274c-4 3-6 8-12 8l4 9c2-3 6-4 6-9l-4 4c1-5 7-6 6-12zM938 22c0-4-1-6-3-6-3 0-4 3-4 6s1 4 4 4c2 0 3-1 3-4zM68 251l4-8c1-3 0-4-3-4l-3 1 4 1c-1 2 1 4-2 5-3 0-2-5-6-4 1 4 5 5 6 9zm886-142c3-5 1-9 0-13l-5 9 5 4zm25 26c-3-1-3-1-9 3l4 4 7-4-6-1 4-2zm4 67l-7-13c-1 5 2 9 3 12l2 5 2-4zM935 31c-2 3-1 6 3 10 2-5 1-8-3-10zM257 431h-1l-2-4-6 3 5 6 1-3 3-2zm732-247l-4-1c1-5-1-7-5-7 2 3 3 4 3 7 1 3 3 3 6 1zm-789 18l5 7c1 1 3 1 4-1-3-5-5-6-9-6zm159 194l2-3-3-3c-4 0-5 4-6 6l1 2 4-5 2 3zm128-276c0 4 1 8 4 11 2-5-1-8-4-11zm476 2l-3 3 1 7c2-2 3-7 2-10zM233 436h1l2-2 2 2v-8c-3 2-4 5-5 8zm505-142l-1-6 3 2c0-3-1-4-3-4l-1 1-2 7h4zm244-84l-1 1 3 2c4-4 4-5 2-9l-2 6h-2zM559 104c-5 3-5 6 1 11 2-4-2-4-3-6l2-5zm-31 240c1 3 2 6-1 8l1 1 3-4c1-2 1-3-3-5zM317 171c-3 1-2 4-2 6-1 2 0 4 3 5l-1-11zM183 441l1-1-5-3 4-3c-3-1-4-1-6 5l6 2zM639 80h-1l1 3 3 3h4l-7-6zM26 248c2 1 2 3 2 6l4-2-3-5-3 1zm630 63l4-4c1-2 1-3-2-4l-3 6 1 2zM936 45c-1 6-1 7 2 10 1-3 0-6-2-10zM253 417c4 3 6 2 9-3-4-2-3 2-5 3h-4zm737-223l-1-5-1-1-2 1c0 3 1 5 4 5zM930 11l-6-7c1 3 6 7 6 7zM806 41c0-3 1-5-2-8-2 4-2 5 2 8zM341 167l-5-4c0 3 0 5 3 7l2-3zm-236 49l-2 5c3 0 4-3 6-5h-4zM774 48l7-1-2-2-5 3zm41-21c-3 1-6 1-7 4 4 1 4 1 7-4zM516 347c-2 3 0 7 4 8l-4-8zm147-39l4 7c2-4 1-5-4-7zM260 430v-4c-1-1-2-3-4-2l2 5 2 1zm41-253l3-2-4-5c-3 3 2 4 1 7zm-70 252l2-8v-1l-2 4-3-1 3 6zm100-251l1-1-4-6-1 1c1 2 2 5 4 6zm-89 257c1 2 3 4 6 2l-3-1 1-4-3 1-1 2zm54-256c0-5 0-6-4-6l4 6zm445 118l-5-1 1 5 4-4zM247 426l-1-4v-3c-2 3-3 5 1 7zm-75-217c-1 3-1 5 2 7 1-3 0-5-2-7zm197 184c2-5 2-5 0-6-1 2-2 3 0 6zm343-86l1 4c2 0 3-1 2-4h-3zm153-42c2-4 2-4-1-6l1 6zm-207 47c3 3 3 3 5 1-1-1-3-2-5-1zM218 203c1 2 3 2 4 1v-5l-2 3-2 1zm351-95l4 7c1-4 0-5-4-7zM27 244c2-3 2-5 0-6-2 2-1 3 0 6zm85 216c1-3 1-6-1-9-2 4 0 6 1 9zm376-109l-4 4c5 0 5 0 4-4zm72-10l-5 1 1 3 4-4zm431-145h-1l4 4 1-2-4-2zm-12-15l-1-2c-2-2-3-1-4 1l5 1zM628 312h-2c-1 2-1 4 3 6l-1-6zM62 237c2 0 2-2 2-3l-3-2 1 5zm78-29zm234-49c-2 0-3 2-2 5l2-5zm461 108c3-2 3-2 2-5l-2 5zm92-27l-4-2 1 5 3-3zm-97 25c-1 4-1 4 2 4l-2-4zm-225 70h-1l3 5c1-4-1-5-2-5zm-67 3c-3-2-3-2-6-1 2 1 3 3 6 1zM132 449l-1 1c1 2 2 4 5 2l-4-3zm411-102l-2-1c-1 2-2 3-1 6l3-5zM180 199c1 2 2 3 4 2-1-2-2-3-4-2zm55-1h-1c0 2 1 3 4 4l-3-4zm699 51l2-2-2-1v3zM188 437c0 2-1 4 2 5 0-2 0-4-2-5zM81 471l1-1c-1-1-1-3-3-3l2 4zm384-97v3l1-1-1-2zm-160 25c-1 2 0 3 2 4 1-2 0-3-2-4zM894 23c0-3 0-3-2-5 0 2 0 4 2 5zM588 94c1-4 0-5-3-5l3 5zM129 465c0-3-1-4-3-3v2l3 1zm615-171l5 1c-1-3-2-3-5-1zM120 469c2-1 2-1 1-3l-1 3z"/><path class="st0" d="M220 377l-5 3-1-4-3 1c-1-3 3-3 4-4l-8-4c-1 2 2 3 3 4-2 2-5 3-2 6l3 1h1l-24 7a2586 2586 0 0 0-17-14l3 2c-2-5-2-5-8-3l-21-14-23-15 8 31-2 3 2 3c2 1 3 3 3 5l4 15-34 10-32-118 5-2 25-6c2-1 4-1 6 1l23 16v4l3-1c7 3 13 7 19 12-1 2-2 5 2 8v-7l16 11-2-7c-1-3-1-5 1-8l-4-2 2-3c-3-1-3-3-4-6l-3-11v-4l-6-17 6-2 2 5h-1l-2 5 4-2 2 6c1-3 3-4 1-6l-1-6 1-4 4-1 3-1 7 4 1 2v1c5-4 5-5 4-8l-2 3-3-4 8-2 2 4 28 106 1 2c-1 2 1 3 1 5zm-99-8c-5 2-2 7-5 10h3c-2 2-4 4-2 6l3-2h4l-4-5v-2l3 3 1-5-3-1v-4zm61 8c3-1 5 2 8 3-1 1-3 2-1 4l3-3 2 3c1-2 3-3 1-5h-3l-2-5c-2 1-6 0-8 3zm-21-22c1-2 5-1 3-4-6 3-6 3-6 8l5 4v-4l-2-4zm-50 3c2-1 3-1 2-3l-4-6-4 2 6 7zm-7-42c3-3 3-4 1-7-2 0-4 1-4 3-1 2 1 3 3 4zm-18-10l2 3c3-2 3-4 1-5l-3 2zm22 82c3 1 4 0 4-2 1-1 0-2-2-3l-2 5zm-4-63c-2 3-2 4 2 7l-2-7zm75 24c1 3 0 6 4 9-1-4-1-7-4-9zm-3 11l-2-9c-2 4-2 5 2 9zm-80-53c5 2 6 1 8-1h-4l-4 1zm13-3c2-2 3-3 1-5h-3l2 5zm73 25h-2c1 2 0 5 2 8v-8zm-5 18c0-4 0-4-2-7-2 3 1 4 2 7zm-57-34v-6c-3 4-3 4 0 6zm-12 5h-2c0 1 0 3 2 5v-5zm-5 17l4 2 1-3-5 1zm59 9c-1-2-3-3-4-2v3l4-1zm-50-48l4 2c0-4 0-4-4-2zm-13 8l1 1c1-2 2-3 1-5l-2 4zm74 29v5l3-5h-3zm-35-18c-1 3-1 3 2 5l-2-5zm40 5l1-1c0-2-1-3-3-1l2 2zM496 184v-3-3c7-3 15-4 22-4 1 3 0 6 3 9l1-8 9 2 5 25h1l1-3-3-17-1-3c12 7 18 17 19 30s-5 23-15 31l4 6 1 5 2-3 31 34v1c-3 1-6-1-8 2-2 2-6 1-9 2l-9 3-16 4-32-37-12 3-5-9-6 7 6-2v1l-2 2c2 2 2 5 5 5l10 36-4 1v1l4 1c-3 2-30 9-37 10l-5-17-22-84c-1-3-2-6 0-8l1-4-5-1v-3l60-17c3 1 2 5 6 5zm-21 54l3-4h4l7-2 18-5c6-2 8-8 6-14-1-6-7-9-13-8l-7 2h-5c-3 4-9 2-13 6l2 10c-1 3-3 5-3 8l1 7zm-7 3c1-1 3-3 3-5-3-2-6-4-9-2l1 3-4 2 5 2 2-1 2 1zm6 15l1-1-2-3-5 2-3 3 4 2-2 2 1 1 6-3-3-4 3 1zm60-48l-1 9c1 2 2 3 4 3 1-9 1-10-3-12zm-9 29c-4-1-5 1-6 3-2 3 2 5 3 7v-5c0-2 1-4 3-5zm-71 0l-2 4-2-5c-1 4-1 6 2 8 4-2 4-3 2-7zm8 25l-3-4c-1 3-4-4-5 2l5 1-1 3v2h1l3-4zm11-42c1-3 1-6-2-9-2 4-1 5 2 9zm-27-1l2 3 2 3c2-3 2-4-4-6zm9 16l1-1-7-4v4l6 1zm12 74l1-1-2-6-1 1 2 6zm82-33l3 1v-2c0-1-1-1-3 1zm12 4h1c0-2 1-4-2-5l1 5zm-87 17c2-1 2-2 0-3h-2c0 2 1 3 2 3zm-12-78l-1 1 2 4h1l-2-5zm-22 2c2-2 2-3 1-4-2 1-2 2-1 4zM324 235l-2 4-1-4-2 4 10 4c1-2 0-3-2-4l1-2c12 5 19 14 24 25v6l2-2c3 7 5 15 6 23l-3-4c0 4 1 6 4 7 1 12 0 23-6 33l-10-2 1-4 2 3c2-3 0-5-8-6l6-3-3-2c-5 3-5 3-6 6l3 3 3 3-2 1c1 3 2 6 6 7l-2-4h5v-1l3 2c-8 13-28 26-38 25l1-2c-3 1-3 1-3 4l-6 2-4-4v5l-10 1c-9 1-18 0-26-3l-4-2c-2-2-4-3-7-3-2 0-4-2-6-4l-10-11-3-6c3-2 3-2 3-5l-4 4-6-15 4-3-4-1c-2-5-2-10-3-16l4-1-1-4-3 3c0-8 1-14 3-21l4 1-2-4c3-10 11-17 20-24l2 5c3-3 3-3 1-7l13-5 12-4 1 4h2v-5c14-2 27-3 41 3zm13 63c-3 0-6-1-8 1l1 2 1 1 4-2 2-2 2 3c0-2 1-5-2-6 0-2 1-5-2-6l-3 3c1 3 3 4 5 3v3zm-19-36c-1-3-1-3-4-2 1 2 2 3 4 2l-4 3 1 6 3-1-4 3-6-7 3-2-3-1 2-3-1-1-3 5c-11-5-21-4-30 2-11 7-11 18-10 28l4 11-3 4 4 3 4 7c4 5 9 9 16 10 3 0 5 0 7 2l2 1-1-3c15-3 24-12 23-29l2 1-1 2 5 2-3 1c3 4 6 4 10 0-1-3-4-1-5-1v-1l-6-8-1-1-3-4c2-2 5-3 3-7-2 1-4 0-5-1l1-3-2-5 3-4-2-1 1-1h9c2 2-1 5 2 7 3-7 0-11-7-12-2-3-2-3-5-2zm3-8c4-3 5-5 4-6l-3 3c-1-4 2-5 4-7l-4-3c0 5-5 8-1 13zm-7-8l1-4-3-2-1-3c-3 1-4 2-3 3 1 3 2 5 6 6zm-40 85h4c0-3-1-5-4-7v7zm70-61h-1l1 7h1l2-4-3-3zm6 33c1 3 0 6 3 9 1-6 0-7-3-9zm-7 6l-3-6c-3 3-2 3 3 6zm-66-48l1 1h4l-3-5-2 4zm30-9l1 2c3 1 4-3 6-4l-1-1-6 3zm-56 12c3 4 3 4 5 3l-2-4h-2l-1 1zm73 8c-1 5-1 5 5 7l-5-7zm11 56l6 3-2-5-4 2zm-44-75l3-3h-5l2 3zm3 80l-1 1 4 6c1-4-1-6-3-7zm23-2c-4-1-5 0-5 4l5-4zm17-10l-1-2-5 1 2 3 4-2zm-71-50c-4 2-4 3-1 6l1-6zm21 71l-4 3 1 1h3v-4zm-26-86c1-3 1-3-2-3l2 3zm58 92l-4-2v4l4-2zm-30-96c-1 3-1 3 2 4l-2-4zm43 36l-2 4c3 0 4-1 2-4zm-2 23c2 2 3 2 5 0h-5zm-12-71c1 0 2-1 1-2l-1-1-1 2 1 1zM785 152c5-3 6-3 10 2l1-10h6v-8c0-3-1-3-5-2l-4-3c-2 2-2 3 0 4h6c-1 5-1 5-5 6l3-4-7-1c0 3 4 5 2 9l-4-4h-7c0-2 2-3-1-5l-2 2-9-33c3-2 5-2 8-1 2 1 5 1 6-2l5 2c3 0 4 1 4 4l1 4-5 2c4 3 6-2 10 0l-7 4 4 2-1 4h1l4-4-1 3 2 3 5 3 4-2-2-4-2 2-3-3c-1-4-3-4-6-4 4-1 4-4 6-7v6l6-3c-2-1-2-1-5 1v-6c-3-1-4-3-3-7l-6-4 4-1c1 3 3 5 7 5l-2-3 4-3-1 3 3 1-3 9 2 3 3-4 1 5-4 6 4 4-1 2 6 7 2 9-4-4c-2 3-1 4 1 6l-2 5-5 2v-1l2-2-4-6c-3 1 1 3 0 5-2 3-4 1-6 1l-2 4 4 3 6-2c4-1 6-2 8-6 1-2 4-3 7-3l3-1-4-2c2-2 4-1 8 2l-1-7-5 2v-2a1004 1004 0 0 1 17-34v5l5-1-5-6 6-14 4-3 38-10 1 2c2 0 2-4 5-3-2 4-3 8-7 11l-1 4-20 40-1 4 58 54-1 1-4-1 1 2h4c1 0 2 0 3 2l-43 12-38-36-15 21h-7l5 3v-2h1l7 26c-3 1-6 3-10 0l1 3-28 7-19-70h3l-1 4 2 1 4-2 2 3c1-4-1-6-3-6l-1 1-3-1zm28 22c-3 0-4-2-6-4l-2-1 2 5c-4 3-4 4-1 8l5-3-5-1 4-2 3-2 2-1v-9l-9-2v3l4 1 2 3c-2 2 1 3 1 5zm25-55c-2-2 2-2 2-4l-3-1c-2 2-2 4-2 6l1 4c4-2 4 4 7 5 0-5-2-8-5-10 2 0 3 1 4-2-2 0-3-1-4 2zm1 15c0-2-3-3-4-5l-3 3 4 2h3l-4 10c4-2 4-2 9 0v-8h-3l1-4-3 2zm-11 64l-1-6c-2 1-3 3-6 1l2-5-3 1-5-2v7l6 2-2 1 5 7 1-4 3-2zm16-86l5 3c2-1 5-2 6-6-3 2-5 0-7 3l-3-6-1 6zm-52 55c5 1 5 1 7-3l-8-1 1 4zm89 17c-8-8-8-8-10-7 2 4 5 7 10 7zm-96-71l4-2c1-3-2-3-3-4-2 2-2 4-1 6zm41 70c2 1 3 0 4-1 1-2 2-4-1-6l-3 7zm-14 17c-3 4-3 5 1 7 0-2 2-5-1-7zm44-100l3-6c-4-1-4 3-6 3l3 3zm-38 80c0-8 0-8-2-10l2 10zm48-45l1-1-3-7c-1 3 0 6 2 8zm-81 2c4 0 3-3 3-5-3 1-4 3-3 5zm4-17l-2 5 1 1 4-4c-2 0-2-1-3-2zm10 49c1 3 2 4 6 4-2-2-3-4-6-4zm-23-51l2 5 3-4-5-1zm20 42v1c2 0 4 1 6-3l-6 2zm20 40c-1-2-1-4-4-4 0 3 2 4 4 4zm-17-42v-1c-1-2-3-1-4 0l4 1zm24-10l-3-3-1 4c1 1 3 1 4-1zm47-6c-1 3-1 3 2 3l-2-3zm23 21h-1v5l1-5zm-16-8l-3-4c0 3 0 3 3 4zm-70-24c-2 1-3 2-2 4 3 0 2-2 2-4zm-2 61c2 1 4 0 4-2l-4 2zM697 222c1-2 2-2 4-2 4 1 9 0 14-1l8-2 4-3 3 1v-6c0-3-1-5-4-6l-6-2-4-1-5 1c-4-1-8 0-12 1h-3l1-3-5 2h-6l-5 1c-9-2-18-3-25-10l5 2c0-4-2-4-4-5l-5-2-4-7-3-8c4 1 4 4 5 7 2-2 2-4 1-5-2-2-1-3-1-5l-1-5c0-3 0-6 2-8l2-2 3-2-3 6c5 3-1 6-1 10 3 0 3-3 5-4l-1 6 4 2c-1 1 2 2 3 2 3-1 4 0 5 1 2 3 0 8-3 10 1-4-2-6-1-5l-2 7 2 2c0 2 7-3 7-5l-1-7c0-5-1-5-5-6-2 0-4 0-6-2 3-1 4 0 6 1 3 0 6 0 7 4 0 1 2 1 3-2l-14-6 1-7c1 2 5 3 6 2l-2 3h7l-2-3-2-2 4-3-6-2v4l-6-1 5-5c-5 0-6 1-7 5 0 3-2 1-1-3l6-4c-3-4 2-6 2-9l-4-1v-4c4 0 6-2 8-4 4-4 9-6 14-6l8-4 5 9 4-3 4 2 3-6-4-2c0-2 5-2 9 0l-5 6 6 1-2-4 4 2-2-5 2 2c2-1 1-5 5-3v4l2-4 5 2 4 1 2 6 1 3c1 3 2 4 6 3l-1-1-1-2h5v3c4 1 5 3 8 12l-7 2c-4 0-5 0-4-5h-4c-1 3 1 4 3 6l-21 6c-4-3-6-7-11-9l-2-3h-8l-2 3-9 6c-3 2-4 5-3 8l-2 2 1 4 3-2-1-2c2 1 5 1 6 5l-8 1 1 5-5-2 1-2-1-1-4 7c4 2 2 5 2 8l4 2-1 2v1l7-3h4v-1l-2-1c-2-4 3-5 1-9l-6 3v-4h3l9-5v-1c3 1 5-4 8-2-1 4-1 7 1 11v-8h3v-3c2 0 5-2 6 1 3-3 7-1 11-2v6h4l-4 3c-4 0-8-1-11-4l-1 2 4 6c7-1 14-2 17-10l-2-3 6 1c2 3 6 2 7 5l1-1-2-2 1-1c7 3 14 6 18 13l1 6 3 3c3 11 2 22-4 32-2 1-4 0-5 2l2 2c-7 8-16 13-25 16l-4-3 1 4c-5 3-20 6-27 6l-2-4h-9l5 5h-8v-4l-3 3-1-3 2-1c0-2-1-3-4-3-2 2 0 4 0 6-10 1-26-12-26-26h-2c0-2 0-3 2-4 5-1 10-4 16-3h1c5-4 10-3 15-5l6 9c0 1-2 2 0 3l-1 4 5 1c-2-2 0-5-4-5zm12-91c1 3 2 3 4 4 2 0 2 2 2 4-4 0-5-3-8-4l-3 2-4-6v8h2l3 5c1-3-1-6 3-7v3l4 1h6c2 0 3 0 3-2l-7-6c-1-2-3-3-5-2zm24 14v-7l-3-1 2-2c-4-1-4-1-7 1h3l-4 5 4 3-2 3 7-2zm-40 2l6-5c-2-3-3-5-6-4l2 3h-3c-1 2-1 4 1 6zm41 55c4-4 3-7-4-14 0 4 2 5 4 8-2 2-2 4 0 6zm-38-21l2-1 1-9c-5 3-5 4-3 10zm-6 10c-1 3 3 4 5 7l1-6c-1-3-4-2-6-1zm39 46c2 1 3 0 5-1 1-1 2-3 1-4l-7 1 3 2-2 2zm22-56l-3-3-3 3 5 3 1-3zm0 35c1-4 1-7-2-10-1 4 0 7 2 10zm-15 12l4 2c-1-4-3-7-6-8l2 6zm-81-48h-1l-1 7 4-1-2-6zm64 49l3-7-5 5 2 2zm0-94c0-2 0-5-2-6-3 3 1 4 2 6zm5 91v1l4 4 4-2-8-3zm33-12l2 6 2-5-4-1zm-75-54l-2-6c-2 2-2 3 2 6zm74 47l-1 5c3-1 3-1 1-5zm-81-56c2-4 2-4-1-7l1 7zm24 83l1-1c0-2-1-3-3-3l2 4zm29-15c0 4 0 4 3 5 0-2-1-4-3-5zm-23-31l4-4c-3-1-4 1-4 4zm-39 49h3l1-2-1-1-3 3zm57-70c-4 1-4 2-2 5l2-5zm14 9l-4-1c1 1 2 2 4 1zm-49-41h1l2-2-1-1-2 3zm40 49c3-2 3-2 1-4l-1 4zm37 27c1-2 0-3-2-3l-1 1 3 2zm-26-67l1-1-3-3-1 1 3 3zM596 249l5 2-2-8h-6c-1-5-4-8-2-12l-1-2-3-9c-2-3-2-7-3-10l-3-10v-2h3c-3-2-4-4-2-7-3-2-4-5-5-8l-7-24c3-2 31-10 38-11 1 6 4 11 3 16 1 3 3 5 3 8l8 28-3 3h3c4 10 5 20 9 31l-4-1-3 5 5 4 3 6c3 2 4 5 5 9l-2 1-1 9-32 9-6-21 2-2-2-4zm10-92c-2-2-2-2-4 0h4l-6 3c4 1 7 0 9-3h-3zm-13 23c-2-2 0-3 0-5v-1h-3l-2 7h4l1-1c2 1 3 0 3-2l-2-1-1 3zm12 25h-7c1-2 3-2 5-2-3-2-5-3-6 0s-3 7-2 11c4-2 7 2 10-1v-8zm8-19l2-1c-1-2 1-5-3-8 0 4-5 5-3 9l3-3 1 3zm-18 37c4-1 2 3 4 4 4-5 1-5-4-9v5zm26-12l-3-4c0 4-4 6-2 10l5-6zm-12 39c-1-2-2-3-4-2v3c2 2 3 1 4-1zm6-13c4-2 4-4 2-7l-2 7zm-5 1l1 2-1 4h4c-1-2 0-5-4-6zm2-62c-1-3-3-4-6-4v2l6 2zm2 74c2-1 3-2 1-3h-4l3 3zm-18-69c-1 3 0 4 1 5h2l-3-5zm28 36c-2 2-3 4-1 6 2-2 2-3 1-6zm-22-19c-2-1-3-2-5 0 1 1 2 2 5 0zm14 22l-2 2 2 1 1-1-1-2zm-11-28c-2-2-3-2-4-1v2l4-1zm9 3v-6c-3 3-3 3 0 6zm-18-30c3-1 3-1 1-3l-1 3zm1 71h-1v3l1 1 1-3-1-1zM657 92c-4-2 2-10 4-11l7 3c-2 0-12 3-11 8zM719 285l3 6-4 2-2-1c0-3-2-3-4-5 2-1 4 1 6 1v-3h1zM692 81l-6-3c5-1 6-1 8 1 1 2-2 3-2 2zM702 74l-2 8-2-1-1 2h-1c2-4 3-7 6-9zM649 155c-2-3-1-5 4-9l-1 2-3 7z"/><path class="st0" d="M656 151l6-10c0 5-2 7-3 9l-3 1zM275 410h-6c0-2-1-3 1-6l1 3 4 2v1zM695 122c5 0 5 0 6 4l-6-4zM596 249c-3 0-1-3-3-4l5 1-3 1 1 2zM794 109v-6l3 2-3 4zM627 239l3-3 2 4-5-1zM787 103l-1-3 4-1-3 4zM639 263c0 3 0 3-3 3l3-3zM680 177l6 6-2 3c-1-4-5-5-6-8l2-1zM601 209l3 3c-3 1-2-2-4-2l1-1z"/></svg>