<svg xmlns="http://www.w3.org/2000/svg" viewBox="0 0 207.62 207.75"><linearGradient id="a" gradientUnits="userSpaceOnUse" y1="103.877" x2="207.6203" y2="103.877"><stop offset="0" stop-color="#955c2a"/><stop offset=".0221" stop-color="#9f6326"/><stop offset=".1031" stop-color="#bd7918"/><stop offset=".1883" stop-color="#d58a0d"/><stop offset=".2786" stop-color="#e69606"/><stop offset=".3772" stop-color="#f09e01"/><stop offset=".5" stop-color="#f3a000"/><stop offset=".6098" stop-color="#f09d00"/><stop offset=".6981" stop-color="#e69500"/><stop offset=".7788" stop-color="#d58600"/><stop offset=".8551" stop-color="#bd7200"/><stop offset=".9276" stop-color="#9f5700"/><stop offset=".9974" stop-color="#7a3700"/><stop offset="1" stop-color="#783600"/></linearGradient><path fill="url(#a)" d="M178.14 176.38l-11.91 1.24-3.17 11.55-11.93-1.03-5.29 10.73-11.52-3.27-7.23 9.54-10.7-5.39-8.9 8-9.48-7.31-10.26 6.16-7.92-8.97-11.24 4.11-6.09-10.31-11.81 1.91-4.02-11.28-11.97-.36-1.81-11.82-11.68-2.63.46-11.96-10.98-4.78 2.72-11.66-9.87-6.77 4.87-10.94L0 112.63l6.86-9.82-6.65-9.95 8.58-8.35-4.64-11.03 10.01-6.56-2.47-11.71 11.07-4.56-.21-11.96 11.74-2.38 2.06-11.79 11.97-.11 4.25-11.19 11.78 2.16 6.3-10.18L81.8 9.54 89.9.73l10.13 6.38L109.66 0l8.74 8.18 10.8-5.16 7.03 9.69 11.59-3.03 5.07 10.84 11.94-.77 2.93 11.61 11.88 1.49.68 11.95 11.38 3.72-1.6 11.86 10.47 5.8-3.81 11.35 9.19 7.68-5.89 10.42 7.56 9.28-7.75 9.12 5.66 10.54-9.34 7.49 3.58 11.42-10.59 5.59 1.34 11.9-11.45 3.47z"/><linearGradient id="b" gradientUnits="userSpaceOnUse" x1="37.2249" y1="170.4621" x2="170.4711" y2="37.2159"><stop offset="0" stop-color="#783600"/><stop offset=".0818" stop-color="#a25f08"/><stop offset=".25" stop-color="#f6b018"/><stop offset=".324" stop-color="#f9cb44"/><stop offset=".401" stop-color="#fce26c"/><stop offset=".4624" stop-color="#fef184"/><stop offset=".5" stop-color="#fff68d"/><stop offset=".5328" stop-color="#fef184"/><stop offset=".5863" stop-color="#fce26c"/><stop offset=".6539" stop-color="#f9c944"/><stop offset=".7321" stop-color="#f4a80e"/><stop offset=".75" stop-color="#f3a000"/><stop offset=".9172" stop-color="#9d5600"/><stop offset="1" stop-color="#783600"/></linearGradient><circle fill="url(#b)" cx="103.81" cy="103.88" r="93.57"/><linearGradient id="c" gradientUnits="userSpaceOnUse" x1="-1372.6611" y1="-1635.354" x2="-1191.9287" y2="-1454.6215" gradientTransform="rotate(180 -588.7688 -720.08185)"><stop offset="0" stop-color="#783600"/><stop offset=".0818" stop-color="#a25f08"/><stop offset=".25" stop-color="#f6b018"/><stop offset=".324" stop-color="#f9cb44"/><stop offset=".401" stop-color="#fce26c"/><stop offset=".4624" stop-color="#fef184"/><stop offset=".5" stop-color="#fff68d"/><stop offset=".5328" stop-color="#fef184"/><stop offset=".5863" stop-color="#fce26c"/><stop offset=".6539" stop-color="#f9c944"/><stop offset=".7321" stop-color="#f4a80e"/><stop offset=".75" stop-color="#f3a000"/><stop offset=".9172" stop-color="#9d5600"/><stop offset="1" stop-color="#783600"/></linearGradient><circle fill="url(#c)" cx="103.81" cy="103.88" r="91.42"/><linearGradient id="d" gradientUnits="userSpaceOnUse" x1="103.81" y1="13.3192" x2="103.81" y2="194.4345"><stop offset="0" stop-color="#783600"/><stop offset=".0818" stop-color="#a25f08"/><stop offset=".25" stop-color="#f6b018"/><stop offset=".324" stop-color="#f9cb44"/><stop offset=".401" stop-color="#fce26c"/><stop offset=".4624" stop-color="#fef184"/><stop offset=".5" stop-color="#fff68d"/><stop offset=".5328" stop-color="#fef184"/><stop offset=".5863" stop-color="#fce26c"/><stop offset=".6539" stop-color="#f9c944"/><stop offset=".7321" stop-color="#f4a80e"/><stop offset=".75" stop-color="#f3a000"/><stop offset=".9172" stop-color="#9d5600"/><stop offset="1" stop-color="#783600"/></linearGradient><circle fill="url(#d)" cx="103.81" cy="103.88" r="90.56"/><ellipse transform="matrix(.9997 -.0227 .0227 .9997 -2.3322 2.3843)" cx="103.81" cy="103.88" rx="86.19" ry="86.19"/><ellipse transform="rotate(-9.213 103.80862354 103.85724871)" fill="#00491B" cx="103.81" cy="103.88" rx="85.24" ry="85.24"/><ellipse transform="rotate(-85.934 103.81119845 103.87507216)" cx="103.81" cy="103.88" rx="59.84" ry="59.84"/><linearGradient id="e" gradientUnits="userSpaceOnUse" x1="103.8099" y1="18.5876" x2="103.8099" y2="189.5945"><stop offset="0" stop-color="#783600"/><stop offset=".0818" stop-color="#a25f08"/><stop offset=".25" stop-color="#f6b018"/><stop offset=".324" stop-color="#f9cb44"/><stop offset=".401" stop-color="#fce26c"/><stop offset=".4624" stop-color="#fef184"/><stop offset=".5" stop-color="#fff68d"/><stop offset=".5328" stop-color="#fef184"/><stop offset=".5863" stop-color="#fce26c"/><stop offset=".6539" stop-color="#f9c944"/><stop offset=".7321" stop-color="#f4a80e"/><stop offset=".75" stop-color="#f3a000"/><stop offset=".9172" stop-color="#9d5600"/><stop offset="1" stop-color="#783600"/></linearGradient><circle fill="url(#e)" cx="103.81" cy="103.88" r="57.57"/><linearGradient id="f" gradientUnits="userSpaceOnUse" x1="103.8099" y1="50.3982" x2="103.8099" y2="157.3555"><stop offset="0" stop-color="#955c2a"/><stop offset=".1063" stop-color="#ba7719"/><stop offset=".25" stop-color="#f3a000"/><stop offset=".3785" stop-color="#f9cb47"/><stop offset=".5" stop-color="#fff68d"/><stop offset=".5376" stop-color="#fef184"/><stop offset=".599" stop-color="#fce26c"/><stop offset=".676" stop-color="#f9cb44"/><stop offset=".75" stop-color="#f6b018"/><stop offset=".9182" stop-color="#a25f08"/><stop offset="1" stop-color="#783600"/></linearGradient><circle fill="url(#f)" cx="103.81" cy="103.88" r="53.48"/><linearGradient id="g" gradientUnits="userSpaceOnUse" x1="49.3016" y1="103.8768" x2="157.0215" y2="103.8768"><stop offset="0" stop-color="#783600"/><stop offset=".0818" stop-color="#a25f08"/><stop offset=".25" stop-color="#f6b018"/><stop offset=".324" stop-color="#f9cb44"/><stop offset=".401" stop-color="#fce26c"/><stop offset=".4624" stop-color="#fef184"/><stop offset=".5" stop-color="#fff68d"/><stop offset=".5328" stop-color="#fef184"/><stop offset=".5863" stop-color="#fce26c"/><stop offset=".6539" stop-color="#f9c944"/><stop offset=".7321" stop-color="#f4a80e"/><stop offset=".75" stop-color="#f3a000"/><stop offset=".9172" stop-color="#9d5600"/><stop offset="1" stop-color="#783600"/></linearGradient><path fill="url(#g)" d="M103.81 49.01c-30.3 0-54.87 24.57-54.87 54.87 0 30.3 24.57 54.87 54.87 54.87 30.3 0 54.87-24.57 54.87-54.87 0-30.31-24.57-54.87-54.87-54.87zm0 108.35c-29.54 0-53.48-23.94-53.48-53.48 0-29.54 23.94-53.48 53.48-53.48s53.48 23.94 53.48 53.48c0 29.53-23.94 53.48-53.48 53.48z"/><path fill="#FFF" d="M90.19 171.98l-.44 2.26-5.84-1.13 1.03-5.35c.67-.44 1.59-.77 2.75-.98s2.29-.21 3.39 0c1.4.27 2.57.8 3.5 1.59.93.79 1.55 1.78 1.87 2.98.31 1.2.35 2.44.1 3.73-.27 1.4-.8 2.58-1.6 3.56-.8.97-1.81 1.64-3.06 2-.95.28-2.06.3-3.34.05-1.67-.32-2.9-.92-3.7-1.8s-1.22-1.96-1.25-3.25l2.79.02c.06.7.32 1.28.77 1.77.45.48 1.06.8 1.84.95 1.18.23 2.2.04 3.04-.58.84-.62 1.41-1.66 1.69-3.14.31-1.59.18-2.86-.37-3.79-.55-.93-1.41-1.51-2.55-1.73-.57-.11-1.16-.11-1.77 0-.61.11-1.16.29-1.63.53l-.33 1.7 3.11.61zM77.63 177.68l-2.53-1.1 2.95-6.79c.47-1.08.74-1.79.82-2.14.11-.56.04-1.08-.24-1.57-.27-.49-.76-.88-1.47-1.19-.72-.31-1.32-.4-1.82-.27-.49.14-.87.4-1.13.8s-.61 1.09-1.04 2.08l-3.01 6.94-2.53-1.1 2.86-6.59c.65-1.5 1.18-2.54 1.59-3.1.41-.56.89-.98 1.44-1.25.55-.27 1.19-.39 1.92-.38s1.59.24 2.58.67c1.2.52 2.05 1.05 2.54 1.6.5.55.83 1.12 1 1.71.17.6.2 1.16.11 1.7-.15.79-.52 1.89-1.13 3.29l-2.91 6.69zM60.63 152.28l2.44 1.75-.83 3.22 4.45 3.18 2.72-1.87 2.38 1.7-12.28 8.03-2.38-1.7 3.5-14.31zm.99 7.35l-1.42 5.22 4.45-3.06-3.03-2.16zM59.71 151.28l-10.08 9.24-3.93-4.28c-.99-1.08-1.61-1.94-1.88-2.6s-.3-1.34-.11-2.06.59-1.35 1.19-1.9c.76-.69 1.58-1.04 2.48-1.05.9-.01 1.82.37 2.76 1.14-.15-.67-.2-1.3-.15-1.86.04-.57.24-1.45.57-2.66l.84-3.03 2.23 2.43-.85 3.48c-.3 1.24-.47 2.05-.5 2.43-.03.38.02.71.14 1 .12.28.4.66.83 1.13l.38.41 4.21-3.86 1.87 2.04zm-7.68 3.3l-1.38-1.51c-.9-.98-1.49-1.55-1.8-1.71-.31-.17-.62-.23-.95-.18-.33.05-.64.21-.95.49-.34.31-.53.65-.57 1.02-.04.37.06.75.31 1.13.13.19.57.69 1.33 1.52l1.46 1.59 2.55-2.35z"/><path fill="#FFF" d="M44.44 130.42l1.52 2.59-2.07 2.6 2.77 4.71 3.25-.6 1.49 2.52-14.48 2.35-1.48-2.52 9-11.65zm-2.08 7.13l-3.41 4.2 5.31-.98-1.9-3.22zM44.01 129.12l-12.97 4.32-.85-2.55 6.9-8.19-8.66 2.88-.81-2.43 12.97-4.32.87 2.63-6.72 8.04 8.46-2.82.81 2.44zM39.66 113l-11.27 1.42.51 4.03-2.29.29-1.36-10.78 2.29-.29.51 4.02 11.27-1.42.34 2.73zM38.79 104.55l-13.65-.8.59-10.12 2.31.14-.43 7.36 3.03.18.4-6.85 2.3.13-.4 6.85 3.71.22.45-7.63 2.3.13-.61 10.39zM39.79 91.96l-13.24-3.43 2.54-9.81 2.24.58-1.85 7.14 2.93.76 1.72-6.64 2.23.58-1.72 6.65 3.6.93 1.91-7.39 2.23.58-2.59 10.05zM45.68 74.66l-2.32-1.21 1.21-2.32 2.32 1.21-1.21 2.32zM51.51 57.11l-1.73-1.52 3.93-4.47 4.09 3.59c.04.8-.14 1.76-.55 2.86-.4 1.11-.98 2.08-1.72 2.93-.94 1.07-1.99 1.81-3.14 2.22-1.15.4-2.32.44-3.52.1s-2.28-.93-3.27-1.8c-1.07-.94-1.82-2-2.26-3.18-.44-1.18-.5-2.4-.18-3.65.24-.96.79-1.93 1.65-2.91 1.12-1.28 2.26-2.04 3.43-2.28 1.16-.25 2.31-.06 3.43.56l-1.42 2.4c-.63-.3-1.27-.38-1.91-.23-.64.14-1.23.51-1.75 1.11-.8.91-1.14 1.88-1.04 2.92s.72 2.06 1.85 3.05c1.22 1.07 2.37 1.6 3.46 1.6 1.09-.01 2.01-.45 2.79-1.33.38-.43.68-.95.89-1.53.21-.59.34-1.14.37-1.67l-1.3-1.14-2.1 2.37zM52.9 43.41l2.22-1.63 4.39 5.97c.7.95 1.17 1.54 1.44 1.78.43.38.92.58 1.48.59.56.01 1.15-.21 1.77-.67.63-.46 1.01-.94 1.14-1.44s.09-.95-.12-1.38c-.21-.42-.64-1.07-1.28-1.94l-4.48-6.09 2.22-1.63 4.25 5.79c.97 1.32 1.6 2.3 1.88 2.94s.4 1.26.35 1.87c-.05.61-.26 1.23-.64 1.85-.38.62-1 1.25-1.87 1.89-1.05.77-1.94 1.24-2.66 1.4s-1.38.16-1.98 0c-.6-.16-1.11-.41-1.52-.76-.61-.52-1.37-1.4-2.27-2.63l-4.32-5.91zM83.41 41.49l-2.74 1.23-2.36-2.34-4.98 2.25.25 3.3-2.67 1.2-.76-14.65 2.66-1.2 10.6 10.21zm-6.85-2.84l-3.8-3.85.4 5.38 3.4-1.53zM110.66 37.95l-3 .14-1.34-3.04-5.46.26-.98 3.16-2.93.14 4.67-13.91 2.92-.14 6.12 13.39zm-5.33-5.16l-2.12-4.98-1.6 5.16 3.72-.18zM84.73 41.2l-2.88-13.37 5.68-1.22c1.43-.31 2.49-.41 3.19-.31.7.1 1.31.42 1.83.95s.87 1.19 1.04 1.98c.22 1 .1 1.89-.35 2.67-.45.78-1.24 1.38-2.38 1.8.66.21 1.22.48 1.69.81.47.33 1.14.94 2 1.84l2.19 2.26-3.23.69-2.58-2.49c-.92-.89-1.53-1.44-1.85-1.66-.31-.22-.62-.34-.93-.38-.31-.04-.77.01-1.39.14l-.55.12 1.2 5.58-2.68.59zm1.04-8.29l2-.43c1.29-.28 2.09-.51 2.39-.69.3-.18.51-.42.64-.73s.14-.66.06-1.06c-.1-.45-.29-.79-.59-1.01s-.68-.33-1.13-.31c-.23.02-.89.14-1.98.38l-2.11.45.72 3.4zM110.78 38.73l2.59-13.42 2.64.51 3.77 10.02 1.73-8.97 2.52.49-2.59 13.43-2.72-.52-3.72-9.8-1.69 8.75-2.53-.49zM126.96 42.84l4.28-10.52-3.76-1.53.87-2.14 10.06 4.09-.87 2.14-3.75-1.52-4.28 10.52-2.55-1.04zM134.76 46.23l7.42-11.48 8.52 5.5-1.25 1.94-6.2-4-1.64 2.55 5.77 3.72-1.25 1.94-5.77-3.72-2.02 3.13 6.42 4.14-1.25 1.94-8.75-5.66zM145.22 53.3l9.49-9.84 7.3 7.04-1.61 1.67-5.31-5.12-2.1 2.18 4.94 4.76-1.6 1.66-4.94-4.76-2.58 2.68 5.5 5.3-1.6 1.66-7.49-7.23zM157.4 66.9l2.19-1.44 1.44 2.19-2.19 1.44-1.44-2.19zM169.85 80.57l2.17-.76 1.97 5.61-5.14 1.81c-.72-.36-1.46-.99-2.23-1.88-.77-.89-1.33-1.87-1.71-2.93-.47-1.35-.6-2.62-.39-3.83.21-1.2.76-2.24 1.63-3.11.88-.87 1.93-1.53 3.17-1.96 1.34-.47 2.64-.61 3.88-.41 1.24.2 2.33.74 3.27 1.63.72.68 1.29 1.63 1.73 2.86.56 1.6.67 2.97.31 4.11-.36 1.14-1.08 2.04-2.17 2.72l-1.39-2.42c.57-.4.95-.92 1.14-1.55s.15-1.32-.11-2.07c-.4-1.14-1.08-1.92-2.04-2.33-.96-.42-2.15-.38-3.57.12-1.53.54-2.56 1.28-3.09 2.23-.53.95-.6 1.98-.21 3.08.19.55.49 1.05.9 1.53.41.47.83.85 1.27 1.14l1.64-.58-1.03-3.01zM181.11 88.55l.33 2.74-7.35.88c-1.17.14-1.92.26-2.26.37-.54.18-.96.52-1.24 1s-.38 1.1-.29 1.87c.09.78.32 1.35.69 1.7s.78.55 1.26.57c.47.02 1.25-.03 2.32-.16l7.51-.9.33 2.74-7.13.85c-1.63.19-2.79.26-3.48.19s-1.29-.27-1.8-.62c-.51-.34-.94-.83-1.3-1.46-.35-.63-.6-1.49-.72-2.56-.16-1.3-.12-2.3.1-3 .22-.71.54-1.28.98-1.73s.9-.76 1.41-.95c.76-.27 1.89-.5 3.41-.68l7.23-.85zM167.78 116.07l.27-2.99 3.2-.91.49-5.45-2.99-1.4.26-2.92 13.14 6.52-.26 2.91-14.11 4.24zm5.84-4.59l5.22-1.42-4.89-2.29-.33 3.71zM167.39 117.34l13.06 4.04-1.71 5.55c-.43 1.4-.86 2.38-1.29 2.93-.43.56-1 .94-1.72 1.13-.72.19-1.46.17-2.23-.07-.98-.3-1.7-.84-2.16-1.61-.46-.77-.6-1.76-.41-2.96-.51.47-1.02.83-1.53 1.07s-1.37.53-2.58.85l-3.04.81.97-3.15 3.43-1.03c1.22-.36 2.01-.63 2.35-.8.34-.17.6-.38.79-.63.18-.25.37-.68.56-1.28l.17-.53-5.45-1.68.79-2.64zm6.73 4.97l-.6 1.95c-.39 1.27-.58 2.07-.57 2.42.01.35.12.65.32.91.21.26.51.45.9.57.44.14.83.13 1.17-.02.34-.15.62-.43.82-.84.1-.2.31-.84.64-1.91l.64-2.06-3.32-1.02zM157.07 141.04l1.47-2.62 3.29.48 2.67-4.77-2.16-2.5 1.43-2.55 9.32 11.33-1.43 2.55-14.59-1.92zm7.21-1.79l5.35.84-3.53-4.09-1.82 3.25zM156.18 142.06l10.28 9.02-1.77 2.02-10.55-1.82 6.86 6.02-1.69 1.93-10.28-9.02 1.83-2.08 10.34 1.74-6.7-5.88 1.68-1.93zM144.46 153.97l6.94 8.99 3.21-2.48 1.41 1.83-8.6 6.64-1.41-1.83 3.21-2.47-6.94-8.99 2.18-1.69zM137.61 159l6.2 12.19-9.04 4.6-1.05-2.06 6.58-3.35-1.38-2.7-6.12 3.11-1.04-2.05 6.12-3.11-1.69-3.32-6.81 3.46-1.04-2.05 9.27-4.72zM126.23 164.5l3.71 13.16-9.76 2.75-.63-2.23 7.1-2-.82-2.92-6.61 1.86-.63-2.22 6.61-1.86-1.01-3.58-7.35 2.07-.63-2.22 10.02-2.81zM108.35 168.13l.13 2.62-2.62.13-.13-2.62 2.62-.13z"/><path d="M69.79 104.62v-38.4h8.89L97.2 91.86V66.21h8.49v38.4h-9.17L78.28 79.57v25.04h-8.49zM108.82 85.65c0-3.91.49-7.2 1.48-9.85.74-1.96 1.75-3.71 3.02-5.27s2.68-2.71 4.2-3.46c2.02-1.01 4.36-1.52 7-1.52 4.78 0 8.61 1.76 11.48 5.27s4.31 8.39 4.31 14.64c0 6.2-1.42 11.05-4.27 14.55-2.85 3.5-6.66 5.25-11.43 5.25-4.83 0-8.67-1.74-11.52-5.23s-4.27-8.27-4.27-14.38zm7.37-.23c0 7.96 2.75 12.77 8.37 12.77 5.38 0 8.13-4.56 8.13-12.77 0-9.29-2.75-12.41-8.13-12.41-5.62 0-8.37 3.74-8.37 12.41zM70.02 134.83v-26.71h10.62c2.67 0 4.61.24 5.82.72s2.18 1.33 2.91 2.56 1.09 2.63 1.09 4.21c0 2-.55 3.66-1.65 4.96-1.1 1.31-2.75 2.13-4.94 2.47 1.09.68 1.99 1.43 2.7 2.24.71.81 1.67 2.26 2.87 4.34l3.05 5.21h-6.04l-3.65-5.81c-1.3-2.08-2.18-3.39-2.66-3.93s-.98-.91-1.52-1.11-1.38-.3-2.54-.3h-1.02v11.15h-5.04zm5.05-15.41h3.73c2.42 0 3.93-.11 4.54-.33.6-.22 1.07-.6 1.42-1.13.34-.53.51-1.2.51-2 0-.9-.22-1.62-.67-2.18-.45-.55-1.08-.9-1.9-1.05-.41-.06-1.64-.09-3.68-.09h-3.94v6.78zM93.57 134.83v-26.71h5.05v26.71h-5.05zM99.64 126.14l4.91-.51c.3 1.76.9 3.05 1.8 3.88.9.83 2.12 1.24 3.66 1.24 1.63 0 2.85-.37 3.67-1.1s1.24-1.59 1.24-2.58c0-.63-.17-1.17-.52-1.61-.35-.44-.95-.83-1.82-1.16-.59-.22-1.94-.61-4.04-1.17-2.71-.72-4.6-1.6-5.69-2.64-1.53-1.47-2.3-3.26-2.3-5.37 0-1.36.36-2.63 1.08-3.82.72-1.18 1.76-2.09 3.12-2.71 1.36-.62 3-.93 4.92-.93 3.14 0 5.5.73 7.08 2.2 1.59 1.47 2.42 3.43 2.5 5.88l-5.05.24c-.22-1.37-.68-2.36-1.39-2.96s-1.78-.9-3.2-.9c-1.47 0-2.61.32-3.44.97-.53.41-.8.97-.8 1.66 0 .63.25 1.17.75 1.62.64.57 2.18 1.17 4.64 1.79 2.46.62 4.27 1.26 5.45 1.92 1.18.66 2.1 1.57 2.76 2.71.66 1.15 1 2.57 1 4.25 0 1.53-.4 2.96-1.19 4.3-.8 1.34-1.92 2.33-3.38 2.98-1.45.65-3.27.97-5.44.97-3.16 0-5.59-.78-7.28-2.34-1.7-1.55-2.71-3.82-3.04-6.81zM122.28 134.83v-26.71h5.05v11.86l10.2-11.86h6.79l-9.41 10.4 9.92 16.3h-6.53l-6.87-12.53-4.09 4.46v8.07h-5.06z"/><path opacity=".15" fill="#FFF" d="M69.46 150.07c15.15-36.14 44.56-65.29 80.88-80.09-10.47-14.34-27.4-23.67-46.52-23.67-31.79 0-57.57 25.77-57.57 57.57-.01 18.91 9.12 35.7 23.21 46.19z"/></svg>