<?xml version="1.0" encoding="utf-8"?>
<!-- Generator: Adobe Illustrator 22.0.1, SVG Export Plug-In . SVG Version: 6.00 Build 0)  -->
<svg version="1.1" id="Layer_1" xmlns="http://www.w3.org/2000/svg" xmlns:xlink="http://www.w3.org/1999/xlink" x="0px" y="0px"
	 viewBox="0 0 101.25 86.33" enable-background="new 0 0 101.25 86.33" xml:space="preserve">
<path fill="#231F20" d="M9.97,3.05L5.69,4.43l0.52,2.98L5.83,6.65L4.29,5.33L4.22,5.19L0,6.69l2.39,16.27l0.07-0.02l1.58,1.36
	l4-1.24l-0.69-4.88l1.38,2.61l0.06-0.03l1.59,1.37l3.95-1.75L11.55,4.52L9.99,3.18L9.97,3.05z M21.43,10.48
	c-0.37,0.86-0.91,1.41-1.62,1.64c-0.3,0.1-0.6,0.14-0.88,0.12c-0.14-0.37-0.24-0.79-0.28-1.28c-0.09-1.04,0.05-1.99,0.43-2.86
	c0.19-0.46,0.43-0.84,0.72-1.12c0.29-0.28,0.6-0.49,0.96-0.6c0.26-0.08,0.51-0.11,0.75-0.09c0.09,0.19,0.15,0.4,0.21,0.62
	c0.05,0.22,0.09,0.46,0.11,0.72C21.95,8.66,21.82,9.6,21.43,10.48 M23.93,1.75c-0.09-0.09-0.18-0.18-0.26-0.27
	c-0.08-0.09-0.17-0.17-0.27-0.26c-1.37-1.21-2.96-1.52-4.76-0.94c-0.9,0.29-1.7,0.77-2.41,1.43c-0.71,0.66-1.32,1.51-1.83,2.55
	c-0.54,1.04-0.91,2.1-1.1,3.19c-0.19,1.09-0.23,2.21-0.11,3.39c0.11,1.18,0.38,2.2,0.79,3.07c0.41,0.87,0.96,1.61,1.64,2.23
	c0.09,0.08,0.18,0.16,0.28,0.23c0.09,0.07,0.19,0.13,0.29,0.2l1.09,0.92c0.69,0.59,1.43,0.96,2.22,1.11
	c0.78,0.16,1.63,0.09,2.53-0.21c1.77-0.57,3.17-1.9,4.22-3.98c1.02-2,1.41-4.17,1.18-6.49c-0.25-2.31-1.05-4.07-2.42-5.26
	L23.93,1.75z"/>
<path fill="#231F20" d="M12.88,59.58l-4.28,1.38l0.52,2.98l-0.38-0.76l-1.54-1.32l-0.07-0.15L2.9,63.22L5.29,79.5l0.07-0.02
	l1.58,1.36l4-1.24l-0.69-4.88l1.38,2.61l0.06-0.03l1.59,1.37l3.95-1.75l-2.76-15.87l-1.56-1.35L12.88,59.58z M24.33,67.01
	c-0.37,0.86-0.91,1.41-1.62,1.64c-0.3,0.1-0.6,0.14-0.88,0.12c-0.14-0.37-0.24-0.79-0.28-1.28c-0.09-1.04,0.05-1.99,0.43-2.86
	c0.19-0.46,0.43-0.83,0.72-1.12c0.29-0.28,0.6-0.49,0.96-0.6c0.26-0.08,0.51-0.11,0.75-0.09c0.09,0.19,0.15,0.4,0.21,0.62
	c0.05,0.22,0.09,0.46,0.11,0.72C24.85,65.19,24.72,66.13,24.33,67.01 M26.84,58.28c-0.09-0.09-0.18-0.18-0.26-0.27
	c-0.08-0.09-0.17-0.17-0.27-0.26c-1.37-1.21-2.96-1.52-4.76-0.94c-0.9,0.29-1.7,0.77-2.41,1.43s-1.32,1.51-1.83,2.55
	c-0.54,1.04-0.91,2.1-1.1,3.19c-0.19,1.09-0.23,2.22-0.11,3.39c0.11,1.17,0.38,2.2,0.79,3.07c0.41,0.87,0.96,1.61,1.64,2.23
	c0.09,0.08,0.18,0.16,0.28,0.23c0.09,0.07,0.19,0.13,0.29,0.2l1.09,0.92c0.69,0.59,1.43,0.96,2.22,1.11
	c0.78,0.16,1.63,0.09,2.53-0.21c1.77-0.57,3.17-1.9,4.22-3.98c1.02-2,1.41-4.17,1.18-6.49c-0.25-2.31-1.05-4.06-2.42-5.25
	L26.84,58.28z"/>
<path fill="#231F20" d="M10.73,35.31c0.41-0.08,0.8-0.13,1.17-0.16c0.38-0.03,0.72-0.03,1.02-0.01c-0.08,0.82-0.69,1.71-1.81,2.66
	c-0.04,0.05-0.07,0.09-0.11,0.12s-0.07,0.06-0.08,0.09L10.73,35.31z M23.3,42.83c-0.7,0.35-1.28,0.62-1.76,0.83
	c-0.47,0.21-0.81,0.34-1.02,0.41l-0.29,0.1c2.87-3.08,4.15-6.26,3.82-9.56c-0.11-1.04-0.36-1.97-0.75-2.79s-0.93-1.51-1.6-2.09
	l-0.01-0.04l-2.1-1.77c-1.36-1.65-3.58-2.6-6.66-2.86c-1.48-0.15-3.18-0.09-5.1,0.16c-1.92,0.25-4.1,0.7-6.52,1.34l1.88,30.03
	l0.13-0.04l2.82,2.38l6.7-2l-0.35-5.11l0.01,0.02c0,0.01,0.02,0.01,0.04,0.01l2.26,1.96c0.9,0.74,2.27,1.12,4.09,1.12
	c1.82,0,4.14-0.36,6.95-1.09l0.21-8.39l-2.76-2.39L23.3,42.83z M24.31,18.94l1.91,29.69l0.18-0.06l2.78,2.39l6.89-1.34l-1.72-29.65
	l-2.82-2.39l0-0.2L24.31,18.94z M54.83,12.06l-2.79-2.41l-0.02-0.19c-4.7,1.91-8.28,3.81-10.74,5.7l-0.01,0.02
	c-2.32,1.71-3.99,3.48-5.01,5.31c-1.02,1.83-1.43,3.7-1.22,5.62c0.11,1.25,0.42,2.35,0.92,3.27l-0.04,0.01
	c0.52,1.03,1.19,1.79,2.02,2.28l2.23,1.89c0.5,0.42,1.07,0.74,1.7,0.94c0.63,0.21,1.35,0.29,2.15,0.26c0.15,0,0.35-0.01,0.59-0.05
	c0.24-0.04,0.53-0.09,0.86-0.14c-0.18,0.07-0.38,0.15-0.59,0.25c-0.21,0.1-0.44,0.19-0.67,0.3c-0.99,0.43-1.8,0.77-2.4,1.01
	c-0.61,0.24-1.06,0.41-1.35,0.51c-0.13,0.04-0.28,0.09-0.44,0.14c-0.16,0.05-0.35,0.1-0.58,0.15l-0.84,0.27
	c-0.21,0.07-0.4,0.13-0.58,0.18c-0.18,0.05-0.28,0.08-0.3,0.09l1.55,8.19l0.16-0.05l2.82,2.39c4.3-1.58,7.85-3.38,10.65-5.37
	c4.82-3.43,7.02-7.08,6.6-10.96c-0.11-1.23-0.43-2.31-0.96-3.26c-0.34-0.58-0.71-1.05-1.11-1.42l-2.2-1.86
	c-0.53-0.69-1.18-1.18-1.94-1.46c-0.76-0.28-1.65-0.4-2.67-0.35l-0.01-0.02c-0.07,0-0.18,0.01-0.32,0.03s-0.32,0.06-0.51,0.09
	c0.81-0.37,1.69-0.74,2.64-1.11c0.95-0.37,1.96-0.74,3.04-1.12L54.83,12.06z M74.74,2.86l-7.66,1.53l-1.89,5.66l-0.11-0.64
	l-2.74-2.38L62.29,6.8l-6.37,3.33l5.36,28.39l0.1-0.05l2.83,2.41l6.12-2.85l-1.43-8.14l7.6,5.65l5.67-7.35l-2.77-2.41l0.02-0.07
	l-7.46-4.46l5.47-15.8l-2.78-2.39L74.74,2.86z"/>
<path fill="#231F20" d="M33.69,53.85l1.57,30.14l0.15-0.05l2.78,2.39l6.87-2.05l-0.59-10.98l6.97-1.73l-0.38-8.41l-2.07-1.82
	l5.98-1.47l-0.32-8.08l-2.8-2.38l0-0.2L33.69,53.85z M64.15,58.32c-0.3-1.58-0.55-3.29-0.76-5.14c-0.03-0.24-0.05-0.58-0.08-0.99
	c-0.03-0.42-0.06-0.85-0.09-1.3c-0.03-0.45-0.06-0.88-0.09-1.29c-0.03-0.41-0.06-0.72-0.07-0.94l-2.79-2.41l-0.02-0.19l-7.58,3.22
	c0.48,3.43,1.06,6.54,1.75,9.31c0.68,2.77,1.49,5.22,2.41,7.36c1.55,3.61,3.27,6.02,5.15,7.25l2.09,1.77
	c0.88,0.75,1.79,1.23,2.74,1.43c0.95,0.2,1.94,0.14,2.96-0.19c0.7-0.23,1.36-0.55,1.98-0.96c0.63-0.42,1.23-0.93,1.82-1.53
	c1.73-1.89,2.92-4.52,3.55-7.88c0.63-3.36,0.7-7.46,0.2-12.32c-0.17-1.66-0.43-3.39-0.76-5.21s-0.74-3.73-1.22-5.76l-2.73-2.35
	l-0.08-0.25l-6.92,3.87c0.67,2.28,1.21,4.4,1.61,6.37c0.4,1.96,0.68,3.79,0.84,5.48c0.59,5.46-0.1,8.51-2.07,9.15l-0.05,0.02
	c-0.13-0.3-0.25-0.64-0.38-0.99c-0.13-0.36-0.26-0.75-0.4-1.17C64.78,61.35,64.45,59.89,64.15,58.32 M93.58,34.41l-7.57,2.44
	l0.92,5.27l-0.68-1.34l-2.72-2.33l-0.13-0.26l-7.46,2.66l4.22,28.76l0.13-0.04l2.79,2.41l7.06-2.19l-1.22-8.62l2.43,4.62l0.1-0.05
	l2.81,2.42l6.97-3.08l-4.88-28.04l-2.76-2.38L93.58,34.41z"/>
<path fill="#FFFFFF" d="M11.9,18.39l-2.86,1.26l-4.98-9.43l1.56,10.75l-2.67,0.82L0.84,7.34l3.02-1.08l4.43,8.68L6.58,5.07l2.84-0.9
	L11.9,18.39z M21.42,4.61c-0.67-0.66-1.45-0.84-2.36-0.54c-0.93,0.3-1.64,1.03-2.14,2.2c-0.49,1.09-0.68,2.25-0.55,3.48
	c0.12,1.22,0.51,2.15,1.17,2.78c0.66,0.64,1.45,0.8,2.39,0.5c0.94-0.31,1.65-1.03,2.14-2.19c0.47-1.09,0.64-2.24,0.51-3.47
	C22.45,6.16,22.06,5.25,21.42,4.61 M24.09,12.55c-0.92,1.84-2.18,3.02-3.78,3.54c-1.59,0.52-3,0.25-4.24-0.8
	c-1.24-1.05-1.96-2.62-2.16-4.71c-0.23-2.09,0.12-4.05,1.05-5.87c0.93-1.83,2.19-3,3.77-3.52c1.6-0.52,3.01-0.24,4.24,0.82
	c1.23,1.06,1.95,2.63,2.15,4.71C25.33,8.82,24.99,10.76,24.09,12.55"/>
<path fill="#FFFFFF" d="M14.8,74.92l-2.86,1.26l-4.98-9.43L8.52,77.5l-2.67,0.82L3.74,63.86l3.02-1.08l4.43,8.68l-1.72-9.86
	l2.84-0.9L14.8,74.92z M24.32,61.14c-0.67-0.66-1.45-0.84-2.36-0.54c-0.93,0.3-1.64,1.03-2.14,2.2c-0.49,1.09-0.68,2.25-0.55,3.48
	c0.12,1.22,0.51,2.15,1.17,2.78c0.66,0.64,1.45,0.8,2.39,0.5c0.94-0.31,1.65-1.03,2.14-2.19c0.47-1.08,0.64-2.24,0.51-3.47
	C25.35,62.69,24.96,61.77,24.32,61.14 M26.99,69.08c-0.92,1.84-2.18,3.02-3.78,3.54c-1.59,0.52-3,0.25-4.24-0.8
	c-1.24-1.05-1.96-2.62-2.16-4.71c-0.23-2.09,0.12-4.05,1.05-5.87c0.93-1.83,2.19-3,3.77-3.52c1.6-0.52,3.01-0.25,4.24,0.82
	c1.23,1.06,1.95,2.63,2.15,4.71C28.23,65.35,27.89,67.29,26.99,69.08"/>
<path fill="#FFFFFF" d="M11.09,31.06c-1.27-0.17-2.79-0.03-4.56,0.42l0.71,10.36c1.78-0.75,3.27-1.65,4.47-2.69
	c1.88-1.61,2.73-3.28,2.56-5.02C14.09,32.36,13.03,31.34,11.09,31.06 M21.79,50.03c-4.54,1.18-7.58,1.13-9.12-0.15
	c-0.85-0.65-1.66-2.05-2.45-4.17c-0.59,0.38-1.24,0.75-1.95,1.11l0.41,6.37l-4.31,1.3L2.69,27.83c3.78-0.96,7.12-1.33,10.03-1.1
	c4.48,0.38,6.9,2.31,7.25,5.79c0.33,3.35-1.48,6.69-5.45,10.03c0.61,1.86,1.4,3,2.39,3.42c0.86,0.36,2.13,0.26,3.82-0.28
	c0.18-0.06,0.38-0.13,0.58-0.22c0.2-0.09,0.41-0.18,0.64-0.28L21.79,50.03z M30.36,19.28l1.54,26.48l-4.53,0.89l-1.64-26.36
	L30.36,19.28z M49.58,38.75c-2.74,1.94-5.85,3.55-9.32,4.82l-0.94-4.96c0.54-0.13,0.97-0.25,1.3-0.36c0.6-0.19,1.89-0.72,3.89-1.56
	c1.72-0.73,2.99-1.4,3.81-2c1.66-1.15,2.42-2.43,2.28-3.83c-0.05-0.46-0.25-0.88-0.59-1.25c-0.46-0.58-1.64-0.62-3.56-0.1
	c-2.72,0.72-4.45,1.11-5.2,1.15c-1.97,0.07-3.37-0.68-4.17-2.25c-0.42-0.78-0.68-1.69-0.79-2.74c-0.31-3.08,1.53-6.1,5.51-9.08
	c1.23-0.93,2.61-1.81,4.11-2.64c1.51-0.83,3.16-1.62,4.97-2.36l0.42,5.97c-2.18,0.73-4.19,1.57-6.03,2.5
	c-3.08,1.61-4.56,3.09-4.43,4.43c0.04,0.48,0.24,0.94,0.61,1.38c0.55,0.7,1.8,0.81,3.75,0.34c3.13-0.8,4.88-1.21,5.27-1.23
	c2.01-0.16,3.42,0.49,4.22,1.96c0.38,0.75,0.63,1.63,0.75,2.63C55.76,32.65,53.81,35.71,49.58,38.75 M77.23,26.25l-3.68,4.81
	l-9.4-6.98l1.89,10.48l-3.8,1.75l-4.77-25.28l3.87-2.06l1.99,10.63l4.63-13.72l4.69-0.95l-5.33,15.38L77.23,26.25z"/>
<path fill="#FFFFFF" d="M50.66,51.15l0.14,4.92l-9.87,2.45l0.19,5.26l5.93-1.33l0.23,5.31L40.3,69.5l0.59,11.04l-4.44,1.34
	l-1.44-26.75L50.66,51.15z M70.04,69.97c-0.98,1.05-2.08,1.77-3.3,2.17c-3.31,1.07-6.22-1.32-8.74-7.2
	c-1.79-4.17-3.08-9.03-3.87-14.58l5.01-2.15c0.02,0.46,0.04,0.92,0.09,1.39c0.04,0.47,0.09,0.94,0.14,1.43
	c0.38,3.84,0.99,7.13,1.81,9.87c1.37,4.33,3.04,6.17,5.02,5.53c2.77-0.9,3.82-4.64,3.14-11.22c-0.37-3.6-1.05-7.15-2.02-10.64
	l4.39-2.44c0.36,1.45,0.68,2.94,0.95,4.47c0.27,1.53,0.48,3.12,0.64,4.77C74.22,60.44,73.14,66.64,70.04,69.97 M96.98,61.54
	l-5.05,2.22L83.13,47.1l2.75,19l-4.71,1.45l-3.74-25.54l5.33-1.91l7.84,15.33L87.57,38l5.01-1.59L96.98,61.54z"/>
</svg>
