<?xml version="1.0" encoding="utf-8"?>
<!-- Generator: Adobe Illustrator 22.0.1, SVG Export Plug-In . SVG Version: 6.00 Build 0)  -->
<svg version="1.1"
	 id="svg2" xmlns:cc="http://creativecommons.org/ns#" xmlns:dc="http://purl.org/dc/elements/1.1/" xmlns:rdf="http://www.w3.org/1999/02/22-rdf-syntax-ns#" xmlns:svg="http://www.w3.org/2000/svg"
	 xmlns="http://www.w3.org/2000/svg" xmlns:xlink="http://www.w3.org/1999/xlink" x="0px" y="0px" viewBox="0 0 697.63 697.63"
	 enable-background="new 0 0 697.63 697.63" xml:space="preserve">
<path id="path1308_1_" fill="#FFFFFF" d="M672.63,348.81c0,178.84-144.98,323.81-323.81,323.81S25,527.65,25,348.81l0,0
	C25,169.98,169.98,25,348.81,25S672.63,169.98,672.63,348.81z"/>
<g>
	<path d="M101.43,180.21l62.5,8.18c36.81,4.82,64.47,27.9,56.39,89.66c-7.81,59.7-41.35,81.44-78.15,76.63l-23.27-3.04l-12.23,93.48
		l-39.23-5.13L101.43,180.21z M145.08,307.63c20.64,2.7,33.45-9.07,36.8-34.62c3.36-25.69-6.6-35.72-27.24-38.42l-20.07-2.63
		L125.01,305L145.08,307.63z M137.02,338.26l32.05-34.03l36.21,153.79l-43.9-5.75L137.02,338.26z"/>
	<path d="M264.68,201.58l39.23,5.13l-34,259.77l-39.24-5.13L264.68,201.58z"/>
	<path d="M303.96,437.6l27.8-37.34c10.24,17.69,24.8,30.85,39.08,32.72c16.38,2.14,25.65-6.46,27.67-21.88
		c2.14-16.35-7.04-22.9-20.98-34.21l-20.67-17.35c-16.55-13.3-30.69-37.64-25.76-75.39c5.63-43.05,35.82-74.06,71.94-69.33
		c19.99,2.62,39.34,17.14,51.37,41.35l-24.65,34.42c-9.72-14.62-19.64-23.26-33.36-25.06c-13.53-1.77-23.24,5.54-25.19,20.39
		c-2.09,15.93,8.51,23.21,22.48,34.22l20.36,16.3c19.51,15.6,29.98,38.46,25.18,75.17c-5.65,43.14-34.57,77.37-75.92,71.96
		C340.75,480.61,318.43,464.67,303.96,437.6z"/>
	<path d="M492.81,231.43l39.23,5.13L518.15,342.7l0.97,0.13l65.62-99.36l43.12,5.64l-66.07,96.81l41.72,164.22l-43.03-5.63
		l-27.82-115.27l-25.51,37.47l-9.11,69.62l-39.23-5.13L492.81,231.43z"/>
</g>
<path fill="#D40000" d="M670.21,213.03c-17.57-41.54-42.72-78.84-74.74-110.87c-32.03-32.03-69.33-57.17-110.87-74.74
	C441.58,9.23,395.89,0,348.81,0s-92.76,9.23-135.78,27.42c-41.54,17.57-78.84,42.72-110.87,74.74
	c-32.03,32.03-57.17,69.33-74.74,110.87C9.23,256.05,0,301.74,0,348.81c0,47.08,9.23,92.76,27.42,135.78
	c17.57,41.54,42.72,78.84,74.74,110.87c32.03,32.03,69.33,57.17,110.87,74.74c43.02,18.2,88.7,27.42,135.78,27.42
	s92.76-9.23,135.78-27.42c41.54-17.57,78.84-42.72,110.87-74.74s57.17-69.33,74.74-110.87c18.2-43.02,27.42-88.7,27.42-135.78
	C697.63,301.74,688.4,256.05,670.21,213.03z M348.81,647.63C184.05,647.63,50,513.58,50,348.81c0-70.33,24.44-135.06,65.25-186.16
	l418.38,420.8C482.74,623.62,418.53,647.63,348.81,647.63z M570.19,549.31L149.61,126.29C202.51,78.88,272.35,50,348.81,50
	c164.77,0,298.81,134.05,298.81,298.81C647.63,425.9,618.29,496.25,570.19,549.31z"/>
</svg>
