<?xml version="1.0" encoding="utf-8"?>
<!-- Generator: Adobe Illustrator 22.0.1, SVG Export Plug-In . SVG Version: 6.00 Build 0)  -->
<svg version="1.1" id="Layer_1" xmlns="http://www.w3.org/2000/svg" xmlns:xlink="http://www.w3.org/1999/xlink" x="0px" y="0px"
	 viewBox="0 0 584.49 541.22" enable-background="new 0 0 584.49 541.22" xml:space="preserve">
<path d="M580.43,498.08c-6.14-7.42-12.44-14.84-19.54-21.31c-17.85-16.27-36.14-32.06-54.39-47.87c-2.99-2.59-3.68-4.62-1.05-7.76
	c9.74-11.6,19.59-23.1,29-34.97c8.97-11.32,17.58-22.95,26.08-34.63c5.23-7.18,2.14-13.6-5.99-15.35
	c-10.36-2.23-20.87-3.76-31.34-5.48c-12.09-1.99-24.28-3.5-36.27-6.01c-3.9-0.82-5.85-0.65-7.31,3.01
	c-3.27,8.19-6.53,16.38-10.02,24.48c-1.86,4.31-4.2,8.41-6.32,12.61c-0.39-0.16-0.78-0.32-1.17-0.48c0.5-4.43,1.09-8.84,1.49-13.28
	c1.55-16.87,3.77-33.72,4.2-50.62c0.18-7.11-3.27-14.39-5.58-21.43c-0.49-1.49-3.06-2.82-4.89-3.22c-3.39-0.73-6.93-0.81-10.42-0.99
	c-14.29-0.75-28.63-0.98-42.86-2.36c-5.58-0.54-7.1,1.34-7.5,6.01c-1,11.75-2.27,23.49-2.96,35.26
	c-0.68,11.63-0.82,23.29-1.09,34.94c-0.09,3.71-1.16,5.49-5.06,3.5c-0.88-0.45-1.88-0.66-2.82-0.98
	c-22.06-7.5-44.62-10.55-67.84-7.46c-14.38,1.91-27.72,6.7-39.97,15.48c0.84-3.91,2.08-7.25,2.21-10.63
	c0.67-17.88-8.57-30.03-23.6-38c-14.08-7.46-27.85-7.11-40.1,4.34c-1.99,1.86-2.77,1.63-3.57-0.97
	c-7.37-23.7-24.03-38.95-45.47-49.82c-0.79-0.4-1.55-0.86-2.52-1.4c5.42-0.53,10.49-0.53,15.32-1.6c11.67-2.6,10.35-1.53,9.75-12.88
	c-1.32-24.75-2.68-49.5-3.99-74.26c-0.08-1.49,0.14-3,0.22-4.5c1.56,0.96,2.19,1.92,2.71,2.94c9.19,18.3,17.95,36.76,23.9,56.46
	c2.3,7.61,5.37,15.03,8.54,22.34c4.28,9.86,11.66,14.6,22.85,14.12c23.11-0.98,46.26-1.3,69.38-1.97c6.28-0.18,8.64-2.13,9.67-8.3
	c0.68-4.08,0.85-8.27,1.03-12.42c0.13-2.98,0.85-3.57,3.48-1.76c4.39,3.01,8.72,6.26,13.51,8.47
	c37.58,17.38,75.14,16.54,112.17-1.48c17.99-8.76,29.44-23.38,34.96-42.76c4.03-14.13,4.98-28.5,3.76-42.97
	c-1.48-17.5-6.32-33.91-17.17-48.24c-16.81-22.19-38.62-36.46-65.95-41.7c-7.72-1.48-16.34-3.19-23.58-1.23
	c-17.45,4.73-33.24,13.59-46.92,25.69c-2.92,2.58-5.29,5.8-7.91,8.72c-1.19-5.99-1.52-11.11-1.14-16.18
	c1.96-26.1,2.97-52.18-0.38-78.26c-1.02-7.94-3.54-10.04-11.46-8.74C300.77,4.77,285.33,1.92,269.84,0c-7,0-14,0-21,0
	c-2,1.41-5.31,0.68-5.26,5.14c0.14,13.8-0.32,27.61-0.73,41.42c-0.52,17.44-1.22,34.87-1.89,53.68c-1.08-1.8-1.45-2.3-1.71-2.86
	c-12.85-27.2-25.65-54.43-38.57-81.6c-4.57-9.61-12.4-14.76-23.03-14.83c-15.98-0.11-32-0.33-47.94,0.6
	c-7.64,0.44-15.16,3.27-22.67,5.27c-3.49,0.93-4.63,3.59-4.66,7.25c-0.18,19.81-0.8,39.63-0.85,59.44
	c-0.12,47.33-0.12,94.66,0.1,141.98c0.04,9.46,1.21,18.91,1.91,28.36c0.26,3.49-0.82,5.05-4.74,5.06
	c-10.65,0.03-21.37-0.13-31.93,1.01c-12.51,1.35-24.94,3.73-37.31,6.13c-8.53,1.66-13.39,7.68-15.73,15.76
	c-1.01,3.5-1.97,7.1-2.25,10.71c-1.45,18.73-2.82,37.47-3.95,56.22c-1.38,22.75-2.63,45.51-3.69,68.28
	c-1.41,30.58-2.64,61.16-3.82,91.75c-0.28,7.15,0.05,14.32-0.08,21.48c-0.08,4.5,1.55,7.41,6.32,7.77
	c7.44,0.56,14.91,1.65,22.32,1.41c13.8-0.45,27.58-1.92,41.31,0.71c2.62,0.5,4.15-0.39,4.73-2.99c0.44-1.95,1.25-3.86,1.37-5.82
	c1.09-17.58,2.08-35.17,3.05-52.75c0.39-7.15,0.65-14.3,1.01-22.48c8.9,14.96,17.33,28.73,25.34,42.74
	c4.54,7.94,8.98,16.03,12.4,24.48c3.32,8.18,9.15,11.42,17.29,11.82c2.99,0.15,5.99-0.17,8.99-0.14c11.63,0.12,23.27,0.4,34.9,0.43
	c27.13,0.07,54.27-0.01,81.4,0.05c5.12,0.01,10.66-0.83,15.28,0.79c15.13,5.31,30.38,9.92,46.37,11.37
	c21.74,1.96,43.06,1.7,60.1-15.43c1.72,10.08,5.15,13.75,14.88,15.75c3.25,0.67,6.58,1.11,9.89,1.24
	c18.61,0.73,37.23,1.36,55.85,1.98c7.75,0.26,8.75-0.6,10.14-8.26c0.12-0.65,0.2-1.33,0.19-1.99c-0.2-9.46-0.45-18.92-0.62-28.38
	c-0.08-4.62-0.01-9.24-0.01-14.12c7.96,8.74,15.28,16.68,22.48,24.72c3.11,3.47,6.6,6.81,8.8,10.83c3.05,5.56,7.38,5.8,12.62,4.99
	c9.2-1.42,18.49-2.32,27.61-4.12c10.72-2.11,21.62-4.07,31.85-7.73C585.61,513.65,587.05,506.06,580.43,498.08z M409.45,144.56
	c2.8,0.56,5.8,3.43,7.41,6.04c4.53,7.32,5.85,21.42-5.38,28.28c-5.03,3.08-11.18,5.31-17.02,5.89c-11.3,1.11-16.43-4.48-16.42-15.95
	C377.17,151.47,396.21,141.93,409.45,144.56z M130.6,349.04c-4.66,2.29-9.96,3.72-15.13,4.43c-7.21,1-14.57,0.98-21.86,1.39
	c0-0.08-0.01-0.15-0.01-0.23c-0.67,0-1.33,0.01-2,0c-13.32-0.22-11.11,1.7-8.81-10.82c3.12-17.06,0.9-16.04,20.02-16.32
	c7.18-0.1,14.46,1.55,21.54,3.08c2.89,0.63,5.77,2.68,7.98,4.78C136.99,339.8,136.36,346.21,130.6,349.04z M199.21,491.68
	c-1.23-0.97-2.09-1.43-2.64-2.12c-18.14-22.55-36.3-45.1-54.34-67.73c-3.72-4.67-3.54-4.88,2.07-5.88
	c17.52-3.11,34.39-7.83,48.44-19.49c3.27-2.71,6.2-5.83,9.76-9.21C205.18,422.34,203.83,456.7,199.21,491.68z M331.73,468.51
	c-4.01,1.72-8.25,2.89-12.4,4.28c-13.33-1.54-24.94-6.39-35.44-13.52c-1.91-1.3-1.16-6.52-1.64-9.93c0.73-0.06,1.51-0.35,2.17-0.16
	c15.43,4.32,30.85,8.67,46.25,13.1c1.63,0.47,3.08,1.52,4.62,2.3C334.12,465.93,333.21,467.88,331.73,468.51z M392.54,422.26
	c-0.11,0.65,0.04,1.34-0.06,1.99c-0.55,3.55-1.13,7.1-1.71,10.65c-2.51-2.01-4.98-4.07-7.53-6.03
	c-11.51-8.84-25.2-12.45-38.84-16.16c-6.52-1.77-13.07-3.43-20.77-5.44c9.48-6.83,18.92-6.85,28.39-5.55
	c12.82,1.76,24.59,6.75,36.02,12.67C391.45,416.18,393.17,418.4,392.54,422.26z"/>
<path fill="#FFFFFF" d="M312.39,132.73c0.57-17.5,1.23-33.81,1.6-50.12c0.48-20.98,0.73-41.97,1.07-62.95
	c0.03-2.14,0.48-3.94-3.16-3.93c-13.78,0.03-27.57-0.46-41.36-0.79c-3.77-0.09-9.34-1.89-10.87-0.12c-2.09,2.42-1.32,7.49-1.4,11.43
	c-0.81,38.3-1.54,76.6-2.35,114.89c-0.02,1.17-0.35,2.8-1.15,3.42c-5.42,4.22-11.19,2.32-13.89-4.02
	C224.13,101.21,207.1,62,190.65,22.54c-3.29-7.89-7.17-10.88-16.07-9.84c-17.66,2.06-35.49,2.76-53.25,3.91
	c-3.33,0.22-4.49,1.61-4.57,4.94c-0.62,23.97-1.94,47.93-2.03,71.9c-0.18,46.82,0.31,93.65,0.51,140.47
	c0.04,10.82,0.77,11.74,11.58,13.81c1.14,0.22,2.31,0.41,3.47,0.41c13.47-0.02,26.94-0.12,40.41-0.07c2.83,0.01,2.74-1.5,2.61-3.53
	c-0.63-9.8-1.33-19.61-1.74-29.42c-1.23-28.78-2.37-57.56-3.46-86.34c-0.2-5.29,1.46-6.36,6.63-4.95c5.17,1.41,7.9,5.29,9.98,9.79
	c16.66,36.1,33.43,72.14,49.79,108.38c2.18,4.82,4.71,7.01,9.79,6.9c19.63-0.4,39.26-0.72,58.89-1.04c2.78-0.04,3.66-1.4,3.68-4.07
	c0.02-4.16,0.39-8.31,0.6-12.47C309.12,198.06,310.78,164.8,312.39,132.73z"/>
<path fill="#FFFFFF" d="M541.19,349.97c-1.92-0.39-3.52-0.84-5.15-1.03c-11.57-1.38-23.18-2.48-34.71-4.11
	c-9.42-1.33-9.37-1.6-13.19,7.01c-10.37,23.4-20.74,46.8-31.21,70.16c-0.44,0.98-1.69,1.93-2.76,2.24
	c-6.57,1.89-10.55-1.5-10.22-9.3c0.49-11.64,1.52-23.26,2.26-34.9c1.76-27.75,3.45-55.51,5.25-83.25c0.22-3.39-0.46-5.01-4.44-5.21
	c-10.96-0.55-21.89-1.73-32.84-2.38c-1.02-0.06-2.98,1.74-3.12,2.85c-0.66,5.45-1.03,10.95-1.18,16.44
	c-1.26,45.11-2.1,90.24-3.78,135.34c-0.94,25.27-3.15,50.5-5.02,75.73c-0.25,3.41,0.63,4.48,3.85,4.5
	c13.65,0.12,27.3,0.39,40.95,0.52c3.87,0.04,9.63,1.22,11.15-0.74c1.9-2.45,0.29-7.6,0.25-11.58c-0.2-17.96-0.48-35.93-0.46-53.89
	c0-1.88,1.34-4.76,2.8-5.35c1.43-0.58,4.19,0.73,5.69,2c10.11,8.54,16.17,20.17,23.51,30.87c5.81,8.47,12.49,16.35,18.89,24.41
	c2.62,3.3,6.2,3.81,10.31,3.55c15.43-0.97,30.13-5.11,44.78-9.65c3.3-1.02,2.63-2.27,0.99-4.01c-7.87-8.36-15.14-17.41-23.79-24.86
	c-16.02-13.79-32.94-26.53-49.34-39.89c-8.73-7.11-9.07-11.82-2.02-20.6c4.79-5.97,9.77-11.8,14.58-17.76
	C515.77,381.55,528.27,366,541.19,349.97z"/>
<path fill="#FFFFFF" d="M336.72,358c-6.45,0.67-12.97,0.94-19.34,2.08c-13.74,2.45-26.27,7.52-35.3,18.84
	c-1.16,1.45-2.12,3.49-2.18,5.3c-0.29,7.97-0.44,15.97-0.24,23.94c0.56,22.03,7.84,30.56,29.35,34.83c0.49,0.1,1,0.11,1.48,0.22
	c10.05,2.23,20.3,3.8,30.07,6.91c8.92,2.83,12.3,9.52,11.54,18.72c-0.93,11.36-7.66,17.89-19.9,19.14c-14.85,1.52-28.9-1.62-42-8.39
	c-4.58-2.36-5.6-1.06-6.31,3.12c-1.17,6.89-2.69,13.72-3.81,20.61c-1.3,7.99-1.19,8.01,6.82,10.04c1.61,0.41,3.21,0.89,4.83,1.27
	c16.86,3.97,33.67,7.93,51.24,7.36c15.41-0.5,26.75-6.99,32.22-21.53c3.6-9.58,7.01-19.54,8.29-29.61
	c2.88-22.69-3.96-32-26.12-38.29c-10.55-3-21.33-5.26-31.75-8.66c-4.74-1.54-9.5-4.33-13.1-7.77c-7.83-7.45-5.94-19.81,3.24-25.36
	c8.41-5.09,17.66-6.81,27.31-6.35c14.75,0.71,28.35,5.37,41.2,12.48c4.56,2.52,4.72,2.49,4.6-2.84c-0.16-7.32-0.33-14.66-1.02-21.94
	c-0.17-1.74-2.08-4.15-3.75-4.79C368.88,361.48,353.06,358.58,336.72,358z"/>
<path fill="#FFFFFF" d="M264.07,427.52c0-16.31-0.05-32.61,0.05-48.92c0.02-2.8-0.83-3.72-3.68-3.7
	c-13.14,0.07-26.29,0.14-39.42-0.23c-5.1-0.15-5.38,2.01-5.06,6.18c0.9,11.61,1.65,23.24,1.92,34.88
	c0.67,29.34-1.35,58.55-4.5,87.71c-0.12,1.15,1.04,3.47,1.72,3.52c13.57,0.95,27.17,1.66,40.76,2.4c3.26,0.18,4.08-1.6,4.28-4.6
	C261.87,479.01,264.57,427.54,264.07,427.52z"/>
<path fill="#FFFFFF" d="M244.09,323.24c-4.46,0.96-7.96,1.35-11.21,2.47c-9.31,3.2-13.21,11.35-10.12,20.69
	c0.39,1.17,1.14,2.88,2.05,3.13c11.34,3.11,22.74,5.19,34-0.4c7.65-3.81,8.11-18.27-0.42-21.25
	C253.43,326.15,248.41,324.64,244.09,323.24z"/>
<path fill="#FFFFFF" d="M445.39,102.99c-15.84-12.5-33.95-20.13-54.21-17.2c-26.04,3.77-44.82,19.01-57.52,41.9
	c-6.4,11.53-8.39,24.13-9.1,36.99c-0.83,15.09-1.48,30.19-1.87,45.29c-0.2,7.5,3.8,13.08,10.13,16.67c8.82,5,17.88,9.55,26.82,14.35
	c9.9,5.31,20.43,7.89,31.73,8.08c7.74-1.04,15.6-1.52,23.19-3.24c24.65-5.59,44.74-16.99,54.92-42.09
	C485.06,165.31,476.47,127.52,445.39,102.99z M411.48,178.88c-5.03,3.08-11.18,5.31-17.02,5.89c-11.3,1.11-16.43-4.48-16.42-15.95
	c-0.87-17.35,18.16-26.9,31.41-24.26c2.8,0.56,5.8,3.43,7.41,6.04C421.39,157.92,422.71,172.02,411.48,178.88z"/>
<path d="M435.79,166.59c0.01-20.33-15.15-35.39-35.79-35.54c-20.5-0.15-36.28,15.11-36.26,35.05c0.02,18.97,16.26,33.35,36.99,33.98
	C420.9,200.7,437.28,183.16,435.79,166.59z M411.48,178.88c-5.03,3.08-11.18,5.31-17.02,5.89c-11.3,1.11-16.43-4.48-16.42-15.95
	c-0.87-17.35,18.16-26.9,31.41-24.26c2.8,0.56,5.8,3.43,7.41,6.04C421.39,157.92,422.71,172.02,411.48,178.88z"/>
<path fill="#FFFFFF" d="M128.58,427.33c-2.74-3.54-5.82-7.02-7.63-11.03c-1.64-3.62-2.06-7.9-2.46-11.94
	c-0.3-3.14,1.57-4.34,4.95-4.57c15.33-1.06,30.33-3.62,44.7-9.54c34.49-14.22,40.22-48.72,32.44-72.18
	c-5.34-16.09-17.08-27.03-31.9-34.16c-43.72-21.03-89.28-21.27-135.55-10.61c-1.32,0.31-2.92,2.65-3.1,4.2
	c-1.85,15.37-4,30.73-4.99,46.17c-2.73,42.36-4.95,84.76-7.34,127.14c-1.1,19.45-2.13,38.89-3.19,58.34
	c-0.09,1.74-0.99,3.67,2.3,3.57c13.63-0.39,27.27-0.79,40.9-0.69c4.61,0.04,6.13-1.43,6.23-5.83c0.39-16.97,0.85-33.95,1.57-50.91
	c0.38-8.96,1.06-17.94,2.18-26.84c0.49-3.93,2.41-7.69,3.69-11.52c3.97,2.81,8.9,4.88,11.7,8.57c5.31,6.98,9.93,14.62,13.89,22.46
	c8.16,16.18,15.89,32.6,23.4,49.09c4.08,8.96,10.6,13.33,20.31,13.11c16.57-0.36,33.15-0.77,50.47-1.17c-1.22-2-1.93-3.46-2.91-4.72
	C168.36,478.62,148.44,453,128.58,427.33z M93.61,354.87c0-0.08-0.01-0.15-0.01-0.23c-0.67,0-1.33,0.01-2,0
	c-13.32-0.22-11.11,1.7-8.81-10.82c3.12-17.06,0.9-16.04,20.02-16.32c7.18-0.1,14.46,1.55,21.54,3.08c2.89,0.63,5.77,2.68,7.98,4.78
	c4.66,4.44,4.03,10.85-1.73,13.68c-4.66,2.29-9.96,3.72-15.13,4.43C108.26,354.47,100.91,354.45,93.61,354.87z"/>
<path d="M145.37,331.56c-7.23-11.65-18.14-18.22-31.22-21.46c-11.84-2.93-23.48,0.7-35.21,1.28c-0.83,0.04-1.96,1.23-2.34,2.14
	c-7.04,16.88-10.32,34.34-7.35,52.58c0.24,1.46,2.54,3.52,4.06,3.69c9.91,1.1,19.86,1.75,32.27,2.75c6.87-0.96,16.26-1.43,25.2-3.7
	C148.21,364.43,154.87,346.87,145.37,331.56z M130.6,349.04c-4.66,2.29-9.96,3.72-15.13,4.43c-7.21,1-14.57,0.98-21.86,1.39
	c0-0.08-0.01-0.15-0.01-0.23c-0.67,0-1.33,0.01-2,0c-13.32-0.22-11.11,1.7-8.81-10.82c3.12-17.06,0.9-16.04,20.02-16.32
	c7.18-0.1,14.46,1.55,21.54,3.08c2.89,0.63,5.77,2.68,7.98,4.78C136.99,339.8,136.36,346.21,130.6,349.04z"/>
</svg>
