<?xml version="1.0" encoding="utf-8"?>
<!-- Generator: Adobe Illustrator 22.0.1, SVG Export Plug-In . SVG Version: 6.00 Build 0)  -->
<svg version="1.1" id="Layer_1" xmlns="http://www.w3.org/2000/svg" xmlns:xlink="http://www.w3.org/1999/xlink" x="0px" y="0px"
	 viewBox="0 0 635.0662 231.8896" enable-background="new 0 0 635.0662 231.8896" xml:space="preserve">
<path d="M583.9226,51.5505V0h-50.8001v51.5505h-50.1418v33.0288c-18.3406,2.2028-25.3371,9.1092-38.2099,24.211
	c-3.1906-6.442-5.2011-10.2297-8.5002-13.5003c-7.699-7.6928-17.6503-11.5405-29.8577-11.5405
	c-28.0668,0-35.9225,4.6294-54.0543,26.5137l-0.1052-22.726h-50.1866v46.761c-7.1439-23.6929-26.2185-49.9835-73.4862-50.2542
	c-51.4017-0.2945-68.7637,34.3517-73.6864,44.5001c-0.2797,0.5763-0.5437,1.1508-0.7998,1.7247
	c-9.4964-24.6528-32.4941-46.4394-72.9421-46.2247C21.6034,84.3602,0,128.5003,0,157.8205
	c0,27.9157,23.2867,74.0692,79.6463,74.0692c37.6704,0,63.253-19.8136,73.9712-45.4906
	c11.5555,29.3422,42.446,45.4906,77.9844,45.4906c32.2273,0,58.155-11.1526,66.9929-33.2473l-38.017-14.309
	c-7.8559,11.854-16.9748,15.9924-32.2654,15.9924c-16.1331,0-31.4938-9.8199-31.5639-33.4296h105.3183v59.5224h49.1345v-59.5224
	c0-24.2272,1.2625-47.7949,25.8824-47.7949c14.309,0,20.2009,8.2066,20.2009,30.0909v77.2264h48.9767v-59.5224
	c0-12.5123,0.0927-28.7262,6.4706-38.6414c3.7547-5.8371,10.022-9.1535,18.8331-9.1535c18.7279,0,20.8322,13.1516,20.8322,34.4047
	v72.9127h49.9412V152.068h41.5842v-50.5485h51.1436v-49.969H583.9226z M79.8136,190.7744
	c-21.9464,0-29.2311-18.2173-29.2311-32.9539c0-22.7269,13.2228-33.9239,28.7291-33.9239c15.9506,0,31.0819,11.197,31.0819,32.6066
	C110.3935,171.9234,103.9505,190.7744,79.8136,190.7744z M198.2212,139.3021c3.367-22.9364,19.4989-25.672,28.8985-25.672
	c14.8811,0,28.0571,10.5213,28.8985,25.672H198.2212z M630.0159,96.4693h-46.0933h-5.0502v5.0502v45.4983h-36.534h-4.1656V104.452
	v-2.9324v-5.0502h-5.0502h-0.4268h-44.6649V84.1047V56.6008h45.0916h5.0502v-5.0502V5.0502h40.6996v46.5003v5.0502h5.0502h46.0933
	V96.4693z"/>
</svg>
