<?xml version="1.0" encoding="utf-8"?>
<!-- Generator: Adobe Illustrator 22.0.1, SVG Export Plug-In . SVG Version: 6.00 Build 0)  -->
<svg version="1.1" id="Layer_1" xmlns="http://www.w3.org/2000/svg" xmlns:xlink="http://www.w3.org/1999/xlink" x="0px" y="0px"
	 viewBox="0 0 64.5227 82.2793" enable-background="new 0 0 64.5227 82.2793" xml:space="preserve">
<path fill="#110524" d="M16.9064,72.7367c1.5352,0.3176,5.5226-1.5642,7.0501-1.0532c3.4815,1.1647,1.9035,5.7106,4.7526,6.074
	l3.0494-4.9469l-6.725-6.9129L16.9064,72.7367z"/>
<path fill="#110524" d="M38.7465,73.3366c1.9341,1.0072-1.5028,6.725,3.6606,7.0621l-1.97-14.6888l-7.7394,10.4445
	C34.6514,74.3886,37.5463,72.7115,38.7465,73.3366z"/>
<linearGradient id="SVGID_1_" gradientUnits="userSpaceOnUse" x1="-3.8875" y1="53.058" x2="57.6361" y2="33.6151">
	<stop  offset="0.0462" style="stop-color:#11054D"/>
	<stop  offset="0.0944" style="stop-color:#100953"/>
	<stop  offset="0.1608" style="stop-color:#0C1365"/>
	<stop  offset="0.2373" style="stop-color:#052482"/>
	<stop  offset="0.2754" style="stop-color:#012E93"/>
	<stop  offset="0.672" style="stop-color:#11054D"/>
</linearGradient>
<path fill="url(#SVGID_1_)" d="M3.8065,0C4.5774,17.97,1.797,60.243,0.0188,71.3947c-0.1406,0.8817,0.5236,1.6991,1.4163,1.7164
	c5.9206,0.1144,8.1289-3.2167,10.9936-3.0431c1.8597,0.1127,2.705,2.8177,4.7526,2.6675c3.1343-0.23,7.4764-5.3162,11.0831-0.3006
	c0.8226,1.1439-1.592,5.5012,0.9317,5.3689c5.6618-0.2969,12.0299-13.5967,11.41-2.8892c-0.2179,3.764,0.0564,5.6918,2.3106,5.4664
	c2.0311-0.2031,2.989-2.4893,5.3725-2.3857c1.7282,0.0751,1.9536,1.9912,4.2078,1.9536c1.3105-0.0218,2.7614-2.3293,4.7338-2.4984
	c0.9986-0.0856,3.5316,1.8973,3.5316,1.8973s2.1603,2.9818,3.0851,2.9308c2.2874-5.7861-1.9392-9.0547-2.3337-13.9576
	c-0.2013-2.5021-0.5025-6.57-0.958-10.1439c-0.3877-3.0414-3.1559-7.3261-3.4001-11.5903
	c-0.2065-3.6059,0.2536-12.0483,1.2158-15.6634c0.3809-1.4309,0.1141-2.1957-0.5772-2.1635
	c-2.4233,0.1127-3.6631-2.705-3.2122-5.8046c0.4572-3.143,0.3383-4.861-6.8455-4.9636c-3.6365-0.052-5.5951-3.0671-7.5626-3.8653
	c-1.0096-0.4096-4.3581,0-4.3581,0s0.0748-2.4377,0.1503-3.4564c0.1879-2.536-2.8427-2.8072-4.0576-2.705
	c-2.01,0.1691-5.5584,0.4869-7.8518,0.6098c-1.2401,0.0665-1.981,0.073-1.9539-0.8352c0.0751-2.5172,0.0751-2.5172-3.8134-2.7614
	c-2.0871-0.1311-5.2405-3.0432-7.2134-3.0432C8.0331,1.9349,5.6662,1.2022,3.8065,0z"/>
<polygon fill="#F0F0F0" points="19.8676,48.8785 21.8964,52.5416 18.9722,56.9937 22.6854,56.7119 21.6146,62.2347 25.1086,58.1771 
	28.3209,64.2635 27.4987,54.6549 28.9408,50.4565 25.3371,50.3944 24.0661,45.0464 23.3053,50.1747 "/>
<linearGradient id="SVGID_2_" gradientUnits="userSpaceOnUse" x1="24.9025" y1="41.3382" x2="44.3588" y2="37.6912">
	<stop  offset="0" style="stop-color:#11054D"/>
	<stop  offset="0.5288" style="stop-color:#012E93"/>
	<stop  offset="1" style="stop-color:#11054D"/>
</linearGradient>
<path fill="url(#SVGID_2_)" d="M28.1065,77.1931c0.1435,0.4005,0.4651,0.6434,1.0897,0.6107
	c4.5692-0.2396,9.5971-8.944,11.0425-6.6695c-0.3527-2.3676-0.8464-6.2206-1.1163-10.7217
	c-0.8755-14.5909-2.5586-24.2504-2.8554-29.6239c-0.3474-6.2886-0.4614-12.113-0.4101-16.6671
	c-0.026,0.0031-0.0407,0.0048-0.0407,0.0048s0.0748-2.4377,0.1504-3.4564c0.1878-2.536-2.8428-2.8072-4.0576-2.705
	c-2.0101,0.1691-5.5584,0.4869-7.8518,0.6098c-1.2402,0.0665-1.981,0.073-1.9539-0.8352c0.0667-2.2351,0.0674-2.4855-2.654-2.6845
	c-2.9333,21.4423,8.6256,34.2496,8.5523,58.5135c-0.0042,1.4224,0.0236,5.0046,0.0566,8.5988
	c0.0689,0.088,0.138,0.1726,0.2065,0.2678c0.4125,0.5738,0.0108,1.9562-0.1737,3.1749
	C28.0961,76.1591,28.1014,76.6896,28.1065,77.1931z"/>
<linearGradient id="SVGID_3_" gradientUnits="userSpaceOnUse" x1="34.9786" y1="50.2372" x2="60.8655" y2="43.0907">
	<stop  offset="0" style="stop-color:#11054D"/>
	<stop  offset="0.1333" style="stop-color:#0F0A56"/>
	<stop  offset="0.3507" style="stop-color:#09186E"/>
	<stop  offset="0.6069" style="stop-color:#012E93"/>
	<stop  offset="0.699" style="stop-color:#022C8F"/>
	<stop  offset="0.7944" style="stop-color:#052482"/>
	<stop  offset="0.8913" style="stop-color:#0A186E"/>
	<stop  offset="0.9887" style="stop-color:#100751"/>
	<stop  offset="1" style="stop-color:#11054D"/>
</linearGradient>
<path fill="url(#SVGID_3_)" d="M59.3725,66.6867c-0.3053-1.7856-1.747-5.3327-2.1415-7.1007
	c-0.5763-2.5825-1.3356-8.2899-1.6906-10.9329c-0.2864-2.1307-1.045-6.0685-1.1271-8.1151
	c-0.1345-3.3531,0.0324-9.3824,0.5312-13.8419c-0.4262-1.0351-0.5631-2.359-0.3621-3.7408c0.4572-3.143,0.3383-4.861-6.8456-4.9636
	c-3.6364-0.052-5.595-3.0671-7.5626-3.8653c-0.9448-0.3833-3.9371-0.0493-4.3173-0.0048
	c-0.0513,4.5541,0.0627,10.3785,0.4101,16.6671c0.2967,5.3735,1.9799,15.033,2.8554,29.6239
	c0.2699,4.5011,0.7637,8.3541,1.1163,10.7217c-0.004-0.0063-0.009-0.01-0.013-0.0162c0.3544,0.5357,0.5017,1.7058,0.3806,3.7965
	c-0.2179,3.764,0.0564,5.6918,2.3106,5.4664c2.0312-0.2031,2.989-2.4893,5.3724-2.3857c1.7283,0.0751,1.9537,1.9912,4.2079,1.9536
	c1.3105-0.0218,2.7614-2.3293,4.7338-2.4984c0.7729-0.0663,2.4607,1.1038,3.186,1.6373
	C60.9706,74.574,59.9113,69.8372,59.3725,66.6867z"/>
<linearGradient id="SVGID_4_" gradientUnits="userSpaceOnUse" x1="57.5311" y1="54.7664" x2="66.2396" y2="53.2274">
	<stop  offset="0" style="stop-color:#11054D"/>
	<stop  offset="0.2101" style="stop-color:#012E93"/>
</linearGradient>
<path fill="url(#SVGID_4_)" d="M61.5139,68.321c-0.2012-2.5021-0.5024-6.5701-0.958-10.1439
	c-0.3877-3.0414-3.1559-7.3261-3.4-11.5904c-0.2065-3.6059,0.2536-12.0483,1.2158-15.6634c0.3808-1.4309,0.114-2.1957-0.5772-2.1635
	c-1.375,0.0639-2.3649-0.8193-2.8847-2.1587c0.0121,0.0311,0.022,0.0643,0.0346,0.0949
	c-0.4988,4.4595-0.6657,10.4888-0.5312,13.8419c0.0821,2.0466,0.8407,5.9844,1.1271,8.1151
	c0.3551,2.643,1.1143,8.3504,1.6906,10.9329c0.3945,1.768,1.8362,5.3151,2.1415,7.1007c0.5389,3.1505,1.5982,7.8872,1.0445,12.4011
	c0.2118,0.1557,0.3456,0.26,0.3456,0.26s2.1602,2.9818,3.085,2.9308C66.135,76.4925,61.9084,73.2239,61.5139,68.321z"/>
<polygon fill="#F0F0F0" points="47.2561,24.6741 48.5805,25.294 49.0313,22.9271 49.6794,25.294 51.2573,24.5332 50.2148,26.731 
	51.5109,28.3662 50.0739,28.3662 50.1584,31.3522 49.0031,29.5206 47.7633,31.2113 48.2089,28.3662 46.7208,27.9427 
	47.9887,26.4774 "/>
<polygon fill="#F0F0F0" points="50.4308,42.4165 51.8772,43.074 52.2154,40.6507 52.7977,42.9425 54.3685,42.5292 53.4927,44.5016 
	54.8453,46.7183 53.3237,46.1172 53.2485,48.578 52.3093,46.9625 51.4076,48.6907 51.37,45.9669 50.0551,45.4033 51.4828,44.3514 
	"/>
<polygon fill="#F0F0F0" points="47.6506,54.3168 48.6932,54.3168 48.6932,52.7389 49.2567,54.035 50.722,54.3168 49.7358,55.303 
	50.0551,56.8528 49.1863,56.261 48.4959,57.2754 48.5523,55.1621 "/>
<polygon fill="#F0F0F0" points="48.4678,67.2784 47.9324,69.1663 46.8053,68.6028 47.4252,70.6879 46.2699,71.4769 47.6224,72.2095 
	47.3688,74.4919 48.4678,73.0266 49.1722,74.5979 49.1722,72.3786 50.891,72.6603 49.5385,70.9382 50.1021,68.6873 48.5805,69.3354 
	"/>
<path fill="#F0F0F0" d="M37.2249,38.6783c0.0564-3.3249-4.7902-8.3969-8.0588-10.7638c2.1415-0.9393,5.4101,1.4276,7.1007,2.8741
	l-0.1127-8.1151c-0.864-1.221-3.6646-1.4469-4.9592-1.5216c-0.9985-0.0576-2.9681-0.263-3.9448-0.4133
	c1.0974-2.6681,6.4009-6.7145,8.6434-8.7096c0.0222-0.5156,0.0476-1.0174,0.0729-1.3592c0.1292-1.7463-1.2675-2.4186-2.5465-2.6346
	c-3.2367,2.6169-7.6464,8.342-10.2837,11.2005c0.0119-1.5668,0.0612-6.9117,0.096-10.636c-0.7346-0.0117-1.1496-0.177-1.1291-0.8604
	c0.068-2.2788,0.0641-2.4946-2.8202-2.6962l-0.0352,10.5483c-0.9272-0.3043-2.1694-1.6029-2.7614-2.273
	c-1.7094-1.9349-0.8477-2.6824-3.7194-5.6355C10.1182,4.9592,9.0662,5.5979,7.864,4.2454c-0.38-0.4275-1.3228-1.9664-1.9682-3.1957
	C5.1378,0.7595,4.44,0.4096,3.8065,0C3.898,2.1327,3.939,4.6107,3.9379,7.3353c1.0996,2.0057,3.7808,3.2361,6.1053,4.0108
	c1.2299,0.41,3.0161,2.1655,3.5127,3.6067c-2.3167-0.0741-2.2071-1.9753-9.6717-1.9903c-0.0409,2.3175-0.1037,4.746-0.1856,7.2453
	c0.0594,0.0214,0.12,0.0367,0.1829,0.0423c2.536,0.2254,6.522-0.1935,8.4909,0.7138c1.0212,0.4706,1.6156,2.3669,3.7194,2.4984
	c-2.9305,2.4984-6.2741-0.3945-12.9495,9.7895c-0.0002,0.0001-0.0002,0.0003-0.0002,0.0005
	c-0.0284,0.5493-0.0575,1.0983-0.0867,1.6471l4.17-0.1849c0.6386-1.6906,2.9683-3.5444,4.2453-4.3769
	c3.8321-2.4984,2.8177-0.0564,6.3118-3.0995c0.6547-0.5702,1.747-2.1039,2.1038-2.7426c0.977,1.9161,0.7515,9.2798,0.883,12.492
	h4.1139c-0.2631-2.4233-0.2631-6.1051-1.0144-8.1715c3.2309-0.2254,7.7019,6.8377,9.2422,9.8621H37.2249z"/>
<linearGradient id="SVGID_5_" gradientUnits="userSpaceOnUse" x1="3.5229" y1="29.18" x2="19.6986" y2="29.18">
	<stop  offset="0" style="stop-color:#760006"/>
	<stop  offset="0.0217" style="stop-color:#810005"/>
	<stop  offset="0.0864" style="stop-color:#9B0003"/>
	<stop  offset="0.1579" style="stop-color:#AF0002"/>
	<stop  offset="0.2388" style="stop-color:#BD0001"/>
	<stop  offset="0.3369" style="stop-color:#C50000"/>
	<stop  offset="0.5" style="stop-color:#C80000"/>
	<stop  offset="1" style="stop-color:#760006"/>
</linearGradient>
<path fill="url(#SVGID_5_)" d="M17.2189,23.4812c-0.5259,0.8641-2.3295,2.1874-3.2686,2.6675
	c-1.1297,0.5774-3.8044,1.0146-4.7715,1.7282c-1.8086,1.3348-4.3162,4.4409-5.656,7.0019l2.9188-0.1294
	c0.4427-1.6752,2.726-3.9291,3.8819-4.8937c1.7857-1.4904,3.3133-1.3407,4.5284-1.7534c1.9911-0.6763,3.9303-2.6872,4.8465-4.6211
	H17.2189z"/>
<linearGradient id="SVGID_6_" gradientUnits="userSpaceOnUse" x1="3.8624" y1="8.9895" x2="18.0079" y2="8.9895">
	<stop  offset="0" style="stop-color:#760006"/>
	<stop  offset="0.0217" style="stop-color:#810005"/>
	<stop  offset="0.0864" style="stop-color:#9B0003"/>
	<stop  offset="0.1579" style="stop-color:#AF0002"/>
	<stop  offset="0.2388" style="stop-color:#BD0001"/>
	<stop  offset="0.3369" style="stop-color:#C50000"/>
	<stop  offset="0.5" style="stop-color:#C80000"/>
	<stop  offset="0.6631" style="stop-color:#C50000"/>
	<stop  offset="0.7612" style="stop-color:#BD0001"/>
	<stop  offset="0.8421" style="stop-color:#AF0002"/>
	<stop  offset="0.9136" style="stop-color:#9B0003"/>
	<stop  offset="0.9783" style="stop-color:#810005"/>
	<stop  offset="1" style="stop-color:#760006"/>
</linearGradient>
<path fill="url(#SVGID_6_)" d="M15.2278,13.0744c-0.877-1.0982-1.3261-3.3437-3.1185-4.6775
	c-1.3803-1.0271-4.7578-2.1448-6.0487-3.2823C5.4425,4.5699,4.5127,2.8541,3.8624,1.558c0.0453,1.5216,0.0693,3.1858,0.0742,4.963
	c1.0754,1.0172,2.4882,1.9885,3.3263,2.5333c1.5029,0.9768,3.9074,1.5404,5.0345,2.6675c0.8843,0.8843,2.0937,3.5386,2.707,4.2065
	c0.5147,0.5604,3.0035,0.4898,3.0035,0.4898C16.8108,14.741,15.906,13.9239,15.2278,13.0744z"/>
<linearGradient id="SVGID_7_" gradientUnits="userSpaceOnUse" x1="23.4556" y1="14.554" x2="35.9748" y2="14.554">
	<stop  offset="0" style="stop-color:#760006"/>
	<stop  offset="0.0179" style="stop-color:#7F0005"/>
	<stop  offset="0.0831" style="stop-color:#990003"/>
	<stop  offset="0.1552" style="stop-color:#AD0002"/>
	<stop  offset="0.2368" style="stop-color:#BB0001"/>
	<stop  offset="0.3356" style="stop-color:#C30000"/>
	<stop  offset="0.5" style="stop-color:#C60000"/>
	<stop  offset="0.6093" style="stop-color:#C20000"/>
	<stop  offset="0.7226" style="stop-color:#B50001"/>
	<stop  offset="0.8377" style="stop-color:#A10003"/>
	<stop  offset="0.9534" style="stop-color:#840005"/>
	<stop  offset="1" style="stop-color:#760006"/>
</linearGradient>
<path fill="url(#SVGID_7_)" d="M23.4556,20.6635h1.9161c2.541-3.1852,6.4931-8.1692,10.5844-9.8371
	c0.0033-0.0528,0.0068-0.1095,0.0103-0.1565c0.085-1.1483-0.4911-1.8303-1.2585-2.2254
	C29.5717,11.9222,25.7417,17.2886,23.4556,20.6635z"/>
<linearGradient id="SVGID_8_" gradientUnits="userSpaceOnUse" x1="26.2357" y1="33.5223" x2="36.5637" y2="33.5223">
	<stop  offset="0" style="stop-color:#760006"/>
	<stop  offset="0.5" style="stop-color:#B40000"/>
	<stop  offset="1" style="stop-color:#760006"/>
</linearGradient>
<path fill="url(#SVGID_8_)" d="M34.2447,38.6783h2.3189c-0.8739-3.5648-5.1058-9.0233-7.9987-10.2378
	c-0.6049-0.254-2.3293,0.2254-2.3293,0.2254C29.7562,30.0671,32.7852,35.19,34.2447,38.6783z"/>
<linearGradient id="SVGID_9_" gradientUnits="userSpaceOnUse" x1="22.2158" y1="25.3339" x2="36.2392" y2="25.3339">
	<stop  offset="0" style="stop-color:#4E0006"/>
	<stop  offset="0.0308" style="stop-color:#5C0005"/>
	<stop  offset="0.1265" style="stop-color:#810003"/>
	<stop  offset="0.2222" style="stop-color:#9E0002"/>
	<stop  offset="0.3169" style="stop-color:#B20001"/>
	<stop  offset="0.4101" style="stop-color:#BF0000"/>
	<stop  offset="0.5" style="stop-color:#C30000"/>
	<stop  offset="0.6115" style="stop-color:#BF0000"/>
	<stop  offset="0.727" style="stop-color:#B20001"/>
	<stop  offset="0.8444" style="stop-color:#9E0003"/>
	<stop  offset="0.9624" style="stop-color:#810005"/>
	<stop  offset="1" style="stop-color:#760006"/>
</linearGradient>
<path fill="url(#SVGID_9_)" d="M22.2158,21.893l0.2628,4.7441c0,0,5.4785,0.0214,7.5329,0.1127
	c2.2357,0.0994,4.2814,0.2012,6.2277,2.0329l-0.0654-4.7004c-1.7743-1.0677-3.8064-1.7613-5.7302-1.9911
	C28.2145,21.825,22.2158,21.893,22.2158,21.893z"/>
<linearGradient id="SVGID_10_" gradientUnits="userSpaceOnUse" x1="3.7373" y1="21.0511" x2="26.3497" y2="21.0511">
	<stop  offset="0" style="stop-color:#760006"/>
	<stop  offset="0.0304" style="stop-color:#810005"/>
	<stop  offset="0.121" style="stop-color:#9B0003"/>
	<stop  offset="0.2211" style="stop-color:#AF0002"/>
	<stop  offset="0.3344" style="stop-color:#BD0001"/>
	<stop  offset="0.4717" style="stop-color:#C50000"/>
	<stop  offset="0.7" style="stop-color:#C80000"/>
	<stop  offset="0.9942" style="stop-color:#760006"/>
</linearGradient>
<path fill="url(#SVGID_10_)" d="M21.7348,36.9876h2.3312c-1.3644-7.7916-2.1648-19.1998-1.9577-30.4279
	c-0.0588-1.0172-0.4255-1.289-1.968-1.4451v12.5057c-1.6816,0.9768-3.4099,0.4133-6.1337-1.3713
	c-2.1274-1.3939-3.0696-1.679-10.158-1.5017c-0.0299,1.3724-0.0678,2.7815-0.1114,4.2136c2.5157,0.108,3.7265,0.5173,5.5919,0.3783
	c2.0607-0.1536,3.0317-0.0525,3.6631,0.6293c1.4089,1.5216,2.799,2.7614,5.0719,2.5923c0.5902-0.0439,2.0761-0.0188,2.6863-0.0188
	C20.8941,26.1679,21.3804,32.8742,21.7348,36.9876z"/>
<polygon fill="#F0F0F0" points="41.1134,44.2574 41.1134,42.1723 42.466,42.1723 41.1134,40.2562 42.466,38.0584 40.719,38.6783 
	40.2386,36.1987 39.5355,38.9601 38.0139,37.9457 39.0283,39.9181 37.7885,41.4308 39.1974,41.8342 38.9156,44.6707 
	40.1272,42.9049 "/>
</svg>
