<?xml version="1.0" encoding="utf-8"?>
<!-- Generator: Adobe Illustrator 22.0.1, SVG Export Plug-In . SVG Version: 6.00 Build 0)  -->
<svg version="1.1" id="Layer_1" xmlns="http://www.w3.org/2000/svg" xmlns:xlink="http://www.w3.org/1999/xlink" x="0px" y="0px"
	 viewBox="0 0 145.7125 10.0571" enable-background="new 0 0 145.7125 10.0571" xml:space="preserve">
<path d="M34.6549,6.1406l-0.5635,2.0752h-1.8945l2.4707-8.084h2.3867l2.5186,8.084h-1.9668l-0.624-2.0752H34.6549z M36.7066,4.7734
	l-0.5039-1.7148C36.0709,2.5791,35.9264,1.9668,35.8062,1.5h-0.0352c-0.1084,0.4795-0.2402,1.0908-0.3604,1.5586l-0.4912,1.7148
	H36.7066z M42.0592,0.1318v4.6416c0,1.4033,0.54,2.1113,1.4639,2.1113c0.959,0,1.4863-0.6719,1.4863-2.1113V0.1318h1.8232V4.666
	c0,2.4941-1.2588,3.6816-3.3701,3.6816c-2.0391,0-3.2256-1.1396-3.2256-3.7061V0.1318H42.0592z M48.4801,6.333
	c0.4795,0.252,1.2471,0.5039,2.0273,0.5039c0.8389,0,1.2832-0.3486,1.2832-0.876c0-0.5039-0.3838-0.791-1.3555-1.127
	c-1.3438-0.4805-2.2305-1.2236-2.2305-2.3994c0-1.3789,1.1631-2.4219,3.0576-2.4219c0.9238,0,1.583,0.1797,2.0635,0.4072
	l-0.4082,1.4629C52.6061,1.7275,52.0182,1.5,51.2389,1.5c-0.792,0-1.1758,0.3711-1.1758,0.7793c0,0.5156,0.4443,0.7432,1.499,1.1387
	c1.4277,0.5283,2.0869,1.2715,2.0869,2.4111c0,1.3555-1.0313,2.5068-3.25,2.5068c-0.9238,0-1.835-0.252-2.291-0.5039L48.4801,6.333z
	 M56.4703,1.667h-2.1826V0.1318h6.2129V1.667h-2.207v6.5488h-1.8232V1.667z M61.4762,0.252
	c0.5869-0.1074,1.4512-0.1797,2.4346-0.1797c1.1992,0,2.0381,0.1797,2.6143,0.6475c0.4922,0.3838,0.7559,0.9473,0.7559,1.6914
	c0,1.0195-0.7314,1.7266-1.4277,1.9785v0.0361c0.5635,0.2275,0.876,0.7559,1.0801,1.499c0.251,0.9238,0.4912,1.9795,0.6475,2.291
	h-1.8711c-0.1201-0.2402-0.3242-0.8877-0.5518-1.8828c-0.2275-1.0195-0.5762-1.2832-1.3311-1.2959h-0.54v3.1787h-1.8105V0.252z
	 M63.2867,3.7188h0.7197c0.9111,0,1.4512-0.4561,1.4512-1.1641c0-0.7314-0.5039-1.1152-1.3438-1.1152
	c-0.4434,0-0.6953,0.0244-0.8271,0.0605V3.7188z M70.5699,6.1406l-0.5635,2.0752h-1.8945l2.4707-8.084h2.3867l2.5186,8.084h-1.9668
	l-0.624-2.0752H70.5699z M72.6217,4.7734l-0.5039-1.7148C71.9859,2.5791,71.8414,1.9668,71.7213,1.5h-0.0352
	c-0.1084,0.4795-0.2402,1.0908-0.3604,1.5586l-0.4912,1.7148H72.6217z M76.5846,0.1318h1.8232v6.5488h3.2139v1.5352h-5.0371V0.1318z
	 M84.5387,0.1318v8.084h-1.8232v-8.084H84.5387z M87.9937,6.1406l-0.5635,2.0752h-1.8945l2.4707-8.084h2.3867l2.5186,8.084h-1.9668
	l-0.624-2.0752H87.9937z M90.0455,4.7734l-0.5039-1.7148C89.4098,2.5791,89.2652,1.9668,89.1451,1.5H89.11
	c-0.1084,0.4795-0.2402,1.0908-0.3604,1.5586l-0.4912,1.7148H90.0455z M93.9967,8.2158v-8.084h2.1348l1.6787,2.9629
	c0.4795,0.8516,0.9473,1.8584,1.3193,2.7705h0.0244c-0.1084-1.0674-0.1445-2.1592-0.1445-3.3818V0.1318h1.6797v8.084h-1.9199
	l-1.7266-3.1182c-0.4795-0.876-1.0195-1.9072-1.4033-2.8545h-0.0479c0.0596,1.0791,0.084,2.2188,0.084,3.5381v2.4346H93.9967z
	 M108.1295,8.3477c-2.3867,0-3.8018-1.8105-3.8018-4.1133c0-2.4229,1.5586-4.2344,3.9336-4.2344
	c2.4824,0,3.8379,1.8594,3.8379,4.0898c0,2.6631-1.5947,4.2578-3.958,4.2578H108.1295z M108.2252,6.8965
	c1.2354,0,1.9434-1.1631,1.9434-2.7461c0-1.4512-0.6836-2.6992-1.9434-2.6992c-1.2588,0-1.9668,1.2236-1.9668,2.7344
	c0,1.5234,0.7314,2.7109,1.9551,2.7109H108.2252z M114.5269,8.2158l-1.9189-8.084h1.9551l0.6113,3.3223
	c0.1807,0.9717,0.3486,2.0156,0.4805,2.8428h0.0234c0.1318-0.8877,0.3242-1.8594,0.5283-2.8662l0.6836-3.2988h1.9424l0.6475,3.4063
	c0.1807,0.9482,0.3125,1.8115,0.4316,2.7109h0.0244c0.1201-0.8994,0.2998-1.8467,0.4678-2.8184l0.6602-3.2988h1.8584l-2.0869,8.084
	h-1.9785l-0.6836-3.4785c-0.1563-0.8154-0.2881-1.5703-0.3838-2.4941h-0.0244c-0.1436,0.9111-0.2754,1.6787-0.4678,2.5068
	l-0.7676,3.4658H114.5269z M123.8766,8.2158v-8.084h2.1348l1.6787,2.9629c0.4795,0.8516,0.9473,1.8584,1.3193,2.7705h0.0234
	c-0.1074-1.0674-0.1436-2.1592-0.1436-3.3818V0.1318h1.6787v8.084h-1.918l-1.7275-3.1182c-0.4795-0.876-1.0195-1.9072-1.4033-2.8545
	h-0.0479c0.0596,1.0791,0.084,2.2188,0.084,3.5381v2.4346H123.8766z M136.9654,4.7979h-2.9736v1.9189h3.3223v1.499h-5.1455v-8.084
	h4.9775v1.5h-3.1543v1.6787h2.9736V4.7979z M138.565,0.252c0.6709-0.1201,1.5469-0.1797,2.458-0.1797
	c1.5469,0,2.5547,0.2881,3.3223,0.8633c0.8398,0.624,1.3672,1.6074,1.3672,3.0469c0,1.5469-0.5635,2.6143-1.3311,3.2734
	c-0.8516,0.708-2.1592,1.0439-3.7422,1.0439c-0.9473,0-1.6309-0.0596-2.0742-0.1201V0.252z M140.3873,6.8369
	c0.1563,0.0361,0.4199,0.0361,0.6357,0.0361c1.667,0.0117,2.7588-0.9004,2.7588-2.8311c0-1.6787-0.9834-2.5664-2.5664-2.5664
	c-0.3965,0-0.6719,0.0361-0.8281,0.0723V6.8369z M2.0991,1.9268H2.0702L0.3105,2.8138L0,1.4393l2.3506-1.153h1.5081v9.6083H2.0991
	V1.9268z M10.44,10.0571c-2.2026,0-3.3845-2.01-3.399-4.9372c0-3.0006,1.271-4.9961,3.5169-4.9961
	c2.3217,0,3.4002,2.069,3.4002,4.8926c0,3.1041-1.1976,5.0407-3.5025,5.0407H10.44z M10.499,8.6681
	c1.0941,0,1.6417-1.3011,1.6417-3.6072c0-2.2315-0.5332-3.547-1.6261-3.547c-1.005,0-1.6562,1.271-1.6562,3.547
	c-0.0289,2.335,0.6211,3.6072,1.6261,3.6072H10.499z M18.3669,10.0571c-2.2026,0-3.3845-2.01-3.399-4.9372
	c0-3.0006,1.271-4.9961,3.5169-4.9961c2.3217,0,3.4002,2.069,3.4002,4.8926c0,3.1041-1.1976,5.0407-3.5025,5.0407H18.3669z
	 M18.4259,8.6681c1.0941,0,1.6417-1.3011,1.6417-3.6072c0-2.2315-0.5332-3.547-1.6261-3.547c-1.005,0-1.6562,1.271-1.6562,3.547
	c-0.0289,2.335,0.6211,3.6072,1.6261,3.6072H18.4259z M24.0736,0.1238c0.745,0,1.2018,0.5601,1.2018,1.4305
	c0,1.0025-0.5895,1.5188-1.2456,1.5188c-0.6711,0-1.2168-0.5163-1.224-1.4455c0-0.9065,0.5235-1.5038,1.2606-1.5038H24.0736z
	 M24.037,0.6322c-0.3614,0-0.5385,0.428-0.5385,0.9737c-0.0072,0.5529,0.1921,0.9581,0.5457,0.9581
	c0.3686,0,0.5385-0.383,0.5385-0.9731c0-0.5307-0.1477-0.9587-0.5385-0.9587H24.037z M24.037,5.0853l2.7794-4.9615h0.5235
	l-2.7866,4.9615H24.037z M27.3765,2.1144c0.7522,0,1.209,0.5679,1.209,1.4227c0,1.0031-0.5895,1.5188-1.2528,1.5188
	c-0.6711,0-1.2168-0.5157-1.224-1.4449c0-0.8992,0.5235-1.4965,1.2606-1.4965H27.3765z M27.3471,2.6228
	c-0.3614,0-0.5457,0.428-0.5457,0.9659c-0.0072,0.5529,0.1921,0.9587,0.5529,0.9587c0.3686,0,0.5385-0.3836,0.5385-0.9659
	c0-0.5307-0.1477-0.9587-0.5385-0.9587H27.3471z"/>
</svg>
