<svg xmlns="http://www.w3.org/2000/svg" viewBox="0 0 743.829 238.472"><path fill="#004E94" d="M86.28 0c-.651 0-1.286.006-1.905.017l-.052.001-.053.002c-6.552.17-11.874.935-16.264 2.337-5.224 1.61-9.626 4.098-13.086 7.397l-.061.059-.06.059a35.643 35.643 0 0 0-7.524 10.725c-1.299 2.84-2.57 6.088-3.777 9.656l-6.92-.754-11.337-1.236-3.503 10.853-6.157 19.075-5.278 16.354 17.083 1.864.868.095-22.968 71.085L0 163.947l17.09 1.864 44.886 4.894 6.222.678v.002l17.089 1.862 44.326 4.83 11.306 1.233 3.522-10.814 1.886-5.79a26.351 26.351 0 0 0 5.388 7.707c4.175 4.22 9.773 7.37 17.108 9.63 5.693 1.75 12.52 3.159 20.878 4.306 4.19.59 8.932 1.193 14.328 1.822l-.006.018 3.25.355c2.77.313 5.703.633 8.81.96l.263.029 4.765.52 43.766 4.771 9.591 1.046 17.057 1.86 44.608 4.863 11.318 1.234 3.515-10.83 2.236-6.89a35.492 35.492 0 0 0 4.026 5.261c2.65 2.856 5.548 5.325 8.615 7.343 4.27 2.85 8.746 5.172 13.679 7.097a108.923 108.923 0 0 0 13.656 4.38 151.005 151.005 0 0 0 11.986 2.544l.066.012.065.01c3.3.532 6.184.934 8.572 1.194l.025.003.025.003c6.653.7 12.52 1.04 17.935 1.04 2.512 0 4.943-.076 7.224-.228 7.71-.52 14.19-1.69 19.83-3.576 5.829-1.93 10.886-4.486 14.997-7.588a51.662 51.662 0 0 0 2.112-1.605c.359.459.73.911 1.115 1.356 4.732 5.477 11.447 10.082 20.523 14.074 1.86.882 4.271 1.832 7.353 2.897 3.2 1.15 7.35 2.28 12.68 3.454l.058.013.056.012c5.222 1.104 11.581 2.086 18.9 2.919l.06.006.06.007c6 .63 11.658.95 16.817.95 2.963 0 5.834-.106 8.532-.313l.038-.003.037-.003c7.598-.626 13.987-1.848 19.534-3.735l.035-.012.034-.012c5.359-1.854 9.711-4.05 13.256-6.695 4.677 5.129 11.178 9.488 19.822 13.293 1.85.881 4.265 1.833 7.367 2.903 3.235 1.165 7.27 2.265 12.68 3.458l.057.012.058.013c5.198 1.1 11.555 2.082 18.892 2.918l.06.007.061.006c6 .63 11.66.95 16.82.95 2.965 0 5.837-.105 8.537-.312l.04-.003.04-.004c7.6-.628 13.99-1.851 19.533-3.739l.03-.01.031-.01c5.86-2.026 10.52-4.467 14.248-7.46 2.936-2.319 5.487-5.074 7.795-8.42l.04-.057.04-.059a52.509 52.509 0 0 0 4.894-9.016l.041-.1.04-.1c1.284-3.193 2.206-6.11 2.816-8.91.72-3.109 1.084-6.124 1.083-8.963-.002-5.046-1.082-9.81-3.21-14.159l-.047-.095-.048-.095c-1.96-3.855-4.76-7.489-8.322-10.801l7.577.826 11.17 1.218 3.607-10.642a68.142 68.142 0 0 0 1.881-6.608c.727-2.858 1.094-5.873 1.093-8.963v-.074l-.001-.074c-.08-7.346-2.41-14.035-6.921-19.883-3.764-4.933-8.92-9.248-15.326-12.826l-.029-.016-.03-.016c-5.638-3.114-12.224-5.729-19.574-7.771-6.941-1.927-14.613-3.356-22.808-4.249-5.72-.626-11.247-.943-16.42-.943-2.927 0-5.805.101-8.555.301-8.028.56-15.27 2.027-21.48 4.36-5.246 1.985-9.753 4.616-13.472 7.852-3.725-4.713-8.739-8.849-14.913-12.302l-.034-.019-.034-.019c-5.647-3.116-12.232-5.73-19.572-7.77-6.952-1.927-14.622-3.356-22.806-4.248-5.737-.625-11.259-.94-16.417-.94-2.922 0-5.792.1-8.533.3-8.052.558-15.287 2.024-21.506 4.36-6.381 2.41-11.68 5.787-15.799 10.063-.29-.457-.592-.909-.906-1.354-3.619-5.155-8.317-9.482-13.954-12.846-4.82-2.93-10.222-5.361-16.059-7.226a127.328 127.328 0 0 0-15.77-3.957l-.046-.008-.047-.008c-5.252-.926-9.632-1.559-13.387-1.935-6.339-.668-12.224-1.007-17.492-1.007-3.927 0-7.627.188-10.999.56-8.138.846-15.157 2.53-20.864 5.005l-.04.018-.041.017c-5.412 2.387-9.756 5.109-13.236 8.296a29.627 29.627 0 0 0-1.176-2.482c-2.301-4.326-5.378-7.99-9.143-10.882a43.87 43.87 0 0 0-10.381-6.014l-.068-.028-.069-.027c-3.212-1.269-6.373-2.26-9.395-2.943l-.107-.025-.107-.022c-3.073-.646-5.402-1.03-7.493-1.232-1.645-.206-3.762-.34-6.962-.439-.592-.02-1.235-.03-1.896-.03-2.896 0-6.158.209-9.696.62-.42.048-.844.1-1.27.159l-16.4-1.788-44.044-4.8-8.611-.94 5.737-17.311 5.45-16.444-17.22-1.878-44.045-4.804-11.335-1.236-.001.003-10.287-1.121-44.321-4.833-1.81-.197a443.835 443.835 0 0 0-13.63-2.13l-.053-.007-.054-.007a552.598 552.598 0 0 0-13.098-1.603C98.063.4 91.672 0 86.28 0zm523.468 164.607a32.952 32.952 0 0 0-.126-.261l-.036-.073-.037-.073c-1.95-3.859-4.757-7.503-8.34-10.83l6.071.661c1.196 2.629 2.77 5.15 4.718 7.55a51.53 51.53 0 0 0 3.235 3.623l-5.485-.597z"/><path fill-rule="evenodd" clip-rule="evenodd" fill="#FFF" d="M603.35 177.992a58.993 58.993 0 0 0-2.284 6.233c-.699 2.118-1.026 4.449-1.071 6.98-.042 5.31 1.645 9.884 5.017 13.782 3.37 3.9 8.657 7.391 15.766 10.497 1.354.662 3.41 1.47 6.17 2.42 2.72.987 6.408 1.969 11.038 2.99 4.678.99 10.52 1.9 17.579 2.704 8.795.925 16.363 1.099 22.818.602 6.456-.533 11.827-1.558 16.174-3.039 4.3-1.487 7.662-3.21 10.094-5.174 1.918-1.505 3.547-3.316 5-5.422a38.329 38.329 0 0 0 3.589-6.605c.937-2.332 1.678-4.58 2.145-6.758.518-2.207.744-4.17.743-5.886-.001-2.947-.615-5.621-1.785-8.012-1.217-2.394-2.997-4.682-5.378-6.896-2.39-2.18-5.384-4.461-8.94-6.838-3.598-2.382-7.764-4.995-12.539-7.915-.463-.36-1.541-1.026-3.13-2.023-1.59-1.031-3.324-2.11-5.239-3.312-1.916-1.205-3.603-2.246-5.008-3.118-1.4-.907-2.198-1.406-2.338-1.49-1.868-1.234-3.464-2.332-4.771-3.366-1.261-1.03-2.247-2.064-2.902-3.128a6.28 6.28 0 0 1-1.033-3.507c-.042-.176.047-.785.187-1.833.19-1.04.698-2.222 1.494-3.503.793-1.254 2.145-2.304 4.016-3.13 1.825-.832 4.44-1.093 7.758-.766 2.716.33 4.817.836 6.36 1.55 1.546.685 2.669 1.458 3.369 2.287.705.833 1.123 1.563 1.313 2.236.14.633.234 1.09.187 1.324 0 .788-.184 1.692-.466 2.793-.275 1.069-.652 2.125-1.024 3.18-.37 1.058-.744 1.91-1.026 2.599l42.363 4.619a54.533 54.533 0 0 0 1.536-5.424c.471-1.801.698-3.695.697-5.648-.046-4.223-1.362-8.07-4.03-11.515-2.617-3.44-6.319-6.485-11.044-9.124-4.723-2.608-10.243-4.784-16.555-6.538-6.306-1.75-13.19-3.015-20.576-3.82-8.18-.895-15.661-1.09-22.441-.596-6.726.468-12.62 1.64-17.574 3.502-4.998 1.891-8.835 4.456-11.586 7.72-1.17 1.416-2.292 3.25-3.457 5.489-1.166 2.237-2.1 4.604-2.892 7.09-.793 2.449-1.165 4.775-1.208 6.967.05 4.156 1.503 8.014 4.403 11.589 2.861 3.535 6.93 7.064 12.164 10.584.19.123 1.125.738 2.807 1.813a545.274 545.274 0 0 0 6.317 4.085c2.531 1.647 5.1 3.298 7.768 5.028 2.667 1.734 5.098 3.3 7.203 4.73 2.106 1.394 3.648 2.456 4.537 3.098a26.057 26.057 0 0 1 2.946 2.348c.844.776 1.498 1.636 1.963 2.615.474.94.707 2.132.708 3.47.054.998-.135 2.18-.467 3.516a11.79 11.79 0 0 1-1.912 3.904c-.928 1.27-2.288 2.255-4.061 2.988a15.63 15.63 0 0 1-4.677.759c-1.538-.03-2.713-.09-3.46-.206-1.634-.147-3.318-.534-5.05-1.101a10.884 10.884 0 0 1-4.305-2.525c-1.212-1.16-1.822-2.702-1.87-4.592.044-1.85.367-3.699 1.021-5.48a47.626 47.626 0 0 1 2.052-5.092l-43.203-4.709zm-117.286-12.785a58.616 58.616 0 0 0-2.286 6.231c-.698 2.116-1.024 4.45-1.068 6.981-.042 5.309 1.646 9.883 5.014 13.78 3.369 3.9 8.654 7.394 15.763 10.5 1.363.66 3.417 1.47 6.175 2.421 2.716.983 6.407 1.966 11.035 2.985 4.68.99 10.523 1.903 17.586 2.706 8.79.923 16.36 1.098 22.812.601 6.453-.531 11.827-1.556 16.174-3.035 4.3-1.488 7.665-3.21 10.093-5.177 1.918-1.505 3.55-3.316 4.997-5.42a38.483 38.483 0 0 0 3.595-6.603c.932-2.336 1.681-4.585 2.144-6.763.517-2.204.744-4.17.74-5.885 0-2.947-.608-5.62-1.783-8.012-1.21-2.395-2.994-4.681-5.38-6.896-2.385-2.18-5.381-4.46-8.938-6.838-3.6-2.38-7.764-4.995-12.536-7.915-.464-.358-1.542-1.026-3.137-2.022-1.586-1.028-3.32-2.112-5.235-3.314-1.918-1.204-3.603-2.245-5.005-3.118-1.402-.906-2.2-1.405-2.34-1.488-1.87-1.233-3.462-2.331-4.772-3.366-1.259-1.03-2.244-2.062-2.902-3.128-.701-1.072-1.03-2.238-1.03-3.509-.044-.177.047-.783.184-1.83.186-1.042.697-2.222 1.495-3.506.794-1.252 2.147-2.304 4.015-3.127 1.822-.832 4.44-1.092 7.759-.768 2.717.332 4.816.836 6.36 1.55 1.543.684 2.668 1.459 3.37 2.29.708.832 1.123 1.56 1.31 2.235.142.631.236 1.086.19 1.323.003.79-.187 1.694-.466 2.795-.276 1.066-.652 2.125-1.029 3.177-.37 1.058-.741 1.91-1.02 2.6l42.36 4.616a56.023 56.023 0 0 0 1.538-5.419c.471-1.802.696-3.696.698-5.65-.05-4.228-1.365-8.07-4.036-11.519-2.618-3.436-6.316-6.48-11.041-9.122-4.723-2.607-10.24-4.784-16.554-6.539-6.315-1.75-13.187-3.013-20.577-3.82-8.178-.89-15.662-1.088-22.439-.591-6.73.463-12.623 1.64-17.576 3.5-5 1.889-8.832 4.457-11.588 7.722-1.164 1.415-2.288 3.249-3.455 5.487-1.167 2.238-2.1 4.603-2.892 7.088-.79 2.454-1.163 4.778-1.21 6.966.056 4.157 1.504 8.017 4.406 11.591 2.86 3.533 6.928 7.064 12.165 10.585.193.122 1.123.739 2.805 1.815a596.83 596.83 0 0 0 6.318 4.082c2.525 1.644 5.096 3.298 7.766 5.03 2.667 1.734 5.097 3.3 7.201 4.73 2.11 1.395 3.651 2.457 4.538 3.1a25.928 25.928 0 0 1 2.949 2.344c.846.776 1.497 1.636 1.968 2.615.468.943.703 2.135.705 3.47.046.998-.141 2.18-.467 3.518a11.923 11.923 0 0 1-1.915 3.905c-.93 1.267-2.287 2.253-4.064 2.985-1.585.512-3.177.75-4.673.757-1.541-.028-2.715-.089-3.461-.203-1.632-.145-3.317-.535-5.05-1.102a10.863 10.863 0 0 1-4.3-2.525c-1.212-1.162-1.83-2.702-1.879-4.594.05-1.847.373-3.696 1.025-5.475a47.864 47.864 0 0 1 2.054-5.093l-43.203-4.71zm-70.468-37.512c1.03-3.901 2.004-7.257 2.938-10.106.982-2.84 2.1-5.153 3.453-6.96 1.307-1.777 3.036-3.029 5.187-3.72 2.153-.729 4.906-.873 8.32-.501.985.106 2.105.265 3.416.58 1.262.271 2.57.69 3.878 1.243 1.264.553 2.434 1.295 3.37 2.22a7.275 7.275 0 0 1 1.779 2.73c.326.997.47 2.041.471 3.072.006.754-.14 1.767-.465 3-.28 1.274-.654 2.638-1.073 4.1a70.329 70.329 0 0 1-1.302 4.178c-.42 1.325-.795 2.45-1.075 3.312l-28.897-3.148zm19.388 34c-.927 3.089-1.96 5.72-3.078 7.962-1.073 2.282-2.707 3.924-4.858 5.025-2.144 1.068-5.328 1.374-9.443.96-2.944-.32-5.517-.98-7.67-1.97-2.103-.945-3.695-2.116-4.678-3.491a7.92 7.92 0 0 1-.657-1.716 7.62 7.62 0 0 1-.186-1.667c-.003-1.615.278-3.571.789-5.811a77.967 77.967 0 0 1 1.959-7.057c.743-2.424 1.536-4.668 2.28-6.747l71.821 7.831c1.398-4.444 2.656-8.557 3.87-12.403 1.164-3.816 2.282-7.672 3.401-11.491a74.52 74.52 0 0 0 1.77-6.873c.468-2.312.743-4.581.743-6.842-.05-4.876-1.317-9.096-3.8-12.623-2.478-3.529-5.71-6.522-9.732-8.913-3.975-2.424-8.374-4.375-13.096-5.885a112.708 112.708 0 0 0-14.032-3.52c-4.579-.807-8.74-1.432-12.387-1.796-10.192-1.077-18.704-1.216-25.575-.453-6.914.717-12.48 2.064-16.781 3.929-4.295 1.894-7.616 4.003-9.998 6.35-2.426 2.342-4.203 4.584-5.414 6.714-.794 1.318-1.822 3.401-3.085 6.21-1.212 2.784-2.516 6.072-3.962 9.858-1.441 3.785-2.844 7.78-4.243 11.982-1.397 4.237-2.706 8.415-3.87 12.575-1.162 4.157-2.097 8-2.796 11.593-.696 3.556-1.072 6.605-1.067 9.074.052 3.878.616 7.234 1.783 10.069 1.13 2.83 2.627 5.258 4.501 7.28 1.876 2.02 3.882 3.748 6.08 5.189 3.37 2.254 7.017 4.158 11.04 5.728a94.972 94.972 0 0 0 11.97 3.842 137.733 137.733 0 0 0 10.942 2.324c3.273.528 5.892.884 7.858 1.098 8.746.921 16.315 1.196 22.765.767 6.41-.433 11.83-1.384 16.317-2.885 4.443-1.47 8.178-3.325 11.123-5.576 3.039-2.17 5.51-4.576 7.423-7.213 1.87-2.643 3.413-5.389 4.576-8.21a99.379 99.379 0 0 0 3.125-8.234l-45.728-4.984zm-71.603-54.3a41.425 41.425 0 0 0 1.4-4.958c.37-1.744.558-3.575.554-5.53-.05-3.571-.754-6.63-2.11-9.178-1.355-2.547-3.14-4.695-5.337-6.377a29.843 29.843 0 0 0-7.11-4.134c-2.523-.996-5.004-1.78-7.344-2.31-2.379-.5-4.44-.862-6.172-1.018-1.215-.166-3.18-.277-5.84-.36-2.712-.09-5.894.079-9.54.503-3.69.42-7.617 1.327-11.777 2.727-4.205 1.358-8.416 3.404-12.666 6.165l3.64-10.51-44.045-4.801-34.405 106.52 43.765 4.773 24.335-74.701c.186-.838.604-1.96 1.162-3.338.612-1.34 1.494-2.717 2.71-4.058 1.266-1.337 2.892-2.43 4.998-3.227 2.106-.765 4.769-1.025 7.948-.712.327.003 1.03.114 2.105.333 1.078.219 2.244.657 3.509 1.24 1.264.617 2.384 1.531 3.319 2.692.94 1.199 1.404 2.723 1.453 4.687.05.413.002 1.063-.093 1.943-.088.879-.324 1.916-.743 3.107l-24.054 74.939 44.607 4.863 25.731-79.28zm-175.948-47.37l-18.23-1.99-6.15 19.085L181 79.074l-20.701 61.11c-.84 2.103-1.45 3.958-1.866 5.523a18.996 18.996 0 0 0-.65 4.901c.006 4.08 1.271 7.375 3.844 9.918 2.526 2.571 6.313 4.595 11.317 6.137 5.007 1.54 11.273 2.804 18.705 3.822 7.44 1.047 16.087 2.06 25.904 3.097l6.439-20.281c-4.207-.427-7.675-.871-10.339-1.333-2.708-.468-4.678-1.196-5.987-2.164-1.304-.964-1.917-2.369-1.92-4.254-.001-.96.138-2.007.324-3.153.235-1.14.512-2.17.79-3.103l18.188-55.42 19.639 2.142 6.433-19.047-19.92-2.172 11.187-33.755-44.043-4.804-10.912 33.787zM86.803 159.33l44.327 4.83 34.682-106.492-44.602-4.862L86.803 159.33zM53.293 45.404L35.06 43.416l-6.156 19.076L46.86 64.45l-28.253 87.442 44.886 4.894 28.249-87.443 19.64 2.14 6.437-19.047-19.638-2.143c.274-.894.648-2.053 1.117-3.443.512-1.349.978-2.704 1.493-3.984.464-1.289.93-2.232 1.303-2.842.797-1.287 1.87-2.162 3.227-2.632 1.403-.497 3.503-.68 6.356-.543 2.851.137 6.874.545 12.016 1.208l6.437-19.256a430.61 430.61 0 0 0-13.609-2.133 540.466 540.466 0 0 0-12.767-1.563c-7.619-.833-14.025-1.185-19.122-1.091-5.092.132-9.257.673-12.432 1.7-3.225.983-5.75 2.389-7.62 4.171a21.604 21.604 0 0 0-4.574 6.532c-1.165 2.548-2.283 5.443-3.359 8.65l-3.356 10.336zM132.4 19.05l-7.835 23.837 44.609 4.859 7.547-23.864-44.32-4.832z"/><path fill="#FF0" d="M496.777 152.292l.257-.829c.298.32.603.639.914.956l-1.171-.127z"/></svg>