<?xml version="1.0" encoding="utf-8"?>
<!-- Generator: Adobe Illustrator 22.0.1, SVG Export Plug-In . SVG Version: 6.00 Build 0)  -->
<svg version="1.1" id="Layer_1" xmlns="http://www.w3.org/2000/svg" xmlns:xlink="http://www.w3.org/1999/xlink" x="0px" y="0px"
	 viewBox="0 0 604.6689 192.6827" enable-background="new 0 0 604.6689 192.6827" xml:space="preserve">
<path fill="#004E94" d="M580.3235,60.3378l-50.7847-2.8268l-58.6874-3.2654c-2.852-0.1969-5.6079-0.2967-8.192-0.2967h-0.0002
	c-7.4623,0.0002-13.9151,0.8461-19.3331,2.5276l2.7844-3.6073l-12.0535-0.6713l-33.438-1.8622l-3.2036-0.1785l-2.0456,2.4719
	l-43.9089,53.0602c-1.7001,1.3762-3.8409,2.1183-6.5222,2.2619l-46.891-2.8156c-0.7485-0.0417-1.4103-0.0967-1.9938-0.1599
	l40.5161-48.012l8.2155-9.7354l-12.719-0.7078l-30.4344-1.6935l15.2703-18.9049l7.7938-9.6489l-12.3843-0.6892l-33.4381-1.8606
	l-3.2296-0.1797l-2.0458,2.5056l-16.6571,20.4013c1.4518-3.5725,1.6031-7.5584,0.3914-11.5443
	c-2.2059-7.2566-8.9672-14.3066-16.4421-17.1443l-0.3853-0.1463l-0.4009-0.0953c-6.3293-1.5041-13.9108-2.6559-22.534-3.4237
	l-0.1051-0.0094l-0.1054-0.0059l-66.4633-3.6976C146.3165,0.1292,141.7022,0,137.1816,0c-5.0578,0-10.1499,0.1617-15.1348,0.4805
	l-0.302,0.0193l-0.2987,0.0479c-17.7598,2.8482-32.2563,9.1675-43.0867,18.7822l-0.3987,0.354l-0.3342,0.4154L7.7538,106.969
	L0,116.609l12.3522,0.6877l35.3297,1.9672l3.1877,0.1775l2.0452-2.4514l37.9337-45.469l106.7455,5.9411
	c2.0458,0.1137,4.044,0.1713,5.9396,0.1713c9.6411,0,17.3716-1.4364,23.3441-4.3612l-35.1643,43.0686l-7.8955,9.6703l12.4648,0.6937
	l34.2759,1.9075l3.2508,0.1808l2.0457-2.5327l6.7898-8.4059c1.4066,3.1992,4.5177,6.6793,11.055,9.1995
	c6.2302,2.4017,15.1231,3.8954,27.1867,4.5664l58.1003,3.2352c3.5571,0.198,6.9951,0.2983,10.2185,0.2983
	c9.1982,0,17.0787-0.7963,23.6972-2.4075l-3.5177,3.5279l14.0696,0.8488l44.0901,2.66l0.0147,0.0009l0.0148,0.0008l58.0978,3.2344
	c3.5587,0.1981,6.9984,0.2985,10.2235,0.2985c23.0576,0,37.8406-5.0042,45.1939-15.2987l10.3902-14.5496
	c4.6954-6.5719,5.9045-12.3471,3.593-17.1637c-3.7137-7.7389-14.5282-8.3406-18.082-8.5383l-70.0144-3.8967
	c2.3849-1.3308,5.6471-2.0039,9.7249-2.0039c0.7292,0,1.4928,0.022,2.2695,0.0654l29.2611,1.6275l14.2121,0.7914l47.2338,2.6295
	l3.4968,0.1947l2.0322-2.8526l9.9396-13.953l6.6898-9.391L580.3235,60.3378z M198.4318,42.9841
	c-3.0049,3.6172-8.5915,5.4511-16.6065,5.4511c-1.0305,0-2.114-0.031-3.2201-0.0923l-65.955-3.6713l11.2188-12.7669
	c4.7736-2.8458,8.9482-4.2897,17.1046-4.2897c1.6541,0,3.4616,0.0558,5.5258,0.1706l47.0241,2.6174
	c2.3435,0.1306,6.118,0.5275,9.6832,1.25c1.4187,0.2875,2.5549,0.5749,3.4583,0.8415L198.4318,42.9841z M498.7779,113.2859
	c-0.1205,0.1143-0.2421,0.2293-0.3663,0.3463c-1.7419,1.5195-3.9647,2.3333-6.7851,2.4832l-46.8879-2.8162l-43.4074-2.4168
	l7.9781-10.3359c0.0981,0.2814,0.209,0.562,0.3338,0.8417c2.1053,4.7206,7.1878,7.3376,15.1066,7.7786L498.7779,113.2859z"/>
<path fill-rule="evenodd" clip-rule="evenodd" fill="#FFFFFF" d="M425.1031,102.8222c-11.4262-0.6364-13.1086-5.9778-5.0447-16.0281
	l12.0966-15.075c5.4848-8.8128,18.2501-12.522,38.301-11.1309l58.7297,3.2676l50.7846,2.8268l-9.9395,13.953l-47.2336-2.6295
	l-14.2126-0.7915l-29.2595-1.6274c-7.5227-0.4199-13.3238,0.917-17.3945,4.005l-8.4735,9.8905l83.1805,4.6294
	c13.3749,0.7442,16.6,5.965,9.6705,15.6641l-10.3896,14.549c-6.9277,9.6986-23.5598,13.8146-49.8933,12.349l-58.0978-3.2345
	l-44.0901-2.6599l13.7039-13.7437l46.8164,2.6066l47.2194,2.8361c4.4827-0.1657,8.1855-1.5486,11.1135-4.147
	c4.9917-4.696,8.11-8.2524,9.3534-10.6723L425.1031,102.8222z M400.2656,56.6805l33.438,1.8623l-44.472,57.6152
	c-6.9298,9.7006-23.5591,13.8177-49.8915,12.3526l-58.1006-3.2352c-22.5737-1.2556-33.6717-5.5358-33.2947-12.8333
	c0.0724-1.38,0.639-2.9361,1.7081-4.6717l46.1107-56.9053l35.9498,2.0005l-45.0951,53.4381
	c0.1237,3.0469,3.8048,4.7719,11.0484,5.1753l47.2236,2.8356c4.482-0.1673,8.1838-1.5474,11.1141-4.1482L400.2656,56.6805z
	 M311.959,21.929l-81.0473,100.3381l-34.276-1.9075l81.8851-100.2913L311.959,21.929z M193.8766,24.0581l-47.0246-2.6175
	c-13.2558-0.7369-19.3212,0.7221-27.1146,5.5387L99.253,50.2903l79.0009,4.3976c11.9819,0.6633,20.3587-1.9077,25.1296-7.72
	l11.22-14.2953C218.4383,27.0244,201.3349,24.4734,193.8766,24.0581z M88.0141,64.9986l-39.9789,47.9204l-35.3297-1.9672
	l69.8727-86.8697c9.9587-8.8409,23.2491-14.5937,39.8741-17.2599c9.2549-0.5918,18.6171-0.6203,28.0912-0.0934l66.4633,3.6976
	c8.345,0.743,15.5541,1.8331,21.6283,3.2766c7.941,3.0148,17.2496,14.0324,11.2467,22.4813l-19.2171,26.3921
	c-5.6499,6.592-16.5549,9.4385-32.7177,8.5407L88.0141,64.9986z"/>
<path fill-rule="evenodd" clip-rule="evenodd" fill="#F27324" d="M555.8671,103.1411
	c31.7387,14.6902,49.8688,30.4102,48.7532,45.1392c-2.8544,37.738-130.9468,54.7192-286.0396,37.9211
	c-120.3834-13.0399-221.693-42.6072-259.6774-72.8365c49.5813,22.9469,132.3784,43.3873,226.94,53.6308
	c155.0954,16.7978,283.1833-0.1822,286.0404-37.9208C572.5255,120.6287,566.8179,111.8575,555.8671,103.1411z"/>
</svg>
