<?xml version="1.0" encoding="utf-8"?>
<!-- Generator: Adobe Illustrator 22.0.1, SVG Export Plug-In . SVG Version: 6.00 Build 0)  -->
<svg version="1.1" id="Layer_1" xmlns="http://www.w3.org/2000/svg" xmlns:xlink="http://www.w3.org/1999/xlink" x="0px" y="0px"
	 viewBox="0 0 743.829 238.4723" enable-background="new 0 0 743.829 238.4723" xml:space="preserve">
<path fill="#004E94" d="M86.2805,0c-0.652,0-1.2867,0.0057-1.9055,0.0171l-0.0525,0.001L84.27,0.0195
	c-6.5518,0.1701-11.8737,0.935-16.2639,2.338c-5.2241,1.6095-9.6266,4.0978-13.0864,7.3969l-0.0612,0.0584l-0.0604,0.059
	c-3.1408,3.068-5.6718,6.6764-7.5231,10.725c-1.299,2.8407-2.5691,6.0879-3.7775,9.6564l-6.9191-0.7543l-11.3373-1.236
	l-3.5031,10.8532l-6.1567,19.0754l-5.2784,16.354l17.0834,1.8636l0.8676,0.0947L5.2856,147.5889L0,163.9474l17.09,1.8634
	l44.8862,4.8941l6.2217,0.6784l-0.0005,0.0016l17.0891,1.8624l44.3264,4.8306l11.3066,1.2321l3.522-10.8143l1.8854-5.7892
	c1.3097,2.8528,3.1138,5.4417,5.3884,7.7067c4.1748,4.2189,9.7723,7.3693,17.1078,9.6292
	c5.6925,1.7513,12.5205,3.1595,20.8776,4.3064c4.1907,0.5901,8.9321,1.1934,14.3282,1.8224l-0.0058,0.018l3.2498,0.3543
	c2.7707,0.3133,5.7034,0.6333,8.8098,0.9614l0.2637,0.0279l4.7649,0.5195l43.7656,4.7718l9.5912,1.0458l-0.0001,0.0004
	l17.0569,1.8594l44.6076,4.8629l11.3186,1.2339l3.5149-10.8295l2.2362-6.89c1.1923,1.8976,2.5369,3.6556,4.0261,5.2614
	c2.6503,2.8559,5.5473,5.3249,8.6146,7.3425c4.271,2.8502,8.746,5.1721,13.679,7.0974c4.5288,1.783,9.1358,3.2615,13.6564,4.3802
	c3.9525,1.0083,7.8742,1.8406,11.9861,2.5438l0.0654,0.0112l0.0654,0.0106c3.2999,0.5322,6.1839,0.934,8.5717,1.1941l0.025,0.0027
	l0.0249,0.0026c6.6534,0.7006,12.52,1.0413,17.935,1.0413c2.512,0,4.9427-0.0768,7.2245-0.2286
	c7.7093-0.5207,14.1906-1.6904,19.8295-3.5766c5.8291-1.9292,10.8867-4.4858,14.9969-7.588
	c0.7242-0.5217,1.4281-1.0566,2.112-1.6047c0.3589,0.4589,0.7307,0.9111,1.115,1.3559
	c4.7326,5.4774,11.4473,10.0826,20.5229,14.0745c1.8607,0.8821,4.2715,1.8317,7.3538,2.8969
	c3.1997,1.1498,7.3493,2.2801,12.6803,3.454l0.0569,0.0125l0.0569,0.012c5.2215,1.1044,11.5805,2.0864,18.9003,2.9189l0.0596,0.0068
	l0.0598,0.0062c5.9994,0.6302,11.6574,0.9498,16.817,0.9498c2.9631,0,5.8336-0.1052,8.5319-0.3129l0.0375-0.0029l0.0375-0.0031
	c7.5974-0.6257,13.9871-1.8473,19.5342-3.7347l0.0342-0.0116l0.034-0.0119c5.3594-1.8544,9.7116-4.0512,13.2566-6.6957
	c4.6769,5.1293,11.1776,9.488,19.822,13.293c1.8495,0.8815,4.2648,1.8333,7.3668,2.903c3.2355,1.1652,7.2701,2.2654,12.6795,3.4579
	l0.0575,0.0128l0.0576,0.0123c5.1987,1.1002,11.5552,2.0822,18.8929,2.9182l0.0604,0.0068l0.0605,0.0064
	c6.0001,0.6309,11.6592,0.9507,16.8203,0.9507c2.9639,0,5.836-0.1054,8.5365-0.3132l0.0395-0.003l0.0396-0.0034
	c7.6011-0.6281,13.9906-1.8511,19.5338-3.739l0.0306-0.0104l0.0305-0.0105c5.859-2.0256,10.5206-4.4661,14.2475-7.4595
	c2.9367-2.3184,5.4875-5.0734,7.7954-8.4189l0.04-0.058l0.0395-0.0584c1.9443-2.8801,3.5909-5.9138,4.894-9.0164l0.0417-0.0994
	l0.0402-0.1002c1.2836-3.1932,2.2053-6.1097,2.8156-8.9112c0.72-3.1082,1.0842-6.1229,1.0828-8.962
	c-0.0021-5.0464-1.0823-9.8107-3.2106-14.1592l-0.0466-0.0954l-0.0481-0.0946c-1.9597-3.8549-4.7592-7.4887-8.3215-10.8013
	l7.5767,0.8262l11.1702,1.218l3.6066-10.6418c0.7514-2.2173,1.3676-4.381,1.8815-6.6079c0.7266-2.8587,1.0941-5.8729,1.0929-8.9631
	v-0.0742l-0.0009-0.0742c-0.0806-7.3456-2.4093-14.0347-6.9213-19.8828c-3.7639-4.9329-8.9195-9.2476-15.3253-12.8255
	l-0.0292-0.0162l-0.0294-0.0162c-5.6385-3.114-12.2244-5.7288-19.5748-7.7715c-6.9411-1.9265-14.6133-3.3554-22.8082-4.2483
	c-5.7198-0.626-11.2466-0.9437-16.4204-0.9437c-2.9263,0-5.8043,0.1016-8.5542,0.3019c-8.0279,0.5587-15.2699,2.0262-21.4798,4.3588
	c-5.2465,1.986-9.7538,4.6163-13.4725,7.8531c-3.7252-4.713-8.7387-8.8492-14.913-12.3022l-0.0341-0.0191l-0.0341-0.0187
	c-5.6465-3.1168-12.2314-5.7311-19.5718-7.7704c-6.9515-1.9271-14.6221-3.3558-22.8059-4.2482
	c-5.7369-0.6243-11.259-0.9406-16.4166-0.9406c-2.9221,0-5.7929,0.1014-8.5334,0.3016c-8.0517,0.5569-15.2869,2.0236-21.506,4.3593
	c-6.3814,2.4097-11.6794,5.787-15.7986,10.0628c-0.2907-0.4573-0.5929-0.9088-0.9067-1.3543
	c-3.6186-5.1542-8.3167-9.4811-13.9542-12.8453c-4.8194-2.9304-10.2217-5.3617-16.0581-7.2267
	c-5.1836-1.6575-10.4901-2.9888-15.7696-3.9562l-0.0469-0.0086l-0.0469-0.0082c-5.252-0.9254-9.6316-1.5582-13.3868-1.9343
	c-6.339-0.6686-12.2239-1.0077-17.4924-1.0077c-3.9268,0-7.6268,0.1884-10.9984,0.5599c-8.1384,0.847-15.1579,2.5311-20.8649,5.0057
	l-0.0404,0.0175l-0.0401,0.0178c-5.4118,2.387-9.7558,5.1082-13.2357,8.2952c-0.3558-0.8492-0.748-1.6765-1.1767-2.4813
	c-2.3008-4.3268-5.3778-7.9902-9.1425-10.882c-3.1991-2.4883-6.6916-4.5118-10.3814-6.0144l-0.0681-0.0277l-0.0685-0.027
	c-3.2121-1.269-6.373-2.2593-9.3948-2.9437l-0.107-0.0242l-0.1074-0.0225c-3.0728-0.6454-5.4018-1.0289-7.4928-1.2322
	c-1.6451-0.2061-3.7622-0.3387-6.9626-0.4384c-0.592-0.0197-1.2343-0.0302-1.8951-0.0302c-2.8963,0-6.1586,0.2086-9.6965,0.6199
	c-0.4207,0.0479-0.8436,0.1008-1.2692,0.1587l-16.4005-1.7877l-44.0443-4.8008l-8.611-0.9386l5.7374-17.3116l5.4498-16.4436
	l-17.2209-1.8783l-44.0438-4.8037l-11.3359-1.2364l-0.001,0.0033l-10.287-1.1216l-44.3209-4.8324l-1.8105-0.1974
	c-4.39-0.7582-8.8535-1.4557-13.6287-2.1295l-0.0538-0.0076l-0.0539-0.0071c-4.8665-0.6483-9.1508-1.1726-13.0982-1.6029
	C98.0632,0.4001,91.6716,0,86.2805,0L86.2805,0z M609.7484,164.6067c-0.0418-0.0872-0.084-0.174-0.1266-0.2609l-0.0359-0.073
	l-0.0366-0.0725c-1.9511-3.8589-4.7573-7.5032-8.3406-10.8311l6.0718,0.6618c1.1956,2.6288,2.7695,5.1491,4.7175,7.5496
	c0.9905,1.2241,2.0673,2.4308,3.2346,3.6237L609.7484,164.6067L609.7484,164.6067z"/>
<path fill-rule="evenodd" clip-rule="evenodd" fill="#FFFFFF" d="M603.3502,177.9924c-0.8822,2.0288-1.6332,4.1103-2.2844,6.233
	c-0.6983,2.1176-1.0261,4.4482-1.071,6.9796c-0.0413,5.3092,1.6453,9.8842,5.0174,13.7819
	c3.3705,3.9008,8.6572,7.3913,15.7657,10.4968c1.3543,0.6619,3.4109,1.4706,6.1693,2.4196
	c2.7215,0.9874,6.4091,1.9695,11.0385,2.9901c4.678,0.9901,10.5201,1.9005,17.5789,2.7048
	c8.7954,0.9247,16.3636,1.0987,22.8187,0.6021c6.4554-0.5336,11.8264-1.5587,16.1736-3.0392
	c4.3005-1.4867,7.6618-3.2107,10.094-5.1745c1.9178-1.5046,3.5467-3.3161,4.9992-5.4219c1.4009-2.0751,2.6117-4.2756,3.5898-6.6043
	c0.9376-2.3322,1.6778-4.5803,2.1453-6.7585c0.5179-2.2074,0.7437-4.1694,0.7428-5.8859c-0.0013-2.9472-0.6152-5.621-1.7853-8.0121
	c-1.2169-2.3938-2.9963-4.6816-5.3781-6.8961c-2.3901-2.1797-5.3832-4.461-8.9403-6.8378
	c-3.5977-2.3816-7.7636-4.9951-12.5383-7.9146c-0.463-0.361-1.5413-1.0268-3.1307-2.0231
	c-1.5892-1.0316-3.3233-2.1096-5.2382-3.3125c-1.9161-1.2045-3.6026-2.2455-5.0077-3.1178
	c-1.3998-0.9073-2.1985-1.4057-2.3383-1.4907c-1.8683-1.2334-3.4644-2.3309-4.7715-3.365c-1.261-1.0298-2.2465-2.064-2.9014-3.1279
	c-0.6987-1.0715-1.0322-2.2387-1.0328-3.5079c-0.0421-0.176,0.0464-0.7847,0.187-1.8322c0.1888-1.0409,0.6976-2.2223,1.4937-3.5029
	c0.7925-1.2543,2.1449-2.3044,4.0162-3.131c1.8248-0.8315,4.4401-1.0927,7.7581-0.7653c2.7158,0.3296,4.8168,0.8358,6.3604,1.5506
	c1.5449,0.6845,2.6682,1.4571,3.3682,2.2863c0.7048,0.8329,1.1229,1.5625,1.3127,2.2363c0.1412,0.6331,0.2342,1.0896,0.1876,1.3234
	c0.0002,0.7878-0.1845,1.6924-0.4666,2.7931c-0.2742,1.0688-0.6517,2.1247-1.0237,3.1805
	c-0.3698,1.0581-0.7441,1.9105-1.0256,2.5982l42.3621,4.6194c0.6056-1.7867,1.1175-3.5833,1.5363-5.4237
	c0.4717-1.8017,0.6981-3.6954,0.6974-5.6483c-0.0463-4.2225-1.3622-8.0696-4.0305-11.5154
	c-2.6171-3.4402-6.3184-6.4845-11.0438-9.1239c-4.7224-2.608-10.2431-4.7837-16.5552-6.538
	c-6.3058-1.7502-13.1888-3.0145-20.5759-3.8194c-8.1791-0.8951-15.6608-1.0902-22.441-0.5965
	c-6.7255,0.4681-12.6206,1.6411-17.5742,3.5018c-4.9976,1.8918-8.8342,4.4563-11.5859,7.7209
	c-1.1704,1.4156-2.2921,3.2493-3.4566,5.4886c-1.1664,2.2367-2.1002,4.6039-2.8923,7.0902
	c-0.7931,2.4485-1.1652,4.7751-1.2075,6.9671c0.0502,4.1552,1.5023,8.0139,4.4029,11.5884
	c2.8608,3.5353,6.9292,7.0645,12.1636,10.5846c0.1895,0.1225,1.1256,0.7373,2.8077,1.8131c1.6876,1.1112,3.79,2.4715,6.3169,4.0846
	c2.5308,1.6472,5.0992,3.2976,7.7677,5.0276c2.6666,1.7339,5.0983,3.3013,7.2029,4.7312c2.1062,1.3936,3.6484,2.4548,4.5366,3.0976
	c1.1299,0.7763,2.105,1.5686,2.9466,2.3472c0.8441,0.7767,1.4982,1.6362,1.963,2.6149c0.4743,0.9412,0.707,2.1323,0.7081,3.4698
	c0.0541,0.9986-0.1357,2.1813-0.4677,3.5163c-0.3672,1.3298-0.9753,2.6367-1.9115,3.9044c-0.928,1.2704-2.2876,2.2545-4.0614,2.9883
	c-1.5883,0.5118-3.1816,0.7492-4.6763,0.7585c-1.5383-0.0303-2.7134-0.0907-3.4606-0.2058
	c-1.6335-0.1467-3.3176-0.5336-5.0496-1.1014c-1.6822-0.5242-3.133-1.4037-4.3049-2.5244c-1.2126-1.1604-1.822-2.7023-1.8708-4.5918
	c0.0449-1.8503,0.3674-3.6991,1.0217-5.4809c0.6075-1.8199,1.3057-3.4925,2.0518-5.0918L603.3502,177.9924z M486.0643,165.2068
	c-0.8842,2.0296-1.635,4.1091-2.2861,6.2313c-0.6979,2.116-1.0243,4.4499-1.068,6.9812c-0.0424,5.3085,1.6457,9.8825,5.0135,13.7806
	c3.369,3.8992,8.654,7.3932,15.7632,10.4984c1.3629,0.6604,3.4169,1.4707,6.1748,2.4218c2.7165,0.9832,6.407,1.966,11.0357,2.9852
	c4.6793,0.9896,10.5227,1.9023,17.5856,2.7055c8.79,0.9234,16.3607,1.098,22.8122,0.6015
	c6.4525-0.5313,11.8265-1.5566,16.1737-3.0357c4.3005-1.488,7.6646-3.2097,10.0932-5.1765c1.918-1.5054,3.5505-3.3157,4.9971-5.4203
	c1.4031-2.0772,2.6143-4.2749,3.5952-6.603c0.9316-2.3362,1.6808-4.5844,2.1433-6.7629c0.5172-2.2041,0.7442-4.1702,0.7399-5.8849
	c0.0013-2.9466-0.6077-5.6197-1.7824-8.0118c-1.2109-2.395-2.9946-4.6812-5.3811-6.8963c-2.3839-2.1804-5.3803-4.4604-8.9375-6.838
	c-3.5988-2.3805-7.7634-4.9947-12.5352-7.9151c-0.4647-0.3576-1.5426-1.0254-3.137-2.022
	c-1.5868-1.0275-3.3196-2.1113-5.2357-3.3141c-1.9181-1.2036-3.6029-2.2442-5.0046-3.1179c-1.402-0.9057-2.2004-1.4053-2.341-1.4883
	c-1.8687-1.2322-3.4611-2.331-4.7713-3.3658c-1.2587-1.0305-2.2441-2.0613-2.9014-3.1279
	c-0.7016-1.0722-1.0295-2.2377-1.0296-3.5085c-0.0447-0.1775,0.0461-0.7834,0.1829-1.8301
	c0.1866-1.0423,0.6974-2.2219,1.4951-3.5065c0.7939-1.2514,2.1468-2.3035,4.0152-3.1265c1.8219-0.8317,4.4391-1.0925,7.7588-0.7681
	c2.7173,0.3321,4.8159,0.836,6.3594,1.5508c1.5435,0.6829,2.6689,1.4577,3.3714,2.2893c0.7072,0.8322,1.1226,1.5602,1.3102,2.2344
	c0.1415,0.6319,0.2349,1.0867,0.1898,1.323c0.0026,0.7905-0.1879,1.6942-0.4671,2.7951c-0.2758,1.0663-0.6517,2.1251-1.0281,3.1778
	c-0.3705,1.0575-0.7416,1.9089-1.0207,2.5989l42.3606,4.6169c0.6056-1.7867,1.114-3.5798,1.5381-5.4189
	c0.4709-1.8019,0.6954-3.6965,0.6978-5.65c-0.0507-4.2283-1.365-8.0703-4.0366-11.519c-2.6172-3.436-6.3152-6.4799-11.0411-9.1228
	c-4.7226-2.6068-10.2401-4.7839-16.554-6.5381c-6.3148-1.7506-13.1863-3.0139-20.5762-3.8199
	c-8.1783-0.8897-15.6621-1.0884-22.4391-0.5917c-6.7305,0.4635-12.6234,1.6404-17.5767,3.5008
	c-4.9997,1.8879-8.8315,4.456-11.5872,7.721c-1.1642,1.4153-2.288,3.249-3.4554,5.4876c-1.1673,2.2382-2.1008,4.6029-2.8918,7.0882
	c-0.7892,2.4537-1.1628,4.7778-1.2098,6.9653c0.0558,4.157,1.5034,8.0168,4.4052,11.5915c2.861,3.5332,6.928,7.0642,12.1653,10.585
	c0.1927,0.1216,1.1232,0.7385,2.8055,1.8148c1.6898,1.1096,3.7922,2.4699,6.3175,4.0821c2.5255,1.6442,5.0961,3.2978,7.7658,5.0302
	c2.6677,1.7332,5.097,3.2993,7.2017,4.7288c2.1105,1.3963,3.6509,2.4575,4.5377,3.1004c1.1288,0.7735,2.1066,1.5659,2.9485,2.3442
	c0.8469,0.7765,1.4974,1.636,1.9687,2.6149c0.4677,0.9436,0.7026,2.1352,0.7049,3.4708c0.0454,0.9974-0.1412,2.18-0.4675,3.5172
	c-0.3694,1.3262-0.9788,2.6333-1.915,3.9053c-0.93,1.2674-2.2869,2.253-4.0636,2.9848c-1.5854,0.5125-3.1766,0.7495-4.6735,0.757
	c-1.541-0.0279-2.7144-0.0883-3.4606-0.2032c-1.632-0.1442-3.3173-0.5349-5.0504-1.1016c-1.6776-0.5257-3.1323-1.4031-4.2989-2.5247
	c-1.2123-1.1621-1.8301-2.7024-1.8793-4.5942c0.0501-1.847,0.3727-3.6957,1.0242-5.4751c0.608-1.8211,1.3088-3.4927,2.0541-5.0926
	L486.0643,165.2068z M415.5963,127.6946c1.0304-3.9011,2.0038-7.257,2.9377-10.1055c0.9824-2.841,2.0994-5.1536,3.4531-6.961
	c1.3068-1.7765,3.0356-3.0276,5.1866-3.72c2.1535-0.7281,4.9059-0.8717,8.3204-0.5001c0.985,0.1065,2.1048,0.2649,3.4162,0.58
	c1.2614,0.2714,2.5696,0.6907,3.8778,1.2433c1.2643,0.5531,2.4344,1.2949,3.3698,2.2198c0.8417,0.8124,1.4029,1.7299,1.7791,2.7302
	c0.3255,0.9966,0.4696,2.0409,0.4714,3.0716c0.0054,0.7545-0.1407,1.767-0.4652,3.0002c-0.2805,1.2737-0.6539,2.6374-1.0728,4.1005
	c-0.4133,1.4649-0.84,2.8584-1.3027,4.177c-0.4196,1.3257-0.7945,2.4504-1.075,3.3127L415.5963,127.6946z M434.9837,161.6952
	c-0.9265,3.0885-1.9599,5.719-3.0778,7.9614c-1.0733,2.2823-2.7071,3.9243-4.8575,5.0256
	c-2.1444,1.0674-5.3283,1.3736-9.4435,0.9604c-2.9437-0.3208-5.5166-0.9799-7.6707-1.9699
	c-2.1021-0.9459-3.6943-2.1167-4.677-3.4918c-0.2767-0.5461-0.5133-1.1183-0.657-1.7157c-0.1349-0.601-0.1854-1.1537-0.1865-1.6676
	c-0.0023-1.6145,0.2787-3.571,0.7892-5.8107c0.5179-2.2782,1.165-4.6409,1.959-7.0564c0.7427-2.4245,1.5357-4.6684,2.28-6.7472
	l71.8216,7.8311c1.398-4.4443,2.6557-8.5576,3.8698-12.4032c1.1634-3.8164,2.2818-7.6727,3.4011-11.4917
	c0.7001-2.2899,1.3041-4.5898,1.7696-6.8725c0.4685-2.3118,0.7431-4.5814,0.7431-6.8419c-0.0508-4.8758-1.3172-9.0963-3.801-12.6232
	c-2.4773-3.5288-5.7086-6.5216-9.7306-8.9132c-3.9754-2.4235-8.3743-4.3751-13.0968-5.8842
	c-4.7207-1.5095-9.3975-2.672-14.0312-3.521c-4.5794-0.8069-8.7409-1.4312-12.3879-1.7952
	c-10.1917-1.0771-18.7036-1.2158-25.5743-0.4537c-6.9143,0.717-12.4808,2.0645-16.7813,3.9293
	c-4.2945,1.8943-7.6161,4.0027-9.9978,6.3492c-2.4261,2.3425-4.2031,4.5846-5.4141,6.7146
	c-0.794,1.3187-1.8225,3.4017-3.0846,6.2112c-1.212,2.7833-2.5168,6.0715-3.9629,9.8566c-1.4409,3.7859-2.8439,7.781-4.2425,11.9826
	c-1.397,4.2369-2.7059,8.4146-3.871,12.5747c-1.1615,4.1574-2.0965,8.0002-2.795,11.5932
	c-0.6958,3.5561-1.0718,6.6052-1.0671,9.0741c0.052,3.8777,0.6161,7.2335,1.7835,10.0685c1.1293,2.8313,2.6264,5.2584,4.501,7.2797
	c1.8755,2.0211,3.8814,3.7486,6.0793,5.1896c3.3708,2.2537,7.0177,4.1586,11.0394,5.7283
	c3.9779,1.5659,7.9966,2.8608,11.9704,3.8422c3.9801,1.0169,7.6237,1.7565,10.942,2.3239c3.2733,0.528,5.8929,0.8838,7.8585,1.098
	c8.7459,0.9209,16.315,1.1952,22.7648,0.7665c6.4094-0.433,11.8299-1.3835,16.3167-2.8844
	c4.4431-1.4705,8.1781-3.3258,11.1237-5.5764c3.0385-2.1705,5.5104-4.5761,7.4229-7.2129c1.8696-2.6434,3.4133-5.3891,4.5759-8.2099
	c1.2155-2.8183,2.2403-5.5535,3.1253-8.2343L434.9837,161.6952z M363.3814,107.3943c0.5622-1.5845,1.0242-3.2486,1.3994-4.9572
	c0.3709-1.7446,0.5579-3.5755,0.554-5.5292c-0.0494-3.5719-0.7535-6.6315-2.11-9.1785c-1.3546-2.5474-3.1395-4.6953-5.3365-6.3774
	c-2.1977-1.7159-4.5841-3.1048-7.1109-4.1338c-2.5225-0.9965-5.0034-1.7804-7.3432-2.3102
	c-2.3792-0.4998-4.4394-0.8621-6.1717-1.0177c-1.2151-0.1665-3.1796-0.2777-5.8414-0.3606
	c-2.7106-0.0901-5.8926,0.0789-9.5392,0.5028c-3.6901,0.4202-7.617,1.328-11.7768,2.7272
	c-4.2054,1.3579-8.4157,3.4044-12.6663,6.1649l3.6395-10.5099l-44.0444-4.8009l-34.4051,106.5209l43.7657,4.7718l24.3344-74.7005
	c0.1861-0.8383,0.6045-1.9596,1.1623-3.338c0.6114-1.3407,1.4943-2.7171,2.7095-4.0584c1.2663-1.3366,2.8922-2.4297,4.9979-3.2268
	c2.1068-0.765,4.7691-1.0251,7.9483-0.7116c0.3268,0.0023,1.0296,0.1135,2.1056,0.3329c1.0779,0.2189,2.244,0.6567,3.5085,1.2396
	c1.2641,0.6174,2.3842,1.5313,3.3189,2.6922c0.9406,1.1986,1.4045,2.7231,1.4531,4.6873c0.0502,0.4128,0.0023,1.0628-0.0926,1.9428
	c-0.0885,0.8788-0.3248,1.9164-0.7432,3.1073l-24.0547,74.9387l44.6076,4.8629L363.3814,107.3943z M187.4328,60.0251
	l-18.2302-1.9898l-6.1502,19.0851l17.949,1.9533l-20.7015,61.11c-0.8403,2.1029-1.4505,3.9585-1.8658,5.523
	c-0.4175,1.5662-0.6529,3.2225-0.6508,4.9013c0.0064,4.0806,1.2722,7.3747,3.8447,9.9183
	c2.5264,2.5708,6.3131,4.5948,11.3172,6.1366c5.0072,1.5404,11.2728,2.8037,18.7051,3.8221
	c7.4389,1.0475,16.0869,2.0603,25.9034,3.0974l6.4392-20.2817c-4.2068-0.4265-7.6752-0.8707-10.3389-1.3326
	c-2.7077-0.4684-4.6775-1.1964-5.9867-2.1645c-1.3043-0.9635-1.9176-2.3681-1.9209-4.2535
	c-0.0007-0.9606,0.1386-2.0067,0.3247-3.1531c0.235-1.1402,0.5121-2.1703,0.7896-3.1029L225.049,83.874l19.6386,2.142l6.433-19.0465
	l-19.9195-2.1725l11.1873-33.7554l-44.0437-4.8037L187.4328,60.0251z M86.8034,159.3296l44.3263,4.8307L165.8119,57.668
	l-44.6022-4.8617L86.8034,159.3296z M53.2921,45.4037l-18.2308-1.9874l-6.1567,19.0754l17.9564,1.9589l-28.2535,87.4426
	l44.8862,4.8941l28.2489-87.4437l19.6406,2.1412l6.4364-19.0478l-19.6376-2.1427c0.2743-0.894,0.6482-2.053,1.117-3.4431
	c0.5122-1.3489,0.9775-2.704,1.4931-3.9839c0.4643-1.2889,0.9303-2.2321,1.3024-2.842c0.7973-1.2872,1.8698-2.1625,3.2273-2.6321
	c1.4031-0.4974,3.5029-0.6804,6.3565-0.543c2.8509,0.1372,6.8741,0.5448,12.0153,1.208l6.4371-19.2562
	c-4.7263-0.8215-9.2613-1.5195-13.6087-2.133c-4.3014-0.573-8.5585-1.104-12.7667-1.5628
	c-7.6189-0.8333-14.0252-1.1856-19.1221-1.0916c-5.0918,0.1323-9.2571,0.6738-12.4326,1.6999
	c-3.2249,0.9838-5.7502,2.3892-7.6199,4.1719c-1.8635,1.8204-3.4091,3.9846-4.574,6.5321c-1.165,2.5478-2.2831,5.4429-3.3585,8.6493
	L53.2921,45.4037z M132.4003,19.0508l-7.8353,23.8368l44.6086,4.8589l7.5475-23.8633L132.4003,19.0508z"/>
<path fill="#FFFF00" d="M496.7769,152.2916c0.0862-0.2775,0.1719-0.5535,0.2573-0.8283c0.298,0.3196,0.6026,0.6384,0.9134,0.9559
	L496.7769,152.2916L496.7769,152.2916z"/>
</svg>
