<?xml version="1.0" encoding="utf-8"?>
<!-- Generator: Adobe Illustrator 22.0.1, SVG Export Plug-In . SVG Version: 6.00 Build 0)  -->
<svg version="1.1" id="Layer_1" xmlns="http://www.w3.org/2000/svg" xmlns:xlink="http://www.w3.org/1999/xlink" x="0px" y="0px"
	 viewBox="0 0 414.5654 65.6469" enable-background="new 0 0 414.5654 65.6469" xml:space="preserve">
<linearGradient id="SVGID_1_" gradientUnits="userSpaceOnUse" x1="2.5" y1="32.8234" x2="417.0654" y2="32.8234">
	<stop  offset="0.6282" style="stop-color:#FEE324"/>
	<stop  offset="0.6332" style="stop-color:#FEE746"/>
	<stop  offset="0.6407" style="stop-color:#FEED71"/>
	<stop  offset="0.6488" style="stop-color:#FFF297"/>
	<stop  offset="0.6574" style="stop-color:#FFF6B7"/>
	<stop  offset="0.6666" style="stop-color:#FFF9D2"/>
	<stop  offset="0.6767" style="stop-color:#FFFCE6"/>
	<stop  offset="0.6881" style="stop-color:#FFFEF4"/>
	<stop  offset="0.702" style="stop-color:#FFFFFC"/>
	<stop  offset="0.7253" style="stop-color:#FFFFFF"/>
	<stop  offset="0.7554" style="stop-color:#FFFFFD"/>
	<stop  offset="0.7662" style="stop-color:#FFFEF6"/>
	<stop  offset="0.774" style="stop-color:#FFFCEA"/>
	<stop  offset="0.7802" style="stop-color:#FFFADA"/>
	<stop  offset="0.7856" style="stop-color:#FFF7C4"/>
	<stop  offset="0.7903" style="stop-color:#FFF4A8"/>
	<stop  offset="0.7946" style="stop-color:#FEF088"/>
	<stop  offset="0.7986" style="stop-color:#FEEB62"/>
	<stop  offset="0.8021" style="stop-color:#FEE639"/>
	<stop  offset="0.8037" style="stop-color:#FEE324"/>
</linearGradient>
<path fill="url(#SVGID_1_)" d="M16.8879,5.8461H0v58.416h11.8475V42.391h3.7028c6.1149,0,10.8406-1.5957,14.1788-4.7852
	c3.3376-3.1904,5.0065-7.7783,5.0065-13.7646c0-5.5107-1.6118-9.8877-4.8344-13.1309C26.6778,7.4672,22.3398,5.8461,16.8879,5.8461z
	 M13.5457,31.1406h-1.7746V16.9919h3.8002c2.4969,0,7.4102,1.5289,7.4102,6.4664C22.9814,29.391,20.1192,31.1406,13.5457,31.1406z
	 M90.687,13.4301c-2.7168-2.6865-5.9785-4.8066-9.7891-6.3604s-7.8633-2.3311-12.1621-2.3311
	c-5.7734,0-11.0215,1.3232-15.7402,3.9707c-4.7207,2.6475-8.4248,6.2891-11.1143,10.9248s-4.0342,9.7822-4.0342,15.4395
	s1.3511,10.8125,4.0542,15.4648c2.7021,4.6533,6.4126,8.3076,11.1333,10.9639c4.7188,2.6582,9.9531,3.9863,15.7012,3.9863
	c4.2988,0,8.3516-0.7803,12.1621-2.3389c3.8105-1.5596,7.0723-3.6865,9.7891-6.3818c2.7148-2.6953,4.8652-5.9258,6.4473-9.6914
	s2.373-7.7666,2.373-12.0029c0-4.2354-0.791-8.2305-2.373-11.9834S93.4018,16.1176,90.687,13.4301z M81.5893,48.3744
	c-3.5059,3.6318-7.791,5.4463-12.8535,5.4463c-5.0879,0-9.4004-1.8086-12.9336-5.4258c-3.5332-3.6182-5.2988-8.0586-5.2988-13.3213
	c0-5.2617,1.7539-9.6885,5.2598-13.2803c3.5078-3.5918,7.832-5.3877,12.9727-5.3877c5.0625,0,9.3477,1.8027,12.8535,5.4072
	c3.5078,3.6055,5.2617,8.0254,5.2617,13.2607C86.851,40.3099,85.0971,44.7435,81.5893,48.3744z M119.9985,53.307h18.1142v10.9551
	h-30.3749V5.8461h12.2607V53.307z M178.851,5.8461l-18.9043,31.9541v26.4619h-12.6563V37.8002L128.4243,5.8461h13.3964
	L153.6381,27.39l11.7773-21.5439H178.851z M206.1203,32.5033h28.832v1.9375c0,9.5977-2.5771,17.1982-7.7324,22.8008
	c-5.1553,5.6035-12.1357,8.4053-20.9414,8.4053c-5.8018,0-11.0215-1.2861-15.6611-3.8564
	c-4.6396-2.5713-8.252-6.1504-10.8369-10.7383s-3.877-9.7422-3.877-15.4639c0-4.377,0.7588-8.4902,2.2764-12.3398
	s3.5947-7.1455,6.2314-9.8877s5.8525-4.9043,9.6484-6.4863c3.7949-1.582,7.8408-2.373,12.1387-2.373
	c5.4053,0,10.1846,1.0811,14.3379,3.2432c4.1523,2.1621,7.8906,5.5234,11.2129,10.085l-9.5723,7.792
	c-4.2188-6.6445-9.4521-9.9668-15.7012-9.9668c-5.0889,0-9.3477,1.9316-12.7754,5.7939c-3.4277,3.8633-5.1406,8.6553-5.1406,14.377
	c0,5.4814,1.6807,9.9951,5.042,13.543c3.3623,3.5488,7.6533,5.3223,12.874,5.3223c4.0605,0,7.416-1.0889,10.0654-3.2666
	c2.6504-2.1777,4.1729-5.083,4.5684-8.7168h-14.9893V32.5033z M392.8318,53.5443V37.9988h20.9816V27.0574h-20.9025V16.5638h21.5754
	V5.8461h-33.6152V54.058h-33.0143l27.3887-48.2119H334.444v10.9551h21.9082L329.8283,62.666L301.5,0l-25.0673,53.607h-23.0682
	V5.8461h-12.0607v58.416h30.1465h0.2285h12.4902l6.3815-13.1554l21.5352,0.06l5.4134,13.0954h11.4063h1.6445h50.3213h0.8787h32.8156
	V53.5443H392.8318z M294.9879,40.1459l6.0977-14.3125l6.1458,14.3125H294.9879z"/>
</svg>
