<svg xmlns="http://www.w3.org/2000/svg" viewBox="0 0 246.03 42.51"><path fill="gray" d="M242.91 26.18c.31 2.78-3.55 1.51-5.81 1.8-1.69 3.02-4.27 6.39-3.7 10.78 1.67.7 3.39-1.43 5.02 0-1.32 4.06-9.01 3.85-10.3.51-1.55-4.02 2.47-7.31 3.17-10.78-2.52-.11-5.73.43-6.87-1.03.53-2.82 5.24-1.58 8.19-2.05 2.1-2.74 3.51-8.35 8.72-6.42-.44 2.57-1.91 4.15-2.91 6.16 1.83.02 3.48.22 4.49 1.03m-22.78 11.04c-.75-4.71 2.19-7.92 2.64-12.31-.91-.4-2.41-.23-3.7-.26-3.38 2.96-6.37 6.3-9.78 9.23.94-2.21.97-4.64 2.11-6.41.66-1.01 2.39-1.3 2.12-2.82-.82-1.68-3.54-.74-5.29-.51-1.73 3.08-4.4 8.59-4.76 13.07-.12 1.55-.29 3.59 1.32 4.36 5.34-1.14 7.15-7.08 10.84-8.97-.54 2.38-1.45 4.47-.26 6.41 1.72 2.82 8.77 2.69 8.99-1.28-.81-.76-2.7-.46-4.23-.51m-34.15-5.64c1.93-1.87 4.16-6.77 7.4-4.87.09 4.11-3.16 4.98-7.4 4.87m15.6 4.87c-3.44-2.16-7.07 2.41-11.37 2.56-3.29.13-7.71-.85-5.82-5.13 6.48.33 14.25-1.07 14.01-6.41-.18-3.95-6.59-4.74-10.05-3.08-3.33 1.61-10.97 8.55-9.78 13.33 1.22 4.9 12.34 3.9 17.18 2.56 2.26-.6 5.91-1.23 5.83-3.83m-29.41-1.03c-.94.2-.51 1.74-1.32 2.05-4.01 2.11-12.58 2.99-14.01-1.54-1.51-4.76 5.22-12.36 9.78-13.08.23.46.97.43 1.06 1.03.5 2.92-2.06 4.13-1.32 6.41 3.77 1.61 6.86-1.65 7.67-4.62-1.97-1.23-1.01-3.01-2.64-4.36-2.32-1.92-7.05-1.25-9.78 0-4.76 2.18-10.89 9.78-10.31 14.63.5 4.13 6.64 6.27 11.1 5.9 5.89-.48 12.99-1.78 14.54-6.16-.6-1.24-3.75-.87-4.77-.26m-25.44-10.77c-7.58-.26-8.76 7.05-13.21 8.97.62-3.76 2.39-6.4 4.23-8.97-.92-1.55-3.52-.88-5.28-.51-2.51 4.32-5.99 11.21-4.23 17.18 5.9.14 7.87-7.04 11.63-8.97-4.71 6.99 6.12 11.92 8.72 5.64-.6-1.04-2.57-.75-4.23-.77-1.14-5.07 2.43-7.69 2.37-12.57m-15.9-4.91c-.23-2.88-8.19-2.26-8.43 1.01 1.41 2.66 8.67 1.83 8.43-1.01m2.92-11.83c-3.85-3.14-8.11.11-10.86 2.06-8.71 6.14-16.19 15.45-21.97 23.13 1.66-11.48 5.52-30.08-9.27-30.07h-2.91c-9.43 1.04-23.15 8.32-25.95 16.19-3.52 9.89 10.35 12.83 20.39 12.08 2.74-.2 6.38-.61 7.15-3.08-1.73-3.4-5.83-.48-8.74 0-5.83.98-12.75-1.78-12.97-6.68-.22-4.77 4.9-8.3 7.41-10.02 5.37-3.68 19.68-9.85 20.92 1.8.9 8.54-2.34 20.49-2.91 28.01 2.03 2.01 6.91 1.17 9-.26.85-.98-.62-1.71 0-2.57 7.29-10.74 15.14-20.93 26.47-27.75 2.5.1 3.93-.82 4.24-2.84m-15.06 33.15c1.8 1.21 5.87.17 6.58-2.05-.26-1.2-2.22-.74-3.16-1.28.7-5.11 3.47-8.24 5.27-12.3-7.62-4.3-12.5 13.07-8.69 15.63m-63.9-14.11c-.84-.98-3.01-.67-4.23-1.28.75-2.01 2.23-3.31 2.64-5.65-4.62-2.48-6.9 3.18-8.46 6.16-3.18.33-7.77-.7-8.46 2.05 1.04 1.64 4.87.57 6.87 1.28-1.38 3.19-3.52 5.65-3.17 10.52 1.1 3.17 9.85 3.39 10.3-.51-1.57-1.38-3.33.71-5.02 0-.59-4.41 2.1-7.66 3.7-10.78 2.46.02 6.61.46 5.83-1.79m-17.74-7.73c-5.16 5.92-17 7.75-26.99 8.99 2.56-6.51 5.1-13.03 8.73-18.5 7.04.35 25.89.76 18.26 9.51m7.68-5.91c-4.9-5.77-19.64-7.94-31.23-6.94-4.58.41-10.06.39-12.71 3.09 2.53 2.84 7.88-.27 11.91 0C7.81 19.44 2.01 28.55 0 41.32c1.63 1.88 6.7 1.07 7.67-.77.35-1.61-1.76-.86-1.59-2.31.76-2.43 1.26-5.11 2.65-6.94 9.26-.33 16.47-1.54 23.82-4.88 5.34-2.43 12.68-6.28 12.18-13.11"/><path fill="#FFF" d="M235.73 39.76c-2.22 0-4.71-.86-5.48-2.84-1.08-2.78.32-5.26 1.55-7.45.58-1.04 1.14-2.03 1.45-3.02-.43 0-.86 0-1.3.01-2.11.04-4.3.08-5.32-1.21l-.14-.18.04-.22c.45-2.4 3.27-2.37 5.75-2.34.92.01 1.86.02 2.65-.08.4-.56.79-1.23 1.2-1.93 1.57-2.73 3.53-6.14 7.97-4.49l.39.14-.07.41c-.32 1.87-1.15 3.23-1.96 4.55-.22.35-.42.7-.62 1.05 1.46.06 2.96.3 3.98 1.12l.16.13.02.21c.08.72-.08 1.28-.46 1.69-.78.82-2.29.74-3.75.66-.62-.03-1.25-.07-1.79-.03-.23.4-.47.81-.71 1.22-1.48 2.49-3.16 5.31-2.83 8.71.5.09 1.03-.08 1.63-.27.95-.31 2.14-.7 3.26.28l.25.22-.1.31c-.78 2.4-3.37 3.32-5.54 3.38-.07-.04-.15-.03-.23-.03zm-28.38-.19l-.15-.07c-1.91-.91-1.73-3.15-1.61-4.79.39-5.01 3.51-11 4.83-13.34l.12-.22.25-.03c.32-.04.68-.11 1.05-.18 1.75-.33 3.91-.74 4.75.97l.04.13c.23 1.29-.64 1.92-1.34 2.42-.34.25-.67.48-.85.77-.6.93-.88 2.1-1.18 3.34-.09.39-.19.78-.29 1.18 1.26-1.15 2.48-2.35 3.67-3.52 1.52-1.49 3.08-3.03 4.72-4.47l.15-.13h.19c.33.01.67 0 1.01 0 1.03-.02 2.1-.04 2.88.3l.33.15-.04.36c-.19 1.85-.81 3.49-1.4 5.08-.81 2.16-1.58 4.21-1.3 6.68.25 0 .5 0 .75-.01 1.29-.03 2.63-.05 3.38.65l.17.16-.01.23c-.09 1.71-1.29 2.98-3.29 3.48-2.27.57-5.44-.02-6.62-1.96-1.09-1.77-.61-3.61-.1-5.56-.98.77-1.86 1.85-2.78 2.97-1.8 2.19-3.83 4.67-7.16 5.38l-.17.03zm-2.67-5.93l-.22-.14c-2.24-1.41-4.55-.26-6.79.85-1.56.78-3.17 1.58-4.86 1.64-2.05.08-4.53-.3-5.41-1.6-.43-.64-.45-1.48-.06-2.52 2.58.1 9.53.05 12.67-3.07 1.07-1.06 1.58-2.37 1.52-3.88-.06-1.37-.79-2.51-2.1-3.29-2.28-1.36-6.08-1.45-8.66-.21-3.1 1.5-11.37 8.6-10.05 13.9.27 1.09.98 1.98 2.12 2.64 1.78 1.04 4.36 1.4 6.99 1.4 3.37 0 6.81-.59 8.7-1.12.23-.06.49-.13.75-.19 2.33-.6 5.53-1.42 5.44-4.15l-.04-.26zm-14.22-6.06c1.46-1.91 2.68-3.33 4.06-3.33.31 0 .63.07.96.23-.02 1.16-.35 2.04-.99 2.68-.9.9-2.44 1.35-4.8 1.4.26-.31.51-.64.77-.98zm-26.45 12.26c-4.34 0-10.09-2.07-10.61-6.38-.6-5.02 5.47-12.79 10.6-15.14 2.73-1.25 7.74-2.06 10.31.07.88.73 1.11 1.58 1.32 2.33.21.77.39 1.44 1.27 1.99l.32.2-.1.36c-.57 2.1-2.09 4.02-3.87 4.88-1.42.69-2.97.71-4.48.07l-.21-.09-.07-.22c-.43-1.32.09-2.33.58-3.31.49-.95.94-1.85.72-3.17-.01-.08-.05-.12-.3-.26-.15-.08-.31-.17-.46-.3-2.51.55-5.77 3.25-7.72 6.41-1.4 2.26-1.89 4.39-1.38 5.97.33 1.03 1.11 1.81 2.31 2.3 3.02 1.24 8.12.45 10.99-1.06.19-.08.27-.38.34-.68.12-.48.3-1.2 1.02-1.4.92-.51 2.9-.81 4.18-.42.6.18 1.02.5 1.22.93l.09.19-.07.19c-1.3 3.65-6.2 5.77-14.97 6.49-.33.04-.68.05-1.03.05zm-33-.55h-.19l-.36-.01-.1-.35c-1.79-6.08 1.58-12.94 4.27-17.57l.11-.19.54-.11c1.88-.4 4.44-.95 5.49.82l.17.28-.19.27c-1.73 2.43-3.23 4.72-3.94 7.73 1.14-.77 2.09-1.94 3.09-3.16 2.1-2.59 4.49-5.53 9.44-5.36l.48.02.01.48c.03 2.26-.68 4.04-1.37 5.75-.79 1.97-1.54 3.84-1.1 6.31.17 0 .34-.01.52-.01 1.52-.03 3.1-.07 3.73 1.03l.12.21-.09.23c-.78 1.89-2.38 3.05-4.38 3.18-2.29.14-4.68-1.1-5.8-3.04-.75-1.31-.88-2.78-.4-4.28-.69.69-1.35 1.53-2.03 2.4-1.97 2.51-4.21 5.37-8.02 5.37zm-2.15-18.95c-1.83 0-3.6-.59-4.28-1.88l-.07-.13.01-.14c.15-2.14 2.94-3.31 5.48-3.32h.04c2.26 0 3.79.9 3.91 2.3.1 1.25-.91 2.31-2.71 2.84-.76.21-1.58.33-2.38.33zm-28.5 20.15c-1.6 0-3.11-.39-4.08-1.35l-.16-.16.02-.23c.2-2.66.73-5.86 1.3-9.25 1.03-6.18 2.19-13.19 1.62-18.67-.3-2.86-1.45-4.77-3.42-5.68-4.59-2.12-12.69 1.47-16.72 4.24-2.4 1.65-7.4 5.09-7.2 9.59.07 1.47.82 2.83 2.19 3.93 2.45 1.98 6.55 2.89 10.2 2.28.74-.12 1.57-.42 2.45-.73 2.38-.84 5.35-1.88 6.82.99l.09.18-.06.19c-.91 2.95-5.26 3.26-7.59 3.43-7.5.57-16.61-.88-20.05-5.4-1.56-2.05-1.85-4.52-.84-7.35C67.76 8.55 81.43 1.09 91.29 0h2.99c3.64 0 6.44 1.12 8.34 3.32 4.7 5.46 3.07 16.28 1.75 24.97-.02.14-.04.28-.06.41 5.84-7.66 12.82-15.98 20.9-21.68l.33-.23c2.84-2.02 7.13-5.06 11.13-1.8l.22.18-.04.28c-.24 1.55-1.28 3.36-4.6 3.26-10.55 6.39-18.11 15.63-26.19 27.53-.11.15-.09.26.09.67.21.47.53 1.18-.13 1.94l-.1.09c-1.32.91-3.5 1.55-5.56 1.55zm22.94-.95c-.89 0-1.69-.2-2.28-.6-2.68-1.81-1.63-8.99 1.08-13.38 2.24-3.63 5.21-4.76 8.14-3.11l.4.22-.18.42c-.58 1.31-1.27 2.54-1.94 3.73-1.4 2.5-2.72 4.86-3.24 8.05.25.07.56.11.86.15.89.11 2 .25 2.24 1.34l.03.13-.04.13c-.35 1.1-1.41 2.02-2.89 2.53-.74.27-1.49.39-2.18.39zm-75.43.86c-2.5 0-5.1-.93-5.73-2.73l-.03-.13c-.28-3.88.97-6.29 2.17-8.63.27-.52.54-1.05.8-1.6-.66-.12-1.47-.12-2.26-.12-1.75 0-3.56-.01-4.34-1.23l-.12-.18.05-.21c.6-2.41 3.46-2.39 6.23-2.36.81.01 1.65.01 2.39-.04.1-.19.2-.39.3-.6 1.11-2.21 2.64-5.24 5.08-6.01 1.14-.36 2.36-.19 3.63.49l.32.17-.06.36c-.26 1.48-.92 2.56-1.55 3.6-.34.56-.66 1.09-.93 1.67.38.11.83.17 1.27.23 1.02.14 2.07.29 2.69 1.01l.09.16c.26.74.06 1.24-.15 1.52-.79 1.07-3.09 1.01-5.13.96-.24-.01-.48-.01-.7-.02-.29.55-.62 1.11-.95 1.68-1.43 2.47-2.91 5.02-2.59 8.21.52.11 1.09-.08 1.68-.27.95-.3 2.13-.68 3.21.27l.2.17-.03.26c-.21 1.78-1.88 3.01-4.48 3.29-.35.07-.71.08-1.06.08zm-.04-29.65l-.01-.16-.11-.12C42.66 4.5 27.63 2.35 16.06 3.35c-.64.06-1.31.1-1.98.15-4.24.31-8.63.63-11.04 3.08l-.32.33.31.35c1.79 2.02 4.76 1.38 7.62.76 1.3-.28 2.64-.57 3.86-.61-.83 1.67-1.68 3.31-2.53 4.96C7.93 20.2 3.75 28.3 2.11 38.71l-.04.23.15.18c.7.8 1.96 1.25 3.48 1.25.31 0 .63-.02.96-.06 1.46-.17 3.39-.81 4.05-2.06l.05-.13c.27-1.24-.6-1.61-1.07-1.8-.49-.21-.54-.26-.53-.47.18-.56.34-1.14.5-1.72.5-1.75 1.01-3.56 1.93-4.88 10.01-.37 16.91-1.8 23.76-4.92 6.46-2.92 12.98-6.82 12.48-13.58zm-8.55 5.62c-4.83 5.55-15.77 7.44-25.84 8.72 2.37-6.03 4.85-12.23 8.22-17.39l.77.04c5.44.25 16.77.76 18.34 4.43.47 1.11-.03 2.52-1.49 4.2z"/><path fill="#034694" d="M233.02 25.44c.3 0 .6 0 .9.02l.58.03-.12.57c-.27 1.33-1 2.64-1.71 3.89-1.23 2.19-2.39 4.26-1.49 6.6.53 1.36 2.47 2.26 4.75 2.2 1.71-.05 3.73-.7 4.48-2.35-.57-.33-1.16-.16-2.02.12-.79.26-1.68.55-2.59.17l-.27-.11-.04-.29c-.51-3.88 1.32-6.95 2.93-9.66.29-.48.57-.96.83-1.42l.12-.22.25-.03c.67-.08 1.46-.04 2.22 0 1.18.06 2.51.14 2.97-.35.14-.15.21-.38.21-.68-1.01-.68-2.66-.78-4.01-.79l-.8-.01.36-.72c.32-.64.69-1.24 1.04-1.83.72-1.19 1.41-2.31 1.74-3.78-3.36-1.02-4.82 1.51-6.36 4.18-.46.81-.9 1.57-1.39 2.2l-.12.16-.2.03c-.92.15-1.99.14-3.02.12-2.55-.03-4.28.05-4.7 1.29.81.73 2.61.69 4.36.66.38.01.74 0 1.1 0zm-21.86-3.37c-1.35 2.42-4.21 8.04-4.58 12.65-.14 1.79-.15 3.18.89 3.79 2.88-.68 4.68-2.88 6.42-5 1.29-1.58 2.51-3.07 4.12-3.89l.96-.49-.24 1.05c-.1.43-.21.84-.31 1.25-.47 1.81-.88 3.37-.01 4.79.83 1.36 3.36 2.06 5.53 1.51.86-.21 2.28-.8 2.51-2.3-.53-.29-1.52-.27-2.49-.25-.42.01-.84.02-1.23 0l-.41-.02-.06-.41c-.46-2.92.43-5.3 1.29-7.6.53-1.41 1.08-2.86 1.3-4.44-.57-.13-1.35-.12-2.11-.11-.29 0-.58.01-.86.01-1.56 1.38-3.07 2.86-4.53 4.3-1.64 1.61-3.33 3.27-5.11 4.8l-1.63 1.4.84-1.98c.39-.91.62-1.89.84-2.83.32-1.33.61-2.58 1.31-3.66.29-.44.71-.74 1.11-1.03.67-.48 1.03-.77.95-1.36-.49-.88-1.88-.69-3.63-.36-.31.08-.6.14-.87.18zM198.1 35.24c-1.66.82-3.37 1.67-5.27 1.74-1.43.06-4.92-.03-6.28-2.04-.68-1-.69-2.28-.01-3.79l.14-.31.34.02c5.66.29 10.23-.75 12.27-2.77.88-.87 1.28-1.89 1.22-3.12-.05-1.03-.59-1.87-1.61-2.48-1.05-.63-2.5-.94-3.98-.94-1.33 0-2.67.26-3.74.77-3.27 1.58-10.61 8.38-9.51 12.76.21.83.75 1.49 1.65 2.02 3.41 1.99 10.92 1.29 14.92.18.24-.07.5-.13.76-.2 2.47-.63 4.53-1.29 4.68-2.88-1.7-.89-3.5.01-5.58 1.04zm-9.86-6.55c.44-.43.92-1.06 1.43-1.72 1.58-2.06 3.74-4.88 6.57-3.23l.24.14.01.28c.03 1.57-.4 2.82-1.29 3.7-1.16 1.15-3.06 1.69-5.95 1.69-.22 0-.45 0-.68-.01l-1.19-.03.86-.82zm-18.4-10.62c-1.95 0-4.04.53-5.42 1.16-4.64 2.13-10.55 9.63-10.02 14.11.47 3.89 6.45 5.8 10.57 5.46 8.14-.67 12.73-2.5 14.02-5.59-.13-.13-.33-.21-.5-.26-1.08-.32-2.83 0-3.44.36l-.16.06c-.16.03-.23.2-.34.68-.12.47-.27 1.11-.9 1.35-3 1.58-8.4 2.46-11.79 1.07-1.49-.61-2.46-1.6-2.89-2.93-.59-1.87-.07-4.29 1.49-6.8 2.2-3.56 5.85-6.48 8.7-6.93l.36-.06.17.32c.03.06.16.13.29.2.29.16.73.4.82.98.28 1.63-.3 2.77-.81 3.78-.42.83-.77 1.51-.58 2.34 1.17.44 2.33.4 3.43-.14 1.43-.69 2.68-2.2 3.24-3.9-.94-.72-1.18-1.58-1.39-2.36-.19-.69-.35-1.29-.99-1.83-.98-.77-2.38-1.07-3.86-1.07zm-34.45 3.98c-2.53 4.37-5.6 10.69-4.17 16.23 3.2-.1 5.15-2.59 7.04-5 1.26-1.61 2.46-3.13 3.98-3.91l1.73-.89-1.09 1.62c-1.23 1.82-1.42 3.67-.54 5.2.93 1.62 2.93 2.67 4.87 2.54 1.53-.1 2.73-.91 3.4-2.3-.48-.41-1.61-.38-2.7-.36-.32.01-.64.02-.96.01h-.4l-.09-.39c-.66-2.97.22-5.17 1.07-7.29.6-1.5 1.22-3.04 1.29-4.88-4.13.05-6.17 2.56-8.14 5-1.32 1.63-2.57 3.16-4.36 3.94l-.84.36.15-.9c.59-3.61 2.2-6.19 4.1-8.88-.83-.83-2.78-.42-4.23-.1h-.11zm-9.86-3.94c.8 1.22 3.47 1.51 5.41.94.49-.14 2.09-.7 2-1.8-.08-.97-1.52-1.37-2.95-1.39-2 .01-4.22.87-4.46 2.25zM97.16 38.59c1.86 1.56 6.15.9 8.14-.43.19-.24.13-.42-.06-.83-.18-.41-.46-1.02 0-1.66 6.6-9.71 14.64-20.68 26.62-27.89l.13-.08.15.01c2.74.12 3.44-1.07 3.67-2.12-3.35-2.48-7 .12-9.69 2.02l-.33.23c-8.52 6.01-15.83 15.01-21.86 23.02l-1.17 1.56.28-1.93c.11-.76.23-1.54.35-2.35 1.22-8.04 2.88-19.05-1.52-24.17-1.72-2-4.21-2.98-7.59-2.98h-2.93c-9.33 1.03-22.8 8.34-25.48 15.86-.88 2.49-.65 4.65.69 6.41 3.2 4.19 12.19 5.54 19.18 5.01 3.01-.22 5.89-.68 6.64-2.54-1.01-1.74-2.77-1.28-5.49-.32-.88.31-1.79.63-2.62.77-3.91.66-8.33-.34-10.99-2.48-1.6-1.29-2.48-2.9-2.56-4.67-.23-5.06 5.08-8.7 7.63-10.46 3.03-2.08 12.11-6.9 17.7-4.32 2.31 1.06 3.65 3.24 4 6.48.59 5.61-.59 12.69-1.62 18.93-.55 3.27-1.06 6.36-1.27 8.93zm24.41-.47c.78.53 2.22.57 3.56.11 1.09-.38 1.9-1.02 2.21-1.75-.15-.28-.63-.36-1.34-.45-.54-.07-1.09-.14-1.54-.39l-.29-.17.05-.33c.49-3.58 1.97-6.23 3.41-8.79.58-1.04 1.18-2.11 1.7-3.22-3.07-1.41-5.31 1.22-6.39 2.97-2.58 4.18-3.32 10.7-1.37 12.02zM43.1 37.4c.58 1.48 3.41 2.21 5.72 1.95.75-.08 3.12-.47 3.54-2.15-.56-.35-1.16-.18-2.03.09-.8.26-1.71.55-2.64.15l-.26-.11-.04-.28c-.49-3.67 1.2-6.59 2.68-9.16.38-.65.74-1.28 1.07-1.92l.14-.27h.31c.32 0 .67.01 1.03.02 1.52.04 3.82.1 4.3-.55.03-.05.13-.18.04-.51-.39-.38-1.21-.49-2-.6-.7-.1-1.43-.2-2.01-.49l-.4-.2.16-.42c.32-.86.77-1.59 1.2-2.3.55-.91 1.08-1.78 1.35-2.89-.91-.42-1.73-.5-2.52-.25-2.04.65-3.46 3.46-4.49 5.51-.15.3-.3.59-.44.86l-.12.24-.27.03c-.87.09-1.84.08-2.77.07-2.78-.02-4.67.06-5.18 1.38.59.59 2 .59 3.36.6 1.11 0 2.25 0 3.12.32l.5.18-.21.49c-.33.76-.71 1.49-1.07 2.19-1.19 2.3-2.31 4.47-2.07 8.02zM16.15 4.34c-.65.06-1.31.1-1.99.15-3.84.28-7.8.57-10.03 2.44 1.46 1.16 3.82.65 6.31.11 1.65-.35 3.35-.72 4.9-.62l.74.05-.33.67c-.94 1.92-1.91 3.8-2.89 5.69-3.98 7.7-8.09 15.66-9.73 25.78.67.6 1.95.86 3.42.69 1.51-.17 2.83-.77 3.25-1.47.07-.35-.03-.4-.5-.6-.47-.19-1.25-.52-1.11-1.6.19-.64.35-1.21.52-1.78.54-1.93 1.11-3.92 2.23-5.4l.14-.19.24-.01c10-.35 16.85-1.76 23.63-4.84 6.07-2.76 12.22-6.4 11.89-12.45-4.94-5.58-19.45-7.58-30.69-6.62zm23.88 12.68c-5.2 5.97-16.82 7.86-27.31 9.16l-.83.1.41-1.04c2.49-6.34 5.07-12.9 8.68-18.34l.16-.24 1.34.06c6.08.28 17.4.79 19.21 5.04.64 1.51.08 3.27-1.66 5.26z"/></svg>