<svg xmlns="http://www.w3.org/2000/svg" viewBox="0 0 123.6 84.1"><path fill="#FFF" d="M78.4 0h-3.6l-.4.1h-.2-.3-1.7-.3-.1c-.6.2-1.3.2-2 .3l-3 .3c-2.6.5-3.8 1.6-3.6 3.3.3 2 3 2.3 5 2.5h.8c1.8.2 3.4.4 4.2 1.2l.2.4v.4l.1.4v.5l-.2 1.1a2 2 0 0 0-1-.5H72c-.4-.2-.9-.3-1.4-.3h-1.7a3 3 0 0 1-1 .2c-.7 0-1-.5-1.6-1.3-.5-.7-1.2-1.7-2.4-2h-1.1c-1 .1-1.5.5-2 .8l-.6.4-.2.2-.7.7h-.1c-2 2-3.4 7.2-1 9.8l.8.8.1.2c1.5 1 3.4 1.4 5.2 1.8.7 0 1.3.2 1.9.4h4.1l2.4-.4c1.2-.2 2.4-.3 3.5-.6l.1.4 1.7 2a78.6 78.6 0 0 1 1 1.1l3.5 2 .9.5a7 7 0 0 1-.8 2.5c-2.4 0-3.6 1.2-4.7 2.3-.4.4-.8.8-1.3 1a2 2 0 0 0-1.4-.4h-.5-1-.3c-1.4.3-2.6.5-4 .6 0-.1 0-.2-.2-.3l-.7-1c-.8-.6-2-1-3.2-1-2.4 0-5 1.3-5.4 3.3 0 .8.2 1.4.3 1.9l-.5.2-1.4.4c-.2-.7-.5-1.4-1-1.8a4.3 4.3 0 0 0-3-1.2c-2.4 0-5 1.3-5.4 3.4-.2 1.3.2 2.2.7 3l-1.1.7c-1.3.7-3 1.6-3.3 3.7h-.6c-2.7.4-5.6.8-7.5 2.2a3 3 0 0 0-.5.4l-.2.3h-.1l-.1-.1-3.8-.4h-.6v-1-.2c-.2-.2-.2-.4-.3-.7a15 15 0 0 0-.7-1.8c-.4-.9-1-1.6-1.8-2.3l-.8-.7 1.2-1.1 1.7-1.7.8-1c.7-.9 1.6-1.8 1.7-3.5v-2.5c-.8-4.4-4.8-5.3-8.2-5.6H21c-2 .2-4.3.4-4.5 2.8v.1c0 1 .6 1.6 1 2l.4.5.5.4h.2l-.4.7c-.6.8-1.3 1.7-1.3 2.8l-.7-.1c-1.6-.3-3-.6-3.8-1.5l.6-1.6c.6-1.4 1.3-3 .6-5 0-.2-.2-.4-.4-.5l-1.7-.3c-2 0-3.4 1.2-4.4 2H7c-.4.6-.9 1-1.4 1.5h-.1c-2.4 3-4.8 6.1-5.5 11v2.5a9.2 9.2 0 0 0 1.7 3.8l.8.8.1.1a13.3 13.3 0 0 0 8 2.3l.4.1h3.6l.4-.2 1-.2h.1v.1c.1.3.3.4.4.5v.1c0 .2.2.3.3.4l1.1 1.1.1.1c2.7 2 6.3 3 10.1 3.5-2.9 1-5.7 2-7.5 4L19.4 60l-1 1.4-.6.6c-.9.8-2.2 2-1.6 3.8l.1.2c.4.5 1.1.6 1.5.6.2 0 .6 0 1-.2l.2-.1.3-.2c.3-.1.7-.4 1-.9.4-.6 1-1.3 1.7-1.8l.3-.2.3-.3.8-.8c3-2.6 8-3.5 12.9-4.2l.2.7a39.8 39.8 0 0 0-12.7 5 10.5 10.5 0 0 1-2.5 2.4c-1.1 1.4-1.8 3.2-2.4 4.9-.5 1.5-1 3-1.9 4-.1.3-.4.6-.7.8l-.2.3-.2.3c-.2.3-.5.7-.5 1.4l.3.6.5.2c3.7-.2 5.1-2.9 6.4-5.3.6-1.2 1.2-2.2 2-3v-.2a6 6 0 0 1 2.5-2.4c1.7-1.2 5.1-2.8 8-3.5l.7-.1a11.8 11.8 0 0 1 2.3-.5c.2 0 .5.6.7.9l-2 .8c-1.7.8-3.6 1.6-5.1 2.7l-.2.2-.3.4a29.1 29.1 0 0 0-3.8 3.8l-.7.7v.1c-2 3 .2 5.8 1.6 7.6l.6.6c.8 1 1.5 2 2.4 2.7l.5.2h.8c1.2-.5 1-1.7 1-2.2v-.1c0-1-.6-2.1-1-3.1-1-2.1-1.6-3.5-.3-4.8l.9-.9a28 28 0 0 1 16.1-4.8c2.6 0 5.1.3 7.5 1 .4 1 0 1.8-.4 2.8-.5 1.2-1 2.5-.3 4.3 1 2.3 3.1 3.5 6.5 3.5 2.6 0 5.6-.7 8-1.3l1.2-.2c.4-.1.7-.5.6-.9 0-.6-.5-1.1-1-1.6l-.2-.3v-.1a6.7 6.7 0 0 1-1.1-1l-1.3-1c-1.6-1.3-3.6-2.8-5.5-3.5A70.5 70.5 0 0 0 85 62.7l.8-.7.6-.6.5-.5v1.6c.1 3.4.5 6 1.3 8 .2.2.4.4.7.4h.1a5 5 0 0 0 2.8-1.4l.7-.8.4-.4h.2l.3-.4.3-.2c.1 0 .3 0 .4-.2l1.6-1.8 1.4-1.4.1-.2c.3-.5.7-1 .8-2v-.9a3 3 0 0 0-.8-1.9l-.3-.5-.1-.2a18.6 18.6 0 0 1-1.9-1.8l-.3-.3a4.7 4.7 0 0 1-.8-.8l-1-1.3c1-2.2 3.8-3.2 6.8-4.2a25.4 25.4 0 0 1 6.9-1.4H107c2.2.2 3.6.9 4.4 2.2v.1c.4.4.7 1 1 1.6l.2.4.3.3c.3.2.5.5.7 1 .4.7 1 1.7 2.3 1.7h.8c.3-.2.5-.4.5-.8.4-6.8-2.7-10.9-8.6-11.3h-1.8l-1.6.1h-2.6c-1.4 0-2.3.3-3.3.6l-.9.3a5 5 0 0 0 .2-1.8l2.4-.8c1.8-.6 3.5-1.2 5.6-1.4a4.8 4.8 0 0 1 2 0h.1c1.8.2 3.3.7 4.9 1.3 1.7.6 3.6 1.2 5.9 1.3h1c1.6 0 2.4-.8 2.9-1.5.1-.2.2-.5 0-.7 0-.3-.2-.4-.5-.5-2.2-.4-4.1-1.2-6-2-2.6-1.1-5.3-2.2-8.8-2.5l-2.3-.1c-.9 0-1.6 0-2.3.2a16 16 0 0 0-5.4 1.5l-2.4 1a1 1 0 0 0-.5-1l-.2-.2a8.8 8.8 0 0 1 1-.4l1.3-.5c1.8-.8 3.5-1.6 5.9-1.7.2 0 .4-.1.5-.3h.3l1 .1h1l2 .3 2.2.3c1.3 0 2.2-.5 2.6-1.5v-.6c-.5-1.9-2.4-2-4-2.1h-.8l-2.2-.5a14 14 0 0 0-2.6-.4 2 2 0 0 0-.7-.1l-.7.1a26.6 26.6 0 0 0-11.6 3.8l-1.8.9-.3-.2-.9-.4c.4-.4.7-.9.9-1.5 2.9-.6 5.3-3.4 6.2-7.3.7-3.4.2-7.6-2.6-10l.5-.5a12 12 0 0 0 2.6-5.2v-.6c0-.8 0-1.6-.2-2.3-2-4.6-7-5.8-12.4-6.8h-.4-.1-1.4-.3-.2a.8.8 0 0 0-.7-.2h-.1l-.7-.2z"/><path fill="#101013" d="M108.2 37.2c-1.6-.2-3-.3-4.4.1-3.6.2-5.7 2-8.8 2.7-.5-.2.5-1-.1-1.3-.4-.3-.6-.7-.8-1 .4-.5 1-.6 1.6-1 2.4-.9 4.4-2 7.5-2.2.5-.6 1.8-.2 2.4-.1 2.4-.2 5.6 1.6 6.7-.6-.5-1.7-2.4-1.5-4.2-1.7-1.7-.1-3.4-.8-5-.8a25.6 25.6 0 0 0-11.5 3.2c-.8.4-2.2 1.4-3 1.4-.5 0-1-.5-1.4-.5-1.3 0-2.2 1.7-3.7 1 1.8-1 3.6-1.8 4.1-4 6.5-.8 8.8-12.7 3.2-16.4 1.3-1.8 2.8-3.3 3.4-5.8 0-1 0-2-.2-2.7-1.8-4.3-6.7-5.4-11.9-6.3l-.1-.1h-1c-.6 0-1.4.2-1.6-.2-.5.1-.6-.1-1-.1h-3.6c-.2.2-.7 0-1 0-.7 0-1.2.2-2 .1-1.5.3-3.1.2-4.9.6-1.3.2-3.2.8-3 2.4.2 1.6 3 1.7 5 1.9 2.2.2 4 .3 5 1.6v.2c.3.1.3.5.3 1v1c-.3 1.1 0 2.7-.3 3.8-.5-.2-.2-1.1-.5-1.4-.3-.5-.6-1.1-1.3-1.2-.5-.2-1-.4-1.7-.4h-1.2c-3.5 1.3-3.2-2.5-5.5-3h-.9c-1 0-1.5.6-2.2 1a5 5 0 0 1-.9.9c-1.7 1.6-3 6.3-1 8.7l.8.8c1.8 1.2 4.5 1.5 6.8 2.1h3.8l6.5-1c0 .3.4.4.3.8l2.4 2.9c1.6 1 3.3 1.8 4.9 2.7A7.8 7.8 0 0 1 83 30c-3.7-.2-4.4 2.5-6.7 3.6v-.3c-.3-.4-.8-.6-1.5-.5-.3.2-1 0-1.3.1l-4.4.5c-.5-.4-.6-1-1.1-1.4-2.2-1.6-7-.5-7.4 1.8-.1 1 .4 1.6.5 2.3-1.2.3-2.2.8-3.6 1 .1-4.7-7.3-3.5-7.9-.3-.2 1.2.4 2.1 1 3-1.7 1.5-4.6 1.8-4.8 4.8-3 .5-6.3.7-8.4 2.2-.3.3-.6 1-1.3.8l-3.8-.5H31v-1.6c-.3-.9-.5-1.7-.9-2.5s-1-1.5-1.6-2l-1-1c-.1 0-.4-.5 0-.6l3-3c.8-1.2 2.2-2 2.3-4V30c-.6-3.6-3.7-4.6-7.5-5H22c-2.1.3-4.6.1-4.8 2.2 0 1.2 1 1.4 1.4 2.2.4 0 .7.4 1 .7-.7 1.4-2.7 2.9-1.6 4.6-2.3-.7-5.3-.7-6.4-2.5.4-2.1 2.2-4 1.3-6.5-2.3-1-4.2.5-5.4 1.5l-1.4 1.5c-2.4 3-4.7 5.9-5.4 10.5v2.2c.2 1.4.8 2.5 1.4 3.4l1 1c1.8 1.2 4 2 7 2.1h2.7c.3 0 .8.2 1 0h.8c.4-.3 2.3-.8 2.2.3.1.2.4.3.5.7l1.2 1.2c2.9 2.2 7.1 3 11.6 3.6 3.2.2 4.8-1.3 7.5-1.7h1.1c.4 0 .7.2.9.3-3.3.3-5.9 1.4-9 1.8-3.5 1.2-7.3 2.2-9.5 4.6-.9 1-1.3 2.1-2.2 3.2-.8 1-2.6 1.8-2 3.6.2.3 1.1.3 1.6.2.3-.4.9-.4 1-.9.6-.8 1.3-1.5 2-2 0-.3.3-.3.4-.4l1-1c3.3-2.8 8.6-3.6 14-4.5l.4 2.2c-4.9 1-9.3 2.5-13 4.8-.6 1-1.5 1.8-2.5 2.5-1.9 2.4-2.4 6.3-4.2 9a5 5 0 0 1-.8.8c-.2.4-.6.7-.6 1.4 4.8-.1 5.2-5.4 7.8-8 .7-1.2 1.5-2.1 2.7-2.7 1.7-1.2 5.3-2.8 8.3-3.6 1-.2 2.6-.7 3.2-.6.8.2 1.2 1.4 1.7 2-2.6 1.2-5.6 2-7.8 3.7 0 .2-.2.2-.3.4L30.6 70c-1.2 1-2.2 2.3-3.3 3.4-1.6 2.7.2 5 1.6 6.8 1 1.2 1.9 2.4 2.9 3.1h.6c.6-.2.5-1 .5-1.4-.2-2.6-3.8-5.7-1.1-8.5l1-1a29.8 29.8 0 0 1 24.6-3.8c1.3 2.9-1.8 4.5-.6 7.4 2 5 10 2.7 14.9 1.6 0-.5-.7-1.2-1-1.6-.4-.3-.8-.6-1-1-1.9-1.3-5-4-7.4-4.6-.8-.2-3.3.1-3.1-1.1.1-1 2-.1 2.7-.4.4.4 1.6.4 2 0A70.2 70.2 0 0 0 84.6 62c.5-.3.8-.8 1.3-1.2l1.9-1.9c.1-.1.3-.5.6-.3 0 .6-.6.6-.7 1.2v2.7c0 2.8.3 5.5 1.2 7.6 1 0 1.6-.6 2.2-1 .3-.4.6-.8 1-1l.5-.5c.3-.2.5-.5.9-.6l3-3.2c.3-.4.7-.9.7-1.7v-.8c0-1-.6-1.4-1-2.1a20 20 0 0 1-1.7-1.7c-.2 0-.2-.3-.3-.3l-1-1c-.5-.4-.9-1-1.2-1.7 1-2.8 4.3-4 7.3-5a26.5 26.5 0 0 1 7.8-1.3c2.4 0 4.1.9 5 2.5.6.6.9 1.4 1.3 2.1 1.2.7 1 3 3.2 2.5.3-6.1-2.3-10.1-8-10.5H107c-1.2.2-2.8 0-4.2 0-2.2 0-3.4 1-5.4 1.2.4-.9.9-2 .6-3.4 3-.7 5.3-2 8.7-2.3h2.3c4 .4 6.5 2.3 10.7 2.6h1c1.1 0 1.8-.5 2.3-1.2-5.4-1-8.8-4-14.8-4.5z"/><path fill="#016A94" d="M118.3 41c.1.4.4.4.4.9a2 2 0 0 0-1.3-.3c-.2-.4-.9-.5-1.3-.3-2.6-.2-4.2-1.3-6.7-1.6-1.7-.3-3.4.1-5 .4-1.8.2-3 1-4.8 1.2-1.1 1-2.3 1.3-4.3.8-1-.5-.3-1.6.6-1.6 1-.5 2.1-1 3.5-1.2.6-.4 1-1 2-.9.6-.3 1.4-.5 2.3-.4 2.1-1.1 4.5.4 6.8 0 .4 0 .4.5.8.5 1.8.2 3 1 4.4 1.6.8 0 1.3.3 1.6.7.3-.2.8.1 1 .3M116 54.5c-.5.1-1-.7-1.3-1.3-1.2-1.6-2-4-3.7-5l-.7-.1c-.3 0-.4-.3-.6-.4-.6 0-1.6.2-1.6-.4-1.7-.2-2.4.6-3.8.4-3 .6-5.7 1.4-8.2 2.4v.4c-.4 0-1-.2-1 .2.2-1.5 1-3.2 2.3-3.8a15 15 0 0 1 6.3-1.3H107c1.5 0 2.8.3 4 .5 1.6 0 2.6.7 3 1.8 1.4 1.5 1.6 4.3 2 6.6M110.6 33.3c.2.2.5.2.5.7h-2.2c-.5-.8-2.4-.2-3.5-.4-.4-.3-1-.4-1.7-.3-.3 0-.3.3-.6.3-.9 0-2-.2-2.2.5-.7.2-1.2.7-2.1.7-.8.3-1.5.7-2.4.9-1 .5-1.9 1.2-3 1.5-.3.6-1 .8-1.6.9-.5.1-.7.6-1.3.4-.2.7-1 .3-1.7.3-.2-1-.2-2.2.6-2.5V36c3.3-1 5.2-3.2 9.4-3.2 0-.7 1.2-.3 1.9-.4a6 6 0 0 1 4.6 0c.8 0 1.8-.1 2.2.3v.1H108.9c.7 0 1.2.2 1.7.4z"/><path fill="#3DC6EE" d="M93.2 40v1.6c0 .4.2.6.5.8.7.2 1.2.5 1.7.9.4-.1.7 0 1 .1-.4 2.2-1.2 4-2.2 5.5-.3.8-.8 1.3-1.2 1.9-.1 0 0 .2-.2.2-.3.6-.7 1.1-1.2 1.6-.2.4-.5.8-1 1a36.3 36.3 0 0 1-7.8 8c-.4.7-1.3.7-2 1-.6.2-1.2 1-2 .7-.3.7-1.7.2-2.1.7-.9.3-2 .3-2.6 1-1.1.3-1.9.9-3.3 1-.8 0-1.6.1-2 .5-.8.4-1.8.6-2.7.8-.6.4-1.4.5-2.4.4h-1.9c-1.6 0-2.9-.3-4.4-.3l-1.2-.1c-1-.5-3-.1-3.8-.8-3-.5-6.8-1.1-9.7-2.3-.8-.3-3-1-2.3-2 .7-.1.9-1.4.5-2 0-.1 0-.2-.2-.2-.7-1-1.3-1.8-2.6-2 1.2-1.2 4.2-1 4.6-2.8.4-1.7-1.4-1.5-1.8-2.7 1.4-.6 3.6-.4 3.9-2.1 0-1.1-1-1.3-1.1-2.2.3 0 .5-.1.6-.3h.1c.7-.4 1.8-.2 2.4-.6.6-.6 1.3-1 1-2.4-.8-3.7 4.2-3 5.3-5.3 3.4-.2 6.1-1.6 9-2.5l3-.7c1-.3 1.8-1.1 2.7-1.5 2 0 3.6-.6 5.4-.8h1.1c.6 0 1 .2 1.2.6.5 2.8 4 1.2 6.2 1 0 .2 0 .5.2.5.3 1.3 1.9 2 3.5 1.4.3-.5 1.3-.4 1.8-.7.6.1 0 2.2.7 2.7.5.2 1 .4 1.7.4 1-.1 1.6-.6 2.5-.7.4-.2.7-.6 1.5-.5 0 .6 0 1-.3 1.3zM89 63v-.1c-.1-.3-.1-1.3 0-1.6.2-1.6 1-2.7 2.4-3 .4-.4 1.7-.4 2 .2.6.3 1.3.4 1.4 1 .6.4 1 1.6.5 2.4v.2c-.2.5-.4 1-.7 1.2-.5.1-.6.6-.8 1 0 .5-.6.5-.7 1-.6.3-.8 1-1.5 1.3l-.2.3h-.6c-.2.7-1.4.4-1.8.1v-4z"/><path fill="#016A94" d="M92.6 8.6c.2.3 0 .7 0 1-.3 3-1.5 5-4 6-1.8.5-3.3 1.4-5.4 1.5-.7.2-1 .7-2 .5l-.5.2h-1c-.7-.1-1.1-.5-1.7-.8-3.5-.5-2.5-5.5-2.4-9.2 0-1.3-.4-2.3-1.7-2.3-.8-.1-1.3-.6-2.1-.7-.9 0-2 .2-2.3-.4h-1.3c-1 0-2.2 0-2.3-.8h.1c.1-.5.6-.7 1.2-.8H69c.4-.9 1.5-.4 2.4-.5.8-.1 2.4-.6 3.7-.3h.1c1.1-.3 2.3 0 3.5 0 .3-.2 0 .3.3.3 1.2.1 3-.3 3.7.4h1c.8 0 1 .3 1.5.5 2 0 3.3.9 4.7 1.5 1 1.2 2.5 2 2.8 3.9M92 25.8c.1.9-.6 1-.4 1.8-1.1.8-2 1.8-2.8 2.8-.4 0-.3.6-1 .4h-2.2c-.6 0-.6-.4-1-.5.3-.8.4-1.7 1-2.2-.2-.5.1-.8.1-1.3 2.3 0 3.5-1 5.6-1.2.3 0 .6 0 .7.2M90.4 17.7c1.1 1.6 3.1 4.5 1.4 6.8-.6-.2-1.7-.2-2 .3-.9-.1-1.3.7-2.2.4-1 1.2-2.1-.4-3.2-.4-.3 0-.3-.2-.5-.2-2-1.5-4.5-2.5-5.5-5 .5-.7 1.7-.2 2.8-.4.4 0 .7-.4 1-.4.7 0 1.4.1 1.4-.5 1.4-.3 2.3-1 4-1 1-.5 2 0 2.8.4M86 32c0 .5 0 1-.2 1.3-.8.4-1.1 1.7-2.3 1.5-2-.6-4 0-5.7.4-1-.3.3-1.4.8-1.6.3-.2.4-.5.5-.7h.7c.9-.5 1.6-1.2 2.4-1.6.4.2 1.2.5 1.8.3h.8c.5-.2.8.2 1.2.3M75.4 17.6c.2.3.6.3.6.7-.5.7-2.3.1-2.7.9H72c-.4.4-1.1.4-2 .4l-1.2.1c-.4.2-1.5.2-2 0-1.9 0-3.4-.5-4.7-1.3-.2-.5-.7-.8-1.5-.8-.2-.8-.6-1.3-1-1.8v-2.7c.3-2.2 1.7-3.4 3.3-4.3 1.9.2 1.6 2.6 3 3.2h1.8c1.2-.1 2.5-.2 3.6 0h.2c1 1.7.7 5 3 5.1.5-.1.5.4.9.5z"/><path fill="#3DC6EE" d="M68.6 76.8c-.2.3-1 .1-1.5.2-1.8.4-4.1.4-6.3.3a3.2 3.2 0 0 1-2.6-2.8v-1c-.1-.5.3-.6.2-1.1l1.2-.5c1 0 1.8 0 2.4.3.5.4 1.4.2 1.8.7.7 0 1 .4 1.4.9 1.4.7 2.7 1.5 3.4 3"/><path fill="#FFF" d="M65.7 33c-.7-1.2-2.7-.5-3.1.3-.5 2.4 4 1.7 3-.3m.1-.5c2 .8.4 3.2-1.4 3h-1c-1.3 0-1.6-1.5-1-2.4.3-.6.9-1 1.7-1 .1-.2.8-.2 1 0 .4 0 .6.1.7.4"/><path fill="#101013" d="M65.7 33c.8 2-3.6 2.7-3.1.3.4-.8 2.4-1.5 3-.3"/><path fill="#FFF" d="M54.5 34.9c1.3 0 2 1.3 1.6 2.6-.5 1.2-3 2-4.5 1.2-1.6-1-.8-3.8 1.4-3.8a3 3 0 0 1 1.5 0m-2.7 2.8c1.4.3 3 .1 3-1.3-.3-2-4.7-.8-3 1.3"/><path fill="#101013" d="M54.7 36.4c.2 1.4-1.5 1.6-3 1.3-1.6-2.1 2.8-3.3 3-1.3"/><path fill="#016A94" d="M43.2 46.4c.6-.5 2.1-.7 2.7 0-1.3 0-2 .6-3 1-.1.8-.2 1.7.2 2.3-.7.2-.9.9-1.8.8H38.6c-1.3-.8-.4-3.4 1-3.3.4 0 .5-.3.9-.3.8-.2 1.4-.6 2.6-.5M45.2 66.9c-1 0-2 0-2.5.4-.8 0-1.4 0-1.6.5-1.4.4-2.4 1.2-3.9 1.5-.6.2-.7.8-1.5.8h-.5c-.7 1-2 1.3-2.9 2-2 .6-3.3 4.4-1.6 6.2v.2c.9.8 1.2 2 1.2 3.7-.4.1-.5-.3-.7-.5-.7-.8-1.4-1.5-2-2.4-.9-1.1-2-2.8-1.8-4.3.1-1 2-3 2.7-3.7 1.1-1.1 2.2-2 3.5-2.8.1-.6.5-.8 1.2-.8.5-.3.9-.8 1.7-.8 1.8-.8 4.5-2.5 6.7-1.3.2 1 1.8.4 2 1.3M39.5 53.2c.2 1 1.5.8 1.4 2-.5 0-.6.2-.8.5-.8 0-2-.3-2.2.4-.5 0-.9.1-1 .4-2-.2-2.8.6-4.7.4-.2.5-1.2.3-1.8.5l-5.7 1.9c-1.2.3-2.1 1-2.7 2-1.6.7-2.2 2.6-3.8 3.6-.5-1.1.9-1.6 1.2-2.4 1-2 2.3-3.5 4.1-4.6.4-.3.7-.6 1.5-.6.6-.5 1.2-1 2.1-1.3 1.4-.7 2.8-1.4 4.8-1.5.8 0 1.3-.6 2.2-.5 1-.2 1.9-.6 3-.7l2.4-.1M39.1 59.7c.6.5.7 2.6-.5 2.5h-1.2c-.7 0-1.2.4-2.2.3-.5-.2-1.4 0-1.4.5-2.5.7-4.4 1.9-6.8 2.6-4 1.7-5.3 6.6-7.9 9.4 1.2-3.7 2.8-7 5.1-9.5v-.1c1.2-.8 2.5-1.5 3.6-2.5 3.4-1.4 7-3.1 11.3-3.2M36.9 48.9l-.2.6c-.1.5-.3.8-.3 1.3-.3.1-.7.2-.8.6-1.1.5-2.5.8-4.2.7-.5.4-2 .8-2.3 0h-.8l-.9-.1c.2-1 .8-1.4 1.8-1.5.7-.8 1.5-1.5 2.4-2 1.3 0 2.7-.4 3.5.4.5-.1 1.3-.3 1.8 0M29.1 27.2c2.6.3 3.2 5 1.6 6.7v.1c-.8 1.5-2 2.7-3.2 3.6h-.3c-1 .1-1 1.2-2 1.2-.5-.1-.2-1.1-.7-1.3-.3-.8-.8-1.4-1.5-1.8l-1-.5a7 7 0 0 1-1.6-.8c-.6-.2-1.3-.4-1.4-1 0-.8 2.2-2.5 2.3-3.3-.3-1.3-2.7-1.5-2.2-3.2h.1c.3-.3.7-.5 1.3-.5 1.2.1 2.5-.6 3.4-.5.4 0 .7.3 1.2.4l1.6.1c1 0 1.7.5 2.4.8M27 41.4c2 1.3 3 3.7 2.7 7.3-1.5.6-2.2 2-3.7 2.6h-1.3c-1.7 0-2.8-.8-3.9-1.4-.8-.7-3.2-1.8-2.8-3.4.2-.7 1.1-1 1.9-1.3l.2-.2c1-.6 1.7-1.3 2.7-1.8h.2c.6-1 1.6-1.6 2.5-2.4.6-.2 1.2.3 1.5.6M20 36.8c1.8.3 3.4 1.7 2.7 4v.5c-.6 1.6-2.3 2-3.5 3l-.4.2c-.8.3-1.2 1-2.1 1.5-2.3 1.2-6.4.3-9.3.4V46h-1c-1.8-.6-3.7-2-4-4.3 0-.5 0-1.6.2-2V39c.2-2.3 1-4.7 2.4-6.1v-.2c1.3-2.2 3-4.1 5.1-5.6.3-.1.4-.7.9-.4.7-1.2.6.7.5 1.1-.4 2.3-2.3 5.4.5 6.6 2.7.7 5.5 1.3 8 2.3"/></svg>