<svg xmlns="http://www.w3.org/2000/svg" viewBox="0 0 170.53 46.55"><path d="M11.58 8.3H6.85V5.14c0-.92-.05-1.49-.15-1.72-.1-.23-.32-.34-.67-.34-.39 0-.64.14-.74.42-.1.28-.16.88-.16 1.8v8.45c0 .88.05 1.46.16 1.73s.34.4.71.4c.35 0 .58-.13.69-.41.11-.27.16-.9.16-1.9v-2.29h4.73v.71c0 1.88-.13 3.22-.4 4-.27.79-.85 1.48-1.76 2.07-.91.59-2.03.89-3.36.89-1.38 0-2.53-.25-3.42-.75S1.13 17 .84 16.11c-.29-.89-.44-2.22-.44-4V6.79c0-1.31.04-2.29.13-2.95.09-.65.36-1.29.8-1.89S2.41.87 3.2.52C3.99.17 4.89 0 5.92 0c1.39 0 2.54.27 3.45.81.91.54 1.5 1.21 1.79 2.01.28.8.43 2.05.43 3.75V8.3zM21.45.38l2.7 18.18h-4.83l-.25-3.27h-1.69l-.28 3.27h-4.9L14.61.38h6.84zm-2.51 11.69c-.24-2.06-.48-4.6-.72-7.64-.48 3.48-.78 6.03-.91 7.64h1.63zM24.95.38h3.35c2.23 0 3.74.09 4.53.26s1.43.61 1.93 1.32c.5.71.75 1.84.75 3.39 0 1.42-.18 2.37-.53 2.85-.35.49-1.04.78-2.08.88.94.23 1.56.54 1.89.93s.52.75.6 1.07c.08.33.12 1.22.12 2.69v4.8h-4.39v-6.04c0-.97-.08-1.58-.23-1.81s-.56-.35-1.21-.35v8.2h-4.73V.38zm4.73 3.11v4.04c.53 0 .9-.07 1.12-.22.21-.15.32-.62.32-1.42v-1c0-.58-.1-.95-.31-1.13s-.58-.27-1.13-.27zM45.51.38l2.7 18.18h-4.83l-.25-3.27h-1.69l-.28 3.27h-4.89L38.68.38h6.83zm-2.5 11.69c-.24-2.06-.48-4.6-.72-7.64-.48 3.48-.78 6.03-.91 7.64h1.63zM59.76.38l-2.41 18.18h-7.18L47.44.38h4.99c.58 5.01.99 9.25 1.24 12.71.24-3.5.5-6.61.78-9.33l.33-3.38h4.98zM68.42.38l2.7 18.18H66.3l-.25-3.27h-1.69l-.28 3.27h-4.89L61.6.38h6.82zm-2.5 11.69c-.24-2.06-.48-4.6-.72-7.64-.48 3.48-.78 6.03-.91 7.64h1.63zM82.49.38v18.18h-4.14l-2.46-8.27v8.27h-3.95V.38h3.95l2.65 8.19V.38h3.95zM88.44.38h4.76c1.29 0 2.28.1 2.97.3s1.21.49 1.56.88c.35.38.58.84.71 1.39.12.54.18 1.38.18 2.52v1.58c0 1.16-.12 2.01-.36 2.54-.24.53-.68.94-1.32 1.22s-1.48.43-2.51.43h-1.27v7.32h-4.73V.38zm4.73 3.11v4.63c.13.01.25.01.35.01.43 0 .74-.11.9-.32.17-.21.25-.66.25-1.33V4.99c0-.62-.1-1.03-.29-1.21-.19-.19-.6-.29-1.21-.29zM107.59.38l2.7 18.18h-4.83l-.25-3.27h-1.69l-.28 3.27h-4.89L100.76.38h6.83zm-2.51 11.69c-.24-2.06-.48-4.6-.72-7.64-.48 3.48-.78 6.03-.91 7.64h1.63zM111.09.38h3.35c2.23 0 3.74.09 4.53.26s1.43.61 1.93 1.32c.5.71.75 1.84.75 3.39 0 1.42-.18 2.37-.53 2.85-.35.49-1.04.78-2.08.88.94.23 1.56.54 1.89.93s.52.75.6 1.07c.08.33.12 1.22.12 2.69v4.8h-4.39v-6.04c0-.97-.08-1.58-.23-1.81s-.56-.35-1.21-.35v8.2h-4.73V.38zm4.73 3.11v4.04c.53 0 .9-.07 1.12-.22.21-.15.32-.62.32-1.42v-1c0-.58-.1-.95-.31-1.13s-.58-.27-1.13-.27zM134.75.38l-2.71 8.21 2.97 9.97h-4.89l-1.91-7.79v7.79h-4.73V.38h4.73v7.06l2.11-7.06h4.43zM12.53 39.26v3.07l-1.26.81 1.58 3.03h-4.2l-.54-1.01c-1.41.93-2.74 1.39-4 1.39-1.32 0-2.33-.44-3.04-1.31C.36 44.35 0 43.3 0 42.06c0-.99.21-1.76.63-2.32s1.05-1.02 1.89-1.37c-1.2-.86-1.8-2.03-1.8-3.49 0-1.27.43-2.28 1.28-3.05s2.03-1.16 3.53-1.16c1.35 0 2.41.38 3.18 1.13.78.76 1.16 1.72 1.16 2.89 0 1.23-.47 2.32-1.41 3.27l1.6 2.89 2.47-1.59zM6.55 43.1l-1.46-2.45c-.56.51-.84 1.06-.84 1.65 0 .43.09.75.26.96.17.21.43.32.78.32.36 0 .78-.16 1.26-.48zm-1.02-7.03c.52-.67.78-1.3.78-1.91 0-.26-.08-.5-.22-.72-.15-.22-.36-.33-.63-.33-.25 0-.43.08-.56.25-.13.16-.19.42-.19.75-.02.71.26 1.36.82 1.96zM31.92 33.48h-4.39v-1.35c0-.63-.06-1.03-.17-1.2s-.3-.26-.56-.26c-.28 0-.5.12-.65.35-.15.23-.22.58-.22 1.06 0 .61.08 1.06.25 1.37.16.31.6.68 1.34 1.11 2.1 1.25 3.43 2.27 3.98 3.08s.82 2.09.82 3.87c0 1.3-.15 2.25-.45 2.86-.3.61-.89 1.13-1.76 1.54-.87.42-1.88.62-3.03.62-1.27 0-2.35-.24-3.24-.72s-1.48-1.09-1.76-1.83-.42-1.79-.42-3.16v-1.19h4.39v2.21c0 .68.06 1.12.18 1.31.12.19.34.29.66.29s.55-.12.7-.37c.15-.25.23-.61.23-1.1 0-1.07-.15-1.77-.44-2.1-.3-.33-1.04-.88-2.21-1.65-1.17-.78-1.95-1.34-2.34-1.7-.38-.35-.7-.84-.95-1.46s-.38-1.42-.38-2.38c0-1.39.18-2.41.53-3.05s.93-1.15 1.72-1.51c.79-.36 1.75-.54 2.88-.54 1.23 0 2.27.2 3.14.6.87.4 1.44.9 1.72 1.5s.42 1.63.42 3.07v.73zM33.79 27.98h7.88v3.64h-3.16v3.45h2.95v3.46h-2.95v4h3.47v3.64h-8.2V27.98zM51.52 27.98l2.7 18.18h-4.83l-.25-3.27h-1.69l-.28 3.27h-4.89l2.41-18.18h6.83zm-2.5 11.69c-.24-2.06-.48-4.6-.72-7.64-.48 3.48-.78 6.03-.91 7.64h1.63zM65.05 33.48h-4.39v-1.35c0-.63-.06-1.03-.17-1.2s-.3-.26-.56-.26c-.28 0-.5.12-.65.35-.15.23-.22.58-.22 1.06 0 .61.08 1.06.25 1.37.16.31.6.68 1.34 1.11 2.1 1.25 3.43 2.27 3.98 3.08s.82 2.09.82 3.87c0 1.3-.15 2.25-.45 2.86-.3.61-.89 1.13-1.76 1.54-.87.42-1.88.62-3.03.62-1.27 0-2.35-.24-3.24-.72s-1.5-1.07-1.77-1.81c-.28-.74-.42-1.79-.42-3.16v-1.19h4.39v2.21c0 .68.06 1.12.18 1.31.12.19.34.29.66.29s.55-.12.7-.37c.15-.25.23-.61.23-1.1 0-1.07-.15-1.77-.44-2.1-.3-.33-1.04-.88-2.21-1.65-1.17-.78-1.95-1.34-2.34-1.7-.38-.35-.7-.84-.95-1.46s-.38-1.42-.38-2.38c0-1.39.18-2.41.53-3.05s.93-1.15 1.72-1.51c.79-.36 1.75-.54 2.88-.54 1.23 0 2.27.2 3.14.6.87.4 1.44.9 1.72 1.5s.42 1.63.42 3.07v.71zM71.65 27.98v18.18h-4.73V27.98h4.73zM73.55 27.98h3.54c2.28 0 3.83.1 4.63.31s1.42.55 1.84 1.03c.42.48.68 1.01.79 1.6.1.59.16 1.74.16 3.46v6.37c0 1.63-.08 2.72-.23 3.27-.15.55-.42.98-.8 1.29-.38.31-.85.53-1.41.65-.56.12-1.41.19-2.54.19h-5.96V27.98zm4.73 3.11v11.96c.68 0 1.1-.14 1.26-.41.16-.27.24-1.02.24-2.23v-7.06c0-.82-.03-1.35-.08-1.58-.05-.23-.17-.4-.36-.51-.2-.11-.55-.17-1.06-.17zM86.26 27.98h7.88v3.64h-3.16v3.45h2.95v3.46h-2.95v4h3.47v3.64h-8.2V27.98zM114.97 35.9h-4.73v-3.16c0-.92-.05-1.49-.15-1.72-.1-.23-.32-.34-.67-.34-.39 0-.64.14-.74.42-.1.28-.16.88-.16 1.8v8.45c0 .88.05 1.46.16 1.73s.34.4.71.4c.35 0 .58-.13.69-.41.11-.27.16-.9.16-1.9v-2.29h4.73v.71c0 1.88-.13 3.22-.4 4s-.85 1.48-1.76 2.07c-.91.59-2.03.89-3.36.89-1.38 0-2.53-.25-3.42-.75-.9-.5-1.49-1.2-1.79-2.08-.29-.89-.44-2.22-.44-4v-5.31c0-1.31.04-2.29.13-2.95.09-.65.36-1.29.8-1.89s1.06-1.08 1.85-1.43c.79-.35 1.7-.52 2.72-.52 1.39 0 2.54.27 3.45.81.91.54 1.5 1.21 1.79 2.01.28.8.43 2.05.43 3.75v1.71zM124.83 27.98l2.7 18.18h-4.83l-.25-3.27h-1.69l-.28 3.27h-4.89L118 27.98h6.83zm-2.5 11.69c-.24-2.06-.48-4.6-.72-7.64-.48 3.48-.78 6.03-.91 7.64h1.63zM128.34 27.98h4.72c1.49 0 2.62.12 3.39.35s1.39.7 1.86 1.41c.47.71.71 1.85.71 3.42 0 1.06-.17 1.8-.5 2.22s-.99.74-1.97.96c1.09.25 1.83.66 2.22 1.23.39.57.58 1.45.58 2.64v1.69c0 1.23-.14 2.14-.42 2.73-.28.59-.73 1-1.34 1.21-.61.22-1.87.33-3.77.33h-5.47V27.98zm4.73 3.11v4.04c.2-.01.36-.01.47-.01.46 0 .76-.11.89-.34.13-.23.19-.88.19-1.96 0-.57-.05-.97-.16-1.2-.11-.23-.24-.37-.41-.43-.17-.06-.49-.09-.98-.1zm0 6.88v5.09c.67-.02 1.09-.13 1.27-.31s.27-.65.27-1.38v-1.7c0-.78-.08-1.25-.25-1.42-.15-.17-.59-.26-1.29-.28zM145.77 27.98v18.18h-4.73V27.98h4.73zM158.23 27.98v18.18h-4.14l-2.46-8.27v8.27h-3.95V27.98h3.95l2.65 8.19v-8.19h3.95zM170.14 33.48h-4.39v-1.35c0-.63-.06-1.03-.17-1.2s-.3-.26-.56-.26c-.28 0-.5.12-.65.35-.15.23-.22.58-.22 1.06 0 .61.08 1.06.25 1.37.16.31.6.68 1.34 1.11 2.1 1.25 3.43 2.27 3.98 3.08s.82 2.09.82 3.87c0 1.3-.15 2.25-.45 2.86-.3.61-.89 1.13-1.76 1.54-.87.42-1.88.62-3.03.62-1.27 0-2.35-.24-3.24-.72s-1.48-1.09-1.76-1.83-.42-1.79-.42-3.16v-1.19h4.39v2.21c0 .68.06 1.12.18 1.31.12.19.34.29.66.29s.55-.12.7-.37c.15-.25.23-.61.23-1.1 0-1.07-.15-1.77-.44-2.1-.3-.33-1.04-.88-2.21-1.65-1.17-.78-1.95-1.34-2.34-1.7-.38-.35-.7-.84-.95-1.46s-.38-1.42-.38-2.38c0-1.39.18-2.41.53-3.05s.93-1.15 1.72-1.51c.79-.36 1.75-.54 2.88-.54 1.23 0 2.27.2 3.14.6.87.4 1.44.9 1.72 1.5s.42 1.63.42 3.07v.73z"/></svg>