<?xml version="1.0" encoding="utf-8"?>
<!-- Generator: Adobe Illustrator 22.0.1, SVG Export Plug-In . SVG Version: 6.00 Build 0)  -->
<svg version="1.1" id="Layer_1" xmlns="http://www.w3.org/2000/svg" xmlns:xlink="http://www.w3.org/1999/xlink" x="0px" y="0px"
	 viewBox="0 0 340.75 49.8483" enable-background="new 0 0 340.75 49.8483" xml:space="preserve">
<path d="M84.5,16.0743c0,2.0568-0.3294,3.874-0.9847,5.4515c-0.6567,1.578-1.4936,2.9516-2.5114,4.1212
	c-1.0185,1.1701-2.1503,2.1542-3.3939,2.9516c-1.2457,0.7979-2.4437,1.445-3.5976,1.941c-1.1545,0.4972-2.1958,0.8775-3.1225,1.1436
	c-0.9281,0.2656-1.5958,0.4344-2.0025,0.5053v8.5086h1.6966v3.4569H57.0078v-3.4569h1.6973V6.5551h-1.6973V3.0983h9.5036
	c2.624,0,5.0456,0.2927,7.2628,0.8775c2.2172,0.5853,4.1175,1.4363,5.7023,2.5529c1.5834,1.1166,2.8173,2.4728,3.6998,4.0682
	C84.0588,12.1922,84.5,14.0185,84.5,16.0743z M73.7742,15.9682c0-1.0636-0.0794-2.1358-0.2375-3.2178
	c-0.1588-1.0809-0.4302-2.0644-0.8141-2.9511c-0.3853-0.8861-0.8942-1.6132-1.5274-2.1807c-0.6346-0.5664-1.4031-0.851-2.3077-0.851
	V28.625c0.3156,0,0.7568-0.363,1.3237-1.0901c0.5648-0.726,1.1083-1.6754,1.6289-2.845c0.5193-1.1701,0.9722-2.5172,1.3576-4.0417
	C73.5816,19.1243,73.7742,17.5636,73.7742,15.9682z M112.5,26.1163c0,3.7099-0.3176,6.7571-0.9511,9.1418
	c-0.6346,2.3851-1.4827,4.2717-2.5459,5.6583c-1.0632,1.3876-2.3034,2.3547-3.7207,2.8988
	c-1.4184,0.5461-2.929,0.8182-4.5323,0.8182c-1.6039,0-3.1151-0.2721-4.5318-0.8182c-1.4184-0.5442-2.658-1.5113-3.7213-2.8988
	c-1.0626-1.3866-1.9118-3.2732-2.5453-5.6583C89.3165,32.8735,89,29.8262,89,26.1163c0-3.6785,0.3165-6.7177,0.9517-9.1189
	c0.6335-2.3998,1.4827-4.294,2.5453-5.6816c1.0632-1.3866,2.3029-2.3532,3.7213-2.8988c1.4167-0.5451,2.9278-0.8187,4.5318-0.8187
	c1.6034,0,3.1139,0.2735,4.5323,0.8187c1.4172,0.5456,2.6575,1.5122,3.7207,2.8988c1.0632,1.3876,1.9113,3.2818,2.5459,5.6816
	C112.1824,19.3987,112.5,22.4378,112.5,26.1163z M103.268,26.1163c0-3.3041-0.0472-5.9694-0.14-7.9963
	c-0.0933-2.0264-0.243-3.5929-0.4474-4.6998c-0.2055-1.106-0.4673-1.8471-0.7838-2.221c-0.317-0.3744-0.6989-0.5613-1.1469-0.5613
	c-0.4474,0-0.8304,0.1869-1.1469,0.5613c-0.3176,0.3739-0.5788,1.115-0.7832,2.221c-0.2055,1.1069-0.3552,2.6734-0.4479,4.6998
	c-0.0933,2.0269-0.14,4.6922-0.14,7.9963c0,3.3046,0.0467,5.9699,0.14,7.9963c0.0928,2.0269,0.2425,3.5933,0.4479,4.6993
	c0.2043,1.1069,0.4656,1.8471,0.7832,2.2215c0.3165,0.3739,0.6995,0.5608,1.1469,0.5608c0.4479,0,0.8299-0.1869,1.1469-0.5608
	c0.3165-0.3744,0.5783-1.1145,0.7838-2.2215c0.2043-1.106,0.354-2.6724,0.4474-4.6993
	C103.2208,32.0862,103.268,29.4209,103.268,26.1163z M131.5725,44.1539c0-0.8916-0.0791-1.7904-0.2354-2.6969
	c-0.1575-0.9065-0.5103-1.8348-1.0595-2.7863c-0.5109-1.0403-1.0894-1.9169-1.7369-2.6303c-0.648-0.7133-1.2272-1.263-1.7369-1.6498
	v9.7632H116.5v-2.8978h1.4722V12.6357H116.5V9.7379h8.4197c2.0016,0,3.9242,0.2159,5.77,0.6467
	c1.8441,0.4313,3.4827,1.092,4.916,1.9836c1.4326,0.8916,2.5808,2.0063,3.4444,3.3436c0.8631,1.3373,1.2955,2.9132,1.2955,4.7254
	c0,1.516-0.2066,2.8611-0.6187,4.0347c-0.4121,1.1741-0.9325,2.2067-1.5602,3.0983c-0.6283,0.8916-1.3344,1.6571-2.1196,2.296
	c-0.7852,0.6394-1.5506,1.1813-2.2963,1.6271c0.6672,0.5945,1.4033,1.3451,2.2082,2.2511c0.8038,0.907,1.4811,1.9246,2.031,3.0538
	c0.5097,0.9514,0.8439,1.7464,1.0014,2.3849c0.1563,0.6394,0.2941,1.3305,0.4121,2.0729h1.4716v2.8978H131.5725z M131.0425,20.4821
	c0-2.5559-0.4222-4.4728-1.2655-5.7512c-0.8445-1.2775-1.8351-1.9169-2.9731-1.9169v18.3674
	c0.3917-0.2077,0.8433-0.6245,1.3542-1.2485c0.5097-0.624,0.9715-1.4045,1.3835-2.3405s0.7654-2.0131,1.0595-3.232
	C130.8957,23.1423,131.0425,21.8493,131.0425,20.4821z M164.2454,17.0936l-0.8009-4.4578h-3.5114v28.6204h1.8481v2.8978h-12.9375
	v-2.8978h1.8481V12.6357h-3.5114l-0.8009,4.4578h-4.0046V9.7379h25.875v7.3557H164.2454z M180.125,44.1539v-3.4569h1.7785V6.5551
	h-1.7785V3.0983h14.2255v3.4569h-1.7777v34.1419h6.6146l1.565-6.6476h4.6227v10.1045H180.125z M223.0161,44.1539V31.826h-5.5908
	v12.3279H207.125V41.24h1.4716v-9.414h-1.4716v-2.9135h1.4716v-9.683c0-1.7037,0.3329-3.183,1.0005-4.4379
	c0.667-1.2554,1.5393-2.3088,2.6194-3.1606c1.0783-0.8514,2.3146-1.4862,3.7078-1.9048c1.392-0.4182,2.8151-0.6279,4.267-0.6279
	c1.4513,0,2.8738,0.2098,4.267,0.6279c1.392,0.4186,2.6385,1.0534,3.7372,1.9048c1.098,0.8518,1.9811,1.9052,2.6487,3.1606
	c0.6664,1.255,1.0004,2.7343,1.0004,4.4379V41.24h1.5303v2.9139H223.0161z M223.0161,15.5089c0-1.0461-0.2748-1.8897-0.8238-2.5327
	c-0.5496-0.6425-1.2166-0.964-2.0009-0.964c-0.7855,0-1.4423,0.3215-1.9716,0.964c-0.5299,0.643-0.7945,1.4866-0.7945,2.5327
	v13.4036h5.5908V15.5089z M260.5202,12.0506l-8.3453,32.2469h-7.1015l-8.3441-32.2469H235.25V9.0983h9.4693l5.859,22.9367
	l5.859-22.9367H262v2.9523H260.5202z M279.2167,44.1539V31.826h-5.6174v12.3279H263.25V41.24h1.4786v-9.414H263.25v-2.9135h1.4786
	v-9.683c0-1.7037,0.3345-3.183,1.0058-4.4379c0.6689-1.2554,1.546-2.3088,2.6312-3.1606c1.084-0.8514,2.3257-1.4862,3.7261-1.9048
	c1.398-0.4182,2.8274-0.6279,4.2867-0.6279c1.4582,0,2.8875,0.2098,4.2867,0.6279c1.3993,0.4186,2.6517,1.0534,3.7562,1.9048
	c1.1021,0.8518,1.99,1.9052,2.6613,3.1606c0.6689,1.255,1.0046,2.7343,1.0046,4.4379V41.24h1.5376v2.9139H279.2167z
	 M279.2167,15.5089c0-1.0461-0.2767-1.8897-0.8278-2.5327c-0.5522-0.6425-1.2224-0.964-2.0104-0.964
	c-0.7892,0-1.4498,0.3215-1.9815,0.964c-0.5318,0.643-0.7977,1.4866-0.7977,2.5327v13.4036h5.6174V15.5089z M307.7892,14.4693
	l-0.5909-2.2567c-0.0793-0.0298-0.1777-0.0455-0.2954-0.0455c-0.1177,0-0.2354,0-0.3531,0c-0.4347,0-0.9067,0.2337-1.4171,0.6997
	c-0.5116,0.4669-0.9848,1.264-1.4171,2.3921c-0.4336,1.1286-0.7878,2.6258-1.0616,4.4913
	c-0.2762,1.8659-0.4143,4.1975-0.4143,6.9959c0,3.4605,0.2366,6.1763,0.7086,8.147c0.472,1.9711,1.0533,3.438,1.7414,4.4004
	c0.6881,0.9633,1.4363,1.5652,2.2433,1.8053c0.8058,0.2415,1.5432,0.3613,2.2133,0.3613c0.472,0,0.9247-0.0298,1.3571-0.0905
	c0.4323-0.0597,0.7878-0.1198,1.064-0.1804v2.798c-0.3555,0.09-0.7494,0.1662-1.1817,0.2259
	c-0.3531,0.0606-0.747,0.1047-1.1805,0.1359c-0.4335,0.0294-0.8851,0.045-1.3583,0.045c-1.0232,0-2.1149-0.0615-3.275-0.1809
	c-1.1613-0.1194-2.3118-0.3838-3.4527-0.7897c-1.1433-0.4059-2.2242-1-3.2473-1.7828c-1.0232-0.7819-1.9383-1.8278-2.7454-3.1368
	c-0.807-1.309-1.446-2.9183-1.9179-4.8297c-0.472-1.9105-0.7086-4.22-0.7086-6.928c0-2.7085,0.2366-5.017,0.7086-6.9284
	c0.472-1.9105,1.1109-3.5207,1.9179-4.8297c0.807-1.3085,1.7221-2.354,2.7454-3.1368c1.0232-0.7819,2.0956-1.3765,3.2173-1.7828
	c1.1205-0.4059,2.2325-0.669,3.335-0.7897c1.1013-0.1198,2.1449-0.1804,3.1284-0.1804c0.4323,0,0.8755,0.0225,1.3282,0.0675
	c0.4515,0.0455,0.8947,0.0983,1.3282,0.1579c0.472,0.0606,0.9439,0.1208,1.4159,0.1809v4.9647H307.7892z M330.7421,44.1539V31.826
	h-5.4013v12.3279h-9.9512V41.24h1.4218v-9.414h-1.4218v-2.9135h1.4218v-9.683c0-1.7037,0.3216-3.183,0.9671-4.4379
	c0.6432-1.2554,1.4865-2.3088,2.53-3.1606c1.0423-0.8514,2.2362-1.4862,3.5827-1.9048c1.3443-0.4182,2.7186-0.6279,4.1219-0.6279
	c1.4021,0,2.7764,0.2098,4.1218,0.6279c1.3454,0.4186,2.5497,1.0534,3.6117,1.9048c1.0597,0.8518,1.9134,1.9052,2.5589,3.1606
	c0.6432,1.255,0.966,2.7343,0.966,4.4379V41.24h1.4785v2.9139H330.7421z M330.7421,15.5089c0-1.0461-0.2661-1.8897-0.7959-2.5327
	c-0.531-0.6425-1.1754-0.964-1.9331-0.964c-0.7589,0-1.394,0.3215-1.9053,0.964c-0.5113,0.643-0.767,1.4866-0.767,2.5327v13.4036
	h5.4013V15.5089z M4.7006,41.3973c0.7986,1.15,1.6869,2.232,2.6538,3.2388h38.0412c0.9669-1.0068,1.8552-2.0888,2.6538-3.2388
	H4.7006z M1.8436,36.0603c0.4423,1.1191,0.9574,2.2008,1.5423,3.2388h45.9783c0.5848-1.038,1.1-2.1197,1.5423-3.2388H1.8436z
	 M1.1131,33.9621h50.5238c0.316-1.0534,0.5667-2.1345,0.75-3.2388H0.3631C0.5464,31.8276,0.7971,32.9087,1.1131,33.9621z
	 M340.75,47.6816H6.5v2.1667h334.25V47.6816z M26.375,0C11.8085,0,0,11.8085,0,26.375c0,0.7586,0.0394,1.5076,0.1022,2.25h52.5457
	c0.0627-0.7424,0.1022-1.4914,0.1022-2.25C52.75,11.8085,40.9415,0,26.375,0z M26.5,26.3483H10.1661L26.5,2.5977V26.3483z
	 M28.5834,26.3483V5.2041l11.9161,21.1442H28.5834z"/>
</svg>
