<?xml version="1.0" encoding="utf-8"?>
<!-- Generator: Adobe Illustrator 22.0.1, SVG Export Plug-In . SVG Version: 6.00 Build 0)  -->
<svg version="1.1" id="Layer_1" xmlns="http://www.w3.org/2000/svg" xmlns:xlink="http://www.w3.org/1999/xlink" x="0px" y="0px"
	 viewBox="0 0 1936.33 768.19" enable-background="new 0 0 1936.33 768.19" xml:space="preserve">
<path d="M1936.33,227.19l-145.54,306.5h-245.71c-20.48,0-39.15-8.78-51.21-23.79c-21.79,14.24-49.42,23.79-81.44,23.79h-330.98
	c-46.44,0-67.23-21.33-75.58-34.32c-5.94,5.02-12.39,9.61-19.26,13.67c-22.92,13.51-49.15,20.66-75.86,20.66H784.51
	c-15.44,0-29.44-2.59-41.61-7.69c-14.41-6.05-26.09-15.65-33.75-27.78c-6.79-10.75-10.34-23.34-10.24-36.43
	c0.04-6.27,0.91-12.62,2.57-18.99c-8.39,1.4-17.09,2.14-26.05,2.14H556.56l-41.38,88.75H363.11l82.46-176.83h-37.32L219.93,768.19
	l13.82-346.1c-1.3,0.7-2.63,1.37-3.97,2.01c-13.79,6.55-29.26,9.6-48.69,9.6H0l62-129h111.89L395.26,0l-19.98,228.39
	c5.84-0.81,361.7-1.21,361.7-1.21c22.26,0,41.96,6.07,56.95,17.15l8.15-17.15h151.98l-84.28,177.5h42.34l84.28-177.5h254.61
	l-84.28,177.5h83.8c-4.97-9.52-7.55-20.24-7.49-31.31c0.05-11.57,2.91-23.4,8.49-35.16l16.94-35.67
	c11.46-24.14,31.15-44.08,56.92-57.68c21.63-11.41,46.56-17.69,70.19-17.69H1936.33z M581.88,640.02h30.49l30.05-53.77h-30.49
	L581.88,640.02z M699.99,577.94l10.34-18.5H573.09l-10.34,18.5H699.99z M730.49,622.06c-4.5,8.05-0.07,17.96,20.62,17.96h60.47
	c17.84,0,34.31-6.45,41.45-19.22l34.29-61.36h-30.7l-35.14,62.88h-60.47l35.14-62.88h-30.66L730.49,622.06z M958.73,559.44
	l-45.04,80.58h30.42l31.03-55.52l28.04,46.67c3.3,5.49,9.24,8.85,15.65,8.85h31.67l45.04-80.58h-30.71l-31.23,55.88l-28.97-48.22
	c-2.53-4.21-8.63-7.66-13.54-7.66H958.73z M1122.14,640.02h30.58l45.04-80.58l-30.58,0L1122.14,640.02z M1268.82,559.44
	l-44.48,80.58h30.49l30.84-55.86l28.73,47.82c3,4.99,8.39,8.04,14.22,8.04h32.68l44.48-80.58h-30.47l-31.01,56.17l-28.88-48.07
	c-3.02-5.03-9.34-8.1-16.1-8.1H1268.82z M1498.17,577.94h90.05l10.21-18.5h-90.6c-17.92,0-35.4,7.68-41.02,17.86l-24.98,45.25
	c-4.33,7.85-0.73,17.47,20.68,17.47h68.7c18.7,0,34.79-7.98,41.88-20.84l15.45-27.99h-61.28l-9.87,17.88h30.9l-7.31,13.25h-66.12
	c-1.16,0-1.89-1.24-1.33-2.26l22.58-40.91C1496.53,578.4,1497.31,577.94,1498.17,577.94z"/>
<path fill="#FFFF00" d="M1395.57,240.19c-21.55,0-44.33,5.75-64.12,16.19c-23.27,12.27-40.99,30.17-51.24,51.76l-16.94,35.67
	c-9.99,21.04-9.67,41.84,0.91,58.58c3.72,5.89,8.66,11.05,14.57,15.31h-132.59l84.28-177.5h-225.83l-84.28,177.5h-71.12l84.28-177.5
	H810.3l-12.35,26.02c-12.92-16.6-34.8-26.02-60.96-26.02H393.75c-12.26,0-23.23,1.62-32.98,4.89l17.45-199.51L180.52,317.69H72.08
	l-49,103h158c17.43,0,31.14-2.65,43.12-8.34c8.71-4.14,16.38-9.84,23.65-17.64l-12.3,308.13L399.9,343.85h66.07l-82.46,176.83
	h123.38l41.38-88.75h127.14c17.16,0,33.28-2.9,47.8-8.35l-3.98,8.38c-10.12,21.32-9.8,42.38,0.9,59.3
	c11.99,18.97,34.86,29.42,64.37,29.42h126.24c24.39,0,48.34-6.52,69.26-18.85c11.61-6.85,21.87-15.34,30.24-24.89
	c1.31,5.38,3.45,10.48,6.37,15.1c11.68,18.47,34.7,28.64,64.83,28.64h330.98c26.55,0,51.97-7.31,73.53-21.15
	c4.04-2.6,7.91-5.39,11.57-8.37c0.95,2.13,2.06,4.2,3.33,6.2c9.27,14.6,25.79,23.32,44.21,23.32h237.49l133.19-280.5H1395.57z"/>
<path d="M736.98,265.19H530.24l-107.48,230.5h68.21l41.38-88.75h143.07c39.5,0,71.82-18.25,86.74-50.23l19.32-41.44
	C792.36,291.93,776.58,265.19,736.98,265.19z M710.93,321.06l-13.96,29.93c-1,2.15-3.17,3.53-5.54,3.53H556.79l16.63-35.67h136.1
	C710.66,318.85,711.41,320.03,710.93,321.06z M893.96,265.19l-83.19,175.21c-0.51,1.06,0.27,2.29,1.45,2.29h119.86
	c2.49,0,4.76-1.43,5.83-3.68l82.53-173.82h67.16l-84.28,177.5c-14.07,29.63-51.05,53-92.55,53H784.51c-38.59,0-57.21-22.41-42.69-53
	l84.28-177.5H893.96z M1190.9,265.19l-84.28,177.5h327.64c1.76,0,3.36-1.02,4.11-2.62l14.55-31.2c0.42-0.9-0.24-1.93-1.23-1.93
	l-123.41-0.66c-37.19,0.66-57.02-21.01-42.42-51.76l16.94-35.67c17.13-36.08,59.46-53.67,92.78-53.67h480.65l-25.48,53.67h-195.36
	l-16.78,35.67h178.54l-25.2,53.07l-178.01-0.65l-16.82,35.75h194.83l-25.17,53h-221.69c-20.83,0-31.92-18.53-24.33-34.65
	l66.91-142.18h-212.21c-3.34,0-6.39,1.92-7.83,4.94l-13.23,27.74c-0.66,1.39,0.35,2.99,1.89,2.99h121.99
	c53.99,0,52.84,34.17,44.18,52.42l-16.98,35.75c-11.79,24.82-45.21,53-93.03,53h-330.98c-38.08,0-58.21-19.37-42.24-53l84.28-177.5
	H1190.9z"/>
<path d="M128.36,342.69l-24.27,53h76.98c27.67,0,40.94-7.88,53.35-23.75l41.47-53.08l-10.32,258.32l118.27-258.32l90.29,0
	l25.48-53.67H393.75c-28.5,0-44.3,10.18-54.66,30.51l-9.47,18.6l15.84-181.1l-152.21,209.5H128.36z"/>
<path fill="#FF0000" d="M327.13,314.07l-1.12,12.81l5.84-11.46l9.47-18.6c10.41-20.43,26.09-29.14,52.43-29.14h101.93l-23.11,48.67
	h-88.71h-1.61l-0.67,1.46l-112.99,246.8l9.81-245.66l0.31-7.75l-4.78,6.12l-41.47,53.08c-11.28,14.44-23.3,22.79-51.38,22.79h-73.09
	l21.98-48h63.29h1.27l0.75-1.03l146.91-202.2L327.13,314.07z"/>
<polygon fill="#ED1C24" points="507.67,265.19 519.62,265.19 494.13,318.85 482.19,318.85 "/>
<polygon points="519.62,265.19 507.67,265.19 482.19,318.85 494.13,318.85 519.62,265.19 "/>
<polyline fill="#FF0000" points="515.66,267.69 492.55,316.35 486.15,316.35 509.25,267.69 515.66,267.69 "/>
<polygon points="95.4,395.69 119.66,342.69 107.53,342.69 83.24,395.69 "/>
<polygon points="119.66,342.69 107.53,342.69 83.24,395.69 95.4,395.69 119.66,342.69 "/>
<polyline fill="#FF0000" points="115.77,345.19 93.79,393.19 87.14,393.19 109.13,345.19 115.77,345.19 "/>
<linearGradient id="SVGID_1_" gradientUnits="userSpaceOnUse" x1="1173.7201" y1="267.686" x2="1173.7201" y2="389.186">
	<stop  offset="0" style="stop-color:#000000"/>
	<stop  offset="0.2012" style="stop-color:#040404"/>
	<stop  offset="0.4098" style="stop-color:#111111"/>
	<stop  offset="0.6217" style="stop-color:#252525"/>
	<stop  offset="0.8345" style="stop-color:#424242"/>
	<stop  offset="1" style="stop-color:#5E5E5E"/>
</linearGradient>
<path fill="url(#SVGID_1_)" d="M777.89,285.41c-7.17-11.26-22.08-17.72-40.9-17.72H531.83l-56.66,121.5h62.69h192.9
	c12.23-7.88,22.06-18.39,29.12-33.54l19.32-41.44C783.78,304.4,783.3,293.9,777.89,285.41z M713.2,322.11l-13.96,29.93
	c-1.41,3.02-4.47,4.97-7.81,4.97H556.79h-3.92l1.66-3.56l16.63-35.67l0.67-1.44h1.59h136.1c1.39,0,2.67,0.7,3.42,1.87
	C713.69,319.4,713.78,320.85,713.2,322.11z M769.99,389.19l57.69-121.5H890l-57.69,121.5H769.99z M1067.38,389.19l57.69-121.5h61.87
	l-57.69,121.5H1067.38z M1872.26,267.69l-23.11,48.67h-195.37l-19.14,40.67h178.53l-15.27,32.17h-178.39h-62.19l32.6-69.27
	l1.68-3.56h-3.94h-212.21c-4.28,0-8.24,2.5-10.08,6.36l-13.23,27.74c-0.68,1.43-0.58,3.08,0.26,4.42c0.85,1.34,2.3,2.14,3.88,2.14
	h121.99c21.32,0,35.49,5.31,42.11,15.78c2.93,4.64,4.13,11.01,4.02,16.39h-235.92c-7.01-10.35-6.24-21.2-0.35-33.59l16.94-35.67
	c7.68-16.18,21.25-29.74,39.23-39.23c15.91-8.39,34.13-13.01,51.29-13.01H1872.26 M1083.63,267.69l-57.69,121.5h-61.63l57.69-121.5
	H1083.63"/>
<polygon points="89.37,315.41 36.83,422.56 51.5,422.74 103.1,316.45 "/>
<path fill="#D20000" d="M231.7,371.35c-10.61,13.9-22.54,21.83-50.62,21.83h-73.09l10-21.83H231.7z M357.07,371.35l-88.48,193.26
	l7.72-193.26H357.07z M87.14,393.19h6.65l10-21.83h-6.64L87.14,393.19z"/>
</svg>
