<?xml version="1.0" encoding="utf-8"?>
<!-- Generator: Adobe Illustrator 22.0.1, SVG Export Plug-In . SVG Version: 6.00 Build 0)  -->
<svg version="1.1" id="Layer_1" xmlns="http://www.w3.org/2000/svg" xmlns:xlink="http://www.w3.org/1999/xlink" x="0px" y="0px"
	 viewBox="0 0 68.772 17.0839" enable-background="new 0 0 68.772 17.0839" xml:space="preserve">
<path fill="#231F20" d="M9.6609,0.0005l-4.83,8.368L0,0.0005H9.6609z M11.5655,17.0839l2.611-4.2l-5.93-5.93l-3.415,3.416v-2.002
	h-4.831v8.3669h4.831v-6.365L11.5655,17.0839z M9.6606,0v8.368c2.311,0,4.184-1.873,4.184-4.184C13.8447,1.873,11.9716,0,9.6606,0z
	 M26.0052,14.0941l-0.176,0.997h-3.128l-0.297-1.091l-4.604,0.001l-0.674,1.091h-2.956h-0.812l0.419-0.674l7.871-12.66h1.032
	L26.0052,14.0941z M21.6893,11.2621l-0.576-2.917l-1.626,2.917H21.6893z M48.3356,11.1404c0-1.289-0.595-2.243-1.567-2.817
	c0.733-0.596,1.17-1.469,1.17-2.6c0-2.183-1.648-3.73-4.127-3.729h-4.326l-2.3,13.095h6.389
	C46.1937,15.0884,48.3356,13.5604,48.3356,11.1404z M44.9827,11.0414c0,0.814-0.535,1.171-1.389,1.171h-2.639l0.417-2.262h2.42
	C44.5266,9.9504,44.9827,10.2874,44.9827,11.0414z M43.3557,4.8514c0.773,0,1.21,0.4561,1.21,1.11c0,0.755-0.575,1.211-1.408,1.211
	h-1.31l0.416-2.321H43.3557z M52.1055,12.0135l1.765-10.021l-3.412,0.001l-2.301,13.095l8.7321-0.001l0.542-3.075L52.1055,12.0135z
	 M66.709,15.0868l0.535-3.075h-5.913l0.398-2.281l4.046-0.001l0.517-2.857h-4.048l0.318-1.806h5.674l0.536-3.075l-9.015,0.001
	l-2.308,13.095L66.709,15.0868z M37.3641,11.1423c0,2.42-2.142,3.948-4.762,3.948h-6.213l2.307-13.095h4.143
	c2.48,0,4.128,1.547,4.128,3.73c0,1.131-0.437,2.004-1.171,2.599C36.7681,8.8993,37.3641,9.8523,37.3641,11.1423z M30.8751,7.1733
	h1.309c0.834,0,1.41-0.456,1.41-1.21c-0.001-0.655-0.438-1.111-1.211-1.111h-1.091L30.8751,7.1733z M32.6211,12.2133
	c0.8539,0,1.39-0.357,1.39-1.171c0-0.754-0.457-1.091-1.191-1.091h-2.421l-0.417,2.262H32.6211z M26.0052,14.0941l-0.176,0.997
	h-3.128l-0.297-1.091l-4.604,0.001l-0.674,1.091h-2.956h-0.812l0.419-0.674l7.871-12.66h1.032L26.0052,14.0941z M21.6893,11.2621
	l-0.576-2.917l-1.626,2.917H21.6893z"/>
</svg>
