<?xml version="1.0" encoding="utf-8"?>
<!-- Generator: Adobe Illustrator 22.0.1, SVG Export Plug-In . SVG Version: 6.00 Build 0)  -->
<svg version="1.1" id="Layer_1" xmlns="http://www.w3.org/2000/svg" xmlns:xlink="http://www.w3.org/1999/xlink" x="0px" y="0px"
	 viewBox="0 0 58.7882 15.753" enable-background="new 0 0 58.7882 15.753" xml:space="preserve">
<path fill="#231F20" d="M2.817,9.9272c0.7627,0,1.4705,0.2798,1.9894,0.8059c0.5117,0.5165,0.7938,1.2147,0.8011,1.9679
	c0.0072,1.504-1.0474,2.6638-2.4892,2.7976c-0.0861,0.0072-0.1746,0.012-0.263,0.0144c-0.7939,0.0047-1.5209-0.2774-2.0469-0.7963
	c-0.5165-0.5093-0.8034-1.2124-0.8082-1.9776c-0.0072-0.758,0.2726-1.4611,0.782-1.9799C1.3033,10.2261,2.0279,9.9272,2.817,9.9272z
	 M17.9369,9.481c-0.067-0.0527-0.1579-0.0741-0.2367-0.067c-0.0838,0.012-0.1602,0.0574-0.2128,0.1267
	c-1.0617,1.4228-2.2214,2.0803-3.6585,2.0851c-1.0139,0.0025-1.8723-0.318-2.4819-0.9206c-0.6122-0.6121-0.9374-1.48-0.9397-2.5155
	c0-1.1454,0.3993-2.183,1.1261-2.922c0.727-0.7364,1.7432-1.1454,2.8623-1.1429c1.5782,0,2.6877,0.7699,3.405,2.3528
	c0.0382,0.0813,0.11,0.1459,0.1937,0.1722c0.0861,0.0239,0.1794,0.0143,0.2582-0.0311l3.0942-1.8364
	c0.134-0.0813,0.1913-0.2487,0.1292-0.3945C20.3256,1.5974,17.8245-0.0023,14.6155,0C9.697,0.0143,5.8807,3.68,5.8854,8.3691
	c0.0048,4.2826,3.2257,7.3887,7.6614,7.3839c0.2869,0,0.5715-0.0143,0.8511-0.0407c2.5825-0.2414,4.8398-1.5613,6.2816-3.7086
	c0.0909-0.1363,0.0647-0.3228-0.0668-0.4257L17.9369,9.481z M25.7808,11.3738l1.8914-10.796
	c0.0168-0.0909-0.0095-0.1865-0.0717-0.2583c-0.0598-0.0693-0.1483-0.11-0.2392-0.11l-3.8019,0.0025
	c-0.1554-0.0096-0.2869,0.1099-0.3133,0.263L20.695,15.0682c-0.0168,0.0908,0.0118,0.1864,0.0693,0.2582
	c0.0622,0.0718,0.1506,0.1124,0.2439,0.1124l9.8373-0.012c0.0072,0.0025,0.0191,0,0.0286,0
	c0.1388-0.0143,0.2558-0.1195,0.2823-0.263l0.593-3.4242c0.0166-0.0933-0.012-0.1865-0.0693-0.2582
	c-0.0622-0.0718-0.1508-0.1125-0.2439-0.1125L25.7808,11.3738z M47.1911,0.5636c0.0166-0.0931-0.0073-0.1864-0.0695-0.2605
	c-0.0597-0.0718-0.1481-0.1124-0.2439-0.1124l-3.8019,0.0047c-0.1363-0.0072-0.2846,0.11-0.3109,0.2631l-1.54,8.864
	c-0.2391,1.3798-1.2074,2.2429-2.537,2.2405c-1.2506-0.0023-2.1593-0.7963-2.1616-1.8938c0-0.3157,0.0741-0.7102,0.1506-1.0928
	l1.406-8.0055c0.0168-0.0909-0.0096-0.1865-0.0693-0.2583c-0.0598-0.0717-0.1459-0.1124-0.2415-0.1124l-3.802,0.0048
	c-0.1363-0.012-0.2844,0.11-0.3132,0.2607L32.251,8.445c-0.0979,0.5428-0.1578,0.9851-0.1578,1.5161
	c0.0023,1.6499,0.648,3.1228,1.8196,4.1534c1.1741,1.0305,2.7713,1.5758,4.6246,1.5733c0.275-0.0023,0.5451-0.0143,0.8129-0.0382
	c3.307-0.3084,5.6122-2.4939,6.2337-5.9754L47.1911,0.5636z M58.3387,4.6556c0,1.1429-0.3754,2.1234-1.1023,2.855
	c1.0162,0.7413,1.5518,1.8293,1.5518,3.1755c0.0023,2.53-2.0229,4.4213-4.909,4.6891c-0.2321,0.0239-0.4663,0.0336-0.7078,0.0336
	l-7.1185,0.0048c-0.0933,0-0.1817-0.0407-0.2415-0.1124c-0.0598-0.0718-0.0861-0.1651-0.0693-0.2583L48.2934,0.452
	c0.0263-0.1531,0.1578-0.2726,0.3132-0.263l4.8157-0.0048c1.4276,0,2.6566,0.4304,3.551,1.2481
	C57.8532,2.2382,58.3387,3.3811,58.3387,4.6556z M52.6979,5.9564c0.6121,0,1.2554-0.275,1.2529-1.0353
	c-0.0023-0.5835-0.3777-0.9159-1.033-0.9159h-0.9517l-0.3466,1.9536L52.6979,5.9564z M50.6296,11.5733l2.5609-0.0025
	c1.1286,0.0025,1.2267-0.5667,1.2267-0.9899c0-0.4159-0.1124-0.8967-1.0067-0.899l-2.4341,0.0023L50.6296,11.5733z"/>
</svg>
