<?xml version="1.0" encoding="utf-8"?>
<!-- Generator: Adobe Illustrator 22.0.1, SVG Export Plug-In . SVG Version: 6.00 Build 0)  -->
<svg version="1.1" id="Layer_1" xmlns="http://www.w3.org/2000/svg" xmlns:xlink="http://www.w3.org/1999/xlink" x="0px" y="0px"
	 viewBox="0 0 129 114" enable-background="new 0 0 129 114" xml:space="preserve">
<path d="M123,0H6C2.692,0,0,2.692,0,6v21v2v79c0,3.308,2.692,6,6,6h117c3.308,0,6-2.692,6-6V29v-2V6C129,2.692,126.308,0,123,0z"/>
<path fill="#FFFFFF" d="M123,112H6c-2.209,0-4-1.791-4-4V29h125v79C127,110.209,125.209,112,123,112z"/>
<path fill="#CC397B" d="M2,27V6c0-2.2,1.8-4,4-4h117c2.209,0,4,1.791,4,4v21H2z"/>
<path d="M103.743,19.695h-3.118v-5.952h-2.429v-2.189h0.285c1.454,0,2.728-0.81,2.773-2.249h2.488L103.743,19.695L103.743,19.695z"
	/>
<g>
	<path d="M117.544,14.891c-0.367,0-0.338,0.532-0.338,0.741c0,0.273-0.029,0.719,0.317,0.719c0.251,0,0.331-0.187,0.331-0.784
		C117.854,15.265,117.854,14.891,117.544,14.891z"/>
	<path d="M112.714,14.306c-0.537,0-0.93,0.384-0.93,0.902c0,0.537,0.402,0.95,0.94,0.95c0.518,0,0.93-0.403,0.93-0.921
		C113.654,14.7,113.252,14.306,112.714,14.306z"/>
	<path d="M122.037,9.512h-3.105c1.298-2.191-0.285-5.036-2.61-5.22c-0.255,0-0.51,0-0.765,0c-2.383,0.161-3.85,3.097-2.655,5.22
		h-2.97c0,0-1.965,8.505-3.015,12.69c0.446,0.16,1.482,0.09,2.25,0.09c5.276,0,10.672,0,15.75,0c0-0.03,0-0.06,0-0.09
		C123.915,18.013,122.037,9.512,122.037,9.512z M112.628,19.593c-1.477,0-2.398-0.652-2.571-1.832h1.766
		c0.115,0.422,0.374,0.614,0.854,0.614c0.921,0,0.969-0.825,1.065-1.507c-0.394,0.393-0.854,0.489-1.391,0.489
		c-1.353,0-2.37-0.595-2.37-2.092c0-1.544,1.238-2.475,2.725-2.475c1.938,0,2.888,1.439,2.888,3.291
		C115.593,17.962,114.729,19.593,112.628,19.593z M114.027,8.117c-0.257-1.233,0.57-2.201,1.665-2.34
		c1.09-0.139,2.005,0.567,2.16,1.485C118.296,9.903,114.514,10.453,114.027,8.117z M116.278,15.639c0-0.863,0.461-1.374,1.245-1.374
		c0.799,0,1.259,0.489,1.259,1.331c0,0.799-0.374,1.389-1.259,1.389C116.739,16.984,116.278,16.495,116.278,15.639z M117.624,19.453
		l2.792-5.246h0.784l-2.792,5.246H117.624z M121.366,19.402c-0.785,0-1.245-0.489-1.245-1.346c0-0.863,0.461-1.374,1.245-1.374
		c0.799,0,1.259,0.489,1.259,1.331C122.625,18.812,122.251,19.402,121.366,19.402z"/>
	<path d="M121.388,17.308c-0.367,0-0.339,0.532-0.339,0.741c0,0.273-0.029,0.72,0.317,0.72c0.252,0,0.331-0.187,0.331-0.785
		C121.697,17.683,121.697,17.308,121.388,17.308z"/>
</g>
<g>
	<path id="path5602_2_" d="M11.417,9.285c-2.298,0-4.789,1.232-6.02,3.271h6.043c0.549,0.917,0.895,1.833,1.12,2.75
		c0.046,0.551-1.189,1.368-2.506,1.707L4,17.612l0.809,2.103H16.96c1.108-1.708,1.863-3.398,1.863-5.207
		C18.823,10.59,14.418,9.351,11.417,9.285L11.417,9.285z M14.308,10.268c2.424,0.491,3.549,2.071,3.36,3.045
		C17.209,12.306,15.57,10.899,14.308,10.268z"/>
	<path id="path5620_2_" d="M7.444,12.877l-2.153,2.697c1.305,0,1.979-0.866,3.784-2.697C9.075,12.877,7.444,12.877,7.444,12.877z
		 M7.558,13.073h0.285c-0.785,0.885-2.015,2.328-2.233,2.328L7.558,13.073z"/>
</g>
<g>
	<path d="M23.62,14.581c0.243,0.234,0.43,0.513,0.56,0.837s0.196,0.693,0.196,1.107v2.943h-1.283v-2.943
		c0-0.873-0.423-1.31-1.269-1.31H21.19h-0.162v4.252h-1.269V9.518h2.065c0.855,0,1.499,0.252,1.93,0.756
		c0.396,0.459,0.594,1.152,0.594,2.079c0,0.918-0.198,1.616-0.594,2.092c-0.018,0.018-0.038,0.041-0.06,0.068
		S23.646,14.563,23.62,14.581z M21.824,13.933c0.342,0,0.578-0.04,0.709-0.121s0.214-0.144,0.25-0.189
		c0.198-0.252,0.297-0.675,0.297-1.269c0-0.333-0.027-0.601-0.081-0.803c-0.054-0.203-0.133-0.36-0.236-0.473
		c-0.103-0.112-0.234-0.186-0.392-0.222c-0.157-0.036-0.339-0.054-0.547-0.054h-0.797v3.132h0.162L21.824,13.933L21.824,13.933z"/>
	<path d="M26.697,19.481h-1.31l2.295-9.95h1.012l2.322,9.95h-1.323L29.06,16.7h-1.728L26.697,19.481z M28.196,12.988l-0.567,2.443
		h1.134L28.196,12.988z"/>
	<path d="M33.65,19.481c-0.243,0-0.459-0.025-0.648-0.074s-0.358-0.113-0.506-0.189c-0.149-0.076-0.275-0.162-0.378-0.257
		c-0.103-0.094-0.191-0.187-0.263-0.277c-0.378-0.486-0.567-1.17-0.567-2.052v-4.266c0-0.882,0.189-1.566,0.567-2.052
		c0.144-0.18,0.358-0.355,0.642-0.527c0.283-0.171,0.668-0.257,1.154-0.257s0.868,0.086,1.148,0.257
		c0.279,0.171,0.491,0.347,0.634,0.527c0.387,0.495,0.581,1.179,0.581,2.052v0.635H34.73v-0.635c0-0.387-0.038-0.688-0.115-0.904
		s-0.171-0.371-0.283-0.466s-0.232-0.151-0.358-0.169c-0.126-0.018-0.235-0.027-0.324-0.027c-0.099,0-0.209,0.009-0.331,0.027
		s-0.241,0.074-0.358,0.169s-0.214,0.25-0.29,0.466s-0.115,0.517-0.115,0.904v4.266c0,0.586,0.103,1.009,0.31,1.269
		c0.045,0.063,0.126,0.13,0.243,0.202c0.116,0.073,0.297,0.108,0.54,0.108s0.42-0.036,0.533-0.108
		c0.112-0.072,0.196-0.14,0.249-0.202c0.198-0.27,0.297-0.693,0.297-1.269v-0.634h1.283v0.634c0,0.873-0.194,1.557-0.581,2.052
		c-0.144,0.18-0.356,0.358-0.634,0.533C34.519,19.393,34.136,19.481,33.65,19.481z"/>
	<path d="M37.794,10.801v3.064h2.849v1.269h-2.849v3.078h2.849v1.269h-4.118v-9.95h4.118V10.8h-2.849V10.801z"/>
	<path d="M43.91,19.468c-0.477,0-0.86-0.085-1.148-0.257c-0.288-0.171-0.504-0.346-0.648-0.526c-0.378-0.486-0.567-1.17-0.567-2.052
		v-4.279c0-0.882,0.189-1.566,0.567-2.052c0.072-0.09,0.16-0.18,0.263-0.27c0.104-0.09,0.23-0.173,0.378-0.25
		c0.148-0.076,0.317-0.14,0.506-0.189s0.405-0.074,0.648-0.074c0.486,0,0.871,0.086,1.154,0.257s0.497,0.347,0.641,0.526
		c0.378,0.486,0.567,1.17,0.567,2.052v4.279c0,0.882-0.189,1.566-0.567,2.052c-0.144,0.18-0.358,0.355-0.641,0.526
		C44.78,19.383,44.396,19.468,43.91,19.468z M43.91,10.801c-0.099,0-0.209,0.009-0.331,0.027s-0.241,0.074-0.358,0.169
		s-0.214,0.248-0.29,0.459s-0.115,0.511-0.115,0.898v4.279c0,0.397,0.038,0.7,0.115,0.911c0.076,0.211,0.173,0.365,0.29,0.459
		s0.237,0.151,0.358,0.169s0.231,0.027,0.331,0.027c0.09,0,0.198-0.009,0.324-0.027s0.247-0.074,0.364-0.169
		s0.214-0.248,0.291-0.459c0.076-0.211,0.114-0.515,0.114-0.911v-4.279c0-0.387-0.038-0.686-0.114-0.898
		c-0.077-0.211-0.174-0.365-0.291-0.459s-0.238-0.151-0.364-0.169C44.107,10.81,43.999,10.801,43.91,10.801z"/>
	<path d="M48.283,19.468h-1.269v-9.95h1.067l2.43,6.021V9.518h1.283v9.949h-1.08l-2.43-6.021L48.283,19.468L48.283,19.468z"/>
	<path d="M55.114,19.468c-0.477,0-0.86-0.085-1.148-0.257c-0.288-0.171-0.504-0.346-0.648-0.526
		c-0.378-0.486-0.567-1.17-0.567-2.052v-4.279c0-0.882,0.189-1.566,0.567-2.052c0.072-0.09,0.16-0.18,0.263-0.27
		c0.104-0.09,0.23-0.173,0.378-0.25c0.148-0.076,0.317-0.14,0.506-0.189s0.405-0.074,0.648-0.074c0.486,0,0.871,0.086,1.154,0.257
		s0.497,0.347,0.641,0.526c0.378,0.486,0.567,1.17,0.567,2.052v4.279c0,0.882-0.189,1.566-0.567,2.052
		c-0.144,0.18-0.358,0.355-0.641,0.526C55.985,19.383,55.6,19.468,55.114,19.468z M55.114,10.801c-0.099,0-0.209,0.009-0.331,0.027
		s-0.241,0.074-0.358,0.169s-0.214,0.248-0.29,0.459s-0.115,0.511-0.115,0.898v4.279c0,0.397,0.038,0.7,0.115,0.911
		c0.076,0.211,0.173,0.365,0.29,0.459s0.237,0.151,0.358,0.169s0.231,0.027,0.331,0.027c0.09,0,0.198-0.009,0.324-0.027
		s0.247-0.074,0.364-0.169s0.214-0.248,0.291-0.459c0.076-0.211,0.114-0.515,0.114-0.911v-4.279c0-0.387-0.038-0.686-0.114-0.898
		c-0.077-0.211-0.174-0.365-0.291-0.459s-0.238-0.151-0.364-0.169C55.312,10.81,55.204,10.801,55.114,10.801z"/>
	<path d="M63.565,18.212v1.269h-5.13v-1.242l3.483-7.438h-3.699V9.532h5.13v1.229l-3.483,7.452L63.565,18.212L63.565,18.212z"/>
</g>
<g>
	<path d="M75.144,9.163c3.268,0,5.382,1.979,5.382,5.308c0,3.553-1.949,5.367-5.442,5.367h-4.708V9.163H75.144z M73.584,17.139h1.29
		c1.604,0,2.399-1.005,2.399-2.609c0-1.814-1.035-2.684-2.714-2.684h-0.975C73.584,11.846,73.584,17.139,73.584,17.139z"/>
	<path d="M84.654,11.232h-2.968V9.163h2.968V11.232z M84.654,19.837h-2.968v-7.736h2.968V19.837z"/>
	<path d="M91.164,19.837h-3.478l-2.579-7.736h3.134l0.615,2.278c0.254,0.945,0.464,1.889,0.585,2.849
		c0.089-0.884,0.33-1.814,0.569-2.668l0.69-2.458h2.998L91.164,19.837z"/>
</g>
</svg>
