<?xml version="1.0" encoding="utf-8"?>
<!-- Generator: Adobe Illustrator 22.0.1, SVG Export Plug-In . SVG Version: 6.00 Build 0)  -->
<svg version="1.1" id="Layer_1" xmlns="http://www.w3.org/2000/svg" xmlns:xlink="http://www.w3.org/1999/xlink" x="0px" y="0px"
	 viewBox="0 0 353.0427 55.0297" enable-background="new 0 0 353.0427 55.0297" xml:space="preserve">
<path id="path4978_2_" fill="#424242" d="M11.0178,1.6308h21.8328c9.9658,0.104,17.0236,0.6045,22.0356,12.978
	c6.8207-1.2253,27.2439-8.5667,39.61,6.2862c7.696-10.0604,30.2711-12.1774,38.0554-3.3797
	c7.1765-5.6433,27.9514-10.6827,35.0812,3.2445c7.1927-20.6338,44.27-30.7346,52.8584-6.4214l1.2843-1.5547h18.9263v1.0815
	c8.1853-4.5302,19.2385-0.2305,20.6837,7.7057c7.6095-21.6749,42.7955-31.5551,53.1288-7.8409h38.5285v11.8965l-14.0595,12.978
	l9.7335,0.0675l-3.7177,16.2225h-73.8125c-3.1497,0-7.0396-1.7536-10.8826-8.5168l-3.4473,8.4492l-44.6795,0.0675l0.7435-6.489
	c-3.0647,3.2329-6.9709,6.489-12.978,6.6242l-25.0097-0.1352c-3.0054,0-6.2761-3.3737-8.3816-7.0297
	c-1.707,4.9962-5.3043,7.0297-9.3955,7.0297h-56.9816c-4.3734,0-8.814-4.3804-11.5586-8.7872l-2.4334,8.7872H0L11.0178,1.6308z"/>
<g id="text4965_1_" transform="matrix(1.0374338,0,-0.21887357,0.96391698,64.014182,89.575579)">
	<path id="path4982_2_" d="M-49.5995-66.2779c2.2636,0,3.8879-0.4716,4.873-1.4147c1.006-0.9432,1.509-2.4941,1.509-4.6529
		c0-2.1378-0.503-3.6678-1.509-4.59c-0.9851-0.9222-2.6094-1.3833-4.873-1.3833h-4.59l0,12.0409L-49.5995-66.2779z
		 M-54.1895-57.9153l0,17.7628h-10.9092l0-46.9377h16.6309c5.5751,0,9.6516,1.0375,12.2296,3.1124
		c2.5989,2.0749,3.8984,5.355,3.8984,9.8402c0,3.1019-0.6707,5.6484-2.0121,7.6395c-1.3414,1.9911-3.3744,3.4582-6.0991,4.4014
		c1.4881,0.3773,2.819,1.2366,3.9927,2.578c1.1947,1.3204,2.3893,3.3325,3.584,6.0362l5.9104,13.3299h-11.6008l-5.1245-11.6637
		c-1.048-2.3474-2.1064-3.9508-3.1753-4.8101c-1.0689-0.8593-2.4836-1.289-4.2442-1.289L-54.1895-57.9153z"/>
	<path id="path4984_2_" d="M-6.686-55.9975c-2.1169,0-3.7097,0.3982-4.7787,1.1947c-1.0689,0.7964-1.6034,1.9701-1.6034,3.5211
		c0,1.4252,0.4297,2.5465,1.289,3.3639c0.8593,0.7964,2.054,1.1947,3.584,1.1947c1.9073,0,3.5106-0.7545,4.8101-2.2636
		c1.2995-1.53,1.9492-3.4373,1.9492-5.7218l0-1.289H-6.686z M8.7818-60.2417l0,20.0892H-1.4357l0-5.2188
		c-1.3623,2.1378-2.8923,3.6993-4.59,4.6843c-1.6977,0.9641-3.7621,1.4462-6.1934,1.4462c-3.2906,0-5.9628-1.0584-8.0168-3.1753
		c-2.033-2.1378-3.0495-4.9044-3.0495-8.2998c0-4.1289,1.2785-7.1575,3.8355-9.0857c2.557-1.9282,6.5706-2.8923,12.0409-2.8923
		h5.9733l0-0.8803c0-1.7815-0.6393-3.081-1.9178-3.8984c-1.2575-0.8384-3.2172-1.2575-5.879-1.2575
		c-2.1797,0-4.2023,0.241-6.0676,0.7231c-1.8654,0.4821-3.605,1.2051-5.2188,2.1693l0-8.5827
		c2.1797-0.5869,4.3595-1.027,6.5392-1.3204c2.2007-0.3144,4.3909-0.4716,6.5706-0.4716c5.7218,0,9.8507,1.2575,12.3868,3.7726
		C7.5137-69.9457,8.7817-65.8797,8.7818-60.2417L8.7818-60.2417z"/>
	<path id="path4986_2_" d="M43.8042-74.2633l0,9.18c-1.3623-1.0479-2.7456-1.8234-4.1499-2.3265
		c-1.3833-0.503-2.819-0.7545-4.3071-0.7545c-2.8295,0-5.0302,0.9222-6.6021,2.7666c-1.5719,1.8234-2.3579,4.3804-2.3579,7.671
		c0,3.2906,0.786,5.858,2.3579,7.7024c1.5719,1.8234,3.7726,2.7351,6.6021,2.7351c1.5929,0,3.1019-0.262,4.5271-0.786
		c1.4252-0.524,2.7351-1.2994,3.9298-2.3264l0,9.2115c-1.5719,0.6497-3.1753,1.1318-4.8101,1.4462
		c-1.6348,0.3353-3.2696,0.503-4.9044,0.503c-5.7218,0-10.1966-1.6243-13.4242-4.873c-3.2277-3.2696-4.8415-7.8072-4.8415-13.6129
		c0-5.8056,1.6138-10.3328,4.8415-13.5814c3.2277-3.2696,7.7024-4.9044,13.4242-4.9044c1.6558,0,3.2906,0.1677,4.9044,0.503
		C40.608-75.3951,42.2114-74.913,43.8042-74.2633L43.8042-74.2633z"/>
	<path id="path4988_2_" d="M84.1713-57.8524v3.2067H60.4981c0.2306,2.6408,1.0794,4.6215,2.5465,5.9419
		c1.4881,1.3204,3.5526,1.9806,6.1934,1.9806c2.1378,0,4.3176-0.3458,6.5392-1.0375c2.2426-0.7126,4.5376-1.7815,6.885-3.2067v8.677
		c-2.3893,1.006-4.7891,1.7605-7.1994,2.2636c-2.3893,0.524-4.7786,0.786-7.168,0.786c-5.7428,0-10.207-1.6138-13.3928-4.8415
		c-3.1648-3.2486-4.7472-7.7967-4.7472-13.6443c0-5.7428,1.5614-10.2594,4.6843-13.55c3.1229-3.2906,7.4195-4.9359,12.8898-4.9358
		c4.9882,0,8.9705,1.6662,11.9466,4.9987C82.6727-67.8813,84.1713-63.4275,84.1713-57.8524L84.1713-57.8524z M73.7651-61.5936
		c0-2.1378-0.5659-3.8564-1.6977-5.1559c-1.1108-1.3204-2.578-1.9806-4.4014-1.9806c-1.9492,0-3.5421,0.6183-4.7786,1.8549
		c-1.2156,1.2156-1.9806,2.9762-2.295,5.2817L73.7651-61.5936z"/>
	<path id="path4990_2_" d="M111.6485-79.1677c-3.3115,0-5.8895,1.3623-7.7339,4.087c-1.8234,2.7247-2.7351,6.5602-2.7351,11.5065
		c0,4.9254,0.9117,8.7504,2.7352,11.4751c1.8444,2.7247,4.4224,4.087,7.7339,4.087c3.3325,0,5.9104-1.3623,7.7339-4.087
		c1.8444-2.7247,2.7666-6.5497,2.7666-11.475c0-4.9463-0.9222-8.7818-2.7666-11.5065
		C117.5589-77.8054,114.981-79.1677,111.6485-79.1677z M111.6485-87.939c6.7907,0,12.1038,2.1588,15.9393,6.4763
		c3.8565,4.3176,5.7847,10.2804,5.7847,17.8885c0,7.5872-1.9282,13.5395-5.7847,17.8571
		c-3.8355,4.3176-9.1486,6.4763-15.9393,6.4763c-6.7698,0-12.0829-2.1588-15.9393-6.4763
		c-3.8565-4.3175-5.7847-10.2699-5.7847-17.8571c0-7.6081,1.9282-13.5709,5.7847-17.8885
		C99.5656-85.7803,104.8787-87.939,111.6485-87.939L111.6485-87.939z"/>
	<path id="path4992_2_" d="M173.0479-61.5936l0,21.4411h-10.1861v-3.4897l0-12.9212c0-3.0391-0.0629-5.135-0.1886-6.2877
		c-0.1258-1.1527-0.3354-2.0016-0.6288-2.5465c-0.3982-0.7336-0.9432-1.2995-1.6348-1.6977
		c-0.6707-0.4192-1.4357-0.6288-2.295-0.6288c-2.1169,0-3.7831,0.9117-4.9987,2.7352c-1.1947,1.8025-1.792,4.3071-1.792,7.5138
		l0,17.3226h-10.1232l0-35.2111h10.1232v5.1559c1.53-2.054,3.1543-3.563,4.873-4.5271c1.7186-0.9851,3.6154-1.4776,5.6904-1.4776
		c3.6469,0,6.4135,1.2471,8.2998,3.7412C172.0942-69.9772,173.0479-66.3513,173.0479-61.5936z"/>
	<path id="path4994_2_" d="M202.1913-79.1677c-3.3115,0-5.8895,1.3623-7.7339,4.087c-1.8234,2.7247-2.7352,6.5602-2.7351,11.5065
		c0,4.9254,0.9117,8.7504,2.7352,11.4751c1.8444,2.7247,4.4223,4.087,7.7339,4.087c3.3325,0,5.9104-1.3623,7.7339-4.087
		c1.8444-2.7247,2.7666-6.5497,2.7666-11.475c0-4.9463-0.9222-8.7818-2.7666-11.5065
		C208.1018-77.8053,205.5238-79.1677,202.1913-79.1677L202.1913-79.1677z M202.1913-87.939c6.7907,0,12.1038,2.1588,15.9393,6.4763
		c3.8565,4.3176,5.7847,10.2804,5.7847,17.8885c0,7.5872-1.9282,13.5395-5.7847,17.8571
		c-3.8355,4.3176-9.1486,6.4763-15.9393,6.4763c-6.7698,0-12.0829-2.1588-15.9393-6.4763
		c-3.8565-4.3175-5.7847-10.2699-5.7847-17.8571c0-7.6081,1.9282-13.5709,5.7847-17.8885
		C190.1085-85.7803,195.4216-87.939,202.1913-87.939L202.1913-87.939z"/>
	<path id="path4996_2_" d="M230.1716-75.3636h27.6659v7.8596l-16.6938,19.3032h16.6938l0,8.0483h-28.3575v-7.8596l16.6938-19.3032
		h-16.0022V-75.3636z"/>
</g>
</svg>
