<?xml version="1.0" encoding="utf-8"?>
<!-- Generator: Adobe Illustrator 22.0.1, SVG Export Plug-In . SVG Version: 6.00 Build 0)  -->
<svg version="1.1" id="Layer_1" xmlns="http://www.w3.org/2000/svg" xmlns:xlink="http://www.w3.org/1999/xlink" x="0px" y="0px"
	 viewBox="0 0 129 114" enable-background="new 0 0 129 114" xml:space="preserve">
<path d="M123,0H6C2.692,0,0,2.692,0,6v102c0,3.308,2.692,6,6,6h117c3.308,0,6-2.692,6-6V6C129,2.692,126.308,0,123,0L123,0z"/>
<path fill="#FFFFFF" d="M123,112H6c-2.209,0-4-1.791-4-4V6c0-2.209,1.791-4,4-4h117c2.209,0,4,1.791,4,4v102
	C127,110.209,125.209,112,123,112z"/>
<path fill="#FFA400" d="M2,27V6c0-2.2,1.8-4,4-4h117c2.209,0,4,1.791,4,4v21H2z"/>
<path fill="#EA0029" d="M64.5,2v25H127V6c0-2.209-1.791-4-4-4H64.5z"/>
<path fill="#FFFFFF" d="M92.54,18.662h-2.494v-4.761h-1.943V12.15h0.228c1.164,0,2.183-0.648,2.219-1.799h1.991V18.662z"/>
<path fill="#FFFFFF" d="M105.552,18.417h-7.217v-0.144c0-1.551,0.902-2.442,2.081-3.248c1.648-1.13,2.598-1.299,2.586-2.153
	c-0.012-0.505-0.397-0.83-1.01-0.83c-1.022,0-1.215,0.722-1.251,1.54h-2.249v-0.12c0-2.261,1.227-3.464,3.596-3.464
	c1.997,0,3.308,1.046,3.308,2.659c0,1.407-0.818,1.984-1.853,2.658c-0.638,0.421-1.335,0.734-1.948,1.191
	c0.83-0.084,1.155-0.109,1.852-0.109l2.105-0.012V18.417z"/>
<path fill="#FFFFFF" d="M97.044,17.173l0.971,1.147h-1.522l-0.265-0.33c-0.408,0.272-0.726,0.427-1.231,0.427
	c-0.835,0-1.625-0.499-1.625-1.418c0-0.583,0.375-1.082,1.004-1.353c-0.214-0.259-0.356-0.492-0.356-0.842
	c0-0.667,0.609-1.185,1.399-1.185c0.77,0,1.347,0.531,1.347,1.237c0,0.486-0.259,0.874-0.758,1.127l0.357,0.427
	c0.078-0.084,0.136-0.201,0.181-0.356h1.062C97.536,16.487,97.348,16.856,97.044,17.173z M94.582,16.972
	c0,0.22,0.195,0.389,0.454,0.389c0.181,0,0.375-0.084,0.525-0.227l-0.531-0.648C94.835,16.577,94.582,16.733,94.582,16.972z
	 M95.748,14.764c0-0.175-0.13-0.298-0.317-0.298c-0.181,0-0.317,0.123-0.317,0.298c0,0.143,0.098,0.298,0.285,0.486
	C95.586,15.133,95.748,15.01,95.748,14.764z"/>
<g>
	<path id="path5602_1_" d="M11.417,9.285c-2.298,0-4.789,1.232-6.02,3.271h6.043c0.549,0.917,0.895,1.833,1.12,2.75
		c0.046,0.551-1.189,1.368-2.506,1.707L4,17.612l0.809,2.103h12.151c1.108-1.708,1.863-3.398,1.863-5.207
		C18.823,10.59,14.418,9.351,11.417,9.285L11.417,9.285z M14.308,10.268c2.424,0.491,3.549,2.071,3.36,3.045
		C17.209,12.306,15.57,10.899,14.308,10.268z"/>
	<path id="path5620_1_" d="M7.444,12.877l-2.153,2.697c1.305,0,1.979-0.866,3.784-2.697H7.444z M7.558,13.073h0.285
		c-0.785,0.885-2.015,2.328-2.233,2.328L7.558,13.073z"/>
</g>
<g>
	<path d="M23.62,14.581c0.243,0.234,0.43,0.513,0.56,0.837c0.13,0.324,0.196,0.693,0.196,1.107v2.943h-1.283v-2.943
		c0-0.873-0.423-1.31-1.269-1.31h-0.634h-0.162v4.252h-1.269V9.518h2.065c0.855,0,1.499,0.252,1.93,0.756
		c0.396,0.459,0.594,1.152,0.594,2.079c0,0.918-0.198,1.616-0.594,2.092c-0.018,0.018-0.038,0.041-0.06,0.068
		S23.646,14.563,23.62,14.581z M21.824,13.933c0.342,0,0.578-0.04,0.709-0.121c0.131-0.081,0.214-0.144,0.25-0.189
		c0.198-0.252,0.297-0.675,0.297-1.269c0-0.333-0.027-0.601-0.081-0.803c-0.054-0.203-0.133-0.36-0.236-0.473
		c-0.103-0.112-0.234-0.186-0.392-0.222c-0.157-0.036-0.339-0.054-0.547-0.054h-0.797v3.132h0.162H21.824z"/>
	<path d="M26.697,19.481h-1.31l2.295-9.95h1.012l2.322,9.95h-1.323L29.06,16.7h-1.728L26.697,19.481z M28.196,12.988l-0.567,2.443
		h1.134L28.196,12.988z"/>
	<path d="M33.65,19.481c-0.243,0-0.459-0.025-0.648-0.074s-0.358-0.113-0.506-0.189c-0.149-0.076-0.275-0.162-0.378-0.257
		c-0.103-0.094-0.191-0.187-0.263-0.277c-0.378-0.486-0.567-1.17-0.567-2.052v-4.266c0-0.882,0.189-1.566,0.567-2.052
		c0.144-0.18,0.358-0.355,0.642-0.527c0.283-0.171,0.668-0.257,1.154-0.257s0.868,0.086,1.148,0.257
		c0.279,0.171,0.491,0.347,0.634,0.527c0.387,0.495,0.581,1.179,0.581,2.052v0.635H34.73v-0.635c0-0.387-0.038-0.688-0.115-0.904
		s-0.171-0.371-0.283-0.466s-0.232-0.151-0.358-0.169c-0.126-0.018-0.235-0.027-0.324-0.027c-0.099,0-0.209,0.009-0.331,0.027
		s-0.241,0.074-0.358,0.169s-0.214,0.25-0.29,0.466s-0.115,0.517-0.115,0.904v4.266c0,0.586,0.103,1.009,0.31,1.269
		c0.045,0.063,0.126,0.13,0.243,0.202c0.116,0.073,0.297,0.108,0.54,0.108c0.243,0,0.42-0.036,0.533-0.108
		c0.112-0.072,0.196-0.14,0.249-0.202c0.198-0.27,0.297-0.693,0.297-1.269v-0.634h1.283v0.634c0,0.873-0.194,1.557-0.581,2.052
		c-0.144,0.18-0.356,0.358-0.634,0.533C34.519,19.393,34.136,19.481,33.65,19.481z"/>
	<path d="M37.794,10.801v3.064h2.849v1.269h-2.849v3.078h2.849v1.269h-4.118v-9.95h4.118v1.269H37.794z"/>
	<path d="M43.91,19.468c-0.477,0-0.86-0.085-1.148-0.257c-0.288-0.171-0.504-0.346-0.648-0.526c-0.378-0.486-0.567-1.17-0.567-2.052
		v-4.279c0-0.882,0.189-1.566,0.567-2.052c0.072-0.09,0.16-0.18,0.263-0.27c0.104-0.09,0.23-0.173,0.378-0.25
		c0.148-0.076,0.317-0.14,0.506-0.189s0.405-0.074,0.648-0.074c0.486,0,0.871,0.086,1.154,0.257s0.497,0.347,0.641,0.526
		c0.378,0.486,0.567,1.17,0.567,2.052v4.279c0,0.882-0.189,1.566-0.567,2.052c-0.144,0.18-0.358,0.355-0.641,0.526
		C44.78,19.383,44.396,19.468,43.91,19.468z M43.91,10.801c-0.099,0-0.209,0.009-0.331,0.027s-0.241,0.074-0.358,0.169
		s-0.214,0.248-0.29,0.459s-0.115,0.511-0.115,0.898v4.279c0,0.397,0.038,0.7,0.115,0.911c0.076,0.211,0.173,0.365,0.29,0.459
		s0.237,0.151,0.358,0.169s0.231,0.027,0.331,0.027c0.09,0,0.198-0.009,0.324-0.027c0.126-0.018,0.247-0.074,0.364-0.169
		s0.214-0.248,0.291-0.459c0.076-0.211,0.114-0.515,0.114-0.911v-4.279c0-0.387-0.038-0.686-0.114-0.898
		c-0.077-0.211-0.174-0.365-0.291-0.459s-0.238-0.151-0.364-0.169C44.107,10.81,43.999,10.801,43.91,10.801z"/>
	<path d="M48.283,19.468h-1.269V9.518h1.067l2.43,6.021V9.518h1.283v9.949h-1.08l-2.43-6.021V19.468z"/>
	<path d="M55.114,19.468c-0.477,0-0.86-0.085-1.148-0.257c-0.288-0.171-0.504-0.346-0.648-0.526
		c-0.378-0.486-0.567-1.17-0.567-2.052v-4.279c0-0.882,0.189-1.566,0.567-2.052c0.072-0.09,0.16-0.18,0.263-0.27
		c0.104-0.09,0.23-0.173,0.378-0.25c0.148-0.076,0.317-0.14,0.506-0.189s0.405-0.074,0.648-0.074c0.486,0,0.871,0.086,1.154,0.257
		s0.497,0.347,0.641,0.526c0.378,0.486,0.567,1.17,0.567,2.052v4.279c0,0.882-0.189,1.566-0.567,2.052
		c-0.144,0.18-0.358,0.355-0.641,0.526C55.985,19.383,55.6,19.468,55.114,19.468z M55.114,10.801c-0.099,0-0.209,0.009-0.331,0.027
		s-0.241,0.074-0.358,0.169s-0.214,0.248-0.29,0.459s-0.115,0.511-0.115,0.898v4.279c0,0.397,0.038,0.7,0.115,0.911
		c0.076,0.211,0.173,0.365,0.29,0.459s0.237,0.151,0.358,0.169s0.231,0.027,0.331,0.027c0.09,0,0.198-0.009,0.324-0.027
		c0.126-0.018,0.247-0.074,0.364-0.169s0.214-0.248,0.291-0.459c0.076-0.211,0.114-0.515,0.114-0.911v-4.279
		c0-0.387-0.038-0.686-0.114-0.898c-0.077-0.211-0.174-0.365-0.291-0.459s-0.238-0.151-0.364-0.169
		C55.312,10.81,55.204,10.801,55.114,10.801z"/>
	<path d="M63.565,18.212v1.269h-5.13v-1.242l3.483-7.438h-3.699V9.532h5.13v1.229l-3.483,7.452H63.565z"/>
</g>
<g>
	<path fill="#FFFFFF" d="M71.878,10.179c2.614,0,4.306,1.583,4.306,4.246c0,2.842-1.559,4.293-4.354,4.293h-3.766v-8.54H71.878z
		 M70.63,16.56h1.032c1.283,0,1.919-0.804,1.919-2.087c0-1.451-0.828-2.147-2.171-2.147h-0.78V16.56z"/>
	<path fill="#FFFFFF" d="M79.486,11.835h-2.375v-1.655h2.375V11.835z M79.486,18.719h-2.375V12.53h2.375V18.719z"/>
	<path fill="#FFFFFF" d="M84.694,18.719h-2.782l-2.063-6.188h2.507l0.492,1.823c0.203,0.756,0.371,1.511,0.468,2.279
		c0.071-0.708,0.264-1.451,0.455-2.135l0.552-1.967h2.398L84.694,18.719z"/>
</g>
<g>
	<path fill="#FFFFFF" d="M117.544,14.891c-0.367,0-0.338,0.532-0.338,0.741c0,0.273-0.029,0.719,0.317,0.719
		c0.251,0,0.331-0.187,0.331-0.784C117.854,15.265,117.854,14.891,117.544,14.891z"/>
	<path fill="#FFFFFF" d="M121.388,17.308c-0.367,0-0.339,0.532-0.339,0.741c0,0.273-0.029,0.72,0.317,0.72
		c0.252,0,0.331-0.187,0.331-0.785C121.697,17.683,121.697,17.308,121.388,17.308z"/>
	<path fill="#FFFFFF" d="M122.037,9.512h-3.105c1.298-2.191-0.285-5.036-2.61-5.22c-0.255,0-0.51,0-0.765,0
		c-2.383,0.161-3.85,3.097-2.655,5.22h-2.97c0,0-1.965,8.505-3.015,12.69c0.446,0.16,1.482,0.09,2.25,0.09c5.276,0,10.672,0,15.75,0
		c0-0.03,0-0.06,0-0.09C123.915,18.013,122.037,9.512,122.037,9.512z M115.103,14.407c-1.256,1.324-1.995,3.013-1.995,4.951v0.154
		h-2.102c-0.009-0.048-0.009-0.077-0.009-0.096c0-1.554,1.123-4.039,2.216-4.903c-0.739,0.029-0.969,0.038-1.238,0.038h-1.996
		v-1.679h5.123V14.407z M114.027,8.117c-0.257-1.233,0.57-2.201,1.665-2.34c1.09-0.139,2.005,0.567,2.16,1.485
		C118.296,9.903,114.514,10.453,114.027,8.117z M116.278,15.639c0-0.863,0.461-1.374,1.245-1.374c0.799,0,1.259,0.489,1.259,1.331
		c0,0.799-0.374,1.389-1.259,1.389C116.739,16.984,116.278,16.495,116.278,15.639z M117.624,19.453l2.792-5.246h0.784l-2.792,5.246
		H117.624z M121.366,19.402c-0.785,0-1.245-0.489-1.245-1.346c0-0.863,0.461-1.374,1.245-1.374c0.799,0,1.259,0.489,1.259,1.331
		C122.625,18.812,122.251,19.402,121.366,19.402z"/>
</g>
</svg>
