<?xml version="1.0" encoding="utf-8"?>
<!-- Generator: Adobe Illustrator 22.0.1, SVG Export Plug-In . SVG Version: 6.00 Build 0)  -->
<svg version="1.1" id="Layer_1" xmlns="http://www.w3.org/2000/svg" xmlns:xlink="http://www.w3.org/1999/xlink" x="0px" y="0px"
	 viewBox="0 0 368.563 141.668" enable-background="new 0 0 368.563 141.668" xml:space="preserve">
<polygon fill="#FFFFFF" points="123.0278,46 368.5278,46 347.0283,83.875 101.6944,83.875 "/>
<path fill="#FFFFFF" d="M0.3611,83.875h41.1667l27.6667-48.0417h59.6667L149.0278,0H57.2535C51.9578,0,47.0651,2.8275,44.421,7.4159
	L0.3611,83.875z"/>
<path fill="#FF0000" d="M33.188,141.5781L19.2407,116.918h-5.2573L0,141.5781h3.7217l2.9448-5.2031h19.9453l2.9268,5.2031H33.188z
	 M8.2563,133.4844l7.7866-13.6758h1.3188l7.6782,13.6758H8.2563z M49.1055,129.04c0.0181,3.3242,0.0723,5.4385,0.1626,6.3594
	c0.0903,1.2471,0.3252,2.2402,0.7046,2.9814c0.7588,1.499,1.9512,2.4023,3.5771,2.7461c0.9575,0.1982,1.8608,0.3242,2.71,0.3789
	c0.8491,0.0361,3.3423,0.0898,7.4434,0.1445c3.9746-0.0898,6.3774-0.1445,7.1904-0.1992c0.813-0.0537,1.6982-0.1621,2.6558-0.3242
	c2.728-0.5059,4.2275-2.2588,4.4985-5.2754c0.0903-1.0664,0.1626-3.3242,0.1807-6.8115V116.918h-3.2881V129.04
	c-0.0181,2.0596-0.0181,3.1982-0.0181,3.4326c-0.0361,2.041-0.1445,3.3965-0.3252,4.0645c-0.271,0.9395-1.1201,1.5176-2.5654,1.7529
	c-1.6621,0.2705-4.7334,0.3975-9.1958,0.3975c-3.1074,0-5.5464-0.1084-7.2988-0.3066c-0.9756-0.127-1.7163-0.3799-2.2041-0.7949
	c-0.3433-0.2715-0.5962-0.7773-0.7588-1.5361c-0.1265-0.5967-0.1807-2.9268-0.1807-7.0098V116.918h-3.2881V129.04z
	 M95.6816,133.8633c-0.0181,0.6689-0.0181,1.0303-0.0181,1.1025c0,0.958,0.0542,1.7529,0.1445,2.3486
	c0.1987,1.2109,0.7949,2.168,1.7705,2.8906c0.8311,0.6143,2.0957,1.0293,3.812,1.2461c1.2104,0.1445,3.1436,0.2168,5.8174,0.2168
	c3.5952,0,6.269-0.0723,7.9854-0.2168c1.9512-0.1621,3.4507-0.4688,4.4985-0.9023s1.8247-1.0664,2.3486-1.916
	c0.6143-1.0293,0.9214-2.457,0.9214-4.2451c0-2.6924-0.8491-4.5527-2.5293-5.6006c-0.9575-0.5957-2.6196-0.9033-4.9863-0.9219
	c-6.4497-0.0176-10.0811-0.0537-10.894-0.1074c-2.9448-0.1631-4.6431-0.6689-5.1309-1.5c-0.2891-0.5059-0.4336-1.3184-0.4336-2.4395
	c0-0.7578,0.1084-1.373,0.3071-1.8604c0.3613-0.8672,1.1201-1.4268,2.2764-1.6982c1.8247-0.416,4.6792-0.6328,8.5635-0.6328
	c2.5474,0,4.5347,0.1445,5.98,0.4336c1.2827,0.2715,2.0957,0.7412,2.4751,1.4453c0.1987,0.3984,0.3071,1.1748,0.3252,2.3311v0.3799
	h3.2881c-0.0181-0.5605-0.0181-0.9766-0.0361-1.2109c-0.1084-1.6445-0.4878-2.8359-1.1382-3.6133
	c-0.7407-0.8672-1.6802-1.4629-2.8364-1.7891c-1.7886-0.5059-4.3901-0.7578-7.8408-0.7578c-4.4985,0-7.9312,0.2705-10.2617,0.8301
	c-0.9575,0.2354-1.8247,0.6689-2.6016,1.3008c-1.2466,0.9941-1.8608,2.6201-1.8608,4.8418c0,1.2109,0.1626,2.2949,0.5059,3.252
	c0.3613,1.0303,1.084,1.8789,2.186,2.5117c1.2466,0.7402,3.3242,1.1201,6.2329,1.1201h7.9854
	c2.2222,0.0186,3.812,0.1084,4.7695,0.2705c0.8672,0.1631,1.4634,0.5059,1.7886,1.0488c0.3433,0.5596,0.5059,1.4453,0.5059,2.6367
	c0,2.0957-0.7949,3.3242-2.3667,3.668c-1.6079,0.3613-4.2456,0.542-7.9131,0.542c-4.7515,0-7.624-0.1631-8.6538-0.4873
	c-0.7407-0.2354-1.2285-0.6152-1.4634-1.1748c-0.1807-0.415-0.2891-1.3545-0.3071-2.7998c-0.0181-0.127-0.0181-0.3076-0.0181-0.543
	H95.6816z M138.771,119.8086h12.3936v21.7695h3.2881v-21.7695h12.3394v-2.8906h-28.021V119.8086z M186.6118,141.5781v-9.4844
	h12.0859c3.5596,0.0176,5.709,0.0898,6.4863,0.1982c1.5537,0.2529,2.4395,1.1748,2.6563,2.7461
	c0.0898,0.6504,0.126,2.042,0.126,4.1729v2.3672h3.2881v-3.5049c0-1.5898-0.0176-2.6016-0.0547-3.0352
	c-0.1074-1.3193-0.4512-2.2939-1.0469-2.9268c-0.5967-0.5957-1.4277-1.0117-2.5293-1.2285c2.041-0.4336,3.2871-1.3555,3.7031-2.7461
	c0.2344-0.8311,0.3613-2.0957,0.3613-3.7754c0-1.8789-0.2529-3.3428-0.7773-4.3906c-0.7764-1.5723-2.1855-2.4746-4.2266-2.7461
	c-1.1563-0.1621-3.8125-0.2529-7.9863-0.3066h-15.374v24.6602H186.6118z M186.6118,119.8086h12.0859
	c2.7646,0,4.8242,0.0537,6.1973,0.1797c0.9756,0.0908,1.7344,0.3076,2.2578,0.6875c0.7773,0.5596,1.1748,1.7695,1.1748,3.6484
	c0,1.1934-0.126,2.1504-0.3613,2.8555c-0.2705,0.8301-0.958,1.3906-2.042,1.6797c-0.8301,0.2344-3.2334,0.3438-7.2266,0.3438
	h-12.0859V119.8086z M260.4497,141.5781l-13.9473-24.6602h-5.2568l-13.9834,24.6602h3.7217l2.9443-5.2031h19.9453l2.9277,5.2031
	H260.4497z M235.5181,133.4844l7.7871-13.6758h1.3184l7.6787,13.6758H235.5181z M276.603,141.5781h22.7637v-2.8906h-19.4756V116.918
	h-3.2881V141.5781z M315.9165,141.5781h3.2881V116.918h-3.2881V141.5781z M368.563,141.5781l-13.9473-24.6602h-5.2578
	l-13.9834,24.6602h3.7217l2.9453-5.2031h19.9453l2.9258,5.2031H368.563z M343.6313,133.4844l7.7861-13.6758h1.3193l7.6777,13.6758
	H343.6313z"/>
</svg>
