<?xml version="1.0" encoding="utf-8"?>
<!-- Generator: Adobe Illustrator 22.0.1, SVG Export Plug-In . SVG Version: 6.00 Build 0)  -->
<svg version="1.1" id="Layer_1" xmlns="http://www.w3.org/2000/svg" xmlns:xlink="http://www.w3.org/1999/xlink" x="0px" y="0px"
	 viewBox="0 0 24.177 7.523" enable-background="new 0 0 24.177 7.523" xml:space="preserve">
<g>
	<path fill="#FFFFFF" d="M1.487,2.015c-0.419,0.66-0.923,0.972-1.439,1.487L0,2.975c0.312-0.252,0.563-0.552,0.792-0.875
		C0.54,2.075,0.468,1.979,0.468,1.727C0.468,0.864,1.691,0,1.979,0c0.12,0,0.216,0.096,0.216,0.204c0,0.12-0.036,0.228-0.084,0.336
		c1.127-0.156,1.787-0.3,1.907-0.156c0.18,0.228,0.264,0.42,0.288,0.636c0,0.372-0.228,0.552-0.504,0.78
		c-0.348,0.3-0.936,0.887-0.936,1.367c0,0.192,0.192,0.336,0.372,0.336c0.516,0,1.271-0.78,1.667-1.08l0.084,0.444
		C4.533,3.382,3.154,4.713,2.47,4.713c-0.503,0-0.815-0.467-0.815-0.923c0-0.815,0.624-1.451,1.104-2.027L2.734,1.739L1.487,2.015z"
		/>
	<path fill="#FFFFFF" d="M6.778,3.802C6.55,3.982,5.783,4.605,5.507,4.605c-0.336,0-1.031-0.792-1.055-1.415
		c-0.048-1.499,3.07-3.034,4.461-3.07c0.552-0.012,0.779,0.432,0.779,0.576s-0.312,0.264-0.419,0.3
		C9.5,1.092,9.621,1.224,9.621,1.487c0,0.384-1.043,1.224-1.043,1.787c0,0.204,0.18,0.288,0.372,0.288
		c0.504,0,1.188-0.611,1.703-0.959l0.096,0.443c-0.516,0.588-2.123,1.871-2.71,1.871c-0.396,0-0.576-0.288-0.576-0.636
		c0-0.384,0.288-1.02,0.444-1.343L7.881,2.915L6.778,3.802z M5.327,3.49c0.012,0.06,0.06,0.276,0.24,0.24
		c0.24-0.048,0.612-0.012,2.986-2.411L8.529,1.295C5.675,2.171,5.327,2.903,5.327,3.49z"/>
	<path fill="#FFFFFF" d="M13.318,4.294c-0.276,1.919-2.146,3.142-2.938,3.226c-0.324,0.036-0.54-0.264-0.54-0.576
		c-0.012-0.66,0.6-1.175,1.08-1.559l1.559-1.247c-0.12-0.504-0.3-0.564-0.768-0.696c-0.18-0.048-0.468-0.072-0.432-0.3
		c0.06-0.396,0.852-0.708,2.183-1.811l-0.024-0.024L11.975,1.56l-1.367,1.487l-0.132-0.396l0.839-1.02
		c-0.18-0.036-0.324-0.108-0.324-0.324c0-0.444,0.923-1.283,1.307-1.283c0.228,0,0.3,0.228,0.3,0.419
		c0.947-0.144,1.355-0.348,1.595-0.348c0.228,0,0.384,0.815,0.384,0.947c0,0.192-0.216,0.372-0.36,0.468l-1.535,1.116
		c0.324,0.24,0.528,0.551,0.624,0.947l1.895-1.463l0.036,0.516L13.318,4.294z M11.087,5.949c-0.336,0.264-0.6,0.54-0.648,0.972
		c0.816-0.216,1.871-1.188,2.027-2.051L11.087,5.949z"/>
	<path fill="#FFFFFF" d="M19.977,2.819c-0.54,0.684-1.068,0.971-1.943,0.971c-0.503,0.516-1.091,0.899-1.847,0.899
		c-0.624,0-1.199-0.624-1.248-1.715c-0.024-0.899,0.42-1.499,1.091-2.015c0.648-0.527,1.511-0.852,2.243-0.887
		c0.264-0.012,0.66,0.108,0.66,0.432c0,0.18-0.144,0.252-0.276,0.324c0.359,0.096,0.432,0.348,0.432,0.708
		c0,0.528-0.24,0.948-0.468,1.416c0.528,0.096,0.863-0.36,1.235-0.636L19.977,2.819z M16.319,2.255
		c-0.264,0.264-0.492,0.732-0.492,1.104c0,0.348,0.228,0.456,0.528,0.456c0.396,0,0.647-0.228,0.923-0.479
		c-0.084-0.192-0.144-0.348-0.144-0.552c0-0.624,0.564-1.379,0.516-1.403C17.242,1.619,16.679,1.907,16.319,2.255z"/>
	<path fill="#FFFFFF" d="M20.675,2.015c-0.419,0.66-0.923,0.972-1.439,1.487l-0.048-0.528c0.312-0.252,0.563-0.552,0.792-0.875
		c-0.252-0.024-0.324-0.12-0.324-0.372C19.656,0.864,20.879,0,21.167,0c0.12,0,0.216,0.096,0.216,0.204
		c0,0.12-0.036,0.228-0.084,0.336c1.127-0.156,1.787-0.3,1.907-0.156c0.18,0.228,0.264,0.42,0.288,0.636
		c0,0.372-0.228,0.552-0.504,0.78c-0.348,0.3-0.936,0.887-0.936,1.367c0,0.192,0.192,0.336,0.372,0.336
		c0.516,0,1.271-0.78,1.667-1.08l0.084,0.444c-0.456,0.516-1.835,1.847-2.519,1.847c-0.504,0-0.816-0.467-0.816-0.923
		c0-0.815,0.624-1.451,1.104-2.027l-0.024-0.024L20.675,2.015z"/>
</g>
</svg>
