<?xml version="1.0" encoding="utf-8"?>
<!-- Generator: Adobe Illustrator 22.0.1, SVG Export Plug-In . SVG Version: 6.00 Build 0)  -->
<svg version="1.1" id="Layer_1" xmlns="http://www.w3.org/2000/svg" xmlns:xlink="http://www.w3.org/1999/xlink" x="0px" y="0px"
	 viewBox="0 0 197.13 47.44" enable-background="new 0 0 197.13 47.44" xml:space="preserve">
<path fill="#11B2F7" d="M0,1.59h12.52v4.67c1.5-2.65,2.65-3.79,4.76-4.85c1.68-0.79,4.32-1.32,6-1.32h0.35V13.4
	c-7.67,0.18-10.49,2.38-10.49,8.02v24.51H0V1.59z"/>
<path fill="#11B2F7" d="M68.78,32.1c-4.14,9.61-12.17,15.34-21.69,15.34C34.3,47.44,23.9,36.95,23.9,23.9
	c0-13.23,10.23-23.81,23.01-23.81c13.31,0,23.37,10.41,23.37,24.25c0,1.5-0.09,2.2-0.35,3.62H36.77c0.62,4.94,4.5,8.29,9.7,8.29
	c3.35,0,5.38-0.79,8.11-3.53l0.62-0.62H68.78z M57.05,19.05c-0.88-4.58-4.94-7.67-10.05-7.67c-5.11,0-8.82,2.82-9.96,7.67H57.05z"/>
<path fill="#11B2F7" d="M119.39,29.1c-2.65,10.85-12.08,18.34-23.28,18.34c-13.31,0-23.72-10.49-23.72-23.72
	c0-13.31,10.23-23.63,23.37-23.63c11.64,0,21.16,7.58,23.54,18.61h-13.49l-3.57-6.17H90.5L83.93,23.9l6.57,11.11h11.74l3.75-5.91
	H119.39z"/>
<path fill="#11B2F7" d="M156.77,41.18c-2.12,4.23-6.61,6.26-13.76,6.26c-13.31,0-22.49-9.7-22.49-23.72
	C120.53,9.79,129.97,0,143.37,0c6.7,0,10.93,2.03,13.4,6.26V1.59h12.52v44.35h-12.52V41.18z M144.96,35.01
	c6.44,0,11.11-4.76,11.11-11.29c0-6.44-4.76-11.2-11.2-11.2c-6.17,0-11.02,4.85-11.02,11.11C133.85,30.16,138.61,35.01,144.96,35.01
	z"/>
<path fill="#11B2F7" d="M173.5,1.59h12.52v4.67c1.5-2.65,2.65-3.79,4.76-4.85c1.68-0.79,4.32-1.32,6-1.32h0.35V13.4
	c-7.67,0.18-10.49,2.38-10.49,8.02v24.51H173.5V1.59z"/>
</svg>
