<?xml version="1.0" encoding="utf-8"?>
<!-- Generator: Adobe Illustrator 22.0.1, SVG Export Plug-In . SVG Version: 6.00 Build 0)  -->
<svg version="1.1" id="Layer_1" xmlns="http://www.w3.org/2000/svg" xmlns:xlink="http://www.w3.org/1999/xlink" x="0px" y="0px"
	 viewBox="0 0 492.1945 198.8641" enable-background="new 0 0 492.1945 198.8641" xml:space="preserve">
<path d="M410.0766,169.7148h-12.6931v29.1493h-11.9236v-29.1493h-12.6284v-8.7768h37.2451V169.7148z M433.0905,186.8898h-6.2181
	v11.9743h-11.9236V160.938h18.1417c3.632,0,6.7729,0.3613,9.4227,1.0828c2.6498,0.7234,4.6898,1.716,6.1221,2.9803
	c1.4312,1.2644,2.4684,2.6191,3.1096,4.0632c0.6411,1.445,0.9617,3.0341,0.9617,4.7684c0,5.3093-2.6714,9.0477-8.0131,11.2153
	l7.3719,13.8161h-12.6931L433.0905,186.8898z M433.1541,169.3353h-6.2818v9.2649h6.2818c5.0006,0,7.5004-1.5344,7.5004-4.6051
	C440.6545,170.8889,438.1548,169.3353,433.1541,169.3353z M492.1945,169.7148h-12.6931v29.1493h-11.9236v-29.1493h-12.6284v-8.7768
	h37.2451V169.7148z M263.7808,147.8393h-3.1045v-22.9746h10.624c3.7754,0,7.5508,1.3125,7.5508,6.1758
	c0,3.3916-1.7275,4.6396-3.1992,5.5039c1.3115,0.5439,2.623,1.1201,2.752,4.3193l0.1914,4.1602
	c0.0322,1.2793,0.1924,1.7598,1.1523,2.3037v0.5117h-3.8076c-0.4482-1.4082-0.5439-4.8955-0.5439-5.7598
	c0-1.8877-0.3848-4.0957-4.0957-4.0957h-7.5195V147.8393z M263.7808,135.3286h7.1992c2.2715,0,4.6719-0.5762,4.6719-3.9678
	c0-3.5518-2.5918-3.8398-4.1279-3.8398h-7.7432V135.3286z M309.4126,141.1518l-2.4004,6.6875h-3.1992l8.6387-22.9746h3.5205
	l8.3193,22.9746h-3.3916l-2.2725-6.6875H309.4126z M317.5073,138.3999l-3.3916-10.1113h-0.0635l-3.6797,10.1113H317.5073z
	 M364.7065,131.7768c-0.8643-4.0322-4.2236-4.7676-6.4316-4.7676c-4.1592,0-7.5195,3.0713-7.5195,9.1191
	c0,5.4072,1.9199,9.5674,7.6152,9.5674c2.0166,0,5.5039-0.96,6.5596-6.3037h3.0078c-1.2793,8.6709-8.3193,9.0557-10.0469,9.0557
	c-5.2158,0-10.335-3.3926-10.335-12.2236c0-7.0713,4.0313-11.9668,10.7188-11.9668c5.9199,0,8.9912,3.6797,9.4395,7.5195H364.7065z
	 M397.6675,147.8393h-3.1035v-22.9746h3.1035V147.8393z M440.6108,124.8647h3.0078v22.9746h-3.4883l-11.6787-18.5586h-0.0645
	v18.5586h-3.0078v-22.9746h3.6797l11.4873,18.5586h0.0645V124.8647z M480.8989,135.5522h10.0791v12.2871h-2.0156l-0.7363-2.9756
	c-1.5674,2.1758-4.4473,3.584-7.583,3.584c-3.9355,0-5.8555-1.4404-7.04-2.5918c-3.5195-3.3281-3.6152-7.2637-3.6152-9.6953
	c0-5.5996,3.3916-11.9033,10.8789-11.9033c4.2881,0,9.0557,2.4316,9.7275,7.583h-3.0078c-0.9922-4-4.3516-4.8311-6.8799-4.8311
	c-4.1279,0-7.5195,3.2949-7.5195,9.3105c0,4.6719,1.5361,9.4717,7.6475,9.4717c1.1523,0,3.0078-0.1279,4.7041-1.4717
	c2.0156-1.6006,2.5273-3.6475,2.5273-6.1113h-7.167V135.5522z M90.4924,109.624L59.9232,68.6104H27.5777v41.0137H0V1.6104h65.8127
	c15.7053,0,27.826,2.7725,36.3652,8.3174c8.538,5.5459,12.8073,13.5049,12.8073,23.8799c0,7.5635-2.6175,14.0928-7.8526,19.5859
	c-5.2351,5.4941-12.3089,9.1104-21.2208,10.8477l35.6174,45.3828H90.4924z M87.2205,34.7275
	c0-10.375-8.1021-15.5625-24.3058-15.5625H27.5777v31.8906h36.0848c7.727,0,13.5861-1.4307,17.575-4.293
	C85.2252,43.9014,87.2205,39.8896,87.2205,34.7275z M138.2627,109.624V1.6104h103.5796v17.4785h-76.0018v27.1367h70.2999v17.4785
	h-70.2999v28.4414h79.8353v17.4785H138.2627z M383.3775,54.8115c0,11.1426-2.664,20.8652-7.992,29.1699
	c-5.3292,8.3057-12.8698,14.6553-22.6231,19.0498c-9.7545,4.3955-20.9261,6.5928-33.5137,6.5928h-53.2876V1.6104h47.6786
	c22.186,0,39.3561,4.5869,51.509,13.7598C377.3016,24.5439,383.3775,37.6914,383.3775,54.8115z M355.6133,54.8115
	c0-11.6006-3.6774-20.4551-11.0311-26.5625c-7.3549-6.1064-17.8548-9.1602-31.5047-9.1602H293.54v73.0566h23.371
	c11.8409,0,21.2512-3.3467,28.2321-10.043C352.1229,75.4082,355.6133,66.3115,355.6133,54.8115z M490.978,74.2842
	c0,11.498-3.9251,20.5195-11.7778,27.0605c-7.8527,6.542-18.6968,9.8125-32.5324,9.8125c-15.5195,0-27.4378-4.458-35.7585-13.377
	c-8.3195-8.918-12.4792-22.1416-12.4792-39.6719c0-19.2666,4.2205-33.7686,12.6662-43.5049C419.5409,4.8682,431.6163,0,447.3217,0
	c11.1549,0,19.9591,2.0195,26.4089,6.0557c6.451,4.0381,11.0156,10.2988,13.6963,18.7822l-24.7738,2.8369
	c-2.3687-7.1035-7.6657-10.6563-15.8923-10.6563c-7.0428,0-12.5733,2.8877-16.5937,8.6621
	c-4.0192,5.7764-6.0294,14.541-6.0294,26.2949c2.8045-3.833,6.6987-6.7715,11.6861-8.8164c4.985-2.043,10.625-3.0664,16.92-3.0664
	c11.779,0,21.0952,3.0664,27.9523,9.1992C487.5507,55.4248,490.978,63.7559,490.978,74.2842z M464.6168,74.8975
	c0-6.1328-1.7303-10.8213-5.1887-14.0674c-3.4595-3.2451-8.2123-4.8682-14.256-4.8682c-5.7972,0-10.4404,1.5215-13.9297,4.5615
	c-3.4904,3.041-5.2351,7.0654-5.2351,12.0732c0,6.2871,1.8232,11.4873,5.4685,15.6006c3.6465,4.1143,8.429,6.1709,14.3501,6.1709
	c5.9199,0,10.5321-1.7246,13.8356-5.1738C462.9638,85.7441,464.6168,80.9795,464.6168,74.8975z"/>
</svg>
