<?xml version="1.0" encoding="utf-8"?>
<!-- Generator: Adobe Illustrator 22.0.1, SVG Export Plug-In . SVG Version: 6.00 Build 0)  -->
<svg version="1.1" id="Layer_1" xmlns="http://www.w3.org/2000/svg" xmlns:xlink="http://www.w3.org/1999/xlink" x="0px" y="0px"
	 viewBox="0 0 100.744 30.544" enable-background="new 0 0 100.744 30.544" xml:space="preserve">
<g>
	<path d="M15.284,8.141c0.126-1.235,1.302-3.828,2.279-4.096c1.314-0.366,9.171-1.932,9.115-1.353
		c-0.047,0.578-0.74,3.529-1.241,3.859c-0.696,0.465-5.687,1.343-5.687,1.343s0.76,0.231,0.605,0.846
		c-0.158,0.612-0.726,1.511-0.398,1.518c0.332,0.005,3.604-0.658,3.939-0.651c0.325,0.01-0.104,1.522-0.493,2.467
		c-0.372,0.926-0.525,1.617-1.372,1.854c-0.843,0.242-4.153,0.543-4.371,0.829c-0.231,0.288-1.453,2.259-0.69,2.201
		c0.755-0.058,3.633-0.66,4.153-0.718c0.514-0.064,0.201,1.203-0.38,2.597c-0.842,1.987-0.53,1.59-4.001,2.215
		c-3.974,0.725-3.709,1.122-4.781-0.519c-0.744-1.142,0.159-2.835,0.38-2.944c0.212-0.102,0.512-0.091,0.476-0.454
		c-0.028-0.367-0.887-1.106-0.346-2.441c0.527-1.334,1.445-3.427,1.95-3.412c0.507,0.006,0.47,0.151,0.84-0.573
		c0.379-0.714,1.111-2.443,1.111-2.443C16.291,8.076,15.635,8.435,15.284,8.141"/>
	<path d="M26.957,3.456c0.326-0.466,3.045-0.497,2.851,0.451c0,0-0.543,3.844-0.826,5.147c-0.276,1.296-0.784,3.428-0.42,3.005
		c0.373-0.439,4.975-9.305,5.372-9.593c1.035-0.749,4.149-0.279,3.763,0.614c-0.478,1.143-2.033,3.793-4.263,7.289
		c-2.958,4.619-6.303,9.754-7.241,9.777c-1.629,0.038-2.872,0.166-2.608-2.193c0.273-2.354,1.386-9.633,1.475-10.317
		c0.086-0.69,0.879-0.818,1.208-2.017C26.563,4.429,26.614,3.927,26.957,3.456"/>
	<path d="M48.242,2.915c0.435-0.288,3.257,0.134,3.435,0.429c0.177,0.289-1.707,3.845-2.688,5.942
		c-0.99,2.087-2.689,5.443-2.836,5.68c-0.223,0.358,0.744,0.247,1.568,0.173c1.374-0.117,2.031-0.182,2.686-0.161
		c0.647,0.004,0.191,1.121-0.335,2.133c-0.719,1.372-0.615,2.019-1.747,2.034c-0.833,0.012-4.107,0.243-4.66,0.345
		c-0.54,0.106-0.79,0.284-1.611-0.977c-0.809-1.25-0.31-0.507,1.126-3.752c0.754-1.679,1.623-2.796,1.925-5.514
		c0.107-1.014,0.975-2.311,1.633-3.713C47.146,4.635,47.692,3.264,48.242,2.915"/>
	<path d="M53.885,3.744c0.661-0.527,2.403-0.428,3.02-0.451c0.622-0.022,1.167,0.1,0.746,1.066
		c-0.429,0.977-4.329,10.269-4.492,10.878c-0.188,0.759,0.956,1.515,2.142,0.047c0.973-1.204,4.447-10.226,5.678-12.171
		c0.544-0.85,3.793-1.126,4.026-0.17c0.246,0.945-1.495,0.338-2.116,0.828c-0.628,0.495-0.943,0.254-1.498,2.153
		c-0.464,1.547-0.423,1.513,0.007,1.851c0.276,0.211,0.802,0.037,1.009,0.084c0.385,0.099,0.197,0.584-0.24,1.483
		c-0.685,1.406-2.832,6.131-4.1,8.064c-1.615,2.431-4.99,3.764-6.857,3.136c-2.641-0.89-2.156-1.279-1.372-2.281
		c0.533-0.69,1.396-3.162,1.19-3.46c-0.214-0.297-1.049-0.193-1.458-0.247c-0.392-0.046-0.16-0.544,0.177-1.337
		C50.038,12.525,53.257,4.244,53.885,3.744"/>
	<path d="M64.671,7.394c-0.259,0.143-2.327,0.177-2.844,0.161c-0.498,0.003-0.49-0.476-0.212-1.232
		c0.26-0.757,0.758-2.343,1.669-2.435c0.908-0.089,0.878-0.095,3.607-0.409c2.723-0.309,5.19-0.655,5.999-0.717
		c0.159-0.013,0.453,0.292,0.308,0.728c-0.305,0.947-0.787,2.357-1.285,2.881c-0.738,0.789-3.282,0.578-4.225,0.789
		c-0.444,0.104-0.147,0.367,0.352,0.472c0.501,0.282,0.904,0.174,0.534,1c-0.386,0.834-5.303,11.496-5.742,11.798
		c-0.265,0.186-2.707,0.671-3.388,0.155c-0.759-0.576,0.034-1.484,0.328-2.246c0.308-0.75,5.098-10.135,5.182-10.647
		C65.042,7.187,64.671,7.394,64.671,7.394"/>
	<path d="M74.936,1.928c0.664-0.275,3.759-0.839,3.667,0.47c-0.729,1.761-3.004,7.061-4.134,9.326
		c-0.774,1.523-2.628,6.221-2.969,6.731c-0.335,0.502-1.026,0.854-1.607,0.879c-0.576,0.025-1.714-0.029-2.064-0.294
		c-0.353-0.25-0.28-0.732-0.007-1.198C70.118,12.836,74.288,2.208,74.936,1.928"/>
	<path d="M88.911,4.586c0.074-0.317,1.588-1.489,3.675-0.69c1.223,0.468,0.628,3.786,0.246,8.171
		c-0.044,0.475,0.214,0.221,0.392-0.099c0.194-0.323,3.585-8.757,4.251-9.14c0.661-0.389,3.379-0.526,3.264,0.1
		c-0.122,0.61,0.241,0.403-0.319,1.366c-0.556,0.969-3.907,9.302-4.638,10.732c-0.644,1.306-1.679,4.437-2.156,4.864
		c-0.481,0.431-2.225,0.723-3.23,0.161c-0.999-0.568-1.046-1.561-1.162-2.237c-0.223-1.354,0.419-4.606-0.172-4.51
		c-0.293,0.424-2.752,6.823-3.261,7.717c-0.412,0.712-2.847,0.598-3.228-0.353c-0.393-0.976,2.559-6.682,3.812-9.489
		c1.25-2.801,2.644-5.753,2.653-5.937C89.033,5.054,88.827,4.913,88.911,4.586"/>
	<path d="M60.74,23.23c1.28-0.487,3.89-0.292,4.225-0.32c0.317-0.038,0.912,0.827,0.77,1.103c-0.188,0.359-1.993,0.033-2.549,0.311
		c-0.666,0.346-1.301,1.539-1.159,1.542c0.407,0.005,1.904-0.042,1.926,0.398c0.036,0.519,0.311,0.839-1.316,0.807
		c-1.65-0.029-1.82,0.075-2.159,0.872c-0.342,0.799-1.016,1.44,0.912,1.065c2.229-0.414,2.266-0.156,2.151,0.154
		c-0.304,0.789-0.124,0.611-1.368,0.846c-1.238,0.23-4.124,0.901-4.241-0.261c-0.125-1.164,0.954-2.922,1.335-3.496
		c0.368-0.582,1.481-1.506,1.193-1.724C60.177,24.304,59.881,23.553,60.74,23.23"/>
	<path d="M13.09,1.084c-1.772-0.466-7,1.248-8.209,1.959c-0.667,0.383-1.69,3.018-1.293,3.38c0.37,0.356,1.248-0.372,2.004-0.505
		C4.336,9.02,2.04,13.267,0.784,16.138c-0.971,2.241-0.907,2.168-0.518,2.214c1.857,0.207,3.007,0.777,3.834-0.7
		c0.635-1.131,2.006-4.312,2.219-4.303c0.393,0.76,1.872,5.002,2.372,5.633c0.326,0.417,1.124,0.046,2.112-0.544
		c0.982-0.602,1.796-1.16,1.63-1.75c-0.17-0.582-1.832-5.158-1.832-5.158s3.112-1.173,4.845-4.881
		C17.196,2.946,14.711,1.521,13.09,1.084 M10.186,8.332C9.567,8.93,8.016,9.628,8.29,8.658c0.475-1.59,1.382-2.091,1.037-2.812
		C9.116,5.406,8.499,5.87,8.505,5.434c0.008-0.368,3.281-0.884,3.329,0.099C11.885,6.223,11.204,7.365,10.186,8.332"/>
	<path d="M87.122,0c1.627,0.222,1.46,4.907,1.009,6.017c-0.843,2.015-3.727,9.005-4.81,10.434c-1.076,1.431-3.476,3.572-6.58,2.601
		c-2.961-0.929-2.322-6.646-1.668-8.203c0.686-1.617,1.792-3.995,2.16-4.823c0.38-0.822,2.007-2.469,3.112-3.394
		c1.107-0.922,2.654-2.049,4.041-2.098c0.173,0.224-0.407,2.02-0.106,1.852C84.564,2.204,85.507,0.663,87.122,0 M82.34,11.519
		c1.057-2.434,1.258-6.79,0.547-7.082c-0.151,0.651-0.915,0.476-2.468,2.866c-1.546,2.397-2.032,6.325-1.342,7.244
		C79.644,15.301,81.183,14.181,82.34,11.519"/>
	<path d="M45.391,24.681c-0.184-2.427-5.713-1.56-5.901-1.233c-0.458,0.798,0.245,0.766,0.198,1.198c0,0-2.255,3.837-2.657,4.492
		c-0.34,0.529,1.462,1.224,1.804,0.722c0.33-0.508,1.355-2.586,1.496-2.588c0.325,0.002,0.129,0.766,1.126,2.275
		c0.987,1.508,2.136,0.931,2.559,0.66c0.225-0.139-0.059-0.363-0.807-1.39c-0.393-0.542-0.735-0.999-1.018-1.758
		C42.81,26.842,45.479,25.808,45.391,24.681 M42.29,25.533c-0.554,0.275-1.37,0.462-1.163,0.124
		c0.375-0.615,0.446-0.608,0.639-0.968c0.444-0.287,1.822-0.62,1.884-0.043C43.678,24.93,42.842,25.252,42.29,25.533"/>
	<path d="M57.044,23.084c-2.774,0.567-4.454,2.711-4.9,3.579c-0.449,0.86-0.697,0.602-0.475,0.208
		c0.221-0.399,0.473-1.804,0.64-2.497c0.153-0.686,0.051-1.083-0.822-1.36c-0.877-0.271-1.131,0.037-0.951,0.425
		c0.171,0.354-0.082,0.5-0.54,0.247c-0.484-0.274-3.402,2.764-3.96,3.329c0,0-0.796-0.09-1.162,0.159
		c-0.706,0.476-0.047,0.732,0.016,1.056c0.062,0.322-0.688,0.787-0.749,1.322c-0.047,0.405,1.399,0.87,1.66,0.577
		c0.329-0.358,1.205-1.628,1.489-1.893c0.178-0.183,1.237-0.232,1.85-0.179c0.612,0.045-0.081,0.847-0.349,1.445
		c-0.379,0.824-0.053,0.618,0.52,0.803c0.585,0.198,1.09,0.345,1.234,0.029c0.147-0.324,0.496-0.976,0.614-1.589
		c0.129-0.619,0.343-0.866,0.305-0.426c-0.041,0.431-0.14,1.221,0.98,1.833c1.112,0.595,3.874,0.292,4.829-0.347
		c0.838-0.563,0.336-1.323-0.226-1.2c-1.277,0.268-1.687,0.725-2.809,0.526c-0.887-0.158-0.072-1.998,0.745-2.923
		c1.041-1.184,2.425-2.174,2.872-2.056c0.295,0.076-0.596,0.942-0.64,1.217c-0.034,0.257,2.098,0.739,2.596-0.846
		C60.372,22.757,58.682,22.75,57.044,23.084 M50.088,25.64c-0.183,0.834-0.233,1.305-0.49,1.299c-0.257-0.005-1.2,0.162-0.688-0.373
		C49.143,26.321,50.29,24.809,50.088,25.64"/>
	<path d="M84.098,22.653c-0.869-0.204-1.053,0.227-0.883,0.383c0.177,0.146-0.035,0.437-0.364,0.389
		c-0.331-0.044-0.369-0.115-0.797,0.208c-0.444,0.317-2.55,2.057-2.853,2.526c-0.293,0.459-0.335,0.607-0.99,0.594
		c-0.655-0.014-1.165,0.376-0.809,0.86c0.348,0.477,0.056,0.584-0.238,0.9c-0.3,0.321-0.552,0.204-0.763,0.131
		c-0.219-0.082-1.235,0.229-2.082,0.32c-0.841,0.094-1.118,0.124-1.15-0.203c-0.037-0.326,0.487-1.118,0.787-1.471
		c0.292-0.359,2.15-0.324,2.764-0.386c0.624-0.061,0.579-0.02,0.629-0.606c0.048-0.578-0.715-0.519-1.441-0.505
		c-0.726,0.028-0.905-0.011-0.651-0.293c0.281-0.306,0.6-1.148,1.153-1.362c0.552-0.202,3.402,0.391,2.696-0.603
		c-0.649-0.914-1.041-0.672-1.876-0.721c-0.834-0.052-2.653,0.173-3.411,0.295c-0.768,0.135-0.667,0.825-0.393,1.228
		c0.286,0.405,0.322,0.262,0.066,0.446c-0.248,0.172-0.848,0.886-1.338,1.749c-0.493,0.861-0.48,0.569-0.542,0.092
		c-0.075-0.471-1.743-0.175-3.2-0.138c-0.767,0.025-0.822,1.06-0.602,1.151c0.253,0.118,0.682,0.126,0.431,0.34
		c-0.26,0.216-0.851,0.962-1.538,0.99c-1.172,0.041-0.009-2.108,0.563-2.787c0.545-0.672,2.648-2.173,2.935-2.117
		c0.44,0.076-0.12,0.477-0.233,1.014c-0.081,0.351,1.07,0.561,1.842,0.18c0.769-0.386,0.761-1.589,0.188-2.073
		c0,0-0.672-0.737-3.013-0.051c-1.887,0.542-3.713,2.302-4.538,3.615c-0.67,1.072-0.976,2.781,0.955,3.432
		c2.16,0.729,4.011-0.903,4.674-1.367c0.668-0.465,0.388-1.082,0.456-1.225c0.322,0.044,0.833-0.121,1.06-0.165
		c0.225-0.023-0.151,0.22-0.533,1.19c-0.383,0.977-0.03,1.343,0.663,1.615c0.684,0.261,3.778-0.214,4.314-0.396
		c0.549-0.162,0.775-0.454,0.775-0.454s1.329,0.75,1.743,0.468c0.256-0.186,1.193-1.679,1.48-1.929
		c0.307-0.253,1.502-0.233,1.865-0.224c0.362,0.009-0.763,2.019-0.54,2.167c0.211,0.151,1.068,0.305,1.653,0.253
		c0.589-0.064,1.416-3.678,1.895-6.168C85.03,23.32,84.972,22.845,84.098,22.653 M82.547,25.959
		c-0.221,0.346,0.246,0.768-0.874,0.645c-0.592-0.074,0.053-0.619,0.826-1.474C82.715,24.879,83.149,25.026,82.547,25.959"/>
	<path d="M91.021,25.792c0.859-0.588,1.98-1.664,0.654-2.561c-1.556-1.058-5.019-0.473-5.226-0.031
		c-0.272,0.581,0.127,0.812,0.274,0.988c-0.118,0.724-0.557,0.833-0.983,1.727c-0.982,2.052-2.575,3.248-1.334,3.497
		c1.182,0.229,1.263,0.459,1.564-0.19c0.231-0.493,1.091-2.307,1.321-2.367c0.209-0.07,0.572,1.963,1.324,2.706
		c0.684,0.679,0.536,0.737,1.547,0.612c0.624-0.08,1.07-0.601,0.603-0.899c-0.461-0.296-1.273-1.846-1.484-2.273
		C89.068,26.552,90.13,26.393,91.021,25.792 M88.192,25.524c-0.444,0.134,0.604-1.662,1.226-1.613
		c0.58,0.046,1.319-0.07,1.066,0.526C90.343,24.798,88.359,25.472,88.192,25.524"/>
	<path d="M44.035,2.251c-0.587-0.178-2.679,1.908-2.903,2.167c-0.225,0.242-0.476,0.024-0.402-0.119
		c0.078-0.145,0.308-1.195,0.253-1.6c-0.509-0.078-3.185,1.072-3.638,1.791c-0.443,0.715-4.19,7.051-4.484,7.498
		c-0.98,1.467-1.232,1.797-1.468,4.224c-0.451,4.806,2.314,7.086,6.449,4.624c3.37-2.004,5.451-6.41,6.619-10.291
		C45.619,6.681,45.161,2.603,44.035,2.251 M39.432,13.166c-1.258,2.887-2.702,4.476-3.615,3.164
		c-0.815-1.183,1.28-6.223,1.983-7.004c0.711-0.786,2.271-2.862,2.594-2.644C40.766,6.948,40.69,10.283,39.432,13.166"/>
</g>
</svg>
