<?xml version="1.0" encoding="utf-8"?>
<!-- Generator: Adobe Illustrator 22.0.1, SVG Export Plug-In . SVG Version: 6.00 Build 0)  -->
<svg version="1.1" id="Layer_1" xmlns="http://www.w3.org/2000/svg" xmlns:xlink="http://www.w3.org/1999/xlink" x="0px" y="0px"
	 viewBox="0 0 46.1368 40.4497" enable-background="new 0 0 46.1368 40.4497" xml:space="preserve">
<path d="M4.6363,30.6499h24.1001c2.3662,0,3.7334-0.9004,4.1006-2.7002l0.0996-0.5c0.0996-0.5,0.1504-0.9658,0.1504-1.3994
	c0-0.9668-0.3008-1.625-0.9004-1.9756c-0.5996-0.3496-1.5674-0.5244-2.9004-0.5244h-16.75l1.4502-6.9502h16.6504
	c1.3994,0,2.3916-0.1499,2.9746-0.4497c0.583-0.3003,1.0078-0.9165,1.2754-1.8501c0.166-0.6665,0.25-1.3003,0.25-1.8999
	c0-0.9331-0.2334-1.6001-0.7002-2C33.9698,10,33.1534,9.8003,31.9864,9.8003H9.3863L10.9361,2.5h20.5005
	c2.5996,0,4.6416,0.1675,6.125,0.5c1.4824,0.334,2.708,0.8838,3.6748,1.6504c0.7998,0.6333,1.4004,1.4746,1.7998,2.5249
	c0.4004,1.0498,0.6006,2.2085,0.6006,3.4751c0,1.8999-0.3428,3.6748-1.0254,5.3247c-0.6836,1.6499-1.6924,3.0586-3.0244,4.2251
	c1.5,1.2998,2.25,3.1665,2.25,5.6001c0,0.9336-0.1006,1.8994-0.3008,2.8994c-0.2666,1.5674-0.7246,2.9668-1.375,4.2002
	c-0.6494,1.2334-1.4746,2.2002-2.4746,2.8994c-1.0996,0.8008-2.4502,1.3594-4.0498,1.6758
	c-1.6006,0.3164-3.7334,0.4746-6.4004,0.4746H3.0865L4.6363,30.6499z"/>
<path d="M46.1368,10.6504c0-1.5667-0.2573-3.0356-0.7647-4.366c-0.5587-1.4691-1.4283-2.679-2.5837-3.5939
	c-1.2568-0.9966-2.8309-1.7133-4.6772-2.1293C36.4258,0.1833,34.2434,0,31.4366,0H10.9361h-2.025L8.4906,1.9808L6.9408,9.2811
	l-0.6409,3.0192h3.0864h22.6001c0.285,0,0.4971,0.016,0.6497,0.0354c0.0005,0.0204,0.0007,0.042,0.0007,0.0647
	c0,0.3786-0.0554,0.799-0.1647,1.2503c-0.0443,0.1475-0.0857,0.2468-0.1161,0.3093c-0.2018,0.0498-0.7054,0.1401-1.7192,0.1401
	H13.9864h-2.0322l-0.415,1.9893l-1.4502,6.9502l-0.6282,3.0107h3.0755h16.75c0.6304,0,1.0438,0.0477,1.2994,0.0953
	c-0.0072,0.2416-0.041,0.5154-0.1008,0.8157l-0.0996,0.4999c-0.0579,0.2841-0.1405,0.6887-1.6487,0.6887H4.6363h-2.025
	l-0.4205,1.9808L0.641,37.4305L0,40.4497h3.0865h24.1499c2.856,0,5.1082-0.1708,6.8853-0.5221
	c1.9522-0.3862,3.6467-1.0952,5.0366-2.1074c1.2863-0.8987,2.3811-2.1718,3.215-3.7556c0.7648-1.4504,1.3105-3.1027,1.6213-4.9099
	c0.2272-1.1459,0.3423-2.2743,0.3423-3.3545c0-2.1343-0.4719-3.9714-1.4068-5.4899c0.8145-1.0173,1.4807-2.1472,1.9908-3.3784
	C45.7279,14.9818,46.1368,12.8687,46.1368,10.6504z M43.7662,16.4536c-0.5856,1.4135-1.3971,2.6801-2.4196,3.7792
	c1.1559,1.4465,1.7404,3.3129,1.7404,5.5676c0,1.0092-0.1094,2.0673-0.3185,3.109c-0.2875,1.6906-0.7928,3.2294-1.5012,4.5729
	c-0.7402,1.4058-1.7039,2.53-2.8448,3.3275c-1.2421,0.9045-2.7706,1.541-4.5432,1.8916c-1.6728,0.3307-3.9077,0.4984-6.6428,0.4984
	H3.0865H1.5432l0.3205-1.5096l1.5499-7.2997l0.2103-0.9904h1.0125h24.1001c2.2285,0,2.7043-0.8594,2.8747-1.6945l0.0996-0.5
	c0.0838-0.4207,0.1263-0.8093,0.1263-1.1552c0-0.4857-0.0947-0.7874-0.28-0.8958c-0.2269-0.1323-0.8237-0.3542-2.2708-0.3542h-16.75
	h-1.5377l0.3141-1.5053l1.4502-6.9502l0.2075-0.9947h1.0161h16.6504c1.6224,0,2.2209-0.2178,2.4022-0.311
	c0.254-0.1308,0.4835-0.5155,0.6348-1.041c0.1413-0.5673,0.213-1.1049,0.213-1.5978c0-0.5244-0.096-0.9073-0.264-1.0512
	c-0.0582-0.0499-0.4106-0.2989-1.6364-0.2989H9.3863H7.8431l0.3205-1.5096l1.5497-7.3003L9.9236,1.25h1.0125h20.5005
	c2.676,0,4.8287,0.1784,6.3997,0.5306c1.6617,0.3743,3.0669,1.0104,4.1761,1.8898c0.9763,0.7731,1.7139,1.8028,2.1918,3.0594
	c0.4529,1.1876,0.6826,2.5067,0.6826,3.9205C44.8868,12.7039,44.5098,14.6561,43.7662,16.4536z"/>
</svg>
