<?xml version="1.0" encoding="utf-8"?>
<!-- Generator: Adobe Illustrator 22.0.1, SVG Export Plug-In . SVG Version: 6.00 Build 0)  -->
<svg version="1.1" id="Layer_1" xmlns="http://www.w3.org/2000/svg" xmlns:xlink="http://www.w3.org/1999/xlink" x="0px" y="0px"
	 viewBox="0 0 139.517 69.124" enable-background="new 0 0 139.517 69.124" xml:space="preserve">
<path d="M9.916,54.796c-0.79-0.521-1.797-0.781-3.021-0.781c-0.504,0-0.994,0.051-1.469,0.135c-0.489,0.094-0.907,0.246-1.281,0.458
	c-0.375,0.209-0.669,0.491-0.897,0.846c-0.226,0.354-0.338,0.793-0.338,1.329c0,0.499,0.167,0.898,0.485,1.204
	c0.327,0.317,0.758,0.566,1.294,0.76c0.542,0.198,1.146,0.365,1.83,0.491c0.682,0.13,1.376,0.27,2.083,0.42
	c0.697,0.148,1.394,0.325,2.074,0.531c0.679,0.197,1.29,0.483,1.83,0.831c0.536,0.339,0.969,0.78,1.291,1.306
	c0.32,0.529,0.487,1.194,0.487,1.993c0,0.857-0.213,1.597-0.639,2.211c-0.421,0.612-0.96,1.109-1.626,1.494
	c-0.664,0.384-1.406,0.664-2.225,0.84c-0.825,0.169-1.64,0.259-2.451,0.259c-0.995,0-1.939-0.118-2.824-0.34
	c-0.888-0.227-1.665-0.571-2.339-1.033c-0.674-0.457-1.204-1.051-1.595-1.764C0.194,65.27,0,64.421,0,63.434h2.24
	c0,0.683,0.142,1.268,0.435,1.758c0.292,0.487,0.674,0.899,1.148,1.211c0.466,0.316,1.018,0.548,1.651,0.702
	s1.278,0.225,1.944,0.225c0.528,0,1.062-0.043,1.606-0.132c0.535-0.093,1.018-0.247,1.453-0.468
	c0.428-0.217,0.774-0.515,1.042-0.897c0.268-0.375,0.402-0.853,0.402-1.447c0-0.556-0.165-1.009-0.487-1.359
	c-0.324-0.347-0.754-0.619-1.292-0.846c-0.538-0.214-1.145-0.399-1.829-0.536c-0.683-0.132-1.375-0.272-2.074-0.417
	c-0.709-0.141-1.404-0.306-2.086-0.498c-0.677-0.188-1.29-0.437-1.826-0.747c-0.54-0.312-0.973-0.709-1.294-1.2
	c-0.322-0.489-0.487-1.102-0.487-1.841c0-0.816,0.184-1.523,0.55-2.125c0.365-0.59,0.841-1.082,1.457-1.468
	c0.601-0.387,1.298-0.67,2.062-0.863c0.772-0.186,1.562-0.281,2.382-0.281c0.905,0,1.76,0.095,2.532,0.289
	c0.778,0.202,1.465,0.505,2.056,0.935c0.586,0.421,1.049,0.957,1.391,1.595c0.337,0.646,0.528,1.406,0.559,2.299h-2.238
	C11.167,56.159,10.703,55.318,9.916,54.796"/>
<path d="M16.683,57.492c0.36-1.017,0.896-1.923,1.603-2.702c0.711-0.792,1.6-1.414,2.669-1.884c1.056-0.468,2.3-0.701,3.698-0.701
	c1.414,0,2.651,0.233,3.71,0.701c1.064,0.47,1.946,1.092,2.665,1.884c0.711,0.779,1.247,1.685,1.603,2.702
	c0.359,1.022,0.538,2.08,0.538,3.184c0,1.101-0.179,2.162-0.538,3.183c-0.356,1.016-0.892,1.917-1.603,2.702
	c-0.719,0.787-1.601,1.406-2.665,1.869c-1.059,0.462-2.296,0.693-3.71,0.693c-1.398,0-2.642-0.231-3.698-0.693
	c-1.069-0.463-1.958-1.082-2.669-1.869c-0.707-0.785-1.243-1.686-1.603-2.702c-0.355-1.021-0.538-2.082-0.538-3.183
	C16.145,59.572,16.328,58.514,16.683,57.492 M18.861,63.084c0.234,0.793,0.594,1.514,1.091,2.143c0.496,0.634,1.135,1.14,1.92,1.528
	c0.774,0.387,1.705,0.575,2.781,0.575c1.08,0,2.012-0.188,2.793-0.575c0.777-0.388,1.414-0.894,1.911-1.528
	c0.501-0.629,0.866-1.35,1.1-2.143c0.229-0.792,0.345-1.593,0.345-2.408s-0.116-1.624-0.345-2.417
	c-0.234-0.79-0.599-1.505-1.1-2.133c-0.497-0.637-1.134-1.146-1.911-1.536c-0.781-0.381-1.713-0.575-2.793-0.575
	c-1.076,0-2.007,0.194-2.781,0.575c-0.785,0.39-1.424,0.899-1.92,1.536c-0.497,0.628-0.857,1.343-1.091,2.133
	c-0.233,0.793-0.344,1.602-0.344,2.417S18.628,62.292,18.861,63.084"/>
<polygon points="38.417,52.591 38.417,66.951 47.824,66.951 47.824,68.76 36.053,68.76 36.053,52.591 "/>
<path d="M62.256,67.57c-1.214,1.037-2.937,1.554-5.179,1.554c-2.29,0-4.077-0.497-5.358-1.485c-1.288-0.984-1.931-2.559-1.931-4.717
	V52.591h2.364v10.331c0,1.449,0.427,2.543,1.268,3.286c0.847,0.754,2.066,1.123,3.657,1.123c1.51,0,2.663-0.369,3.452-1.123
	c0.785-0.743,1.181-1.837,1.181-3.286V52.591h2.364v10.331C64.074,64.984,63.466,66.531,62.256,67.57"/>
<polygon points="65.962,54.404 65.962,52.592 80.173,52.592 80.173,54.404 74.25,54.404 74.25,68.76 71.887,68.76 71.887,54.404 "/>
<rect x="82.227" y="52.591" width="2.374" height="16.169"/>
<path d="M88.121,57.492c0.35-1.017,0.888-1.923,1.607-2.702c0.709-0.792,1.6-1.414,2.655-1.884c1.062-0.468,2.298-0.701,3.712-0.701
	c1.406,0,2.645,0.233,3.708,0.701c1.058,0.47,1.948,1.092,2.661,1.884c0.713,0.779,1.247,1.685,1.605,2.702
	c0.354,1.022,0.531,2.08,0.531,3.184c0,1.101-0.177,2.162-0.531,3.183c-0.358,1.016-0.892,1.917-1.605,2.702
	c-0.713,0.787-1.603,1.406-2.661,1.869c-1.063,0.462-2.302,0.693-3.708,0.693c-1.414,0-2.65-0.231-3.712-0.693
	c-1.055-0.463-1.946-1.082-2.655-1.869c-0.719-0.785-1.257-1.686-1.607-2.702c-0.357-1.021-0.538-2.082-0.538-3.183
	C87.583,59.572,87.764,58.514,88.121,57.492 M90.294,63.084c0.237,0.793,0.597,1.514,1.1,2.143c0.495,0.634,1.13,1.14,1.913,1.528
	c0.785,0.387,1.71,0.575,2.788,0.575c1.076,0,2.006-0.188,2.785-0.575c0.78-0.388,1.422-0.894,1.915-1.528
	c0.499-0.629,0.868-1.35,1.096-2.143c0.234-0.792,0.345-1.593,0.345-2.408s-0.111-1.624-0.345-2.417
	c-0.228-0.79-0.597-1.505-1.096-2.133c-0.493-0.637-1.135-1.146-1.915-1.536c-0.779-0.381-1.709-0.575-2.785-0.575
	c-1.078,0-2.003,0.194-2.788,0.575c-0.783,0.39-1.418,0.899-1.913,1.536c-0.503,0.628-0.863,1.343-1.1,2.133
	c-0.227,0.793-0.344,1.602-0.344,2.417S90.067,62.292,90.294,63.084"/>
<polygon points="109.977,52.591 119.335,65.702 119.382,65.702 119.382,52.591 121.622,52.591 121.622,68.76 119.032,68.76 
	109.753,55.784 109.703,55.784 109.703,68.76 107.463,68.76 107.463,52.591 "/>
<path d="M134.353,54.796c-0.793-0.521-1.801-0.781-3.03-0.781c-0.494,0-0.984,0.051-1.465,0.135
	c-0.48,0.094-0.908,0.246-1.281,0.458c-0.373,0.209-0.674,0.491-0.896,0.846c-0.225,0.354-0.338,0.793-0.338,1.329
	c0,0.499,0.162,0.898,0.49,1.204c0.318,0.317,0.752,0.566,1.289,0.76c0.539,0.198,1.154,0.365,1.828,0.491
	c0.682,0.13,1.371,0.27,2.08,0.42c0.705,0.148,1.395,0.325,2.074,0.531c0.678,0.197,1.292,0.483,1.831,0.831
	c0.539,0.339,0.974,0.78,1.294,1.306c0.323,0.529,0.489,1.194,0.489,1.993c0,0.857-0.215,1.597-0.641,2.211
	c-0.422,0.612-0.959,1.109-1.623,1.494c-0.672,0.384-1.414,0.664-2.226,0.84c-0.829,0.169-1.641,0.259-2.456,0.259
	c-0.994,0-1.935-0.118-2.822-0.34c-0.892-0.227-1.668-0.571-2.342-1.033c-0.668-0.457-1.199-1.051-1.595-1.764
	c-0.383-0.716-0.576-1.565-0.576-2.552h2.23c0,0.683,0.148,1.268,0.436,1.758c0.293,0.487,0.675,0.899,1.148,1.211
	c0.475,0.316,1.02,0.548,1.656,0.702c0.629,0.154,1.278,0.225,1.942,0.225c0.531,0,1.064-0.043,1.607-0.132
	c0.533-0.093,1.023-0.247,1.453-0.468c0.432-0.217,0.783-0.515,1.047-0.897c0.264-0.375,0.397-0.853,0.397-1.447
	c0-0.556-0.165-1.009-0.487-1.359c-0.32-0.347-0.758-0.619-1.293-0.846c-0.543-0.214-1.146-0.399-1.836-0.536
	c-0.674-0.132-1.365-0.272-2.066-0.417c-0.719-0.141-1.402-0.306-2.082-0.498c-0.68-0.188-1.291-0.437-1.832-0.747
	c-0.533-0.312-0.965-0.709-1.291-1.2c-0.33-0.489-0.488-1.102-0.488-1.841c0-0.816,0.181-1.523,0.554-2.125
	c0.36-0.59,0.85-1.082,1.449-1.468c0.61-0.387,1.293-0.67,2.069-0.863c0.767-0.186,1.56-0.281,2.377-0.281
	c0.906,0,1.754,0.095,2.537,0.289c0.775,0.202,1.463,0.505,2.057,0.935c0.578,0.421,1.048,0.957,1.386,1.595
	c0.344,0.646,0.526,1.406,0.561,2.299h-2.242C135.599,56.159,135.138,55.318,134.353,54.796"/>
<path d="M21.836,0.722c4.308,0,7.68,1.058,10.109,3.17c2.429,2.113,3.641,5.006,3.641,8.682c0,2.748-0.62,5.156-1.866,7.228
	c-1.247,2.064-3.242,3.482-5.987,4.242v0.128c1.306,0.249,2.376,0.676,3.197,1.267c0.82,0.59,1.479,1.297,1.964,2.121
	c0.485,0.825,0.845,1.744,1.078,2.758c0.232,1.012,0.412,2.071,0.538,3.166c0.086,1.103,0.152,2.218,0.193,3.357
	c0.043,1.14,0.147,2.265,0.316,3.36c0.167,1.099,0.41,2.148,0.729,3.141c0.316,0.988,0.789,1.866,1.425,2.63h-6.72
	c-0.422-0.466-0.705-1.104-0.853-1.9c-0.147-0.808-0.239-1.706-0.284-2.698c-0.044-0.992-0.085-2.06-0.13-3.201
	c-0.039-1.14-0.167-2.257-0.381-3.356c-0.167-1.096-0.375-2.145-0.633-3.137c-0.251-0.995-0.652-1.86-1.202-2.597
	c-0.55-0.738-1.264-1.331-2.15-1.773c-0.892-0.448-2.074-0.669-3.553-0.669H6.565v19.331h-6.02V0.722H21.836z M23.104,21.255
	c1.27-0.206,2.377-0.62,3.333-1.235c0.947-0.613,1.705-1.436,2.278-2.471c0.57-1.033,0.853-2.378,0.853-4.024
	c0-2.282-0.633-4.14-1.899-5.576c-1.267-1.435-3.318-2.158-6.148-2.158H6.565v15.782h12.548
	C20.507,21.573,21.836,21.469,23.104,21.255"/>
<rect x="46.093" y="0.722" width="6.021" height="45.25"/>
<polygon points="103.336,5.791 103.336,0.722 139.517,0.722 139.517,5.791 124.433,5.791 124.433,45.972 118.42,45.972 
	118.42,5.791 "/>
<path fill="#C9291D" d="M58.767,23.092c0,12.751,10.34,23.09,23.091,23.09c12.753,0,23.088-10.339,23.088-23.09
	C104.946,10.336,94.611,0,81.858,0C69.107,0,58.767,10.336,58.767,23.092"/>
<path fill="#FFFFFF" d="M69.15,35.8c-3.515-3.513-5.271-8.11-5.271-12.711c0-4.601,1.756-9.197,5.271-12.711
	c0.217-0.216,0.217-0.568,0-0.784c-0.216-0.217-0.567-0.217-0.784,0c-3.73,3.727-5.597,8.614-5.596,13.495
	c-0.001,4.882,1.866,9.769,5.596,13.495c0.217,0.217,0.568,0.217,0.784,0C69.367,36.368,69.367,36.016,69.15,35.8"/>
<path fill="#FFFFFF" d="M94.567,10.378c3.516,3.514,5.271,8.11,5.272,12.711c-0.001,4.601-1.756,9.198-5.272,12.711
	c-0.217,0.216-0.217,0.568,0,0.784c0.216,0.217,0.567,0.217,0.784,0.001c3.73-3.727,5.598-8.614,5.597-13.496
	c0.001-4.881-1.867-9.768-5.597-13.495c-0.217-0.217-0.568-0.217-0.784,0C94.35,9.81,94.35,10.162,94.567,10.378"/>
<path fill="#FFFFFF" d="M70.542,11.776c-3.123,3.123-4.687,7.221-4.686,11.314c-0.001,4.092,1.563,8.19,4.686,11.314
	c0.216,0.216,0.568,0.216,0.784,0c0.217-0.217,0.217-0.568,0-0.784c-2.909-2.91-4.361-6.718-4.361-10.53
	c0-3.813,1.452-7.62,4.361-10.53c0.217-0.216,0.217-0.567,0-0.784C71.11,11.559,70.759,11.559,70.542,11.776"/>
<path fill="#FFFFFF" d="M93.17,34.404c3.126-3.124,4.691-7.221,4.69-11.314c0.001-4.093-1.564-8.191-4.69-11.314
	c-0.217-0.217-0.568-0.217-0.784,0c-0.217,0.217-0.217,0.568,0,0.784c2.911,2.91,4.365,6.717,4.365,10.53
	c0,3.812-1.454,7.619-4.365,10.53c-0.217,0.216-0.217,0.567,0,0.784C92.602,34.62,92.953,34.62,93.17,34.404"/>
<path fill="#FFFFFF" d="M73.516,31.433c-2.31-2.31-3.462-5.325-3.462-8.343c0-3.019,1.152-6.032,3.462-8.34
	c0.216-0.217,0.217-0.568,0-0.785c-0.216-0.216-0.567-0.216-0.784,0c-2.523,2.521-3.788,5.825-3.787,9.125
	c-0.001,3.299,1.264,6.604,3.787,9.127c0.216,0.217,0.568,0.217,0.784,0C73.733,32.001,73.733,31.649,73.516,31.433"/>
<path fill="#FFFFFF" d="M90.201,14.75c2.308,2.308,3.459,5.321,3.459,8.34s-1.151,6.034-3.459,8.344
	c-0.217,0.216-0.216,0.567,0,0.784c0.217,0.216,0.568,0.216,0.784-0.001c2.522-2.522,3.785-5.827,3.784-9.127
	c0.001-3.3-1.262-6.604-3.784-9.124c-0.216-0.217-0.568-0.217-0.784,0C89.984,14.182,89.984,14.533,90.201,14.75"/>
<path fill="#FFFFFF" d="M88.804,30.032c1.918-1.915,2.879-4.431,2.878-6.942c0.001-2.511-0.96-5.027-2.878-6.942
	c-0.217-0.217-0.568-0.216-0.784,0c-0.217,0.217-0.217,0.568,0,0.784c1.703,1.702,2.553,3.928,2.553,6.158
	c0,2.23-0.85,4.456-2.553,6.157c-0.217,0.217-0.217,0.568,0,0.785C88.236,30.248,88.587,30.248,88.804,30.032"/>
<path fill="#FFFFFF" d="M74.915,16.147c-1.919,1.916-2.882,4.432-2.881,6.943c0,2.512,0.962,5.029,2.881,6.947
	c0.216,0.217,0.567,0.217,0.784,0c0.216-0.217,0.216-0.568,0-0.784c-1.705-1.705-2.555-3.932-2.556-6.163
	c0.001-2.231,0.851-4.456,2.556-6.158c0.216-0.217,0.217-0.568,0-0.784C75.483,15.931,75.132,15.931,74.915,16.147"/>
<path fill="#FFFFFF" d="M77.88,27.071c-1.098-1.1-1.645-2.538-1.646-3.981c0.001-1.442,0.548-2.879,1.646-3.978
	c0.216-0.217,0.216-0.568-0.001-0.784c-0.216-0.217-0.567-0.217-0.784,0c-1.312,1.313-1.97,3.04-1.97,4.762s0.658,3.45,1.97,4.764
	c0.216,0.217,0.567,0.218,0.784,0.001C78.096,27.639,78.096,27.288,77.88,27.071"/>
<path fill="#FFFFFF" d="M85.838,19.112c1.097,1.099,1.644,2.536,1.645,3.978c-0.001,1.443-0.548,2.881-1.645,3.981
	c-0.217,0.217-0.216,0.568,0.001,0.784c0.216,0.217,0.568,0.216,0.784-0.001c1.311-1.314,1.969-3.042,1.969-4.764
	s-0.658-3.449-1.969-4.762c-0.217-0.216-0.568-0.217-0.785,0C85.622,18.544,85.621,18.895,85.838,19.112"/>
<path d="M84.433,20.517c-0.712-0.712-1.645-1.072-2.575-1.071c-0.929-0.001-1.862,0.359-2.573,1.071v-0.001
	c-0.712,0.71-1.072,1.644-1.071,2.574c-0.001,0.929,0.359,1.864,1.071,2.575v0.001c0.712,0.71,1.645,1.069,2.573,1.068
	c0.929,0.001,1.863-0.358,2.574-1.068l0.002-0.001c0.709-0.712,1.067-1.646,1.067-2.575C85.501,22.16,85.143,21.227,84.433,20.517z"
	/>
</svg>
