<?xml version="1.0" encoding="utf-8"?>
<!-- Generator: Adobe Illustrator 22.0.1, SVG Export Plug-In . SVG Version: 6.00 Build 0)  -->
<svg version="1.1" id="Layer_1" xmlns="http://www.w3.org/2000/svg" xmlns:xlink="http://www.w3.org/1999/xlink" x="0px" y="0px"
	 viewBox="0 0 373.3877 247.831" enable-background="new 0 0 373.3877 247.831" xml:space="preserve">
<path d="M31.2972,161.4836c3.5014-3.8792,7.7108-6.9932,12.6086-9.413c4.8426-2.3666,10.2064-3.7722,15.9428-4.146
	c11.3793-0.7652,21.5485,2.5268,33.7288,13.6305l9.4612-19.4843c-6.1461-5.0891-12.4037-8.4699-20.1145-11.0499
	c-7.7293-2.5978-15.8679-3.6125-24.5282-3.0425c-8.6417,0.5872-16.6317,2.7048-23.9508,6.3523
	c-7.3382,3.6652-13.6143,8.3989-18.941,14.2172c-5.2895,5.8366-9.3121,12.4738-12.0874,19.9828
	c-2.7567,7.4912-3.8554,15.2673-3.2594,23.2747c0.596,8.2564,2.8124,15.8723,6.6487,22.8655
	c3.8182,6.9932,8.7537,13.0073,14.8622,18.0254c6.109,5.0004,13.0374,8.8081,20.8225,11.4592
	c7.7665,2.6515,15.9985,3.6835,24.6402,3.114c8.6231-0.5694,16.5759-2.6688,23.8579-6.2635
	c7.2448-3.5942,13.5586-8.3279,18.9224-14.2172l-15.7374-12.9363c-7.7293,8.2209-17.2277,12.7228-28.5141,13.4702
	c-5.7364,0.4092-11.2493-0.2667-16.4825-2.0106c-5.2523-1.7084-9.8895-4.2352-13.8755-7.6159
	c-3.9669-3.363-7.2448-7.3487-9.8152-12.0464c-2.5704-4.6621-4.0603-9.733-4.4514-15.2318
	c-0.4097-5.4984,0.3164-10.7299,2.1978-15.7121C25.0768,169.74,27.7773,165.3446,31.2972,161.4836 M326.3402,130.0355h-19.2353
	v116.1411h66.2828V226.781h-47.0475V130.0355 M115.9446,129.981v69.4678c0,13.2745,4.6799,24.7336,14.0397,34.3247
	c9.6088,9.3416,20.9614,14.0574,34.1289,14.0574c13.2745,0,24.6981-4.7159,34.2715-14.0574
	c9.484-9.5018,14.2527-20.9254,14.2527-34.3247v-29.8944l-19.4133-36.1667v66.061c0,7.9541-2.9183,14.7512-8.7189,20.4097
	c-5.5694,5.7118-12.3668,8.5409-20.3919,8.5409c-8.0252,0-14.8937-2.8291-20.5877-8.5409
	c-5.5694-5.5698-8.3456-12.3491-8.3456-20.4097V129.981H115.9446 M287.9254,190.6592c4.5729-6.6017,6.8507-13.9149,6.8507-21.9401
	c0-10.5874-3.7899-19.68-11.3704-27.2422c-7.58-7.5982-16.6907-11.4592-27.3138-11.4592H206.82L217.55,149.502h38.5954
	c5.2316,0,9.7512,1.8859,13.5767,5.6763c3.7722,3.79,5.6586,8.3096,5.6586,13.5408c0,5.3563-1.8864,9.9292-5.6586,13.7192
	c-3.8259,3.79-8.3451,5.4451-13.5767,5.4451l-17.4204-0.0177l32.207,58.3286h23.8437l-23.9147-41.6911
	C277.765,201.7091,283.4767,197.1007,287.9254,190.6592 M115.9884,0.0172h19.2353v116.177h-19.2353V0.0172z M168.3885,77.4833
	h38.8088c10.5875,0,19.6623-3.7367,27.2427-11.2102c7.5799-7.7047,11.3882-16.8332,11.3882-27.4562
	c0-10.6762-3.8082-19.8225-11.3882-27.4025c-7.5804-7.5982-16.6553-11.3881-27.2427-11.3881h-58.0441v116.1593h19.2353V77.4833
	 M168.3885,19.5107h38.8088c5.2494,0,9.7513,1.8149,13.5412,5.6053c3.79,3.8077,5.6586,8.3634,5.6586,13.701
	c0,5.2671-1.8686,9.7868-5.6586,13.5767c-3.79,3.7722-8.2919,5.5166-13.5412,5.5166h-38.8088V19.5107z M96.6253,60.6419
	c4.5729-6.584,6.833-13.8972,6.833-21.9223c0-10.587-3.7727-19.6801-11.3349-27.2605C84.5257,3.8792,75.415,0,64.792,0H6.3564
	v116.1765h19.2353l-0.001-38.2554h32.9764l21.0648,38.2731h23.8265L79.5609,74.5031C86.4831,71.7096,92.1772,67.119,96.6253,60.6419
	z M64.2226,57.8839L47.5318,57.868H25.5907l0.001-38.402c0,0,39.7697,0.0177,40.0187,0.0355
	c4.7154,0.285,8.8436,2.1536,12.3491,5.6591c3.7722,3.79,5.6581,8.3096,5.6581,13.5413c0,5.3558-1.8859,9.9288-5.6581,13.7192
	C74.1513,56.211,69.4719,57.8839,64.2226,57.8839z"/>
</svg>
