<?xml version="1.0" encoding="utf-8"?>
<!-- Generator: Adobe Illustrator 22.0.1, SVG Export Plug-In . SVG Version: 6.00 Build 0)  -->
<svg version="1.1" id="Layer_1" xmlns="http://www.w3.org/2000/svg" xmlns:xlink="http://www.w3.org/1999/xlink" x="0px" y="0px"
	 viewBox="0 0 230.8383 24.9292" enable-background="new 0 0 230.8383 24.9292" xml:space="preserve">
<path d="M103.2871,7.0162c0.6973-0.8086,1.5356-1.4577,2.511-1.9621c0.9644-0.4933,2.0326-0.7863,3.175-0.8642
	c2.2662-0.1595,4.2914,0.5267,6.7171,2.8412l1.8842-4.0614c-1.224-1.0608-2.4702-1.7655-4.0058-2.3033
	c-1.5393-0.5415-3.1601-0.753-4.8848-0.6342c-1.721,0.1224-3.3122,0.5638-4.7698,1.3241c-1.4614,0.764-2.7113,1.7507-3.7721,2.9635
	c-1.0534,1.2166-1.8545,2.6001-2.4072,4.1653c-0.549,1.5615-0.7678,3.1824-0.6491,4.8515c0.1187,1.721,0.5601,3.3085,1.3241,4.7662
	c0.7604,1.4577,1.7433,2.7113,2.9598,3.7573c1.2166,1.0423,2.5964,1.836,4.1468,2.3886c1.5467,0.5527,3.1861,0.7678,4.9071,0.6491
	c1.7173-0.1187,3.3011-0.5563,4.7513-1.3056c1.4428-0.7492,2.7002-1.7359,3.7684-2.9635l-3.1341-2.6965
	c-1.5393,1.7136-3.4309,2.652-5.6786,2.8078c-1.1424,0.0853-2.2403-0.0556-3.2825-0.4191c-1.046-0.3561-1.9695-0.8828-2.7633-1.5875
	c-0.79-0.701-1.4428-1.5318-1.9547-2.511c-0.5119-0.9718-0.8086-2.0288-0.8865-3.175c-0.0816-1.1461,0.063-2.2366,0.4377-3.2751
	C102.0483,8.7372,102.5861,7.821,103.2871,7.0162"/>
<polyline points="221.0315,0.461 217.022,0.461 217.022,24.67 230.8383,24.67 230.8383,20.6271 221.0315,20.6271 221.0315,0.461 "/>
<path d="M138.7384,0.2829v14.4802c0,2.767,0.9755,5.1556,2.9265,7.1548c2.0029,1.9472,4.3693,2.9302,7.114,2.9302
	c2.767,0,5.1482-0.983,7.1437-2.9302c1.9769-1.9806,2.9709-4.3618,2.9709-7.1548V0.2829h-4.0466v14.4802
	c0,1.658-0.6083,3.0748-1.8174,4.2543c-1.1609,1.1906-2.5778,1.7803-4.2506,1.7803c-1.6728,0-3.1045-0.5897-4.2914-1.7803
	c-1.1609-1.161-1.7396-2.5741-1.7396-4.2543V0.2829H138.7384"/>
<path d="M196.557,13.0977c0.9532-1.3761,1.428-2.9005,1.428-4.5733c0-2.2069-0.79-4.1022-2.3701-5.6785
	c-1.58-1.5838-3.4791-2.3886-5.6934-2.3886H179.651l2.2366,4.0614h8.045c1.0905,0,2.0326,0.3931,2.83,1.1832
	c0.7863,0.79,1.1795,1.7321,1.1795,2.8225c0,1.1165-0.3932,2.0697-1.1795,2.8597c-0.7975,0.79-1.7395,1.135-2.83,1.135
	l-3.6312-0.0037l6.7134,12.1583h4.9701L193,15.9834C194.4391,15.401,195.6297,14.4404,196.557,13.0977"/>
<rect x="38.7774" y="0.4572" width="4.0095" height="24.2165"/>
<path d="M65.3333,16.6046h8.0895c2.2069,0,4.0985-0.7789,5.6786-2.3367c1.58-1.606,2.3738-3.5088,2.3738-5.7231
	c0-2.2254-0.7938-4.1319-2.3738-5.7119c-1.5801-1.5838-3.4717-2.3738-5.6786-2.3738h-12.099v24.2128h4.0095V16.6046 M65.3333,4.5205
	h8.0895c1.0942,0,2.0326,0.3783,2.8226,1.1684c0.79,0.7937,1.1795,1.7433,1.1795,2.8559c0,1.0979-0.3895,2.04-1.1795,2.83
	c-0.79,0.7863-1.7284,1.1499-2.8226,1.1499h-8.0895V4.5205z"/>
<path d="M18.8161,13.0941c0.9532-1.3724,1.4243-2.8968,1.4243-4.5696c0-2.2068-0.7864-4.1022-2.3627-5.6823
	c-1.5837-1.58-3.4828-2.3886-5.6971-2.3886H0V24.67h4.0095V4.5112c0,0,8.2898,0.0037,8.3417,0.0074
	c0.9829,0.0594,1.8434,0.4489,2.5741,1.1796c0.7863,0.79,1.1794,1.7321,1.1794,2.8226c0,1.1164-0.3931,2.0696-1.1794,2.8597
	c-0.7938,0.79-1.7692,1.1387-2.8634,1.1387l-3.4791-0.0033l6.6911,12.1578h4.9665l-4.9813-8.6903
	C16.702,15.4011,17.8889,14.4442,18.8161,13.0941z"/>
</svg>
