<svg xmlns="http://www.w3.org/2000/svg" viewBox="0 0 1024 1024"><circle cx="512" cy="512" r="512"/><circle fill="#FFF" cx="512" cy="512" r="467.2"/><path d="M460.8351 51.27835l5.201235-.546535 1.63438 15.55398-5.201235.546535zM413.000817 58.937421l5.115463-1.087317 3.251556 15.297484-5.115463 1.087317zM366.22547 71.780538l4.974253-1.61607 4.83276 14.875204-4.974253 1.61607zM320.967312 89.406912l4.777605-2.127041 6.360788 14.28714-4.777605 2.127041zM272.762 106.884911l7.991334-4.617769 11.266756 19.497816-7.991334 4.617769zM237.32848 138.477296l4.23107-3.074194 9.193192 12.65276-4.23107 3.074194zM199.774025 169.154255l3.886413-3.499393 10.464724 11.622084-3.886413 3.499393zM165.698795 203.723783l3.499393-3.886413 11.622084 10.464724-3.499393 3.886413zM135.331794 241.572374l3.074194-4.23107 12.65276 9.193192-3.074194 4.23107zM101.750604 280.56844l4.677192-8.107632 19.896614 11.478109-4.677192 8.107632zM87.268786 325.755978l2.127041-4.777605 14.28714 6.360788-2.127041 4.777605zM70.238802 371.200545l1.61607-4.974253 14.875204 4.83276-1.61607 4.974253zM57.829056 418.132698l1.087317-5.115463 15.297484 3.251556-1.087317 5.115463zM50.50936 466.11362l.546535-5.201235 15.55398 1.63438-.546535 5.201235zM63.95 502.27l.03 19.59-15.64-.09-.04-19.59zM50.55278 557.86068l15.55398-1.63438.546535 5.201235-15.55398 1.63438zM57.788115 605.875039l15.297484-3.251556 1.087317 5.115463-15.297484 3.251556zM70.16849 652.843297l14.875204-4.83276 1.61607 4.974253-14.875204 4.83276zM87.224905 698.327237l14.28714-6.360788 2.127041 4.777605-14.28714 6.360788zM100.857559 743.988117l20.842213-12.042221 4.707823 8.148119-20.842213 12.042221zM135.348772 782.419196l12.65276-9.193192 3.074194 4.23107-12.65276 9.193192zM165.636406 820.296142l11.577498-10.424578 3.499393 3.886413-11.577498 10.424578zM199.849199 854.701689l10.464724-11.622084 3.886413 3.499393-10.464724 11.622084zM237.368866 885.557162l9.193192-12.65276 4.23107 3.074194-9.193192 12.65276zM271.47931 919.42726l12.532493-21.713127 7.88151 4.54909-12.532493 21.713127zM320.853222 934.47385l6.360788-14.28714 4.777605 2.127041-6.360788 14.28714zM366.276581 952.119638l4.83276-14.875204 4.974253 1.61607-4.83276 14.875204zM412.995906 964.793832l3.251556-15.297484 5.115463 1.087317-3.251556 15.297484zM460.90057 972.8319l1.63438-15.55398 5.201235.546535-1.63438 15.55398zM502.09 959.94l19.73-.02-.08 26.07-19.63.02zM556.197465 957.840405l5.201235-.546535 1.63438 15.55398-5.201235.546535zM602.550496 950.677136l5.115463-1.087317 3.251556 15.297484-5.115463 1.087317zM647.994607 939.033339l4.974253-1.61607 4.83276 14.875204-4.974253 1.61607zM691.992353 922.709844l4.778128-2.127041 6.417726 14.416608-4.778128 2.127041zM732.11 902.46l7.99-4.62 10.45 18.12-7.99 4.62zM773.194 875.893904l4.23107-3.074194 9.263728 12.74984-4.23107 3.074194zM809.477375 846.95477l3.886936-3.499393 10.545016 11.712832-3.886936 3.499393zM843.117241 813.723135l3.499393-3.886413 11.622084 10.464724-3.499393 3.886413zM872.934474 777.497394l3.074194-4.23107 12.65276 9.193192-3.074194 4.23107zM897.60731 740.01863l4.6213-8.01235 19.203654 11.076132-4.6213 8.01235zM920.285005 696.682563l2.127041-4.777605 14.28714 6.360788-2.127041 4.777605zM937.313125 652.883227l1.61607-4.974253 14.875204 4.83276-1.61607 4.974253zM949.802537 607.774219l1.087317-5.115463 15.297484 3.251556-1.087317 5.115463zM957.282455 561.438815l.546535-5.201235 15.55398 1.63438-.546535 5.201235zM959.93 521.86l-.03-19.78 21.2.08.03 19.78zM957.34563 462.57864l15.55398-1.63438.546535 5.201235-15.55398 1.63438zM949.866673 416.234045l15.297484-3.251556 1.087317 5.115463-15.297484 3.251556zM937.369476 371.037466l14.875204-4.83276 1.61607 4.974253-14.875204 4.83276zM920.310424 327.39577l14.28714-6.360788 2.127041 4.777605-14.28714 6.360788zM897.7538 283.918665l21.448343-12.389954 4.636854 8.026893-21.448343 12.389954zM872.915862 246.521594l12.65276-9.193192 3.074194 4.23107-12.65276 9.193192zM843.122307 210.381245l11.622084-10.464724 3.499393 3.886413-11.622084 10.464724zM809.811714 177.446214l10.464724-11.622084 3.886413 3.499393-10.464724 11.622084zM773.197364 148.075528l9.193192-12.65276 4.23107 3.074194-9.193192 12.65276zM731.959348 121.749214l12.410034-21.505263 8.063391 4.653138-12.410034 21.505263zM691.77923 101.594304l6.360788-14.28714 4.777605 2.127041-6.360788 14.28714zM647.966231 85.022224l4.83276-14.875204 4.974253 1.61607-4.83276 14.875204zM602.638086 73.217132l3.251556-15.297484 5.115463 1.087317-3.251556 15.297484zM556.210575 66.253595l1.63438-15.55398 5.201235.546535-1.63438 15.55398zM521.82 63.91l-19.75.02.08-22.62 19.74-.03z"/><circle cx="512" cy="512" r="22.4"/><path d="M877.03 339.02h-35.54c.41-4.97 1.64-9.64 3.71-14.01 2.06-4.38 5.94-9.54 11.62-15.49 3.47-3.65 5.69-6.42 6.66-8.31.97-1.89 1.45-3.69 1.45-5.39 0-1.84-.48-3.41-1.44-4.71-.96-1.3-2.17-1.95-3.62-1.95-1.51 0-2.75.67-3.71 2.02-.96 1.34-1.6 3.72-1.93 7.12l-11.87-1.36c.47-4.72 1.32-8.4 2.56-11.05 1.24-2.65 2.99-4.68 5.25-6.09 2.26-1.41 5.39-2.12 9.38-2.12 4.17 0 7.41.67 9.73 2.02 2.32 1.34 4.14 3.41 5.47 6.19 1.33 2.79 1.99 5.91 1.99 9.36 0 3.68-.76 7.19-2.28 10.53-1.52 3.35-4.29 7.02-8.3 11.03-2.39 2.33-3.98 3.96-4.78 4.9-.81.93-1.75 2.15-2.84 3.66h18.5v13.65zM504.82 72.95v61.99h-12.06V94.33c-1.95 2.11-3.84 3.81-5.67 5.11-1.83 1.3-4.11 2.55-6.87 3.74V89.29c4.06-1.86 7.21-4.09 9.46-6.69 2.24-2.6 4-5.82 5.27-9.65h9.87zM544.89 134.27h-35.78c.41-5.02 1.65-9.74 3.73-14.16s5.98-9.64 11.7-15.65c3.49-3.69 5.73-6.49 6.7-8.4.98-1.91 1.46-3.73 1.46-5.45 0-1.86-.48-3.44-1.45-4.76-.97-1.32-2.18-1.97-3.65-1.97-1.52 0-2.77.68-3.73 2.04-.97 1.36-1.62 3.76-1.95 7.19l-11.95-1.37c.47-4.77 1.33-8.49 2.58-11.16s3.01-4.73 5.29-6.15c2.27-1.43 5.42-2.14 9.44-2.14 4.2 0 7.46.68 9.79 2.04 2.33 1.36 4.17 3.44 5.5 6.26 1.34 2.81 2.01 5.97 2.01 9.46 0 3.71-.77 7.26-2.3 10.64-1.53 3.38-4.32 7.1-8.36 11.14-2.4 2.36-4.01 4.01-4.82 4.95-.81.94-1.76 2.18-2.85 3.7h18.62v13.79zM333.24 128.02v61.99h-12.06v-40.62c-1.95 2.11-3.84 3.81-5.67 5.11-1.83 1.3-4.11 2.55-6.87 3.74v-13.89c4.06-1.86 7.21-4.09 9.46-6.69 2.24-2.6 4-5.82 5.27-9.65h9.87zM302.64 128.51v61.99h-12.06v-40.62c-1.95 2.11-3.84 3.81-5.67 5.11-1.83 1.3-4.11 2.55-6.87 3.74v-13.89c4.06-1.86 7.21-4.09 9.46-6.69 2.24-2.6 4-5.82 5.27-9.65h9.87zM154.8 277.03v61.99h-12.06V298.4c-1.95 2.11-3.84 3.81-5.67 5.11-1.83 1.3-4.11 2.55-6.87 3.74v-13.89c4.06-1.86 7.21-4.09 9.46-6.69 2.24-2.6 4-5.82 5.27-9.65h9.87zM725.18 127.01V189h-12.06v-40.62c-1.95 2.11-3.84 3.81-5.67 5.11-1.83 1.3-4.11 2.55-6.87 3.74v-13.89c4.06-1.86 7.21-4.09 9.46-6.69 2.24-2.6 4-5.82 5.27-9.65h9.87zM156.98 308.25c0-11.59 1.47-19.69 4.41-24.32 2.94-4.63 7.41-6.94 13.42-6.94 2.89 0 5.26.51 7.11 1.52 1.85 1.01 3.37 2.33 4.54 3.95s2.09 3.33 2.77 5.11c.67 1.79 1.21 3.87 1.63 6.26.8 4.55 1.2 9.29 1.2 14.22 0 11.06-1.32 19.15-3.95 24.28-2.63 5.13-7.17 7.69-13.61 7.69-3.61 0-6.53-.82-8.75-2.45-2.23-1.64-4.05-4.03-5.47-7.19-1.04-2.25-1.84-5.31-2.42-9.21-.59-3.9-.88-8.2-.88-12.92zm11.83.05c0 7.76.48 13.06 1.45 15.9s2.37 4.26 4.2 4.26c1.21 0 2.26-.6 3.15-1.81.89-1.21 1.54-3.11 1.96-5.72.42-2.6.63-6.67.63-12.18 0-8.09-.48-13.53-1.45-16.32-.97-2.79-2.41-4.18-4.35-4.18-1.97 0-3.4 1.42-4.27 4.26-.88 2.85-1.32 8.11-1.32 15.79zM913.1 498.65l-11.27-2.87c.94-5.1 2.74-9.01 5.4-11.72 2.66-2.72 6.44-4.07 11.32-4.07 5.6 0 9.65 1.48 12.15 4.45s3.75 6.69 3.75 11.18c0 2.63-.51 5.02-1.52 7.15-1.02 2.13-2.55 4.01-4.6 5.61 1.66.58 2.93 1.26 3.81 2.04 1.42 1.25 2.53 2.89 3.32 4.93.79 2.04 1.19 4.47 1.19 7.3 0 3.55-.65 6.95-1.96 10.21-1.31 3.26-3.19 5.77-5.65 7.53-2.46 1.76-5.69 2.64-9.69 2.64-3.9 0-6.98-.65-9.24-1.95-2.25-1.3-4.11-3.21-5.56-5.72-1.45-2.51-2.57-5.66-3.35-9.46l11.92-2.25c.47 3.41 1.2 5.77 2.18 7.09.99 1.32 2.24 1.98 3.76 1.98 1.6 0 2.93-.83 4-2.49 1.06-1.66 1.6-3.88 1.6-6.65 0-2.83-.51-5.02-1.54-6.57-1.03-1.55-2.42-2.33-4.17-2.33-.94 0-2.23.33-3.86 1l.61-12.1c.66.14 1.18.21 1.55.21 1.56 0 2.86-.71 3.91-2.12 1.04-1.41 1.57-3.09 1.57-5.03 0-1.86-.39-3.34-1.17-4.45-.78-1.11-1.85-1.66-3.22-1.66-1.41 0-2.55.6-3.43 1.81-.91 1.17-1.5 3.29-1.81 6.31zM867.97 734.55h-21.73v-13.93l21.73-36.67h10.39v37.46h5.39v13.14h-5.39v11.39h-10.39v-11.39zm0-13.14v-19.18l-11.48 19.18h11.48zM702.98 833.93h28.31v13.51h-19.18l-1.03 9.15c1.33-.89 2.64-1.55 3.94-2 1.3-.44 2.58-.67 3.85-.67 4.29 0 7.78 1.84 10.45 5.53 2.67 3.69 4.01 8.33 4.01 13.93 0 3.94-.69 7.72-2.06 11.35-1.38 3.63-3.33 6.4-5.86 8.32-2.53 1.91-5.76 2.87-9.71 2.87-2.83 0-5.26-.38-7.28-1.14-2.02-.76-3.74-1.9-5.15-3.41-1.42-1.51-2.56-3.22-3.44-5.13-.88-1.91-1.61-4.3-2.2-7.15l12.06-1.87c.29 2.74.98 4.83 2.05 6.26 1.07 1.43 2.35 2.14 3.84 2.14 1.66 0 3.03-.89 4.11-2.68 1.08-1.79 1.62-4.46 1.62-8 0-3.63-.55-6.29-1.64-7.98-1.09-1.69-2.55-2.54-4.36-2.54-1.15 0-2.26.4-3.34 1.21-.8.58-1.68 1.64-2.64 3.16l-10.16-2.08 3.81-32.78zM528.27 902.18l-11.86 2.08c-.31-2.36-.83-4.02-1.57-4.99-.73-.97-1.64-1.46-2.71-1.46-1.93 0-3.44 1.39-4.51 4.16-.78 2-1.36 6.26-1.73 12.81 1.43-2.05 2.89-3.57 4.39-4.55 1.5-.98 3.24-1.48 5.21-1.48 3.83 0 7.06 1.94 9.71 5.82 2.64 3.88 3.97 8.8 3.97 14.76 0 4.02-.67 7.69-2.01 11.02-1.34 3.33-3.19 5.84-5.56 7.55-2.37 1.71-5.34 2.56-8.92 2.56-4.29 0-7.74-1.04-10.34-3.12-2.6-2.08-4.67-5.4-6.22-9.96-1.55-4.56-2.33-10.6-2.33-18.11 0-11 1.63-19.06 4.89-24.18 3.26-5.11 7.78-7.67 13.56-7.67 3.42 0 6.11.56 8.1 1.68 1.98 1.12 3.63 2.77 4.93 4.93 1.32 2.16 2.31 4.88 3 8.15zm-21.96 27.15c0 3.3.59 5.88 1.76 7.75s2.61 2.81 4.3 2.81c1.56 0 2.87-.85 3.92-2.54 1.05-1.69 1.58-4.21 1.58-7.57 0-3.44-.55-6.06-1.64-7.86-1.09-1.8-2.45-2.7-4.07-2.7-1.66 0-3.05.87-4.17 2.62s-1.68 4.25-1.68 7.49zM290.54 833h34.81v11.43c-3.03 3.88-5.55 8.08-7.58 12.6-2.46 5.49-4.4 11.6-5.83 18.34-1.13 5.24-1.89 11.43-2.28 18.59h-11.89c.94-9.95 2.41-18.29 4.42-25.03 2.01-6.74 5.19-13.94 9.54-21.62h-21.2V833zM149.13 712.74c-1.87-1.41-3.24-2.99-4.1-4.74-1.17-2.38-1.76-5.13-1.76-8.23 0-5.1 1.69-9.27 5.06-12.51 2.64-2.49 6.12-3.74 10.45-3.74 5.74 0 9.98 1.55 12.72 4.66 2.74 3.1 4.11 7.01 4.11 11.72 0 2.74-.55 5.31-1.64 7.69-.82 1.77-2.11 3.49-3.86 5.16 2.32 1.58 4.06 3.67 5.2 6.28 1.14 2.61 1.71 5.49 1.71 8.65 0 3.05-.49 5.9-1.48 8.54s-2.2 4.69-3.63 6.13c-1.43 1.44-3.22 2.5-5.36 3.18-2.14.68-4.42 1.02-6.84 1.02-4.55 0-8.02-.76-10.42-2.29-2.4-1.52-4.23-3.77-5.47-6.74-1.25-2.97-1.87-6.28-1.87-9.94 0-3.58.59-6.6 1.76-9.08s2.98-4.4 5.42-5.76zm4.71 14.26c0 2.69.58 4.89 1.73 6.59 1.15 1.71 2.47 2.56 3.95 2.56 1.42 0 2.7-.87 3.84-2.6 1.13-1.73 1.7-3.93 1.7-6.59 0-2.69-.57-4.89-1.71-6.61-1.14-1.72-2.46-2.58-3.97-2.58-1.48 0-2.78.83-3.88 2.49-1.11 1.67-1.66 3.91-1.66 6.74zm.64-26.23c0 2.11.46 3.8 1.39 5.09.93 1.29 2.16 1.93 3.7 1.93 1.37 0 2.49-.64 3.37-1.91.88-1.27 1.32-2.92 1.32-4.95 0-2.11-.46-3.82-1.38-5.13-.92-1.32-2.09-1.98-3.51-1.98-1.44 0-2.62.64-3.53 1.93-.9 1.3-1.36 2.97-1.36 5.02zM87.74 528.37l11.86-2.12c.31 2.36.84 4.02 1.58 4.99.74.97 1.65 1.46 2.72 1.46 1.91 0 3.41-1.37 4.48-4.12.78-2.02 1.37-6.31 1.76-12.85-1.42 2.08-2.89 3.6-4.39 4.57-1.5.97-3.24 1.46-5.21 1.46-3.85 0-7.09-1.94-9.73-5.82-2.65-3.88-3.97-8.79-3.97-14.72 0-4.05.67-7.73 2.02-11.06s3.2-5.84 5.56-7.55c2.36-1.71 5.33-2.56 8.9-2.56 4.29 0 7.74 1.05 10.34 3.14 2.6 2.09 4.67 5.42 6.22 9.98 1.55 4.56 2.33 10.58 2.33 18.07 0 11-1.63 19.06-4.89 24.18-3.26 5.11-7.78 7.67-13.56 7.67-3.42 0-6.11-.56-8.08-1.68-1.97-1.12-3.61-2.77-4.92-4.93-1.31-2.17-2.32-4.87-3.02-8.11zm21.96-27.19c0-3.3-.59-5.88-1.76-7.75s-2.6-2.81-4.27-2.81c-1.58 0-2.89.85-3.94 2.54-1.04 1.69-1.57 4.23-1.57 7.61 0 3.41.54 6.02 1.62 7.82 1.08 1.8 2.43 2.7 4.06 2.7 1.68 0 3.07-.87 4.19-2.62 1.11-1.76 1.67-4.25 1.67-7.49zM470.14 113.74c24.64 48.19 28.53 81.26 16.53 88.93L515.57 470l-8.06 15.42c-1.84.08-5.01 1-6.34 2l-30.2-282.51c-13.64-2.24-15.52-40.31-.83-91.17zM360.67 778.88c3.33-64.54 20.67-81.21 30.98-79.85l98.03-170.83c5.15 6.2 12.15 10.81 19.57 11.31l-95.84 171.47c10.92 13.02-9.08 38.02-52.74 67.9zM514.49 483.97c7.26.78 14.38 4.66 18.99 11.98l12.73-22.32-19.15-11.35-12.57 21.69zM522.76 553.47l-14.87 1.57.24-3.16 7.13-12.6c1.49-.15 4.99-1.77 6.02-2.24l1.48 16.43z"/></svg>