<?xml version="1.0" encoding="utf-8"?>
<!-- Generator: Adobe Illustrator 22.0.1, SVG Export Plug-In . SVG Version: 6.00 Build 0)  -->
<svg version="1.1" id="Layer_1" xmlns="http://www.w3.org/2000/svg" xmlns:xlink="http://www.w3.org/1999/xlink" x="0px" y="0px"
	 viewBox="0 0 187.31 127.48" enable-background="new 0 0 187.31 127.48" xml:space="preserve">
<path fill="#0C592D" d="M28.61,54.81c-1.67-2-4.85-6.42-4.85-8.92c0-2.44,2.2-4.25,2.38-5.75c0.26-2.22-1.4-6.04-1.38-8.25
	c0.03-3.14,3.1-6.98,5.06-9.44c1.5-1.88,1.25-5.24,2.7-6.71c2.1-2.12,5.8-1.71,9.55-3.85c4.81-2.75,8.69-10,14.5-10.69
	c3.56-0.42,8.31,2.88,15.63,2.69c5.2-0.13,111.58-4.75,112.75-3.75c0.85,0.73,3.03,3.2,2.17,3.92c-1.5,1.25-62.24,8.35-82.5,9.42
	c-6.33,0.33-8.5-4.83-13-4.67c-7.42,0.27-7.17,6.9-20.83,7c-10.91,0.08-12.54-2.68-16.65-2.1c-4.44,0.63-5.77,3.21-7.56,4.31
	c-1.66,1.02-6.06,0.63-8.29,3.63c-0.98,1.32-1,4.99-1.77,6.44c-0.99,1.85-4.5,3.84-5.4,5.73c-1.04,2.19,0.46,8.9-0.29,9.71
	c-1.23,1.33-2.8,3.41-3,5.19C27.63,50.39,27.77,51.64,28.61,54.81z M43.77,75.48c1.33-7,5.3-8.69,7.04-10.88
	c0.86-1.07-0.02-3.22,0.42-5c0.5-2.04,1.97-2.57,3.5-4.17c1.81-1.88,2.33-8.17,6.5-8.25c2.71-0.05,7.08,3.39,9.75,3.46
	c1.75,0.04,2.67-1.17,4.88-1.17c6.5,0,8.13,5.33,18.42,5.08c7.37-0.18,11.25-3.42,11.25-3.42V40.48c0,0-8,3.21-10.84,3.42
	c-4.67,0.33-9.9-6.33-13.67-6.33c-2.5,0-5.94,2.02-8.33,2.25c-2.71,0.26-6.04-4.38-10.04-4.17c-5.29,0.28-8.54,4.12-10.13,7.42
	c-0.71,1.47-0.72,5.66-3.5,8.25c-2.42,2.25,0.25,7.63-3,11.25C43.84,65,41.9,67.39,43.77,75.48z M65.57,99.52
	c1.63-0.06,2.73-1.27,3.5-0.81c1.79,1.06,1.44,4.14,2.52,5.05c1.57,1.33,6.28,0.09,8.17,0.88c1.84,0.77,3.57,4.89,5.19,6.06
	c1.07,0.78,4.21,0.36,5.13,1.31c0.91,0.95,0.2,3.95,0.44,5.25c0.18,0.98,1.49,2.62,1.81,3.56c0.29,0.86,0.31,3.63,0.31,3.63h6
	c0,0-1.31-5.69-1.5-7.81c-0.09-1.05-2.19-1.75-2.44-4.25c-0.12-1.23,0.83-3.72,0.13-4.94c-0.84-1.45-3.13-1.56-5.44-3.49
	c-1.32-1.1-3.1-3.49-4.31-4.69c-1.19-1.19-5.01,0.15-6.38-0.88c-2.18-1.63-5.56-7.19-9.69-7.19c-4.25,0-13.07,6.56-13.06,9.31
	C63.38,97.33,62.51,99.63,65.57,99.52z M27.86,87.23c1.4,0.29,2.52-2.83,5.58-5.52c2.69-2.36,4.5-3.94,4.75-5.73
	c0.63-4.52-11.88-7.46-13.08-6.15c-1.05,1.13,1.33,2.63,1.25,5.65c-0.04,1.43-1.23,4.15-1.33,5.58
	C24.9,82.75,26.57,86.95,27.86,87.23z M43.5,98.64c0.75-0.53-1.51-2.66-1.13-3.5c0.39-0.84,3.28-1.39,2.94-2.25
	c-0.81-2.01-8.13-0.25-8.13,1.06C37.19,94.95,43.02,98.98,43.5,98.64z M46.94,88.52c0.84,0.18,3.06,0.56,2.94,1.81
	c-0.09,0.91-1.95,2.6-2.31,3.44c-0.64,1.47-0.63,5.63,0.49,5.63c1.06,0,0.72-4.76,1.67-6.17c1.12-1.66,2.41-2.46,2.4-4.08
	c-0.01-1.4-3.17-2.36-4.56-2.52c-1.09-0.12-4.55,0.62-4.55,1.52C43.02,89.13,45.98,88.31,46.94,88.52z M30.11,89.73
	c-0.79,0.92,3.65,4.17,4.33,3.28C35.02,92.25,30.81,88.91,30.11,89.73z M2.93,105.89c0.32-0.13,0.47-0.5,0.34-0.81
	c-1.64-4.04-1.95-11.79-2-14.09l2.15,0.09c0.36,0.04,0.64-0.25,0.65-0.6c0.02-0.34-0.25-0.64-0.6-0.65L0,89.68l0,0.66
	c0,0.42,0.09,10.24,2.11,15.21c0.1,0.24,0.33,0.39,0.58,0.39C2.77,105.93,2.85,105.92,2.93,105.89z M43.34,113.51l6.26-3.75
	c0.3-0.18,0.39-0.56,0.21-0.86s-0.56-0.39-0.86-0.21l-6.26,3.75c-0.3,0.18-0.39,0.56-0.21,0.86c0.12,0.2,0.32,0.3,0.54,0.3
	C43.13,113.6,43.24,113.57,43.34,113.51z M31.51,117.12c0.03-0.04,3.01-3.64,5.04-4.49c2.88-1.2,6.71-3.9,6.4-5.85
	c-0.09-0.59-0.56-1.32-2.29-1.47c-0.34-0.02-0.65,0.22-0.68,0.57c-0.03,0.34,0.22,0.65,0.57,0.68c0.77,0.07,1.14,0.26,1.16,0.42
	c0.12,0.78-2.42,3.16-5.65,4.51c-2.32,0.96-5.4,4.69-5.52,4.85c-0.22,0.27-0.18,0.66,0.09,0.88c0.12,0.1,0.26,0.14,0.4,0.14
	C31.21,117.35,31.38,117.27,31.51,117.12z M17.21,77.51c0.11-0.1,2.63-2.53,3.35-3.71c0.05-0.08,0.11-0.18,0.18-0.31v1.65
	c0,0.34,0.28,0.63,0.63,0.63s0.63-0.28,0.63-0.63v-4.25c0-0.29-0.2-0.54-0.48-0.61c-0.28-0.07-0.57,0.07-0.7,0.33
	c-0.27,0.55-1.03,2.08-1.3,2.53c-0.53,0.86-2.45,2.79-3.15,3.46c-0.25,0.24-0.26,0.63-0.02,0.88c0.12,0.13,0.29,0.19,0.45,0.19
	C16.93,77.68,17.09,77.63,17.21,77.51z M18.1,91.81c1.19-0.32,3.23-1.02,3.52-2.04c0.24-0.84-0.31-1.81-0.88-2.84
	c-0.32-0.57-0.92-1.64-0.77-1.91c0.18-0.22,1.31-0.25,1.79-0.26c0.46-0.01,0.9-0.02,1.23-0.1c0.61-0.13,1.92-0.92,2.18-1.08
	c0.29-0.18,0.39-0.56,0.21-0.86c-0.18-0.29-0.56-0.39-0.86-0.21c-0.65,0.4-1.52,0.86-1.79,0.92c-0.21,0.05-0.61,0.06-0.99,0.07
	c-1.1,0.03-2.35,0.06-2.83,0.87c-0.53,0.89,0.12,2.05,0.75,3.16c0.35,0.62,0.87,1.54,0.78,1.86c-0.16,0.29-1.42,0.86-2.65,1.19
	c-0.33,0.09-0.53,0.43-0.44,0.77c0.08,0.28,0.33,0.46,0.6,0.46C18,91.83,18.05,91.82,18.1,91.81z M7.15,105.31
	c0-2-0.34-3.29-0.67-4.54c-0.3-1.14-0.58-2.21-0.58-3.8c0-0.34-0.28-0.63-0.63-0.63s-0.63,0.28-0.63,0.63
	c0,1.75,0.32,2.95,0.62,4.12c0.32,1.22,0.63,2.38,0.63,4.22c0,0.34,0.28,0.63,0.63,0.63S7.15,105.65,7.15,105.31z M31.57,122.76
	c2.32-0.34,4.49-3.86,4.49-5.79c0-0.34-0.28-0.63-0.63-0.63s-0.63,0.28-0.63,0.63c0,1.41-1.81,4.31-3.42,4.55
	c-0.34,0.05-0.58,0.37-0.53,0.71c0.05,0.31,0.31,0.53,0.62,0.53C31.51,122.77,31.54,122.76,31.57,122.76z M8.57,114.55
	c0.78-0.6,1.24-1.44,1.29-2.37c0.06-1.04-0.38-2.07-1.24-2.91c-0.25-0.24-0.64-0.24-0.88,0.01c-0.24,0.25-0.24,0.64,0.01,0.88
	c0.6,0.58,0.9,1.27,0.86,1.94c-0.03,0.57-0.31,1.07-0.81,1.45c-0.27,0.21-0.32,0.6-0.11,0.88c0.12,0.16,0.31,0.24,0.5,0.24
	C8.33,114.68,8.46,114.64,8.57,114.55z"/>
</svg>
