<?xml version="1.0" encoding="utf-8"?>
<!-- Generator: Adobe Illustrator 22.0.1, SVG Export Plug-In . SVG Version: 6.00 Build 0)  -->
<svg version="1.1" id="Layer_1" xmlns="http://www.w3.org/2000/svg" xmlns:xlink="http://www.w3.org/1999/xlink" x="0px" y="0px"
	 viewBox="0 0 187.31 127.48" enable-background="new 0 0 187.31 127.48" xml:space="preserve">
<path fill="#AE0613" d="M38.21,63.48c-2.44-2.87-4.65-8.77-4.27-11.92c0.44-3.6,1.29-4.13,2.25-5.67c0.94-1.5-0.41-4.22,0.08-5.25
	c1.1-2.31,3.5-2.48,4.38-3.7c1.78-2.48-0.59-8.78,3.03-10.8c2.69-1.5,6.49-0.29,9.19-2.19c4-2.81,5.31-5.81,10.56-5.77
	c6.81,0.05,11.31,4.52,19.83,4.46c3.86-0.03,10.81-4.69,14.67-4.83c1.35-0.05,5.08,1.83,5.08,1.83l-0.58,11.33
	c0,0-4.85-3.39-6.75-3.57c-3.58-0.34-5.06,4.18-13.75,4.24C74,31.7,70.45,27.18,66.44,27.4c-2.92,0.16-5.53,2.51-8.19,4.05
	c-2.38,1.38-5.81-1.06-8.48,1.94c-3.25,3.65-1.23,10-3.18,12.22c-1.28,1.45-4.46,0.66-6.07,2.78C38.23,51.44,37.19,57.7,38.21,63.48
	z M59.82,79.06c1.05-1.07,0.25-5.01,1.54-5.75c1.89-1.08,6.16,2.79,8.33,2.58c1.41-0.13,3.59-2.78,5-2.67
	c4.33,0.33,2.21,8.66,9.04,8.88c5,0.16,7.46-3.09,12.96-2.71c2.98,0.2,5.28,2.35,5.25,4c-0.04,2.46-2.9,4.83-2.42,6.5
	c0.51,1.76,2.83,4.17,6.5,3.42V69.89c-2.67,1.54-5.42,2.5-8.92,2.46c-6.51-0.08-0.13-10.79-11.25-10.79
	c-3.76,0-10.65,5.24-14.33,4.5c-2.15-0.43-4.6-4.18-7.71-3.83c-6.71,0.75-5.83,8.29-7.06,11.39c-0.35,0.88-2.34,0.57-2.81,1.03
	c-2.33,2.29-2.45,7.54-0.83,11C53.19,77.43,58.23,80.68,59.82,79.06z M152.21,123.69l-0.52,1.03c-10.92-0.27-18.31,2.92-25.13,2.75
	c-30.96-0.76-119-0.04-119-0.04s-7.89-1.39-7.25-3.48c0.67-2.18,6.79,0.75,8.5-0.94c1.2-1.19,0.04-5.26,0.94-6.69
	c0.82-1.31,2.93-1.95,3.1-5.35c0.46-9.21-8.29-13.8-8.5-18.99c-0.05-1.25,0.55-3.68,1.21-4.74c1-1.6,0.31-5.77,3.29-5.77
	c4.96,0,8.59,8.68,8.46,12.54c-0.07,2.14-2.42,7.43-0.71,8.71c4.08,3.04,14.92-7.02,16.25-5.92c1.59,1.32-3.12,7.25-1.83,8.08
	c1.25,0.81,2.67-7.31,6.17-7.58c1.72-0.13,4.88,2.05,4.88,3.77c0,2.92-8.25,4.31-10.54,8.65c-0.57,1.09,0.75,3.73,0,4.92
	c-0.77,1.23-2.84,2.73-2.88,4.58c-0.05,2.21,1.36,5.35,5.89,4.85c8.74-0.96,33.29,1.32,35.06-2.19c2.02-4-7.71-3.24-9.83-5
	c-0.78-0.65-0.58-3.03-1.08-3.92c-0.75-1.32-1.16-1.75-4.25-3.25c2.91-0.61,7.33,0.67,9.13,2.31c0.65,0.6,0.37,1.9,2.29,3.11
	c2.29,1.45,8.78,0.23,10.54,2.29c0.96,1.12-1.93,2.99-0.71,4.96c1.83,2.96,24.58,2.06,29.5,2.06c2.3,0,5.45-5.03,7.75-4.98
	c3.04,0.07,4.46,1.12,9.67,1.42c-1.48,1.52-6.04,1.51-5.42,2.92C117.78,125.14,152.21,123.69,152.21,123.69z M9.82,84.7
	c-1.5,0-1.56,3.27-1.88,4.5c-0.33,1.31-2.08,1.27-2.25,2.78c-0.16,1.48,2.98,3.99,4.29,3.29c1.62-0.86-0.89-5.48,0.58-6.56
	c0.55-0.41,2.47,0.08,2.85-0.49C14.1,87.17,11.07,84.7,9.82,84.7z M37.35,122.12c0.74-0.2,3.16-0.95,3.08-2.43
	c-0.09-1.64-3.1-1.72-4.39-1.67c-0.34,0.01-0.61,0.3-0.6,0.65s0.31,0.61,0.65,0.6c1.39-0.05,2.93,0.2,3.1,0.49
	c0.01,0.26-1,0.85-2.15,1.16c-0.33,0.09-0.53,0.43-0.44,0.76c0.07,0.28,0.33,0.46,0.6,0.46C37.24,122.14,37.3,122.13,37.35,122.12z"
	/>
</svg>
