<?xml version="1.0" encoding="utf-8"?>
<!-- Generator: Adobe Illustrator 22.0.1, SVG Export Plug-In . SVG Version: 6.00 Build 0)  -->
<svg version="1.1" id="Layer_1" xmlns="http://www.w3.org/2000/svg" xmlns:xlink="http://www.w3.org/1999/xlink" x="0px" y="0px"
	 viewBox="0 0 55.16 24.22" enable-background="new 0 0 55.16 24.22" xml:space="preserve">
<g>
	<path d="M2.69,3.36v6.39l-2.02,2.02L0,11.1V2.35L2.69,3.36z M0,21.86v-8.75l0.67-0.67l2.02,2.02v6.39L0,21.86z M11.77,24.22H1.68
		c-0.9-0.22-1.46-0.79-1.68-1.68l2.69-1.01h8.07L11.77,24.22z M11.77,2.69H2.72L0.03,1.68C0.26,0.79,0.82,0.22,1.72,0h11.07
		L11.77,2.69z M11.44,10.76l1.35,1.34l-1.35,1.35H2.69l-1.35-1.35l1.35-1.34H11.44z M13.45,12.45l0.67,0.67v9.42
		c-0.22,0.9-0.79,1.46-1.68,1.68l-1.01-2.69v-7.06L13.45,12.45z"/>
	<path d="M20.18,8.07h-2.69V5.38h2.69V8.07z M20.18,18.84h-2.69v-2.69h2.69V18.84z"/>
	<path d="M26.24,3.36v6.39l-2.02,2.02l-0.67-0.67V2.35L26.24,3.36z M35.32,24.22H25.23c-0.9-0.22-1.46-0.79-1.68-1.68l2.69-1.01
		h8.07L35.32,24.22z M35.32,2.69h-9.05l-2.69-1.01c0.22-0.9,0.78-1.46,1.68-1.68h11.07L35.32,2.69z M34.98,10.76l1.35,1.34
		l-1.35,1.35h-8.75l-1.35-1.35l1.35-1.34H34.98z M37,12.45l0.67,0.67v9.42c-0.22,0.9-0.79,1.46-1.68,1.68l-1.01-2.69v-7.06L37,12.45
		z"/>
	<path d="M43.73,3.36v6.39l-2.02,2.02l-0.67-0.67V2.35L43.73,3.36z M52.81,24.22H42.72c-0.9-0.22-1.46-0.79-1.68-1.68l2.69-1.01
		h8.07L52.81,24.22z M51.8,2.69h-8.04l-2.69-1.01c0.22-0.9,0.78-1.46,1.68-1.68h10.06L51.8,2.69z M52.47,10.76l1.35,1.34l-1.35,1.35
		h-8.75l-1.34-1.35l1.34-1.34H52.47z M52.47,9.75V2.69L53.48,0c0.9,0.22,1.46,0.79,1.68,1.68v9.42l-0.67,0.67L52.47,9.75z
		 M54.49,12.45l0.67,0.67v9.42c-0.22,0.9-0.79,1.46-1.68,1.68l-1.01-2.69v-7.06L54.49,12.45z"/>
</g>
</svg>
