<?xml version="1.0" encoding="utf-8"?>
<!-- Generator: Adobe Illustrator 22.0.1, SVG Export Plug-In . SVG Version: 6.00 Build 0)  -->
<svg version="1.1" id="Layer_1" xmlns="http://www.w3.org/2000/svg" xmlns:xlink="http://www.w3.org/1999/xlink" x="0px" y="0px"
	 viewBox="0 0 68.7 9.082" enable-background="new 0 0 68.7 9.082" xml:space="preserve">
<g>
	<path d="M5.112,2.818C5.08,2.408,4.901,2.083,4.573,1.843s-0.755-0.36-1.282-0.36c-0.457,0-0.814,0.101-1.072,0.302
		C1.961,1.985,1.832,2.266,1.832,2.625c0,0.258,0.135,0.457,0.404,0.598c0.266,0.141,0.83,0.307,1.693,0.498
		c1.253,0.281,2.091,0.605,2.513,0.973c0.422,0.363,0.634,0.947,0.634,1.752c0,0.809-0.318,1.45-0.955,1.925
		C5.485,8.845,4.624,9.082,3.539,9.082c-1.09,0-1.941-0.252-2.554-0.756C0.371,7.822,0.043,7.105,0,6.176h1.734
		C1.754,6.633,1.92,6.984,2.232,7.23S2.98,7.6,3.539,7.6c0.574,0,1.022-0.093,1.344-0.278s0.483-0.442,0.483-0.771
		c0-0.324-0.116-0.563-0.349-0.715c-0.227-0.152-0.71-0.311-1.452-0.475c-1.366-0.305-2.28-0.635-2.74-0.99
		c-0.458-0.352-0.686-0.9-0.686-1.646c0-0.836,0.303-1.499,0.908-1.989C1.652,0.245,2.47,0,3.501,0C4.466,0,5.25,0.254,5.856,0.762
		s0.941,1.193,1.008,2.057H5.112z"/>
	<path d="M8.301,7.102H10.1v1.746H8.301V7.102z"/>
	<path d="M11.782,0.234h0.861h3.311c0.832,0,1.482,0.192,1.951,0.577s0.703,0.919,0.703,1.603c0,0.715-0.264,1.258-0.791,1.629
		c-0.086,0.063-0.182,0.119-0.287,0.17c0.203,0.078,0.383,0.172,0.539,0.281c0.551,0.379,0.826,0.932,0.826,1.658
		c0,0.879-0.272,1.548-0.817,2.007s-1.341,0.688-2.388,0.688h-3.047h-0.861V0.234z M13.504,3.609h2.057
		c0.449,0,0.785-0.084,1.008-0.252s0.334-0.422,0.334-0.762c0-0.293-0.117-0.513-0.352-0.659s-0.588-0.22-1.061-0.22h-1.986V3.609z
		 M13.504,7.354h2.186c0.469,0,0.82-0.102,1.055-0.305s0.352-0.51,0.352-0.92c0-0.359-0.12-0.628-0.36-0.806
		s-0.601-0.267-1.081-0.267h-2.15V7.354z"/>
	<path d="M22.821,0.234h1.043h1.043l3.047,8.613H27h-0.954l-0.583-1.752h-3.267l-0.564,1.752h-0.926h-0.932L22.821,0.234z
		 M22.696,5.613h2.286L23.838,2.15h0.002L22.696,5.613z"/>
	<path d="M29.114,0.234h0.896h3.445c0.82,0,1.481,0.22,1.983,0.659s0.753,1.019,0.753,1.737c0,0.828-0.279,1.434-0.838,1.816
		c-0.148,0.102-0.316,0.188-0.504,0.258c0.105,0.043,0.201,0.09,0.287,0.141c0.492,0.293,0.748,0.785,0.768,1.477l0.041,1.412
		c0.008,0.281,0.037,0.48,0.088,0.598s0.148,0.211,0.293,0.281v0.229h-1.987c-0.047-0.09-0.088-0.282-0.124-0.577
		s-0.055-0.612-0.059-0.952l-0.011-0.797c-0.008-0.387-0.122-0.662-0.343-0.826c-0.22-0.164-0.586-0.246-1.098-0.246h-1.793v3.404
		h-0.896h-0.902V0.234z M30.913,3.996h2.086c0.465,0,0.813-0.095,1.046-0.284s0.349-0.476,0.349-0.858
		c0-0.379-0.11-0.663-0.331-0.853s-0.552-0.284-0.993-0.284h-2.156V3.996z"/>
	<path d="M37.909,0.234h0.896h0.902V3.8l3.301-3.565h1.147h1.147l-3.439,3.515l3.668,5.099h-1.177h-1.176l-2.597-3.789l-0.875,0.895
		v2.895h-0.896h-0.902V0.234z"/>
	<path d="M46.446,8.848V0.234h0.896h0.902v7.084h4.283V8.08v0.768H46.446z"/>
	<path d="M53.776,8.848V0.234h6.34v0.762v0.768h-4.541v1.828h4.213V4.33v0.744h-4.213v2.244h4.74V8.08v0.768H53.776z"/>
	<path d="M64.053,5.607l-3.006-5.373h1.068h1.073l1.793,3.732l-0.003,0.006l1.682-3.738h1.02h1.02l-2.848,5.338v3.275h-0.896h-0.902
		V5.607z"/>
</g>
</svg>
