<?xml version="1.0" encoding="utf-8"?>
<!-- Generator: Adobe Illustrator 22.0.1, SVG Export Plug-In . SVG Version: 6.00 Build 0)  -->
<svg version="1.1" id="Layer_1" xmlns="http://www.w3.org/2000/svg" xmlns:xlink="http://www.w3.org/1999/xlink" x="0px" y="0px"
	 viewBox="0 0 57.991 15.426" enable-background="new 0 0 57.991 15.426" xml:space="preserve">
<g>
	<path d="M1.751,11.586c2.891,0,8.743-2.891,8.743-4.701c0-0.744-0.996-1.188-2.171-1.512c-1.439-0.396-3.07-0.611-3.07-1.667
		c0-2.015,3.874-3.622,5.625-3.682c1.091-0.036,1.823,0.228,1.811,1.151C12.665,2.603,10.578,4.15,9.307,4.15
		c-0.24,0-0.6-0.097-0.6-0.36c0-0.491,0.468-1.007,0.708-1.151c-0.18,0.204-0.251,0.456-0.251,0.624
		c0,0.072,0.072,0.072,0.144,0.072c0.492,0,2.831-1.344,2.986-2.436c0.06-0.384-0.264-0.491-0.719-0.491
		c-0.132,0-0.288,0.012-0.444,0.024C9.595,0.6,6.068,2.579,6.068,3.814c0,0.695,1.151,0.995,2.363,1.331
		c1.355,0.372,2.759,0.815,2.759,2.146c0,2.627-5.973,5.193-9.247,5.193C1.151,12.485,0,12.258,0,11.311
		c0-1.775,5.421-4.642,6.968-4.605c-3.178,0.863-6.225,3.514-6.225,4.401C0.744,11.574,1.367,11.586,1.751,11.586z"/>
	<path d="M12.875,9.967c-0.24,0.012-0.468-0.312-0.48-0.527c-0.024-0.336,0.456-0.912,0.816-0.948
		c0.24-0.012,0.744,0.229,0.827,0.456C13.63,8.959,13.007,9.955,12.875,9.967z"/>
	<path d="M24.522,4.81c2.003-0.659,5.145-2.183,5.325-3.13c0.156-0.876-1.595-1.224-2.231-1.26
		c-2.663-0.168-6.584,1.919-6.644,3.118c-0.024,0.252,0.06,0.516,0.408,0.588c0,0.012-0.12,0.061-0.264,0.061
		c-0.576,0-0.935-0.36-0.863-0.948C20.408,1.932,23.083,0,26.753,0c0.216,0,0.432,0.013,0.66,0.024
		c1.283,0.084,2.986,0.684,2.902,2.087c-0.096,1.667-3.01,2.53-3.862,2.723c0.06-0.013,0.228,0,0.408,0.012
		c1.031,0.084,2.782,0.54,2.734,1.811c-0.096,3.179-8.647,5.817-12.329,5.817c-0.24,0-0.468-0.012-0.672-0.036
		c-0.971-0.12-1.703-0.491-1.643-1.392c0.096-1.679,4.09-3.573,4.978-3.693c0.012,0.012,0,0.012-0.084,0.048
		c-1.271,0.588-4.402,2.387-4.486,3.67c-0.024,0.443,0.864,0.516,1.188,0.54c0.144,0.012,0.3,0.012,0.456,0.012
		c3.982,0,11.706-3.286,11.886-5.373c0.06-0.804-1.355-1.067-2.231-1.128c-0.156-0.012-0.3-0.012-0.456-0.012
		c-0.72,0-1.439,0.108-2.207,0.288c-0.684,0.779-2.422,2.698-2.422,3.118c0,0.036,0.048,0.06,0.096,0.06
		c0.18,0.013,0.66-0.155,0.792-0.216c-0.228,0.216-0.792,0.588-1.043,0.588c-0.204,0-0.384-0.096-0.372-0.407
		c0.024-0.996,3.142-5.35,5.217-6.837c0.216-0.144,0.396-0.203,0.492-0.191c0.684,0.06,1.104,0.791,0.899,0.636
		c-0.132-0.072-0.336,0-0.552,0.144C26.201,2.938,25.386,3.862,24.522,4.81z"/>
	<path d="M33.105,7.544c-0.359,0.36-2.698,2.375-3.202,2.375c-0.024,0-0.084-0.024-0.108-0.036
		c-0.216-0.107-0.528-0.563-0.528-0.804c0-1.307,2.747-3.981,4.954-3.981c0.456,0,1.055,0.191,1.055,0.756
		c0,0.203-0.108,0.407-0.228,0.563c-0.024,0.012-0.048,0-0.036-0.012c0.06-0.108,0.132-0.252,0.132-0.433
		c0-0.359-0.228-0.539-0.587-0.516c-0.696,0.036-1.571,0.54-2.351,1.199c-1.139,0.972-2.039,2.483-1.931,2.543
		c0.024,0.012,0.048,0.012,0.084,0c0.396-0.132,2.075-1.343,2.698-1.871c0.216-0.191,0.996-0.947,1.295-1.115
		c0.24-0.12,0.647,0.54,0.6,0.684c-0.06-0.12-1.139,1.188-1.499,1.955c-0.072,0.168-0.12,0.312-0.12,0.407
		c0.756-0.216,2.471-1.858,3.214-2.554c0.06-0.061,0.12,0.035,0.084,0.071c-1.043,1.14-2.999,3.143-3.718,3.143
		c-0.06,0-0.12-0.024-0.204-0.072c-0.168-0.096-0.396-0.348-0.396-0.563c0-0.12,0.048-0.264,0.096-0.443
		C32.554,8.396,32.877,7.844,33.105,7.544z"/>
	<path d="M37.678,5.182c0.072-0.048,0.12-0.061,0.168-0.061c0.288,0,0.744,0.468,0.744,0.768c0,0.049-0.036-0.012-0.132-0.023
		c-0.181-0.012-0.6,0.456-0.959,0.936c-0.324,0.432-0.744,0.995-0.996,1.439c0.636-0.828,1.835-1.835,2.866-2.579
		c0.468-0.336,0.827-0.54,1.079-0.563c0.132-0.012,0.624,0.504,0.54,0.6c-0.264,0.275-1.26,1.151-1.655,2.087
		c0.576-0.048,1.403-0.588,2.146-1.247c0.013-0.013,0.084-0.024,0.097,0c-0.216,0.287-1.655,1.631-2.483,1.631
		c-0.216,0-0.575-0.42-0.575-0.563c0-0.336,0.384-1.031,0.695-1.392C38.109,6.86,37.546,7.341,36.73,8.24
		c-0.612,0.659-1.332,1.715-1.067,1.835c-0.348,0.084-0.636-0.288-0.72-0.624c-0.024-0.108,0.036-0.336,0.18-0.611
		c0.3-0.684,0.84-1.512,1.319-2.195C36.862,6.033,37.378,5.421,37.678,5.182z"/>
	<path d="M41.242,6.608c0.828-1.391,1.68-2.614,2.447-3.634C44.3,2.159,44.816,1.571,45.2,1.26c0.204-0.156,0.36-0.216,0.456-0.216
		c0.695,0,1.151,0.707,0.936,0.575c-0.324-0.155-0.78,0.3-1.487,1.116c-0.132,0.155-0.72,0.911-0.72,0.911
		c-0.72,0.911-1.619,2.278-2.255,3.298c0.947-1.007,2.387-2.123,2.975-2.123c0.264,0,0.575,0.504,0.575,0.756
		c0,0.888-2.446,2.435-3.777,2.314c0.516,1.332,2.099,3.167,3.67,3.167c0.42,0,0.84-0.132,1.235-0.432
		c0.035-0.036,0.132-0.024,0.071,0.035c-0.503,0.48-1.067,0.684-1.643,0.684c-1.547,0-3.166-1.486-3.981-2.89
		c-0.288,0.539-0.948,1.463-0.408,1.522c-0.144,0.061-0.275,0.013-0.396-0.06c-0.084-0.036-0.324-0.288-0.42-0.479
		c-0.024-0.097-0.024-0.492,0.359-1.271c0.108-0.24,0.24-0.479,0.36-0.72c-0.048-0.191-0.084-0.372-0.036-0.504
		C40.787,6.753,41.014,6.656,41.242,6.608z M41.793,7.508c0.024,0.12,0.048,0.204,0.072,0.24c1.056-0.144,2.435-1.691,2.794-2.41
		C43.833,5.541,41.914,7.341,41.793,7.508z"/>
	<path d="M48.621,2.351C48.98,1.884,49.316,1.5,49.616,1.26c0.18-0.144,0.336-0.24,0.444-0.24c0.671-0.036,1.151,0.66,0.923,0.528
		c-0.42-0.192-1.199,0.936-1.727,1.583c-0.516,0.659-1.008,1.367-1.607,2.242c-1.043,1.583-1.942,3.106-2.23,3.874
		c0.516,0.061,2.507-1.895,3.214-2.542c0.072-0.061,0.12,0.035,0.084,0.071c-0.588,0.672-2.674,2.854-3.394,3.118
		c-0.156,0.061-0.276,0.013-0.384-0.048c-0.096-0.048-0.36-0.3-0.432-0.479c-0.013-0.024-0.036-0.048-0.036-0.18
		c0-0.36,0.552-1.523,2.015-3.814C47.229,4.21,47.997,3.167,48.621,2.351z"/>
	<path d="M48.25,9.163c-0.012,0.145,0.097,0.229,0.36,0.229c0.875,0,3.07-1.668,4.281-2.675c0.036-0.024,0.12,0.036,0.084,0.072
		c-0.899,0.839-3.286,3.13-4.881,3.13c-0.372,0-0.852-0.432-0.852-0.756c0-0.287,0.072-0.527,0.168-0.791
		c0.287-0.684,0.899-1.439,1.655-2.075c0.995-0.827,2.063-1.199,2.578-1.199c0.18,0,0.731,0.275,0.731,0.611
		c0,0.744-2.303,2.471-3.646,2.507C48.514,8.468,48.286,8.852,48.25,9.163z M48.885,7.976c1.044-0.119,3.035-2.063,3.106-2.519
		C50.661,5.889,49.282,7.341,48.885,7.976z"/>
	<path d="M55.917,7.952c-0.936,1.163-2.843,4.581-3.55,5.912c0.947-1.307,2.687-2.902,3.034-3.01c0.06,0,0.06,0.072,0.06,0.072
		c-1.715,1.367-3.298,3.886-3.43,4.461c-0.024,0.024-0.072,0.036-0.132,0.036c-0.48,0.048-0.66-0.611-0.624-0.827
		c0.036-0.36,0.288-0.888,0.504-1.392c0.623-1.367,2.255-4.546,3.945-6.488c-1.211,1.235-2.902,3.034-3.622,3.178
		c-0.035,0-0.071,0-0.096,0c-0.191,0-0.563-0.323-0.563-0.611c0-0.516,0.659-1.727,1.343-2.675c0.408-0.587,0.9-1.127,1.2-1.367
		c0.06-0.06,0.132-0.071,0.167-0.071c0.288,0,0.744,0.468,0.744,0.779c0,0.048-0.036-0.012-0.132-0.024
		c-0.192-0.023-0.684,0.552-1.092,1.092c-0.611,0.791-1.199,1.847-1.199,2.194c0.576-0.239,1.799-1.319,2.363-1.87
		c0.635-0.612,1.57-1.644,2.23-2.171c0.072-0.061,0.12-0.072,0.18-0.072c0.276,0,0.743,0.479,0.743,0.779
		c0,0.048-0.048-0.012-0.132-0.023c-0.096-0.013-0.251,0.096-0.419,0.275C56.936,6.656,56.444,7.305,55.917,7.952z"/>
</g>
</svg>
