<?xml version="1.0" encoding="utf-8"?>
<!-- Generator: Adobe Illustrator 22.0.1, SVG Export Plug-In . SVG Version: 6.00 Build 0)  -->
<svg version="1.1" id="Layer_1" xmlns="http://www.w3.org/2000/svg" xmlns:xlink="http://www.w3.org/1999/xlink" x="0px" y="0px"
	 viewBox="0 0 62.388 15.845" enable-background="new 0 0 62.388 15.845" xml:space="preserve">
<g>
	<path d="M0.117,15.333c-0.111-0.112-0.144-0.208-0.096-0.288c0.048-0.176,0.24-0.353,0.576-0.528
		c0.336-0.176,0.768-0.336,1.296-0.48c0.56-0.176,1.116-0.344,1.668-0.504c0.552-0.159,1.116-0.312,1.692-0.456l1.344-0.384
		l0.192-0.144c0.432-0.32,0.824-0.648,1.176-0.984s0.648-0.696,0.888-1.08c0.224-0.416,0.3-0.724,0.228-0.924
		c-0.072-0.2-0.276-0.34-0.612-0.42C8.133,9.06,7.702,9.037,7.173,9.068C6.645,9.101,6.069,9.156,5.445,9.236
		C4.87,9.284,4.289,9.337,3.706,9.393C3.121,9.449,2.613,9.461,2.182,9.429C1.957,9.413,1.749,9.381,1.558,9.333
		c-0.192-0.049-0.353-0.124-0.48-0.229C0.949,9.001,0.861,8.869,0.813,8.709s-0.04-0.353,0.024-0.576
		c0.144-0.48,0.472-0.976,0.984-1.488c0.512-0.512,1.14-1.02,1.884-1.524c0.744-0.504,1.568-0.979,2.472-1.428
		c0.904-0.447,1.812-0.855,2.724-1.224c0.864-0.352,1.74-0.664,2.628-0.937c0.888-0.271,1.704-0.468,2.448-0.588
		c0.744-0.12,1.372-0.136,1.884-0.048c0.512,0.088,0.816,0.309,0.912,0.66c0.112,0.368,0.052,0.765-0.18,1.188
		c-0.232,0.425-0.564,0.853-0.996,1.284c-0.432,0.433-0.94,0.849-1.524,1.248c-0.584,0.4-1.172,0.761-1.764,1.08
		c-0.592,0.305-1.2,0.572-1.824,0.804c-0.624,0.232-1.2,0.389-1.728,0.469c-0.528,0.08-0.968,0.063-1.32-0.048
		c-0.352-0.112-0.552-0.376-0.6-0.792C6.821,6.581,6.889,6.356,7.041,6.116c0.152-0.239,0.356-0.483,0.612-0.731
		s0.556-0.492,0.9-0.732s0.7-0.472,1.068-0.695c0.368-0.208,0.752-0.404,1.152-0.589c0.4-0.184,0.784-0.339,1.152-0.468
		c0.368-0.128,0.708-0.224,1.02-0.288c0.312-0.063,0.58-0.08,0.804-0.048c0.288,0.08,0.42,0.225,0.396,0.433
		s-0.108,0.352-0.252,0.432c-0.128,0.064-0.192,0.048-0.192-0.048c-0.033-0.048-0.041-0.092-0.024-0.132s0.04-0.076,0.072-0.108
		c0.032,0,0.06-0.032,0.084-0.096c0.024-0.064,0.012-0.112-0.036-0.145h-0.096l-0.336-0.048c-0.416,0.048-0.956,0.204-1.62,0.468
		c-0.665,0.265-1.324,0.588-1.98,0.973c-0.384,0.224-0.74,0.452-1.068,0.684c-0.328,0.232-0.608,0.456-0.84,0.672
		s-0.412,0.42-0.54,0.612C7.189,6.452,7.141,6.612,7.173,6.74c0.016,0.272,0.164,0.456,0.444,0.553
		C7.897,7.389,8.266,7.4,8.721,7.328c0.456-0.071,0.98-0.216,1.572-0.432c0.592-0.216,1.216-0.492,1.872-0.828
		c0.624-0.336,1.216-0.699,1.776-1.092c0.56-0.392,1.044-0.788,1.452-1.188c0.408-0.4,0.711-0.788,0.912-1.164
		c0.2-0.376,0.26-0.716,0.18-1.021c-0.048-0.192-0.28-0.328-0.696-0.408c-0.417-0.079-0.984-0.056-1.704,0.072
		c-0.704,0.128-1.492,0.316-2.364,0.564S9.958,2.389,9.045,2.757c-0.928,0.384-1.836,0.8-2.724,1.248
		C5.434,4.453,4.629,4.917,3.909,5.396c-0.72,0.48-1.324,0.96-1.812,1.44C1.609,7.316,1.301,7.781,1.173,8.228
		c-0.096,0.288-0.06,0.496,0.108,0.624s0.468,0.208,0.9,0.24c0.432,0.048,0.932,0.048,1.5,0C4.249,9.045,4.837,8.98,5.445,8.9
		c0.576-0.08,1.14-0.128,1.692-0.144c0.552-0.016,1.012,0.016,1.38,0.096C8.949,8.948,9.226,9.144,9.345,9.44
		c0.12,0.297,0.036,0.708-0.252,1.236c-0.304,0.496-0.736,0.992-1.296,1.488l-0.336,0.239l1.152-0.336
		c1.088-0.336,2.116-0.695,3.084-1.08c0.968-0.384,1.86-0.808,2.676-1.271c0.096-0.048,0.176-0.016,0.24,0.096
		c0.064,0.064,0.032,0.128-0.096,0.192c-1.008,0.576-2.152,1.092-3.432,1.548c-1.28,0.456-2.632,0.899-4.056,1.332l-0.336,0.048
		l-0.624,0.432c-0.624,0.368-1.292,0.692-2.004,0.973s-1.404,0.532-2.076,0.756c-0.48,0.176-0.88,0.28-1.2,0.312
		C0.469,15.436,0.246,15.413,0.117,15.333z M1.894,14.805c0.512-0.176,1.023-0.36,1.536-0.552c0.512-0.192,1.024-0.408,1.536-0.648
		l0.528-0.288L5.35,13.364c-0.561,0.177-1.12,0.336-1.68,0.48c-0.56,0.144-1.12,0.304-1.68,0.479c-0.512,0.145-0.9,0.28-1.164,0.408
		c-0.264,0.128-0.42,0.232-0.468,0.313H0.261c0.048,0.032,0.2,0.044,0.456,0.036C0.973,15.072,1.365,14.98,1.894,14.805z"/>
	<path d="M15.861,11.541c0.048-0.368,0.224-0.528,0.528-0.48c0.032,0.017,0.056,0.032,0.072,0.048
		c0.032,0.032,0.04,0.064,0.024,0.096c-0.032,0.049-0.068,0.089-0.108,0.12c-0.04,0.032-0.1,0.089-0.18,0.168
		c-0.032,0.129-0.104,0.188-0.216,0.181C15.869,11.665,15.829,11.621,15.861,11.541z"/>
	<path d="M17.206,15.812c-0.032,0-0.056-0.023-0.072-0.072c-0.016-0.048-0.008-0.087,0.024-0.12v-0.096
		c-0.272,0.032-0.572,0.061-0.9,0.084c-0.328,0.024-0.624,0.024-0.888,0c-0.264-0.023-0.472-0.075-0.624-0.156
		c-0.152-0.079-0.18-0.216-0.084-0.407c0.064-0.145,0.244-0.28,0.54-0.408c0.296-0.128,0.628-0.24,0.996-0.336
		c0.368-0.097,0.732-0.181,1.092-0.252c0.36-0.072,0.636-0.124,0.828-0.156c0.56-0.88,1.144-1.716,1.752-2.508
		c0.608-0.792,1.204-1.528,1.788-2.208c0.584-0.68,1.144-1.3,1.68-1.86c0.536-0.56,1.02-1.056,1.452-1.488l0.048-0.096l-0.336,0.145
		c-0.928,0.448-1.74,0.712-2.436,0.792c-0.696,0.08-1.248,0.035-1.656-0.133s-0.668-0.439-0.78-0.815s-0.044-0.808,0.204-1.296
		s0.68-1.008,1.296-1.561c0.616-0.552,1.452-1.083,2.508-1.596c0.752-0.368,1.58-0.656,2.484-0.864
		c0.904-0.207,1.804-0.336,2.7-0.384c0.896-0.048,1.752-0.012,2.568,0.108c0.816,0.12,1.516,0.328,2.1,0.624
		c0.584,0.296,1.008,0.684,1.272,1.164c0.264,0.479,0.3,1.048,0.108,1.703c-0.128,0.448-0.42,0.961-0.876,1.536
		c-0.456,0.576-1.08,1.156-1.872,1.74c-0.792,0.584-1.744,1.14-2.856,1.668c-1.112,0.528-2.396,0.96-3.852,1.296
		c0.256,0.129,0.424,0.297,0.504,0.504c0.08,0.208,0.096,0.44,0.048,0.696c-0.048,0.256-0.156,0.516-0.324,0.78
		c-0.168,0.264-0.372,0.5-0.612,0.708c0.72-0.176,1.456-0.364,2.208-0.564c0.752-0.199,1.488-0.408,2.208-0.624
		c0.72-0.216,1.404-0.451,2.052-0.708c0.648-0.256,1.228-0.535,1.74-0.84c0.08-0.08,0.144-0.063,0.192,0.048
		c0.032,0.032,0.044,0.072,0.036,0.12c-0.008,0.048-0.036,0.072-0.084,0.072c-1.041,0.624-2.3,1.148-3.78,1.572
		s-3.1,0.876-4.86,1.355h-0.096c-0.528,0.353-1.084,0.656-1.668,0.912s-1.176,0.48-1.776,0.672c-0.6,0.192-1.204,0.356-1.812,0.492
		c-0.608,0.136-1.208,0.26-1.8,0.372l-0.144,0.336c-0.032,0.032-0.068,0.057-0.108,0.072S17.253,15.845,17.206,15.812z
		 M17.35,15.188l0.528-0.912c-0.208,0.032-0.472,0.076-0.792,0.132c-0.32,0.057-0.632,0.129-0.936,0.217
		c-0.304,0.088-0.567,0.18-0.792,0.275c-0.224,0.097-0.344,0.192-0.36,0.288c-0.032,0.096,0.168,0.152,0.6,0.168
		c0.432,0.017,1-0.04,1.704-0.168H17.35z M23.83,13.125c-1.056,0.191-2.072,0.384-3.048,0.575c-0.976,0.192-1.8,0.353-2.472,0.48
		l-0.144,0.24l-0.384,0.672c1.056-0.224,2.104-0.488,3.144-0.792C21.965,13.997,22.934,13.604,23.83,13.125z M24.454,12.692
		c0.336-0.256,0.612-0.552,0.828-0.888c0.216-0.336,0.34-0.644,0.372-0.924c0.032-0.28-0.044-0.504-0.228-0.672
		c-0.184-0.168-0.508-0.22-0.972-0.156h-0.096c-0.096,0-0.144-0.048-0.144-0.145c-0.033-0.031-0.028-0.071,0.012-0.119
		c0.04-0.049,0.084-0.072,0.132-0.072c0.496-0.048,1.068-0.156,1.716-0.324s1.316-0.388,2.004-0.66
		c0.688-0.271,1.372-0.588,2.052-0.948c0.68-0.359,1.312-0.76,1.896-1.199c0.584-0.44,1.096-0.916,1.536-1.429
		c0.44-0.512,0.764-1.056,0.972-1.632c0.208-0.576,0.192-1.076-0.048-1.5c-0.24-0.424-0.636-0.768-1.188-1.032
		c-0.552-0.264-1.216-0.447-1.992-0.552c-0.776-0.104-1.592-0.132-2.448-0.084s-1.72,0.168-2.592,0.36
		c-0.872,0.191-1.668,0.456-2.388,0.792c-0.912,0.432-1.664,0.892-2.256,1.38c-0.592,0.488-1.024,0.952-1.296,1.392
		c-0.272,0.44-0.392,0.84-0.36,1.2c0.032,0.36,0.22,0.62,0.564,0.78c0.344,0.16,0.84,0.2,1.488,0.12s1.444-0.328,2.388-0.744
		c0.144-0.096,0.288-0.172,0.432-0.229c0.144-0.056,0.288-0.123,0.432-0.204l0.288-0.144l0.048-0.048
		c0.416-0.384,0.8-0.74,1.152-1.068c0.352-0.327,0.688-0.611,1.008-0.852c0.384-0.32,0.728-0.568,1.032-0.744
		c0.304-0.176,0.52-0.264,0.648-0.264c0.063,0,0.128,0.032,0.192,0.096c0.032,0,0.048,0.016,0.048,0.048s-0.016,0.064-0.048,0.096
		c-0.128,0.368-0.516,0.797-1.164,1.284c-0.648,0.488-1.396,0.973-2.244,1.452l-0.432,0.192L25.03,6.02
		c-0.417,0.432-0.892,0.924-1.428,1.477c-0.536,0.552-1.092,1.155-1.668,1.812s-1.16,1.364-1.752,2.124
		c-0.592,0.76-1.152,1.564-1.68,2.412c1.056-0.192,2.024-0.38,2.904-0.564c0.879-0.184,1.752-0.348,2.616-0.491L24.454,12.692z
		 M27.958,3.333c-0.096,0.096-0.2,0.184-0.312,0.264S27.43,3.765,27.333,3.86l-0.624,0.576l0.24-0.144
		c0.48-0.32,0.92-0.628,1.32-0.925c0.4-0.296,0.696-0.563,0.888-0.804c-0.144,0.048-0.312,0.141-0.504,0.276
		C28.461,2.977,28.229,3.141,27.958,3.333z"/>
	<path d="M32.421,11.492c-0.192-0.111-0.264-0.283-0.216-0.516c0.048-0.231,0.168-0.456,0.36-0.672s0.432-0.408,0.72-0.576
		c0.288-0.168,0.576-0.252,0.864-0.252c0.192,0,0.364,0.04,0.516,0.12c0.152,0.08,0.252,0.168,0.3,0.264
		c0.032,0.048,0.02,0.093-0.036,0.132c-0.057,0.04-0.108,0.045-0.156,0.013c-0.08-0.048-0.156-0.1-0.228-0.156
		c-0.072-0.056-0.204-0.084-0.396-0.084s-0.4,0.064-0.624,0.192s-0.42,0.275-0.588,0.443s-0.288,0.328-0.36,0.48
		c-0.072,0.152-0.06,0.26,0.036,0.323c0.144,0.033,0.336-0.003,0.576-0.107c0.24-0.104,0.492-0.231,0.756-0.384
		c0.264-0.152,0.52-0.316,0.768-0.492s0.46-0.328,0.636-0.456c0.16-0.128,0.268-0.145,0.324-0.048
		c0.056,0.096,0.044,0.176-0.036,0.24c-0.208,0.144-0.348,0.323-0.42,0.54c-0.072,0.216-0.052,0.348,0.06,0.396
		s0.296,0.021,0.552-0.084c0.255-0.104,0.52-0.228,0.792-0.372c0.272-0.144,0.528-0.288,0.768-0.432
		c0.24-0.145,0.392-0.24,0.456-0.288c0.096-0.048,0.172-0.024,0.228,0.072c0.056,0.096,0.044,0.168-0.036,0.216
		c-0.112,0.063-0.288,0.172-0.528,0.323c-0.24,0.152-0.5,0.301-0.78,0.444c-0.28,0.145-0.56,0.264-0.84,0.36
		c-0.28,0.096-0.508,0.12-0.684,0.071c-0.176-0.048-0.284-0.151-0.324-0.312s-0.02-0.312,0.06-0.456
		c-0.176,0.128-0.384,0.269-0.624,0.42c-0.24,0.152-0.488,0.284-0.744,0.396c-0.256,0.111-0.488,0.195-0.696,0.252
		C32.669,11.56,32.518,11.557,32.421,11.492z"/>
	<path d="M38.949,11.396c-0.128-0.192-0.12-0.42,0.024-0.684c0.144-0.265,0.328-0.517,0.552-0.756V9.908
		c-0.096-0.144-0.156-0.264-0.18-0.359c-0.024-0.097-0.06-0.216-0.108-0.36c-0.432,0.288-0.776,0.513-1.032,0.672
		c-0.256,0.16-0.456,0.288-0.6,0.384c-0.128,0-0.192-0.016-0.192-0.048c-0.032-0.048-0.04-0.092-0.024-0.132s0.04-0.075,0.072-0.107
		c0.08-0.064,0.168-0.124,0.264-0.181c0.096-0.056,0.212-0.128,0.348-0.216c0.136-0.088,0.292-0.192,0.468-0.312
		c0.176-0.12,0.392-0.269,0.648-0.444l0.048-0.145c0.048-0.255,0.168-0.499,0.36-0.731c0.192-0.231,0.408-0.432,0.648-0.601
		c0.24-0.168,0.484-0.3,0.732-0.396s0.444-0.136,0.588-0.12c0.112,0.017,0.152,0.101,0.12,0.252
		c-0.032,0.152-0.152,0.316-0.359,0.492c-0.24,0.192-0.433,0.348-0.576,0.468c-0.145,0.12-0.36,0.284-0.648,0.492l-0.576,0.432
		c0,0.257,0.128,0.561,0.384,0.912c0.064,0.129,0.064,0.192,0,0.192c-0.144,0.128-0.3,0.288-0.468,0.479
		c-0.168,0.192-0.252,0.385-0.252,0.576c0.016,0.112,0.108,0.168,0.276,0.168s0.38-0.036,0.636-0.107
		c0.256-0.072,0.54-0.164,0.853-0.276c0.312-0.111,0.619-0.236,0.924-0.372c0.304-0.136,0.588-0.264,0.852-0.384
		c0.265-0.12,0.477-0.229,0.637-0.324c0.079-0.048,0.132-0.06,0.155-0.036c0.024,0.024,0.052,0.053,0.084,0.084
		c0.032,0.032,0.04,0.072,0.024,0.12c-0.017,0.048-0.04,0.072-0.072,0.072c-0.208,0.128-0.536,0.304-0.983,0.528
		c-0.448,0.224-0.917,0.428-1.404,0.611c-0.488,0.185-0.944,0.309-1.368,0.372C39.377,11.629,39.093,11.573,38.949,11.396z
		 M41.374,7.125c-0.32,0.063-0.66,0.231-1.02,0.504c-0.36,0.271-0.604,0.552-0.732,0.84c0.16-0.145,0.312-0.268,0.456-0.372
		c0.144-0.104,0.28-0.208,0.408-0.312c0.128-0.104,0.265-0.207,0.408-0.312C41.038,7.369,41.197,7.253,41.374,7.125z"/>
	<path d="M44.326,10.772c0.063-0.128,0.123-0.243,0.18-0.348c0.056-0.104,0.116-0.216,0.18-0.336
		c0.064-0.12,0.141-0.256,0.229-0.408s0.212-0.348,0.372-0.588c-0.465,0.272-0.84,0.488-1.128,0.647
		c-0.288,0.16-0.568,0.328-0.841,0.504c-0.032,0-0.071-0.003-0.119-0.012c-0.049-0.008-0.089-0.036-0.12-0.084
		c0-0.096,0.031-0.159,0.096-0.191c0.384-0.24,0.768-0.464,1.152-0.673c0.384-0.207,0.831-0.456,1.344-0.743
		c0.368-0.528,0.712-0.964,1.032-1.309c0.319-0.344,0.615-0.636,0.888-0.876c0.528-0.464,1.016-0.8,1.464-1.008
		s0.792-0.24,1.032-0.096c0.144,0.096,0.192,0.239,0.144,0.432c-0.048,0.144-0.144,0.288-0.288,0.432
		c-0.144,0.145-0.332,0.301-0.563,0.469c-0.232,0.168-0.508,0.363-0.828,0.588c-0.336,0.191-0.696,0.404-1.08,0.636
		c-0.384,0.232-0.792,0.468-1.224,0.708L45.91,8.709c-0.192,0.288-0.345,0.523-0.456,0.708c-0.112,0.184-0.265,0.428-0.456,0.731
		c0.111-0.08,0.304-0.212,0.576-0.396c0.271-0.185,0.567-0.376,0.888-0.576s0.644-0.384,0.972-0.552s0.62-0.276,0.876-0.324
		c0.145-0.032,0.292-0.024,0.444,0.023c0.151,0.049,0.228,0.16,0.228,0.336c-0.032,0.209-0.147,0.381-0.348,0.517
		s-0.424,0.244-0.672,0.324s-0.492,0.136-0.732,0.168c-0.239,0.032-0.407,0.048-0.504,0.048c0.048,0.191,0.141,0.42,0.276,0.684
		c0.136,0.265,0.315,0.42,0.54,0.468c0.271,0.081,0.691,0.009,1.26-0.216c0.567-0.224,1.204-0.552,1.908-0.983
		c0.032-0.032,0.072-0.04,0.12-0.024c0.048,0.017,0.088,0.04,0.12,0.072c0,0.128-0.032,0.208-0.097,0.24
		c-0.352,0.224-0.7,0.424-1.044,0.6s-0.672,0.324-0.983,0.444c-0.313,0.119-0.601,0.195-0.864,0.228s-0.484,0.009-0.66-0.072
		c-0.112-0.048-0.22-0.136-0.324-0.264c-0.104-0.128-0.2-0.264-0.288-0.408c-0.088-0.144-0.164-0.292-0.228-0.443
		c-0.064-0.152-0.104-0.276-0.12-0.372c-0.384,0.224-0.724,0.456-1.02,0.695c-0.297,0.24-0.532,0.456-0.708,0.648
		c-0.097,0.096-0.181,0.104-0.252,0.023C44.29,10.957,44.278,10.868,44.326,10.772z M48.357,6.885
		c0.32-0.224,0.589-0.412,0.805-0.564c0.216-0.151,0.396-0.3,0.54-0.443c0.08-0.08,0.132-0.141,0.155-0.181
		c0.024-0.039,0.052-0.075,0.084-0.107c0-0.032-0.016-0.048-0.048-0.048c-0.096-0.08-0.332-0.052-0.708,0.084
		s-0.844,0.46-1.403,0.972c-0.192,0.176-0.393,0.368-0.601,0.576s-0.424,0.448-0.647,0.72l-0.145,0.192l0.336-0.192
		c0.288-0.176,0.572-0.352,0.853-0.528C47.857,7.188,48.118,7.028,48.357,6.885z M48.645,8.709c0.032-0.049,0.032-0.092,0-0.133
		c-0.032-0.039-0.096-0.044-0.191-0.012c-0.225,0.048-0.513,0.168-0.864,0.36c-0.353,0.191-0.64,0.359-0.864,0.504
		c0.112-0.016,0.265-0.04,0.456-0.072c0.192-0.031,0.384-0.08,0.576-0.144c0.192-0.064,0.372-0.136,0.54-0.216
		S48.582,8.82,48.645,8.709z"/>
	<path d="M50.709,11.396c-0.144-0.032-0.276-0.1-0.396-0.204c-0.12-0.104-0.181-0.243-0.181-0.42c0-0.096,0.021-0.2,0.061-0.312
		c0.039-0.112,0.084-0.232,0.132-0.36l0.096-0.096V9.957c-0.08-0.08-0.063-0.145,0.048-0.192l0.192-0.096l0.144-0.24
		c0.336-0.448,0.788-0.964,1.356-1.548c0.567-0.584,1.164-1.144,1.788-1.681c0.624-0.535,1.244-1.016,1.86-1.439
		c0.615-0.424,1.14-0.708,1.571-0.853h0.145c0.159,0,0.239,0.064,0.239,0.192c-0.032,0.176-0.168,0.4-0.407,0.672
		c-0.24,0.272-0.568,0.592-0.984,0.96c-0.208,0.177-0.521,0.433-0.936,0.769c-0.417,0.336-0.868,0.695-1.356,1.08
		c-0.488,0.384-0.984,0.76-1.488,1.128s-0.939,0.672-1.308,0.911l-0.432,0.24l-0.049,0.097c-0.096,0.144-0.176,0.284-0.239,0.42
		c-0.064,0.136-0.097,0.268-0.097,0.396c0,0.192,0.112,0.313,0.336,0.36c0.225,0.048,0.508,0.052,0.853,0.012
		c0.344-0.04,0.72-0.116,1.128-0.228c0.408-0.112,0.804-0.236,1.188-0.372c0.385-0.136,0.729-0.276,1.032-0.42
		c0.304-0.145,0.52-0.265,0.648-0.36c0.096-0.08,0.176-0.08,0.24,0c0.063,0.08,0.048,0.16-0.049,0.24
		c-0.191,0.16-0.508,0.34-0.947,0.54c-0.44,0.2-0.921,0.38-1.44,0.54c-0.521,0.16-1.032,0.275-1.536,0.348
		S51.013,11.492,50.709,11.396z M56.133,5.492c0.24-0.191,0.436-0.363,0.588-0.516c0.152-0.151,0.292-0.3,0.42-0.444l0.145-0.144
		l0.096-0.145l-0.144,0.049c-0.561,0.256-1.128,0.596-1.704,1.02s-1.128,0.868-1.656,1.332s-1.008,0.92-1.439,1.368
		c-0.433,0.448-0.784,0.824-1.057,1.128l0.336-0.24c0.288-0.191,0.648-0.452,1.08-0.78c0.433-0.327,0.868-0.659,1.309-0.995
		c0.439-0.336,0.844-0.656,1.212-0.96C55.685,5.86,55.958,5.637,56.133,5.492z"/>
	<path d="M54.501,9.957c0.097-0.24,0.256-0.448,0.48-0.624c0.224-0.177,0.447-0.288,0.672-0.336
		c0.176-0.032,0.344-0.028,0.504,0.012s0.248,0.132,0.264,0.275c0.017,0.145-0.044,0.284-0.18,0.42
		c-0.136,0.137-0.304,0.261-0.504,0.372c-0.2,0.112-0.396,0.209-0.588,0.288c-0.192,0.081-0.32,0.129-0.384,0.145
		c0.079,0.224,0.247,0.392,0.504,0.504c0.256,0.112,0.552,0.144,0.888,0.096c0.608-0.08,1.208-0.252,1.8-0.516
		c0.592-0.265,1.104-0.54,1.536-0.828c0.096-0.08,0.176-0.08,0.24,0c0.063,0.08,0.048,0.16-0.048,0.24
		c-0.225,0.16-0.492,0.323-0.805,0.492c-0.312,0.168-0.64,0.319-0.983,0.455c-0.345,0.137-0.696,0.249-1.057,0.337
		c-0.359,0.088-0.708,0.132-1.044,0.132c-0.224,0-0.432-0.036-0.624-0.108c-0.191-0.072-0.355-0.172-0.491-0.3
		c-0.137-0.128-0.225-0.28-0.265-0.456C54.378,10.381,54.406,10.181,54.501,9.957z M56.085,9.284
		c-0.288-0.063-0.567,0.021-0.84,0.252c-0.272,0.232-0.448,0.477-0.528,0.732c0.064-0.032,0.169-0.084,0.313-0.156
		c0.144-0.071,0.296-0.151,0.456-0.239s0.3-0.185,0.42-0.288C56.026,9.48,56.085,9.381,56.085,9.284z"/>
	<path d="M56.494,15.381c-0.048-0.256,0.009-0.512,0.168-0.769c0.16-0.256,0.396-0.487,0.708-0.695
		c0.313-0.208,0.672-0.385,1.08-0.528c0.408-0.145,0.844-0.231,1.309-0.264h0.191c0.304-0.592,0.54-1.057,0.708-1.393
		s0.292-0.592,0.372-0.768s0.136-0.292,0.168-0.349c0.032-0.056,0.056-0.107,0.072-0.155l-0.216,0.168
		c-0.24,0.191-0.48,0.328-0.721,0.407c-0.239,0.081-0.447,0.057-0.624-0.071v-0.048c-0.144-0.145-0.191-0.368-0.144-0.673
		l0.096-0.191l-0.527,0.336c-0.145,0.048-0.24,0.032-0.288-0.048c-0.032-0.08,0-0.145,0.096-0.192c0.176-0.08,0.355-0.18,0.54-0.3
		c0.184-0.12,0.324-0.229,0.42-0.324l0.048-0.048c0.128-0.128,0.24-0.16,0.336-0.096c0.097,0.063,0.08,0.16-0.048,0.288
		l-0.096,0.096c-0.272,0.464-0.353,0.752-0.24,0.864v0.048l0.048,0.048c0.176,0.048,0.42-0.02,0.732-0.204
		c0.312-0.184,0.579-0.42,0.804-0.708V9.765c-0.032,0.032-0.036,0.024-0.012-0.024c0.023-0.048,0.075-0.056,0.155-0.023h0.049
		c0.031,0.016,0.048,0.032,0.048,0.048s0.008,0.032,0.023,0.048c0,0.017,0.008,0.032,0.024,0.048v0.097
		c-0.177,0.527-0.393,1.067-0.648,1.619c-0.256,0.553-0.52,1.068-0.792,1.549h0.48c0.24,0.048,0.487,0.107,0.744,0.18
		c0.256,0.072,0.504,0.172,0.744,0.3c0.096,0.048,0.111,0.128,0.048,0.24c-0.064,0.064-0.129,0.08-0.192,0.048
		c-0.32-0.176-0.632-0.292-0.936-0.348c-0.305-0.057-0.616-0.1-0.937-0.133h-0.144c-0.48,0.721-1,1.284-1.561,1.692
		c-0.56,0.408-1.08,0.612-1.56,0.612c-0.128,0-0.248-0.024-0.36-0.072C56.55,15.597,56.494,15.509,56.494,15.381z M59.374,13.509
		c-0.176,0-0.336,0.021-0.479,0.06c-0.145,0.04-0.288,0.084-0.433,0.132c-0.56,0.192-0.991,0.444-1.296,0.757
		c-0.304,0.312-0.432,0.604-0.384,0.876c0,0.016,0.017,0.032,0.048,0.048c0.032,0.032,0.097,0.048,0.192,0.048
		c0.464,0,0.92-0.184,1.368-0.552c0.447-0.368,0.903-0.841,1.368-1.416L59.374,13.509z"/>
</g>
</svg>
