<?xml version="1.0" encoding="utf-8"?>
<!-- Generator: Adobe Illustrator 22.0.1, SVG Export Plug-In . SVG Version: 6.00 Build 0)  -->
<svg version="1.1" id="Layer_1" xmlns="http://www.w3.org/2000/svg" xmlns:xlink="http://www.w3.org/1999/xlink" x="0px" y="0px"
	 viewBox="0 0 879.816 156.1" enable-background="new 0 0 879.816 156.1" xml:space="preserve">
<path d="M65.291,4.606c1.353,0,2.031,0.677,2.031,2.027v8.753c0,1.351-0.678,2.027-2.031,2.027H19.024
	c-1.786,0-3.047,0.461-3.786,1.382s-1.108,2.181-1.108,3.778v3.133c0,3.441,1.6,5.159,4.802,5.159h34.631
	c5.357,0,9.388,1.367,12.098,4.1c2.708,2.733,4.063,6.649,4.063,11.747v7.371c0,4.484-1.325,8.108-3.971,10.872
	c-2.648,2.764-6.773,4.146-12.375,4.146H2.216c-1.417,0-2.124-0.675-2.124-2.027v-8.753c0-1.351,0.707-2.027,2.124-2.027H50.7
	c1.785,0,3.047-0.461,3.786-1.382c0.738-0.921,1.108-2.18,1.108-3.778v-3.777c0-3.439-1.602-5.16-4.802-5.16H16.161
	c-5.356,0-9.389-1.366-12.097-4.1C1.353,35.365,0,31.449,0,26.35v-6.726c0-4.483,1.323-8.108,3.971-10.872
	c2.646-2.764,6.772-4.146,12.375-4.146H65.291z"/>
<path d="M124.195,18.519c4.151,0,7.652,0.354,10.503,1.06c2.849,0.707,5.126,1.813,6.832,3.317c1.703,1.506,2.928,3.441,3.671,5.804
	c0.744,2.366,1.115,5.206,1.115,8.523v24.507c0,1.474-0.109,2.688-0.325,3.639c-0.218,0.953-0.59,1.705-1.115,2.257
	c-0.528,0.553-1.224,0.937-2.091,1.152c-0.868,0.216-1.984,0.322-3.346,0.322H95.197c-2.728,0-5.005-0.261-6.832-0.783
	c-1.829-0.521-3.3-1.304-4.415-2.35c-1.115-1.044-1.905-2.395-2.37-4.054c-0.465-1.658-0.697-3.624-0.697-5.897v-4.423
	c0-1.903,0.232-3.607,0.697-5.113c0.465-1.505,1.255-2.778,2.37-3.823c1.115-1.044,2.586-1.827,4.415-2.35
	c1.827-0.521,4.104-0.783,6.832-0.783h37.828v-1.751c0-1.474-0.156-2.732-0.465-3.778c-0.311-1.044-0.836-1.889-1.58-2.533
	c-0.744-0.645-1.766-1.12-3.067-1.428c-1.301-0.306-2.974-0.461-5.019-0.461H84.043c-1.116,0-1.673-0.552-1.673-1.658v-7.739
	c0-1.105,0.557-1.658,1.673-1.658H124.195z M130.329,58.965c0.99,0,1.688-0.23,2.091-0.691c0.402-0.461,0.604-1.274,0.604-2.442
	v-8.108H99.007c-1.921,0-3.269,0.384-4.043,1.152c-0.775,0.769-1.162,1.889-1.162,3.363v1.935c0,1.658,0.387,2.872,1.162,3.639
	c0.774,0.769,2.122,1.151,4.043,1.151H130.329z"/>
<path d="M228.582,18.519c4.189,0,7.707,0.354,10.554,1.06c2.845,0.707,5.144,1.813,6.895,3.317c1.75,1.506,2.986,3.441,3.706,5.804
	c0.718,2.366,1.079,5.206,1.079,8.523v29.851c0,1.351-0.689,2.027-2.064,2.027h-9.194c-1.377,0-2.064-0.675-2.064-2.027V40.354
	c0-1.903-0.126-3.516-0.376-4.837c-0.251-1.32-0.72-2.364-1.407-3.132c-0.689-0.768-1.658-1.32-2.908-1.658
	c-1.252-0.337-2.908-0.507-4.972-0.507H211.32v36.854c0,1.351-0.72,2.027-2.158,2.027h-9.194c-1.376,0-2.064-0.675-2.064-2.027
	V30.22h-15.948c-2.003,0-3.659,0.17-4.973,0.507c-1.313,0.338-2.361,0.891-3.143,1.658c-0.783,0.769-1.329,1.812-1.642,3.132
	c-0.314,1.321-0.469,2.934-0.469,4.837v26.719c0,1.351-0.689,2.027-2.064,2.027h-9.194c-1.439,0-2.158-0.675-2.158-2.027V37.222
	c0-3.317,0.376-6.157,1.126-8.523c0.751-2.364,1.985-4.299,3.706-5.804c1.719-1.504,4.001-2.61,6.848-3.317
	c2.845-0.705,6.394-1.06,10.648-1.06H228.582z"/>
<path d="M352.866,4.606c6.32,0,10.816,1.26,13.486,3.778c2.669,2.519,4.004,6.327,4.004,11.425v4.422
	c0,5.159-1.965,9.061-5.891,11.701c4.234,2.457,6.352,6.419,6.352,11.885v5.344c0,2.457-0.276,4.668-0.828,6.634
	c-0.552,1.966-1.458,3.639-2.716,5.021c-1.259,1.382-2.931,2.441-5.017,3.179c-2.087,0.737-4.665,1.105-7.732,1.105h-54.68
	c-1.841,0-2.762-0.921-2.762-2.764V7.371c0-1.843,0.921-2.764,2.762-2.764H352.866z M311.165,31.417h37.742
	c3.068,0,5.155-0.461,6.26-1.382c1.104-0.921,1.657-2.271,1.657-4.054v-3.132c0-1.903-0.538-3.301-1.611-4.192
	c-1.075-0.889-2.807-1.336-5.201-1.336h-37.65c-0.798,0-1.197,0.4-1.197,1.198V31.417z M311.165,41.46v13.728
	c0,0.799,0.398,1.198,1.197,1.198h37.742c2.454,0,4.203-0.445,5.247-1.336c1.043-0.889,1.565-2.318,1.565-4.284v-3.501
	c0-1.903-0.568-3.347-1.703-4.33c-1.136-0.982-3.238-1.474-6.306-1.474H311.165z"/>
<path d="M396.46,0c1.404,0,2.108,0.677,2.108,2.027v65.047c0,1.351-0.704,2.027-2.108,2.027h-9.392
	c-1.406,0-2.108-0.675-2.108-2.027V2.027c0-1.35,0.702-2.027,2.108-2.027H396.46z"/>
<path d="M453.288,18.519c4.28,0,7.89,0.354,10.829,1.06c2.938,0.707,5.287,1.813,7.044,3.317c1.757,1.506,3.018,3.441,3.785,5.804
	c0.766,2.366,1.149,5.206,1.149,8.523v24.507c0,1.474-0.112,2.688-0.335,3.639c-0.224,0.953-0.607,1.705-1.149,2.257
	c-0.544,0.553-1.262,0.937-2.156,1.152c-0.896,0.216-2.045,0.322-3.45,0.322h-45.617c-2.813,0-5.16-0.261-7.044-0.783
	c-1.885-0.521-3.402-1.304-4.552-2.35c-1.15-1.044-1.964-2.395-2.444-4.054c-0.479-1.658-0.718-3.624-0.718-5.897v-4.423
	c0-1.903,0.239-3.607,0.718-5.113c0.48-1.505,1.294-2.778,2.444-3.823c1.15-1.044,2.667-1.827,4.552-2.35
	c1.883-0.521,4.231-0.783,7.044-0.783h39.004v-1.751c0-1.474-0.16-2.732-0.48-3.778c-0.32-1.044-0.862-1.889-1.629-2.533
	c-0.766-0.645-1.82-1.12-3.161-1.428c-1.342-0.306-3.067-0.461-5.176-0.461h-40.058c-1.15,0-1.725-0.552-1.725-1.658v-7.739
	c0-1.105,0.575-1.658,1.725-1.658H453.288z M459.613,58.965c1.022,0,1.74-0.23,2.156-0.691c0.415-0.461,0.623-1.274,0.623-2.442
	v-8.108h-35.075c-1.981,0-3.371,0.384-4.169,1.152c-0.799,0.769-1.198,1.889-1.198,3.363v1.935c0,1.658,0.399,2.872,1.198,3.639
	c0.798,0.769,2.188,1.151,4.169,1.151H459.613z"/>
<path d="M545.383,18.519c1.15,0,1.726,0.553,1.726,1.658v7.739c0,1.106-0.575,1.658-1.726,1.658h-37.184
	c-2.108,0-3.833,0.17-5.175,0.507c-1.341,0.338-2.396,0.891-3.162,1.658c-0.766,0.769-1.31,1.813-1.629,3.133
	c-0.321,1.321-0.48,2.934-0.48,4.837v8.2c0,1.967,0.159,3.593,0.48,4.883c0.319,1.29,0.863,2.319,1.629,3.087
	c0.766,0.769,1.821,1.321,3.162,1.658c1.341,0.338,3.067,0.507,5.175,0.507h37.184c1.15,0,1.726,0.553,1.726,1.658v7.739
	c0,1.105-0.575,1.658-1.726,1.658h-38.525c-4.345,0-7.971-0.337-10.877-1.014c-2.908-0.675-5.24-1.765-6.996-3.27
	c-1.759-1.505-3.019-3.439-3.785-5.805c-0.767-2.364-1.15-5.205-1.15-8.522V37.222c0-3.317,0.383-6.157,1.15-8.523
	c0.766-2.364,2.027-4.299,3.785-5.804c1.756-1.504,4.088-2.61,6.996-3.317c2.906-0.705,6.532-1.06,10.877-1.06H545.383z"/>
<path d="M567.711,0c1.404,0,2.108,0.677,2.108,2.027v36.485h17.633c1.342,0,2.475-0.046,3.402-0.138
	c0.925-0.092,1.74-0.276,2.444-0.552c0.702-0.276,1.325-0.659,1.869-1.152c0.542-0.491,1.133-1.166,1.772-2.027l10.733-14.557
	c0.384-0.553,0.782-0.952,1.198-1.198c0.415-0.245,0.974-0.369,1.678-0.369h10.829c0.702,0,1.15,0.262,1.341,0.783
	c0.192,0.523,0.063,1.091-0.383,1.705l-12.362,16.307c-1.917,2.519-3.898,4.485-5.942,5.897c2.619,1.414,4.887,3.379,6.804,5.897
	l13.609,17.69c0.383,0.492,0.462,0.999,0.239,1.52c-0.224,0.523-0.687,0.783-1.389,0.783h-10.733c-0.832,0-1.438-0.092-1.821-0.276
	s-0.766-0.521-1.15-1.014l-11.692-15.478c-1.149-1.474-2.381-2.487-3.689-3.04c-1.31-0.552-3.276-0.829-5.894-0.829h-18.496v18.611
	c0,1.351-0.704,2.027-2.108,2.027h-9.392c-1.471,0-2.204-0.675-2.204-2.027V2.027c0-1.35,0.733-2.027,2.204-2.027H567.711z"/>
<path d="M643.898,0c1.405,0,2.109,0.677,2.109,2.027v65.047c0,1.351-0.704,2.027-2.109,2.027h-9.392
	c-1.406,0-2.109-0.675-2.109-2.027V2.027c0-1.35,0.703-2.027,2.109-2.027H643.898z"/>
<path d="M707.243,18.519c4.28,0,7.89,0.354,10.829,1.06c2.938,0.707,5.286,1.813,7.043,3.317c1.757,1.506,3.019,3.441,3.786,5.804
	c0.766,2.366,1.149,5.206,1.149,8.523v13.267c0,3.317-0.383,6.159-1.149,8.522c-0.767,2.366-2.03,4.3-3.786,5.805
	c-1.758,1.506-4.105,2.596-7.043,3.27c-2.939,0.677-6.549,1.014-10.829,1.014h-27.121c-4.346,0-7.971-0.337-10.878-1.014
	c-2.908-0.675-5.239-1.765-6.996-3.27c-1.758-1.505-3.019-3.439-3.785-5.805c-0.766-2.364-1.15-5.205-1.15-8.522V37.222
	c0-3.317,0.384-6.157,1.15-8.523c0.766-2.364,2.028-4.299,3.785-5.804c1.757-1.504,4.088-2.61,6.996-3.317
	c2.907-0.705,6.532-1.06,10.878-1.06H707.243z M671.017,48.186c0,1.966,0.159,3.593,0.479,4.883c0.32,1.29,0.878,2.319,1.678,3.087
	c0.797,0.769,1.869,1.321,3.21,1.658c1.341,0.338,3.034,0.507,5.079,0.507h24.438c2.108,0,3.833-0.169,5.175-0.507
	c1.341-0.337,2.411-0.89,3.21-1.658c0.798-0.768,1.357-1.797,1.677-3.087c0.32-1.29,0.48-2.917,0.48-4.883v-8.753
	c0-1.903-0.16-3.501-0.48-4.791c-0.32-1.29-0.878-2.334-1.677-3.133c-0.799-0.798-1.869-1.351-3.21-1.658
	c-1.341-0.306-3.067-0.461-5.175-0.461h-24.438c-2.045,0-3.738,0.154-5.079,0.461c-1.341,0.308-2.413,0.861-3.21,1.658
	c-0.799,0.799-1.358,1.843-1.678,3.133c-0.32,1.29-0.479,2.888-0.479,4.791V48.186z"/>
<path d="M800.391,18.519c1.15,0,1.726,0.553,1.726,1.658v7.739c0,1.106-0.575,1.658-1.726,1.658h-37.183
	c-2.108,0-3.833,0.17-5.175,0.507c-1.341,0.338-2.396,0.891-3.162,1.658c-0.766,0.769-1.31,1.813-1.629,3.133
	c-0.321,1.321-0.48,2.934-0.48,4.837v8.2c0,1.967,0.159,3.593,0.48,4.883c0.319,1.29,0.863,2.319,1.629,3.087
	c0.766,0.769,1.821,1.321,3.162,1.658c1.341,0.338,3.067,0.507,5.175,0.507h37.183c1.15,0,1.726,0.553,1.726,1.658v7.739
	c0,1.105-0.575,1.658-1.726,1.658h-38.525c-4.345,0-7.971-0.337-10.877-1.014c-2.908-0.675-5.24-1.765-6.996-3.27
	c-1.759-1.505-3.019-3.439-3.785-5.805c-0.767-2.364-1.15-5.205-1.15-8.522V37.222c0-3.317,0.383-6.157,1.15-8.523
	c0.766-2.364,2.027-4.299,3.785-5.804c1.756-1.504,4.088-2.61,6.996-3.317c2.906-0.705,6.532-1.06,10.877-1.06H800.391z"/>
<path d="M822.72,0c1.404,0,2.108,0.677,2.108,2.027v36.485h17.633c1.342,0,2.475-0.046,3.402-0.138
	c0.925-0.092,1.74-0.276,2.444-0.552c0.702-0.276,1.325-0.659,1.869-1.152c0.542-0.491,1.133-1.166,1.772-2.027l10.733-14.557
	c0.384-0.553,0.782-0.952,1.198-1.198c0.415-0.245,0.974-0.369,1.678-0.369h10.829c0.702,0,1.15,0.262,1.341,0.783
	c0.192,0.523,0.063,1.091-0.383,1.705l-12.362,16.307c-1.917,2.519-3.898,4.485-5.942,5.897c2.619,1.414,4.887,3.379,6.804,5.897
	l13.609,17.69c0.383,0.492,0.462,0.999,0.239,1.52c-0.224,0.523-0.687,0.783-1.389,0.783H867.57c-0.832,0-1.438-0.092-1.821-0.276
	s-0.766-0.521-1.15-1.014l-11.692-15.478c-1.149-1.474-2.381-2.487-3.689-3.04c-1.31-0.552-3.276-0.829-5.894-0.829h-18.496v18.611
	c0,1.351-0.704,2.027-2.108,2.027h-9.392c-1.471,0-2.204-0.675-2.204-2.027V2.027c0-1.35,0.733-2.027,2.204-2.027H822.72z"/>
<path d="M293.285,100.156c1.213,0,2.262,0.08,3.146,0.24c0.882,0.161,1.656,0.467,2.318,0.919c0.662,0.454,1.255,1.066,1.78,1.839
	c0.524,0.772,1.062,1.798,1.614,3.076l17.221,38.362c0.22,0.479,0.607,0.719,1.159,0.719h0.993c0.551,0,0.938-0.24,1.159-0.719
	l17.221-38.362c0.551-1.279,1.089-2.304,1.614-3.076c0.524-0.772,1.118-1.385,1.78-1.839c0.662-0.452,1.421-0.759,2.277-0.919
	c0.855-0.16,1.89-0.24,3.104-0.24h8.859c2.869,0,4.802,0.627,5.795,1.879c0.994,1.252,1.49,3.396,1.49,6.433v45.874
	c0,1.173-0.635,1.758-1.904,1.758h-8.445c-1.215,0-1.821-0.585-1.821-1.758v-41.719c0-0.532-0.221-0.799-0.662-0.799h-0.746
	c-0.552,0-0.911,0.213-1.076,0.639l-16.724,35.804c-0.662,1.438-1.339,2.651-2.028,3.636c-0.691,0.986-1.436,1.798-2.236,2.438
	c-0.801,0.639-1.712,1.093-2.732,1.359c-1.022,0.267-2.222,0.399-3.602,0.399h-3.974c-1.38,0-2.581-0.132-3.601-0.399
	c-1.022-0.266-1.933-0.72-2.732-1.359c-0.801-0.64-1.546-1.451-2.236-2.438c-0.691-0.986-1.366-2.198-2.028-3.636l-16.724-35.804
	c-0.165-0.426-0.525-0.639-1.076-0.639h-0.745c-0.442,0-0.662,0.267-0.662,0.799v41.719c0,1.173-0.608,1.758-1.822,1.758h-8.445
	c-1.27,0-1.904-0.585-1.904-1.758v-45.874c0-3.037,0.497-5.181,1.491-6.433c0.993-1.251,2.952-1.879,5.878-1.879H293.285z"/>
<path d="M420.099,112.224c2.794,0,5.108,0.227,6.944,0.679c1.835,0.454,3.287,1.199,4.356,2.238c1.068,1.039,1.821,2.398,2.26,4.076
	c0.438,1.679,0.657,3.716,0.657,6.114v7.592c0,1.706-0.384,2.891-1.15,3.557c-0.768,0.667-1.946,0.999-3.534,0.999h-41.5v1.918
	c0,2.505,0.616,4.315,1.849,5.434c1.233,1.119,3.629,1.678,7.191,1.678h34.268c0.986,0,1.479,0.48,1.479,1.438v6.714
	c0,0.959-0.493,1.438-1.479,1.438h-35.419c-3.727,0-6.835-0.292-9.328-0.879c-2.493-0.585-4.493-1.531-5.999-2.837
	c-1.508-1.305-2.589-2.983-3.246-5.035c-0.657-2.05-0.986-4.516-0.986-7.393v-11.508c0-2.877,0.329-5.341,0.986-7.393
	c0.657-2.05,1.738-3.729,3.246-5.035c1.506-1.305,3.505-2.264,5.999-2.877c2.492-0.613,5.601-0.919,9.328-0.919H420.099z
	 M388.132,130.365h33.282c0.931,0,1.397-0.452,1.397-1.359v-3.356c0-1.651-0.357-2.824-1.068-3.517
	c-0.713-0.692-2.028-1.039-3.944-1.039h-20.627c-3.562,0-5.958,0.547-7.191,1.638c-1.233,1.093-1.849,2.918-1.849,5.475V130.365z"/>
<path d="M494.757,112.224V97.918c0-1.171,0.595-1.758,1.79-1.758h7.977c1.194,0,1.791,0.587,1.791,1.758v42.038
	c0,2.877-0.325,5.343-0.976,7.393c-0.651,2.052-1.723,3.73-3.215,5.035c-1.494,1.306-3.489,2.252-5.984,2.837
	c-2.496,0.587-5.563,0.879-9.198,0.879h-22.794c-3.692,0-6.772-0.292-9.24-0.879c-2.471-0.585-4.451-1.531-5.943-2.837
	c-1.493-1.305-2.564-2.983-3.216-5.035c-0.651-2.05-0.976-4.516-0.976-7.393v-11.508c0-2.877,0.325-5.341,0.976-7.393
	c0.652-2.05,1.723-3.729,3.216-5.035c1.492-1.305,3.472-2.264,5.943-2.877c2.468-0.613,5.548-0.919,9.24-0.919H494.757z
	 M485.802,146.509c1.791,0,3.256-0.146,4.396-0.439c1.139-0.292,2.048-0.771,2.727-1.438c0.678-0.666,1.152-1.558,1.424-2.677
	c0.272-1.119,0.409-2.53,0.409-4.236v-15.903h-29.469c-1.738,0-3.174,0.147-4.315,0.439c-1.139,0.293-2.048,0.773-2.727,1.438
	c-0.678,0.667-1.154,1.572-1.424,2.717c-0.272,1.146-0.407,2.546-0.407,4.196v7.112c0,1.706,0.135,3.117,0.407,4.236
	c0.271,1.119,0.746,2.011,1.424,2.677c0.678,0.667,1.588,1.146,2.727,1.438c1.141,0.293,2.577,0.439,4.315,0.439H485.802z"/>
<path d="M530.035,96c1.248,0,1.874,0.587,1.874,1.758v7.592c0,1.227-0.626,1.839-1.874,1.839h-8.347c-1.308,0-1.96-0.612-1.96-1.839
	v-7.592c0-1.171,0.652-1.758,1.96-1.758H530.035z M530.035,112.224c1.248,0,1.874,0.613,1.874,1.838v40.28
	c0,1.173-0.626,1.758-1.874,1.758h-8.347c-1.251,0-1.875-0.585-1.875-1.758v-40.28c0-1.225,0.624-1.838,1.875-1.838H530.035z"/>
<path d="M580.543,112.224c3.804,0,7.013,0.307,9.626,0.919c2.61,0.613,4.698,1.572,6.26,2.877c1.561,1.306,2.683,2.985,3.365,5.035
	c0.681,2.052,1.022,4.516,1.022,7.393v21.259c0,1.279-0.101,2.331-0.299,3.156c-0.199,0.827-0.54,1.479-1.021,1.958
	c-0.484,0.479-1.122,0.813-1.917,0.999c-0.796,0.187-1.817,0.28-3.066,0.28h-40.545c-2.499,0-4.586-0.226-6.26-0.68
	c-1.676-0.452-3.023-1.131-4.046-2.037c-1.022-0.906-1.747-2.078-2.172-3.517c-0.426-1.438-0.638-3.143-0.638-5.115v-3.836
	c0-1.651,0.213-3.129,0.638-4.436c0.426-1.305,1.15-2.409,2.172-3.316c1.022-0.906,2.37-1.585,4.046-2.038
	c1.674-0.452,3.761-0.68,6.26-0.68h34.668v-1.518c0-1.279-0.143-2.37-0.427-3.276c-0.284-0.906-0.766-1.639-1.448-2.198
	c-0.681-0.56-1.618-0.972-2.811-1.239c-1.193-0.266-2.726-0.399-4.599-0.399h-35.604c-1.022,0-1.533-0.48-1.533-1.439v-6.713
	c0-0.959,0.511-1.438,1.533-1.438H580.543z M586.165,147.308c0.907,0,1.547-0.2,1.916-0.6c0.369-0.399,0.554-1.104,0.554-2.117
	v-7.033H557.46c-1.76,0-2.995,0.334-3.705,0.999c-0.71,0.667-1.064,1.638-1.064,2.917v1.679c0,1.438,0.354,2.491,1.064,3.156
	c0.71,0.667,1.945,0.999,3.705,0.999H586.165z"/>
</svg>
