<?xml version="1.0" encoding="utf-8"?>
<!-- Generator: Adobe Illustrator 22.0.1, SVG Export Plug-In . SVG Version: 6.00 Build 0)  -->
<svg version="1.1" id="Layer_1" xmlns="http://www.w3.org/2000/svg" xmlns:xlink="http://www.w3.org/1999/xlink" x="0px" y="0px"
	 viewBox="0 0 610.711 283.398" enable-background="new 0 0 610.711 283.398" xml:space="preserve">
<linearGradient id="SVGID_1_" gradientUnits="userSpaceOnUse" x1="123.3868" y1="216.1298" x2="544.5309" y2="78.2785">
	<stop  offset="0" style="stop-color:#323232"/>
	<stop  offset="0.8" style="stop-color:#000000"/>
</linearGradient>
<path fill="url(#SVGID_1_)" d="M421.121,0c-2.091,0.74-4.153,1.578-6.278,2.207c-35.737,10.568-71.315,21.622-106.197,34.799
	c-0.494,0.187-1.018,0.295-1.934,0.555C307.03,36.357,317.921,0,317.921,0S386.721,0,421.121,0z M610.711,0c0,0-65.43,0-97.91,0
	c0.33,0.445,0.659,0.891,0.991,1.334c3.532,4.719,7.494,9.181,10.509,14.209c6.753,11.261,10.429,23.795,13.914,36.358
	c0.078,0.282,0.01,0.604,0.01,1.044c-22.582,7.035-45.095,14.048-67.556,21.045c-1.692-3.924-3.164-7.542-4.801-11.083
	c-2.042-4.416-5.56-7.283-10.409-7.327c-4.82-0.044-9.812,0.197-14.446,1.401c-30.617,7.956-60.829,17.261-90.493,28.279
	c-4.106,1.525-8.142,3.343-11.995,5.424c-6.185,3.342-8.686,8.751-7.518,15.672c0.41,2.429,1.025,4.859,1.865,7.173
	c3.261,8.985,9.388,12.522,18.746,10.496c10.922-2.365,21.83-4.837,32.642-7.656c32.679-8.522,65.279-17.349,97.972-25.817
	c12.841-3.326,25.841-6.077,39.261-5.5c14.24,0.613,26.163,6.055,35.302,17.154c5.809,7.056,9.61,15.241,13.066,23.609
	c0.311,0.754,0.691,1.48,1.245,2.657L610.711,0z M106.022,184.813c-35.505,0-70.582,0-106.022,0c0.284-1.169,0.443-2,0.689-2.805
	c5.577-18.26,11.148-36.522,16.754-54.772c3.447-11.221,12.404-17.783,24.196-17.785c28.075-0.007,56.151-0.007,84.226-0.009
	c1.03,0,2.059,0,3.207,0c2.643-8.628,5.24-17.091,7.829-25.557c4.975-16.27,9.908-32.554,14.932-48.808
	c3.232-10.455,12.215-17.487,23.098-17.84c8.07-0.262,16.154-0.112,24.232-0.115c28.795-0.011,57.59-0.009,86.386-0.011
	c0.859,0,1.718,0,2.963,0c-0.961,3.165-1.806,5.964-2.66,8.762c-2.517,8.249-4.989,16.512-7.607,24.728
	c-0.406,1.275-1.251,2.626-2.284,3.454c-14.234,11.4-19.211,26.584-18.236,44.22c0.206,3.73,0.616,7.449,0.957,11.466
	c-43.137,0-86.13,0-129.36,0c-7.609,24.889-15.158,49.583-22.834,74.692c28.804,0,57.155,0,85.84,0
	c-0.261,1.114-0.393,1.871-0.616,2.6c-4.111,13.441-8.199,26.89-12.365,40.314c-3.436,11.071-12.9,17.998-24.432,17.998
	c-21.356,0.001-42.713-0.003-64.069-0.004c-0.948,0-1.895,0-3.291,0C93.734,225.086,99.82,205.138,106.022,184.813z
	 M231.528,283.127c0,0,26.318-86.094,39.642-129.679c0.59,1.111,0.964,1.734,1.262,2.39c3.52,7.745,7.598,15.153,13.189,21.628
	c9.328,10.803,21.2,15.756,35.414,15.509c13.472-0.234,26.419-3.374,39.336-6.76c31.744-8.322,63.492-16.631,95.231-24.973
	c9.881-2.597,19.703-5.429,29.626-7.848c3.208-0.782,6.65-0.74,9.99-0.803c3.684-0.069,6.723,1.612,8.804,4.579
	c4.751,6.772,6.817,14.402,6.316,22.63c-0.235,3.86-2.035,7.271-5.492,9.086c-5.346,2.807-10.741,5.776-16.462,7.572
	c-32.828,10.306-65.745,20.33-98.676,30.304c-3.154,0.955-6.603,1.088-9.934,1.276c-5.95,0.337-10.688-2.192-13.685-7.245
	c-2.307-3.888-3.986-8.151-5.909-12.263c-0.364-0.778-0.563-1.633-0.94-2.754c-22.695,7.067-45.218,14.08-68.116,21.21
	c6.681,19.882,11.176,40.503,26.851,56.141C289.206,283.127,231.528,283.127,231.528,283.127z M411.163,283.388
	c40.99-12.326,81.762-25.01,122.368-39.7c-0.496,0.969-0.746,1.591-1.105,2.141c-13.886,21.246-33.329,33.729-58.559,36.993
	c-3.159,0.409-6.372,0.537-9.561,0.546c-16.793,0.051-33.587,0.021-50.38,0.02C413.004,283.388,412.084,283.388,411.163,283.388z"/>
</svg>
