<?xml version="1.0" encoding="utf-8"?>
<!-- Generator: Adobe Illustrator 22.0.1, SVG Export Plug-In . SVG Version: 6.00 Build 0)  -->
<svg version="1.1" id="Layer_1" xmlns="http://www.w3.org/2000/svg" xmlns:xlink="http://www.w3.org/1999/xlink" x="0px" y="0px"
	 viewBox="0 0 41.275 83.853" enable-background="new 0 0 41.275 83.853" xml:space="preserve">
<path fill="#F26322" d="M15.775,57.4c0.001,0.003-4.826,8.706-6.924,26.453l32.424-17.471c-1.508-9.308-6.19-18.609-10.18-25.673
	c-0.146-0.26-0.203-0.36-0.221-0.401c1.772-0.595,4.527-2.252,5.758-6.505c0.333-1.083,0.585-1.638,0.739-1.915
	c0.071-0.126-0.011-0.283-0.156-0.295c-0.478-0.041-1.574-0.127-2.527,0.143c-0.954,0.27-3.367,1.555-4.771,3.775
	c-0.045,0.071-0.154,0.036-0.147-0.049c0.324-3.597,4.397-5.473,4.59-10.924c-0.301-4.823-4.413-8.153-6.166-9.361
	c-0.051-0.035-0.16-0.032-0.208,0.006c-0.048,0.039-0.066,0.105-0.042,0.162c1.085,2.709,1.689,6.978-0.04,8.754
	c-0.222,0.229-0.587,0.239-0.824,0.025c-4.005-3.614-11.506-12.374-6.315-23.829c0.009-0.019,0.013-0.039,0.013-0.059
	c0-0.112-0.057-0.197-0.153-0.227c-0.393-0.121-1.536,0.987-2.551,2.47c-1.112,1.624-2.997,5.046-3.122,9.708
	c-0.132,4.968,1.743,9.938,5.578,14.776c0.184,0.214,3.015,3.353,2.222,4.891c-0.103,0.2-0.295,0.341-0.513,0.394
	c-1.063,0.257-2.479-0.12-4.44-1.617c-5.122-3.91-1.772,2.48-0.766,4.292c-1.193,0.424-2.155,1.037-2.731,1.9
	c-3.305,4.95-11.434,11.562-13.623,13.375C0.271,50.465,0,50.9251,0,51.45c0,0.437,0.191,0.828,0.491,1.101l-0.005,0.018
	l5.061,4.222l0.006-0.004c0.274,0.294,0.66,0.48,1.093,0.48c0.126,0,0.247-0.021,0.365-0.05l0.008,0.01l5.236-1.905
	c4.616-1.193,10.51-1.3856,13.777,2.0054c0.059,0.063-0.1271,0.5951-0.2059,0.5606C23.239,56.757,18.13,56.3001,15.775,57.4z"/>
</svg>
