<?xml version="1.0" encoding="utf-8"?>
<!-- Generator: Adobe Illustrator 22.0.1, SVG Export Plug-In . SVG Version: 6.00 Build 0)  -->
<svg version="1.1" id="Layer_1" xmlns="http://www.w3.org/2000/svg" xmlns:xlink="http://www.w3.org/1999/xlink" x="0px" y="0px"
	 viewBox="0 0 175.4425 37.012" enable-background="new 0 0 175.4425 37.012" xml:space="preserve">
<path fill="#F26322" d="M19.86,17.5129c2.4194,0.7774,4.233,1.895,5.405,3.283c1.193,1.413,1.798,3.256,1.798,5.477
	c0,3.168-1.357,5.775-4.034,7.748c-2.62,1.931-6.201,2.91-10.645,2.91c-2.54,0-4.791-0.228-6.689-0.676
	c-1.885-0.446-3.677-1.019-5.324-1.706L0,34.3939v-8.258h1.669l0.165,0.132c1.549,1.237,3.31,2.202,5.233,2.866
	c1.923,0.665,3.794,1.003,5.56,1.003c0.452,0,1.059-0.04,1.805-0.118c0.716-0.076,1.299-0.2,1.733-0.369
	c0.514-0.21,0.947-0.477,1.276-0.789c0.263-0.249,0.39-0.637,0.39-1.186c0-0.482-0.206-0.894-0.631-1.257
	c-0.486-0.415-1.231-0.744-2.214-0.978c-1.12-0.267-2.324-0.521-3.577-0.756c-1.284-0.24-2.51-0.551-3.642-0.924
	c-2.646-0.858-4.592-2.056-5.779-3.56c-1.198-1.518-1.806-3.417-1.806-5.645c0-3.011,1.361-5.497,4.044-7.389
	c2.618-1.846,6.011-2.782,10.087-2.782c2.02,0,4.045,0.199,6.018,0.591c1.97,0.391,3.706,0.891,5.158,1.485l0.375,0.154v7.976
	h-1.649l-0.165-0.132c-1.162-0.93-2.613-1.7209-4.312-2.353c-2.286-0.849-4.701-1.142-7.059-0.82
	c-0.591,0.081-1.167,0.235-1.711,0.458c-0.45,0.173-0.831,0.431-1.145,0.773c-0.275,0.301-0.409,0.628-0.409,1.003
	c0,0.603,0.208,1.03,0.656,1.343c0.37,0.259,1.232,0.6559,3.229,1.071c1.111,0.23,2.178,0.454,3.201,0.671
	C17.538,16.8239,18.668,17.1299,19.86,17.5129z M43.0507,11.7363c-1.779,0-3.521,0.233-5.178,0.692
	c-1.68,0.466-3.186,1.213-4.48,2.223c-1.341,1.069-2.4,2.4351-3.148,4.057c-0.744,1.617-1.121,3.554-1.121,5.758
	c0,2.092,0.352,3.951,1.046,5.524c0.7,1.584,1.7,2.917,2.975,3.962c1.276,1.036,2.793,1.811,4.51,2.305
	c1.691,0.488,3.582,0.734,5.62,0.734c1.558,0,3.006-0.166,4.302-0.495c1.284-0.326,2.533-0.773,3.713-1.329l0.348-0.163v-7.223
	h-1.882l-0.175,0.1671c-0.29,0.277-0.609,0.563-0.947,0.849c-0.323,0.275-0.704,0.542-1.13,0.792
	c-0.441,0.258-1.012,0.487-1.696,0.682c-0.68,0.194-1.46,0.292-2.319,0.292c-1.817,0-3.169-0.496-4.134-1.517
	c-0.96-1.016-1.447-2.557-1.447-4.58c0-1.97,0.481-3.537,1.429-4.657c0.936-1.107,2.254-1.644,4.031-1.644
	c0.815,0,1.535,0.09,2.139,0.269c0.619,0.184,1.195,0.417,1.712,0.695c0.544,0.291,1.006,0.591,1.374,0.89
	c0.394,0.321,0.731,0.602,1.012,0.843l0.17,0.146h1.863v-7.221l-0.345-0.164c-1.167-0.556-2.44-1.0132-3.785-1.36
	C46.1507,11.9133,44.6507,11.7363,43.0507,11.7363z M93.6428,12.6024c-0.931,0.422-1.899,0.986-2.888,1.684v-1.92h-8.541v24.0161
	h8.541v-16.422c0.644-0.362,1.249-0.6331,1.802-0.808c0.621-0.197,1.24-0.297,1.838-0.297c0.845,0,1.497,0.099,1.939,0.294
	c0.399,0.176,0.693,0.448,0.898,0.827c0.133,0.249,0.313,0.764,0.42,1.799c0.092,0.893,0.139,1.798,0.139,2.69v11.9171h8.541v-15.45
	c0-3.006-0.757-5.314-2.249-6.859c-1.498-1.551-3.586-2.337-6.205-2.337C96.3388,11.7364,94.9138,12.0284,93.6428,12.6024z
	 M138.9773,36.383h8.541V12.366h-8.541V36.383z M65.98,11.7158c-1.769,0-3.561,0.143-5.325,0.424
	c-1.779,0.284-3.03,0.524-3.826,0.734l-0.451,0.118v6.574h1.387l0.106-0.04c0.579-0.224,1.558-0.551,2.907-0.972
	c1.302-0.406,2.54-0.613,3.679-0.613c1.904,0,3.349,0.224,4.293,0.665c0.69,0.323,1.068,0.841,1.168,1.616l-0.014,5.772v3.531
	c-0.467,0.363-1.003,0.664-1.598,0.899c-0.676,0.268-1.35,0.404-2.001,0.404c-1.07,0-1.602-0.091-1.86-0.168
	c-0.348-0.103-0.648-0.262-0.902-0.482c-0.226-0.188-0.365-0.372-0.412-0.545c-0.067-0.244-0.101-0.579-0.101-0.994
	c0-0.569,0.14-1.005,0.428-1.332c0.31-0.352,0.782-0.63,1.405-0.826c0.544-0.172,1.366-0.328,2.438-0.463
	c0.04-0.038,0.08-0.077,0.12-0.117l2.497-5.679c-1.945,0.122-3.853,0.302-5.681,0.537c-2.054,0.264-3.806,0.717-5.205,1.347
	c-1.462,0.652-2.612,1.56-3.417,2.702c-0.815,1.156-1.227,2.6461-1.227,4.4301c0,2.252,0.804,4.131,2.389,5.585
	c1.571,1.439,3.54,2.169,5.852,2.169c0.955,0,1.849-0.082,2.658-0.245c0.813-0.165,1.608-0.421,2.373-0.768
	c0.545-0.258,1.131-0.612,1.74-1.051c0.176-0.127,0.344-0.249,0.504-0.3651v1.82h8.46v-16.121c0-2.933-1.021-5.126-3.033-6.519
	C73.361,12.3788,70.302,11.7158,65.98,11.7158z M163.0585,11.7158c-1.769,0-3.561,0.143-5.325,0.424
	c-1.779,0.284-3.03,0.524-3.826,0.734l-0.451,0.118v6.574h1.387l0.106-0.04c0.579-0.224,1.558-0.551,2.907-0.972
	c1.302-0.406,2.54-0.613,3.679-0.613c1.904,0,3.349,0.224,4.293,0.665c0.69,0.323,1.068,0.841,1.168,1.616l-0.014,5.772v3.531
	c-0.467,0.363-1.003,0.664-1.598,0.899c-0.676,0.268-1.35,0.404-2.001,0.404c-1.07,0-1.602-0.091-1.86-0.168
	c-0.348-0.103-0.648-0.262-0.902-0.482c-0.226-0.188-0.365-0.372-0.413-0.545c-0.066-0.244-0.1-0.579-0.1-0.994
	c0-0.569,0.14-1.005,0.428-1.332c0.31-0.352,0.782-0.63,1.405-0.826c0.544-0.172,1.366-0.328,2.438-0.463
	c0.04-0.038,0.08-0.077,0.12-0.117l2.497-5.679c-1.945,0.122-3.853,0.302-5.681,0.537c-2.054,0.264-3.806,0.717-5.205,1.347
	c-1.462,0.652-2.612,1.56-3.417,2.702c-0.815,1.156-1.228,2.6461-1.228,4.4301c0,2.252,0.805,4.131,2.39,5.585
	c1.571,1.439,3.539,2.169,5.852,2.169c0.955,0,1.849-0.082,2.658-0.245c0.813-0.165,1.608-0.421,2.373-0.768
	c0.545-0.258,1.131-0.612,1.74-1.051c0.176-0.127,0.344-0.249,0.504-0.3651v1.82h8.46v-16.121c0-2.933-1.021-5.126-3.033-6.519
	C170.4395,12.3788,167.3805,11.7158,163.0585,11.7158z M134.1119,0v36.383h-8.54v-1.748c-0.936,0.683-1.834,1.218-2.68,1.594
	c-1.167,0.52-2.527,0.783-4.038,0.783c-2.956,0-5.355-1.158-7.131-3.442c-1.74-2.237-2.622-5.273-2.622-9.023
	c0-2,0.296-3.804,0.88-5.361c0.585-1.561,1.4-2.921,2.421-4.043c0.974-1.075,2.17-1.921,3.556-2.515
	c1.382-0.591,2.786-0.8911,4.173-0.8911c1.424,0,2.618,0.157,3.549,0.467c0.617,0.207,1.251,0.453,1.892,0.735v-8.337L134.1119,0z
	 M125.5719,18.707c-0.358-0.126-0.732-0.222-1.116-0.286c-0.532-0.089-1.024-0.134-1.461-0.134c-1.741,0-2.998,0.514-3.844,1.573
	c-0.867,1.084-1.306,2.638-1.306,4.616c0,2.092,0.347,3.607,1.031,4.506c0.655,0.859,1.71,1.277,3.228,1.277
	c0.592,0,1.236-0.116,1.914-0.345c0.574-0.193,1.095-0.44,1.554-0.734V18.707z"/>
</svg>
