<?xml version="1.0" encoding="utf-8"?>
<!-- Generator: Adobe Illustrator 22.0.1, SVG Export Plug-In . SVG Version: 6.00 Build 0)  -->
<svg version="1.1" id="Layer_1" xmlns="http://www.w3.org/2000/svg" xmlns:xlink="http://www.w3.org/1999/xlink" x="0px" y="0px"
	 viewBox="0 0 150.4288 53.6878" enable-background="new 0 0 150.4288 53.6878" xml:space="preserve">
<g>
	<path d="M140.0207,23.5923h-7.574v4.392l8.005-0.007c1.3051,0,1.861-0.517,1.861-1.733v-0.917
		C142.3127,23.8603,141.5407,23.5923,140.0207,23.5923z"/>
	<path d="M99.4696,23.5923h-7.574v4.392l8.006-0.007c1.304,0,1.86-0.517,1.86-1.733v-0.917
		C101.7617,23.8603,100.9906,23.5923,99.4696,23.5923z"/>
	<path d="M0,0v53.6878h150.4288V0H0z M31.663,15.5827c3.412-3.766,8.085-7.003,13.653-9.132c14.345-5.486,29.162-1.561,33.092,8.771
		c0.07,0.1819,0.136,0.365,0.197,0.549c0.0049,0.021,0.009,0.043,0.009,0.066c0,0.195-0.147,0.353-0.336,0.374h-9.8
		c-0.141,0-0.259-0.082-0.323-0.197c-0.001,0-0.002,0-0.003,0.001c-4.2-7.309-15.927-9.405-26.987-5.16
		c-3.677,1.4109-6.629,3.206-8.929,5.228c-0.069,0.062-0.158,0.101-0.256,0.101c-0.213,0-0.386-0.174-0.386-0.387
		C31.5939,15.7157,31.621,15.6437,31.663,15.5827z M52.39,29.3914v6.146h-4.529v-15.475h4.529v5.838h8.371v-5.838h4.528v15.475
		h-4.528v-6.146H52.39z M28.1845,24.7662c0.009-2.715,0.335-4.797,6.226-4.797h4.875c3.641,0,5.829,0.89,5.92,4.591h0.003v0.736
		h-4.265v-0.736h0.004v-0.16c0-0.555-0.454-1.006-1.015-1.006h-6.577c-0.559,0-1.011,0.451-1.011,1.006v6.783
		c0,0.556,0.452,1.006,1.011,1.006h6.577c0.561,0,1.015-0.45,1.015-1.006v-0.164h-0.004v-0.737h4.265v0.737h-0.003
		c-0.09,3.705-2.2791,4.596-5.92,4.596h-4.875c-5.869,0-6.214-2.067-6.226-4.766V24.7662z M18.4763,35.6174h-6.551
		c-4.165,0-6.756-0.905-6.787-5.394h4.513v0.393c0,0.822,0.674,1.492,1.502,1.492h8.58c0.828,0,1.501-0.67,1.501-1.492v-0.936
		c0-0.822-0.673-1.491-1.501-1.491c-0.056,0-0.243-0.003-0.527-0.008c-0.883-0.014-2.721-0.044-4.436-0.044h-0.493
		c-8.67,0-9.181-0.5699-9.181-5.042c0-3.465,0.481-5.568,7.143-5.568h5.825c4.022,0,6.568,0.836,6.767,4.945h-4.495
		c-0.03-0.798-0.692-1.438-1.501-1.438h-7.853c-0.828,0-1.502,0.669-1.502,1.492v0.632c0,0.8231,0.674,1.493,1.502,1.493
		l5.455,0.003c8.613,0,9.18,0.677,9.18,5.392C25.6172,33.5124,25.1373,35.6174,18.4763,35.6174z M70.9349,39.8795
		c-3.111,2.8-6.959,5.198-11.383,6.89c-14.039,5.371-28.524,1.725-32.824-8.114c-0.015-0.05-0.024-0.102-0.014-0.157
		c0.037-0.21,0.234-0.348,0.439-0.311c0.125,0.022,0.225,0.106,0.276,0.213l0.001-0.002c3.884,7.817,16.216,10.227,27.066,4.689
		c2.199-1.122,4.203-2.367,5.99-3.701c0,0.002,0.001,0.006,0.002,0.008c0.066-0.058,0.151-0.097,0.247-0.097
		c0.009,0,0.017,0.004,0.027,0.006c0.001-0.002,0.001-0.005,0.001-0.006h9.869c0.2079,0,0.377,0.169,0.377,0.376
		C71.0089,39.7535,70.9769,39.8205,70.9349,39.8795z M84.9357,35.5323h-16.362v-15.47h15.634v3.49h-11.278v2.765h9.131v2.965h-9.131
		v2.76h12.006V35.5323z M106.2356,25.4813c0,1.866-0.3149,3.742-2.603,4.28l-0.07,0.017v0.042l0.075,0.014
		c1.386,0.252,2.5339,0.742,2.5339,3.275v2.423h-4.6039v-1.727c0-1.703-0.519-2.278-2.055-2.278h-7.617v4.0049h-4.263v-15.47h14.016
		c4.043,0,4.587,2.304,4.587,4.557V25.4813z M125.4072,35.5323h-16.362v-15.47h15.634v3.49h-11.277v2.765h9.13v2.965h-9.13v2.76
		h12.005V35.5323z M146.7867,25.4813c0,1.866-0.316,3.742-2.603,4.28l-0.07,0.017v0.042l0.075,0.014
		c1.386,0.252,2.534,0.742,2.534,3.275v2.423h-4.605v-1.727c0-1.703-0.518-2.278-2.054-2.278h-7.617v4.0049h-4.264v-15.47h14.017
		c4.042,0,4.587,2.304,4.587,4.557V25.4813z"/>
</g>
</svg>
