<?xml version="1.0" encoding="utf-8"?>
<!-- Generator: Adobe Illustrator 22.0.1, SVG Export Plug-In . SVG Version: 6.00 Build 0)  -->
<svg version="1.1" id="Layer_1" xmlns="http://www.w3.org/2000/svg" xmlns:xlink="http://www.w3.org/1999/xlink" x="0px" y="0px"
	 viewBox="0 0 133.3228 143.9579" enable-background="new 0 0 133.3228 143.9579" xml:space="preserve">
<linearGradient id="SVGID_1_" gradientUnits="userSpaceOnUse" x1="-14.6344" y1="115.4654" x2="135.0147" y2="35.8956">
	<stop  offset="0.109" style="stop-color:#F9D000"/>
	<stop  offset="0.1338" style="stop-color:#F4C703"/>
	<stop  offset="0.1743" style="stop-color:#E6AE0C"/>
	<stop  offset="0.2006" style="stop-color:#DB9B13"/>
	<stop  offset="0.2981" style="stop-color:#F7CC47"/>
	<stop  offset="0.3171" style="stop-color:#F8D25F"/>
	<stop  offset="0.357" style="stop-color:#FBE19B"/>
	<stop  offset="0.3913" style="stop-color:#FEEFD3"/>
	<stop  offset="0.4108" style="stop-color:#F8E3AA"/>
	<stop  offset="0.4438" style="stop-color:#EFCF6B"/>
	<stop  offset="0.4717" style="stop-color:#E8C13C"/>
	<stop  offset="0.4931" style="stop-color:#E4B820"/>
	<stop  offset="0.5053" style="stop-color:#E2B515"/>
	<stop  offset="0.5448" style="stop-color:#E0AE14"/>
	<stop  offset="0.6017" style="stop-color:#DB9B13"/>
	<stop  offset="0.6727" style="stop-color:#FDDD93"/>
	<stop  offset="0.7309" style="stop-color:#E6AF12"/>
</linearGradient>
<path fill="url(#SVGID_1_)" d="M115.0756,53.5349h0.217c0.587-0.433,0.928-1.237,1.268-1.9171
	C115.4775,51.4939,115.0756,52.6999,115.0756,53.5349 M125.4665,36.1859c-2.412,3.495-4.021,7.33-5.35,11.257
	c0.556,0.649,1.608,1.33,1.484,2.381c-0.092,0.68-0.371,1.237-0.896,1.7c-0.805,0.465-1.887,0.712-2.815,0.372
	c-0.402,0.278-0.556,0.742-0.835,1.113c-0.401,0.897-1.546,1.608-1.484,2.598c0.618,1.268,1.917,1.515,3.124,1.577
	c1.391-0.093,2.504-1.423,3.185-2.536c2.999-5.442,4.793-11.782,3.8651-18.462H125.4665z M114.1785,35.5679
	c-0.588,0.062-0.959,0.711-1.329,1.113c-2.258,4.082-3.743,8.504-4.763,13.081c0.248,0.433,0.588,0,0.959,0.155
	c3.185-0.186,5.133-3.433,5.937-6.092c0.65-2.444,2.041-5.536,0.526-7.948C115.1685,35.5679,114.6425,35.5679,114.1785,35.5679z
	 M74.9045,35.8769c-2.134,3.185-3.401,6.711-4.515,10.329c-0.371,1.082-0.835,2.226-0.742,3.402
	c0.371-0.031,0.835,0.062,1.175-0.062c3.866-0.433,5.288-4.701,6.247-7.731c0.309-1.918,1.391-4.423-0.093-6.154
	C76.4195,35.1659,75.3685,35.2579,74.9045,35.8769z M87.6765,28.5169c0.618,2.0099-0.588,3.618-0.897,5.443
	c1.515,1.33,3.587,2.257,4.02,4.36c0.34,4.639-1.639,8.473-2.814,12.555c-0.463,1.547-1.113,3-1.268,4.67
	c0,0.495,0.217,0.928,0.588,1.175c0.68,0.34,1.423-0.186,2.01-0.587c2.134-1.949,3.494-4.361,4.144-6.958
	c1.422-4.732,2.752-9.494,4.237-14.195l0.154-0.154c1.392,0.061,2.845,0.216,4.237,0.154c-1.639,6.8651-3.958,13.421-5.567,20.256
	c-0.062,0.618,0.0309,1.175,0.434,1.577c0.68,0.402,1.391,0.186,2.009-0.217c2.042-1.948,2.907-4.36,4.144-6.617
	c1.113-6.031,3.34-12.865,9.649-15.432c1.515-0.402,3.216-0.093,4.175,1.175c1.886,2.165,1.391,5.443,0.741,8.01
	c-0.989,3.494-4.267,6.742-7.947,7.143c-0.742,0.093-1.701,0-2.072,0.649c-0.093,1.702-0.9901,4.392,1.021,5.351
	c2.103,0.927,4.082-0.526,5.412-2.01c-0.402-2.072-0.062-4.391,1.484-5.938c0.928-0.866,2.01-1.391,3.278-1.484
	c0.557-0.309,0.433-1.052,0.6801-1.608c1.639-4.206,3.309-8.412,6.309-12.03c1.855-1.639,4.113-3.371,6.68-2.227
	c0.494,0.371,0.68,0.867,0.804,1.392c0.031,0.897-0.495,1.67-1.268,2.103c-2.227,1.484-4.144-4.175-5.35-0.155
	c-0.186,1.175,0.34,2.103,0.371,3.185c0.464,1.207,0.958,2.444,1.423,3.65c1.824,4.391,1.02,10.05-2.165,13.575
	c-2.32,2.66-5.721,3.742-9.031,2.877c-1.175-0.341-2.072-1.114-2.844-2.072c-1.794,1.329-3.835,2.412-6.309,1.948
	c-1.948-0.464-4.082-2.103-4.515-4.175c-0.154-0.526-0.309-1.02-0.433-1.546c-1.67,2.474-3.4641,6.649-7.298,5.845
	c-1.793-0.588-2.907-2.474-3.185-4.206l-0.217-0.154c-1.206,1.793-3,4.05-5.349,4.081c-1.392,0.031-2.691-0.742-3.403-1.948
	c-1.144-1.732-0.68-3.649-0.37-5.628c1.298-4.082,3.154-7.9481,3.927-12.247c0.062-0.897,0.031-1.948-0.742-2.597
	c-0.619-0.124-0.495,0.618-0.804,0.897c-1.763,5.041-3.711,10.019-6.185,14.751c-1.887,2.938-4.67,6.68-8.597,6.618
	c-2.072,0.123-3.866-0.804-5.041-2.536c-2.784-4.453-0.68-10.174,1.33-14.318c1.608-2.691,4.113-6,7.36-6.68
	c1.731-0.433,3.216,0.309,4.205,1.701c1.886,3.309,0.805,7.731-1.175,10.638c-1.886,2.907-5.071,4.02-8.318,4.298
	c-0.371,0.773-0.526,1.639-0.433,2.598c0.03,1.021-0.186,1.917,0.525,2.66c1.052,1.174,2.846,0.649,4.083,0.154
	c4.05-2.442,5.875-6.649,7.7-10.546c1.02-3.122,2.443-6.029,3.339-9.184c0.279-0.742,0.588-1.453,0.681-2.227
	c-1.021-1.144-1.794-2.473-1.423-4.081c0.372-1.114,1.237-2.32,2.444-2.536C86.8726,27.6819,87.4595,27.9289,87.6765,28.5169z
	 M54.4015,65.2859c-0.568,2.161-1.855,3.958-2.968,5.814c-3.464,4.701-8.907,6.309-14.721,5.443
	c-2.968-0.619-5.937-1.732-9.216-1.299c-2.412,2.536-3.03,6.061-4.576,9.03c-0.681,1.67-1.732,3.217-2.103,5.072
	c3.092-0.866,6.185-2.598,9.834-2.536c5.566,0.309,10.947,3.34,13.174,8.597c3.649,10.02-1.732,19.297-8.597,26.409
	c-10.267,9.587-22.204,16.328-34.265,22.142c-0.556-0.247-1.113-0.804-0.927-1.484c13.854-6.247,27.399-19.111,33.275-33.275
	c1.298-5.813,5.009-14.843-1.485-19.2971c-4.391-2.226-8.597,0.681-11.875,3.2791c-1.855,0.803-2.474,4.823-4.577,2.844
	c3.897-9.215,8.597-18.06,11.689-27.646c1.98-1.856,5.443-1.484,7.855-0.866c4.763,0.309,10.515,2.041,14.844-0.309
	c1.597-1.052,1.945-1.593,2.505-2.54c0.445-0.734,0.484-0.986,0.773-1.605C53.5825,63.8909,53.9495,64.6059,54.4015,65.2859
	 M122.9925,66.0899c-3.897-0.742-6.989,1.67-9.339,4.701c-5.815,9.03-9.03,19.111-12.185,29.254
	c-1.608,7.979-4.576,15.401-4.886,23.936c-0.309,3.464,1.918,6.556,4.886,7.979c4.082,0.556,7.607-1.052,10.577-3.711
	c8.968-10.576,11.503-23.874,14.967-36.8c1.175-6.619,3.464-14.35,0.866-21.091C127.1365,68.3789,125.0336,66.5229,122.9925,66.0899
	 M128.9305,67.6979c4.205,6.062,3.772,14.906,2.659,22.266c-1.051,6.494-2.969,12.679-5.195,18.679
	c-4.082,9.215-8.659,20.348-18.988,24.801c-5.381,1.67-11.009-0.186-14.535-4.577c-7.422-10.39-3.278-25.481,0-36.367
	c4.392-12.308,13.483-26.224,27.585-28.636C123.7965,63.9259,126.9506,64.9769,128.9305,67.6979z M17.6016,20.2909
	c-6.6801,7.916-7.824,21.338-2.722,30.368c4.577,8.721,13.638,13.452,23.286,12.989c6.433-0.712,12.278-4.856,15.741-10.639
	c2.969-5.937,4.763-12.3391,5.876-19.049l-0.247-0.248c-0.65,0.155-1.299,0.34-1.918,0.618c-1.546,5.722-5.04,11.814-10.978,14.226
	c-5.226,2.412-12.741,2.165-17.225-1.701c-4.391-3.711-6.494-9.401-4.763-15.06c0.372-0.34,0.124-1.454,1.052-1.052
	c0.433,0.34,0.124,0.897,0,1.268c-1.175,3.897-0.309,8.288,1.855,11.349c2.784,3.959,7.453,6,12.401,5.351
	c7.205-0.712,13.545-6.866,15.741-13.576c0.185-0.34-0.093-0.495-0.371-0.526c-4.453,0.495-9.03,0-12.772-1.855
	c-6.185-3.093-10.422-9.649-9.587-16.916c0.124-1.979,0.897-3.742,1.33-5.505C27.7446,11.2609,21.9615,14.7859,17.6016,20.2909
	 M40.7635,10.1169c-1.515-0.093-3.236-0.299-4.67,0.093c-2.257,3.927-2.411,9.802-0.432,13.947
	c2.814,6.432,9.525,9.741,16.39,9.5551c1.515,0.0309,3.061,0.062,4.237-0.588c1.3911-4.731,0.1541-9.833-1.7939-13.946
	C51.7115,14.0439,46.2995,10.8589,40.7635,10.1169z M74.5336,8.1999c-2.134-0.402-3.6801,1.02-4.979,2.597
	c-3.247,5.474-3.834,12.184-4.082,18.833c0.062-0.124,0.217-0.03,0.309-0.062c4.268-2.659,7.515-6.803,9.278-11.287
	c0.9901-2.691,2.165-5.659,1.268-8.752C75.9565,8.8479,75.2755,8.3229,74.5336,8.1999z M65.1945,7.3029
	c0.062,0.216-0.124,0.309-0.216,0.433l-0.31,0.154c-4.669-5.442-11.72-8.597-18.864-6.154c-3.401,1.052-6.71,3.433-8.752,6.68
	c-0.144,0.216-0.195,0.32-0.195,0.32c2.752-0.155,5.736,0.319,8.04,1.03c6.288,1.959,12.937,8.638,13.194,16.493
	c0.361,2.145,0.206,4.546-0.165,6.587c0.65,0.278,1.392-0.185,1.98-0.463c0.649-0.557,0.278-1.516,0.618-2.227
	c1.454-8.411,3.247-17.318,10.979-22.482c1.267-0.835,3.432-0.681,4.669,0.154c2.35,1.732,2.35,5.041,1.701,7.639
	c-1.268,6.463-6.834,11.967-12.401,15.586l-0.216,0.371c-0.062,11.751-2.104,23.626-12.834,30.059
	c-9.03,5.288-22.791,4.422-31.11-1.856c-8.659-6.927-12.741-17.565-10.669-28.884c1.391-8.473,8.504-16.884,16.699-19.884
	c2.474-1.113,5.195-1.547,7.948-2.072c2.721-3.711,6.525-7.051,10.823-8.102C53.4426-1.4491,60.4935,1.5819,65.1945,7.3029z
	 M104.9636,25.7959c0.557,0.928,0.587,2.319-0.155,3.185c-0.927,1.051-2.133,1.608-3.556,1.268c-0.959-0.371-1.763-1.237-1.763-2.32
	c0-1.144,0.681-2.164,1.608-2.814C102.2725,24.3419,104.2205,24.5589,104.9636,25.7959 M80.7495,66.0899
	c-3.897-0.742-6.989,1.67-9.339,4.701c-5.814,9.03-9.03,19.111-12.184,29.254c-1.609,7.979-4.578,15.401-4.887,23.936
	c-0.309,3.464,1.917,6.556,4.887,7.979c4.081,0.556,7.607-1.052,10.575-3.711c8.968-10.576,11.504-23.874,14.968-36.8
	c1.175-6.619,3.464-14.35,0.866-21.091C84.8935,68.3789,82.7905,66.5229,80.7495,66.0899 M86.6865,67.6979
	c4.206,6.062,3.773,14.906,2.66,22.266c-1.052,6.494-2.969,12.679-5.195,18.679c-4.082,9.215-8.659,20.348-18.988,24.801
	c-5.381,1.67-11.009-0.186-14.535-4.577c-7.422-10.39-3.278-25.481,0-36.367c4.391-12.308,13.484-26.224,27.585-28.636
	C81.5535,63.9259,84.7075,64.9769,86.6865,67.6979z"/>
</svg>
