<?xml version="1.0" encoding="utf-8"?>
<!-- Generator: Adobe Illustrator 22.0.1, SVG Export Plug-In . SVG Version: 6.00 Build 0)  -->
<svg version="1.1" id="Layer_1" xmlns="http://www.w3.org/2000/svg" xmlns:xlink="http://www.w3.org/1999/xlink" x="0px" y="0px"
	 viewBox="0 0 315 83" enable-background="new 0 0 315 83" xml:space="preserve">
<path fill="#FFFFFF" d="M6,83h303c3.314,0,6-2.686,6-6V6c0-3.314-2.686-6-6-6H6C2.686,0,0,2.686,0,6v71C0,80.314,2.686,83,6,83z"/>
<path fill="#EA0029" d="M13.72,40.216c-0.461-2.136-0.549-2.975-0.549-5.198C13.172,20.024,25.119,8,40.017,8
	c14.9,0,26.848,12.024,26.848,27.017c0,2.223-0.089,3.063-0.552,5.198l-8.27,6.04l-1.259,10.068H43.16l-0.878,0.649
	c-0.65,0.472-1.512,0.694-2.292,0.694c-0.842,0-1.576-0.256-2.418-0.837l-0.733-0.506H23.186l-1.283-10.068L13.72,40.216"/>
<path fill="#FCE200" d="M37.329,51.624l1.154,0.888c0.453,0.343,1.087,0.589,1.534,0.589c0.442,0,1.081-0.246,1.532-0.589
	l1.152-0.888h10.013l1.033-8.268l7.959-5.803c0.307-1.201,0.372-1.655,0.372-2.783c0-1.422-0.376-3.194-0.941-4.448l-0.024-0.056
	L46.719,44.76l13.859-17.088c-0.551-2.411-1.637-4.33-3.334-5.903l-0.075-0.064L44.699,43.353l10.971-23.665l-0.061-0.084
	c-1.438-1.938-3.242-3.232-5.618-4.03l-7.641,26.888l5.514-27.987c-1.643-0.932-3.609-1.443-5.618-1.443
	c-0.552,0-0.745,0.014-1.248,0.076l-1.022,29.108l-1.316-29.095c-0.541-0.054-0.737-0.065-1.174-0.065
	c-1.926-0.003-3.681,0.467-5.505,1.464l-0.112,0.065l5.801,27.929l-7.663-26.907c-2.458,0.827-4.46,2.256-5.693,4.073l11.069,23.593
	L22.993,21.475c-1.726,1.4-3.11,3.683-3.668,6.048l13.929,17.28L18.829,30.19l-0.033,0.064c-0.6,1.248-0.959,2.967-0.959,4.571
	c0,0.958,0.115,1.836,0.363,2.811l8.111,5.94l1.007,8.049H37.329z"/>
<path fill="#EA0029" d="M96.427,41.572c0.375,5.605,4.783,7.285,12.094,7.285c5.192,0,10.245-1.641,9.978-5.569
	c-0.321-4.813-4.832-5.022-15.444-5.183C91.886,37.931,80.447,33.144,81.4,22.609c0.927-10.167,15.093-14.955,26.288-14.59
	c11.986,0.398,22.439,2.411,25.611,15.058h-15.203c-1.697-6.052-5.569-6.656-11.947-6.74c-5.139-0.073-8.393,2.798-8.512,4.837
	c-0.419,6.897,9.509,6.52,18.31,6.52c13.548,0,18.502,5.991,18.193,14.126c-0.337,8.716-12.106,15.847-26.632,15.847
	c-15.182,0-26.344-5.391-27.672-16.095H96.427 M142.977,8.684v47.856h15.922V38.177c0-5.607,3.467-9.605,8.758-9.987
	c8.182-0.588,8.482,4.743,8.482,11.329v17.022h15.496V33.874c0-5.162-0.801-14.768-17.68-14.768c-5.738,0-12.464,2.617-14.871,6.263
	h-0.185V8.684H142.977 M235.785,34.696h-20.48c0-5.024,3.535-8.538,10.184-8.538C232.297,26.158,235.785,28.682,235.785,34.696
	 M251.004,41.223c0.74-12.565-9.404-21.688-25.806-21.688c-14.164,0-25.693,7.068-26.227,18.558
	c-0.545,11.745,10.947,19.48,26.595,19.48c8.971,0,20.201-2.678,24.176-11.422h-14.613c-1.482,2.695-5.902,4.036-9.378,4.097
	c-7.274,0.131-10.458-4.069-10.739-9.025H251.004z M259.673,56.639h15.491V9.389h-15.491V56.639z M289.012,56.639h15.528V9.389
	h-15.528V56.639z"/>
<path d="M12.407,69.406v-0.625c0-0.832-0.299-1.261-0.728-1.261c-0.715-0.013-0.884,0.377-0.884,1.015l-0.013,4.822
	c0,0.547,0.221,0.871,0.819,0.871c0.78,0,0.845-0.806,0.845-1.403V71.94h2.288v1.196c0,1.678-0.962,2.848-3.302,2.848
	c-2.106,0-2.925-1.118-2.925-3.107v-4.004c0-2.119,0.975-3.107,3.068-3.107c1.95,0,3.12,0.832,3.12,2.821v0.819H12.407z
	 M25.602,75.75V66h2.288v3.744h1.586V66h2.288v9.75h-2.288v-4.057H27.89v4.057H25.602z M42.256,75.75L44.387,66h2.756l2.119,9.75
	h-2.313l-0.325-1.898H44.83l-0.273,1.898H42.256z M45.765,67.768H45.74l-0.663,4.368h1.326L45.765,67.768z M59.844,75.75V66h3.225
	l1.183,5.759h0.026L65.5,66h3.198v9.75h-2.184l0.233-7.645h-0.025L65.11,75.75h-1.703l-1.573-7.645h-0.026l0.209,7.645H59.844z
	 M79.851,75.75V66h2.717c0.884,0,2.158,0.078,2.795,0.806C85.896,67.403,86,68.132,86,68.925c0,1.053-0.247,2.236-1.287,2.717
	c-0.793,0.391-1.716,0.273-2.573,0.313v3.796H79.851z M82.139,70.199c0.429-0.014,0.923,0.039,1.287-0.247
	c0.233-0.261,0.285-0.65,0.285-0.988c0-0.377-0.039-0.949-0.429-1.131c-0.221-0.078-0.533-0.078-0.897-0.078h-0.246V70.199z
	 M96.894,75.75V66h2.288v9.75H96.894z M116.408,72.643c0,2.197-0.768,3.342-3.081,3.342c-2.314,0-3.121-1.145-3.121-3.342v-3.965
	c0-1.872,1.118-2.912,3.121-2.912c2.002,0,3.081,1.04,3.081,2.912V72.643z M114.12,68.834c0-0.599-0.053-1.313-0.807-1.313
	c-0.728,0-0.818,0.715-0.818,1.313v4.004c0,0.559,0.091,1.391,0.832,1.391c0.74,0,0.793-0.832,0.793-1.391V68.834z M129.302,70.29
	l-0.025,0.025l0.208,5.435h-2.172V66h2.354l1.768,5.447h0.039L131.253,66h2.171v9.75h-2.34L129.302,70.29z M146.15,72.487v0.688
	c0,0.56,0.182,1.053,0.91,1.053c0.533,0,0.767-0.48,0.767-0.975c0-0.819-0.676-1.131-1.273-1.495
	c-0.702-0.403-1.301-0.78-1.729-1.274c-0.416-0.493-0.663-1.092-0.663-1.949c0-1.834,1.105-2.77,2.873-2.77
	c1.989,0,3.003,1.326,2.899,3.159h-2.106c-0.025-0.572,0-1.353-0.754-1.404c-0.468-0.039-0.741,0.222-0.793,0.65
	c-0.064,0.585,0.234,0.884,0.689,1.196c0.857,0.546,1.599,0.884,2.132,1.378s0.845,1.144,0.845,2.327
	c0,1.872-1.04,2.912-2.938,2.912c-2.094,0-2.978-1.17-2.978-2.457v-1.04H146.15z M160.698,75.75V66h2.288v3.744h1.586V66h2.288v9.75
	h-2.288v-4.057h-1.586v4.057H160.698z M177.896,75.75V66h2.288v9.75H177.896z M191.378,75.75V66h2.717
	c0.884,0,2.158,0.078,2.795,0.806c0.533,0.598,0.637,1.326,0.637,2.119c0,1.053-0.247,2.236-1.287,2.717
	c-0.793,0.391-1.716,0.273-2.573,0.313v3.796H191.378z M193.666,70.199c0.429-0.014,0.923,0.039,1.286-0.247
	c0.234-0.261,0.286-0.65,0.286-0.988c0-0.377-0.039-0.949-0.429-1.131c-0.221-0.078-0.533-0.078-0.896-0.078h-0.247V70.199z
	 M223.174,72.487v0.688c0,0.56,0.182,1.053,0.91,1.053c0.533,0,0.767-0.48,0.767-0.975c0-0.819-0.676-1.131-1.273-1.495
	c-0.702-0.403-1.301-0.78-1.729-1.274c-0.416-0.493-0.663-1.092-0.663-1.949c0-1.834,1.105-2.77,2.873-2.77
	c1.989,0,3.003,1.326,2.899,3.159h-2.106c-0.025-0.572,0-1.353-0.754-1.404c-0.468-0.039-0.741,0.222-0.793,0.65
	c-0.065,0.585,0.234,0.884,0.689,1.196c0.857,0.546,1.599,0.884,2.132,1.378s0.845,1.144,0.845,2.327
	c0,1.872-1.04,2.912-2.938,2.912c-2.094,0-2.978-1.17-2.978-2.457v-1.04H223.174z M237.787,75.75V66h5.239v1.949h-2.951v1.795h2.86
	v1.949h-2.86V73.8h3.107v1.95H237.787z M256.364,75.75h-2.288V66h3.341c1.872,0,2.809,0.754,2.809,2.69
	c0,1.04-0.247,1.781-1.209,2.224v0.025c0.637,0.144,1.092,0.585,1.131,1.262c0.065,0.779,0.078,2.457,0.208,3.081
	c0.052,0.13,0.117,0.247,0.221,0.338v0.13h-2.496c-0.064-0.182-0.116-0.364-0.13-0.559c-0.039-0.858,0.014-1.664-0.052-2.263
	c-0.065-0.598-0.247-0.988-0.78-1.026h-0.754V75.75z M256.364,70.146h0.78c0.663,0,0.819-0.61,0.819-1.209
	c0-1.157-0.481-1.209-1.6-1.183V70.146z M271.261,75.75V66h2.288v9.75H271.261z M284.651,75.75V66h5.239v1.949h-2.951v1.795h2.86
	v1.949h-2.86V73.8h3.107v1.95H284.651z M302.721,72.487v0.688c0,0.56,0.182,1.053,0.91,1.053c0.533,0,0.767-0.48,0.767-0.975
	c0-0.819-0.676-1.131-1.273-1.495c-0.702-0.403-1.301-0.78-1.729-1.274c-0.416-0.493-0.663-1.092-0.663-1.949
	c0-1.834,1.105-2.77,2.873-2.77c1.989,0,3.003,1.326,2.899,3.159h-2.106c-0.025-0.572,0-1.353-0.754-1.404
	c-0.468-0.039-0.741,0.222-0.793,0.65c-0.065,0.585,0.234,0.884,0.689,1.196c0.857,0.546,1.599,0.884,2.132,1.378
	s0.845,1.144,0.845,2.327c0,1.872-1.04,2.912-2.938,2.912c-2.094,0-2.978-1.17-2.978-2.457v-1.04H302.721z"/>
</svg>
