<?xml version="1.0" encoding="utf-8"?>
<!-- Generator: Adobe Illustrator 22.0.1, SVG Export Plug-In . SVG Version: 6.00 Build 0)  -->
<svg version="1.1" id="Layer_1" xmlns="http://www.w3.org/2000/svg" xmlns:xlink="http://www.w3.org/1999/xlink" x="0px" y="0px"
	 viewBox="0 0 69.3333 33.3333" enable-background="new 0 0 69.3333 33.3333" xml:space="preserve">
<g>
	<path d="M59.3411,11.6987c-0.506,0-0.838,0.196-0.995,0.59c-0.1559,0.3868-0.2341,0.9429-0.2362,1.663h0.0002h2.464
		c0-0.715-0.079-1.271-0.237-1.663C60.1801,11.8957,59.8481,11.6987,59.3411,11.6987z"/>
	<path d="M0,0v33.3333h69.3333V0H0z M15.3671,23.8027c-1.475,0.752-3.096,1.135-4.859,1.152c-0.647,0-1.293-0.044-1.939-0.131
		c-0.6461-0.087-1.2581-0.2-1.834-0.34c-0.21-0.035-0.437-0.092-0.681-0.171c-0.245-0.079-0.498-0.171-0.76-0.275
		c-0.245-0.104-0.494-0.217-0.746-0.34c-0.254-0.123-0.485-0.245-0.6949-0.367c-0.192-0.123-0.362-0.245-0.511-0.367
		c-0.1479-0.123-0.258-0.237-0.327-0.341v-4.349h5.999v0.001v1.232c0,0.488,0.131,0.855,0.392,1.1
		c0.262,0.244,0.55,0.375,0.865,0.392c0.018,0,0.031,0,0.039,0c0.009,0,0.022,0,0.039,0c0.017,0,0.031,0,0.039,0
		c0.009,0,0.021,0,0.039,0c0.279-0.017,0.532-0.117,0.76-0.301c0.226-0.183,0.34-0.45,0.34-0.8c0-0.052-0.004-0.109-0.013-0.171
		c-0.0099-0.061-0.022-0.126-0.039-0.196c-0.1039-0.5421-0.489-0.9301-1.152-1.166c-0.664-0.236-1.381-0.432-2.149-0.588
		c-0.122-0.018-0.248-0.039-0.38-0.066c-0.131-0.027-0.258-0.048-0.38-0.065c-0.42-0.07-0.817-0.148-1.193-0.237
		c-0.375-0.086-0.685-0.2-0.93-0.34c-0.926-0.402-1.608-0.978-2.044-1.729c-0.435-0.75-0.652-1.545-0.652-2.383
		c0-0.018,0-0.039,0-0.066c0-0.026,0-0.048,0-0.065c0.017-0.908,0.261-1.769,0.733-2.581s1.127-1.427,1.965-1.847
		c0.4709-0.244,1.039-0.4319,1.702-0.563c0.664-0.131,1.345-0.214,2.044-0.249c0.123,0,0.24-0.003,0.354-0.013
		c0.113-0.009,0.232-0.013,0.354-0.013c0.419,0,0.829,0.017,1.231,0.052c0.402,0.035,0.778,0.087,1.127,0.157
		c0.279,0.053,0.655,0.141,1.126,0.262c0.472,0.123,0.961,0.289,1.468,0.498c0.436,0.175,0.869,0.389,1.296,0.642
		c0.429,0.254,0.781,0.547,1.062,0.878v3.903h-5.791v-1.048c0-0.453-0.127-0.786-0.38-0.996c-0.253-0.209-0.528-0.322-0.824-0.34
		c-0.018,0-0.031,0-0.039,0c-0.01,0-0.022,0-0.039,0c-0.297,0-0.568,0.083-0.812,0.248c-0.244,0.166-0.367,0.398-0.367,0.695
		c0,0.542,0.175,0.921,0.524,1.14s0.829,0.406,1.44,0.563c0.123,0.018,0.24,0.039,0.354,0.066c0.113,0.026,0.231,0.057,0.354,0.092
		c0.279,0.052,0.571,0.104,0.877,0.157c0.306,0.052,0.616,0.123,0.931,0.21c0.925,0.2271,1.794,0.6151,2.606,1.165
		s1.34,1.489,1.585,2.816c0.034,0.193,0.061,0.385,0.079,0.577c0.017,0.192,0.026,0.375,0.026,0.55
		C17.5811,21.7327,16.8431,23.0527,15.3671,23.8027z M34.5831,24.6667h-5.79l-3.3-7.231v1.86c0,0.332,0.061,0.612,0.183,0.838
		c0.1219,0.227,0.34,0.437,0.655,0.629v3.904h-8.043v-3.929c0.402-0.175,0.637-0.429,0.708-0.76
		c0.069-0.332,0.1039-0.75,0.1039-1.258V8.1617c0-0.122-0.004-0.271-0.013-0.446c-0.0099-0.174-0.022-0.357-0.039-0.55
		c-0.0519-0.262-0.1349-0.506-0.249-0.733c-0.113-0.227-0.284-0.402-0.511-0.523v-3.721h7.205v10.506
		c0.733-0.629,1.213-1.157,1.44-1.585c0.227-0.427,0.358-0.842,0.393-1.244c0.017-0.106,0.027-0.21,0.027-0.314
		c0-0.106,0-0.219,0-0.341v-1.049h7.021v3.51c-0.21,0.087-0.398,0.206-0.564,0.354c-0.165,0.1479-0.327,0.302-0.484,0.458
		c-0.035,0.0519-0.079,0.1039-0.131,0.158c-0.052,0.052-0.096,0.104-0.131,0.157c-0.017,0.018-0.039,0.039-0.065,0.066
		c-0.027,0.026-0.049,0.048-0.066,0.065l-1.65,2.253l2.069,4.324c0.07,0.227,0.179,0.423,0.328,0.588
		c0.148,0.166,0.301,0.311,0.458,0.433c0.069,0.052,0.144,0.096,0.223,0.131c0.078,0.035,0.152,0.07,0.222,0.104V24.6667z
		 M51.5061,11.8827c-0.314,0.245-0.55,0.577-0.708,0.996c-0.157,0.419-0.306,0.865-0.445,1.336c0,0.018-0.005,0.044-0.014,0.079
		c-0.009,0.035-0.021,0.0699-0.039,0.104c-0.035,0.141-0.069,0.275-0.104,0.4059c-0.035,0.131-0.079,0.267-0.131,0.406l-3.3,10.27
		c-0.141,0.471-0.275,0.89-0.4059,1.258c-0.131,0.367-0.258,0.698-0.381,0.995c-0.314,0.752-0.659,1.314-1.034,1.691
		c-0.376,0.375-0.939,0.711-1.691,1.008c-0.332,0.14-0.703,0.236-1.113,0.288c-0.41,0.052-0.825,0.087-1.244,0.104
		c-0.577,0-1.136-0.052-1.677-0.157c-0.542-0.104-0.987-0.245-1.337-0.419v-3.721c0.804,0,1.389-0.166,1.756-0.498
		c0.367-0.332,0.602-0.69,0.708-1.075c0-0.017,0.003-0.03,0.013-0.039c0.009-0.009,0.013-0.021,0.013-0.038l-3.092-8.672
		c-0.175-0.524-0.332-1-0.471-1.427c-0.141-0.429-0.271-0.808-0.393-1.14c-0.157-0.42-0.327-0.769-0.511-1.049
		c-0.183-0.278-0.416-0.506-0.694-0.681v-3.746h8.254v3.721c-0.245,0.052-0.415,0.148-0.511,0.288
		c-0.096,0.141-0.144,0.306-0.144,0.498c0,0.175,0.026,0.376,0.078,0.602c0.053,0.228,0.106,0.464,0.158,0.708
		c0.017,0.035,0.03,0.075,0.039,0.118c0.009,0.044,0.021,0.092,0.039,0.144c0.034,0.087,0.061,0.179,0.078,0.275
		c0.017,0.096,0.035,0.188,0.052,0.275l0.812,2.646l0.629-2.673c0.017-0.052,0.035-0.117,0.052-0.196
		c0.017-0.079,0.035-0.152,0.052-0.223c0.0179-0.069,0.0309-0.135,0.039-0.196c0.009-0.061,0.022-0.118,0.039-0.171
		c0.069-0.244,0.131-0.475,0.183-0.694s0.079-0.415,0.079-0.59c0.017-0.192-0.027-0.362-0.131-0.511
		c-0.104-0.148-0.279-0.24-0.523-0.276v-3.745h7.021V11.8827z M66.5731,17.6467h-8.462v1.65c0,0.612,0.11,1.048,0.328,1.31
		c0.217,0.261,0.458,0.402,0.72,0.419c0.018,0,0.031,0,0.039,0c0.009,0,0.022,0,0.039,0c0.227-0.017,0.441-0.127,0.642-0.327
		c0.2-0.2,0.302-0.45,0.302-0.747c0-0.017,0-0.034,0-0.052c0-0.017,0-0.034,0-0.052c-0.018-0.017-0.027-0.035-0.027-0.052
		c0-0.017,0-0.035,0-0.052v-1.258h6.419v4.323c-0.069,0.087-0.148,0.166-0.236,0.236c-0.087,0.07-0.183,0.141-0.288,0.21
		c-0.5941,0.384-1.415,0.742-2.463,1.075c-1.048,0.332-2.148,0.559-3.302,0.6801c-0.227,0.035-0.454,0.056-0.681,0.066
		c-0.227,0.009-0.454,0.013-0.681,0.013c-2.271-0.104-4.008-0.567-5.213-1.388c-1.206-0.821-1.808-2.21-1.808-4.166v-0.028h0.001
		v-6.183c0-2.254,0.646-3.743,1.938-4.468c1.293-0.724,3.127-1.087,5.502-1.087c1.869,0,3.541,0.328,5.018,0.983
		c1.475,0.655,2.213,1.908,2.213,3.76V17.6467z"/>
</g>
</svg>
