<?xml version="1.0" encoding="utf-8"?>
<!-- Generator: Adobe Illustrator 22.0.1, SVG Export Plug-In . SVG Version: 6.00 Build 0)  -->
<svg version="1.1" id="Layer_1" xmlns="http://www.w3.org/2000/svg" xmlns:xlink="http://www.w3.org/1999/xlink" x="0px" y="0px"
	 viewBox="0 0 88.3333 33.3333" enable-background="new 0 0 88.3333 33.3333" xml:space="preserve">
<g>
	<path d="M60.7278,12.5887c-0.3329,0-0.595,0.131-0.787,0.393c-0.192,0.262-0.288,0.725-0.288,1.389v3.275
		c0,0.961,0.0959,1.655,0.288,2.082c0.192,0.429,0.516,0.643,0.97,0.643c0.139,0,0.292-0.018,0.4579-0.053
		c0.166-0.034,0.345-0.086,0.537-0.157v-0.026h0.001v-7.231c-0.228-0.086-0.437-0.161-0.629-0.223
		C61.0858,12.6197,60.9028,12.5887,60.7278,12.5887z"/>
	<path d="M26.4338,18.2497c-0.314,0.123-0.599,0.288-0.852,0.498c-0.254,0.209-0.38,0.471-0.38,0.786
		c0,0.385,0.078,0.656,0.236,0.812c0.157,0.157,0.349,0.245,0.577,0.262c0.069,0,0.14-0.004,0.209-0.014
		c0.07-0.009,0.148-0.03,0.236-0.065c0.175-0.052,0.3539-0.127,0.537-0.223c0.183-0.096,0.336-0.205,0.458-0.327
		c0.035-0.035,0.075-0.075,0.118-0.118c0.044-0.043,0.074-0.082,0.092-0.117v-0.028h0.001v-1.86c0,0.018-0.127,0.052-0.3799,0.106
		C27.0318,18.0137,26.7488,18.1097,26.4338,18.2497z"/>
	<path d="M0,0v33.3333h88.3333V0H0z M15.8848,23.8017c-1.475,0.752-3.096,1.1349-4.859,1.152c-0.647,0-1.293-0.044-1.939-0.131
		c-0.646-0.087-1.258-0.2-1.834-0.34c-0.21-0.035-0.437-0.092-0.681-0.171c-0.245-0.079-0.498-0.171-0.7599-0.275
		c-0.2451-0.104-0.494-0.217-0.746-0.34c-0.254-0.123-0.485-0.245-0.695-0.367c-0.192-0.123-0.362-0.245-0.511-0.367
		c-0.148-0.123-0.258-0.237-0.327-0.341v-4.349h6.0031v0.002v1.232c0,0.488,0.131,0.855,0.392,1.1
		c0.262,0.244,0.55,0.375,0.865,0.392c0.018,0,0.031,0,0.039,0s0.022,0,0.039,0c0.017,0,0.031,0,0.039,0s0.021,0,0.039,0
		c0.279-0.017,0.532-0.117,0.76-0.301c0.226-0.183,0.34-0.45,0.34-0.8c0-0.052-0.004-0.109-0.013-0.171
		c-0.01-0.061-0.022-0.126-0.039-0.196c-0.104-0.5421-0.489-0.9301-1.152-1.166c-0.664-0.236-1.381-0.432-2.149-0.588
		c-0.122-0.018-0.248-0.039-0.38-0.066c-0.131-0.027-0.258-0.048-0.38-0.065c-0.42-0.07-0.817-0.148-1.193-0.237
		c-0.375-0.086-0.685-0.2-0.93-0.34c-0.926-0.402-1.608-0.978-2.044-1.729c-0.437-0.75-0.655-1.546-0.655-2.384
		c0-0.018,0-0.039,0-0.066c0-0.026,0-0.048,0-0.065c0.017-0.908,0.261-1.769,0.733-2.581c0.471-0.812,1.127-1.427,1.965-1.847
		c0.4709-0.244,1.039-0.432,1.702-0.563c0.664-0.131,1.345-0.214,2.044-0.249c0.123,0,0.24-0.003,0.354-0.013
		c0.113-0.009,0.231-0.013,0.354-0.013c0.419,0,0.829,0.017,1.231,0.052c0.402,0.035,0.777,0.087,1.127,0.157
		c0.279,0.053,0.655,0.141,1.126,0.262c0.472,0.123,0.961,0.289,1.468,0.498c0.436,0.175,0.869,0.389,1.296,0.642
		c0.429,0.254,0.781,0.547,1.062,0.878v3.903h-5.791v-1.048c0-0.453-0.127-0.7859-0.38-0.996c-0.254-0.209-0.529-0.322-0.825-0.34
		c-0.0179,0-0.0309,0-0.039,0c-0.0099,0-0.022,0-0.039,0c-0.297,0-0.568,0.083-0.812,0.248c-0.244,0.166-0.367,0.3979-0.367,0.695
		c0,0.542,0.175,0.921,0.524,1.14s0.829,0.406,1.44,0.563c0.123,0.018,0.24,0.039,0.354,0.066c0.113,0.026,0.231,0.057,0.354,0.092
		c0.279,0.052,0.571,0.104,0.877,0.157c0.306,0.052,0.616,0.123,0.931,0.21c0.925,0.227,1.794,0.615,2.606,1.165
		c0.812,0.55,1.34,1.489,1.585,2.816c0.034,0.193,0.061,0.385,0.079,0.577c0.017,0.192,0.026,0.375,0.026,0.55
		C18.0988,21.7317,17.3608,23.0517,15.8848,23.8017z M34.8948,24.6667h-6.812v-1.231c-0.052,0.052-0.104,0.092-0.157,0.118
		c-0.052,0.026-0.106,0.056-0.158,0.092c-0.087,0.069-0.183,0.14-0.288,0.209c-0.104,0.07-0.21,0.149-0.314,0.236
		c-0.3669,0.245-0.812,0.472-1.336,0.681c-0.524,0.21-1.214,0.314-2.0699,0.314c-1.2401,0-2.35-0.358-3.327-1.074
		c-0.979-0.716-1.519-2-1.625-3.852c0-1.152,0.332-2.087,0.996-2.804c0.664-0.715,1.389-1.24,2.175-1.571
		c0.192-0.087,0.388-0.162,0.59-0.223c0.2-0.061,0.388-0.1089,0.563-0.144l4.533-1.468c0-0.052,0-0.1169,0-0.196
		c0-0.079,0-0.152,0-0.223c0.017-0.436-0.004-0.829-0.066-1.179c-0.061-0.349-0.31-0.567-0.746-0.655
		c-0.017,0-0.039-0.004-0.065-0.013c-0.026-0.006-0.049-0.011-0.066-0.011c-0.017,0-0.039,0-0.065,0c-0.027,0-0.049,0-0.066,0
		c-0.419,0-0.721,0.219-0.9041,0.656c-0.183,0.436-0.275,0.987-0.275,1.65l-5.79-0.027v-4.14c0.681-0.488,1.415-0.877,2.201-1.165
		c0.787-0.289,1.581-0.502,2.385-0.642c0.5229-0.087,1.0439-0.148,1.559-0.183c0.515-0.035,1.016-0.053,1.505-0.053
		c0.21,0,0.429,0.005,0.656,0.014c0.226,0.009,0.454,0.031,0.681,0.065c1.362,0.158,2.611,0.612,3.746,1.362
		c1.135,0.752,1.702,1.922,1.702,3.51v6.576c0,0.454,0.062,0.777,0.183,0.969c0.123,0.1931,0.262,0.358,0.42,0.498
		c0.052,0.035,0.096,0.07,0.131,0.104c0.034,0.0359,0.069,0.0699,0.104,0.106V24.6667z M52.4218,24.6677h-6.995
		c-0.104-1.223-0.166-2.231-0.183-3.027c-0.0179-0.794-0.027-1.497-0.027-2.109v-5.187c0-0.017,0-0.035,0-0.052
		c-0.017-0.454-0.144-0.873-0.38-1.258c-0.236-0.384-0.572-0.576-1.008-0.576c-0.123,0-0.262,0.021-0.419,0.065
		c-0.158,0.044-0.314,0.11-0.472,0.196v6.183c0,0.419,0.061,0.787,0.183,1.1c0.123,0.314,0.341,0.568,0.656,0.76v3.904h-8.043
		v-3.929c0.384-0.175,0.615-0.437,0.694-0.787c0.079-0.349,0.118-0.715,0.118-1.1c0-0.017,0-0.039,0-0.065c0-0.027,0-0.048,0-0.066
		v-4.977c0-0.402-0.062-0.747-0.183-1.035c-0.123-0.288-0.333-0.485-0.629-0.59v-3.956h7.205v0.629
		c0.716-0.506,1.429-0.803,2.135-0.891c0.708-0.086,1.375-0.131,2.004-0.131c1.293,0,2.249,0.245,2.869,0.735
		c0.6201,0.488,1.052,1.021,1.297,1.598c0.174,0.402,0.2791,0.786,0.314,1.152c0.034,0.367,0.052,0.655,0.052,0.865v6.576
		c0,0.628,0.061,1.1169,0.183,1.467c0.122,0.35,0.332,0.62,0.629,0.812V24.6677z M68.9278,24.6677h-7.021v-0.629
		c-0.296,0.314-0.699,0.546-1.205,0.694c-0.507,0.148-1.04,0.249-1.599,0.302c-0.226,0.017-0.45,0.03-0.667,0.039
		c-0.22,0.009-0.433,0.013-0.642,0.013c-1.241,0-2.298-0.402-3.17-1.205c-0.873-0.804-1.257-2.183-1.152-4.139v-0.027h-0.001v-6.812
		c0-0.174,0.009-0.367,0.026-0.576c0.0179-0.21,0.035-0.41,0.053-0.603c0.157-0.978,0.567-1.869,1.231-2.672
		c0.663-0.804,1.806-1.162,3.431-1.075c0.454,0,0.842,0.018,1.166,0.052c0.324,0.035,0.633,0.106,0.93,0.21
		c0.245,0.087,0.495,0.192,0.748,0.314c0.252,0.123,0.535,0.2791,0.851,0.471v-1.072c0-0.489-0.049-0.8911-0.145-1.2061
		c-0.0959-0.314-0.2469-0.524-0.4579-0.629v-3.929h6.812v15.877c0,0.733,0.034,1.354,0.104,1.86c0.07,0.506,0.307,0.856,0.708,1.048
		V24.6677z M82.7169,23.8017c-1.475,0.752-3.096,1.1349-4.859,1.152c-0.646,0-1.292-0.044-1.938-0.131
		c-0.646-0.087-1.258-0.2-1.834-0.34c-0.211-0.035-0.437-0.092-0.682-0.171c-0.245-0.079-0.4969-0.171-0.759-0.275
		c-0.245-0.104-0.495-0.217-0.746-0.34c-0.254-0.123-0.486-0.245-0.695-0.367c-0.192-0.123-0.362-0.245-0.512-0.367
		c-0.147-0.123-0.258-0.237-0.326-0.341v-4.349h6.0029v0.002v1.232c0,0.488,0.13,0.855,0.392,1.1
		c0.262,0.244,0.55,0.375,0.863,0.392c0.019,0,0.032,0,0.041,0c0.009,0,0.021,0,0.038,0c0.017,0,0.032,0,0.041,0
		c0.009,0,0.021,0,0.038,0c0.279-0.017,0.533-0.117,0.761-0.301c0.226-0.183,0.339-0.45,0.339-0.8c0-0.052-0.004-0.109-0.013-0.171
		c-0.009-0.061-0.021-0.126-0.038-0.196c-0.104-0.5421-0.49-0.9301-1.153-1.166c-0.663-0.236-1.379-0.432-2.149-0.588
		c-0.122-0.018-0.247-0.039-0.38-0.066c-0.13-0.027-0.258-0.048-0.38-0.065c-0.42-0.07-0.817-0.148-1.192-0.237
		c-0.375-0.086-0.687-0.2-0.93-0.34c-0.927-0.402-1.608-0.978-2.045-1.729c-0.437-0.75-0.655-1.546-0.655-2.384
		c0-0.018,0-0.039,0-0.066c0-0.026,0-0.048,0-0.065c0.017-0.908,0.262-1.769,0.733-2.581c0.471-0.812,1.128-1.427,1.966-1.847
		c0.471-0.244,1.038-0.432,1.701-0.563c0.665-0.131,1.345-0.214,2.045-0.249c0.122,0,0.239-0.003,0.354-0.013
		c0.113-0.009,0.23-0.013,0.354-0.013c0.418,0,0.829,0.017,1.23,0.052c0.403,0.035,0.778,0.087,1.128,0.157
		c0.279,0.053,0.655,0.141,1.126,0.262c0.471,0.123,0.959,0.289,1.467,0.498c0.437,0.175,0.87,0.389,1.296,0.642
		c0.429,0.254,0.782,0.547,1.062,0.878v3.903h-5.791v-1.048c0-0.453-0.126-0.7859-0.38-0.996c-0.254-0.209-0.529-0.322-0.825-0.34
		c-0.017,0-0.03,0-0.038,0c-0.011,0-0.023,0-0.041,0c-0.296,0-0.567,0.083-0.812,0.248c-0.243,0.166-0.367,0.3979-0.367,0.695
		c0,0.542,0.175,0.921,0.524,1.14c0.35,0.219,0.829,0.406,1.441,0.563c0.122,0.018,0.239,0.039,0.354,0.066
		c0.113,0.026,0.23,0.057,0.354,0.092c0.279,0.052,0.571,0.104,0.876,0.157c0.307,0.052,0.616,0.123,0.932,0.21
		c0.925,0.227,1.793,0.615,2.605,1.165c0.812,0.55,1.341,1.489,1.586,2.816c0.034,0.193,0.06,0.385,0.079,0.577
		c0.017,0.192,0.026,0.375,0.026,0.55C84.9318,21.7317,84.1938,23.0517,82.7169,23.8017z"/>
</g>
</svg>
