<svg xmlns="http://www.w3.org/2000/svg" viewBox="0 0 137.12 133.42"><g fill="#231F20"><path d="M35.83 35.48c-.22-1.14-.62-2.36-2.16-3.03.59-.42.98-1.11.98-1.89l-.23-1.28-.93 1.28c0 .64-.52 1.16-1.16 1.16-.64 0-1.16-.52-1.16-1.16 0 0 .07-1.93.74-3.35.03 0 .05.01.07.01 3.34 0 3.54-3.77 3.6-5.02.01-.17.01-.31.03-.4l-2.83-.41c-.02.15-.04.38-.05.66-.08 1.62-.31 2.31-.75 2.31-.24 0-.3-.07-.34-.12-.38-.43-.44-1.7-.34-2.45l-2.83-.39c-.07.51-.36 3.14 1.01 4.72.28.32.61.56.98.74-.92 2.65-.46 3.7-.46 3.7 0 .71.33 1.34.83 1.77-.14.09-.26.19-.38.31-1.11 1.16-.71 3.41-.7 3.49.11.56.16 2.13-.05 2.62-.27.64-.29 1.28-.31 1.79-.01.3-.02.57-.07.74-.23.68-.08 1.48.4 2.08.03.04.08.08.12.12-1.04 1.03-1.44 2.56-1.49 3.58-.17.75-.92 4.76 1.16 8.9.18.37.41.67.66.93-1.04 1.03-1.7 2.89-1.7 5.1 0 3.41 1.57 5.97 3.64 5.97 2.08 0 3.64-2.57 3.64-5.97 0-2.14-.62-3.94-1.59-4.99.58-.44 1.01-1 1.18-1.53.38-1.15.13-2.57-.1-3.82l-.1-.55c-.21-1.23-.22-1.44.1-2.84l.03-.13c.3-1.28.8-3.42-.31-4.76-.07-.08-.15-.16-.24-.24.15-.25.29-.53.4-.9.52-1.71 1.23-4.07.71-6.75zM43.86 44.69c-.04-.07-.09-.13-.14-.19.38-.27.62-.59.74-.85.54-1.13.04-2.44-.43-3.71-.07-.19-.14-.37-.21-.56-.18-.5-.13-2.1.02-3.41.45-.64 1.33-2.16.86-3.55-.15-.46-.51-1.03-1.28-1.44.12-.28.2-.58.2-.89l-.23-2.45-.93 2.45c0 .19-.06.37-.16.54-.68-.1-1.36.06-1.99.48-.18-.1-.3-.26-.3-.55 0 0 .07-2.32.73-3.93h.08c2.22 0 3.43-1.51 3.6-4.48.01-.14.01-.27.03-.35l-2.83-.41c-.02.15-.04.36-.05.6-.1 1.79-.4 1.79-.75 1.79-.32 0-.4-.09-.44-.13-.29-.34-.33-1.28-.25-1.83l-1.41-.22-1.41-.23c-.04.26-.38 2.63.89 4.12.24.28.58.58 1.05.8-.87 2.7-.42 4.26-.42 4.26 0 .59.22 1.02.58 1.32-1.23 1.4-1.9 3.58-1.9 4.5 0 .17-.01.39-.01.63-.05 2.02-.14 5.39 1.67 6.95.07.06.13.1.2.16-.25.27-.45.58-.54.96-.05.19-.1.36-.14.52-.31 1.14-.43 1.72.02 3.6.36 1.53.19 3.01-.5 4.39-.58 1.16-.03 2.59 1.28 3.33.43.24.94.39 1.47.39.9 0 1.84-.42 2.52-1.49 2.91-4.6 1.01-10.03.38-11.12z"/></g><g fill="#231F20"><path d="M99.44 25.49c1.27-1.5.94-3.86.89-4.12l-2.82.45c.08.55.04 1.49-.25 1.83-.04.04-.12.13-.44.13-.35 0-.65 0-.75-1.79-.01-.24-.03-.44-.05-.59l-2.83.4c.01.09.02.21.03.35.17 2.98 1.38 4.48 3.6 4.48h.08c.66 1.61.73 3.93.73 3.93 0 .32-.13.5-.35.59-.61-.42-1.27-.6-1.94-.54-.09-.16-.15-.33-.15-.52l-.93-2.45-.23 2.45c0 .3.07.58.18.84-.84.4-1.22 1-1.38 1.48-.47 1.4.41 2.91.86 3.55.15 1.31.2 2.91.02 3.42-.07.19-.14.37-.21.56-.48 1.27-.97 2.57-.43 3.7.13.28.38.62.81.9-.03.04-.07.08-.09.13-.51.89-2.51 6.45.23 11.32.71 1.25 1.65 1.69 2.53 1.69.48 0 .94-.13 1.32-.34 1.28-.68 2.24-2.4 1.55-3.77-.69-1.38-.86-2.86-.5-4.39.44-1.88.32-2.46.02-3.6-.04-.16-.09-.33-.14-.52-.1-.41-.31-.74-.59-1.02.05-.04.08-.07.13-.11 1.81-1.55 1.72-4.93 1.67-6.95-.01-.24-.01-.46-.01-.63 0-.91-.65-3.03-1.85-4.44.4-.31.65-.76.65-1.38 0 0 .45-1.56-.42-4.26.48-.2.82-.5 1.06-.78zM109.2 47.06c-.06-1.02-.45-2.56-1.5-3.58.04-.04.08-.07.12-.12.47-.6.63-1.4.4-2.08-.05-.16-.06-.44-.07-.73-.02-.52-.04-1.16-.31-1.79-.21-.49-.16-2.06-.05-2.62.01-.04.42-2.32-.7-3.49-.12-.12-.24-.22-.38-.31.5-.43.83-1.06.83-1.77 0 0 .46-1.05-.46-3.7.37-.18.7-.42.98-.75 1.37-1.57 1.09-4.2 1.01-4.71l-2.83.39c.1.73.04 2.01-.34 2.45-.04.05-.1.12-.34.12-.44 0-.66-.69-.75-2.31-.01-.27-.03-.5-.05-.65l-2.83.4c.01.09.02.23.03.4.06 1.24.26 5.02 3.6 5.02.03 0 .05-.01.07-.01.67 1.42.74 3.35.74 3.35 0 .64-.52 1.16-1.17 1.16-.64 0-1.16-.52-1.16-1.16l-.93-1.28-.23 1.28c0 .78.39 1.47.98 1.89-1.55.67-1.95 1.89-2.16 3.03-.51 2.68.2 5.03.73 6.8.11.35.24.62.38.86-.09.08-.17.16-.23.24-1.11 1.34-.61 3.48-.31 4.76l.03.13c.32 1.4.31 1.61.1 2.84-.45 2.69-.51 4.23-.19 5.18.36 1.08 1.81 1.99 3.24 2.02h.08c1.34 0 2.4-.76 2.92-2.09 1.68-4.45.92-8.43.75-9.17z"/></g><path fill="#D0383F" d="M132.09 23.42h-128l.2-1.3s.15-1.14-.52-1.88c-.49-.55-1.36-.81-2.59-.77L0 19.51V3.98l1.26.16c.05 0 1.42.14 2.27-.64.53-.48.79-1.27.77-2.35L4.28 0h127.9l-.14 1.25c0 .01-.12 1.33.65 2.16.5.53 1.32.78 2.44.74l1.17-.04v15.44l-1.22-.1c-.44-.03-1.74.04-2.46.75-.46.45-.65 1.11-.6 2.03l.07 1.19z"/><path fill="#231F20" d="M6.51 21.16H129.8c.14-1.04.55-1.91 1.25-2.59.92-.9 2.11-1.22 2.99-1.33V6.37c-1.26-.15-2.27-.62-3.02-1.43-.79-.86-1.1-1.89-1.2-2.68H6.5c-.17 1.22-.66 2.2-1.46 2.93-.89.79-1.96 1.08-2.78 1.17v10.89c1.37.14 2.44.65 3.2 1.5.69.78.96 1.69 1.05 2.41z"/><path fill="#F1C3C5" d="M31.37 41.96c.01 0 .02.04.07.09.1.1.31.14.56.12.38-.03.77-.06.87-.12 0 0 .05-.05.16-.4.49-1.63 1.09-3.61.67-5.77-.18-.96-.28-1.45-1.73-1.69-.14.29-.18 1.08-.1 1.5.12.61.31 2.74-.18 3.9-.11.26-.12.62-.13 1.01-.02.42-.03.9-.19 1.36zM32.6 44.56h-.11c-1.83.07-1.97 2.42-1.99 2.68l-.03.23c-.01.03-.91 3.76.97 7.51.31.62.59.6.71.59.51-.04 1.06-.58 1.13-.79.21-.63 0-1.8-.17-2.75l-.11-.57c-.26-1.57-.25-2.06.13-3.68l.03-.13c.17-.71.55-2.37.13-2.89-.13-.16-.43-.2-.69-.2zM32.09 58.19c-.52 0-1.48 1.45-1.48 3.81 0 2.36.96 3.81 1.48 3.81s1.48-1.45 1.48-3.81c0-2.37-.96-3.81-1.48-3.81zM41.92 32.75c-.12 0-.29.04-.52.22-1.02.78-1.7 2.89-1.7 3.41 0 .19-.01.42-.01.69-.03 1.31-.11 4.36.91 5.24.36.31.82.7.96.75.05-.01.36-.11.63-.21l.16-.05c.13-.04.16-.08.16-.08.15-.27-.29-1.45-.51-2.01-.07-.2-.15-.4-.22-.59-.46-1.3-.13-4.14-.05-4.69l.04-.3.18-.23c.43-.55.82-1.42.7-1.78-.06-.19-.43-.3-.59-.34-.03-.02-.08-.03-.14-.03zM41.19 45.53c-.1 0-.19.02-.24.05-.05.23-.1.42-.15.58-.24.88-.3 1.11.03 2.54.47 2.01.24 4.04-.67 5.86-.01.1.19.41.56.54.23.08.58.12.93-.44 2.33-3.69.77-8.1.34-8.88-.14-.14-.53-.25-.8-.25zM95.03 42.72s.04.04.16.08l.16.05c.27.09.59.2.68.2.1-.04.55-.43.91-.75 1.03-.88.95-3.94.91-5.25-.01-.26-.01-.5-.01-.68 0-.52-.69-2.63-1.71-3.41-.36-.28-.57-.22-.66-.2-.16.04-.52.16-.59.34-.13.39.32 1.3.7 1.78l.18.23.04.29c.07.56.41 3.4-.05 4.7-.07.19-.14.4-.22.6-.21.58-.65 1.75-.5 2.02-.01 0-.01 0 0 0zM95.66 45.78c-.35.66-1.94 5.29.25 9.16.42.74.74.6.87.55.48-.2.75-.77.71-.93-.91-1.81-1.14-3.84-.66-5.85.33-1.43.27-1.66.03-2.54-.05-.17-.1-.35-.15-.56-.18-.16-.86-.03-1.05.17zM105.56 34.2c-1.46.24-1.55.73-1.73 1.68-.41 2.16.18 4.14.66 5.72.11.38.18.45.19.46.08.04.48.07.8.1.3.02.51-.02.61-.11.05-.05.07-.1.07-.12-.15-.44-.16-.91-.18-1.33-.01-.38-.02-.75-.14-1.01-.49-1.16-.3-3.29-.18-3.9.08-.41.04-1.2-.1-1.49zM104.93 44.56c-.26 0-.56.04-.69.2-.42.51-.04 2.17.13 2.88l.03.13c.37 1.63.39 2.11.13 3.68-.46 2.73-.4 3.76-.27 4.14.09.16.74.58 1.34.54.26-.02.59-.11.81-.7 1.59-4.14.67-7.92.66-7.96l-.03-.23c-.01-.26-.16-2.6-1.99-2.68h-.12z"/><path fill="#231F20" d="M85.4 33.74c-.69-.75-1.71-1-2.31-1.08v-2.71-.26c-.35-3.45-2.02-5.81-4.1-7.43-2.07-1.78-5.19-3.23-9.86-3.47-.37-.03-.59-.04-.61-.04h-.02-.01-.01-.01c-.09 0-.53.02-1.2.1-4.84.46-7.93 2.09-9.9 3.97-1.59 1.43-2.85 3.36-3.32 5.97-.11.57-.13.92-.13.94v2.92c-.6.08-1.62.33-2.31 1.08-.55.6-.79 1.38-.72 2.33.24 2.99.44 4.08 2.91 5.7v4.15l.03.18c.13.33 3.16 8.03 7.06 9.37 1.41.49 1.9 1.13 2.42 1.81.79 1.04 1.61 2.11 5.23 2.4 3.54-.29 4.36-1.36 5.15-2.4.52-.68 1.01-1.33 2.42-1.81 3.9-1.34 6.93-9.05 7.06-9.37l.03-4.33c2.47-1.63 2.67-2.71 2.91-5.7.08-.94-.16-1.72-.71-2.32z"/><path fill="#FAEBEB" d="M53.8 40.56c-1.64-1.21-1.71-2.1-1.91-4.57-.05-.67.09-1.18.45-1.57.41-.44 1.01-.64 1.46-.73v6.87zM82.21 41.62v4.21c-.34.84-3.15 7.58-6.41 8.71-1.7.58-2.33 1.42-2.89 2.15-.72.94-1.34 1.76-4.35 2.01-3.1-.25-3.72-1.07-4.44-2.01-.56-.74-1.19-1.57-2.89-2.15-3.26-1.12-6.08-7.87-6.42-8.71V34.5l.04-.06s1.28-1.98 1.87-2.92c.07-.12.23-.27.41-.43.48-.42 1.31-.94 2.42-1.31.92-.31 2.02-.51 3.25-.47h.01c.32.01.63-.01.93-.05.07-.01.14-.02.2-.03.3-.05.58-.11.85-.2.01 0 .02-.01.02-.01.27-.09.52-.2.77-.32.05-.02.1-.05.14-.07.25-.13.48-.27.7-.42h.01c.23-.16.44-.32.64-.49.02-.01.04-.03.05-.04.61-.52 1.08-1.07 1.39-1.47.83 1.09 2.82 3.22 5.72 3.11 3.27-.1 5.64 1.51 6.08 2.21.58.93 1.87 2.92 1.87 2.92l.04.06v7.11zM85.12 35.99c-.2 2.47-.27 3.35-1.91 4.57V33.7c.45.09 1.05.28 1.46.73.35.38.5.89.45 1.56z"/><path fill="#231F20" d="M85.4 45.48c-.02.05-2.4 5.13-5.45 5.62-1.11.18-2.21-.31-3.27-1.45-.92-.98-1.5-1.72-1.96-2.31-.78-.99-1.23-1.52-2.07-1.82.31-.46.56-1.35-.2-2.86-.2-.39-.41-.79-.63-1.19-1.15-2.13-2.23-4.14-.74-5.69 2.77-2.88 5.39-.86 5.5-.77l.63-.78c-.03-.03-3.42-2.69-6.84.86-2 2.08-.63 4.62.58 6.86.21.39.42.78.61 1.16.46.92.52 1.65.17 1.97-.24.22-.63.2-.85.06l-.04.07c-.1-.01-.19-.02-.3-.03-1.07-.08-1.64.37-1.93.75-.03.04-.05.1-.08.15-.03-.05-.05-.1-.08-.15-.29-.38-.88-.82-1.93-.75-.11.01-.2.02-.3.03l-.04-.07c-.23.14-.61.16-.86-.06-.35-.32-.29-1.05.17-1.97.19-.38.4-.77.61-1.16 1.21-2.24 2.58-4.78.58-6.86-3.42-3.55-6.81-.88-6.84-.86l.63.78c.11-.09 2.7-2.12 5.5.77 1.49 1.55.41 3.56-.74 5.69-.22.4-.43.8-.63 1.19-.76 1.51-.5 2.4-.2 2.86-.84.3-1.29.82-2.07 1.82-.46.59-1.04 1.33-1.96 2.31-1.06 1.14-2.16 1.63-3.27 1.45-3.05-.49-5.43-5.57-5.46-5.62l-.92.39c2.28 5.78 2.34 5.86 2.39 5.93 2.08 2.91 4.73 4.46 7.55 4.46.39 0 .78-.03 1.18-.09 3.2-.48 5.8-2.85 6.47-4.85.07-.22.15-.47.23-.74.08.26.15.52.23.74.67 2.01 3.27 4.37 6.47 4.85.4.06.79.09 1.18.09 2.82 0 5.47-1.55 7.55-4.46.05-.06.1-.15 2.39-5.93l-.96-.39z"/><path fill="#D2D3D4" d="M67.33 51.01c-.56 1.68-2.89 3.76-5.67 4.18-2.03.31-5.02-.13-7.73-3.9-.04-.09-.26-.63-.56-1.38.98 1.06 2.18 1.97 3.54 2.19 1.46.24 2.86-.35 4.16-1.75.94-1.01 1.56-1.8 2.01-2.37 1.11-1.41 1.28-1.63 3.48-1.78.5-.04.86.08 1.07.36.51.66.4 2.36-.3 4.45zM83.12 51.22c-2.75 3.83-5.74 4.27-7.77 3.96-2.78-.42-5.11-2.5-5.67-4.18-.7-2.08-.81-3.79-.3-4.45.19-.25.49-.37.91-.37.05 0 .11 0 .17.01 2.19.15 2.36.37 3.48 1.78.45.57 1.07 1.36 2.01 2.37 1.3 1.4 2.71 1.98 4.16 1.75 1.36-.22 2.56-1.13 3.54-2.2-.3.75-.51 1.27-.53 1.33z"/><path fill="#231F20" d="M66.6 55.4l.54.84c.06-.03 1.38-.84 2.7.1l.58-.81c-1.88-1.34-3.74-.18-3.82-.13zM65.16 36.2h-1c0 .72-.58 1.3-1.3 1.3s-1.3-.59-1.3-1.3h-1c0 1.27 1.03 2.3 2.3 2.3 1.27.01 2.3-1.03 2.3-2.3zM74.15 37.51c-.72 0-1.31-.59-1.31-1.3h-1c0 1.27 1.03 2.3 2.31 2.3s2.3-1.03 2.3-2.3h-1c0 .71-.58 1.3-1.3 1.3zM56.52 48.14c.55.24 1.14.5 1.74.8l.56.28.15-.6c.49-1.95.03-4.31.01-4.41l-.05-.25-.23-.11c-2.29-1.09-3.98-3.43-4-3.45l-.91-1.27v6.91c.01.91 1.15 1.41 2.73 2.1z"/><path fill="#D2D3D4" d="M54.8 42.07c.73.8 1.87 1.85 3.24 2.56.08.53.26 1.87.08 3.12-.41-.19-.82-.37-1.2-.53-.82-.36-2.06-.9-2.13-1.18v-3.97z"/><path fill="#231F20" d="M78.18 49.21l.56-.28c.6-.3 1.19-.56 1.74-.8 1.58-.69 2.73-1.19 2.73-2.1v-6.92l-.91 1.27c-.02.02-1.7 2.35-4 3.45l-.23.11-.05.25c-.02.1-.48 2.46.01 4.41l.15.61z"/><path fill="#D2D3D4" d="M78.97 44.63c1.37-.71 2.51-1.77 3.24-2.56v3.97c-.07.28-1.31.83-2.13 1.18-.38.17-.78.34-1.19.53-.18-1.25-.01-2.59.08-3.12zM67.83 25.42c-.02.03-.05.06-.07.09-.04.05-.08.1-.12.16l-.03.03c-.59.74-1.73 1.91-3.27 2.4-.01 0-.02.01-.04.01-.13.04-.27.08-.41.1-.04.01-.08.02-.12.02-.12.02-.24.04-.36.05-.07.01-.15.01-.23.01-.12.01-.24.01-.37.01-.39-.01-.77 0-1.14.03-2.32.18-4.26 1.12-5.26 2.03-.23.21-.43.42-.56.62-.24.38-.6.95-.94 1.47v-1.36c.66-2.27 4.2-3.61 7.23-3.89 2.63-.25 4.73-1.98 5.86-3.13v1.09c-.03.05-.07.1-.12.18-.02.03-.03.05-.05.08zm-11.56 1.15c.7-.64 1.25-1.15 4.84-1.57 3.46-.4 5.74-2.17 6.89-3.34v.92c-.49.61-2.86 3.34-5.95 3.63-2.63.25-5.48 1.2-7.04 2.84.09-.47.25-1.15.57-1.92.27-.19.5-.39.69-.56zM69 21.66c1.16 1.17 3.43 2.94 6.89 3.34 3.59.42 4.14.93 4.84 1.57.17.16.38.33.62.52.31.75.49 1.42.59 1.92-1.58-1.61-4.39-2.55-6.99-2.79-3.09-.29-5.46-3.03-5.95-3.63v-.93zm11.17 3.28c-.75-.36-1.93-.68-4.15-.94-4.23-.49-6.56-3.27-7.01-3.86v-.36c.62.03 1.23.07 1.79.14.27.37 2.55 3.35 6.42 3.35.43 0 .88-.04 1.35-.13.64.59 1.16 1.19 1.6 1.8zm-7.83-4.75c2.12.44 3.79 1.18 5.09 2.07-2.45.09-4.18-1.16-5.09-2.07zm-7.77.1c-.92.88-2.58 2.03-4.89 1.98 1.26-.82 2.87-1.53 4.89-1.98zm-6.09 2.87c.45.08.89.12 1.31.12 3.73 0 5.98-2.77 6.38-3.29.58-.08 1.19-.14 1.83-.19v.35c-.45.59-2.77 3.36-7.01 3.86-2.25.26-3.43.58-4.18.95.45-.61 1-1.22 1.67-1.8zm22.67 7.83c-.72-1.16-3.39-2.69-6.61-2.69-.12 0-.23 0-.35.01-2.88.08-4.82-2.59-5.19-3.14v-1.09c1.13 1.15 3.22 2.88 5.86 3.13 3.03.28 6.57 1.62 7.23 3.89v1.36c-.34-.52-.7-1.08-.94-1.47z"/><path fill-rule="evenodd" clip-rule="evenodd" fill="#FFF" d="M30.83 9.67V6.24h-.37c-.06.3-.12.54-.41.54-.36 0-.94-.52-1.93-.52-2.35 0-2.73 2.15-2.73 3.12 0 .73 0 2.09 2.11 3.39l.83.51c.81.49 1.39.87 1.39 1.93 0 .21-.06 1.77-1.55 1.77-1.57 0-2.28-1.79-2.53-3.39h-.36v3.91h.36c.05-.25.11-.54.37-.54.38 0 .94.54 2.11.54 2.27 0 3.06-1.92 3.06-3.31 0-1.73-.94-2.64-1.36-2.91L28 10.12c-1.04-.67-1.27-1.01-1.27-1.87 0-1.03.68-1.5 1.32-1.5 1.46 0 2.2 1.82 2.42 2.93h.36zM39.35 13.6H39c-.57 1.79-1.26 3.1-3.13 3.1-.83 0-1.1-.13-1.1-.89V8.34c0-1.39.38-1.41 1.25-1.46v-.39h-4.31v.39c.56.05 1.06.08 1.06 1.12v7.67c0 .96-.37 1.01-1.06 1.12v.4h7.14l.5-3.59zM47.98 16.8c-.59.03-.79-.51-1.35-2.2l-2.75-8.33h-.35l-2.74 8.68c-.37 1.19-.54 1.73-1.21 1.85v.4h2.51v-.4c-.42-.03-1.01-.08-1.01-.68 0-.25.2-.9.54-2.04h2.78c.17.51.57 1.68.57 2.11 0 .52-.22.54-.99.62v.4h4v-.41zm-6.18-3.34l1.16-3.85 1.25 3.85H41.8zM48.33 17.2h4.13v-.4c-.85-.14-1.09-.18-1.09-1.46V12.4c1.63-.01 2.26-.03 3.05-.6.99-.71 1.12-1.84 1.12-2.39 0-2.68-2.25-2.91-3.24-2.91h-3.98v.4c.65.08 1.04.13 1.04 1.46v7c0 .89-.17 1.09-.32 1.23-.09.08-.11.09-.72.22v.39zm3.04-9.6c.01-.35.17-.55.59-.55 1.01 0 1.46.6 1.46 2.41 0 1.96-.56 2.42-2.05 2.39V7.6zM55.63 6.89c.57.05 1.09.08 1.09 1.12v7.66c0 .98-.39 1.03-1.09 1.13v.4h7.22l.49-3.29H63c-.78 2.39-2.04 2.8-3.25 2.8-.8 0-1.04-.19-1.04-.89v-3.83c1.22 0 1.85.47 2 2.45h.32V9.09h-.32c-.19 1.96-.82 2.38-2 2.36V7.77c0-.68.22-.74.9-.74 1.67 0 2.55.4 2.83 2.64h.31V6.49h-7.13v.4zM74.14 12.51v.27c.45.07.57.09.57.5 0 .54-.38 1.14-.66 1.58l-1.32-2.39c.57-.25 1.33-.73 1.33-1.64 0-.6-.36-1.35-1.46-1.35-.78 0-1.69.43-1.69 1.79 0 .5.15.95.45 1.6-.57.36-1.71 1.06-1.71 2.53 0 1.33.83 1.98 1.67 1.98.89 0 1.6-.64 1.93-.97.33.47.69.98 1.33.98.15 0 .65-.08 1.01-.63.02-.02.38-.78.39-.79l-.18-.13c-.1.25-.28.42-.5.42-.41 0-.68-.41-1.05-1.02.57-1.01.57-1.01 1.05-2 .15-.3.24-.4.64-.45v-.27h-1.8zm-3.28 1.78c0-.49.18-.76.65-1.1l.42.8c.35.67.79 1.52 1.12 2.08-.24.22-.51.43-.78.43-.83.01-1.41-1.45-1.41-2.21m1.06-3.79c0-.54.24-.66.46-.66.5 0 .79.83.79 1.39 0 .64-.38.82-.61.92-.2-.33-.64-1.08-.64-1.65M86.18 9.67V6.24h-.37c-.06.3-.13.54-.41.54-.36 0-.94-.52-1.93-.52-2.35 0-2.73 2.15-2.73 3.12 0 .73 0 2.09 2.11 3.39l.83.51c.8.49 1.38.87 1.38 1.93 0 .21-.06 1.77-1.54 1.77-1.57 0-2.28-1.79-2.53-3.39h-.36v3.91h.36c.05-.25.11-.54.37-.54.38 0 .94.54 2.11.54 2.27 0 3.06-1.92 3.06-3.31 0-1.73-.94-2.64-1.36-2.91l-1.82-1.16c-1.04-.67-1.27-1.01-1.27-1.87 0-1.03.68-1.5 1.32-1.5 1.46 0 2.2 1.82 2.42 2.93h.36zM91.63 6.78c1.73 0 2.19 2.79 2.19 5.1 0 1.38-.08 5.1-2.19 5.1s-2.19-3.72-2.19-5.1c0-2.32.46-5.1 2.19-5.1m0-.53c-2.38 0-4.37 2.17-4.37 5.62 0 3.33 1.84 5.62 4.37 5.62 2.53 0 4.37-2.3 4.37-5.62 0-3.45-1.99-5.62-4.37-5.62M96.38 17.2h2.8v-.4c-.91-.13-1.17-.43-1.17-1.57V8.9h.02l5.5 8.58h.35V8.15c0-.76.07-1.13.96-1.27v-.4h-2.65v.4c1 .1 1.15.62 1.15 1.57v4.8h-.02l-4.28-6.76h-2.61v.4c.16 0 .36.05 1.05 1.14v7.51c0 1.05-.35 1.16-1.09 1.27v.39zM110.83 9.67V6.24h-.37c-.06.3-.13.54-.41.54-.36 0-.94-.52-1.93-.52-2.34 0-2.73 2.15-2.73 3.12 0 .73 0 2.09 2.11 3.39l.83.51c.8.49 1.38.87 1.38 1.93 0 .21-.06 1.77-1.54 1.77-1.57 0-2.29-1.79-2.53-3.39h-.36v3.91h.36c.05-.25.11-.54.37-.54.38 0 .94.54 2.11.54 2.27 0 3.06-1.92 3.06-3.31 0-1.73-.94-2.64-1.36-2.91L108 10.12c-1.04-.67-1.27-1.01-1.27-1.87 0-1.03.68-1.5 1.32-1.5 1.46 0 2.2 1.82 2.42 2.93h.36z"/><path fill="#FFF" d="M24.1 75.72c.4.24.8.52 1.14.83.15-.31.31-.68.44-1.03-.05-.16-.25-.31-.69-.41-.2.14-.52.36-.89.61zM112.01 75.11c-.45.1-.64.25-.68.32.13.4.29.8.44 1.12.34-.31.75-.59 1.14-.83-.37-.25-.69-.47-.9-.61z"/></svg>