<?xml version="1.0" encoding="utf-8"?>
<!-- Generator: Adobe Illustrator 22.0.1, SVG Export Plug-In . SVG Version: 6.00 Build 0)  -->
<svg version="1.1" id="Layer_1" xmlns="http://www.w3.org/2000/svg" xmlns:xlink="http://www.w3.org/1999/xlink" x="0px" y="0px"
	 viewBox="0 0 264.635 61.902" enable-background="new 0 0 264.635 61.902" xml:space="preserve">
<path fill="#FFFFFF" d="M147.447,58.694h-16.558v-9.747h3.47v8.566h13.088V58.694z M158.176,57.905c1.714,0,3.075-0.227,4.08-0.688
	c1.003-0.46,1.505-1.144,1.505-2.048c0-0.466-0.139-0.87-0.407-1.217c-0.276-0.348-0.661-0.634-1.16-0.859
	c-0.496-0.228-1.082-0.399-1.769-0.518c-0.68-0.12-1.432-0.181-2.249-0.181c-0.84,0-1.606,0.063-2.282,0.19
	c-0.684,0.124-1.272,0.305-1.76,0.536c-0.488,0.235-0.865,0.52-1.14,0.86c-0.272,0.34-0.407,0.738-0.407,1.189
	c0,0.893,0.5,1.573,1.503,2.039C155.098,57.676,156.454,57.905,158.176,57.905z M158.183,51.461c1.395,0,2.654,0.083,3.776,0.249
	c1.121,0.168,2.081,0.404,2.877,0.717c0.795,0.309,1.405,0.693,1.83,1.154c0.428,0.458,0.639,0.985,0.639,1.577
	c0,0.597-0.222,1.125-0.668,1.583c-0.444,0.457-1.069,0.846-1.874,1.16c-0.806,0.315-1.759,0.553-2.877,0.71
	c-1.113,0.153-2.346,0.231-3.703,0.231c-1.337,0-2.563-0.078-3.675-0.231c-1.115-0.157-2.071-0.395-2.874-0.71
	c-0.807-0.314-1.428-0.703-1.861-1.16c-0.439-0.458-0.655-0.986-0.655-1.583c0-0.605,0.216-1.138,0.655-1.594
	c0.433-0.46,1.054-0.845,1.861-1.159c0.803-0.308,1.759-0.543,2.874-0.705C155.62,51.542,156.846,51.461,158.183,51.461z
	 M182.591,56.672v-3.44c-1.516-0.559-3.222-0.838-5.129-0.838c-1.473,0-2.659,0.234-3.555,0.701
	c-0.888,0.464-1.337,1.17-1.337,2.112c0,0.892,0.421,1.566,1.271,2.021c0.84,0.454,2.002,0.677,3.479,0.677
	C179.221,57.905,180.978,57.497,182.591,56.672z M186.059,58.141c0,2.272-2.819,3.409-8.444,3.409c-1.217,0-2.311-0.054-3.281-0.157
	c-0.971-0.105-1.793-0.245-2.481-0.424c-0.689-0.178-1.217-0.398-1.582-0.661c-0.368-0.267-0.553-0.557-0.553-0.875h3.544
	c0,0.788,1.421,1.181,4.272,1.181c0.754,0,1.448-0.033,2.077-0.093c0.631-0.063,1.164-0.183,1.601-0.364
	c0.435-0.183,0.777-0.426,1.015-0.736c0.243-0.314,0.364-0.706,0.364-1.179v-0.355c-1.548,0.637-3.392,0.955-5.536,0.955
	c-1.259,0-2.378-0.085-3.354-0.25c-0.979-0.168-1.808-0.408-2.497-0.718c-0.685-0.308-1.21-0.691-1.56-1.144
	c-0.365-0.45-0.543-0.962-0.543-1.535c0-0.569,0.203-1.087,0.611-1.55c0.404-0.465,0.97-0.859,1.696-1.182
	c0.725-0.324,1.583-0.57,2.581-0.745c0.998-0.172,2.096-0.257,3.292-0.257c2.112,0,3.878,0.23,5.31,0.685v-0.54h3.468V58.141z
	 M192.5,51.606h-3.468v7.088h3.468V51.606z M192.5,48.947h-3.468v1.33h3.468V48.947z M206.411,58.676
	c0.973-0.111,1.795-0.271,2.478-0.48c0.677-0.204,1.198-0.441,1.56-0.714c0.36-0.276,0.542-0.569,0.542-0.878
	c0-0.334-0.151-0.617-0.44-0.845c-0.29-0.231-0.724-0.424-1.293-0.579c-0.576-0.156-1.295-0.289-2.171-0.402
	c-0.874-0.113-1.892-0.215-3.058-0.317c-1.263-0.125-2.242-0.22-2.952-0.291c-0.71-0.067-1.235-0.141-1.587-0.215
	c-0.349-0.077-0.562-0.161-0.638-0.257c-0.08-0.091-0.117-0.208-0.117-0.345c0-0.165,0.105-0.306,0.319-0.422
	c0.217-0.121,0.506-0.217,0.873-0.292c0.372-0.075,0.798-0.133,1.284-0.18c0.488-0.044,1.003-0.065,1.55-0.065
	c2.644,0,4.026,0.344,4.141,1.036h3.469c-0.115-1.316-2.721-1.969-7.812-1.969c-1.109,0-2.116,0.053-3.021,0.158
	c-0.906,0.105-1.669,0.248-2.302,0.431c-0.635,0.184-1.118,0.395-1.46,0.641c-0.341,0.244-0.511,0.514-0.511,0.818
	c0,0.324,0.127,0.596,0.376,0.815c0.253,0.221,0.653,0.408,1.198,0.566c0.543,0.156,1.224,0.282,2.049,0.384
	c0.827,0.1,1.82,0.208,2.984,0.32c1.18,0.101,2.145,0.188,2.882,0.269c0.733,0.082,1.309,0.161,1.714,0.243
	c0.407,0.083,0.687,0.175,0.835,0.281c0.139,0.106,0.217,0.233,0.217,0.381c0,0.349-0.371,0.627-1.109,0.833
	c-0.737,0.204-1.837,0.304-3.296,0.304c-3.191,0-4.803-0.441-4.841-1.328h-3.471c0.233,1.51,3.013,2.265,8.337,2.265
	C204.348,58.842,205.439,58.785,206.411,58.676z M221.413,57.831c-0.269,0.024-0.548,0.04-0.829,0.047
	c-0.283,0.006-0.571,0.007-0.885,0.007c-0.293,0-0.56-0.012-0.8-0.04c-0.243-0.023-0.44-0.074-0.598-0.157
	c-0.156-0.082-0.277-0.201-0.36-0.353c-0.089-0.152-0.13-0.356-0.13-0.61v-4.159h3.139V51.63h-3.139v-1.746h-3.469v1.746h-2.388
	v0.936h2.388v4.066c0,0.339,0.033,0.649,0.101,0.923c0.065,0.276,0.252,0.507,0.549,0.697c0.302,0.189,0.768,0.332,1.385,0.426
	c0.625,0.093,1.479,0.138,2.567,0.138c0.443,0,0.869-0.009,1.28-0.028c0.411-0.021,0.808-0.041,1.189-0.07V57.831z M227.21,51.606
	h-3.466v7.088h3.466V51.606z M227.21,48.947h-3.466v1.33h3.466V48.947z M241.433,58.702c0.904-0.091,1.707-0.234,2.411-0.425
	c0.69-0.193,1.269-0.432,1.723-0.716c0.436-0.28,0.718-0.613,0.837-0.984h-3.469c-0.036,0.236-0.187,0.431-0.43,0.6
	c-0.253,0.167-0.563,0.305-0.957,0.412c-0.399,0.108-0.856,0.19-1.378,0.241c-0.517,0.051-1.056,0.075-1.607,0.075
	c-1.736,0-3.112-0.229-4.128-0.697c-1.015-0.466-1.521-1.146-1.521-2.039c0-0.451,0.149-0.849,0.41-1.189
	c0.284-0.34,0.662-0.625,1.151-0.86c0.502-0.231,1.09-0.412,1.777-0.536c0.695-0.127,1.465-0.19,2.311-0.19
	c0.551,0,1.09,0.031,1.607,0.086c0.522,0.057,0.979,0.145,1.378,0.256c0.394,0.114,0.704,0.253,0.957,0.418
	c0.243,0.164,0.394,0.355,0.43,0.569h3.469c-0.119-0.346-0.388-0.664-0.802-0.946c-0.418-0.285-0.965-0.522-1.643-0.717
	c-0.683-0.193-1.479-0.34-2.391-0.441c-0.914-0.105-1.92-0.158-3.034-0.158c-1.338,0-2.569,0.081-3.682,0.239
	c-1.112,0.162-2.076,0.397-2.886,0.705c-0.807,0.314-1.431,0.699-1.867,1.159c-0.436,0.456-0.652,0.989-0.652,1.594
	c0,0.597,0.216,1.125,0.652,1.583c0.436,0.457,1.06,0.846,1.867,1.16c0.81,0.315,1.774,0.553,2.886,0.71
	c1.113,0.153,2.344,0.231,3.682,0.231C239.566,58.842,240.532,58.795,241.433,58.702z M259.599,58.676
	c0.97-0.111,1.799-0.271,2.475-0.48c0.683-0.204,1.203-0.441,1.563-0.714c0.361-0.276,0.5389-0.569,0.5389-0.878
	c0-0.334-0.1429-0.617-0.437-0.845c-0.299-0.231-0.72-0.424-1.293-0.579c-0.58-0.156-1.299-0.289-2.172-0.402
	c-0.88-0.113-1.893-0.215-3.048-0.317c-1.261-0.125-2.255-0.22-2.959-0.291c-0.709-0.067-1.24-0.141-1.589-0.215
	c-0.353-0.077-0.566-0.161-0.641-0.257c-0.077-0.091-0.116-0.208-0.116-0.345c0-0.165,0.11-0.306,0.32-0.422
	c0.209-0.121,0.504-0.217,0.877-0.292c0.369-0.075,0.795-0.133,1.283-0.18c0.484-0.044,1.006-0.065,1.547-0.065
	c2.642,0,4.029,0.344,4.139,1.036h3.47c-0.12-1.316-2.721-1.969-7.809-1.969c-1.112,0-2.121,0.053-3.025,0.158
	c-0.902,0.105-1.669,0.248-2.301,0.431c-0.638,0.184-1.119,0.395-1.465,0.641c-0.341,0.244-0.507,0.514-0.507,0.818
	c0,0.324,0.125,0.596,0.38,0.815c0.249,0.221,0.649,0.408,1.196,0.566c0.533,0.156,1.223,0.282,2.052,0.384
	c0.823,0.1,1.812,0.208,2.975,0.32c1.196,0.101,2.149,0.188,2.89,0.269c0.735,0.082,1.308,0.161,1.715,0.243
	c0.409,0.083,0.688,0.175,0.834,0.281c0.141,0.106,0.213,0.233,0.213,0.381c0,0.349-0.367,0.627-1.106,0.833
	c-0.738,0.204-1.834,0.304-3.3,0.304c-3.183,0-4.8-0.441-4.84-1.328h-3.469c0.231,1.51,3.012,2.265,8.335,2.265
	C257.535,58.842,258.623,58.785,259.599,58.676z M3.738,35.082c0,0,16.373,0.293,21.462-0.952
	c5.088-1.245,13.324-4.32,13.324-12.548c0-6.25-6.293-11.254-13.078-13.672C18.661,5.494,17.059,0,17.059,0L3.697,0.049
	c0,0,0.308,9.805,12.045,14.571c11.741,4.765,7.866,12.096,0.737,12.096c-7.13,0-12.782,0-12.782,0L3.738,35.082z M229.846,35.082
	c0,0,16.376,0.293,21.467-0.952c5.087-1.245,13.322-4.32,13.322-12.548c0-6.25-6.291-11.254-13.078-13.672
	C244.775,5.494,243.168,0,243.168,0l-13.36,0.049c0,0,0.309,9.805,12.049,14.571c11.734,4.765,7.863,12.096,0.73,12.096
	c-7.126,0-12.779,0-12.779,0L229.846,35.082z M70.718,13.866c0,6.154,0,12.867,0,12.867h12.029c0,0,0-9.205,0-14.625
	C82.747,5.714,78.367,0,68.374,0c-9.99,0-16.158,0-16.158,0H40.189v26.733h12.027c0,0,0-15.992,0-18.287
	C65.414,8.446,70.718,7.711,70.718,13.866z M119.198,8.446c0,2.295,0,18.287,0,18.287h12.029V0h-12.029c0,0-6.198,0-10.268,0
	C94.496,0,85.523,5.639,85.523,12.108c0,6.47,3.607,14.625,18.225,14.625c0,0.073,10.455,0,10.455,0s0-6.665,0-8.277
	c-9.343,0-15.406-0.365-15.406-5.345S108.79,8.446,119.198,8.446z M215.607,8.446c-0.006,0.001-8.518,6.765-8.518,6.765h12.526
	l8.02-6.787V0h-12.028c0,0-6.199,0-10.267,0c-14.437,0-23.41,5.639-23.41,12.108c0,6.47,3.606,14.625,18.226,14.625
	c0,0.063,7.723,0.018,9.893,0.004c0.356-0.002,17.586-0.004,17.586-0.004v-8.277c0,0-17.564,0-17.83-0.001
	c-8.886-0.022-14.599-0.509-14.599-5.344C195.206,8.131,205.199,8.446,215.607,8.446z M166.427,13.111
	c0,4.98-6.06,5.345-15.404,5.345c0,1.612,0,8.277,0,8.277s4.004,0,5.363,0c17.95,0,23.315-8.171,23.315-13.647
	C179.701,5.519,170.73,0,156.297,0c-4.069,0-10.267,0-10.267,0h-12.028v35.129h12.028c0,0,0-24.388,0-26.683
	C156.435,8.446,166.427,8.131,166.427,13.111z"/>
<path fill="#E5302D" d="M0,59.177v-9.253h7.804c2.958,0,4.888,0.048,5.786,0.14c1.38,0.139,2.535,0.44,3.467,0.906
	c0.932,0.465,1.396,1.067,1.396,1.804c0,0.568-0.268,1.045-0.803,1.434c-0.536,0.387-1.219,0.691-2.044,0.913
	c-0.826,0.22-1.665,0.366-2.518,0.438c-1.159,0.089-2.838,0.132-5.038,0.132H4.883v3.486H0z M4.883,51.477v2.662H7.53
	c1.905,0,3.179-0.049,3.821-0.147c0.642-0.098,1.146-0.252,1.512-0.461c0.364-0.209,0.546-0.452,0.546-0.729
	c0-0.341-0.255-0.623-0.768-0.845c-0.51-0.222-1.158-0.36-1.942-0.416c-0.578-0.043-1.738-0.064-3.48-0.064H4.883z"/>
<path fill="#E5302D" d="M26.903,59.177H22.26v-6.718h4.283v0.954c0.737-0.451,1.4-0.748,1.987-0.893
	c0.588-0.146,1.257-0.219,2.005-0.219c1.057,0,2.074,0.111,3.052,0.333l-1.421,1.542c-0.779-0.194-1.502-0.291-2.171-0.291
	c-0.647,0-1.195,0.069-1.644,0.207c-0.452,0.138-0.804,0.386-1.062,0.746c-0.257,0.359-0.386,1.112-0.386,2.259V59.177z"/>
<path fill="#E5302D" d="M34.505,55.723c0-0.59,0.378-1.163,1.136-1.717c0.756-0.554,1.825-0.977,3.212-1.268
	c1.386-0.291,2.932-0.437,4.642-0.437c2.642,0,4.805,0.33,6.494,0.992c1.686,0.661,2.53,1.497,2.53,2.507
	c0,1.018-0.852,1.862-2.556,2.531c-1.704,0.67-3.849,1.004-6.435,1.004c-1.599,0-3.124-0.139-4.577-0.418
	c-1.452-0.279-2.554-0.686-3.31-1.226C34.883,57.152,34.505,56.497,34.505,55.723z M39.269,55.817c0,0.666,0.409,1.177,1.226,1.53
	c0.817,0.354,1.826,0.531,3.026,0.531c1.199,0,2.205-0.177,3.017-0.531c0.811-0.353,1.217-0.867,1.217-1.541
	c0-0.657-0.406-1.162-1.217-1.517c-0.812-0.352-1.818-0.531-3.017-0.531c-1.2,0-2.209,0.179-3.026,0.531
	C39.678,54.644,39.269,55.152,39.269,55.817z"/>
<path fill="#E5302D" d="M60.677,52.459v6.509c0,0.855-0.146,1.46-0.437,1.812s-0.849,0.627-1.677,0.825
	c-0.828,0.198-1.884,0.297-3.166,0.297c-0.461,0-0.957-0.016-1.49-0.047c-0.531-0.032-1.103-0.08-1.717-0.142l0.821-1.514
	c0.216,0.016,0.42,0.03,0.607,0.04c0.19,0.01,0.366,0.015,0.529,0.015c0.467,0,0.848-0.038,1.145-0.116
	c0.299-0.078,0.495-0.173,0.593-0.281c0.098-0.111,0.147-0.44,0.147-0.988v-6.41H60.677z M56.032,51.571v-1.647h4.645v1.647H56.032z
	"/>
<path fill="#E5302D" d="M75.693,57.054l4.602,0.285c-0.593,0.651-1.529,1.146-2.808,1.487c-1.279,0.34-2.88,0.509-4.801,0.509
	c-3.043,0-5.293-0.382-6.753-1.146c-1.153-0.613-1.729-1.387-1.729-2.32c0-1.115,0.756-1.988,2.272-2.62
	c1.513-0.632,3.43-0.948,5.745-0.948c2.6,0,4.655,0.33,6.159,0.99c1.503,0.661,2.221,1.671,2.157,3.034H68.968
	c0.032,0.521,0.404,0.925,1.116,1.214c0.713,0.289,1.601,0.434,2.664,0.434c0.723,0,1.332-0.072,1.826-0.217
	C75.067,57.61,75.441,57.377,75.693,57.054z M75.932,55.247c-0.033-0.516-0.377-0.911-1.032-1.18
	c-0.656-0.269-1.453-0.404-2.392-0.404c-1.006,0-1.836,0.143-2.493,0.427c-0.654,0.284-0.978,0.67-0.965,1.157H75.932z"/>
<path fill="#E5302D" d="M99.576,54.392l-4.563,0.317c-0.154-0.347-0.504-0.607-1.048-0.782c-0.544-0.176-1.252-0.264-2.121-0.264
	c-1.155,0-2.076,0.154-2.764,0.463c-0.688,0.31-1.032,0.825-1.032,1.549c0,0.805,0.349,1.373,1.047,1.706
	c0.698,0.331,1.635,0.497,2.812,0.497c0.878,0,1.598-0.098,2.159-0.292c0.56-0.195,0.956-0.53,1.188-1.008l4.562,0.285
	c-0.472,0.817-1.379,1.433-2.723,1.848c-1.341,0.416-3.141,0.624-5.394,0.624c-2.565,0-4.606-0.31-6.128-0.931
	c-1.524-0.621-2.287-1.481-2.287-2.579c0-1.111,0.765-1.976,2.292-2.595c1.528-0.62,3.594-0.929,6.201-0.929
	c2.131,0,3.828,0.172,5.087,0.516C98.121,53.162,99.028,53.687,99.576,54.392z"/>
<path fill="#E5302D" d="M111.132,52.459v1.426h-3.163v2.718c0,0.549,0.03,0.871,0.09,0.962c0.058,0.091,0.193,0.166,0.405,0.224
	c0.21,0.06,0.468,0.089,0.772,0.089c0.421,0,1.034-0.056,1.835-0.171l0.381,1.366c-1.068,0.175-2.28,0.262-3.63,0.262
	c-0.83,0-1.576-0.053-2.239-0.16c-0.667-0.107-1.155-0.246-1.465-0.418c-0.309-0.17-0.524-0.401-0.645-0.692
	c-0.098-0.208-0.148-0.624-0.148-1.251v-2.929h-2.121v-1.426h2.121v-1.3l4.644-1.045v2.345H111.132z"/>
</svg>
