<?xml version="1.0" encoding="utf-8"?>
<!-- Generator: Adobe Illustrator 22.0.1, SVG Export Plug-In . SVG Version: 6.00 Build 0)  -->
<svg version="1.1" id="Layer_1" xmlns="http://www.w3.org/2000/svg" xmlns:xlink="http://www.w3.org/1999/xlink" x="0px" y="0px"
	 viewBox="0 0 260.938 35.129" enable-background="new 0 0 260.938 35.129" xml:space="preserve">
<path fill="#00AEEF" d="M0.041,35.082c0,0,16.373,0.293,21.462-0.952c5.088-1.245,13.324-4.32,13.324-12.548
	c0-6.25-6.293-11.254-13.078-13.672C14.964,5.494,13.362,0,13.362,0L0,0.049c0,0,0.308,9.805,12.045,14.571
	c11.741,4.765,7.866,12.096,0.737,12.096c-7.13,0-12.782,0-12.782,0L0.041,35.082z"/>
<path fill="#00AEEF" d="M226.149,35.082c0,0,16.376,0.293,21.467-0.952c5.087-1.245,13.322-4.32,13.322-12.548
	c0-6.25-6.291-11.254-13.078-13.672C241.078,5.494,239.471,0,239.471,0l-13.36,0.049c0,0,0.309,9.805,12.049,14.571
	c11.734,4.765,7.863,12.096,0.73,12.096c-7.126,0-12.779,0-12.779,0L226.149,35.082z"/>
<path fill="#00AEEF" d="M67.021,13.866c0,6.154,0,12.867,0,12.867H79.05c0,0,0-9.205,0-14.625C79.05,5.714,74.67,0,64.677,0
	c-9.99,0-16.158,0-16.158,0H36.492v26.733h12.027c0,0,0-15.992,0-18.287C61.717,8.446,67.021,7.711,67.021,13.866z"/>
<path fill="#00AEEF" d="M115.501,8.446c0,2.295,0,18.287,0,18.287h12.029V0h-12.029c0,0-6.198,0-10.268,0
	C90.799,0,81.826,5.639,81.826,12.108c0,6.47,3.607,14.625,18.225,14.625c0,0.073,10.455,0,10.455,0s0-6.665,0-8.277
	c-9.343,0-15.406-0.365-15.406-5.345S105.093,8.446,115.501,8.446z"/>
<path fill="#00AEEF" d="M211.91,8.446c-0.006,0.001-8.518,6.765-8.518,6.765h12.526l8.02-6.787V0H211.91c0,0-6.199,0-10.267,0
	c-14.437,0-23.41,5.639-23.41,12.108c0,6.47,3.606,14.625,18.226,14.625c0,0.063,7.723,0.018,9.893,0.004
	c0.356-0.002,17.586-0.004,17.586-0.004v-8.277c0,0-17.564,0-17.83-0.001c-8.886-0.022-14.599-0.509-14.599-5.344
	C191.509,8.131,201.502,8.446,211.91,8.446z"/>
<path fill="#00AEEF" d="M162.73,13.111c0,4.98-6.06,5.345-15.404,5.345c0,1.612,0,8.277,0,8.277s4.004,0,5.363,0
	c17.95,0,23.315-8.171,23.315-13.647C176.004,5.519,167.033,0,152.6,0c-4.069,0-10.267,0-10.267,0h-12.028v35.129h12.028
	c0,0,0-24.388,0-26.683C152.738,8.446,162.73,8.131,162.73,13.111z"/>
</svg>
