<?xml version="1.0" encoding="utf-8"?>
<!-- Generator: Adobe Illustrator 22.0.1, SVG Export Plug-In . SVG Version: 6.00 Build 0)  -->
<svg version="1.1" id="Layer_1" xmlns="http://www.w3.org/2000/svg" xmlns:xlink="http://www.w3.org/1999/xlink" x="0px" y="0px"
	 viewBox="0 0 67.48 8.59" enable-background="new 0 0 67.48 8.59" xml:space="preserve">
<g>
	<path d="M6.07,4.19C7.28,4.47,7.84,5.11,7.84,5.7c0,2.39-4.19,2.77-5.91,2.77c-0.47,0-1.93,0-1.93-0.7C0,7.52,0.42,6.88,0.61,6.7
		c0.14-0.12,0.85-0.35,1.03-0.35c0.06,0,0.1,0.01,0.1,0.08c0,0.12-0.12,0.18-0.2,0.23C1.46,6.72,1.4,6.78,1.33,6.85v0.02
		C5.61,7.03,6.79,5.79,6.79,5.6c0-0.61-3.32-1.09-3.9-1.19c-0.6-0.1-1.22-0.29-1.22-1.01c0-0.4,0.19-1.27,0.38-1.6
		C2.42,1.2,4.59,0.06,7.22,0.06c0.5,0,1.01,0.06,1.51,0.17c0.28,0.06,0.31,0.16,0.31,0.4c0,0.89-0.3,1.09-1.01,1.37
		C7.52,2.18,7.42,2.24,6.96,2.58C6.87,2.63,6.75,2.7,6.66,2.7c-0.12,0-0.19-0.06-0.19-0.18c0-0.02,0.23-0.4,0.88-0.84L7.32,1.66
		c-3.09,0.11-4.43,1.22-4.44,1.5C2.88,3.32,2.72,3.41,6.07,4.19z"/>
	<path d="M13.37,6.49c-0.54,0.68-1.07,0.97-1.94,0.97c-0.5,0.52-1.09,0.9-1.85,0.9c-0.62,0-1.2-0.62-1.25-1.71
		c-0.02-0.9,0.42-1.5,1.09-2.02c0.65-0.53,1.51-0.85,2.24-0.89c0.26-0.01,0.66,0.11,0.66,0.43c0,0.18-0.14,0.25-0.28,0.32
		c0.36,0.1,0.43,0.35,0.43,0.71c0,0.53-0.24,0.95-0.47,1.42c0.53,0.1,0.86-0.36,1.24-0.64L13.37,6.49z M9.71,5.92
		c-0.26,0.26-0.49,0.73-0.49,1.1c0,0.35,0.23,0.46,0.53,0.46c0.4,0,0.65-0.23,0.92-0.48c-0.08-0.19-0.14-0.35-0.14-0.55
		c0-0.62,0.56-1.38,0.52-1.4C10.63,5.29,10.07,5.58,9.71,5.92z"/>
	<path d="M18.84,5.91l0.1,0.53C18.3,7,17.06,8.48,16.19,8.48c-0.46,0-0.67-0.38-0.67-0.79c0-0.72,0.65-1.51,1.03-2.06L16.52,5.6
		c-0.7,0.52-1.31,1.14-1.85,1.83c-0.18,0.23-0.62,0.82-0.95,0.82c-0.53,0-0.66-0.76-0.67-1.16c-0.04-0.83,0.72-2.04,1.42-2.63
		c0.16-0.13,0.26-0.14,0.47-0.14c0.72,0.02,0.66,0.19,0.66,0.26c0,0.47-1.51,1.68-1.51,1.97c0,0.07,0.06,0.13,0.13,0.13
		c0.08,0,0.19-0.11,0.24-0.17c0.96-1.22,3.17-2.7,3.51-2.7c0.05,0,0.12,0.06,0.19,0.23c0.07,0.18,0.14,0.4,0.18,0.65
		c0,0.47-1.48,1.38-1.48,2.21c0,0.11,0.1,0.22,0.22,0.22c0.29,0,0.82-0.42,1.03-0.6L18.84,5.91z"/>
	<path d="M23.64,6.49c-0.54,0.68-1.07,0.97-1.94,0.97c-0.5,0.52-1.09,0.9-1.85,0.9c-0.62,0-1.2-0.62-1.25-1.71
		c-0.02-0.9,0.42-1.5,1.09-2.02c0.65-0.53,1.51-0.85,2.24-0.89c0.26-0.01,0.66,0.11,0.66,0.43c0,0.18-0.14,0.25-0.28,0.32
		c0.36,0.1,0.43,0.35,0.43,0.71c0,0.53-0.24,0.95-0.47,1.42c0.53,0.1,0.86-0.36,1.24-0.64L23.64,6.49z M19.98,5.92
		c-0.26,0.26-0.49,0.73-0.49,1.1c0,0.35,0.23,0.46,0.53,0.46c0.4,0,0.65-0.23,0.92-0.48c-0.08-0.19-0.14-0.35-0.14-0.55
		c0-0.62,0.56-1.38,0.52-1.4C20.9,5.29,20.34,5.58,19.98,5.92z"/>
	<path d="M26.9,5.1c0.25-0.23,1.43-1.37,1.73-1.37c0.1,0,0.23,0.04,0.28,0.66c0.02,0.29-0.3,0.56-0.49,0.73
		c-0.38,0.35-1.24,1.29-1.24,1.83c0,0.19,0.11,0.26,0.3,0.26c0.46,0,1.49-0.84,1.85-1.13l0.07,0.52c-0.61,0.59-1.88,1.97-2.77,1.97
		c-0.44,0-0.71-0.37-0.71-0.79c0-0.36,0.13-0.7,0.25-1.01l-0.02-0.02c-0.47,0.41-1.27,1.49-1.93,1.49c-0.59,0-0.91-0.67-0.91-1.19
		c0-1.16,0.9-2.36,1.67-2.87c0.17-0.11,0.32-0.13,0.53-0.13c0.17,0,0.78-0.11,0.73,0.25c-0.02,0.19-0.35,0.53-0.48,0.64
		c-0.37,0.42-0.44,0.53-0.91,0.86c-0.37,0.26-0.66,0.53-0.66,1.03c0,0.06,0.01,0.18,0.1,0.18c0.22,0,0.88-0.35,1.44-0.85L26.9,5.1z"
		/>
	<path d="M31.19,7.47c-0.23,0.18-1,0.8-1.27,0.8c-0.34,0-1.03-0.79-1.06-1.42c-0.05-1.5,3.07-3.03,4.46-3.07
		c0.55-0.01,0.78,0.43,0.78,0.58s-0.31,0.26-0.42,0.3c0.23,0.1,0.35,0.23,0.35,0.49c0,0.38-1.04,1.22-1.04,1.79
		c0,0.2,0.18,0.29,0.37,0.29c0.5,0,1.19-0.61,1.7-0.96l0.1,0.44c-0.52,0.59-2.12,1.87-2.71,1.87c-0.4,0-0.58-0.29-0.58-0.64
		c0-0.38,0.29-1.02,0.44-1.34l-0.02-0.02L31.19,7.47z M29.74,7.16c0.01,0.06,0.06,0.28,0.24,0.24c0.24-0.05,0.61-0.01,2.99-2.41
		l-0.02-0.02C30.08,5.84,29.74,6.57,29.74,7.16z"/>
	<path d="M47.08,5.94c0,0.68-1.48,2.3-4.7,2.48c-0.86,0.05-2.06-0.24-2.06-1.33c0-0.38-0.06-0.44,1.33-2.28
		c-0.34-0.02-1.1-0.06-1.1-0.47c0-0.52,1.68-0.54,2.04-0.65c0.78-0.76,1.57-1.76,2.77-1.76c-0.08,0.2-0.17,0.36-1.16,1.52
		c2.71-0.37,3.35-1.19,3.32-1.51c-0.01-0.26-0.35-0.68-1.74-0.59c-0.28,0.02-1.55,0.18-3.37,0.84c0.07,0.04,0.17,0.08,0.17,0.18
		c0,0.18-0.28,0.25-0.43,0.28c-0.74,0.12-0.97,0.23-1.67,0.46c-0.11,0.04-0.24,0.08-0.37,0.08c-0.2,0-0.3-0.12-0.3-0.32
		c0-0.08,0.18-0.52,0.55-1.01c0.25-0.34,0.6-0.79,1.01-0.95C42.53,0.47,44.77,0,46.02,0c2.06,0,2.55,0.82,2.55,1.46
		c0,1.94-3.63,2.43-5.04,2.71l-0.24,0.22C44.15,4.55,47.08,4.79,47.08,5.94z M42.09,5.72c-0.16,0.17-0.42,0.43-0.42,0.68
		c0,0.52,0.95,0.66,1.33,0.66c1.07-0.01,2.72-0.79,2.72-1.27c0-0.62-2.47-0.8-2.96-0.8L42.09,5.72z"/>
	<path d="M52.13,6.5c-0.73,0.85-2.05,1.98-3.24,1.98c-0.88,0-1.28-0.78-1.31-1.57c-0.05-1.57,1.69-3.18,3.25-3.17
		c0.38,0,0.86,0.1,0.86,0.58c0,0.59-0.59,1.48-2.89,2.23l-0.02,0.26c-0.04,0.46,0.36,0.61,0.74,0.61c0.85,0,1.86-0.88,2.49-1.38
		L52.13,6.5z M50.64,4.57c0-0.08-0.06-0.16-0.14-0.13c-0.6,0.16-1.3,0.73-1.62,1.52C49.93,5.6,50.65,4.77,50.64,4.57z"/>
	<path d="M53.91,7.47c-0.23,0.18-1,0.8-1.27,0.8c-0.34,0-1.03-0.79-1.06-1.42c-0.05-1.5,3.07-3.03,4.46-3.07
		c0.55-0.01,0.78,0.43,0.78,0.58s-0.31,0.26-0.42,0.3c0.23,0.1,0.35,0.23,0.35,0.49c0,0.38-1.04,1.22-1.04,1.79
		c0,0.2,0.18,0.29,0.37,0.29c0.5,0,1.19-0.61,1.7-0.96l0.1,0.44c-0.52,0.59-2.12,1.87-2.71,1.87c-0.4,0-0.58-0.29-0.58-0.64
		c0-0.38,0.29-1.02,0.44-1.34l-0.02-0.02L53.91,7.47z M52.46,7.16c0.01,0.06,0.06,0.28,0.24,0.24c0.24-0.05,0.61-0.01,2.99-2.41
		l-0.02-0.02C52.81,5.84,52.46,6.57,52.46,7.16z"/>
	<path d="M59.12,6.03c-0.26,0.19-0.48,0.37-0.48,0.71c0,0.28,0.29,0.65,0.91,0.65c0.91,0,1.96-0.84,2.65-1.38l0.14,0.47
		c-0.73,0.78-2.08,1.97-3.21,1.97c-0.92,0-1.37-0.86-1.37-1.75c0-1.01,0.36-1.38,1.14-1.97c0.54-0.41,1.69-1.06,2.36-1.06
		c0.37,0,0.54,0.19,0.54,0.55c0,0.66-0.95,1.58-1.27,1.58c-0.28,0-0.4-0.3-0.41-0.53L59.12,6.03z"/>
	<path d="M62.87,6.78c0.59-0.47,2.77-2.39,3.43-2.39c0.29,0,0.58,0.3,0.58,0.58c0,0.23-0.48,0.76-0.62,0.92
		c-0.74,0.9-0.71,0.94-0.71,1.06c0,0.16,0.12,0.25,0.26,0.25c0.4,0,1.27-0.65,1.62-0.88l0.06,0.49c-0.55,0.42-2,1.6-2.66,1.6
		c-0.36,0-0.55-0.31-0.55-0.64c0-0.76,0.83-1.67,1.26-2.23l-0.02-0.02c-2.05,1.4-2.65,2.67-3.04,2.67c-0.42,0-0.48-0.94-0.48-1.21
		c0-0.83,0.31-1.4,0.73-2.09c1.42-2.34,3.8-4.44,4.21-4.44c0.19,0,0.52,0.08,0.52,0.32c0,0.82-3.81,4.77-4.58,5.53V6.78z"/>
</g>
</svg>
