<?xml version="1.0" encoding="utf-8"?>
<!-- Generator: Adobe Illustrator 22.0.1, SVG Export Plug-In . SVG Version: 6.00 Build 0)  -->
<svg version="1.1" id="Layer_1" xmlns="http://www.w3.org/2000/svg" xmlns:xlink="http://www.w3.org/1999/xlink" x="0px" y="0px"
	 viewBox="0 0 33.63 8.73" enable-background="new 0 0 33.63 8.73" xml:space="preserve">
<g>
	<path d="M0,0h2.65v3.01h2.9V0h2.67v8.59H5.55V5.12h-2.9v3.47H0V0z"/>
	<path d="M9.53,5.5c0-0.95,0.32-1.73,0.96-2.35s1.51-0.92,2.6-0.92c1.25,0,2.19,0.36,2.82,1.08c0.51,0.58,0.77,1.3,0.77,2.15
		c0,0.96-0.32,1.74-0.95,2.35s-1.51,0.92-2.63,0.92c-1,0-1.81-0.25-2.43-0.76C9.91,7.34,9.53,6.52,9.53,5.5z M11.92,5.49
		c0,0.55,0.11,0.96,0.34,1.23s0.51,0.4,0.85,0.4c0.34,0,0.63-0.13,0.85-0.39s0.33-0.68,0.33-1.26c0-0.54-0.11-0.94-0.33-1.2
		s-0.5-0.4-0.83-0.4c-0.35,0-0.63,0.13-0.86,0.4S11.92,4.94,11.92,5.49z"/>
	<path d="M20.71,0v2.37h1.31v1.75h-1.31v2.2c0,0.27,0.03,0.44,0.08,0.53c0.08,0.13,0.21,0.2,0.41,0.2c0.18,0,0.42-0.05,0.74-0.15
		l0.18,1.65c-0.59,0.13-1.14,0.19-1.65,0.19c-0.59,0-1.03-0.08-1.31-0.23c-0.28-0.15-0.49-0.38-0.62-0.69
		C18.38,7.5,18.32,7,18.32,6.3V4.11h-0.88V2.37h0.88V1.22L20.71,0z"/>
	<path d="M30.06,6.07h-4.78c0.04,0.38,0.15,0.67,0.31,0.86c0.23,0.27,0.53,0.4,0.9,0.4c0.23,0,0.46-0.06,0.67-0.18
		c0.13-0.07,0.27-0.21,0.42-0.39l2.35,0.22c-0.36,0.63-0.79,1.07-1.3,1.34s-1.24,0.41-2.19,0.41c-0.82,0-1.47-0.12-1.95-0.35
		s-0.86-0.6-1.17-1.11s-0.47-1.1-0.47-1.78c0-0.97,0.31-1.76,0.93-2.36s1.48-0.9,2.58-0.9c0.89,0,1.59,0.13,2.11,0.4
		s0.91,0.66,1.18,1.17s0.4,1.18,0.4,2V6.07z M27.64,4.93c-0.05-0.46-0.17-0.79-0.37-0.99s-0.47-0.3-0.79-0.3
		c-0.38,0-0.68,0.15-0.91,0.45c-0.14,0.19-0.24,0.47-0.28,0.84H27.64z"/>
	<path d="M31.24,0h2.39v8.59h-2.39V0z"/>
</g>
</svg>
