<svg xmlns="http://www.w3.org/2000/svg" viewBox="0 0 301.2 184.1"><path fill="#CA0D05" d="M106.3 175.6h7.7v1.4h-6v1.9h3.5v1.4H108v2.1h6v1.6h-7.8v-8.4h.1zm13.1 1.4v1.8h4.7c1.4 0 1.9.4 1.9 2v1.2c0 1.6-.5 2-1.9 2h-4.7c-1.4 0-1.9-.4-1.9-2v-.2l1.5-.4v1h5.3v-1.9h-4.7c-1.4 0-1.9-.4-1.9-2v-.9c0-1.6.5-2 1.9-2h4.3c1.3 0 1.9.4 1.9 1.8v.2l-1.5.4v-1h-4.9zm14.2 6.9h-1.8V177h-3.5v-1.5h8.7v1.5h-3.4v6.9zm6.1-2.5c.3 0 .4.2.4.6v1.3c0 .6-.1.6-.6.6h-1-.3c-.3 0-.4-.2-.4-.6V182c0-.6.1-.6.6-.6h1.3zm13.4-4.2h-1.6v-1.1l3.2-.5v8.4h-1.6v-6.8zm16.4 0v.8c0 1-.4 1.4-1.4 1.6 1.1.1 1.6.6 1.6 1.7v.9c0 1.3-.4 1.8-1.8 1.8h-4.8c-1.4 0-1.8-.5-1.8-1.8v-.9c0-1 .5-1.5 1.6-1.7-1.1-.2-1.4-.6-1.4-1.6v-.8c0-1.3.4-1.6 1.7-1.6h4.7c1.1 0 1.6.3 1.6 1.6zm-6 3.1c-.6 0-.7.2-.7.8v.6c0 .6.1.7.7.7h3.9c.6 0 .7-.1.7-.7v-.6c0-.6-.1-.8-.7-.8h-3.9zm.1-3.3c-.6 0-.7.2-.7.8v.4c0 .6.1.8.7.8h3.5c.6 0 .7-.2.7-.8v-.4c0-.6-.1-.8-.7-.8h-3.5zm16.1 0h-5v1.8l-1.6-.3v-2.9h8.4v1.3l-3.9 7.2h-2l4.1-7.1zm10.5 5.1h-5.7v-1.4l5.7-5.2h1.7v5.2h1.8v1.4h-1.8v1.9h-1.6v-1.9h-.1zm0-5.1l-4.1 3.7h4.1V177zM37.3 15.9l-1.6.2-.9-6.2-3.1.5-.2-1.3L39.3 8l.2 1.3-3.1.5.9 6.1zm4.2-8.3l1.6-.2.4 2.9 4.9-.7-.4-2.9 1.6-.2 1 7.6-1.6.2-.4-3.3-5 .7.4 3.3-1.6.2-.9-7.6zm11.8-1.5l7-.8.2 1.3-5.4.6.2 1.7 3.1-.4.2 1.3-3.1.4.2 1.9 5.5-.6.2 1.4-7 .8-1.1-7.6zm17.1-.6l.2 1.6 4.3-.4c1.3-.1 1.7.2 1.9 1.6l.1 1c.1 1.4-.2 1.8-1.5 2l-4.2.4c-1.3.1-1.7-.2-1.9-1.6v-.2l1.4-.5.1.9 4.8-.5-.2-1.7-4.3.4c-1.3.1-1.7-.2-1.9-1.6l-.1-.8c-.1-1.4.2-1.8 1.5-2l3.9-.4c1.2-.1 1.7.2 1.9 1.5v.2l-1.4.5-.1-.9-4.5.5zm9.4-2.3l5.9-.5c1-.1 1.6.3 1.7 1.3l.1 1.7c.1 1.1-.4 1.5-1.4 1.6l-4.3.4.3 3-1.6.1-.7-7.6zm1.7 1.2l.2 2 3.6-.3c.5 0 .7-.2.7-.7l-.1-.8c0-.5-.3-.6-.8-.5l-3.6.3zm8.4-2l1.6-.1.6 7.6-1.6.1-.6-7.6zm5.3-.4l5.9-.4c1-.1 1.6.3 1.6 1.4l.1 1.8c.1 1.1-.4 1.5-1.4 1.6l-.9.1 3.3 2.7-2.3.2-3-2.7-1.5.1.2 2.9-1.6.1-.4-7.8zm1.7 1.2l.1 2.1 3.6-.2c.5 0 .7-.2.7-.7l-.1-.9c0-.5-.3-.6-.8-.6l-3.5.3zm9.2-1.9l1.6-.1.4 7.6-1.6.1-.4-7.6zm8.9 7.2l-1.6.1-.3-6.3-3.1.2-.1-1.4 7.9-.4.1 1.4-3.2.2.3 6.2zM126.9.4l5.1-.1c1.3 0 1.7.3 1.8 1.8l.1 4c0 1.4-.4 1.8-1.7 1.8l-5.1.1c-1.3 0-1.7-.3-1.8-1.8l-.1-4c0-1.4.4-1.8 1.7-1.8zm5.3 6l-.1-4.8-5.3.1.1 4.8 5.3-.1zm5.1-6.3l6.9-.1v1.3l-5.4.1v2h2.9v1.4h-2.9v2.9h-1.6l.1-7.6zm14.5-.1h1.1l4.8 4.5.8.8-.1-1.3V0h1.4l-.1 7.6h-1.1l-5-4.8-.6-.6.1 1.2v4.1h-1.4l.1-7.5zm11.9.2l7 .2v1.3l-5.4-.1v1.7l3.2.1v1.3l-3.2-.1v1.9l5.5.1V8l-7.1-.2V.2zm9 .2l1.6.1 1.5 5.2 2-5h1.1l1.6 5.2 1.9-5 1.4.1-3 7.5h-1.1L178 3.1l-2.1 5.2h-1.1L172.7.4zm20.7 1l5 .3c1.3.1 1.7.5 1.6 1.9l-.3 4c-.1 1.4-.5 1.8-1.8 1.7l-5-.3c-1.3-.1-1.7-.5-1.6-1.9l.3-4c.1-1.4.5-1.8 1.8-1.7zm4.8 6.5l.3-4.8-5.3-.3-.3 4.8 5.3.3zm5.6-5.8l5.9.5c1 .1 1.5.5 1.4 1.6L211 6c-.1 1.1-.6 1.4-1.7 1.4l-.9-.1 2.9 3.1-2.3-.2-2.5-3.1L205 7l-.2 2.9-1.6-.1.6-7.7zm1.5 1.5l-.2 2.1 3.6.3c.5 0 .7 0 .8-.5l.1-.9c0-.5-.2-.6-.7-.7l-3.6-.3zm9.4-.6l1.6.1-.6 6.2 5.1.5-.1 1.4-6.7-.6.7-7.6zm9.2.9l7 .7-.1 1.3-5.4-.6-.2 1.7 3.1.3-.1 1.3-3.1-.3-.2 1.9 5.5.6-.2 1.4-7-.7.7-7.6zm12.8 1.4l1.5.2 3 8-1.8-.2-.6-1.8-4.3-.5-1 1.6-1.6-.2 4.8-7.1zm1.7 4.8l-1.1-3.3-1.9 2.9 3 .4zm6.2-3.8l1.1.1 4.2 5.1.7.9.1-1.3.5-4 1.4.2-1 7.6-1.1-.1-4.4-5.3-.5-.7-.1 1.2-.5 4.1-1.4-.2 1-7.6zm13 3.1l-.2 1.6 4.2.6c1.3.2 1.6.6 1.4 2l-.2 1c-.2 1.4-.7 1.7-2 1.5l-4.2-.6c-1.3-.2-1.6-.6-1.4-2v-.2l1.4-.1-.1.9 4.8.7.3-1.7-4.2-.6c-1.3-.2-1.6-.6-1.4-2l.1-.8c.2-1.4.7-1.7 2-1.5l3.9.6c1.2.2 1.6.6 1.4 1.9v.2l-1.4.2.1-.9-4.5-.8z"/><path fill="#E4AA17" d="M161.5 73.7l-1.3-1.3.2-13 .1-4.7 6.1.1v1.3l-4.8-.1v3.4c-.2 4-.3 9.5-.3 14.3zm-15.8-32.6V25.8l-1.3-1.3.1 15.4 1.2 1.2zM12.6 49.5l1.1.2-.4-2.5 10.2-1.8-1.3-1.1-10.3 1.9v.2l.4 2.6.3.5zm106.7-10.7v-1.4l-6.6 2.7.8 1.1 5.8-2.4zm42.8-12l3-2.6-.8-.8-.2-.2-.2.2-3.1 2.8-.2 14.6h1.3l.2-14zm40.3 31.3l2 .2-1-1.4-2.2-.2-.6 10.1 1.3.1.5-8.8zM182.8 40l.5-12.5 2.4-2.1-.9-.9-2.8 2.4-.5 13.1-1.3 33 1.2 1.4 1.4-34.4zm20.9-3l6.1.5 1.2-1.2-8.5-.7-.4 7.1 1.3.1.3-5.8zM35.1 114.5v32.3h1.3v-31.2h7.1l-1-1.3h-7.3l-.1.2zm78.1 2.1l.7-3.3-1-5.5-1.8-2.4 2.1 11.2zm-82-67.5l-1.5-10.8-1.7-2.5 1.6 12 1.6 1.3zm36.4 65.4v32.3h1.3v-31.2h2.8v-1.1l-.1-.1h-4v.1zm26-47.6l-2.5-38 1.8-2-1-.8-2.1 2.3L92.4 67l1.2-.1zM68.4 84.5l2.2-.2.6-2.2 2.6-8.6.2-.6-.1-.7-3.3-38.1.1-.6-.3-.6-1.2-2.3-2.3-1.6 2.3 4.4.2.4v.4l3.3 38.1v.4l-.1.4-2.6 8.6-.4 1.3-1.4.2c-8.7 1-13.2 1.5-21.6 2.7l.8 1.2 21-2.6zm-15-13.4l1.3-.2-2.6-23.5-.7-6.2 3.1-.4-.1-1.2v-.1l-4.3.6v.2l.8 7.4 2.5 23.4zm83 2.6l-.5-36.3a7 7 0 0 1-1.3-.5l.6 35.5 1.2 1.3zM252.5 88l1.3.2 1 .2.9.1-1.1-1.5-.7-.1-1.3-.2-9.1-1.3.8 1.4 8.2 1.2zm-42.7-26l1.2 1.7.7-10 .8-11.1-1.2-1.2-.9 12.2-.6 8.4zm45.3 2.7l-.1-.4-1.8-1.6.7 2.4.1.4-1.6 13.1 1.1 2.2 1.9-15.4-.3-.7zm-1.6-6.3l.5-1 2.5-4.6.3-.6 1.8-14.8-.4-.9-1.5-3.1-2.3-1.7 2.5 5.3.3.5-1.6 14.3-.2.4-2.5 4.6-.3.6-1.7.8 1 .9 1.6-.7zm29.2-9.3l-4.6-15.8-1.4-.2a1511 1511 0 0 1 5.6 19.2l.4-3.2zm-10.4 24l-.9-3.1-1.9 12.9 1.1 1.5 1.7-11.3zM216 78.2l1.2-16.5-1.4 1.4-1.2 15.4-.1.8 1-.9c.2.1.4-.1.5-.2zm-30.7 1.6l.9 1.4c9.9.6 22.2 1.6 22.2 1.6l6.6.6-1-1.4-2.3-.2s-15.2-1.4-26.4-2zm-2.2 34.7v32.3h1.3v-31.2h2.8v-1.1l-.1-.1h-4v.1zm36.7-85l-1.2-1.8-.6 7.8-.5 6.2 1.2 1.7 1.1-13.9zm22.9 80.4l-1.5-2.6-2.7-2 2.9 5V125l-2.3 6.1-1.7 1.1 1 .7 1.7-1 2.5-6.7v-15.3h.1zm-4.4-69.3l3.1.4.1-1.2v-.1l-4.4-.5-1 10.1 1.3.2.9-8.9zm4.4 114.4v-16l-.4-.8-2-1.4 1.1 2.5V153l1.3 2zm-20.3 6.1h-14.8l.9 1.3h15.3v-21.8h2.8v-1.3h-4.1v21.8h-.1zm0-46.7v10.7h1.3v-9.3h2.8v-1.3l-.1-.1h-4zM236 64.5l2.9.4.1-1.3-4.2-.5-2.1 20.9-2.1-.2-12.3-1.3 1 1.4 11.1 1.2 3.4.4 2.2-21zm-36.2 40.3l2.2 5.6v40.4l-4 10.3h-23l.9 1.3H199l4.3-11.3v-40.9l-1.4-3.7-2.1-1.7zm-38.4-26l-11.7-.1H146l.9 1.3h2.8l11.6.1h2.5l-.9-1.3h-1.5zm72 82.3l.9 1.3h11.1l-.9-1.3h-11.1zm-57.9-80.5l8.1.4h.4l-1-1.4-4.4-.2s-7-.4-12.7-.5l.9 1.3 8.7.4zm-8.3 39l1.3 1.7V107l-1.3-1.9v14.5zm109 1.5l1.3 1.3v-15.6l-1.3-1.8v16.1zm-115 19.1l1.3.8v-17l-1.3-1.9v18.1zM300.5 39.1a181 181 0 0 1-3.5 2.2l-8.4 49.6-.4 2.1-2.1-.4a129 129 0 0 0-6.7-1.3l.4 1.4 6 1.2 3.4.7.6-3.4 8.3-49 3-1.8.1-.1-.7-1.2zM13.8 49.7zM270 89.5l-13-2.2 1 1.5c4.2.6 7 1.1 11.8 2l3.6.6-1.2-1.5-2.2-.4zm-18.2 71.6l1 1.3h17.5l-.9-1.3h-17.6zm14.8-43.3v36.8l1.3 1.4v-37.7l-1.3-.5zm-20.3 3.5l5.5-2.2v-1.4l-6.3 2.5.8 1.1zm-197.1-1.8l1.3 1.6v-13.9l-1.3-2v14.3zm35.2-14.7l2.2 5.6v40.4l-4 10.3H59.4l.9 1.3h23.2l4.4-11.3v-40.9l-1.4-3.7-2.1-1.7zM110.9 70l-2-44.1-1.3 1.3 1.9 42.6-.1.4-2.9 8.5-.4 1.3-1.4.1c-8 .5-12.1.8-19.7 1.5l.8 1.2c7.2-.7 11.3-1 19-1.5l2.3-.1.7-2.1 2.9-8.5.2-.6zm-19.4 91.1l.4 1.3h16.7l-1-1.3H91.5zM20.7 71.3V71l-.1-.6-.3-.5-11.7-2.6 1 1.6c3.1.5 7.5 1.5 11.1 2.4zm12.8 18.1l.5-2.2 2.1-8.8.2-.6-.1-.6-2.1-15.4-.1-.7-.4-.7-2.8-4.7-1.8-.4 3.4 5.8.2.4.1.4 2.1 15.4.1.4-.1.4-2.1 8.8-.3 1.3-1.4.2c-9 1.5-13.4 2.4-22 4.1l.8 1.2c8.1-1.7 12.6-2.5 21.4-4l2.3-.3zm120.2 26.3h7.8l-1-1.3h-8.1v7l1.3-.9v-4.8zM49.2 161.1H27.1l.8 1.3h22.6v-15.3l-1.3-1.3v15.3zm60.1 0l.9 1.3h7.5l-.9-1.3h-7.5zm28.2 0l.9 1.3h17.8l-.9-1.3h-17.8zm14.8-6.6l1.3 1.3v-18.3l-1.3-.8v17.8zm-14.4-75.7h-1.4c-6.6.1-10 .2-16 .5l.9 1.3 15.2-.4h2.2l-.9-1.4zm-19.1 82.3l.9 1.3H135l-.8-1.3h-15.4zm12.6-54.4v47.8l1.3 1.3v-48.7l2.7-2.7-.9-.9-3.1 3.2z"/><path d="M45.4 84.1c9.1-1.3 13.6-1.9 22.7-2.9l2.6-8.6-3.3-38.1-4.2-7.9c-9.7 1.1-14.5 1.7-24.2 3.1l-2.5 8.8 4.6 37.8 4.3 7.8zm3.1-45.9l7.1-.9.9 1.7 3.1 31.8-.4 1.6-7 .9-.8-1.5L47.9 40l.6-1.8zM30.7 86.4c-9.2 1.6-13.8 2.4-22.9 4.3l-2.4-14 4.4 3.7c5.3-1.1 7.9-1.6 13.2-2.5l.5-1.9-.9-6.4-1-1.6-14.8-3.3-4.7-7.3L0 45l2.1-8.9c9.3-1.9 13.9-2.7 23.2-4.3l2 14.1-4.5-3.8-12.7 2.3-.4 1.9.5 3.4 1 1.6 15 3.4 4.4 7.4 2.1 15.4c-.7 3.6-1.2 5.4-2 8.9zm268.7-49.1l-4.3 2.7-8.5 50.5-7.7-1.5a940 940 0 0 0-8.2-28.7l-3.3 23.1 3 4-15-2.5 3.9-2.9 6.3-47.4-3.2-4 12 2c3.5 11.8 5.2 17.6 8.4 29.4l3.8-23.7-3.1-4.1 15.9 3.1zM25.7 102.2h21.5v14.7l-3.7-4.7h-9.8l-.7 1.9v33.2l.6 1.6h9.8l3.7-4.6V159H25.7l-3.4-8.6v-39.5l3.4-8.7zm163.9-75.7l-3.5-3.7c12.2.6 18.4 1 30.6 2.2l-1.1 14.2-3.5-4.8a484 484 0 0 0-12-.9l.3.7-.6 10.6 5.3.4 4.1-4.1-1.3 18.5-3.4-4.6-5.3-.4-.8 13.7-.3.6 11.4.9 4-4.2-1.1 14.2c-11.5-1-17.2-1.5-28.7-2l3.6-3.3 2.3-48zm-78.1 11.9l-.6-15.7c12-.6 19.4-.8 31.4-.9l.1 15.7-7.3-2.6v-3.3h-2.6l.7 41.6 3.5 3.4-17.5.5 3.4-3.6-1.2-41.6-2.5.1.1 3.3a130 130 0 0 0-7.5 3.1zm-35.2-9.7l-4-3.1c7.4-.8 11.1-1.1 18.6-1.7l-3.4 3.8 2.7 40 .7 1.5 7-.5.5-1.6-2.3-40-3.9-3.2 16.8-1.1-3.5 3.6 2 43.1-2.9 8.5c-8.4.5-12.6.9-20.9 1.6l-3.9-7.9-3.5-43zm168 73.5h29.8v16.3l-7-2.8v-3.4h-2.5v43.1l3.4 3.6h-17.6l3.5-3.6v-43.1h-2.4v3.4l-7.1 2.8v-16.3h-.1zm-76.2-28.8l.6-20.5-10.3-.2-.3 20.5 3.4 3.5c-6.8-.1-10.1-.2-16.9-.1l3.5-3.5.1-47.9-3.7-3.5 18.1.1-3.8 3.4-.3 17.6 10.4.2.5-17.5-3.6-3.6c7.2.2 10.8.3 18 .7l-3.8 3.3-1.9 47.9 3.3 3.6-16.8-.6 3.5-3.4zm82.1 5.6l1.6-13.3-1.6-5.4-3.1-2.7 3.9-1.8 2.5-4.6 1.6-13.2-4.3-9a724.2 724.2 0 0 0-29.6-3.5l3.4 3.8-4.1 47.8-3.7 3.1 14 1.5 2.1-20.9 7.7.9.4 1.6-1.6 14.7 2.8 5 10.6 1.5-2.6-5.5zm-7.7-28.6l-.8 1.6-7.8-1 1.3-12.9-.4-1.4 8.4 1 .5 1.9-1.2 10.8zm-68.9 51.8l-3.4 8.7v39.5l3.4 8.6h23l3.3-8.6v-39.6l-3.3-8.6h-23zm15.6 45.1l-.6 1.6h-7l-.6-1.6v-33.2l.7-1.9h6.9l.7 1.9v33.2h-.1zm-131-45.1l-3.4 8.7v39.5l3.4 8.6h23l3.3-8.6v-39.6l-3.3-8.6h-23zm15.6 45.1l-.6 1.6h-7l-.6-1.6v-33.2l.7-1.9h6.9l.7 1.9v33.2h-.1zm165.6-7.6l-2.2-5.3-3.3-2.4 3.6-2.4 1.9-5.1v-13.8l-5-8.6h-28.1l3.5 3.6v49.8l-3.5 3.5h14.2v-21.8h7.7l.6 1.6v15.3l3.4 4.8H243l-3.4-5.4v-13.8h-.2zm-10.8-14.3l-.6 1.7h-7.6v-13.4l-.5-1.4h8.1l.7 1.9v11.2h-.1zm-92.5-23.2h29v14.7l-3.7-4.7h-11.6l.5 1.1v10.6h1.9l7-4.6v19.2l-7-4.5h-1.9v21.3l3.5 3.6h-17.7l3.5-3.6v-49.6l-3.5-3.5zm-6.8 3.6v49.6l3.5 3.6h-15.3l3.6-3.6v-24.7l-5.6 28.3h-7.4l-5.5-28.9v25.3l3.6 3.6H90.9l3.5-3.6v-49.6l-3.5-3.6h17.6l4.7 25.1 5.2-25.1h14.5l-3.6 3.6zM275.6 159.1c-1.9 0-3.2-1.4-3.2-3.3 0-2 1.5-3.3 3.2-3.3s3.2 1.3 3.2 3.3-1.5 3.3-3.2 3.3zm0-5.9c-1.4 0-2.5 1.1-2.5 2.7 0 1.5 1 2.7 2.5 2.7 1.4 0 2.5-1.1 2.5-2.7s-1.1-2.7-2.5-2.7zm-.6 4.5h-.6v-3.6h1.4c.9 0 1.3.3 1.3 1s-.4.9-.9 1l1 1.6h-.7l-.9-1.6h-.6v1.6zm.6-2c.4 0 .8 0 .8-.6 0-.4-.4-.5-.8-.5h-.7v1.1h.7z"/><path fill="#BCBEC0" d="M268.6 34.8l-6.4 48.1 2 .3 1.4.2-.1.4.8 1.1-6.7-1.1 1.1-.8 6.5-48.9-.9-1.1 2.4.4-.1 1.4zm-44.9 42.9l1.4-16.8 2.7-31.3.2-1.7-2.4-.2.9 1-.1.7-3.1 35.8-1.1 12.7-1 .8 8 .9.1-1.4c-1.5 0-4.3-.3-5.6-.5zM27.8 155.9l-2.4-6.1v-38.3l2.9-7.5h-1.5l-2.8 7.2v38.9l2.8 7.2h18.5v-1.4H27.8zm219.6-42V104H246v11.9l3.6-1.4v-1.4l-2.2.8zm-71.7 42l-2.4-6.1v-38.3l2.9-7.5h-1.5l-2.8 7.2v38.9l2.8 7.2h20.6l.5-1.4h-20.1zm1-51.9zM60.3 155.9l-2.4-6.1v-38.3l2.4-6.1.6-1.4h-1.5l-2.8 7.2v38.9l2.8 7.2H80l.5-1.4H60.3zm88.2 0h-5.8V104h-2.5l1.1 1.1v51l-1.1 1.1h9.4l-1.1-1.1v-.2zm-.7-46.7c.2.5.6.9.9 1.4h13.6l1.1 1.3v-2.7h-15.6zm23.3-84.4v.8l-.5 17.6h1.4l.5-17.6.1-1.7-2.4-.1.9 1zm-1.3 48.7v.7l-1 1 8.5.3-.9-1v-.4l-5.2-.2v-.3l.4-13.9.3-9.7-3.1-.1-10.3-.2v1.4l10.3.2 1.7.1-.2 8.4-.5 13.7zm-13.5.4v-.4l-4.7-.1h-.4V62l.1-36.9v-1.7h-2.4l1 1v.8l-.1 36.9v11.8l-1 1h2.8l5.7.1-1-1.1zm34.2.9l2.3-48.2.1-1.7-2.4-.1 1 1v.7l-2.3 48.6-1 .9c8.3.4 13.8.8 22.8 1.7l.1-1.4-20.6-1.5zm23.1 29.2c-.1 0 0 0 0 0zm-.8 51.9V104h-2.5l1.1 1.1v51.1l-1 1.1h8.3v-1.4h-5.9zM116.9 32.8l-2.5 1-.4-9.5-1.4.1.4 9.8.1 1.7 3.8-1.6v-1.5zm21.2-.1l-.1-4.3-3.2.1h-.9H132.2v1.4h4.4v3.8l3.8 1.4v-1.5c-.7-.4-2-.8-2.3-.9zM132.3 75l-1-1v-.4l-5.8.2-1.3-45.1-5.8.2v1.4l4.4-.1 1.3 44.1-1 1 9.2-.3zm-32-7.7l-.4 1.3 1.4-.1.3-1.1L99.2 25l-2.5.2 1.1.9 2.5 41.2zm3.5 7.6s-11.8.8-18.3 1.4l-2.7-5.5-3.5-44.1-2.4.2 1.1.9.1.8 3.4 42.6 3.3 6.6c7.3-.7 11.4-1 18.6-1.5l.4-1.4zm-8.9 82.3h7l-1.1-1.1v-.3h-3.4v-51.9h-2.5L96 105v51l-1.1 1.2zM10.8 41.1l-.3 1.4 12-2.2.8-.1 1.6 1.3-.4-2.9-13.7 2.5zm11.9 25.4l1.6 2.6.2 1.4.8 5.3.1.3-.3 1.2-.1.3 1.5-.2.3-1.3-.2-.6-.8-5.3-.2-1.6-2-3.3-1.3-.3c-5.6-1.3-8.5-2-13.6-3L5 56.3 3.1 45.2 5 37.4l-1.4.2-1.8 7.5 2 11.7 4.1 6.4L22 66.3l.7.2zm6.9 16.9S16.8 85.6 10.3 87l-.8-4.6L7.9 81l1.3 7.5c7.6-1.6 12.1-2.4 20-3.8l.4-1.3zm37.5-5.3S54.2 79.6 47 80.6l-3-5.3-4.4-36.5 2.2-7.7-1.5.2-2.1 7.4 4.5 37.1 3.6 6.4c8-1.1 12.4-1.7 20.4-2.6l.4-1.5zM49.2 36.3l6.3-.8 1.2-.1.6 1.1.8 1.5.3.5L61.6 71l-.1.3-.2 1 1.5-.2.1-.5.1-.5-3.3-33-.4-.8-.8-1.5-1-1.9-2.2.3-5.6.7-.5 1.4zm155.6 15.4l-5.3-.4-.1 1.4 5.3.4.8.1 1.1 1.4.2-2.7-2-.2zm7.6-20.5l-12-.9-1.7-.1.7 1.4 1 .1 12 .9.8.1 1.1 1.6.2-2.9-2.1-.2zm21.8 3.7l.8.1 8.4 1 1.2.1.3 1.1.5 1.9.1.3-1.2 11.5-.2.3-.5 1 1.5.2.3-.5.3-.5 1.3-12-.2-.6-.5-1.9-.5-2-2.1-.3-8.4-1-1.4-.2.3 1.5zm10.1 45.3l-1.6-2.8 1.5-14.3-.5-2.2-.5-2.1-2.1-.3-7.7-.9-.2 1.4 7.7.9 1.2.2.3 1.2.5 1.9-1.6 14.5 2.1 3.8 6.5.9-.7-1.5-4.9-.7zm37.1 6.1c-2.8-10.1-4.4-15.8-7.7-26.9l-1.9-6.4-.5 3.2 1.1 3.6c3.4 11.4 5 17 7.9 27.7l4.9 1 .2-1.3-4-.9zm6.1-49.6l.8 1.1-.1.7-3.8 23.7-.6 3.8.9 3.2 1.1-6.8 3.8-23.7v-.2l.2-1.4c-.6 0-1.6-.2-2.3-.4zM34.8 109.2l-.5 1.4h10l1.1 1.3v-2.7H34.8zm40.5 0h-7.9l-.5 1.4h7.4l1.2 3.3v33.8l-.4 1.3h1.5l.4-1.1v-34.2l-1.7-4.5zm35.3 46.7l-8-42.1v7.4l6.8 36.1h4.5l.3-1.4h-3.6zm11-51.9zm-7.7 27.7l.7 3.5 6.5-31.3h-1.4l-5.8 27.8zm13.6 24.4v-.2h-3.4V115l-1.4 7v34.2l-1.1 1.1h7l-1.1-1.2zM153 131h-2.8v1.4h2.4l4.7 3v-1.7L153 131zm38-17.2v33.8l-.5 1.3h1.5l.4-1.1v-34.2l-1.6-4.4h-7.9l-.5 1.4h7.5l1.1 3.2zm39.1-4.6h-11.5l.5 1.4h10l1.2 3.3v11.9l-.5 1.4h1.5l.4-1.2v-12.4l-1.6-4.4zm8.6 46.7h-5.1l-1.9-2.7v-14.9l-1.5-4.2h-9.9v1.4h8.9l1.1 3.1v15.1l2.5 3.6h6.7l-.8-1.4zm24.1 0H257v-46.7h-5.6v1.4h4.2v45.6l-1.1 1.1h9.4l-1.1-1.1v-.3zm7.4-42.3v-4.4h-5.6v1.4h4.2v4l3.5 1.4v-1.5l-2.1-.9z"/></svg>