<?xml version="1.0" encoding="utf-8"?>
<!-- Generator: Adobe Illustrator 22.0.1, SVG Export Plug-In . SVG Version: 6.00 Build 0)  -->
<svg version="1.1" id="Layer_1" xmlns="http://www.w3.org/2000/svg" xmlns:xlink="http://www.w3.org/1999/xlink" x="0px" y="0px"
	 viewBox="0 0 877.217 360.635" enable-background="new 0 0 877.217 360.635" xml:space="preserve">
<g>
	<path fill="#ED2027" d="M505.422,317.335c11.046-17.907,22.093-35.815,33.15-53.741c7.384,0,14.486,0,22.469,0
		c-4.53,18.047-8.95,35.658-13.371,53.269c0.388,0.164,0.777,0.327,1.165,0.491c10.665-17.929,31.996-53.787,31.996-53.787h26.661
		l-60.946,94.617l-27.74-0.107l12.125-49.573l-0.922-0.299l-30.773,49.525c0,0-18.045,0-27.721,0
		c6.715-31.545,13.321-62.573,20.004-93.968c8.922,0,17.633,0,27.132,0c-4.858,17.922-9.619,35.484-14.38,53.047
		C504.655,316.985,505.038,317.16,505.422,317.335z"/>
	<path fill="#ED2027" d="M396.789,263.474c0,0,39.947-0.075,59.581,0.081c2.932,0.023,5.936,0.885,8.766,1.795
		c6.346,2.042,9.921,6.552,10.427,13.211c0.226,2.969,0.396,6.079-0.217,8.953c-4.537,21.233-13.1,40.544-28.583,56.153
		c-9.169,9.243-20.631,14.086-33.656,14.3c-17.812,0.292-35.631,0.095-53.448,0.074c-0.931-0.001-1.863-0.317-3.478-0.61
		C369.809,325.899,396.789,263.474,396.789,263.474z M394.382,334.273c4.718,0,13.638-0.003,16.92,0
		c21.389,0,31.086-30.906,31.086-37.461c-0.045-5.363-2.11-8.661-7.24-9.114c-6.714-0.593-13.519-0.146-20.534-0.146
		C408.013,302.794,401.497,317.842,394.382,334.273z"/>
	<path fill="#ED2027" d="M107.647,290.836c-10.414,0-21.177,0.114-31.429,0.114c-0.167-7.917-3.137-9.623-10.506-9.529
		c-8.311,0.106-14.044,4.442-13.955,8.859c0.045,2.253,3.04,2.972,4.695,3.351c9.735,2.228,19.551,4.129,29.231,6.571
		c11.217,2.829,15.427,10.513,11.881,21.598c-7.098,22.189-22.402,35.206-45.399,38.082c-10.477,1.31-21.226,0.508-31.852,0.514
		c-1.959,0.001-3.941-0.623-5.873-1.116c-14.504-3.701-18.156-15.168-10.62-29.409c10.681,0,21.433,0,32.123,0
		c1.207,7.26,2.796,8.507,10.399,8.466c7.776-0.042,14.049-4.022,14.788-9.411c0.497-3.623-1.985-4.544-4.763-5.147
		c-8.624-1.869-17.265-3.667-25.874-5.603c-10.991-2.471-14.886-8.354-12-19.349c5.194-19.788,17.823-32.471,37.894-36.937
		c12.299-2.737,24.846-2.732,37.235-0.276C109.261,264.716,114.625,275.713,107.647,290.836z"/>
	<path fill="#ED2027" d="M784.966,263.54c9.474,0,28.006,0,28.006,0l-12.917,30.678l0.794,0.77l38.438-31.6h37.229l-47.422,36.585
		c0,0,6.113,38.135,9.244,57.662c-12.523,0-24.417,0-37.231,0c-1.275-11.383-4.005-35.751-4.005-35.751l-14.182,11.178
		l-10.529,24.617h-28.114C744.278,357.679,771.398,294.933,784.966,263.54z"/>
	<path fill="#ED2027" d="M271.039,357.699c13.776-31.889,27.172-62.895,40.618-94.02c25.12,0,50.001,0,75.773,0
		c-3.396,7.871-6.524,15.123-9.728,22.549c-15.951,0-31.408,0-47.376,0c-1.784,3.993-3.497,7.826-5.741,12.847
		c15.121,0,29.107,0,44.142,0c-3.627,8.412-6.757,15.67-10,23.189c-14.806,0-29.256,0-44.038,0c-1.782,4.006-3.448,7.75-5.6,12.588
		c16.033,0,31.203,0,47.441,0c-3.511,8.294-6.532,15.432-9.671,22.847C321.805,357.699,296.937,357.699,271.039,357.699z"/>
	<path fill="#ED2027" d="M271.575,334.826c-3.637,8.449-6.758,15.699-9.855,22.894c-25.278,0-50.006,0-75.751,0
		c13.734-31.775,27.172-62.864,40.672-94.098c25.057,0,49.828,0,75.783,0c-3.326,7.698-6.434,14.893-9.717,22.492
		c-15.758,0-31.362,0-47.491,0c-1.767,4.119-3.418,7.97-5.498,12.819c14.93,0,28.812,0,43.964,0
		c-3.603,8.407-6.75,15.75-10.004,23.342c-14.799,0-29.255,0-44.068,0c-1.767,3.963-3.432,7.698-5.596,12.551
		C240.091,334.826,255.249,334.826,271.575,334.826z"/>
	<path fill="#ED2027" d="M617.751,322.286c-1.799,4.146-3.42,7.883-5.469,12.604c16.003,0,31.049,0,47.497,0
		c-3.592,8.321-6.697,15.515-9.871,22.87c-25.113,0-49.87,0-75.747,0c13.71-31.737,27.188-62.935,40.664-94.129
		c25.266,0,50.02,0,75.71,0c-3.364,7.83-6.474,15.07-9.731,22.651c-15.958,0-31.564,0-47.53,0c-1.737,4.093-3.33,7.848-5.367,12.649
		c14.862,0,28.872,0,43.967,0c-3.591,8.389-6.703,15.662-9.996,23.355C647.135,322.286,632.527,322.286,617.751,322.286z"/>
	<path fill="#ED2027" d="M756.897,298.911c-3.607,8.462-6.708,15.736-9.933,23.303c-14.703,0-29.156,0-44.138,0
		c-1.739,4.043-3.398,7.9-5.449,12.669c16.011,0,31.07,0,47.379,0c-3.502,8.215-6.578,15.432-9.744,22.859c-25.025,0-49.78,0-75.8,0
		c13.709-31.736,27.18-62.918,40.669-94.147c25.17,0,49.94,0,75.656,0c-3.32,7.82-6.402,15.079-9.625,22.67
		c-15.945,0-31.563,0-47.551,0c-1.773,4.053-3.412,7.799-5.533,12.646C727.719,298.911,741.716,298.911,756.897,298.911z"/>
	<path fill="#ED2027" d="M132.592,328.581c-4.394,10.054-8.513,19.478-12.736,29.138c-9.092,0-17.991,0-28.083,0
		c13.717-31.771,27.175-62.942,40.748-94.38c4.138,0,7.948,0,11.758,0c15.313-0.001,30.627-0.053,45.94,0.01
		c16.201,0.066,21.977,7.139,17.01,22.441c-2.837,8.74-6.911,17.365-11.96,25.033c-7.897,11.992-19.663,18.015-34.347,17.785
		C151.619,328.463,142.314,328.581,132.592,328.581z M142.589,305.447c6.47,0,11.592,0.023,16.713-0.005
		c9.103-0.051,14.127-4.064,16.479-12.873c1.049-3.928-0.347-6.554-4.225-6.77c-6.745-0.377-13.527-0.105-20.474-0.105
		C148.346,292.057,145.748,298.099,142.589,305.447z"/>
</g>
<path d="M370.766,234.268l83.846-220.725C457.441,6.094,466.275,0,474.243,0h84.385l-62.269,167.438h55.492
	c2.974,0,5.726-2.172,7.013-5.846l51.665-147.532C613.236,6.327,622.155,0,630.348,0l88.116,0l-62.602,167.438h55.1
	c3.376,0,6.428-2.23,8.016-6.651l52.736-146.882C774.46,6.257,783.354,0,791.479,0l85.739,0l-53.345,152.756
	c-19.573,56.05-60.638,85.577-91.017,85.577H373.57C371.47,238.333,370.02,236.231,370.766,234.268z"/>
<path d="M29.041,171.333l-27.07,67h271.634c26.333,0,70.616-3.502,93.931-56.364l12.115-27.469c18.163-41.181,3.62-71.5-78.38-71.5
	H170.936c-0.678,0-1.143-0.684-0.892-1.315l3.978-10.019h237.381L437.629,0H179.273C68.94,0,60.691,71.278,61.606,99.333
	c1,30.653,21.333,53,45.666,53c39.333,0,164.667,0,164.667,0l-4.412,15.718c-0.545,1.941-2.314,3.282-4.33,3.282H29.041z"/>
</svg>
