<?xml version="1.0" encoding="utf-8"?>
<!-- Generator: Adobe Illustrator 22.0.1, SVG Export Plug-In . SVG Version: 6.00 Build 0)  -->
<svg version="1.1" id="Layer_1" xmlns="http://www.w3.org/2000/svg" xmlns:xlink="http://www.w3.org/1999/xlink" x="0px" y="0px"
	 viewBox="0 0 350.681 350.68" enable-background="new 0 0 350.681 350.68" xml:space="preserve">
<linearGradient id="SVGID_1_" gradientUnits="userSpaceOnUse" x1="175.3403" y1="350.6805" x2="175.3403" y2="-9.094947e-13">
	<stop  offset="0" style="stop-color:#2E2D3A"/>
	<stop  offset="0.15" style="stop-color:#FBF9F1"/>
	<stop  offset="0.7" style="stop-color:#807D84"/>
	<stop  offset="1" style="stop-color:#2E2D3A"/>
</linearGradient>
<path fill="url(#SVGID_1_)" d="M175.34,0c-22.741,0-44.847,4.285-65.729,12.736l-3.676-8.874l-0.574-1.386l-1.386,0.575
	C81.295,12.456,60.951,26.068,43.51,43.51S12.456,81.295,3.051,103.975l-0.575,1.386l1.386,0.574l8.87,3.674
	C4.283,130.351,0,152.458,0,175.34c0,22.74,4.284,44.847,12.736,65.729l-8.874,3.676l-1.386,0.574l0.575,1.386
	c9.405,22.68,23.017,43.024,40.459,60.465c17.441,17.441,37.785,31.054,60.465,40.459l1.386,0.575l0.574-1.386l3.676-8.874
	c20.882,8.452,42.989,12.736,65.729,12.736s44.847-4.285,65.729-12.736l3.676,8.874l0.574,1.386l1.386-0.575
	c22.68-9.405,43.024-23.017,60.465-40.459c17.441-17.441,31.054-37.785,40.459-60.465l0.575-1.386l-1.386-0.574l-8.874-3.676
	c8.452-20.882,12.736-42.989,12.736-65.729c0-22.882-4.283-44.989-12.733-65.731l8.87-3.674l1.386-0.574l-0.575-1.386
	c-9.405-22.68-23.017-43.024-40.459-60.465c-17.442-17.442-37.785-31.054-60.465-40.459l-1.386-0.575l-0.574,1.386l-3.676,8.874
	C220.187,4.285,198.081,0,175.34,0L175.34,0z"/>
<linearGradient id="SVGID_2_" gradientUnits="userSpaceOnUse" x1="181.4073" y1="349.0766" x2="169.2733" y2="1.6038">
	<stop  offset="0" style="stop-color:#FFFFFF"/>
	<stop  offset="0.0536" style="stop-color:#F9F9FA"/>
	<stop  offset="0.1238" style="stop-color:#E9E9EA"/>
	<stop  offset="0.2033" style="stop-color:#CECED1"/>
	<stop  offset="0.2895" style="stop-color:#A8A8AD"/>
	<stop  offset="0.3812" style="stop-color:#787780"/>
	<stop  offset="0.4761" style="stop-color:#3E3D49"/>
	<stop  offset="0.5" style="stop-color:#2E2D3A"/>
	<stop  offset="0.51" style="stop-color:#FFFFFF"/>
	<stop  offset="0.5917" style="stop-color:#FDFCFD"/>
	<stop  offset="0.6408" style="stop-color:#F4F4F5"/>
	<stop  offset="0.6814" style="stop-color:#E7E6E7"/>
	<stop  offset="0.7172" style="stop-color:#D3D1D3"/>
	<stop  offset="0.75" style="stop-color:#B9B7BA"/>
	<stop  offset="0.7805" style="stop-color:#9A979B"/>
	<stop  offset="0.8087" style="stop-color:#767177"/>
	<stop  offset="0.82" style="stop-color:#656066"/>
	<stop  offset="0.83" style="stop-color:#E6E3D9"/>
</linearGradient>
<path fill="url(#SVGID_2_)" d="M175.34,1.5c-23.571,0-46.046,4.691-66.543,13.191L104.55,4.437
	C59.343,23.183,23.183,59.343,4.437,104.55l10.254,4.247C6.191,129.15,1.5,151.769,1.5,175.34s4.691,46.046,13.191,66.543
	l-10.254,4.247c18.746,45.207,54.907,81.367,100.113,100.113l4.247-10.254c20.497,8.5,42.972,13.191,66.543,13.191
	s46.046-4.691,66.543-13.191l4.247,10.254c45.207-18.746,81.367-54.906,100.113-100.113l-10.254-4.247
	c8.5-20.497,13.191-42.972,13.191-66.543s-4.691-46.19-13.191-66.543l10.254-4.247C327.498,59.343,291.337,23.183,246.131,4.436
	l-4.247,10.254C221.387,6.191,198.911,1.5,175.34,1.5z"/>
<path d="M175.34,20.322c-20.452,0-40.32,3.918-59.061,11.648l-3.666-8.849l-0.115-0.277l-0.277,0.115
	c-20.059,8.318-38.052,20.358-53.479,35.784c-15.426,15.426-27.466,33.419-35.784,53.479l-0.115,0.277l0.277,0.115l8.849,3.665
	c-7.729,18.611-11.647,38.48-11.647,59.061c0,20.451,3.918,40.32,11.648,59.061l-8.849,3.665l-0.277,0.115l0.115,0.277
	c8.318,20.059,20.358,38.052,35.784,53.479s33.419,27.466,53.479,35.784l0.277,0.115l0.115-0.277l3.665-8.849
	c18.741,7.73,38.609,11.648,59.061,11.648s40.32-3.918,59.061-11.648l3.666,8.849l0.115,0.277l0.277-0.115
	c20.06-8.318,38.052-20.358,53.479-35.784s27.466-33.419,35.784-53.479l0.115-0.277l-0.277-0.115l-8.849-3.665
	c7.73-18.741,11.648-38.609,11.648-59.061c0-20.582-3.918-40.451-11.647-59.061l8.849-3.665l0.277-0.115l-0.115-0.277
	c-8.318-20.059-20.358-38.052-35.784-53.479c-15.426-15.426-33.419-27.466-53.479-35.784l-0.277-0.115l-0.115,0.277l-3.666,8.849
	C215.66,24.241,195.792,20.322,175.34,20.322L175.34,20.322z"/>
<radialGradient id="SVGID_3_" cx="175.3403" cy="175.3402" r="160.6649" gradientUnits="userSpaceOnUse">
	<stop  offset="0.6" style="stop-color:#CF0D17"/>
	<stop  offset="0.6433" style="stop-color:#C90D16"/>
	<stop  offset="0.6999" style="stop-color:#B90C15"/>
	<stop  offset="0.7641" style="stop-color:#9E0A12"/>
	<stop  offset="0.8336" style="stop-color:#78080D"/>
	<stop  offset="0.9077" style="stop-color:#470408"/>
	<stop  offset="0.9843" style="stop-color:#0D0101"/>
	<stop  offset="1" style="stop-color:#000000"/>
</radialGradient>
<path fill="url(#SVGID_3_)" d="M329.235,175.34c0,20.561-4.032,40.18-11.349,58.11c-15.581,38.181-46.055,68.701-84.205,84.342
	c-17.992,7.377-37.692,11.444-58.341,11.444c-20.808,0-40.651-4.13-58.755-11.614c-38.089-15.746-68.48-46.342-83.954-84.572
	c-7.214-17.821-11.186-37.301-11.186-57.709c0-20.653,4.068-40.355,11.447-58.349c15.597-38.037,45.986-68.443,84.011-84.063
	c18.018-7.402,37.751-11.483,58.437-11.483c20.684,0,40.414,4.08,58.431,11.48c37.895,15.564,68.206,45.814,83.853,83.666
	C325.107,134.694,329.235,154.535,329.235,175.34z"/>
<radialGradient id="SVGID_4_" cx="175.3403" cy="175.3402" r="206.3143" gradientUnits="userSpaceOnUse">
	<stop  offset="0.6" style="stop-color:#CF0D17"/>
	<stop  offset="0.6396" style="stop-color:#C60C16"/>
	<stop  offset="0.7042" style="stop-color:#AE0B13"/>
	<stop  offset="0.7857" style="stop-color:#86080F"/>
	<stop  offset="0.8811" style="stop-color:#4F0509"/>
	<stop  offset="0.9869" style="stop-color:#090101"/>
	<stop  offset="1" style="stop-color:#000000"/>
</radialGradient>
<path fill="url(#SVGID_4_)" d="M175.34,20.622c-20.978,0-40.981,4.175-59.223,11.74l-3.78-9.126
	C72.103,39.92,39.92,72.103,23.236,112.337l9.126,3.78c-7.565,18.114-11.74,38.245-11.74,59.223s4.175,40.981,11.74,59.223
	l-9.126,3.78c16.684,40.234,48.867,72.417,89.101,89.101l3.78-9.126c18.242,7.565,38.245,11.74,59.223,11.74
	s40.981-4.175,59.223-11.74l3.78,9.126c40.234-16.684,72.417-48.867,89.101-89.101l-9.126-3.78
	c7.565-18.242,11.74-38.245,11.74-59.223s-4.175-41.109-11.74-59.223l9.126-3.78c-16.684-40.234-48.867-72.417-89.101-89.101
	l-3.78,9.126C216.321,24.798,196.318,20.622,175.34,20.622z M175.34,307.015c-17.798,0-34.771-3.531-50.256-9.931l-5.67,13.689
	C83.157,295.785,54.23,266.662,39.5,230.272l13.69-5.671c-6.143-15.217-9.524-31.844-9.524-49.261
	c0-17.65,3.473-34.489,9.772-49.871l-13.69-5.67c14.846-36.206,43.773-65.149,79.967-80.017l5.67,13.689
	c15.404-6.321,32.272-9.806,49.955-9.806c17.733,0,34.648,3.505,50.088,9.861l5.53-13.747
	c36.071,14.871,64.924,43.813,79.817,79.639l-13.689,5.67c6.398,15.484,9.928,32.455,9.928,50.251
	c0,17.563-3.438,34.322-9.679,49.642l13.69,5.67c-14.831,36.343-43.996,65.395-80.152,80.283l-5.67-13.69
	C209.824,303.543,192.987,307.015,175.34,307.015z"/>
<g>
	<linearGradient id="SVGID_5_" gradientUnits="userSpaceOnUse" x1="175.3402" y1="262.3168" x2="175.3402" y2="92.6918">
		<stop  offset="0" style="stop-color:#EDECE2"/>
		<stop  offset="0.2" style="stop-color:#AAA89E"/>
		<stop  offset="0.4" style="stop-color:#F4F6EB"/>
		<stop  offset="0.5442" style="stop-color:#B6B5A8"/>
		<stop  offset="0.775" style="stop-color:#FFFFFF"/>
		<stop  offset="1" style="stop-color:#F0F6EC"/>
	</linearGradient>
	<path fill="url(#SVGID_5_)" d="M277.694,177.503c-1.708-60.353-19.542-83.353-90.709-84.811h-15
		c-82.833,0-95.999,18.958-98.999,84.811v4.479c2.5,65.001,27.832,80.334,93.999,80.334h40.167c38.166,0,69.564-5.966,70.542-49.469
		v-6.49h-45.488c-0.345,7.833-6.095,12.708-18.288,12.708h-61.209c-20.057,0-31.307-5.167-32.058-21.917h157.043V177.503z
		 M121.986,156.15c-0.152-15.708,16.125-19.333,35.75-19.333h37.125c21.75,0,35.308,3.625,35.292,19.333H121.986z"/>
</g>
<linearGradient id="SVGID_6_" gradientUnits="userSpaceOnUse" x1="175.3402" y1="257.3168" x2="175.3402" y2="97.6918">
	<stop  offset="0" style="stop-color:#FBFCF5"/>
	<stop  offset="0.1076" style="stop-color:#F4F4EC"/>
	<stop  offset="0.283" style="stop-color:#DFDED4"/>
	<stop  offset="0.5" style="stop-color:#BFBCAD"/>
	<stop  offset="0.5426" style="stop-color:#C6C4B6"/>
	<stop  offset="0.7428" style="stop-color:#E5E4DE"/>
	<stop  offset="0.9022" style="stop-color:#F8F8F6"/>
	<stop  offset="1" style="stop-color:#FFFFFF"/>
</linearGradient>
<path fill="url(#SVGID_6_)" d="M120.652,192.15h152.043v-14.576c-0.891-31.239-6.225-49.487-17.831-61.015
	c-12.418-12.335-33.37-18.154-67.93-18.868h-14.948c-41.434,0-63.465,4.746-76.041,16.381c-13.079,12.1-16.573,33.285-17.958,63.544
	v4.269c1.212,31.192,7.768,49.928,21.252,60.738c12.846,10.299,33.107,14.693,67.747,14.693h40.167
	c40.856,0,64.682-7.287,65.542-44.525v-1.433h-36.318c-1.766,5.689-7.065,12.708-22.458,12.708h-61.209
	c-11.751,0-19.987-1.728-25.92-5.438c-6.95-4.346-10.695-11.497-11.133-21.255c-0.061-1.364,0.438-2.693,1.381-3.679
	S119.287,192.15,120.652,192.15z M122.74,141.152c6.307-6.369,17.427-9.335,34.996-9.335h37.125c12.721,0,26.759,1.035,34.43,8.715
	c3.896,3.9,5.868,9.157,5.861,15.623c-0.003,2.759-2.241,4.995-5,4.995H121.986c-2.743,0-4.973-2.209-5-4.952
	C116.928,150.128,118.863,145.066,122.74,141.152z"/>
<linearGradient id="SVGID_7_" gradientUnits="userSpaceOnUse" x1="145.7361" y1="176.4834" x2="206.3737" y2="176.4834">
	<stop  offset="0" style="stop-color:#FFFFFF;stop-opacity:1.671502e-12"/>
	<stop  offset="0.4292" style="stop-color:#FFFFFF;stop-opacity:0.7726"/>
	<stop  offset="0.5" style="stop-color:#FFFFFF;stop-opacity:0.9"/>
	<stop  offset="0.5707" style="stop-color:#FFFFFF;stop-opacity:0.7728"/>
	<stop  offset="1" style="stop-color:#FFFFFF;stop-opacity:0"/>
</linearGradient>
<path fill="url(#SVGID_7_)" d="M133.986,192.15h89.25l-1.583-31.333l-89.417,0.333C132.236,161.15,132.621,192.15,133.986,192.15z"
	/>
</svg>
