<?xml version="1.0" encoding="utf-8"?>
<!-- Generator: Adobe Illustrator 22.0.1, SVG Export Plug-In . SVG Version: 6.00 Build 0)  -->
<svg version="1.1" id="Layer_1" xmlns="http://www.w3.org/2000/svg" xmlns:xlink="http://www.w3.org/1999/xlink" x="0px" y="0px"
	 viewBox="0 0 572.465 92.7" enable-background="new 0 0 572.465 92.7" xml:space="preserve">
<path fill="#CF0D17" d="M163.969,81.7c-0.061,2.422-0.636,4.269-1.695,5.54c-1.241,1.453-3.239,2.482-5.994,3.088
	c-1.847,0.394-4.571,0.605-8.174,0.605c-5.056,0-8.84-0.212-11.353-0.605c-2.694-0.454-4.723-1.271-6.085-2.513
	c-2.331-2.18-3.512-6.024-3.512-11.534c0-4.269,0.605-7.447,1.847-9.597c1.393-2.422,3.754-3.966,7.054-4.632
	c1.847-0.394,4.874-0.575,9.082-0.575c4.874,0,8.355,0.242,10.444,0.727c3.663,0.848,6.115,2.846,7.326,5.994
	c0.696,1.816,1.09,4.813,1.12,9.021h-31.999c0.121,3.572,0.817,6.024,2.119,7.356c0.969,1.029,2.725,1.695,5.268,2.028
	c1.665,0.212,4.39,0.333,8.204,0.333c2.543,0,4.45-0.091,5.752-0.242s2.452-0.454,3.421-0.878c1.181-0.515,1.907-1.362,2.21-2.513
	c0.091-0.303,0.151-0.848,0.212-1.604H163.969z M159.004,73.344c-0.03-2.815-0.757-4.753-2.24-5.873
	c-1.181-0.908-2.997-1.483-5.419-1.726c-1.756-0.182-3.875-0.272-6.327-0.272c-3.118,0-5.57,0.182-7.326,0.515
	c-2.361,0.454-3.936,1.665-4.723,3.603c-0.424,0.999-0.696,2.24-0.787,3.754H159.004z"/>
<path fill="#FFFFFF" d="M178.811,81.52c0,0.337,0,0.596,0.026,0.777c0.026,2.07,0.181,3.416,0.44,4.011
	c0.336,0.802,1.035,1.346,2.096,1.683c1.475,0.465,5.59,0.698,12.396,0.698c5.253,0,9.032-0.259,11.335-0.776
	c2.251-0.492,3.39-2.252,3.39-5.254c0-1.707-0.233-2.976-0.725-3.777c-0.466-0.777-1.32-1.269-2.562-1.502
	c-1.372-0.232-3.649-0.361-6.832-0.388h-11.438c-4.167,0-7.143-0.544-8.928-1.604c-1.579-0.906-2.614-2.122-3.131-3.598
	c-0.492-1.371-0.725-2.924-0.725-4.658c0-3.183,0.88-5.512,2.666-6.936c1.113-0.905,2.355-1.526,3.727-1.863
	c3.338-0.802,8.255-1.189,14.699-1.189c4.943,0,8.669,0.361,11.231,1.086c1.656,0.467,3.002,1.32,4.063,2.563
	c0.932,1.113,1.475,2.82,1.63,5.176c0.026,0.336,0.026,0.932,0.052,1.734h-4.71v-0.544c-0.026-1.656-0.181-2.769-0.466-3.339
	c-0.543-1.009-1.708-1.682-3.545-2.07c-2.07-0.414-4.917-0.621-8.566-0.621c-5.564,0-9.653,0.311-12.267,0.906
	c-1.656,0.389-2.743,1.19-3.261,2.433c-0.285,0.698-0.44,1.579-0.44,2.665c0,1.605,0.207,2.77,0.621,3.494
	c0.699,1.19,3.131,1.915,7.35,2.148c1.165,0.077,6.366,0.129,15.605,0.154c3.39,0.026,5.771,0.467,7.143,1.32
	c2.407,1.501,3.623,4.166,3.623,8.022c0,2.562-0.44,4.606-1.32,6.081c-0.75,1.217-1.863,2.123-3.364,2.744s-3.649,1.061-6.444,1.293
	c-2.458,0.207-6.289,0.311-11.438,0.311c-3.83,0-6.599-0.104-8.333-0.311c-2.458-0.311-4.27-0.905-5.46-1.785
	c-1.397-1.035-2.251-2.406-2.536-4.141c-0.129-0.854-0.207-1.992-0.207-3.364c0-0.104,0-0.621,0.026-1.579H178.811z M230.802,92.571
	V57.247h34.626v4.141h-29.916v10.791h28.648v4.141h-28.648V88.43h29.942v4.141H230.802z M282.068,92.571V57.247h22.023
	c5.979,0.077,9.782,0.207,11.438,0.439c2.925,0.389,4.942,1.682,6.056,3.934c0.75,1.501,1.113,3.598,1.113,6.289
	c0,2.406-0.182,4.218-0.518,5.408c-0.596,1.992-2.381,3.313-5.306,3.934c1.579,0.311,2.769,0.906,3.623,1.76
	c0.854,0.906,1.346,2.303,1.501,4.192c0.052,0.621,0.078,2.07,0.078,4.348v5.021h-4.711V89.18c0-3.053-0.051-5.046-0.181-5.978
	c-0.311-2.251-1.579-3.571-3.804-3.934c-1.113-0.155-4.193-0.259-9.291-0.284h-17.313v13.586H282.068z M286.778,74.844h17.313
	c5.719,0,9.161-0.156,10.352-0.492c1.553-0.414,2.536-1.217,2.924-2.406c0.337-1.01,0.518-2.381,0.518-4.09
	c0-2.691-0.568-4.425-1.682-5.227c-0.75-0.544-1.838-0.854-3.234-0.984c-1.967-0.181-4.918-0.258-8.877-0.258h-17.313V74.844z
	 M340.374,57.247h4.71v35.324h-4.71V57.247z M363.613,92.571V57.247h34.626v4.141h-29.916v10.791h28.647v4.141h-28.647V88.43h29.942
	v4.141H363.613z M418.476,81.52c0,0.337,0,0.596,0.026,0.777c0.026,2.07,0.181,3.416,0.44,4.011
	c0.336,0.802,1.035,1.346,2.096,1.683c1.475,0.465,5.59,0.698,12.396,0.698c5.253,0,9.031-0.259,11.334-0.776
	c2.252-0.492,3.391-2.252,3.391-5.254c0-1.707-0.232-2.976-0.725-3.777c-0.466-0.777-1.32-1.269-2.563-1.502
	c-1.371-0.232-3.648-0.361-6.832-0.388h-11.438c-4.167,0-7.143-0.544-8.929-1.604c-1.579-0.906-2.614-2.122-3.132-3.598
	c-0.491-1.371-0.725-2.924-0.725-4.658c0-3.183,0.881-5.512,2.666-6.936c1.113-0.905,2.355-1.526,3.727-1.863
	c3.338-0.802,8.256-1.189,14.699-1.189c4.943,0,8.67,0.361,11.231,1.086c1.656,0.467,3.002,1.32,4.063,2.563
	c0.932,1.113,1.475,2.82,1.63,5.176c0.026,0.336,0.026,0.932,0.052,1.734h-4.71v-0.544c-0.026-1.656-0.181-2.769-0.466-3.339
	c-0.543-1.009-1.708-1.682-3.545-2.07c-2.07-0.414-4.918-0.621-8.566-0.621c-5.564,0-9.652,0.311-12.267,0.906
	c-1.656,0.389-2.743,1.19-3.261,2.433c-0.285,0.698-0.439,1.579-0.439,2.665c0,1.605,0.207,2.77,0.621,3.494
	c0.698,1.19,3.131,1.915,7.35,2.148c1.164,0.077,6.365,0.129,15.604,0.154c3.39,0.026,5.771,0.467,7.143,1.32
	c2.407,1.501,3.623,4.166,3.623,8.022c0,2.562-0.44,4.606-1.319,6.081c-0.751,1.217-1.863,2.123-3.365,2.744
	c-1.5,0.621-3.648,1.061-6.443,1.293c-2.459,0.207-6.289,0.311-11.438,0.311c-3.83,0-6.599-0.104-8.333-0.311
	c-2.459-0.311-4.27-0.905-5.461-1.785c-1.396-1.035-2.251-2.406-2.535-4.141c-0.13-0.854-0.207-1.992-0.207-3.364
	c0-0.104,0-0.621,0.025-1.579H418.476z M347.11,13.607l13.871,29.981l10.529,0.417l20.955-43.813H381.59l-15.25,30.299L351.94,0.148
	h-10.129l-13.346,30.343L313.216,0.32l-10.832-0.052l20.832,43.738l10.707,0.098L347.11,13.607z M235.84,43.508
	c0-14.17,0-43.508,0-43.508s27.994,0.116,41.035,0.576c10.85,0.382,14.735,4.577,15.099,15.485c0.155,4.637,0.196,9.3-0.107,13.925
	c-0.578,8.806-4.308,13.093-13.122,13.393C264.594,43.861,250.414,43.508,235.84,43.508z M246.21,35.248
	c0,0,19.276,0.172,28.755-0.082c3.99-0.107,6.451-2.616,6.541-6.818c0.091-4.247,0.086-8.5-0.02-12.746
	c-0.1-4.023-2.495-6.558-6.279-6.673c-9.588-0.292-28.997-0.097-28.997-0.097V35.248z M39.917,0.741
	C29.21,0.022,20.091-0.014,9.381,0.648C2.473,1.075,0.383,5.026,0.573,13.459C0.75,21.315,2.496,23.918,9.72,24.655
	c8.469,0.864,14.317,1.249,22.831,1.683c3.369,0.171,7.123,0.071,6.886,4.892c-0.216,4.404-3.455,5.161-6.697,5.291
	c-5.889,0.236-9.293,0.179-15.19,0.153c-4.442-0.019-8.113-1.089-7.634-6.756c-3.431,0-6.597,0-9.734,0
	c-0.83,9.234,1.05,13.207,8.534,13.692c11.323,0.734,20.083,0.67,31.395-0.208c7.339-0.569,9.804-4.67,9.371-14.779
	c-0.285-6.641-3.3-9.419-10.389-10.038c-8.859-0.773-15.071-0.921-23.959-1.374c-2.719-0.138-4.43-1.203-4.45-4.362
	c-0.02-3.07,1.188-4.894,4.241-5.043c5.506-0.268,9.32-0.424,14.832-0.46c4.618-0.03,9.037,0.456,8.89,6.668c3.359,0,6.44,0,9.69,0
	C49.001,5.202,46.903,1.211,39.917,0.741z M460.355,0.268v43.688l43.459,0.049V35.89h-33.138V25.396l30.065,0v-7.622l-30.124,0V8.01
	l33.197,0V0.314L460.355,0.268z M70.951,30.623c0,4.759,0,8.885,0,13.301c-3.349,0-6.54,0-10.036,0c0-14.359,0-43.622,0-43.622
	s32.758,0,38.515,0.25c8.345,0.363,11.292,3.743,11.552,12.113c0.458,14.732-2.288,17.645-17.12,17.908
	c-6.397,0.114-12.797,0.039-19.195,0.049C73.481,30.625,72.297,30.623,70.951,30.623z M71.116,22.309
	c8.514,0,16.65,0.092,24.781-0.041c3.782-0.062,5.158-2.567,5.1-6.066c-0.057-3.399,0.355-7.562-4.363-7.784
	C88.181,8.02,79.697,8.305,71.116,8.305C71.116,13.011,71.116,17.49,71.116,22.309z M537.919,23.502l29.719-23.254l-14.798,0.02
	l-23.75,18.099l-3.62,0.101V0.223h-10.007v43.782h10.163V27.742h2.339l28,16.264h16.5L537.919,23.502z M403.255,0.268v43.688
	l43.459,0.049V35.89h-33.138V25.396l30.065,0v-7.622l-30.124,0V8.01l33.197,0V0.314L403.255,0.268z M181.255,0.268v43.688
	l43.459,0.049V35.89h-33.138V25.396l30.065,0v-7.622l-30.124,0V8.01l33.197,0V0.314L181.255,0.268z M124.255,0.268v43.688
	l43.459,0.049V35.89h-33.138V25.396l30.065,0v-7.622l-30.124,0V8.01l33.197,0V0.314L124.255,0.268z"/>
</svg>
