<?xml version="1.0" encoding="utf-8"?>
<!-- Generator: Adobe Illustrator 22.0.1, SVG Export Plug-In . SVG Version: 6.00 Build 0)  -->
<svg version="1.1" id="Layer_1" xmlns="http://www.w3.org/2000/svg" xmlns:xlink="http://www.w3.org/1999/xlink" x="0px" y="0px"
	 viewBox="0 0 270.2216 105.375" enable-background="new 0 0 270.2216 105.375" xml:space="preserve">
<polygon fill="#ED1C24" points="269.3973,50.8488 54.9923,50.8488 92.145,25.8682 49.3694,46.8333 45.988,0 42.8192,46.7525 
	0,25.9528 39.21,52.5004 0.4227,78.7882 42.9038,58.1639 45.9782,105.375 49.3272,58.1613 91.6801,78.7882 55.2923,54.188 
	269.3973,54.188 "/>
<path fill="#3A53A4" d="M124.0153,36.1483v7.3858c0,0.8884-0.3263,1.6465-0.979,2.2738c-0.6527,0.6272-1.4414,0.9409-2.366,0.9409
	H94.9382v-5.1434h20.6964c0.9338,0,1.6907-0.757,1.6907-1.6907v-0.1468c0-0.9338-0.757-1.6907-1.6907-1.6907H98.9522
	c-0.9245,0-1.7133-0.3136-2.366-0.9409c-0.6527-0.6272-0.979-1.3853-0.979-2.2738v-7.3858c0-0.8886,0.3263-1.6465,0.979-2.2738
	c0.6527-0.6272,1.4415-0.9409,2.366-0.9409h24.231v5.1434h-19.2216c-0.5002,0-0.9029,0.1464-1.2075,0.4391
	c-0.3044,0.2926-0.4569,0.6795-0.4569,1.1604v0.3293c0,0.4807,0.1525,0.8677,0.4569,1.1604
	c0.3046,0.2925,0.7072,0.4391,1.2075,0.4391h16.7088c0.9246,0,1.7133,0.3136,2.366,0.9409S124.0153,35.2597,124.0153,36.1483z
	 M126.9832,46.7488l0.0002-13.7278h20.548c0.4962,0,0.8953-0.1479,1.1973-0.4438c0.302-0.2957,0.453-0.6869,0.453-1.1729v-0.3329
	c0-0.4859-0.151-0.8771-0.453-1.1729c-0.302-0.2957-0.7011-0.4438-1.1973-0.4438h-20.548v-5.199h25.5151
	c0.9168,0,1.6988,0.317,2.346,0.951c0.6472,0.634,0.9708,1.4003,0.9708,2.2983v7.4656c0,0.8982-0.3236,1.6643-0.9708,2.2983
	c-0.6472,0.634-1.4292,0.951-2.346,0.951H133.617l-0.0002,8.5288H126.9832z M158.9221,46.7488v-13.819h20.5009
	c0.495,0,0.8932-0.1464,1.1945-0.4392c0.3013-0.2926,0.452-0.6797,0.452-1.1607v-0.3294c0-0.4809-0.1507-0.8679-0.452-1.1607
	c-0.3013-0.2926-0.6995-0.4392-1.1945-0.4392h-20.5009v-5.1449h25.4566c0.9147,0,1.695,0.3137,2.3407,0.9411
	c0.6457,0.6274,0.9686,1.3857,0.9686,2.2744v5.9449c0,0.8889-0.3229,1.647-0.9686,2.2744s-1.4259,0.9411-2.3407,0.9411
	c0.8286,0,1.4851,0.2353,1.9694,0.7059s0.9309,1.3073,1.3398,2.5097l2.3084,6.9017h-6.9412l-2.3084-6.9017
	c-0.043-0.1044-0.113-0.2745-0.2099-0.5098c-0.0969-0.2353-0.1641-0.3895-0.2018-0.4627c-0.0377-0.073-0.1076-0.1804-0.2099-0.3216
	s-0.2045-0.2353-0.3067-0.2823s-0.2421-0.0915-0.4197-0.1333c-0.1776-0.0417-0.3901-0.0627-0.6376-0.0627h-13.2206v8.6742H158.9221z
	 M192.9741,46.9854V24.2556h6.4988v22.7298H192.9741z M269.2494,24.262h-11.497v5.1385h11.497V24.262z M237.4636,24.262v5.1385
	h11.6244v17.3483h6.4154V29.4005l0,0V24.262H237.4636z M100.8206,57.9076c-3.3616,0-6.0866,2.7251-6.0866,6.0866v7.4392
	c0,3.3616,2.7251,6.0866,6.0866,6.0866h15.8964v-4.7341h-13.1865c-1.6808,0-3.0433-1.3625-3.0433-3.0433v-4.3959
	c0-1.6808,1.3625-3.0433,3.0433-3.0433h13.1865v-4.3959H100.8206z M119.4926,71.4335c0,3.3616,2.7251,6.0866,6.0866,6.0866h12.7439
	c3.3616,0,6.0866-2.7251,6.0866-6.0866V57.9076h-5.5266v11.8351c0,1.6808-1.3625,3.0433-3.0433,3.0433h-7.8408
	c-1.6808,0-3.0433-1.3625-3.0433-3.0433V57.9076h-5.4632V71.4335z M221.0318,77.5202V64.0696c0-0.9528,1.1947-1.38,1.7989-0.6432
	l10.4367,12.7278c0.8992,1.0966,2.2426,1.7323,3.6607,1.7323h0.9899c2.6145,0,4.7341-2.1195,4.7341-4.7341V57.9076h-5.3575v12.9628
	c0,0.9407-1.1693,1.3747-1.7831,0.6619l-10.5587-12.2616c-0.8993-1.0444-2.2091-1.645-3.5873-1.645h-0.9782
	c-2.6145,0-4.7341,2.1195-4.7341,4.7341v15.1602H221.0318z M251.9722,57.9076c-3.3616,0-6.0866,2.7251-6.0866,6.0866v7.4392
	c0,3.3616,2.7251,6.0866,6.0866,6.0866h12.1627c3.3616,0,6.0866-2.7251,6.0866-6.0866v0c0-3.3577-2.7219-6.0796-6.0796-6.0796
	h-6.4741v4.4945h5.7908c0.747,0,1.3526,0.6056,1.3526,1.3526v0.2325c0,0.747-0.6056,1.3526-1.3526,1.3526h-8.7813
	c-1.6808,0-3.0433-1.3625-3.0433-3.0433v-4.3959c0-1.6808,1.3625-3.0433,3.0433-3.0433h14.882v-4.3959H251.9722z M204.2688,57.964
	h-9.9986v4.4688h9.9986V57.964z M176.6255,57.964v4.4688h10.1095v15.0874h5.5793V62.4328l0,0V57.964H176.6255z M207.0234,57.9076
	l0.0004,19.6125h5.5793V57.964L207.0234,57.9076z M174.061,57.964h-9.9986v4.4688h9.9986V57.964z M146.4177,57.964v4.4688h10.1095
	v15.0874h5.5793V62.4328l0,0l0-4.4688H146.4177z M208.9909,47.0685V31.5532c0-1.0991,1.3781-1.5918,2.075-0.742l12.0387,14.6816
	c1.0372,1.2649,2.5869,1.9982,4.2226,1.9982h1.1419c3.0159,0,5.4607-2.4449,5.4607-5.4607V24.4454h-6.1799V39.398
	c0,1.0851-1.3488,1.5858-2.0569,0.7636l-12.1795-14.1438c-1.0374-1.2047-2.5482-1.8975-4.138-1.8975h-1.1283
	c-3.0159,0-5.4607,2.4449-5.4607,5.4607v17.4874H208.9909z"/>
</svg>
