<?xml version="1.0" encoding="utf-8"?>
<!-- Generator: Adobe Illustrator 22.0.1, SVG Export Plug-In . SVG Version: 6.00 Build 0)  -->
<svg version="1.1" id="Layer_1" xmlns="http://www.w3.org/2000/svg" xmlns:xlink="http://www.w3.org/1999/xlink" x="0px" y="0px"
	 viewBox="0 0 97.2689 28.959" enable-background="new 0 0 97.2689 28.959" xml:space="preserve">
<path fill="#231F20" d="M86.085,12.839c-0.634,0-1.203,0.077-1.707,0.237c-0.537,0.172-1.01,0.407-1.41,0.712
	c-0.36,0.273-0.6499,0.6-0.8829,0.963v-1.647h-1.097v11.978h1.097v-6.736c0-0.587,0.083-1.155,0.25-1.713
	c0.167-0.55,0.417-1.025,0.756-1.439c0.333-0.408,0.756-0.729,1.28-0.967c0.433-0.196,0.944-0.298,1.5449-0.298
	c0.104,0,0.208,0.001,0.3151,0.008l0.348,0.019v-1.109l-0.321-0.006C86.199,12.839,86.142,12.839,86.085,12.839 M67.836,20.96
	c-0.161,0.622-0.407,1.173-0.737,1.662c-0.325,0.482-0.74,0.871-1.251,1.178c-0.492,0.295-1.093,0.449-1.825,0.449
	c-1.3051-0.005-2.3-0.434-3.079-1.31c-0.767-0.867-1.172-2.139-1.172-3.868c0-0.703,0.097-1.366,0.293-1.994
	c0.195-0.627,0.474-1.171,0.838-1.636c0.359-0.463,0.801-0.827,1.333-1.099c0.522-0.268,1.113-0.404,1.787-0.404
	c0.691,0,1.277,0.136,1.774,0.401c0.508,0.27,0.921,0.634,1.253,1.102c0.335,0.473,0.591,1.017,0.766,1.637
	c0.174,0.622,0.262,1.287,0.262,1.993C68.078,19.704,67.998,20.334,67.836,20.96 M67.817,14.638
	c-0.447-0.565-0.995-1.009-1.632-1.323c-0.644-0.319-1.37-0.474-2.162-0.474c-0.603,0-1.174,0.088-1.703,0.271
	c-0.525,0.179-0.998,0.437-1.409,0.77c-0.4091,0.33-0.763,0.719-1.059,1.163c-0.03,0.046-0.052,0.097-0.08,0.144v-2.085h-1.098
	v15.855h1.098v-5.862c0.284,0.464,0.641,0.874,1.073,1.219c0.843,0.68,1.919,1.01,3.178,1.01c0.824,0,1.5699-0.17,2.224-0.513
	c0.644-0.336,1.187-0.801,1.62-1.382c0.429-0.577,0.754-1.245,0.975-1.997c0.223-0.751,0.334-1.541,0.334-2.363
	c0-0.879-0.114-1.698-0.345-2.452C68.601,15.866,68.262,15.202,67.817,14.638 M91.4729,17.796l5.65-4.692H95.458l-7.373,6.127
	v-8.008h-1.098v13.859h1.098v-4.447l2.552-2.11l5.199,6.557h1.433L91.4729,17.796z M45.208,13.921l0.3459,0.019v-1.109
	l-0.3199-0.008c-0.058,0-0.116-0.001-0.172-0.001c-0.634,0-1.203,0.076-1.708,0.237c-0.538,0.171-1.009,0.408-1.409,0.713
	c-0.36,0.273-0.649,0.599-0.883,0.961v-1.646h-1.097v11.979h1.097v-6.738c0-0.586,0.0829-1.154,0.25-1.711
	c0.165-0.549,0.417-1.025,0.754-1.439c0.335-0.408,0.757-0.729,1.281-0.967c0.434-0.196,0.945-0.3,1.546-0.3
	C44.995,13.911,45.101,13.914,45.208,13.921 M38.164,21.053c-0.188,0.625-0.466,1.169-0.836,1.644
	c-0.369,0.469-0.817,0.841-1.357,1.121c-0.5291,0.274-1.136,0.415-1.841,0.415c-0.723,0-1.338-0.141-1.8651-0.415
	c-0.54-0.28-0.99-0.652-1.3589-1.121c-0.368-0.475-0.647-1.019-0.834-1.644c-0.189-0.63-0.284-1.286-0.284-1.977
	c0-0.673,0.095-1.323,0.284-1.953c0.187-0.625,0.466-1.171,0.834-1.644c0.371-0.471,0.819-0.845,1.362-1.134
	c0.526-0.28,1.141-0.423,1.862-0.424c0.703,0.001,1.31,0.144,1.837,0.424c0.542,0.289,0.992,0.663,1.361,1.134
	c0.37,0.473,0.6479,1.019,0.836,1.644c0.189,0.63,0.283,1.28,0.283,1.953C38.447,19.767,38.353,20.423,38.164,21.053 M27.484,21.053
	c-0.187,0.625-0.466,1.169-0.836,1.644c-0.368,0.469-0.817,0.841-1.3571,1.121c-0.528,0.274-1.137,0.415-1.842,0.415
	c-0.721,0-1.336-0.141-1.863-0.415c-0.542-0.28-0.99-0.652-1.359-1.121c-0.37-0.474-0.647-1.019-0.836-1.643l0.001-0.001
	c-0.189-0.63-0.283-1.286-0.283-1.977c0-0.673,0.094-1.323,0.283-1.953c0.188-0.625,0.465-1.171,0.835-1.644
	c0.37-0.471,0.819-0.845,1.36-1.134c0.527-0.28,1.142-0.423,1.862-0.424c0.705,0.001,1.31,0.144,1.839,0.424
	c0.542,0.289,0.992,0.663,1.36,1.134c0.37,0.473,0.649,1.019,0.836,1.644c0.1899,0.63,0.284,1.28,0.284,1.953
	C27.768,19.767,27.674,20.423,27.484,21.053 M38.162,14.754c-0.459-0.579-1.032-1.046-1.701-1.397
	c-0.683-0.358-1.466-0.534-2.331-0.534c-0.881,0-1.671,0.175-2.357,0.534c-0.669,0.349-1.2401,0.818-1.701,1.397
	c-0.46,0.577-0.806,1.243-1.037,1.991c-0.114,0.37-0.2,0.748-0.257,1.135c-0.0569-0.387-0.1429-0.765-0.257-1.135
	c-0.231-0.748-0.578-1.414-1.037-1.991c-0.463-0.579-1.033-1.046-1.703-1.397c-0.684-0.358-1.465-0.534-2.332-0.534
	c-0.88,0-1.669,0.175-2.355,0.534c-0.67,0.351-1.24,0.818-1.702,1.397c-0.459,0.577-0.805,1.243-1.036,1.991
	c-0.231,0.744-0.3459,1.522-0.344,2.331c0,0.811,0.113,1.589,0.344,2.334c0.231,0.748,0.577,1.413,1.036,1.99
	c0.462,0.58,1.034,1.046,1.705,1.389c0.683,0.348,1.466,0.519,2.33,0.519c0.879,0,1.667-0.17,2.353-0.519
	c0.67-0.343,1.241-0.809,1.703-1.389c0.46-0.577,0.807-1.242,1.038-1.99c0.114-0.37,0.2-0.749,0.257-1.136
	c0.057,0.387,0.143,0.766,0.257,1.136c0.231,0.748,0.577,1.413,1.037,1.992c0.463,0.578,1.033,1.044,1.704,1.387
	c0.684,0.348,1.465,0.519,2.332,0.519c0.877,0,1.666-0.17,2.351-0.519c0.671-0.343,1.242-0.809,1.703-1.389
	c0.46-0.577,0.806-1.242,1.038-1.99c0.231-0.745,0.345-1.523,0.345-2.334c0-0.809-0.114-1.587-0.345-2.331
	C38.968,15.997,38.622,15.331,38.162,14.754 M16.752,14.107c-0.314-0.404-0.7289-0.721-1.227-0.946
	c-0.511-0.23-1.129-0.336-1.852-0.338c-0.94-0.001-1.785,0.264-2.488,0.793c-0.485,0.363-0.857,0.82-1.123,1.348
	C9.824,14.42,9.518,13.93,9.066,13.568c-0.62-0.501-1.394-0.748-2.269-0.746c-0.049,0-0.1,0-0.151,0.003v-0.002
	c-0.479,0-0.937,0.085-1.365,0.255c-0.422,0.168-0.812,0.405-1.161,0.706c-0.318,0.274-0.575,0.6-0.801,0.951v-1.648H2.222v11.979
	h1.097v-6.738c0-0.602,0.08-1.171,0.24-1.713c0.159-0.541,0.385-1.007,0.678-1.408c0.288-0.397,0.636-0.708,1.051-0.942
	c0.405-0.229,0.851-0.343,1.358-0.344c0.596,0,1.059,0.099,1.391,0.272c0.351,0.183,0.609,0.418,0.798,0.719
	c0.194,0.313,0.332,0.681,0.407,1.115c0.077,0.451,0.115,0.931,0.115,1.442v7.597h1.098v-7.509c0.001-0.495,0.075-0.961,0.225-1.403
	c0.149-0.442,0.364-0.825,0.646-1.16c0.279-0.331,0.614-0.593,1.014-0.786c0.393-0.189,0.832-0.286,1.333-0.287
	c0.586,0,1.053,0.085,1.399,0.237c0.359,0.157,0.631,0.37,0.838,0.645c0.209,0.281,0.36,0.622,0.448,1.039
	c0.09,0.427,0.136,0.911,0.136,1.451v7.773h1.098v-7.773c0-0.637-0.061-1.224-0.184-1.759
	C17.281,14.988,17.063,14.509,16.752,14.107 M45.398,18.397c0.061-0.618,0.176-1.19,0.374-1.689
	c0.237-0.599,0.543-1.104,0.918-1.519c0.375-0.414,0.804-0.727,1.298-0.943c0.493-0.216,1.022-0.324,1.597-0.325
	c0.694,0,1.288,0.128,1.794,0.374c0.516,0.254,0.941,0.59,1.285,1.023c0.348,0.435,0.611,0.942,0.791,1.531
	c0.151,0.492,0.224,1.011,0.25,1.548H45.398z M53.651,14.81c-0.434-0.599-0.998-1.083-1.677-1.442
	c-0.696-0.367-1.511-0.545-2.434-0.545c-0.678,0-1.341,0.144-1.982,0.425c-0.645,0.282-1.214,0.698-1.698,1.238
	c-0.485,0.54-0.873,1.199-1.165,1.963c-0.294,0.778-0.438,1.656-0.438,2.627c0,0.862,0.097,1.674,0.296,2.43
	c0.2,0.761,0.511,1.433,0.935,2.006c0.428,0.58,0.984,1.032,1.655,1.347c0.6479,0.303,1.409,0.451,2.272,0.451
	c0.043,0,0.087,0,0.13-0.002c1.352,0,2.523-0.387,3.465-1.166c0.952-0.782,1.514-1.9,1.679-3.286l0.045-0.367h-1.093l-0.043,0.279
	c-0.183,1.192-0.636,2.036-1.344,2.6c-0.721,0.572-1.624,0.864-2.757,0.865c-0.7711,0-1.402-0.133-1.902-0.384
	c-0.514-0.257-0.926-0.603-1.248-1.043c-0.325-0.45-0.569-0.978-0.729-1.598c-0.136-0.528-0.209-1.105-0.24-1.714h9.434l0.012-0.317
	c0.004-0.11,0.006-0.221,0.006-0.33c0-0.691-0.082-1.362-0.246-2.011C54.389,16.082,54.079,15.403,53.651,14.81 M77.847,20.19
	c0,0.52-0.093,1.023-0.279,1.518c-0.184,0.49-0.452,0.916-0.812,1.291c-0.358,0.372-0.803,0.675-1.343,0.91
	c-0.527,0.229-1.136,0.35-1.836,0.35c-0.591,0-1.073-0.076-1.443-0.213c-0.39-0.143-0.692-0.322-0.92-0.531
	c-0.229-0.211-0.383-0.442-0.474-0.706c-0.099-0.284-0.149-0.567-0.149-0.852c0-0.571,0.093-1.01,0.252-1.322
	c0.169-0.33,0.387-0.577,0.661-0.758c0.007-0.005,0.055-0.03,0.12-0.056c0.233-0.093,0.691-0.218,1.123-0.316
	c0.217-0.048,0.428-0.093,0.608-0.125c0.179-0.032,0.328-0.053,0.4-0.057h-0.002c0.439-0.029,0.888-0.052,1.349-0.066
	c0.475-0.016,0.918-0.053,1.33-0.114c0.417-0.061,0.79-0.15,1.123-0.269c0.108-0.038,0.197-0.096,0.292-0.147V20.19z M79.563,24.026
	h-0.068c-0.114,0-0.218-0.011-0.314-0.035c-0.093-0.024-0.139-0.056-0.182-0.104v-0.002c-0.013-0.008-0.055-0.091-0.055-0.272V16.38
	c-0.016-0.654-0.131-1.218-0.365-1.686c-0.226-0.453-0.532-0.831-0.913-1.12c-0.379-0.288-0.817-0.488-1.308-0.6
	c-0.475-0.109-0.975-0.164-1.498-0.164c-0.736,0-1.39,0.1-1.959,0.308c-0.557,0.203-1.041,0.492-1.437,0.863
	c-0.396,0.372-0.7,0.814-0.907,1.319c-0.2061,0.5-0.325,1.037-0.3571,1.599l-0.019,0.347h1.096l0.021-0.306
	c0.073-0.999,0.405-1.719,0.994-2.239c0.587-0.515,1.424-0.79,2.568-0.792c0.723,0,1.277,0.098,1.655,0.269
	c0.4041,0.183,0.688,0.404,0.877,0.659c0.198,0.271,0.319,0.556,0.37,0.873c0.056,0.353,0.085,0.689,0.085,1.009
	c0,0.385-0.08,0.641-0.191,0.787c-0.117,0.157-0.312,0.293-0.6281,0.391c-0.325,0.099-0.764,0.171-1.306,0.207
	c-0.559,0.036-1.227,0.076-2.009,0.121h-0.001c-0.487,0.031-0.973,0.095-1.46,0.194c-0.508,0.104-0.969,0.288-1.374,0.556
	c-0.417,0.274-0.753,0.655-1.003,1.125c-0.265,0.495-0.381,1.115-0.381,1.857c0,0.544,0.091,1.037,0.288,1.469
	c0.195,0.432,0.495,0.797,0.884,1.082c0.764,0.561,1.761,0.827,2.9561,0.826c0.618,0,1.197-0.08,1.732-0.246
	c0.529-0.165,1.004-0.387,1.424-0.672c0.4171-0.282,0.768-0.609,1.049-0.979c0.008-0.01,0.012-0.02,0.02-0.03v0.251
	c0,0.245,0.033,0.466,0.115,0.665c0.082,0.198,0.22,0.371,0.4,0.485c0.3,0.191,0.653,0.284,1.027,0.282h0.992v-1.134l-0.363,0.038
	C79.88,24.009,79.728,24.018,79.563,24.026 M26.422,4.222c0.84,0,1.308,0.647,1.308,1.863c0,1.117-0.496,1.762-1.269,1.762
	c-0.824,0-1.317-0.62-1.317-1.762C25.144,4.856,25.588,4.222,26.422,4.222 M32.611,6.606c0.493-0.14,0.988-0.165,1.37-0.405v0.772
	c0,0.71-0.534,1.179-1.282,1.179c-0.493,0-0.811-0.33-0.811-0.797C31.888,6.948,32.117,6.746,32.611,6.606 M25.168,8.533
	c0.444,0.684,1.142,1.053,2.03,1.053c1.27,0,2.288-0.908,2.656-2.372c-0.02,0.131-0.058,0.248-0.058,0.394
	c0,1.192,0.787,1.978,2.105,1.978c0.836,0,1.522-0.293,2.142-0.914c0.026,0.254,0.064,0.483,0.114,0.698h2.244V9.115
	c-0.2271-0.113-0.33-0.468-0.33-1.063V5.503c0-0.927-0.024-1.61-0.443-2.157c-0.468-0.594-1.293-0.873-2.472-0.873
	c-1.913,0-2.955,0.723-3.169,2.256h2.028c0.09-0.493,0.457-0.761,1.0891-0.761c0.572,0,0.877,0.203,0.877,0.598v0.163
	c0,0.521-0.837,0.418-2.397,0.786C30.733,5.714,30.2,6.13,29.956,6.757c0.036-0.245,0.055-0.502,0.055-0.771
	c0-2.133-1.179-3.526-2.841-3.526c-0.86,0-1.494,0.341-1.989,1.078V2.637h-2.206v8.938h2.193V8.533z M52.151,7.251h-2.092
	c-0.153,0.483-0.534,0.737-1.13,0.737c-0.785,0-1.203-0.508-1.203-1.458h4.425V7.251z M48.916,3.905
	c0.763,0,1.244,0.508,1.256,1.382h-2.51C47.75,4.387,48.207,3.905,48.916,3.905 M56.347,2.473c-0.926,0-1.584,0.354-2.041,1.089
	V2.637h-2.155v2.341c-0.375-1.628-1.562-2.57-3.297-2.57c-2.054,0-3.385,1.37-3.385,3.626c0,0.049,0.009,0.092,0.011,0.141h-1.888
	C43.44,7.15,42.793,7.67,41.74,7.67c-1.267,0-2.054-0.989-2.054-2.814c0-1.837,0.851-2.89,2.117-2.89
	c0.977,0,1.575,0.442,1.789,1.319h2.194c-0.202-2.018-1.7-3.261-3.906-3.261c-2.789,0-4.59,1.902-4.59,4.856
	c0,2.855,1.801,4.742,4.45,4.742c1.939,0,3.3-0.948,3.833-2.632c0.333,1.617,1.526,2.583,3.281,2.583
	c1.699,0,2.887-0.831,3.297-2.265V9.37h2.193v-3.6c0-1.104,0.316-1.624,1.115-1.624c0.877,0,0.926,0.596,0.926,1.839V9.37h2.206
	V4.995C58.591,3.271,57.983,2.473,56.347,2.473 M65.325,6.606c0.4951-0.14,0.989-0.165,1.368-0.405v0.772
	c0,0.71-0.532,1.179-1.28,1.179c-0.493,0-0.811-0.33-0.811-0.797C64.602,6.948,64.83,6.746,65.325,6.606 M59.404,6.581
	c0,2.091,0.239,2.942,1.99,2.942c0.431,0,0.875-0.052,1.317-0.141V8.506c0.305,0.666,0.96,1.08,1.905,1.08
	c0.834,0,1.52-0.293,2.141-0.914c0.026,0.254,0.064,0.483,0.114,0.698h2.245V9.115c-0.228-0.113-0.332-0.468-0.332-1.063V5.503
	c0-0.927-0.024-1.61-0.442-2.157c-0.468-0.594-1.293-0.873-2.471-0.873c-1.916,0-2.955,0.723-3.173,2.256h2.029
	c0.09-0.493,0.457-0.761,1.093-0.761c0.569,0,0.873,0.203,0.873,0.598v0.163c0,0.521-0.834,0.418-2.396,0.786
	c-1.192,0.279-1.787,0.963-1.787,2.093c0,0.137,0.046,0.247,0.066,0.373c-0.049,0.002-0.104,0.007-0.142,0.007
	c-0.697,0-0.825-0.292-0.825-1.104V3.968h1.131V2.637h-1.131V0.735h-2.205v1.902h-0.902v1.331h0.902V6.581z M6.427,8.339H5.332V7.16
	H4.394v1.179H3.297V4.947h1.097v1.141h0.938V4.947h1.095V8.339z M7.549,4.079H2.176v5.247h5.373V4.079z M6.759,0.096H2.965v0.822
	h3.794V0.096z M8.273,4.6h1.258c0.319,0.303,0.705,0.574,1.217,0.776c1.332,0.532,2.372,0.71,2.916,0.989
	c0.216,0.113,0.356,0.342,0.356,0.647c0,0.557-0.521,0.9-1.496,0.9c-1.116,0-1.7-0.533-1.724-1.573H8.554
	c0.1411,2.206,1.369,3.284,3.741,3.284c2.161,0,3.49-0.791,3.855-2.104c0.092,1.323,0.82,2.015,2.209,2.015
	c0.862,0,1.509-0.343,2.042-1.091v0.928h2.155V2.637H20.35v3.602c0,1.102-0.304,1.623-1.104,1.623c-0.748,0-0.924-0.457-0.924-1.46
	V2.637h-2.208v3.261c-0.1429-0.417-0.3849-0.785-0.75-1.079c-0.4449-0.356-1.205-0.596-2.257-0.939
	c-1.433-0.469-2.144-0.609-2.144-1.293c0-0.457,0.4821-0.825,1.269-0.825c0.801,0,1.278,0.26,1.464,0.872h2.25
	C15.793,1.001,14.47,0,12.384,0c-2.283,0-3.64,1.142-3.64,2.853c0,0.671,0.272,1.239,0.747,1.71L4.844,0.919L0,4.6h1.455
	l3.389-2.481L8.273,4.6z"/>
</svg>
