<?xml version="1.0" encoding="utf-8"?>
<!-- Generator: Adobe Illustrator 22.0.1, SVG Export Plug-In . SVG Version: 6.00 Build 0)  -->
<svg version="1.1" id="Layer_1" xmlns="http://www.w3.org/2000/svg" xmlns:xlink="http://www.w3.org/1999/xlink" x="0px" y="0px"
	 viewBox="0 0 242.3775 32.2934" enable-background="new 0 0 242.3775 32.2934" xml:space="preserve">
<path fill="#EB1C24" d="M4.1874,22.5362l83.2506,0.046l-24.9683,6.9152v0.069l66.0165,2.6815l-86.39,0.0455l24.8288-6.5723
	l-0.0715-0.1128L4.1874,22.5362z M105.2882,17.2973h16.1925c2.4614,0,4.4285-0.3052,5.9015-0.9158
	c1.4729-0.6104,2.4129-1.6618,2.8198-3.1542c0.2132-0.8139,0.1842-1.5649-0.0872-2.2529c-0.2713-0.688-0.7268-1.3131-1.3663-1.8752
	c-0.6396-0.562-1.2888-1.0465-1.9477-1.4535l-3.9536-2.6163c-0.2714-0.1745-0.4022-0.3925-0.3925-0.6542
	c0.0097-0.2616,0.1406-0.4506,0.3925-0.5668c0.2518-0.1163,0.5135-0.1745,0.7848-0.1745h9.7967L135.9374,0h-15.3578
	c-2.1512,0-3.755,0.2375-4.8112,0.7122c-1.0563,0.4749-1.7589,1.2065-2.1077,2.1949c-0.1938,0.5427-0.2325,1.0853-0.1162,1.628
	c0.1162,0.5427,0.4796,1.1144,1.0901,1.7152c0.6104,0.6007,1.7782,1.4632,3.5031,2.5873l4.099,2.6745
	c0.3294,0.2132,0.5184,0.4797,0.5669,0.7994c0.0485,0.3198-0.0921,0.5524-0.4215,0.6977s-0.7365,0.218-1.221,0.218h-13.1692
	L105.2882,17.2973z M137.5821,17.2973l4.8549-7.2678h9.0119l-4.8548,7.2678h7.6166L165.7519,0h-7.6165l-4.3025,6.4247h-9.012
	L149.1233,0h-7.6166l-11.5413,17.2973H137.5821z M176.6138,17.2973c1.3373,0,2.379-0.1551,3.1252-0.4651
	c0.7461-0.3101,1.4535-0.7511,2.1221-1.3228c0.6687-0.5717,1.3131-1.3324,1.9332-2.2821l6.3957-9.5934
	c0.4651-0.717,0.6299-1.3469,0.4941-1.8896c-0.1356-0.5427-0.5668-0.9691-1.2936-1.2791C188.6637,0.1551,187.6123,0,186.2363,0
	h-13.8959c-1.6861,0-2.9991,0.3441-3.9391,1.0321s-1.7587,1.5552-2.4565,2.6018l-6.3957,9.5934
	c-0.4456,0.6783-0.6734,1.2791-0.6831,1.8024c-0.0097,0.5234,0.1551,0.9545,0.4942,1.2936
	c0.3391,0.3392,0.7849,0.5863,1.3372,0.7414c0.5524,0.1551,1.0903,0.2325,1.6135,0.2325H176.6138z M169.4042,13.2273
	c-0.6977,0-1.1435-0.1501-1.3373-0.4506c-0.1938-0.3004-0.1259-0.7025,0.2035-1.2065l4.2153-6.3375
	c0.3876-0.6007,0.8431-1.0175,1.3663-1.25c0.5234-0.2325,1.2114-0.3489,2.0641-0.3489h4.3897c0.6396,0,1.0805,0.1454,1.3228,0.4361
	c0.2422,0.2907,0.2083,0.6783-0.1017,1.1628l-4.2153,6.3085c-0.407,0.6201-0.911,1.0562-1.5118,1.3082
	c-0.6007,0.252-1.3953,0.3779-2.3838,0.3779H169.4042z M208.1823,17.2973l-2.7617-4.07h-11.2875l5.32-7.9946
	c0.3876-0.6007,0.8431-1.0175,1.3663-1.25c0.5234-0.2325,1.2114-0.3489,2.0641-0.3489l10.5315,0.0257L215.8698,0h-16.5911
	c-1.6862,0-2.9991,0.3441-3.9391,1.0321s-1.7589,1.5552-2.4566,2.6018l-6.3665,9.5934c-0.4456,0.6783-0.6734,1.2791-0.6831,1.8024
	c-0.0097,0.5234,0.1551,0.9545,0.4942,1.2936c0.3392,0.3392,0.7849,0.5863,1.3372,0.7414c0.5524,0.1551,1.0903,0.2325,1.6135,0.2325
	H208.1823z M216.6782,17.2973l5.3468-7.9551l6.2481,7.9551h7.5629l-6.8953-8.5127L242.3775,0h-8.6349l-9.6962,6.297L228.2193,0
	h-7.6166l-11.5413,17.2973H216.6782z"/>
<path fill="#FFFFFF" d="M2.7036,13.2273h13.1692c0.4845,0,0.8915-0.0727,1.221-0.218s0.47-0.3779,0.4215-0.6977
	c-0.0485-0.3197-0.2375-0.5862-0.5669-0.7994l-4.099-2.6745c-1.7249-1.1241-2.8926-1.9866-3.5031-2.5873
	C8.7358,5.6495,8.3725,5.0778,8.2561,4.5352c-0.1162-0.5427-0.0775-1.0853,0.1163-1.628c0.3489-0.9884,1.0514-1.72,2.1077-2.1949
	C11.5364,0.2375,13.1401,0,15.2914,0h15.3257l-2.4656,3.6339h-9.8077c-0.2713,0-0.533,0.0582-0.7849,0.1745
	c-0.2518,0.1162-0.3827,0.3052-0.3924,0.5668c-0.0097,0.2617,0.1211,0.4797,0.3924,0.6542l3.9538,2.6163
	c0.6589,0.407,1.3082,0.8915,1.9477,1.4535c0.6396,0.5621,1.0951,1.1872,1.3663,1.8752c0.2714,0.688,0.3004,1.439,0.0872,2.2529
	c-0.4069,1.4924-1.3469,2.5438-2.8198,3.1542c-1.4729,0.6105-3.4401,0.9158-5.9015,0.9158H0L2.7036,13.2273z M85.2765,1.7588
	c-0.1356-0.5524-0.5621-0.9836-1.2791-1.2937C83.2803,0.1551,82.224,0,80.8287,0H60.6413h-0.2496h-7.367l-7.7039,11.5413
	c-0.4069,0.6201-0.9108,1.0562-1.5117,1.3082c-0.6008,0.252-1.3953,0.3779-2.3838,0.3779h-3.9828
	c-0.6977,0-1.1435-0.1501-1.3373-0.4506c-0.1938-0.3004-0.1259-0.7025,0.2035-1.2065L44.0127,0H36.396l-8.8085,13.2273
	c-0.4456,0.6783-0.6734,1.2791-0.6831,1.8024c-0.0097,0.5234,0.1551,0.9545,0.4942,1.2936
	c0.3392,0.3392,0.7849,0.5863,1.3372,0.7414c0.5524,0.1551,1.0903,0.2325,1.6135,0.2325h14.303c1.3373,0,2.379-0.1551,3.1252-0.4651
	c0.7461-0.3101,1.4535-0.7511,2.1221-1.3228c0.6687-0.5717,1.3131-1.3324,1.9332-2.2821l6.3886-9.5934h16.735
	c1.3953,0,1.8798,0.3876,1.4535,1.1628l-0.6396,0.9884c-0.4263,0.6396-1.2889,0.9594-2.5873,0.9594H60.8569l-7.0353,10.5527h7.6167
	l4.6222-6.948h8.6632c3.7018,0,6.134-0.8721,7.2968-2.6164l2.7618-4.099C85.2474,2.9362,85.4121,2.3112,85.2765,1.7588z
	 M94.1259,17.2973l4.8257-7.2387h-5.0002c-0.6783,0-1.2839,0.0678-1.8169,0.2035c-0.533,0.1356-1.0708,0.5523-1.6135,1.25
	l-4.4188,5.7852h-8.0526l6.7736-8.1689c0.8334-0.9884,1.7975-1.6862,2.8925-2.0931c1.0951-0.407,2.4274-0.6105,3.9973-0.6105h9.6516
	l0.7849-1.192c0.6976-1.0659,0.3197-1.5989-1.1338-1.5989h-10.669L88.6315,0h18.2566c1.1046,0,1.9865,0.1308,2.6455,0.3925
	c0.6589,0.2616,1.1046,0.6007,1.3373,1.0175c0.2325,0.4166,0.3052,0.8673,0.218,1.3518c-0.0873,0.4845-0.2859,0.9593-0.596,1.4245
	l-8.7503,13.111H94.1259z M93.8935,27.4608l2.6279-4.6445h1.042l2.6621,4.6445h-1.2129l-0.5576-1.0156h-2.9443l-0.541,1.0156
	H93.8935z M95.9716,25.6063h2.0352l-1.002-1.8896L95.9716,25.6063z M102.4843,27.4608v-4.6445h2.9883
	c0.8525,0,1.5078,0.1992,1.9668,0.5977c0.458,0.3984,0.6875,0.9639,0.6875,1.6953c0,0.4346-0.0898,0.8242-0.2686,1.1719
	c-0.1787,0.3467-0.4297,0.6201-0.7559,0.8193c-0.2012,0.126-0.4531,0.2178-0.7529,0.2744
	c-0.3008,0.0576-0.6855,0.0859-1.1533,0.0859H102.4843z M103.5654,26.5858h1.3975c0.7441,0,1.2715-0.1152,1.582-0.3467
	s0.4658-0.6133,0.4658-1.1475c0-0.4746-0.1289-0.834-0.3867-1.0781c-0.2578-0.2451-0.6387-0.3672-1.1426-0.3672h-1.916V26.5858z
	 M112.4443,27.4608l-2.6855-4.6445h1.2344l1.8809,3.3574l1.793-3.3574h1.0771l-2.5537,4.6445H112.4443z M116.5624,27.4608
	l2.6279-4.6445h1.042l2.6621,4.6445h-1.2129l-0.5576-1.0156h-2.9443l-0.541,1.0156H116.5624z M118.6406,25.6063h2.0352
	l-1.002-1.8896L118.6406,25.6063z M125.1455,27.4608v-4.6445h0.7383l3.2695,2.7373c0.1113,0.0908,0.209,0.1768,0.2949,0.2568
	c0.084,0.0811,0.1621,0.1641,0.2324,0.248c-0.0176-0.2598-0.0293-0.4443-0.0352-0.5527s-0.0088-0.1924-0.0088-0.251v-2.4385h0.9717
	v4.6445h-0.7383l-3.4102-2.8691c-0.083-0.0732-0.1543-0.1396-0.2158-0.1982s-0.1182-0.1182-0.1709-0.1807
	c0.0137,0.1445,0.0254,0.2793,0.0322,0.4072c0.0078,0.127,0.0107,0.2383,0.0107,0.3311v2.5098H125.1455z M137.6396,23.6463h-2.9131
	v2.9395h2.9131v-0.9971l1.082,0.2236v0.5498c0,0.4248-0.0801,0.7139-0.2402,0.8682c-0.1592,0.1533-0.4629,0.2305-0.9121,0.2305
	h-2.7725c-0.4512,0-0.7559-0.0771-0.9141-0.2305c-0.1582-0.1543-0.2373-0.4434-0.2373-0.8682v-2.4482
	c0-0.4219,0.0791-0.71,0.2373-0.8652s0.4629-0.2324,0.9141-0.2324h2.7725c0.4492,0,0.7529,0.0771,0.9121,0.2324
	c0.1602,0.1553,0.2402,0.4434,0.2402,0.8652v0.4395l-1.082,0.1719V23.6463z M141.7138,27.4608v-4.6445h4.7549v0.791h-3.6738v1.0371
	h2.1445v0.791h-2.1445v1.1504h3.7178v0.875H141.7138z M149.2724,27.4608v-4.6445h2.9883c0.8525,0,1.5078,0.1992,1.9668,0.5977
	c0.458,0.3984,0.6875,0.9639,0.6875,1.6953c0,0.4346-0.0898,0.8242-0.2686,1.1719c-0.1787,0.3467-0.4297,0.6201-0.7559,0.8193
	c-0.2012,0.126-0.4531,0.2178-0.7529,0.2744c-0.3008,0.0576-0.6855,0.0859-1.1533,0.0859H149.2724z M150.3535,26.5858h1.3975
	c0.7441,0,1.2715-0.1152,1.582-0.3467s0.4658-0.6133,0.4658-1.1475c0-0.4746-0.1289-0.834-0.3867-1.0781
	c-0.2578-0.2451-0.6387-0.3672-1.1426-0.3672h-1.916V26.5858z M165.9365,23.6288h-3.041v0.998h2.8955
	c0.4541,0,0.7617,0.0771,0.9209,0.2324c0.1602,0.1553,0.2393,0.4434,0.2393,0.8652v0.6377c0,0.4219-0.0791,0.7109-0.2393,0.8662
	c-0.1592,0.1553-0.4668,0.2324-0.9209,0.2324h-2.8691c-0.4541,0-0.7607-0.0771-0.9209-0.2324
	c-0.1592-0.1553-0.2393-0.4443-0.2393-0.8662v-0.1279l0.9531-0.1973v0.5488h3.2832v-1.0586h-2.8965
	c-0.4512,0-0.7559-0.0771-0.9141-0.2324s-0.2363-0.4443-0.2363-0.8662v-0.5146c0-0.4219,0.0781-0.71,0.2363-0.8652
	s0.4629-0.2324,0.9141-0.2324h2.6367c0.4365,0,0.7383,0.0742,0.9033,0.2236c0.166,0.1494,0.249,0.415,0.249,0.7959v0.0957
	l-0.9541,0.2246V23.6288z M171.039,22.8163v3.7695h3.0801v-3.7695h1.0771v3.5459c0,0.4248-0.0791,0.7139-0.2373,0.8682
	c-0.1582,0.1533-0.4629,0.2305-0.9141,0.2305h-2.9355c-0.4482,0-0.752-0.0771-0.9121-0.2305
	c-0.1592-0.1543-0.2393-0.4434-0.2393-0.8682v-3.5459H171.039z M182.3632,23.6288h-3.041v0.998h2.8955
	c0.4541,0,0.7617,0.0771,0.9209,0.2324c0.1602,0.1553,0.2393,0.4434,0.2393,0.8652v0.6377c0,0.4219-0.0791,0.7109-0.2393,0.8662
	c-0.1592,0.1553-0.4668,0.2324-0.9209,0.2324h-2.8691c-0.4541,0-0.7607-0.0771-0.9209-0.2324
	c-0.1592-0.1553-0.2393-0.4443-0.2393-0.8662v-0.1279l0.9531-0.1973v0.5488h3.2832v-1.0586h-2.8965
	c-0.4512,0-0.7559-0.0771-0.9141-0.2324s-0.2363-0.4443-0.2363-0.8662v-0.5146c0-0.4219,0.0781-0.71,0.2363-0.8652
	s0.4629-0.2324,0.9141-0.2324h2.6367c0.4365,0,0.7383,0.0742,0.9033,0.2236c0.166,0.1494,0.249,0.415,0.249,0.7959v0.0957
	l-0.9541,0.2246V23.6288z M186.3837,27.4608v-4.6445h3.9727c0.3691,0,0.6367,0.0703,0.8018,0.2129
	c0.166,0.1416,0.248,0.3711,0.248,0.6875v1.0371c0,0.3135-0.082,0.541-0.248,0.6836c-0.165,0.1416-0.4326,0.2129-0.8018,0.2129
	h-2.9092v1.8105H186.3837z M189.8769,23.62h-2.4297v1.2305h2.4297c0.1875,0,0.3164-0.0273,0.3848-0.0811
	c0.0693-0.0547,0.1035-0.1504,0.1035-0.2881v-0.4971c0-0.1338-0.0342-0.2285-0.1035-0.2832
	C190.1933,23.6473,190.0644,23.62,189.8769,23.62z M193.8369,27.4608v-4.6445h4.7549v0.791h-3.6738v1.0371h2.1445v0.791h-2.1445
	v1.1504h3.7178v0.875H193.8369z M201.3876,27.4608v-4.6445h0.7383l3.2695,2.7373c0.1113,0.0908,0.209,0.1768,0.2949,0.2568
	c0.084,0.0811,0.1621,0.1641,0.2324,0.248c-0.0176-0.2598-0.0293-0.4443-0.0352-0.5527s-0.0088-0.1924-0.0088-0.251v-2.4385h0.9717
	v4.6445h-0.7383l-3.4102-2.8691c-0.083-0.0732-0.1543-0.1396-0.2158-0.1982s-0.1182-0.1182-0.1709-0.1807
	c0.0137,0.1445,0.0254,0.2793,0.0322,0.4072c0.0078,0.127,0.0107,0.2383,0.0107,0.3311v2.5098H201.3876z M214.0087,23.6288h-3.041
	v0.998h2.8955c0.4541,0,0.7617,0.0771,0.9209,0.2324c0.1602,0.1553,0.2393,0.4434,0.2393,0.8652v0.6377
	c0,0.4219-0.0791,0.7109-0.2393,0.8662c-0.1592,0.1553-0.4668,0.2324-0.9209,0.2324h-2.8691c-0.4541,0-0.7607-0.0771-0.9209-0.2324
	c-0.1592-0.1553-0.2393-0.4443-0.2393-0.8662v-0.1279l0.9531-0.1973v0.5488h3.2832v-1.0586h-2.8965
	c-0.4512,0-0.7559-0.0771-0.9141-0.2324s-0.2363-0.4443-0.2363-0.8662v-0.5146c0-0.4219,0.0781-0.71,0.2363-0.8652
	s0.4629-0.2324,0.9141-0.2324h2.6367c0.4365,0,0.7383,0.0742,0.9033,0.2236c0.166,0.1494,0.249,0.415,0.249,0.7959v0.0957
	l-0.9541,0.2246V23.6288z M218.0302,27.4608v-4.6445h1.0811v4.6445H218.0302z M222.1513,23.9139c0-0.4219,0.0791-0.71,0.2373-0.8652
	s0.4629-0.2324,0.9141-0.2324h3.4189c0.4512,0,0.7559,0.0771,0.9141,0.2324s0.2373,0.4434,0.2373,0.8652v2.4482
	c0,0.4248-0.0791,0.7139-0.2373,0.8682c-0.1582,0.1533-0.4629,0.2305-0.9141,0.2305h-3.4189c-0.4512,0-0.7559-0.0771-0.9141-0.2305
	c-0.1582-0.1543-0.2373-0.4434-0.2373-0.8682V23.9139z M223.2324,26.5858h3.5635v-2.9395h-3.5635V26.5858z M230.9062,27.4608
	v-4.6445h0.7383l3.2695,2.7373c0.1113,0.0908,0.209,0.1768,0.2949,0.2568c0.084,0.0811,0.1621,0.1641,0.2324,0.248
	c-0.0176-0.2598-0.0293-0.4443-0.0352-0.5527s-0.0088-0.1924-0.0088-0.251v-2.4385h0.9717v4.6445h-0.7383l-3.4102-2.8691
	c-0.083-0.0732-0.1543-0.1396-0.2158-0.1982s-0.1182-0.1182-0.1709-0.1807c0.0137,0.1445,0.0254,0.2793,0.0322,0.4072
	c0.0078,0.127,0.0107,0.2383,0.0107,0.3311v2.5098H230.9062z"/>
</svg>
