<?xml version="1.0" encoding="utf-8"?>
<!-- Generator: Adobe Illustrator 22.0.1, SVG Export Plug-In . SVG Version: 6.00 Build 0)  -->
<svg version="1.1" id="taronga_zoo_logo" xmlns="http://www.w3.org/2000/svg" xmlns:xlink="http://www.w3.org/1999/xlink" x="0px"
	 y="0px" viewBox="0 0 63.253 43.679" enable-background="new 0 0 63.253 43.679" xml:space="preserve">
<path fill="#03523C" d="M62.264,37.602c-0.562-0.264-2.563-0.854-4.271-1.737c-2.046-1.059-5.561-4.11-5.561-4.11
	c-1.801-1.491-3.257-0.64-3.309-0.606c-1.048,0.5-1.372,1.398-1.4,2.261c-0.032,1.112,0.431,2.181,0.475,2.286
	c0.073,0.165,0.067,0.204,0.011,0.221c-0.775,0.174-1.028,0.369-1.057,1.198c-0.016,2.829,6.797,6.211,10.016,6.527
	c1.529,0.151,2.917-0.13,4.207-1.311C63.969,39.968,63.483,38.174,62.264,37.602"/>
<path fill="#03523C" d="M46.122,34.925c-0.269,0.501-1.136,0.557-1.94,0.128c-0.801-0.432-1.232-1.186-0.965-1.688
	c0.271-0.5,1.138-0.557,1.938-0.126C45.959,33.671,46.391,34.425,46.122,34.925"/>
<path fill="#0B9046" d="M43.34,38.497c-3.016,2.132-6.665,3.383-10.63,3.383c-9.841,0-17.752-7.772-18.333-17.5
	c-0.017-0.249,0.283-0.469,0.564-0.304c1.114,0.688,3.597,2.106,6.67,2.327c0.273,0.022,0.66,0,0.812,0.415
	c0.179,0.441,0.703,1.877,4.186,4.151c0.179,0.118,0.232,0.172,0.199,0.289c0,0.001-0.155,0.643-1.162,0.486
	c-1.607-0.247-2.496-1.628-2.989-1.932c-0.181-0.119-0.412-0.109-0.563-0.079c-0.541,0.111-2.902,0.821-2.591,3.429
	c0.151,1.291,1.32,3.781,5.275,4.795c0.779,0.22,5.229,0.776,8.624-1.852c0.297-0.212,0.719-0.528,1.902,0.043
	c0.382,0.186,3.41,1.619,7.498,1.506c0,0,0.289-0.01,0.592-0.021c0.188-0.004,0.342,0.064,0.367,0.244
	C43.785,38.08,43.651,38.279,43.34,38.497"/>
<path fill="#0B9046" d="M47.122,19.4c-0.091,0.416-0.08,0.529,0.148,0.833c0.384,0.455,1.554,1.921,2.236,3.683
	c0.083,0.202,0.225,0.145,0.32,0.016c0.301-0.404,1.052-2.058,0.526-4.458c-1.637-8.017-9.437-13.992-17.636-13.992
	c-3.443,0-7.96,1.399-10.69,3.417c-0.148,0.109-0.294,0.221-0.43,0.333c-0.329,0.274-0.65,0.568,0.099,0.638
	c1.076,0.086,2.668,0.132,4.263,0.248c3.199,0.227,6.729,0.929,9,1.787c3.757,1.409,5.182,2.669,6.109,3.349
	c0.219,0.164,0.295,0.183,0.359,0.134c0.08-0.061,0.087-0.235-0.006-0.545c-0.093-0.31-0.466-0.955-1.439-1.733
	c-0.507-0.41-0.433-0.548-0.141-0.801c0.244-0.21,0.882-0.666,1.959-0.666c0.962,0,2.827,0.38,4.123,1.714
	C45.923,13.356,48.024,15.258,47.122,19.4"/>
<path fill="#03523C" d="M28.821,11.701c-0.954-0.142-1.921-0.251-2.859-0.317c-1.529-0.109-4.128-0.238-4.128-0.238
	c-7.735-0.498-12.5-7.288-13.738-8.59C4.978-1.005,2.655-0.033,1.45,0.7c-1.582,0.954-1.529,2.594-1.38,3.483
	c0.634,3.943,3.725,6.367,6.271,7.729c2.895,1.542,5.741,2.078,5.768,2.083c2.695,0.522,2.843,1.983,2.846,1.992
	c0.138,1.36,0.792,1.914,0.915,2.104c0.185,0.225,0.085,0.316-0.214,0.209c-2.038-0.71-2.955-2.258-2.975-2.293
	c-0.214-0.347-0.336-0.299-0.531-0.255c-0.802,0.213-1.334,0.605-1.587,1.169c-0.509,1.129,0.141,2.315,0.316,2.587
	c2.961,4.483,10.478,5.228,16.264,5.063c6.131-0.171,11.648-1.373,11.939-1.436c0.212-0.041,0.273,0.09,0.097,0.237
	c-0.557,0.465-3.37,1.477-6.114,2.305l-0.165,0.046l0.159,0.063c8.283,3.253,13.813,0.196,13.874,0.165
	c0.299-0.142,0.709-0.376,0.492-0.819c-3.209-6.398-10.355-12.278-18.599-13.43H28.821z"/>
</svg>
