<?xml version="1.0" encoding="utf-8"?>
<!-- Generator: Adobe Illustrator 22.0.1, SVG Export Plug-In . SVG Version: 6.00 Build 0)  -->
<svg version="1.1" id="taronga_zoo_logo" xmlns="http://www.w3.org/2000/svg" xmlns:xlink="http://www.w3.org/1999/xlink" x="0px"
	 y="0px" viewBox="0 0 62.126 27.626" enable-background="new 0 0 62.126 27.626" xml:space="preserve">
<path fill="#0B9046" d="M27.139,12.186c-2.115,0-3.78,2.292-3.78,5.801c0,3.461,0.951,6.701,3.78,6.701
	c2.828,0,3.807-3.24,3.807-6.701C30.945,14.478,29.253,12.186,27.139,12.186 M27.139,27.626c-5.791,0-10.446-3.571-10.446-9.097
	c0-5.474,4.655-9.069,10.446-9.069c5.791,0,10.446,3.595,10.446,9.069C37.585,24.055,32.93,27.626,27.139,27.626"/>
<path fill="#0B9046" d="M49.724,12.186c-2.117,0-3.782,2.292-3.782,5.801c0,3.461,0.95,6.701,3.782,6.701
	c2.829,0,3.809-3.24,3.809-6.701C53.532,14.478,51.839,12.186,49.724,12.186 M49.724,27.626c-5.793,0-10.445-3.571-10.445-9.097
	c0-5.474,4.652-9.069,10.445-9.069c5.791,0,10.444,3.595,10.444,9.069C60.168,24.055,55.515,27.626,49.724,27.626"/>
<path fill="#0B9046" d="M15.507,23.727c-0.094-0.08-0.23-0.133-0.371-0.133l-7.511-0.001c2.061-4.744,6.742-6.448,7.848-10.512
	c0.231-0.849,0.365-1.59,0.365-2.543c0-0.29-0.227-0.525-0.518-0.525H1.278c-0.148,0-0.283,0.06-0.388,0.143
	c-0.338,0.27-0.57,0.881-0.57,1.588v0.002v0.007c-0.002,0.721,0.258,1.324,0.585,1.605c0.097,0.08,0.232,0.128,0.371,0.128h7.287
	C7.334,17.228,0,19.805,0,26.547c0,0.29,0.228,0.525,0.518,0.525l14.618-0.003c0.148,0,0.284-0.067,0.386-0.148
	c0.339-0.273,0.571-0.882,0.571-1.59C16.093,24.61,15.835,24.01,15.507,23.727"/>
<path fill="#0B9046" d="M27.493,1.099c-0.851,0-1.52,0.921-1.52,2.334c0,1.392,0.382,2.697,1.52,2.697
	c1.141,0,1.531-1.306,1.531-2.697C29.024,2.021,28.347,1.099,27.493,1.099 M27.493,7.313c-2.33,0-4.203-1.438-4.203-3.661
	C23.29,1.448,25.163,0,27.493,0c2.33,0,4.204,1.448,4.204,3.652C31.697,5.875,29.823,7.313,27.493,7.313"/>
<path fill="#0B9046" d="M6.588,0.269C6.549,0.238,6.5,0.218,6.444,0.218H0.659c-0.061,0-0.109,0.023-0.151,0.056
	C0.373,0.383,0.276,0.627,0.276,0.915c0,0.287,0.105,0.531,0.238,0.644c0.036,0.032,0.087,0.053,0.145,0.053h1.648v5.258
	c0,0.117,0.095,0.211,0.211,0.211h2.065c0.115,0,0.211-0.094,0.211-0.211V1.611h1.65c0.059,0,0.107-0.023,0.148-0.056
	c0.137-0.109,0.232-0.354,0.232-0.641C6.824,0.624,6.721,0.383,6.588,0.269"/>
<path fill="#0B9046" d="M9.216,4.46l0.912-2.428l0.743,2.428H9.216z M14.557,6.792l-2.641-6.277
	c-0.11-0.176-0.311-0.293-0.537-0.293H9.455c-0.229,0-0.429,0.117-0.538,0.293L6.278,6.792C6.265,6.816,6.259,6.845,6.259,6.874
	c0,0.116,0.1,0.212,0.221,0.212H7.99c0.092,0,0.171-0.053,0.203-0.129L8.818,5.46h2.414l0.588,1.496
	c0.034,0.077,0.114,0.129,0.205,0.129h2.328c0.123,0,0.219-0.096,0.219-0.212C14.572,6.845,14.568,6.816,14.557,6.792"/>
<path fill="#0B9046" d="M52.607,4.46l0.912-2.428l0.743,2.428H52.607z M57.947,6.792l-2.641-6.277
	c-0.11-0.176-0.309-0.293-0.538-0.293h-1.922c-0.23,0-0.428,0.117-0.54,0.293l-2.639,6.277c-0.011,0.024-0.017,0.053-0.017,0.082
	c0,0.116,0.099,0.212,0.221,0.212h1.51c0.093,0,0.17-0.053,0.203-0.129l0.622-1.496h2.42l0.587,1.496
	c0.032,0.077,0.11,0.129,0.203,0.129h2.329c0.121,0,0.219-0.096,0.219-0.212C57.964,6.845,57.96,6.816,57.947,6.792"/>
<path fill="#0B9046" d="M49.108,5.986c0,0.214-0.119,0.406-0.286,0.514c-0.762,0.493-1.732,0.813-2.76,0.813
	c-2.427,0-4.405-1.469-4.405-3.661C41.657,1.438,43.636,0,46.062,0c1.008,0,1.958,0.291,2.717,0.762
	c0.099,0.063,0.206,0.159,0.206,0.263c0,0.054-0.052,0.239-0.208,0.388c-0.285,0.267-0.518,0.304-0.692,0.304
	c-0.129,0-0.246-0.039-0.343-0.109c-0.326-0.232-0.858-0.479-1.488-0.479c-1.107,0-1.873,0.637-1.873,2.523
	c0,1.884,0.757,2.575,1.989,2.575c0.321,0,0.479-0.034,0.555-0.064V4.226l-0.849-0.003c-0.045,0-0.083-0.016-0.114-0.045
	c-0.106-0.101-0.188-0.312-0.188-0.566c0-0.251,0.075-0.466,0.184-0.559C45.99,3.021,46.029,3,46.076,3h2.819
	c0.117,0,0.213,0.094,0.213,0.211V5.986z"/>
<path fill="#0B9046" d="M40.446,0.434c0-0.117-0.096-0.211-0.212-0.211h-1.67c-0.117,0-0.211,0.095-0.211,0.211l-0.003,3.942
	l-2.483-3.728c-0.155-0.225-0.374-0.426-0.769-0.426h-1.965c-0.116,0-0.211,0.095-0.211,0.211v6.439
	c0,0.116,0.095,0.212,0.211,0.212h1.673c0.116,0,0.211-0.096,0.211-0.212V3.391l2.328,3.424c0.107,0.161,0.291,0.273,0.5,0.273
	h2.391c0.116,0,0.211-0.094,0.211-0.211L40.446,0.434z"/>
<path fill="#0B9046" d="M23.446,6.854c0-0.188-0.266-0.16-1.032-1.172c-0.876-1.161-1.333-1.443-2.297-1.747
	c0,0,2.017,0.021,2.017-1.859c0-1.344-1.263-1.854-3.281-1.854l-2.83-0.001c-0.334,0-0.603,0.27-0.603,0.6v6.052
	c0,0.118,0.097,0.212,0.213,0.212h2.064c0.116,0,0.211-0.094,0.211-0.212V1.27h0.573c0.111,0,1.089,0.038,1.089,1.048
	c0,1.04-0.733,1.192-1.071,1.298c-0.208,0.066-0.246,0.27,0.192,1.02c0.388,0.665,1.038,1.563,1.405,1.925
	c0.134,0.132,0.247,0.276,0.449,0.38c0.373,0.245,1.192,0.379,1.862,0.334C23.385,7.234,23.446,6.953,23.446,6.854"/>
<path fill="#0B9046" d="M61.142,25.712c-0.059-0.032-0.154-0.05-0.283-0.05h-0.201v0.483h0.212c0.099,0,0.175-0.011,0.224-0.029
	c0.092-0.038,0.138-0.108,0.138-0.21C61.23,25.809,61.201,25.746,61.142,25.712 M60.889,25.503c0.165,0,0.285,0.015,0.363,0.047
	c0.138,0.057,0.206,0.171,0.206,0.338c0,0.118-0.043,0.207-0.131,0.264c-0.045,0.028-0.109,0.052-0.191,0.066
	c0.103,0.013,0.181,0.058,0.229,0.129c0.047,0.069,0.072,0.139,0.072,0.206v0.096c0,0.032,0,0.065,0.004,0.1
	c0.001,0.036,0.004,0.06,0.01,0.07l0.009,0.017h-0.221c0-0.006-0.001-0.01-0.003-0.014c0-0.005-0.002-0.01-0.003-0.014l-0.006-0.044
	v-0.104c0-0.155-0.04-0.256-0.124-0.308c-0.05-0.027-0.137-0.041-0.261-0.041h-0.186v0.523h-0.235v-1.331H60.889z M60.175,25.434
	c-0.203,0.206-0.304,0.45-0.304,0.738c0,0.292,0.101,0.538,0.301,0.744c0.205,0.205,0.449,0.307,0.74,0.307
	c0.289,0,0.536-0.102,0.739-0.307c0.201-0.206,0.302-0.452,0.302-0.744c0-0.288-0.101-0.532-0.302-0.738
	c-0.206-0.204-0.452-0.309-0.739-0.309C60.625,25.125,60.38,25.23,60.175,25.434 M61.769,27.032
	c-0.235,0.238-0.521,0.356-0.857,0.356c-0.337,0-0.622-0.117-0.857-0.356c-0.235-0.236-0.353-0.524-0.353-0.86
	c0-0.335,0.117-0.619,0.354-0.855c0.238-0.237,0.523-0.355,0.857-0.355c0.336,0,0.622,0.118,0.857,0.355
	c0.238,0.234,0.356,0.521,0.356,0.855C62.126,26.507,62.008,26.792,61.769,27.032"/>
</svg>
