<?xml version="1.0" encoding="utf-8"?>
<!-- Generator: Adobe Illustrator 22.0.1, SVG Export Plug-In . SVG Version: 6.00 Build 0)  -->
<svg version="1.1" id="Layer_1" xmlns="http://www.w3.org/2000/svg" xmlns:xlink="http://www.w3.org/1999/xlink" x="0px" y="0px"
	 viewBox="0 0 1140.24 176.76" enable-background="new 0 0 1140.24 176.76" xml:space="preserve">
<g>
	<path fill="#173686" d="M863.57,167.76h-8.55l9.49-16.49l3.92,6.86L863.57,167.76z M874.62,165.87h-8.69l1.84-3.42h4.8l-7.11-11.96
		h8.63l10.59,17.27h-8.95L874.62,165.87z"/>
	<path fill="#173686" d="M894.27,164.31h3.26v3.45h-6.81l-5.33-3.45v-13.82h8.87V164.31z M911.06,164.31l-5.31,3.45h-6.83v-3.45
		h3.28v-13.82h8.85V164.31z"/>
	<path fill="#173686" d="M930.36,167.76v-6.47h-11.49l-5.33-3.46v-3.89l5.33-3.45h3v6.13h12.21l5.15,3.46v4.23l-5.31,3.45H930.36z
		 M913.55,162.58h8.85v2.06h6.57v3.12h-10.95l-4.46-3.45V162.58z M923.28,153.6v-3.11h10.63l4.6,3.01v1.83h-8.15v-1.73H923.28z"/>
	<path fill="#173686" d="M940.62,150.49h23.06v3.76h-23.06V150.49z M947.54,155.15h9.21v12.61h-9.21V155.15z"/>
	<path fill="#173686" d="M965.46,167.76v-17.27h8.85v17.27H965.46z M975.71,153.94v-3.45h10.11l5.33,3.45v5.18l-4.08,2.65
		l-0.28-0.36l-8.31,0.72l0.32,0.46h-3.08v-3.34h6.65v-5.3H975.71z M992.05,167.76h-9.45l-3.8-5.18h7.03l1.24-0.81L992.05,167.76z"/>
	<path fill="#173686" d="M1000,167.76h-8.55l9.49-16.49l3.92,6.86L1000,167.76z M1011.05,165.87h-8.69l1.84-3.42h4.8l-7.11-11.96
		h8.63l10.59,17.27h-8.95L1011.05,165.87z"/>
	<path fill="#173686" d="M1022.04,167.76v-17.27h8.85v17.27H1022.04z M1032.29,167.76v-3.45h4.38v-2.19h8.03v5.63H1032.29z"/>
	<path fill="#173686" d="M1045.41,164.08h2.66v-9.91h-2.66v-3.67h14.17v3.67h-2.66v9.91h2.66v3.68h-14.17V164.08z"/>
	<path fill="#173686" d="M1068.65,167.76h-8.55l9.49-16.49l3.92,6.86L1068.65,167.76z M1079.7,165.87h-8.69l1.84-3.42h4.8
		l-7.11-11.96h8.63l10.59,17.27h-8.95L1079.7,165.87z"/>
</g>
<polygon fill="#173686" points="19.99,0 0,67.5 39.89,67.5 16.18,148.5 153.84,148.5 165.18,131.67 187.51,131.67 187.51,148.5 
	450.18,148.5 458.06,120.67 469.18,148.5 561.18,148.5 557.84,138.33 594.36,138.67 603.78,106.33 625.18,106.33 647.19,138.67 
	808.95,139.33 816.87,117.53 819.84,139.33 1102.38,138.83 1140.24,11.01 913.51,11.01 901.51,21 893.84,11.01 607.51,11.01 
	622.84,0 508.9,0 492.51,11.01 493.84,0 299.18,0 265.27,26.31 261.84,0 "/>
<polygon points="110.46,52.22 61.64,52.22 37.88,132.45 86.69,132.45 110.46,52.22 "/>
<polyline fill="#FFD215" points="108.45,53.72 85.57,130.95 39.89,130.95 62.76,53.72 108.45,53.72 "/>
<polygon points="162.58,16.5 32.05,16.5 21.06,51.36 151.55,51.5 162.58,16.5 "/>
<polyline fill="#FFD215" points="160.54,18 150.45,50 23.1,49.86 33.15,18 160.54,18 "/>
<polygon points="199.34,16.5 176.88,16.5 96.62,132.45 145.09,132.45 199.36,50.45 199.34,16.5 "/>
<polyline fill="#FFD215" points="197.84,18 197.86,50 144.28,130.95 99.48,130.95 177.66,18 197.84,18 "/>
<polygon points="247.11,16.5 201.18,16.5 202.91,82.5 179.73,82.5 157.89,115.5 203.78,115.5 204.22,132.45 256.24,132.45 
	247.11,16.5 "/>
<polyline fill="#FFD215" points="245.73,18 254.62,130.95 205.68,130.95 205.24,114 160.68,114 180.54,84 204.45,84 202.72,18 
	245.73,18 "/>
<polygon points="353.73,16.5 302.68,16.5 280.03,34.2 267.88,73.33 280.37,91.17 353.01,91.17 350.45,101.5 329.34,101.5 
	328.23,101.5 318.62,132.45 369.41,132.45 394.68,112.7 406.64,73.76 393.98,56.33 320.39,56.33 323.54,46.18 344,46.18 
	353.73,16.5 "/>
<polyline fill="#FFD215" points="351.66,18 342.91,44.68 322.44,44.68 318.36,57.83 393.21,57.83 404.98,74.03 393.39,111.81 
	368.89,130.95 320.66,130.95 329.34,103 351.62,103 354.93,89.67 281.15,89.67 269.53,73.07 281.32,35.09 303.2,18 351.66,18 "/>
<polygon points="308.75,93.83 262.62,93.83 261.51,93.83 255.18,114.24 267.46,132.45 317.7,132.45 327.31,101.5 306.37,101.5 
	308.75,93.83 "/>
<polyline fill="#FFD215" points="306.71,95.33 304.33,103 325.27,103 316.59,130.95 268.26,130.95 256.82,114 262.62,95.33 
	306.71,95.33 "/>
<polygon points="405.35,16.49 353.82,17.17 344.81,46.18 366.52,46.18 365.19,55.22 412.53,55.22 418.66,35.5 405.35,16.49 "/>
<polyline fill="#FFD215" points="404.57,18 417.01,35.75 411.43,53.72 366.92,53.72 368.26,44.68 346.85,44.68 354.93,18.65 
	404.57,18 "/>
<polygon points="573.43,16.5 513.11,16.5 461.68,54.49 444.37,112 573.43,16.5 "/>
<polyline fill="#FFD215" points="568.88,18 447.11,108.11 462.97,55.4 513.61,18 568.88,18 "/>
<polygon points="512.87,61.82 465.83,96.63 480.31,132.45 537.89,132.45 513.55,63.73 512.87,61.82 "/>
<polyline fill="#FFD215" points="512.14,64.24 535.76,130.95 481.32,130.95 467.66,97.15 512.14,64.24 "/>
<polygon points="472.75,16.5 424.91,16.5 390.01,132.45 437.85,132.45 472.75,16.5 "/>
<polyline fill="#FFD215" points="470.73,18 436.73,130.95 392.03,130.95 426.02,18 470.73,18 "/>
<linearGradient id="SVGID_1_" gradientUnits="userSpaceOnUse" x1="290.9835" y1="24" x2="290.9835" y2="124.9534">
	<stop  offset="0" style="stop-color:#FFD215"/>
	<stop  offset="0.2702" style="stop-color:#FFCE16"/>
	<stop  offset="0.5502" style="stop-color:#FDC117"/>
	<stop  offset="0.8337" style="stop-color:#FBAD1A"/>
	<stop  offset="1" style="stop-color:#FA9D1C"/>
</linearGradient>
<path fill="url(#SVGID_1_)" d="M100.41,59.72l-19.32,65.24H47.92l19.32-65.24H100.41 M152.35,24l-6.3,20L31.28,43.87L37.55,24
	H152.35 M191.84,24l0.02,24.2l-50.8,76.76h-30.13L180.81,24H191.84 M240.18,24l7.95,100.95h-36.6L211.08,108h-39.24l11.91-18h26.85
	l-0.16-6.16L208.88,24H240.18 M343.38,24l-4.81,14.68h-20.55l-7.81,25.15h79.95l8.21,11.3l-10.16,33.11l-21.38,16.71H328.8
	l4.95-15.95h22.56l6.29-25.33h-78.33l-8.14-11.63l10.36-33.37L305.27,24H343.38 M298.57,101.33l-2.38,7.67h20.94l-4.95,15.95h-40.72
	l-8.05-11.92l3.63-11.7H298.57 M401.48,24.04l8.92,12.74l-3.39,10.93h-33.13l1.34-9.04H355l4.37-14.08L401.48,24.04 M550.68,24
	l-92.62,68.54l10.08-33.5L515.58,24H550.68 M509.19,73.88l18.09,51.07h-41.91l-10.4-25.75L509.19,73.88 M462.66,24l-30.38,100.95
	H400.1L430.48,24H462.66"/>
<polygon fill="#FFFFFF" points="609.99,27.75 571.95,27.75 543.96,120.75 582,120.75 609.99,27.75 "/>
<polygon fill="#FFFFFF" points="664.11,27.75 613,27.75 605.78,51.75 656.88,51.75 664.11,27.75 "/>
<polygon fill="#FFFFFF" points="647.19,64.75 601.86,64.75 594.36,89.67 639.69,89.67 647.19,64.75 "/>
<polygon fill="#FFFFFF" points="722.99,27.75 683.99,27.75 662.1,44.68 644.27,104.11 656.03,120.75 695,120.75 702.3,96.5 
	683.84,96.5 697.03,52.69 715.42,52.69 722.99,27.75 "/>
<polygon fill="#FFFFFF" points="766.02,27.75 726.99,27.75 719.49,52.69 738.7,52.69 725.51,96.5 706.3,96.5 699,120.75 
	738.29,120.75 760.07,103.42 777.92,44.13 766.02,27.75 "/>
<polygon fill="#FFFFFF" points="823.39,27.75 786.36,27.75 758.37,120.75 795.4,120.75 823.39,27.75 "/>
<polygon fill="#FFFFFF" points="884.36,27.75 827.58,27.75 820.73,50.5 857,50.5 851.84,67.64 815.59,67.6 808.95,89.67 
	831.64,89.67 835.01,120.75 874.26,120.75 867.89,84.75 888.28,68.84 895.88,43.61 884.36,27.75 "/>
<polygon fill="#FFFFFF" points="959.11,27.75 920.92,27.75 898.26,45.67 880.52,104.82 892.14,120.75 931.12,120.75 938.41,96.5 
	919.31,96.5 932.58,52.42 951.68,52.42 959.11,27.75 "/>
<polygon fill="#FFFFFF" points="1002.33,83.67 966.21,83.67 962.35,96.5 942.95,96.5 935.65,120.75 974.72,120.75 997.04,103 
	1002.33,83.67 "/>
<polygon fill="#FFFFFF" points="1001.31,27.75 963.64,27.75 956.21,52.42 975.62,52.42 971.91,64.75 1008.68,64.75 1014.76,46.25 
	1001.31,27.75 "/>
<polygon fill="#FFFFFF" points="1059.56,27.75 1023.84,27.75 995.85,120.75 1031.57,120.75 1059.56,27.75 "/>
<polygon fill="#FFFFFF" points="1116.99,27.75 1064.97,27.75 1057.54,52.42 1109.57,52.42 1116.99,27.75 "/>
<polygon fill="#FFFFFF" points="1096.39,97 1044.12,97 1036.98,120.75 1089,120.75 1096.39,97 "/>
<polygon fill="#FFFFFF" points="1100.08,62.17 1054.61,62.17 1047.44,86 1092.91,86 1100.08,62.17 "/>
<linearGradient id="SVGID_2_" gradientUnits="userSpaceOnUse" x1="830.4747" y1="32.75" x2="830.4747" y2="115.75">
	<stop  offset="0" style="stop-color:#FFFFFF"/>
	<stop  offset="0.448" style="stop-color:#FDFDFD"/>
	<stop  offset="0.6093" style="stop-color:#F6F6F6"/>
	<stop  offset="0.7243" style="stop-color:#EBEBEB"/>
	<stop  offset="0.8173" style="stop-color:#DADADA"/>
	<stop  offset="0.897" style="stop-color:#C4C4C4"/>
	<stop  offset="0.9662" style="stop-color:#A9A9A9"/>
	<stop  offset="1" style="stop-color:#999999"/>
</linearGradient>
<path fill="url(#SVGID_2_)" d="M603.27,32.75l-24.98,83h-27.6l24.98-83H603.27 M657.38,32.75l-4.21,14H612.5l4.21-14H657.38
	 M640.47,69.75l-4.49,14.92h-34.89l4.49-14.92H640.47 M716.25,32.75l-4.53,14.94h-18.4l-16.2,53.81h18.45l-4.29,14.25h-32.66
	l-8.86-12.53l16.67-55.56l19.27-14.9H716.25 M763.47,32.75l8.95,12.32l-16.68,55.42l-19.19,15.26h-30.82l4.29-14.25h19.21
	l16.2-53.81h-19.21l4.5-14.94H763.47 M816.66,32.75l-24.98,83H765.1l24.98-83H816.66 M881.81,32.75l8.57,11.79l-6.42,21.34
	l-21.52,16.78l5.86,33.09h-28.8l-3.38-31.08h-20.45l3.63-12.06l36.26,0.04l8.17-27.14h-36.27l3.84-12.75H881.81 M952.38,32.75
	l-4.41,14.67h-19.11l-16.28,54.08h19.11l-4.29,14.25h-32.72l-8.66-11.87l16.58-55.27l20.06-15.86H952.38 M995.78,88.67l-3.13,11.44
	l-19.67,15.65h-30.6l4.29-14.25h19.4l3.86-12.83H995.78 M998.77,32.75l10.44,14.37l-4.15,12.63h-26.42l3.71-12.33h-19.4l4.41-14.67
	H998.77 M1052.84,32.75l-24.98,83h-25.28l24.98-83H1052.84 M1110.26,32.75l-4.41,14.67h-41.58l4.41-14.67H1110.26 M1089.6,102
	l-4.28,13.75h-41.62l4.14-13.75H1089.6 M1093.36,67.17L1089.19,81h-35.03l4.16-13.83H1093.36"/>
<rect x="854.84" y="144.67" fill="none" width="236.3" height="32.09"/>
</svg>
