<?xml version="1.0" encoding="utf-8"?>
<!-- Generator: Adobe Illustrator 22.0.1, SVG Export Plug-In . SVG Version: 6.00 Build 0)  -->
<svg version="1.1" id="Layer_1" xmlns="http://www.w3.org/2000/svg" xmlns:xlink="http://www.w3.org/1999/xlink" x="0px" y="0px"
	 viewBox="0 0 51.5124 8.7773" enable-background="new 0 0 51.5124 8.7773" xml:space="preserve">
<path d="M2.6016,1.5293H0V0.7676V0h7.002v0.7617v0.7676H4.4004v7.084H3.5039H2.6016V1.5293z M8.0742,0h0.8965h2.7891
	c1.1836,0,2.083,0.3477,2.6982,1.043s0.9229,1.7129,0.9229,3.0527c0,1.4766-0.3193,2.5986-0.958,3.3662
	s-1.5752,1.1514-2.8096,1.1514H8.9707H8.0742V0z M9.873,7.1309h1.5176c0.7305,0,1.2783-0.2471,1.6436-0.7412
	S13.582,5.1543,13.582,4.166c0-0.8945-0.1699-1.5654-0.5098-2.0127s-0.8516-0.6709-1.5352-0.6709H9.873V7.1309z M16.125,7.1016
	l4.4644-5.5723h-4.3179V0.7676V0h6.5859v0.709v0.709l-4.5483,5.666h4.5366v0.7617v0.7676H16.125V7.8574V7.1016z M24.0703,0h0.8965
	h2.7891c1.1836,0,2.083,0.3477,2.6982,1.043s0.9229,1.7129,0.9229,3.0527c0,1.4766-0.3193,2.5986-0.958,3.3662
	s-1.5752,1.1514-2.8096,1.1514h-2.6426h-0.8965V0z M25.8691,7.1309h1.5176c0.7305,0,1.2783-0.2471,1.6436-0.7412
	s0.5479-1.2354,0.5479-2.2236c0-0.8945-0.1699-1.5654-0.5098-2.0127s-0.8516-0.6709-1.5352-0.6709h-1.6641V7.1309z M34.1309,8.7773
	c-0.5898,0-1.0645-0.1689-1.4238-0.5068s-0.5391-0.7822-0.5391-1.333c0-0.582,0.1621-1.0479,0.4863-1.3975
	s0.7969-0.5693,1.418-0.6592l1.1074-0.1523c0.2891-0.0391,0.5293-0.1055,0.7207-0.1992c0.082-0.0391,0.1455-0.1094,0.1904-0.2109
	s0.0615-0.2051,0.0498-0.3105c-0.0234-0.1797-0.1152-0.3203-0.2754-0.4219c-0.1914-0.1211-0.4668-0.1816-0.8262-0.1816
	c-0.3203,0-0.5703,0.0781-0.75,0.2344s-0.2754,0.377-0.2871,0.6621h-1.6113c0.0352-0.7461,0.2891-1.3047,0.7617-1.6758
	s1.166-0.5566,2.0801-0.5566c0.793,0,1.4189,0.167,1.8779,0.5015s0.6885,0.791,0.6885,1.3696v3.5654
	c0,0.2852,0.0234,0.4863,0.0703,0.6016s0.1406,0.2061,0.2813,0.2725v0.0059v0.2285h-0.9082H36.334V8.6074
	c-0.0742-0.2578-0.123-0.5098-0.1465-0.7559l-0.0059-0.0117C35.6543,8.4648,34.9707,8.7773,34.1309,8.7773z M36.1523,6.2578V5.5254
	c-0.1953,0.1094-0.4531,0.1973-0.7734,0.2637l-0.6211,0.1172c-0.293,0.0547-0.5156,0.1553-0.668,0.3018
	s-0.2285,0.3311-0.2285,0.5537c0,0.2539,0.0684,0.4531,0.2051,0.5977s0.3281,0.2168,0.5742,0.2168
	c0.5391,0,0.9688-0.1895,1.2891-0.5684c0.0625-0.0742,0.1152-0.1836,0.1582-0.3281S36.1523,6.3945,36.1523,6.2578z M38.6543,2.2383
	h0.9258h0.9307l1.3564,4.7559h0.0068l1.3682-4.7559h0.8848h0.8848l-2.3027,6.375h-0.873H40.957L38.6543,2.2383z M48.4746,8.7773
	c-0.9688,0-1.7158-0.2988-2.2412-0.8965s-0.7881-1.4492-0.7881-2.5547c0-1.0195,0.2676-1.8174,0.8027-2.3936
	s1.2773-0.8643,2.2266-0.8643c0.9727,0,1.7217,0.2939,2.2471,0.8818s0.7881,1.4248,0.7881,2.5107
	c0.0078,0.125-0.002,0.252-0.0293,0.3809h-4.3418c0.0391,0.5039,0.1504,0.8809,0.334,1.1309
	c0.2344,0.3125,0.625,0.4688,1.1719,0.4688c0.2539,0,0.4893-0.0723,0.7061-0.2168s0.3467-0.3184,0.3896-0.5215h1.7109
	c-0.1445,0.6484-0.4795,1.1563-1.0049,1.5234S49.2637,8.7773,48.4746,8.7773z M49.7578,4.7695
	c-0.0391-0.3828-0.1406-0.6816-0.3047-0.8965c-0.2148-0.2852-0.5488-0.4277-1.002-0.4277c-0.4336,0-0.7637,0.166-0.9902,0.498
	c-0.1406,0.2109-0.2422,0.4863-0.3047,0.8262H49.7578z"/>
</svg>
