<?xml version="1.0" encoding="utf-8"?>
<!-- Generator: Adobe Illustrator 22.0.1, SVG Export Plug-In . SVG Version: 6.00 Build 0)  -->
<svg version="1.1" id="Layer_1" xmlns="http://www.w3.org/2000/svg" xmlns:xlink="http://www.w3.org/1999/xlink" x="0px" y="0px"
	 viewBox="0 0 632.3655 99.62" enable-background="new 0 0 632.3655 99.62" xml:space="preserve">
<path fill="#2C91C4" d="M415.81,0C388.3007,0,366,22.3007,366,49.81s22.3007,49.81,49.81,49.81c27.5093,0,49.81-22.3007,49.81-49.81
	S443.3193,0,415.81,0z M429.9229,61.1537l15.1635,25.256l-21.2485-20.4033l2.7037,29.334L416.25,67.7383l-10.2916,27.6021
	l2.7037-29.334l-21.2485,20.4033l15.1635-25.256l-27.9969,9.1634l24.62-16.1757L370,50.25l29.2002-3.8915l-24.62-16.1756
	l27.9969,9.1634l-15.1635-25.256l21.2485,20.4033l-2.7037-29.334L416.25,32.7617l10.2916-27.6021l-2.7037,29.334l21.2485-20.4033
	l-15.1635,25.256l27.9969-9.1634l-24.62,16.1756L462.5,50.25l-29.2002,3.8915l24.62,16.1757L429.9229,61.1537z"/>
<g>
	<path fill="#FFFFFF" d="M581.8804,4.0771h-38.7722v24.1649c-5.0334-25.6382-35.421-24.1672-35.421-24.1672h-42.9738v91.6824h4.2383
		h27.5817v-30.055c0.3094,0.1512,0.612,0.3416,0.9306,0.5799c0.1467,0.0298,1.561,1.8292,2.9615,4.8777l12.4396,24.5974h37.7247
		l-0.0014-0.0023h31.2919c0,0,50.4852,3.7362,50.4852-44.9221C632.3655,2.1769,581.8804,4.0771,581.8804,4.0771z M511.1461,36.8278
		c0,9.7051-13.5146,7.7384-13.5146,7.7384V28.8395c0,0,13.5146-1.5977,13.5146,6.7894V36.8278z M534.0014,69.1429
		c-4.6669-6.5121-8.1097-9.0931-8.1097-9.0931c11.442-3.1714,15.6905-10.4032,17.2166-16.1412v39.8452L534.0014,69.1429z
		 M598.8127,49.7281c0,21.1957-21.9315,18.8004-21.9315,18.8004V32.9563c0,0,21.2576-0.3071,21.9315,14.7455V49.7281z"/>
	<polygon fill="#FFFFFF" points="307.28,95.7551 340.9681,95.7551 340.9681,63.7357 366.5259,63.7357 366.5259,39.5922 
		340.9681,39.5922 340.9681,30.0063 368.7378,30.0063 368.7378,4.0771 307.28,4.0771 	"/>
	<polygon fill="#FFFFFF" points="230.0153,33.1007 250.3148,32.4039 250.3171,95.7551 282.0339,95.7551 282.0339,32.4039 
		300.2361,33.1007 300.2361,4.0749 230.0153,4.0749 	"/>
	<polygon fill="#FFFFFF" points="196.1025,61.8927 221.6603,61.8927 221.6603,37.7469 196.1025,37.7469 196.1025,28.9014 
		223.8746,28.9014 223.8746,4.0771 162.4144,4.0771 162.4144,95.7551 225.1031,95.7551 225.1031,70.9239 196.1025,70.9239 	"/>
	<polygon fill="#FFFFFF" points="122.6268,34.6663 101.0575,34.6663 101.0575,4.0749 70.2208,4.0749 69.3406,4.0749 0,4.0749 
		0,33.1007 20.2972,32.4039 20.3018,95.7551 52.0187,95.7551 52.0187,32.4039 69.3406,33.067 69.3406,95.7551 101.0575,95.7551 
		101.0575,63.5729 122.6268,63.5729 122.6268,95.7551 154.4492,95.7551 154.4492,4.0749 122.6268,4.0749 	"/>
</g>
</svg>
