<?xml version="1.0" encoding="utf-8"?>
<!-- Generator: Adobe Illustrator 22.0.1, SVG Export Plug-In . SVG Version: 6.00 Build 0)  -->
<svg version="1.1" id="Layer_1" xmlns="http://www.w3.org/2000/svg" xmlns:xlink="http://www.w3.org/1999/xlink" x="0px" y="0px"
	 viewBox="0 0 1703.7524 232.7916" enable-background="new 0 0 1703.7524 232.7916" xml:space="preserve">
<polygon fill="#EF3826" points="57.4205,0 0,0 0,55.9695 57.4205,55.9695 57.4205,232.7916 114.6338,232.7916 114.6338,55.9695 
	169.1522,55.9695 169.1522,0 114.6338,0 "/>
<rect x="402.773" fill="#EF3826" width="57.2132" height="232.7916"/>
<polygon fill="#EF3826" points="313.481,84.7834 245.2292,84.7834 245.2292,0 188.016,0 188.016,84.7834 188.016,140.3383 
	188.016,232.7916 245.2292,232.7916 245.2292,140.3383 313.481,140.3383 313.481,232.7916 370.6942,232.7916 370.6942,140.3383 
	370.6942,84.7834 370.6942,0 313.481,0 "/>
<polygon fill="#EF3826" points="618.3591,118.5264 548.7083,0 491.495,0 491.495,232.7916 548.7083,232.7916 548.7083,114.2652 
	618.3591,232.7916 675.5724,232.7916 675.5724,0 618.3591,0 "/>
<polygon fill="#EF3826" points="891.9877,0 828.5557,0 766.9893,77.2271 766.9893,0 709.776,0 709.776,232.7916 766.9893,232.7916 
	766.9893,153.8408 829.0221,232.7916 894.6307,232.7916 806.9479,114.7623 "/>
<polygon fill="#EF3826" points="1082.2839,0 1066.002,101.5818 1044.9709,0 995.5313,0 973.0438,103.2864 955.1089,0 898.5175,0 
	944.8478,232.7916 995.5313,232.7916 1020.3287,116.0309 1045.1042,231.9603 1044.9709,232.7916 1045.282,232.7916 
	1093.167,232.7916 1137.9426,0 "/>
<path fill="#EF3826" d="M1312.572,184.2847l-2.1655-6.2116L1248.3267,0h-45.7083l-47.9966,135.4274l0,0l-17.3154,48.8574l0,0
	l-17.1912,48.5069h51.0981l16.0681-48.5069h76.3823l16.0681,48.5069h49.7505L1312.572,184.2847L1312.572,184.2847z
	 M1203.4658,135.4274l22.0068-66.4348l22.0068,66.4348H1203.4658z"/>
<path fill="#EF3826" d="M1511.3833,74.1077c0-38.7521-27.7734-70.5375-63.1592-73.8105L1448.2224,0h-47.5342h-6.6492h-45.3403
	v232.7916h51.9895v-85.4725l53.0674,85.4725h61.981l-52.0657-88.2335C1491.3652,134.8787,1511.3833,107.0046,1511.3833,74.1077z
	 M1400.6882,94.7335V52.7564h41.5105v0.0003c6.3501-0.0003,17.6375,4.5101,17.8792,21.351
	c0.1555,10.8312-10.4165,20.6258-17.8792,20.6259c-2.2544,0-5.0571,0-7.9287,0l-0.0002-0.0001h-12.8887h-2.5029H1400.6882z"/>
<polygon fill="#EF3826" points="1703.7524,47.885 1703.7524,0 1591.8135,0 1539.8242,0 1539.8242,47.885 1539.8242,89.5512 
	1539.8242,137.4362 1539.8242,184.2847 1539.8242,232.1697 1539.8242,232.7916 1591.8135,232.7916 1591.8135,232.1697 
	1703.7524,232.1697 1703.7524,184.2847 1591.8135,184.2847 1591.8135,137.4362 1703.7524,137.4362 1703.7524,89.5512 
	1591.8135,89.5512 1591.8135,47.885 "/>
</svg>
