<?xml version="1.0" encoding="utf-8"?>
<!-- Generator: Adobe Illustrator 22.0.1, SVG Export Plug-In . SVG Version: 6.00 Build 0)  -->
<svg version="1.1" id="Layer_1" xmlns="http://www.w3.org/2000/svg" xmlns:xlink="http://www.w3.org/1999/xlink" x="0px" y="0px"
	 viewBox="0 0 81 11.35" enable-background="new 0 0 81 11.35" xml:space="preserve">
<g>
	<path d="M2.602,1.658H0V0.896V0.129h7.002v0.762v0.768H4.4v7.084H3.504H2.602V1.658z"/>
	<path d="M7.939,0.129h0.838h0.844v3.047l0.135-0.188c0.414-0.527,1.016-0.791,1.805-0.791c0.672,0,1.198,0.199,1.579,0.598
		s0.571,0.951,0.571,1.658v4.289h-0.838h-0.844V4.758c0-0.395-0.085-0.687-0.255-0.876s-0.431-0.284-0.782-0.284
		c-0.441,0-0.78,0.133-1.017,0.398S9.621,4.645,9.621,5.145v3.598H8.783H7.939V0.129z"/>
	<path d="M15.782,8.01C15.194,7.412,14.9,6.605,14.9,5.59c0-1.039,0.294-1.864,0.882-2.476s1.38-0.917,2.376-0.917
		c1.004,0,1.799,0.306,2.385,0.917s0.879,1.437,0.879,2.476c0,1.016-0.293,1.822-0.879,2.42s-1.381,0.896-2.385,0.896
		C17.162,8.906,16.37,8.607,15.782,8.01z M19.301,7.008c0.262-0.328,0.393-0.807,0.393-1.436c0-0.645-0.131-1.134-0.393-1.468
		s-0.643-0.501-1.143-0.501s-0.88,0.167-1.14,0.501s-0.39,0.823-0.39,1.468c0,0.629,0.13,1.107,0.39,1.436s0.64,0.492,1.14,0.492
		S19.039,7.336,19.301,7.008z"/>
	<path d="M22.588,2.367h0.797h0.803v1.025c0.074-0.18,0.167-0.34,0.281-0.48c0.371-0.477,0.909-0.715,1.615-0.715
		c0.562,0,1.021,0.189,1.38,0.568c0.141,0.145,0.251,0.305,0.333,0.48l0.206-0.334c0.348-0.477,0.854-0.715,1.52-0.715
		c0.692,0,1.234,0.205,1.625,0.615s0.587,0.979,0.587,1.705v4.225h-0.838h-0.844V4.998c0-0.477-0.078-0.829-0.235-1.058
		c-0.156-0.229-0.399-0.343-0.729-0.343c-0.353,0-0.622,0.108-0.808,0.325c-0.187,0.217-0.279,0.528-0.279,0.935v3.885h-0.838H26.32
		v-4.02c0-0.383-0.082-0.666-0.246-0.85s-0.415-0.275-0.753-0.275s-0.599,0.108-0.78,0.325S24.27,4.451,24.27,4.857v3.885h-0.838
		h-0.844V2.367z"/>
	<path d="M34.799,8.906c-0.59,0-1.064-0.169-1.424-0.507s-0.539-0.782-0.539-1.333c0-0.582,0.162-1.048,0.486-1.397
		S34.119,5.1,34.74,5.01l1.107-0.152c0.289-0.039,0.529-0.105,0.721-0.199c0.082-0.039,0.146-0.109,0.19-0.211
		s0.062-0.205,0.05-0.311c-0.023-0.18-0.115-0.32-0.275-0.422c-0.191-0.121-0.467-0.182-0.826-0.182c-0.32,0-0.57,0.078-0.75,0.234
		S34.682,4.145,34.67,4.43h-1.611c0.035-0.746,0.289-1.305,0.762-1.676s1.166-0.557,2.08-0.557c0.793,0,1.419,0.167,1.878,0.501
		s0.688,0.791,0.688,1.37v3.565c0,0.286,0.023,0.486,0.07,0.601c0.047,0.116,0.141,0.207,0.281,0.273v0.006v0.229H37.91h-0.908
		V8.736c-0.074-0.258-0.123-0.51-0.146-0.756L36.85,7.969C36.322,8.594,35.639,8.906,34.799,8.906z M36.82,6.387V5.654
		c-0.195,0.109-0.453,0.197-0.773,0.264l-0.621,0.117C35.133,6.09,34.91,6.19,34.758,6.337s-0.229,0.331-0.229,0.554
		c0,0.254,0.068,0.453,0.205,0.598s0.328,0.217,0.574,0.217c0.539,0,0.969-0.189,1.289-0.568c0.063-0.074,0.115-0.184,0.158-0.328
		S36.82,6.523,36.82,6.387z"/>
	<path d="M43.552,4.277c0-0.246-0.102-0.443-0.305-0.592c-0.204-0.148-0.473-0.223-0.809-0.223c-0.325,0-0.578,0.056-0.759,0.167
		c-0.182,0.111-0.273,0.267-0.273,0.466c0,0.141,0.104,0.262,0.311,0.363c0.203,0.098,0.564,0.205,1.084,0.322
		c1.031,0.23,1.721,0.482,2.069,0.756c0.349,0.273,0.523,0.703,0.523,1.289c0,0.625-0.253,1.128-0.759,1.509
		s-1.173,0.571-2.001,0.571c-0.98,0-1.736-0.188-2.265-0.563s-0.812-0.922-0.847-1.641h1.711c0.012,0.293,0.142,0.522,0.39,0.688
		s0.585,0.249,1.011,0.249c0.336,0,0.599-0.058,0.788-0.173s0.284-0.276,0.284-0.483c0-0.145-0.092-0.268-0.275-0.369
		c-0.184-0.098-0.506-0.197-0.967-0.299c-1.078-0.242-1.799-0.498-2.163-0.768c-0.363-0.266-0.544-0.678-0.544-1.236
		c0-0.633,0.235-1.144,0.706-1.532c0.47-0.389,1.09-0.583,1.86-0.583c0.867,0,1.566,0.19,2.097,0.571s0.797,0.884,0.797,1.509
		H43.552z"/>
	<path d="M53.186,0.129h0.896h0.902v6.193c0,0.875-0.234,1.536-0.703,1.983s-1.16,0.671-2.074,0.671
		c-0.973,0-1.686-0.246-2.139-0.738s-0.664-1.252-0.633-2.279V5.443h1.711v0.516c-0.016,0.523,0.062,0.911,0.231,1.163
		S51.818,7.5,52.189,7.5c0.355,0,0.61-0.092,0.765-0.275s0.231-0.484,0.231-0.902V0.129z"/>
	<path d="M58.154,8.906c-0.59,0-1.064-0.169-1.424-0.507s-0.539-0.782-0.539-1.333c0-0.582,0.162-1.048,0.486-1.397
		S57.475,5.1,58.096,5.01l1.107-0.152c0.289-0.039,0.529-0.105,0.721-0.199c0.082-0.039,0.146-0.109,0.19-0.211
		s0.062-0.205,0.05-0.311c-0.023-0.18-0.115-0.32-0.275-0.422c-0.191-0.121-0.467-0.182-0.826-0.182c-0.32,0-0.57,0.078-0.75,0.234
		s-0.275,0.377-0.287,0.662h-1.611c0.035-0.746,0.289-1.305,0.762-1.676s1.166-0.557,2.08-0.557c0.793,0,1.419,0.167,1.878,0.501
		s0.688,0.791,0.688,1.37v3.565c0,0.286,0.023,0.486,0.07,0.601c0.047,0.116,0.141,0.207,0.281,0.273v0.006v0.229h-0.908h-0.908
		V8.736c-0.074-0.258-0.123-0.51-0.146-0.756l-0.006-0.012C59.678,8.594,58.994,8.906,58.154,8.906z M57.246,0h1.512v1.377h-1.512V0
		z M60.176,6.387V5.654c-0.195,0.109-0.453,0.197-0.773,0.264l-0.621,0.117c-0.293,0.055-0.516,0.155-0.668,0.302
		s-0.229,0.331-0.229,0.554c0,0.254,0.068,0.453,0.205,0.598s0.328,0.217,0.574,0.217c0.539,0,0.969-0.189,1.289-0.568
		c0.063-0.074,0.115-0.184,0.158-0.328S60.176,6.523,60.176,6.387z M59.584,0h1.512v1.377h-1.512V0z"/>
	<path d="M66.176,10.066c0.473,0,0.813-0.114,1.02-0.343s0.311-0.606,0.311-1.134V7.805L67.371,8.01
		c-0.371,0.512-0.904,0.768-1.6,0.768c-0.828,0-1.497-0.298-2.007-0.894S63,6.502,63,5.525c0-1,0.248-1.805,0.744-2.414
		s1.148-0.914,1.957-0.914c0.715,0,1.27,0.26,1.664,0.779c0.074,0.098,0.143,0.205,0.205,0.322V2.367h1.582v6.035
		c0,1.008-0.249,1.751-0.747,2.229s-1.274,0.718-2.329,0.718c-0.867,0-1.557-0.169-2.068-0.507s-0.785-0.806-0.82-1.403h1.828
		c0.016,0.219,0.116,0.378,0.302,0.478S65.789,10.066,66.176,10.066z M66.123,3.65c-0.438,0-0.779,0.167-1.025,0.501
		s-0.369,0.798-0.369,1.392c0,0.582,0.123,1.036,0.369,1.362s0.586,0.489,1.02,0.489c0.441,0,0.786-0.166,1.034-0.498
		s0.372-0.791,0.372-1.377s-0.124-1.044-0.372-1.374S66.561,3.65,66.123,3.65z"/>
	<path d="M73.154,8.906c-0.969,0-1.716-0.299-2.241-0.896s-0.788-1.449-0.788-2.555c0-1.02,0.268-1.817,0.803-2.394
		s1.277-0.864,2.227-0.864c0.973,0,1.722,0.294,2.247,0.882s0.788,1.425,0.788,2.511c0.008,0.125-0.002,0.252-0.029,0.381h-4.342
		c0.039,0.504,0.15,0.881,0.334,1.131c0.234,0.313,0.625,0.469,1.172,0.469c0.254,0,0.489-0.072,0.706-0.217s0.347-0.318,0.39-0.521
		h1.711c-0.145,0.648-0.479,1.156-1.005,1.523S73.943,8.906,73.154,8.906z M74.438,4.898c-0.039-0.383-0.141-0.682-0.305-0.896
		c-0.215-0.285-0.549-0.428-1.002-0.428c-0.434,0-0.764,0.166-0.99,0.498C72,4.283,71.898,4.559,71.836,4.898H74.438z"/>
	<path d="M77.291,2.367h0.797h0.803V3.51c0.059-0.125,0.125-0.246,0.199-0.363c0.395-0.633,0.904-0.949,1.529-0.949L81,2.203V3.92
		c-0.148-0.016-0.316-0.023-0.504-0.023c-0.512,0-0.894,0.127-1.146,0.381s-0.378,0.639-0.378,1.154v3.311h-0.838h-0.844V2.367z"/>
</g>
</svg>
