<?xml version="1.0" encoding="utf-8"?>
<!-- Generator: Adobe Illustrator 22.0.1, SVG Export Plug-In . SVG Version: 6.00 Build 0)  -->
<svg version="1.1" id="Layer_1" xmlns="http://www.w3.org/2000/svg" xmlns:xlink="http://www.w3.org/1999/xlink" x="0px" y="0px"
	 viewBox="0 0 309.4008 29.5201" enable-background="new 0 0 309.4008 29.5201" xml:space="preserve">
<path fill="#FFFFFF" d="M121.98,0l-2.16,5.94l-1.74,4.7401l-1.08,2.88h-8.76l-4.68,12.9l-1.08,2.88H86.64l2.16-5.94l3.6-9.84h-7.5
	l-4.68,12.9l-1.02,2.88H67.44l-2.7,0.06l-1.26-2.46l-3.72-7.3799L57.3,26.4l-0.96,2.94h-9.18l-4.92,0.06H26.4l2.16-6l3.54-9.78h-7.2
	l-4.68,12.84L19.2,29.4H3.3l2.16-6l3.6-9.78H0l2.16-5.94L3.9,2.94L4.98,0h62.94l1.14,2.7l2.34,5.34l1.86-5.1L74.34,0h18.84H121.98z
	 M308.76,11.3401c-0.06,0.12-0.42,1.14-1.02,2.94l-0.42,1.38l-0.66,2.04l-0.66,1.8c-0.18,0.66-0.3,1.02-0.36,1.14
	c-0.9,2.76-2.4,4.92-4.5,6.42c-2.1,1.5-4.8,2.28-7.8,2.28h-18.66l-5.1,0.06h-1.38v-0.06h-43.68L223.26,27.6l-4.02-5.34l-1.5,4.26
	l-1.08,2.82h-15.84l1.5-4.08c-2.7,2.64-6.36,4.26-10.44,4.26c-8.22,0-14.88-6.66-14.88-14.76c0-1.08,0.12-2.16,0.3-3.12
	l-12.54,16.02l-1.44,1.68h-13.86l0.24-3l-0.66,1.08l-1.5,1.92h-13.56l-0.12-4.2l-1.08-20.52l-0.24-4.62h15.6l0.12,4.32v0.3
	l1.98-2.76l1.32-1.86h13.74l-0.12,4.38l2.04-2.64l1.32-1.74h17.88l-1.2,1.56c1.98-0.96,4.2-1.56,6.66-1.56
	c7.68,0,14.04,5.82,14.76,13.32l3.78-10.38l1.08-2.94h20.22c1.74,0,3.24,0.18,4.5,0.48c1.74,0.42,3.24,1.2,4.26,2.34
	c0.84,0.9,1.8,2.52,1.8,4.98c0,1.32-0.36,2.82-0.96,4.56c-0.6,1.56-1.2,2.88-1.92,4.02c-0.18,0.24-0.3,0.42-0.42,0.6
	c-0.78,1.02-1.56,1.92-2.46,2.58c-0.24,0.24-0.48,0.36-0.78,0.54l1.68,2.16l3.36,4.2l9.78-26.46h15.9l-2.22,5.94l-3.48,9.6h12.42
	l4.62-12.72l1.02-2.82h21.36c3.54,0,6.24,1.02,7.86,3.18C309.12,4.6801,310.08,7.3201,308.76,11.3401z M293.4,13.6801h-4.68
	l-0.66,1.92h4.62L293.4,13.6801z"/>
<path d="M18.12,27.9H5.34l1.5-3.96l4.26-11.76h-9l1.44-4.02l1.74-4.74L6,1.4401h30.6l-1.5,4.02l-1.74,4.74l-0.72,1.98h-8.7
	l-5.04,13.8L18.12,27.9z M41.94,25.92l7.5-20.46l1.5-4.02H38.1l-0.72,1.98l-7.44,20.52l-1.5,3.96h12.78L41.94,25.92z M67.44,27.9
	h10.74l0.66-1.98l7.5-20.4l1.44-4.02H75.36l-0.72,1.92l-3.12,8.52L67.74,3.3l-0.78-1.8H52.44l-0.72,1.92l-7.5,20.46l-1.44,4.02H55.2
	l0.72-1.98l3.54-10.02l5.28,10.38l0.84,1.62H67.44z M102.18,25.92l5.1-13.8h8.7l0.72-1.92l1.74-4.74l1.5-4.02h-30.6l-0.72,1.92
	l-1.74,4.8l-1.44,3.96h9l-4.26,11.82l-1.5,3.96h12.78L102.18,25.92z M163.62,26.7601l16.08-20.52l3.78-4.8h-14.22l-0.84,1.2
	l-4.74,6.18l0.06-4.32l0.12-3.06h-11.58l-5.4,7.56l-0.12-4.62l-0.06-2.94h-12.6l0.18,3.12l1.02,20.52l0.18,2.8199h11.46l0.9-1.3199
	l3.66-5.34l-0.24,3.54l-0.18,3.12h11.64L163.62,26.7601z M205.32,14.7601c0-7.32-6.06-13.32-13.44-13.32
	c-7.44,0-13.44,6-13.44,13.32c0,7.3199,6,13.3199,13.44,13.3199C199.26,28.08,205.32,22.08,205.32,14.7601z M236.34,23.16
	l-2.82-3.48c0.78-0.36,1.44-0.78,2.1-1.2c0.78-0.66,1.5-1.44,2.22-2.4c0.12-0.1201,0.18-0.2401,0.3-0.48
	c0.66-1.02,1.26-2.28,1.8-3.72c0.6-1.62,0.84-2.94,0.84-4.08c0.06-1.98-0.72-3.3-1.38-3.96c-0.84-0.96-2.04-1.62-3.54-1.98
	c-1.14-0.24-2.46-0.42-4.14-0.42h-19.2l-0.72,1.98l-7.5,20.52l-1.44,4.02h12.78l0.72-1.98l2.46-6.72l5.58,7.5l0.9,1.2h14.82
	L236.34,23.16z M269.34,25.98l1.8-4.98l1.5-3.96h-13.92l4.2-11.58l1.44-4.02h-12.78l-0.72,1.98l-7.5,20.52l-1.44,3.96h26.7
	L269.34,25.98z M274.56,27.9001l18.9-0.06c2.7,0,4.98-0.66,6.84-1.98c1.8-1.32,3.18-3.2401,3.96-5.7c0.06-0.06,0.18-0.48,0.42-1.26
	l0.6-1.68l0.66-2.04l0.48-1.3799c0.6-1.86,0.9-2.76,0.96-2.94c0.9-2.76,0.72-5.1-0.54-6.84c-1.26-1.8-3.48-2.64-6.54-2.64
	l-18.3-0.06h-2.16l-0.66,1.98l-7.44,20.64l-1.44,3.96H274.56z M295.44,12.2401l-1.74,4.8H286.02l1.6801-4.8H295.44z"/>
<path fill-rule="evenodd" clip-rule="evenodd" fill="#FFFFFF" d="M33.66,3.54L33.6,3.72c-0.755,2.083-1.529,4.156-2.28,6.24v0.18
	H22.5l-0.12,0.36c-1.874,5.073-3.73,10.157-5.58,15.2401l-0.06,0.12L8.4,25.92V25.8c1.831-5.109,3.711-10.207,5.58-15.3l0.12-0.36
	l-9-0.06l0.12-0.36c0.754-2.027,1.499-4.079,2.22-6.12L7.5,3.54H33.66z M39.6,3.54l-0.06,0.18c-2.69,7.245-5.281,14.539-7.98,21.78
	l-0.12,0.36l8.4,0.06v-0.06c2.703-7.375,5.358-14.782,8.1-22.14L48,3.54H39.6z M53.88,3.6l-0.06,0.18
	c-2.591,7.123-5.193,14.243-7.8,21.36l-0.24,0.72l8.04,0.06V25.8c1.722-4.749,3.381-9.53,5.1-14.28l0.24-0.72h0.12l7.62,15.12
	l9.84-0.06l0.06-0.12c2.659-7.367,5.39-14.709,8.04-22.08L84.9,3.6h-8.04L76.8,3.78c-1.665,4.537-3.34,9.074-4.98,13.62l-0.06,0.12
	L65.7,3.6 M90.84,3.54L90.78,3.6c-0.769,2.144-1.581,4.272-2.34,6.42v0.12h9l-0.06,0.18c-1.903,5.107-3.723,10.259-5.64,15.36
	l-0.06,0.18l8.4,0.06v-0.06c1.902-5.178,3.777-10.371,5.7-15.54l0.06-0.18l8.76-0.06l0.06-0.12c0.74-2.105,1.553-4.19,2.28-6.3
	L117,3.54H90.84z M136.32,3.54l1.14,22.38h8.46l8.1-11.94l-0.66,11.94h8.46l17.46-22.38h-8.94l-8.88,11.7l0.3-11.7h-8.34
	c-2.782,3.878-5.579,7.748-8.34,11.64l-0.06,0.12v-1.8h-0.06v-2.52h-0.06V8.4h-0.06V5.88h-0.06V3.54 M229.74,10.56l0.18,0.0601
	l0.06,0.06l0.12,0.06v0.12h0.06v0.18h0.06l-0.12,0.36c-0.32,0.953-1.303,1.484-2.28,1.5L219,12.96v-0.12
	c0.294-0.685,0.493-1.412,0.78-2.1l0.06-0.1801H229.74z M233.16,3.6l0.78,0.06c1.419,0.111,3.219,0.557,4.14,1.74v0.12h0.06
	l0.06,0.06V5.7h0.06l0.06,0.06v0.12h0.06V6h0.06v0.1201h0.06v0.12h0.06v0.18h0.06v0.24h0.06V6.9h0.06v0.42h0.06l-0.06,1.02
	c-0.808,4.54-3.184,9.568-8.34,10.08l-0.36,0.06l5.9274,7.5l-9.5874-0.06h-0.06l-7.98-10.86L218.28,15h-0.06
	c0,0-2.635,7.255-3.96,10.8v0.18h-8.4v-0.12c2.707-7.397,5.404-14.799,8.1-22.2l0.06-0.06H233.16z M253.08,3.54l-0.06,0.18
	c-2.634,7.134-5.23,14.285-7.86,21.42l-0.24,0.72l22.32,0.06V25.8c0.79-2.202,1.637-4.388,2.4-6.6l0.06-0.06l-13.92-0.06l0.06-0.12
	c1.845-5.124,3.761-10.227,5.58-15.36l0.06-0.06H253.08z M298.38,10.26l-0.12,0.36c-1.026,2.7599-1.962,5.587-3,8.34v0.12h-0.24
	l-9.42,0.06l-2.46,0.06v-0.18c1.058-2.871,2.067-5.767,3.12-8.64l0.06-0.12H298.38z M301.32,3.48l0.48,0.06
	c3.1597,0.2394,4.8183,2.84,3.9,5.76c-0.9763,3.1044-2.174,6.655-3.24,9.96l-0.18,0.54l-0.06,0.12
	c-0.278,0.797-0.587,1.385-1.02,2.1l-0.06,0.06l-0.06,0.12l-0.06,0.06c-1.491,2.277-4.198,3.484-6.9,3.54l-12.78,0.06l-8.04,0.06
	V25.8c2.642-7.407,5.336-14.794,7.98-22.2l0.06-0.12H301.32z M191.91,3.54c-6.2795,0-11.37,5.0905-11.37,11.37
	s5.0905,11.37,11.37,11.37s11.37-5.0905,11.37-11.37S198.1895,3.54,191.91,3.54z"/>
<path d="M187.8,23.7001l-0.3-0.18l-0.36-0.12l-0.42-0.24L186.3,23.04l-0.24,0.06l-0.3-0.3v-0.24h0.36l0.3,0.12l0.42,0.18l-0.54-0.54
	l-0.24-0.18l-0.48,0.12l-0.24-0.36l-0.54-0.12v-0.3l0.24-0.12l-0.24-0.36l-0.48-0.3h-0.36l0.24,0.6l0.18,0.36l0.12,0.3h-0.06
	c1.08,1.02,2.46,1.92,3.96,2.4l0.06-0.3l-0.24-0.18L187.8,23.7001z M183.78,20.2801l0.06-0.2401l-0.24-0.24v-0.36l0.06-0.3
	l-0.18-0.36v-0.3l-0.12-0.36l-0.24-0.36l-0.12-0.36l-0.18-0.48l-0.3-0.24l-0.36-0.42l-0.24-0.06l-0.06,0.24
	c0.12,1.74,0.84,3.36,1.86,4.68l0.06-0.24l-0.18-0.24h0.36L183.78,20.2801z M199.86,16.4401h-0.54l-0.6,0.06l-0.36-0.06l-0.3,0.06
	l-0.06,0.18l-0.42,0.06v-0.54l-0.18-0.18l-0.24-0.18l-0.54-0.06h-0.24l-0.24,0.12l-0.18-0.12L195.6,15.6l-0.24-0.06
	c-0.06,0-0.12-0.12-0.12-0.12L195,15.36l-0.42,0.06l-0.06,0.12l-0.18,0.06h-0.24l-0.36-0.06l-0.24-0.12h-0.3l-0.18,0.12l-0.18,0.06
	l-0.42,0.2401l-0.12,0.24l-0.48-0.06l-0.3,0.06l-0.36-0.06l-0.12-0.18v-0.6l-0.36-0.06h-0.54l-0.18-0.18v-0.24l0.12-0.24l-0.06-0.24
	l-0.3,0.06l-0.18,0.3l-0.3,0.24h-0.48l-0.18-0.12l-0.24-0.3l-0.12-0.3l0.12-0.3v-0.48c0,0,0.12-0.12,0.3-0.24h0.72
	c0,0,0.24-0.06,0.36-0.18h0.36c0.639,0.08,0.346,0.206,0.84,0.6h0.24v-0.24l-0.12-0.24l-0.12-0.24L190.86,12.6l0.36-0.24l0.18-0.24
	l0.18-0.12v-0.18l0.12-0.36v-0.24l0.12-0.1201l0.24-0.06l0.24-0.12h-0.18l0.06-0.18l0.24-0.24l0.24-0.06v0.18l0.24-0.12l0.3-0.18
	l0.18-0.24h-0.18l-0.54,0.12v-0.24h-0.42l0.06-0.24l0.36-0.06h0.3l0.12-0.1801l0.12-0.3l-0.12-0.12h-0.42l-0.24-0.12l-0.18-0.06
	l-0.12-0.12l-0.24-0.12v0.24h-0.18l-0.18,0.06l-0.12-0.12v-0.18h-0.48l-0.3-0.06l-0.18,0.06l0.24,0.06l0.06,0.3l0.12,0.12V9.3
	l-0.24,0.24l0.24,0.3l-0.12,0.12h-0.36v-0.18l-0.12-0.3l-0.24-0.06h-0.48l-0.36-0.12v-0.24l0.12-0.3l0.36-0.3h0.24l0.24,0.06h0.24
	l-0.24-0.24l0.12-0.12l0.12-0.3l0.3,0.12l0.18,0.12l-0.12,0.1801l0.42,0.06l0.54,0.06l-0.06-0.3l0.24-0.12l-0.36-0.12l-0.48-0.06
	h-0.36l-0.06-0.24l-0.18-0.06l0.06-0.24h0.96l0.24,0.18h0.6v0.24l0.18,0.24l0.36,0.12l0.3,0.1201h0.72L193.8,7.98l-0.24-0.3
	l0.06-0.24v-0.42l-0.24,0.12l-0.3-0.24l-0.24-0.12l-0.6-0.2401l-0.42,0.06h-0.36l-0.24,0.1201l-0.18,0.12l-0.36,0.06h-0.54
	l-0.3,0.18l-0.3,0.12l0.06,0.24l-0.24,0.06l0.36,0.18l0.12,0.12v0.18l-0.18,0.12l-0.48-0.06L189,8.1601l-0.3,0.06h-0.54
	c0,0-0.24-0.1201-0.36-0.1801s-0.18-0.06-0.18-0.06l-0.36,0.06l-0.18-0.06v-0.3h-0.66l0.3-0.18l0.18-0.18l0.06-0.48
	c-0.48,0.3-0.96,0.6-1.38,0.96l0.06,0.18L186,7.86c0,0-0.06,0.18-0.24,0.3l-0.48,0.24l-0.24,0.24l-0.36,0.12l-0.36,0.24l0.24,0.18
	c0,0,0.42-0.12,0.54-0.24l0.3-0.12h0.12l0.24,0.12V9.3l-0.06,0.24l-0.06,0.1801v0.48l0.12,0.18l-0.12,0.18
	c-0.634,0.887-0.675,0.834-0.54,2.04l0.3,0.1801v0.42l0.12,0.24l0.12,0.18l0.06,0.3l0.36,0.3l0.18,0.24v-0.24l-0.12-0.3l-0.06-0.3
	l-0.18-0.18l-0.18-0.36h0.18l0.06,0.18c0.322,0.461,0.51,0.529,0.78,1.08l0.24,0.06v0.18l-0.06,0.12l0.3,0.3
	c2.037,0.827,0.769,0.088,1.86,0.36l0.12,0.12l0.18,0.12c1.364-0.132,0.921,0.527,1.8,0.6l0.24,0.18h0.24l0.06-0.24h0.3l0.24,0.18
	l0.12,0.12l0.06,0.24v0.24l-0.18,0.18l-0.18,0.1201l-0.12,0.24l-0.06,0.18v0.18l0.24,0.06l0.12,0.12l-0.18,0.18L192,18.3l0.12,0.06
	l0.3,0.18l0.12,0.1801l0.3,0.18l0.24,0.12l0.24,0.3l0.12,0.12l0.48,0.12l0.42,0.12l0.18,0.24l0.06,0.18
	c0.14,0.996-0.055,1.53-0.06,2.4l-0.18,0.24v0.3h0.3l0.24-0.06l0.24,0.2401l0.6-0.06L195.36,23.1l-0.24-0.18l0.18-0.18
	c0.875-0.857-0.267-0.118,1.02-1.08L196.8,21.6v-0.18l-0.18-0.24l0.36,0.06l0.36-0.06l0.3-0.3l0.18-0.36l0.3-0.36l0.12-0.36
	l0.3-0.06l0.3-0.12l0.42-0.3l0.06-0.24c0,0,0.12-0.18,0.12-0.3c0-0.06,0.24-0.1801,0.24-0.1801l0.12-0.42l0.18-0.3l0.06-0.42
	l0.18-0.24v-0.6l-0.24-0.18H199.86z M199.5,9.6l0.24-0.06l-0.36-0.6l-0.24-0.42l-0.24-0.24l0.54,0.12l0.24-0.54
	c-0.06-0.06-0.12-0.06-0.12-0.12l-2.64-1.5l-2.04-0.24h-0.6l-0.12,0.54l0.42,0.1801l0.42,0.06l0.42,0.18l0.36,0.12l0.48,0.18
	l0.48,0.06l0.3-0.06l0.36,0.24l0.06,0.3l-0.36,0.06l-0.9-0.3l0.96,0.72L197.7,8.04l0.36,0.42l0.6,0.06l0.06,0.3l-0.24,0.18l0.3,0.3
	l0.18,0.12l-0.06,0.06l-0.54-0.42v0.48l0.24,0.1801l-0.36,0.12l0.18,0.3l0.06,0.24l0.24,0.24l0.12,0.72l0.18,0.3l0.12,0.3l0.18,0.3
	l0.3,0.36l0.18,0.36l0.3,0.48l0.36,0.18l0.36,0.36l0.3-0.06l0.18-0.54l0.06-0.06C201.12,11.9401,200.4,10.6801,199.5,9.6z"/>
</svg>
