<?xml version="1.0" encoding="utf-8"?>
<!-- Generator: Adobe Illustrator 22.0.1, SVG Export Plug-In . SVG Version: 6.00 Build 0)  -->
<svg version="1.1" id="Layer_1" xmlns="http://www.w3.org/2000/svg" xmlns:xlink="http://www.w3.org/1999/xlink" x="0px" y="0px"
	 viewBox="0 0 768 201" enable-background="new 0 0 768 201" xml:space="preserve">
<path d="M667.5,0h-567C44.9954,0,0,44.9954,0,100.5v0.0002C0,156.0047,44.9953,201,100.4998,201h567.0004
	C723.0047,201,768,156.0047,768,100.5002V100.5C768,44.9954,723.0046,0,667.5,0z M667.5002,184H100.4999
	C54.4579,184,17,146.542,17,100.5S54.458,17,100.5,17h567c46.042,0,83.5,37.458,83.5,83.5001
	C751,146.5421,713.5422,184,667.5002,184z"/>
<path d="M469,41.8333h25.1667v94.3333h16v23H469V41.8333z M460,136.1667h-15.5V41.8333H419v117.3333h41V136.1667z M409.999,159.1666
	h-25.9995l-1.0566-20.5h-9.8954l-0.9646,20.5H345.499l13.8333-117.3333h36.1667L409.999,159.1666z M381.9995,117.6666
	L378.25,68.0833l-5.0839,49.5833H381.9995z M57.1667,65.1667h15.6667v94h25.3333v-94H113V41.8333H57.1667V65.1667z M188,159.1667
	h22.1667V83.25L220.5,159.1667h15L245,80v79.1667h22.1667V41.8333H234.5l-6.9167,54.3292L220.75,41.8333H188V159.1667z M178.25,69
	v62.75c0,16.4305-13.3195,29.75-29.75,29.75h-0.0001c-16.4304,0-29.7499-13.3195-29.7499-29.7499V68.9999
	c0-16.4304,13.3195-29.7499,29.7499-29.7499H148.5C164.9305,39.25,178.25,52.5695,178.25,69z M152.25,69
	c0-2.0677-1.6823-3.75-3.75-3.75s-3.75,1.6821-3.75,3.7499v62.7502c0,2.0677,1.6822,3.7499,3.7499,3.7499
	c2.0678,0,3.7501-1.6823,3.7501-3.75V69z M338.1667,118.499v15c0,17.6666-4.6677,25.6677-26.1667,25.6677h-33.8333V41.8333h29.6656
	c25.0427,0,28.0011,16.5417,28.0011,26.25v8.9156c0,13.251-5.5834,15.876-12.6667,18.6677
	C332.25,98.5,338.1667,106,338.1667,118.499z M312,112c0-3.3137-2.6863-6-6-6h-2.6666v32.6666H306c3.3137,0,6-2.6863,6-6V112z
	 M312,67.1666c0-2.7614-2.2386-5-5-5h-3.6666v25.5H307c2.7614,0,5-2.2385,5-5V67.1666z"/>
</svg>
