<?xml version="1.0" encoding="utf-8"?>
<!-- Generator: Adobe Illustrator 22.0.1, SVG Export Plug-In . SVG Version: 6.00 Build 0)  -->
<svg version="1.1" id="Layer_1" xmlns="http://www.w3.org/2000/svg" xmlns:xlink="http://www.w3.org/1999/xlink" x="0px" y="0px"
	 viewBox="0 0 112.34 9.08" enable-background="new 0 0 112.34 9.08" xml:space="preserve">
<g>
	<path d="M2.6,1.76H0V1V0.23h7V1v0.77H4.4v7.08H3.5H2.6V1.76z"/>
	<path d="M8.81,7.87c-0.75-0.81-1.12-1.9-1.12-3.28c0-1.41,0.37-2.52,1.12-3.35S10.56,0,11.82,0c1.27,0,2.28,0.41,3.03,1.24
		s1.12,1.94,1.12,3.35c0,1.38-0.37,2.47-1.12,3.28s-1.75,1.21-3.03,1.21C10.56,9.08,9.55,8.68,8.81,7.87z M13.55,6.76
		c0.41-0.53,0.62-1.25,0.62-2.19c0-0.95-0.21-1.7-0.62-2.24s-0.99-0.81-1.72-0.81c-0.73,0-1.3,0.27-1.72,0.81S9.49,3.62,9.49,4.58
		c0,0.93,0.21,1.66,0.62,2.19s0.99,0.79,1.72,0.79S13.13,7.29,13.55,6.76z"/>
	<path d="M19,8.85h-0.84h-0.84V0.23h0.94h0.94l3.46,6.05V0.23h0.84h0.84v8.61h-0.9h-0.9L19,2.64V8.85z"/>
	<path d="M28.35,5.61l-3.01-5.37h1.07h1.07l1.79,3.73l0,0.01l1.68-3.74h1.02h1.02l-2.85,5.34v3.28h-0.9h-0.9V5.61z"/>
	<path d="M37.41,8.85V0.23h0.9h0.9v7.08h4.28v0.76v0.77H37.41z"/>
	<path d="M45.47,7.87c-0.75-0.81-1.12-1.9-1.12-3.28c0-1.41,0.37-2.52,1.12-3.35S47.23,0,48.49,0c1.27,0,2.28,0.41,3.03,1.24
		s1.12,1.94,1.12,3.35c0,1.38-0.37,2.47-1.12,3.28s-1.75,1.21-3.03,1.21C47.23,9.08,46.22,8.68,45.47,7.87z M50.21,6.76
		c0.41-0.53,0.62-1.25,0.62-2.19c0-0.95-0.21-1.7-0.62-2.24s-0.99-0.81-1.72-0.81c-0.73,0-1.3,0.27-1.72,0.81s-0.62,1.29-0.62,2.24
		c0,0.93,0.21,1.66,0.62,2.19s0.99,0.79,1.72,0.79S49.8,7.29,50.21,6.76z"/>
	<path d="M55.67,8.85h-0.84h-0.84V0.23h0.94h0.94l3.46,6.05V0.23h0.84h0.84v8.61h-0.9h-0.9l-3.55-6.21V8.85z"/>
	<path d="M66.45,9.08c-1.25,0-2.25-0.4-2.99-1.21s-1.1-1.9-1.1-3.28c0-1.41,0.38-2.52,1.15-3.35S65.3,0,66.61,0
		c1.05,0,1.91,0.26,2.59,0.79s1.07,1.23,1.19,2.12h-1.8c-0.05-0.38-0.26-0.7-0.63-0.99c-0.38-0.28-0.79-0.42-1.24-0.42
		c-0.78,0-1.39,0.27-1.84,0.81c-0.44,0.54-0.66,1.29-0.66,2.25c0,0.98,0.21,1.72,0.64,2.23s1.04,0.76,1.86,0.76H66.7
		c0.7,0,1.24-0.27,1.63-0.8c0.21-0.3,0.37-0.65,0.47-1.06V5.68h-2.03V4.2h3.61v4.65h-1.2l-0.18-1.11L68.9,7.87
		C68.29,8.68,67.47,9.08,66.45,9.08L66.45,9.08z"/>
	<path d="M72.01,0.23h0.9h0.9v3.23h3.37V0.23h0.9h0.9v8.61h-0.9h-0.9v-3.9h-3.37v3.9h-0.9h-0.9V0.23z"/>
	<path d="M87.64,5.6c0,1.23-0.27,2.12-0.81,2.66s-1.43,0.82-2.66,0.82c-1.18,0-2.05-0.28-2.62-0.85s-0.85-1.44-0.86-2.63V0.23h0.9
		h0.9v5.43c0,0.62,0.14,1.08,0.42,1.39s0.7,0.46,1.26,0.46c0.6,0,1.03-0.14,1.29-0.42s0.39-0.76,0.39-1.43V0.23h0.9h0.9V5.6z"/>
	<path d="M89.41,0.23h0.9h3.45c0.82,0,1.48,0.22,1.98,0.66s0.75,1.02,0.75,1.74c0,0.83-0.28,1.43-0.84,1.82
		c-0.15,0.1-0.32,0.19-0.5,0.26c0.11,0.04,0.2,0.09,0.29,0.14c0.49,0.29,0.75,0.79,0.77,1.48l0.04,1.41
		c0.01,0.28,0.04,0.48,0.09,0.6s0.15,0.21,0.29,0.28v0.23h-1.99c-0.05-0.09-0.09-0.28-0.12-0.58s-0.05-0.61-0.06-0.95l-0.01-0.8
		c-0.01-0.39-0.12-0.66-0.34-0.83S93.51,5.44,93,5.44h-1.79v3.4h-0.9h-0.9V0.23z M91.21,4h2.09c0.46,0,0.81-0.09,1.05-0.28
		s0.35-0.48,0.35-0.86c0-0.38-0.11-0.66-0.33-0.85s-0.55-0.28-0.99-0.28h-2.16V4z"/>
	<path d="M102.74,2.82c-0.03-0.41-0.21-0.74-0.54-0.98s-0.76-0.36-1.28-0.36c-0.46,0-0.81,0.1-1.07,0.3
		c-0.26,0.2-0.39,0.48-0.39,0.84c0,0.26,0.13,0.46,0.4,0.6c0.27,0.14,0.83,0.31,1.69,0.5c1.25,0.28,2.09,0.61,2.51,0.97
		c0.42,0.36,0.63,0.95,0.63,1.75c0,0.81-0.32,1.45-0.96,1.92s-1.5,0.71-2.58,0.71c-1.09,0-1.94-0.25-2.55-0.76s-0.94-1.22-0.98-2.15
		h1.73c0.02,0.46,0.19,0.81,0.5,1.05c0.31,0.25,0.75,0.37,1.31,0.37c0.57,0,1.02-0.09,1.34-0.28c0.32-0.19,0.48-0.44,0.48-0.77
		c0-0.32-0.12-0.56-0.35-0.71c-0.23-0.15-0.71-0.31-1.45-0.47c-1.37-0.3-2.28-0.63-2.74-0.99c-0.46-0.35-0.69-0.9-0.69-1.65
		c0-0.84,0.3-1.5,0.91-1.99S100.1,0,101.13,0c0.96,0,1.75,0.25,2.35,0.76s0.94,1.19,1.01,2.06H102.74z"/>
	<path d="M107.94,1.76h-2.6V1V0.23h7V1v0.77h-2.6v7.08h-0.9h-0.9V1.76z"/>
</g>
</svg>
