<svg xmlns="http://www.w3.org/2000/svg" viewBox="0 0 529.691 301.815"><path d="M16.16 17.607c.148-1.774 1.902-1.748 2.024-.368.732 8.227 12.024 14.847 32.025 14.847 40.061 0 55.276-20.061 91.073-20.061 14.455 0 31.844 2.962 36.877 16.134.352.921.485 1.91.372 2.89-2.013 17.453-13.802 73.064-14.519 86.497-6.366-9.965-12.742-13.16-22.055-13.16-21.411 0-43.037 22.117-89.355 22.117-18.643 0-45.041-3.16-52.083-12.76a2.633 2.633 0 0 1-.499-1.89C2.266 94.11 15.546 24.978 16.16 17.608z"/><path fill="#FFF" d="M35.424 86.503c1.055-3.436 2.76-13.865 3.067-17.24 6.442.92 19.693.614 25.276 0-.736 3.375-2.826 12.677-3.129 17.547-4.785.62-19.018.368-25.214-.307zm21.963 19.448c4.846.061 20.025-1.99 27.878-4.138.803-6.264 2.797-15.249 3.097-18.787-4.717 1.023-19.932 4.704-27.355 4.458-1.043 4.479-2.639 14.172-3.62 18.467zm32.515-24.908c5.399-1.78 19.264-6.197 27.73-8.405.49-4.663 3.374-14.233 3.313-18.16-7.116 1.166-19.57 5.583-27.853 7.976-.675 4.724-2.454 14.846-3.19 18.589zM64.572 68.07c11.036-1.322 21.526-4.696 28.32-6.376.507-4.762 2.654-16.111 3.268-19.117-6.258 3.128-19.019 6.012-28.098 7.607-.737 4.049-2.393 13.252-3.49 17.886zM19.35 63.804c4.356 2.147 12.454 4.294 18.698 4.638.382-4.516 2.468-13.534 2.774-17.276-5.398.245-15.092-2.761-18.895-4.05-.368 3.865-1.718 12.148-2.577 16.688zm-6.564 36.687c4.662 2.208 13.68 3.895 18.589 4.417.429-4.663 2.937-12.907 2.883-17.485-3.865-.259-14.172-2.27-18.098-4.417-.92 5.399-2.577 13.374-3.374 17.485zm15.89 22.944c4.785.798 18.772 1.657 24.539 1.595 1.043-5.153 2.822-14.171 3.129-18.036-5.706 0-18.834-.307-24.785-1.042-.307 3.802-1.88 12.863-2.884 17.483zm57.177-20.859c-.675 4.479-2.298 13.52-3.374 19.08 5.883-1.288 20.122-6.196 26.441-9.14.553-4.909 2.823-14.909 3.252-18.467-4.417 1.718-19.939 6.932-26.319 8.527zm31.718-28.956c-.798 4.11-2.945 14.723-3.743 18.65 6.32-1.534 19.019-6.074 24.356-6.81 1.043-4.97 2.3-11.927 2.884-16.871-4.786.43-14.663 2.024-23.497 5.03zm4.6-21.105c3.805-.675 17.792-3.067 24.663-2.638 1.651-3.986 3.252-12.975 3.655-17.376-5.495-.906-17.95.628-24.207 1.732-1.35 4.11-2.638 14.54-4.11 18.282zm-21.165-30.368c-.981 5.546-1.963 12.27-3.374 18.528 5.951-2.025 22.515-6.81 28.098-7.423.736-5.645 3.129-13.865 3.62-18.528-4.97-.307-22.025 5.03-28.344 7.423zM41.926 50.43c6.565-.061 19.203-.306 26.013-1.472 1.165-4.417 2.392-13.436 2.76-17.252-4.662.872-19.938 1.547-25.828 1.67-.429 3.68-1.717 10.674-2.944 17.054zm110.062-18.957c5.797.614 12.116 2.332 16.196 5.43.92-4.11 2.209-10.307 3.681-14.878-2.392-3.65-12.116-6.135-16.196-7.055-1.067 3.606-3.006 12.056-3.681 16.503zm13.62 23.006c3.128 2.546 5.122 6.442 6.41 8.957.675-3.558 2.056-10.17 2.056-13.251 0-5.184-3.221-10.215-5.276-10.614-.583 3.375-2.577 11.565-3.19 14.908zm-22.516 12.086c3.252.184 13.252 2.7 17.24 6.442 1.963-4.97 4.441-14.054 4.171-17.853-1.902-2.086-8.711-5.398-17.3-4.417-.246 2.822-2.332 12.577-4.11 15.828zM1.436 112.27c1.538 2.437 5.037 4.724 8.169 5.89.543-6.32 2.138-13.252 2.138-17.73-2.454-.062-5.89-3.007-7.485-5.093-.72 4.806-1.84 12.884-2.822 16.933zm6.258-38.16c.454 2.476 3.067 5.522 7.252 6.985 1.03-4.776 2.563-12.653 2.932-16.187-2.025-1.105-5.4-3.804-6.994-6.258-.798 4.11-2.08 11.223-3.19 15.46zm6.38-37.423c1.104 2.883 4.05 6.564 7.362 7.853.797-4.295 2.454-12.835 3.129-16.442-3.19-1.166-5.828-3.926-7.3-6.319-.123 3.62-2.21 11.84-3.191 14.908z"/><path d="M529.691 142.726l-10.171-8.356c-6.035-4.958-15.998-11.548-32.784-11.548-15.51 0-25.172 6.022-30.546 11.074a35.982 35.982 0 0 0-1.847 1.868 32.78 32.78 0 0 0-.516-.511c-3.624-3.51-8.066-6.196-13.204-7.98-4.985-1.733-10.656-2.61-16.857-2.61h-6.035l-5.218-7.183-10.687-14.708 17.142-15.434 28.505-25.666H345.183l-.019.105a69.068 69.068 0 0 0-1.093-.23c-4.03-.815-8.374-1.302-11.623-1.302-11.833 0-22.78 3.661-30.974 10.332l-2.076-8.992-11.8.087-18.664.138-8.544.063-4.185 7.45-2.986 5.318c-1.708-2.38-3.803-4.492-6.257-6.305-5.904-4.36-13.415-6.664-21.723-6.664h-81.631l-2.145 12.167-2.15 12.193-3.048 17.28h12.023l-3.573 20.266-3.047 17.28H197.408c-3.578 5.645-5.543 12.208-5.543 18.896 0 5.183 1.071 9.984 3.148 14.259l-.026.034-10.692 13.684-7.122 9.115 7.17 9.077c8.391 10.621 23.889 17.757 38.565 17.757 11.394 0 22.098-3.248 30.141-9.146l.092-.067-1.3 7.373h81.699l4.205-7.586 2.732-4.93h5.06l.255 1.104 2.634 11.412h114.251c4.35 1.194 8.844 1.84 13.262 1.84 11.393 0 22.098-3.248 30.14-9.146 9.84-7.215 15.258-17.868 15.258-29.995 0-7.174-2.168-13.708-6.326-19.207l7.511-11.566 7.17-11.04z"/><path fill="#FFF" d="M155.963 76.396h38.632l-1.775 12.193h-11.695l-6.62 37.546h-15.29l6.62-37.546h-12.022l2.15-12.193zm185.11 49.106l2.532-14.363c-3.151 2.112-7.814 3.125-14.286 3.125-1.76 0-11.963 0-11.963-11.871 0-11.228 9.478-14.264 14.908-14.264 5 0 11.625 2.914 14.48 5.207l2.57-14.573c-3.599-2.367-12.545-3.794-16.866-3.794-18.007 0-31.013 11.043-31.013 26.975 0 16.46 9.939 25.387 26.32 25.387 3.36 0 13.317-1.829 13.317-1.829zm7.694.633h15.758l3.529-20.01 14.644 20.01H400.6l-17.903-24.642v-1.31l26.418-23.788h-19.954L370.04 94.862l3.256-18.466h-15.758l-8.77 49.739zm-49.577 0h-15.332l-2.362-9.11h-18.343l-5.521 9.11h-33.528s-6.043-12.025-9.972-16.591l-2.925 16.59h-15.33l8.77-49.739h20.592c10.061 0 18.405 5.26 18.405 14.494 0 5.13-3.374 13.712-14.333 16.266l-.023.828c1.35 1.035 12.454 17.16 12.454 17.16l27.3-48.61 18.664-.138 11.484 49.74zm-71.006-34.11c0-3.13-2.638-5.277-7.791-5.277h-2.241l-2.077 11.78h3.275c5.644 0 8.834-2.087 8.834-6.504zm50.994 13.128l-2.957-13.367-6.9 13.367h9.857zM206.589 183.112c4.3 3.253 9.877 8.483 17.73 8.483 4.348 0 7.791-2.016 7.791-5.46 0-9.203-25.521-6.32-25.521-26.38 0-10.737 8.711-22.21 27.116-22.21 11.35 0 18.16 3.866 23.438 8.202l-9.056 13.945c-4.95-3.65-9.658-6.318-12.91-6.318-4.535 0-7.484 2.557-7.484 4.663 0 7.239 25.89 7.361 25.89 26.503 0 15.766-14.418 24.417-30.675 24.417-10.737 0-21.718-5.46-27.01-12.16l10.69-13.685zm242.339 13.684c5.292 6.7 16.274 12.16 27.01 12.16 16.257 0 30.675-8.65 30.675-24.416 0-19.142-25.89-19.264-25.89-26.503 0-2.106 2.95-4.663 7.485-4.663 3.251 0 7.96 2.668 12.91 6.318l9.055-13.945c-5.278-4.336-12.088-8.201-23.437-8.201-18.405 0-27.117 11.472-27.117 22.208 0 20.061 25.522 17.178 25.522 26.38 0 3.445-3.444 5.46-7.792 5.46-7.853 0-13.429-5.23-17.73-8.482l-10.692 13.684zm-186.965-40.845h16.446l-9.021 51.165h21.074l9.021-51.165h16.064l2.92-16.565h-53.473l-3.031 16.565zm167.202 25.628c5.399 6.948 17.546 25.537 17.546 25.537h-24.207s-9.044-17.3-13.493-23.751l-4.188 23.751h-20.8l11.943-67.73h27.8c19.141 0 25.276 10.552 25.276 19.878 0 14.846-12.392 19.754-19.877 21.717v.598zm-1.104-20.855c0-4.037-2.93-7.227-9.31-7.227h-4.474l-2.834 16.073h6.066c7.484 0 10.552-3.067 10.552-8.846zm-46.915 46.392h-21.008l-2.89-12.515h-25.444l-6.938 12.515h-23.012l37.543-67.73h26.112l15.637 67.73zm-19.71-39.202l-9.203-.552-2.025-9.141-4.104 9.14-9.94.563 7.212 5.8-4.533 8.776 8.973-5.077 7.3 5.521-1.595-9.325 7.914-5.705z"/><path d="M259.656 36.135c39.534 0 133.62-23.374 175.399-23.006 27.8.245 42.998 14.037 43.006 32.266.008 18.9-16.503 39.329-35.092 54.053 23.387-25.391 25.95-44.908 8.834-60.736-7.629-7.055-21.885-7.547-40.306-7.547-44.908 0-116.135 14.97-163.964 14.97-24.686 0-67.386-4.663-29.288-46.135-10.306 27.116 10.123 36.135 41.411 36.135zM177.94 165.337c-21.718 14.724-49.141 42.7-49.141 67.546 0 16.38 13.435 40.061 57.248 40.061 60.74 0 184.02-27.068 245.88-27.914 35.89-.49 78.22 8.221 58.896 44.724 13.251-10.583 21.533-22.914 21.533-33.436 0-14.877-16.074-24.171-68.282-24.171-58.211 0-154.6 18.773-238.159 18.773-49.51 0-56.135-25.583-56.135-37.362 0-19.141 16.749-37.546 28.16-48.22zm21.548 121.607c-1.083-.445-2.162-.696-3.39-.67-2.068.045-4.292.99-5.938 2.508-1.589 1.478-2.62 3.432-2.89 5.448-.304 2.192.166 4.095 1.582 5.528 1.336 1.357 3.186 2.099 5.235 2.055 1.19-.025 2.14-.338 3.457-.757l.644-4.6c-.936.977-2.269 1.61-3.517 1.637-2.38.05-3.742-1.599-3.44-3.928.322-2.29 2.137-4.124 4.477-4.174 1.307-.028 2.509.512 3.136 1.553l.644-4.6zm19.247-2.192c-4.22.342-8.342 3.808-8.682 8.299-.374 4.806 2.776 7.917 7.481 7.535 4.706-.382 8.363-4.046 8.736-8.852.34-4.49-3.316-7.325-7.535-6.982zm-.284 3.741c2.276-.184 4 1.535 3.854 3.583-.204 2.56-2.212 4.583-4.487 4.768-2.275.185-4-1.535-3.797-4.096.147-2.048 2.155-4.07 4.43-4.255zm23.787-5.677l-3.8.437-.625 14.88 8.355-.96.133-3.276-4.555.524.492-11.605zm19.716-2.501l-3.79.504-.362 14.887 8.335-1.109.075-3.277-4.544.605.286-11.61zm24.256-.154l.04-3.278-8.284 1.196-.198 14.89 8.284-1.194.04-3.278-4.5.649.044-2.569 4.268-.616.04-3.278-4.268.616.035-2.489 4.5-.649zm23.12-6.361c-1.13-.304-2.232-.416-3.448-.234-2.045.306-4.131 1.526-5.57 3.24-1.389 1.668-2.164 3.737-2.175 5.77-.024 2.213.683 4.04 2.27 5.282 1.497 1.176 3.426 1.677 5.452 1.374 1.177-.176 2.08-.607 3.333-1.19l.055-4.643c-.804 1.087-2.046 1.884-3.28 2.069-2.354.352-3.914-1.11-3.91-3.459.028-2.312 1.596-4.361 3.91-4.708 1.293-.193 2.554.19 3.308 1.143l.055-4.644zm18.514.156l3.127-.464.026-3.278-10.036 1.49-.026 3.278 3.127-.464-.11 11.614 3.782-.562.11-11.614zm22.607 5.763l.895 2.456 4.039-.567-5.23-14.121-4.135.58-5.86 15.675 4.018-.563 1.056-2.729 5.217-.73zm-.967-2.82l-3.15.442 1.65-4.96.039-.005 1.461 4.523zm23.314 2.484c2.673-.324 5.32-1.667 5.433-4.785.083-2.074-.766-3.405-2.833-3.43l-.004-.038c1.205-.756 1.676-1.894 1.71-3.234.107-2.843-1.603-3.658-4.198-3.343l-5.422.658-.535 14.881 5.849-.709zm-1.836-5.908l.387-.047c1.24-.15 3.136-.557 3.059 1.24-.057 1.638-1.943 1.808-3.066 1.944l-.484.059.104-3.196zm.224-5.766l.272-.032c1.026-.125 2.197-.188 2.146 1.174-.043 1.263-1.087 1.566-2.094 1.688l-.426.052.102-2.882zm24.036-5.494l-3.808.352-.96 14.861 8.373-.772.207-3.272-4.565.422.753-11.59zm24.841 1.671l.354-3.26-8.361.396-1.625 14.805 8.361-.395.354-3.26-4.541.215.29-2.553 4.307-.203.353-3.26-4.307.204.274-2.474 4.541-.215zm23.642-2.1c-1.163-.783-2.881-1.313-4.363-1.366-2.944-.105-5.45 1.758-6.025 4.724-.57 2.83.89 3.506 3.166 4.27.772.263 2.201.684 1.987 1.75-.192 1.028-1.242 1.44-2.139 1.407-1.306-.046-2.295-.765-3.104-1.633l-2.235 3.004c1.308 1.101 3.001 1.786 4.853 1.852 1.482.054 3.095-.299 4.436-1.227 1.362-.947 2-2.427 2.286-3.881.475-2.365-.911-3.448-2.84-4.122l-.924-.326c-.617-.237-1.58-.603-1.412-1.456.146-.815 1.174-1.188 1.876-1.163.936.033 1.74.452 2.344 1.06l2.094-2.893z"/></svg>