<?xml version="1.0" encoding="utf-8"?>
<!-- Generator: Adobe Illustrator 22.0.1, SVG Export Plug-In . SVG Version: 6.00 Build 0)  -->
<svg version="1.1" id="Layer_1" xmlns="http://www.w3.org/2000/svg" xmlns:xlink="http://www.w3.org/1999/xlink" x="0px" y="0px"
	 viewBox="0 0 500.4704 285.1651" enable-background="new 0 0 500.4704 285.1651" xml:space="preserve">
<path d="M147.3587,72.1811h36.5014l-1.6772,11.5206h-11.0497l-6.2551,35.4747h-14.4465l6.2551-35.4747h-11.3593L147.3587,72.1811z
	 M322.2567,118.5788l2.393-13.5712c-2.9774,1.9961-7.383,2.9525-13.4981,2.9525c-1.6635,0-11.3032,0-11.3032-11.2163
	c0-10.6078,8.9554-13.4769,14.0855-13.4769c4.724,0,10.9844,2.7533,13.6816,4.9205l2.4279-13.7696
	c-3.3998-2.2368-11.8522-3.5845-15.9357-3.5845c-17.013,0-29.3014,10.4335-29.3014,25.4863c0,15.5528,9.3902,23.987,24.8671,23.987
	C312.8488,120.3067,322.2567,118.5788,322.2567,118.5788z M329.5271,119.1764h14.8888l3.3337-18.9064l13.8362,18.9064h16.9154
	l-16.9154-23.282v-1.2385l24.9608-22.4748h-18.8533L349.626,89.6284l3.0764-17.4473h-14.8888L329.5271,119.1764z M282.6845,119.1764
	h-14.4853l-2.2317-8.6078h-17.3314l-5.2169,8.6078h-31.6781c0,0-5.7094-11.3612-9.4217-15.6756l-2.764,15.6756h-14.484
	l8.2865-46.9953h19.4555c9.5061,0,17.3897,4.9702,17.3897,13.6943c0,4.8474-3.1881,12.9552-13.5421,15.368l-0.0217,0.7825
	c1.2752,0.9782,11.767,16.2142,11.767,16.2142l25.7944-45.9286l17.634-0.1304L282.6845,119.1764z M215.596,86.9477
	c0-2.9566-2.4929-4.985-7.3616-4.985h-2.1172l-1.9624,11.1293h3.0942C212.5815,93.0921,215.596,91.1209,215.596,86.9477z
	 M263.7766,99.3523l-2.7939-12.6301l-6.5189,12.6301H263.7766z M195.1923,173.01c4.0638,3.0737,9.332,8.0152,16.7519,8.0152
	c4.1083,0,7.3616-1.9045,7.3616-5.1589c0-8.6951-24.1135-5.9708-24.1135-24.925c0-10.1443,8.2307-20.9834,25.6206-20.9834
	c10.7232,0,17.1577,3.6518,22.1447,7.7487l-8.5562,13.1754c-4.677-3.4483-9.1255-5.9691-12.1973-5.9691
	c-4.2851,0-7.0717,2.4162-7.0717,4.4053c0,6.8397,24.4613,6.9555,24.4613,25.041c0,14.8967-13.6222,23.0701-28.9826,23.0701
	c-10.1443,0-20.5197-5.1589-25.5206-11.4895L195.1923,173.01z M424.162,185.9398c5.0009,6.3306,15.3763,11.4895,25.5206,11.4895
	c15.3604,0,28.9826-8.1734,28.9826-23.0701c0-18.0855-24.4613-18.2012-24.4613-25.041c0-1.9891,2.7866-4.4053,7.0717-4.4053
	c3.0718,0,7.5203,2.5207,12.1973,5.9691l8.5562-13.1754c-4.987-4.0969-11.4215-7.7487-22.1447-7.7487
	c-17.3899,0-25.6206,10.8391-25.6206,20.9834c0,18.9543,24.1135,16.2299,24.1135,24.925c0,3.2544-3.2533,5.1589-7.3616,5.1589
	c-7.4199,0-12.6882-4.9415-16.752-8.0152L424.162,185.9398z M247.5116,147.3474h15.5391l-8.5242,48.343h19.9115l8.5242-48.343
	h15.1771l2.7596-15.6506h-50.5238L247.5116,147.3474z M405.4899,171.5624c5.101,6.5646,16.578,24.128,16.578,24.128h-22.8715
	c0,0-8.5457-16.3462-12.7491-22.4412l-3.957,22.4412h-19.6519l11.2838-63.9935h26.2665c18.0851,0,23.8818,9.9698,23.8818,18.7807
	c0,14.0272-11.709,18.6648-18.7807,20.5197V171.5624z M404.4465,151.8576c0-3.8148-2.7681-6.8288-8.7963-6.8288h-4.2268
	l-2.6779,15.1869c0,0,5.1676,0,5.7309,0C401.5481,160.2157,404.4465,157.3173,404.4465,151.8576z M360.1198,195.6904h-19.8492
	l-2.73-11.8249h-24.0412l-6.5546,11.8249h-21.7429l35.4722-63.9935h24.6715L360.1198,195.6904z M341.4964,158.6507l-8.6948-0.5217
	l-1.9128-8.6368l-3.878,8.6368l-9.3908,0.5312l6.8134,5.4801l-4.2826,8.2916l8.4774-4.7966l6.8979,5.2169l-1.5071-8.8107
	L341.4964,158.6507z"/>
</svg>
