<svg xmlns="http://www.w3.org/2000/svg" viewBox="0 0 507.667 289.266"><path d="M218.696 88.198c0 4.233-3.058 6.233-8.467 6.233h-3.139l1.991-11.29h2.148c4.938 0 7.467 2.058 7.467 5.057zm46.04-.229l-6.613 12.812h9.447l-2.834-12.812zm136.604 59.145h-4.288l-2.716 15.405h5.813c7.173 0 10.113-2.94 10.113-8.478 0-3.87-2.808-6.927-8.922-6.927zm-65.693 4.528l-3.934 8.76-9.526.54 6.911 5.558-4.344 8.411 8.6-4.865 6.997 5.292-1.53-8.938 7.586-5.468-8.82-.53-1.94-8.76zm165.149-4.27l-7.2 11.086c3.986 5.27 6.064 11.533 6.064 18.409 0 11.622-5.194 21.832-14.623 28.747-7.709 5.653-17.968 8.766-28.888 8.766-4.235 0-8.54-.62-12.71-1.764H333.938l-2.525-10.937-.244-1.058h-4.85l-2.618 4.725-4.03 7.27H241.369l1.246-7.067-.088.065c-7.708 5.653-17.968 8.766-28.888 8.766-14.066 0-28.92-6.84-36.96-17.019l-6.873-8.7 6.826-8.735 10.247-13.116.025-.033c-1.99-4.096-3.017-8.698-3.017-13.665 0-6.41 1.883-12.7 5.312-18.11h-53.423l2.92-16.562 3.15-17.856c-1.803-.372-3.722-.538-5.792-.538-20.52 0-41.247 21.197-85.64 21.197-17.868 0-43.168-3.029-49.917-12.23a2.523 2.523 0 0 1-.478-1.81c2.152-17.007 14.88-83.264 15.469-90.328.142-1.7 1.823-1.676 1.94-.353.701 7.885 11.525 14.23 30.693 14.23 38.396 0 52.978-19.227 87.287-19.227 13.854 0 30.52 2.839 35.343 15.463.338.883.465 1.831.357 2.77-.708 6.133-2.674 17.18-4.916 29.35h49.682c7.962 0 15.16 2.208 20.819 6.387 2.352 1.737 4.36 3.76 5.997 6.042l2.862-5.096 4.01-7.14 8.19-.061 17.887-.132 11.31-.084 1.99 8.618c7.852-6.393 18.344-9.902 29.685-9.902 3.114 0 7.279.467 11.14 1.247.355.072.704.146 1.048.221l.018-.1h98.037l-27.32 24.598-16.428 14.793 10.241 14.096 5.002 6.884h5.784c5.943 0 11.378.841 16.156 2.501 4.924 1.711 9.182 4.284 12.655 7.649.167.161.332.325.495.49a34.542 34.542 0 0 1 1.77-1.79c5.15-4.842 14.41-10.614 29.275-10.614 16.088 0 25.638 6.316 31.421 11.068l9.749 8.008-6.871 10.582zM157.663 52.86c-1.822-2-8.35-5.174-16.581-4.234-.157 1.808-1.102 6.582-2.221 10.481h18.043c.542-2.51.863-4.786.76-6.247zm9.173-4.763c0-4.968-3.087-9.79-5.057-10.172-.558 3.234-2.47 11.084-3.057 14.288 2.362 1.923 4.047 4.646 5.26 6.895h1.21c.684-3.527 1.644-8.494 1.644-11.01zm-21.168-17.933c5.557.588 11.613 2.234 15.523 5.203.882-3.94 2.117-9.878 3.528-14.258-2.293-3.499-11.613-5.88-15.523-6.762-1.022 3.456-2.881 11.554-3.528 15.817zm-24.636 2.646c-1.294 3.94-2.529 13.935-3.94 17.522 3.646-.647 17.052-2.94 23.637-2.529 1.582-3.82 3.116-12.436 3.503-16.653-5.267-.869-17.203.601-23.2 1.66zm-27.46 6.173c5.704-1.94 21.58-6.526 26.93-7.114.706-5.41 3-13.289 3.47-17.757-4.763-.294-21.11 4.821-27.166 7.114-.94 5.316-1.881 11.76-3.233 17.758zm-4.35 20.874c-.647 4.528-2.352 14.23-3.058 17.816 5.174-1.705 18.463-5.938 26.577-8.055.47-4.469 3.233-13.642 3.175-17.405-6.82 1.117-18.757 5.35-26.694 7.644zm2.94-19.05c-5.998 2.998-18.228 5.761-26.93 7.29-.706 3.881-2.293 12.7-3.345 17.143 10.577-1.267 20.632-4.5 27.143-6.111.486-4.564 2.543-15.441 3.132-18.323zm-51.979 7.526c6.292-.06 18.404-.294 24.931-1.412 1.117-4.233 2.293-12.877 2.646-16.535-4.469.836-19.11 1.483-24.754 1.6-.412 3.528-1.647 10.232-2.823 16.347zm-3.292 18.05c-.294 3.235-1.928 13.23-2.94 16.523 5.939.647 19.58.889 24.166.294.29-4.667 2.293-13.582 2.999-16.816-5.35.588-18.051.882-24.225 0zM21.015 45.158c-.353 3.705-1.646 11.643-2.47 15.994 4.175 2.058 11.937 4.115 17.921 4.445.366-4.328 2.365-12.971 2.66-16.558-5.175.235-14.465-2.646-18.111-3.88zm-7.526-9.995c1.058 2.763 3.88 6.291 7.056 7.526.764-4.116 2.351-12.302 2.998-15.758-3.057-1.117-5.586-3.763-6.997-6.056-.117 3.469-2.116 11.348-3.057 14.288zM7.374 71.029c.435 2.373 2.94 5.292 6.95 6.695.988-4.578 2.458-12.128 2.81-15.515-1.94-1.058-5.174-3.646-6.703-5.997-.764 3.939-1.994 10.755-3.057 14.817zm3.88 25.225c-2.351-.06-5.644-2.882-7.173-4.88-.69 4.606-1.764 12.347-2.705 16.228 1.475 2.336 4.828 4.527 7.83 5.645.52-6.057 2.049-12.701 2.049-16.993zm1 .058c4.469 2.117 13.112 3.734 17.816 4.234.412-4.469 2.815-12.37 2.764-16.758-3.705-.248-13.583-2.175-17.346-4.233-.882 5.174-2.47 12.818-3.234 16.757zm41.747 6.233c-5.468 0-18.051-.294-23.755-.998-.294 3.644-1.802 12.328-2.763 16.756 4.586.764 17.992 1.588 23.52 1.529.999-4.94 2.704-13.583 2.998-17.287zm1-1c4.645.06 19.192-1.907 26.718-3.965.77-6.004 2.681-14.615 2.97-18.006-4.522.98-19.104 4.508-26.22 4.273-.999 4.292-2.528 13.582-3.468 17.698zm52.507-11.407c-4.234 1.647-19.11 6.645-25.225 8.173-.646 4.293-2.202 12.958-3.234 18.287 5.64-1.235 19.286-5.939 25.343-8.761.529-4.704 2.704-14.288 3.116-17.699zm1.588-1.705c6.056-1.47 18.227-5.82 23.343-6.527 1-4.762 2.203-11.43 2.763-16.17-4.586.412-14.053 1.941-22.52 4.822-.764 3.94-2.822 14.112-3.587 17.875zm77.408-15.214h-37.026l-2.06 11.686h11.522l-6.345 35.985h14.654l6.345-35.985h11.209l1.7-11.686zm102.398 24.486c0 15.776 9.525 24.332 25.225 24.332 3.22 0 12.764-1.753 12.764-1.753l2.427-13.766c-3.02 2.024-7.49 2.995-13.692 2.995-1.688 0-11.466 0-11.466-11.378 0-10.76 9.084-13.67 14.288-13.67 4.792 0 11.142 2.792 13.879 4.99l2.462-13.967c-3.448-2.269-12.022-3.636-16.164-3.636-17.258 0-29.723 10.584-29.723 25.853zm-70.676 53.76c0-2.017 2.826-4.468 7.173-4.468 3.116 0 7.629 2.557 12.373 6.055l8.68-13.365c-5.06-4.156-11.586-7.86-22.464-7.86-17.64 0-25.989 10.995-25.989 21.285 0 19.227 24.46 16.463 24.46 25.283 0 3.301-3.3 5.233-7.467 5.233-7.527 0-12.87-5.012-16.993-8.13l-10.247 13.116c5.073 6.421 15.598 11.654 25.888 11.654 15.581 0 29.399-8.29 29.399-23.402 0-18.345-24.813-18.463-24.813-25.4zm28.694-30.575l5.292-8.731h17.58l2.264 8.731h14.694l-11.006-47.67-17.888.131-26.165 46.59s-10.643-15.456-11.936-16.448l.022-.794c10.503-2.447 13.737-10.672 13.737-15.589 0-8.85-7.997-13.891-17.64-13.891h-19.736l-8.405 47.671h14.692l2.804-15.9c3.765 4.375 9.557 15.9 9.557 15.9h32.134zm55.506 28.576l2.8-15.875h-51.25l-2.905 15.875h15.762l-8.647 49.038h20.198l8.647-49.038h15.395zm62.872 49.038l-14.986-64.913h-25.027l-35.982 64.913h22.056l6.648-11.994h24.387l2.77 11.994h20.134zm18.646-77.614l-17.159-23.617v-1.256l25.32-22.798H372.98l-18.328 17.698 3.121-17.698h-15.103l-8.406 47.671h15.103l3.382-19.178 14.035 19.178h17.159zm44.193 77.614s-11.642-17.816-16.816-24.474v-.574c7.173-1.881 19.05-6.586 19.05-20.814 0-8.938-5.88-19.051-24.225-19.051h-26.644l-11.446 64.913h19.934l4.014-22.763c4.264 6.182 12.933 22.763 12.933 22.763h23.2zm32.598-47.039c0-2.017 2.827-4.468 7.173-4.468 3.116 0 7.629 2.557 12.373 6.055l8.68-13.365c-5.06-4.156-11.586-7.86-22.464-7.86-17.64 0-25.989 10.995-25.989 21.285 0 19.227 24.46 16.463 24.46 25.283 0 3.301-3.3 5.233-7.467 5.233-7.526 0-12.87-5.012-16.993-8.13l-10.247 13.116c5.073 6.421 15.598 11.654 25.888 11.654 15.581 0 29.399-8.29 29.399-23.402 0-18.345-24.813-18.463-24.813-25.4zM209.171 0c-36.514 39.748 4.41 44.217 28.07 44.217 45.84 0 114.105-14.347 157.146-14.347 17.655 0 31.319.47 38.63 7.232 16.405 15.17 13.949 33.875-8.467 58.21 17.816-14.111 33.641-33.691 33.633-51.804-.007-17.472-14.573-30.69-41.218-30.925-40.041-.353-130.215 22.05-168.105 22.05-29.988 0-49.567-8.644-39.69-34.633zm-38.63 158.463c-20.816 14.111-47.099 40.923-47.099 64.737 0 15.7 12.877 38.396 54.868 38.396 58.214 0 176.37-25.943 235.657-26.754 34.397-.47 74.968 7.88 56.446 42.864 12.7-10.142 20.639-21.96 20.639-32.045 0-14.259-15.406-23.167-65.444-23.167-55.79 0-148.172 17.993-228.256 17.993-47.45 0-53.8-24.52-53.8-35.809 0-18.345 16.052-35.985 26.988-46.215zm20.651 116.55c-1.037-.427-2.071-.667-3.25-.641-1.981.042-4.113.948-5.69 2.403-1.523 1.416-2.511 3.29-2.77 5.221-.291 2.101.159 3.925 1.516 5.299 1.281 1.3 3.054 2.01 5.018 1.969 1.14-.024 2.05-.325 3.314-.726l.616-4.408c-.896.936-2.174 1.543-3.37 1.568-2.281.049-3.587-1.532-3.298-3.764.309-2.195 2.048-3.953 4.292-4 1.252-.027 2.404.49 3.005 1.488l.617-4.409zm18.447-2.101c-4.044.328-7.995 3.65-8.321 7.954-.358 4.606 2.66 7.588 7.17 7.222 4.51-.366 8.015-3.878 8.373-8.484.326-4.303-3.178-7.02-7.222-6.692zm-.272 3.586c2.18-.177 3.834 1.471 3.693 3.433-.194 2.455-2.12 4.393-4.3 4.57-2.18.177-3.834-1.47-3.639-3.925.141-1.963 2.066-3.901 4.246-4.078zm22.798-5.441l-3.641.419-.6 14.261 8.007-.92.128-3.14-4.365.502.47-11.122zm18.896-2.398l-3.633.484-.346 14.268 7.988-1.063.073-3.14-4.356.579.274-11.128zm23.248-.147l.038-3.141-7.94 1.145-.189 14.272 7.94-1.145.038-3.142-4.313.622.042-2.462 4.09-.59.038-3.142-4.09.59.034-2.385 4.312-.622zm22.158-6.096c-1.084-.292-2.14-.399-3.304-.224-1.96.293-3.96 1.462-5.34 3.105-1.33 1.598-2.072 3.58-2.083 5.53-.024 2.12.654 3.872 2.175 5.062 1.435 1.128 3.284 1.607 5.226 1.317 1.128-.17 1.992-.582 3.194-1.14l.053-4.45c-.77 1.04-1.961 1.805-3.144 1.982-2.256.338-3.752-1.064-3.748-3.315.028-2.216 1.53-4.18 3.749-4.512 1.238-.185 2.447.183 3.17 1.095l.052-4.45zm17.745.15l2.996-.446.025-3.141-9.618 1.427-.025 3.142 2.997-.445-.106 11.131 3.625-.538.106-11.13zm21.666 5.523l.859 2.353 3.87-.543-5.012-13.534-3.963.555-5.617 15.024 3.851-.54 1.012-2.615 5-.7zm-.926-2.703l-3.018.423 1.58-4.753.037-.005 1.4 4.335zm22.344 2.38c2.562-.31 5.099-1.597 5.207-4.586.08-1.987-.734-3.263-2.714-3.287l-.005-.037c1.155-.724 1.607-1.814 1.64-3.1.102-2.724-1.537-3.504-4.024-3.203l-5.197.63-.512 14.263 5.605-.68zm-1.76-5.662l.371-.045c1.188-.144 3.006-.534 2.932 1.189-.054 1.57-1.862 1.732-2.938 1.863l-.464.056.1-3.063zm.216-5.526l.26-.031c.983-.12 2.106-.18 2.057 1.125-.042 1.21-1.042 1.501-2.007 1.618l-.409.05.099-2.762zm23.036-5.265l-3.65.336-.92 14.244 8.025-.74.199-3.136-4.376.404.722-11.108zm23.808 1.6l.34-3.123-8.014.379-1.558 14.19 8.014-.38.34-3.123-4.353.205.277-2.446 4.129-.196.339-3.123-4.129.195.263-2.372 4.352-.205zm22.659-2.012c-1.114-.75-2.761-1.258-4.181-1.309-2.822-.101-5.224 1.684-5.775 4.527-.546 2.712.853 3.36 3.034 4.093.74.251 2.11.656 1.905 1.677-.185.985-1.19 1.38-2.05 1.349-1.252-.045-2.2-.733-2.975-1.566l-2.142 2.88a7.633 7.633 0 0 0 4.651 1.775c1.42.05 2.966-.287 4.252-1.176 1.304-.908 1.916-2.327 2.19-3.72.456-2.266-.873-3.305-2.72-3.951l-.888-.313c-.59-.227-1.513-.577-1.353-1.395.14-.78 1.126-1.139 1.798-1.114.897.032 1.669.433 2.247 1.015l2.007-2.772z"/></svg>