<?xml version="1.0" encoding="utf-8"?>
<!-- Generator: Adobe Illustrator 22.0.1, SVG Export Plug-In . SVG Version: 6.00 Build 0)  -->
<svg version="1.1" id="Layer_1" xmlns="http://www.w3.org/2000/svg" xmlns:xlink="http://www.w3.org/1999/xlink" x="0px" y="0px"
	 viewBox="0 0 500.4704 285.1651" enable-background="new 0 0 500.4704 285.1651" xml:space="preserve">
<path d="M15.2684,16.636c0.1397-1.6762,1.7969-1.652,1.9129-0.3478c0.6909,7.7732,11.3608,14.0276,30.2578,14.0276
	c37.8511,0,52.2264-18.9546,86.0491-18.9546c13.6573,0,30.087,2.7991,34.8424,15.2442c0.3327,0.8708,0.4583,1.8055,0.3515,2.7316
	c-1.9022,16.4894-13.0408,69.0326-13.7176,81.7243c-6.0153-9.4152-12.0394-12.4335-20.8385-12.4335
	c-20.23,0-40.6629,20.8964-84.4263,20.8964c-17.6142,0-42.5561-2.9857-49.2095-12.0565c-0.3779-0.5152-0.5511-1.1505-0.4709-1.7845
	C2.1406,88.9175,14.6881,23.5995,15.2684,16.636z"/>
<path fill="#FFFFFF" d="M33.4695,81.7309c0.9974-3.246,2.6084-13.1001,2.8983-16.2882c6.0863,0.8695,18.6068,0.5797,23.8816,0
	c-0.6956,3.1881-2.67,11.9769-2.9562,16.578C52.7719,82.6068,39.324,82.3685,33.4695,81.7309z M54.221,100.1058
	c4.5793,0.058,18.9203-1.8806,26.3398-3.9094c0.7593-5.9189,2.6428-14.4076,2.9269-17.7508
	c-4.4576,0.9666-18.8329,4.4445-25.8467,4.2126C56.6555,86.8898,55.1484,96.0483,54.221,100.1058z M84.9425,76.572
	c5.1009-1.681,18.2011-5.8545,26.2003-7.9412c0.4637-4.4053,3.1876-13.4479,3.1301-17.1577
	c-6.724,1.1013-18.4909,5.2748-26.3162,7.5355C87.3191,63.4719,85.6381,73.0361,84.9425,76.572z M61.0101,64.3151
	c10.4266-1.249,20.3386-4.4371,26.7581-6.0244c0.4783-4.499,2.5071-15.2226,3.0868-18.0629
	c-5.9124,2.9562-17.9692,5.6806-26.548,7.1877C63.6114,51.2412,62.0463,59.936,61.0101,64.3151z M18.2826,60.2838
	c4.1155,2.0288,11.7669,4.0576,17.6665,4.3826c0.3606-4.2666,2.3314-12.7875,2.6213-16.3234
	c-5.1009,0.2319-14.2594-2.6084-17.8533-3.8257C20.3693,48.1691,19.0941,55.9944,18.2826,60.2838z M12.0803,94.9469
	c4.4054,2.0867,12.9259,3.6808,17.5634,4.1735c0.4058-4.4053,2.7755-12.195,2.7244-16.5201
	c-3.6518-0.2448-13.39-2.1447-17.0997-4.1735C14.3989,83.5278,12.8339,91.0633,12.0803,94.9469z M27.0933,116.6259
	c4.5213,0.7535,17.7373,1.5651,23.1861,1.5071c0.9854-4.8691,2.6664-13.3899,2.9562-17.0418
	c-5.3908,0-17.7953-0.2898-23.4179-0.9841C29.5278,103.6997,28.0411,112.2606,27.0933,116.6259z M81.1168,96.9178
	c-0.6376,4.2315-2.1708,12.7737-3.1881,18.0272c5.5589-1.2173,19.0126-5.8545,24.983-8.6368
	c0.5217-4.6372,2.6664-14.0855,3.0722-17.4475C101.8104,90.4836,87.1452,95.4107,81.1168,96.9178z M111.0848,69.5582
	c-0.7535,3.8837-2.7823,13.9116-3.5359,17.6214c5.9704-1.4491,17.9692-5.7386,23.0122-6.4341
	c0.9854-4.6952,2.1721-11.2691,2.7243-15.9404C128.7642,65.2108,119.4318,66.7179,111.0848,69.5582z M115.4322,49.6182
	c3.5938-0.6376,16.8099-2.8983,23.302-2.4925c1.5596-3.7664,3.0722-12.2596,3.4531-16.4175
	c-5.1921-0.8561-16.959,0.593-22.8715,1.6364C118.0406,36.2282,116.8234,46.0823,115.4322,49.6182z M95.4342,20.9254
	c-0.9274,5.2399-1.8549,11.593-3.1881,17.5055c5.6226-1.9128,21.2732-6.4341,26.548-7.0138
	c0.6956-5.3328,2.9562-13.1001,3.4199-17.5055C117.519,13.6218,101.4046,18.6648,95.4342,20.9254z M39.6138,47.6474
	c6.2023-0.058,18.1431-0.2898,24.5772-1.3912c1.1013-4.1735,2.2606-12.6944,2.6084-16.3005
	c-4.4054,0.8238-18.8387,1.4614-24.4033,1.5774C41.9903,35.011,40.7731,41.619,39.6138,47.6474z M143.6033,29.7361
	c5.4775,0.5797,11.4481,2.2027,15.3028,5.1299c0.8695-3.8837,2.0867-9.7381,3.4779-14.0566
	c-2.2607-3.4489-11.4481-5.7965-15.3028-6.666C146.0733,17.5504,144.2409,25.5337,143.6033,29.7361z M156.4715,51.4731
	c2.9562,2.4056,4.8401,6.0863,6.0574,8.4629c0.6376-3.362,1.9418-9.6089,1.9418-12.5205c0.0001-4.8981-3.0432-9.6512-4.985-10.028
	C158.9351,40.5756,157.0512,48.314,156.4715,51.4731z M135.1983,62.8922c3.0722,0.1739,12.5205,2.5505,16.2882,6.0863
	c1.8549-4.6952,4.1968-13.2786,3.9416-16.8679c-1.7969-1.9708-8.231-5.1009-16.3462-4.1735
	C138.8501,50.6036,136.8793,59.82,135.1983,62.8922z M1.3568,106.0763c1.4536,2.3031,4.7592,4.4633,7.7183,5.5657
	c0.5128-5.9715,2.0199-12.5216,2.0199-16.753c-2.3186-0.058-5.5647-2.8403-7.0718-4.8111
	C3.3437,94.6189,2.2842,102.2505,1.3568,106.0763z M7.2692,70.0219c0.4293,2.3394,2.8983,5.2169,6.8523,6.5998
	c0.973-4.513,2.4221-11.9554,2.7699-15.2946c-1.9129-1.0434-5.1009-3.5938-6.608-5.9124
	C9.5299,59.2984,8.3178,66.0182,7.2692,70.0219z M13.2976,34.6632c1.0434,2.7244,3.8257,6.2023,6.9558,7.4195
	c0.7535-4.0576,2.3186-12.127,2.9562-15.5347c-3.0142-1.1013-5.5067-3.7098-6.8979-5.9704
	C16.1959,23.9976,14.225,31.7649,13.2976,34.6632z"/>
</svg>
