<?xml version="1.0" encoding="utf-8"?>
<!-- Generator: Adobe Illustrator 22.0.1, SVG Export Plug-In . SVG Version: 6.00 Build 0)  -->
<svg version="1.1" id="Layer_1" xmlns="http://www.w3.org/2000/svg" xmlns:xlink="http://www.w3.org/1999/xlink" x="0px" y="0px"
	 viewBox="0 0 500.4704 285.1651" enable-background="new 0 0 500.4704 285.1651" xml:space="preserve">
<path d="M187.8739,275.4605c-0.5927-0.9829-1.7283-1.4934-2.9632-1.4673c-2.2116,0.0472-3.9264,1.7801-4.2307,3.9439
	c-0.285,2.2005,1.0021,3.7588,3.2507,3.7109c1.1796-0.0251,2.4391-0.6236,3.3229-1.5461l-0.608,4.346
	c-1.2455,0.3953-2.1426,0.6912-3.267,0.7153c-1.9353,0.0411-3.6834-0.6592-4.9462-1.9414c-1.338-1.3545-1.7819-3.1522-1.4942-5.2233
	c0.2544-1.9047,1.2293-3.751,2.73-5.1476c1.5552-1.4343,3.6566-2.3272,5.6103-2.369c1.1611-0.0248,2.1803,0.2116,3.2033,0.6324
	L187.8739,275.4605z M213.7864,275.6406c-0.3526,4.541-3.8074,8.0022-8.2534,8.3633c-4.4462,0.3607-7.4218-2.5786-7.0691-7.1195
	c0.3215-4.2424,4.2166-7.5176,8.2035-7.8412C210.6541,268.7194,214.1079,271.3981,213.7864,275.6406z M202.2134,276.5983
	c-0.1919,2.42,1.4379,4.0444,3.5874,3.8699c2.1496-0.1743,4.0473-2.0854,4.2392-4.505c0.1389-1.9346-1.491-3.5591-3.6406-3.3848
	C204.2498,272.7529,202.3523,274.6638,202.2134,276.5983z M228.4093,278.179l4.3038-0.4952l-0.1264,3.0948l-7.8934,0.9082
	l0.5908-14.0594l3.5895-0.413L228.4093,278.179z M247.2319,275.8206l4.2937-0.5713l-0.0715,3.0965l-7.875,1.0474l0.3417-14.0658
	l3.5812-0.4765L247.2319,275.8206z M266.1694,265.3192l-0.0333,2.3513l4.0322-0.5818l-0.0377,3.0972l-4.0319,0.5818l-0.0411,2.4271
	l4.2513-0.6134l-0.0377,3.0972l-7.827,1.1293l0.1865-14.0699l7.827-1.1293l-0.0374,3.0972L266.1694,265.3192z M292.2126,263.0831
	c-0.7126-0.8997-1.9037-1.2621-3.125-1.0794c-2.1873,0.3274-3.6681,2.2637-3.6956,4.4482
	c-0.0034,2.2185,1.4706,3.6005,3.6946,3.2677c1.1667-0.1746,2.3401-0.9279,3.0995-1.9546l-0.0516,4.3875
	c-1.185,0.5502-2.0372,0.9571-3.1491,1.1235c-1.9142,0.2863-3.7367-0.1865-5.152-1.2978c-1.4988-1.1735-2.1672-2.8998-2.1445-4.9907
	c0.0109-1.9213,0.7431-3.876,2.0545-5.4516c1.3603-1.6197,3.3312-2.7721,5.2634-3.0612c1.1487-0.1718,2.1893-0.0666,3.2575,0.2208
	L292.2126,263.0831z M309.6531,269.8164l-3.5737,0.5305l0.1043-10.9734l-2.9542,0.4385l0.0248-3.0972l9.4821-1.4075l-0.0248,3.0972
	l-2.9538,0.4385L309.6531,269.8164z M326.1878,264.9789l-0.9975,2.5782l-3.7971,0.5319l5.5378-14.811l3.9069-0.5472l4.9407,13.3424
	l-3.8155,0.5349l-0.846-2.3201L326.1878,264.9789z M328.823,257.3499l-0.0363,0.0051l-1.5586,4.686l2.9756-0.4171L328.823,257.3499z
	 M346.7054,264.6407l0.505-14.0608l5.1235-0.6212c2.4518-0.2972,4.0675,0.4724,3.9663,3.1583
	c-0.0323,1.2665-0.4775,2.3418-1.6163,3.0554l0.0044,0.0367c1.9523,0.0231,2.7548,1.2811,2.6764,3.2402
	c-0.107,2.9467-2.6081,4.2153-5.1333,4.5216L346.7054,264.6407z M350.3983,261.408l0.4575-0.0554
	c1.061-0.1287,2.8428-0.289,2.8965-1.8368c0.0727-1.6982-1.7189-1.3141-2.89-1.1721l-0.3658,0.0445L350.3983,261.408z
	 M350.6116,255.6633l0.4025-0.0486c0.9517-0.1155,1.938-0.4021,1.9791-1.5953c0.0482-1.2872-1.0587-1.2271-2.0283-1.1096
	l-0.2561,0.0309L350.6116,255.6633z M372.7065,258.701l4.3138-0.398l-0.1963,3.0914l-7.9116,0.7295l0.9078-14.0421l3.5981-0.3318
	L372.7065,258.701z M392.5982,249.5314l-0.2585,2.3377l4.0696-0.1926l-0.3342,3.0795l-4.0696,0.1926l-0.2737,2.4121l4.2906-0.2028
	l-0.3342,3.0795l-7.9,0.3733l1.5352-13.9884l7.9-0.3733l-0.3346,3.0795L392.5982,249.5314z M417.2479,250.0772
	c-0.5696-0.5737-1.3304-0.9697-2.2144-1.0013c-0.663-0.0238-1.6347,0.3291-1.7729,1.0987c-0.158,0.806,0.752,1.1517,1.3341,1.3755
	l0.8742,0.3081c1.8218,0.6368,3.1315,1.6608,2.6828,3.895c-0.2704,1.3738-0.8736,2.7725-2.1598,3.6671
	c-1.2672,0.877-2.7915,1.2098-4.1911,1.1595c-1.7502-0.0625-3.3499-0.7098-4.5855-1.7498l2.1119-2.8387
	c0.7639,0.8206,1.6985,1.4995,2.9328,1.5433c0.8474,0.0302,1.8388-0.3583,2.0208-1.3293c0.2021-1.0074-1.1487-1.4058-1.8775-1.6534
	c-2.1506-0.7224-3.5295-1.3616-2.9912-4.0353c0.5428-2.8024,2.9111-4.5624,5.6924-4.4629c1.4,0.0499,3.0238,0.5506,4.1222,1.2906
	L417.2479,250.0772z"/>
</svg>
