<?xml version="1.0" encoding="utf-8"?>
<!-- Generator: Adobe Illustrator 22.0.1, SVG Export Plug-In . SVG Version: 6.00 Build 0)  -->
<svg version="1.1" id="Layer_1" xmlns="http://www.w3.org/2000/svg" xmlns:xlink="http://www.w3.org/1999/xlink" x="0px" y="0px"
	 viewBox="0 0 500.4704 285.1651" enable-background="new 0 0 500.4704 285.1651" xml:space="preserve">
<path d="M206.2057,0c-35.9964,39.1845,4.3474,43.5898,27.6723,43.5898c45.1899,0,112.4874-14.1435,154.9179-14.1435
	c17.4049,0,30.875,0.4641,38.0831,7.1297c16.1723,14.955,13.7504,33.3952-8.347,57.3855
	c17.5634-13.9116,33.1638-33.214,33.1562-51.0708c-0.0073-17.2235-14.3673-30.2548-40.6337-30.4862
	c-39.4743-0.3478-128.37,21.7369-165.7224,21.7369C215.7694,34.1415,196.4675,25.6206,206.2057,0z"/>
<path d="M168.1225,156.2161c-20.5197,13.9116-46.4301,40.3438-46.4301,63.8196c0,15.4767,12.6944,37.8513,54.0902,37.8513
	c57.3889,0,173.8692-25.5749,232.3157-26.3742c33.9096-0.4637,73.9056,7.7673,55.6466,42.2566
	c12.5205-9.999,20.3458-21.65,20.3458-31.5914c0-14.0562-15.1871-22.8379-64.5156-22.8379
	c-54.9995,0-146.0719,17.7374-225.02,17.7374c-46.7783,0-53.0385-24.1715-53.0385-35.3008
	C141.5165,183.6916,157.341,166.3021,168.1225,156.2161z"/>
</svg>
