<?xml version="1.0" encoding="utf-8"?>
<!-- Generator: Adobe Illustrator 22.0.1, SVG Export Plug-In . SVG Version: 6.00 Build 0)  -->
<svg version="1.1" id="Layer_1" xmlns="http://www.w3.org/2000/svg" xmlns:xlink="http://www.w3.org/1999/xlink" x="0px" y="0px"
	 viewBox="0 0 500.4704 285.1651" enable-background="new 0 0 500.4704 285.1651" xml:space="preserve">
<path d="M500.4704,134.8524l-9.6104-7.8952c-5.7015-4.6839-15.1156-10.911-30.9755-10.911
	c-14.6539,0-23.7825,5.6899-28.8601,10.4632c-0.6052,0.5689-1.1868,1.1574-1.7453,1.765c-0.1605-0.1626-0.3234-0.3239-0.4878-0.4833
	c-3.4237-3.3167-7.6212-5.8535-12.4758-7.54c-4.7099-1.6363-10.0683-2.4659-15.9266-2.4659h-5.7026l-4.9303-6.7859l-10.0966-13.8969
	l16.196-14.5829l26.9323-24.25h-36.2411h-17.2649h-16.5793h-14.8888h-11.6732l-0.0175,0.0994
	c-0.339-0.0743-0.6836-0.1469-1.0332-0.2176c-3.8068-0.7699-7.9122-1.2295-10.9818-1.2295c-11.1804,0-21.524,3.4588-29.2648,9.7614
	l-1.9614-8.4957l-11.1497,0.0825l-17.634,0.1304l-8.0733,0.0597l-3.9534,7.0394l-2.8216,5.024
	c-1.614-2.2494-3.5928-4.2446-5.9121-5.9574c-5.5778-4.1192-12.6748-6.2965-20.524-6.2965h-12.8698h-16.0836h-36.5013h-11.6732
	l-2.0271,11.4959l-2.0314,11.5206l-2.879,16.3274h11.3593l-3.3762,19.1473l-2.8789,16.3274h16.5793h14.4465h3.6142h16.5793h1.4462
	c-3.3813,5.3327-5.237,11.5342-5.237,17.8533c0,4.8967,1.0114,9.433,2.9742,13.4718l-0.025,0.0321l-10.1019,12.9298l-6.7287,8.6123
	l6.7748,8.5761c7.9274,10.0352,22.5703,16.7776,36.437,16.7776c10.7651,0,20.8789-3.0691,28.4783-8.642
	c0.0289-0.0212,0.0575-0.0422,0.0863-0.0635l-1.2284,6.9666h16.5793h7.0581h23.6173h21.7429h8.1946l3.9728-7.1672l2.5818-4.6577
	h4.7809l0.2407,1.0427l2.4892,10.7822h11.0659h5.9887h16.5793h19.6518h11.6733h5.0329h22.8715h15.0847
	c4.1106,1.1279,8.3556,1.739,12.5299,1.739c10.7652,0,20.8789-3.0691,28.4783-8.642c9.2963-6.8172,14.416-16.8819,14.416-28.3398
	c0-6.7784-2.0485-12.9525-5.9771-18.1478l7.0967-10.9279L500.4704,134.8524z"/>
</svg>
