<?xml version="1.0" encoding="utf-8"?>
<!-- Generator: Adobe Illustrator 22.0.1, SVG Export Plug-In . SVG Version: 6.00 Build 0)  -->
<svg version="1.1" id="Layer_1" xmlns="http://www.w3.org/2000/svg" xmlns:xlink="http://www.w3.org/1999/xlink" x="0px" y="0px"
	 viewBox="0 0 243.6 70.9" enable-background="new 0 0 243.6 70.9" xml:space="preserve">
<polygon points="243.6,11.7 243.6,70.9 0,70.9 0,0 243.5,0 243.5,11.7 "/>
<path fill="#FFF200" d="M58.9374,2.4H48.0069l41.1378,65.9884h11L58.9374,2.4z M81.09,2.4H70.1779l40.9699,65.9884h10.9984
	L81.09,2.4z M103.038,2.4H92.1069l41.0827,65.9l11.0539,0.0884L103.038,2.4z M125.19,2.4h-11.0832l41.1378,65.9884L166.1912,68.3
	L125.19,2.4z M147.19,2.4h-10.9122l40.915,65.9l11.0533,0.0884L147.19,2.4z M2.5,68.3h9.3952L2.5,53.1231V68.3z M2.5,17.9
	l0.0195,17.55L22.8937,68.3h10.9992L2.5,17.9z M14.838,2.4H3.9069l41.1378,65.9884h10.9988L14.838,2.4z M36.99,2.4H26.0779
	l40.9699,65.9884L77.9912,68.3L36.99,2.4z M169.2901,2.4l-11.1638-0.1293l41.2184,66.1177L210.2912,68.3L169.2901,2.4z
	 M191.2087,2.2707L180.3779,2.4L221.1,67.9893L232.2929,68.3L191.2087,2.2707z M213.2128,2.4h-10.883L241,64.5119V46.8218
	L213.2128,2.4z M235.3667,2.4h-10.9945l16.5325,26.6194L241,11.5L235.3667,2.4z"/>
<path d="M227.2,58.9H16c-0.7,0-1.3-0.6-1.3-1.3V13.3c0-0.7,0.6-1.3,1.3-1.3h211.2c0.7,0,1.3,0.6,1.3,1.3v44.3
	C228.5,58.3,227.9,58.9,227.2,58.9"/>
<rect x="17.3" y="14.5" fill="#FFFFFF" width="208.7" height="41.9"/>
<path d="M23.4,17.9h25.4v6H23.4V17.9z M32,25.4h8.3v28.3H32V25.4z M53.1,17.9h8.2v35.8h-8.2V17.9z M65.6,32.4c2.6,0,3.9-1.5,3.8-4.3
	c0-2.8-1.3-4.3-3.9-4.2h-2.7v-6h2.5c8.4,0,12.5,3.2,12.5,9.6c0,4.6-1.6,7.3-4.8,7.9c3.4,0.9,5,3.7,4.7,8.5v6.6
	c0,1.5,0.2,2.5,0.6,3.2h-8.4c-0.4-0.7-0.6-1.8-0.5-3.2V43c0-3.1-1.3-4.6-3.8-4.6h-2.8v-6H65.6z M90.4,17.9H101l9.1,35.8h-8.6
	l-1.7-7.5h-7.1l1.2-5.9h4.7l-2.8-14.6l-6.3,28h-8.1L90.4,17.9z M113.3,17.9h8.2v35.8h-8.2V17.9z M122.8,24v-6.1h4.3
	c7.6,0,11.4,3.3,11.4,10v15.5c0,6.8-3.9,10.2-11.5,10.2h-4.2v-6.1h2.9c2.9,0,4.4-1,4.3-3.2V27.7c0-2.5-1.5-3.7-4.4-3.7
	C125.6,24,122.8,24,122.8,24z M143.5,17.9h8.3v35.8h-8.3V17.9z M157.7,17.9h8.3v35.8h-8.3V17.9z M167.2,17.9h10.7v6h-10.7V17.9z
	 M167.2,32.1h10.1v6h-10.1V32.1z M178,53.7h-10.7v-6.2H178V53.7z M195.4,24.2c-1.7,0-3.1-1.4-3.1-3.1c0-1.7,1.4-3.1,3.1-3.1
	c1.7,0,3.1,1.4,3.1,3.1S197.1,24.2,195.4,24.2z M212,40.4c-1.3943-0.8715-4.9906-1.8156-8.3409,1.1317l-8.4767-4.313
	c0.0038-0.0401,0.0176-0.0782,0.0176-0.1186l-0.9-9.9c0-0.0885-0.0323-0.1624-0.0609-0.2379
	c-0.1331-0.8979-0.5824-1.6586-1.3391-2.0621c-0.5319-0.304-1.1647-0.36-1.7999-0.2061c-0.0332,0.0042-0.0679-0.002-0.1001,0.006
	l-7.8,2.6c-0.4,0.1-0.6,0.6-0.4,1.1l1.8868,5.6604c-0.1743,0.3794-0.3085,0.7651-0.3826,1.1489
	c-0.1041,0.1766-0.1773,0.3754-0.2042,0.5908l-1,16.9c0,0.8,0.6,1.4,1.4,1.5c0.9,0,1.6-0.6,1.6-1.4l0.8232-13.8302
	c0.4672-0.0333,0.9442-0.1906,1.4008-0.4547l4.5073,4.327L191.8,52.5c-0.1,0.8,0.5,1.6,1.3,1.7c0.8,0.1,1.5-0.5,1.6-1.4l1.1-10.3
	c0.0424-0.381-0.0462-0.7221-0.2169-1.0011c-0.0851-0.2195-0.2106-0.4265-0.3831-0.5989l-3.663-3.5165l10.8348,5.5129
	c-0.0569,0.0707-0.1152,0.1302-0.1718,0.2037c-3.6,4.9-4.1,10.5-4.1,10.5h16l7-7.4C221.1,46.2,213.6,41.3,212,40.4z
	 M185.8432,31.8295L184.79,28.67l3.3101-1.1033L185.8432,31.8295z M192.8621,31.3828l0.4437,4.881l-2.3853-1.2136L192.8621,31.3828z
	"/>
</svg>
