<?xml version="1.0" encoding="utf-8"?>
<!-- Generator: Adobe Illustrator 22.0.1, SVG Export Plug-In . SVG Version: 6.00 Build 0)  -->
<svg version="1.1" id="Layer_1" xmlns="http://www.w3.org/2000/svg" xmlns:xlink="http://www.w3.org/1999/xlink" x="0px" y="0px"
	 viewBox="0 0 304.373 41.243" enable-background="new 0 0 304.373 41.243" xml:space="preserve">
<path fill="#FFFFFF" d="M51.626,0h21.679v4.614h-7.994v13.942h-5.69V4.614h-7.995V0z M81.481,4.614h8.894
	c1.792,0,2.612,0.308,2.612,1.947v0.615c0,1.333-0.563,1.949-2.101,1.949h-9.405V4.614z M75.791,18.556h5.69v-4.819h8.943
	c1.768,0,2.333,0.641,2.333,2.588v2.23h5.69v-3.154c0-3.049-1.412-3.791-3.101-4.099v-0.05c2.612-0.617,3.177-2.078,3.177-4.563
	v-1.18c0-3.33-1.178-5.511-5.56-5.511h-17.17V18.556z M102.671,18.556h5.69V0h-5.69V18.556z M118.203,4.614h8.355
	c1.714,0,2.331,0.718,2.331,1.974v0.718c0,1.1-0.512,1.973-1.845,1.973h-8.841V4.614z M112.513,18.556h5.69v-4.665h11.3
	c4.022,0,5.229-3.178,5.229-5.944V6.358c0-3.64-1.309-6.358-6.715-6.358h-15.504V18.556z M137.805,18.556h18.475v-4.769h-12.787V0
	h-5.688V18.556z M158.691,18.556h20.628v-4.46h-14.942v-2.974h13.84V7.28h-13.84V4.308h14.608V0h-20.294V18.556z M195.411,18.556
	h20.628v-4.46h-14.939v-2.974h13.837V7.28h-13.837V4.308h14.609V0h-20.299V18.556z M219.78,18.556h5.69V0h-5.69V18.556z
	 M229.212,12.246c0,5.434,3.05,6.716,8.176,6.716h6.843c6.405,0,9.172-0.256,9.172-5.587v-5.28h-12.76v3.846h7.071v0.539
	c0,1.792-1.487,2.023-2.972,2.023h-6.075c-2.868,0-3.612-0.691-3.612-3.869V8.328c0-3.178,0.743-3.869,3.612-3.869h6.177
	c1.818,0,2.87,0.229,2.87,2.074h5.586V5.944C253.3,2.33,252.405,0,245.947,0h-8.56c-5.126,0-8.176,1.281-8.176,6.713V12.246z
	 M256.836,18.556h5.69v-7.025h11.994v7.025h5.688V0h-5.688v6.614h-11.994V0h-5.69V18.556z M282.693,4.614h7.994v13.942h5.69V4.614
	h7.997V0h-21.68V4.614z"/>
<path fill="#FFFFFF" d="M62.976,34.577c1.985,0,2.822-0.53,2.822-1.913v-1.203c0-1.477-0.636-1.951-3.259-1.951h-8.125v5.067H62.976
	z M52.626,28.053h10.551c3.806,0,4.409,1.257,4.409,3.734v1.075c0,1.858-1.057,2.368-2.424,2.495v0.037
	c1.822,0.329,2.26,1.275,2.26,2.479v3.369h-1.677v-2.895c0-2.059-1.002-2.315-2.624-2.315h-8.708v5.21h-1.787V28.053z M78.189,29.51
	l-4.426,7.489h8.854L78.189,29.51z M77.078,28.053H79.3l7.836,13.19h-2.021l-1.641-2.787H72.904l-1.639,2.787h-2.021L77.078,28.053z
	 M88.811,32.696c0-3.334,1.128-4.937,4.701-4.937h6.832c3.243,0,4.136,1.513,4.136,3.279v1.131h-1.567v-0.603
	c0-2.24-1.385-2.35-3.025-2.35h-6.196c-1.712,0-3.097,0.511-3.097,2.806v4.955c0,2.296,1.385,2.807,3.097,2.807h6.252
	c2.403,0,3.095-0.512,3.095-2.298v-0.82h1.677v0.893c0,2.386-0.763,3.681-4.462,3.681h-6.742c-3.573,0-4.701-1.604-4.701-4.938
	V32.696z M107.596,28.053h12.953v1.457H109.38v4.208h10.731v1.46H109.38v4.609h11.242v1.457h-13.027V28.053z M132.119,28.053h12.955
	v1.457h-11.171v4.208h10.732v1.46h-10.732v4.609h11.246v1.457h-13.031V28.053z M147.752,28.053h2.662l12.078,11.588V28.053h1.787
	v13.19h-2.66l-12.081-11.588v11.588h-1.786V28.053z M183.845,36.378c0,3.589-1.165,4.866-4.462,4.866h-7.361
	c-3.573,0-4.701-1.604-4.701-4.937v-3.61c0-3.333,1.128-4.936,4.701-4.936h6.74c2.369,0,4.902,0.583,4.902,3.626v0.473h-1.677
	c0-2.459-0.747-2.642-5.156-2.642h-4.626c-1.714,0-3.1,0.511-3.1,2.806v4.956c0,2.296,1.386,2.806,3.1,2.806h6.977
	c1.784,0,2.879-0.621,2.879-2.444v-1.329H175.3v-1.457h8.544V36.378z M187.054,28.053h1.785v13.19h-1.785V28.053z M192.281,28.053
	h2.661l12.08,11.588V28.053h1.786v13.19h-2.661l-12.079-11.588v11.588h-1.787V28.053z M212.196,28.053h12.955v1.457H213.98v4.208
	h10.731v1.46H213.98v4.609h11.244v1.457h-13.029V28.053z M227.938,28.053h12.953v1.457h-11.168v4.208h10.733v1.46h-10.733v4.609
	h11.244v1.457h-13.029V28.053z M253.919,34.577c1.986,0,2.825-0.53,2.825-1.913v-1.203c0-1.477-0.637-1.951-3.261-1.951h-8.128
	v5.067H253.919z M243.571,28.053h10.549c3.808,0,4.411,1.257,4.411,3.734v1.075c0,1.858-1.057,2.368-2.424,2.495v0.037
	c1.822,0.329,2.258,1.275,2.258,2.479v3.369h-1.677v-2.895c0-2.059-1-2.315-2.622-2.315h-8.711v5.21h-1.784V28.053z M261.718,28.053
	h1.785v13.19h-1.785V28.053z M266.946,28.053h2.661l12.08,11.588V28.053h1.786v13.19h-2.66l-12.082-11.588v11.588h-1.785V28.053z
	 M303.04,36.378c0,3.589-1.165,4.866-4.463,4.866h-7.36c-3.574,0-4.701-1.604-4.701-4.937v-3.61c0-3.333,1.127-4.936,4.701-4.936
	h6.74c2.368,0,4.901,0.583,4.901,3.626v0.473h-1.676c0-2.459-0.746-2.642-5.157-2.642h-4.628c-1.711,0-3.097,0.511-3.097,2.806
	v4.956c0,2.296,1.385,2.806,3.097,2.806h6.979c1.785,0,2.879-0.621,2.879-2.444v-1.329h-6.76v-1.457h8.544V36.378z"/>
<path fill="#8C9091" d="M27.472,9.479l4.267-4.937c-8.145-5.739-15.985-2.727-19.755-0.576C10.831,2.633,8.553,0,8.553,0H0
	l35.655,41.243h8.553c0,0-25.101-29.036-27.917-32.294C18.935,7.678,23.06,6.703,27.472,9.479"/>
<path fill="#FFFFFF" d="M31.648,21.491h1.774v0.272c0,0.514,0.162,0.65,0.813,0.65h2.239c0.584,0,0.652-0.16,0.652-0.575
	c0-0.406-0.102-0.593-0.677-0.593h-1.927v-1.266h1.75c0.609,0,0.718-0.153,0.718-0.593c0-0.473-0.296-0.593-0.853-0.593h-1.86
	c-0.609,0-0.796,0.129-0.796,0.586v0.261h-1.774v-0.338c0-1.649,0.802-1.825,3.102-1.825h1.26c2.182,0,2.697,0.337,2.697,1.69
	c0,1.031-0.178,1.157-1.014,1.411v0.025c0.988,0.17,1.149,0.482,1.149,1.455c0,1.209-0.422,1.674-2.122,1.674h-3.12
	c-1.09,0-2.011-0.314-2.011-1.591V21.491z"/>
<path fill="#FFFFFF" d="M31.574,36.522c-3.686,2.395-10.951,5.502-19.315,0.448c-1.225,1.415-3.696,4.273-3.696,4.273H0.012
	L35.667,0h8.552c0,0-24.854,28.744-27.634,31.966c4.572,2.265,8.446,0.969,10.742-0.359L31.574,36.522z"/>
</svg>
