<?xml version="1.0" encoding="utf-8"?>
<!-- Generator: Adobe Illustrator 22.0.1, SVG Export Plug-In . SVG Version: 6.00 Build 0)  -->
<svg version="1.1" id="Layer_1" xmlns="http://www.w3.org/2000/svg" xmlns:xlink="http://www.w3.org/1999/xlink" x="0px" y="0px"
	 viewBox="0 0 101.4064 86.3129" enable-background="new 0 0 101.4064 86.3129" xml:space="preserve">
<path fill="#F47421" d="M81.7402,0l-6.8719,9.542C53.7152-5.6505,24.1408-0.8237,8.9199,20.3186
	c-7.3766,10.25-10.3242,22.7592-8.2943,35.2248C2.6577,68.0068,9.4181,78.9341,19.668,86.3129l6.8698-9.542
	c8.3315,5.9826,17.963,8.8603,27.5159,8.8603c14.7009,0,29.2072-6.8216,38.4323-19.639c7.379-10.2477,10.3246-22.757,8.2944-35.2226
	C98.7506,18.3062,91.9881,7.3767,81.7402,0z M58.0261,62.3759c-6.413,1.0466-12.8478-0.4719-18.1203-4.2652l-6.8675,9.5398
	c-5.2484-3.7954-8.7117-9.4021-9.7539-15.7999c-1.0445-6.4108,0.4697-12.8458,4.2674-18.1182
	c7.8332-10.8858,23.0673-13.3658,33.9508-5.5303l6.8675-9.5398c5.2485,3.7954,8.7138,9.4022,9.7538,15.7977
	c1.0445,6.4131-0.4717,12.8481-4.2671,18.1204C70.0613,57.853,64.4392,61.3315,58.0261,62.3759z"/>
</svg>
