<?xml version="1.0" encoding="utf-8"?>
<!-- Generator: Adobe Illustrator 22.0.1, SVG Export Plug-In . SVG Version: 6.00 Build 0)  -->
<svg version="1.1" id="Layer_1" xmlns="http://www.w3.org/2000/svg" xmlns:xlink="http://www.w3.org/1999/xlink" x="0px" y="0px"
	 viewBox="0 0 153.5948 24.7498" enable-background="new 0 0 153.5948 24.7498" xml:space="preserve">
<path fill="#FFFFFF" d="M1.7734,20.9178H0l0.0713-0.3057L3.9248,3.8777h4.2373c3.5078,0,5.2861,1.4199,5.2861,4.2197
	c0,3.8027-2.5127,5.8975-7.0742,5.8975H3.3516L1.7734,20.9178z M3.707,12.5027h2.7344c3.5537,0,5.2813-1.457,5.2813-4.4531
	c0-1.8203-1.126-2.6318-3.6504-2.6318H5.3379L3.707,12.5027z M18.1934,21.0135c-3.1592,0-5.0459-1.9053-5.0459-5.0977
	c0-4.46,3.0469-7.9541,6.9365-7.9541c3.0986,0,5.0234,1.9434,5.0234,5.0723C25.1074,17.5828,22.1348,21.0135,18.1934,21.0135z
	 M20.0586,9.3836c-2.9814,0-5.2305,2.8086-5.2305,6.5322c0,2.4043,1.1729,3.6758,3.3906,3.6758c3.3838,0,5.209-3.3906,5.209-6.5801
	C23.4277,10.6717,22.2314,9.3836,20.0586,9.3836z M36.5137,20.9187H35.042l-0.9404-9.8105l-4.9941,9.8105h-1.5127L26.6064,8.7576
	V8.1082h1.6123l0.7861,9.835l4.9756-9.835h1.3721l0.9834,9.8525l4.7803-9.8525h1.375L42.4658,8.868L36.5137,20.9187z M46.79,21.0105
	c-3.0137,0-4.8857-1.9238-4.8857-5.0205c0-4.4229,3.1016-8.0205,6.9141-8.0205h0.002c2.6055,0.0186,4.1006,1.5205,4.1006,4.1211
	c0,0.6807-0.1143,1.4795-0.3594,2.5146l-0.0459,0.1924h-8.8535c-0.0527,0.3359-0.0771,0.7139-0.0771,1.1924
	c0,2.3584,1.1084,3.5547,3.2949,3.5547c1.9365,0,3.085-0.6943,3.707-1.2764l0.0723-0.0674h0.9883l-0.3623,1.3838l-0.0674,0.0518
	C50.5576,20.1502,49.1045,21.0105,46.79,21.0105z M43.9785,13.4012h7.1973c0.1016-0.4385,0.1572-0.8975,0.1572-1.3105
	c0-1.8105-0.8633-2.7285-2.5654-2.7285C46.624,9.3621,44.7725,10.9363,43.9785,13.4012z M54.6309,20.9178h-1.6973l2.9531-12.8115
	h0.5547c0.3154,0,0.5518,0.0957,0.7012,0.2861c0.2041,0.2578,0.2295,0.6504,0.082,1.2725l-0.0488,0.21
	c0.916-0.8818,2.3008-1.8643,3.9199-1.8643c0.3262,0,0.5537,0.0527,0.6504,0.0977l0.1768,0.083l-0.2695,1.376l-0.2256-0.0205
	c-0.0029,0-0.2295-0.0215-0.4277-0.0215c-1.8203,0-3.2803,1.3984-4.3555,2.6367L54.6309,20.9178z M65.7207,21.0105
	c-3.0117,0-4.8828-1.9238-4.8828-5.0205c0-4.4229,3.1025-8.0205,6.915-8.0205h0.002c2.6055,0.0186,4.0996,1.5205,4.0996,4.1211
	c0,0.6787-0.1143,1.4775-0.3584,2.5146l-0.0449,0.1924h-8.8545c-0.0537,0.3359-0.0781,0.7129-0.0781,1.1924
	c0,2.3584,1.1084,3.5547,3.2949,3.5547c1.9375,0,3.085-0.6943,3.707-1.2764l0.0723-0.0674h0.9893l-0.3623,1.3838l-0.0674,0.0527
	C69.4883,20.1502,68.0303,21.0105,65.7207,21.0105z M62.9121,13.4012h7.1982c0.1016-0.4395,0.1563-0.8984,0.1563-1.3105
	c0-1.8105-0.8633-2.7285-2.5654-2.7285C65.5576,9.3621,63.7061,10.9363,62.9121,13.4012z M76.2734,21.0135
	c-2.376,0-3.7949-1.6484-3.7949-4.4092c0-4.1563,2.7705-8.6426,7.2471-8.6426c1.7041,0,2.6797,0.5928,3.3281,1.2119l1.2207-5.2939
	h0.5957c0.3018,0,0.6104,0.0186,0.7832,0.2354c0.1934,0.2432,0.126,0.6133,0.0098,1.1084l-3.6143,15.6934h-0.4355
	c-0.3564,0-0.624-0.1094-0.7969-0.3262c-0.2051-0.2588-0.25-0.6494-0.1309-1.1611l0.0762-0.3418
	C79.3281,20.3816,77.8535,21.0135,76.2734,21.0135z M79.8408,9.3894c-3.541,0-5.6563,3.668-5.6563,7.2148
	c0,2.0381,0.7686,2.9873,2.418,2.9873c1.8633,0,3.373-1.3301,4.6426-2.5957l1.4434-6.2822
	C82.1025,10.0144,81.3359,9.3894,79.8408,9.3894z M95.8945,21.0105c-1.5127,0-2.7314-0.4258-3.7109-1.2988
	c-0.1836,0.5068-0.5547,1.2031-1.2988,1.2031h-0.625l0.0713-0.3057l3.8516-16.7314h0.7881c0.1611,0,0.3936,0.0225,0.5479,0.2148
	c0.168,0.208,0.1826,0.5342,0.0508,1.126l-1.0879,4.7461c1.1445-1.0137,2.7334-2.002,4.5771-2.002c2.3477,0,3.75,1.6328,3.75,4.3682
	C102.8086,16.5389,100.3857,21.0105,95.8945,21.0105z M92.5742,18.1912c0.832,0.9404,1.8652,1.3984,3.1543,1.3984
	c3.5264,0,5.3711-3.6201,5.3711-7.1953c0-1.9375-0.7949-2.9619-2.2998-2.9619c-1.9316,0-3.4346,1.2734-4.8057,2.5947
	L92.5742,18.1912z M104.8311,24.7498h-1.4219v-0.7764l2.96-4.4453l-2.0127-10.7236l-0.0039-0.6953h1.5645l1.752,9.5283
	l6.0361-9.5283h1.4053v0.7227l-0.04,0.0625L104.8311,24.7498z"/>
<path fill="#FFFFFF" d="M122.735,5.2378h2.5812c1.5037,0,2.2807,0.5514,2.2807,2.1052c1.3533-1.3785,2.7817-2.3558,4.9369-2.3558
	c2.0049,0,3.5587,1.3782,2.8321,4.5863l-2.055,8.8966h-4.0098c-1.0276,0-1.4284-0.5012-1.0526-2.0799l1.3032-5.6891
	c0.2005-0.9274-0.0252-1.3782-1.0526-1.3782c-0.401,0-0.8019,0.1-1.2281,0.3005l-2.0046,8.8468h-5.5888L122.735,5.2378z"/>
<path fill="#FFFFFF" d="M136.4907,14.0594c-0.8272,3.5839,1.0024,4.6863,3.9597,4.6863c1.2279,0,2.1051-0.1753,2.7066-0.3758
	l0.7017-3.1076h-0.6267c-1.0775,0-1.353-0.4511-1.1027-1.5538l1.1528-5.0624h2.055l0.777-3.4083h-2.0301l0.7521-3.2078h-5.5888
	l-0.7269,3.2078h-1.2531l-0.7768,3.4083h1.2531L136.4907,14.0594z"/>
<path fill="#FFFFFF" d="M147.6051,5.2379h3.1829c1.7792,0,2.2555,0.476,1.7543,2.6313l-2.4059,10.6008h-5.5888L147.6051,5.2379z
	 M151.0134,0c1.5538,0,2.5814,0.8269,2.5814,2.1301c0,1.5538-1.2531,2.5562-2.9572,2.5562c-1.5286,0-2.5562-0.8017-2.5562-2.08
	C148.0814,1.0276,149.2843,0,151.0134,0z"/>
<path fill="#00B8B0" d="M149.8727,19.631h-1.8537l-0.3698,1.6005h1.6346c0.1283,0,0.2396-0.0887,0.2684-0.2136L149.8727,19.631z"/>
<path fill="#F47421" d="M147.2921,21.0179c-0.0289,0.1249-0.1401,0.2136-0.2684,0.2136h-1.6346l0.3698-1.6005h1.8537
	L147.2921,21.0179z"/>
<path fill="#FFCB05" d="M145.0318,21.0179c-0.0289,0.1249-0.1401,0.2136-0.2684,0.2136h-1.6346l0.3698-1.6005h1.8537
	L145.0318,21.0179z"/>
<path fill="#04894B" d="M143.0918,19.631h-1.8537l-0.3698,1.6005h1.6346c0.1283,0,0.2396-0.0887,0.2685-0.2136L143.0918,19.631z"/>
<path fill="#FFFFFF" d="M140.8315,19.631H119.447l-0.37,1.6005h21.1657c0.1283,0,0.2396-0.0887,0.2685-0.2136L140.8315,19.631z"/>
</svg>
