<?xml version="1.0" encoding="utf-8"?>
<!-- Generator: Adobe Illustrator 22.0.1, SVG Export Plug-In . SVG Version: 6.00 Build 0)  -->
<svg version="1.1" id="Layer_1" xmlns="http://www.w3.org/2000/svg" xmlns:xlink="http://www.w3.org/1999/xlink" x="0px" y="0px"
	 viewBox="0 0 196.8521 80.5548" enable-background="new 0 0 196.8521 80.5548" xml:space="preserve">
<path fill="#2E3B42" d="M50.3831,0.6316l-2.268,9.8589h-7.9602l-6.223,27.0506H19.382l6.2206-27.0506h-8.0167l2.2704-9.8589H50.3831
	z M66.6692,37.5407h13.6041V34.746l-4.2172-11.6528c4.6368-2.2659,7.5385-6.2732,7.5385-11.915
	c0-7.381-4.5864-10.545-14.8167-10.545H52.8031l-8.491,36.9073h14.5545l2.7945-12.1815h1.1603L66.6692,37.5407z M63.2956,17.2942
	l1.794-7.488h1.8964c1.687,0,2.4779,0.8958,2.4779,2.5848c0,2.6876-1.2104,4.9032-3.9548,4.9032H63.2956z M83.8589,21.3533
	C80.7494,34.8,89.2361,37.9617,99.519,37.9617c9.8588,0,15.3954-3.5834,17.6637-13.3898l5.5346-23.9413h-12.0723l-5.3271,23.3076
	c-0.6839,2.8471-1.8463,3.8478-4.2716,3.8478c-3.0023,0-3.7955-1.3722-3.0548-4.5339l5.1654-22.6216H88.6048L83.8589,21.3533z
	 M120.1764,22.7767c0,11.1787,8.0125,15.3979,17.6613,15.3979c5.4322,0,9.28-1.1603,11.8648-2.48l2.1085-9.4371h-5.904
	c-1.2147,1.1056-2.954,2.2134-5.5893,2.2134c-3.3736,0-5.2745-1.6322-5.2745-5.3249c0-5.4298,2.6374-13.0751,8.8601-13.0751
	c2.5304,0,4.1124,0.8434,5.0081,1.7415h6.1686l2.0581-9.07C154.2363,1.1056,150.7558,0,144.747,0
	C128.6629,0,120.1764,10.6498,120.1764,22.7767z M183.1434,0.6316L172.334,13.0753l2.847-12.4437h-14.5524l-8.4888,36.9095h14.5524
	l2.2133-9.7015l2.7422-2.4778l3.9529,12.1793h14.395v-2.3205l-6.1683-18.7716l13.0248-13.4969V0.6316H183.1434z M35.3274,43.0122
	l3.2141,34.117v2.7924H24.1468l-0.1552-5.9585h-9.9681l-2.8975,5.9585H0v-2.7924l18.505-34.117H35.3274z M18.7192,64.4211h5.1129
	l-0.212-9.6491h-0.1571L18.7192,64.4211z M40.0496,77.0216c3.3736,2.48,8.1194,3.5332,14.2376,3.5332
	c11.2308,0,17.9782-5.6417,17.9782-14.7642c0-4.8486-2.7422-8.1174-10.2826-10.1757c-2.7948-0.7363-4.0598-1.1056-4.0598-2.161
	c0-1.003,0.7364-1.5317,2.9017-1.5317c2.4232,0,4.6933,0.8457,5.9563,1.9512h6.3278l1.9514-8.2223
	c-3.1639-1.9512-7.1712-3.378-13.499-3.378c-10.1756,0-17.1876,4.3264-17.1876,14.502c0,5.8537,3.0044,8.5959,8.751,10.1757
	c3.269,0.898,4.5864,1.2651,4.5864,2.268c0,1.2127-1.263,1.582-3.2141,1.582c-2.5848,0-4.9579-0.8413-6.1705-2.0037h-6.4326
	L40.0496,77.0216z M72.1248,77.0216c3.3736,2.48,8.1173,3.5332,14.2376,3.5332c11.2308,0,17.9782-5.6417,17.9782-14.7642
	c0-4.8486-2.7422-8.1174-10.2804-10.1757c-2.7969-0.7363-4.062-1.1056-4.062-2.161c0-1.003,0.7386-1.5317,2.9017-1.5317
	c2.4232,0,4.6933,0.8457,5.9587,1.9512h6.3254l1.9514-8.2223c-3.1639-1.9512-7.1712-3.378-13.499-3.378
	c-10.1756,0-17.1876,4.3264-17.1876,14.502c0,5.8537,3.0044,8.5959,8.751,10.1757c3.269,0.898,4.5864,1.2651,4.5864,2.268
	c0,1.2127-1.2629,1.582-3.2141,1.582c-2.5848,0-4.9555-0.8413-6.1705-2.0037h-6.4326L72.1248,77.0216z M111.7556,43.0126
	l-8.4912,36.9095h14.5566l8.4867-36.9095H111.7556z M120.9798,77.0216c3.3736,2.48,8.1216,3.5332,14.2376,3.5332
	c11.2308,0,17.9806-5.6417,17.9806-14.7642c0-4.8486-2.7446-8.1174-10.285-10.1757c-2.7948-0.7363-4.0577-1.1056-4.0577-2.161
	c0-1.003,0.7364-1.5317,2.8974-1.5317c2.4275,0,4.6955,0.8457,5.9584,1.9512h6.3302l1.949-8.2223
	c-3.1639-1.9512-7.1712-3.378-13.499-3.378c-10.1756,0-17.1876,4.3264-17.1876,14.502c0,5.8537,3.0044,8.5959,8.751,10.1757
	c3.269,0.898,4.5864,1.2651,4.5864,2.268c0,1.2127-1.2629,1.582-3.2141,1.582c-2.5849,0-4.9579-0.8413-6.1705-2.0037h-6.4305
	L120.9798,77.0216z M158.2895,43.0126l-2.2682,9.8589h8.0146l-6.2206,27.0506h14.5523l6.2206-27.0506h7.9623l2.268-9.8589H158.2895z
	"/>
</svg>
