<?xml version="1.0" encoding="utf-8"?>
<!-- Generator: Adobe Illustrator 22.0.1, SVG Export Plug-In . SVG Version: 6.00 Build 0)  -->
<svg version="1.1" id="Layer_1" xmlns="http://www.w3.org/2000/svg" xmlns:xlink="http://www.w3.org/1999/xlink" x="0px" y="0px"
	 viewBox="0 0 1023.798 294.344" enable-background="new 0 0 1023.798 294.344" xml:space="preserve">
<path d="M0,67.083L31.639,0H354.87l-31.639,67.083h-76.256l-74.108,157.132c-5.456,11.569-17.099,18.951-29.891,18.951H31.594
	L114.64,67.083H0z"/>
<path d="M346.423,67.083L378.062,0h305.073l-31.639,67.083h-96.472l-74.1,157.116c-5.461,11.579-17.114,18.967-29.916,18.967
	H339.934L422.98,67.083H346.423z"/>
<path fill="#FFFFFF" d="M706.238,0h273.495c32.278,0,53.576,33.593,39.807,62.786l-37.178,78.829
	c-8.917,18.906-27.942,30.968-48.845,30.968h-18.159c-0.263,0-0.419,0.294-0.271,0.512l82.03,120.477
	c0.148,0.217-0.008,0.512-0.271,0.512H894.466c-15.011,0-29.05-7.426-37.499-19.834l-69.675-102.332
	c-0.065-0.096-0.075-0.219-0.026-0.324l25.62-54.323c0.054-0.115,0.169-0.188,0.296-0.188h44.921c4.391,0,8.389-2.534,10.262-6.506
	l16.228-34.407c1.993-4.225-1.09-9.086-5.761-9.086H674.908c-0.24,0-0.399-0.25-0.296-0.467l31.33-66.428
	C705.995,0.073,706.111,0,706.238,0z M591.345,243.167h111.443c12.818,0,24.485-7.397,29.953-18.991l50.508-107.093H650.81
	L591.345,243.167z"/>
<g>
	<path d="M24.408,259.996h40.939l-4.021,8.624H46.284l-11.752,25.203h-10.83l11.752-25.203H20.387L24.408,259.996z"/>
	<path d="M51.953,293.824l15.774-33.827h24.906c5.841,0.017,9.314,0.078,10.42,0.186c1.105,0.107,2.042,0.492,2.808,1.152
		c0.927,0.777,1.312,1.846,1.155,3.209c-0.156,1.363-0.916,3.507-2.28,6.431c-1.147,2.463-2.144,4.271-2.988,5.428
		c-0.845,1.156-1.851,2.082-3.017,2.775c-1.255,0.743-2.865,1.256-4.83,1.536c2.087,0.166,3.351,0.785,3.792,1.859
		c0.245,0.644,0.228,1.425-0.052,2.342c-0.278,0.917-1.1,2.837-2.463,5.762l-1.468,3.147H83.549l0.844-1.81
		c0.878-1.883,1.434-3.225,1.668-4.027c0.232-0.801,0.259-1.416,0.079-1.846c-0.194-0.396-0.602-0.648-1.221-0.756
		c-0.619-0.107-1.994-0.161-4.125-0.161H66.272l-4.01,8.6H51.953z M70.213,276.774H84.71c2.552-0.05,4.08-0.095,4.586-0.137
		c0.506-0.041,0.984-0.169,1.431-0.384c0.577-0.281,1.085-0.698,1.525-1.252c0.439-0.553,0.921-1.392,1.445-2.516
		c0.516-1.105,0.798-1.933,0.846-2.478c0.047-0.546-0.127-0.942-0.523-1.189c-0.287-0.165-0.674-0.264-1.162-0.298
		c-0.489-0.032-1.919-0.058-4.29-0.074H74.095L70.213,276.774z"/>
	<path d="M134.352,293.824l-0.23-5.725h-22.378l-5.569,5.725H94.404l33.716-33.827h16.009l1.92,33.827H134.352z M133.96,280.689
		l-0.543-12.813h-2.057l-12.492,12.813H133.96z"/>
	<path d="M163.36,259.996h18.066l5.955,25.228h1.065l11.516-25.228h10.483l-15.774,33.827h-17.918l-6.029-25.229h-1.115
		l-11.541,25.229h-10.482L163.36,259.996z"/>
	<path d="M203.439,282.621h9.987c-0.795,1.67-0.957,2.743-0.487,3.222c0.35,0.314,0.903,0.5,1.661,0.558
		c0.757,0.059,3.211,0.104,7.358,0.137c4.37-0.016,7.001-0.045,7.897-0.087c0.894-0.041,1.648-0.169,2.26-0.384
		c0.906-0.313,1.684-1.165,2.331-2.553c0.47-1.007,0.514-1.681,0.136-2.02c-0.379-0.338-1.388-0.524-3.024-0.558
		c-1.271,0-3.918-0.1-7.939-0.298c-4.12-0.198-6.81-0.313-8.065-0.347c-2.44-0.082-4.234-0.317-5.384-0.706
		c-1.149-0.388-1.891-1.02-2.225-1.896c-0.595-1.453-0.098-3.882,1.489-7.285c1.78-3.816,3.762-6.509,5.948-8.079
		c1.677-1.223,3.743-2.003,6.197-2.342c2.455-0.338,7.201-0.508,14.239-0.508c4.973,0,8.401,0.141,10.286,0.421
		c2.906,0.431,4.634,1.293,5.187,2.59c0.552,1.298,0.111,3.481-1.322,6.555c-0.131,0.281-0.386,0.81-0.764,1.586h-9.987
		c0.406-0.941,0.628-1.586,0.666-1.933c0.038-0.348-0.075-0.628-0.339-0.843c-0.323-0.264-1.028-0.434-2.117-0.508
		c-1.088-0.074-3.45-0.111-7.085-0.111c-4.378,0-7.11,0.136-8.195,0.408s-1.917,1.028-2.495,2.268
		c-0.555,1.189-0.414,1.917,0.421,2.181c0.692,0.216,4.24,0.422,10.64,0.62c5.392,0.165,8.957,0.359,10.694,0.582
		c1.739,0.224,3.006,0.648,3.804,1.276c0.893,0.743,1.292,1.764,1.2,3.061c-0.093,1.298-0.706,3.16-1.838,5.588
		c-1.487,3.189-3.022,5.561-4.605,7.113c-1.176,1.14-2.469,1.991-3.879,2.552c-1.411,0.563-3.202,0.942-5.377,1.141
		c-2.322,0.198-6.524,0.297-12.604,0.297c-5.089,0-8.785-0.133-11.09-0.396c-2.306-0.264-3.913-0.734-4.819-1.412
		c-0.934-0.727-1.366-1.686-1.298-2.875c0.066-1.189,0.667-2.999,1.799-5.427L203.439,282.621z"/>
	<path d="M269.277,259.996h40.939l-4.021,8.624h-15.042l-11.752,25.203h-10.83l11.752-25.203h-15.067L269.277,259.996z"/>
	<path d="M328.939,293.824l-0.23-5.725h-22.378l-5.569,5.725h-11.771l33.716-33.827h16.009l1.92,33.827H328.939z M328.547,280.689
		l-0.543-12.813h-2.057l-12.492,12.813H328.547z"/>
	<path d="M346.207,282.621h9.987c-0.795,1.67-0.957,2.743-0.487,3.222c0.35,0.314,0.903,0.5,1.661,0.558
		c0.757,0.059,3.211,0.104,7.358,0.137c4.37-0.016,7.001-0.045,7.897-0.087c0.894-0.041,1.648-0.169,2.26-0.384
		c0.906-0.313,1.684-1.165,2.331-2.553c0.47-1.007,0.514-1.681,0.136-2.02c-0.379-0.338-1.388-0.524-3.024-0.558
		c-1.271,0-3.918-0.1-7.939-0.298c-4.12-0.198-6.81-0.313-8.065-0.347c-2.44-0.082-4.234-0.317-5.384-0.706
		c-1.149-0.388-1.891-1.02-2.225-1.896c-0.595-1.453-0.098-3.882,1.489-7.285c1.78-3.816,3.762-6.509,5.948-8.079
		c1.677-1.223,3.743-2.003,6.197-2.342c2.455-0.338,7.201-0.508,14.239-0.508c4.973,0,8.401,0.141,10.286,0.421
		c2.906,0.431,4.634,1.293,5.187,2.59c0.552,1.298,0.111,3.481-1.322,6.555c-0.131,0.281-0.386,0.81-0.764,1.586h-9.987
		c0.406-0.941,0.628-1.586,0.666-1.933c0.038-0.348-0.075-0.628-0.339-0.843c-0.323-0.264-1.028-0.434-2.117-0.508
		c-1.088-0.074-3.45-0.111-7.085-0.111c-4.378,0-7.11,0.136-8.195,0.408s-1.917,1.028-2.495,2.268
		c-0.555,1.189-0.414,1.917,0.421,2.181c0.692,0.216,4.24,0.422,10.64,0.62c5.392,0.165,8.957,0.359,10.694,0.582
		c1.739,0.224,3.006,0.648,3.804,1.276c0.893,0.743,1.292,1.764,1.2,3.061c-0.093,1.298-0.706,3.16-1.838,5.588
		c-1.487,3.189-3.022,5.561-4.605,7.113c-1.176,1.14-2.469,1.991-3.879,2.552c-1.411,0.563-3.202,0.942-5.377,1.141
		c-2.322,0.198-6.524,0.297-12.604,0.297c-5.089,0-8.785-0.133-11.09-0.396c-2.306-0.264-3.913-0.734-4.819-1.412
		c-0.934-0.727-1.366-1.686-1.298-2.875c0.066-1.189,0.667-2.999,1.799-5.427L346.207,282.621z"/>
	<path d="M401.735,259.996h18.686l-0.177,21.956l20.3-21.956h18.586l-15.774,33.827h-10.16l12.059-25.327h-1.686l-24.573,25.327
		h-8.55l-0.952-25.327h-1.809l-11.563,25.327h-10.161L401.735,259.996z"/>
	<path d="M484.816,293.824l-0.23-5.725h-22.378l-5.569,5.725h-11.771l33.716-33.827h16.009l1.92,33.827H484.816z M484.423,280.689
		l-0.543-12.813h-2.057l-12.492,12.813H484.423z"/>
	<path d="M513.824,259.996h18.066l5.954,25.228h1.065l11.516-25.228h10.484l-15.774,33.827h-17.918l-6.029-25.229h-1.115
		l-11.541,25.229h-10.482L513.824,259.996z"/>
	<path d="M562.556,293.824l15.773-33.827h24.906c5.842,0.017,9.314,0.078,10.421,0.186c1.105,0.107,2.042,0.492,2.808,1.152
		c0.928,0.777,1.313,1.846,1.155,3.209c-0.156,1.363-0.916,3.507-2.28,6.431c-1.147,2.463-2.144,4.271-2.988,5.428
		c-0.846,1.156-1.851,2.082-3.018,2.775c-1.254,0.743-2.864,1.256-4.829,1.536c2.087,0.166,3.351,0.785,3.792,1.859
		c0.245,0.644,0.228,1.425-0.052,2.342c-0.278,0.917-1.1,2.837-2.463,5.762l-1.468,3.147h-10.161l0.844-1.81
		c0.878-1.883,1.434-3.225,1.668-4.027c0.232-0.801,0.259-1.416,0.079-1.846c-0.194-0.396-0.602-0.648-1.221-0.756
		s-1.994-0.161-4.125-0.161h-14.522l-4.01,8.6H562.556z M580.816,276.774h14.497c2.552-0.05,4.079-0.095,4.587-0.137
		c0.506-0.041,0.983-0.169,1.431-0.384c0.577-0.281,1.085-0.698,1.524-1.252c0.439-0.553,0.922-1.392,1.445-2.516
		c0.517-1.105,0.799-1.933,0.847-2.478c0.047-0.546-0.128-0.942-0.523-1.189c-0.286-0.165-0.674-0.264-1.162-0.298
		c-0.489-0.032-1.919-0.058-4.29-0.074h-14.473L580.816,276.774z"/>
	<path d="M644.956,293.824l-0.229-5.725h-22.379l-5.568,5.725h-11.771l33.717-33.827h16.008l1.921,33.827H644.956z M644.563,280.689
		l-0.544-12.813h-2.057l-12.491,12.813H644.563z"/>
	<path d="M696,280.763h10.31c-0.705,1.652-1.169,2.718-1.392,3.197c-1.218,2.61-2.558,4.65-4.02,6.121
		c-1.629,1.652-3.83,2.775-6.602,3.37c-2.773,0.595-7.223,0.893-13.354,0.893c-6.441,0-10.974-0.124-13.592-0.372
		c-2.619-0.248-4.457-0.727-5.514-1.438c-0.938-0.645-1.459-1.512-1.562-2.602c-0.103-1.091,0.197-2.586,0.902-4.486
		c0.567-1.536,1.788-4.312,3.66-8.326c1.825-3.916,3.217-6.741,4.175-8.476c0.957-1.734,1.874-3.081,2.75-4.039
		c1.943-2.147,4.5-3.54,7.672-4.176s9.119-0.954,17.843-0.954c4.361,0,7.487,0.099,9.377,0.297s3.295,0.57,4.214,1.115
		c1.196,0.728,1.775,1.806,1.737,3.234s-0.704,3.531-1.998,6.307c-0.069,0.148-0.341,0.711-0.812,1.686h-10.309
		c0.474-1.123,0.754-1.875,0.841-2.256c0.086-0.379,0.047-0.693-0.118-0.941c-0.235-0.347-1.118-0.599-2.646-0.756
		c-1.53-0.156-3.922-0.235-7.176-0.235c-3.222,0-5.485,0.071-6.79,0.211c-1.305,0.141-2.31,0.418-3.014,0.83
		c-0.843,0.495-1.657,1.33-2.443,2.503c-0.787,1.174-1.777,3.04-2.972,5.601c-1.194,2.562-1.928,4.366-2.202,5.415
		c-0.274,1.05-0.214,1.806,0.182,2.268c0.37,0.446,1.152,0.743,2.348,0.892c1.194,0.149,3.394,0.224,6.599,0.224
		c3.949,0,6.61-0.065,7.985-0.198c1.375-0.132,2.397-0.422,3.068-0.867C694.03,284.225,694.98,282.878,696,280.763z"/>
	<path d="M719.66,259.996h10.83l-15.773,33.827h-10.83L719.66,259.996z"/>
	<path d="M735.224,259.996h18.066l5.954,25.228h1.065l11.516-25.228h10.484l-15.774,33.827h-17.918l-6.029-25.229h-1.115
		l-11.541,25.229H719.45L735.224,259.996z"/>
	<path d="M800.757,274.642h23.568c-0.222,0.545-0.348,0.852-0.379,0.917c-2.227,4.775-4.026,8.368-5.397,10.78
		c-2.215,3.899-5.531,6.262-9.947,7.088c-1.896,0.347-3.993,0.582-6.289,0.706c-2.297,0.124-5.742,0.186-10.335,0.186
		c-5.815,0-9.855-0.157-12.121-0.471s-3.881-0.941-4.846-1.884c-0.659-0.644-1.008-1.47-1.051-2.478
		c-0.042-1.008,0.223-2.338,0.795-3.99c0.519-1.536,1.837-4.575,3.956-9.119c1.44-3.089,2.608-5.419,3.506-6.989
		c0.896-1.569,1.874-2.974,2.931-4.213c2.192-2.609,5.005-4.196,8.439-4.758c3.754-0.61,9.225-0.917,16.412-0.917
		c4.262,0,7.582,0.108,9.96,0.322c2.379,0.215,4.253,0.57,5.624,1.065c2.217,0.81,2.969,2.562,2.26,5.254
		c-0.36,1.338-1.079,3.181-2.156,5.526h-10.31c0.43-0.958,0.675-1.606,0.734-1.945c0.058-0.338-0.015-0.623-0.222-0.855
		c-0.386-0.412-1.472-0.669-3.26-0.768c-1.688-0.1-4.177-0.149-7.464-0.149c-3.568,0-6.156,0.084-7.761,0.248
		c-1.605,0.166-2.793,0.471-3.563,0.917c-0.777,0.463-1.51,1.219-2.197,2.268c-0.688,1.05-1.625,2.847-2.812,5.391
		c-1.333,2.858-2.163,4.854-2.493,5.984c-0.329,1.132-0.321,1.93,0.025,2.392c0.354,0.446,0.959,0.715,1.817,0.806
		s3.667,0.17,8.428,0.235c4.707-0.033,7.578-0.078,8.613-0.137c1.034-0.058,1.915-0.211,2.643-0.458
		c0.596-0.215,1.11-0.566,1.544-1.054c0.434-0.486,0.878-1.218,1.333-2.193c0.069-0.148,0.206-0.462,0.413-0.941h-13.555
		L800.757,274.642z"/>
</g>
</svg>
