<svg xmlns="http://www.w3.org/2000/svg" viewBox="0 0 17.77 15.39"><path d="M8.89 0H0l8.89 15.39L17.77 0z"/><linearGradient id="a" gradientUnits="userSpaceOnUse" x1="8.8864" y1="14.0268" x2="8.8864" y2=".7138"><stop offset=".05" stop-color="#fff"/><stop offset=".0831" stop-color="#f2f2f3"/><stop offset=".1261" stop-color="#eaeaeb"/><stop offset=".1976" stop-color="#e7e7e9"/><stop offset=".339" stop-color="#fff"/><stop offset=".35" stop-color="#f8f8f8"/><stop offset=".3767" stop-color="#ebebed"/><stop offset=".4024" stop-color="#e7e7e9"/><stop offset=".4756" stop-color="#fff"/><stop offset=".4909" stop-color="#f5f6f6"/><stop offset=".5358" stop-color="#dddfe0"/><stop offset=".5634" stop-color="#d4d6d8"/><stop offset=".5956" stop-color="#dddfe0"/><stop offset=".648" stop-color="#f5f6f6"/><stop offset=".6659" stop-color="#fff"/><stop offset=".7732" stop-color="#b3b3b3"/><stop offset=".8098" stop-color="#b6b6b6"/><stop offset=".8393" stop-color="silver"/><stop offset=".8663" stop-color="#d1d1d1"/><stop offset=".8917" stop-color="#e9e9e9"/><stop offset=".91" stop-color="#fff"/><stop offset="1" stop-color="#d4d6d8"/></linearGradient><path fill="url(#a)" d="M1.2.71l7.69 13.32v-.01L16.57.71z"/><path fill="#8F7D56" d="M8.89 14.02zM2.75 3.61l6.14 10.63v-.21L1.2.71 1.03.63l1.72 2.98zM16.57.71L9.64 12.72l-.75 1.3v.21L16.74.63z"/><linearGradient id="b" gradientUnits="userSpaceOnUse" x1="8.8564" y1="1.1268" x2="8.8564" y2="13.2928"><stop offset="0"/><stop offset=".0826" stop-color="#040402"/><stop offset=".1672" stop-color="#100f0a"/><stop offset=".2526" stop-color="#252116"/><stop offset=".3387" stop-color="#423a27"/><stop offset=".4244" stop-color="#665b3d"/><stop offset=".5" stop-color="#8d7d54"/><stop offset=".6507" stop-color="#908056"/><stop offset=".7567" stop-color="#99885e"/><stop offset=".8489" stop-color="#a9976b"/><stop offset=".8773" stop-color="#af9d70"/><stop offset="1" stop-color="#af9d70"/></linearGradient><path fill="url(#b)" d="M6.9 9.82l.13.23c.02-.05.03-.1.04-.13.01-.07 0-.19-.06-.2-.04.01-.09.03-.11.1m.26-.51c-.01.01-.05.07-.1.14-.06.08-.13.18-.21.28l.01.02c.06-.09.13-.17.16-.2.05-.03.12-.06.16-.1l.04-.04c.03-.04.09-.14.06-.16 0-.01-.02-.01-.03-.01-.03 0-.06.02-.09.07m.36.91c0-.03.05-.08.14-.13 0 0 .04 0 .05.03.01.03-.08.05-.11.08-.02.02-.04.03-.06.03-.01.01-.02 0-.02-.01m2.45.22c-.03-.06.02-.13.04-.16.03-.03.09-.15.11-.19.02-.04.08-.04.07-.01-.01.03-.06.11-.09.14-.04.03-.1.23-.13.22 0 .01 0 0 0 0m-2.13-.45c.01-.03.03-.01.04 0V10c-.01.01-.02.03-.04.04 0 0-.01-.03 0-.05m-.36.02c-.02-.03-.01-.06.02-.1.03-.05.21-.23.26-.28.04-.04.07-.08.11-.1l.01.26c-.03.01-.05.03-.07.05-.02.04-.07.08-.1.08-.03-.02-.03-.08-.07-.04-.04.02-.08.15-.13.15-.01 0-.02-.01-.03-.02m-.16-.09c-.02-.04.1-.19.15-.25.03-.03.16-.15.25-.22h.14c-.06.03-.08.06-.13.09-.06.03-.31.31-.37.38 0 0-.01.01-.02.01-.01.01-.02 0-.02-.01m1.83-4.41l.03.16.16-.03.06 2.2.01.37-.58 1.24-.1.24c-.15.03-.29.06-.36.07v-.19c.03-.02.11-.07.18-.12.09-.06.19-.12.2-.14.03-.03.05-.11.07-.15.02-.02-.03-.06-.06-.01-.03.05-.03.09-.1.09-.06 0-.2-.01-.31-.01l-.01-.88.2-.51.36-.94v-.1l-.21-.86.1-.06v-.15h.06l.03.2.08-.05-.03-.21.05-.05.04.16.13-.27zm-.3-4.37c-.01.02-.06.04-.09.06-.01 0-.05.14-.07.19h-.03c-.01-.02-.01-.08-.01-.08-.03.01-.08.05-.05.06l.02.04-.02.08.09.1-.09.11-.13-.07.05.12v.03L8.4 1.7l-.07.1.23.1-.02.07-.32-.08-.07.07.38.14v.11l-.4-.16-.05.07.3.24v.04l-.34-.18s-.08.17-.01.22c.06.06.34.15.34.15l-.28-.02.01.22.31.39v.13h-.06l-.45-.5-.65-.49-.54.14-.01.04.31-.05h.1l-.01.07-.34.08.02.06.33-.1.03.01v.06l-.42.14.33-.03.02.12-.21.19.03.05.4-.33.04.02v.04l-.36.32.04.04.29-.27.05.02v.05l-.29.27.09.02.03-.02.18-.16h.07v.06l-.18.15.1.07.14-.11.03.03.01.05-.1.08-.01.15.17.18v.06l-.08.06.16.17-.01.06-.08.03-.14-.15h-.08l-.43-.48h-.01c-.05-.02-.7-.29-.7-.29l-.25-.02-.03.07c.2.03.28.04.28.04l.03.06-.19-.04-.35.1.01.05.21-.06.03.05v.03l-.16.02-.03.03.05.03.06-.01.18-.06.07-.01v.05l-.27.1v.05l.04.01.19-.06v.06l-.16.06.13.05.1.07.11-.07.05.04-.06.21.02.02.11-.2.04.05-.09.19.09.17.16.04-.01.08.03.05.09-.04.09.26h.02l.01-.26.03-.05.05.05v.27l.17-.01.21-.22.04.05-.09.08.06.17.74.17-.01.09-.71-.14s-1.37.38-1.39.39c-.07.04-.19.1-.23.13-.04.04-.18.16-.18.16l.05.07s.16-.15.18-.17c.1-.06.17-.1.17-.1s.15-.06.2-.07l-.01.05-.84.64.02.05.25-.11-.15.2.1.02.27-.36.35-.26.04.08-.34.24-.22.29.1.05.09-.07.02.02-.03.05.08.01.16-.17h.06v.04l-.08.08.12.01.18-.24.06-.01-.1.21h.09l.16-.26.05-.01.01.06-.12.17h.06l.13-.27.06-.01-.08.26.06.01.1-.32.04-.01-.05.3h.08l.04-.47.09-.01-.06.43h.18l.05-.24h.06l.31.13.22-.09.36-.33.06.02-.03.11-.29.24-.77 1.24.15.02.2-.41.05.04-.08.27.17-.11.03-.3h.03l.03.26.07-.03.02-.27.06-.01.04.21h.1l.02-.31.06.01v.26l.06.01.01-.42.03-.05.07-.01.05-.18.04-.01.02.06.06-.01.02-.16h.02l.14.94-.42.98-.28.64.03.8c-.03.01-.06.02-.07.02-.07.04-.13.09-.19.14-.11.1-.21.22-.32.38-.15.22-.15.26-.19.29l.72 1.25 1.11 1.92 1.11-1.92.63-1.09c-.05.03-.22.14-.25.13-.04-.01-.03-.06 0-.1.04-.04.2-.23.22-.29.03-.06-.05-.04-.08-.01-.04.03-.27.23-.32.29-.05.05-.15.18-.18.23.03-.1.23-.5.29-.61.04-.07.2-.31.32-.48.06-.08.1-.14.13-.15.09-.05.27-.14.33-.2s.11-.11.09-.18c-.01-.06-.03-.13-.13-.02-.09.1-.34.4-.46.55-.02.03-.04.05-.05.06-.08.1-.13.27-.2.28-.07.01-.09.02-.14.06-.05.05-.25.28-.31.22-.02-.02.16-.21.22-.3.03-.05.11-.19.17-.33.06-.12.1-.24.1-.26-.01-.06-.02-.13-.04-.13s-.06.08-.1.15c-.03.05-.08.15-.11.24-.02.06-.04.11-.05.15-.05.12-.1.22-.15.22-.05 0-.06-.06-.02-.13.02-.05.04-.14.07-.22.02-.07.04-.14.06-.18.04-.1.13-.3.17-.38.02-.07-.03-.11-.07-.02-.05.1-.13.36-.18.46-.01.03-.03.07-.05.12-.06.15-.14.37-.2.47-.09.13-.1.22-.14.23-.03.02-.02-.06 0-.11.03-.06.19-.22.17-.26-.03-.06-.06-.1-.1-.05-.04.05-.09.07-.14.07-.04 0-.11.06-.15.11-.03.05-.11.13-.13.13-.04-.02.03-.1.06-.16.05-.06.33-.32.37-.33.03-.02 0-.06-.07-.02-.06.05-.18.15-.22.15-.04-.02-.02-.07.03-.12.03-.02.12-.07.19-.11.05-.03.1-.06.11-.07.01-.03-.03-.07-.07-.05-.02.01-.1.07-.19.12h-.13l.48-1.31-.03-.3-.2-2.25.13-.01.13.42.05.05.13-.45.07.02-.06.43.08.04.06-.27h.07l-.04.26h.1l.07-.24v-.23h.05l.05.21-.07.27.06-.01.11-.26h.05l-.07.33.14.17.06-.27h.06l.01.15.12.1.16.03-.04-.19h.06l.17.28h.09s.13.19.17.19c.04 0 0-.17-.01-.21-.01-.04.03-.04.07-.03.04.01.07.14.07.14l.07.04v-.07h.1l.04.07.06.01.07.06-.03-.22.05-.02.03.06.02.12.04-.01.16-.1.08.12.05-.02-.31-.4.08-.02.2.26.04.01.03-.04-.33-.42-.23-.09-.01-.01-1-.48-.95-.31-.38-.08-.01-.11.6.13.26-.06-.03-.21h.08l.03.12.06.08h.14l.02-.2h.06l.02.19s.18.12.17.06c-.01-.07-.06-.17-.02-.17.04-.03.07.13.07.13l.12.02.04-.06.06-.01-.12-.06v-.07l.12-.01.11.05.1-.07-.21-.07.02-.06s.16.02.19.04c.02.01.01.06.07.06.05 0 .09-.06.06-.08-.03-.03-.22-.09-.26-.11-.04-.03-.05-.06-.01-.06.05 0 .38.13.45.13.06 0 .08-.04.02-.05-.05-.01-.45-.07-.53-.14-.02-.03-.21-.02-.32-.02-.1 0-.63-.02-.68-.02-.04-.01-.01-.11.04-.12.03 0 .06 0 .1.01.03.01.07.02.09.01.06-.01.1-.11.1-.11s.18.12.21.15c.02.02.07-.04.03-.05-.03 0-.13-.05-.14-.09-.02-.04 0-.06.05-.06.04.02.11.05.14.04.04-.01 0-.14.04-.15.03-.02.15-.02.15-.02l.08-.2-.2-.07.01-.06.24-.08-.22-.05.05-.08.14.05.21.03c.08.02-.05-.05-.11-.08-.06-.02-.14-.07-.14-.07s-.03-.05.04-.05.29.14.36.14.11-.06.02-.07c-.09-.01-.27-.08-.32-.11-.05-.02-.02-.06.05-.06.06 0 .37.16.45.16.09 0 .27-.06.05-.1-.12-.03-.25-.08-.36-.12l.02-.01.5.07V3.1l-.37-.06.08-.01.06-.01.16-.02.02-.05-.45.06h-.01l-.2.05c-.15.03-.75.2-.81.21l-.62.36-.34.34-.08-.08.3-.3-.05-.16.37-.17-.01-.04-.1.04-.01-.21.31-.03-.26-.06.03-.1.3.03-.06-.07v-.06l.13-.06v-.04l-.34.12-.1.01.1-.09.34-.1.02-.06-.37.1V2.6l.29-.11.04-.06-.23.05v-.05l.36-.26-.48.16v-.02l.47-.26-.01-.07-.93.52-.23.18-.31.42-.1-.06.44-.54v-.09l-.18.12-.05-.01v-.06l.22-.17-.03-.09-.13.09-.07.01.01-.13.19-.1-.03-.04-.19.09h-.05v-.05l.16-.11-.05-.07-.21.15-.05.01V2l.14-.12-.02-.07c.08-.05.21-.13.21-.13v-.04l-.22.14-.02-.06.14-.09-.02-.02-.24.12-.04-.04.28-.19-.17.05-.04-.04.13-.09v-.05l-.17.08v-.03c.06-.03.14-.08.14-.08s.02-.07-.01-.06c-.03.01-.12.09-.14.1l-.01.02c.02-.06.04-.14.05-.14.04-.02.1-.06.1-.06s0-.07-.02-.07c-.01 0-.01 0-.02.01"/><linearGradient id="c" gradientUnits="userSpaceOnUse" x1="8.8564" y1="13.2928" x2="8.8564" y2="1.0748"><stop offset="0"/><stop offset=".0826" stop-color="#040402"/><stop offset=".1672" stop-color="#100f0a"/><stop offset=".2526" stop-color="#252116"/><stop offset=".3387" stop-color="#423a27"/><stop offset=".4244" stop-color="#665b3d"/><stop offset=".5" stop-color="#8d7d54"/><stop offset=".6507" stop-color="#908056"/><stop offset=".7567" stop-color="#99885e"/><stop offset=".8489" stop-color="#a9976b"/><stop offset=".8773" stop-color="#af9d70"/><stop offset="1" stop-color="#af9d70"/></linearGradient><path fill="url(#c)" d="M6.9 9.79l.13.24c.01-.05.04-.12.05-.16.02-.07 0-.19-.06-.2-.06 0-.11.03-.12.12m.26-.53c-.02.03-.18.24-.32.44l.01.02c.07-.1.14-.2.18-.22.06-.05.18-.09.21-.14.02-.04.08-.14.05-.16-.01-.01-.02-.01-.04-.01-.03 0-.06.02-.09.07m.36.91c0-.03.05-.08.14-.13 0 0 .04 0 .05.03.01.03-.08.05-.11.08-.02.02-.04.03-.06.03-.01.01-.02 0-.02-.01m2.45.21c-.03-.06.02-.13.04-.16.03-.03.09-.15.11-.19.02-.04.08-.04.07-.01-.01.03-.06.11-.09.14-.04.04-.1.23-.13.22 0 .01 0 .01 0 0m-2.13-.45c.01-.03.03-.01.04 0v.01c0 .02-.01.04-.04.04 0 0-.01-.02 0-.05m-.36.03c-.03-.03-.01-.06.01-.1.03-.05.21-.23.26-.28.04-.04.07-.08.11-.1l.01.26c-.02.01-.04.03-.06.04-.02.04-.07.08-.1.07-.03 0-.03-.06-.07-.03-.04.02-.08.15-.13.15-.01 0-.02 0-.03-.01m-.16-.09c-.02-.04.1-.19.15-.25.05-.06.26-.25.33-.27.01 0 .04-.01.06-.02v.07c-.06.03-.08.06-.13.09-.06.03-.31.31-.37.38 0 0-.01.01-.02.01-.01.01-.02 0-.02-.01m1.04-.61c.05 0 .09-.01.11-.01.1-.01.03.07-.03.11-.02.01-.05.02-.08.02v-.12zm.79-3.8l.03.16.16-.03.06 2.2.01.37-.68 1.47c-.15.04-.29.07-.36.08v-.2c.07-.04.36-.21.38-.25.03-.04.05-.12.07-.15.02-.02-.03-.06-.06-.01-.03.05-.03.09-.1.09-.06 0-.2-.01-.31-.01l-.01-.88.2-.51.36-.94v-.1l-.21-.87.1-.05v-.15h.06l.03.2.08-.05-.03-.22.05-.05.04.16.13-.26zm-.3-4.38c-.01.02-.06.04-.09.06-.01.01-.05.14-.07.2h-.03c-.01-.03-.01-.08-.01-.08-.03.01-.08.05-.05.06l.02.04-.02.08.09.1-.09.11-.13-.07.05.12v.03l-.12-.09-.07.1.23.11-.02.07-.32-.08-.07.07.38.13v.12L8.12 2l-.04.07.3.24v.04l-.34-.19s-.08.17-.01.22c.06.06.34.15.34.15l-.28-.01.01.21.31.39v.13h-.06l-.45-.49-.65-.49-.54.13-.01.05.31-.05h.1l-.01.07-.34.08.02.05.32-.09.03.01v.06l-.41.14.33-.03.02.11-.21.2.03.05.4-.34.04.02v.05l-.36.32.04.04.29-.27.05.02v.05l-.29.26.09.02.03-.02.17-.17h.07v.07l-.17.16.1.07.14-.11.03.03v.05l-.09.08-.01.14.17.18v.06l-.08.07.16.17-.01.06-.08.03-.14-.15-.08-.01-.43-.47h-.01c-.05-.02-.7-.29-.7-.29l-.25-.02-.03.07c.19.02.28.04.28.04l.03.06-.19-.04-.35.1.01.05.21-.06.03.05v.03l-.16.02-.03.03.05.03.06-.01.18-.06.09-.01-.02.05-.27.1v.05l.04.01.19-.06v.06l-.16.06.13.05.1.07.11-.07.05.04-.06.2.02.02.11-.2.04.06-.09.19.09.17.16.04-.01.07.03.05.09-.03.09.26h.02l.01-.26.03-.05.05.04v.27l.17-.01.21-.22.04.06-.09.08.06.17.74.17-.01.08-.71-.13s-1.37.38-1.39.39c-.07.05-.19.1-.23.13-.04.04-.18.16-.18.16l.05.07s.16-.15.18-.17c.1-.06.17-.1.17-.1s.15-.06.2-.06l-.01.04-.84.63.02.05.25-.11-.15.2.1.02.27-.36.35-.25.04.08-.34.24-.22.29.1.05.09-.07.02.02-.03.05.08.01.16-.18h.06v.04l-.08.09.12.01.18-.24.06-.01-.1.21h.09l.16-.27h.04l.01.06-.11.17h.06l.13-.27.06-.02L6.6 6l.06.01.1-.32.04-.01-.05.3h.08l.04-.47.09-.01-.06.43h.18l.05-.24h.06l.31.13.22-.09.36-.33.06.02-.03.12-.29.23-.77 1.24.15.03.2-.41.05.04-.08.26.17-.11.03-.31h.03l.03.26.07-.01.02-.26.06-.01.04.21h.1l.02-.3.06-.02v.26l.06.01.01-.43.03-.03.07-.01.05-.18h.04l.02.06.06-.02.02-.16h.02l.14.94-.42.97-.28.65.03.8c-.03 0-.06.01-.07.02-.19.11-.33.27-.51.52-.17.25-.15.27-.21.3l1.85 3.21 1.78-3.08-.03.01c-.04.02-.22.14-.26.14-.04-.01-.03-.06 0-.09.04-.04.2-.23.22-.29.03-.06-.05-.04-.08-.01-.04.03-.27.23-.32.29-.05.05-.15.19-.18.23.03-.1.23-.51.29-.61.06-.1.36-.58.45-.63.09-.05.27-.14.33-.2s.11-.11.09-.18c-.01-.06-.03-.13-.13-.02s-.43.51-.51.62c-.08.1-.13.27-.2.28-.07.01-.09.02-.14.06-.05.05-.25.28-.31.22-.02-.02.16-.21.22-.31.06-.09.27-.54.26-.59-.01-.06-.02-.13-.04-.13s-.06.08-.1.15c-.05.08-.14.3-.17.39-.03.1-.09.2-.13.2-.05 0-.06-.06-.02-.13.03-.08.1-.3.14-.41.04-.1.13-.3.17-.37.02-.07-.03-.11-.07-.02-.05.1-.13.36-.18.46-.05.1-.17.46-.26.59-.09.14-.11.24-.15.24-.03.02-.02-.06 0-.11.03-.06.19-.22.17-.26-.03-.05-.06-.1-.1-.05-.03.05-.08.07-.13.07-.04 0-.11.06-.15.11-.03.04-.11.13-.14.12-.03-.01.04-.09.07-.15.05-.05.33-.32.37-.33.03-.02 0-.06-.07-.02-.06.05-.18.15-.22.14-.04-.01-.02-.06.03-.11.05-.04.28-.15.3-.18.02-.03-.03-.07-.07-.05-.03.02-.2.13-.35.2l.51-1.4-.02-.29-.21-2.25.13-.02.13.42.05.05.13-.45.07.02-.06.44.08.04.06-.26h.07l-.04.26h.1l.07-.24v-.24h.05l.05.21-.07.27.06-.01.11-.26h.05l-.07.33.14.17.06-.27h.06l.01.15.12.1.16.02-.04-.19h.06l.17.28h.09s.13.19.17.19c.04 0 0-.17-.01-.21-.01-.04.03-.04.07-.03.04.01.07.14.07.14l.07.04v-.06h.1l.04.07.06.01.07.06-.01-.22.05-.01.03.06.02.12.04-.01.16-.1.08.12.05-.02-.33-.41.08-.02.2.26.04.01.03-.04-.33-.42-.23-.09h-.01l-1-.48L9.93 5l-.38-.08-.01-.11.6.13.26-.06-.03-.21h.08l.03.12.06.08h.14l.02-.2h.06l.02.19s.18.12.17.06c-.01-.07-.06-.17-.02-.18.04-.02.07.14.07.14l.12.02.04-.06.06-.01-.12-.07V4.7l.12-.02.11.05.1-.07-.21-.07.02-.06s.16.03.19.04c.02.01.01.06.07.06.05 0 .09-.06.06-.08-.03-.03-.22-.09-.26-.11-.04-.03-.05-.06-.01-.06.05 0 .38.13.45.13.06 0 .08-.04.02-.05-.05-.01-.45-.07-.52-.14-.02-.03-.21-.02-.32-.02-.1 0-.63-.02-.68-.03-.04-.01-.01-.11.04-.12.03 0 .06.01.09.01.04.01.07.02.1.01.06-.01.1-.11.1-.11s.18.12.21.15c.02.01.07-.04.03-.05-.03-.01-.13-.05-.14-.1-.02-.04 0-.06.05-.06.04.02.11.05.14.04.04-.01 0-.14.04-.15.03-.02.15-.02.15-.02l.08-.2-.2-.07.01-.06.24-.08-.22-.05.05-.08.14.05.21.03c.08.02-.05-.05-.11-.08-.06-.02-.14-.07-.14-.07s-.03-.05.04-.05.29.14.36.14.11-.06.02-.07c-.09-.01-.27-.08-.32-.11-.05-.02-.02-.06.05-.06.06 0 .37.16.45.16.09 0 .27-.06.05-.1-.12-.03-.25-.08-.36-.12l.02-.01.5.07v-.07l-.37-.06.08-.01.06-.01.14-.01.02-.05-.45.06h-.01l-.2.05c-.15.03-.75.2-.81.2l-.61.37-.34.34-.08-.08.3-.3-.05-.16.37-.18-.01-.04-.1.04-.01-.2.31-.03-.26-.06.03-.1.3.03-.06-.07v-.06l.13-.06v-.04l-.34.12-.1.01.1-.09.34-.1.02-.06-.37.1v-.04l.29-.11.04-.06-.23.05v-.06l.36-.26-.48.17v-.02L10.4 2l-.01-.06-.93.51-.23.18-.31.41-.1-.07.44-.54v-.07l-.18.11h-.05V2.4l.22-.17-.03-.08-.13.09h-.07l.01-.13.19-.1-.03-.04-.19.1h-.05v-.06l.16-.11-.05-.06-.21.15L8.8 2v-.05l.14-.12-.02-.07c.08-.05.21-.13.21-.13v-.04l-.22.14-.02-.06.14-.09-.02-.02-.24.12-.04-.04.28-.19-.17.05-.04-.04.13-.09v-.05l-.17.08v-.04c.06-.03.14-.08.14-.08s.02-.07-.01-.06c-.03.01-.12.09-.14.1l-.01.03c.02-.06.04-.14.05-.14.04-.02.1-.06.1-.06s0-.07-.02-.07c-.01-.01-.01 0-.02 0"/></svg>