<?xml version="1.0" encoding="utf-8"?>
<!-- Generator: Adobe Illustrator 22.0.1, SVG Export Plug-In . SVG Version: 6.00 Build 0)  -->
<svg version="1.1" id="Layer_1" xmlns="http://www.w3.org/2000/svg" xmlns:xlink="http://www.w3.org/1999/xlink" x="0px" y="0px"
	 viewBox="0 0 505.01 437.25" enable-background="new 0 0 505.01 437.25" xml:space="preserve">
<path d="M0,0l252.5,437.25L505.01,0H0z M252.61,415.07L19.72,9.81h465.73l-232.82,405.2L252.61,415.07z"/>
<path d="M207.97,316.4l-0.07,0.18l2.93,5.06c0.2-1.09,0.8-2.66,1.02-3.46c0.36-1.58,0-4.24-1.31-4.4
	C209.35,313.78,208.3,314.42,207.97,316.4 M213.76,304.5c-0.49,0.71-3.93,5.51-7.13,9.86l0.24,0.44c1.49-2.15,3.11-4.4,3.91-4.97
	c1.42-1.02,4.04-1.93,4.55-3.04c0.73-0.87,1.95-3,1.27-3.51c-0.22-0.24-0.47-0.33-0.75-0.33
	C215.23,302.94,214.5,303.52,213.76,304.5 M221.89,324.75c0-0.71,1.2-1.78,3.18-2.84c0,0,0.89,0,1.09,0.73
	c0.11,0.69-1.78,1.18-2.51,1.73c-0.42,0.42-1,0.78-1.38,0.78C222.02,325.15,221.89,325.01,221.89,324.75 M276.09,329.54
	c-0.56-1.22,0.36-2.84,0.89-3.55c0.71-0.71,1.93-3.35,2.44-4.24c0.53-0.91,1.75-0.91,1.58-0.18c-0.33,0.67-1.38,2.46-2.09,3.18
	c-0.75,0.64-2.13,5-2.66,5C276.2,329.74,276.13,329.67,276.09,329.54 M228.97,319.57c0.24-0.58,0.71-0.24,0.95-0.04l0.02,0.31
	c-0.13,0.29-0.4,0.69-0.98,0.82C228.97,320.66,228.77,320.17,228.97,319.57 M220.85,320.17c-0.53-0.6-0.2-1.29,0.36-2.31
	c0.69-1.07,4.75-5.02,5.82-6.26c0.8-0.93,1.58-1.87,2.44-2.24l0.22,5.73c-0.49,0.4-1.07,0.75-1.44,1.13
	c-0.51,0.89-1.62,1.78-2.29,1.64c-0.71-0.24-0.53-1.47-1.58-0.75c-0.75,0.44-1.64,3.35-2.86,3.35
	C221.31,320.46,221.09,320.37,220.85,320.17 M217.3,318.17c-0.53-0.89,2.31-4.11,3.35-5.51c1.07-1.24,5.82-5.53,7.24-6.06
	c0.24-0.09,0.78-0.2,1.4-0.38l0.11,1.58c-1.35,0.53-1.78,1.2-2.93,1.87c-1.4,0.69-6.86,6.93-8.3,8.5c0,0-0.22,0.31-0.47,0.31
	C217.56,318.48,217.43,318.4,217.3,318.17 M240.41,304.63c1.04-0.07,1.89-0.13,2.33-0.13c2.11-0.22,0.67,1.6-0.73,2.46
	c-0.27,0.18-0.82,0.31-1.55,0.33L240.41,304.63z M257.88,220.26l0.73,3.6l3.51-0.78l1.4,48.94l0.22,8.15l-15.19,32.73
	c-3.2,0.73-6.26,1.4-7.82,1.64l-0.13-0.75l-0.11-3.55l0.11-0.04c1.6-0.91,7.95-4.77,8.42-5.68c0.78-0.71,1.29-2.49,1.64-3.2
	c0.33-0.51-0.69-1.42-1.24-0.36c-0.73,1.07-0.73,1.95-2.29,1.95c-1.33,0-4.4-0.2-6.79-0.24l-0.44-19.34l4.4-11.3l8.15-21v-2.18
	l-4.62-19.18l2.15-1.2v-3.4h1.22l0.69,4.44l1.78-1.04l-0.53-4.82l1.22-1.04l0.89,3.55L257.88,220.26z M251.38,123.05
	c-0.36,0.44-1.38,0.89-2.06,1.33c-0.29,0.18-1.11,3.11-1.49,4.4l-0.69-0.04c-0.18-0.56-0.18-1.78-0.18-1.78
	c-0.71,0.2-1.75,1.09-1.22,1.4l0.53,0.87l-0.4,1.64l1.95,2.29l-2.09,2.51l-2.86-1.58l1.09,2.64v0.71l-2.64-1.93l-1.58,2.11
	l5.11,2.51l-0.38,1.4l-7.04-1.78l-1.6,1.62l8.48,2.98l-0.2,2.51l-8.97-3.53l-0.91,1.58l6.71,5.33l-0.11,0.89l-7.48-4.09
	c0,0-1.75,3.75-0.33,5c1.4,1.22,7.59,3.22,7.59,3.22l-6.19-0.38l0.36,4.8l6.86,8.73v2.82h-1.38L230.2,160.2l-14.48-10.84l-12.01,3
	l-0.22,1.07l6.95-1.22h2.29l-0.33,1.55l-7.44,1.82l0.33,1.22l7.24-2.11l0.71,0.18v1.22l-9.17,3.2l7.39-0.67l0.4,2.62l-4.8,4.31
	l0.71,1.04l8.99-7.46l0.91,0.53l-0.2,1.07l-7.9,7.08l0.87,0.89l6.51-6.04l1.22,0.53v1.09l-6.53,5.86l2,0.53l0.64-0.36l3.89-3.73
	h1.44v1.22l-3.89,3.6l2.11,1.58l3.02-2.49l0.71,0.71l0.16,1.09l-1.95,1.73l-0.16,3.22l3.69,3.91v1.24l-1.73,1.62l3.51,3.71
	l-0.2,1.44l-1.78,0.53l-2.97-3.2l-1.95-0.18l-9.5-10.5l-0.13-0.04c-1.09-0.56-15.56-6.35-15.56-6.35l-5.51-0.51l-0.67,1.6
	c4.29,0.49,6.19,0.82,6.19,0.82l0.6,1.29l-4.17-0.87l-7.77,2.11l0.2,1.09l4.73-1.27l0.73,1.07l-0.2,0.87l-3.49,0.38l-0.73,0.71
	l1.07,0.73l1.22-0.2l3.89-1.42l1.95-0.2l-0.18,1.09l-6,2.15v1.04l1.04,0.38l4.24-1.24v1.42l-3.55,1.04l2.84,1.09l2.31,1.55
	l2.46-1.55l1.07,0.89l-1.4,4.6l0.33,0.4l2.46-4.46l0.89,1.22l-1.93,4.29l1.93,3.75l3.53,0.87l-0.2,1.75l0.73,1.11l1.89-0.73
	l1.98,5.68h0.55l0.18-5.88l0.67-1.04l1.11,1.04v6.04l3.66-0.16l4.6-4.95l0.91,1.22l-1.8,1.8l1.27,3.69l16.41,3.75l-0.18,1.93
	l-15.7-3c0,0-30.31,8.35-30.82,8.66c-1.49,1-4.13,2.2-5.06,2.89c-1,0.89-4.2,3.53-4.2,3.53l1.02,1.6c0,0,3.55-3.35,4.11-3.73
	c2.26-1.4,3.86-2.29,3.86-2.29s3.35-1.31,4.4-1.44l-0.2,0.95l-18.67,14.17l0.53,1.09l5.48-2.51l-3.33,4.46l2.29,0.53l6-8.02
	l7.73-5.66l0.91,1.75l-7.57,5.33l-4.95,6.44l2.11,1.2l1.93-1.58l0.53,0.53l-0.53,1.04l1.75,0.18l3.55-3.91h1.4v0.91l-1.75,1.91
	l2.62,0.2l3.91-5.33l1.42-0.18l-2.31,4.64h1.95l3.53-5.88l1.09-0.18l0.13,1.42l-2.46,3.73h1.42l3-6.06l1.24-0.36l-1.78,5.86
	l1.22,0.22l2.11-7.13l0.91-0.18l-1.04,6.75h1.75l0.87-10.5l1.98-0.16l-1.24,9.41h3.89l1.02-5.33h1.24l6.88,2.86l4.95-1.98l8.1-7.28
	l1.24,0.53l-0.36,2.51l-6.51,5.13l-16.99,27.53l3.2,0.56l4.4-9.06l1.07,0.89l-1.75,5.84l3.86-2.46l0.73-6.77h0.51l0.73,5.73
	l1.58-0.38l0.38-5.88l1.4-0.16l0.89,4.62h2.26l0.53-6.77l1.22-0.16v5.84l1.42,0.22l0.18-9.46l0.71-0.87l1.58-0.2l1.09-3.93
	l0.87-0.13l0.51,1.22l1.27-0.36l0.53-3.55h0.53l3.18,20.8l-9.57,21.71l-6.31,14.39l0.78,17.72c-0.69,0.13-1.33,0.33-1.67,0.51
	c-4.26,2.51-7.24,5.93-11.32,11.41c-3.82,5.64-3.35,6.02-4.73,6.75l41.12,71.34l39.46-68.28l-0.62,0.13
	c-0.91,0.38-4.95,3.2-5.68,3.02c-0.87-0.31-0.69-1.22,0-2.11c0.89-0.91,4.42-5.15,4.95-6.39c0.73-1.27-1.04-0.93-1.75-0.18
	c-0.87,0.64-6.02,5.15-7.08,6.37c-1.02,1.09-3.33,4.11-4.04,5.17c0.56-2.33,5.11-11.21,6.53-13.5c1.4-2.15,8.1-12.81,10.04-14.1
	c1.98-1.2,6.02-3.13,7.26-4.4c1.24-1.27,2.46-2.49,2.09-3.95c-0.33-1.35-0.67-2.98-2.98-0.51c-2.29,2.49-9.55,11.37-11.43,13.7
	c-1.82,2.31-2.84,6.04-4.44,6.24c-1.44,0.13-1.95,0.36-3.2,1.44c-1.22,1.07-5.62,6.17-6.91,4.95c-0.49-0.53,3.6-4.64,4.97-6.77
	c1.4-1.93,6-11.9,5.84-13.14c-0.18-1.24-0.36-2.84-0.89-2.84c-0.36,0-1.27,1.8-2.31,3.37c-1.04,1.78-3.15,6.57-3.71,8.68
	c-0.67,2.15-1.93,4.44-2.98,4.44c-1.07,0-1.24-1.22-0.36-2.82c0.71-1.8,2.11-6.75,3.02-9.08c0.87-2.29,2.97-6.59,3.69-8.3
	c0.53-1.67-0.71-2.51-1.6-0.56c-1.07,2.26-3,7.97-4.04,10.28c-1.07,2.33-3.89,10.15-5.68,13.17c-1.91,2.8-2.26,4.97-3.17,5.15
	c-0.69,0.38-0.51-1.24,0-2.49c0.73-1.27,4.24-4.8,3.73-5.86c-0.56-1.2-1.4-2.13-2.13-1.04c-0.69,1.04-1.93,1.55-3,1.55
	c-0.87,0-2.44,1.31-3.35,2.38c-0.71,1.02-2.46,2.98-2.98,2.8c-0.73-0.33,0.69-2.09,1.55-3.37c1.07-1.24,7.26-7.11,8.15-7.26
	c0.67-0.36,0-1.22-1.47-0.36c-1.55,0.89-4.22,3.18-5.08,3c-0.89-0.33-0.33-1.44,0.73-2.49c1.22-0.91,6.17-3.4,6.68-4.09
	c0.33-0.69-0.69-1.6-1.58-1.09c-0.69,0.42-4.44,2.95-7.68,4.53l11.39-30.97l-0.62-6.55l-4.69-49.96l2.98-0.4l2.84,9.28l1.07,1.04
	l2.84-9.92l1.58,0.53l-1.24,9.59l1.75,0.87l1.24-5.86h1.58l-0.89,5.68h2.13l1.6-5.33v-5.15h1.04l1.07,4.6l-1.58,6.06l1.24-0.18
	l2.46-5.88h1.22l-1.6,7.33l3.02,3.71l1.22-6.04h1.24l0.33,3.37l2.66,2.11l3.53,0.56l-0.87-4.24h1.4l3.69,6.22h1.95
	c0,0,3,4.24,3.89,4.24c0.89,0,0-3.73-0.31-4.57c-0.2-0.91,0.67-0.91,1.58-0.73c0.87,0.33,1.58,3.18,1.58,3.18l1.44,0.91v-1.24h2.24
	l0.89,1.6l1.4,0.18l1.6,1.4l-0.33-4.95l1.07-0.33l0.71,1.38l0.51,2.66l0.89-0.16l3.51-2.13l1.75,2.64l1.09-0.51l-6.77-9.19
	l1.75-0.38l4.49,5.86l0.89,0.16l0.71-0.93l-7.42-9.28l-5.2-1.95l-0.13-0.11l-22.2-10.66l-21-7.11l-8.48-1.78l-0.36-2.49l13.41,2.82
	l5.66-1.4l-0.71-4.64h1.75l0.71,2.69l1.22,1.78h3.02l0.51-4.46h1.42l0.36,4.29c0,0,4.06,2.64,3.89,1.24c-0.2-1.6-1.4-3.73-0.36-3.91
	c1.07-0.38,1.58,3.2,1.58,3.2l2.66,0.38l0.89-1.44l1.4-0.2l-2.6-1.24v-1.38l2.6-0.36l2.46,1.04l2.33-1.62l-4.62-1.62l0.38-1.22
	c0,0,3.51,0.56,4.24,0.89c0.49,0.33,0.33,1.44,1.6,1.44c1.2,0,1.91-1.22,1.4-1.78c-0.73-0.73-4.77-1.95-5.82-2.46
	c-0.93-0.71-1.11-1.27-0.2-1.27c1.04,0,8.46,2.84,9.88,2.84c1.4,0,1.75-0.91,0.53-1.07c-1.2-0.18-9.88-1.6-11.63-3.2
	c-0.55-0.73-4.77-0.53-7.08-0.53c-2.29,0-13.97-0.36-15.01-0.56c-0.89-0.16-0.33-2.51,0.89-2.64c0.62-0.07,1.35,0.11,2.09,0.29
	c0.78,0.18,1.51,0.36,2.13,0.24c1.27-0.16,2.31-2.51,2.31-2.51s4.06,2.73,4.77,3.24c0.53,0.33,1.55-0.89,0.71-1.13
	c-0.71-0.13-2.84-1.07-3.2-2.11c-0.51-0.84,0-1.42,1.07-1.24c0.89,0.4,2.35,1.09,3.2,0.93c0.87-0.22,0-3.09,0.87-3.24
	c0.71-0.36,3.35-0.36,3.35-0.36l1.8-4.44l-4.44-1.62l0.2-1.42l5.44-1.75l-4.91-1.09l1.04-1.75l3.17,1.07l4.6,0.69
	c1.73,0.4-1.09-1.07-2.51-1.75c-1.4-0.51-3.15-1.58-3.15-1.58s-0.71-1.09,0.89-1.09s6.35,3.02,7.93,3.02c1.6,0,2.49-1.4,0.36-1.6
	c-1.93-0.2-6.02-1.78-7.06-2.49c-1.04-0.51-0.36-1.42,1.04-1.42c1.42,0,8.15,3.57,9.95,3.57c1.91,0,5.97-1.27,1.2-2.33
	c-2.6-0.58-5.53-1.71-7.93-2.58l0.53-0.31l11.08,1.64v-1.6l-8.3-1.38l1.87-0.29l1.27-0.2l3.06-0.29l0.53-1.04l-10.01,1.29
	l-0.22-0.04l-4.51,1.13c-3.42,0.58-16.61,4.42-18.07,4.55l-13.61,8.19l-7.57,7.42l-1.78-1.78l6.71-6.57l-1.24-3.55l8.3-3.89
	l-0.33-0.89l-2.13,0.89l-0.18-4.6l6.88-0.73l-5.82-1.27l0.71-2.13l6.71,0.56l-1.42-1.64v-1.2l2.8-1.44v-0.71l-7.55,2.53l-2.31,0.16
	l2.13-1.98l7.57-2.26l0.36-1.27l-8.13,2.31v-0.89l6.35-2.51l0.89-1.4l-5.08,1.07v-1.07l7.93-5.68l-10.21,3.62l-0.07-0.47l10.44-5.82
	l-0.16-1.42l-20.8,11.52h-0.02l-0.07,0.04l-0.09,0.07v0.02l-4.77,3.77l-7.08,9.26l-2.11-1.44l9.7-11.9v-1.93l-4.04,2.62l-0.93-0.18
	v-1.4l4.97-3.73l-0.73-1.93l-3,1.93l-1.58,0.2l0.33-2.84l4.24-2.29l-0.84-0.91l-4.24,2.11h-1.09v-1.2l3.55-2.53l-1.04-1.42l-4.6,3.4
	l-1.27,0.18l0.2-1.11l3.15-2.62l-0.49-1.51c1.8-1.04,4.73-2.93,4.73-2.93l-0.16-0.93l-4.88,3.09l-0.4-1.31l3.13-1.91l-0.51-0.56
	l-5.28,2.69l-0.91-0.91l6.19-4.24l-3.89,1.2l-0.69-0.89l3-1.98l-0.18-1.04l-3.71,1.62l-0.11-0.71c1.29-0.64,3-1.78,3-1.78
	s0.53-1.55-0.18-1.22c-0.73,0.27-2.69,2.02-3.04,2.31l-0.27,0.33h-0.04c0.4-1.38,0.89-3.04,1.04-3.13c0.89-0.51,2.24-1.29,2.24-1.29
	s0-1.64-0.42-1.64C251.58,122.85,251.49,122.92,251.38,123.05"/>
<path d="M94.35,83.44v-54.7H74.15v-7.48h50.65v7.48h-20.25v39.03C98.82,71.09,94.35,83.44,94.35,83.44"/>
<path d="M143.21,21.26v34.01h29.14V21.26h10.29V53.2c0,3.8-0.76,6.43-2.29,7.8c-1.53,1.41-4.44,2.11-8.73,2.11h-27.68
	c-4.28,0-7.13-0.7-8.64-2.09c-1.51-1.37-2.24-3.98-2.24-7.82V21.26H143.21z"/>
<path d="M191.94,63.11V21.26h37.7c3.45,0,5.96,0.65,7.5,1.88c1.54,1.3,2.33,3.37,2.33,6.24v9.85c0,2.84-0.78,4.89-2.33,6.14
	c-1.54,1.26-4.05,1.89-7.5,1.89h-5.76l19.92,15.85h-14.65l-17.54-15.85H202v15.85H191.94z M225.29,28.44H202v11.61h23.29
	c1.8,0,3.01-0.25,3.66-0.78c0.67-0.5,0.99-1.38,0.99-2.59v-4.84c0-1.22-0.32-2.08-0.99-2.62C228.3,28.71,227.09,28.44,225.29,28.44"
	/>
<polygon points="272.75,28.74 272.75,63.11 262.54,63.11 262.54,28.74 242.34,28.74 242.34,21.26 293.02,21.26 293.02,28.74 "/>
<polygon points="301.25,63.11 301.25,21.26 311.55,21.26 311.55,55.27 344.37,55.27 344.37,63.11 "/>
<polygon points="350.93,63.11 350.93,21.26 395.84,21.26 395.84,28.64 361.23,28.64 361.23,37.8 381.36,37.8 381.36,44.99 
	361.23,44.99 361.23,55.27 396.36,55.27 396.36,63.11 "/>
<path d="M118.52,113.54V71.67h37.63c3.52,0,6.04,0.66,7.6,1.9c1.53,1.29,2.31,3.36,2.31,6.24v5c0,1.9-0.6,3.47-1.83,4.71
	c-1.23,1.2-3,2.03-5.32,2.46c2.35,0.38,4.17,1.26,5.48,2.67c1.3,1.42,1.98,3.18,1.98,5.3v5.37c0,2.75-1.1,4.79-3.28,6.16
	c-2.14,1.37-5.39,2.06-9.74,2.06H118.52z M151.45,78.49h-22.86v9.91h22.86c1.78,0,2.98-0.22,3.63-0.67
	c0.67-0.46,0.98-1.23,0.98-2.32v-3.97c0-1.1-0.31-1.86-0.94-2.3C154.5,78.71,153.26,78.49,151.45,78.49 M151.45,95.32h-22.86V106
	h22.86c1.95,0,3.26-0.28,3.95-0.83c0.7-0.55,1.04-1.51,1.04-2.89v-3.2c0-1.38-0.34-2.35-1.04-2.92
	C154.7,95.59,153.4,95.32,151.45,95.32"/>
<polygon points="174.39,113.54 174.39,71.67 219.31,71.67 219.31,79.08 184.68,79.08 184.68,88.22 204.85,88.22 204.85,95.4 
	184.68,95.4 184.68,105.69 219.83,105.69 219.83,113.54 "/>
<path d="M223.24,113.54l24.86-41.87h9.79l25.25,41.87h-11.47l-5.27-9.18h-27.7l-5.25,9.18H223.24z M243.05,96.72h19.18l-9.75-17.46
	L243.05,96.72z"/>
<path d="M325.3,79.37h-27.5v26.15h27.5v-8.9l10.3,2.08v4.93c0,3.8-0.75,6.41-2.27,7.8c-1.52,1.41-4.4,2.11-8.68,2.11H298.5
	c-4.24,0-7.09-0.69-8.61-2.08c-1.53-1.39-2.27-4-2.27-7.83V81.54c0-3.81,0.74-6.41,2.25-7.78c1.49-1.39,4.38-2.08,8.64-2.08h26.15
	c4.3,0,7.21,0.7,8.71,2.08c1.51,1.37,2.24,3.97,2.24,7.78v4.07l-10.3,1.5V79.37z"/>
<path d="M386.73,118.2V95.89h-31.85v17.65h-10.32V71.67h10.32v15.91h31.85V71.67h10.18v62.2
	C396.91,133.87,392.66,122.52,386.73,118.2"/>
<path d="M410.2,103.56c0.67,0,1.35,0.13,1.92,0.39c0.64,0.24,1.16,0.6,1.64,1.09c0.48,0.47,0.83,1,1.08,1.61
	c0.26,0.61,0.38,1.23,0.38,1.88c0,0.68-0.12,1.33-0.38,1.92c-0.25,0.62-0.6,1.13-1.08,1.6c-0.5,0.47-1.06,0.85-1.66,1.09
	c-0.61,0.27-1.23,0.4-1.89,0.4c-0.65,0-1.3-0.13-1.88-0.4c-0.63-0.24-1.14-0.62-1.63-1.1c-0.48-0.48-0.85-1.02-1.09-1.61
	c-0.23-0.6-0.36-1.22-0.36-1.89c0-0.64,0.13-1.27,0.4-1.9c0.25-0.61,0.62-1.15,1.09-1.66c0.46-0.47,1.01-0.81,1.59-1.05
	C408.9,103.69,409.53,103.56,410.2,103.56 M414.55,108.6c0-0.61-0.11-1.17-0.32-1.7c-0.22-0.52-0.49-0.99-0.89-1.38
	c-0.44-0.43-0.91-0.75-1.42-0.96c-0.53-0.24-1.11-0.33-1.69-0.33c-0.6,0-1.15,0.09-1.68,0.32c-0.53,0.22-0.96,0.5-1.32,0.91
	c-0.45,0.42-0.77,0.9-0.99,1.43c-0.25,0.54-0.35,1.09-0.35,1.66c0,0.57,0.1,1.11,0.33,1.62c0.23,0.53,0.52,0.99,0.92,1.4
	c0.44,0.42,0.88,0.73,1.41,0.96c0.52,0.22,1.07,0.34,1.63,0.34c0.57,0,1.18-0.12,1.66-0.34c0.54-0.21,1.01-0.53,1.45-0.95
	c0.38-0.39,0.72-0.84,0.94-1.35C414.44,109.71,414.55,109.16,414.55,108.6 M410.34,105.62c0.78,0,1.37,0.14,1.76,0.4
	c0.39,0.25,0.59,0.64,0.59,1.15c0,0.41-0.09,0.73-0.31,1c-0.26,0.26-0.55,0.46-0.97,0.54l1.26,2.57h-1.19l-1.13-2.41h-1.08v2.41
	h-1.06v-5.66H410.34z M410.17,106.32h-0.9v1.87h0.91c0.5,0,0.87-0.07,1.11-0.22c0.21-0.13,0.32-0.37,0.32-0.68
	c0-0.32-0.13-0.58-0.34-0.73C411.04,106.39,410.65,106.32,410.17,106.32"/>
</svg>
