<svg xmlns="http://www.w3.org/2000/svg" viewBox="0 0 505.01 437.25"><path d="M0 0l252.5 437.25L505.01 0z"/><linearGradient id="a" gradientUnits="userSpaceOnUse" x1="252.5833" y1="415.07" x2="252.5833" y2="9.8124"><stop offset=".05" stop-color="#fff"/><stop offset=".0831" stop-color="#f2f2f3"/><stop offset=".1261" stop-color="#eaeaeb"/><stop offset=".1976" stop-color="#e7e7e9"/><stop offset=".339" stop-color="#fff"/><stop offset=".35" stop-color="#f8f8f8"/><stop offset=".3767" stop-color="#ebebed"/><stop offset=".4024" stop-color="#e7e7e9"/><stop offset=".4756" stop-color="#fff"/><stop offset=".4909" stop-color="#f5f6f6"/><stop offset=".5358" stop-color="#dddfe0"/><stop offset=".5634" stop-color="#d4d6d8"/><stop offset=".5956" stop-color="#dddfe0"/><stop offset=".648" stop-color="#f5f6f6"/><stop offset=".6659" stop-color="#fff"/><stop offset=".7732" stop-color="#b3b3b3"/><stop offset=".8098" stop-color="#b6b6b6"/><stop offset=".8393" stop-color="silver"/><stop offset=".8663" stop-color="#d1d1d1"/><stop offset=".8917" stop-color="#e9e9e9"/><stop offset=".91" stop-color="#fff"/><stop offset="1" stop-color="#d4d6d8"/></linearGradient><path fill="url(#a)" d="M19.72 9.81l232.89 405.26.02-.06L485.45 9.81z"/><path fill="#8F7D56" d="M252.5 415.07v-.02.02zm0 4.18v-6.37L19.72 9.81l-5.4-3.11L252.5 419.25zM485.45 9.81L252.5 413.09v6.16L490.83 6.7z"/><linearGradient id="b" gradientUnits="userSpaceOnUse" x1="251.455" y1="394.1313" x2="251.455" y2="122.85"><stop offset="0"/><stop offset=".0826" stop-color="#040402"/><stop offset=".1672" stop-color="#100f0a"/><stop offset=".2526" stop-color="#252116"/><stop offset=".3387" stop-color="#423a27"/><stop offset=".4244" stop-color="#665b3d"/><stop offset=".5" stop-color="#8d7d54"/><stop offset=".6507" stop-color="#908056"/><stop offset=".7567" stop-color="#99885e"/><stop offset=".8489" stop-color="#a9976b"/><stop offset=".8773" stop-color="#af9d70"/><stop offset="1" stop-color="#af9d70"/></linearGradient><path fill="url(#b)" d="M207.97 316.4l-.07.18 2.93 5.06c.2-1.09.8-2.66 1.02-3.46.36-1.58 0-4.24-1.31-4.4-1.19 0-2.24.64-2.57 2.62m5.79-11.9c-.49.71-3.93 5.51-7.13 9.86l.24.44c1.49-2.15 3.11-4.4 3.91-4.97 1.42-1.02 4.04-1.93 4.55-3.04.73-.87 1.95-3 1.27-3.51-.22-.24-.47-.33-.75-.33-.62-.01-1.35.57-2.09 1.55m8.13 20.25c0-.71 1.2-1.78 3.18-2.84 0 0 .89 0 1.09.73.11.69-1.78 1.18-2.51 1.73-.42.42-1 .78-1.38.78-.25 0-.38-.14-.38-.4m54.2 4.79c-.56-1.22.36-2.84.89-3.55.71-.71 1.93-3.35 2.44-4.24.53-.91 1.75-.91 1.58-.18-.33.67-1.38 2.46-2.09 3.18-.75.64-2.13 5-2.66 5-.05-.01-.12-.08-.16-.21m-47.12-9.97c.24-.58.71-.24.95-.04l.02.31c-.13.29-.4.69-.98.82.01 0-.19-.49.01-1.09m-8.12.6c-.53-.6-.2-1.29.36-2.31.69-1.07 4.75-5.02 5.82-6.26.8-.93 1.58-1.87 2.44-2.24l.22 5.73c-.49.4-1.07.75-1.44 1.13-.51.89-1.62 1.78-2.29 1.64-.71-.24-.53-1.47-1.58-.75-.75.44-1.64 3.35-2.86 3.35-.21 0-.43-.09-.67-.29m-3.56-2c-.53-.89 2.31-4.11 3.35-5.51 1.07-1.24 5.82-5.53 7.24-6.06.24-.09.78-.2 1.4-.38l.11 1.58c-1.35.53-1.78 1.2-2.93 1.87-1.4.69-6.86 6.93-8.3 8.5 0 0-.22.31-.47.31-.13 0-.26-.08-.4-.31m23.12-13.54c1.04-.07 1.89-.13 2.33-.13 2.11-.22.67 1.6-.73 2.46-.27.18-.82.31-1.55.33l-.05-2.66zm17.47-84.37l.73 3.6 3.51-.78 1.4 48.94.22 8.15-15.19 32.73c-3.2.73-6.26 1.4-7.82 1.64l-.13-.75-.11-3.55.11-.04c1.6-.91 7.95-4.77 8.42-5.68.78-.71 1.29-2.49 1.64-3.2.33-.51-.69-1.42-1.24-.36-.73 1.07-.73 1.95-2.29 1.95-1.33 0-4.4-.2-6.79-.24l-.44-19.34 4.4-11.3 8.15-21v-2.18l-4.62-19.18 2.15-1.2v-3.4h1.22l.69 4.44 1.78-1.04-.53-4.82 1.22-1.04.89 3.55 2.63-5.9zm-6.5-97.21c-.36.44-1.38.89-2.06 1.33-.29.18-1.11 3.11-1.49 4.4l-.69-.04c-.18-.56-.18-1.78-.18-1.78-.71.2-1.75 1.09-1.22 1.4l.53.87-.4 1.64 1.95 2.29-2.09 2.51-2.86-1.58 1.09 2.64v.71l-2.64-1.93-1.58 2.11 5.11 2.51-.38 1.4-7.04-1.78-1.6 1.62 8.48 2.98-.2 2.51-8.97-3.53-.91 1.58 6.71 5.33-.11.89-7.48-4.09s-1.75 3.75-.33 5c1.4 1.22 7.59 3.22 7.59 3.22l-6.19-.38.36 4.8 6.86 8.73v2.82h-1.38L230.2 160.2l-14.48-10.84-12.01 3-.22 1.07 6.95-1.22h2.29l-.33 1.55-7.44 1.82.33 1.22 7.24-2.11.71.18v1.22l-9.17 3.2 7.39-.67.4 2.62-4.8 4.31.71 1.04 8.99-7.46.91.53-.2 1.07-7.9 7.08.87.89 6.51-6.04 1.22.53v1.09l-6.53 5.86 2 .53.64-.36 3.89-3.73h1.44v1.22l-3.89 3.6 2.11 1.58 3.02-2.49.71.71.16 1.09-1.95 1.73-.16 3.22 3.69 3.91v1.24l-1.73 1.62 3.51 3.71-.2 1.44-1.78.53-2.97-3.2-1.95-.18-9.5-10.5-.13-.04c-1.09-.56-15.56-6.35-15.56-6.35l-5.51-.51-.67 1.6c4.29.49 6.19.82 6.19.82l.6 1.29-4.17-.87-7.77 2.11.2 1.09 4.73-1.27.73 1.07-.2.87-3.49.38-.73.71 1.07.73 1.22-.2 3.89-1.42 1.95-.2-.18 1.09-6 2.15v1.04l1.04.38 4.24-1.24v1.42l-3.55 1.04 2.84 1.09 2.31 1.55 2.46-1.55 1.07.89-1.4 4.6.33.4 2.46-4.46.89 1.22-1.93 4.29 1.93 3.75 3.53.87-.2 1.75.73 1.11 1.89-.73 1.98 5.68h.55l.18-5.88.67-1.04 1.11 1.04v6.04l3.66-.16 4.6-4.95.91 1.22-1.8 1.8 1.27 3.69 16.41 3.75-.18 1.93-15.7-3s-30.31 8.35-30.82 8.66c-1.49 1-4.13 2.2-5.06 2.89-1 .89-4.2 3.53-4.2 3.53l1.02 1.6s3.55-3.35 4.11-3.73c2.26-1.4 3.86-2.29 3.86-2.29s3.35-1.31 4.4-1.44l-.2.95-18.67 14.17.53 1.09 5.48-2.51-3.33 4.46 2.29.53 6-8.02 7.73-5.66.91 1.75-7.57 5.33-4.95 6.44 2.11 1.2 1.93-1.58.53.53-.53 1.04 1.75.18 3.55-3.91h1.4v.91l-1.75 1.91 2.62.2 3.91-5.33 1.42-.18-2.31 4.64h1.95l3.53-5.88 1.09-.18.13 1.42-2.46 3.73h1.42l3-6.06 1.24-.36-1.78 5.86 1.22.22 2.11-7.13.91-.18-1.04 6.75h1.75l.87-10.5 1.98-.16-1.24 9.41h3.89l1.02-5.33h1.24l6.88 2.86 4.95-1.98 8.1-7.28 1.24.53-.36 2.51-6.51 5.13-16.99 27.53 3.2.56 4.4-9.06 1.07.89-1.75 5.84 3.86-2.46.73-6.77h.51l.73 5.73 1.58-.38.38-5.88 1.4-.16.89 4.62h2.26l.53-6.77 1.22-.16v5.84l1.42.22.18-9.46.71-.87 1.58-.2 1.09-3.93.87-.13.51 1.22 1.27-.36.53-3.55h.53l3.18 20.8-9.57 21.71-6.31 14.39.78 17.72c-.69.13-1.33.33-1.67.51-4.26 2.51-7.24 5.93-11.32 11.41-3.82 5.64-3.35 6.02-4.73 6.75l41.12 71.34 39.46-68.28-.62.13c-.91.38-4.95 3.2-5.68 3.02-.87-.31-.69-1.22 0-2.11.89-.91 4.42-5.15 4.95-6.39.73-1.27-1.04-.93-1.75-.18-.87.64-6.02 5.15-7.08 6.37-1.02 1.09-3.33 4.11-4.04 5.17.56-2.33 5.11-11.21 6.53-13.5 1.4-2.15 8.1-12.81 10.04-14.1 1.98-1.2 6.02-3.13 7.26-4.4 1.24-1.27 2.46-2.49 2.09-3.95-.33-1.35-.67-2.98-2.98-.51-2.29 2.49-9.55 11.37-11.43 13.7-1.82 2.31-2.84 6.04-4.44 6.24-1.44.13-1.95.36-3.2 1.44-1.22 1.07-5.62 6.17-6.91 4.95-.49-.53 3.6-4.64 4.97-6.77 1.4-1.93 6-11.9 5.84-13.14-.18-1.24-.36-2.84-.89-2.84-.36 0-1.27 1.8-2.31 3.37-1.04 1.78-3.15 6.57-3.71 8.68-.67 2.15-1.93 4.44-2.98 4.44-1.07 0-1.24-1.22-.36-2.82.71-1.8 2.11-6.75 3.02-9.08.87-2.29 2.97-6.59 3.69-8.3.53-1.67-.71-2.51-1.6-.56-1.07 2.26-3 7.97-4.04 10.28-1.07 2.33-3.89 10.15-5.68 13.17-1.91 2.8-2.26 4.97-3.17 5.15-.69.38-.51-1.24 0-2.49.73-1.27 4.24-4.8 3.73-5.86-.56-1.2-1.4-2.13-2.13-1.04-.69 1.04-1.93 1.55-3 1.55-.87 0-2.44 1.31-3.35 2.38-.71 1.02-2.46 2.98-2.98 2.8-.73-.33.69-2.09 1.55-3.37 1.07-1.24 7.26-7.11 8.15-7.26.67-.36 0-1.22-1.47-.36-1.55.89-4.22 3.18-5.08 3-.89-.33-.33-1.44.73-2.49 1.22-.91 6.17-3.4 6.68-4.09.33-.69-.69-1.6-1.58-1.09-.69.42-4.44 2.95-7.68 4.53l11.39-30.97-.62-6.55-4.69-49.96 2.98-.4 2.84 9.28 1.07 1.04 2.84-9.92 1.58.53-1.24 9.59 1.75.87 1.24-5.86h1.58l-.89 5.68h2.13l1.6-5.33v-5.15h1.04l1.07 4.6-1.58 6.06 1.24-.18 2.46-5.88h1.22l-1.6 7.33 3.02 3.71 1.22-6.04h1.24l.33 3.37 2.66 2.11 3.53.56-.87-4.24h1.4l3.69 6.22h1.95s3 4.24 3.89 4.24c.89 0 0-3.73-.31-4.57-.2-.91.67-.91 1.58-.73.87.33 1.58 3.18 1.58 3.18l1.44.91v-1.24h2.24l.89 1.6 1.4.18 1.6 1.4-.33-4.95 1.07-.33.71 1.38.51 2.66.89-.16 3.51-2.13 1.75 2.64 1.09-.51-6.77-9.19 1.75-.38 4.49 5.86.89.16.71-.93-7.42-9.28-5.2-1.95-.13-.11-22.2-10.66-21-7.11-8.48-1.78-.36-2.49 13.41 2.82 5.66-1.4-.71-4.64h1.75l.71 2.69 1.22 1.78h3.02l.51-4.46h1.42l.36 4.29s4.06 2.64 3.89 1.24c-.2-1.6-1.4-3.73-.36-3.91 1.07-.38 1.58 3.2 1.58 3.2l2.66.38.89-1.44 1.4-.2-2.6-1.24v-1.38l2.6-.36 2.46 1.04 2.33-1.62-4.62-1.62.38-1.22s3.51.56 4.24.89c.49.33.33 1.44 1.6 1.44 1.2 0 1.91-1.22 1.4-1.78-.73-.73-4.77-1.95-5.82-2.46-.93-.71-1.11-1.27-.2-1.27 1.04 0 8.46 2.84 9.88 2.84 1.4 0 1.75-.91.53-1.07-1.2-.18-9.88-1.6-11.63-3.2-.55-.73-4.77-.53-7.08-.53-2.29 0-13.97-.36-15.01-.56-.89-.16-.33-2.51.89-2.64.62-.07 1.35.11 2.09.29.78.18 1.51.36 2.13.24 1.27-.16 2.31-2.51 2.31-2.51s4.06 2.73 4.77 3.24c.53.33 1.55-.89.71-1.13-.71-.13-2.84-1.07-3.2-2.11-.51-.84 0-1.42 1.07-1.24.89.4 2.35 1.09 3.2.93.87-.22 0-3.09.87-3.24.71-.36 3.35-.36 3.35-.36l1.8-4.44-4.44-1.62.2-1.42 5.44-1.75-4.91-1.09 1.04-1.75 3.17 1.07 4.6.69c1.73.4-1.09-1.07-2.51-1.75-1.4-.51-3.15-1.58-3.15-1.58s-.71-1.09.89-1.09 6.35 3.02 7.93 3.02c1.6 0 2.49-1.4.36-1.6-1.93-.2-6.02-1.78-7.06-2.49-1.04-.51-.36-1.42 1.04-1.42 1.42 0 8.15 3.57 9.95 3.57 1.91 0 5.97-1.27 1.2-2.33-2.6-.58-5.53-1.71-7.93-2.58l.53-.31 11.08 1.64v-1.6l-8.3-1.38 1.87-.29 1.27-.2 3.06-.29.53-1.04-10.01 1.29-.22-.04-4.51 1.13c-3.42.58-16.61 4.42-18.07 4.55l-13.61 8.19-7.57 7.42-1.78-1.78 6.71-6.57-1.24-3.55 8.3-3.89-.33-.89-2.13.89-.18-4.6 6.88-.73-5.82-1.27.71-2.13 6.71.56-1.42-1.64v-1.2l2.8-1.44v-.71l-7.55 2.53-2.31.16 2.13-1.98 7.57-2.26.36-1.27-8.13 2.31v-.89l6.35-2.51.89-1.4-5.08 1.07v-1.07l7.93-5.68-10.21 3.62-.07-.47 10.44-5.82-.16-1.42-20.8 11.52h-.02l-.07.04-.09.07v.02l-4.77 3.77-7.08 9.26-2.11-1.44 9.7-11.9v-1.93l-4.04 2.62-.93-.18v-1.4l4.97-3.73-.73-1.93-3 1.93-1.58.2.33-2.84 4.24-2.29-.84-.91-4.24 2.11h-1.09v-1.2l3.55-2.53-1.04-1.42-4.6 3.4-1.27.18.2-1.11 3.15-2.62-.49-1.51c1.8-1.04 4.73-2.93 4.73-2.93l-.16-.93-4.88 3.09-.4-1.31 3.13-1.91-.51-.56-5.28 2.69-.91-.91 6.19-4.24-3.89 1.2-.69-.89 3-1.98-.18-1.04-3.71 1.62-.11-.71c1.29-.64 3-1.78 3-1.78s.53-1.55-.18-1.22c-.73.27-2.69 2.02-3.04 2.31l-.27.33h-.04c.4-1.38.89-3.04 1.04-3.13.89-.51 2.24-1.29 2.24-1.29s0-1.64-.42-1.64c-.08.05-.17.12-.28.25"/><path d="M94.35 83.44v-54.7h-20.2v-7.48h50.65v7.48h-20.25v39.03c-5.73 3.32-10.2 15.67-10.2 15.67M143.21 21.26v34.01h29.14V21.26h10.29V53.2c0 3.8-.76 6.43-2.29 7.8-1.53 1.41-4.44 2.11-8.73 2.11h-27.68c-4.28 0-7.13-.7-8.64-2.09-1.51-1.37-2.24-3.98-2.24-7.82V21.26h10.15zM191.94 63.11V21.26h37.7c3.45 0 5.96.65 7.5 1.88 1.54 1.3 2.32 3.37 2.32 6.24v9.85c0 2.84-.78 4.89-2.32 6.14-1.54 1.26-4.05 1.89-7.5 1.89h-5.76l19.92 15.85h-14.65l-17.54-15.85H202v15.85h-10.06zm33.35-34.67H202v11.61h23.29c1.8 0 3.01-.25 3.66-.78.67-.5.99-1.38.99-2.59v-4.84c0-1.22-.32-2.08-.99-2.62-.65-.51-1.86-.78-3.66-.78M272.75 28.74v34.37h-10.21V28.74h-20.2v-7.48h50.68v7.48zM301.25 63.11V21.26h10.3v34.01h32.82v7.84zM350.93 63.11V21.26h44.91v7.38h-34.61v9.16h20.13v7.19h-20.13v10.28h35.13v7.84zM118.52 113.54V71.67h37.63c3.52 0 6.04.66 7.6 1.9 1.53 1.29 2.31 3.36 2.31 6.24v5c0 1.9-.6 3.47-1.83 4.71-1.23 1.2-3 2.03-5.32 2.46 2.35.38 4.17 1.26 5.48 2.67 1.3 1.42 1.98 3.18 1.98 5.3v5.37c0 2.75-1.1 4.79-3.28 6.16-2.14 1.37-5.39 2.06-9.74 2.06h-34.83zm32.93-35.05h-22.86v9.91h22.86c1.78 0 2.98-.22 3.63-.67.67-.46.98-1.23.98-2.32v-3.97c0-1.1-.31-1.86-.94-2.3-.62-.43-1.86-.65-3.67-.65m0 16.83h-22.86V106h22.86c1.95 0 3.25-.28 3.95-.83.7-.55 1.04-1.51 1.04-2.89v-3.2c0-1.38-.34-2.35-1.04-2.92-.7-.57-2-.84-3.95-.84M174.39 113.54V71.67h44.92v7.41h-34.63v9.14h20.17v7.18h-20.17v10.29h35.15v7.85zM223.24 113.54l24.86-41.87h9.79l25.24 41.87h-11.47l-5.26-9.18h-27.7l-5.25 9.18h-10.21zm19.81-16.82h19.18l-9.75-17.46-9.43 17.46zM325.3 79.37h-27.5v26.15h27.5v-8.9l10.3 2.08v4.93c0 3.8-.75 6.41-2.27 7.8-1.52 1.41-4.4 2.11-8.68 2.11H298.5c-4.24 0-7.09-.69-8.61-2.08-1.53-1.39-2.27-4-2.27-7.83V81.54c0-3.81.74-6.41 2.25-7.78 1.49-1.39 4.38-2.08 8.64-2.08h26.15c4.3 0 7.21.7 8.71 2.08 1.51 1.37 2.24 3.97 2.24 7.78v4.07l-10.3 1.5v-7.74zM386.73 118.2V95.89h-31.85v17.65h-10.32V71.67h10.32v15.91h31.85V71.67h10.18v62.2s-4.25-11.35-10.18-15.67M410.2 103.56c.67 0 1.35.13 1.92.39.64.24 1.16.6 1.63 1.09.48.47.83 1 1.08 1.61.26.61.38 1.23.38 1.88 0 .68-.12 1.33-.38 1.92-.25.62-.6 1.13-1.08 1.6-.5.47-1.06.85-1.66 1.09-.61.27-1.23.4-1.89.4-.65 0-1.3-.13-1.88-.4-.63-.24-1.14-.62-1.63-1.1-.48-.48-.85-1.02-1.09-1.61-.23-.6-.36-1.22-.36-1.89 0-.64.13-1.27.4-1.9.25-.61.62-1.15 1.09-1.66.46-.47 1.01-.81 1.59-1.05.58-.24 1.21-.37 1.88-.37m4.35 5.04c0-.61-.11-1.17-.32-1.7-.22-.52-.49-.99-.89-1.38-.43-.43-.91-.75-1.42-.96-.53-.24-1.11-.33-1.69-.33-.6 0-1.15.09-1.68.32-.53.22-.96.5-1.32.91-.45.42-.77.9-.99 1.43-.25.54-.35 1.09-.35 1.66 0 .57.1 1.11.33 1.62.23.53.52.99.92 1.4.43.42.88.73 1.41.96.52.22 1.06.34 1.63.34.57 0 1.18-.12 1.66-.34.54-.21 1.01-.53 1.45-.95.38-.39.72-.84.94-1.35.21-.52.32-1.07.32-1.63m-4.21-2.98c.78 0 1.36.14 1.76.4.39.25.59.64.59 1.15 0 .41-.09.73-.31 1-.26.26-.55.46-.97.54l1.26 2.57h-1.19l-1.13-2.41h-1.08v2.41h-1.06v-5.66h2.13zm-.17.7h-.9v1.87h.91c.5 0 .87-.07 1.11-.22.21-.13.32-.37.32-.68 0-.32-.13-.58-.34-.73-.23-.17-.62-.24-1.1-.24"/></svg>