<?xml version="1.0" encoding="utf-8"?>
<!-- Generator: Adobe Illustrator 22.0.1, SVG Export Plug-In . SVG Version: 6.00 Build 0)  -->
<svg version="1.1" id="Layer_1" xmlns="http://www.w3.org/2000/svg" xmlns:xlink="http://www.w3.org/1999/xlink" x="0px" y="0px"
	 viewBox="0 0 119.79 12.06" enable-background="new 0 0 119.79 12.06" xml:space="preserve">
<path d="M3.92,12.06V1.45H0V0h9.82v1.45H5.89v7.57C4.79,9.66,3.92,12.06,3.92,12.06 M12.72,0v6.59h5.65V0h2v6.19
	c0,0.74-0.15,1.24-0.45,1.51c-0.3,0.27-0.86,0.41-1.69,0.41h-5.37c-0.83,0-1.38-0.13-1.67-0.4c-0.29-0.27-0.43-0.77-0.43-1.52V0
	H12.72z M21.16,8.11V0h7.31c0.67,0,1.15,0.13,1.45,0.37c0.3,0.25,0.45,0.65,0.45,1.21v1.91c0,0.55-0.15,0.95-0.45,1.19
	c-0.3,0.24-0.78,0.37-1.45,0.37h-1.12l3.86,3.07h-2.84l-3.4-3.07H23.1v3.07H21.16z M27.62,1.39H23.1v2.25h4.52
	c0.35,0,0.58-0.05,0.71-0.15c0.13-0.1,0.19-0.27,0.19-0.5V2.05c0-0.24-0.06-0.41-0.19-0.51C28.2,1.44,27.97,1.39,27.62,1.39
	 M36.84,1.45v6.66h-1.98V1.45h-3.92V0h9.82v1.45H36.84z M41.42,8.11V0h1.99v6.59h6.36v1.52H41.42z M50.51,8.11V0h8.71v1.43h-6.71
	v1.77h3.91V4.6h-3.91v1.99h6.81v1.52H50.51z M65.18,8.11V0h7.29c0.68,0,1.17,0.13,1.47,0.37c0.3,0.25,0.45,0.65,0.45,1.21v0.97
	c0,0.37-0.12,0.67-0.36,0.91c-0.24,0.23-0.58,0.4-1.03,0.48c0.46,0.07,0.81,0.25,1.06,0.52c0.25,0.27,0.38,0.62,0.38,1.03v1.04
	c0,0.53-0.21,0.93-0.63,1.19c-0.42,0.26-1.05,0.4-1.89,0.4H65.18z M71.56,1.32h-4.43v1.92h4.43c0.35,0,0.58-0.04,0.71-0.13
	c0.13-0.09,0.19-0.24,0.19-0.45V1.89c0-0.21-0.06-0.36-0.18-0.44C72.15,1.36,71.91,1.32,71.56,1.32 M71.56,4.58h-4.43v2.07h4.43
	c0.38,0,0.63-0.05,0.76-0.16c0.14-0.11,0.2-0.3,0.2-0.56V5.31c0-0.27-0.07-0.46-0.2-0.56C72.19,4.64,71.94,4.58,71.56,4.58
	 M75.13,8.11V0h8.71v1.43h-6.71v1.77h3.91V4.6h-3.91v1.99h6.81v1.52H75.13z M84.36,8.11L89.18,0h1.9l4.89,8.11h-2.22l-1.02-1.78
	h-5.37l-1.02,1.78H84.36z M88.2,4.85h3.72l-1.89-3.39L88.2,4.85z M103.21,1.49h-5.33v5.07h5.33V4.83l2,0.4v0.95
	c0,0.74-0.15,1.24-0.44,1.51c-0.29,0.27-0.85,0.41-1.68,0.41h-5.07c-0.82,0-1.38-0.13-1.67-0.4c-0.3-0.27-0.44-0.77-0.44-1.52V1.91
	c0-0.74,0.14-1.24,0.44-1.51C96.63,0.13,97.19,0,98.01,0h5.07c0.83,0,1.4,0.13,1.69,0.4c0.29,0.26,0.44,0.77,0.44,1.51V2.7l-2,0.29
	V1.49z M114.22,9.02V4.69h-6.18v3.42h-2V0h2v3.08h6.18V0h1.97v12.06C116.19,12.06,115.37,9.86,114.22,9.02 M119.59,0.32v0.79h0.2V0
	h-0.22l-0.33,0.52L118.9,0h-0.23v1.11h0.2V0.32l0.34,0.53h0.02L119.59,0.32z M118.1,0.19h0.34V0h-0.9v0.19h0.34v0.91h0.21V0.19z"/>
</svg>
