<svg xmlns="http://www.w3.org/2000/svg" viewBox="0 0 21.985 27.823"><linearGradient id="a" gradientUnits="userSpaceOnUse" x1="10.9925" y1="27.8234" x2="10.9925"><stop offset="0" stop-color="#597e2c"/><stop offset=".1391" stop-color="#64862c"/><stop offset=".3821" stop-color="#819c2c"/><stop offset=".6979" stop-color="#afbe2b"/><stop offset="1" stop-color="#e2e42b"/></linearGradient><path fill="url(#a)" d="M20.967 25.362h.155c.083 0 .147.01.187.037.037.026.06.071.06.126 0 .054-.02.095-.056.117-.042.027-.104.038-.19.038h-.156v-.318zm-.181-.122v.97h.181v-.413h.184l.195.413h.204l-.214-.442c.071-.014.12-.046.164-.09.037-.046.054-.102.054-.172 0-.088-.033-.153-.101-.197-.066-.045-.166-.069-.302-.069h-.365zm.058 1.186c-.089-.038-.168-.092-.241-.164-.07-.071-.121-.15-.159-.241-.037-.088-.055-.181-.055-.278 0-.096.018-.191.058-.283.038-.093.094-.174.169-.246.065-.071.139-.119.228-.157.09-.039.184-.054.288-.054.099 0 .199.015.29.055.088.037.169.09.241.164.07.068.119.148.156.238.035.09.054.187.054.291 0 .097-.019.191-.054.281-.037.087-.095.166-.162.231-.077.073-.157.127-.25.163-.082.039-.185.058-.284.058-.095 0-.189-.021-.279-.058m-.04-1.477c-.099.042-.193.1-.271.18-.081.088-.144.18-.189.285-.045.109-.066.216-.066.326 0 .115.021.222.061.325.041.101.105.194.186.276.083.083.171.146.279.188.099.046.212.069.323.069.112 0 .219-.023.324-.069.103-.042.199-.105.285-.187.083-.079.142-.167.185-.273.043-.102.064-.212.064-.329 0-.11-.021-.217-.064-.322-.043-.105-.102-.196-.185-.275-.081-.085-.169-.147-.28-.188-.099-.046-.214-.067-.329-.067-.116 0-.224.021-.323.061m-14.319.668c.238-.213.132.064.045.217-.069.146-.284.32-.452.382-.016.007-.027.01-.036.01-.101 0 .223-.43.443-.609m.897-.495c.13-.081.3-.063.256 0-.061.09-.748.837-.828.837h-.003c-.151-.045.469-.726.575-.837m-1.282-.81c0-.084.146-.217.385-.344 0 0 .107 0 .132.09.014.082-.218.143-.304.208-.053.053-.124.093-.169.093-.027 0-.044-.014-.044-.047m6.57.577c-.066-.148.044-.343.106-.426.087-.087.236-.405.3-.514.062-.107.213-.107.19-.02-.04.081-.167.299-.254.383-.093.079-.258.6-.324.6-.007 0-.013-.007-.018-.023m-5.713-1.201c.032-.067.087-.03.116-.006l.003.041c-.015.031-.047.081-.119.097 0 0-.023-.061 0-.132m-.984.071c-.065-.071-.025-.153.043-.277.084-.129.576-.603.707-.752.094-.114.189-.226.294-.273l.027.691c-.059.048-.129.093-.173.137-.064.106-.197.212-.279.197-.084-.027-.062-.176-.193-.091-.092.055-.197.404-.344.404-.026 0-.053-.011-.082-.036m-.43-.24c-.065-.105.279-.493.405-.661.13-.15.708-.668.879-.73.03-.011.093-.027.17-.047l.01.191c-.16.062-.213.142-.351.225-.171.082-.834.834-1.008 1.022 0 0-.028.039-.058.039-.015 0-.032-.01-.047-.039m2.8-1.628c.128-.011.23-.017.284-.017.256-.027.082.192-.091.296-.029.02-.098.037-.186.042l-.007-.321zm2.12-10.162l.09.432.425-.09.196 6.87-1.843 3.942c-.388.09-.758.17-.945.198l-.019-.092-.011-.426c.006 0 .009-.001.011-.006.195-.109.964-.576 1.024-.683.09-.086.154-.301.198-.386.039-.063-.086-.172-.151-.043-.088.128-.088.236-.279.236-.163 0-.532-.023-.822-.029l-.053-2.33 1.521-3.891v-.258l-.561-2.311.259-.147v-.406h.149l.084.535.215-.129-.065-.579.15-.126.107.428.32-.709zM9.672.024c-.04.053-.164.11-.246.163-.035.02-.139.372-.182.529L9.159.71C9.137.643 9.137.495 9.137.495c-.085.024-.213.131-.147.166.04.052.032.112.066.108l-.048.197.236.277-.254.299-.346-.189.13.321v.082l-.319-.233-.193.257.621.299-.045.172-.854-.214-.193.193 1.027.361-.023.299-1.09-.425-.108.19.813.641-.017.108-.906-.492s-.211.452-.04.602c.171.148.92.387.92.387l-.749-.047.043.579.833 1.051v.339h-.168L7.105 4.498 5.351 3.194l-1.457.36-.024.128.841-.146h.278l-.043.188-.901.218.042.146.877-.254.087.02v.147l-1.113.386.898-.08.046.317-.58.518.085.124 1.091-.896.11.063-.024.13-.96.853.107.107.789-.729.148.066v.128l-.792.708.24.063.082-.043.47-.45h.174v.15l-.471.432.254.19.368-.303.085.088.02.13-.237.211-.019.385.448.472v.149l-.212.196.427.447-.024.173-.215.066-.362-.384-.236-.023-1.153-1.266-.017-.004c-.13-.067-1.887-.767-1.887-.767l-.667-.059-.08.193c.519.057.752.099.752.099l.072.154-.507-.105-.942.254.023.131.575-.152.09.129-.025.104-.425.046-.088.086.129.087.149-.026.472-.17.236-.023-.021.132-.728.257v.128l.128.042.513-.15v.172l-.43.127.344.132.282.187.297-.187.128.105-.17.554.042.047.298-.536.107.147-.234.516.234.45.43.107-.024.212.088.132.231-.089.239.687h.064l.023-.709.083-.128.131.128v.726l.446-.017.558-.598.108.146-.217.217.154.446 1.988.45-.02.233-1.905-.361s-3.673 1.005-3.734 1.044c-.182.119-.502.263-.613.347-.125.106-.512.427-.512.427l.127.191s.429-.404.496-.449c.277-.169.468-.278.468-.278s.407-.156.532-.173l-.024.115L0 12.992l.065.129.663-.301-.404.538.278.064.727-.965.937-.684.109.214-.918.641-.599.774.256.146.234-.19.064.064-.064.126.215.022.428-.472h.17v.11l-.213.231.318.024.474-.643.171-.021-.278.559h.235l.428-.707.13-.023.018.171-.299.449h.172l.364-.729.151-.042-.215.705.15.026.255-.859.107-.022-.126.815h.214l.108-1.263.235-.019-.15 1.132h.472l.126-.643h.15l.832.344.602-.236.984-.878.15.065-.044.3-.79.621-2.056 3.315.386.068.534-1.093.128.107-.212.704.469-.298.087-.814h.062l.087.687.192-.041.048-.712.167-.017.108.554h.277l.066-.816.147-.016v.703l.172.025.022-1.137.085-.105.191-.026.132-.471.104-.017.062.147.154-.041.063-.427h.065l.386 2.503-1.926 4.345.096 2.134c-.085.018-.161.043-.204.065-.514.299-.876.71-1.37 1.374-.468.684-.406.725-.578.813-.191.062 0-.39.046-.559.042-.188 0-.511-.158-.53-.146 0-.273.08-.314.317-.065.237-.344.623-.429.704-.111.109-.194-.211-.043-.404.149-.192.64-.964.814-1.09.172-.124.49-.234.553-.367.089-.105.238-.361.154-.422-.089-.095-.217-.027-.346.147-.105.15-1.409 1.946-1.538 2.075-.064.075-.09.032-.123-.012-.022-.031-.048-.061-.091-.05-.108.021-1.2 1.218-1.39 1.408-.194.192-.237.109-.109-.062.129-.192.449-.58.472-.75.021-.171.021-.364-.173-.131-.17.174-.963 1.179-1.089 1.329-.129.153-.881 1.136-.902 1.263-.04.13.021.276.154.153.126-.13.231-.367.339-.387.052-.01.099.034.148.077.052.048.107.095.172.076.131-.046.647-.647.751-.688.128-.045.323-.195.342-.302.021-.105.622-.814.728-.899.107-.063.191-.02.107.109-.063.131-.512.729-.512.79 0 .065.063.213.192.257.107.063.02.172.087.235.062.046.233-.124.341-.279.085-.148.234-.274.32-.274.087 0 .047.061-.022.147-.044.107-.298.406-.298.511-.024.111.126.41.32.302.212-.129.514-.686.706-.834.191-.153.257-.214.342-.298.064-.109.191-.088.108.065-.085.148-.386.597-.429.66-.044.091 0 .278.151.303.147.021.297-.025.361-.212.088-.215.174-.497.258-.518.067-.044.067.087 0 .192-.044.111-.125.216-.112.297.048.089.132.043.265-.016.124-.046.275-.13.34-.281.065-.15.193-.386.276-.472.089-.064-.062.28-.105.428-.041.175-.149.472-.13.557.024.106.044.087-.084.174-.108.105-.575.598-.682.66-.109.046-.259.089-.302.178-.023.102.062.144.17.167.106.021.239-.191.3-.279.064-.086.514-.576.622-.621.084-.059.3-.127.3-.127 0 .127.041.279.128.255.106-.043.424-.255.512-.407.087-.173.214-.382.322-.402.086-.025.191-.111.191.02 0 .127-.083.32-.191.449-.126.129-.299.323-.322.387-.021.083.151.147.196.041.062-.105.254-.495.341-.622.086-.128.511-.578.641-.663.149-.068.537-.172.513.061-.02.216-.106.497-.234.602-.109.085-.237.127-.344.214-.104.065-.192.344-.083.49.083.133.19.28.297.217.13-.064.021-.236.13-.43.128-.19.471-.642.664-.791.189-.17.535-.746.682-.812.15-.042.366.043.213.277-.171.257-.404.299-.445.449-.067.151-.067.326-.131.495-.083.17-.297.275-.319.408-.023.131.128.444.236.444.104 0 .214-.363.339-.47.129-.107.451-.51.559-.642.083-.149.32-.512.447-.531.127-.022.149.104.044.232-.087.127-.194.345-.365.492-.17.152-.104.492-.043.386.088-.081.15-.301.237-.363.106-.065 0 .149.106.191.106.023.406.023.556-.042.152-.087.385-.26.557-.406.171-.149.621-.707.749-.745.147-.048.297-.027.259.126-.068.148-.707.876-.986 1.158-.276.275-.537.465-.537.594 0 .129.173.236.28.152.085-.109.448-.709.579-.814.128-.085.62-.815.748-.881.13-.08.236-.08.236.066 0 .15.02.621.126.663.132.025.386-.427.472-.533.172-.196.386-.298.235 0-.19.387-.129.491.151.192.104-.127.321-.534.449-.597.131-.065.083.063.043.209-.043.152.15.216.277.24.128.021.324-.024.556-.281.236-.256.646-.578.772-.64-.045.214-.661.77-.644.877.024.106.152.317.087.406-.087.065-.815.598-.88.704-.08.133.088.024.217-.056.127-.09.6-.496.789-.583.172-.084.305.062.431.062.108-.018.362-.255.557-.278.17-.041.405-.084.491-.041.085.041-.215.215-.298.301-.065.064.171.124.298.064.126-.046 1.029-.448 1.132-.387.107.063-.04.214 0 .256.044.067.258-.061.407-.131.154-.062.494 0 .666.198.19.17.408.105.427.018.022-.104-.087-.187-.255-.278-.172-.063-.51-.172-.6-.279-.107-.083-.215-.148-.148-.233.085-.085.126-.195.017-.195-.084 0-.361-.127-.493.023-.124.172-.34.153-.294.087.038-.087.404-.727.873-.879.473-.148 1.241-.211 1.177-.577-.04-.363-.296-.193-.446-.084-.153.084-1.287.942-1.566 1.303-.038.063-.342 0-.468 0-.129 0-.493-.02-.666.086-.171.107-.322.195-.386.168-.041-.041.367-.254.408-.381.023-.13-.169-.171-.169-.299 0-.104-.046-.173-.15-.237-.108-.042-.472-.278-.602-.254-.128.022-.573.022-.64.127-.089.107-.301.213-.301.127 0-.081.194-.215.212-.322.021-.083-.105-.127-.187-.083-.11.044-.601.385-.687.363-.107-.039-.085-.148 0-.255.107-.108.535-.622.598-.772.089-.149-.127-.111-.211-.02-.107.08-.731.621-.86.767-.124.132-.405.495-.489.624.065-.281.618-1.35.791-1.627.171-.258.982-1.543 1.218-1.696.236-.147.73-.379.878-.531.15-.15.3-.299.255-.474-.042-.165-.083-.361-.361-.06-.278.298-1.157 1.367-1.388 1.647-.221.279-.345.728-.538.752-.173.015-.237.043-.388.172-.146.129-.681.742-.835.596-.06-.062.433-.558.601-.816.172-.229.729-1.433.709-1.579-.023-.153-.044-.343-.109-.343-.042 0-.151.214-.277.404-.131.214-.386.792-.45 1.048-.082.258-.235.533-.363.533-.13 0-.151-.146-.045-.338.088-.216.258-.814.367-1.093.105-.277.36-.793.448-1.002.065-.198-.088-.302-.192-.066-.129.275-.365.961-.491 1.238-.132.279-.473 1.222-.69 1.584-.23.34-.275.6-.384.621-.084.046-.061-.15 0-.298.087-.154.515-.577.452-.709-.068-.144-.17-.254-.259-.125-.084.125-.233.188-.361.188-.108 0-.298.157-.408.286-.086.124-.3.36-.362.338-.089-.041.084-.253.191-.406.127-.149.879-.857.984-.876.083-.041 0-.146-.174-.041-.19.104-.513.382-.618.361-.107-.041-.039-.175.089-.301.148-.109.748-.408.81-.491.04-.085-.085-.192-.19-.131-.084.051-.539.355-.934.545l1.381-3.731-.641-6.805.36-.047.346 1.118.127.127.343-1.198.192.066-.15 1.155.214.106.149-.706h.192l-.107.683h.258l.193-.642v-.619h.129l.126.551-.19.733.15-.023.301-.71h.148l-.193.884.364.447.15-.727h.15l.041.406.322.255.43.066-.108-.511h.169l.449.748h.238s.363.509.469.509c.107 0 0-.447-.039-.551-.023-.108.084-.108.191-.086.108.041.191.384.191.384l.175.109v-.151h.273l.108.192.17.023.193.167-.04-.596.13-.042.085.171.063.319.105-.019.428-.258.214.321.13-.063-.822-1.108.213-.044.545.703.107.02.085-.111-.9-1.119-.629-.236-.014-.012-2.695-1.285-2.547-.855-1.026-.212-.043-.299 1.625.338.688-.167-.087-.559h.214l.083.321.152.216h.364l.063-.537h.17l.045.515s.491.318.471.148c-.023-.191-.172-.449-.043-.468.129-.045.191.385.191.385l.322.044.109-.174.171-.024-.319-.149v-.167l.319-.041.297.126.28-.195-.557-.196.043-.147s.429.067.514.107c.063.04.042.175.195.175.146 0 .234-.15.17-.215-.086-.09-.579-.237-.706-.297-.11-.086-.132-.153-.023-.153.129 0 1.028.343 1.199.343.169 0 .214-.11.065-.13-.148-.021-1.199-.192-1.414-.385-.063-.086-.577-.061-.856-.061-.278 0-1.692-.044-1.818-.067-.111-.021-.043-.305.104-.319.077-.012.168.009.259.032s.181.044.253.032c.153-.021.281-.303.281-.303s.493.328.58.391c.063.039.189-.109.084-.138-.084-.014-.344-.126-.386-.253-.063-.103 0-.17.126-.15.111.047.288.131.388.111.108-.026 0-.369.108-.387.084-.045.408-.045.408-.045L15.861 7l-.54-.195.024-.17.661-.211-.595-.132.126-.212.384.128.558.084c.212.045-.131-.128-.302-.212-.171-.062-.383-.19-.383-.19s-.088-.131.105-.131c.195 0 .771.364.963.364.195 0 .301-.17.045-.192-.237-.022-.73-.215-.856-.301-.13-.061-.045-.17.126-.17.171 0 .986.43 1.203.43.234 0 .724-.155.148-.282-.315-.07-.671-.202-.962-.309l.064-.035 1.345.196v-.194l-1.009-.163.229-.035.152-.026.37-.034.066-.126-1.213.155-.027-.005-.549.136c-.415.071-2.012.532-2.191.548l-1.648.988-.919.893-.216-.214.813-.791-.15-.428 1.008-.468-.042-.107-.26.107-.019-.554.835-.088-.708-.152.085-.257.815.067-.171-.197V4.37l.34-.175v-.083l-.917.301-.279.02.257-.238.917-.274.046-.15-.986.278v-.107l.769-.302.106-.169-.616.129v-.129l.963-.683-1.239.434-.009-.054 1.268-.703-.02-.172-2.524 1.389h-.003l-.007.005-.01.009V3.7l-.58.453-.859 1.113-.254-.171 1.175-1.433v-.235l-.49.318-.111-.021v-.17l.601-.448-.087-.235-.365.235-.191.022.042-.34.514-.277-.106-.108-.512.252h-.13v-.144l.431-.304-.131-.17-.557.406-.15.022.023-.132.384-.317-.062-.182c.219-.124.574-.355.574-.355l-.02-.11-.591.37-.049-.155.382-.231-.062-.066-.64.323-.111-.109.751-.511-.473.145-.083-.108.364-.236-.023-.13-.448.198-.015-.086c.159-.077.364-.214.364-.214s.065-.188-.02-.148c-.092.035-.326.245-.37.279-.01.012-.021.026-.033.039h-.007c.051-.165.111-.367.127-.375.11-.063.276-.156.276-.156S9.76 0 9.708 0c-.01 0-.021.007-.036.024"/></svg>