<?xml version="1.0" encoding="utf-8"?>
<!-- Generator: Adobe Illustrator 22.0.1, SVG Export Plug-In . SVG Version: 6.00 Build 0)  -->
<svg version="1.1" id="Layer_1" xmlns="http://www.w3.org/2000/svg" xmlns:xlink="http://www.w3.org/1999/xlink" x="0px" y="0px"
	 viewBox="0 0 58.455 19.301" enable-background="new 0 0 58.455 19.301" xml:space="preserve">
<path d="M3.464,10.658V1.283H0V0h8.682v1.283H5.211v6.69C4.231,8.542,3.464,10.658,3.464,10.658"/>
<path d="M11.837,0V5.83h4.994V0h1.765v5.475c0,0.65-0.13,1.101-0.394,1.337c-0.262,0.241-0.762,0.361-1.495,0.361h-4.746
	c-0.73,0-1.222-0.118-1.479-0.357c-0.258-0.236-0.385-0.682-0.385-1.341V0H11.837z"/>
<path d="M20.191,7.174V0h6.462c0.592,0,1.018,0.112,1.284,0.324c0.266,0.221,0.398,0.577,0.398,1.069v1.689
	c0,0.487-0.132,0.838-0.398,1.05c-0.266,0.217-0.692,0.325-1.284,0.325h-0.987l3.412,2.717h-2.507l-3.006-2.717h-1.651v2.717H20.191
	z M25.907,1.233h-3.993v1.989h3.993c0.305,0,0.512-0.042,0.625-0.133c0.114-0.086,0.17-0.236,0.17-0.445V1.815
	c0-0.21-0.056-0.358-0.17-0.449C26.419,1.277,26.212,1.233,25.907,1.233"/>
<polygon points="34.04,1.283 34.04,7.174 32.293,7.174 32.293,1.283 28.83,1.283 28.83,0 37.513,0 37.513,1.283 "/>
<polygon points="38.924,7.174 38.924,0.001 40.688,0.001 40.688,5.83 46.313,5.83 46.313,7.174 "/>
<polygon points="47.438,7.174 47.438,0.001 55.134,0.001 55.134,1.266 49.201,1.266 49.201,2.836 52.655,2.836 52.655,4.067 
	49.201,4.067 49.201,5.83 55.223,5.83 55.223,7.174 "/>
<path d="M7.607,15.817V8.642h6.448c0.603,0,1.036,0.113,1.302,0.325c0.262,0.221,0.395,0.576,0.395,1.069v0.858
	c0,0.326-0.103,0.595-0.314,0.806c-0.211,0.206-0.514,0.348-0.911,0.422c0.402,0.064,0.714,0.217,0.94,0.458
	c0.222,0.243,0.338,0.544,0.338,0.908v0.919c0,0.472-0.187,0.822-0.56,1.057c-0.367,0.234-0.925,0.353-1.671,0.353H7.607z
	 M13.25,9.81H9.331v1.699h3.919c0.305,0,0.511-0.039,0.623-0.116c0.112-0.079,0.167-0.212,0.167-0.398v-0.68
	c0-0.187-0.054-0.318-0.163-0.393C13.77,9.847,13.56,9.81,13.25,9.81 M13.25,12.694H9.331v1.83h3.919
	c0.335,0,0.558-0.047,0.675-0.141c0.122-0.095,0.18-0.26,0.18-0.497v-0.549c0-0.236-0.058-0.401-0.18-0.498
	C13.808,12.741,13.585,12.694,13.25,12.694"/>
<polygon points="17.181,15.817 17.181,8.642 24.879,8.642 24.879,9.911 18.945,9.911 18.945,11.478 22.401,11.478 22.401,12.708 
	18.945,12.708 18.945,14.473 24.966,14.473 24.966,15.817 "/>
<path d="M25.554,15.818l4.259-7.175h1.682l4.323,7.175h-1.966l-0.902-1.575h-4.744l-0.904,1.575H25.554z M28.948,12.934h3.29
	l-1.673-2.993L28.948,12.934z"/>
<path d="M43.047,9.96h-4.715v4.481h4.715v-1.524l1.763,0.356v0.845c0,0.65-0.129,1.098-0.388,1.337
	c-0.261,0.241-0.755,0.362-1.489,0.362h-4.484c-0.722,0-1.216-0.119-1.473-0.358c-0.264-0.237-0.392-0.683-0.392-1.341v-3.786
	c0-0.654,0.128-1.098,0.389-1.333c0.255-0.237,0.75-0.357,1.476-0.357h4.484c0.737,0,1.235,0.12,1.492,0.357
	c0.258,0.235,0.385,0.679,0.385,1.333v0.698l-1.763,0.257V9.96z"/>
<path d="M53.575,16.616v-3.825h-5.459v3.026H46.35V8.642h1.766v2.727h5.459V8.642h1.746v10.659
	C55.321,19.301,54.592,17.357,53.575,16.616"/>
<path d="M57.595,14.107c0.116,0,0.23,0.021,0.331,0.067c0.11,0.041,0.198,0.103,0.28,0.187c0.083,0.08,0.141,0.17,0.184,0.276
	c0.044,0.105,0.065,0.212,0.065,0.322c0,0.117-0.021,0.227-0.065,0.329c-0.043,0.106-0.101,0.194-0.184,0.273
	c-0.086,0.081-0.183,0.146-0.286,0.187c-0.105,0.046-0.212,0.069-0.325,0.069c-0.11,0-0.221-0.023-0.321-0.069
	c-0.109-0.041-0.198-0.106-0.279-0.189c-0.082-0.081-0.146-0.174-0.188-0.276c-0.038-0.102-0.059-0.21-0.059-0.324
	c0-0.11,0.021-0.217,0.065-0.326c0.045-0.106,0.109-0.197,0.189-0.284c0.077-0.081,0.172-0.139,0.272-0.181
	C57.374,14.128,57.479,14.107,57.595,14.107 M58.343,14.97c0-0.104-0.02-0.201-0.054-0.291c-0.037-0.09-0.086-0.17-0.157-0.238
	c-0.072-0.074-0.152-0.127-0.241-0.164c-0.091-0.04-0.191-0.056-0.29-0.056c-0.103,0-0.199,0.016-0.287,0.054
	c-0.089,0.039-0.163,0.086-0.229,0.158c-0.075,0.071-0.132,0.153-0.169,0.246c-0.04,0.091-0.058,0.187-0.058,0.283
	c0,0.097,0.018,0.19,0.055,0.279c0.037,0.09,0.089,0.168,0.159,0.24c0.073,0.071,0.153,0.126,0.242,0.164
	c0.088,0.037,0.183,0.057,0.278,0.057c0.099,0,0.202-0.018,0.285-0.057c0.091-0.036,0.171-0.09,0.249-0.163
	c0.068-0.066,0.126-0.144,0.163-0.231C58.323,15.161,58.343,15.066,58.343,14.97 M57.62,14.458c0.137,0,0.235,0.025,0.303,0.069
	c0.067,0.045,0.1,0.11,0.1,0.197c0,0.07-0.017,0.126-0.055,0.172c-0.042,0.044-0.092,0.077-0.163,0.091l0.215,0.442h-0.205
	l-0.195-0.413h-0.183v0.413h-0.184v-0.971H57.62z M57.591,14.58h-0.154v0.319h0.155c0.088,0,0.149-0.012,0.191-0.037
	c0.035-0.023,0.054-0.063,0.054-0.118c0-0.055-0.022-0.1-0.059-0.125C57.738,14.591,57.674,14.58,57.591,14.58"/>
</svg>
