<?xml version="1.0" encoding="utf-8"?>
<!-- Generator: Adobe Illustrator 22.0.1, SVG Export Plug-In . SVG Version: 6.00 Build 0)  -->
<svg version="1.1" id="Layer_1" xmlns="http://www.w3.org/2000/svg" xmlns:xlink="http://www.w3.org/1999/xlink" x="0px" y="0px"
	 viewBox="0 0 42.76 54.12" enable-background="new 0 0 42.76 54.12" xml:space="preserve">
<linearGradient id="SVGID_1_" gradientUnits="userSpaceOnUse" x1="21.38" y1="54.116" x2="21.38" y2="-9.094947e-13">
	<stop  offset="0" style="stop-color:#645938"/>
	<stop  offset="0.1365" style="stop-color:#756842"/>
	<stop  offset="0.5228" style="stop-color:#A18D5D"/>
	<stop  offset="0.8236" style="stop-color:#BCA46D"/>
	<stop  offset="1" style="stop-color:#C6AD73"/>
</linearGradient>
<path fill="url(#SVGID_1_)" d="M40.78,49.33h0.3c0.16,0,0.29,0.02,0.36,0.08c0.07,0.05,0.12,0.14,0.12,0.24
	c0,0.11-0.04,0.18-0.11,0.23c-0.08,0.05-0.2,0.07-0.37,0.07h-0.3V49.33z M40.42,49.09v1.89h0.36v-0.8h0.35l0.38,0.8h0.4l-0.42-0.86
	c0.13-0.03,0.23-0.09,0.32-0.18c0.07-0.09,0.11-0.2,0.11-0.33c0-0.17-0.07-0.3-0.2-0.39c-0.14-0.09-0.33-0.13-0.59-0.13H40.42z
	 M40.54,51.4c-0.17-0.07-0.33-0.18-0.47-0.32c-0.13-0.14-0.23-0.29-0.31-0.46c-0.07-0.18-0.11-0.36-0.11-0.54
	c0-0.19,0.04-0.37,0.12-0.55c0.07-0.18,0.18-0.34,0.33-0.48c0.12-0.14,0.27-0.23,0.44-0.31c0.17-0.07,0.36-0.11,0.56-0.11
	c0.19,0,0.39,0.03,0.57,0.11c0.17,0.07,0.33,0.18,0.47,0.32c0.14,0.13,0.23,0.29,0.3,0.46c0.07,0.18,0.11,0.36,0.11,0.57
	c0,0.19-0.04,0.37-0.11,0.55c-0.07,0.17-0.18,0.32-0.31,0.45c-0.15,0.14-0.31,0.25-0.49,0.32c-0.16,0.07-0.36,0.11-0.56,0.11
	C40.9,51.51,40.71,51.47,40.54,51.4 M40.46,48.53c-0.2,0.08-0.38,0.19-0.53,0.35c-0.16,0.17-0.28,0.35-0.37,0.55
	c-0.09,0.21-0.13,0.42-0.13,0.63c0,0.22,0.04,0.43,0.12,0.63c0.08,0.2,0.21,0.38,0.36,0.54c0.16,0.16,0.33,0.28,0.55,0.37
	c0.19,0.09,0.41,0.13,0.63,0.13c0.22,0,0.43-0.04,0.64-0.13c0.2-0.08,0.39-0.21,0.55-0.36c0.16-0.15,0.28-0.33,0.36-0.53
	c0.08-0.2,0.13-0.41,0.13-0.64c0-0.21-0.04-0.42-0.13-0.63c-0.08-0.2-0.2-0.38-0.36-0.54c-0.16-0.17-0.33-0.28-0.54-0.36
	c-0.2-0.09-0.42-0.13-0.64-0.13C40.86,48.41,40.65,48.45,40.46,48.53 M12.61,49.83c0.46-0.41,0.26,0.13,0.09,0.42
	c-0.13,0.28-0.55,0.62-0.88,0.74c-0.03,0.01-0.05,0.02-0.07,0.02C11.55,51.01,12.18,50.18,12.61,49.83 M13.24,50.49
	c-0.3-0.09,0.91-1.41,1.11-1.63c0.25-0.16,0.59-0.12,0.5,0C14.74,49.04,13.4,50.49,13.24,50.49C13.24,50.49,13.24,50.49,13.24,50.49
	 M11.86,47.29c0-0.16,0.29-0.42,0.75-0.67c0,0,0.21,0,0.26,0.17c0.02,0.16-0.42,0.28-0.59,0.4c-0.1,0.1-0.24,0.18-0.33,0.18
	C11.89,47.38,11.86,47.35,11.86,47.29 M24.64,48.41c-0.13-0.29,0.08-0.67,0.2-0.83c0.17-0.17,0.46-0.79,0.58-1
	c0.13-0.21,0.42-0.21,0.37-0.04c-0.08,0.16-0.32,0.58-0.49,0.75c-0.18,0.15-0.5,1.17-0.63,1.17C24.66,48.46,24.65,48.44,24.64,48.41
	 M13.53,46.07c0.06-0.13,0.17-0.06,0.23-0.01l0.01,0.08c-0.03,0.06-0.09,0.16-0.23,0.19C13.53,46.33,13.48,46.21,13.53,46.07
	 M11.61,46.21c-0.13-0.14-0.05-0.3,0.09-0.54c0.16-0.25,1.12-1.17,1.37-1.46c0.18-0.22,0.37-0.44,0.57-0.53l0.05,1.35
	c-0.12,0.09-0.25,0.18-0.34,0.27c-0.12,0.21-0.39,0.41-0.54,0.39c-0.17-0.05-0.12-0.34-0.38-0.18c-0.18,0.11-0.38,0.79-0.67,0.79
	C11.72,46.28,11.67,46.26,11.61,46.21 M10.78,45.75c-0.13-0.21,0.55-0.96,0.79-1.29c0.26-0.29,1.38-1.3,1.71-1.42
	c0.06-0.02,0.18-0.05,0.33-0.09l0.02,0.37c-0.31,0.13-0.42,0.28-0.68,0.44c-0.33,0.16-1.62,1.62-1.97,1.99c0,0-0.05,0.07-0.11,0.07
	C10.84,45.82,10.81,45.8,10.78,45.75 M16.23,42.58c0.25-0.03,0.45-0.03,0.55-0.03c0.5-0.05,0.16,0.37-0.17,0.57
	c-0.06,0.04-0.19,0.07-0.36,0.08L16.23,42.58z M20.35,22.82l0.18,0.84l0.83-0.18l0.38,13.36l-3.58,7.66
	c-0.75,0.18-1.47,0.33-1.84,0.39l-0.03-0.18l-0.01-0.83c0.01,0,0.01,0,0.01-0.01c0.38-0.21,1.87-1.12,1.99-1.33
	c0.18-0.17,0.3-0.59,0.38-0.75c0.08-0.12-0.17-0.33-0.29-0.08c-0.17,0.25-0.17,0.46-0.55,0.46c-0.32,0-1.04-0.04-1.6-0.06l-0.1-4.53
	l2.96-7.57v-0.5l-1.09-4.49l0.5-0.29v-0.79h0.29l0.16,1.04l0.42-0.25l-0.13-1.13l0.29-0.24l0.21,0.83L20.35,22.82z M18.81,0.05
	c-0.08,0.11-0.33,0.21-0.48,0.32c-0.07,0.04-0.27,0.72-0.35,1.03l-0.16-0.01c-0.04-0.13-0.04-0.42-0.04-0.42
	c-0.17,0.05-0.42,0.25-0.29,0.32c0.08,0.1,0.06,0.22,0.13,0.21l-0.08,0.39l0.45,0.54L17.48,3l-0.67-0.37l0.26,0.62v0.16l-0.62-0.45
	l-0.37,0.5l1.2,0.58l-0.09,0.33l-1.66-0.42l-0.38,0.38l2,0.7L17.1,5.63L14.98,4.8l-0.21,0.37l1.58,1.25l-0.03,0.21l-1.76-0.96
	c0,0-0.41,0.88-0.08,1.17c0.33,0.29,1.79,0.75,1.79,0.75L14.82,7.5l0.08,1.13l1.62,2.04v0.66h-0.33l-2.38-2.58l-3.41-2.53l-2.84,0.7
	L7.53,7.16l1.64-0.29H9.7L9.62,7.25L7.86,7.67l0.08,0.29l1.71-0.49L9.82,7.5v0.29L7.66,8.54L9.4,8.38L9.49,9L8.37,10l0.17,0.24
	l2.12-1.74l0.22,0.12l-0.05,0.25l-1.86,1.66l0.21,0.21l1.53-1.42l0.28,0.13V9.7l-1.53,1.38l0.46,0.12l0.16-0.08l0.91-0.88h0.35v0.29
	l-0.92,0.84l0.5,0.37l0.71-0.59l0.17,0.17l0.04,0.25l-0.46,0.41l-0.03,0.75l0.87,0.92v0.29l-0.41,0.38l0.83,0.87l-0.05,0.33
	l-0.42,0.13l-0.71-0.75l-0.46-0.04l-2.24-2.46L8.71,12.4c-0.25-0.13-3.67-1.49-3.67-1.49l-1.3-0.11l-0.16,0.37
	c1.01,0.11,1.46,0.19,1.46,0.19l0.14,0.3l-0.99-0.2l-1.83,0.49l0.04,0.26l1.12-0.29l0.17,0.25l-0.05,0.2l-0.83,0.09l-0.17,0.17
	l0.25,0.17l0.29-0.05l0.91-0.33l0.47-0.04l-0.05,0.25l-1.41,0.5v0.24l0.25,0.09l1-0.29v0.34l-0.83,0.25L4.2,14l0.55,0.37L5.33,14
	l0.25,0.21l-0.33,1.08l0.08,0.09l0.58-1.04l0.21,0.29l-0.45,1l0.45,0.88l0.83,0.21L6.9,17.12l0.17,0.25l0.45-0.17l0.46,1.33h0.13
	l0.04-1.38l0.16-0.25l0.26,0.25v1.41l0.86-0.03l1.09-1.16l0.21,0.28l-0.42,0.42l0.29,0.87l3.87,0.87l-0.04,0.45l-3.7-0.7
	c0,0-7.15,1.95-7.27,2.03c-0.35,0.23-0.98,0.51-1.19,0.67c-0.24,0.21-1,0.83-1,0.83l0.25,0.38c0,0,0.83-0.79,0.96-0.87
	c0.54-0.33,0.91-0.54,0.91-0.54s0.79-0.31,1.04-0.34L4.4,21.95L0,25.27l0.12,0.25l1.3-0.58l-0.78,1.04l0.54,0.13l1.41-1.88L4.4,22.9
	l0.21,0.41l-1.78,1.25l-1.17,1.51l0.5,0.28l0.46-0.37l0.12,0.13l-0.12,0.24l0.41,0.04l0.83-0.92H4.2v0.21l-0.41,0.45l0.62,0.04
	l0.92-1.25l0.33-0.04l-0.54,1.09h0.46l0.83-1.38l0.25-0.04L6.7,24.9l-0.58,0.87h0.34l0.7-1.42l0.29-0.08l-0.42,1.37l0.29,0.05
	l0.5-1.67l0.21-0.04l-0.25,1.58H8.2l0.21-2.46l0.46-0.04l-0.29,2.2h0.92l0.24-1.25h0.3l1.62,0.67l1.17-0.46l1.91-1.71l0.29,0.12
	l-0.08,0.58l-1.54,1.21l-4,6.45l0.75,0.13l1.03-2.13l0.25,0.21l-0.41,1.37l0.91-0.58l0.17-1.59h0.12l0.17,1.34l0.37-0.08l0.09-1.38
	l0.33-0.03l0.21,1.08h0.54l0.13-1.58l0.28-0.03v1.37l0.33,0.05l0.05-2.21l0.16-0.21l0.37-0.05l0.26-0.91l0.2-0.03l0.12,0.29
	l0.3-0.08l0.13-0.83h0.13l0.75,4.87L13.4,38.3l0.19,4.15c-0.17,0.04-0.31,0.08-0.39,0.13c-1,0.58-1.71,1.38-2.66,2.67
	c-0.91,1.33-0.8,1.41-1.13,1.58c-0.37,0.12,0-0.76,0.09-1.09c0.08-0.37,0-1-0.31-1.03c-0.28,0-0.53,0.15-0.61,0.62
	c-0.13,0.46-0.67,1.21-0.84,1.37c-0.22,0.21-0.38-0.41-0.08-0.79c0.29-0.37,1.24-1.88,1.58-2.12c0.33-0.24,0.96-0.46,1.08-0.71
	c0.17-0.21,0.46-0.7,0.29-0.82c-0.17-0.19-0.42-0.05-0.67,0.29c-0.21,0.29-2.74,3.78-2.99,4.03c-0.12,0.15-0.17,0.06-0.24-0.02
	c-0.04-0.06-0.09-0.12-0.18-0.1c-0.21,0.04-2.33,2.37-2.7,2.74c-0.38,0.37-0.47,0.21-0.22-0.12c0.25-0.37,0.88-1.13,0.92-1.46
	c0.05-0.33,0.05-0.71-0.34-0.26c-0.33,0.34-1.87,2.3-2.12,2.59c-0.25,0.3-1.71,2.21-1.75,2.45c-0.08,0.25,0.04,0.54,0.3,0.3
	c0.24-0.25,0.45-0.71,0.66-0.76c0.1-0.02,0.19,0.07,0.28,0.15c0.1,0.09,0.21,0.18,0.34,0.14c0.25-0.09,1.26-1.25,1.46-1.33
	c0.25-0.09,0.63-0.38,0.67-0.59c0.04-0.2,1.21-1.58,1.41-1.75c0.21-0.12,0.37-0.04,0.21,0.21c-0.13,0.26-1,1.42-1,1.54
	c0,0.13,0.12,0.41,0.37,0.5c0.21,0.13,0.04,0.33,0.17,0.46c0.12,0.09,0.45-0.24,0.66-0.54c0.16-0.29,0.45-0.54,0.62-0.54
	c0.17,0,0.09,0.12-0.04,0.29c-0.09,0.21-0.58,0.79-0.58,1c-0.05,0.21,0.24,0.79,0.62,0.59c0.41-0.25,1-1.34,1.37-1.62
	c0.37-0.3,0.5-0.41,0.67-0.58C8.66,49.66,8.9,49.7,8.74,50c-0.16,0.29-0.75,1.16-0.84,1.28c-0.08,0.18,0,0.54,0.3,0.59
	c0.28,0.04,0.58-0.05,0.7-0.41c0.17-0.42,0.34-0.97,0.5-1.01c0.13-0.08,0.13,0.17,0,0.37c-0.09,0.22-0.24,0.42-0.22,0.58
	c0.09,0.17,0.26,0.08,0.51-0.03c0.24-0.09,0.53-0.26,0.66-0.55c0.13-0.29,0.38-0.75,0.54-0.92c0.17-0.12-0.13,0.55-0.21,0.83
	c-0.08,0.34-0.29,0.92-0.25,1.08c0.05,0.21,0.09,0.17-0.16,0.33c-0.22,0.21-1.12,1.16-1.32,1.29c-0.21,0.09-0.5,0.17-0.59,0.34
	c-0.05,0.2,0.12,0.28,0.33,0.32c0.21,0.04,0.47-0.37,0.58-0.54c0.13-0.16,1-1.12,1.21-1.2c0.16-0.12,0.58-0.25,0.58-0.25
	c0,0.25,0.08,0.54,0.25,0.5c0.21-0.08,0.82-0.5,0.99-0.79c0.17-0.34,0.42-0.74,0.63-0.78c0.17-0.05,0.37-0.22,0.37,0.04
	c0,0.25-0.16,0.62-0.37,0.87c-0.25,0.25-0.58,0.63-0.63,0.76c-0.04,0.16,0.29,0.29,0.38,0.08c0.12-0.21,0.5-0.96,0.67-1.21
	c0.16-0.25,0.99-1.13,1.24-1.29c0.29-0.13,1.04-0.33,1,0.12c-0.04,0.42-0.21,0.97-0.46,1.17c-0.21,0.16-0.46,0.25-0.66,0.42
	c-0.21,0.13-0.37,0.67-0.17,0.95c0.17,0.26,0.37,0.54,0.58,0.42c0.25-0.13,0.04-0.46,0.25-0.84c0.25-0.37,0.92-1.25,1.29-1.54
	c0.36-0.33,1.04-1.45,1.33-1.58c0.29-0.08,0.71,0.08,0.41,0.54c-0.33,0.5-0.79,0.58-0.87,0.87c-0.13,0.29-0.13,0.64-0.25,0.96
	c-0.16,0.33-0.58,0.53-0.62,0.79c-0.05,0.26,0.25,0.87,0.46,0.87c0.2,0,0.41-0.71,0.66-0.91c0.25-0.21,0.88-0.99,1.09-1.25
	c0.16-0.29,0.62-1,0.87-1.03c0.24-0.05,0.29,0.2,0.08,0.45c-0.17,0.25-0.38,0.67-0.71,0.96c-0.33,0.29-0.2,0.96-0.08,0.75
	c0.17-0.16,0.29-0.58,0.46-0.71c0.21-0.13,0,0.29,0.21,0.37c0.21,0.04,0.79,0.04,1.08-0.08c0.3-0.17,0.75-0.5,1.09-0.79
	c0.33-0.29,1.2-1.38,1.46-1.45c0.28-0.09,0.58-0.05,0.5,0.24c-0.13,0.29-1.38,1.7-1.92,2.25c-0.54,0.54-1.05,0.91-1.05,1.16
	s0.33,0.46,0.55,0.29c0.17-0.21,0.87-1.38,1.12-1.58c0.25-0.17,1.21-1.58,1.46-1.71c0.25-0.15,0.46-0.15,0.46,0.13
	c0,0.29,0.04,1.21,0.25,1.29c0.26,0.05,0.75-0.83,0.92-1.04c0.33-0.38,0.75-0.58,0.46,0c-0.37,0.75-0.25,0.95,0.29,0.37
	c0.21-0.25,0.63-1.04,0.88-1.16c0.25-0.13,0.16,0.13,0.08,0.41c-0.08,0.3,0.29,0.42,0.54,0.47c0.24,0.04,0.63-0.05,1.08-0.55
	c0.46-0.5,1.26-1.13,1.5-1.25c-0.09,0.42-1.29,1.5-1.25,1.71c0.04,0.21,0.29,0.62,0.17,0.79c-0.17,0.13-1.59,1.16-1.72,1.37
	c-0.16,0.26,0.17,0.05,0.42-0.11c0.25-0.18,1.17-0.97,1.54-1.14c0.33-0.17,0.59,0.12,0.84,0.12c0.2-0.04,0.7-0.5,1.08-0.54
	c0.33-0.08,0.79-0.16,0.96-0.08c0.17,0.08-0.42,0.42-0.58,0.59c-0.13,0.13,0.34,0.24,0.58,0.13c0.25-0.09,2-0.87,2.2-0.75
	c0.21,0.12-0.08,0.42,0,0.5c0.09,0.13,0.5-0.12,0.79-0.25c0.3-0.12,0.96,0,1.29,0.38c0.37,0.33,0.8,0.2,0.83,0.04
	c0.04-0.2-0.17-0.36-0.49-0.54c-0.33-0.12-0.99-0.33-1.17-0.54c-0.21-0.16-0.42-0.29-0.29-0.45c0.16-0.16,0.24-0.38,0.03-0.38
	c-0.17,0-0.7-0.24-0.96,0.05c-0.24,0.33-0.66,0.3-0.57,0.17c0.08-0.17,0.79-1.42,1.7-1.71c0.92-0.29,2.42-0.41,2.29-1.12
	c-0.08-0.71-0.58-0.38-0.86-0.16c-0.3,0.16-2.51,1.83-3.05,2.54c-0.08,0.12-0.67,0-0.91,0c-0.25,0-0.96-0.04-1.3,0.17
	c-0.33,0.21-0.62,0.38-0.75,0.33c-0.08-0.08,0.71-0.49,0.79-0.74c0.05-0.25-0.33-0.33-0.33-0.58c0-0.2-0.09-0.34-0.29-0.46
	c-0.2-0.08-0.92-0.54-1.17-0.49c-0.25,0.04-1.11,0.04-1.24,0.25c-0.17,0.21-0.59,0.41-0.59,0.25c0-0.16,0.38-0.42,0.41-0.63
	c0.04-0.16-0.21-0.25-0.37-0.16c-0.22,0.08-1.17,0.75-1.34,0.7c-0.21-0.08-0.16-0.29,0-0.5c0.21-0.21,1.04-1.21,1.17-1.5
	c0.17-0.29-0.25-0.22-0.42-0.04c-0.2,0.15-1.42,1.21-1.67,1.49c-0.24,0.26-0.79,0.96-0.95,1.21c0.13-0.54,1.2-2.62,1.54-3.17
	c0.34-0.5,1.91-3,2.38-3.3c0.45-0.28,1.41-0.74,1.7-1.03c0.29-0.29,0.59-0.58,0.5-0.92c-0.08-0.32-0.16-0.7-0.7-0.12
	c-0.54,0.58-2.25,2.66-2.7,3.2c-0.43,0.54-0.67,1.42-1.05,1.46c-0.34,0.03-0.46,0.08-0.76,0.34c-0.28,0.25-1.32,1.44-1.62,1.16
	c-0.12-0.12,0.84-1.09,1.17-1.59c0.34-0.45,1.42-2.79,1.38-3.07c-0.04-0.3-0.08-0.67-0.21-0.67c-0.09,0-0.3,0.42-0.54,0.79
	c-0.25,0.42-0.75,1.54-0.88,2.04c-0.16,0.5-0.45,1.04-0.7,1.04s-0.29-0.28-0.09-0.66c0.17-0.42,0.5-1.58,0.72-2.12
	c0.2-0.54,0.7-1.55,0.87-1.95c0.13-0.39-0.17-0.59-0.38-0.13c-0.25,0.53-0.71,1.87-0.95,2.41c-0.26,0.54-0.92,2.38-1.34,3.08
	c-0.45,0.66-0.54,1.16-0.75,1.21c-0.16,0.09-0.12-0.29,0-0.58c0.17-0.3,1-1.12,0.88-1.38c-0.13-0.28-0.33-0.49-0.5-0.25
	c-0.17,0.25-0.45,0.37-0.7,0.37c-0.21,0-0.58,0.31-0.79,0.56c-0.17,0.24-0.58,0.7-0.7,0.66c-0.17-0.08,0.16-0.49,0.37-0.79
	c0.25-0.29,1.71-1.67,1.91-1.7c0.16-0.08,0-0.29-0.34-0.08c-0.37,0.21-1,0.74-1.21,0.7c-0.21-0.08-0.07-0.34,0.17-0.58
	c0.29-0.21,1.45-0.79,1.58-0.96c0.08-0.16-0.16-0.37-0.37-0.25c-0.16,0.1-1.05,0.69-1.82,1.06l2.69-7.25l-1.25-13.24l0.7-0.09
	l0.67,2.17l0.25,0.24l0.67-2.33l0.37,0.13l-0.28,2.25l0.42,0.21l0.29-1.37h0.37l-0.21,1.33h0.5l0.38-1.25v-1.21h0.25l0.25,1.07
	l-0.37,1.42l0.29-0.05l0.58-1.38h0.29l-0.37,1.72l0.7,0.87l0.3-1.41h0.29l0.09,0.79l0.62,0.5l0.83,0.13l-0.2-0.99h0.33l0.88,1.46
	h0.46c0,0,0.7,0.99,0.91,0.99c0.21,0,0-0.87-0.07-1.07c-0.05-0.21,0.16-0.21,0.37-0.17c0.21,0.08,0.37,0.75,0.37,0.75l0.34,0.21
	v-0.29h0.53l0.21,0.37l0.33,0.05l0.38,0.33l-0.08-1.16l0.25-0.08l0.16,0.33l0.12,0.62l0.2-0.04l0.83-0.5l0.41,0.62l0.25-0.12
	l-1.6-2.15l0.42-0.09l1.06,1.37l0.21,0.04l0.17-0.21l-1.75-2.18l-1.22-0.46l-0.03-0.02l-5.24-2.5l-4.95-1.66l-1.99-0.41l-0.09-0.58
	l3.16,0.66l1.33-0.33l-0.17-1.09h0.42l0.16,0.63l0.3,0.42h0.7l0.13-1.04h0.33l0.09,1c0,0,0.95,0.62,0.92,0.29
	c-0.05-0.37-0.33-0.87-0.09-0.91c0.25-0.08,0.37,0.75,0.37,0.75l0.63,0.09l0.21-0.34l0.33-0.05l-0.62-0.29v-0.33l0.62-0.08
	l0.58,0.24l0.55-0.38l-1.08-0.38l0.08-0.29c0,0,0.84,0.13,1,0.21c0.12,0.08,0.08,0.34,0.38,0.34c0.29,0,0.45-0.29,0.33-0.42
	c-0.17-0.18-1.13-0.46-1.37-0.58c-0.21-0.17-0.25-0.3-0.05-0.3c0.25,0,2,0.67,2.33,0.67c0.33,0,0.42-0.21,0.13-0.25
	c-0.29-0.04-2.33-0.37-2.75-0.75c-0.13-0.17-1.12-0.12-1.67-0.12c-0.54,0-3.29-0.09-3.54-0.13c-0.21-0.04-0.08-0.59,0.21-0.62
	c0.15-0.02,0.33,0.02,0.5,0.06c0.18,0.04,0.35,0.09,0.49,0.06c0.3-0.04,0.54-0.59,0.54-0.59s0.96,0.64,1.13,0.76
	c0.12,0.08,0.37-0.21,0.16-0.27c-0.16-0.03-0.67-0.25-0.75-0.49c-0.13-0.2,0-0.33,0.25-0.29c0.21,0.09,0.56,0.26,0.75,0.22
	c0.21-0.05,0-0.72,0.21-0.76c0.16-0.08,0.79-0.08,0.79-0.08l0.42-1.04l-1.05-0.38l0.05-0.33l1.29-0.41l-1.16-0.26l0.25-0.41
	l0.75,0.25l1.09,0.16c0.41,0.09-0.26-0.25-0.59-0.41c-0.33-0.12-0.75-0.37-0.75-0.37s-0.17-0.26,0.21-0.26
	c0.38,0,1.5,0.71,1.87,0.71c0.38,0,0.58-0.33,0.09-0.38c-0.46-0.04-1.42-0.42-1.67-0.58c-0.25-0.12-0.08-0.33,0.25-0.33
	c0.33,0,1.92,0.84,2.34,0.84c0.45,0,1.41-0.3,0.29-0.55c-0.61-0.14-1.31-0.39-1.87-0.6l0.12-0.06l2.61,0.38v-0.38l-1.96-0.32
	l0.44-0.07l0.3-0.05l0.72-0.07l0.13-0.24l-2.36,0.3l-0.05-0.01l-1.07,0.26c-0.81,0.14-3.91,1.03-4.26,1.07l-3.21,1.92l-1.79,1.74
	l-0.42-0.42l1.58-1.54l-0.29-0.83l1.96-0.91l-0.08-0.21l-0.5,0.21L24.05,10l1.63-0.17L24.3,9.54l0.16-0.5l1.59,0.13l-0.33-0.38V8.5
	l0.66-0.34V8L24.6,8.59l-0.55,0.04l0.5-0.46l1.79-0.53l0.09-0.29l-1.92,0.54V7.67l1.49-0.59l0.21-0.33L25.02,7V6.76l1.87-1.33
	l-2.41,0.85l-0.01-0.1l2.46-1.37l-0.04-0.33l-4.91,2.7h-0.01l-0.01,0.01l-0.02,0.02V7.2l-1.13,0.88l-1.67,2.16l-0.5-0.33l2.28-2.79
	V6.67l-0.95,0.62l-0.22-0.04V6.92l1.17-0.88l-0.17-0.46l-0.71,0.46l-0.37,0.04l0.08-0.66l1-0.54l-0.21-0.21l-0.99,0.49h-0.26V4.89
	l0.84-0.59L19.9,3.96l-1.09,0.79L18.52,4.8l0.05-0.26l0.74-0.61l-0.12-0.36c0.42-0.24,1.12-0.69,1.12-0.69l-0.04-0.21l-1.15,0.72
	l-0.1-0.3l0.74-0.45l-0.12-0.13L18.4,3.13l-0.22-0.21l1.46-1l-0.92,0.28L18.56,2l0.71-0.46l-0.04-0.25l-0.87,0.38l-0.03-0.17
	c0.31-0.15,0.71-0.42,0.71-0.42s0.13-0.36-0.04-0.29c-0.18,0.07-0.63,0.48-0.72,0.54c-0.02,0.02-0.04,0.05-0.07,0.08H18.2
	c0.1-0.32,0.22-0.71,0.24-0.73c0.22-0.12,0.54-0.3,0.54-0.3s0-0.39-0.1-0.39C18.86,0,18.84,0.02,18.81,0.05"/>
</svg>
