<?xml version="1.0" encoding="utf-8"?>
<!-- Generator: Adobe Illustrator 22.0.1, SVG Export Plug-In . SVG Version: 6.00 Build 0)  -->
<svg version="1.1" id="Layer_1" xmlns="http://www.w3.org/2000/svg" xmlns:xlink="http://www.w3.org/1999/xlink" x="0px" y="0px"
	 viewBox="0 0 83.3327 11.2544" enable-background="new 0 0 83.3327 11.2544" xml:space="preserve">
<path d="M12.526,0.0031l-3.838,11.119l-4.845,0.004L0,0.0031h4.99l1.273,3.745l1.267-3.745H12.526z M18.8488,8.7344
	c-0.506-0.003-0.958-0.127-1.348-0.378c-0.396-0.253-0.679-0.603-0.855-1.052h4.677c0.003-0.861-0.101-1.583-0.305-2.19
	c-0.213-0.596-0.53-1.121-0.968-1.564c-0.443-0.458-0.963-0.798-1.566-1.03c-0.605-0.237-1.252-0.358-1.963-0.358
	c-1.379,0-2.504,0.424-3.371,1.249c-0.863,0.833-1.299,1.906-1.299,3.222c-0.003,1.383,0.468,2.506,1.418,3.351
	c0.934,0.851,2.183,1.27,3.731,1.27c1.883,0,3.322-0.644,4.326-1.936v-1.541C20.7048,8.4194,19.8768,8.7274,18.8488,8.7344z
	 M16.6878,4.7294c0.209-0.237,0.45-0.357,0.734-0.361c0.325,0.004,0.583,0.127,0.787,0.375c0.197,0.246,0.301,0.582,0.327,1.027
	h-2.153C16.3788,5.3044,16.4878,4.9684,16.6878,4.7294z M27.3146,2.3501l-4.579,0.002v8.774h4.579v-3.275
	c0-1.03,0.227-1.734,0.682-2.109c0.507,0.531,1.124,0.8,1.846,0.798c0.631,0,1.148-0.202,1.536-0.598
	c0.393-0.394,0.593-0.907,0.593-1.555c-0.003-0.607-0.204-1.114-0.596-1.521c-0.406-0.394-0.912-0.587-1.527-0.591
	c-1.108,0.004-1.957,0.673-2.534,2.002V2.3501z M36.9873,11.2529c1.184,0.003,2.141-0.26,2.882-0.778
	c0.743-0.527,1.116-1.243,1.116-2.141c0-0.499-0.117-0.947-0.354-1.334c-0.239-0.391-0.563-0.684-0.966-0.875
	c-0.406-0.196-0.917-0.363-1.531-0.52c-0.609-0.15-0.985-0.295-1.126-0.422c-0.138-0.132-0.204-0.288-0.204-0.46
	c0-0.161,0.062-0.279,0.204-0.377c0.141-0.099,0.317-0.146,0.545-0.146c0.672,0.005,1.364,0.319,2.086,0.952l1.091-2.237
	c-1.091-0.504-2.422-0.755-3.97-0.752c-1.379,0-2.45,0.248-3.214,0.729c-0.756,0.479-1.142,1.165-1.142,2.036
	c0,0.456,0.129,0.872,0.377,1.254c0.253,0.382,0.558,0.673,0.931,0.872c0.38,0.194,0.863,0.378,1.449,0.544
	c0.584,0.164,0.938,0.312,1.076,0.443c0.131,0.139,0.206,0.293,0.206,0.467c0,0.187-0.088,0.344-0.246,0.459
	c-0.159,0.118-0.373,0.176-0.635,0.176c-0.432,0-0.868-0.119-1.315-0.358c-0.444-0.233-0.819-0.565-1.136-0.976l-1.017,2.462
	C33.7523,10.9229,35.3883,11.2529,36.9873,11.2529z M44.842,5.2594c0.568,0,1.009,0.112,1.333,0.342
	c0.316,0.225,0.473,0.544,0.473,0.954c-0.504-0.14-1.029-0.204-1.559-0.201c-0.912-0.003-1.649,0.232-2.212,0.699
	c-0.555,0.48-0.843,1.095-0.843,1.85c0,0.656,0.22,1.209,0.687,1.641c0.45,0.432,1.017,0.652,1.697,0.652
	c0.811-0.003,1.552-0.244,2.23-0.729l-0.003,0.654l4.575,0.004v-4.86c0-1.348-0.37-2.356-1.111-3.002
	c-0.741-0.661-1.886-0.986-3.451-0.986c-1.639,0-3.096,0.346-4.397,1.047l-0.004,2.631C43.142,5.4934,44.001,5.2614,44.842,5.2594z
	 M45.933,9.4194c-0.275,0.004-0.499-0.071-0.683-0.235c-0.173-0.157-0.272-0.361-0.272-0.6c0-0.225,0.09-0.411,0.258-0.554
	c0.167-0.133,0.387-0.208,0.666-0.208c0.219,0.004,0.471,0.047,0.746,0.136v1.226C46.454,9.3484,46.219,9.4234,45.933,9.4194z
	 M57.4926,0h-4.57v11.126h4.57V0z M65.0344,2.3495l-0.004,5.458c-0.184,0.315-0.462,0.463-0.833,0.463
	c-0.556,0-0.828-0.399-0.832-1.192v-4.729h-4.319v5.749c0,0.974,0.284,1.74,0.848,2.286c0.577,0.539,1.327,0.812,2.261,0.812
	c0.644-0.003,1.203-0.125,1.672-0.383c0.469-0.264,0.928-0.672,1.38-1.223l0.024-0.005v1.54h4.382l0.005-8.776H65.0344z
	 M79.8197,6.7906l3.51-4.441h-4.965l-1.194,1.693l-1.245-1.693h-5.262l3.503,4.316l-3.503,4.46h4.898l1.251-1.737l1.24,1.734
	l5.28,0.003L79.8197,6.7906z"/>
</svg>
