<svg xmlns="http://www.w3.org/2000/svg" viewBox="0 0 149.845 149.845"><circle fill="#00642D" cx="74.923" cy="74.923" r="74.923"/><path fill="#FFF" d="M32.244 106.428c.27-.203.505-.38.776-.582l.668.834c1.432 1.794 2.993 3.468 4.625 5.081.711.704 1.42 1.437 1.985 2.256.875 1.268.7 3.024-.318 4.138-.973 1.066-2.172 1.391-3.56.965-.23-.07-.454-.155-.787-.27.092.203.139.339.21.46.784 1.331.868 2.682-.036 3.969-.921 1.311-2.26 1.729-3.815 1.53a4.311 4.311 0 0 1-2.419-1.137c-1.31-1.216-2.626-2.432-3.86-3.723-1.166-1.22-2.23-2.534-3.337-3.809-.09-.104-.161-.226-.284-.402l.68-.65c.199.144.342.25.487.353.56.4 1.043.411 1.615.025.166-.112.321-.242.469-.378 2.132-1.958 4.261-3.919 6.39-5.88.119-.109.233-.222.346-.337.554-.56.703-1.196.37-1.927-.065-.145-.117-.296-.205-.516zm-1 9.729l-3.486 3.35c.821.882 1.596 1.718 2.853 1.492 1.029-.186 1.718-.888 1.998-1.881.364-1.292-.49-2.09-1.365-2.961zm1.28-1.234c.656.731 1.327 1.314 2.275 1.129 1.059-.207 1.81-.897 2.076-1.958.248-.986-.364-1.654-1.044-2.348l-3.306 3.177zm91.78 3.553l.662.6c-1.85 2.135-3.867 4.04-5.986 5.923l-.65-.715c.156-.21.292-.38.414-.56.392-.573.394-1.113-.01-1.677-.138-.195-.31-.369-.48-.538l-6.06-5.968c-.933-.92-1.412-1.008-2.64-.488-.054.023-.116.023-.233.045-.173-.206-.361-.43-.666-.79.183-.111.353-.186.49-.302 1.918-1.63 3.662-3.437 5.35-5.304a11.747 11.747 0 0 1 1.973-1.755c1.049-.73 2.25-.948 3.511-.634 2.062.513 3.631 2.895 2.615 5.22-.062.143-.107.293-.187.515.583.064 1.112.131 1.643.178 1.3.116 2.603.216 3.903.338.386.037.714-.046 1.004-.301.134-.119.276-.228.451-.371l.798.533a49.128 49.128 0 0 1-3.364 4.464c-2.406-.285-4.782-.746-7.182-1.002l-.083.143c.144.172.274.358.434.514.577.56 1.17 1.103 1.747 1.663.772.747 1.432 1.057 2.381.312.029-.022.076-.02.166-.043zm-6-3.561c1-.612 1.412-1.67 1.08-2.672-.25-.754-.76-1.31-1.398-1.755-1.24-.866-2.67-.515-3.428.87l3.747 3.557zm-13.535 2.519c-3.46 2.408-7.11 4.323-11.014 5.863l.332.861c.239-.02.436-.025.63-.055.572-.085 1.031.116 1.378.559.159.203.285.438.398.671.96 1.99 1.915 3.983 2.871 5.976.356.742.73 1.477 1.06 2.232.341.784.229 1.615-.636 2.069-.116.061-.206.171-.34.286l.418.829c4.442-1.803 8.601-3.986 12.538-6.665l-2.026-4.528-.878.595c.06.495.103.933.166 1.368.146 1.02-.162 1.814-1.093 2.335-1.017.57-2.022 1.16-3.035 1.736-.136.078-.29.124-.497.209l-1.831-3.592c.498-.273.932-.518 1.372-.75.874-.461 1.428-.394 1.912.289.032.045.097.066.188.125l.838-.522-2.503-4.335-.835.514c.054.25.146.465.135.675-.015.266-.033.594-.189.78-.499.596-1.224.85-1.935 1.222l-1.783-3.503c1.18-.664 2.283-1.32 3.42-1.909.632-.327 1.257-.163 1.787.307.269.237.522.49.809.76.291-.189.555-.36.891-.58-.867-1.302-1.688-2.534-2.548-3.822zm-23.766 12.209c.28 1.967.56 3.935.832 5.904.14 1.015.301 2.028.384 3.047.07.866-.231 1.252-1.03 1.549-.129.048-.255.103-.439.178l.115.945c2.85-.27 5.58-.65 8.343-1.29l-.21-.944c-.253 0-.452.007-.65-.001-.534-.022-.915-.29-1.136-.764a2.685 2.685 0 0 1-.205-.689c-.362-2.178-.717-4.358-1.07-6.538-.16-.987-.31-1.976-.462-2.943.094-.07.136-.126.189-.138.547-.128 1.094-.256 1.644-.37 1.024-.208 1.649.089 2.144 1.007.15.279.298.559.462.867l1.005-.314-1.207-4.46a54.824 54.824 0 0 1-13.89 2.097l.174 4.564h1.047c.076-.38.133-.715.21-1.044.153-.644.475-1.18 1.153-1.344a8.757 8.757 0 0 1 2.434-.228c.065.358.124.632.163.909zm-19.746-1.873c-.47 2.137-.94 4.273-1.412 6.41-.194.882-.375 1.767-.589 2.644-.24.98-.747 1.346-1.721 1.299-.115-.005-.232.029-.388.05l-.146.892a63.93 63.93 0 0 0 8.181 1.72l.2-.917c-.25-.115-.468-.21-.681-.315-.477-.235-.73-.624-.736-1.152a3.807 3.807 0 0 1 .076-.775c.575-2.914 1.156-5.826 1.74-8.738.041-.208.115-.41.186-.658.748.12 1.444.206 2.129.349.804.166 1.229.707 1.34 1.509.046.335.097.669.151 1.044l1.04.137.43-4.638c-4.74-.375-9.272-1.36-13.728-2.881a142.11 142.11 0 0 0-1.473 4.4l1.004.307c.23-.369.422-.697.635-1.01.396-.58.945-.896 1.65-.756.723.144 1.431.363 2.197.562-.04.246-.055.383-.085.517zm-14.873 6.193c-.611-.461-.773-.97-.512-1.69.088-.244.212-.476.334-.706 1.022-1.935 2.047-3.869 3.073-5.801.377-.71.749-1.422 1.143-2.12.39-.691.987-.97 1.776-.818.152.03.307.05.492.079l.363-.778-6.884-3.814-.466.74c.139.153.228.261.326.36.554.557.617 1.188.288 1.878-.078.163-.167.32-.258.477-1.425 2.47-2.85 4.939-4.28 7.406-.14.242-.288.485-.468.698-.424.501-.952.627-1.573.406-.184-.065-.368-.133-.594-.215l-.488.822a66.135 66.135 0 0 0 7.722 4.271l.457-.854-.451-.341zm58.23-109.709c.05.542.087.997.135 1.452.165 1.558.337 3.116.5 4.674.067.627.338 1.147.864 1.555l-.572.8-4.57-2.932c-.103-1.182-.185-2.383-.319-3.579-.13-1.162-.15-2.34-.366-3.491l-.132-.019c-.08.101-.18.192-.235.305-.434.884-.872 1.766-1.283 2.66-.223.483-.372.998-.047 1.496.138.214.345.383.55.604l-.375.777-6.986-2.909.296-.783c.193 0 .353-.019.508.003.874.12 1.417-.326 1.777-1.054.338-.684.65-1.382.97-2.075l2.849-6.187c.083-.182.166-.367.226-.557.22-.691.057-1.153-.539-1.563-.131-.09-.264-.178-.448-.302l.349-.872c.24.071.45.12.65.194 2.597.978 5.143 2.073 7.6 3.369.926.489 1.816 1.034 2.545 1.806 1.338 1.417 1.542 3.548.466 5.17-.81 1.221-1.976 1.716-3.419 1.59-.298-.026-.594-.078-.995-.132zm-3.754-3.161c.906.697 2.02.785 2.882.271.923-.55 1.552-1.889 1.421-2.945-.088-.72-.942-1.755-2.052-1.982l-2.251 4.656zM82.41 23.73a9.896 9.896 0 0 1-4.065-.699c-3.189-1.262-4.746-4.036-4.522-7.4.064-.966.243-1.913.61-2.814 1.03-2.535 2.951-3.948 5.62-4.351 1.838-.278 3.644-.06 5.392.578 2.948 1.076 4.678 3.55 4.705 6.68.011 1.323-.182 2.604-.718 3.817-1.152 2.602-3.224 3.906-6 4.184-.337.034-.681.005-1.023.005zm2.812-9.079c0-.14.008-.281-.002-.42-.065-.903-.149-1.803-.556-2.632-.873-1.777-3.014-2.057-4.248-.519a5.725 5.725 0 0 0-.887 1.624c-.71 1.975-.887 4.031-.698 6.11.053.586.23 1.19.48 1.726.845 1.818 3.057 2.07 4.27.475.405-.532.7-1.173.93-1.805.532-1.467.64-3.013.71-4.559zm39.831 42.333l-.767.352-3.23-7.144.83-.504c.11.158.192.325.316.452.511.522.953.552 1.544.108a4.19 4.19 0 0 0 .489-.447c.235-.245.458-.501.74-.812l-2.297-3.942c-.563.114-1.08.18-1.573.329-.817.247-1.05.746-.802 1.58.033.112.062.226.102.378l-.79.477-3.089-4.419.802-.609c.67.892 1.526.645 2.388.49 4.192-.752 8.386-1.487 12.58-2.225.097-.017.2-.002.414-.002l2.168 3.9c-.183.228-.31.405-.456.564-2.96 3.205-5.918 6.413-8.887 9.61-.399.428-.604.889-.507 1.473.02.116.016.236.025.391zm1.294-9.396c1.197-1.276 2.357-2.413 3.375-3.7-1.689.219-3.342.461-5.05.835.58.99 1.102 1.884 1.675 2.865zM17.06 41.611l.917.499c.087-.127.152-.258.25-.357.669-.676 1.244-.687 1.933-.04.147.137.28.29.413.44 1.55 1.74 3.1 3.48 4.647 5.223.115.13.213.275.373.484-.203 0-.318.016-.426-.002-2.096-.366-4.191-.735-6.286-1.106-.494-.087-.994-.154-1.477-.282-.861-.228-1.106-.655-.934-1.517.03-.151.04-.307.06-.465-.187-.111-.338-.21-.497-.292-.085-.044-.184-.062-.33-.108a62.436 62.436 0 0 0-3.313 7.256l.923.324c.36-.695.91-.799 1.597-.693 1.388.215 2.787.36 4.178.555 2.684.375 5.365.766 8.048 1.147.232.033.468.041.682.059l1.983-3.713c-.14-.17-.249-.313-.368-.447-1.08-1.218-2.17-2.426-3.241-3.651-1.693-1.936-3.367-3.889-5.063-5.822-.39-.446-.621-.887-.3-1.464.024-.044.003-.114.003-.21-.213-.147-.44-.304-.731-.503-1.07 1.575-2.123 3.057-3.041 4.685zm34.979-17.715c-.17.577-.285 1.179-.524 1.726-1.182 2.7-4.423 3.43-6.615 1.463-1.604-1.439-2.618-3.25-2.982-5.384-.347-2.036.685-3.753 2.593-4.335 1.61-.492 2.913.089 4.02 1.251.149.156.289.32.458.509l.878-.494-2.465-5.018-.865.421c.1.79-.073 1.065-.76 1.255-.252.069-.51.114-.767.16-1.87.334-3.513 1.133-4.894 2.439-1.679 1.588-2.578 3.533-2.488 5.859.077 1.963.87 3.664 2.171 5.115 1.822 2.033 4.094 2.845 6.788 2.338 1.636-.308 3.065-1.075 4.326-2.149 1.338-1.139 2.148-2.584 2.436-4.318.054-.328.08-.66.123-1.03-.465-.1-.85-.185-1.303-.284-.057.21-.091.344-.13.476zm2.427-7.469l.894-.34v-1.21c-.003-.416.108-.792.379-1.117.442-.53 1.887-1.05 2.648-.935.052.18.116.369.162.562.366 1.565.73 3.13 1.092 4.697.308 1.33.619 2.66.918 3.993.228 1.02-.05 1.724-.917 2.109-.086.038-.152.12-.273.216l.238.79 7.637-1.704-.155-.849c-.274-.03-.472-.054-.67-.075-.475-.05-.84-.283-1.065-.696a3.01 3.01 0 0 1-.301-.783c-.644-2.943-1.278-5.889-1.91-8.835-.04-.188-.047-.382-.076-.626.537-.097 1.008-.185 1.479-.266 1.128-.195 1.852.218 2.28 1.29.11.272.23.54.362.848l.97-.177-.588-4.615c-5.012.521-9.805 1.611-14.572 3.25l1.468 4.473zm63.819 9.121c.372.522.388 1.028.032 1.567-.12.183-.27.35-.42.511a2207.4 2207.4 0 0 1-3.928 4.167c-.745.79-1.487 1.58-2.242 2.36-.682.706-1.301.81-2.17.395-.123-.058-.254-.1-.422-.166l-.553.677 5.67 5.494.637-.598c-.035-.122-.038-.188-.07-.234-.663-.98-.37-1.769.388-2.517 2.145-2.118 4.262-4.264 6.391-6.399.071-.07.146-.138.226-.199.576-.439 1.053-.447 1.658-.034.144.098.29.192.441.29.142-.116.256-.197.355-.293.112-.108.21-.23.335-.37a61.187 61.187 0 0 0-6.039-5.842l-.655.708c.15.197.262.337.366.483zM24.98 32.361c.566-.428 1.087-.45 1.663-.05.18.124.345.275.507.425 1.107 1.024 2.212 2.05 3.317 3.075 1.047.97 2.085 1.95 3.142 2.908.756.686.974 1.528.453 2.369-.05.081-.07.182-.118.316l.672.537 5.452-5.717-.605-.638c-.154.075-.263.124-.368.18-.87.457-1.408.4-2.143-.24-.167-.146-.324-.302-.482-.457-1.896-1.856-3.793-3.711-5.687-5.57-.258-.253-.524-.505-.743-.79-.434-.565-.432-1.014-.042-1.606l.34-.524-.689-.64a62.445 62.445 0 0 0-5.816 6.103l.708.65.439-.331z"/><path fill="#00AA4F" d="M7.114 78.952l1.02-.138v.06c0 .351.051.618.152.796.1.18.253.267.458.267.18 0 .319-.063.416-.188.097-.126.145-.304.145-.536 0-.16-.03-.317-.1-.47a2.26 2.26 0 0 0-.309-.496c-.135-.163-.36-.417-.686-.768-.32-.348-.538-.615-.649-.797a3.05 3.05 0 0 1-.277-.592 1.73 1.73 0 0 1-.094-.546c0-.48.139-.859.413-1.141.274-.28.638-.42 1.102-.42.472 0 .843.14 1.117.43.274.282.423.686.44 1.2l-.964.113c-.017-.314-.076-.54-.17-.683a.476.476 0 0 0-.423-.214.427.427 0 0 0-.346.17.68.68 0 0 0-.136.435c0 .157.042.327.132.518.09.188.219.373.382.558.058.072.152.175.277.31.44.49.735.84.888 1.054a2.235 2.235 0 0 1 .434 1.339c0 .464-.15.84-.445 1.128-.298.292-.68.44-1.147.44-.486 0-.867-.157-1.148-.474-.281-.317-.44-.765-.482-1.355m4.917-4.837h-1.068v6.537h1.068v-6.537zm2.018 6.537a74.824 74.824 0 0 0-.083-2.84 56.117 56.117 0 0 0-.198-2.722l1.776 5.562h.898v-6.537h-.964v.48c0 .768.024 1.53.066 2.291.045.76.11 1.518.198 2.273l-1.62-5.044h-1.03v6.537h.957zm6.76-2.312h-1.088v.62c0 .346-.052.596-.156.753-.104.154-.267.232-.492.232-.226 0-.389-.078-.493-.232-.104-.157-.156-.407-.156-.752v-3.158c0-.342.052-.592.156-.75.104-.153.267-.231.493-.231.225 0 .388.078.492.232.104.157.156.407.156.75v.517h1.089v-.326c0-.653-.146-1.151-.44-1.493-.295-.342-.729-.51-1.298-.51-.617 0-1.06.18-1.331.545-.27.363-.41.96-.41 1.784v2.122c0 .828.14 1.424.41 1.79.27.364.714.546 1.331.546.57 0 1.003-.172 1.297-.514.295-.342.44-.847.44-1.511v-.414zm3.771 2.312v-.878h-1.959v-2.079h1.405v-.893H22.62v-1.81h1.793v-.878h-2.86v6.538h3.027zm104.767-.032v-6.684h-.62a4.503 4.503 0 0 1-.612.477c-.202.13-.415.234-.63.313v.584h.896v5.31h.966zm1.735-3.543a.774.774 0 0 0-.475.458c-.093.225-.14.61-.14 1.157 0 .76.113 1.295.332 1.598.22.306.588.458 1.11.458.508 0 .873-.149 1.1-.449.225-.3.334-.799.334-1.49 0-.617-.043-1.04-.136-1.268a.753.753 0 0 0-.475-.464.741.741 0 0 0 .425-.423c.093-.215.14-.515.14-.907 0-.689-.103-1.169-.312-1.434-.21-.269-.568-.404-1.076-.404-.498 0-.854.132-1.07.388-.212.262-.318.705-.318 1.333 0 .446.043.777.132.998.083.222.23.37.429.45m1.285 1.667c0 .452-.036.761-.103.923-.07.16-.19.243-.355.243-.173 0-.289-.08-.356-.23s-.096-.465-.096-.936c0-.47.03-.78.096-.935.067-.155.183-.23.356-.23.166 0 .285.078.355.24.067.164.103.47.103.925m-.458-2.123a.322.322 0 0 1-.319-.211c-.066-.143-.096-.383-.096-.727s.03-.588.096-.727a.322.322 0 0 1 .319-.211c.143 0 .249.073.315.218.063.145.097.385.097.72 0 .345-.034.585-.097.727-.063.142-.17.211-.315.211m2.65 2.122c-.003.031-.003.063-.006.101-.003.038-.003.095-.003.164 0 .581.12 1.014.355 1.305.24.29.595.436 1.073.436.495 0 .857-.142 1.09-.42.228-.281.344-.727.344-1.333v-1.33c0-.581-.082-1.002-.242-1.264-.16-.259-.418-.388-.774-.388a1.1 1.1 0 0 0-.451.094c-.14.067-.263.162-.369.288l.037-1.494h1.673v-.87h-2.507l-.116 3.362h.843a.696.696 0 0 1 .13-.391.372.372 0 0 1 .302-.136c.17 0 .292.07.365.208.077.14.113.367.113.686v1.485c0 .214-.033.379-.106.49a.348.348 0 0 1-.316.164c-.156 0-.269-.067-.335-.2-.07-.132-.103-.353-.103-.663 0-.076 0-.136.003-.177 0-.038.004-.079.004-.117h-1.003m6.374 1.876v-1.4h.63v-.806h-.63v-4.378h-1.023l-1.644 4.29v.894h1.737v1.4h.93zm-1.936-2.206l1.179-3.206c-.057.37-.1.68-.126.929-.03.25-.047.433-.047.55v1.727h-1.006zm-111.37 6.332c-3.92.179-7.846.307-11.788.307-3.769 0-7.52-.12-11.266-.286v-.178c3.745-.162 7.497-.281 11.266-.281 3.942 0 7.868.127 11.787.306v.132m0-14.359c-3.919.179-7.845.307-11.787.307-3.769 0-7.52-.12-11.266-.286v-.178c3.745-.162 7.497-.281 11.266-.281 3.942 0 7.868.127 11.787.306v.132m117.648 14.39c-3.919.178-7.845.306-11.787.306-3.769 0-7.52-.12-11.266-.285v-.18c3.745-.161 7.497-.28 11.266-.28 3.942 0 7.868.127 11.787.306v.132m0-14.39c-3.919.18-7.845.307-11.787.307-3.769 0-7.52-.12-11.266-.285v-.18c3.745-.16 7.497-.28 11.266-.28 3.942 0 7.868.128 11.787.307v.131"/><circle fill="#FFF" cx="74.923" cy="74.923" r="44.954"/><circle fill="#ED1D24" cx="74.923" cy="74.923" r="41.957"/><path fill="#FFF" d="M38.656 51.666c-9.033 7.3-8.212 38.244 0 46.456h72.775c9.034-7.3 8.213-38.243 0-46.456H38.656z"/><path d="M100.158 74.046c4.387-1.192 6.903-3.88 6.903-8.443 0-5.454-3.638-9.112-13.154-9.112H63.696v2.58s.478.092 1.354.268c2.04.416 2.69 2.236 1.832 4.563-2.207 5.949-6.037 16.281-6.037 16.281S56.002 64.396 55.78 63.67c-.781-2.545.084-3.98 1.923-4.338 1.123-.221 1.328-.26 1.328-.26v-2.58H38.78v2.58s.485.094 1.353.267c.866.169 1.387.732 1.852 2.115.59 1.738 10.76 31.9 10.76 31.9h11.452s9.444-25.742 11.368-30.979v.003a1.054 1.054 0 0 1 2.04.371v23.673c0 2.11-.862 3.704-2.805 4.088l-1.357.267v2.577h21.053c7.114 0 14.72-2.379 14.72-10.085 0-5.666-3.714-8.319-9.058-9.224M89.201 60.915h.794c4.305 0 6.248 2.291 6.248 5.711 0 4.059-2.593 5.751-6.352 5.751h-.69V60.914zm1.282 27.968h-1.282v-12.08h1.526c4.156 0 6.62 1.705 6.62 6.278 0 4.686-3.499 5.802-6.864 5.802"/></svg>