<?xml version="1.0" encoding="utf-8"?>
<!-- Generator: Adobe Illustrator 22.0.1, SVG Export Plug-In . SVG Version: 6.00 Build 0)  -->
<svg version="1.1" id="Layer_1" xmlns="http://www.w3.org/2000/svg" xmlns:xlink="http://www.w3.org/1999/xlink" x="0px" y="0px"
	 viewBox="0 0 89.9072 89.9072" enable-background="new 0 0 89.9072 89.9072" xml:space="preserve">
<circle fill="#FFFFFF" cx="44.9536" cy="44.9536" r="44.9536"/>
<circle fill="#ED1D24" cx="44.9536" cy="44.9536" r="41.9567"/>
<path fill="#FFFFFF" d="M8.6868,21.6974c-9.0334,7.2995-8.2123,38.2436,0,46.4559h72.7754
	c9.0334-7.2995,8.2122-38.2436-0.0002-46.4559H8.6868z"/>
<path d="M31.5188,63.8193h-9.5391l11.7646-29.8887h-8.0557v5.9355h-8.2666V26.0879h25.8613v7.8428L31.5188,63.8193z"/>
<path d="M59.8201,64.1377c-6.9424,0-12.666-3.7627-12.666-11.6064c0-4.7158,2.8086-6.9424,4.2402-8.1074
	c-1.3252-1.1133-3.8691-3.3916-3.8691-7.4727c0-7.1543,5.8291-11.1816,12.2949-11.1816c6.4648,0,12.2939,4.0273,12.2939,11.1816
	c0,4.0811-2.543,6.3594-3.8682,7.4727c1.4307,1.165,4.2393,3.3916,4.2393,8.1074C72.4851,60.375,66.7624,64.1377,59.8201,64.1377z
	 M59.8201,48.3447c-2.1729,0-3.9746,1.8018-3.9746,3.9746s1.8018,3.9746,3.9746,3.9746s3.9746-1.8018,3.9746-3.9746
	S61.9929,48.3447,59.8201,48.3447z M59.8201,33.6123c-2.0137,0-3.6035,1.5898-3.6035,3.6035c0,2.0146,1.5898,3.6035,3.6035,3.6035
	s3.6035-1.5889,3.6035-3.6035C63.4236,35.2021,61.8337,33.6123,59.8201,33.6123z"/>
</svg>
