<?xml version="1.0" encoding="utf-8"?>
<!-- Generator: Adobe Illustrator 22.0.1, SVG Export Plug-In . SVG Version: 6.00 Build 0)  -->
<svg version="1.1" id="Layer_1" xmlns="http://www.w3.org/2000/svg" xmlns:xlink="http://www.w3.org/1999/xlink" x="0px" y="0px"
	 viewBox="0 0 89.9072 89.9072" enable-background="new 0 0 89.9072 89.9072" xml:space="preserve">
<circle fill="#FFFFFF" cx="44.9536" cy="44.9536" r="44.9536"/>
<circle fill="#ED1D24" cx="44.9536" cy="44.9536" r="41.9567"/>
<path fill="#FFFFFF" d="M8.6868,21.6974c-9.0334,7.2995-8.2123,38.2436,0,46.4559h72.7754
	c9.0334-7.2995,8.2122-38.2436-0.0002-46.4559H8.6868z"/>
<path d="M70.1893,44.0765c4.387-1.1911,6.9027-3.8792,6.9027-8.442c0-5.4544-3.6385-9.1124-13.1545-9.1124H33.7266v2.5808
	c0,0,0.4784,0.0911,1.3538,0.2669c2.0405,0.4165,2.6914,2.2357,1.8322,4.5627c-2.2065,5.9491-6.037,16.282-6.037,16.282
	s-4.8426-15.7873-5.0639-16.5131c-0.781-2.545,0.0846-3.9802,1.9234-4.3382c1.1228-0.2213,1.3278-0.2603,1.3278-0.2603v-2.5808
	H8.8106v2.5808c0,0,0.4849,0.0944,1.3538,0.2669c0.8657,0.1692,1.3864,0.7322,1.8518,2.1154
	c0.5891,1.7379,10.7592,31.9,10.7592,31.9h11.4524c0,0,9.4444-25.7426,11.3677-30.9791v0.0033
	c0.1497-0.4003,0.5305-0.6834,0.9861-0.6834c0.5826,0,1.0545,0.4719,1.0545,1.0544v23.6729c0,2.1089-0.8624,3.7036-2.8053,4.0875
	l-1.3571,0.2669v2.5776h21.053c7.1142,0,14.7199-2.3791,14.7199-10.0855C79.2465,47.6336,75.5331,44.9813,70.1893,44.0765
	 M59.2316,30.9448h0.7941c4.3056,0,6.2485,2.2912,6.2485,5.7116c0,4.0583-2.5938,5.7506-6.3527,5.7506h-0.69V30.9448z
	 M60.5139,58.9134h-1.2823V46.833h1.5264c4.1559,0,6.6195,1.7053,6.6195,6.2778C67.3775,57.7972,63.879,58.9134,60.5139,58.9134"/>
</svg>
