<?xml version="1.0" encoding="utf-8"?>
<!-- Generator: Adobe Illustrator 22.0.1, SVG Export Plug-In . SVG Version: 6.00 Build 0)  -->
<svg version="1.1" id="Layer_1" xmlns="http://www.w3.org/2000/svg" xmlns:xlink="http://www.w3.org/1999/xlink" x="0px" y="0px"
	 viewBox="0 0 39.945 11.193" enable-background="new 0 0 39.945 11.193" xml:space="preserve">
<g>
	<path fill="#FFFFFF" d="M2.327,3.574c0.096,0,0.479-0.06,0.479,0.12c0,0.18-0.432,0.216-0.527,0.24
		C1.187,4.15,0.456,4.63,0.264,4.63C0.036,4.63,0,4.138,0,3.994C0,3.43,0.192,2.843,0.611,2.459C1.259,1.86,4.857,0.024,5.721,0
		c0.432-0.012,0.804,0.768,0.804,0.936c0,0.24-0.324,0.708-0.456,0.912C3.922,5.265,3.514,6.333,3.49,6.681
		C3.466,6.968,3.538,7.46,3.802,7.376c0.324-0.108,0.888-0.408,3.394-4.377C7.064,2.243,8.179,0.804,8.551,0.936
		c0.528,0.18,0.288,1.667-2.771,5.673c-0.384,0.504-1.5,2.087-2.147,2.087c-0.479,0-1.379-0.755-1.355-1.655
		c0.012-0.479,0.204-1.511,2.482-5.277L4.737,1.739c-1.08,0.516-2.183,1.043-3.106,1.847L1.655,3.61L2.327,3.574z"/>
	<path fill="#FFFFFF" d="M10.318,6.729c-0.54,0.66-1.595,1.739-2.507,1.739c-0.708,0-1.031-0.815-1.031-1.427
		c0-1.463,1.499-2.89,2.219-2.89c0.204,0,0.527,0.072,0.527,0.336c0,0.6-1.187,1.667-1.691,2.015
		C7.74,6.992,7.919,7.256,8.471,7.256c0.636,0,1.259-0.636,1.739-0.984L10.318,6.729z M9.167,3.395c0-0.492,0.576-0.924,1.043-0.924
		c0.216,0,0.396,0.156,0.396,0.372c0,0.479-0.444,1.067-0.959,1.067C9.359,3.91,9.167,3.682,9.167,3.395z"/>
	<path fill="#FFFFFF" d="M9.948,10.291c-0.096,0.18-0.312,0.504-0.54,0.504c-0.275,0-0.348-0.324-0.348-0.54
		c-0.012-0.6,0.252-1.199,0.744-1.895c0.552-0.779,1.151-1.763,1.931-3.082l-0.024-0.024L9.816,7.065L9.768,6.501l3.178-3.418
		c0.288-0.312,0.504-0.66,0.959-0.66c0.168,0,0.552,0.06,0.552,0.288c0,0.264-0.624,0.84-0.815,1.043
		c-0.408,0.432-0.78,0.875-1.02,1.416l0.024,0.024c0.516-0.372,1.727-1.164,2.375-1.164c0.324,0,0.503,0.252,0.503,0.564
		c0,0.66-0.6,1.487-1.943,2.674c1.032,0.072,1.271-0.12,2.555-1.223l0.084,0.552c-0.888,0.863-1.967,1.727-3.262,1.727
		c-0.324,0-0.563-0.096-0.852-0.24c-0.18,0.036-0.36,0.072-0.552,0.072c-0.168,0-0.324-0.036-0.479-0.072L9.948,10.291z
		 M13.75,6.045c0.132-0.168,0.3-0.372,0.3-0.588c0-0.084-0.036-0.168-0.132-0.168c-0.192,0-0.768,0.372-0.923,0.48
		c-0.444,0.324-0.78,0.731-1.104,1.163c0.348-0.024,0.684,0.012,1.007,0.12L13.75,6.045z"/>
	<path fill="#FFFFFF" d="M20.578,6.501c-0.732,0.852-2.051,1.979-3.238,1.979c-0.875,0-1.283-0.78-1.307-1.571
		c-0.048-1.571,1.691-3.178,3.25-3.166c0.384,0,0.863,0.096,0.863,0.576c0,0.587-0.587,1.475-2.89,2.23l-0.024,0.264
		c-0.036,0.456,0.36,0.611,0.744,0.611c0.852,0,1.859-0.875,2.495-1.379L20.578,6.501z M19.09,4.57c0-0.084-0.06-0.156-0.144-0.132
		c-0.6,0.156-1.295,0.732-1.619,1.523C18.383,5.601,19.103,4.774,19.09,4.57z"/>
	<path fill="#FFFFFF" d="M21.251,5.685c-0.419,0.66-0.923,0.971-1.439,1.487l-0.048-0.528c0.312-0.252,0.563-0.552,0.792-0.875
		c-0.252-0.024-0.324-0.12-0.324-0.372c0-0.863,1.223-1.727,1.511-1.727c0.12,0,0.216,0.096,0.216,0.204
		c0,0.12-0.036,0.228-0.084,0.336c1.127-0.156,1.787-0.3,1.907-0.156c0.18,0.228,0.264,0.42,0.288,0.636
		c0,0.372-0.228,0.552-0.504,0.78c-0.348,0.3-0.936,0.887-0.936,1.367c0,0.192,0.192,0.336,0.372,0.336
		c0.516,0,1.271-0.78,1.667-1.08l0.084,0.444c-0.456,0.516-1.835,1.847-2.519,1.847c-0.504,0-0.816-0.468-0.816-0.924
		c0-0.815,0.624-1.451,1.104-2.027l-0.024-0.024L21.251,5.685z"/>
	<path fill="#FFFFFF" d="M27.358,7.964c-0.276,1.919-2.146,3.142-2.938,3.226c-0.324,0.036-0.54-0.264-0.54-0.576
		c-0.012-0.66,0.6-1.175,1.08-1.559l1.559-1.248c-0.12-0.503-0.3-0.563-0.768-0.695c-0.18-0.048-0.468-0.072-0.432-0.3
		c0.06-0.396,0.852-0.708,2.183-1.811l-0.024-0.024L26.015,5.23l-1.367,1.487l-0.132-0.396l0.839-1.02
		c-0.18-0.036-0.324-0.108-0.324-0.324c0-0.444,0.923-1.283,1.307-1.283c0.228,0,0.3,0.228,0.3,0.419
		c0.947-0.144,1.355-0.348,1.595-0.348c0.228,0,0.384,0.815,0.384,0.947c0,0.192-0.216,0.372-0.36,0.468l-1.535,1.116
		c0.324,0.24,0.528,0.552,0.624,0.947l1.895-1.463l0.036,0.516L27.358,7.964z M25.128,9.619c-0.336,0.264-0.6,0.54-0.648,0.972
		c0.816-0.216,1.871-1.188,2.027-2.051L25.128,9.619z"/>
	<path fill="#FFFFFF" d="M33.574,6.501c-0.732,0.852-2.051,1.979-3.238,1.979c-0.875,0-1.283-0.78-1.307-1.571
		c-0.048-1.571,1.691-3.178,3.25-3.166c0.384,0,0.863,0.096,0.863,0.576c0,0.587-0.587,1.475-2.89,2.23l-0.024,0.264
		c-0.036,0.456,0.36,0.611,0.744,0.611c0.852,0,1.859-0.875,2.495-1.379L33.574,6.501z M32.086,4.57c0-0.084-0.06-0.156-0.144-0.132
		c-0.6,0.156-1.295,0.732-1.619,1.523C31.379,5.601,32.099,4.774,32.086,4.57z"/>
	<path fill="#FFFFFF" d="M38.206,4.582c-0.396,0.624-0.972,1.403-0.972,2.171c0,0.192,0.012,0.6,0.276,0.6
		c0.408,0,1.511-0.971,1.895-1.223l0.084,0.396c-0.563,0.624-1.799,1.883-2.674,1.883c-0.456,0-0.636-0.48-0.636-0.864
		c0-0.3,0.048-0.612,0.096-0.912c-0.419,0.36-1.535,1.523-2.075,1.523s-0.875-1.151-0.875-1.571c0-1.415,2.387-2.615,3.406-2.674
		c0.252-0.012,0.348,0.156,0.503,0.335c0.396-0.684,1.452-3.166,2.327-3.166c0.24,0,0.384,0.24,0.384,0.456
		c0,0.36-0.324,0.852-0.516,1.151L38.206,4.582z M34.38,6.837c-0.012,0.108,0.048,0.204,0.18,0.228
		c0.144,0.036,2.075-1.403,2.267-2.111C34.715,5.637,34.452,6.045,34.38,6.837z"/>
</g>
</svg>
