<?xml version="1.0" encoding="utf-8"?>
<!-- Generator: Adobe Illustrator 22.0.1, SVG Export Plug-In . SVG Version: 6.00 Build 0)  -->
<svg version="1.1" id="Layer_1" xmlns="http://www.w3.org/2000/svg" xmlns:xlink="http://www.w3.org/1999/xlink" x="0px" y="0px"
	 viewBox="0 0 57.4145 63.4583" enable-background="new 0 0 57.4145 63.4583" xml:space="preserve">
<g>
	<path fill="#FFF200" d="M55.023,0.9038L33.102,2.8662l2.3106,26.6545l21.921-1.9625L55.023,0.9038z M34.2628,3.6719l4.0761-0.3679
		l1.9287,6.2349l0.0363-0.0041l1.0561-6.5043l3.4854-0.3151l2.0189,6.2266l0.0352-0.0031l0.9669-6.4971l4.0771-0.3679
		l-2.4231,10.5887l-4.1476,0.3752l-1.9349-5.8452l-0.0363,0.0031l-1.0146,6.1126l-4.1466,0.3741L34.2628,3.6719z M41.9185,19.7659
		l3.5527-0.3213l0.2363,3.1247l-3.5527,0.3213l0.3565,4.7052l-3.248,0.2923l-1.0157-13.389l7.7117-0.6975l0.2363,3.1237
		l-4.4616,0.4042L41.9185,19.7659z M47.3233,13.6751l3.2491-0.2943l0.7783,10.2654l4.4616-0.4032l0.2363,3.1247l-7.7097,0.6975
		L47.3233,13.6751z"/>
	<path fill="#FFFFFF" d="M6.7022,20.5038l4.046,5.9354h13.4004c0,0-1.0789,1.3483-1.0789,3.3268s0.8084,3.3278,0.8084,3.3278h-12.05
		l-4.7674-7.0142H0.4072l0.8094-5.5757H6.7022z M28.2393,23.6057c-1.9339,0.1803-3.1019,1.7536-3.1019,1.7536l-14.0295-0.0446
		l-3.5061-5.0814L8.4102,4.2264h14.9291L28.2393,23.6057z M26.6609,22.6937L22.1692,5.126L9.4455,5.0804L8.8154,19.9856
		l3.1475,4.2492h12.5009L26.6609,22.6937z M34.6431,29.9463c0,2.8117-2.2883,5.099-5.099,5.099
		c-1.3628,0-2.6428-0.5296-3.6056-1.4924c-0.9628-0.9628-1.4924-2.2438-1.4924-3.6056s0.5296-2.6428,1.4924-3.6056
		s2.2438-1.4934,3.6056-1.4934c1.3628,0,2.6428,0.5306,3.6056,1.4934C34.1125,27.3035,34.6431,28.5835,34.6431,29.9463z
		 M32.2149,29.9453c0-1.475-1.1957-2.6708-2.6708-2.6708c-1.475,0-2.6708,1.1957-2.6708,2.6708
		c0,1.4751,1.1957,2.6708,2.6708,2.6708C31.0192,32.616,32.2149,31.4204,32.2149,29.9453z M8.4371,31.2055
		c0,2.1961-1.7867,3.9828-3.9828,3.9828c-1.0633,0-2.0645-0.4146-2.8169-1.167c-0.7524-0.7524-1.1659-1.7525-1.1659-2.8159
		c0-1.0644,0.4135-2.0645,1.1659-2.8169s1.7536-1.1659,2.8169-1.1659c1.0644,0,2.0655,0.4135,2.8169,1.1659
		C8.0236,29.14,8.4371,30.1411,8.4371,31.2055z M6.4887,31.2045c0-1.1236-0.9109-2.0344-2.0344-2.0344
		c-1.1236,0-2.0344,0.9108-2.0344,2.0344c0,1.1235,0.9108,2.0344,2.0344,2.0344C5.5779,33.2389,6.4887,32.328,6.4887,31.2045z
		 M30.1742,23.9208c0,0,1.6188,0.1793,2.1577,0.6291L30.0841,0L27.746,0.0902L30.1742,23.9208z M31.0728,2.4282l2.0593,22.73
		c0,0,0.8996,0.5389,0.9897,0.8985L32.0615,2.2479L31.0728,2.4282z M35.4339,30.7547c0,0-0.0446,1.0799-0.4944,1.6188
		l15.0182-2.0686l4.2253-1.4385L35.4339,30.7547z"/>
</g>
<g>
	<rect y="50.9967" fill="#FFF200" width="57.4145" height="1.6061"/>
	<path fill="#FFFFFF" d="M0.7762,63.3008v-9.1214H4.805v2.1536H3.0592v1.3182h1.6332v2.1547H3.0592v3.4959H0.7762
		C0.7762,63.3018,0.7762,63.3008,0.7762,63.3008z M9.4033,54.023c2.3163,0,3.2226,2.4915,3.2226,4.7182
		c0,2.2256-0.9063,4.7171-3.2226,4.7171s-3.2226-2.4915-3.2226-4.7171C6.1806,56.5145,7.0869,54.023,9.4033,54.023z M9.4033,61.1597
		c0.8614,0,0.8948-1.8501,0.8948-2.4185c0-0.5694-0.0334-2.4196-0.8948-2.4196c-0.8615,0-0.8959,1.8501-0.8959,2.4196
		C8.5084,59.3095,8.5418,61.1597,9.4033,61.1597z M17.537,63.3008l-1.2651-3.7993l-0.0219,0.025
		c0.0104,0.4474,0.0334,0.8959,0.0334,1.3422v2.431h-2.2829v-9.1214h2.2047c1.9805,0,3.4124,0.6289,3.4124,3.0359
		c0,1.0033-0.4026,1.8992-1.3099,2.2861l1.702,3.7993H17.537C17.537,63.2997,17.537,63.3008,17.537,63.3008z M16.4294,58.4022
		c0.6038,0,0.9282-0.5684,0.9282-1.1618c0-0.7978-0.4474-1.1378-1.0742-1.1013v2.2506L16.4294,58.4022z M24.7519,63.3008
		l-1.4215-4.1863h0.0115h-0.0219v4.1863H21.037v-9.1214h2.2829v3.8828h-0.0115h0.0115l-0.0219,0.024v-0.024h0.0323l1.2536-3.8828
		h2.406l-1.8251,4.4032l2.0368,4.7182H24.7519z M32.0648,63.3008v-9.1214h2.2829v6.9677h1.7114v2.1536H32.0648z M37.2669,63.3008
		v-9.1214h2.2829v9.1214H37.2669z M41.1716,63.3008v-9.1214h4.0288v2.1536h-1.7458v1.3182h1.6343v2.1547h-1.6343v3.4959h-2.2829
		V63.3008z M47.6731,63.3008V56.405h-1.2536v-2.2256h4.8454v2.2256H49.956v6.8958H47.6731z M52.2463,60.2283
		c0.3139,0.5079,0.8615,1.0168,1.4434,1.0168c0.3139,0,0.6716-0.2065,0.6716-0.6049c0-0.2169-0.0667-0.3755-0.1783-0.5079
		c-0.1012-0.1335-0.2347-0.243-0.3807-0.3504c-0.4474-0.3755-0.8396-0.7269-1.1305-1.1618
		c-0.2795-0.4245-0.4589-0.9324-0.4589-1.5977c0-1.0638,0.6268-3.0005,2.5739-3.0005c0.5475,0,1.141,0.1815,1.6217,0.4599v2.77
		c-0.268-0.4599-0.8166-0.9803-1.3422-0.9803c-0.2691,0-0.5934,0.2065-0.5934,0.5569c0,0.1929,0.1001,0.3629,0.2242,0.5079
		c0.1231,0.145,0.2899,0.2659,0.413,0.3744c0.4808,0.3629,0.8615,0.7019,1.1191,1.1128c0.268,0.4119,0.414,0.8959,0.414,1.5863
		c0,1.6937-1.0971,3.0474-2.6855,3.0474c-0.5819,0-1.1743-0.1335-1.7125-0.3744v-2.8545H52.2463z M6.1796,49.0743l-0.655-4.2864
		c-0.1314-0.8552-0.1669-1.5967-0.2503-2.3257h-0.024c-0.0594,0.729-0.0834,1.4716-0.1909,2.3257l-0.5121,4.2864h-2.358
		L0.1901,38.5117h2.3935l0.5361,4.2582c0.0949,0.7843,0.1669,1.555,0.2503,2.3393h0.024c0.072-0.7843,0.0834-1.555,0.2023-2.3393
		l0.631-4.2582H6.311l0.6184,4.2582c0.1074,0.7707,0.1783,1.5268,0.2743,2.2975h0.024c0.072-0.6581,0.0949-1.4716,0.2023-2.2975
		l0.5362-4.2582h2.3695L8.5252,49.0743H6.1796z M14.8004,49.0743l-0.1783-1.3589h-1.6322l-0.2023,1.3589h-2.4999l2.1557-10.5627
		h2.964l1.9054,10.5627H14.8004z M14.3352,45.4732l-0.2618-2.4519c-0.0709-0.6581-0.1189-1.3308-0.1794-1.9888h-0.024
		c-0.0709,0.6581-0.1304,1.3308-0.2263,1.9888l-0.3327,2.4519H14.3352z M19.3151,49.0743l-2.0598-10.5627h2.5489l0.5715,4.3427
		c0.1074,0.8541,0.1669,1.6958,0.2618,2.5499h0.024c0.1064-0.8541,0.1418-1.6947,0.2732-2.5499l0.6664-4.3427h2.6313
		l-2.4404,10.5627H19.3151z M25.2452,38.5117h4.5127v2.4936h-2.0837v1.4705h1.8699v2.4936h-1.8699v1.6113h2.0837v2.4936h-4.5127
		V38.5117z M35.2447,49.0743l-1.3454-4.399l-0.024,0.0282c0.0115,0.5183,0.0355,1.0356,0.0355,1.555v2.8159h-2.429V38.5117h2.3455
		c2.1077,0,3.6314,0.729,3.6314,3.5157c0,1.1629-0.4286,2.1995-1.3933,2.648l1.8105,4.399H35.2447z M34.0662,43.3998
		c0.6435,0,0.9887-0.6581,0.9887-1.3443c0-0.9251-0.4766-1.3172-1.1441-1.2755v2.6063L34.0662,43.3998z M38.97,49.0743V38.5117h2.43
		v8.069h1.822v2.4936H38.97z M44.5068,38.5117h4.5127v2.4936h-2.0837v1.4705h1.8689v2.4936h-1.8689v1.6113h2.0837v2.4936h-4.5127
		V38.5117z M52.3391,49.0743v-4.4825l-2.2141-6.0802h2.5249l0.8333,3.2643h0.024l0.8448-3.2643h2.5124l-2.0952,6.0802v4.4825
		H52.3391z"/>
</g>
</svg>
