<?xml version="1.0" encoding="utf-8"?>
<!-- Generator: Adobe Illustrator 22.0.1, SVG Export Plug-In . SVG Version: 6.00 Build 0)  -->
<svg version="1.1" id="Layer_1" xmlns="http://www.w3.org/2000/svg" xmlns:xlink="http://www.w3.org/1999/xlink" x="0px" y="0px"
	 viewBox="0 0 47.3491 15.1367" enable-background="new 0 0 47.3491 15.1367" xml:space="preserve">
<path d="M8.519,4.6973C8.4673,4.0137,8.168,3.4717,7.6211,3.0713C7.0747,2.6709,6.3623,2.4707,5.4839,2.4707
	c-0.7612,0-1.3569,0.1675-1.7861,0.5029c-0.4297,0.3354-0.644,0.8022-0.644,1.4014c0,0.4297,0.2246,0.7617,0.6738,0.9961
	c0.4424,0.2344,1.3833,0.5112,2.8218,0.8301c2.0898,0.4688,3.4858,1.0093,4.189,1.6211c0.7041,0.6055,1.0562,1.5786,1.0562,2.9199
	c0,1.3477-0.5308,2.417-1.5913,3.208c-1.061,0.791-2.4966,1.1865-4.3057,1.1865c-1.8164,0-3.2354-0.4199-4.2573-1.2598
	C0.6187,13.0371,0.0718,11.8423,0,10.293h2.8906c0.0327,0.7617,0.3091,1.3477,0.8301,1.7578
	c0.5205,0.4102,1.2461,0.6152,2.1768,0.6152c0.9565,0,1.7036-0.1548,2.2407-0.4639c0.5366-0.3091,0.8052-0.7373,0.8052-1.2842
	c0-0.5405-0.1934-0.9375-0.5806-1.1914C7.9854,9.4727,7.1787,9.209,5.9424,8.9355C3.6655,8.4277,2.1431,7.8774,1.3755,7.2852
	C0.6128,6.6992,0.2319,5.7847,0.2319,4.541c0-1.3931,0.5044-2.4985,1.5132-3.3154S4.1177,0,5.8354,0
	c1.6074,0,2.916,0.4233,3.9243,1.2695c1.0088,0.8462,1.5688,1.9888,1.6792,3.4277H8.519z M13.7354,11.8359h2.998v2.9102h-2.998
	V11.8359z M19.3286,0.3906h1.4941h1.5039v5.3809h5.6152V0.3906h1.4941h1.5039v14.3555h-1.4941h-1.5039V8.2422h-5.6152v6.5039
	h-1.4941h-1.5039V0.3906z M33.6333,0.2832h2.8516v2.5977h-2.8516V0.2832z M33.6626,4.1211h1.3965h1.4063v10.625h-1.3965h-1.4063
	V4.1211z M39.0894,0.3906h1.3965h1.4063v14.3555h-1.3965h-1.4063V0.3906z M44.5464,0.3906h1.3965h1.4063v14.3555h-1.3965h-1.4063
	V0.3906z"/>
</svg>
