<?xml version="1.0" encoding="utf-8"?>
<!-- Generator: Adobe Illustrator 22.0.1, SVG Export Plug-In . SVG Version: 6.00 Build 0)  -->
<svg version="1.1" id="Layer_1" xmlns="http://www.w3.org/2000/svg" xmlns:xlink="http://www.w3.org/1999/xlink" x="0px" y="0px"
	 viewBox="0 0 64.5977 18.6328" enable-background="new 0 0 64.5977 18.6328" xml:space="preserve">
<path d="M2.8027,14.3555H1.4063H0V0h1.5723h1.5723l5.7617,10.0781V0h1.3965h1.4063v14.3555h-1.4941H8.7207L2.8027,4.0039V14.3555z
	 M14.2456,11.4453h2.998v2.9102h-2.998V11.4453z M19.9463,14.3555V0h1.4941h1.5039v11.8066h7.1387v1.2695v1.2793H19.9463z
	 M37.5127,14.5801c-0.6128,1.79-1.1372,2.9131-1.5737,3.3691s-1.2148,0.6836-2.335,0.6836l-1.3379-0.0293v-2.2461
	c0.0649,0.0264,0.2441,0.0391,0.5371,0.0391c0.7485,0,1.2368-0.1533,1.4648-0.459c0.1431-0.1953,0.2861-0.5986,0.4297-1.2109
	L30.7354,3.7305h1.542h1.5513l2.312,7.8809h0.0024l2.249-7.8809h1.4648h1.4644L37.5127,14.5801z M43.7163,13.1348
	c-0.98-0.9961-1.4697-2.3408-1.4697-4.0332c0-1.7314,0.4897-3.1074,1.4697-4.126s2.2998-1.5283,3.96-1.5283
	c1.6733,0,2.998,0.5098,3.9746,1.5283s1.4648,2.3945,1.4648,4.126c0,1.6924-0.4883,3.0371-1.4648,4.0332
	s-2.3013,1.4941-3.9746,1.4941C46.0161,14.6289,44.6963,14.1309,43.7163,13.1348z M49.5806,11.4648
	c0.436-0.5469,0.6543-1.3447,0.6543-2.3926c0-1.0742-0.2183-1.8896-0.6543-2.4463s-1.0708-0.835-1.9043-0.835
	S46.21,6.0693,45.7769,6.626s-0.6494,1.3721-0.6494,2.4463c0,1.0479,0.2163,1.8457,0.6494,2.3926s1.0659,0.8203,1.8994,0.8203
	S49.1445,12.0117,49.5806,11.4648z M54.9785,3.7305h1.3281h1.3379v1.5723c0.1108-0.1885,0.231-0.3682,0.3613-0.5371
	c0.6899-0.8789,1.6929-1.3184,3.0078-1.3184c1.1196,0,1.9971,0.332,2.6318,0.9961s0.9521,1.585,0.9521,2.7637v7.1484h-1.3965
	h-1.4063V7.7148c0-0.6572-0.1416-1.1445-0.4248-1.46s-0.7178-0.4736-1.3037-0.4736c-0.7358,0-1.3003,0.2217-1.6943,0.6641
	s-0.5908,1.0811-0.5908,1.9141v5.9961h-1.3965h-1.4063V3.7305z"/>
</svg>
