<?xml version="1.0" encoding="utf-8"?>
<!-- Generator: Adobe Illustrator 22.0.1, SVG Export Plug-In . SVG Version: 6.00 Build 0)  -->
<svg version="1.1" id="Layer_1" xmlns="http://www.w3.org/2000/svg" xmlns:xlink="http://www.w3.org/1999/xlink" x="0px" y="0px"
	 viewBox="0 0 67.4438 14.6289" enable-background="new 0 0 67.4438 14.6289" xml:space="preserve">
<path d="M0,14.3555V0h1.4941H2.998v11.8066h7.1387v1.2695v1.2793H0z M11.8726,11.4453h2.998v2.9102h-2.998V11.4453z M20.6689,2.5488
	H16.333V1.2793V0h11.6699v1.2695v1.2793H23.667v11.8066h-1.4941h-1.5039V2.5488z M32.0146,14.6289
	c-0.9829,0-1.7739-0.2813-2.373-0.8447s-0.8984-1.3037-0.8984-2.2217c0-0.9697,0.27-1.7461,0.8105-2.3291
	s1.3281-0.9492,2.3633-1.0986l1.8457-0.2539c0.4819-0.0654,0.8823-0.1758,1.2012-0.332c0.1367-0.0654,0.2427-0.1826,0.3174-0.3516
	s0.1025-0.3418,0.083-0.5176c-0.0391-0.2998-0.1919-0.5342-0.459-0.7031c-0.3188-0.2021-0.7778-0.3027-1.377-0.3027
	c-0.5337,0-0.9507,0.1299-1.25,0.3906s-0.459,0.6279-0.4785,1.1035h-2.6855c0.0586-1.2432,0.4819-2.1748,1.2695-2.793
	s1.9434-0.9277,3.4668-0.9277c1.3218,0,2.3647,0.2783,3.1299,0.8359c0.7651,0.5566,1.1475,1.3174,1.1475,2.2822v5.9434
	c0,0.4756,0.0391,0.8096,0.1172,1.002c0.0781,0.1914,0.2344,0.3438,0.4688,0.4541v0.0098v0.3809h-1.5137h-1.5137v-0.0098
	c-0.1235-0.4297-0.2051-0.8496-0.2441-1.2598l-0.0098-0.0195C34.5537,14.1084,33.4146,14.6289,32.0146,14.6289z M35.3838,10.4297
	V9.209c-0.3257,0.1826-0.7554,0.3291-1.2891,0.4395l-1.0352,0.1953c-0.4883,0.0908-0.8594,0.2588-1.1133,0.5029
	s-0.3809,0.5518-0.3809,0.9229c0,0.4229,0.1138,0.7549,0.3418,0.9961s0.5469,0.3613,0.957,0.3613
	c0.8984,0,1.6147-0.3154,2.1484-0.9473c0.104-0.124,0.1919-0.3057,0.2637-0.5469S35.3838,10.6572,35.3838,10.4297z M40.4692,3.7305
	h1.3281h1.3379v1.709c0.1235-0.2998,0.2793-0.5664,0.4678-0.8008c0.6177-0.7939,1.5146-1.1914,2.6909-1.1914
	c0.936,0,1.7031,0.3154,2.3013,0.9473c0.2339,0.2412,0.4189,0.5078,0.5557,0.8008l0.3423-0.5566
	c0.5801-0.7939,1.4248-1.1914,2.5332-1.1914c1.1538,0,2.0571,0.3418,2.709,1.0254s0.978,1.6309,0.978,2.8418v7.041h-1.3965h-1.4063
	V8.1152c0-0.7939-0.1309-1.3818-0.3916-1.7627c-0.2617-0.3809-0.666-0.5713-1.2144-0.5713c-0.5879,0-1.0366,0.1807-1.3472,0.542
	c-0.3096,0.3613-0.4648,0.8809-0.4648,1.5576v6.4746h-1.3965h-1.4063V7.6563c0-0.6377-0.1362-1.1104-0.4092-1.416
	c-0.2725-0.3057-0.6914-0.459-1.2559-0.459c-0.5649,0-0.9985,0.1807-1.3003,0.542S43.272,7.2041,43.272,7.8809v6.4746h-1.3965
	h-1.4063V3.7305z M62.3809,14.6289c-1.6147,0-2.8599-0.498-3.7354-1.4941s-1.3135-2.415-1.3135-4.2578
	c0-1.6992,0.4458-3.0293,1.3379-3.9893s2.1289-1.4404,3.7109-1.4404c1.6211,0,2.8696,0.4902,3.7451,1.4697
	s1.3135,2.375,1.3135,4.1846c0.0132,0.208-0.0034,0.4199-0.0488,0.6348h-7.2363c0.0649,0.8398,0.2505,1.4678,0.5566,1.8848
	c0.3906,0.5205,1.0415,0.7813,1.9531,0.7813c0.4233,0,0.8154-0.1201,1.1768-0.3613s0.5776-0.5303,0.6494-0.8691h2.8516
	c-0.2407,1.0811-0.7993,1.9268-1.6748,2.5391S63.6958,14.6289,62.3809,14.6289z M64.5195,7.9492
	c-0.0649-0.6377-0.2344-1.1357-0.5078-1.4941c-0.3579-0.4756-0.9146-0.7129-1.6699-0.7129c-0.7227,0-1.2729,0.2764-1.6504,0.8301
	c-0.2344,0.3516-0.4038,0.8105-0.5078,1.377H64.5195z"/>
</svg>
