<?xml version="1.0" encoding="utf-8"?>
<!-- Generator: Adobe Illustrator 22.0.1, SVG Export Plug-In . SVG Version: 6.00 Build 0)  -->
<svg version="1.1" id="Layer_1" xmlns="http://www.w3.org/2000/svg" xmlns:xlink="http://www.w3.org/1999/xlink" x="0px" y="0px"
	 viewBox="0 0 100.9873 14.6289" enable-background="new 0 0 100.9873 14.6289" xml:space="preserve">
<path d="M2.8027,14.3555H1.4063H0V0h1.5723h1.5723l5.7617,10.0781V0h1.3965h1.4063v14.3555h-1.4941H8.7207L2.8027,4.0039V14.3555z
	 M14.2456,11.4453h2.998v2.9102h-2.998V11.4453z M19.8389,0h1.4941h1.5039v5.3809h5.6152V0h1.4941h1.5039v14.3555h-1.4941h-1.5039
	V7.8516h-5.6152v6.5039h-1.4941h-1.5039V0z M36.6143,14.6289c-0.9829,0-1.7739-0.2813-2.373-0.8447s-0.8984-1.3037-0.8984-2.2217
	c0-0.9697,0.27-1.7461,0.8105-2.3291s1.3281-0.9492,2.3633-1.0986l1.8457-0.2539c0.4819-0.0654,0.8823-0.1758,1.2012-0.332
	c0.1367-0.0654,0.2427-0.1826,0.3174-0.3516s0.1025-0.3418,0.083-0.5176c-0.0391-0.2998-0.1919-0.5342-0.459-0.7031
	c-0.3188-0.2021-0.7778-0.3027-1.377-0.3027c-0.5337,0-0.9507,0.1299-1.25,0.3906s-0.459,0.6279-0.4785,1.1035h-2.6855
	c0.0586-1.2432,0.4819-2.1748,1.2695-2.793s1.9434-0.9277,3.4668-0.9277c1.3218,0,2.3647,0.2783,3.1299,0.8359
	c0.7651,0.5566,1.1475,1.3174,1.1475,2.2822v5.9434c0,0.4756,0.0391,0.8096,0.1172,1.002c0.0781,0.1914,0.2344,0.3438,0.4688,0.4541
	v0.0098v0.3809h-1.5137h-1.5137v-0.0098c-0.1235-0.4297-0.2051-0.8496-0.2441-1.2598l-0.0098-0.0195
	C39.1533,14.1084,38.0142,14.6289,36.6143,14.6289z M39.9834,10.4297V9.209c-0.3257,0.1826-0.7554,0.3291-1.2891,0.4395
	l-1.0352,0.1953c-0.4883,0.0908-0.8594,0.2588-1.1133,0.5029s-0.3809,0.5518-0.3809,0.9229c0,0.4229,0.1138,0.7549,0.3418,0.9961
	s0.5469,0.3613,0.957,0.3613c0.8984,0,1.6147-0.3154,2.1484-0.9473c0.104-0.124,0.1919-0.3057,0.2637-0.5469
	S39.9834,10.6572,39.9834,10.4297z M45.0884,3.7305h1.3281h1.3379v1.5723c0.1108-0.1885,0.231-0.3682,0.3613-0.5371
	c0.6899-0.8789,1.6929-1.3184,3.0078-1.3184c1.1196,0,1.9971,0.332,2.6318,0.9961s0.9521,1.585,0.9521,2.7637v7.1484H53.311h-1.4063
	V7.7148c0-0.6572-0.1416-1.1445-0.4248-1.46s-0.7178-0.4736-1.3037-0.4736c-0.7358,0-1.3003,0.2217-1.6943,0.6641
	s-0.5908,1.0811-0.5908,1.9141v5.9961h-1.3965h-1.4063V3.7305z M63.2192,6.9141c0-0.4102-0.1694-0.7393-0.5083-0.9863
	s-0.7881-0.3711-1.3486-0.3711c-0.5405,0-0.9624,0.0928-1.2656,0.2783c-0.3027,0.1855-0.4541,0.4443-0.4541,0.7764
	c0,0.2344,0.1724,0.4365,0.5176,0.6055c0.3384,0.1631,0.9409,0.3418,1.8071,0.5371c1.7192,0.3838,2.8687,0.8037,3.4482,1.2598
	c0.5811,0.4561,0.8716,1.1719,0.8716,2.1484c0,1.042-0.4219,1.8799-1.2651,2.5146s-1.9551,0.9521-3.3354,0.9521
	c-1.6343,0-2.8926-0.3125-3.7749-0.9375s-1.3525-1.5361-1.4111-2.7344h2.8516c0.0195,0.4883,0.2358,0.8711,0.6494,1.1475
	s0.9751,0.415,1.6851,0.415c0.5601,0,0.998-0.0957,1.3135-0.2881c0.3159-0.1924,0.4741-0.4609,0.4741-0.8057
	c0-0.2412-0.1528-0.4463-0.459-0.6152c-0.3062-0.1631-0.8433-0.3291-1.6113-0.498c-1.7974-0.4033-2.9985-0.8301-3.604-1.2793
	c-0.605-0.4424-0.9072-1.1299-0.9072-2.0605c0-1.0547,0.3921-1.9063,1.1763-2.5537c0.7847-0.6475,1.8179-0.9717,3.1001-0.9717
	c1.4453,0,2.6104,0.3174,3.4956,0.9521s1.3281,1.4727,1.3281,2.5146H63.2192z M74.2422,6.9141c0-0.4102-0.1694-0.7393-0.5083-0.9863
	s-0.7881-0.3711-1.3486-0.3711c-0.5405,0-0.9624,0.0928-1.2656,0.2783c-0.3027,0.1855-0.4541,0.4443-0.4541,0.7764
	c0,0.2344,0.1724,0.4365,0.5176,0.6055c0.3384,0.1631,0.9409,0.3418,1.8071,0.5371c1.7192,0.3838,2.8687,0.8037,3.4482,1.2598
	c0.5811,0.4561,0.8716,1.1719,0.8716,2.1484c0,1.042-0.4219,1.8799-1.2651,2.5146s-1.9551,0.9521-3.3354,0.9521
	c-1.6343,0-2.8926-0.3125-3.7749-0.9375s-1.3525-1.5361-1.4111-2.7344h2.8516c0.0195,0.4883,0.2358,0.8711,0.6494,1.1475
	s0.9751,0.415,1.6851,0.415c0.5601,0,0.998-0.0957,1.3135-0.2881c0.3159-0.1924,0.4741-0.4609,0.4741-0.8057
	c0-0.2412-0.1528-0.4463-0.459-0.6152c-0.3062-0.1631-0.8433-0.3291-1.6113-0.498c-1.7974-0.4033-2.9985-0.8301-3.604-1.2793
	c-0.605-0.4424-0.9072-1.1299-0.9072-2.0605c0-1.0547,0.3921-1.9063,1.1763-2.5537c0.7847-0.6475,1.8179-0.9717,3.1001-0.9717
	c1.4453,0,2.6104,0.3174,3.4956,0.9521s1.3281,1.4727,1.3281,2.5146H74.2422z M80.1055,13.1348
	c-0.98-0.9961-1.4697-2.3408-1.4697-4.0332c0-1.7314,0.4897-3.1074,1.4697-4.126s2.2998-1.5283,3.96-1.5283
	c1.6733,0,2.998,0.5098,3.9746,1.5283s1.4648,2.3945,1.4648,4.126c0,1.6924-0.4883,3.0371-1.4648,4.0332
	s-2.3013,1.4941-3.9746,1.4941C82.4053,14.6289,81.0854,14.1309,80.1055,13.1348z M85.9697,11.4648
	c0.436-0.5469,0.6543-1.3447,0.6543-2.3926c0-1.0742-0.2183-1.8896-0.6543-2.4463s-1.0708-0.835-1.9043-0.835
	s-1.4663,0.2783-1.8994,0.835s-0.6494,1.3721-0.6494,2.4463c0,1.0479,0.2163,1.8457,0.6494,2.3926s1.0659,0.8203,1.8994,0.8203
	S85.5337,12.0117,85.9697,11.4648z M91.3682,3.7305h1.3281h1.3379v1.5723c0.1108-0.1885,0.231-0.3682,0.3613-0.5371
	c0.6899-0.8789,1.6929-1.3184,3.0078-1.3184c1.1196,0,1.9971,0.332,2.6318,0.9961s0.9521,1.585,0.9521,2.7637v7.1484h-1.3965
	h-1.4063V7.7148c0-0.6572-0.1416-1.1445-0.4248-1.46s-0.7178-0.4736-1.3037-0.4736c-0.7358,0-1.3003,0.2217-1.6943,0.6641
	s-0.5908,1.0811-0.5908,1.9141v5.9961h-1.3965h-1.4063V3.7305z"/>
</svg>
