<?xml version="1.0" encoding="utf-8"?>
<!-- Generator: Adobe Illustrator 22.0.1, SVG Export Plug-In . SVG Version: 6.00 Build 0)  -->
<svg version="1.1" id="Layer_1" xmlns="http://www.w3.org/2000/svg" xmlns:xlink="http://www.w3.org/1999/xlink" x="0px" y="0px"
	 viewBox="0 0 67.8301 14.6289" enable-background="new 0 0 67.8301 14.6289" xml:space="preserve">
<path d="M5.0781,0h1.7383h1.7383l5.0781,14.3555H12.043h-1.5903l-0.9707-2.9199H4.0371l-0.9399,2.9199H1.5537H0L5.0781,0z
	 M4.8696,8.9648h3.811L6.7734,3.1934h0.0029L4.8696,8.9648z M15.2222,11.4453h2.998v2.9102h-2.998V11.4453z M20.9229,0h1.4355
	h5.5176c1.3867,0,2.4707,0.3203,3.252,0.9619s1.1719,1.5313,1.1719,2.6709c0,1.1914-0.4395,2.0967-1.3184,2.7148
	c-0.1431,0.1045-0.3027,0.1982-0.4785,0.2832c0.3384,0.1299,0.6382,0.2861,0.8984,0.4688c0.918,0.6318,1.377,1.5527,1.377,2.7637
	c0,1.4648-0.4541,2.5801-1.3623,3.3447s-2.2349,1.1475-3.9795,1.1475h-5.0781h-1.4355V0z M23.7939,5.625h3.4277
	c0.7485,0,1.3086-0.1396,1.6797-0.4199S29.458,4.502,29.458,3.9355c0-0.4883-0.1953-0.8545-0.5859-1.0986
	s-0.98-0.3662-1.7676-0.3662h-3.3105V5.625z M23.7939,11.8652h3.6426c0.7813,0,1.3672-0.1689,1.7578-0.5078
	s0.5859-0.8496,0.5859-1.5332c0-0.5986-0.2002-1.0469-0.6006-1.3428s-1.001-0.4443-1.8018-0.4443h-3.584V11.8652z M35.0225,3.7305
	h1.3281h1.3379v1.9043c0.0977-0.208,0.2085-0.4102,0.332-0.6055c0.6577-1.0547,1.5073-1.582,2.5488-1.582l0.6348,0.0098v2.8613
	c-0.2476-0.0264-0.5273-0.0391-0.8398-0.0391c-0.853,0-1.4893,0.2119-1.9092,0.6348s-0.6299,1.0645-0.6299,1.9238v5.5176h-1.3965
	h-1.4063V3.7305z M46.9341,14.6289c-1.6147,0-2.8599-0.498-3.7354-1.4941s-1.3135-2.415-1.3135-4.2578
	c0-1.6992,0.4458-3.0293,1.3379-3.9893s2.1289-1.4404,3.7109-1.4404c1.6211,0,2.8696,0.4902,3.7451,1.4697
	s1.3135,2.375,1.3135,4.1846c0.0132,0.208-0.0034,0.4199-0.0488,0.6348h-7.2363c0.0649,0.8398,0.2505,1.4678,0.5566,1.8848
	c0.3906,0.5205,1.0415,0.7813,1.9531,0.7813c0.4233,0,0.8154-0.1201,1.1768-0.3613s0.5776-0.5303,0.6494-0.8691h2.8516
	c-0.2407,1.0811-0.7993,1.9268-1.6748,2.5391S48.249,14.6289,46.9341,14.6289z M49.0728,7.9492
	c-0.0649-0.6377-0.2344-1.1357-0.5078-1.4941c-0.3579-0.4756-0.9146-0.7129-1.6699-0.7129c-0.7227,0-1.2729,0.2764-1.6504,0.8301
	c-0.2344,0.3516-0.4038,0.8105-0.5078,1.377H49.0728z M55.7305,14.3555l-3.0859-10.625h1.4849h1.4844l1.6973,7.8027h0.0122
	l1.5811-7.8027h1.3965h1.4063l1.5713,7.8223l1.7256-7.8223h1.4082h1.418l-3.0762,10.625h-1.4258h-1.4355l-1.6323-7.9102h0.0068
	l-1.6753,7.9102H57.166H55.7305z"/>
</svg>
