<?xml version="1.0" encoding="utf-8"?>
<!-- Generator: Adobe Illustrator 22.0.1, SVG Export Plug-In . SVG Version: 6.00 Build 0)  -->
<svg version="1.1" id="Layer_1" xmlns="http://www.w3.org/2000/svg" xmlns:xlink="http://www.w3.org/1999/xlink" x="0px" y="0px"
	 viewBox="0 0 123.8561 15.1367" enable-background="new 0 0 123.8561 15.1367" xml:space="preserve">
<path d="M6.2551,0.3906h1.4941h1.5039v10.3223c0,1.458-0.3906,2.5605-1.1719,3.3057s-1.9336,1.1182-3.457,1.1182
	c-1.6211,0-2.8091-0.4102-3.5645-1.2305s-1.1069-2.0869-1.0547-3.7988V9.248h2.8516v0.8594
	c-0.0259,0.8721,0.1025,1.5186,0.3857,1.9385s0.7339,0.6299,1.3525,0.6299c0.5923,0,1.0171-0.1533,1.2744-0.459
	s0.3857-0.8076,0.3857-1.5039V0.3906z M11.8679,11.8359h2.998v2.9102h-2.998V11.8359z M25.3478,4.6973
	c-0.0518-0.6836-0.3511-1.2256-0.8979-1.626c-0.5464-0.4004-1.2588-0.6006-2.1372-0.6006c-0.7612,0-1.3569,0.168-1.7861,0.5029
	c-0.4297,0.335-0.644,0.8027-0.644,1.4014c0,0.4297,0.2246,0.7617,0.6738,0.9961c0.4424,0.2344,1.3833,0.5107,2.8218,0.8301
	c2.0898,0.4688,3.4858,1.0088,4.189,1.6211c0.7041,0.6055,1.0562,1.5791,1.0562,2.9199c0,1.3477-0.5308,2.417-1.5913,3.208
	c-1.061,0.791-2.4966,1.1865-4.3057,1.1865c-1.8164,0-3.2354-0.4199-4.2573-1.2598c-1.0215-0.8398-1.5684-2.0342-1.6401-3.584
	h2.8906c0.0327,0.7617,0.3091,1.3477,0.8301,1.7578c0.5205,0.4102,1.2461,0.6152,2.1768,0.6152
	c0.9565,0,1.7036-0.1543,2.2407-0.4639c0.5366-0.3096,0.8052-0.7373,0.8052-1.2842c0-0.54-0.1934-0.9375-0.5806-1.1914
	c-0.3774-0.2539-1.1841-0.5176-2.4204-0.791c-2.2769-0.5078-3.7993-1.0576-4.5669-1.6504c-0.7627-0.5859-1.1436-1.501-1.1436-2.7441
	c0-1.3936,0.5044-2.498,1.5132-3.3154S20.9465,0,22.6642,0c1.6074,0,2.916,0.4229,3.9243,1.2695
	c1.0088,0.8467,1.5688,1.9893,1.6792,3.4277H25.3478z M35.467,14.8047c-0.4688,0.0391-1.0449,0.0586-1.7285,0.0586
	c-0.9897,0-1.7007-0.1777-2.1338-0.5322s-0.6494-0.9355-0.6494-1.7432V6.084h-1.4746V4.1211h1.4746V1.2598h2.8027v2.8613h1.709
	V6.084h-1.709v6.0352c0,0.2471,0.0732,0.4102,0.2197,0.4883s0.4507,0.1172,0.9131,0.1172h0.5762V14.8047z M39.6931,15.0195
	c-0.9829,0-1.7739-0.2813-2.373-0.8447s-0.8984-1.3037-0.8984-2.2217c0-0.9697,0.27-1.7461,0.8105-2.3291
	s1.3281-0.9492,2.3633-1.0986l1.8457-0.2539c0.4819-0.0654,0.8823-0.1758,1.2012-0.332c0.1367-0.0654,0.2427-0.1826,0.3174-0.3516
	s0.1025-0.3418,0.083-0.5176c-0.0391-0.2998-0.1919-0.5342-0.459-0.7031c-0.3188-0.2021-0.7778-0.3027-1.377-0.3027
	c-0.5337,0-0.9507,0.1299-1.25,0.3906s-0.459,0.6279-0.4785,1.1035h-2.6855c0.0586-1.2432,0.4819-2.1748,1.2695-2.793
	s1.9434-0.9277,3.4668-0.9277c1.3218,0,2.3647,0.2783,3.1299,0.8359c0.7651,0.5566,1.1475,1.3174,1.1475,2.2822v5.9434
	c0,0.4756,0.0391,0.8096,0.1172,1.002c0.0781,0.1914,0.2344,0.3438,0.4688,0.4541v0.0098v0.3809h-1.5137h-1.5137v-0.0098
	c-0.1235-0.4297-0.2051-0.8496-0.2441-1.2598L43.111,13.457C42.2321,14.499,41.093,15.0195,39.6931,15.0195z M43.0622,10.8203
	V9.5996c-0.3257,0.1826-0.7554,0.3291-1.2891,0.4395l-1.0352,0.1953c-0.4883,0.0908-0.8594,0.2588-1.1133,0.5029
	s-0.3809,0.5518-0.3809,0.9229c0,0.4229,0.1138,0.7549,0.3418,0.9961s0.5469,0.3613,0.957,0.3613
	c0.8984,0,1.6147-0.3154,2.1484-0.9473c0.104-0.124,0.1919-0.3057,0.2637-0.5469S43.0622,11.0479,43.0622,10.8203z M48.1672,4.1211
	h1.3281h1.3379v1.5723c0.1108-0.1885,0.231-0.3682,0.3613-0.5371c0.6899-0.8789,1.6929-1.3184,3.0078-1.3184
	c1.1196,0,1.9971,0.332,2.6318,0.9961s0.9521,1.585,0.9521,2.7637v7.1484h-1.3965h-1.4063V8.1055
	c0-0.6572-0.1416-1.1445-0.4248-1.46s-0.7178-0.4736-1.3037-0.4736c-0.7358,0-1.3003,0.2217-1.6943,0.6641
	S50.9699,7.917,50.9699,8.75v5.9961h-1.3965h-1.4063V4.1211z M60.362,0.3906h1.3965h1.4063v7.7549l3.4951-4.0244h1.729h1.729
	L66.28,8.1514l3.9355,6.5947h-1.6611h-1.6709l-2.5601-4.5762l-1.1587,1.2266v3.3496h-1.3965H60.362V0.3906z M72.1613,13.5254
	c-0.98-0.9961-1.4697-2.3408-1.4697-4.0332c0-1.7314,0.4897-3.1074,1.4697-4.126s2.2998-1.5283,3.96-1.5283
	c1.6733,0,2.998,0.5098,3.9746,1.5283s1.4648,2.3945,1.4648,4.126c0,1.6924-0.4883,3.0371-1.4648,4.0332
	s-2.3013,1.4941-3.9746,1.4941C74.4611,15.0195,73.1413,14.5215,72.1613,13.5254z M78.0256,11.8555
	c0.436-0.5469,0.6543-1.3447,0.6543-2.3926c0-1.0742-0.2183-1.8896-0.6543-2.4463s-1.0708-0.835-1.9043-0.835
	S74.655,6.46,74.2219,7.0166s-0.6494,1.3721-0.6494,2.4463c0,1.0479,0.2163,1.8457,0.6494,2.3926s1.0659,0.8203,1.8994,0.8203
	S77.5895,12.4023,78.0256,11.8555z M85.4064,14.7461l-3.0859-10.625h1.4849h1.4844l1.6973,7.8027h0.0122l1.5811-7.8027h1.3965
	h1.4063l1.5713,7.8223l1.7256-7.8223h1.4082h1.418l-3.0762,10.625h-1.4258h-1.4355l-1.6323-7.9102h0.0068l-1.6753,7.9102H86.842
	H85.4064z M104.8947,7.3047c0-0.4102-0.1694-0.7393-0.5083-0.9863s-0.7881-0.3711-1.3486-0.3711
	c-0.5405,0-0.9624,0.0928-1.2656,0.2783c-0.3027,0.1855-0.4541,0.4443-0.4541,0.7764c0,0.2344,0.1724,0.4365,0.5176,0.6055
	c0.3384,0.1631,0.9409,0.3418,1.8071,0.5371c1.7192,0.3838,2.8687,0.8037,3.4482,1.2598c0.5811,0.4561,0.8716,1.1719,0.8716,2.1484
	c0,1.042-0.4219,1.8799-1.2651,2.5146s-1.9551,0.9521-3.3354,0.9521c-1.6343,0-2.8926-0.3125-3.7749-0.9375
	s-1.3525-1.5361-1.4111-2.7344h2.8516c0.0195,0.4883,0.2358,0.8711,0.6494,1.1475s0.9751,0.415,1.6851,0.415
	c0.5601,0,0.998-0.0957,1.3135-0.2881c0.3159-0.1924,0.4741-0.4609,0.4741-0.8057c0-0.2412-0.1528-0.4463-0.459-0.6152
	c-0.3062-0.1631-0.8433-0.3291-1.6113-0.498c-1.7974-0.4033-2.9985-0.8301-3.604-1.2793c-0.605-0.4424-0.9072-1.1299-0.9072-2.0605
	c0-1.0547,0.3921-1.9063,1.1763-2.5537c0.7847-0.6475,1.8179-0.9717,3.1001-0.9717c1.4453,0,2.6104,0.3174,3.4956,0.9521
	s1.3281,1.4727,1.3281,2.5146H104.8947z M109.9816,0.3906h1.3965h1.4063v7.7549l3.4951-4.0244h1.729h1.729l-3.8379,4.0303
	l3.9355,6.5947h-1.6611h-1.6709l-2.5601-4.5762l-1.1587,1.2266v3.3496h-1.3965h-1.4063V0.3906z M121.0046,0.2832h2.8516v2.5977
	h-2.8516V0.2832z M121.0339,4.1211h1.3965h1.4063v10.625h-1.3965h-1.4063V4.1211z"/>
</svg>
