<?xml version="1.0" encoding="utf-8"?>
<!-- Generator: Adobe Illustrator 22.0.1, SVG Export Plug-In . SVG Version: 6.00 Build 0)  -->
<svg version="1.1" id="Layer_1" xmlns="http://www.w3.org/2000/svg" xmlns:xlink="http://www.w3.org/1999/xlink" x="0px" y="0px"
	 viewBox="0 0 109.0806 14.6289" enable-background="new 0 0 109.0806 14.6289" xml:space="preserve">
<path d="M5.0781,0h1.7383h1.7383l5.0781,14.3555H12.043h-1.5903l-0.9707-2.9199H4.0371l-0.9399,2.9199H1.5537H0L5.0781,0z
	 M4.8696,8.9648h3.811L6.7734,3.1934h0.0029L4.8696,8.9648z M15.2222,11.4453h2.998v2.9102h-2.998V11.4453z M23.5791,14.3555
	h-1.3965h-1.4063V0h2.1973h2.1973l2.6143,11.377h0.001L30.3662,0h2.168h2.168v14.3555h-1.3965h-1.4063V2.2852h0.0015l-2.687,12.0703
	h-1.4746h-1.4746l-2.6831-12.334h-0.0024V14.3555z M39.8076,14.6289c-0.9829,0-1.7739-0.2813-2.373-0.8447
	s-0.8984-1.3037-0.8984-2.2217c0-0.9697,0.27-1.7461,0.8105-2.3291s1.3281-0.9492,2.3633-1.0986l1.8457-0.2539
	c0.4819-0.0654,0.8823-0.1758,1.2012-0.332c0.1367-0.0654,0.2427-0.1826,0.3174-0.3516s0.1025-0.3418,0.083-0.5176
	c-0.0391-0.2998-0.1919-0.5342-0.459-0.7031c-0.3188-0.2021-0.7778-0.3027-1.377-0.3027c-0.5337,0-0.9507,0.1299-1.25,0.3906
	s-0.459,0.6279-0.4785,1.1035h-2.6855c0.0586-1.2432,0.4819-2.1748,1.2695-2.793s1.9434-0.9277,3.4668-0.9277
	c1.3218,0,2.3647,0.2783,3.1299,0.8359c0.7651,0.5566,1.1475,1.3174,1.1475,2.2822v5.9434c0,0.4756,0.0391,0.8096,0.1172,1.002
	c0.0781,0.1914,0.2344,0.3438,0.4688,0.4541v0.0098v0.3809h-1.5137h-1.5137v-0.0098c-0.1235-0.4297-0.2051-0.8496-0.2441-1.2598
	l-0.0098-0.0195C42.3467,14.1084,41.2075,14.6289,39.8076,14.6289z M43.1768,10.4297V9.209
	c-0.3257,0.1826-0.7554,0.3291-1.2891,0.4395l-1.0352,0.1953c-0.4883,0.0908-0.8594,0.2588-1.1133,0.5029
	s-0.3809,0.5518-0.3809,0.9229c0,0.4229,0.1138,0.7549,0.3418,0.9961s0.5469,0.3613,0.957,0.3613
	c0.8984,0,1.6147-0.3154,2.1484-0.9473c0.104-0.124,0.1919-0.3057,0.2637-0.5469S43.1768,10.6572,43.1768,10.4297z M53.1646,14.4141
	c-0.4688,0.0391-1.0449,0.0586-1.7285,0.0586c-0.9897,0-1.7007-0.1777-2.1338-0.5322s-0.6494-0.9355-0.6494-1.7432V5.6934h-1.4746
	V3.7305h1.4746V0.8691h2.8027v2.8613h1.709v1.9629h-1.709v6.0352c0,0.2471,0.0732,0.4102,0.2197,0.4883s0.4507,0.1172,0.9131,0.1172
	h0.5762V14.4141z M59.7246,14.4141c-0.4688,0.0391-1.0449,0.0586-1.7285,0.0586c-0.9897,0-1.7007-0.1777-2.1338-0.5322
	s-0.6494-0.9355-0.6494-1.7432V5.6934h-1.4746V3.7305h1.4746V0.8691h2.8027v2.8613h1.709v1.9629h-1.709v6.0352
	c0,0.2471,0.0732,0.4102,0.2197,0.4883s0.4507,0.1172,0.9131,0.1172h0.5762V14.4141z M61.4019,0h1.3965h1.4063v5.0781l0.2246-0.3125
	c0.6899-0.8789,1.6929-1.3184,3.0078-1.3184c1.1196,0,1.9971,0.332,2.6318,0.9961s0.9521,1.585,0.9521,2.7637v7.1484h-1.3965
	h-1.4063V7.7148c0-0.6572-0.1416-1.1445-0.4248-1.46s-0.7178-0.4736-1.3037-0.4736c-0.7358,0-1.3003,0.2217-1.6943,0.6641
	s-0.5908,1.0811-0.5908,1.9141v5.9961h-1.3965h-1.4063V0z M77.7275,14.6289c-1.6147,0-2.8599-0.498-3.7354-1.4941
	s-1.3135-2.415-1.3135-4.2578c0-1.6992,0.4458-3.0293,1.3379-3.9893s2.1289-1.4404,3.7109-1.4404
	c1.6211,0,2.8696,0.4902,3.7451,1.4697s1.3135,2.375,1.3135,4.1846c0.0132,0.208-0.0034,0.4199-0.0488,0.6348H75.501
	c0.0649,0.8398,0.2505,1.4678,0.5566,1.8848c0.3906,0.5205,1.0415,0.7813,1.9531,0.7813c0.4233,0,0.8154-0.1201,1.1768-0.3613
	s0.5776-0.5303,0.6494-0.8691h2.8516c-0.2407,1.0811-0.7993,1.9268-1.6748,2.5391S79.0425,14.6289,77.7275,14.6289z M79.8662,7.9492
	c-0.0649-0.6377-0.2344-1.1357-0.5078-1.4941c-0.3579-0.4756-0.9146-0.7129-1.6699-0.7129c-0.7227,0-1.2729,0.2764-1.6504,0.8301
	c-0.2344,0.3516-0.4038,0.8105-0.5078,1.377H79.8662z M86.5239,14.3555l-3.0854-10.625h1.4849h1.4854l1.6953,7.8027h0.0137
	l1.5801-7.8027h1.3965h1.4063l1.5723,7.8223l1.7246-7.8223h1.4082h1.418l-3.0762,10.625h-1.4258H92.686l-1.6309-7.9102h0.0059
	l-1.6758,7.9102h-1.4258H86.5239z M106.0122,6.9141c0-0.4102-0.1689-0.7393-0.5078-0.9863s-0.7881-0.3711-1.3486-0.3711
	c-0.541,0-0.9629,0.0928-1.2656,0.2783s-0.4541,0.4443-0.4541,0.7764c0,0.2344,0.1719,0.4365,0.5176,0.6055
	c0.3389,0.1631,0.9414,0.3418,1.8066,0.5371c1.7197,0.3838,2.8691,0.8037,3.4482,1.2598c0.5811,0.4561,0.8721,1.1719,0.8721,2.1484
	c0,1.042-0.4219,1.8799-1.2646,2.5146c-0.8438,0.6348-1.9551,0.9521-3.3359,0.9521c-1.6348,0-2.8926-0.3125-3.7754-0.9375
	c-0.8818-0.625-1.3525-1.5361-1.4111-2.7344h2.8516c0.0195,0.4883,0.2363,0.8711,0.6494,1.1475
	c0.4141,0.2764,0.9756,0.415,1.6855,0.415c0.5596,0,0.998-0.0957,1.3135-0.2881c0.3164-0.1924,0.4736-0.4609,0.4736-0.8057
	c0-0.2412-0.1523-0.4463-0.458-0.6152c-0.3066-0.1631-0.8438-0.3291-1.6123-0.498c-1.7969-0.4033-2.998-0.8301-3.6035-1.2793
	c-0.6045-0.4424-0.9072-1.1299-0.9072-2.0605c0-1.0547,0.3926-1.9063,1.1768-2.5537s1.8174-0.9717,3.0996-0.9717
	c1.4453,0,2.6104,0.3174,3.4961,0.9521c0.8848,0.6348,1.3271,1.4727,1.3271,2.5146H106.0122z"/>
</svg>
