<?xml version="1.0" encoding="utf-8"?>
<!-- Generator: Adobe Illustrator 22.0.1, SVG Export Plug-In . SVG Version: 6.00 Build 0)  -->
<svg version="1.1" id="Layer_1" xmlns="http://www.w3.org/2000/svg" xmlns:xlink="http://www.w3.org/1999/xlink" x="0px" y="0px"
	 viewBox="0 0 57.6519 18.7402" enable-background="new 0 0 57.6519 18.7402" xml:space="preserve">
<path d="M0,0.1074h1.4355h5.5176c1.3867,0,2.4707,0.3203,3.252,0.9619s1.1719,1.5313,1.1719,2.6709
	c0,1.1914-0.4395,2.0967-1.3184,2.7148C9.9155,6.5596,9.7559,6.6533,9.5801,6.7383c0.3384,0.1299,0.6382,0.2861,0.8984,0.4688
	c0.918,0.6318,1.377,1.5527,1.377,2.7637c0,1.4648-0.4541,2.5801-1.3623,3.3447s-2.2349,1.1475-3.9795,1.1475H1.4355H0V0.1074z
	 M2.8711,5.7324h3.4277c0.7485,0,1.3086-0.1396,1.6797-0.4199S8.5352,4.6094,8.5352,4.043c0-0.4883-0.1953-0.8545-0.5859-1.0986
	s-0.98-0.3662-1.7676-0.3662H2.8711V5.7324z M2.8711,11.9727h3.6426c0.7813,0,1.3672-0.1689,1.7578-0.5078
	s0.5859-0.8496,0.5859-1.5332c0-0.5986-0.2002-1.0469-0.6006-1.3428s-1.001-0.4443-1.8018-0.4443h-3.584V11.9727z M14.0991,11.5527
	h2.998v2.9102h-2.998V11.5527z M19.7998,14.4629V0.1074h10.2148V1.377v1.2793h-7.2168V5.918h6.2891v1.2305v1.2402h-6.2891v6.0742
	h-1.4941H19.7998z M34.5146,10.4883c0,0.6514,0.1401,1.1328,0.4199,1.4453s0.7095,0.4688,1.2891,0.4688
	c0.729,0,1.2891-0.2217,1.6797-0.6641s0.5859-1.0811,0.5859-1.9141V3.8379h1.3965h1.4063v10.625h-1.3281H38.626v-1.5918
	c-0.0977,0.1953-0.2148,0.3779-0.3516,0.5469c-0.6899,0.8789-1.6895,1.3184-2.998,1.3184c-1.1196,0-1.9937-0.3301-2.6221-0.9912
	s-0.9424-1.5771-0.9424-2.749V3.8379h1.3965h1.4063V10.4883z M43.8677,3.8379h1.3965h1.4063V15.625
	c0,1.1523-0.249,1.96-0.7471,2.4219s-1.3623,0.6934-2.5928,0.6934l-0.7617-0.0098v-2.2363l0.3418,0.0098
	c0.3774,0,0.6313-0.0605,0.7617-0.1807s0.1953-0.3535,0.1953-0.6982V3.8379z M43.8481,0h2.8516v2.5977h-2.8516V0z M49.3438,0h2.8516
	v2.5977h-2.8516V0z M49.373,3.8379h1.3965h1.4063v10.625h-1.3965H49.373V3.8379z M54.8003,0h2.8516v2.5977h-2.8516V0z
	 M54.8296,3.8379h1.3965h1.4063v10.625h-1.3965h-1.4063V3.8379z"/>
</svg>
