<?xml version="1.0" encoding="utf-8"?>
<!-- Generator: Adobe Illustrator 22.0.1, SVG Export Plug-In . SVG Version: 6.00 Build 0)  -->
<svg version="1.1" id="Layer_1" xmlns="http://www.w3.org/2000/svg" xmlns:xlink="http://www.w3.org/1999/xlink" x="0px" y="0px"
	 viewBox="0 0 54.5661 14.7461" enable-background="new 0 0 54.5661 14.7461" xml:space="preserve">
<path d="M6.2551,0h1.4941h1.5039v10.3223c0,1.458-0.3906,2.5605-1.1719,3.3057s-1.9336,1.1182-3.457,1.1182
	c-1.6211,0-2.8091-0.4102-3.5645-1.2305s-1.1069-2.0869-1.0547-3.7988V8.8574h2.8516v0.8594
	c-0.0259,0.8721,0.1025,1.5186,0.3857,1.9385s0.7339,0.6299,1.3525,0.6299c0.5923,0,1.0171-0.1533,1.2744-0.459
	s0.3857-0.8076,0.3857-1.5039V0z M11.8679,11.4453h2.998v2.9102h-2.998V11.4453z M17.5685,14.3555V0h1.4941h1.5039v11.8066h7.1387
	v1.2695v1.2793H17.5685z M32.01,14.6289c-0.9829,0-1.7739-0.2813-2.373-0.8447s-0.8984-1.3037-0.8984-2.2217
	c0-0.9697,0.27-1.7461,0.8105-2.3291s1.3281-0.9492,2.3633-1.0986l1.8457-0.2539c0.4819-0.0654,0.8823-0.1758,1.2012-0.332
	c0.1367-0.0654,0.2427-0.1826,0.3174-0.3516s0.1025-0.3418,0.083-0.5176c-0.0391-0.2998-0.1919-0.5342-0.459-0.7031
	c-0.3188-0.2021-0.7778-0.3027-1.377-0.3027c-0.5337,0-0.9507,0.1299-1.25,0.3906s-0.459,0.6279-0.4785,1.1035h-2.6855
	c0.0586-1.2432,0.4819-2.1748,1.2695-2.793s1.9434-0.9277,3.4668-0.9277c1.3218,0,2.3647,0.2783,3.1299,0.8359
	c0.7651,0.5566,1.1475,1.3174,1.1475,2.2822v5.9434c0,0.4756,0.0391,0.8096,0.1172,1.002c0.0781,0.1914,0.2344,0.3438,0.4688,0.4541
	v0.0098v0.3809h-1.5137h-1.5137v-0.0098c-0.1235-0.4297-0.2051-0.8496-0.2441-1.2598l-0.0098-0.0195
	C34.549,14.1084,33.4099,14.6289,32.01,14.6289z M35.3791,10.4297V9.209c-0.3257,0.1826-0.7554,0.3291-1.2891,0.4395l-1.0352,0.1953
	c-0.4883,0.0908-0.8594,0.2588-1.1133,0.5029s-0.3809,0.5518-0.3809,0.9229c0,0.4229,0.1138,0.7549,0.3418,0.9961
	s0.5469,0.3613,0.957,0.3613c0.8984,0,1.6147-0.3154,2.1484-0.9473c0.104-0.124,0.1919-0.3057,0.2637-0.5469
	S35.3791,10.6572,35.3791,10.4297z M42.4665,14.3555l-3.0859-10.625h1.4849h1.4844l1.6973,7.8027h0.0122l1.5811-7.8027h1.3965
	h1.4063l1.5713,7.8223l1.7256-7.8223h1.4082h1.418l-3.0762,10.625h-1.4258h-1.4355l-1.6323-7.9102h0.0068l-1.6753,7.9102H43.902
	H42.4665z"/>
</svg>
