<?xml version="1.0" encoding="utf-8"?>
<!-- Generator: Adobe Illustrator 22.0.1, SVG Export Plug-In . SVG Version: 6.00 Build 0)  -->
<svg version="1.1" id="Layer_1" xmlns="http://www.w3.org/2000/svg" xmlns:xlink="http://www.w3.org/1999/xlink" x="0px" y="0px"
	 viewBox="0 0 89.8643 19.0918" enable-background="new 0 0 89.8643 19.0918" xml:space="preserve">
<path d="M0,0.3906h1.4941h4.5117c1.6343,0,2.8774,0.3828,3.7305,1.1475s1.2793,1.8799,1.2793,3.3447
	c0,1.5498-0.4263,2.7266-1.2793,3.5303S7.6401,9.6191,6.0059,9.6191c-1.1587-0.0068-2.1616,0-3.0078,0.0195v5.1074H1.5039H0V0.3906z
	 M2.998,7.1484h2.5c0.8398,0,1.4697-0.1855,1.8896-0.5566s0.6299-0.9307,0.6299-1.6797c0-0.6836-0.21-1.1963-0.6299-1.5381
	S6.3379,2.8613,5.498,2.8613h-2.5V7.1484z M12.9956,11.8359h2.998v2.9102h-2.998V11.8359z M26.4756,4.6973
	c-0.0518-0.6836-0.3511-1.2256-0.8979-1.626c-0.5464-0.4004-1.2588-0.6006-2.1372-0.6006c-0.7612,0-1.3569,0.168-1.7861,0.5029
	c-0.4297,0.335-0.644,0.8027-0.644,1.4014c0,0.4297,0.2246,0.7617,0.6738,0.9961c0.4424,0.2344,1.3833,0.5107,2.8218,0.8301
	c2.0898,0.4688,3.4858,1.0088,4.189,1.6211c0.7041,0.6055,1.0562,1.5791,1.0562,2.9199c0,1.3477-0.5308,2.417-1.5913,3.208
	c-1.061,0.791-2.4966,1.1865-4.3057,1.1865c-1.8164,0-3.2354-0.4199-4.2573-1.2598c-1.0215-0.8398-1.5684-2.0342-1.6401-3.584
	h2.8906c0.0327,0.7617,0.3091,1.3477,0.8301,1.7578c0.5205,0.4102,1.2461,0.6152,2.1768,0.6152
	c0.9565,0,1.7036-0.1543,2.2407-0.4639c0.5366-0.3096,0.8052-0.7373,0.8052-1.2842c0-0.54-0.1934-0.9375-0.5806-1.1914
	c-0.3774-0.2539-1.1841-0.5176-2.4204-0.791c-2.2769-0.5078-3.7993-1.0576-4.5669-1.6504c-0.7627-0.5859-1.1436-1.501-1.1436-2.7441
	c0-1.3936,0.5044-2.498,1.5132-3.3154S22.0742,0,23.792,0c1.6074,0,2.916,0.4229,3.9243,1.2695
	c1.0088,0.8467,1.5688,1.9893,1.6792,3.4277H26.4756z M32.5664,13.5254c-0.98-0.9961-1.4697-2.3408-1.4697-4.0332
	c0-1.7314,0.4897-3.1074,1.4697-4.126s2.2998-1.5283,3.96-1.5283c1.6733,0,2.998,0.5098,3.9746,1.5283s1.4648,2.3945,1.4648,4.126
	c0,1.6924-0.4883,3.0371-1.4648,4.0332s-2.3013,1.4941-3.9746,1.4941C34.8662,15.0195,33.5464,14.5215,32.5664,13.5254z
	 M38.4307,11.8555c0.436-0.5469,0.6543-1.3447,0.6543-2.3926c0-1.0742-0.2183-1.8896-0.6543-2.4463s-1.0708-0.835-1.9043-0.835
	S35.0601,6.46,34.627,7.0166s-0.6494,1.3721-0.6494,2.4463c0,1.0479,0.2163,1.8457,0.6494,2.3926s1.0659,0.8203,1.8994,0.8203
	S37.9946,12.4023,38.4307,11.8555z M43.9067,0.3906h1.3965h1.4063v14.3555H45.313h-1.4063V0.3906z M49.207,0.3906h1.3965h1.4063
	v5.1172l0.0586-0.0781c0.7554-1.0615,1.7515-1.5918,2.9883-1.5918c1.3477,0,2.4316,0.498,3.252,1.4941s1.2305,2.3076,1.2305,3.9355
	c0,1.7256-0.4102,3.1152-1.2305,4.1699s-1.9043,1.582-3.252,1.582c-1.2305,0-2.2266-0.4951-2.9883-1.4844l-0.1172-0.1563v1.3672
	H49.207V0.3906z M54.2559,12.7148c0.7554,0,1.3442-0.2813,1.7676-0.8447s0.6348-1.3457,0.6348-2.3486
	c0-1.0225-0.2114-1.8213-0.6348-2.3975s-1.0093-0.8643-1.7578-0.8643s-1.3345,0.2959-1.7578,0.8887s-0.6348,1.416-0.6348,2.4707
	c0,0.9697,0.2114,1.7285,0.6348,2.2754C52.9243,12.4414,53.5073,12.7148,54.2559,12.7148z M65.6108,15.0195
	c-1.6147,0-2.8599-0.498-3.7354-1.4941s-1.3135-2.415-1.3135-4.2578c0-1.6992,0.4458-3.0293,1.3379-3.9893
	s2.1289-1.4404,3.7109-1.4404c1.6211,0,2.8696,0.4902,3.7451,1.4697s1.3135,2.375,1.3135,4.1846
	c0.0132,0.208-0.0034,0.4199-0.0488,0.6348h-7.2363c0.0649,0.8398,0.2505,1.4678,0.5566,1.8848
	c0.3906,0.5205,1.0415,0.7813,1.9531,0.7813c0.4233,0,0.8154-0.1201,1.1768-0.3613s0.5776-0.5303,0.6494-0.8691h2.8516
	c-0.2407,1.0811-0.7993,1.9268-1.6748,2.5391S66.9258,15.0195,65.6108,15.0195z M67.7495,8.3398
	c-0.0649-0.6377-0.2344-1.1357-0.5078-1.4941c-0.3579-0.4756-0.9146-0.7129-1.6699-0.7129c-0.7227,0-1.2729,0.2764-1.6504,0.8301
	c-0.2344,0.3516-0.4038,0.8105-0.5078,1.377H67.7495z M72.4053,4.1211h1.3281h1.3379v1.9043c0.0977-0.208,0.208-0.4102,0.332-0.6055
	c0.6572-1.0547,1.5068-1.582,2.5488-1.582l0.6348,0.0098V6.709c-0.2471-0.0264-0.5273-0.0391-0.8398-0.0391
	c-0.8525,0-1.4893,0.2119-1.9092,0.6348S75.208,8.3691,75.208,9.2285v5.5176h-1.3965h-1.4063V4.1211z M84.9033,16.9531
	c0.7881,0,1.3545-0.1904,1.6992-0.5713s0.5176-1.0107,0.5176-1.8896v-1.3086l-0.2246,0.3418
	c-0.6182,0.8525-1.5068,1.2793-2.666,1.2793c-1.3799,0-2.4951-0.4961-3.3447-1.4893s-1.2744-2.3027-1.2744-3.9307
	c0-1.667,0.4131-3.0078,1.2402-4.0234s1.9141-1.5234,3.2617-1.5234c1.1914,0,2.1162,0.4326,2.7734,1.2988
	c0.124,0.1631,0.2373,0.3418,0.3418,0.5371V4.1211h2.6367v10.0586c0,1.6797-0.415,2.918-1.2451,3.7158s-2.124,1.1963-3.8818,1.1963
	c-1.4453,0-2.5947-0.2813-3.4473-0.8447s-1.3086-1.3428-1.3672-2.3389h3.0469c0.0264,0.3643,0.1934,0.6299,0.5029,0.7959
	S84.2588,16.9531,84.9033,16.9531z M84.8154,6.2598c-0.7295,0-1.2988,0.2783-1.709,0.835s-0.6152,1.3301-0.6152,2.3193
	c0,0.9697,0.2051,1.7266,0.6152,2.2705S84.083,12.5,84.8057,12.5c0.7354,0,1.3105-0.2764,1.7236-0.8301s0.6201-1.3184,0.6201-2.2949
	s-0.207-1.7402-0.6201-2.29S85.5449,6.2598,84.8154,6.2598z"/>
</svg>
