<?xml version="1.0" encoding="utf-8"?>
<!-- Generator: Adobe Illustrator 22.0.1, SVG Export Plug-In . SVG Version: 6.00 Build 0)  -->
<svg version="1.1" id="Layer_1" xmlns="http://www.w3.org/2000/svg" xmlns:xlink="http://www.w3.org/1999/xlink" x="0px" y="0px"
	 viewBox="0 0 93.8291 19.0918" enable-background="new 0 0 93.8291 19.0918" xml:space="preserve">
<path d="M12.8027,9.7168c-0.1821,1.6602-0.8315,2.9785-1.9482,3.9551s-2.5376,1.4648-4.2627,1.4648
	c-2.0181,0-3.6216-0.6738-4.8096-2.0215S0,9.9443,0,7.6465c0-2.3438,0.5942-4.2041,1.7822-5.5811S4.5737,0,6.5918,0
	c1.7056,0,3.1187,0.4609,4.2383,1.3818s1.7773,2.1699,1.9727,3.7451h-2.998C9.707,4.3525,9.3726,3.7373,8.8022,3.2813
	C8.2314,2.8252,7.5063,2.5977,6.6265,2.5977c-1.1152,0-1.9888,0.4443-2.6211,1.333S3.0566,6.0518,3.0566,7.627
	c0,1.5361,0.3145,2.7393,0.9438,3.6084c0.6289,0.8691,1.5044,1.3037,2.626,1.3037c0.8799,0,1.605-0.2539,2.1758-0.7617
	c0.5703-0.5078,0.9048-1.1943,1.0024-2.0605H12.8027z M14.7437,11.8359h2.998v2.9102h-2.998V11.8359z M20.4443,14.7461V0.3906
	h10.2148v1.2695v1.2793h-7.2168v3.2617h6.2891v1.2305v1.2402h-6.2891v6.0742h-1.4941H20.4443z M32.415,0.3906h1.3965h1.4063v14.3555
	h-1.3965H32.415V0.3906z M42.0024,15.0195c-1.6147,0-2.8599-0.498-3.7354-1.4941s-1.3135-2.415-1.3135-4.2578
	c0-1.6992,0.4458-3.0293,1.3379-3.9893s2.1289-1.4404,3.7109-1.4404c1.6211,0,2.8696,0.4902,3.7451,1.4697
	s1.3135,2.375,1.3135,4.1846c0.0132,0.208-0.0034,0.4199-0.0488,0.6348h-7.2363c0.0649,0.8398,0.2505,1.4678,0.5566,1.8848
	c0.3906,0.5205,1.0415,0.7813,1.9531,0.7813c0.4233,0,0.8154-0.1201,1.1768-0.3613s0.5776-0.5303,0.6494-0.8691h2.8516
	c-0.2407,1.0811-0.7993,1.9268-1.6748,2.5391S43.3174,15.0195,42.0024,15.0195z M44.1411,8.3398
	c-0.0649-0.6377-0.2344-1.1357-0.5078-1.4941c-0.3579-0.4756-0.9146-0.7129-1.6699-0.7129c-0.7227,0-1.2729,0.2764-1.6504,0.8301
	c-0.2344,0.3516-0.4038,0.8105-0.5078,1.377H44.1411z M48.7969,4.1211h1.3281h1.3379v1.709
	c0.1235-0.2998,0.2793-0.5664,0.4678-0.8008c0.6177-0.7939,1.5146-1.1914,2.6909-1.1914c0.936,0,1.7031,0.3154,2.3013,0.9473
	c0.2339,0.2412,0.4189,0.5078,0.5557,0.8008l0.3423-0.5566c0.5801-0.7939,1.4248-1.1914,2.5332-1.1914
	c1.1538,0,2.0571,0.3418,2.709,1.0254s0.978,1.6309,0.978,2.8418v7.041h-1.3965h-1.4063V8.5059
	c0-0.7939-0.1309-1.3818-0.3916-1.7627c-0.2617-0.3809-0.666-0.5713-1.2144-0.5713c-0.5879,0-1.0366,0.1807-1.3472,0.542
	c-0.3096,0.3613-0.4648,0.8809-0.4648,1.5576v6.4746h-1.3965h-1.4063V8.0469c0-0.6377-0.1362-1.1104-0.4092-1.416
	c-0.2725-0.3057-0.6914-0.459-1.2559-0.459c-0.5649,0-0.9985,0.1807-1.3003,0.542s-0.4526,0.8809-0.4526,1.5576v6.4746h-1.3965
	h-1.4063V4.1211z M66.5776,0.2832h2.8516v2.5977h-2.8516V0.2832z M66.6069,4.1211h1.3965h1.4063v10.625h-1.3965h-1.4063V4.1211z
	 M71.9561,4.1211h1.3281h1.3379v1.5723c0.1108-0.1885,0.231-0.3682,0.3613-0.5371c0.6899-0.8789,1.6929-1.3184,3.0078-1.3184
	c1.1196,0,1.9971,0.332,2.6318,0.9961s0.9521,1.585,0.9521,2.7637v7.1484h-1.3965h-1.4063V8.1055
	c0-0.6572-0.1416-1.1445-0.4248-1.46s-0.7178-0.4736-1.3037-0.4736c-0.7358,0-1.3003,0.2217-1.6943,0.6641
	S74.7588,7.917,74.7588,8.75v5.9961h-1.3965h-1.4063V4.1211z M88.8682,16.9531c0.7876,0,1.354-0.1904,1.6992-0.5713
	s0.5176-1.0107,0.5176-1.8896v-1.3086l-0.2246,0.3418c-0.6187,0.8525-1.5073,1.2793-2.666,1.2793
	c-1.3804,0-2.4951-0.4961-3.3447-1.4893s-1.2744-2.3027-1.2744-3.9307c0-1.667,0.4136-3.0078,1.2402-4.0234
	s1.9141-1.5234,3.2617-1.5234c1.1914,0,2.1157,0.4326,2.7734,1.2988c0.1235,0.1631,0.2378,0.3418,0.3418,0.5371V4.1211h2.6367
	v10.0586c0,1.6797-0.415,2.918-1.2451,3.7158s-2.124,1.1963-3.8818,1.1963c-1.4453,0-2.5942-0.2813-3.4473-0.8447
	s-1.3086-1.3428-1.3672-2.3389h3.0469c0.0259,0.3643,0.1938,0.6299,0.5029,0.7959S88.2236,16.9531,88.8682,16.9531z M88.7803,6.2598
	c-0.729,0-1.2988,0.2783-1.709,0.835s-0.6152,1.3301-0.6152,2.3193c0,0.9697,0.2051,1.7266,0.6152,2.2705S88.0479,12.5,88.7705,12.5
	c0.7358,0,1.3101-0.2764,1.7236-0.8301s0.6201-1.3184,0.6201-2.2949s-0.2065-1.7402-0.6201-2.29S89.5093,6.2598,88.7803,6.2598z"/>
</svg>
