<?xml version="1.0" encoding="utf-8"?>
<!-- Generator: Adobe Illustrator 22.0.1, SVG Export Plug-In . SVG Version: 6.00 Build 0)  -->
<svg version="1.1" id="Layer_1" xmlns="http://www.w3.org/2000/svg" xmlns:xlink="http://www.w3.org/1999/xlink" x="0px" y="0px"
	 viewBox="0 0 72.0171 18.6328" enable-background="new 0 0 72.0171 18.6328" xml:space="preserve">
<path d="M0,0h1.4941h4.5117c1.6343,0,2.8774,0.3828,3.7305,1.1475s1.2793,1.8799,1.2793,3.3447
	c0,1.5498-0.4263,2.7266-1.2793,3.5303S7.6401,9.2285,6.0059,9.2285c-1.1587-0.0068-2.1616,0-3.0078,0.0195v5.1074H1.5039H0V0z
	 M2.998,6.7578h2.5c0.8398,0,1.4697-0.1855,1.8896-0.5566s0.6299-0.9307,0.6299-1.6797c0-0.6836-0.21-1.1963-0.6299-1.5381
	S6.3379,2.4707,5.498,2.4707h-2.5V6.7578z"/>
<path d="M12.9956,11.4453h2.998v2.9102h-2.998V11.4453z"/>
<path d="M17.5537,0h1.5928h1.5933l3.1582,10.9668h-0.0073L27.0386,0h1.542h1.5513l-4.8633,14.3555h-1.4258H22.417L17.5537,0z"/>
<path d="M34.2607,14.6289c-0.9829,0-1.7739-0.2813-2.373-0.8447s-0.8984-1.3037-0.8984-2.2217c0-0.9697,0.27-1.7461,0.8105-2.3291
	s1.3281-0.9492,2.3633-1.0986l1.8457-0.2539c0.4819-0.0654,0.8823-0.1758,1.2012-0.332c0.1367-0.0654,0.2427-0.1826,0.3174-0.3516
	s0.1025-0.3418,0.083-0.5176c-0.0391-0.2998-0.1919-0.5342-0.459-0.7031c-0.3188-0.2021-0.7778-0.3027-1.377-0.3027
	c-0.5337,0-0.9507,0.1299-1.25,0.3906s-0.459,0.6279-0.4785,1.1035h-2.6855c0.0586-1.2432,0.4819-2.1748,1.2695-2.793
	s1.9434-0.9277,3.4668-0.9277c1.3218,0,2.3647,0.2783,3.1299,0.8359c0.7651,0.5566,1.1475,1.3174,1.1475,2.2822v5.9434
	c0,0.4756,0.0391,0.8096,0.1172,1.002c0.0781,0.1914,0.2344,0.3438,0.4688,0.4541v0.0098v0.3809h-1.5137h-1.5137v-0.0098
	c-0.1235-0.4297-0.2051-0.8496-0.2441-1.2598l-0.0098-0.0195C36.7998,14.1084,35.6606,14.6289,34.2607,14.6289z M37.6299,10.4297
	V9.209c-0.3257,0.1826-0.7554,0.3291-1.2891,0.4395l-1.0352,0.1953c-0.4883,0.0908-0.8594,0.2588-1.1133,0.5029
	s-0.3809,0.5518-0.3809,0.9229c0,0.4229,0.1138,0.7549,0.3418,0.9961s0.5469,0.3613,0.957,0.3613
	c0.8984,0,1.6147-0.3154,2.1484-0.9473c0.104-0.124,0.1919-0.3057,0.2637-0.5469S37.6299,10.6572,37.6299,10.4297z"/>
<path d="M42.7153,3.7305h1.3281h1.3379v1.9043c0.0977-0.208,0.2085-0.4102,0.332-0.6055c0.6577-1.0547,1.5073-1.582,2.5488-1.582
	L48.897,3.457v2.8613c-0.2476-0.0264-0.5273-0.0391-0.8398-0.0391c-0.853,0-1.4893,0.2119-1.9092,0.6348
	s-0.6299,1.0645-0.6299,1.9238v5.5176h-1.3965h-1.4063V3.7305z"/>
<path d="M54.3242,14.6289c-1.354,0-2.4463-0.5273-3.2764-1.582s-1.2451-2.4443-1.2451-4.1699c0-1.6279,0.4136-2.9395,1.2402-3.9355
	s1.9141-1.4941,3.2617-1.4941c1.2046,0,2.1743,0.5078,2.9102,1.5234L57.332,5.127V0h1.3965h1.4063v14.3555h-1.3574h-1.3574V12.998
	l-0.0488,0.0684C56.5962,14.1084,55.5806,14.6289,54.3242,14.6289z M55.0762,5.8691c-0.7485,0-1.3345,0.2881-1.7578,0.8643
	s-0.6348,1.375-0.6348,2.3975c0,1.0029,0.21,1.7852,0.6299,2.3486s1.0044,0.8447,1.7529,0.8447
	c0.7554,0,1.3442-0.2959,1.7676-0.8887s0.6348-1.416,0.6348-2.4707c0-0.9697-0.2114-1.7285-0.6348-2.2754
	S55.8247,5.8691,55.0762,5.8691z"/>
<path d="M68.2085,14.5801c-0.6128,1.79-1.1372,2.9131-1.5737,3.3691s-1.2148,0.6836-2.335,0.6836l-1.3379-0.0293v-2.2461
	c0.0649,0.0264,0.2441,0.0391,0.5371,0.0391c0.7485,0,1.2368-0.1533,1.4648-0.459c0.1431-0.1953,0.2861-0.5986,0.4297-1.2109
	L61.4312,3.7305h1.542h1.5513l2.312,7.8809h0.0024l2.249-7.8809h1.4648h1.4644L68.2085,14.5801z"/>
</svg>
