<?xml version="1.0" encoding="utf-8"?>
<!-- Generator: Adobe Illustrator 22.0.1, SVG Export Plug-In . SVG Version: 6.00 Build 0)  -->
<svg version="1.1" id="Layer_1" xmlns="http://www.w3.org/2000/svg" xmlns:xlink="http://www.w3.org/1999/xlink" x="0px" y="0px"
	 viewBox="0 0 109.3179 15.1367" enable-background="new 0 0 109.3179 15.1367" xml:space="preserve">
<path d="M2.8027,14.7461H1.4063H0V0.3906h2.1973h2.1973l2.6143,11.377h0.001l2.5801-11.377h2.168h2.168v14.3555h-1.3965H11.123
	V2.6758h0.0015l-2.687,12.0703H6.9629H5.4883L2.8052,2.4121H2.8027V14.7461z M16.4624,11.8359h2.998v2.9102h-2.998V11.8359z
	 M29.9424,4.6973c-0.0518-0.6836-0.3511-1.2256-0.8979-1.626c-0.5464-0.4004-1.2588-0.6006-2.1372-0.6006
	c-0.7612,0-1.3569,0.168-1.7861,0.5029c-0.4297,0.335-0.644,0.8027-0.644,1.4014c0,0.4297,0.2246,0.7617,0.6738,0.9961
	c0.4424,0.2344,1.3833,0.5107,2.8218,0.8301c2.0898,0.4688,3.4858,1.0088,4.189,1.6211c0.7041,0.6055,1.0562,1.5791,1.0562,2.9199
	c0,1.3477-0.5308,2.417-1.5913,3.208c-1.061,0.791-2.4966,1.1865-4.3057,1.1865c-1.8164,0-3.2354-0.4199-4.2573-1.2598
	c-1.0215-0.8398-1.5684-2.0342-1.6401-3.584h2.8906c0.0327,0.7617,0.3091,1.3477,0.8301,1.7578
	c0.5205,0.4102,1.2461,0.6152,2.1768,0.6152c0.9565,0,1.7036-0.1543,2.2407-0.4639c0.5366-0.3096,0.8052-0.7373,0.8052-1.2842
	c0-0.54-0.1934-0.9375-0.5806-1.1914c-0.3774-0.2539-1.1841-0.5176-2.4204-0.791c-2.2769-0.5078-3.7993-1.0576-4.5669-1.6504
	c-0.7627-0.5859-1.1436-1.501-1.1436-2.7441c0-1.3936,0.5044-2.498,1.5132-3.3154S25.541,0,27.2588,0
	c1.6074,0,2.916,0.4229,3.9243,1.2695c1.0088,0.8467,1.5688,1.9893,1.6792,3.4277H29.9424z M35.2568,0.2832h2.8516v2.5977h-2.8516
	V0.2832z M35.2861,4.1211h1.3965h1.4063v10.625h-1.3965h-1.4063V4.1211z M40.6157,4.1211h1.3281h1.3379v1.709
	c0.1235-0.2998,0.2793-0.5664,0.4678-0.8008c0.6177-0.7939,1.5146-1.1914,2.6909-1.1914c0.936,0,1.7031,0.3154,2.3013,0.9473
	c0.2339,0.2412,0.4189,0.5078,0.5557,0.8008l0.3423-0.5566c0.5801-0.7939,1.4248-1.1914,2.5332-1.1914
	c1.1538,0,2.0571,0.3418,2.709,1.0254s0.978,1.6309,0.978,2.8418v7.041h-1.3965h-1.4063V8.5059
	c0-0.7939-0.1309-1.3818-0.3916-1.7627c-0.2617-0.3809-0.666-0.5713-1.2144-0.5713c-0.5879,0-1.0366,0.1807-1.3472,0.542
	c-0.3096,0.3613-0.4648,0.8809-0.4648,1.5576v6.4746h-1.3965h-1.4063V8.0469c0-0.6377-0.1362-1.1104-0.4092-1.416
	c-0.2725-0.3057-0.6914-0.459-1.2559-0.459c-0.5649,0-0.9985,0.1807-1.3003,0.542s-0.4526,0.8809-0.4526,1.5576v6.4746H42.022
	h-1.4063V4.1211z M58.2988,4.1211h1.3281h1.3379v1.709c0.1235-0.2998,0.2793-0.5664,0.4678-0.8008
	c0.6177-0.7939,1.5146-1.1914,2.6909-1.1914c0.936,0,1.7031,0.3154,2.3013,0.9473c0.2339,0.2412,0.4189,0.5078,0.5557,0.8008
	l0.3423-0.5566c0.5801-0.7939,1.4248-1.1914,2.5332-1.1914c1.1538,0,2.0571,0.3418,2.709,1.0254s0.978,1.6309,0.978,2.8418v7.041
	h-1.3965h-1.4063V8.5059c0-0.7939-0.1309-1.3818-0.3916-1.7627c-0.2617-0.3809-0.666-0.5713-1.2144-0.5713
	c-0.5879,0-1.0366,0.1807-1.3472,0.542c-0.3096,0.3613-0.4648,0.8809-0.4648,1.5576v6.4746h-1.3965h-1.4063V8.0469
	c0-0.6377-0.1362-1.1104-0.4092-1.416c-0.2725-0.3057-0.6914-0.459-1.2559-0.459c-0.5649,0-0.9985,0.1807-1.3003,0.542
	s-0.4526,0.8809-0.4526,1.5576v6.4746h-1.3965h-1.4063V4.1211z M76.8569,13.5254c-0.9795-0.9961-1.4697-2.3408-1.4697-4.0332
	c0-1.7314,0.4902-3.1074,1.4697-4.126s2.2998-1.5283,3.96-1.5283c1.6729,0,2.998,0.5098,3.9746,1.5283s1.4648,2.3945,1.4648,4.126
	c0,1.6924-0.4883,3.0371-1.4648,4.0332s-2.3018,1.4941-3.9746,1.4941C79.1567,15.0195,77.8364,14.5215,76.8569,13.5254z
	 M82.7212,11.8555c0.4365-0.5469,0.6543-1.3447,0.6543-2.3926c0-1.0742-0.2178-1.8896-0.6543-2.4463s-1.0713-0.835-1.9043-0.835
	s-1.4668,0.2783-1.8994,0.835s-0.6494,1.3721-0.6494,2.4463c0,1.0479,0.2168,1.8457,0.6494,2.3926s1.0664,0.8203,1.8994,0.8203
	S82.2847,12.4023,82.7212,11.8555z M88.1187,4.1211h1.3281h1.3379v1.5723c0.1104-0.1885,0.2314-0.3682,0.3613-0.5371
	c0.6904-0.8789,1.6924-1.3184,3.0078-1.3184c1.1201,0,1.9971,0.332,2.6318,0.9961s0.9521,1.585,0.9521,2.7637v7.1484h-1.3965
	h-1.4063V8.1055c0-0.6572-0.1416-1.1445-0.4248-1.46s-0.7178-0.4736-1.3037-0.4736c-0.7354,0-1.3008,0.2217-1.6943,0.6641
	S90.9214,7.917,90.9214,8.75v5.9961h-1.3965h-1.4063V4.1211z M106.2495,7.3047c0-0.4102-0.1689-0.7393-0.5078-0.9863
	s-0.7881-0.3711-1.3486-0.3711c-0.541,0-0.9629,0.0928-1.2656,0.2783s-0.4541,0.4443-0.4541,0.7764
	c0,0.2344,0.1719,0.4365,0.5176,0.6055c0.3389,0.1631,0.9414,0.3418,1.8066,0.5371c1.7197,0.3838,2.8691,0.8037,3.4482,1.2598
	c0.5811,0.4561,0.8721,1.1719,0.8721,2.1484c0,1.042-0.4219,1.8799-1.2646,2.5146c-0.8438,0.6348-1.9551,0.9521-3.3359,0.9521
	c-1.6348,0-2.8926-0.3125-3.7754-0.9375c-0.8818-0.625-1.3525-1.5361-1.4111-2.7344h2.8516
	c0.0195,0.4883,0.2363,0.8711,0.6494,1.1475c0.4141,0.2764,0.9756,0.415,1.6855,0.415c0.5596,0,0.998-0.0957,1.3135-0.2881
	c0.3164-0.1924,0.4736-0.4609,0.4736-0.8057c0-0.2412-0.1523-0.4463-0.458-0.6152c-0.3066-0.1631-0.8438-0.3291-1.6123-0.498
	c-1.7969-0.4033-2.998-0.8301-3.6035-1.2793c-0.6045-0.4424-0.9072-1.1299-0.9072-2.0605c0-1.0547,0.3926-1.9063,1.1768-2.5537
	s1.8174-0.9717,3.0996-0.9717c1.4453,0,2.6104,0.3174,3.4961,0.9521c0.8848,0.6348,1.3271,1.4727,1.3271,2.5146H106.2495z"/>
</svg>
