<?xml version="1.0" encoding="utf-8"?>
<!-- Generator: Adobe Illustrator 22.0.1, SVG Export Plug-In . SVG Version: 6.00 Build 0)  -->
<svg version="1.1" id="Layer_1" xmlns="http://www.w3.org/2000/svg" xmlns:xlink="http://www.w3.org/1999/xlink" x="0px" y="0px"
	 viewBox="0 0 60.3169 8.7773" enable-background="new 0 0 60.3169 8.7773" xml:space="preserve">
<path d="M0,0h0.8965h2.7891c1.1836,0,2.083,0.3477,2.6982,1.043s0.9229,1.7129,0.9229,3.0527c0,1.4766-0.3193,2.5986-0.958,3.3662
	S4.7734,8.6133,3.5391,8.6133H0.8965H0V0z M1.7988,7.1309h1.5176c0.7305,0,1.2783-0.2471,1.6436-0.7412S5.5078,5.1543,5.5078,4.166
	c0-0.8945-0.1699-1.5654-0.5098-2.0127S4.1465,1.4824,3.4629,1.4824H1.7988V7.1309z M8.5195,6.8672h1.7988v1.7461H8.5195V6.8672z
	 M12,0h0.8613h3.3105c0.832,0,1.4824,0.1924,1.9512,0.5771s0.7031,0.9189,0.7031,1.6025c0,0.7148-0.2637,1.2578-0.791,1.6289
	c-0.0859,0.0625-0.1816,0.1191-0.2871,0.1699c0.2031,0.0781,0.3828,0.1719,0.5391,0.2813c0.5508,0.3789,0.8262,0.9316,0.8262,1.6582
	c0,0.8789-0.2725,1.5479-0.8174,2.0068s-1.3408,0.6885-2.3877,0.6885h-3.0469H12V0z M13.7227,3.375h2.0566
	c0.4492,0,0.7852-0.084,1.0078-0.252s0.334-0.4219,0.334-0.7617c0-0.293-0.1172-0.5127-0.3516-0.6592s-0.5879-0.2197-1.0605-0.2197
	h-1.9863V3.375z M13.7227,7.1191h2.1855c0.4688,0,0.8203-0.1016,1.0547-0.3047s0.3516-0.5098,0.3516-0.9199
	c0-0.3594-0.1201-0.6279-0.3604-0.8057s-0.6006-0.2666-1.0811-0.2666h-2.1504V7.1191z M20.5195,2.2383h0.7969h0.8027v1.1426
	c0.0586-0.125,0.125-0.2461,0.1992-0.3633c0.3945-0.6328,0.9043-0.9492,1.5293-0.9492l0.3809,0.0059V3.791
	c-0.1484-0.0156-0.3164-0.0234-0.5039-0.0234c-0.5117,0-0.8936,0.127-1.1455,0.3809s-0.3779,0.6387-0.3779,1.1543v3.3105h-0.8379
	h-0.8438V2.2383z M27.7266,8.7773c-0.9688,0-1.7158-0.2988-2.2412-0.8965s-0.7881-1.4492-0.7881-2.5547
	c0-1.0195,0.2676-1.8174,0.8027-2.3936s1.2773-0.8643,2.2266-0.8643c0.9727,0,1.7217,0.2939,2.2471,0.8818
	s0.7881,1.4248,0.7881,2.5107c0.0078,0.125-0.002,0.252-0.0293,0.3809h-4.3418c0.0391,0.5039,0.1504,0.8809,0.334,1.1309
	c0.2344,0.3125,0.625,0.4688,1.1719,0.4688c0.2539,0,0.4893-0.0723,0.7061-0.2168s0.3467-0.3184,0.3896-0.5215h1.7109
	c-0.1445,0.6484-0.4795,1.1563-1.0049,1.5234S28.5156,8.7773,27.7266,8.7773z M29.0098,4.7695
	c-0.0391-0.3828-0.1406-0.6816-0.3047-0.8965c-0.2148-0.2852-0.5488-0.4277-1.002-0.4277c-0.4336,0-0.7637,0.166-0.9902,0.498
	c-0.1406,0.2109-0.2422,0.4863-0.3047,0.8262H29.0098z M31.8633,2.2383h0.7969h0.8027v1.1426
	c0.0586-0.125,0.125-0.2461,0.1992-0.3633c0.3945-0.6328,0.9043-0.9492,1.5293-0.9492l0.3809,0.0059V3.791
	c-0.1484-0.0156-0.3164-0.0234-0.5039-0.0234c-0.5117,0-0.8936,0.127-1.1455,0.3809s-0.3779,0.6387-0.3779,1.1543v3.3105H32.707
	h-0.8438V2.2383z M39.0703,8.7773c-0.9688,0-1.7158-0.2988-2.2412-0.8965S36.041,6.4316,36.041,5.3262
	c0-1.0195,0.2676-1.8174,0.8027-2.3936s1.2773-0.8643,2.2266-0.8643c0.9727,0,1.7217,0.2939,2.2471,0.8818
	s0.7881,1.4248,0.7881,2.5107c0.0078,0.125-0.002,0.252-0.0293,0.3809h-4.3418c0.0391,0.5039,0.1504,0.8809,0.334,1.1309
	c0.2344,0.3125,0.625,0.4688,1.1719,0.4688c0.2539,0,0.4893-0.0723,0.7061-0.2168s0.3467-0.3184,0.3896-0.5215h1.7109
	c-0.1445,0.6484-0.4795,1.1563-1.0049,1.5234S39.8594,8.7773,39.0703,8.7773z M40.3535,4.7695
	c-0.0391-0.3828-0.1406-0.6816-0.3047-0.8965C39.834,3.5879,39.5,3.4453,39.0469,3.4453c-0.4336,0-0.7637,0.166-0.9902,0.498
	c-0.1406,0.2109-0.2422,0.4863-0.3047,0.8262H40.3535z M46.1489,8.6484c-0.2813,0.0234-0.627,0.0352-1.0371,0.0352
	c-0.5938,0-1.0215-0.1064-1.2813-0.3193s-0.3892-0.5615-0.3892-1.0459V3.416h-0.8848V2.2383h0.8848V0.5215h1.6821v1.7168h1.0254
	V3.416h-1.0254v3.6211c0,0.1484,0.043,0.2461,0.1309,0.293s0.2715,0.0703,0.5488,0.0703h0.3457V8.6484z M47.728,7.8809
	c-0.5879-0.5977-0.8818-1.4043-0.8818-2.4199c0-1.0391,0.2939-1.8643,0.8818-2.4756s1.3799-0.917,2.376-0.917
	c1.0039,0,1.7988,0.3057,2.3848,0.917s0.8789,1.4365,0.8789,2.4756c0,1.0156-0.293,1.8223-0.8789,2.4199
	s-1.3809,0.8965-2.3848,0.8965C49.1079,8.7773,48.3159,8.4785,47.728,7.8809z M51.2466,6.8789
	c0.2617-0.3281,0.3926-0.8066,0.3926-1.4355c0-0.6445-0.1309-1.1338-0.3926-1.4678s-0.6426-0.501-1.1426-0.501
	s-0.8799,0.167-1.1396,0.501s-0.3896,0.8232-0.3896,1.4678c0,0.6289,0.1299,1.1074,0.3896,1.4355s0.6396,0.4922,1.1396,0.4922
	S50.9849,7.207,51.2466,6.8789z M54.5454,2.2383h0.7969h0.8027v0.9434c0.0664-0.1133,0.1387-0.2207,0.2168-0.3223
	c0.4141-0.5273,1.0156-0.791,1.8047-0.791c0.6719,0,1.1982,0.1992,1.5791,0.5977s0.5713,0.9512,0.5713,1.6582v4.2891H59.479h-0.8438
	V4.6289c0-0.3945-0.085-0.6865-0.2549-0.876s-0.4307-0.2842-0.7822-0.2842c-0.4414,0-0.7803,0.1328-1.0166,0.3984
	s-0.3545,0.6484-0.3545,1.1484v3.5977h-0.8379h-0.8438V2.2383z"/>
</svg>
