<?xml version="1.0" encoding="utf-8"?>
<!-- Generator: Adobe Illustrator 22.0.1, SVG Export Plug-In . SVG Version: 6.00 Build 0)  -->
<svg version="1.1" id="Layer_1" xmlns="http://www.w3.org/2000/svg" xmlns:xlink="http://www.w3.org/1999/xlink" x="0px" y="0px"
	 viewBox="0 0 51 11.1797" enable-background="new 0 0 51 11.1797" xml:space="preserve">
<path d="M1.6816,8.6133H0.8438H0V0h0.9434h0.9434l3.457,6.0469V0h0.8379h0.8438v8.6133H6.1289H5.2324L1.6816,2.4023V8.6133z
	 M8.6074,6.8672h1.7988v1.7461H8.6074V6.8672z M12.0234,0h0.8965h0.9023v3.2285h3.3691V0h0.8965h0.9023v8.6133h-0.8965h-0.9023
	V4.7109h-3.3691v3.9023h-0.8965h-0.9023V0z M22.1484,8.7773c-0.5898,0-1.0645-0.1689-1.4238-0.5068s-0.5391-0.7822-0.5391-1.333
	c0-0.582,0.1621-1.0479,0.4863-1.3975s0.7969-0.5693,1.418-0.6592l1.1074-0.1523c0.2891-0.0391,0.5293-0.1055,0.7207-0.1992
	C24,4.4902,24.0635,4.4199,24.1084,4.3184s0.0615-0.2051,0.0498-0.3105c-0.0234-0.1797-0.1152-0.3203-0.2754-0.4219
	c-0.1914-0.1211-0.4668-0.1816-0.8262-0.1816c-0.3203,0-0.5703,0.0781-0.75,0.2344s-0.2754,0.377-0.2871,0.6621h-1.6113
	c0.0352-0.7461,0.2891-1.3047,0.7617-1.6758s1.166-0.5566,2.0801-0.5566c0.793,0,1.4189,0.167,1.8779,0.5015
	s0.6885,0.791,0.6885,1.3696v3.5654c0,0.2856,0.0234,0.4858,0.0703,0.6011c0.0469,0.1157,0.1406,0.2065,0.2813,0.2729v0.0059v0.2285
	h-0.9082h-0.9082V8.6074c-0.0742-0.2578-0.123-0.5098-0.1465-0.7559l-0.0059-0.0117C23.6719,8.4648,22.9883,8.7773,22.1484,8.7773z
	 M24.1699,6.2578V5.5254c-0.1953,0.1094-0.4531,0.1973-0.7734,0.2637l-0.6211,0.1172c-0.293,0.0547-0.5156,0.1553-0.668,0.3018
	s-0.2285,0.3311-0.2285,0.5537c0,0.2539,0.0684,0.4531,0.2051,0.5977s0.3281,0.2168,0.5742,0.2168
	c0.5391,0,0.9688-0.1895,1.2891-0.5684c0.0625-0.0742,0.1152-0.1836,0.1582-0.3281S24.1699,6.3945,24.1699,6.2578z M27.2813,2.2383
	h0.7969h0.8027v1.1426c0.0586-0.125,0.125-0.2461,0.1992-0.3633c0.3945-0.6328,0.9043-0.9492,1.5293-0.9492l0.3809,0.0059V3.791
	c-0.1484-0.0156-0.3164-0.0234-0.5039-0.0234c-0.5117,0-0.8936,0.127-1.1455,0.3809s-0.3779,0.6387-0.3779,1.1543v3.3105H28.125
	h-0.8438V2.2383z M31.3418,2.2383h0.9253h0.9312l1.3564,4.7563h0.0063l1.3691-4.7563h0.8843h0.8848l-2.3027,6.375h-0.873h-0.8789
	L31.3418,2.2383z M41.1621,8.7773c-0.9688,0-1.7158-0.2988-2.2412-0.8965s-0.7881-1.4492-0.7881-2.5547
	c0-1.0195,0.2676-1.8174,0.8027-2.3936s1.2773-0.8643,2.2266-0.8643c0.9727,0,1.7217,0.2939,2.2471,0.8818
	s0.7881,1.4248,0.7881,2.5107c0.0078,0.125-0.002,0.252-0.0293,0.3809h-4.3418c0.0391,0.5039,0.1504,0.8809,0.334,1.1309
	c0.2344,0.3125,0.625,0.4688,1.1719,0.4688c0.2539,0,0.4893-0.0723,0.7061-0.2168s0.3467-0.3184,0.3896-0.5215h1.7109
	c-0.1445,0.6484-0.4795,1.1563-1.0049,1.5234S41.9512,8.7773,41.1621,8.7773z M42.4453,4.7695
	c-0.0391-0.3828-0.1406-0.6816-0.3047-0.8965c-0.2148-0.2852-0.5488-0.4277-1.002-0.4277c-0.4336,0-0.7637,0.166-0.9902,0.498
	c-0.1406,0.2109-0.2422,0.4863-0.3047,0.8262H42.4453z M48.7148,8.748c-0.3672,1.0742-0.6826,1.748-0.9443,2.0215
	s-0.7285,0.4102-1.4014,0.4102l-0.8027-0.0176V9.8145c0.0391,0.0156,0.1465,0.0234,0.3223,0.0234
	c0.4492,0,0.7422-0.0918,0.8789-0.2754c0.0859-0.1172,0.1719-0.3594,0.2578-0.7266l-2.377-6.5977h0.9248h0.9316l1.3867,4.7285h0.001
	l1.3496-4.7285h0.8789H51L48.7148,8.748z"/>
</svg>
