<?xml version="1.0" encoding="utf-8"?>
<!-- Generator: Adobe Illustrator 22.0.1, SVG Export Plug-In . SVG Version: 6.00 Build 0)  -->
<svg version="1.1" id="Layer_1" xmlns="http://www.w3.org/2000/svg" xmlns:xlink="http://www.w3.org/1999/xlink" x="0px" y="0px"
	 viewBox="0 0 108.1668 14.6289" enable-background="new 0 0 108.1668 14.6289" xml:space="preserve">
<path d="M0,14.3555V0h10.2148v1.2695v1.2793H2.998v3.2617h6.2891V7.041v1.2402H2.998v6.0742H1.5039H0z M11.8726,11.4453h2.998
	v2.9102h-2.998V11.4453z M17.5732,14.3555V0h1.4941h1.5039v11.8066H27.71v1.2695v1.2793H17.5732z M32.0146,14.6289
	c-0.9829,0-1.7739-0.2813-2.373-0.8447s-0.8984-1.3037-0.8984-2.2217c0-0.9697,0.27-1.7461,0.8105-2.3291
	s1.3281-0.9492,2.3633-1.0986l1.8457-0.2539c0.4819-0.0654,0.8823-0.1758,1.2012-0.332c0.1367-0.0654,0.2427-0.1826,0.3174-0.3516
	s0.1025-0.3418,0.083-0.5176c-0.0391-0.2998-0.1919-0.5342-0.459-0.7031c-0.3188-0.2021-0.7778-0.3027-1.377-0.3027
	c-0.5337,0-0.9507,0.1299-1.25,0.3906s-0.459,0.6279-0.4785,1.1035h-2.6855c0.0586-1.2432,0.4819-2.1748,1.2695-2.793
	s1.9434-0.9277,3.4668-0.9277c1.3218,0,2.3647,0.2783,3.1299,0.8359c0.7651,0.5566,1.1475,1.3174,1.1475,2.2822v5.9434
	c0,0.4756,0.0391,0.8096,0.1172,1.002c0.0781,0.1914,0.2344,0.3438,0.4688,0.4541v0.0098v0.3809h-1.5137h-1.5137v-0.0098
	c-0.1235-0.4297-0.2051-0.8496-0.2441-1.2598l-0.0098-0.0195C34.5537,14.1084,33.4146,14.6289,32.0146,14.6289z M35.3838,10.4297
	V9.209c-0.3257,0.1826-0.7554,0.3291-1.2891,0.4395l-1.0352,0.1953c-0.4883,0.0908-0.8594,0.2588-1.1133,0.5029
	s-0.3809,0.5518-0.3809,0.9229c0,0.4229,0.1138,0.7549,0.3418,0.9961s0.5469,0.3613,0.957,0.3613
	c0.8984,0,1.6147-0.3154,2.1484-0.9473c0.104-0.124,0.1919-0.3057,0.2637-0.5469S35.3838,10.6572,35.3838,10.4297z M46.5029,6.9141
	c0-0.4102-0.1694-0.7393-0.5083-0.9863s-0.7881-0.3711-1.3486-0.3711c-0.5405,0-0.9624,0.0928-1.2656,0.2783
	c-0.3027,0.1855-0.4541,0.4443-0.4541,0.7764c0,0.2344,0.1724,0.4365,0.5176,0.6055c0.3384,0.1631,0.9409,0.3418,1.8071,0.5371
	c1.7192,0.3838,2.8687,0.8037,3.4482,1.2598c0.5811,0.4561,0.8716,1.1719,0.8716,2.1484c0,1.042-0.4219,1.8799-1.2651,2.5146
	s-1.9551,0.9521-3.3354,0.9521c-1.6343,0-2.8926-0.3125-3.7749-0.9375s-1.3525-1.5361-1.4111-2.7344h2.8516
	c0.0195,0.4883,0.2358,0.8711,0.6494,1.1475s0.9751,0.415,1.6851,0.415c0.5601,0,0.998-0.0957,1.3135-0.2881
	c0.3159-0.1924,0.4741-0.4609,0.4741-0.8057c0-0.2412-0.1528-0.4463-0.459-0.6152c-0.3062-0.1631-0.8433-0.3291-1.6113-0.498
	c-1.7974-0.4033-2.9985-0.8301-3.604-1.2793c-0.605-0.4424-0.9072-1.1299-0.9072-2.0605c0-1.0547,0.3921-1.9063,1.1763-2.5537
	c0.7847-0.6475,1.8179-0.9717,3.1001-0.9717c1.4453,0,2.6104,0.3174,3.4956,0.9521s1.3281,1.4727,1.3281,2.5146H46.5029z
	 M56.3945,14.4141c-0.4688,0.0391-1.0449,0.0586-1.7285,0.0586c-0.9897,0-1.7007-0.1777-2.1338-0.5322s-0.6494-0.9355-0.6494-1.7432
	V5.6934h-1.4746V3.7305h1.4746V0.8691h2.8027v2.8613h1.709v1.9629h-1.709v6.0352c0,0.2471,0.0732,0.4102,0.2197,0.4883
	s0.4507,0.1172,0.9131,0.1172h0.5762V14.4141z M58.0718,3.7305h1.3281h1.3379v1.5723c0.1108-0.1885,0.231-0.3682,0.3613-0.5371
	c0.6899-0.8789,1.6929-1.3184,3.0078-1.3184c1.1196,0,1.9971,0.332,2.6318,0.9961s0.9521,1.585,0.9521,2.7637v7.1484h-1.3965
	h-1.4063V7.7148c0-0.6572-0.1416-1.1445-0.4248-1.46s-0.7178-0.4736-1.3037-0.4736c-0.7358,0-1.3003,0.2217-1.6943,0.6641
	s-0.5908,1.0811-0.5908,1.9141v5.9961H59.478h-1.4063V3.7305z M72.7368,14.6289c-0.9824,0-1.7734-0.2813-2.373-0.8447
	c-0.5986-0.5635-0.8979-1.3037-0.8979-2.2217c0-0.9697,0.27-1.7461,0.8101-2.3291c0.541-0.583,1.3281-0.9492,2.3633-1.0986
	l1.8457-0.2539c0.4824-0.0654,0.8828-0.1758,1.2012-0.332c0.1367-0.0654,0.2422-0.1826,0.3184-0.3516
	c0.0742-0.1689,0.1016-0.3418,0.082-0.5176c-0.0391-0.2998-0.1914-0.5342-0.459-0.7031c-0.3184-0.2021-0.7773-0.3027-1.377-0.3027
	c-0.5332,0-0.9492,0.1299-1.25,0.3906c-0.2988,0.2607-0.459,0.6279-0.4785,1.1035h-2.6851c0.0586-1.2432,0.4819-2.1748,1.269-2.793
	c0.7891-0.6182,1.9434-0.9277,3.4668-0.9277c1.3223,0,2.3652,0.2783,3.1309,0.8359c0.7637,0.5566,1.1465,1.3174,1.1465,2.2822
	v5.9434c0,0.4756,0.0391,0.8096,0.1172,1.002c0.0781,0.1914,0.2344,0.3438,0.4688,0.4541v0.0098v0.3809h-1.5137h-1.5137v-0.0098
	c-0.123-0.4297-0.2051-0.8496-0.2441-1.2598l-0.0098-0.0195C75.2759,14.1084,74.1372,14.6289,72.7368,14.6289z M76.106,10.4297
	V9.209c-0.3242,0.1826-0.7539,0.3291-1.2891,0.4395l-1.0352,0.1953c-0.4883,0.0908-0.8594,0.2588-1.1133,0.5029
	s-0.3809,0.5518-0.3809,0.9229c0,0.4229,0.1152,0.7549,0.3418,0.9961c0.2285,0.2412,0.5469,0.3613,0.957,0.3613
	c0.8984,0,1.6152-0.3154,2.1484-0.9473c0.1055-0.124,0.1934-0.3057,0.2637-0.5469C76.0708,10.8916,76.106,10.6572,76.106,10.4297z
	 M81.1929,3.7305h1.3281h1.3379v1.709c0.123-0.2998,0.2793-0.5664,0.4678-0.8008c0.6172-0.7939,1.5146-1.1914,2.6914-1.1914
	c0.9355,0,1.7021,0.3154,2.3008,0.9473c0.2334,0.2412,0.4189,0.5078,0.5557,0.8008l0.3418-0.5566
	c0.5811-0.7939,1.4248-1.1914,2.5332-1.1914c1.1543,0,2.0576,0.3418,2.709,1.0254c0.6523,0.6836,0.9785,1.6309,0.9785,2.8418v7.041
	h-1.3965h-1.4063V8.1152c0-0.7939-0.1309-1.3818-0.3916-1.7627c-0.2617-0.3809-0.666-0.5713-1.2148-0.5713
	c-0.5879,0-1.0361,0.1807-1.3467,0.542c-0.3096,0.3613-0.4648,0.8809-0.4648,1.5576v6.4746h-1.3965h-1.4063V7.6563
	c0-0.6377-0.1367-1.1104-0.4092-1.416s-0.6914-0.459-1.2559-0.459c-0.5654,0-0.998,0.1807-1.2998,0.542
	s-0.4531,0.8809-0.4531,1.5576v6.4746h-1.3965h-1.4063V3.7305z M103.104,14.6289c-1.6143,0-2.8594-0.498-3.7354-1.4941
	s-1.3135-2.415-1.3135-4.2578c0-1.6992,0.4463-3.0293,1.3379-3.9893s2.1289-1.4404,3.7109-1.4404
	c1.6211,0,2.8691,0.4902,3.7451,1.4697s1.3135,2.375,1.3135,4.1846c0.0127,0.208-0.0029,0.4199-0.0488,0.6348h-7.2363
	c0.0654,0.8398,0.251,1.4678,0.5566,1.8848c0.3906,0.5205,1.042,0.7813,1.9531,0.7813c0.4229,0,0.8154-0.1201,1.1768-0.3613
	s0.5781-0.5303,0.6494-0.8691h2.8516c-0.2412,1.0811-0.7988,1.9268-1.6748,2.5391S104.4194,14.6289,103.104,14.6289z
	 M105.2427,7.9492c-0.0654-0.6377-0.2344-1.1357-0.5078-1.4941c-0.3584-0.4756-0.915-0.7129-1.6699-0.7129
	c-0.7227,0-1.2725,0.2764-1.6504,0.8301c-0.2344,0.3516-0.4033,0.8105-0.5078,1.377H105.2427z"/>
</svg>
