<?xml version="1.0" encoding="utf-8"?>
<!-- Generator: Adobe Illustrator 22.0.1, SVG Export Plug-In . SVG Version: 6.00 Build 0)  -->
<svg version="1.1" id="Layer_1" xmlns="http://www.w3.org/2000/svg" xmlns:xlink="http://www.w3.org/1999/xlink" x="0px" y="0px"
	 viewBox="0 0 88.7072 14.9426" enable-background="new 0 0 88.7072 14.9426" xml:space="preserve">
<path d="M6.2551,0.1965h1.4941h1.5039v10.3223c0,1.458-0.3906,2.5605-1.1719,3.3057s-1.9336,1.1182-3.457,1.1182
	c-1.6211,0-2.8091-0.4102-3.5645-1.2305s-1.1069-2.0869-1.0547-3.7988V9.0539h2.8516v0.8594
	c-0.0259,0.8721,0.1025,1.5186,0.3857,1.9385s0.7339,0.6299,1.3525,0.6299c0.5923,0,1.0171-0.1533,1.2744-0.459
	s0.3857-0.8076,0.3857-1.5039V0.1965z M11.8679,11.6418h2.998v2.9102h-2.998V11.6418z M17.5685,14.5519V0.1965H28.135V1.466v1.2793
	h-7.5684v3.0469h7.0215v1.2305v1.2402h-7.0215v3.7402h7.9004v1.2695v1.2793H17.5685z M39.7639,10.6164
	c-0.1431,1.3213-0.6348,2.3535-1.4746,3.0957s-1.9336,1.1133-3.2813,1.1133c-1.6079,0-2.8501-0.4785-3.7256-1.4355
	s-1.3135-2.3213-1.3135-4.0918c0-1.7314,0.4541-3.1074,1.3623-4.126s2.1338-1.5283,3.6768-1.5283
	c1.3672,0,2.4868,0.3779,3.3594,1.1328s1.3379,1.748,1.3965,2.9785h-2.8516c-0.0259-0.5273-0.2134-0.9541-0.5615-1.2793
	s-0.7959-0.4883-1.3428-0.4883c-0.7031,0-1.2388,0.2813-1.6064,0.8447S32.8498,8.217,32.8498,9.298
	c0,1.0547,0.1841,1.8574,0.5518,2.4072s0.9033,0.8252,1.6064,0.8252c0.5078,0,0.9375-0.1758,1.2891-0.5273
	s0.5566-0.8135,0.6152-1.3867H39.7639z M41.6852,0.1965h1.3965h1.4063v7.7549l3.4951-4.0244h1.729h1.729l-3.8379,4.0303
	l3.9355,6.5947h-1.6611h-1.6709l-2.5601-4.5762l-1.1587,1.2266v3.3496h-1.3965h-1.4063V0.1965z M55.882,5.8898v8.6621h-1.3965
	h-1.4063V5.8898h-1.5527V3.9269h1.5527V3.0383c0-1.0225,0.272-1.7842,0.8154-2.2852s1.3687-0.752,2.4756-0.752
	c0.4946-0.0068,0.9341,0.0166,1.3184,0.0684v2.2363H56.8c-0.3711,0-0.6167,0.0752-0.7373,0.2246s-0.1807,0.4561-0.1807,0.918v0.4785
	h1.8066v1.9629H55.882z M60.0446,13.3312c-0.98-0.9961-1.4697-2.3408-1.4697-4.0332c0-1.7314,0.4897-3.1074,1.4697-4.126
	s2.2998-1.5283,3.96-1.5283c1.6733,0,2.998,0.5098,3.9746,1.5283s1.4648,2.3945,1.4648,4.126c0,1.6924-0.4883,3.0371-1.4648,4.0332
	s-2.3013,1.4941-3.9746,1.4941C62.3444,14.8254,61.0246,14.3273,60.0446,13.3312z M65.9089,11.6613
	c0.436-0.5469,0.6543-1.3447,0.6543-2.3926c0-1.0742-0.2183-1.8896-0.6543-2.4463s-1.0708-0.835-1.9043-0.835
	c-0.8335,0-1.4663,0.2783-1.8994,0.835s-0.6494,1.3721-0.6494,2.4463c0,1.0479,0.2163,1.8457,0.6494,2.3926
	s1.0659,0.8203,1.8994,0.8203C64.8381,12.4816,65.4728,12.2082,65.9089,11.6613z M71.2873,3.9269h1.3281h1.3379v1.9043
	c0.0977-0.208,0.2085-0.4102,0.332-0.6055c0.6577-1.0547,1.5073-1.582,2.5488-1.582l0.6348,0.0098v2.8613
	c-0.2476-0.0264-0.5273-0.0391-0.8398-0.0391c-0.853,0-1.4893,0.2119-1.9092,0.6348S74.09,8.175,74.09,9.0344v5.5176h-1.3965
	h-1.4063V3.9269z M82.8967,14.8254c-1.354,0-2.4463-0.5273-3.2764-1.582s-1.2451-2.4443-1.2451-4.1699
	c0-1.6279,0.4136-2.9395,1.2402-3.9355s1.9141-1.4941,3.2617-1.4941c1.2046,0,2.1743,0.5078,2.9102,1.5234l0.1172,0.1563v-5.127
	h1.3965h1.4063v14.3555h-1.3574h-1.3574v-1.3574l-0.0488,0.0684C85.1686,14.3049,84.153,14.8254,82.8967,14.8254z M83.6486,6.0656
	c-0.7485,0-1.3345,0.2881-1.7578,0.8643s-0.6348,1.375-0.6348,2.3975c0,1.0029,0.21,1.7852,0.6299,2.3486
	s1.0044,0.8447,1.7529,0.8447c0.7554,0,1.3442-0.2959,1.7676-0.8887s0.6348-1.416,0.6348-2.4707
	c0-0.9697-0.2114-1.7285-0.6348-2.2754S84.3972,6.0656,83.6486,6.0656z"/>
</svg>
