<?xml version="1.0" encoding="utf-8"?>
<!-- Generator: Adobe Illustrator 22.0.1, SVG Export Plug-In . SVG Version: 6.00 Build 0)  -->
<svg version="1.1" id="Layer_1" xmlns="http://www.w3.org/2000/svg" xmlns:xlink="http://www.w3.org/1999/xlink" x="0px" y="0px"
	 viewBox="0 0 111.4141 15.1367" enable-background="new 0 0 111.4141 15.1367" xml:space="preserve">
<path d="M12.8027,9.7168c-0.1821,1.6602-0.8315,2.9785-1.9482,3.9551s-2.5376,1.4648-4.2627,1.4648
	c-2.0181,0-3.6216-0.6738-4.8096-2.0215S0,9.9443,0,7.6465c0-2.3438,0.5942-4.2041,1.7822-5.5811S4.5737,0,6.5918,0
	c1.7056,0,3.1187,0.4609,4.2383,1.3818s1.7773,2.1699,1.9727,3.7451h-2.998C9.707,4.3525,9.3726,3.7373,8.8022,3.2813
	C8.2314,2.8252,7.5063,2.5977,6.6265,2.5977c-1.1152,0-1.9888,0.4443-2.6211,1.333S3.0566,6.0518,3.0566,7.627
	c0,1.5361,0.3145,2.7393,0.9438,3.6084c0.6289,0.8691,1.5044,1.3037,2.626,1.3037c0.8799,0,1.605-0.2539,2.1758-0.7617
	c0.5703-0.5078,0.9048-1.1943,1.0024-2.0605H12.8027z M14.7437,11.8359h2.998v2.9102h-2.998V11.8359z M20.4443,0.3906h1.4355h5.5176
	c1.3867,0,2.4707,0.3203,3.252,0.9619s1.1719,1.5313,1.1719,2.6709c0,1.1914-0.4395,2.0967-1.3184,2.7148
	c-0.1431,0.1045-0.3027,0.1982-0.4785,0.2832c0.3384,0.1299,0.6382,0.2861,0.8984,0.4688c0.918,0.6318,1.377,1.5527,1.377,2.7637
	c0,1.4648-0.4541,2.5801-1.3623,3.3447s-2.2349,1.1475-3.9795,1.1475h-5.0781h-1.4355V0.3906z M23.3154,6.0156h3.4277
	c0.7485,0,1.3086-0.1396,1.6797-0.4199s0.5566-0.7031,0.5566-1.2695c0-0.4883-0.1953-0.8545-0.5859-1.0986
	s-0.98-0.3662-1.7676-0.3662h-3.3105V6.0156z M23.3154,12.2559h3.6426c0.7813,0,1.3672-0.1689,1.7578-0.5078
	s0.5859-0.8496,0.5859-1.5332c0-0.5986-0.2002-1.0469-0.6006-1.3428s-1.001-0.4443-1.8018-0.4443h-3.584V12.2559z M34.6416,0.3906
	h1.3965h1.4063v14.3555h-1.3965h-1.4063V0.3906z M42.5688,15.0195c-0.9829,0-1.7739-0.2813-2.373-0.8447
	s-0.8984-1.3037-0.8984-2.2217c0-0.9697,0.27-1.7461,0.8105-2.3291s1.3281-0.9492,2.3633-1.0986l1.8457-0.2539
	c0.4819-0.0654,0.8823-0.1758,1.2012-0.332c0.1367-0.0654,0.2427-0.1826,0.3174-0.3516s0.1025-0.3418,0.083-0.5176
	c-0.0391-0.2998-0.1919-0.5342-0.459-0.7031c-0.3188-0.2021-0.7778-0.3027-1.377-0.3027c-0.5337,0-0.9507,0.1299-1.25,0.3906
	s-0.459,0.6279-0.4785,1.1035h-2.6855c0.0586-1.2432,0.4819-2.1748,1.2695-2.793s1.9434-0.9277,3.4668-0.9277
	c1.3218,0,2.3647,0.2783,3.1299,0.8359c0.7651,0.5566,1.1475,1.3174,1.1475,2.2822v5.9434c0,0.4756,0.0391,0.8096,0.1172,1.002
	c0.0781,0.1914,0.2344,0.3438,0.4688,0.4541v0.0098v0.3809h-1.5137h-1.5137v-0.0098c-0.1235-0.4297-0.2051-0.8496-0.2441-1.2598
	l-0.0098-0.0195C45.1079,14.499,43.9688,15.0195,42.5688,15.0195z M45.938,10.8203V9.5996
	c-0.3257,0.1826-0.7554,0.3291-1.2891,0.4395l-1.0352,0.1953c-0.4883,0.0908-0.8594,0.2588-1.1133,0.5029
	s-0.3809,0.5518-0.3809,0.9229c0,0.4229,0.1138,0.7549,0.3418,0.9961s0.5469,0.3613,0.957,0.3613
	c0.8984,0,1.6147-0.3154,2.1484-0.9473c0.104-0.124,0.1919-0.3057,0.2637-0.5469S45.938,11.0479,45.938,10.8203z M60.2227,10.8105
	c-0.1431,1.3213-0.6348,2.3535-1.4746,3.0957s-1.9336,1.1133-3.2813,1.1133c-1.6079,0-2.8501-0.4785-3.7256-1.4355
	s-1.3135-2.3213-1.3135-4.0918c0-1.7314,0.4541-3.1074,1.3623-4.126s2.1338-1.5283,3.6768-1.5283
	c1.3672,0,2.4868,0.3779,3.3594,1.1328s1.3379,1.748,1.3965,2.9785h-2.8516c-0.0259-0.5273-0.2134-0.9541-0.5615-1.2793
	s-0.7959-0.4883-1.3428-0.4883c-0.7031,0-1.2388,0.2813-1.6064,0.8447s-0.5518,1.3848-0.5518,2.4658
	c0,1.0547,0.1841,1.8574,0.5518,2.4072s0.9033,0.8252,1.6064,0.8252c0.5078,0,0.9375-0.1758,1.2891-0.5273
	s0.5566-0.8135,0.6152-1.3867H60.2227z M62.144,0.3906h1.3965h1.4063v7.7549l3.4951-4.0244h1.729h1.729L68.062,8.1514l3.9355,6.5947
	h-1.6611h-1.6709l-2.5601-4.5762l-1.1587,1.2266v3.3496h-1.3965H62.144V0.3906z M73.0693,4.1211h1.3281h1.3379v1.709
	c0.1235-0.2998,0.2793-0.5664,0.4678-0.8008c0.6177-0.7939,1.5146-1.1914,2.6909-1.1914c0.936,0,1.7031,0.3154,2.3013,0.9473
	c0.2339,0.2412,0.4189,0.5078,0.5557,0.8008l0.3423-0.5566c0.5801-0.7939,1.4243-1.1914,2.5327-1.1914
	c1.1543,0,2.0576,0.3418,2.709,1.0254c0.6523,0.6836,0.9785,1.6309,0.9785,2.8418v7.041H86.917h-1.4063V8.5059
	c0-0.7939-0.1309-1.3818-0.3916-1.7627c-0.2617-0.3809-0.666-0.5713-1.2148-0.5713c-0.5879,0-1.0361,0.1807-1.3467,0.542
	c-0.3096,0.3613-0.4648,0.8809-0.4648,1.5576v6.4746h-1.3965H79.29V8.0469c0-0.6377-0.1362-1.1104-0.4092-1.416
	c-0.2725-0.3057-0.6914-0.459-1.2559-0.459c-0.5649,0-0.9985,0.1807-1.3003,0.542s-0.4526,0.8809-0.4526,1.5576v6.4746h-1.3965
	h-1.4063V4.1211z M93.3213,15.0195c-0.9834,0-1.7744-0.2813-2.373-0.8447s-0.8984-1.3037-0.8984-2.2217
	c0-0.9697,0.2705-1.7461,0.8105-2.3291s1.3281-0.9492,2.3633-1.0986l1.8457-0.2539c0.4814-0.0654,0.8818-0.1758,1.2012-0.332
	c0.1367-0.0654,0.2422-0.1826,0.3174-0.3516s0.1025-0.3418,0.083-0.5176c-0.0391-0.2998-0.1924-0.5342-0.459-0.7031
	c-0.3193-0.2021-0.7783-0.3027-1.377-0.3027c-0.5342,0-0.9502,0.1299-1.25,0.3906s-0.459,0.6279-0.4785,1.1035h-2.6855
	c0.0586-1.2432,0.4814-2.1748,1.2695-2.793s1.9434-0.9277,3.4668-0.9277c1.3213,0,2.3652,0.2783,3.1299,0.8359
	c0.7646,0.5566,1.1475,1.3174,1.1475,2.2822v5.9434c0,0.4756,0.0391,0.8096,0.1172,1.002c0.0781,0.1914,0.2344,0.3438,0.4688,0.4541
	v0.0098v0.3809h-1.5137h-1.5137v-0.0098c-0.124-0.4297-0.2051-0.8496-0.2441-1.2598l-0.0098-0.0195
	C95.8604,14.499,94.7207,15.0195,93.3213,15.0195z M96.6904,10.8203V9.5996c-0.3252,0.1826-0.7549,0.3291-1.2891,0.4395
	l-1.0352,0.1953c-0.4883,0.0908-0.8594,0.2588-1.1133,0.5029s-0.3809,0.5518-0.3809,0.9229c0,0.4229,0.1143,0.7549,0.3418,0.9961
	s0.5469,0.3613,0.957,0.3613c0.8984,0,1.6143-0.3154,2.1484-0.9473c0.1045-0.124,0.1924-0.3057,0.2637-0.5469
	S96.6904,11.0479,96.6904,10.8203z M101.7949,4.1211h1.3281h1.3379v1.5723c0.1104-0.1885,0.2314-0.3682,0.3613-0.5371
	c0.6904-0.8789,1.6924-1.3184,3.0078-1.3184c1.1201,0,1.9971,0.332,2.6318,0.9961s0.9521,1.585,0.9521,2.7637v7.1484h-1.3965
	h-1.4063V8.1055c0-0.6572-0.1416-1.1445-0.4248-1.46s-0.7178-0.4736-1.3037-0.4736c-0.7354,0-1.3008,0.2217-1.6943,0.6641
	s-0.5908,1.0811-0.5908,1.9141v5.9961h-1.3965h-1.4063V4.1211z"/>
</svg>
