<?xml version="1.0" encoding="utf-8"?>
<!-- Generator: Adobe Illustrator 22.0.1, SVG Export Plug-In . SVG Version: 6.00 Build 0)  -->
<svg version="1.1" id="Layer_1" xmlns="http://www.w3.org/2000/svg" xmlns:xlink="http://www.w3.org/1999/xlink" x="0px" y="0px"
	 viewBox="0 0 111.7173 14.6289" enable-background="new 0 0 111.7173 14.6289" xml:space="preserve">
<path d="M0,0h1.4941H2.998v5.9424L8.4985,0h1.9131h1.9126L6.5918,5.8584l6.1133,8.4971h-1.9609H8.7832L4.4565,8.041L2.998,9.5313
	v4.8242H1.5039H0V0z"/>
<path d="M13.8843,11.4453h2.998v2.9102h-2.998V11.4453z"/>
<path d="M22.2412,14.3555h-1.3965h-1.4063V0h2.1973h2.1973l2.6143,11.377h0.001L29.0283,0h2.168h2.168v14.3555h-1.3965h-1.4063
	V2.2852h0.0015l-2.687,12.0703h-1.4746h-1.4746l-2.6831-12.334h-0.0024V14.3555z"/>
<path d="M45.1006,10.4199c-0.1431,1.3213-0.6348,2.3535-1.4746,3.0957s-1.9336,1.1133-3.2813,1.1133
	c-1.6079,0-2.8501-0.4785-3.7256-1.4355s-1.3135-2.3213-1.3135-4.0918c0-1.7314,0.4541-3.1074,1.3623-4.126
	s2.1338-1.5283,3.6768-1.5283c1.3672,0,2.4868,0.3779,3.3594,1.1328s1.3379,1.748,1.3965,2.9785H42.249
	c-0.0259-0.5273-0.2134-0.9541-0.5615-1.2793S40.8916,5.791,40.3447,5.791c-0.7031,0-1.2388,0.2813-1.6064,0.8447
	s-0.5518,1.3848-0.5518,2.4658c0,1.0547,0.1841,1.8574,0.5518,2.4072s0.9033,0.8252,1.6064,0.8252
	c0.5078,0,0.9375-0.1758,1.2891-0.5273s0.5566-0.8135,0.6152-1.3867H45.1006z"/>
<path d="M47.1685,0h1.4941h4.6484c1.9727,0,3.4717,0.5791,4.4971,1.7383s1.5381,2.8545,1.5381,5.0879
	c0,2.4609-0.5322,4.3311-1.5967,5.6104s-2.6255,1.9189-4.6826,1.9189h-4.4043h-1.4941V0z M50.1665,11.8848h2.5293
	c1.2173,0,2.1304-0.4121,2.7393-1.2354s0.9131-2.0586,0.9131-3.7061c0-1.4912-0.2832-2.6094-0.8496-3.3545
	s-1.4194-1.1182-2.5586-1.1182h-2.7734V11.8848z"/>
<path d="M62.1416,13.1348c-0.98-0.9961-1.4697-2.3408-1.4697-4.0332c0-1.7314,0.4897-3.1074,1.4697-4.126s2.2998-1.5283,3.96-1.5283
	c1.6733,0,2.998,0.5098,3.9746,1.5283s1.4648,2.3945,1.4648,4.126c0,1.6924-0.4883,3.0371-1.4648,4.0332
	s-2.3013,1.4941-3.9746,1.4941C64.4414,14.6289,63.1216,14.1309,62.1416,13.1348z M68.0059,11.4648
	c0.436-0.5469,0.6543-1.3447,0.6543-2.3926c0-1.0742-0.2183-1.8896-0.6543-2.4463s-1.0708-0.835-1.9043-0.835
	s-1.4663,0.2783-1.8994,0.835s-0.6494,1.3721-0.6494,2.4463c0,1.0479,0.2163,1.8457,0.6494,2.3926s1.0659,0.8203,1.8994,0.8203
	S67.5698,12.0117,68.0059,11.4648z"/>
<path d="M73.4038,3.7305h1.3281h1.3379v1.5723c0.1108-0.1885,0.231-0.3682,0.3613-0.5371c0.6899-0.8789,1.6929-1.3184,3.0078-1.3184
	c1.1196,0,1.9971,0.332,2.6318,0.9961s0.9521,1.585,0.9521,2.7637v7.1484h-1.3965h-1.4063V7.7148
	c0-0.6572-0.1416-1.1445-0.4248-1.46s-0.7178-0.4736-1.3037-0.4736c-0.7358,0-1.3003,0.2217-1.6943,0.6641
	s-0.5908,1.0811-0.5908,1.9141v5.9961h-1.3965h-1.4063V3.7305z"/>
<path d="M88.0693,14.6289c-0.9829,0-1.7739-0.2813-2.373-0.8447s-0.8984-1.3037-0.8984-2.2217c0-0.9697,0.27-1.7461,0.8105-2.3291
	s1.3281-0.9492,2.3633-1.0986l1.8457-0.2539c0.4819-0.0654,0.8823-0.1758,1.2012-0.332c0.1367-0.0654,0.2427-0.1826,0.3174-0.3516
	s0.1025-0.3418,0.083-0.5176c-0.0391-0.2998-0.1919-0.5342-0.459-0.7031c-0.3188-0.2021-0.7778-0.3027-1.377-0.3027
	c-0.5337,0-0.9507,0.1299-1.25,0.3906s-0.459,0.6279-0.4785,1.1035h-2.6855c0.0586-1.2432,0.4819-2.1748,1.2695-2.793
	s1.9434-0.9277,3.4668-0.9277c1.3218,0,2.3647,0.2783,3.1299,0.8359c0.7651,0.5566,1.1475,1.3174,1.1475,2.2822v5.9434
	c0,0.4756,0.0391,0.8096,0.1172,1.002c0.0781,0.1914,0.2344,0.3438,0.4688,0.4541v0.0098v0.3809h-1.5137h-1.5137v-0.0098
	c-0.1235-0.4297-0.2051-0.8496-0.2441-1.2598l-0.0098-0.0195C90.6084,14.1084,89.4692,14.6289,88.0693,14.6289z M91.4385,10.4297
	V9.209c-0.3257,0.1826-0.7554,0.3291-1.2891,0.4395l-1.0352,0.1953c-0.4883,0.0908-0.8594,0.2588-1.1133,0.5029
	s-0.3809,0.5518-0.3809,0.9229c0,0.4229,0.1138,0.7549,0.3418,0.9961s0.5469,0.3613,0.957,0.3613
	c0.8984,0,1.6147-0.3154,2.1484-0.9473c0.104-0.124,0.1919-0.3057,0.2637-0.5469S91.4385,10.6572,91.4385,10.4297z"/>
<path d="M96.6221,0h1.3965h1.4063v14.3555h-1.3965h-1.4063V0z"/>
<path d="M105.9067,14.6289c-1.354,0-2.4463-0.5273-3.2764-1.582s-1.2451-2.4443-1.2451-4.1699c0-1.6279,0.4136-2.9395,1.2402-3.9355
	s1.9141-1.4941,3.2617-1.4941c1.2046,0,2.1743,0.5078,2.9102,1.5234l0.1172,0.1563V0h1.3965h1.4063v14.3555h-1.3574h-1.3574V12.998
	l-0.0488,0.0684C108.1787,14.1084,107.1631,14.6289,105.9067,14.6289z M106.6587,5.8691c-0.7485,0-1.3345,0.2881-1.7578,0.8643
	s-0.6348,1.375-0.6348,2.3975c0,1.0029,0.21,1.7852,0.6299,2.3486s1.0044,0.8447,1.7529,0.8447
	c0.7554,0,1.3442-0.2959,1.7676-0.8887s0.6348-1.416,0.6348-2.4707c0-0.9697-0.2114-1.7285-0.6348-2.2754
	S107.4072,5.8691,106.6587,5.8691z"/>
</svg>
