<?xml version="1.0" encoding="utf-8"?>
<!-- Generator: Adobe Illustrator 22.0.1, SVG Export Plug-In . SVG Version: 6.00 Build 0)  -->
<svg version="1.1" id="Layer_1" xmlns="http://www.w3.org/2000/svg" xmlns:xlink="http://www.w3.org/1999/xlink" x="0px" y="0px"
	 viewBox="0 0 81.1748 15.1367" enable-background="new 0 0 81.1748 15.1367" xml:space="preserve">
<path d="M0,0.3906h1.4941H2.998v14.3555H1.5039H0V0.3906z M5.4565,11.8359h2.998v2.9102h-2.998V11.8359z M23.3154,9.7168
	c-0.1821,1.6602-0.8315,2.9785-1.9482,3.9551s-2.5376,1.4648-4.2627,1.4648c-2.0181,0-3.6216-0.6738-4.8096-2.0215
	s-1.7822-3.1709-1.7822-5.4688c0-2.3438,0.5942-4.2041,1.7822-5.5811S15.0864,0,17.1045,0c1.7056,0,3.1187,0.4609,4.2383,1.3818
	s1.7773,2.1699,1.9727,3.7451h-2.998c-0.0977-0.7744-0.4321-1.3896-1.0024-1.8457c-0.5708-0.4561-1.2959-0.6836-2.1758-0.6836
	c-1.1152,0-1.9888,0.4443-2.6211,1.333s-0.9487,2.1211-0.9487,3.6963c0,1.5361,0.3145,2.7393,0.9438,3.6084
	c0.6289,0.8691,1.5044,1.3037,2.626,1.3037c0.8799,0,1.605-0.2539,2.1758-0.7617c0.5703-0.5078,0.9048-1.1943,1.0024-2.0605H23.3154
	z M27.8252,15.0195c-0.9829,0-1.7739-0.2813-2.373-0.8447s-0.8984-1.3037-0.8984-2.2217c0-0.9697,0.27-1.7461,0.8105-2.3291
	s1.3281-0.9492,2.3633-1.0986l1.8457-0.2539c0.4819-0.0654,0.8823-0.1758,1.2012-0.332c0.1367-0.0654,0.2427-0.1826,0.3174-0.3516
	s0.1025-0.3418,0.083-0.5176c-0.0391-0.2998-0.1919-0.5342-0.459-0.7031c-0.3188-0.2021-0.7778-0.3027-1.377-0.3027
	c-0.5337,0-0.9507,0.1299-1.25,0.3906s-0.459,0.6279-0.4785,1.1035h-2.6855c0.0586-1.2432,0.4819-2.1748,1.2695-2.793
	s1.9434-0.9277,3.4668-0.9277c1.3218,0,2.3647,0.2783,3.1299,0.8359c0.7651,0.5566,1.1475,1.3174,1.1475,2.2822v5.9434
	c0,0.4756,0.0391,0.8096,0.1172,1.002c0.0781,0.1914,0.2344,0.3438,0.4688,0.4541v0.0098v0.3809h-1.5137h-1.5137v-0.0098
	c-0.1235-0.4297-0.2051-0.8496-0.2441-1.2598l-0.0098-0.0195C30.3643,14.499,29.2251,15.0195,27.8252,15.0195z M31.1943,10.8203
	V9.5996c-0.3257,0.1826-0.7554,0.3291-1.2891,0.4395l-1.0352,0.1953c-0.4883,0.0908-0.8594,0.2588-1.1133,0.5029
	s-0.3809,0.5518-0.3809,0.9229c0,0.4229,0.1138,0.7549,0.3418,0.9961s0.5469,0.3613,0.957,0.3613
	c0.8984,0,1.6147-0.3154,2.1484-0.9473c0.104-0.124,0.1919-0.3057,0.2637-0.5469S31.1943,11.0479,31.1943,10.8203z M36.2993,4.1211
	h1.3281h1.3379v1.5723c0.1108-0.1885,0.231-0.3682,0.3613-0.5371c0.6899-0.8789,1.6929-1.3184,3.0078-1.3184
	c1.1196,0,1.9971,0.332,2.6318,0.9961s0.9521,1.585,0.9521,2.7637v7.1484H44.522h-1.4063V8.1055c0-0.6572-0.1416-1.1445-0.4248-1.46
	s-0.7178-0.4736-1.3037-0.4736c-0.7358,0-1.3003,0.2217-1.6943,0.6641S39.1021,7.917,39.1021,8.75v5.9961h-1.3965h-1.4063V4.1211z
	 M48.416,4.1211h1.3281h1.3379v1.5723c0.1108-0.1885,0.231-0.3682,0.3613-0.5371c0.6899-0.8789,1.6929-1.3184,3.0078-1.3184
	c1.1196,0,1.9971,0.332,2.6318,0.9961s0.9521,1.585,0.9521,2.7637v7.1484h-1.3965h-1.4063V8.1055
	c0-0.6572-0.1416-1.1445-0.4248-1.46s-0.7178-0.4736-1.3037-0.4736c-0.7358,0-1.3003,0.2217-1.6943,0.6641
	S51.2188,7.917,51.2188,8.75v5.9961h-1.3965H48.416V4.1211z M63.0815,15.0195c-0.9829,0-1.7739-0.2813-2.373-0.8447
	s-0.8984-1.3037-0.8984-2.2217c0-0.9697,0.27-1.7461,0.8105-2.3291s1.3281-0.9492,2.3633-1.0986l1.8457-0.2539
	c0.4819-0.0654,0.8823-0.1758,1.2012-0.332c0.1367-0.0654,0.2427-0.1826,0.3174-0.3516s0.1025-0.3418,0.083-0.5176
	c-0.0391-0.2998-0.1919-0.5342-0.459-0.7031c-0.3188-0.2021-0.7778-0.3027-1.377-0.3027c-0.5337,0-0.9507,0.1299-1.25,0.3906
	s-0.459,0.6279-0.4785,1.1035h-2.6855c0.0586-1.2432,0.4819-2.1748,1.2695-2.793s1.9434-0.9277,3.4668-0.9277
	c1.3218,0,2.3647,0.2783,3.1299,0.8359c0.7651,0.5566,1.1475,1.3174,1.1475,2.2822v5.9434c0,0.4756,0.0391,0.8096,0.1172,1.002
	c0.0781,0.1914,0.2344,0.3438,0.4688,0.4541v0.0098v0.3809h-1.5137h-1.5137v-0.0098c-0.1235-0.4297-0.2051-0.8496-0.2441-1.2598
	l-0.0098-0.0195C65.6206,14.499,64.4814,15.0195,63.0815,15.0195z M66.4507,10.8203V9.5996
	c-0.3257,0.1826-0.7554,0.3291-1.2891,0.4395l-1.0352,0.1953c-0.4883,0.0908-0.8594,0.2588-1.1133,0.5029
	s-0.3809,0.5518-0.3809,0.9229c0,0.4229,0.1138,0.7549,0.3418,0.9961s0.5469,0.3613,0.957,0.3613
	c0.8984,0,1.6147-0.3154,2.1484-0.9473c0.104-0.124,0.1919-0.3057,0.2637-0.5469S66.4507,11.0479,66.4507,10.8203z M71.5557,4.1211
	h1.3281h1.3379v1.5723c0.1108-0.1885,0.231-0.3682,0.3613-0.5371c0.6899-0.8789,1.6929-1.3184,3.0078-1.3184
	c1.1196,0,1.9971,0.332,2.6318,0.9961s0.9521,1.585,0.9521,2.7637v7.1484h-1.3965h-1.4063V8.1055
	c0-0.6572-0.1416-1.1445-0.4248-1.46s-0.7178-0.4736-1.3037-0.4736c-0.7358,0-1.3003,0.2217-1.6943,0.6641
	S74.3584,7.917,74.3584,8.75v5.9961h-1.3965h-1.4063V4.1211z"/>
</svg>
