<svg xmlns="http://www.w3.org/2000/svg" viewBox="0 0 252.02 23.33"><path d="M25.3 14.61c-1.97 3.17-4.32 7.44-8.48 7.83-1.96.19-3.85-.92-4.1-2.99-.28-2.47 1.48-4.56 2.5-6.65-2.09 2.4-3.94 5.01-6.25 7.22-1.06 1.02-2.94 2.86-4.58 2.47-1.09-.25-1.4-1.55-1.26-2.5l2.82-4.65 3.3-11.23c-1.09-.31-2.23.8-2.75 1.59-1.31 2.02-1.23 5.66-3.92 6.58-1.56.54-1.54-1.17-1.18-2.17 0 0 5.5-8.8 8.31-8.72 1.26.03 2.64.6 3.13 1.84.58 1.5-.24 3.12-.86 4.46-1.69 3.66-3.5 7.26-5.3 10.87L18.42 5.6c.7-.24 1.68-.1 2.07.62.52.94-.33 1.98-.77 2.77-.57 1.01-1.03 2.09-1.52 3.15-.45.98-.88 1.98-1.33 2.97-.44 1-1.1 2-1.27 3.1-.27 1.92 1.77 2.02 2.94 1.28 0 0 9.32-16.7 9.15-16.59-.72.52 1.94-.88 2.24.24.24.9-.4 1.88-.64 2.71a35.69 35.69 0 0 1-3.98 8.76zm46.95-9.2a24.2 24.2 0 0 1-2.7 8.35 17.91 17.91 0 0 1-2.37 3.58c-.51.57-1.65 1.4-1.51 2.26.28 1.79 3.2-.85 3.7-1.37.47-.46 1.68-1.5 1.93-.25.16.75-.47 1.73-.95 2.26-1.56 1.73-5.6 3.43-7.21 1-2.26 1.8-5.85 2.04-6.36-1.42-.8.95-1.94 1.48-3.04 2-.88.43-2.29 1.19-3.25.57-1.23-.79.14-2.82.14-3.89-1.89 1.47-3.66 3.25-6.03 3.88-.92.24-2.22.4-2.67-.68l2.21-7.86c-.74-.13-1.5 1.34-1.9 1.82-.91 1.09-1.9 2.14-2.96 3.1-.86.8-1.85 1.54-3.07 1.6-.45.01-.9-.1-1.34.11-.58.29-1 .95-1.53 1.33-1.61 1.14-4.23 1.24-5.74-.15-2.32-2.15 1.01-8.43 1.01-8.43s4.04-3 6.25-2.09a3.2 3.2 0 0 1 2 2.76c.02.6-.25 1.12-.4 1.7-.2.76-.08 1.62-.44 2.34l5.24-5.37.38-2.27c.5-.52 1.36-.64 1.94-.2.56.42.5 1.29 1.09 1.68.67.47 1.6-.09 2.32.29.83.43.83 1.53.65 2.33-.35 1.59-1.66 2.56-2.23 4.02-.56 1.45.69 1.23 1.51.64l6.46-7.5L57.5.86c2.04-1.17 1.53 2.24 1.32 3.16-.49 2.1-1.26 4.1-2.15 6.06-.9 1.98-1.88 3.91-2.72 5.9-.24.57-1.82 4.08-.03 3.46l6.54-7.08 4.45-1.4 2.18-5.68L70.7.82c2.17-.56 1.7 3.46 1.56 4.6zm-39.65 8.2c-2.12.27-4.74 4.62-2.48 6.12l2.18.13 1.7-4.63c.38-.93-.45-1.73-1.4-1.62zm31.28.8c.21-1.18-1.42-.5-1.93-.24a4.7 4.7 0 0 0-2.54 3.44c-.16 1.14.18 2.6 1.6 2.43.78-.09 1.57-.62 1.95-1.3.46-.8.27-1.75.46-2.62.13-.57.35-1.12.46-1.7zm27.84 1.13c-1.77-.6-2.84.6-3.94 1.79-1.25 1.36-2.92 2.58-4.82 2.77-1.83.19-3.44-1.26-1.97-2.94a6.9 6.9 0 0 1 2.17-1.46c.64-.32 1.51-.6 1.84-1.3.42-.9-.4-1.7-.79-2.42a3.96 3.96 0 0 1-.32-2.96 7.05 7.05 0 0 1 3.2-4.1c.73-.43 2.01-1.13 2.88-.94l-2.53 4.63c-.08.9.76 2.01 1.73 1.91.88-.09 1.4-1.19 1.82-1.84.57-.88 1.25-1.67 1.81-2.56.8-1.26 1.34-3.1-.18-4.07-1.64-1.04-4.1-.57-5.78.07l-6.18 6.85.92 3.7-4.25 6.8c.35 3.94 5.04 3.48 7.75 2.6 2.16-.7 4-2.02 5.54-3.66.41-.44 2.37-2.44 1.1-2.87zm106.22 2.41c.29 2.68-3.03 3.97-5.15 4.38-2.3.44-5.38-.16-5.67-2.96-1.84 3.1-10.04 5.35-10.6.15-.87 1.34-2.87 2.33-4.32 2.83-.7.24-1.64.5-2.34.13-1.06-.56-1.58-2.18-1.58-2.18l2.45-4.33c-.79.18-1.6 1.2-2.14 1.75-.93.92-1.94 1.74-2.93 2.6-.74.66-2.36 2.71-3.55 2.2-1.51-.67-.08-2.76.35-3.63-.79.43-1.36 1.15-2.06 1.7a10.8 10.8 0 0 1-2.75 1.57c-1.1.42-2.78.5-2.78-1.11-2 2-5.63 2.12-6.3-1.14-1.14 1.11-5.9 4.28-7.1 1.89l2.68-7.4c-.34-1.49-2.01.77-2.35 1.15a38.28 38.28 0 0 1-3.3 3.4c-1.7 1.54-4 3.49-6.42 3.6-.96.04-1.92-.47-1.63-1.57.23-.85 1.7-2.09.93-3 .1.12-3.95 3.05-4.37 3.35-.93.64-2.49 1.84-3.68 1.25-1.83-.91.64-2.5.16-3.72-1.9 1.78-6.44 5.69-8.64 2.37-2.26 1.81-5.85 2.04-6.36-1.44-1.06 1.29-6.91 4.83-7.18 1.4l2.03-5.25c-.59-.42-2.4 1.6-2.8 1.93-1.16.98-2.25 2.04-3.37 3.07-.64.6-1.88 1.97-2.94 1.56-1.44-.56-1.22-3.53-1.15-3.96l4.67-5.92c.79-.88 1.9-.75 2.97-.75l-1.37 2.68c-.14.28-.52 1.5-.52 1.5l4.1-2.76c.87-.67 3.9-2.76 4.5-.79.49 1.55-1.04 3.36-1.77 4.57-.3.5-1.67 2.62-.26 2.44l5.69-6.21 4.32-2.23L122.17.75c2.08-.88 2.01 2.21 1.93 3.44a21.28 21.28 0 0 1-1.02 5.49 28.31 28.31 0 0 1-2.83 5.8 12.4 12.4 0 0 1-1.78 2.27c-.44.44-1.34 1.25-1.09 1.98l7.8-5.08 3.05-2.84c.5-.1.98-.05 1.18.49.28.8-.62 1.75-1 2.39-.47.82-.88 1.68-1.32 2.53-.16.31-.79 1.23-.46 1.58l7.87-6.6c.55-.37 1.27-.69 1.93-.41.91.38.45 1.24.11 1.88l-2.06 3.87c-.26.48-1.2 2.07-.08 1.98l6.31-6.33.2-2.64c.82-1.29 2.35-.56 2.9.5.32.65.5.93 1.28.96.8.02 1.57-.1 2.03.69.91 1.54-.7 3.47-1.56 4.65-.6.83-1.38 2.98.43 2.02l6.92-7.45s7.19-1.92 7.02 1.1c-.05.8-.45 1.07-1.18.92-1.04-.2-1.83-.47-2.92-.22a5.89 5.89 0 0 0-4.15 3.3c-.39.92-.87 2.8.64 2.92l4.62-4.7c.77-.28 1.7.08 2.5.08-.28.61-2.56 3.9-1.72 4.52l7.89-7.49c.83-.87 1.89-.48 2.94-.48-.25.5-2.35 4.07-1.7 4.35 0 0 6.07-4.55 7.3-4.62 1.76-.1 1.24 1.88.72 2.9-.42.83-.93 1.61-1.4 2.41-.27.48-1.2 1.82-.8 2.4l6.78-6.01 4.2-1.86c1.46-.09 2.93.48 3.04 2.13.08 1.3-1.35 3.37-2.89 2.55-.83-.44-.12-1.2-.08-1.82l-1.3-.82c-1.65.38-2.72 2.23-3.03 3.78-.32 1.6.46 3.33 2.34 3.09l6.83-5.59 5.23-3.27c1.57-.05 3.31.7 3.24 2.51-.07 1.94-1.89 3.42-3.55 4.09-.86.35-1.84.22-2.68.58-1.24.51-.5 1.33.43 1.57l5.67-2.36c.52-.41.94-.96 1.04.07zm-82.34-3.53c.22-1.19-1.42-.5-1.93-.25a4.7 4.7 0 0 0-2.54 3.44c-.16 1.14.18 2.6 1.6 2.43l2.87-5.62zm74.16 2.64l3.65-1.28-.5-2.06c-1.52.42-2.66 1.9-3.15 3.34zm26.82-12.24c.79-.94 2.3-2.21.87-3.36-1.3-1.03-2.51.77-3.6 1.3l-10.2 2.1-3.87 4.03c.6 1.3 2.02 2.23 3.27 2.8.73.35 1.44.41 2.14-.04.5-.32 1-.87.71-1.5-.4-.86-1.68-.76-2.33-1.32-1-.85.27-1.44 1.04-1.63 1.38-.37 2.82-.6 4.22-.9.82-.19 1.64-.4 2.46-.57.43-.1 1.1-.29 1.47.06l-6.1 14.12c-.39.62-2 2.16-1.52 2.95.37.6 1.63.51 2.19.34a3.64 3.64 0 0 0 1.76-1.34c1.23-1.6 1.85-3.74 2.64-5.58l2.53-5.9c.44-1.01.92-2.02 1.28-3.07.3-.84.45-1.78 1.04-2.49zm34.7 15.23a9.2 9.2 0 0 1-4.16 2.4c-1 .25-2.58.3-3.02-.88l2.06-7.62c-.94.3-1.65 1.58-2.22 2.31-1.86 2.35-4.3 4.92-7.19 5.92-.95.32-3.2.84-3.58-.57-.33-1.2 1.93-2.52 1-3.62.1.11-3.9 3-4.32 3.3-.98.7-3.07 2.27-4.15.91-.88-1.1 1.03-2.18.57-3.34-.54.5-1.15.92-1.85 1.18-.7.25-1.49.24-2.16.56-1.34.63-2.15 1.71-3.7 1.95-3.37.52-6.05-2.97-5.4-6.09l7-5.6c1.5-.1 3.13.58 3.74 2.04.35.87.07 1.57-.16 2.41-.22.85-.08 1.82-.46 2.62l5.87-5c.48-.73 2.2-2 2.92-.77.46.81-.56 2.04-.93 2.7-.4.7-.77 1.43-1.17 2.14-.2.36-.9 1.14-.76 1.6l5.58-5.26s2.73-1.56 3.92-1.59c2.36-.06-.36 3.92-.88 4.72-.31.48-1.97 2.57-.97 3.04l6.7-6.34v-2.21c.3-1.1 1.92-1.56 2.6-.59.6.86.45 1.54 1.7 1.58 1.43.04 2.33.48 2.14 2.13-.16 1.35-1.09 2.48-1.76 3.61-.33.56-1.17 2.18.21 1.84.64-.15 1.17-.76 1.6-1.22.35-.4.83-1.2 1.46-1.12 1.08.16.2 2.44-.23 2.86zm-31.69-6.38c-1.91.59-4.24 4.17-2.4 5.88h2.64l1.57-4.65c.24-1.01-1.05-1.46-1.8-1.23z"/><linearGradient id="a" gradientUnits="userSpaceOnUse" x1="125.41" y1="22.73" x2="125.41"><stop offset="0" stop-color="#f0f"/><stop offset="1" stop-color="#0ff"/></linearGradient><path fill="url(#a)" d="M24.1 14.01c-1.97 3.16-4.32 7.44-8.48 7.83-1.96.19-3.85-.92-4.1-2.99-.28-2.48 1.49-4.56 2.5-6.65-2.09 2.4-3.94 5.01-6.25 7.22-1.06 1.01-2.94 2.85-4.58 2.47-1.09-.25-1.4-1.55-1.26-2.5.2-1.43 1.11-2.77 1.76-4.04 1.47-2.9 3-5.78 4.4-8.73.35-.75 1.26-2.73-.04-3.1C6.96 3.2 5.82 4.3 5.3 5.1 4 7.12 4.07 10.76 1.38 11.68-.17 12.22-.16 10.5.2 9.51a25.94 25.94 0 0 1 1.95-4.29C3.48 2.98 5.7.72 8.5.8c1.26.03 2.64.6 3.13 1.84.58 1.5-.24 3.12-.86 4.46-1.69 3.66-3.5 7.26-5.3 10.87 3.5-3.5 6.82-7.24 9.85-11.16.53-.68 1.04-1.5 1.89-1.8.7-.25 1.69-.1 2.07.62.52.94-.33 1.98-.77 2.76-.57 1.02-1.03 2.1-1.52 3.16-.45.98-.88 1.98-1.33 2.97-.44 1-1.1 2-1.27 3.1-.27 1.92 1.32 1.64 2.48.9 3.44-2.21 5.28-6.28 6.86-9.88.52-1.18 1.05-2.37 1.44-3.6.3-.96.49-2.05 1.31-2.73.69-.56 1.94-.88 2.24.24.25.9-.4 1.88-.64 2.71a35.78 35.78 0 0 1-3.98 8.76zm46.95-9.2a24.2 24.2 0 0 1-2.7 8.35 17.91 17.91 0 0 1-2.37 3.58c-.51.57-1.65 1.4-1.51 2.26.28 1.79 3.2-.85 3.7-1.37.47-.46 1.68-1.5 1.93-.25.16.75-.47 1.73-.95 2.26-1.56 1.73-5.6 3.43-7.21 1-2.26 1.8-5.85 2.04-6.36-1.42-.8.95-1.94 1.48-3.04 2-.88.43-2.29 1.19-3.25.57-1.23-.79.14-2.82.14-3.89-1.89 1.47-3.66 3.25-6.03 3.88-.92.24-2.22.4-2.67-.68-.43-1.01.32-2.35.74-3.24.23-.5 2.7-4.42 1.47-4.62-.74-.13-1.5 1.34-1.9 1.82-.91 1.09-1.9 2.14-2.96 3.1-.86.8-1.85 1.54-3.07 1.6-.45.01-.9-.1-1.34.11-.58.29-1 .95-1.53 1.33-1.61 1.14-4.23 1.24-5.74-.15-2.32-2.15-.67-6.4 1.01-8.43 1.42-1.72 4.04-3 6.25-2.09a3.2 3.2 0 0 1 2 2.76c.02.6-.25 1.12-.4 1.7-.2.76-.08 1.62-.44 2.34.77.38 1.51-.33 2.03-.82a26 26 0 0 0 2.32-2.5c.5-.62.85-1.24.89-2.05.04-.77-.22-1.65.38-2.27.5-.52 1.36-.64 1.94-.2.56.42.5 1.29 1.08 1.68.68.47 1.6-.09 2.33.29.83.43.83 1.53.65 2.33-.35 1.59-1.66 2.56-2.23 4.02-.56 1.45.69 1.23 1.51.64 2.73-1.93 5.28-4.31 6.46-7.5.75-2 1.3-4.09 2-6.11.45-1.33.77-3.82 2.11-4.59 2.05-1.17 1.54 2.24 1.33 3.16-.49 2.1-1.26 4.1-2.15 6.06-.9 1.98-1.88 3.91-2.72 5.9-.24.57-1.82 4.08-.03 3.46.59-.2 1.2-.82 1.68-1.2a4.63 4.63 0 0 0 1.6-2.15c.66-1.68 1.54-3 3.26-3.73.92-.39 1.81-.43 2.79-.48.74-.03 1.33-.2 1.66-.92.43-.9.57-1.96.95-2.89.38-.94.81-1.87 1.23-2.8.7-1.5 1.8-3.97 3.6-4.44 2.17-.56 1.7 3.46 1.56 4.6zm-39.65 8.2c-2.12.27-4.74 4.62-2.48 6.12.6.4 1.54.5 2.18.13.97-.55.43-1.53.43-2.4 0-1.03.92-1.37 1.27-2.23.38-.93-.45-1.73-1.4-1.62zm31.28.8c.22-1.18-1.42-.5-1.93-.24a4.7 4.7 0 0 0-2.54 3.44c-.16 1.13.18 2.6 1.6 2.43.78-.09 1.57-.62 1.95-1.3.46-.8.27-1.75.46-2.62.13-.57.35-1.12.46-1.7zM69.3 2.79a30.66 30.66 0 0 0-2.79 6c-.35 1-.6 2.03-.97 3.02-.3.79-.94 1.76-.56 2.62 2.16-2.77 3.44-6.55 4.15-9.95.1-.47.43-1.22.17-1.69zm21.22 12.16c-1.78-.6-2.84.6-3.95 1.79-1.25 1.36-2.92 2.58-4.82 2.77-1.83.19-3.44-1.26-1.97-2.94a6.9 6.9 0 0 1 2.17-1.46c.64-.32 1.51-.6 1.84-1.3.42-.9-.4-1.7-.79-2.42a3.96 3.96 0 0 1-.32-2.96 7.05 7.05 0 0 1 3.2-4.1c.73-.43 2.01-1.13 2.88-.94 1.66.36-.8 2.27-1.23 2.67-.57.52-1.23 1.15-1.3 1.96-.08.9.76 2.01 1.73 1.91.88-.09 1.4-1.19 1.82-1.84.57-.88 1.25-1.67 1.81-2.56.8-1.26 1.34-3.1-.19-4.07-1.63-1.04-4.08-.57-5.77.07-3.15 1.18-6.5 4.48-6.16 8.1.08.9.6 1.58.76 2.42.2 1.03-.78 1.55-1.52 2.04-1.57 1.04-2.77 2.83-2.6 4.8.36 3.93 5.05 3.47 7.76 2.6 2.16-.7 4-2.03 5.54-3.67.41-.44 2.37-2.44 1.1-2.87zm106.22 2.41c.28 2.68-3.04 3.97-5.16 4.38-2.3.44-5.38-.17-5.67-2.96-1.84 3.1-10.04 5.35-10.6.15-.87 1.34-2.87 2.33-4.32 2.83-.7.24-1.64.5-2.34.13-1.06-.56-.74-1.97-.37-2.87.36-.83.9-1.51 1.35-2.3.23-.4.84-1.55-.1-1.34-.8.18-1.6 1.2-2.15 1.75-.92.92-1.94 1.74-2.93 2.6-.74.66-2.36 2.71-3.55 2.2-1.51-.67-.08-2.76.35-3.63-.79.43-1.36 1.15-2.06 1.7a10.8 10.8 0 0 1-2.75 1.57c-1.1.42-2.78.5-2.78-1.11-2 2-5.63 2.12-6.3-1.14-1.14 1.11-5.9 4.28-7.1 1.89-.6-1.16.21-2.66.78-3.67.54-.94 2.16-2.53 1.9-3.72-.34-1.5-2.02.76-2.35 1.14a38.28 38.28 0 0 1-3.3 3.4c-1.7 1.54-4 3.49-6.43 3.6-.95.04-1.9-.47-1.62-1.57.23-.85 1.7-2.09.93-3 .1.12-3.95 3.05-4.37 3.35-.93.64-2.49 1.84-3.68 1.25-1.83-.91.64-2.5.16-3.72-1.9 1.78-6.44 5.69-8.64 2.37-2.26 1.81-5.86 2.04-6.36-1.44-1.06 1.29-6.91 4.83-7.18 1.4-.1-1.32.78-2.51 1.44-3.57.18-.29 1.02-1.38.6-1.68-.6-.42-2.41 1.6-2.8 1.93-1.17.98-2.26 2.04-3.38 3.07-.64.6-1.89 1.97-2.94 1.56-1.44-.56 0-2.82.4-3.61-.3.17-.72.76-1.09.78-.57.04-.53-.7-.46-1.13.2-1.25 1.34-2.06 2.2-2.87.97-.93 1.58-2.07 2.47-3.05.79-.88 1.9-.75 2.97-.75l-1.37 2.68c-.14.28-.75 1.18-.52 1.5.48.66 3.64-2.42 4.1-2.76.87-.67 3.9-2.76 4.5-.79.49 1.55-1.04 3.36-1.77 4.57-.3.5-1.67 2.62-.26 2.44 1.74-.22 2.98-2.33 3.65-3.73.76-1.59 1.8-2.92 3.49-3.57 1.03-.4 2.06-.25 3.1-.48.78-.16 1.06-.65 1.3-1.36a38.48 38.48 0 0 1 2.43-5.96c.69-1.29 1.36-3.04 2.8-3.66 2.08-.88 2.01 2.21 1.93 3.44a21.28 21.28 0 0 1-1.02 5.49 28.31 28.31 0 0 1-2.83 5.8 12.4 12.4 0 0 1-1.78 2.27c-.44.44-1.34 1.25-1.09 1.98.66 1.93 7.23-4.26 7.8-5.08.86-1.21 1.46-2.5 3.05-2.84.5-.1.98-.05 1.18.49.28.8-.62 1.75-1 2.39-.47.82-.88 1.68-1.32 2.53-.16.31-.79 1.23-.46 1.58.71.76 3.76-2.54 4.2-2.99 1.17-1.19 2.27-2.68 3.67-3.61.55-.37 1.27-.69 1.93-.41.91.38.45 1.24.11 1.88l-2.06 3.87c-.26.48-1.2 2.07-.08 1.98.83-.07 1.7-1.04 2.3-1.55.82-.71 1.55-1.49 2.29-2.29.66-.71 1.54-1.49 1.72-2.49.16-.88-.32-1.82.2-2.64.82-1.29 2.35-.56 2.9.5.32.65.5.93 1.28.96.8.02 1.57-.1 2.03.69.91 1.54-.7 3.47-1.56 4.65-.6.83-1.38 2.98.43 2.02a7.33 7.33 0 0 0 2.74-2.66c1.09-1.79 2-3.16 3.94-4.1 1.12-.55 7.43-2.61 7.26.41-.05.8-.45 1.07-1.18.92-1.04-.2-1.83-.47-2.92-.22a5.89 5.89 0 0 0-4.15 3.3c-.39.92-.87 2.8.64 2.92 1.52.11 2.85-1.84 3.4-3.03.3-.64.5-1.4 1.22-1.66.77-.29 1.7.07 2.5.07-.28.61-2.56 3.9-1.72 4.52.73.52 2.3-1.2 2.76-1.62 1.2-1.13 2.53-2.13 3.55-3.43.6-.75.92-1.74 1.58-2.44.83-.87 1.89-.48 2.94-.48-.25.5-2.35 4.07-1.7 4.35.56.24 1.3-.77 1.6-1.08.7-.75 1.52-1.38 2.35-1.98.95-.7 2.12-1.49 3.34-1.56 1.77-.1 1.25 1.88.73 2.9-.42.83-.93 1.61-1.4 2.41-.27.48-1.2 1.82-.8 2.4.66.94 3.16-1.54 3.55-1.92.67-.65.78-1.56 1.22-2.35a6.26 6.26 0 0 1 1.76-1.95 8.5 8.5 0 0 1 4.46-1.65c1.46-.09 2.92.48 3.03 2.13.09 1.3-1.35 3.37-2.88 2.55-.84-.44-.13-1.2-.09-1.82.06-.82-.63-.97-1.3-.82-1.65.38-2.72 2.23-3.03 3.78-.31 1.6.46 3.33 2.34 3.09 1.54-.2 2.98-1.35 4.2-2.25 1.56-1.16 1.67-3.11 3.05-4.45a7.58 7.58 0 0 1 4.81-2.16c1.57-.05 3.32.7 3.25 2.51-.08 1.94-1.9 3.42-3.56 4.09-.86.35-1.83.23-2.68.58-1.24.51-.5 1.33.43 1.58 2.13.54 4.14-1.14 5.68-2.37.51-.41.93-.96 1.03.07zm-80.04-2.93a20.13 20.13 0 0 0 2.89-5.64c.38-1.08.66-2.19 1-3.28.26-.8.9-1.88.43-2.72a35.62 35.62 0 0 0-3.71 8.88c-.21.75-.95 1.98-.6 2.76zm-2.31-.6c.21-1.19-1.42-.5-1.93-.25a4.7 4.7 0 0 0-2.54 3.44c-.16 1.13.18 2.6 1.6 2.43.78-.09 1.57-.62 1.95-1.3.46-.8.27-1.75.46-2.62.13-.57.35-1.12.46-1.7zm74.16 2.64c1.23-.17 2.71-.37 3.65-1.28.66-.65 1-2.46-.5-2.06-1.52.42-2.66 1.9-3.15 3.34zm26.82-12.24c.79-.94 2.3-2.21.87-3.36-1.3-1.03-2.51.77-3.6 1.3-1.38.69-3.07.6-4.56.87-1.9.34-3.78.74-5.64 1.23-1.83.48-5.01 1.52-3.87 4.03.6 1.3 2.02 2.22 3.27 2.8.73.35 1.44.41 2.14-.04.5-.32 1-.87.71-1.5-.4-.86-1.68-.77-2.33-1.32-1-.85.27-1.44 1.04-1.64 1.38-.36 2.82-.6 4.22-.9l2.46-.56c.43-.1 1.1-.29 1.47.06.94.89-.71 3.28-1.15 4.07-.9 1.64-1.6 3.4-2.4 5.08-.8 1.68-1.59 3.38-2.56 4.97-.38.61-1.98 2.16-1.51 2.95.37.6 1.63.51 2.19.34a3.64 3.64 0 0 0 1.76-1.34c1.23-1.6 1.85-3.74 2.64-5.58l2.53-5.9c.44-1.01.92-2.02 1.28-3.07.3-.84.45-1.78 1.04-2.49zm34.7 15.23a9.2 9.2 0 0 1-4.16 2.4c-1 .25-2.58.3-3.02-.88-.65-1.77 1.19-4.16 2.07-5.56.28-.44 1.4-2.51-.01-2.06-.94.3-1.65 1.58-2.22 2.31-1.86 2.35-4.3 4.92-7.19 5.92-.95.33-3.2.84-3.58-.57-.33-1.2 1.93-2.52 1-3.62.1.12-3.9 3-4.32 3.3-.98.7-3.07 2.27-4.15.91-.88-1.1 1.04-2.18.57-3.34-.54.5-1.15.92-1.85 1.18-.7.25-1.49.24-2.16.56-1.33.63-2.15 1.71-3.7 1.95-3.37.52-5.31-2.33-4.66-5.45.61-2.97 3.05-6.03 6.27-6.24 1.5-.1 3.12.59 3.73 2.04.35.87.07 1.57-.15 2.41-.23.85-.08 1.82-.47 2.62 1.2.6 2.37-.86 3.12-1.58a19.28 19.28 0 0 0 2.75-3.41c.48-.74 2.2-2.01 2.92-.78.46.81-.56 2.04-.93 2.7-.4.7-.77 1.43-1.17 2.14-.2.36-.89 1.14-.76 1.6.32 1.12 2.64-1.25 3-1.6 1.13-1.1 2.15-2.32 3.33-3.4.81-.73 1.98-1.82 3.17-1.85 2.36-.06-.35 3.92-.88 4.72-.31.48-1.97 2.57-.97 3.04.76.36 2.19-1.12 2.62-1.5 1.1-1 2.2-2.1 3.15-3.24.4-.47.77-1 .93-1.6.19-.75-.2-1.5 0-2.22.3-1.1 1.92-1.55 2.6-.58.6.86.45 1.54 1.7 1.58 1.43.04 2.33.48 2.14 2.13-.16 1.35-1.09 2.48-1.76 3.61-.33.56-1.17 2.18.22 1.84.63-.15 1.16-.76 1.58-1.22.36-.4.84-1.2 1.47-1.12 1.08.16.2 2.44-.23 2.86zm-31.69-6.38c-1.91.59-4.24 4.17-2.4 5.87.84.78 2.5.78 2.87-.48.23-.8-.29-1.61.01-2.4.28-.7 1.16-1 1.34-1.76.23-1.01-1.06-1.46-1.82-1.23z"/></svg>