<svg xmlns="http://www.w3.org/2000/svg" viewBox="0 0 519.45 459.05"><path d="M495.3 0H24.15A24.19 24.19 0 0 0 0 24.16V434.9a24.2 24.2 0 0 0 24.16 24.16H495.3a24.19 24.19 0 0 0 24.16-24.16V24.16A24.19 24.19 0 0 0 495.3 0z"/><path fill="#FFF" d="M495.3 451H24.15a16.1 16.1 0 0 1-16.1-16.11V116.78H511.4v318.11c0 8.9-7.21 16.1-16.1 16.1z"/><linearGradient id="a" gradientUnits="userSpaceOnUse" x1="8.05" y1="58.39" x2="511.4" y2="58.39"><stop offset="0" stop-color="#bfaf00"/><stop offset=".5" stop-color="#e3d58f"/><stop offset="1" stop-color="#bfaf00"/></linearGradient><path fill="url(#a)" d="M8.05 108.72V24.16c0-8.86 7.25-16.1 16.11-16.1H495.3c8.9 0 16.1 7.2 16.1 16.1v84.56H8.06z"/><path d="M38.42 69.28a10.14 10.14 0 0 1-4.82 2.19c-1.58.2-3.55.23-4.83-.85-2.84-2.4 1.85-8.6 1.85-8.6l7.56 4.04 10.8-16.93c.1-1.96-1.41-2.96-3.26-2.77-1.9.19-3.31 1.47-4.58 2.8-.7.72-1.36 1.48-2.04 2.22-.66.71-1.38.81-2.2.28-.61-.38-1.45-1.2-1.33-1.96l5.11-6c3.2-1.86 7.9-2.66 11.03-.25 3.23 2.49 2.41 6.92.86 10.12-1.8 3.69-4.54 6.92-7.3 9.91-.7.77-1.43 1.51-2.19 2.23 0 0 7.4 1.28 8.4 1.06.47-.1.93-.26 1.4-.38.56-.14.72.2.72.74-.01 1.01-.45 2.1-.8 3.03-.1.31-.2.68-.44.9-.3.28-.76.39-1.14.46-1.97.4-4.24.05-6.17-.41a21.72 21.72 0 0 1-5.1-1.96c-.16-.1-.57-.44-.75-.44-.19 0-.66.48-.78.57zM36 66.18s-2.43-1.3-3.73-1.13c-1.1.14-2.28 1.09-1.82 2.3.44 1.16 1.85 1.36 2.93 1.13l2.62-2.3zm25.84 5.58c-6.16-.64-6.8-8.63-5.89-13.34 1.08-5.5 4.23-11.03 8.96-14.16 4.2-2.78 10.91-3.59 13.45 1.8 1.2 2.54 1.09 5.58.65 8.29a24.58 24.58 0 0 1-2.88 8.22c-1.55 2.7-3.7 5.3-6.31 7.05a12.75 12.75 0 0 1-7.25 2.15c-.2 0-.63-.08-.73 0zm2-4.55c3.64 0 6-3.08 7.63-6 .97-1.73 1.68-3.6 2.22-5.5.5-1.8.9-3.72.68-5.59-.18-1.52-.9-3.01-2.5-3.38-1.71-.39-3.48.44-4.8 1.46-3 2.3-4.66 5.8-5.64 9.35-.77 2.77-2.4 9.66 2.4 9.66zm18.41 4.2c-.85 0 .23-1.53-.06-1.15s6.87-15.66 6.87-15.66c-.64.4-2.82 1.81-3.32.6-.26-.63-.1-1.43-.03-2.07l10.94-10.79c1.23-1.07 2.97-1.02 3.95.33 1 1.39.1 3.01-.76 4.2-.43.6-1.02 1.1-1.38 1.74-.39.7-.71 1.44-1.06 2.15-.75 1.55-1.5 3.09-2.22 4.65-1.39 3.08-2.79 6.16-4.34 9.17-.82 1.59-1.67 3.16-2.51 4.74-.35.65-.78 2.04-1.6 2.08-1.49.07-3 0-4.48 0zm34.73-15.52c1.16-.16 2.22.65 2.01 1.86a4.3 4.3 0 0 1-1.7 2.62 7.73 7.73 0 0 1-7.22 1.04c-2.3-.94-5.3-6.21-3.05-5.74.53.12 2.62-7.35 2.62-7.35l13.31-6.05a8.24 8.24 0 0 1 5.1 4.06c1.06 2.03.99 4.35.61 6.55-.33 1.93-.91 3.6-1.9 5.3a51.54 51.54 0 0 1-4.33 6.17c-3.3 4.14-7.27 8.1-11.78 10.91-.54.35-1.1.67-1.67.98-.66.35-1.04.44-1.67-.05-.79-.62-1.98-2.08-1.2-3.1l17.7-16.58-.17-7.96c-.98-1.99-3.61-2.15-5.45-1.45-2.25.87-4.14 2.91-5.2 5.04-.67 1.36-1.95 5.33.86 5.22.55-.02 1.1-.25 1.6-.5.24-.13.47-.27.7-.43.25-.17.53-.5.83-.54z"/><linearGradient id="b" gradientUnits="userSpaceOnUse" x1="76.41" y1="40.66" x2="76.41" y2="75.6"><stop offset="0" stop-color="#0ff"/><stop offset=".15" stop-color="#39c6ff"/><stop offset=".36" stop-color="#7f80ff"/><stop offset=".54" stop-color="#b649ff"/><stop offset=".7" stop-color="#de21ff"/><stop offset=".82" stop-color="#f609ff"/><stop offset=".9" stop-color="#f0f"/></linearGradient><path fill="url(#b)" d="M36.77 68.35a10.14 10.14 0 0 1-4.82 2.2c-1.58.2-3.55.23-4.84-.86-2.84-2.4-1.51-7.46 1.86-8.6a8.62 8.62 0 0 1 5.32.2c.86.3 1.6.72 2.35 1.2.59.39.82.36 1.33-.07 1.37-1.16 2.53-2.65 3.64-4.05a50.6 50.6 0 0 0 3.54-4.93c.95-1.56 2.08-3.37 2.18-5.24.1-1.96-1.41-2.96-3.26-2.77-1.9.19-3.32 1.47-4.58 2.8-.7.72-1.36 1.49-2.05 2.23-.65.7-1.37.8-2.2.28-.6-.39-1.44-1.2-1.32-1.97.12-.8.68-1.67 1.12-2.34 1-1.54 2.4-2.74 3.99-3.66 3.2-1.86 7.9-2.66 11.03-.25 3.23 2.49 2.41 6.92.85 10.12-1.79 3.69-4.53 6.92-7.29 9.91-.7.77-1.43 1.51-2.19 2.23.53.53 1.48.7 2.19.88 1.05.25 2.12.38 3.2.4 1.02.03 2 0 3-.22.47-.1.93-.26 1.4-.38.57-.14.73.2.72.74 0 1.01-.45 2.1-.79 3.03-.11.31-.2.68-.45.9-.29.28-.76.39-1.14.46-1.97.4-4.24.05-6.17-.41a21.72 21.72 0 0 1-5.1-1.96c-.16-.1-.56-.44-.75-.44-.18 0-.65.48-.77.57zm-2.44-3.1c-1.09-.66-2.42-1.3-3.73-1.13-1.1.14-2.27 1.1-1.81 2.3.44 1.16 1.84 1.37 2.92 1.14 1.32-.28 2-1.4 3.09-2.06a7.59 7.59 0 0 1-.47-.25zm25.85 5.59c-6.17-.65-6.8-8.64-5.89-13.35 1.07-5.5 4.22-11.03 8.95-14.16 4.2-2.78 10.92-3.58 13.45 1.8 1.2 2.54 1.1 5.58.65 8.3a24.58 24.58 0 0 1-2.87 8.21c-1.55 2.7-3.7 5.31-6.32 7.05a12.75 12.75 0 0 1-7.25 2.15c-.2 0-.62-.08-.72 0zm2-4.56c3.64 0 6-3.08 7.62-6 .97-1.73 1.69-3.59 2.22-5.5.5-1.8.91-3.71.69-5.59-.18-1.52-.9-3-2.51-3.38-1.7-.39-3.47.44-4.8 1.46-3 2.3-4.65 5.8-5.64 9.35-.76 2.77-2.39 9.66 2.41 9.66zm18.4 4.2c-.84 0-.34-.77-.05-1.15.53-.7 1.02-1.42 1.49-2.15.94-1.48 1.8-2.99 2.6-4.54 1.56-3 3.05-6.02 4.43-9.1.1-.2.77-1.31.4-1.4-.15-.04-.85.72-.99.83-.33.25-.7.48-1.06.7-.64.4-2.83 1.81-3.32.6-.26-.63-.1-1.42-.04-2.07.06-.56.1-1.58.6-1.88.6-.35 1.36-.53 1.99-.87.78-.42 1.52-.91 2.26-1.4a18.72 18.72 0 0 0 3.69-2.95c1-1.1 1.28-2.7 2.4-3.68 1.24-1.08 2.98-1.03 3.96.32 1 1.39.1 3.01-.76 4.21-.43.59-1.02 1.1-1.38 1.73-.39.7-.71 1.44-1.06 2.16-.75 1.54-1.5 3.08-2.22 4.64-1.4 3.09-2.79 6.16-4.34 9.17-.82 1.59-1.68 3.16-2.52 4.74-.34.65-.77 2.04-1.6 2.08-1.48.08-2.99 0-4.47 0zm34.74-15.52c1.15-.16 2.21.65 2 1.86a4.3 4.3 0 0 1-1.7 2.62 7.73 7.73 0 0 1-7.22 1.04c-2.3-.94-3.13-3.42-3.04-5.73.1-2.61 1.11-5.23 2.62-7.36 2.89-4.07 8.17-7.42 13.3-6.04a8.24 8.24 0 0 1 5.1 4.06c1.07 2.03 1 4.34.62 6.54-.33 1.94-.92 3.61-1.9 5.3a51.54 51.54 0 0 1-4.34 6.17c-3.3 4.14-7.26 8.1-11.77 10.92-.55.34-1.1.66-1.67.97-.67.35-1.05.45-1.67-.05-.79-.62-1.98-2.07-1.2-3.1.34-.43.95-.69 1.4-1 .6-.39 1.18-.81 1.75-1.25 1.1-.85 2.16-1.77 3.18-2.72 3.81-3.57 7.5-7.53 9.88-12.22 1.08-2.11 2.48-5 1.32-7.35-.98-1.99-3.62-2.15-5.45-1.44-2.25.86-4.14 2.9-5.2 5.03-.67 1.36-1.95 5.33.86 5.22.55-.02 1.1-.24 1.59-.5.24-.12.48-.27.71-.43.25-.17.52-.5.83-.54z"/><path fill="#FAB33F" d="M151.54 41.42h14.27c6.51.07 11.13.4 14.4 8.49 4.46-.8 17.81-5.6 25.9 4.1 5.03-6.57 19.78-7.95 24.87-2.2 4.7-3.7 18.28-6.99 22.94 2.12 4.7-13.49 28.93-20.1 34.55-4.2l.84-1.01h12.37v.7c5.35-2.96 12.58-.15 13.52 5.04 4.97-14.17 27.98-20.63 34.73-5.13h25.19v7.78l-9.2 8.49 6.37.04-2.43 10.6H321.6c-2.06 0-4.6-1.14-7.12-5.56l-2.25 5.52-29.2.04.48-4.24c-2 2.11-4.56 4.24-8.48 4.33l-16.35-.09c-1.97 0-4.1-2.2-5.48-4.6-1.12 3.27-3.47 4.6-6.14 4.6h-37.25c-2.86 0-5.76-2.86-7.56-5.74l-1.59 5.74h-56.33l7.2-34.82z"/><path d="M161.96 56.65c1.53 0 2.7-.3 3.5-.89a4.76 4.76 0 0 0 1.7-2.93c.3-1.35.18-2.31-.38-2.9-.53-.57-1.57-.87-3.1-.87h-3.12l-1.72 7.6h3.12zm-4.31 5.27l-2.55 11.2h-7.4l6.72-29.58h11.28c3.78 0 6.4.65 7.85 1.96 1.46 1.3 1.88 3.37 1.23 6.2a10.04 10.04 0 0 1-2.45 4.81 10.63 10.63 0 0 1-4.77 2.77 4 4 0 0 1 2.34 1.63c.62.83 1.14 2.1 1.57 3.8l2.1 8.4h-7.87l-1.8-7.35c-.38-1.48-.87-2.49-1.47-3.03-.6-.54-1.5-.81-2.7-.81h-2.08zm31.94 1.2c-1.44 0-2.58.26-3.42.76a3.34 3.34 0 0 0-1.59 2.22c-.2.9-.07 1.6.4 2.12.47.5 1.22.75 2.26.75 1.29 0 2.48-.47 3.58-1.42a6.63 6.63 0 0 0 2.14-3.6l.19-.82h-3.56zm11.1-2.67l-2.88 12.66h-6.93l.75-3.29a12.64 12.64 0 0 1-3.79 2.96c-1.28.6-2.75.9-4.4.9-2.23 0-3.9-.66-4.98-2-1.08-1.34-1.37-3.08-.89-5.22.6-2.6 1.9-4.51 3.9-5.73 2.02-1.21 4.88-1.82 8.58-1.82h4.06l.12-.56c.26-1.12 0-1.94-.74-2.45-.73-.53-2-.8-3.8-.8-1.49 0-2.9.16-4.23.46s-2.61.76-3.85 1.37l1.23-5.4a42.12 42.12 0 0 1 9.15-1.14c3.88 0 6.5.8 7.86 2.38 1.36 1.57 1.64 4.13.83 7.68zm25.75-8.83l-1.31 5.78a7.99 7.99 0 0 0-5.3-1.94c-1.92 0-3.54.58-4.87 1.74a8.73 8.73 0 0 0-2.7 4.84c-.47 2.07-.3 3.69.5 4.85.8 1.15 2.17 1.72 4.09 1.72 1.08 0 2.14-.16 3.18-.5a11.6 11.6 0 0 0 3-1.46l-1.32 5.8a21.18 21.18 0 0 1-6.87 1.23c-3.88 0-6.68-1.02-8.4-3.07-1.73-2.06-2.17-4.91-1.34-8.57.83-3.66 2.57-6.51 5.23-8.56 2.65-2.06 5.92-3.09 9.8-3.09a16.42 16.42 0 0 1 6.31 1.23zm25.03 10.34l-.46 2.02h-16.06c-.22 1.67.08 2.91.88 3.75.82.83 2.13 1.24 3.92 1.24 1.45 0 2.98-.21 4.58-.65a28.6 28.6 0 0 0 5.13-2.02l-1.24 5.47c-1.77.63-3.5 1.1-5.2 1.42a26 26 0 0 1-4.98.5c-3.9 0-6.7-1.02-8.4-3.05-1.67-2.05-2.1-4.92-1.26-8.6a14.72 14.72 0 0 1 5.12-8.54 14.64 14.64 0 0 1 9.44-3.11c3.39 0 5.85 1.05 7.4 3.15 1.55 2.1 1.92 4.9 1.13 8.42zm-6.52-2.36c.3-1.35.16-2.43-.42-3.25-.56-.83-1.46-1.25-2.7-1.25a5.6 5.6 0 0 0-3.5 1.17A7.27 7.27 0 0 0 236 59.6h8.94zm28.2-11.07a7.8 7.8 0 0 0-5.83 2.57c-1.62 1.72-2.8 4.14-3.5 7.25-.7 3.1-.63 5.52.21 7.23.86 1.72 2.42 2.58 4.66 2.58 2.26 0 4.2-.86 5.83-2.58 1.64-1.71 2.82-4.12 3.52-7.23.7-3.11.63-5.53-.23-7.25-.85-1.71-2.4-2.57-4.66-2.57zm1.26-5.53c4.6 0 7.9 1.36 9.88 4.08 2 2.72 2.45 6.48 1.36 11.28-1.08 4.78-3.24 8.53-6.48 11.25-3.21 2.72-7.13 4.08-11.73 4.08-4.6 0-7.89-1.36-9.88-4.08-2-2.72-2.46-6.47-1.37-11.26 1.09-4.79 3.25-8.55 6.48-11.27 3.23-2.72 7.14-4.08 11.74-4.08zm37.86 16.6l-3.06 13.51h-6.91l.5-2.2 1.85-8.14c.43-1.91.69-3.24.77-3.96.08-.73.06-1.26-.06-1.6a2 2 0 0 0-.87-1.08c-.4-.26-.88-.4-1.46-.4-1.44 0-2.7.58-3.78 1.73a10 10 0 0 0-2.3 4.73l-2.47 10.92h-6.87l5.04-22.19h6.87l-.74 3.25a14.71 14.71 0 0 1 3.95-2.85 9.37 9.37 0 0 1 4.07-.93c2.47 0 4.17.78 5.1 2.36.93 1.57 1.06 3.85.38 6.85zm22.28-11.07a7.8 7.8 0 0 0-5.83 2.57c-1.62 1.72-2.79 4.14-3.5 7.25-.7 3.1-.63 5.52.22 7.23.86 1.72 2.4 2.58 4.66 2.58 2.26 0 4.2-.86 5.83-2.58 1.64-1.71 2.8-4.12 3.51-7.23.71-3.11.63-5.53-.23-7.25-.84-1.71-2.4-2.57-4.66-2.57zm1.26-5.53c4.6 0 7.9 1.36 9.88 4.08 2 2.72 2.45 6.48 1.36 11.28-1.08 4.78-3.24 8.53-6.47 11.25-3.22 2.72-7.13 4.08-11.74 4.08-4.59 0-7.88-1.36-9.88-4.08-2-2.72-2.46-6.47-1.37-11.26 1.09-4.79 3.25-8.55 6.48-11.27 3.24-2.72 7.15-4.08 11.74-4.08zm17.17 7.93h18.77l-1.13 4.95-14.08 12.16h11.32l-1.15 5.07h-19.23l1.12-4.95L362.68 56h-10.85l1.15-5.07zM392.24 51.31l8-8.98c3.1-1.06 8.06-.42 8.48 3.58.22 2.1-.89 4.02-1.75 5.84-.85 1.78-1.71 3.56-2.59 5.33-1.92 3.87-3.75 7.79-5.7 11.63 3.94-3.94 16.7-18.88 16.7-18.88.75-.9 1.24-1.64 2.51-1.62.85.02 2.36.44 2.66 1.35.25.78-.56 2.08-.86 2.77-.54 1.28-1.15 2.54-1.74 3.8-1.14 2.44-2.33 4.85-3.38 7.34-.48 1.14-.95 2.3-1.34 3.48-.27.82-.92 2.34-.47 3.19l9.22-4.73 9.12-20.88c.68-.64 2.23-1.34 3.18-1.21.97.14.67 1.08.6 1.88-.14 1.3-.45 2.57-.83 3.81a49.66 49.66 0 0 1-3.02 7.48c-2.4 4.89-5.32 9.77-8.98 13.83-1.82 2.01-4.01 3.76-6.72 4.36-2.22.5-5.01.27-6.3-1.87l3.06-13.13c-3.79 4.32-7.3 9.13-11.62 12.94-1.6 1.4-5.13 3.5-6.9 1.2l10.36-26.86c-.33-1.38-2.05-1.06-2.99-.58-2.29 1.16-3.54 4.18-4.5 6.43-.5 1.16-.74 2.68-1.38 3.74a6.05 6.05 0 0 1-3.69 2.35c-2.97.32.28-6.4.87-7.59zm37.28 23.75c0 .12-1.66-.39-1.87-.57-.66-.58-.83-1.54-.8-2.37.06-1.84 1.67-3.93 3.66-3.77 1.62.12 2.63 1.81 2.45 3.33-.25 2-1.8 2.84-3.44 3.38zm16.25-29.11l3.8-2.95c3.27-1.31 12.41-2.58 10.86 3.54-.73 2.88-3.07 4.79-4.7 7.13-.44.63-1.26 2.56-2.07 2.72-.8.15-2.26-1.4-2.7-1.9l4.37-8.37c-.84-.52-2.7.1-3.5.42a12.7 12.7 0 0 0-5.87 5.51c-1.38 2.75-1.3 5.32.5 7.82.57.79 1.24 1.24.6 2.19-.81 1.2-2.73 1.97-3.92 2.74-1.48.96-5.26 3.7-2.73 5.6 2 1.52 12.73-6.2 13.88-6.42a8.97 8.97 0 0 1 3.35.02c1.24.4.01 1.94-.4 2.65-1.4 2.32-3.6 4.2-5.85 5.66a17.81 17.81 0 0 1-9.01 2.75c-2.6.1-5.93-.6-6.99-3.33l10.38-25.78zm18.35 29.11c0 .12-1.67-.39-1.88-.57-.66-.58-.83-1.54-.8-2.37.06-1.84 1.67-3.93 3.66-3.77 1.62.12 2.63 1.81 2.45 3.33-.25 2-1.8 2.84-3.43 3.38zm25.97-33.29c2.07-.79 4.5.65 3.57 3.06a4.47 4.47 0 0 1-1.66 2c-.8.55-1 1.56-1.37 2.45-1.04 2.5-2.08 5-3.14 7.48-2.17 5.1-4.34 10.22-6.78 15.2-.69 1.4-1.36 3.66-3.11 3.87-.91.1-1.87 0-2.78-.04-.9-.04-2.13.1-1.43-1.04 2.79-4.45 11.73-26.39 12.07-26.34.88.12-2.3.31-3.14.47-1.3.23-2.6.5-3.9.78-2.48.54-5.13 1.08-7.46 2.1-1.03.44-1.04.68-.13 1.26 1.15.74 2.35 1.42 3.5 2.15.75.47.85.57.36 1.36A6.21 6.21 0 0 1 473.3 58c-1.2.96-1.9.55-3.16-.16-2.06-1.17-5.43-3.39-5.4-6.09l25.35-9.97z"/><linearGradient id="c" gradientUnits="userSpaceOnUse" x1="439.97" y1="40.66" x2="439.97" y2="74.98"><stop offset="0" stop-color="#0ff"/><stop offset=".15" stop-color="#39c6ff"/><stop offset=".36" stop-color="#7f80ff"/><stop offset=".54" stop-color="#b649ff"/><stop offset=".7" stop-color="#de21ff"/><stop offset=".82" stop-color="#f609ff"/><stop offset=".9" stop-color="#f0f"/></linearGradient><path fill="url(#c)" d="M390.21 50.42c1.73-3.46 4.13-7.66 8-8.98 3.1-1.06 8.05-.42 8.47 3.58.22 2.1-.88 4.02-1.74 5.83-.85 1.79-1.71 3.57-2.6 5.34-1.91 3.87-3.74 7.79-5.69 11.63 3.94-3.94 7.61-8.15 11.22-12.4 1.83-2.15 3.65-4.3 5.47-6.48.75-.9 1.24-1.64 2.52-1.62.84.02 2.36.44 2.65 1.35.25.78-.56 2.08-.85 2.77-.54 1.28-1.16 2.54-1.74 3.8-1.14 2.44-2.33 4.85-3.38 7.34-.49 1.14-.96 2.3-1.34 3.48-.27.82-.93 2.34-.47 3.19 1.14 2.13 4.55-1.1 5.42-1.96 3.92-3.85 6.74-8.92 9.02-13.88a68.4 68.4 0 0 0 2.79-7.13c.29-.87.41-2 1.1-2.64.69-.64 2.23-1.34 3.18-1.2.97.13.68 1.07.6 1.88-.13 1.29-.45 2.56-.82 3.8A49.66 49.66 0 0 1 429 55.6c-2.4 4.89-5.33 9.77-8.99 13.83-1.82 2.01-4 3.76-6.72 4.36-2.22.5-5 .27-6.3-1.87-1.16-1.9-.92-3.96-.2-5.95.9-2.46 2.11-4.83 3.26-7.17-3.78 4.31-7.3 9.12-11.61 12.93-1.6 1.4-5.14 3.5-6.91 1.2-1.51-1.97.46-5.07 1.31-6.94 2.56-5.64 5.65-11.03 8.08-16.73.38-.9 1.2-2.17.97-3.19-.32-1.38-2.04-1.06-2.98-.58-2.3 1.16-3.55 4.18-4.5 6.43-.5 1.16-.75 2.68-1.39 3.74a6.05 6.05 0 0 1-3.68 2.35c-2.97.32.28-6.4.87-7.59zm37.28 23.75c0 .12-1.67-.38-1.88-.57-.65-.57-.83-1.54-.8-2.37.06-1.83 1.67-3.92 3.66-3.77 1.62.13 2.64 1.81 2.45 3.33-.25 2-1.8 2.84-3.43 3.38zm11.2-17.23c-.94-3.15.31-6.2 1.92-8.88a13.6 13.6 0 0 1 6.93-5.95c3.26-1.31 12.4-2.58 10.86 3.54-.73 2.88-3.08 4.79-4.7 7.13-.44.63-1.26 2.56-2.07 2.72-.81.15-2.27-1.4-2.7-1.9-.95-1.13.17-2.23.94-3.13.84-.99 1.72-1.9 2.57-2.9.5-.57 1.86-1.73.86-2.34-.84-.52-2.71.1-3.5.42a12.7 12.7 0 0 0-5.88 5.51c-1.38 2.75-1.29 5.32.51 7.82.57.78 1.23 1.24.6 2.18-.81 1.21-2.73 1.98-3.92 2.75-1.48.96-5.27 3.7-2.74 5.6 2.01 1.52 5.61.07 7.5-.95a16.5 16.5 0 0 0 3.55-2.6c.85-.81 1.69-2.65 2.84-2.87a8.97 8.97 0 0 1 3.35.02c1.23.4.01 1.94-.4 2.65-1.4 2.32-3.6 4.2-5.85 5.66a17.81 17.81 0 0 1-9.02 2.75c-2.6.1-5.92-.6-6.98-3.33-1.05-2.7.1-5.9 1.96-7.9 1.12-1.2 2.5-1.92 3.83-2.84.42-.3.7-.48.63-.97-.1-.68-.87-1.48-1.08-2.2zm23.4 17.23c0 .12-1.67-.38-1.88-.57-.66-.57-.84-1.54-.8-2.37.05-1.83 1.66-3.92 3.66-3.77 1.62.13 2.63 1.82 2.45 3.33-.25 2-1.8 2.84-3.44 3.38zm4.78-27.01c5.2-1.78 10.63-2.66 16.02-3.58.88-.16 2.34-.18 2.97-.74.8-.7 1.1-1.54 2.2-1.96 2.06-.79 4.5.65 3.57 3.05a4.47 4.47 0 0 1-1.67 2c-.78.56-1 1.57-1.37 2.45-1.04 2.5-2.07 5-3.13 7.5-2.17 5.1-4.34 10.21-6.78 15.2-.69 1.4-1.36 3.65-3.11 3.86-.91.1-1.87 0-2.78-.04-.9-.04-2.14.1-1.43-1.04a137.38 137.38 0 0 0 10.79-21.15c.45-1.13.88-2.27 1.24-3.44.11-.37.3-.8.32-1.2.05-.65.25-.42-.28-.55-.87-.22-2.3.31-3.14.46-1.3.24-2.6.51-3.9.8-2.48.53-5.13 1.06-7.46 2.08-1.03.45-1.05.69-.14 1.27 1.16.74 2.36 1.42 3.52 2.15.74.47.84.57.34 1.36a6.21 6.21 0 0 1-1.38 1.46c-1.2.96-1.91.55-3.16-.16-2.07-1.17-5.43-3.39-5.4-6.09.03-2.1 2.48-3.12 4.16-3.7z"/></svg>