<svg xmlns="http://www.w3.org/2000/svg" viewBox="0 0 254.979 24.717"><linearGradient id="a" gradientUnits="userSpaceOnUse" x1="127.4894" y1="24.7173" x2="127.4894"><stop offset="0" stop-color="#f0f"/><stop offset="1" stop-color="#0ff"/></linearGradient><path fill="url(#a)" d="M28.534 11.576c-1.292 2.585-2.824 5.079-4.559 7.39-1.638 2.181-3.611 4.399-6.413 4.95-2.339.46-4.657-.598-4.827-3.188-.073-1.119.558-2.135.792-3.198-.029.132-.122.29-.173.415.63-1.56 1.373-3.076 2.112-4.587-2.11 2.411-4.138 4.892-6.317 7.242-.939 1.013-1.951 2.199-3.204 2.825-1.051.524-2.689.93-3.507-.192-.873-1.196.067-2.799.563-3.951.692-1.609 1.483-3.173 2.264-4.74 1.46-2.93 3.042-5.833 4.221-8.892.198-.513.484-1.243-.009-1.697-.445-.409-1.215-.216-1.7 0-1.447.645-2.222 2.337-2.886 3.683-.336.68-.634 1.379-.897 2.09-.195.53-.285 1.159-.622 1.618-.481.654-2.837 2.306-3.315 1.012-.205-.555.19-1.451.349-1.989.246-.827.551-1.638.914-2.422.629-1.357 1.384-2.708 2.3-3.894C5.413 1.73 8.197-.054 11.182 1.256c3.832 1.681.844 6.245-.343 8.686-1.581 3.254-3.167 6.513-4.777 9.751 2.318-2.318 4.487-4.798 6.645-7.265 1.106-1.264 2.2-2.539 3.281-3.825.499-.594.995-1.189 1.489-1.787.461-.558.877-1.328 1.632-1.482 1.016-.207 2.524.383 2.206 1.559-.369 1.366-1.13 2.679-1.725 3.956-1.232 2.647-2.627 5.269-3.468 8.077-.138.459-.418 1.217-.21 1.679.267.593.975.559 1.522.398 1.168-.343 2.156-1.48 2.954-2.346 2.12-2.305 3.742-5.102 5.125-7.897.702-1.42 1.323-2.874 1.875-4.358.232-.624.458-1.251.666-1.884.185-.564.273-1.305.698-1.743.382-.393 2.217-1.377 2.708-.768.168.208.046.735.018.961-.163 1.308-.56 2.605-.93 3.866-.071.243-.894 2.234-.757 2.399-.191-.23.808-2.482.889-2.725-.584 1.742-1.317 3.431-2.146 5.068zM78.38 3.177c.19 3.7-1.192 7.435-2.877 10.672-.85 1.632-1.839 3.19-2.953 4.655-.45.591-1.103 1.169-1.459 1.813-.513.928.374 1.377 1.201 1.039 1.469-.6 2.626-2.007 3.972-2.829.455-.278.495-.286.659.265.082.275.16.679.147.97-.032.719-.495 1.227-1.015 1.68-1.249 1.088-2.875 1.946-4.44 2.474-.648.218-1.374.387-2.048.171-.762-.244-.99-.853-1.399-1.457-1.205.964-2.903 1.682-4.474 1.388-1.624-.304-2.249-1.547-2.442-3.054-.85.882-1.915 1.58-3.017 2.108-.892.427-2.076 1.044-3.094.974-2.663-.185-.734-3.089-.734-4.418-1.863 1.45-3.565 3.104-5.837 3.958-.972.365-2.164.778-3.139.202-1.282-.759-.622-2.141-.175-3.206.541-1.291 1.182-2.534 1.788-3.794.318-.66 1.637-2.675-.162-2.063-.637.217-.938.97-1.365 1.456-.849.965-1.74 1.894-2.667 2.784-.771.741-1.565 1.57-2.471 2.145-.371.235-.777.416-1.204.522-.267.066-.545.113-.821.113-.196 0-.84-.265-.942-.234-.264.079-.883.952-1.13 1.155-.479.393-1.011.724-1.583.963-1.216.509-2.64.653-3.92.324-2.56-.657-2.958-3.67-2.6-5.929.341-2.146 1.494-4.212 3.306-5.45 1.638-1.119 4.703-2.088 6.428-.665.988.815 1.572 2.281 1.265 3.541-.053.218-.12.443-.237.637-.317.524-.309.376-.193.984.132.689-.115 1.323-.412 1.931 1.335.675 2.877-1.423 3.579-2.211.617-.692 1.179-1.431 1.712-2.189.179-.255.507-.599.607-.894.147-.43.178-.072.029-.518-.204-.608-.458-.94-.271-1.645.233-.877.825-1.479 1.752-1.454 1.199.032 1.524.702 1.733 1.716.203.985.63.585 1.436.495.975-.109 1.955.196 2.308 1.196.327.925-.216 1.866-.606 2.686-.477 1.002-.997 1.977-1.49 2.969-.19.381-1.188 1.751-.212 1.779.318.009.851-.448 1.095-.592.462-.273.908-.564 1.343-.876.618-.443 1.107-1.013 1.681-1.489.797-.663 1.579-1.405 2.27-2.177.492-.551.953-1.012 1.203-1.712.395-1.105.789-2.21 1.18-3.317.832-2.357 1.659-4.705 2.526-7.052.372-1.006.704-2.83 1.635-3.469.506-.347 1.196-.242 1.473-.022.635.512.34 1.775.226 2.468-.174 1.056-.436 2.111-.763 3.13-.558 1.738-1.333 3.365-2.115 5.01-.813 1.71-1.589 3.453-2.238 5.232-.385 1.053-.725 2.122-1.023 3.203-.232.842-.491 2.032.683 1.298.813-.508 1.56-1.122 2.321-1.701.459-.349.695-.463.852-.984.158-.525.225-1.018.472-1.519.828-1.678 2.322-3.159 4.106-3.781 1.007-.351 2.111-.431 3.17-.344.139.011.408.084.528.059.457-.095.106.087.326-.255.258-.401.321-1.101.472-1.556.686-2.066 1.541-4.063 2.599-5.968.781-1.406 1.906-3.509 3.491-4.178 1.713-.727 1.928 1.715 1.954 2.837zM36.289 15.602c-.053-.951-.89-1.521-1.805-1.349-.914.172-1.794 1.065-2.301 1.793-.747 1.073-1.646 3.649-.592 4.824.446.497 1.286.56 1.899.416.442-.103.827-.344 1.145-.669.38-.388.344-.511.169-.99-.303-.828-.317-1.668.165-2.442.299-.478 1.32-1.037 1.32-1.583zm32.802-.957c.143-.584-2.002.139-2.215.242-.746.362-1.445.913-1.943 1.58-.761 1.02-1.583 3.793-.287 4.76.947.706 3.053-.65 3.463-1.549.166-.363.094-.783.122-1.169.037-.508.139-1.004.252-1.499.183-.794.407-1.575.608-2.365zm7.293-11.55c-.033-.033-.066-.066-.1-.099-1.191 2.041-2.198 4.189-3.004 6.41-.401 1.105-.761 2.227-1.084 3.357-.198.694-.925 2.378-.664 3.036 1.384-1.786 2.32-3.927 3.107-6.029.803-2.143 1.485-4.395 1.745-6.675zm25.376.066c0-2.893-4.527-2.426-6.384-1.962-2.783.695-4.858 2.301-6.301 4.746-.726 1.231-1.391 2.551-1.491 3.999-.04.587.002 1.183.131 1.757.075.337.176.656.319.971.097.214.569.775.56.982-.03.685-1.544 1.255-2.083 1.658-1.081.809-2.114 1.931-2.488 3.259-.723 2.569.423 5.04 3.2 5.494 2.438.398 5.234-.243 7.371-1.431 2.106-1.171 4.464-3.11 5.34-5.445.4-1.066-.78-.827-1.524-.831-.35-.002-.75-.136-1.097-.048-.606.153-.883.87-1.273 1.325-1.666 1.944-5.398 4.614-8.139 3.428-1.171-.507-.993-1.881-.249-2.687 1.085-1.175 2.66-1.897 3.962-2.792-.075.052-.318.153-.356.227.22-.433.859-.634 1.076-1.098.32-.685-.801-1.602-1.112-2.204-1.476-2.85.753-5.667 2.855-7.42.934-.778 2.53-1.69 3.811-1.28 1.217.389-.984 2.315-1.407 2.783-.529.584-2.061 1.828-1.765 2.744.186.576 1.674 1.921 2.293 1.645.51-.228.918-1.256 1.223-1.702.442-.647.938-1.23 1.446-1.825 1.013-1.186 2.082-2.66 2.082-4.293zm85.865 15.378c.407 1.484-.231 2.418-1.358 3.269-1.193.9-2.614 1.62-4.06 2.006-1.458.39-3.102.446-4.525-.119-1.354-.538-1.7-1.533-1.848-2.899-.581.808-1.81 1.463-2.645 1.974-1.057.646-2.297 1.07-3.522 1.235-1.213.164-2.753.156-3.871-.4-1.115-.555-1.47-1.608-1.61-2.758-.441.6-1.186 1.029-1.805 1.421-.77.488-1.583 1.047-2.422 1.403-.696.296-1.62.526-2.371.304-.708-.209-.718-.869-.718-1.542-2.252 2.228-6.451 2.363-6.95-1.457-1.145.939-2.388 1.7-3.724 2.334-1.056.501-2.347 1.102-3.497.494-1.252-.662-.318-2.234.054-3.186.144-.367.508-.941.521-1.322.018-.524-.355.016-.615.257-1.768 1.635-3.905 3.298-6.149 4.231-.89.37-2.627.547-2.805-.719-.068-.488.163-1.122.314-1.575.095-.285.672-1.21.544-1.468-1.478 1.382-3.045 2.566-4.893 3.42-.759.351-1.606.73-2.457.737-1.211.011-1.561-.673-2.154-1.55-1.18.943-2.806 1.639-4.348 1.411-1.646-.243-2.347-1.463-2.554-2.986-.899.917-2.354 1.628-3.49 2.195-1.054.527-3.268 1.399-4.238.304-.832-.94.458-3.065.868-3.96.291-.635.614-1.253.92-1.88.177-.362.616-.95.152-1.007-.479-.059-1.832 1.394-2.208 1.71-1.256 1.057-2.496 2.134-3.773 3.164-.608.491-1.211.99-1.816 1.486-.52.426-1.107 1.097-1.86 1.008-1.791-.212-.265-3.227.104-4.018-.204.106-1.158 1.213-1.419 1.112-.44-.171-.146-2.331.02-2.624.357-.628 1.198-1.068 1.729-1.557.728-.671 1.4-1.412 2.018-2.186.418-.523.754-1.022 1.001-1.642.188-.473.248-.742.731-.825.823-.141 1.78 0 2.618 0-.636 1.279-1.208 2.595-1.811 3.89-.142.305-.741 1.021-.193 1.004.419-.013 1.198-.89 1.531-1.149 1.272-.989 2.577-1.942 3.906-2.854.893-.613 2.883-1.855 3.865-.701.755.887-.476 2.852-.903 3.682-.658 1.283-1.607 2.635-1.965 4.042-.36 1.415 1.589-.045 2.071-.39.585-.419 1.486-.872 1.925-1.436.385-.494.371-1.439.683-2.062.716-1.431 1.875-2.681 3.296-3.428.818-.43 1.712-.639 2.63-.706.45-.033.9-.028 1.35.009.139.012.408.084.528.059.344-.071.124.058.326-.255.394-.61.508-1.684.755-2.378.299-.841.614-1.675.985-2.488.76-1.667 1.607-3.305 2.691-4.788.601-.822 2.603-3.497 3.572-1.874.779 1.304.612 3.44.452 4.875-.201 1.796-.726 3.595-1.369 5.279-1.234 3.233-3.055 6.262-5.262 8.924-.392.473-1.267 1.329-.407 1.784.669.354 1.321-.203 1.837-.559 1.203-.828 2.424-1.67 3.532-2.621 1.211-1.04 2.34-2.069 3.382-3.285.506-.591.822-1.191 1.134-1.891.343-.769.828-.717 1.637-.689.476.016 1.463-.138 1.519.435.042.432-.529 1.14-.706 1.501-.796 1.626-1.52 3.285-2.308 4.915-.271.561-.819 1.383.131.901.732-.371 1.422-.97 2.053-1.488 1.445-1.185 2.761-2.53 4.081-3.85.771-.771 1.732-2.243 2.878-2.366.388-.042 1.95-.133 2.165.286.151.293-.478 1.164-.605 1.429-.393.824-.778 1.651-1.172 2.475-.249.521-2.224 3.857-1.815 4.233.551.508 2.811-1.455 3.15-1.728.35-.282.704-.531.893-.911.173-.349.238-.778.396-1.139.28-.636.598-1.21 1.09-1.709 2.223-2.256 5.611-3.481 8.744-3.291.471.029 1.535-.119 1.85.268.278.342.202 1.338.213 1.761.027.997-.333.666-1.063.421-.722-.243-1.461-.31-2.219-.224-3.051.349-6.522 2.745-5.94 6.18.309 1.825 2.318.358 3.073-.334.578-.529 1.077-1.145 1.52-1.79.454-.66.782-1.496 1.291-2.108.389-.468.036-.206.615-.15.227.022.439.102.661.131.573.073 1.126-.048 1.698-.048-.6 1.354-1.375 2.669-1.893 4.055-.091.243-.325.717-.054.862.363.194 1.387-.688 1.65-.869.668-.461 1.328-.953 1.943-1.482.147-.126.286-.262.433-.388.03-.026.311-.118.293-.092.084-.118.075-.486.103-.634.292-1.55 1.183-2.694 2.401-3.655 1.251-.986 2.628-1.58 4.199-1.84 1.28-.212 3.272-.301 4.158.908.349.477.176 1.174.065 1.702-.102.488-.362 1.79-.82 2.089-.446.291-1.407.105-1.95.103-.159 0-.65.067-.777-.018-.35-.233.181-.682.323-1.038.142-.358.281-1.02.1-1.386-.341-.694-1.262-.307-1.791-.066-1.393.634-2.437 1.927-2.854 3.397-.339 1.196-.366 3.543 1.237 3.813 1.244.21 2.61-.372 3.667-.969.635-.359 1.248-.776 1.831-1.212.578-.432 1.426-.882 1.647-1.53.51-1.496 1.029-2.678 2.288-3.717 1.193-.985 2.663-1.709 4.163-2.075 1.437-.351 3.551-.261 4.201 1.316.571 1.385.113 2.868-.917 3.897-1.192 1.191-2.785 2.097-4.416 2.535-.595.16-1.353.054-1.906.312-.814.378.108 1.002.596 1.229-.028-.013-.216-.08-.252-.127.133.171.959.308 1.174.334.541.065 1.07-.102 1.584-.284.977-.346 1.92-.804 2.806-1.342.503-.305.996-.642 1.455-1.01.287-.228.869-1.086 1.053-.407zm-59.267-2.805c.541.316 2.936-5.33 3.174-5.964.467-1.246.871-2.518 1.197-3.808.168-.666.806-2.378.447-2.966-2.346 3.835-3.942 8.34-4.818 12.738zm-2.376-1.089c.143-.584-2.002.139-2.214.242-.746.362-1.445.912-1.943 1.58-.773 1.037-1.584 3.811-.251 4.758.956.679 3.014-.64 3.427-1.547.335-.735.189-1.856.374-2.668.182-.794.405-1.575.607-2.365zm52.734 3.399c1.244-.178 2.49-.564 3.567-1.225.67-.411 2.092-1.591.987-2.346-.831-.568-2.02.263-2.642.801-.882.76-1.552 1.665-1.912 2.77zM216.138 4.58c.133-.205.44-.273.624-.422.339-.276.625-.673.811-1.063.294-.615.233-1.191-.125-1.776-.868-1.42-2.851-.531-3.616.522-.211.29-.251.381-.565.515-.38.162-.946.181-1.353.253-1.014.179-2.032.333-3.046.515-2.023.363-4.05.758-6.036 1.292-2.379.64-7.535 2.106-4.58 5.344.621.68 1.338 1.267 2.096 1.787.593.406 1.609 1.215 2.339 1.035.618-.153 1.392-.97 1.694-1.511.275-.492.217-.497-.164-.807-.418-.34-.948-.605-1.407-.884-.354-.215-1.872-.758-1.673-1.278.197-.515 2.057-.819 2.543-.96 2.067-.599 4.185-1.045 6.303-1.425-.773.138-1.546.278-2.32.405-.148.024-.508.012-.636.094.374-.239 1.153-.229 1.581-.305.859-.152 1.72-.302 2.586-.407.964-.118 1.072-.221.77.852-.612 2.175-1.575 4.27-2.511 6.32-1.017 2.227-2.087 4.433-3.248 6.589-.526.976-1.063 1.948-1.633 2.9-.215.359-1.484 1.829-1.369 2.213.138.461 1.797.311 2.203.325.888.029 1.612.042 2.11-.762 1.074-1.733 1.861-3.664 2.698-5.518 2.063-4.575 3.984-9.213 5.924-13.843zm38.841 15.048c0 1.238-.823 1.646-1.749 2.31-.938.673-1.914 1.243-3 1.645-.845.313-1.801.673-2.697.379-1.223-.4-1.318-1.419-.941-2.488.35-.992.814-1.957 1.271-2.903.49-1.014 1.399-2.252 1.623-3.351.154-.759-.751-.727-1.279-.332-.456.341-.779 1.051-1.168 1.484-2.584 2.881-5.408 5.515-8.966 7.106-.852.381-1.686.71-2.635.493-1.35-.308-1.24-1.331-.823-2.394.236-.6.87-1.633.894-2.28.012-.331.041-.223-.342.001-.489.286-.906.835-1.345 1.203-.916.768-1.884 1.436-2.906 2.054-.802.485-1.666 1.113-2.576 1.376-1.053.304-2.495.133-2.387-1.217.037-.463.2-.96.356-1.392.124-.343.57-.999.487-1.299-.795.744-1.53 1.435-2.633 1.645-.284.054-.614.092-.904.058-.131-.015-.299-.071-.428-.071-.474.001.115-.267-.449.085-.489.305-.865.904-1.36 1.247-1.886 1.304-6.027 1.998-7.169-.631-1.146-2.637-.651-5.898 1.121-8.146 1.611-2.044 4.451-3.612 7.123-2.813 1.331.398 2.236 1.81 2.316 3.161.027.459-.038.97-.242 1.383-.063.128-.19.256-.239.385-.12.315-.109.139-.087.508.05.843.038 1.379-.346 2.165.791.396 1.734-.32 2.277-.806 1.19-1.066 2.337-2.066 3.382-3.285.469-.547.83-1.119 1.097-1.786.32-.8.666-.811 1.517-.798.301.004 1.46-.084 1.651.209.223.341-.47 1.305-.607 1.582-.77 1.557-1.462 3.151-2.214 4.716-.172.359-1.076 1.589-.272 1.374.689-.184 1.456-.949 2.001-1.38 1.463-1.159 2.786-2.499 4.104-3.818.77-.77 1.88-2.439 3.013-2.627.428-.071 1.867-.142 2.182.204.402.442-1.057 2.705-1.333 3.288-.379.801-.749 1.606-1.144 2.398-.266.533-1.017 1.569-1.034 2.164-.03 1.074 2.276-.671 2.643-.946 1.224-.917 2.329-2.053 3.309-3.236.516-.623.995-1.276 1.453-1.943.216-.315.568-.715.524-1.022-.047-.329-.394-.645-.425-1.052-.118-1.571 1.394-2.72 2.817-1.875.656.39.596.89.751 1.551.167.713.371.581.972.454 1.758-.371 3.366.716 2.673 2.624-.593 1.632-1.521 3.164-2.292 4.715-.24.483-.722 1.43.269 1.133.775-.232 1.585-.907 2.234-1.377.233-.168 1.187-1.3 1.439-1.287.51.029.493 1.145.493 1.455zm-33.529-4.026c-.054-.951-.89-1.521-1.806-1.349-.914.172-1.794 1.065-2.301 1.793-.747 1.073-1.647 3.649-.592 4.824.446.497 1.286.56 1.899.416.442-.103.827-.344 1.145-.669.38-.388.344-.511.169-.99-.303-.829-.317-1.668.165-2.442.299-.478 1.321-1.037 1.321-1.583z"/></svg>