<svg xmlns="http://www.w3.org/2000/svg" viewBox="0 0 561.57 256.17"><path fill="#034693" d="M123.15 0l-53.6 32.95 2.83 8.73-15.34 9.04-5.9-18.63L0 65.38l25.41 104.81 43.88-15.97c1.44 3.55 7.84 20.8 7.84 20.8l30-14.83.14 6.48c-22.45 43.55-12.22 88.62-12.22 88.62l50.74-15.95-.46-5.97 5.54-1.96-.2 16.3 25.52-9.98-5.98 16.08 59.8-13.88 9.8-31.15c2.5 15.44.99 47.39.99 47.39L299 244.7s0-10.35-.02-11.56c4.54 2.97 17.17 13.37 21.54 13.25l-.15 2.05 11.53-.8 7.44-.53.19-.01.18-.02 18.18-1.9 6.33-.66 10.12-1.05-.16-6.1c9.36-.67 19.94-2.2 29.92-4.83l-1.72 8.43 87.28 3.9 33.02-49.04-19.16-.92-3.25-41.58-10.2-2.92c4.8-5.17 12.45-11.1 19.94-16.92 7.81-6.06 16.54-12.84 25.05-20.75a28.7 28.7 0 0 0 18.62-8.2c5.18-5.18 7.9-12.13 7.89-20.1-.02-7.77-3.35-15.03-9.37-20.43a33.43 33.43 0 0 0-21.24-8.31c-5 0-10.35 1.78-14.93 4.83-3.96-10.76-14.03-18.63-25.16-18.8l-.39-.01c-6.37 0-15.97 2.55-22.06 9.73-.1.1-.3-.34-.3-.34 7.73-8.26 10.32-18.49 6.9-28.2-4-11.4-15.33-19.35-27.53-19.36h-.01c-11 0-20.51 4.96-25.46 13.28a24.24 24.24 0 0 0-3.12 8.7c-6.26-5.83-14.76-8.75-20.23-8.97l-1.01-.02a32 32 0 0 0-17.28 5.48c-4.02-3.58-10-6.83-18.6-7.3-.56-.04-1.11-.06-1.66-.06-17.04 0-27.52 14.17-27.8 27.87-.06 2.77.33 5.67 1.16 8.48-19.65-6.7-42-10.62-42-10.62l-16.54 5.86c-1-10.53-.2-19.07-.2-19.07l-52.05 11.34s-1.75 9.45-11 32.78c-12.87-17.96-58.75-28.92-75.61-29.73C131.32 17.38 123.15 0 123.15 0z"/><path fill="#008FD5" d="M532 60.73c-.33-.02-.68-.03-1.04-.03-5.52 0-11.88 2.88-16.2 7.36-.72.74-1.37 1.52-1.97 2.33.01-.97-.05-1.93-.17-2.87a24.73 24.73 0 0 0-6.96-14.13c-4.14-4.21-9.43-6.58-14.87-6.67h-.3c-5.3 0-13.27 2.08-18.26 7.96a19.06 19.06 0 0 0-4.44 12.93l-4.09 2.97-.64-21.46c7.61-7.2 10.25-16 7.24-24.56-3.26-9.27-12.86-16-22.82-16.01-9.22 0-17.12 4.05-21.16 10.83-3.44 5.79-3.66 12.72-.7 19.78a893 893 0 0 0-4.24 8.87 18.34 18.34 0 0 0-1.5-13.17c-4.52-8.67-15.45-13.07-21.4-13.3a20.1 20.1 0 0 0-.82-.02c-5.8 0-13.1 2.49-17.7 7.28-3.63-4.64-9.53-8.63-18.46-9.12a25.5 25.5 0 0 0-1.38-.04c-13.98 0-22.57 11.68-22.8 22.98-.1 5 1.54 10.5 4.81 14.6l-2.72 1.22c-21.74-8.4-47.5-12.92-47.5-12.92l-21.13 7.48c-1.71-11.55-1.07-19.63-1.07-19.63l-42.94 9.36s-3.96 15.47-14.05 38.5a27.43 27.43 0 0 0-4.5-6.35c-15.6-16.77-56.44-26.8-76.58-28.81-2.82-21-11.03-38.66-11.03-38.66L75.5 35.15l2.86 8.81-24.2 14.25-5.82-18.34L5.67 67.65l23.28 95.93 39.41-14.34 1.27-7.3c2.64 6.33 10.29 26.12 10.29 26.12l32.03-15.83.27 12.18 1.75-.21c-20.4 34.02-14.34 84.41-14.34 84.41l7.3-2.3 33.57-10.55s-.36-5.33-.35-5.87l15.81-5.58-.2 16.04 29-11.35-6.62 17.83 47.95-11.13 15.57-49.47c6.28 29.36 4.3 63.82 4.3 63.82L294 240.6s-.07-11.56-.16-16.35c6.64 3.45 27.48 20.23 31.39 17.34l.03 1.5 43.96-4.11-.16-6.3c12.55-.54 28.26-2.7 41.6-7.34-.28 1.44-2.21 10.9-2.21 10.9l78.63 3.52 26.5-39.35-20.28-.97.96-2.93 4.34-.31-2.72-34.86-.32-4.15-13.78-3.95c3.82-7.12 13.87-14.92 25.17-23.7 8.14-6.32 26.3-21.75 26.4-21.75 6.38 0 12.5-2.46 16.8-6.77 4.21-4.22 6.43-9.95 6.42-16.56-.03-12.5-10.6-22.7-24.56-23.72zm-353.2 89.3l-16.65.97v-16.07c8.25 3.25 15.57 8.04 20.82 12.01l-4.16 3.1zm52.32-7.33l7-12.11 8.02-.38 5.02 9.37-20.04 3.12zm133.53-14.83c-.88-.05-4.6-.07-4.6-.07l-25.29 19.28-9.6 1.96s.02-16.33 0-19.64c13.42-.63 22.8-2 31.19-5.92 2.78-1.3 5.3-2.77 7.52-4.4.67 4.32.83 7.06.78 8.79z"/><path fill="#FFF" d="M531.57 66.72c-5.63-.42-17.46 5.12-17.03 17.53l-25.72 8.7 5.37-8.48c21.92-6 11.63-31.5-3.5-31.75-5.43-.1-19 3.37-16.62 17.75L458.04 82.1 457 46.47c17.75-14.25 4.34-31.92-9.5-31.92-13.34 0-22.84 10.58-15.18 24.68-1.76 3.23-12.27 25.88-13.99 29.24-3.01-8.26-5.58-15.59-5.58-15.59 10.75-16.83-8.25-25.08-14.5-25.33-5.64-.23-12.89 2.92-15.55 7.53-3.86 6.69-1.81 15.06 4.55 20.18 0 2.79.86 5.4.83 10.54a1440.79 1440.79 0 0 1-11.33-13.08c2.5-4.09 2.08-6.69 2.08-11.38 0-3.25-3.58-14.87-17.65-15.65-11.34-.62-17.68 8.94-17.85 17.07-.1 5.38 2.92 13.46 9.89 14.71l4.13 16.34c-23.77-14.99-64.9-22.1-64.9-22.1l-26.12 9.26s-2.65-9.72-2.62-20.13l-32.02 6.98c-4.3 16.96-15.47 42.37-28.14 64.19l-7.6-4.13c8-4.52 12.43-9 12.88-17.29 1.25-23-62.75-38.5-83-38.87.88-11.25-8.25-35.38-8.25-35.38L82.68 37.8l1.24 3.8a73.42 73.42 0 0 1 1.87 7.58c1.28 6.59 2.4 18.83 2.4 27.17L77.46 51.47 51.67 66.65l-.35 2.44-6.3-19.9-32.55 21.2.8 3.41 19.92 81.86 29.88-10.88c.2-1.07 3.62-21.72 4.31-24.75 2.45 5.37 3.53 9.12 5.32 13.64l.02.03v.03c2.05 4.99 8.03 19.14 10.54 25.99l32.37-16c1.28-4.73.72-9.58 1.81-14.36l.63 28.3 6.69-.82c-24.52 41.88-20.1 76.5-19.63 83.75l29.02-9.12c-.13-1.75.75-20.96 2.12-26.7l4.05 18.7 21.75-7.67-.2 15.72 28.03-10.97-.08-20.75c2.8 2.4 6.28 4.58 10.33 4.58.18 0-12.5 34.09-12.5 34.09l33.75-7.84s20.18-64.16 20.89-66.25c8.95 27.33 10.3 61.34 9.86 78.34l35.86-7.07a984 984 0 0 0-.38-20c11.19 1.57 32.22 19.47 34.31 20.07 2.26.64 9.13-2.13 9.13-2.13l.06 3.06 7.45-.52 18.18-1.9 6.32-.65-.18-6.78c18.38 0 41.5-3.85 55.7-11.37-.4 3.04-2.86 15.12-2.86 15.12l68.25 3.05 18.66-27.72-17.5-.83 4.67-14.25 2.33-.17-2.25-28.83-15.66-4.49c1.87-17.08 31.33-31.1 56.58-55.72 8 1.25 19.78-3.5 19.75-17.12-.03-9.8-8.88-17.01-19-17.75zM328.13 94.47a88.5 88.5 0 0 1-12.94 2l-.87-7.57c5.22.63 10.5 2.7 13.81 5.57zm-177.2-6.69c1.4.22 11.34 4.67 15.01 6.75-.6.21-8.61 1.04-13.81 1.38-.01-.07-.82-6.56-1.2-8.13zm129.26 63.44c-7.68-1.9-11.91-2.83-16.87-2.29-4.89.54-17.5 5.33-17.5 5.33l2.12-8.1-31.75 4.93s-4.69 20.44-7.2 22.04c-.33-3.35 3-17.25 3-17.25l-28-2.8-1.53 2.76-15.23.88-8.25 16.16c-3.66-11-2.66-43.9-2.83-46.16 21.25 5.25 38.7 22.37 39.01 22.64.87.74 2.07 1.77 4 1.77.82 0 1.7-.16 3.82-.97l.1-.04 15.36-6.27 3.75 2.3 12.38-21.4 15.07-.71 9.8 18.3 20.92 2.38-.17 6.5zm4 36.03l-1.16-5.5c.85.17 7.88 3.1 10.66 4.47-2.29.66-4.35.65-9.5 1.03zm39.01 11.72c.32-.15 3.48-1.6 5.81-4.36.41 3.5.53 4.3.82 7.72-2.67-1.56-3.22-1.61-6.63-3.36zm47.38-69.85l-.43 5.33c-2.78-.41-5.5-.65-8.08-.65l-20 15.25 1.17 2.42-22 4.5s1.8 7.6 2.66 12.08c-2.3-2.55-26.97-12.53-35.75-15l31-6.42c0-3.3.12-20.86-.16-23 15.3-.48 25.93-1.42 34.81-5.58 6.43-3 11.07-6.98 13.7-11.58 2.14 9.46 3.48 17.78 3.08 22.65zm22.82 62.18c-.32-4.78-2.28-19.4-2.75-20.83 4.18.66 16.02 5.76 16.02 10.56 0 7.44-11.82 9.92-13.27 10.27zm35.42-36.7c-7.48-6.3-19-11.76-37.67-17.34 20.52-1.92 50.67 11.08 50.67 11.08l-13 6.25z"/><path d="M285.67 135.34v4.13c-.16 1.43-.16 2.55-.16 3.5-.15 1.11-.15 2.23-.15 3.18l25.57-5.09c0-3.18 0-7.63-.3-12.09a94.6 94.6 0 0 0-1.56-11.77c18.14 0 31.78-2.55 40.61-6.68 8.84-4.14 13.33-9.86 13.33-16.39 0-5.56-5.11-10.97-13.02-15.59-8.06-4.6-18.6-8.9-29.3-12.24-10.69-3.34-21.54-6.05-30.06-7.48l-17.83 6.52c2.33 7.8 4.5 15.6 6.36 23.7 3.25 13.84 6.5 31.02 6.5 46.3zM314.8 82.2c8.21 2.23 14.88 5.57 18.9 8.75 2.02 1.6 2.95 2.87 2.95 3.98 0 1.11-.77 2.07-2.17 3.02-1.4 1.12-3.4 1.91-6.04 2.7-5.12 1.6-12.4 2.71-20.93 2.71-.3-1.9-.62-3.82-.93-5.57-.15-1.27-.46-2.54-.62-3.81-1.08-5.1-2.17-10.82-3.56-13.37 4.18 0 8.21.48 12.4 1.6zm13.4 79.05c1.06 3.77 2.42 10.32 3.72 18.11a335.1 335.1 0 0 1 3.16 25.69c.28 3.3.52 6.55.7 9.64a93.23 93.23 0 0 0-4.27-2.9c-4.32-2.76-8.91-5.24-13.23-7.45-5-2.49-10.4-4.83-15.93-7.04 2.7-.83 5.4-1.66 8.1-2.35 2.7-.69 5.13-1.66 7.29-2.76 4.32-2.07 7.29-4.56 7.29-8.84 0-4.83-4.46-9.1-11.34-12.83-7.02-3.73-16.2-6.63-25.52-9.25a254.12 254.12 0 0 0-26.19-5.8l-15.52 5.66a227.6 227.6 0 0 1 5.53 18.5c2.84 11.04 5.67 24.85 5.67 38.1v4.7c-.13 3.72-.27 7.31-.27 11.6l22.28-4.43c0-2.76-.14-6.62-.27-10.63-.14-3.86-.4-8-.81-11.18 3.5 0 7.02.56 10.66 1.52 7.02 2.21 13.64 5.25 19.3 8.84s9.86 6.9 12.3 8.97c1.2.97 1.75 1.52 1.88 1.52s.68-.14 1.76-.55c.94-.42 2.3-.83 3.78-1.52l4.86-1.93c1.04-.42 2.04-.81 2.97-1.2.02 1.69 0 3.27-.05 4.72l18.18-1.9c-.1-27.9-2.42-50.8-7.24-68.67l-18.8 3.66zm-28.01 28.18c-1.22.96-2.97 1.65-5.27 2.34-4.45 1.39-10.8 2.35-18.22 2.35-.27-1.65-.54-3.31-.81-4.83-.14-1.1-.4-2.2-.54-3.31-.95-4.42-1.9-9.4-3.1-11.6 3.64 0 7.15.41 10.8 1.38 7.14 1.93 12.95 4.83 16.46 7.6 1.75 1.37 2.56 2.48 2.56 3.44 0 .97-.67 1.8-1.88 2.63zm-80.48-32.35l17.74-2.82c-1.35 3.84-2.71 7.8-4.3 12.77-.33 1.13-.78 2.26-1.12 3.39-1.92 5.99-4.3 13.33-7 22.37-.35.8-.57 1.59-.8 2.38l-4.4 14.24-4.75 15.25-18.99 4.18 14.13-36.95a23.38 23.38 0 0 1-7.69 3.84c-1.58.45-3.27.68-4.97.68-6.44 0-10.17-4.3-11.75-11.07a43.8 43.8 0 0 1-1.02-9.83c0-4.64.57-9.84 1.58-15.15l15.6 1.7a45.41 45.41 0 0 0-1.7 11.98c0 2.03.12 4.06.8 5.53.79 1.92 2.03 3.28 4.29 3.28 3.16 0 7-2.6 8.93-8.02 1.92-5.54 3.27-9.95 4.18-13 .56-1.81.9-3.4 1.24-4.75zm222.98 51.59c.46-3.14.86-6.72 1.24-10.87l33.72 3.31 4.06-12.71-35.93-4.72-.13-10.14 11.75 1.81c8.62 1.64 16.76 3.6 25.81 5.88l-1.33-14.72-43.45-9.94-12.45 6.53c-.73-.71-1.5-1.4-2.3-2.09-7.16-6.07-17.01-11.18-27.81-14.63-10.8-3.45-22.27-5.52-32.94-5.52l-13.77 10.21c2.57 4.56 5 9.25 7.16 14.08 3.64 8.29 7.28 18.5 7.28 26.92 0 4.28-.13 7.73-.54 10.08-.67 4.83-1.62 7.46-2.83 8.42l5.13 8.7c18.5 0 36.04-4.42 49-11.32a58.96 58.96 0 0 0 10.69-7.25c-.62 8.66-1.55 17.16-2.83 23.9l57.26.9 9.67-14.75-46.46-2.08zm-35.08-17.7c-2.43 2.48-5.94 4.28-9.18 5.52-3.91 1.52-8.23 2.35-13.23 2.76.27-1.1.54-2.9.54-5.38 0-.97 0-1.94-.13-3.18a96.05 96.05 0 0 0-2.57-16.43 71.2 71.2 0 0 0-3.5-10.21c-.41-.97-.68-1.52-.68-1.66 6.48 0 14.58 1.38 21.2 4.42 6.6 3.03 11.6 7.73 11.6 14.22 0 4.28-1.62 7.45-4.05 9.94zM116.92 90.55c2.9 12 5.54 26.26 5.54 40.01v5.41c-.16 4.3-.31 8.43-.31 13.36l25.57-5.09c0-3.18-.15-7.63-.3-12.25-.16-4.45-.47-9.22-.94-12.88 4.03 0 8.06.64 12.25 1.75a95.15 95.15 0 0 1 22.16 10.18 125.67 125.67 0 0 1 14.1 10.34c1.4 1.11 2.02 1.75 2.18 1.75s.77-.16 2.01-.64c1.09-.47 2.64-.95 4.34-1.75l5.58-2.22c4.03-1.6 7.44-3.03 9.61-3.98.93-.48 1.4-.64 1.4-.8l9.46-16.86 21.17-1 11.16 19.5 21.84 2.5c-7.5-13.5-28.17-69.83-28.12-87.93l-21.22 3.93c-4.55 17.94-15.98 43.93-30.36 67.86-3.99-2.4-8.08-4.6-11.99-6.6a246.21 246.21 0 0 0-18.29-8.12c3.1-.95 6.2-1.9 9.3-2.7 3.1-.8 5.9-1.91 8.37-3.19 4.96-2.38 8.37-5.25 8.37-10.18 0-5.56-5.11-10.5-13.02-14.79-8.06-4.3-18.6-7.64-29.3-10.66a291.6 291.6 0 0 0-30.06-6.68l-9.49 3.47c-.15-3.66-.4-7.06-.74-10.15-1.24-11.3-2.95-19.57-4.96-26.09l-23.56 14c.77 2.38 1.4 5.09 2.01 8.11 1.09 5.57 2.02 13.05 2.02 23.23 0 5.09-.16 9.7-.47 13.68-.62 8.27-1.4 14.47-2.63 20.04L72.08 60.9l-15.8 8.9-4.81 33.57L38.9 59.14 18.14 72.66l17.36 73.97 18.6-6.2c.47-4.96 6.1-31.96 9-39.3 2.32 3.98 4.8 9.07 7.28 14.48 2.48 5.4 4.96 11.13 6.97 16.22a510.25 510.25 0 0 1 7.29 18.62l22.47-11.14a492.7 492.7 0 0 0 5.43-22.9c1.72-7.81 3.33-16.8 4.37-25.86zm125.65-4.83l6.17 19.16h-15l8.83-19.16zM151.6 82.2c8.21 2.23 14.88 5.57 18.9 8.75 2.02 1.6 2.95 2.87 2.95 3.98 0 1.11-.77 2.07-2.17 3.02-1.4 1.12-3.4 1.91-6.04 2.7-5.12 1.6-12.4 2.71-20.93 2.71-.3-1.9-.62-3.82-.93-5.57-.15-1.27-.46-2.54-.62-3.81-1.08-5.1-2.17-10.82-3.56-13.37 4.18 0 8.21.48 12.4 1.6zm16.64 80.5l14.22-1.05-.36 55.61-17.01 5.85-1.33-33.64-9.14 22.94-12.7 3.47-4.84-34.54c-1.83 3.73-3.44 7.99-5.3 13.74-.89 2.77-1.79 6.01-2.66 9.63a87.9 87.9 0 0 0-2.54 16.84c-.08 2.25-.1 4.28.03 6.12l-19.06 5.67c-.31-4.99-.1-11.16.95-19.4.51-4.06 1.4-8.75 2.66-13.94 2.5-10.38 7.25-21.87 11.62-30.81a355.9 355.9 0 0 1 7.75-15.28l17.81-3.84c.56 4.94 1.25 9.79 1.97 14.52.56 3.98 1.34 8.49 2.17 12.77.83 4.29 1.71 8.35 2.68 11.59 2.32-3.36 5.49-9.74 8.19-15.64.96-2.03 1.94-4.18 2.9-6.2.7-1.5 1.28-2.92 1.99-4.41zm373.35-72.46c-1.76 3.04-5.1 4.86-8.94 4.86-1.53 0-3.08-.3-4.56-.84-22.85 19.62-58.85 49.6-60.58 58.27-23.08-12.2-73.2-26.06-91.94-23 1.5-18.44-18.13-75.63-18.13-75.63-1.92-.24-1.9-.64-3.67-1.66-6.32-3.65-8.8-10.8-5.63-16.28 1.9-3.3 5.52-5.27 9.68-5.27 2.47 0 4.98.7 7.24 2 6.32 3.65 8.8 10.8 5.63 16.29a10.28 10.28 0 0 1-4.78 4.23c.1 0 .18-.03.27-.03.5 0 25.9 27.53 25.9 27.53s.23-28.04.14-28.09c-5.84-3.37-8.13-9.98-5.2-15.04 1.76-3.05 5.1-4.87 8.93-4.87 2.29 0 4.6.64 6.7 1.85 5.83 3.37 8.12 9.98 5.2 15.04a9.31 9.31 0 0 1-2.36 2.68c.12.22 10.67 29.16 10.67 29.16s21.58-42.45 22.35-42.93c-4.36-3.59-5.81-9.23-3.24-13.68 1.76-3.05 5.1-4.86 8.93-4.86 2.29 0 4.6.63 6.7 1.84 5.83 3.37 8.12 9.98 5.2 15.04a9.7 9.7 0 0 1-6.16 4.53c.11.4 1.68 51.8 1.68 51.8s27.3-20.72 27.62-20.66c-2.47-3.26-2.14-6.07-.17-9.48 1.66-2.88 4.82-4.6 8.44-4.6 2.16 0 4.35.6 6.32 1.75 5.52 3.18 7.67 9.42 4.91 14.2-1.66 2.88-4.81 4.6-8.44 4.6l-16.73 24.4 46.97-15.89a9.9 9.9 0 0 1 .22-9.29c1.76-3.04 5.1-4.86 8.93-4.86 2.29 0 4.6.64 6.7 1.84 5.84 3.38 8.12 9.98 5.2 15.05z"/><path fill="#FFF" d="M439.36 41.86L413.4 93.63 399 53.99c-1.23-3.71-4.23-1.52-3.88.68l-.04 38.66-32.17-37.04c-2.2-.61-2.52 1.62-2.52 1.62.17.45 15.5 42.43 18.2 66.23 23 .22 60.49 9.83 84.86 22.7.3-11.12 51.75-49.39 51.88-49.49 5.06-3.82 1.89-4.63-1.82-3.5l-51.83 16.47 19.17-30.5c2.29-3.48 1.04-5.3-2.89-2.66L444.87 102l-1.72-59.31c.09-3.67-2.4-3.92-3.79-.84z"/><radialGradient id="a" cx="403.65" cy="180.74" r="159.12" gradientUnits="userSpaceOnUse"><stop offset=".35" stop-color="#958c00"/><stop offset=".37" stop-color="#aca104"/><stop offset=".4" stop-color="#c9bb08"/><stop offset=".44" stop-color="#ddce0b"/><stop offset=".47" stop-color="#ead90d"/><stop offset=".5" stop-color="#eedd0e"/><stop offset=".57" stop-color="#f4e757"/><stop offset=".66" stop-color="#faf2a3"/><stop offset=".72" stop-color="#fef9d4"/><stop offset=".75" stop-color="#fffce6"/><stop offset="1" stop-color="#958c00"/></radialGradient><path fill="url(#a)" d="M379.99 122.72c18.08-1 56.2 7.37 82 21 0-8.5 52.12-47.96 52.12-47.96l-57.04 18.12 22.08-35.12-36.17 27.17-1.83-63.17-28.04 55.92-16-44-.04 44-33.88-39s17.5 46.16 16.8 63.04z"/><path fill="#EEDD0E" d="M353.27 41.69c.47-2.2 3.32-4.14 6.42-3.47 3.1.66 5.29 3.68 4.82 5.87s-3.37 3.44-6.47 2.77-5.24-2.98-4.77-5.17zm41.05-2.47c-2.49 0-4.5 1.45-4.5 3.25s2.76 3.25 5.25 3.25c2.48 0 3.75-1.46 3.75-3.25s-2.02-3.25-4.5-3.25zm49.22-13.24c-3.14-.21-5.81 1.66-5.98 4.17s2.28 4.1 5.41 4.3c3.14.22 5.77-1.03 5.94-3.54s-2.24-4.73-5.37-4.93zm87.06 53.17c-2.88-1.67-6.2-1.3-7.43.82-1.22 2.12.13 5.18 3 6.84s6.22 1.3 7.44-.82c1.22-2.11-.13-5.18-3-6.84zM487.81 64.5c-2.06-1.47-4.68-1.33-5.84.3-1.16 1.64-.42 4.15 1.65 5.62 2.07 1.47 4.68 1.33 5.84-.3 1.16-1.64.43-4.16-1.64-5.62z"/><path d="M386.36 102.82c7.12-2.85 12.24 13.23 5.75 15.24-6.97 2.17-11.32-13.02-5.75-15.24zm41.58-5.43c-8.45-1.42-13.2 24.24-3.88 25.81 8.51 1.43 13.14-24.26 3.88-25.81zm21.58 33.47c4.95 4.88 17.72-6.84 12.27-12.27-5.4-5.4-17.56 7.04-12.27 12.27z"/><path fill="#B9131A" d="M385.7 103.78c4.26-2.92 9.47 9.12 5.52 11.33-4.25 2.38-8.86-9.04-5.53-11.33zm43.25-4.01c-7.33-1.73-13.38 18.43-5.24 20.05 8.8 1.74 11.44-18.6 5.24-20.05zm22.67 28.2c3.37 3.23 12.06-4.52 8.35-8.12-3.68-3.58-11.95 4.66-8.35 8.12z"/></svg>