<?xml version="1.0" encoding="utf-8"?>
<!-- Generator: Adobe Illustrator 22.0.1, SVG Export Plug-In . SVG Version: 6.00 Build 0)  -->
<svg version="1.1" id="Layer_1" xmlns="http://www.w3.org/2000/svg" xmlns:xlink="http://www.w3.org/1999/xlink" x="0px" y="0px"
	 viewBox="0 0 144.167 22.356" enable-background="new 0 0 144.167 22.356" xml:space="preserve">
<path fill="#231F20" d="M136.766,10.23h5.328c-0.053-0.863-0.303-1.528-0.747-1.994c-0.446-0.467-1.044-0.701-1.796-0.701
	s-1.368,0.234-1.847,0.701C137.224,8.702,136.912,9.367,136.766,10.23 M144.167,11.523h-7.448c0.055,1.043,0.394,1.873,1.019,2.491
	c0.626,0.617,1.433,0.925,2.423,0.925c1.381,0,2.655-0.443,3.822-1.329v2.112c-0.645,0.444-1.284,0.76-1.917,0.95
	c-0.633,0.19-1.375,0.285-2.227,0.285c-1.167,0-2.11-0.249-2.832-0.748c-0.721-0.498-1.298-1.169-1.732-2.011
	c-0.433-0.842-0.65-1.817-0.65-2.925c0-1.661,0.456-3.012,1.37-4.052c0.912-1.04,2.098-1.561,3.556-1.561
	c1.404,0,2.525,0.507,3.361,1.519c0.836,1.014,1.255,2.37,1.255,4.071V11.523z M130.026,0.213h2.095V16.79h-2.095V0.213z
	 M124.939,5.851h1.98v10.94h-1.98V5.851z M120.669,5.447c0,0.127,0.007,0.261,0.023,0.404h2.359v1.851h-2.359v9.089h-2.095V7.702
	h-1.577V5.851h1.577V5.494c0-1.764,0.387-3.121,1.163-4.07C120.534,0.475,121.639,0,123.075,0c1.173,0,2.102,0.309,2.785,0.926
	c0.682,0.616,1.036,1.467,1.059,2.551h-1.98c-0.207-0.577-0.46-0.989-0.76-1.234c-0.299-0.246-0.69-0.368-1.174-0.368
	C121.448,1.875,120.669,3.066,120.669,5.447 M106.525,0.213h2.095V16.79h-2.095V0.213z M99.153,15.474
	c0.667,0,1.284-0.281,1.853-0.843v-3.239l-1.405,0.558c-0.713,0.292-1.218,0.587-1.513,0.883c-0.296,0.297-0.443,0.667-0.443,1.109
	c0,0.452,0.14,0.819,0.42,1.104C98.345,15.331,98.707,15.474,99.153,15.474 M103.066,10.23v4.638c0,0.373,0.123,0.558,0.369,0.558
	c0.253,0,0.648-0.193,1.185-0.582v1.318c-0.476,0.316-0.858,0.532-1.145,0.647c-0.288,0.114-0.589,0.172-0.904,0.172
	c-0.898,0-1.427-0.364-1.588-1.092c-0.891,0.711-1.838,1.068-2.844,1.068c-0.736,0-1.35-0.251-1.841-0.754
	c-0.491-0.502-0.737-1.133-0.737-1.893c0-0.688,0.24-1.303,0.72-1.845c0.479-0.54,1.16-0.97,2.043-1.287l2.682-0.948V9.648
	c0-1.313-0.637-1.97-1.911-1.97c-1.143,0-2.256,0.609-3.338,1.827V7.144c0.813-0.989,1.984-1.484,3.511-1.484
	c1.143,0,2.06,0.309,2.751,0.926c0.23,0.198,0.437,0.461,0.621,0.789c0.184,0.329,0.301,0.657,0.351,0.985
	C103.041,8.688,103.066,9.312,103.066,10.23 M87.079,7.606l3.936-3.987v2.255h3.35V7.82h-3.35v5.342
	c0,1.249,0.503,1.872,1.508,1.872c0.752,0,1.546-0.257,2.383-0.771v2.017c-0.806,0.467-1.685,0.701-2.636,0.701
	c-0.959,0-1.757-0.289-2.394-0.867c-0.2-0.174-0.365-0.37-0.495-0.587c-0.131-0.217-0.24-0.503-0.328-0.855
	c-0.089-0.352-0.132-1.022-0.132-2.011V7.82h-1.842V7.606z M83.447,5.874h2.095v10.917h-2.095V5.874z M84.483,1.282
	c0.346,0,0.641,0.122,0.887,0.367c0.245,0.246,0.368,0.546,0.368,0.902c0,0.349-0.123,0.649-0.368,0.903
	c-0.246,0.252-0.541,0.379-0.887,0.379c-0.322,0-0.606-0.128-0.851-0.386c-0.246-0.257-0.369-0.556-0.369-0.896
	c0-0.332,0.123-0.626,0.369-0.883C83.877,1.41,84.161,1.282,84.483,1.282 M76.731,7.749c-0.568,0-1.051,0.198-1.45,0.593
	c-0.399,0.396-0.599,0.871-0.599,1.425c0,0.561,0.196,1.026,0.588,1.394c0.391,0.368,0.886,0.551,1.484,0.551
	c0.591,0,1.084-0.187,1.479-0.563c0.396-0.376,0.593-0.844,0.593-1.406c0-0.57-0.2-1.045-0.599-1.424
	C77.828,7.939,77.33,7.749,76.731,7.749 M76.236,17.301c-0.705,0-1.283,0.154-1.732,0.463c-0.449,0.308-0.673,0.704-0.673,1.186
	c0,1.124,0.982,1.686,2.946,1.686c0.929,0,1.648-0.141,2.159-0.421c0.51-0.281,0.765-0.679,0.765-1.193
	c0-0.506-0.323-0.92-0.967-1.241C78.089,17.461,77.257,17.301,76.236,17.301 M75.132,13.1c-1.559-0.711-2.337-1.862-2.337-3.452
	c0-1.163,0.412-2.082,1.237-2.759c0.825-0.677,1.951-1.015,3.378-1.015h4.363v1.685h-2.141c0.414,0.435,0.702,0.831,0.863,1.187
	c0.161,0.356,0.241,0.763,0.241,1.222c0,0.57-0.156,1.13-0.471,1.679c-0.315,0.55-0.72,0.971-1.214,1.263
	c-0.495,0.293-1.307,0.526-2.435,0.7c-0.791,0.119-1.185,0.4-1.185,0.843c0,0.253,0.147,0.461,0.443,0.623
	c0.295,0.162,0.83,0.331,1.605,0.504c1.297,0.293,2.131,0.523,2.504,0.689c0.372,0.166,0.708,0.403,1.007,0.712
	c0.506,0.522,0.76,1.178,0.76,1.969c0,1.037-0.447,1.863-1.341,2.481c-0.894,0.617-2.089,0.925-3.586,0.925
	c-1.511,0-2.718-0.31-3.62-0.931c-0.901-0.621-1.352-1.454-1.352-2.498c0-1.48,0.886-2.433,2.659-2.86
	c-0.706-0.467-1.059-0.93-1.059-1.388c0-0.349,0.152-0.665,0.454-0.95C74.209,13.444,74.617,13.235,75.132,13.1 M68.219,5.874h2.095
	v10.917h-2.095V5.874z M69.256,1.282c0.345,0,0.64,0.122,0.886,0.367c0.245,0.246,0.368,0.546,0.368,0.902
	c0,0.349-0.123,0.649-0.368,0.903c-0.246,0.252-0.541,0.379-0.886,0.379c-0.323,0-0.607-0.128-0.852-0.386
	c-0.246-0.257-0.368-0.556-0.368-0.896c0-0.332,0.122-0.626,0.368-0.883C68.649,1.41,68.933,1.282,69.256,1.282 M55.985,2.326
	h-2.878v12.329h2.947c1.15,0,2.044-0.081,2.682-0.243c0.636-0.163,1.168-0.368,1.593-0.618c0.426-0.249,0.815-0.555,1.169-0.919
	c1.135-1.186,1.703-2.685,1.703-4.497c0-1.78-0.583-3.232-1.749-4.355c-0.43-0.419-0.923-0.763-1.479-1.032
	c-0.557-0.27-1.085-0.447-1.583-0.535C57.891,2.37,57.089,2.326,55.985,2.326 M50.805,16.767V0.213h5.421
	c2.187,0,3.917,0.339,5.191,1.015c1.274,0.676,2.287,1.672,3.038,2.985c0.753,1.313,1.129,2.745,1.129,4.296
	c0,1.107-0.207,2.167-0.622,3.18c-0.414,1.012-1.005,1.902-1.772,2.669c-0.783,0.791-1.692,1.388-2.728,1.792
	c-0.606,0.245-1.163,0.409-1.669,0.493c-0.507,0.082-1.474,0.124-2.901,0.124H50.805z"/>
<path fill="#231F20" d="M38.381,5.874v2.504l0.116-0.19c1.012-1.685,2.025-2.528,3.038-2.528c0.791,0,1.615,0.412,2.475,1.235
	l-1.105,1.899c-0.729-0.712-1.404-1.069-2.026-1.069c-0.675,0-1.26,0.333-1.755,0.997c-0.495,0.665-0.743,1.452-0.743,2.362v5.707
	h-2.106V5.874H38.381z M31.096,16.791V15.39c-0.445,0.502-0.954,0.893-1.525,1.172c-0.572,0.279-1.142,0.419-1.71,0.419
	c-0.667,0-1.283-0.172-1.847-0.516c-0.564-0.345-0.99-0.812-1.278-1.401c-0.287-0.589-0.431-1.568-0.431-2.936V5.874H26.4v6.222
	c0,1.145,0.159,1.945,0.477,2.399c0.319,0.455,0.877,0.682,1.675,0.682c0.997,0,1.845-0.503,2.544-1.508V5.874h2.095v10.917H31.096z
	 M16.288,7.796c-1.005,0-1.83,0.341-2.475,1.021c-0.644,0.68-0.967,1.547-0.967,2.599c0,1.044,0.33,1.896,0.99,2.557
	c0.66,0.66,1.508,0.99,2.544,0.99c1.028,0,1.87-0.334,2.527-1.003c0.656-0.668,0.984-1.524,0.984-2.568
	c0-1.036-0.342-1.895-1.025-2.575C18.183,8.137,17.324,7.796,16.288,7.796 M16.403,5.851c1.612,0,2.95,0.535,4.017,1.607
	c1.067,1.072,1.6,2.419,1.6,4.041c0,1.574-0.541,2.881-1.623,3.921c-1.082,1.041-2.444,1.561-4.086,1.561
	c-1.589,0-2.916-0.528-3.982-1.585c-1.067-1.056-1.601-2.375-1.601-3.956c0-1.598,0.54-2.929,1.618-3.993
	C13.424,6.383,14.776,5.851,16.403,5.851 M7.986,5.874h2.351L2.834,22.356H0.496l3.594-7.91L0,5.874h2.388l2.859,6.167L7.986,5.874z
	"/>
</svg>
