<?xml version="1.0" encoding="utf-8"?>
<!-- Generator: Adobe Illustrator 22.0.1, SVG Export Plug-In . SVG Version: 6.00 Build 0)  -->
<svg version="1.1" id="Layer_1" xmlns="http://www.w3.org/2000/svg" xmlns:xlink="http://www.w3.org/1999/xlink" x="0px" y="0px"
	 viewBox="0 0 93.683 5.644" enable-background="new 0 0 93.683 5.644" xml:space="preserve">
<path fill="#00A7E1" d="M3.824,1.557L3.73,1.508c-0.641-0.33-1.157-0.483-1.626-0.483c-0.485,0-0.798,0.177-0.798,0.443
	c0,0.234,0.274,0.435,0.868,0.653l0.422,0.161c1.025,0.379,1.471,0.903,1.471,1.734c0,0.975-0.837,1.628-2.089,1.628
	c-0.453,0-0.868-0.088-1.407-0.298C0.258,5.217,0.235,5.209,0.094,5.112V3.927c0.391,0.25,0.594,0.371,0.86,0.476
	C1.29,4.548,1.611,4.612,1.939,4.612c0.524,0,0.806-0.169,0.806-0.5c0-0.273-0.18-0.427-0.72-0.621L1.736,3.387
	c-0.414-0.153-0.633-0.25-0.883-0.395c-0.204-0.113-0.368-0.25-0.501-0.403C0.133,2.331,0,1.952,0,1.565
	c0-0.944,0.798-1.564,2.018-1.564c0.594,0,1.125,0.12,1.806,0.427V1.557z"/>
<polygon fill="#00A7E1" points="11.487,5.572 10.142,5.572 10.142,2.21 10.127,2.21 8.711,3.984 8.515,3.984 7.1,2.21 7.084,2.21 
	7.084,5.572 5.739,5.572 5.739,0.073 6.92,0.073 8.61,2.161 10.322,0.073 11.487,0.073 "/>
<path fill="#00A7E1" d="M15.036,3.524h1.643l-0.861-2.129L15.036,3.524z M18.938,5.572h-1.431l-0.438-1.088h-2.385l-0.399,1.088
	h-1.407l2.151-5.499h1.54L18.938,5.572z"/>
<path fill="#00A7E1" d="M21.681,2.33h0.555l0.102-0.008l0.164-0.008c0.352-0.008,0.595-0.258,0.595-0.612
	c0-0.42-0.25-0.63-0.743-0.63h-0.673V2.33z M22.385,0.073c0.775,0,1.056,0.056,1.4,0.274c0.422,0.282,0.696,0.79,0.696,1.306
	c0,0.403-0.164,0.79-0.454,1.056C23.886,2.83,23.8,2.886,23.566,3c0.281,0.145,0.516,0.459,0.766,1.032l0.212,0.467l0.14,0.306
	l0.165,0.372l0.14,0.306l0.039,0.089h-1.462l-0.032-0.057l-0.101-0.226L23.331,5.04l-0.156-0.355l-0.203-0.468
	c-0.204-0.476-0.462-0.782-0.712-0.854C22.143,3.33,22.111,3.33,21.877,3.33h-0.196v2.242h-1.345V0.073H22.385z"/>
<polygon fill="#00A7E1" points="31.228,1.105 29.304,1.105 29.304,5.572 27.952,5.572 27.952,1.105 26.02,1.105 26.02,0.073 
	31.228,0.073 "/>
<polygon fill="#00A7E1" points="36.764,5.572 32.83,5.572 32.83,0.073 36.709,0.073 36.709,1.097 34.175,1.097 34.175,2.21 
	36.591,2.21 36.591,3.242 34.175,3.242 34.175,4.564 36.764,4.564 "/>
<path fill="#00A7E1" d="M39.906,2.33h0.555l0.102-0.008l0.164-0.008c0.352-0.008,0.594-0.258,0.594-0.612
	c0-0.42-0.25-0.63-0.742-0.63h-0.673V2.33z M40.61,0.073c0.774,0,1.056,0.056,1.4,0.274c0.422,0.282,0.695,0.79,0.695,1.306
	c0,0.403-0.164,0.79-0.453,1.056C42.111,2.83,42.025,2.886,41.791,3c0.281,0.145,0.516,0.459,0.766,1.032l0.211,0.467l0.141,0.306
	l0.164,0.372l0.141,0.306l0.039,0.089h-1.462l-0.032-0.057l-0.101-0.226L41.556,5.04L41.4,4.685l-0.204-0.468
	c-0.203-0.476-0.461-0.782-0.711-0.854C40.368,3.33,40.336,3.33,40.102,3.33h-0.196v2.242h-1.345V0.073H40.61z"/>
<path fill="#00A7E1" d="M51.173,1.557l-0.094-0.049c-0.641-0.33-1.157-0.483-1.627-0.483c-0.484,0-0.797,0.177-0.797,0.443
	c0,0.234,0.274,0.435,0.868,0.653l0.422,0.161c1.025,0.379,1.471,0.903,1.471,1.734c0,0.975-0.837,1.628-2.089,1.628
	c-0.453,0-0.868-0.088-1.407-0.298c-0.313-0.129-0.336-0.137-0.477-0.234V3.927c0.391,0.25,0.594,0.371,0.86,0.476
	c0.336,0.145,0.657,0.209,0.985,0.209c0.524,0,0.806-0.169,0.806-0.5c0-0.273-0.18-0.427-0.72-0.621l-0.289-0.104
	c-0.414-0.153-0.633-0.25-0.883-0.395c-0.204-0.113-0.368-0.25-0.501-0.403c-0.219-0.258-0.352-0.637-0.352-1.024
	c0-0.944,0.798-1.564,2.018-1.564c0.594,0,1.125,0.12,1.806,0.427V1.557z"/>
<polygon fill="#00A7E1" points="57.045,5.572 53.111,5.572 53.111,0.073 56.99,0.073 56.99,1.097 54.456,1.097 54.456,2.21 
	56.873,2.21 56.873,3.242 54.456,3.242 54.456,4.564 57.045,4.564 "/>
<path fill="#00A7E1" d="M63.816,5.096c-0.704,0.387-1.322,0.548-2.096,0.548c-1.83,0-3.104-1.153-3.104-2.805
	c0-1.033,0.563-1.96,1.493-2.452C60.594,0.13,61.173,0,61.838,0c0.555,0,0.93,0.065,1.462,0.267c0.219,0.08,0.289,0.113,0.454,0.217
	V1.75c-0.47-0.363-1.181-0.597-1.823-0.597C60.79,1.153,60,1.839,60,2.822c0,0.992,0.782,1.686,1.892,1.686
	c0.516,0,1.118-0.186,1.603-0.485l0.266-0.161l0.055-0.032V5.096z"/>
<path fill="#00A7E1" d="M70.954,3.064c0,0.218-0.015,0.435-0.031,0.605c-0.039,0.403-0.203,0.798-0.43,1.088
	c-0.298,0.363-0.829,0.685-1.337,0.798c-0.274,0.057-0.579,0.089-0.908,0.089c-0.688,0-1.165-0.121-1.626-0.403
	c-0.25-0.161-0.461-0.355-0.618-0.573c-0.289-0.403-0.407-0.862-0.407-1.564V0.073h1.345v2.725c0,0.54,0.048,0.822,0.173,1.072
	c0.218,0.42,0.641,0.67,1.164,0.67c0.642,0,1.174-0.412,1.291-1c0.024-0.121,0.039-0.234,0.039-0.347V2.798V0.073h1.345V3.064z"/>
<path fill="#00A7E1" d="M74.213,2.33h0.555l0.102-0.008l0.164-0.008c0.352-0.008,0.594-0.258,0.594-0.612
	c0-0.42-0.25-0.63-0.742-0.63h-0.673V2.33z M74.917,0.073c0.774,0,1.056,0.056,1.4,0.274c0.422,0.282,0.695,0.79,0.695,1.306
	c0,0.403-0.164,0.79-0.453,1.056C76.418,2.83,76.332,2.886,76.098,3c0.281,0.145,0.516,0.459,0.766,1.032l0.212,0.467l0.14,0.306
	l0.164,0.372l0.141,0.306l0.039,0.089h-1.462l-0.032-0.057l-0.101-0.226L75.863,5.04l-0.156-0.355l-0.203-0.468
	c-0.204-0.476-0.462-0.782-0.712-0.854C74.675,3.33,74.644,3.33,74.409,3.33h-0.196v2.242h-1.345V0.073H74.917z"/>
<rect x="78.983" y="0.073" fill="#00A7E1" width="1.345" height="5.499"/>
<polygon fill="#00A7E1" points="87.146,1.105 85.222,1.105 85.222,5.572 83.869,5.572 83.869,1.105 81.938,1.105 81.938,0.073 
	87.146,0.073 "/>
<polygon fill="#00A7E1" points="91.579,3 91.579,5.572 90.242,5.572 90.242,3 88.138,0.073 89.741,0.073 90.914,1.798 92.087,0.073 
	93.683,0.073 "/>
</svg>
