<svg xmlns="http://www.w3.org/2000/svg" viewBox="0 0 118.73 78.81"><linearGradient id="a" gradientUnits="userSpaceOnUse" y1="36.96" x2="109.78" y2="36.96"><stop offset=".45" stop-color="#231f20"/><stop offset=".75" stop-color="#fff"/></linearGradient><path fill="url(#a)" d="M.22 8.76L0 65.16l109.78-.03V8.76z"/><path fill="#231F20" d="M109.78 8.76v7.9h-8.08v-7.9h8.08zM93.46 24.54h8.25v-7.88h-8.25v7.88zM85.39 8.76v7.9h8.07v-7.9h-8.07zm0 15.78v-7.88h-8.06v7.88h8.06zm16.32 16.19v-8.2h-8.25v8.2h8.25zm0 8.06h8.07v-8.06h-8.07v8.06zm0 8.19v-8.2h-8.25v8.2h8.25zm8.07 8.15v-8.15h-8.08v8.15h8.08zm-16.32 0v-8.15h-8.07v8.15h8.07zm-23.94-8.15v8.18h7.75l.06-8.18h-7.81zm-16.63 0v8.18l8.38-.06v-8.12h-8.38zm8.38 0h8.25v-8.2h-8.25v8.2zm-8.38-8.2h8.38v-8.05h-8.38v8.06zm32.5-16.24h8.07v-8h-8.07v8zm0 8.19v-8.2h-8.06v8.2h8.06zm-15.87 8.06h7.81v-8.06h-7.81v8.06zm15.87 0h8.07v-8.06h-8.07v8.06zm-8.06-32.13v-7.9h-7.81v7.9h7.81zm-7.81 15.88h7.81v-8h-7.81v8zm-8.25 8.19h8.25v-8.2h-8.25v8.2zm0-16.2h8.25v-7.87h-8.25v7.88zm-8.46 8h8.46v-8h-8.38l-.08 8zm.08-15.87h8.38v-7.9h-8.38v7.9zm24.44 40.32h8.06v-8.2h-8.06v8.2zm24.38-24.44h7.9l.17-8h-8.07v8z"/><path fill="#DB3435" d="M5.18 72.03L2 75.83h3.23v.47H1.31v-.47L4.48 72H1.4v-.48h3.77v.5"/><path fill="#231F20" d="M11.26 76.3h-.56l-1.91-4.37h-.01v4.37H8.2v-4.78h1l1.77 4.1 1.79-4.1h.98v4.78h-.57v-4.37h-.01l-1.9 4.37m5.55-4.81h-.68c-1.26 0-1.64.4-1.64 1.6v1.7c0 1.13.43 1.55 1.64 1.55h.68c1.2 0 1.64-.42 1.64-1.55v-1.7c0-1.2-.39-1.6-1.64-1.6m0 .47c.84 0 1.06.2 1.06 1.13v1.7c0 .95-.32 1.06-1.06 1.07h-.68c-.74 0-1.07-.12-1.07-1.07v-1.7c0-.93.22-1.13 1.07-1.13h.68zm4.14 4.34V72h1.63v-.48h-3.83V72h1.63v4.3h.57m4.25-4.81h-.68c-1.25 0-1.64.4-1.64 1.6v1.7c0 1.13.43 1.55 1.64 1.55h.68c1.2 0 1.64-.42 1.64-1.55v-1.7c0-1.2-.39-1.6-1.64-1.6m0 .47c.85 0 1.07.2 1.07 1.13v1.7c0 .95-.33 1.06-1.07 1.07h-.68c-.74 0-1.07-.12-1.07-1.07v-1.7c0-.93.23-1.13 1.07-1.13h.68zm2.95 4.34v-1.91h1.83c.7 0 .85.29.85.9v1h.57v-1.26c0-.51-.25-.82-.81-.86v-.01c.8-.1.88-.6.88-1.26 0-1.1-.48-1.38-1.57-1.38h-2.32v4.78h.57m0-2.39V72h1.76c.9 0 .98.23.98.84 0 .79-.1 1.04-.98 1.07h-1.76zm3.91-1.04c0 1.26.85 1.15 1.85 1.23.92.07 1.35-.09 1.35.82 0 .94-.3.94-1.37.94s-1.28 0-1.27-1.05h-.57c-.1 1.38.56 1.53 1.84 1.53 1.27 0 1.94-.05 1.94-1.4 0-1.29-.6-1.26-1.8-1.32-.94-.03-1.4.05-1.4-.86 0-.66.16-.8 1.27-.8 1.07 0 1.24.03 1.26.87h.58c.05-1.3-.73-1.34-1.82-1.34-1.24 0-1.86.11-1.86 1.38m4.38-1.35v4.78h.57v-1.86h1.97c1.22 0 1.23-1.04 1.23-1.47 0-.82-.23-1.45-1.2-1.45h-2.57m2.32.48c.7 0 .88.12.88 1.04 0 .93-.4.92-1.15.92H37V72h1.75zm4.31-.52h-.67c-1.26.02-1.64.41-1.64 1.6v1.7c0 1.14.43 1.56 1.64 1.56h.67c1.21 0 1.64-.42 1.64-1.55v-1.7c0-1.2-.38-1.6-1.64-1.6m0 .47c.85 0 1.07.2 1.07 1.13v1.7c0 .95-.33 1.06-1.07 1.07h-.67c-.74 0-1.07-.12-1.07-1.07v-1.7c0-.93.22-1.13 1.07-1.13h.67zm2.95 4.34v-1.91h1.83c.7 0 .85.29.85.9v1h.57v-1.26c0-.51-.25-.82-.81-.86v-.01c.8-.1.88-.6.88-1.26 0-1.1-.48-1.38-1.57-1.38h-2.32v4.78h.57m0-2.39V72h1.76c.9 0 .99.23.99.84 0 .79-.1 1.04-.99 1.07h-1.76zm5.87 2.39V72h1.63v-.48H49.7V72h1.63v4.3h.57m7.5 0l1.9-4.37h.01v4.37h.58v-4.78h-1l-1.78 4.1-1.78-4.1h-.98v4.78h.57v-4.37l1.92 4.37h.56m3.8-2.67V72h2.67v-.48h-3.24v4.78h3.24v-.48h-2.67v-1.75h2.55v-.45H63.2m6.44 2.68l1.9-4.37h.01v4.37h.57v-4.78h-.98l-1.79 4.1-1.78-4.1h-.99v4.78h.58v-4.37l1.92 4.37h.56m5.55-4.81h-.68c-1.26 0-1.64.4-1.64 1.6v1.7c0 1.13.43 1.55 1.64 1.55h.68c1.2 0 1.63-.42 1.63-1.55v-1.7c0-1.2-.38-1.6-1.63-1.6m0 .47c.84 0 1.06.2 1.06 1.13v1.7c0 .95-.32 1.06-1.06 1.07h-.68c-.74 0-1.07-.12-1.07-1.07v-1.7c0-.93.22-1.13 1.07-1.13h.68zm2.94 4.34v-1.91h1.84c.69 0 .84.29.84.9v1h.58v-1.26c0-.51-.25-.82-.82-.86v-.01c.8-.1.88-.6.88-1.26 0-1.1-.48-1.38-1.56-1.38h-2.33v4.78h.57m0-2.39V72h1.76c.9 0 1 .23 1 .84 0 .79-.12 1.04-1 1.07h-1.76zm4.7 1.38h2.55l.4 1h.59l-1.88-4.77h-.8l-1.84 4.78h.6l.39-1.01m2.38-.45h-2.23l1.1-2.87 1.13 2.87zm1.6 1.46h2.68c.85 0 1.19-.47 1.19-1.33 0-.6-.11-1.05-.78-1.17v-.01c.52-.17.63-.5.63-1 0-.84-.22-1.27-1.17-1.27H86.8v4.78m.57-4.3h1.72c.6 0 .86.07.86.71 0 .75-.24.9-.92.9h-1.66V72zm0 2.08h1.87c.75-.01.85.3.85.94 0 .73-.3.8-.92.8h-1.8v-1.74zm4.16-2.56v4.78h.57v-4.78h-.57zm2.12 4.3v-4.3h-.57v4.78h3.14v-.48h-2.57m3.16-4.3v4.78h.57v-4.78h-.57zm2.07 3.77h2.55l.4 1h.59l-1.88-4.77h-.81l-1.83 4.78h.6l.38-1.01m2.39-.45h-2.23l1.1-2.87 1.13 2.87zm1.45-5.75H0v.21h102.73v-.2zm7.68 9.51H0v.21h110.41v-.21z"/><path fill="#231F20" d="M117.87 34.58c-.2 1.13-.46 2.29-.77 3.48a79.67 79.67 0 0 1-1.03 3.52c-.36 1.17-.71 2.26-1.05 3.27v-.13a62.87 62.87 0 0 1-.66 1.95l.06-.06c-.6 1.83-1.2 3.62-1.76 5.39a76.67 76.67 0 0 0-1.5 5.29 57.39 57.39 0 0 0-1.04 5.34 38.1 38.1 0 0 0-.4 5.53c0 .52-.08 1.07-.24 1.64a4.85 4.85 0 0 1-.78 1.54 3.94 3.94 0 0 1-3.23 1.58 5.8 5.8 0 0 1-2.95-.62 3.47 3.47 0 0 1-1.45-1.59 5.95 5.95 0 0 1-.47-2.14 57.8 57.8 0 0 1-.05-2.3c0-1.7.14-3.44.43-5.21.28-1.78.65-3.56 1.1-5.34.45-1.79.95-3.55 1.5-5.28l1.6-5 .54-1.6c.05-.15.1-.32.18-.52l.2-.58c.19-.61.4-1.29.65-2.02a155.45 155.45 0 0 0 1.43-4.6c.23-.78.42-1.5.57-2.17a10.1 10.1 0 0 0-1.78 2.31c-.56.96-1.08 2.02-1.56 3.18-.48 1.17-.93 2.38-1.35 3.64a84.18 84.18 0 0 0-2.02 6.98 724.6 724.6 0 0 1-.63 2.54c-.3 1-.83 1.85-1.6 2.53a4.19 4.19 0 0 1-2.87 1.03c-1.1 0-2.02-.35-2.8-1.03a5.31 5.31 0 0 1-1.58-2.53c-.23-.95-.45-1.92-.65-2.92a656.55 656.55 0 0 1-.9-4.61l-.18 2.03c-.07.68-.15 1.36-.26 2.03l.35.74c.13.26.24.53.35.8l-.07-.06a264.13 264.13 0 0 1 4.04 9.14c.27.67.48 1.25.64 1.74.16.5.24.85.24 1.06a4.67 4.67 0 0 1-2.8 4.16c-.55.23-1.13.34-1.74.34-.9 0-1.72-.23-2.46-.7a4.15 4.15 0 0 1-1.6-1.88l-1.07-2.36c-.5-1.1-1.1-2.37-1.75-3.83l-2.16-4.76-2.35-5.16A550.19 550.19 0 0 1 76 38.88c-.55-1.32-1-2.4-1.34-3.27a7.45 7.45 0 0 1-.5-1.54c0-.65.13-1.25.38-1.8a4.73 4.73 0 0 1 2.44-2.36 4.44 4.44 0 0 1 1.72-.34c.9 0 1.73.34 2.5 1.02.77.68 1.46 1.53 2.06 2.54.28-1 .61-1.94 1.01-2.85.4-.92.87-1.73 1.42-2.45a6.55 6.55 0 0 1 1.89-1.7 4.76 4.76 0 0 1 2.46-.63c.92 0 1.77.28 2.53.82a9.3 9.3 0 0 1 2.11 2.14c.65.89 1.22 1.89 1.72 3.01s.95 2.25 1.33 3.39a35.62 35.62 0 0 1 2.44-4.05 21.05 21.05 0 0 1 3.05-3.51 14.46 14.46 0 0 1 3.69-2.47c1.33-.62 2.79-.93 4.36-.93 1.22 0 2.26.2 3.14.6.87.4 1.58.93 2.14 1.62.55.68.96 1.48 1.23 2.39.26.91.39 1.89.39 2.91 0 .97-.1 2.02-.3 3.16"/><path fill="#FFF" d="M105.47 73.48c-1.4 0-2.46-.23-3.24-.7a4.05 4.05 0 0 1-1.67-1.84 6.55 6.55 0 0 1-.52-2.35 59 59 0 0 1-.05-2.32c0-1.72.15-3.5.43-5.3.29-1.78.66-3.6 1.12-5.4.45-1.79.96-3.57 1.5-5.3l1.61-5 .54-1.61.18-.54.2-.56.64-2.02a182.91 182.91 0 0 0 1.27-4.05l-.02.05c-.54.93-1.06 1.98-1.53 3.12a54.23 54.23 0 0 0-1.34 3.6 82.33 82.33 0 0 0-2 6.93l-.63 2.54a5.86 5.86 0 0 1-1.78 2.82 4.76 4.76 0 0 1-3.24 1.17 4.65 4.65 0 0 1-2.74-.83 524.9 524.9 0 0 1 1.56 3.64c.27.68.5 1.28.66 1.8.18.56.26.95.26 1.22a5.25 5.25 0 0 1-3.14 4.68 5.14 5.14 0 0 1-4.72-.41A4.7 4.7 0 0 1 87 64.7c-.2-.48-.56-1.27-1.06-2.35-.5-1.1-1.1-2.38-1.75-3.84l-4.5-9.92a525.36 525.36 0 0 1-4.2-9.5c-.56-1.31-1-2.4-1.35-3.27-.5-1.28-.54-1.57-.54-1.75 0-.73.14-1.41.43-2.03a5.13 5.13 0 0 1 2.74-2.65 4.45 4.45 0 0 1 4.8.78c.54.48 1.04 1.03 1.5 1.66.21-.61.44-1.2.69-1.78.41-.95.91-1.81 1.49-2.56a7.11 7.11 0 0 1 2.05-1.84c1.6-.95 3.9-1 5.6.21a9.88 9.88 0 0 1 2.24 2.27c.66.91 1.26 1.96 1.78 3.11a38 38 0 0 1 .91 2.23c.57-1.01 1.2-2.01 1.88-2.98a21.7 21.7 0 0 1 3.13-3.6 15.08 15.08 0 0 1 3.83-2.57c1.4-.66 2.95-.99 4.6-.99 1.3 0 2.43.22 3.37.65a6.5 6.5 0 0 1 3.68 4.37c.27.97.41 2 .41 3.07 0 1-.1 2.09-.3 3.25a42.9 42.9 0 0 1-.79 3.53c-.31 1.2-.66 2.4-1.03 3.55-.36 1.17-.72 2.26-1.05 3.27h-.04a58.37 58.37 0 0 1-.6 1.75l.04.02c-.61 1.82-1.2 3.62-1.77 5.38a76.48 76.48 0 0 0-1.48 5.25 57.35 57.35 0 0 0-1.03 5.3 37.8 37.8 0 0 0-.39 5.44c0 .57-.1 1.18-.27 1.8-.19.63-.48 1.2-.87 1.72s-.9.95-1.5 1.29a4.5 4.5 0 0 1-2.18.5zm4.22-41.18l-.39 1.77c-.15.7-.35 1.44-.58 2.2a173.58 173.58 0 0 1-2.08 6.63 21.01 21.01 0 0 1-.38 1.1l-.54 1.62c-.53 1.6-1.06 3.25-1.6 4.98a94.29 94.29 0 0 0-1.5 5.25 61.5 61.5 0 0 0-1.09 5.3 32.76 32.76 0 0 0-.42 5.12c0 .74.02 1.5.05 2.27.03.7.17 1.36.43 1.94.23.55.63.98 1.22 1.34.6.35 1.49.53 2.66.53a3.37 3.37 0 0 0 2.78-1.35c.31-.4.54-.87.69-1.37.15-.5.23-1 .23-1.47 0-1.91.13-3.8.4-5.61.26-1.82.61-3.63 1.05-5.4.43-1.76.93-3.55 1.5-5.33.56-1.74 1.15-3.52 1.75-5.33l-.03-.02a22.35 22.35 0 0 0 .64-1.92h.04c.33-.97.67-2.02 1.02-3.14.36-1.14.7-2.32 1.02-3.5.3-1.16.56-2.31.76-3.44a18 18 0 0 0 .29-3.05c0-.97-.13-1.9-.37-2.76a5.37 5.37 0 0 0-3.07-3.66 6.96 6.96 0 0 0-2.9-.55 9.7 9.7 0 0 0-4.12.88c-1.28.6-2.47 1.4-3.55 2.38-1.09 1-2.09 2.15-2.97 3.42a35 35 0 0 0-2.4 3.98l-.61 1.19-.43-1.27c-.37-1.1-.8-2.23-1.3-3.33a16.31 16.31 0 0 0-1.66-2.91 8.82 8.82 0 0 0-1.98-2.01 3.7 3.7 0 0 0-2.21-.72c-.82 0-1.55.19-2.17.55-.65.38-1.23.9-1.73 1.56-.52.68-.97 1.46-1.35 2.33a21.1 21.1 0 0 0-.98 2.77l-.35 1.26-.67-1.12a10.4 10.4 0 0 0-1.96-2.4 3.3 3.3 0 0 0-3.63-.58 4 4 0 0 0-2.15 2.08c-.22.47-.33 1-.33 1.56 0 .01.05.26.47 1.33.34.86.78 1.94 1.33 3.25a324.34 324.34 0 0 0 4.19 9.47l4.5 9.92a607.03 607.03 0 0 0 2.83 6.2c.29.68.75 1.21 1.39 1.63.65.41 1.35.62 2.15.62a3.9 3.9 0 0 0 2.78-1.13c.36-.36.64-.77.87-1.27.22-.48.33-1 .33-1.55 0-.06-.02-.29-.21-.88-.16-.49-.37-1.06-.63-1.7a484.85 484.85 0 0 0-4.02-9.11l.03-.03-.31-.71a45.9 45.9 0 0 1-.36-.76L90 49.2l.03-.16c.1-.66.19-1.33.25-2l.19-2.03 1.11-.03a16.23 16.23 0 0 0 .3 1.63l.6 2.96c.2.99.4 1.95.64 2.89.25.87.73 1.64 1.41 2.25.67.59 1.46.88 2.42.88 1 0 1.82-.3 2.5-.89.68-.6 1.17-1.37 1.43-2.27l.62-2.51a105.72 105.72 0 0 1 2.04-7.02c.41-1.26.87-2.5 1.36-3.68.5-1.18 1.03-2.28 1.6-3.25.58-1 1.21-1.82 1.88-2.44l1.32-1.23zM91.16 49.05l.1.22-.08-.4c0 .07-.02.12-.03.18z"/><path fill="#DB3435" d="M20.38 31.27c1.04-.45 2.2-.9 3.3-1.22H5.47V14.24h46.71c.26 1.16.45 2.38.52 3.61.84 10.26-3.42 18.65-12.07 23.8a23.8 23.8 0 0 1-4.9 2.2h16.71V60.7H5.74c-.2-1.16-.39-2.39-.45-3.61-.71-12.45 4.51-21.1 15.1-25.8"/><path fill="none" stroke="#F2F2F2" stroke-width="1.87" d="M20.38 31.27c1.04-.45 2.2-.9 3.3-1.22H5.47V14.24h46.71c.26 1.16.45 2.38.52 3.61.84 10.26-3.42 18.65-12.07 23.8a23.8 23.8 0 0 1-4.9 2.2h16.71V60.7H5.74c-.2-1.16-.39-2.39-.45-3.61-.71-12.45 4.51-21.1 15.1-25.8z"/><path fill="#231F20" d="M86.23 11.24c.2-1.13.3-2.18.3-3.15 0-1.03-.13-2-.4-2.91a6.67 6.67 0 0 0-1.22-2.4 5.87 5.87 0 0 0-2.15-1.62 7.5 7.5 0 0 0-3.13-.6c-1.57 0-3.03.31-4.36.93a14.46 14.46 0 0 0-3.69 2.47 21.05 21.05 0 0 0-3.05 3.52 35.54 35.54 0 0 0-2.45 4.05 36.33 36.33 0 0 0-1.32-3.4 16.8 16.8 0 0 0-1.72-3 9.3 9.3 0 0 0-2.1-2.14 4.28 4.28 0 0 0-2.54-.82c-.93 0-1.75.2-2.46.63-.71.42-1.34.99-1.9 1.7a11.7 11.7 0 0 0-1.4 2.44c-.4.92-.74 1.87-1.02 2.85-.6-1-1.3-1.85-2.06-2.53a3.7 3.7 0 0 0-2.5-1.03 4.54 4.54 0 0 0-4.54 4.5c0 .18.17.7.5 1.55a325.76 325.76 0 0 0 5.53 12.74l2.35 5.17 2.16 4.76a670.27 670.27 0 0 0 2.82 6.19c.33.78.87 1.4 1.6 1.87.74.48 1.56.71 2.46.71a4.42 4.42 0 0 0 3.17-1.29 4.65 4.65 0 0 0 1.37-3.21c0-.21-.08-.56-.24-1.06a25.3 25.3 0 0 0-.64-1.75l-.93-2.2a530.53 530.53 0 0 0-2.13-4.8l-.98-2.13.07.06c-.11-.27-.22-.54-.35-.8l-.35-.74c.1-.68.2-1.35.25-2.04l.2-2.03a20.11 20.11 0 0 0 .3 1.67l.6 2.95c.19 1 .4 1.97.64 2.91.3 1.01.82 1.86 1.59 2.54.76.68 1.7 1.02 2.79 1.02 1.13 0 2.09-.34 2.86-1.02a5.27 5.27 0 0 0 1.6-2.54c.18-.67.39-1.52.64-2.53a100.93 100.93 0 0 1 2.02-6.98c.42-1.26.87-2.48 1.35-3.64.48-1.17 1-2.23 1.56-3.18.56-.96 1.15-1.73 1.78-2.32-.15.67-.34 1.4-.57 2.18a206.98 206.98 0 0 1-2.46 7.71l-.53 1.61c-.53 1.6-1.07 3.26-1.61 5a95.05 95.05 0 0 0-1.5 5.27 60.63 60.63 0 0 0-1.1 5.34 32.98 32.98 0 0 0-.43 5.21c0 .76.02 1.53.05 2.3.03.78.19 1.5.47 2.15.29.65.77 1.18 1.45 1.59.68.4 1.67.61 2.95.61a3.91 3.91 0 0 0 3.23-1.57c.35-.47.6-.98.78-1.55.16-.56.25-1.11.25-1.64 0-1.89.13-3.73.4-5.52.25-1.8.6-3.58 1.03-5.34.43-1.77.93-3.53 1.5-5.3.56-1.76 1.15-3.56 1.76-5.38l-.06.06a21.82 21.82 0 0 0 .66-1.95v.12c.34-1 .69-2.1 1.05-3.26.37-1.16.71-2.34 1.03-3.53.31-1.18.55-2.25.75-3.39l.02-.09z"/><path fill="#FFF" d="M73.83 50.14c-1.4 0-2.46-.22-3.24-.69a4.03 4.03 0 0 1-1.67-1.85 6.48 6.48 0 0 1-.52-2.34 33.62 33.62 0 0 1 .39-7.63c.28-1.77.65-3.59 1.1-5.39.46-1.8.97-3.58 1.51-5.3l1.61-5 .54-1.61.18-.54.2-.57c.18-.6.4-1.27.64-2.01a153.92 153.92 0 0 0 1.27-4.05l-.02.05c-.54.93-1.06 1.97-1.53 3.11a53.2 53.2 0 0 0-1.34 3.6 81.08 81.08 0 0 0-2 6.94l-.63 2.54a5.87 5.87 0 0 1-1.78 2.82 4.76 4.76 0 0 1-3.24 1.16 4.65 4.65 0 0 1-2.74-.83l.57 1.31.05.12c.35.8.66 1.55.94 2.22.28.7.5 1.29.66 1.8.18.56.26.95.26 1.22a5.2 5.2 0 0 1-3.14 4.68 5.14 5.14 0 0 1-4.72-.41 4.7 4.7 0 0 1-1.82-2.13c-.2-.48-.56-1.26-1.06-2.35l-1.75-3.83-4.5-9.92a580.24 580.24 0 0 1-4.2-9.5c-.56-1.31-1-2.4-1.35-3.27-.5-1.29-.54-1.57-.54-1.75 0-.73.15-1.41.43-2.03a5.29 5.29 0 0 1 2.74-2.65 4.45 4.45 0 0 1 4.8.78c.54.48 1.05 1.03 1.5 1.66.21-.61.44-1.2.7-1.78.41-.96.91-1.82 1.48-2.56a7.17 7.17 0 0 1 2.05-1.84c1.6-.95 3.9-1 5.6.21A9.93 9.93 0 0 1 63.5 4.8c.66.91 1.26 1.96 1.78 3.11.33.73.63 1.48.91 2.23.58-1.02 1.2-2.02 1.88-2.98a21.72 21.72 0 0 1 3.14-3.6A15.08 15.08 0 0 1 75.03.97c1.4-.65 2.95-.98 4.6-.98 1.3 0 2.43.22 3.37.65a6.46 6.46 0 0 1 2.34 1.78c.6.74 1.05 1.61 1.34 2.6.27.95.41 1.99.41 3.06 0 1-.1 2.09-.3 3.25-.2 1.14-.47 2.32-.79 3.53a82.06 82.06 0 0 1-1.03 3.55c-.37 1.17-.72 2.26-1.06 3.27h-.04a58.37 58.37 0 0 1-.59 1.75l.03.01c-.6 1.83-1.2 3.62-1.76 5.39a75.88 75.88 0 0 0-1.49 5.25 57.42 57.42 0 0 0-1.02 5.29c-.26 1.76-.4 3.59-.4 5.44 0 .58-.08 1.19-.27 1.8-.18.63-.47 1.21-.86 1.72a4.48 4.48 0 0 1-3.68 1.8zm4.22-41.17l-.4 1.76c-.14.68-.34 1.43-.57 2.22a250.55 250.55 0 0 1-2.46 7.7l-.54 1.64c-.53 1.59-1.06 3.25-1.6 4.98a93.87 93.87 0 0 0-1.5 5.25 60.26 60.26 0 0 0-1.09 5.29 32.57 32.57 0 0 0-.42 5.12c0 .75.02 1.51.05 2.28.03.7.17 1.36.43 1.94.23.55.64.98 1.22 1.34.6.35 1.49.53 2.66.53a3.39 3.39 0 0 0 2.78-1.35c.3-.4.54-.87.69-1.37.15-.51.23-1 .23-1.48 0-1.9.13-3.8.4-5.6.26-1.8.61-3.62 1.05-5.4.43-1.77.93-3.56 1.5-5.33l1.75-5.34-.03-.01a22.35 22.35 0 0 0 .64-1.92h.04c.33-.97.67-2.02 1.02-3.14.36-1.15.7-2.33 1.02-3.5.31-1.18.56-2.33.76-3.44.2-1.1.29-2.12.29-3.05 0-.97-.12-1.9-.37-2.76a6.14 6.14 0 0 0-1.13-2.2 5.34 5.34 0 0 0-1.94-1.46 6.98 6.98 0 0 0-2.9-.55 9.7 9.7 0 0 0-4.12.88c-1.28.59-2.47 1.39-3.54 2.38-1.1 1-2.1 2.15-2.98 3.42-.9 1.28-1.7 2.62-2.4 3.98l-.61 1.18-.42-1.26a35.64 35.64 0 0 0-1.3-3.33 16.35 16.35 0 0 0-1.67-2.91 8.83 8.83 0 0 0-1.98-2.02 3.7 3.7 0 0 0-2.2-.71c-.83 0-1.56.18-2.18.55-.65.38-1.23.9-1.73 1.56-.51.67-.97 1.45-1.35 2.32a20.8 20.8 0 0 0-.98 2.78l-.35 1.26-.67-1.12a10.4 10.4 0 0 0-1.96-2.4 3.3 3.3 0 0 0-3.63-.58 4 4 0 0 0-2.15 2.07c-.21.48-.32 1-.32 1.57 0 .01.04.26.46 1.33a318.73 318.73 0 0 0 5.52 12.71l4.5 9.93a666.82 666.82 0 0 0 2.83 6.2 3.87 3.87 0 0 0 3.55 2.24 3.88 3.88 0 0 0 2.77-1.13c.36-.35.65-.77.87-1.26.22-.48.33-1 .33-1.55 0-.07-.02-.29-.2-.88a24.7 24.7 0 0 0-.64-1.71l-.92-2.2-.06-.11-1-2.29a283 283 0 0 0-2.04-4.5l.03-.03-.31-.71-.35-.76-.07-.15.02-.17c.1-.66.19-1.32.25-2l.19-2.03 1.12-.02a19 19 0 0 0 .3 1.62l.59 2.96c.2.99.41 1.96.64 2.9.26.87.74 1.64 1.42 2.24.66.6 1.45.88 2.41.88 1 0 1.82-.29 2.5-.88.7-.6 1.18-1.37 1.44-2.27l.62-2.51a102.74 102.74 0 0 1 2.03-7.03c.42-1.26.88-2.5 1.37-3.67.5-1.19 1.03-2.28 1.6-3.25.58-1 1.2-1.82 1.88-2.44l1.3-1.23zM59.5 25.71l.1.23-.07-.4-.03.18z"/></svg>